<svg version="1.1" viewBox="0.0 0.0 831.496062992126 245.66929133858267" fill="none" stroke="none" stroke-linecap="square" stroke-miterlimit="10" xmlns:xlink="http://www.w3.org/1999/xlink" xmlns="http://www.w3.org/2000/svg"><clipPath id="p.0"><path d="m0 0l831.49603 0l0 245.6693l-831.49603 0l0 -245.6693z" clip-rule="nonzero"/></clipPath><g clip-path="url(#p.0)"><path fill="#000000" fill-opacity="0.0" d="m0 0l831.49603 0l0 245.6693l-831.49603 0z" fill-rule="evenodd"/><path fill="#000000" fill-opacity="0.0" d="m270.983 8.39203l0 225.6378" fill-rule="evenodd"/><path stroke="#000000" stroke-width="2.0" stroke-linejoin="round" stroke-linecap="butt" d="m270.983 8.39203l0 225.6378" fill-rule="evenodd"/><path fill="#000000" fill-opacity="0.0" d="m30.380432 124.28127l765.6378 0" fill-rule="evenodd"/><path stroke="#000000" stroke-width="2.0" stroke-linejoin="round" stroke-linecap="butt" d="m30.380432 124.28127l765.6378 0" fill-rule="evenodd"/><path fill="#000000" fill-opacity="0.0" d="m547.1194 8.39203l0 225.6378" fill-rule="evenodd"/><path stroke="#000000" stroke-width="2.0" stroke-linejoin="round" stroke-linecap="butt" d="m547.1194 8.39203l0 225.6378" fill-rule="evenodd"/><path fill="#fce5cd" d="m54.78267 32.876667c-0.37051773 7.037182 2.8993874 18.765965 9.257217 22.963253c6.357826 4.1972885 22.284775 4.998249 28.889763 2.2204742c6.604988 -2.7777786 9.466316 -12.857395 10.740158 -18.887142c1.2738419 -6.029743 -0.44269562 -12.723095 -3.0971146 -17.291338c-2.654419 -4.568241 -7.111107 -8.740594 -12.829399 -10.11811c-5.7182846 -1.3775148 -15.98687 -1.6657915 -21.480309 1.8530188c-5.4934425 3.5188103 -11.109802 12.22266 -11.480316 19.259844z" fill-rule="evenodd"/><path stroke="#000000" stroke-width="1.0" stroke-linejoin="round" stroke-linecap="butt" d="m54.78267 32.876667c-0.37051773 7.037182 2.8993874 18.765965 9.257217 22.963253c6.357826 4.1972885 22.284775 4.998249 28.889763 2.2204742c6.604988 -2.7777786 9.466316 -12.857395 10.740158 -18.887142c1.2738419 -6.029743 -0.44269562 -12.723095 -3.0971146 -17.291338c-2.654419 -4.568241 -7.111107 -8.740594 -12.829399 -10.11811c-5.7182846 -1.3775148 -15.98687 -1.6657915 -21.480309 1.8530188c-5.4934425 3.5188103 -11.109802 12.22266 -11.480316 19.259844z" fill-rule="evenodd"/><path fill="#000000" fill-opacity="0.0" d="m92.43545 33.82804l45.196846 0" fill-rule="evenodd"/><path stroke="#000000" stroke-width="2.0" stroke-linejoin="round" stroke-linecap="butt" d="m92.43545 33.82804l45.196846 0" fill-rule="evenodd"/><path fill="#000000" fill-opacity="0.0" d="m66.13624 33.82804c0 -7.244932 5.8872757 -13.118111 13.149605 -13.118111c3.4874878 0 6.8321457 1.3820839 9.298172 3.842207c2.466034 2.460123 3.8514328 5.7967644 3.8514328 9.275904c0 7.244934 -5.8872757 13.118111 -13.149605 13.118111c-7.262329 0 -13.149605 -5.8731766 -13.149605 -13.118111z" fill-rule="evenodd"/><path stroke="#000000" stroke-width="2.0" stroke-linejoin="round" stroke-linecap="butt" d="m66.13624 33.82804c0 -7.244932 5.8872757 -13.118111 13.149605 -13.118111c3.4874878 0 6.8321457 1.3820839 9.298172 3.842207c2.466034 2.460123 3.8514328 5.7967644 3.8514328 9.275904c0 7.244934 -5.8872757 13.118111 -13.149605 13.118111c-7.262329 0 -13.149605 -5.8731766 -13.149605 -13.118111z" fill-rule="evenodd"/><path fill="#000000" d="m81.969215 37.167416l-5.515625 0l-1.484375 4.140625l-1.75 0l5.65625 -15.171873l0.8125 0l5.671875 15.171873l-1.859375 0l-1.53125 -4.140625zm-4.9375 -1.53125l4.390625 0l-1.65625 -4.546873l-0.53125 -2.265625l-0.03125 0l-0.53125 2.3125l-1.640625 4.499998z" fill-rule="nonzero"/><path fill="#ffffff" d="m137.64784 33.82804c0 -7.244932 5.8872833 -13.118111 13.149597 -13.118111c3.487503 0 6.8321533 1.3820839 9.298187 3.842207c2.4660187 2.460123 3.8514252 5.7967644 3.8514252 9.275904c0 7.244934 -5.8872833 13.118111 -13.149612 13.118111c-7.262314 0 -13.149597 -5.8731766 -13.149597 -13.118111z" fill-rule="evenodd"/><path stroke="#000000" stroke-width="2.0" stroke-linejoin="round" stroke-linecap="butt" d="m137.64784 33.82804c0 -7.244932 5.8872833 -13.118111 13.149597 -13.118111c3.487503 0 6.8321533 1.3820839 9.298187 3.842207c2.4660187 2.460123 3.8514252 5.7967644 3.8514252 9.275904c0 7.244934 -5.8872833 13.118111 -13.149612 13.118111c-7.262314 0 -13.149597 -5.8731766 -13.149597 -13.118111z" fill-rule="evenodd"/><path fill="#000000" d="m155.38211 29.792418q0 0.53125 -0.171875 1.09375q-0.171875 0.546875 -0.515625 1.03125q-0.328125 0.4687481 -0.875 0.8437481q-0.53125 0.359375 -1.25 0.546875l0 0.09375q0.640625 0.09375 1.21875 0.359375q0.59375 0.25 1.03125 0.703125q0.453125 0.4375 0.734375 1.078125q0.28125 0.640625 0.28125 1.515625q0 1.15625 -0.484375 2.0q-0.484375 0.84375 -1.265625 1.375q-0.765625 0.53125 -1.78125 0.796875q-1.0 0.25 -2.046875 0.25q-0.359375 0 -0.859375 0q-0.484375 0 -1.015625 -0.03125q-0.53125 -0.03125 -1.0625 -0.09375q-0.53125 -0.046875 -0.9375 -0.15625l0 -14.687498q0.796875 -0.140625 1.828125 -0.21875q1.046875 -0.078125 2.28125 -0.078125q0.84375 0 1.703125 0.140625q0.859375 0.125 1.5625 0.53125q0.703125 0.390625 1.15625 1.09375q0.46875 0.703125 0.46875 1.8125zm-4.953125 10.156248q0.6875 0 1.328125 -0.15625q0.640625 -0.171875 1.125 -0.515625q0.5 -0.359375 0.78125 -0.859375q0.296875 -0.515625 0.296875 -1.21875q0 -0.875 -0.359375 -1.40625q-0.34375 -0.546875 -0.921875 -0.84375q-0.5625 -0.296875 -1.265625 -0.40625q-0.703125 -0.109375 -1.40625 -0.109375l-1.859375 0l0 5.359375q0.15625 0.046875 0.421875 0.078125q0.28125 0.015625 0.59375 0.03125q0.328125 0.015625 0.671875 0.03125q0.34375 0.015625 0.59375 0.015625zm-1.171875 -7.0q0.375 0 0.875 -0.015625q0.515625 -0.03125 0.859375 -0.078125q0.515625 -0.15625 0.953125 -0.40625q0.453125 -0.25 0.796875 -0.5781231q0.359375 -0.328125 0.5625 -0.765625q0.203125 -0.4375 0.203125 -0.953125q0 -0.703125 -0.265625 -1.15625q-0.265625 -0.46875 -0.71875 -0.734375q-0.453125 -0.28125 -1.03125 -0.390625q-0.5625 -0.125 -1.15625 -0.125q-0.703125 0 -1.296875 0.03125q-0.59375 0.03125 -0.890625 0.09375l0 5.078123l1.109375 0z" fill-rule="nonzero"/><path fill="#ffffff" d="m101.89204 85.46572c0 -7.244934 5.8872833 -13.118111 13.149605 -13.118111c3.4874954 0 6.8321457 1.3820877 9.29818 3.8422089c2.4660263 2.4601212 3.8514328 5.7967606 3.8514328 9.275902c0 7.244934 -5.8872833 13.118111 -13.149612 13.118111c-7.2623215 0 -13.149605 -5.8731766 -13.149605 -13.118111z" fill-rule="evenodd"/><path stroke="#000000" stroke-width="2.0" stroke-linejoin="round" stroke-linecap="butt" d="m101.89204 85.46572c0 -7.244934 5.8872833 -13.118111 13.149605 -13.118111c3.4874954 0 6.8321457 1.3820877 9.29818 3.8422089c2.4660263 2.4601212 3.8514328 5.7967606 3.8514328 9.275902c0 7.244934 -5.8872833 13.118111 -13.149612 13.118111c-7.2623215 0 -13.149605 -5.8731766 -13.149605 -13.118111z" fill-rule="evenodd"/><path fill="#000000" d="m111.13818 78.008224l8.125 0l0 1.59375l-6.359375 0l0 4.875l5.828125 0l0 1.578125l-5.828125 0l0 5.3125l6.46875 0l0 1.578125l-8.234375 0l0 -14.9375z" fill-rule="nonzero"/><path fill="#000000" fill-opacity="0.0" d="m88.584015 43.103947l17.16536 33.070866" fill-rule="evenodd"/><path stroke="#000000" stroke-width="2.0" stroke-linejoin="round" stroke-linecap="butt" d="m88.584015 43.103947l17.16536 33.070866" fill-rule="evenodd"/><path fill="#000000" fill-opacity="0.0" d="m56.679646 85.46572l45.19685 0" fill-rule="evenodd"/><path stroke="#000000" stroke-width="1.0" stroke-linejoin="round" stroke-linecap="butt" stroke-dasharray="4.0,3.0" d="m56.679646 85.46572l45.19685 0" fill-rule="evenodd"/><path fill="#ffffff" d="m173.40364 85.46572c0 -7.244934 5.8872833 -13.118111 13.149612 -13.118111c3.4874878 0 6.832138 1.3820877 9.298172 3.8422089c2.466034 2.4601212 3.8514252 5.7967606 3.8514252 9.275902c0 7.244934 -5.887268 13.118111 -13.149597 13.118111c-7.262329 0 -13.149612 -5.8731766 -13.149612 -13.118111z" fill-rule="evenodd"/><path stroke="#000000" stroke-width="2.0" stroke-linejoin="round" stroke-linecap="butt" d="m173.40364 85.46572c0 -7.244934 5.8872833 -13.118111 13.149612 -13.118111c3.4874878 0 6.832138 1.3820877 9.298172 3.8422089c2.466034 2.4601212 3.8514252 5.7967606 3.8514252 9.275902c0 7.244934 -5.887268 13.118111 -13.149597 13.118111c-7.262329 0 -13.149612 -5.8731766 -13.149612 -13.118111z" fill-rule="evenodd"/><path fill="#000000" d="m182.8524 78.008224l8.125 0l0 1.59375l-6.359375 0l0 5.09375l5.9375 0l0 1.578125l-5.9375 0l0 6.671875l-1.765625 0l0 -14.9375z" fill-rule="nonzero"/><path fill="#ffffff" d="m209.15944 33.82804c0 -7.244932 5.8872833 -13.118111 13.149612 -13.118111c3.4874878 0 6.8321533 1.3820839 9.298172 3.842207c2.466034 2.460123 3.8514404 5.7967644 3.8514404 9.275904c0 7.244934 -5.8872833 13.118111 -13.149612 13.118111c-7.262329 0 -13.149612 -5.8731766 -13.149612 -13.118111z" fill-rule="evenodd"/><path stroke="#000000" stroke-width="2.0" stroke-linejoin="round" stroke-linecap="butt" d="m209.15944 33.82804c0 -7.244932 5.8872833 -13.118111 13.149612 -13.118111c3.4874878 0 6.8321533 1.3820839 9.298172 3.842207c2.466034 2.460123 3.8514404 5.7967644 3.8514404 9.275904c0 7.244934 -5.8872833 13.118111 -13.149612 13.118111c-7.262329 0 -13.149612 -5.8731766 -13.149612 -13.118111z" fill-rule="evenodd"/><path fill="#000000" d="m227.59485 40.68304q-0.640625 0.5 -1.625 0.6875q-0.984375 0.1875 -2.09375 0.1875q-1.34375 0 -2.515625 -0.453125q-1.171875 -0.453125 -2.046875 -1.390625q-0.875 -0.9375 -1.390625 -2.390625q-0.515625 -1.46875 -0.515625 -3.484375q0 -2.093748 0.5625 -3.546873q0.578125 -1.46875 1.5 -2.390625q0.9375 -0.921875 2.078125 -1.34375q1.15625 -0.4375 2.34375 -0.4375q1.28125 0 2.09375 0.140625q0.8125 0.140625 1.390625 0.375l-0.421875 1.5625q-1.03125 -0.5 -2.921875 -0.5q-0.875 0 -1.734375 0.328125q-0.859375 0.3125 -1.53125 1.046875q-0.671875 0.71875 -1.078125 1.890625q-0.390625 1.1718731 -0.390625 2.874998q0 1.546875 0.375 2.703125q0.390625 1.140625 1.0625 1.90625q0.671875 0.765625 1.578125 1.15625q0.90625 0.375 1.96875 0.375q0.953125 0 1.671875 -0.1875q0.71875 -0.1875 1.203125 -0.484375l0.4375 1.375z" fill-rule="nonzero"/><path fill="#ffffff" d="m30.380432 85.46572c0 -7.244934 5.8872795 -13.118111 13.149605 -13.118111c3.4874954 0 6.8321495 1.3820877 9.298176 3.8422089c2.4660301 2.4601212 3.8514328 5.7967606 3.8514328 9.275902c0 7.244934 -5.8872795 13.118111 -13.149609 13.118111c-7.2623253 0 -13.149605 -5.8731766 -13.149605 -13.118111z" fill-rule="evenodd"/><path stroke="#000000" stroke-width="2.0" stroke-linejoin="round" stroke-linecap="butt" d="m30.380432 85.46572c0 -7.244934 5.8872795 -13.118111 13.149605 -13.118111c3.4874954 0 6.8321495 1.3820877 9.298176 3.8422089c2.4660301 2.4601212 3.8514328 5.7967606 3.8514328 9.275902c0 7.244934 -5.8872795 13.118111 -13.149609 13.118111c-7.2623253 0 -13.149605 -5.8731766 -13.149605 -13.118111z" fill-rule="evenodd"/><path fill="#000000" d="m38.36821 78.008224q0.40625 -0.0625 0.90625 -0.09375q0.5 -0.03125 1.046875 -0.03125q0.546875 -0.015625 1.0625 -0.015625q0.53125 -0.015625 0.96875 -0.015625q1.796875 0 3.109375 0.5625q1.3125 0.546875 2.15625 1.546875q0.859375 0.984375 1.265625 2.375q0.421875 1.375 0.421875 3.03125q0 1.515625 -0.390625 2.921875q-0.390625 1.390625 -1.25 2.46875q-0.84375 1.078125 -2.21875 1.734375q-1.359375 0.640625 -3.296875 0.640625q-0.34375 0 -0.890625 -0.015625q-0.546875 0 -1.125 -0.03125q-0.578125 -0.03125 -1.0625 -0.0625q-0.484375 -0.015625 -0.703125 -0.0625l0 -14.953125zm4.03125 1.421875q-0.28125 0 -0.609375 0q-0.328125 0 -0.65625 0.015625q-0.3125 0.015625 -0.578125 0.046875q-0.265625 0.015625 -0.421875 0.03125l0 11.953125q0.109375 0.015625 0.40625 0.03125q0.296875 0.015625 0.609375 0.03125q0.328125 0 0.625 0.015625q0.3125 0 0.40625 0q1.5 0 2.515625 -0.5q1.015625 -0.515625 1.609375 -1.375q0.609375 -0.875 0.859375 -1.984375q0.265625 -1.125 0.265625 -2.328125q0 -1.03125 -0.234375 -2.09375q-0.234375 -1.0625 -0.8125 -1.90625q-0.578125 -0.859375 -1.546875 -1.390625q-0.96875 -0.546875 -2.4375 -0.546875z" fill-rule="nonzero"/><path fill="#000000" fill-opacity="0.0" d="m69.98766 43.103947l-17.165352 33.070866" fill-rule="evenodd"/><path stroke="#000000" stroke-width="2.0" stroke-linejoin="round" stroke-linecap="butt" d="m69.98766 43.103947l-17.165352 33.070866" fill-rule="evenodd"/><path fill="#000000" fill-opacity="0.0" d="m128.19125 85.46572l45.196854 0" fill-rule="evenodd"/><path stroke="#000000" stroke-width="1.0" stroke-linejoin="round" stroke-linecap="butt" stroke-dasharray="4.0,3.0" d="m128.19125 85.46572l45.196854 0" fill-rule="evenodd"/><path fill="#000000" fill-opacity="0.0" d="m160.09563 43.103947l17.165344 33.070866" fill-rule="evenodd"/><path stroke="#000000" stroke-width="1.0" stroke-linejoin="round" stroke-linecap="butt" stroke-dasharray="4.0,3.0" d="m160.09563 43.103947l17.165344 33.070866" fill-rule="evenodd"/><path fill="#000000" fill-opacity="0.0" d="m213.01088 43.103947l-17.16536 33.070866" fill-rule="evenodd"/><path stroke="#000000" stroke-width="1.0" stroke-linejoin="round" stroke-linecap="butt" stroke-dasharray="4.0,3.0" d="m213.01088 43.103947l-17.16536 33.070866" fill-rule="evenodd"/><path fill="#000000" d="m61.39014 55.82465c0 -1.452465 1.1492538 -2.629921 2.5669289 -2.629921c0.68079376 0 1.3337021 0.27708054 1.815094 0.77028656c0.4813919 0.49320602 0.75183105 1.1621361 0.75183105 1.8596344c0 1.452465 -1.1492462 2.629921 -2.566925 2.629921c-1.417675 0 -2.5669289 -1.1774559 -2.5669289 -2.629921z" fill-rule="evenodd"/><path stroke="#000000" stroke-width="2.0" stroke-linejoin="round" stroke-linecap="butt" d="m61.39014 55.82465c0 -1.452465 1.1492538 -2.629921 2.5669289 -2.629921c0.68079376 0 1.3337021 0.27708054 1.815094 0.77028656c0.4813919 0.49320602 0.75183105 1.1621361 0.75183105 1.8596344c0 1.452465 -1.1492462 2.629921 -2.566925 2.629921c-1.417675 0 -2.5669289 -1.1774559 -2.5669289 -2.629921z" fill-rule="evenodd"/><path fill="#000000" d="m92.390076 56.966656c0 -1.452465 1.1774597 -2.629921 2.629921 -2.629921c0.69750214 0 1.3664322 0.27708054 1.8596344 0.77028656c0.49320984 0.49320602 0.77028656 1.1621361 0.77028656 1.8596344c0 1.452465 -1.1774521 2.629921 -2.629921 2.629921c-1.4524612 0 -2.629921 -1.1774559 -2.629921 -2.629921z" fill-rule="evenodd"/><path stroke="#000000" stroke-width="2.0" stroke-linejoin="round" stroke-linecap="butt" d="m92.390076 56.966656c0 -1.452465 1.1774597 -2.629921 2.629921 -2.629921c0.69750214 0 1.3664322 0.27708054 1.8596344 0.77028656c0.49320984 0.49320602 0.77028656 1.1621361 0.77028656 1.8596344c0 1.452465 -1.1774521 2.629921 -2.629921 2.629921c-1.4524612 0 -2.629921 -1.1774559 -2.629921 -2.629921z" fill-rule="evenodd"/><path fill="#000000" d="m100.954895 33.82939c0 -1.452465 1.1774521 -2.6299229 2.629921 -2.6299229c0.6974945 0 1.3664246 0.27708054 1.8596344 0.77028656c0.4932022 0.49320793 0.77028656 1.162138 0.77028656 1.8596363c0 1.452465 -1.1774597 2.629921 -2.629921 2.629921c-1.4524689 0 -2.629921 -1.1774559 -2.629921 -2.629921z" fill-rule="evenodd"/><path stroke="#000000" stroke-width="2.0" stroke-linejoin="round" stroke-linecap="butt" d="m100.954895 33.82939c0 -1.452465 1.1774521 -2.6299229 2.629921 -2.6299229c0.6974945 0 1.3664246 0.27708054 1.8596344 0.77028656c0.4932022 0.49320793 0.77028656 1.162138 0.77028656 1.8596363c0 1.452465 -1.1774597 2.629921 -2.629921 2.629921c-1.4524689 0 -2.629921 -1.1774559 -2.629921 -2.629921z" fill-rule="evenodd"/><path fill="#000000" fill-opacity="0.0" d="m163.94705 33.82804l45.196854 0" fill-rule="evenodd"/><path stroke="#000000" stroke-width="1.0" stroke-linejoin="round" stroke-linecap="butt" stroke-dasharray="4.0,3.0" d="m163.94705 33.82804l45.196854 0" fill-rule="evenodd"/><path fill="#fce5cd" d="m333.7511 35.60061c-1.0756836 6.1622925 1.4925537 13.870953 7.6246643 17.275593c6.1321106 3.4046364 11.425629 3.131668 29.167969 3.1522293c17.74234 0.020561218 64.226166 3.1211739 77.2861 -3.0288696c13.059937 -6.1500473 9.227905 -26.882328 1.0734863 -33.87139c-8.154419 -6.9890633 -33.15442 -7.5253716 -50.0 -8.062992c-16.845581 -0.5376196 -40.214783 0.7480316 -51.073486 4.8372707c-10.858704 4.089239 -13.003052 13.53587 -14.078735 19.698162z" fill-rule="evenodd"/><path stroke="#000000" stroke-width="1.0" stroke-linejoin="round" stroke-linecap="butt" d="m333.7511 35.60061c-1.0756836 6.1622925 1.4925537 13.870953 7.6246643 17.275593c6.1321106 3.4046364 11.425629 3.131668 29.167969 3.1522293c17.74234 0.020561218 64.226166 3.1211739 77.2861 -3.0288696c13.059937 -6.1500473 9.227905 -26.882328 1.0734863 -33.87139c-8.154419 -6.9890633 -33.15442 -7.5253716 -50.0 -8.062992c-16.845581 -0.5376196 -40.214783 0.7480316 -51.073486 4.8372707c-10.858704 4.089239 -13.003052 13.53587 -14.078735 19.698162z" fill-rule="evenodd"/><path fill="#000000" fill-opacity="0.0" d="m343.8055 33.82804c0 -7.244932 5.8872986 -13.118111 13.149628 -13.118111c3.4874878 0 6.8321533 1.3820839 9.298157 3.842207c2.466034 2.460123 3.8514404 5.7967644 3.8514404 9.275904c0 7.244934 -5.887268 13.118111 -13.149597 13.118111c-7.262329 0 -13.149628 -5.8731766 -13.149628 -13.118111z" fill-rule="evenodd"/><path stroke="#000000" stroke-width="2.0" stroke-linejoin="round" stroke-linecap="butt" d="m343.8055 33.82804c0 -7.244932 5.8872986 -13.118111 13.149628 -13.118111c3.4874878 0 6.8321533 1.3820839 9.298157 3.842207c2.466034 2.460123 3.8514404 5.7967644 3.8514404 9.275904c0 7.244934 -5.887268 13.118111 -13.149597 13.118111c-7.262329 0 -13.149628 -5.8731766 -13.149628 -13.118111z" fill-rule="evenodd"/><path fill="#000000" d="m359.6385 37.167416l-5.515625 0l-1.484375 4.140625l-1.75 0l5.65625 -15.171873l0.8125 0l5.671875 15.171873l-1.859375 0l-1.53125 -4.140625zm-4.9375 -1.53125l4.390625 0l-1.65625 -4.546873l-0.53125 -2.265625l-0.03125 0l-0.53125 2.3125l-1.640625 4.499998z" fill-rule="nonzero"/><path fill="#000000" fill-opacity="0.0" d="m370.10474 33.82804l45.19684 0" fill-rule="evenodd"/><path stroke="#000000" stroke-width="2.0" stroke-linejoin="round" stroke-linecap="butt" d="m370.10474 33.82804l38.34268 0" fill-rule="evenodd"/><path fill="#000000" stroke="#000000" stroke-width="2.0" stroke-linecap="butt" d="m408.44742 33.82804l-2.249176 2.2491646l6.179535 -2.2491646l-6.179535 -2.2491684z" fill-rule="evenodd"/><path fill="#000000" fill-opacity="0.0" d="m415.31714 33.82804c0 -7.244932 5.887268 -13.118111 13.149597 -13.118111c3.4874878 0 6.8321533 1.3820839 9.298187 3.842207c2.466034 2.460123 3.85141 5.7967644 3.85141 9.275904c0 7.244934 -5.887268 13.118111 -13.149597 13.118111c-7.262329 0 -13.149597 -5.8731766 -13.149597 -13.118111z" fill-rule="evenodd"/><path stroke="#000000" stroke-width="2.0" stroke-linejoin="round" stroke-linecap="butt" d="m415.31714 33.82804c0 -7.244932 5.887268 -13.118111 13.149597 -13.118111c3.4874878 0 6.8321533 1.3820839 9.298187 3.842207c2.466034 2.460123 3.85141 5.7967644 3.85141 9.275904c0 7.244934 -5.887268 13.118111 -13.149597 13.118111c-7.262329 0 -13.149597 -5.8731766 -13.149597 -13.118111z" fill-rule="evenodd"/><path fill="#000000" d="m433.0514 29.792418q0 0.53125 -0.171875 1.09375q-0.171875 0.546875 -0.515625 1.03125q-0.328125 0.4687481 -0.875 0.8437481q-0.53125 0.359375 -1.25 0.546875l0 0.09375q0.640625 0.09375 1.21875 0.359375q0.59375 0.25 1.03125 0.703125q0.453125 0.4375 0.734375 1.078125q0.28125 0.640625 0.28125 1.515625q0 1.15625 -0.484375 2.0q-0.484375 0.84375 -1.265625 1.375q-0.765625 0.53125 -1.78125 0.796875q-1.0 0.25 -2.046875 0.25q-0.359375 0 -0.859375 0q-0.484375 0 -1.015625 -0.03125q-0.53125 -0.03125 -1.0625 -0.09375q-0.53125 -0.046875 -0.9375 -0.15625l0 -14.687498q0.796875 -0.140625 1.828125 -0.21875q1.046875 -0.078125 2.28125 -0.078125q0.84375 0 1.703125 0.140625q0.859375 0.125 1.5625 0.53125q0.703125 0.390625 1.15625 1.09375q0.46875 0.703125 0.46875 1.8125zm-4.953125 10.156248q0.6875 0 1.328125 -0.15625q0.640625 -0.171875 1.125 -0.515625q0.5 -0.359375 0.78125 -0.859375q0.296875 -0.515625 0.296875 -1.21875q0 -0.875 -0.359375 -1.40625q-0.34375 -0.546875 -0.921875 -0.84375q-0.5625 -0.296875 -1.265625 -0.40625q-0.703125 -0.109375 -1.40625 -0.109375l-1.859375 0l0 5.359375q0.15625 0.046875 0.421875 0.078125q0.28125 0.015625 0.59375 0.03125q0.328125 0.015625 0.671875 0.03125q0.34375 0.015625 0.59375 0.015625zm-1.171875 -7.0q0.375 0 0.875 -0.015625q0.515625 -0.03125 0.859375 -0.078125q0.515625 -0.15625 0.953125 -0.40625q0.453125 -0.25 0.796875 -0.5781231q0.359375 -0.328125 0.5625 -0.765625q0.203125 -0.4375 0.203125 -0.953125q0 -0.703125 -0.265625 -1.15625q-0.265625 -0.46875 -0.71875 -0.734375q-0.453125 -0.28125 -1.03125 -0.390625q-0.5625 -0.125 -1.15625 -0.125q-0.703125 0 -1.296875 0.03125q-0.59375 0.03125 -0.890625 0.09375l0 5.078123l1.109375 0z" fill-rule="nonzero"/><path fill="#ffffff" d="m379.56134 85.46572c0 -7.244934 5.887268 -13.118111 13.149597 -13.118111c3.4874878 0 6.8321533 1.3820877 9.298187 3.8422089c2.4660034 2.4601212 3.85141 5.7967606 3.85141 9.275902c0 7.244934 -5.887268 13.118111 -13.149597 13.118111c-7.262329 0 -13.149597 -5.8731766 -13.149597 -13.118111z" fill-rule="evenodd"/><path stroke="#000000" stroke-width="2.0" stroke-linejoin="round" stroke-linecap="butt" d="m379.56134 85.46572c0 -7.244934 5.887268 -13.118111 13.149597 -13.118111c3.4874878 0 6.8321533 1.3820877 9.298187 3.8422089c2.4660034 2.4601212 3.85141 5.7967606 3.85141 9.275902c0 7.244934 -5.887268 13.118111 -13.149597 13.118111c-7.262329 0 -13.149597 -5.8731766 -13.149597 -13.118111z" fill-rule="evenodd"/><path fill="#000000" d="m388.80746 78.008224l8.125 0l0 1.59375l-6.359375 0l0 4.875l5.828125 0l0 1.578125l-5.828125 0l0 5.3125l6.46875 0l0 1.578125l-8.234375 0l0 -14.9375z" fill-rule="nonzero"/><path fill="#000000" fill-opacity="0.0" d="m366.2533 43.103947l17.165375 33.070866" fill-rule="evenodd"/><path stroke="#000000" stroke-width="2.0" stroke-linejoin="round" stroke-linecap="butt" d="m366.2533 43.103947l17.165375 33.070866" fill-rule="evenodd"/><path fill="#000000" fill-opacity="0.0" d="m441.61633 33.82804l45.19687 0" fill-rule="evenodd"/><path stroke="#000000" stroke-width="2.0" stroke-linejoin="round" stroke-linecap="butt" d="m441.61633 33.82804l45.19687 0" fill-rule="evenodd"/><path fill="#ffffff" d="m451.07294 85.46572c0 -7.244934 5.887268 -13.118111 13.149597 -13.118111c3.4874878 0 6.8321533 1.3820877 9.298187 3.8422089c2.466034 2.4601212 3.85141 5.7967606 3.85141 9.275902c0 7.244934 -5.887268 13.118111 -13.149597 13.118111c-7.262329 0 -13.149597 -5.8731766 -13.149597 -13.118111z" fill-rule="evenodd"/><path stroke="#000000" stroke-width="2.0" stroke-linejoin="round" stroke-linecap="butt" d="m451.07294 85.46572c0 -7.244934 5.887268 -13.118111 13.149597 -13.118111c3.4874878 0 6.8321533 1.3820877 9.298187 3.8422089c2.466034 2.4601212 3.85141 5.7967606 3.85141 9.275902c0 7.244934 -5.887268 13.118111 -13.149597 13.118111c-7.262329 0 -13.149597 -5.8731766 -13.149597 -13.118111z" fill-rule="evenodd"/><path fill="#000000" d="m460.5217 78.008224l8.125 0l0 1.59375l-6.359375 0l0 5.09375l5.9375 0l0 1.578125l-5.9375 0l0 6.671875l-1.765625 0l0 -14.9375z" fill-rule="nonzero"/><path fill="#ffffff" d="m486.82874 33.82804c0 -7.244932 5.887268 -13.118111 13.149597 -13.118111c3.4874878 0 6.8321533 1.3820839 9.298187 3.842207c2.466034 2.460123 3.85141 5.7967644 3.85141 9.275904c0 7.244934 -5.887268 13.118111 -13.149597 13.118111c-7.262329 0 -13.149597 -5.8731766 -13.149597 -13.118111z" fill-rule="evenodd"/><path stroke="#000000" stroke-width="2.0" stroke-linejoin="round" stroke-linecap="butt" d="m486.82874 33.82804c0 -7.244932 5.887268 -13.118111 13.149597 -13.118111c3.4874878 0 6.8321533 1.3820839 9.298187 3.842207c2.466034 2.460123 3.85141 5.7967644 3.85141 9.275904c0 7.244934 -5.887268 13.118111 -13.149597 13.118111c-7.262329 0 -13.149597 -5.8731766 -13.149597 -13.118111z" fill-rule="evenodd"/><path fill="#000000" d="m505.26413 40.68304q-0.640625 0.5 -1.625 0.6875q-0.984375 0.1875 -2.09375 0.1875q-1.34375 0 -2.515625 -0.453125q-1.171875 -0.453125 -2.046875 -1.390625q-0.875 -0.9375 -1.390625 -2.390625q-0.515625 -1.46875 -0.515625 -3.484375q0 -2.093748 0.5625 -3.546873q0.578125 -1.46875 1.5 -2.390625q0.9375 -0.921875 2.078125 -1.34375q1.15625 -0.4375 2.34375 -0.4375q1.28125 0 2.09375 0.140625q0.8125 0.140625 1.390625 0.375l-0.421875 1.5625q-1.03125 -0.5 -2.921875 -0.5q-0.875 0 -1.734375 0.328125q-0.859375 0.3125 -1.53125 1.046875q-0.671875 0.71875 -1.078125 1.890625q-0.390625 1.1718731 -0.390625 2.874998q0 1.546875 0.375 2.703125q0.390625 1.140625 1.0625 1.90625q0.671875 0.765625 1.578125 1.15625q0.90625 0.375 1.96875 0.375q0.953125 0 1.671875 -0.1875q0.71875 -0.1875 1.203125 -0.484375l0.4375 1.375z" fill-rule="nonzero"/><path fill="#ffffff" d="m308.0497 85.46572c0 -7.244934 5.8872986 -13.118111 13.149628 -13.118111c3.4874878 0 6.832123 1.3820877 9.298157 3.8422089c2.466034 2.4601212 3.8514404 5.7967606 3.8514404 9.275902c0 7.244934 -5.887268 13.118111 -13.149597 13.118111c-7.262329 0 -13.149628 -5.8731766 -13.149628 -13.118111z" fill-rule="evenodd"/><path stroke="#000000" stroke-width="2.0" stroke-linejoin="round" stroke-linecap="butt" d="m308.0497 85.46572c0 -7.244934 5.8872986 -13.118111 13.149628 -13.118111c3.4874878 0 6.832123 1.3820877 9.298157 3.8422089c2.466034 2.4601212 3.8514404 5.7967606 3.8514404 9.275902c0 7.244934 -5.887268 13.118111 -13.149597 13.118111c-7.262329 0 -13.149628 -5.8731766 -13.149628 -13.118111z" fill-rule="evenodd"/><path fill="#000000" d="m316.0375 78.008224q0.40625 -0.0625 0.90625 -0.09375q0.5 -0.03125 1.046875 -0.03125q0.546875 -0.015625 1.0625 -0.015625q0.53125 -0.015625 0.96875 -0.015625q1.796875 0 3.109375 0.5625q1.3125 0.546875 2.15625 1.546875q0.859375 0.984375 1.265625 2.375q0.421875 1.375 0.421875 3.03125q0 1.515625 -0.390625 2.921875q-0.390625 1.390625 -1.25 2.46875q-0.84375 1.078125 -2.21875 1.734375q-1.359375 0.640625 -3.296875 0.640625q-0.34375 0 -0.890625 -0.015625q-0.546875 0 -1.125 -0.03125q-0.578125 -0.03125 -1.0625 -0.0625q-0.484375 -0.015625 -0.703125 -0.0625l0 -14.953125zm4.03125 1.421875q-0.28125 0 -0.609375 0q-0.328125 0 -0.65625 0.015625q-0.3125 0.015625 -0.578125 0.046875q-0.265625 0.015625 -0.421875 0.03125l0 11.953125q0.109375 0.015625 0.40625 0.03125q0.296875 0.015625 0.609375 0.03125q0.328125 0 0.625 0.015625q0.3125 0 0.40625 0q1.5 0 2.515625 -0.5q1.015625 -0.515625 1.609375 -1.375q0.609375 -0.875 0.859375 -1.984375q0.265625 -1.125 0.265625 -2.328125q0 -1.03125 -0.234375 -2.09375q-0.234375 -1.0625 -0.8125 -1.90625q-0.578125 -0.859375 -1.546875 -1.390625q-0.96875 -0.546875 -2.4375 -0.546875z" fill-rule="nonzero"/><path fill="#000000" fill-opacity="0.0" d="m347.65695 43.103947l-17.165344 33.070866" fill-rule="evenodd"/><path stroke="#000000" stroke-width="2.0" stroke-linejoin="round" stroke-linecap="butt" d="m347.65695 43.103947l-17.165344 33.070866" fill-rule="evenodd"/><path fill="#000000" fill-opacity="0.0" d="m405.86053 85.46572l45.19687 0" fill-rule="evenodd"/><path stroke="#000000" stroke-width="1.0" stroke-linejoin="round" stroke-linecap="butt" stroke-dasharray="4.0,3.0" d="m405.86053 85.46572l45.19687 0" fill-rule="evenodd"/><path fill="#000000" fill-opacity="0.0" d="m437.76492 43.103947l17.165344 33.070866" fill-rule="evenodd"/><path stroke="#000000" stroke-width="2.0" stroke-linejoin="round" stroke-linecap="butt" d="m437.76492 43.103947l17.165344 33.070866" fill-rule="evenodd"/><path fill="#000000" fill-opacity="0.0" d="m490.68018 43.103947l-17.165375 33.070866" fill-rule="evenodd"/><path stroke="#000000" stroke-width="1.0" stroke-linejoin="round" stroke-linecap="butt" stroke-dasharray="4.0,3.0" d="m490.68018 43.103947l-17.165375 33.070866" fill-rule="evenodd"/><path fill="#000000" d="m339.7832 53.301796c0 -1.452465 1.1774597 -2.629921 2.6299133 -2.629921c0.69750977 0 1.3664551 0.27708054 1.8596497 0.77028656c0.49319458 0.49320602 0.7702942 1.1621361 0.7702942 1.8596344c0 1.452465 -1.1774597 2.629921 -2.6299438 2.629921c-1.4524536 0 -2.6299133 -1.1774559 -2.6299133 -2.629921z" fill-rule="evenodd"/><path stroke="#000000" stroke-width="2.0" stroke-linejoin="round" stroke-linecap="butt" d="m339.7832 53.301796c0 -1.452465 1.1774597 -2.629921 2.6299133 -2.629921c0.69750977 0 1.3664551 0.27708054 1.8596497 0.77028656c0.49319458 0.49320602 0.7702942 1.1621361 0.7702942 1.8596344c0 1.452465 -1.1774597 2.629921 -2.6299438 2.629921c-1.4524536 0 -2.6299133 -1.1774559 -2.6299133 -2.629921z" fill-rule="evenodd"/><path fill="#000000" d="m370.75555 55.803215c0 -1.452465 1.1774597 -2.629921 2.6299133 -2.629921c0.69750977 0 1.3664246 0.27708054 1.8596497 0.77028656c0.49319458 0.49320602 0.7702942 1.1621361 0.7702942 1.8596344c0 1.452465 -1.1774597 2.629921 -2.6299438 2.629921c-1.4524536 0 -2.6299133 -1.1774559 -2.6299133 -2.629921z" fill-rule="evenodd"/><path stroke="#000000" stroke-width="2.0" stroke-linejoin="round" stroke-linecap="butt" d="m370.75555 55.803215c0 -1.452465 1.1774597 -2.629921 2.6299133 -2.629921c0.69750977 0 1.3664246 0.27708054 1.8596497 0.77028656c0.49319458 0.49320602 0.7702942 1.1621361 0.7702942 1.8596344c0 1.452465 -1.1774597 2.629921 -2.6299438 2.629921c-1.4524536 0 -2.6299133 -1.1774559 -2.6299133 -2.629921z" fill-rule="evenodd"/><path fill="#000000" d="m453.98624 33.57474c0 -1.452465 1.1774597 -2.629921 2.6299133 -2.629921c0.69750977 0 1.3664246 0.27707863 1.8596497 0.77028465c0.49319458 0.49320793 0.7702942 1.162138 0.7702942 1.8596363c0 1.452465 -1.1774597 2.629921 -2.6299438 2.629921c-1.4524536 0 -2.6299133 -1.1774559 -2.6299133 -2.629921z" fill-rule="evenodd"/><path stroke="#000000" stroke-width="2.0" stroke-linejoin="round" stroke-linecap="butt" d="m453.98624 33.57474c0 -1.452465 1.1774597 -2.629921 2.6299133 -2.629921c0.69750977 0 1.3664246 0.27707863 1.8596497 0.77028465c0.49319458 0.49320793 0.7702942 1.162138 0.7702942 1.8596363c0 1.452465 -1.1774597 2.629921 -2.6299438 2.629921c-1.4524536 0 -2.6299133 -1.1774559 -2.6299133 -2.629921z" fill-rule="evenodd"/><path fill="#000000" d="m441.2647 54.60634c0 -1.452465 1.1774597 -2.629921 2.6299438 -2.629921c0.69747925 0 1.3664246 0.27708054 1.8596191 0.77028656c0.49319458 0.49320602 0.7702942 1.1621361 0.7702942 1.8596344c0 1.452465 -1.1774597 2.629921 -2.6299133 2.629921c-1.4524841 0 -2.6299438 -1.1774559 -2.6299438 -2.629921z" fill-rule="evenodd"/><path stroke="#000000" stroke-width="2.0" stroke-linejoin="round" stroke-linecap="butt" d="m441.2647 54.60634c0 -1.452465 1.1774597 -2.629921 2.6299438 -2.629921c0.69747925 0 1.3664246 0.27708054 1.8596191 0.77028656c0.49319458 0.49320602 0.7702942 1.1621361 0.7702942 1.8596344c0 1.452465 -1.1774597 2.629921 -2.6299133 2.629921c-1.4524841 0 -2.6299438 -1.1774559 -2.6299438 -2.629921z" fill-rule="evenodd"/><path fill="#000000" fill-opacity="0.0" d="m334.34894 85.46572l45.19684 0" fill-rule="evenodd"/><path stroke="#000000" stroke-width="1.0" stroke-linejoin="round" stroke-linecap="butt" stroke-dasharray="4.0,3.0" d="m334.34894 85.46572l45.19684 0" fill-rule="evenodd"/><path fill="#fce5cd" d="m614.603 51.893837c4.6815796 13.929138 22.885376 39.52056 37.041992 47.04725c14.156616 7.52668 35.136047 6.0384903 47.897644 -1.887146c12.761597 -7.9256287 24.968506 -32.32064 28.671936 -45.666664c3.7034302 -13.34602 3.5563965 -26.819334 -6.451477 -34.409447c-10.007874 -7.5901146 -37.227905 -10.862643 -53.595764 -11.131235c-16.36792 -0.2685914 -35.684204 1.8451447 -44.611572 9.519686c-8.927368 7.6745415 -13.634277 22.598427 -8.952759 36.527557z" fill-rule="evenodd"/><path stroke="#000000" stroke-width="1.0" stroke-linejoin="round" stroke-linecap="butt" d="m614.603 51.893837c4.6815796 13.929138 22.885376 39.52056 37.041992 47.04725c14.156616 7.52668 35.136047 6.0384903 47.897644 -1.887146c12.761597 -7.9256287 24.968506 -32.32064 28.671936 -45.666664c3.7034302 -13.34602 3.5563965 -26.819334 -6.451477 -34.409447c-10.007874 -7.5901146 -37.227905 -10.862643 -53.595764 -11.131235c-16.36792 -0.2685914 -35.684204 1.8451447 -44.611572 9.519686c-8.927368 7.6745415 -13.634277 22.598427 -8.952759 36.527557z" fill-rule="evenodd"/><path fill="#000000" fill-opacity="0.0" d="m621.4748 33.82804c0 -7.244932 5.887329 -13.118111 13.149658 -13.118111c3.4874878 0 6.8320923 1.3820839 9.298157 3.842207c2.4660034 2.460123 3.8514404 5.7967644 3.8514404 9.275904c0 7.244934 -5.887268 13.118111 -13.149597 13.118111c-7.262329 0 -13.149658 -5.8731766 -13.149658 -13.118111z" fill-rule="evenodd"/><path stroke="#000000" stroke-width="2.0" stroke-linejoin="round" stroke-linecap="butt" d="m621.4748 33.82804c0 -7.244932 5.887329 -13.118111 13.149658 -13.118111c3.4874878 0 6.8320923 1.3820839 9.298157 3.842207c2.4660034 2.460123 3.8514404 5.7967644 3.8514404 9.275904c0 7.244934 -5.887268 13.118111 -13.149597 13.118111c-7.262329 0 -13.149658 -5.8731766 -13.149658 -13.118111z" fill-rule="evenodd"/><path fill="#000000" d="m637.3078 37.167416l-5.515625 0l-1.484375 4.140625l-1.75 0l5.65625 -15.171873l0.8125 0l5.671875 15.171873l-1.859375 0l-1.53125 -4.140625zm-4.9375 -1.53125l4.390625 0l-1.65625 -4.546873l-0.53125 -2.265625l-0.03125 0l-0.53125 2.3125l-1.640625 4.499998z" fill-rule="nonzero"/><path fill="#000000" fill-opacity="0.0" d="m647.77405 33.82804l45.19684 0" fill-rule="evenodd"/><path stroke="#000000" stroke-width="2.0" stroke-linejoin="round" stroke-linecap="butt" d="m647.77405 33.82804l38.34265 0" fill-rule="evenodd"/><path fill="#000000" stroke="#000000" stroke-width="2.0" stroke-linecap="butt" d="m686.1167 33.82804l-2.2491455 2.2491646l6.1795044 -2.2491646l-6.1795044 -2.2491684z" fill-rule="evenodd"/><path fill="#000000" fill-opacity="0.0" d="m692.98645 33.82804c0 -7.244932 5.887268 -13.118111 13.149597 -13.118111c3.4874878 0 6.8321533 1.3820839 9.298157 3.842207c2.4660034 2.460123 3.8514404 5.7967644 3.8514404 9.275904c0 7.244934 -5.887268 13.118111 -13.149597 13.118111c-7.262329 0 -13.149597 -5.8731766 -13.149597 -13.118111z" fill-rule="evenodd"/><path stroke="#000000" stroke-width="2.0" stroke-linejoin="round" stroke-linecap="butt" d="m692.98645 33.82804c0 -7.244932 5.887268 -13.118111 13.149597 -13.118111c3.4874878 0 6.8321533 1.3820839 9.298157 3.842207c2.4660034 2.460123 3.8514404 5.7967644 3.8514404 9.275904c0 7.244934 -5.887268 13.118111 -13.149597 13.118111c-7.262329 0 -13.149597 -5.8731766 -13.149597 -13.118111z" fill-rule="evenodd"/><path fill="#000000" d="m710.7207 29.792418q0 0.53125 -0.171875 1.09375q-0.171875 0.546875 -0.515625 1.03125q-0.328125 0.4687481 -0.875 0.8437481q-0.53125 0.359375 -1.25 0.546875l0 0.09375q0.640625 0.09375 1.21875 0.359375q0.59375 0.25 1.03125 0.703125q0.453125 0.4375 0.734375 1.078125q0.28125 0.640625 0.28125 1.515625q0 1.15625 -0.484375 2.0q-0.484375 0.84375 -1.265625 1.375q-0.765625 0.53125 -1.78125 0.796875q-1.0 0.25 -2.046875 0.25q-0.359375 0 -0.859375 0q-0.484375 0 -1.015625 -0.03125q-0.53125 -0.03125 -1.0625 -0.09375q-0.53125 -0.046875 -0.9375 -0.15625l0 -14.687498q0.796875 -0.140625 1.828125 -0.21875q1.046875 -0.078125 2.28125 -0.078125q0.84375 0 1.703125 0.140625q0.859375 0.125 1.5625 0.53125q0.703125 0.390625 1.15625 1.09375q0.46875 0.703125 0.46875 1.8125zm-4.953125 10.156248q0.6875 0 1.328125 -0.15625q0.640625 -0.171875 1.125 -0.515625q0.5 -0.359375 0.78125 -0.859375q0.296875 -0.515625 0.296875 -1.21875q0 -0.875 -0.359375 -1.40625q-0.34375 -0.546875 -0.921875 -0.84375q-0.5625 -0.296875 -1.265625 -0.40625q-0.703125 -0.109375 -1.40625 -0.109375l-1.859375 0l0 5.359375q0.15625 0.046875 0.421875 0.078125q0.28125 0.015625 0.59375 0.03125q0.328125 0.015625 0.671875 0.03125q0.34375 0.015625 0.59375 0.015625zm-1.171875 -7.0q0.375 0 0.875 -0.015625q0.515625 -0.03125 0.859375 -0.078125q0.515625 -0.15625 0.953125 -0.40625q0.453125 -0.25 0.796875 -0.5781231q0.359375 -0.328125 0.5625 -0.765625q0.203125 -0.4375 0.203125 -0.953125q0 -0.703125 -0.265625 -1.15625q-0.265625 -0.46875 -0.71875 -0.734375q-0.453125 -0.28125 -1.03125 -0.390625q-0.5625 -0.125 -1.15625 -0.125q-0.703125 0 -1.296875 0.03125q-0.59375 0.03125 -0.890625 0.09375l0 5.078123l1.109375 0z" fill-rule="nonzero"/><path fill="#000000" fill-opacity="0.0" d="m657.2306 85.46572c0 -7.244934 5.887329 -13.118111 13.149658 -13.118111c3.4874878 0 6.8321533 1.3820877 9.298157 3.8422089c2.4660034 2.4601212 3.8514404 5.7967606 3.8514404 9.275902c0 7.244934 -5.887268 13.118111 -13.149597 13.118111c-7.262329 0 -13.149658 -5.8731766 -13.149658 -13.118111z" fill-rule="evenodd"/><path stroke="#000000" stroke-width="2.0" stroke-linejoin="round" stroke-linecap="butt" d="m657.2306 85.46572c0 -7.244934 5.887329 -13.118111 13.149658 -13.118111c3.4874878 0 6.8321533 1.3820877 9.298157 3.8422089c2.4660034 2.4601212 3.8514404 5.7967606 3.8514404 9.275902c0 7.244934 -5.887268 13.118111 -13.149597 13.118111c-7.262329 0 -13.149658 -5.8731766 -13.149658 -13.118111z" fill-rule="evenodd"/><path fill="#000000" d="m666.47675 78.008224l8.125 0l0 1.59375l-6.359375 0l0 4.875l5.828125 0l0 1.578125l-5.828125 0l0 5.3125l6.46875 0l0 1.578125l-8.234375 0l0 -14.9375z" fill-rule="nonzero"/><path fill="#000000" fill-opacity="0.0" d="m643.9226 43.103947l17.165344 33.070866" fill-rule="evenodd"/><path stroke="#000000" stroke-width="2.0" stroke-linejoin="round" stroke-linecap="butt" d="m643.9226 43.103947l14.00769 26.987354" fill-rule="evenodd"/><path fill="#000000" stroke="#000000" stroke-width="2.0" stroke-linecap="butt" d="m657.93036 70.09131l-3.0324707 -0.96012115l4.8431396 4.4485626l-0.85058594 -6.5208817z" fill-rule="evenodd"/><path fill="#ffffff" d="m728.74225 85.46572c0 -7.244934 5.887268 -13.118111 13.149597 -13.118111c3.4874878 0 6.8321533 1.3820877 9.298157 3.8422089c2.4660645 2.4601212 3.8514404 5.7967606 3.8514404 9.275902c0 7.244934 -5.887268 13.118111 -13.149597 13.118111c-7.262329 0 -13.149597 -5.8731766 -13.149597 -13.118111z" fill-rule="evenodd"/><path stroke="#000000" stroke-width="2.0" stroke-linejoin="round" stroke-linecap="butt" d="m728.74225 85.46572c0 -7.244934 5.887268 -13.118111 13.149597 -13.118111c3.4874878 0 6.8321533 1.3820877 9.298157 3.8422089c2.4660645 2.4601212 3.8514404 5.7967606 3.8514404 9.275902c0 7.244934 -5.887268 13.118111 -13.149597 13.118111c-7.262329 0 -13.149597 -5.8731766 -13.149597 -13.118111z" fill-rule="evenodd"/><path fill="#000000" d="m738.191 78.008224l8.125 0l0 1.59375l-6.359375 0l0 5.09375l5.9375 0l0 1.578125l-5.9375 0l0 6.671875l-1.765625 0l0 -14.9375z" fill-rule="nonzero"/><path fill="#ffffff" d="m764.49805 33.82804c0 -7.244932 5.887268 -13.118111 13.149597 -13.118111c3.4874878 0 6.8321533 1.3820839 9.298157 3.842207c2.4660645 2.460123 3.8514404 5.7967644 3.8514404 9.275904c0 7.244934 -5.887268 13.118111 -13.149597 13.118111c-7.262329 0 -13.149597 -5.8731766 -13.149597 -13.118111z" fill-rule="evenodd"/><path stroke="#000000" stroke-width="2.0" stroke-linejoin="round" stroke-linecap="butt" d="m764.49805 33.82804c0 -7.244932 5.887268 -13.118111 13.149597 -13.118111c3.4874878 0 6.8321533 1.3820839 9.298157 3.842207c2.4660645 2.460123 3.8514404 5.7967644 3.8514404 9.275904c0 7.244934 -5.887268 13.118111 -13.149597 13.118111c-7.262329 0 -13.149597 -5.8731766 -13.149597 -13.118111z" fill-rule="evenodd"/><path fill="#000000" d="m782.9334 40.68304q-0.640625 0.5 -1.625 0.6875q-0.984375 0.1875 -2.09375 0.1875q-1.34375 0 -2.515625 -0.453125q-1.171875 -0.453125 -2.046875 -1.390625q-0.875 -0.9375 -1.390625 -2.390625q-0.515625 -1.46875 -0.515625 -3.484375q0 -2.093748 0.5625 -3.546873q0.578125 -1.46875 1.5 -2.390625q0.9375 -0.921875 2.078125 -1.34375q1.15625 -0.4375 2.34375 -0.4375q1.28125 0 2.09375 0.140625q0.8125 0.140625 1.390625 0.375l-0.421875 1.5625q-1.03125 -0.5 -2.921875 -0.5q-0.875 0 -1.734375 0.328125q-0.859375 0.3125 -1.53125 1.046875q-0.671875 0.71875 -1.078125 1.890625q-0.390625 1.1718731 -0.390625 2.874998q0 1.546875 0.375 2.703125q0.390625 1.140625 1.0625 1.90625q0.671875 0.765625 1.578125 1.15625q0.90625 0.375 1.96875 0.375q0.953125 0 1.671875 -0.1875q0.71875 -0.1875 1.203125 -0.484375l0.4375 1.375z" fill-rule="nonzero"/><path fill="#ffffff" d="m585.719 85.46572c0 -7.244934 5.887329 -13.118111 13.149597 -13.118111c3.4875488 0 6.8321533 1.3820877 9.298218 3.8422089c2.4660034 2.4601212 3.8514404 5.7967606 3.8514404 9.275902c0 7.244934 -5.887329 13.118111 -13.149658 13.118111c-7.262268 0 -13.149597 -5.8731766 -13.149597 -13.118111z" fill-rule="evenodd"/><path stroke="#000000" stroke-width="2.0" stroke-linejoin="round" stroke-linecap="butt" d="m585.719 85.46572c0 -7.244934 5.887329 -13.118111 13.149597 -13.118111c3.4875488 0 6.8321533 1.3820877 9.298218 3.8422089c2.4660034 2.4601212 3.8514404 5.7967606 3.8514404 9.275902c0 7.244934 -5.887329 13.118111 -13.149658 13.118111c-7.262268 0 -13.149597 -5.8731766 -13.149597 -13.118111z" fill-rule="evenodd"/><path fill="#000000" d="m593.7068 78.008224q0.40625 -0.0625 0.90625 -0.09375q0.5 -0.03125 1.046875 -0.03125q0.546875 -0.015625 1.0625 -0.015625q0.53125 -0.015625 0.96875 -0.015625q1.796875 0 3.109375 0.5625q1.3125 0.546875 2.15625 1.546875q0.859375 0.984375 1.265625 2.375q0.421875 1.375 0.421875 3.03125q0 1.515625 -0.390625 2.921875q-0.390625 1.390625 -1.25 2.46875q-0.84375 1.078125 -2.21875 1.734375q-1.359375 0.640625 -3.296875 0.640625q-0.34375 0 -0.890625 -0.015625q-0.546875 0 -1.125 -0.03125q-0.578125 -0.03125 -1.0625 -0.0625q-0.484375 -0.015625 -0.703125 -0.0625l0 -14.953125zm4.03125 1.421875q-0.28125 0 -0.609375 0q-0.328125 0 -0.65625 0.015625q-0.3125 0.015625 -0.578125 0.046875q-0.265625 0.015625 -0.421875 0.03125l0 11.953125q0.109375 0.015625 0.40625 0.03125q0.296875 0.015625 0.609375 0.03125q0.328125 0 0.625 0.015625q0.3125 0 0.40625 0q1.5 0 2.515625 -0.5q1.015625 -0.515625 1.609375 -1.375q0.609375 -0.875 0.859375 -1.984375q0.265625 -1.125 0.265625 -2.328125q0 -1.03125 -0.234375 -2.09375q-0.234375 -1.0625 -0.8125 -1.90625q-0.578125 -0.859375 -1.546875 -1.390625q-0.96875 -0.546875 -2.4375 -0.546875z" fill-rule="nonzero"/><path fill="#000000" fill-opacity="0.0" d="m625.32623 43.103947l-17.165344 33.070866" fill-rule="evenodd"/><path stroke="#000000" stroke-width="2.0" stroke-linejoin="round" stroke-linecap="butt" d="m625.32623 43.103947l-17.165344 33.070866" fill-rule="evenodd"/><path fill="#000000" fill-opacity="0.0" d="m683.52985 85.46572l45.19684 0" fill-rule="evenodd"/><path stroke="#000000" stroke-width="2.0" stroke-linejoin="round" stroke-linecap="butt" d="m683.52985 85.46572l45.19684 0" fill-rule="evenodd"/><path fill="#000000" fill-opacity="0.0" d="m715.4342 43.103947l17.165344 33.070866" fill-rule="evenodd"/><path stroke="#000000" stroke-width="2.0" stroke-linejoin="round" stroke-linecap="butt" d="m715.4342 43.103947l17.165344 33.070866" fill-rule="evenodd"/><path fill="#000000" fill-opacity="0.0" d="m768.3495 43.103947l-17.165405 33.070866" fill-rule="evenodd"/><path stroke="#000000" stroke-width="1.0" stroke-linejoin="round" stroke-linecap="butt" stroke-dasharray="4.0,3.0" d="m768.3495 43.103947l-17.165405 33.070866" fill-rule="evenodd"/><path fill="#000000" d="m614.7353 59.51482c0 -1.452465 1.1774292 -2.629921 2.6299438 -2.629921c0.69744873 0 1.366394 0.27708054 1.8596191 0.77028656c0.4932251 0.49320602 0.7702637 1.1621361 0.7702637 1.8596344c0 1.452465 -1.1774292 2.629921 -2.6298828 2.629921c-1.4525146 0 -2.6299438 -1.1774559 -2.6299438 -2.629921z" fill-rule="evenodd"/><path stroke="#000000" stroke-width="2.0" stroke-linejoin="round" stroke-linecap="butt" d="m614.7353 59.51482c0 -1.452465 1.1774292 -2.629921 2.6299438 -2.629921c0.69744873 0 1.366394 0.27708054 1.8596191 0.77028656c0.4932251 0.49320602 0.7702637 1.1621361 0.7702637 1.8596344c0 1.452465 -1.1774292 2.629921 -2.6298828 2.629921c-1.4525146 0 -2.6299438 -1.1774559 -2.6299438 -2.629921z" fill-rule="evenodd"/><path fill="#000000" d="m722.7956 60.974846c0 -1.452465 1.1774902 -2.629921 2.6299438 -2.629921c0.69750977 0 1.366394 0.27708054 1.8596191 0.77028656c0.4932251 0.49320602 0.7702637 1.1621361 0.7702637 1.8596344c0 1.452465 -1.1774292 2.629921 -2.6298828 2.629921c-1.4524536 0 -2.6299438 -1.1774559 -2.6299438 -2.629921z" fill-rule="evenodd"/><path stroke="#000000" stroke-width="2.0" stroke-linejoin="round" stroke-linecap="butt" d="m722.7956 60.974846c0 -1.452465 1.1774902 -2.629921 2.6299438 -2.629921c0.69750977 0 1.366394 0.27708054 1.8596191 0.77028656c0.4932251 0.49320602 0.7702637 1.1621361 0.7702637 1.8596344c0 1.452465 -1.1774292 2.629921 -2.6298828 2.629921c-1.4524536 0 -2.6299438 -1.1774559 -2.6299438 -2.629921z" fill-rule="evenodd"/><path fill="#000000" d="m707.8708 85.46707c0 -1.4524689 1.1774902 -2.629921 2.6299438 -2.629921c0.69750977 0 1.3664551 0.27707672 1.8596191 0.77028656c0.4932251 0.4932022 0.7703247 1.1621323 0.7703247 1.8596344c0 1.4524689 -1.1774902 2.629921 -2.6299438 2.629921c-1.4524536 0 -2.6299438 -1.1774521 -2.6299438 -2.629921z" fill-rule="evenodd"/><path stroke="#000000" stroke-width="2.0" stroke-linejoin="round" stroke-linecap="butt" d="m707.8708 85.46707c0 -1.4524689 1.1774902 -2.629921 2.6299438 -2.629921c0.69750977 0 1.3664551 0.27707672 1.8596191 0.77028656c0.4932251 0.4932022 0.7703247 1.1621323 0.7703247 1.8596344c0 1.4524689 -1.1774902 2.629921 -2.6299438 2.629921c-1.4524536 0 -2.6299438 -1.1774521 -2.6299438 -2.629921z" fill-rule="evenodd"/><path fill="#000000" fill-opacity="0.0" d="m612.01825 85.46572l45.19684 0" fill-rule="evenodd"/><path stroke="#000000" stroke-width="2.0" stroke-linejoin="round" stroke-linecap="butt" d="m612.01825 85.46572l45.19684 0" fill-rule="evenodd"/><path fill="#000000" fill-opacity="0.0" d="m719.28564 33.82804l45.19684 0" fill-rule="evenodd"/><path stroke="#000000" stroke-width="2.0" stroke-linejoin="round" stroke-linecap="butt" d="m719.28564 33.82804l45.19684 0" fill-rule="evenodd"/><path fill="#000000" d="m633.35895 85.66536c0 -1.4524689 1.1774292 -2.629921 2.6299438 -2.629921c0.69744873 0 1.366394 0.27707672 1.8596191 0.77028656c0.4932251 0.4932022 0.7702637 1.1621323 0.7702637 1.8596344c0 1.4524612 -1.1774292 2.629921 -2.6298828 2.629921c-1.4525146 0 -2.6299438 -1.1774597 -2.6299438 -2.629921z" fill-rule="evenodd"/><path stroke="#000000" stroke-width="2.0" stroke-linejoin="round" stroke-linecap="butt" d="m633.35895 85.66536c0 -1.4524689 1.1774292 -2.629921 2.6299438 -2.629921c0.69744873 0 1.366394 0.27707672 1.8596191 0.77028656c0.4932251 0.4932022 0.7702637 1.1621323 0.7702637 1.8596344c0 1.4524612 -1.1774292 2.629921 -2.6298828 2.629921c-1.4525146 0 -2.6299438 -1.1774597 -2.6299438 -2.629921z" fill-rule="evenodd"/><path fill="#000000" d="m727.74603 33.901917c0 -1.452465 1.1774902 -2.629921 2.6299438 -2.629921c0.69750977 0 1.366394 0.27708054 1.8596191 0.77028656c0.4932251 0.49320602 0.7702637 1.1621361 0.7702637 1.8596344c0 1.452465 -1.1774292 2.629921 -2.6298828 2.629921c-1.4524536 0 -2.6299438 -1.1774559 -2.6299438 -2.629921z" fill-rule="evenodd"/><path stroke="#000000" stroke-width="2.0" stroke-linejoin="round" stroke-linecap="butt" d="m727.74603 33.901917c0 -1.452465 1.1774902 -2.629921 2.6299438 -2.629921c0.69750977 0 1.366394 0.27708054 1.8596191 0.77028656c0.4932251 0.49320602 0.7702637 1.1621361 0.7702637 1.8596344c0 1.452465 -1.1774292 2.629921 -2.6298828 2.629921c-1.4524536 0 -2.6299438 -1.1774559 -2.6299438 -2.629921z" fill-rule="evenodd"/><path fill="#fce5cd" d="m60.091164 182.24289c4.350395 14.444443 9.735786 42.206924 32.908134 50.54857c23.172356 8.341644 88.62468 8.451874 106.12599 -0.49868774c17.501312 -8.950577 4.5004272 -38.720047 -1.1181183 -53.204727c-5.6185455 -14.484695 -19.01268 -26.666672 -32.59317 -33.703415c-13.58049 -7.036743 -32.47026 -8.640427 -48.889763 -8.517059c-16.41951 0.12335205 -40.221786 1.6946564 -49.627296 9.257217c-9.405514 7.562546 -11.15617 21.67366 -6.8057785 36.118103z" fill-rule="evenodd"/><path stroke="#000000" stroke-width="1.0" stroke-linejoin="round" stroke-linecap="butt" d="m60.091164 182.24289c4.350395 14.444443 9.735786 42.206924 32.908134 50.54857c23.172356 8.341644 88.62468 8.451874 106.12599 -0.49868774c17.501312 -8.950577 4.5004272 -38.720047 -1.1181183 -53.204727c-5.6185455 -14.484695 -19.01268 -26.666672 -32.59317 -33.703415c-13.58049 -7.036743 -32.47026 -8.640427 -48.889763 -8.517059c-16.41951 0.12335205 -40.221786 1.6946564 -49.627296 9.257217c-9.405514 7.562546 -11.15617 21.67366 -6.8057785 36.118103z" fill-rule="evenodd"/><path fill="#000000" fill-opacity="0.0" d="m66.13623 162.19926c0 -7.244934 5.8872833 -13.118118 13.149612 -13.118118c3.4874878 0 6.8321457 1.3820801 9.298172 3.8422089c2.466034 2.4601288 3.8514328 5.796768 3.8514328 9.275909c0 7.244934 -5.8872833 13.118103 -13.149605 13.118103c-7.262329 0 -13.149612 -5.873169 -13.149612 -13.118103z" fill-rule="evenodd"/><path stroke="#000000" stroke-width="2.0" stroke-linejoin="round" stroke-linecap="butt" d="m66.13623 162.19926c0 -7.244934 5.8872833 -13.118118 13.149612 -13.118118c3.4874878 0 6.8321457 1.3820801 9.298172 3.8422089c2.466034 2.4601288 3.8514328 5.796768 3.8514328 9.275909c0 7.244934 -5.8872833 13.118103 -13.149605 13.118103c-7.262329 0 -13.149612 -5.873169 -13.149612 -13.118103z" fill-rule="evenodd"/><path fill="#000000" d="m81.969215 165.53864l-5.515625 0l-1.484375 4.140625l-1.75 0l5.65625 -15.171875l0.8125 0l5.671875 15.171875l-1.859375 0l-1.53125 -4.140625zm-4.9375 -1.53125l4.390625 0l-1.65625 -4.546875l-0.53125 -2.265625l-0.03125 0l-0.53125 2.3125l-1.640625 4.5z" fill-rule="nonzero"/><path fill="#000000" fill-opacity="0.0" d="m92.43545 162.19926l45.196846 0" fill-rule="evenodd"/><path stroke="#000000" stroke-width="2.0" stroke-linejoin="round" stroke-linecap="butt" d="m92.43545 162.19926l38.342674 0" fill-rule="evenodd"/><path fill="#000000" stroke="#000000" stroke-width="2.0" stroke-linecap="butt" d="m130.77812 162.19926l-2.2491608 2.2491608l6.179535 -2.2491608l-6.179535 -2.249176z" fill-rule="evenodd"/><path fill="#000000" fill-opacity="0.0" d="m137.64784 162.19926c0 -7.244934 5.8872833 -13.118118 13.149597 -13.118118c3.487503 0 6.8321533 1.3820801 9.298187 3.8422089c2.4660187 2.4601288 3.8514252 5.796768 3.8514252 9.275909c0 7.244934 -5.8872833 13.118103 -13.149612 13.118103c-7.262314 0 -13.149597 -5.873169 -13.149597 -13.118103z" fill-rule="evenodd"/><path stroke="#000000" stroke-width="2.0" stroke-linejoin="round" stroke-linecap="butt" d="m137.64784 162.19926c0 -7.244934 5.8872833 -13.118118 13.149597 -13.118118c3.487503 0 6.8321533 1.3820801 9.298187 3.8422089c2.4660187 2.4601288 3.8514252 5.796768 3.8514252 9.275909c0 7.244934 -5.8872833 13.118103 -13.149612 13.118103c-7.262314 0 -13.149597 -5.873169 -13.149597 -13.118103z" fill-rule="evenodd"/><path fill="#000000" d="m155.38211 158.16364q0 0.53125 -0.171875 1.09375q-0.171875 0.546875 -0.515625 1.03125q-0.328125 0.46875 -0.875 0.84375q-0.53125 0.359375 -1.25 0.546875l0 0.09375q0.640625 0.09375 1.21875 0.359375q0.59375 0.25 1.03125 0.703125q0.453125 0.4375 0.734375 1.078125q0.28125 0.640625 0.28125 1.515625q0 1.15625 -0.484375 2.0q-0.484375 0.84375 -1.265625 1.375q-0.765625 0.53125 -1.78125 0.796875q-1.0 0.25 -2.046875 0.25q-0.359375 0 -0.859375 0q-0.484375 0 -1.015625 -0.03125q-0.53125 -0.03125 -1.0625 -0.09375q-0.53125 -0.046875 -0.9375 -0.15625l0 -14.6875q0.796875 -0.140625 1.828125 -0.21875q1.046875 -0.078125 2.28125 -0.078125q0.84375 0 1.703125 0.140625q0.859375 0.125 1.5625 0.53125q0.703125 0.390625 1.15625 1.09375q0.46875 0.703125 0.46875 1.8125zm-4.953125 10.15625q0.6875 0 1.328125 -0.15625q0.640625 -0.171875 1.125 -0.515625q0.5 -0.359375 0.78125 -0.859375q0.296875 -0.515625 0.296875 -1.21875q0 -0.875 -0.359375 -1.40625q-0.34375 -0.546875 -0.921875 -0.84375q-0.5625 -0.296875 -1.265625 -0.40625q-0.703125 -0.109375 -1.40625 -0.109375l-1.859375 0l0 5.359375q0.15625 0.046875 0.421875 0.078125q0.28125 0.015625 0.59375 0.03125q0.328125 0.015625 0.671875 0.03125q0.34375 0.015625 0.59375 0.015625zm-1.171875 -7.0q0.375 0 0.875 -0.015625q0.515625 -0.03125 0.859375 -0.078125q0.515625 -0.15625 0.953125 -0.40625q0.453125 -0.25 0.796875 -0.578125q0.359375 -0.328125 0.5625 -0.765625q0.203125 -0.4375 0.203125 -0.953125q0 -0.703125 -0.265625 -1.15625q-0.265625 -0.46875 -0.71875 -0.734375q-0.453125 -0.28125 -1.03125 -0.390625q-0.5625 -0.125 -1.15625 -0.125q-0.703125 0 -1.296875 0.03125q-0.59375 0.03125 -0.890625 0.09375l0 5.078125l1.109375 0z" fill-rule="nonzero"/><path fill="#000000" fill-opacity="0.0" d="m101.89204 213.83694c0 -7.244934 5.8872833 -13.118118 13.149605 -13.118118c3.4874954 0 6.8321457 1.3820801 9.29818 3.8422089c2.4660263 2.4601288 3.8514328 5.796768 3.8514328 9.275909c0 7.244934 -5.8872833 13.118103 -13.149612 13.118103c-7.2623215 0 -13.149605 -5.873169 -13.149605 -13.118103z" fill-rule="evenodd"/><path stroke="#000000" stroke-width="2.0" stroke-linejoin="round" stroke-linecap="butt" d="m101.89204 213.83694c0 -7.244934 5.8872833 -13.118118 13.149605 -13.118118c3.4874954 0 6.8321457 1.3820801 9.29818 3.8422089c2.4660263 2.4601288 3.8514328 5.796768 3.8514328 9.275909c0 7.244934 -5.8872833 13.118103 -13.149612 13.118103c-7.2623215 0 -13.149605 -5.873169 -13.149605 -13.118103z" fill-rule="evenodd"/><path fill="#000000" d="m111.13818 206.37944l8.125 0l0 1.59375l-6.359375 0l0 4.875l5.828125 0l0 1.578125l-5.828125 0l0 5.3125l6.46875 0l0 1.578125l-8.234375 0l0 -14.9375z" fill-rule="nonzero"/><path fill="#000000" fill-opacity="0.0" d="m88.584015 171.47516l17.16536 33.070877" fill-rule="evenodd"/><path stroke="#000000" stroke-width="2.0" stroke-linejoin="round" stroke-linecap="butt" d="m88.58402 171.47517l14.007721 26.987366" fill-rule="evenodd"/><path fill="#000000" stroke="#000000" stroke-width="2.0" stroke-linecap="butt" d="m102.59174 198.46252l-3.0324402 -0.9601135l4.843109 4.4485626l-0.8505554 -6.5208893z" fill-rule="evenodd"/><path fill="#000000" fill-opacity="0.0" d="m173.40364 213.83694c0 -7.244934 5.8872833 -13.118118 13.149612 -13.118118c3.4874878 0 6.832138 1.3820801 9.298172 3.8422089c2.466034 2.4601288 3.8514252 5.796768 3.8514252 9.275909c0 7.244934 -5.887268 13.118103 -13.149597 13.118103c-7.262329 0 -13.149612 -5.873169 -13.149612 -13.118103z" fill-rule="evenodd"/><path stroke="#000000" stroke-width="2.0" stroke-linejoin="round" stroke-linecap="butt" d="m173.40364 213.83694c0 -7.244934 5.8872833 -13.118118 13.149612 -13.118118c3.4874878 0 6.832138 1.3820801 9.298172 3.8422089c2.466034 2.4601288 3.8514252 5.796768 3.8514252 9.275909c0 7.244934 -5.887268 13.118103 -13.149597 13.118103c-7.262329 0 -13.149612 -5.873169 -13.149612 -13.118103z" fill-rule="evenodd"/><path fill="#000000" d="m182.8524 206.37944l8.125 0l0 1.59375l-6.359375 0l0 5.09375l5.9375 0l0 1.578125l-5.9375 0l0 6.671875l-1.765625 0l0 -14.9375z" fill-rule="nonzero"/><path fill="#ffffff" d="m209.15944 162.19926c0 -7.244934 5.8872833 -13.118118 13.149612 -13.118118c3.4874878 0 6.8321533 1.3820801 9.298172 3.8422089c2.466034 2.4601288 3.8514404 5.796768 3.8514404 9.275909c0 7.244934 -5.8872833 13.118103 -13.149612 13.118103c-7.262329 0 -13.149612 -5.873169 -13.149612 -13.118103z" fill-rule="evenodd"/><path stroke="#000000" stroke-width="2.0" stroke-linejoin="round" stroke-linecap="butt" d="m209.15944 162.19926c0 -7.244934 5.8872833 -13.118118 13.149612 -13.118118c3.4874878 0 6.8321533 1.3820801 9.298172 3.8422089c2.466034 2.4601288 3.8514404 5.796768 3.8514404 9.275909c0 7.244934 -5.8872833 13.118103 -13.149612 13.118103c-7.262329 0 -13.149612 -5.873169 -13.149612 -13.118103z" fill-rule="evenodd"/><path fill="#000000" d="m227.59485 169.05426q-0.640625 0.5 -1.625 0.6875q-0.984375 0.1875 -2.09375 0.1875q-1.34375 0 -2.515625 -0.453125q-1.171875 -0.453125 -2.046875 -1.390625q-0.875 -0.9375 -1.390625 -2.390625q-0.515625 -1.46875 -0.515625 -3.484375q0 -2.09375 0.5625 -3.546875q0.578125 -1.46875 1.5 -2.390625q0.9375 -0.921875 2.078125 -1.34375q1.15625 -0.4375 2.34375 -0.4375q1.28125 0 2.09375 0.140625q0.8125 0.140625 1.390625 0.375l-0.421875 1.5625q-1.03125 -0.5 -2.921875 -0.5q-0.875 0 -1.734375 0.328125q-0.859375 0.3125 -1.53125 1.046875q-0.671875 0.71875 -1.078125 1.890625q-0.390625 1.171875 -0.390625 2.875q0 1.546875 0.375 2.703125q0.390625 1.140625 1.0625 1.90625q0.671875 0.765625 1.578125 1.15625q0.90625 0.375 1.96875 0.375q0.953125 0 1.671875 -0.1875q0.71875 -0.1875 1.203125 -0.484375l0.4375 1.375z" fill-rule="nonzero"/><path fill="#ffffff" d="m30.380432 213.83694c0 -7.244934 5.8872795 -13.118118 13.149605 -13.118118c3.4874916 0 6.8321457 1.3820801 9.298176 3.8422089c2.4660301 2.4601288 3.8514328 5.796768 3.8514328 9.275909c0 7.244934 -5.8872795 13.118103 -13.149609 13.118103c-7.2623253 0 -13.149605 -5.873169 -13.149605 -13.118103z" fill-rule="evenodd"/><path stroke="#000000" stroke-width="2.0" stroke-linejoin="round" stroke-linecap="butt" d="m30.380432 213.83694c0 -7.244934 5.8872795 -13.118118 13.149605 -13.118118c3.4874916 0 6.8321457 1.3820801 9.298176 3.8422089c2.4660301 2.4601288 3.8514328 5.796768 3.8514328 9.275909c0 7.244934 -5.8872795 13.118103 -13.149609 13.118103c-7.2623253 0 -13.149605 -5.873169 -13.149605 -13.118103z" fill-rule="evenodd"/><path fill="#000000" d="m38.36821 206.37944q0.40625 -0.0625 0.90625 -0.09375q0.5 -0.03125 1.046875 -0.03125q0.546875 -0.015625 1.0625 -0.015625q0.53125 -0.015625 0.96875 -0.015625q1.796875 0 3.109375 0.5625q1.3125 0.546875 2.15625 1.546875q0.859375 0.984375 1.265625 2.375q0.421875 1.375 0.421875 3.03125q0 1.515625 -0.390625 2.921875q-0.390625 1.390625 -1.25 2.46875q-0.84375 1.078125 -2.21875 1.734375q-1.359375 0.640625 -3.296875 0.640625q-0.34375 0 -0.890625 -0.015625q-0.546875 0 -1.125 -0.03125q-0.578125 -0.03125 -1.0625 -0.0625q-0.484375 -0.015625 -0.703125 -0.0625l0 -14.953125zm4.03125 1.421875q-0.28125 0 -0.609375 0q-0.328125 0 -0.65625 0.015625q-0.3125 0.015625 -0.578125 0.046875q-0.265625 0.015625 -0.421875 0.03125l0 11.953125q0.109375 0.015625 0.40625 0.03125q0.296875 0.015625 0.609375 0.03125q0.328125 0 0.625 0.015625q0.3125 0 0.40625 0q1.5 0 2.515625 -0.5q1.015625 -0.515625 1.609375 -1.375q0.609375 -0.875 0.859375 -1.984375q0.265625 -1.125 0.265625 -2.328125q0 -1.03125 -0.234375 -2.09375q-0.234375 -1.0625 -0.8125 -1.90625q-0.578125 -0.859375 -1.546875 -1.390625q-0.96875 -0.546875 -2.4375 -0.546875z" fill-rule="nonzero"/><path fill="#000000" fill-opacity="0.0" d="m69.98766 171.47516l-17.165352 33.070877" fill-rule="evenodd"/><path stroke="#000000" stroke-width="2.0" stroke-linejoin="round" stroke-linecap="butt" d="m69.98766 171.47516l-17.165352 33.070877" fill-rule="evenodd"/><path fill="#000000" fill-opacity="0.0" d="m128.19125 213.83694l45.196854 0" fill-rule="evenodd"/><path stroke="#000000" stroke-width="1.0" stroke-linejoin="round" stroke-linecap="butt" stroke-dasharray="4.0,3.0" d="m128.19125 213.83694l45.196854 0" fill-rule="evenodd"/><path fill="#000000" fill-opacity="0.0" d="m160.09563 171.47516l17.165344 33.070877" fill-rule="evenodd"/><path stroke="#000000" stroke-width="2.0" stroke-linejoin="round" stroke-linecap="butt" d="m160.09563 171.47517l14.007721 26.987335" fill-rule="evenodd"/><path fill="#000000" stroke="#000000" stroke-width="2.0" stroke-linecap="butt" d="m174.10335 198.46252l-3.0324402 -0.9601135l4.843109 4.4485626l-0.8505554 -6.5208893z" fill-rule="evenodd"/><path fill="#000000" fill-opacity="0.0" d="m213.01088 171.47516l-17.16536 33.070877" fill-rule="evenodd"/><path stroke="#000000" stroke-width="2.0" stroke-linejoin="round" stroke-linecap="butt" d="m213.01088 171.47516l-17.16536 33.070877" fill-rule="evenodd"/><path fill="#000000" d="m59.276237 188.02272c0 -1.4524536 1.1774559 -2.6299133 2.629921 -2.6299133c0.6974983 0 1.3664322 0.27708435 1.8596382 0.77027893c0.49320602 0.49320984 0.77028275 1.1621399 0.77028275 1.8596344c0 1.4524689 -1.1774521 2.6299286 -2.629921 2.6299286c-1.452465 0 -2.629921 -1.1774597 -2.629921 -2.6299286z" fill-rule="evenodd"/><path stroke="#000000" stroke-width="2.0" stroke-linejoin="round" stroke-linecap="butt" d="m59.276237 188.02272c0 -1.4524536 1.1774559 -2.6299133 2.629921 -2.6299133c0.6974983 0 1.3664322 0.27708435 1.8596382 0.77027893c0.49320602 0.49320984 0.77028275 1.1621399 0.77028275 1.8596344c0 1.4524689 -1.1774521 2.6299286 -2.629921 2.6299286c-1.452465 0 -2.629921 -1.1774597 -2.629921 -2.6299286z" fill-rule="evenodd"/><path fill="#000000" d="m200.05988 191.52617c0 -1.4524536 1.1774597 -2.6299133 2.6299286 -2.6299133c0.6974945 0 1.3664246 0.27708435 1.8596344 0.77027893c0.49320984 0.49320984 0.77027893 1.1621399 0.77027893 1.8596344c0 1.4524689 -1.1774445 2.6299286 -2.6299133 2.6299286c-1.4524689 0 -2.6299286 -1.1774597 -2.6299286 -2.6299286z" fill-rule="evenodd"/><path stroke="#000000" stroke-width="2.0" stroke-linejoin="round" stroke-linecap="butt" d="m200.05988 191.52617c0 -1.4524536 1.1774597 -2.6299133 2.6299286 -2.6299133c0.6974945 0 1.3664246 0.27708435 1.8596344 0.77027893c0.49320984 0.49320984 0.77027893 1.1621399 0.77027893 1.8596344c0 1.4524689 -1.1774445 2.6299286 -2.6299133 2.6299286c-1.4524689 0 -2.6299286 -1.1774597 -2.6299286 -2.6299286z" fill-rule="evenodd"/><path fill="#000000" fill-opacity="0.0" d="m56.679646 213.83694l45.19685 0" fill-rule="evenodd"/><path stroke="#000000" stroke-width="2.0" stroke-linejoin="round" stroke-linecap="butt" d="m56.679646 213.83694l45.19685 0" fill-rule="evenodd"/><path fill="#000000" d="m68.914505 213.66536c0 -1.4524689 1.1774521 -2.6299286 2.629921 -2.6299286c0.6974945 0 1.3664246 0.27708435 1.8596344 0.7702942c0.4932022 0.49320984 0.77028656 1.1621399 0.77028656 1.8596344c0 1.4524689 -1.1774597 2.6299133 -2.629921 2.6299133c-1.4524689 0 -2.629921 -1.1774445 -2.629921 -2.6299133z" fill-rule="evenodd"/><path stroke="#000000" stroke-width="2.0" stroke-linejoin="round" stroke-linecap="butt" d="m68.914505 213.66536c0 -1.4524689 1.1774521 -2.6299286 2.629921 -2.6299286c0.6974945 0 1.3664246 0.27708435 1.8596344 0.7702942c0.4932022 0.49320984 0.77028656 1.1621399 0.77028656 1.8596344c0 1.4524689 -1.1774597 2.6299133 -2.629921 2.6299133c-1.4524689 0 -2.629921 -1.1774445 -2.629921 -2.6299133z" fill-rule="evenodd"/><path fill="#000000" fill-opacity="0.0" d="m163.94705 162.19926l45.196854 0" fill-rule="evenodd"/><path stroke="#000000" stroke-width="2.0" stroke-linejoin="round" stroke-linecap="butt" d="m163.94705 162.19926l45.196854 0" fill-rule="evenodd"/><path fill="#000000" d="m184.24783 162.33203c0 -1.4524689 1.1774597 -2.6299286 2.6299286 -2.6299286c0.6974945 0 1.3664246 0.27708435 1.8596344 0.7702942c0.49319458 0.49319458 0.77027893 1.1621246 0.77027893 1.8596344c0 1.4524536 -1.1774597 2.6299133 -2.6299133 2.6299133c-1.4524689 0 -2.6299286 -1.1774597 -2.6299286 -2.6299133z" fill-rule="evenodd"/><path stroke="#000000" stroke-width="2.0" stroke-linejoin="round" stroke-linecap="butt" d="m184.24783 162.33203c0 -1.4524689 1.1774597 -2.6299286 2.6299286 -2.6299286c0.6974945 0 1.3664246 0.27708435 1.8596344 0.7702942c0.49319458 0.49319458 0.77027893 1.1621246 0.77027893 1.8596344c0 1.4524536 -1.1774597 2.6299133 -2.6299133 2.6299133c-1.4524689 0 -2.6299286 -1.1774597 -2.6299286 -2.6299133z" fill-rule="evenodd"/><path fill="#fce5cd" d="m303.68738 225.32628c6.774719 14.289597 37.220917 13.917328 66.48294 14.70079c29.262024 0.7834625 91.307526 0.23753357 109.08923 -10.0c17.781708 -10.237534 3.841217 -37.435257 -2.3989563 -51.4252c-6.240143 -13.989929 -21.130798 -25.674103 -35.041992 -32.514435c-13.911194 -6.840332 -29.709106 -9.894577 -48.4252 -8.527557c-18.716095 1.3670197 -48.92038 2.1019287 -63.87137 16.72966c-14.951019 14.627731 -32.609375 56.74716 -25.834656 71.03674z" fill-rule="evenodd"/><path stroke="#000000" stroke-width="1.0" stroke-linejoin="round" stroke-linecap="butt" d="m303.68738 225.32628c6.774719 14.289597 37.220917 13.917328 66.48294 14.70079c29.262024 0.7834625 91.307526 0.23753357 109.08923 -10.0c17.781708 -10.237534 3.841217 -37.435257 -2.3989563 -51.4252c-6.240143 -13.989929 -21.130798 -25.674103 -35.041992 -32.514435c-13.911194 -6.840332 -29.709106 -9.894577 -48.4252 -8.527557c-18.716095 1.3670197 -48.92038 2.1019287 -63.87137 16.72966c-14.951019 14.627731 -32.609375 56.74716 -25.834656 71.03674z" fill-rule="evenodd"/><path fill="#000000" fill-opacity="0.0" d="m343.8055 162.19774c0 -7.244919 5.8872986 -13.118103 13.149628 -13.118103c3.4874878 0 6.8321533 1.3820801 9.298157 3.8422089c2.466034 2.4601135 3.8514404 5.796768 3.8514404 9.275894c0 7.244934 -5.887268 13.118118 -13.149597 13.118118c-7.262329 0 -13.149628 -5.873184 -13.149628 -13.118118z" fill-rule="evenodd"/><path stroke="#000000" stroke-width="2.0" stroke-linejoin="round" stroke-linecap="butt" d="m343.8055 162.19774c0 -7.244919 5.8872986 -13.118103 13.149628 -13.118103c3.4874878 0 6.8321533 1.3820801 9.298157 3.8422089c2.466034 2.4601135 3.8514404 5.796768 3.8514404 9.275894c0 7.244934 -5.887268 13.118118 -13.149597 13.118118c-7.262329 0 -13.149628 -5.873184 -13.149628 -13.118118z" fill-rule="evenodd"/><path fill="#000000" d="m359.63852 165.53712l-5.515625 0l-1.484375 4.140625l-1.75 0l5.65625 -15.171875l0.8125 0l5.671875 15.171875l-1.859375 0l-1.53125 -4.140625zm-4.9375 -1.53125l4.390625 0l-1.65625 -4.546875l-0.53125 -2.265625l-0.03125 0l-0.53125 2.3125l-1.640625 4.5z" fill-rule="nonzero"/><path fill="#000000" fill-opacity="0.0" d="m370.10474 162.19774l45.19684 0" fill-rule="evenodd"/><path stroke="#000000" stroke-width="2.0" stroke-linejoin="round" stroke-linecap="butt" d="m370.10474 162.19774l38.34268 0" fill-rule="evenodd"/><path fill="#000000" stroke="#000000" stroke-width="2.0" stroke-linecap="butt" d="m408.44742 162.19774l-2.249176 2.249176l6.179535 -2.249176l-6.179535 -2.2491608z" fill-rule="evenodd"/><path fill="#000000" fill-opacity="0.0" d="m415.31714 162.19774c0 -7.244919 5.887268 -13.118103 13.149597 -13.118103c3.4874878 0 6.8321533 1.3820801 9.298187 3.8422089c2.466034 2.4601135 3.85141 5.796768 3.85141 9.275894c0 7.244934 -5.887268 13.118118 -13.149597 13.118118c-7.262329 0 -13.149597 -5.873184 -13.149597 -13.118118z" fill-rule="evenodd"/><path stroke="#000000" stroke-width="2.0" stroke-linejoin="round" stroke-linecap="butt" d="m415.31714 162.19774c0 -7.244919 5.887268 -13.118103 13.149597 -13.118103c3.4874878 0 6.8321533 1.3820801 9.298187 3.8422089c2.466034 2.4601135 3.85141 5.796768 3.85141 9.275894c0 7.244934 -5.887268 13.118118 -13.149597 13.118118c-7.262329 0 -13.149597 -5.873184 -13.149597 -13.118118z" fill-rule="evenodd"/><path fill="#000000" d="m433.0514 158.16212q0 0.53125 -0.171875 1.09375q-0.171875 0.546875 -0.515625 1.03125q-0.328125 0.46875 -0.875 0.84375q-0.53125 0.359375 -1.25 0.546875l0 0.09375q0.640625 0.09375 1.21875 0.359375q0.59375 0.25 1.03125 0.703125q0.453125 0.4375 0.734375 1.078125q0.28125 0.640625 0.28125 1.515625q0 1.15625 -0.484375 2.0q-0.484375 0.84375 -1.265625 1.375q-0.765625 0.53125 -1.78125 0.796875q-1.0 0.25 -2.046875 0.25q-0.359375 0 -0.859375 0q-0.484375 0 -1.015625 -0.03125q-0.53125 -0.03125 -1.0625 -0.09375q-0.53125 -0.046875 -0.9375 -0.15625l0 -14.6875q0.796875 -0.140625 1.828125 -0.21875q1.046875 -0.078125 2.28125 -0.078125q0.84375 0 1.703125 0.140625q0.859375 0.125 1.5625 0.53125q0.703125 0.390625 1.15625 1.09375q0.46875 0.703125 0.46875 1.8125zm-4.953125 10.15625q0.6875 0 1.328125 -0.15625q0.640625 -0.171875 1.125 -0.515625q0.5 -0.359375 0.78125 -0.859375q0.296875 -0.515625 0.296875 -1.21875q0 -0.875 -0.359375 -1.40625q-0.34375 -0.546875 -0.921875 -0.84375q-0.5625 -0.296875 -1.265625 -0.40625q-0.703125 -0.109375 -1.40625 -0.109375l-1.859375 0l0 5.359375q0.15625 0.046875 0.421875 0.078125q0.28125 0.015625 0.59375 0.03125q0.328125 0.015625 0.671875 0.03125q0.34375 0.015625 0.59375 0.015625zm-1.171875 -7.0q0.375 0 0.875 -0.015625q0.515625 -0.03125 0.859375 -0.078125q0.515625 -0.15625 0.953125 -0.40625q0.453125 -0.25 0.796875 -0.578125q0.359375 -0.328125 0.5625 -0.765625q0.203125 -0.4375 0.203125 -0.953125q0 -0.703125 -0.265625 -1.15625q-0.265625 -0.46875 -0.71875 -0.734375q-0.453125 -0.28125 -1.03125 -0.390625q-0.5625 -0.125 -1.15625 -0.125q-0.703125 0 -1.296875 0.03125q-0.59375 0.03125 -0.890625 0.09375l0 5.078125l1.109375 0z" fill-rule="nonzero"/><path fill="#000000" fill-opacity="0.0" d="m379.56134 213.83542c0 -7.244919 5.887268 -13.118103 13.149597 -13.118103c3.4874878 0 6.8321533 1.3820801 9.298187 3.8422089c2.4660034 2.4601135 3.85141 5.796768 3.85141 9.275894c0 7.244934 -5.887268 13.118118 -13.149597 13.118118c-7.262329 0 -13.149597 -5.873184 -13.149597 -13.118118z" fill-rule="evenodd"/><path stroke="#000000" stroke-width="2.0" stroke-linejoin="round" stroke-linecap="butt" d="m379.56134 213.83542c0 -7.244919 5.887268 -13.118103 13.149597 -13.118103c3.4874878 0 6.8321533 1.3820801 9.298187 3.8422089c2.4660034 2.4601135 3.85141 5.796768 3.85141 9.275894c0 7.244934 -5.887268 13.118118 -13.149597 13.118118c-7.262329 0 -13.149597 -5.873184 -13.149597 -13.118118z" fill-rule="evenodd"/><path fill="#000000" d="m388.80746 206.37793l8.125 0l0 1.59375l-6.359375 0l0 4.875l5.828125 0l0 1.578125l-5.828125 0l0 5.3125l6.46875 0l0 1.578125l-8.234375 0l0 -14.9375z" fill-rule="nonzero"/><path fill="#000000" fill-opacity="0.0" d="m366.2533 171.47365l17.165375 33.07086" fill-rule="evenodd"/><path stroke="#000000" stroke-width="2.0" stroke-linejoin="round" stroke-linecap="butt" d="m366.25333 171.47365l14.00769 26.987366" fill-rule="evenodd"/><path fill="#000000" stroke="#000000" stroke-width="2.0" stroke-linecap="butt" d="m380.26105 198.46101l-3.0324402 -0.9601135l4.843109 4.4485626l-0.8505554 -6.5208893z" fill-rule="evenodd"/><path fill="#000000" fill-opacity="0.0" d="m451.07294 213.83542c0 -7.244919 5.887268 -13.118103 13.149597 -13.118103c3.4874878 0 6.8321533 1.3820801 9.298187 3.8422089c2.466034 2.4601135 3.85141 5.796768 3.85141 9.275894c0 7.244934 -5.887268 13.118118 -13.149597 13.118118c-7.262329 0 -13.149597 -5.873184 -13.149597 -13.118118z" fill-rule="evenodd"/><path stroke="#000000" stroke-width="2.0" stroke-linejoin="round" stroke-linecap="butt" d="m451.07294 213.83542c0 -7.244919 5.887268 -13.118103 13.149597 -13.118103c3.4874878 0 6.8321533 1.3820801 9.298187 3.8422089c2.466034 2.4601135 3.85141 5.796768 3.85141 9.275894c0 7.244934 -5.887268 13.118118 -13.149597 13.118118c-7.262329 0 -13.149597 -5.873184 -13.149597 -13.118118z" fill-rule="evenodd"/><path fill="#000000" d="m460.5217 206.37793l8.125 0l0 1.59375l-6.359375 0l0 5.09375l5.9375 0l0 1.578125l-5.9375 0l0 6.671875l-1.765625 0l0 -14.9375z" fill-rule="nonzero"/><path fill="#ffffff" d="m486.82874 162.19774c0 -7.244919 5.887268 -13.118103 13.149597 -13.118103c3.4874878 0 6.8321533 1.3820801 9.298187 3.8422089c2.466034 2.4601135 3.85141 5.796768 3.85141 9.275894c0 7.244934 -5.887268 13.118118 -13.149597 13.118118c-7.262329 0 -13.149597 -5.873184 -13.149597 -13.118118z" fill-rule="evenodd"/><path stroke="#000000" stroke-width="2.0" stroke-linejoin="round" stroke-linecap="butt" d="m486.82874 162.19774c0 -7.244919 5.887268 -13.118103 13.149597 -13.118103c3.4874878 0 6.8321533 1.3820801 9.298187 3.8422089c2.466034 2.4601135 3.85141 5.796768 3.85141 9.275894c0 7.244934 -5.887268 13.118118 -13.149597 13.118118c-7.262329 0 -13.149597 -5.873184 -13.149597 -13.118118z" fill-rule="evenodd"/><path fill="#000000" d="m505.26413 169.05275q-0.640625 0.5 -1.625 0.6875q-0.984375 0.1875 -2.09375 0.1875q-1.34375 0 -2.515625 -0.453125q-1.171875 -0.453125 -2.046875 -1.390625q-0.875 -0.9375 -1.390625 -2.390625q-0.515625 -1.46875 -0.515625 -3.484375q0 -2.09375 0.5625 -3.546875q0.578125 -1.46875 1.5 -2.390625q0.9375 -0.921875 2.078125 -1.34375q1.15625 -0.4375 2.34375 -0.4375q1.28125 0 2.09375 0.140625q0.8125 0.140625 1.390625 0.375l-0.421875 1.5625q-1.03125 -0.5 -2.921875 -0.5q-0.875 0 -1.734375 0.328125q-0.859375 0.3125 -1.53125 1.046875q-0.671875 0.71875 -1.078125 1.890625q-0.390625 1.171875 -0.390625 2.875q0 1.546875 0.375 2.703125q0.390625 1.140625 1.0625 1.90625q0.671875 0.765625 1.578125 1.15625q0.90625 0.375 1.96875 0.375q0.953125 0 1.671875 -0.1875q0.71875 -0.1875 1.203125 -0.484375l0.4375 1.375z" fill-rule="nonzero"/><path fill="#000000" fill-opacity="0.0" d="m308.0497 213.83542c0 -7.244919 5.8872986 -13.118103 13.149628 -13.118103c3.4874878 0 6.832123 1.3820801 9.298157 3.8422089c2.466034 2.4601135 3.8514404 5.796768 3.8514404 9.275894c0 7.244934 -5.887268 13.118118 -13.149597 13.118118c-7.262329 0 -13.149628 -5.873184 -13.149628 -13.118118z" fill-rule="evenodd"/><path stroke="#000000" stroke-width="2.0" stroke-linejoin="round" stroke-linecap="butt" d="m308.0497 213.83542c0 -7.244919 5.8872986 -13.118103 13.149628 -13.118103c3.4874878 0 6.832123 1.3820801 9.298157 3.8422089c2.466034 2.4601135 3.8514404 5.796768 3.8514404 9.275894c0 7.244934 -5.887268 13.118118 -13.149597 13.118118c-7.262329 0 -13.149628 -5.873184 -13.149628 -13.118118z" fill-rule="evenodd"/><path fill="#000000" d="m316.0375 206.37793q0.40625 -0.0625 0.90625 -0.09375q0.5 -0.03125 1.046875 -0.03125q0.546875 -0.015625 1.0625 -0.015625q0.53125 -0.015625 0.96875 -0.015625q1.796875 0 3.109375 0.5625q1.3125 0.546875 2.15625 1.546875q0.859375 0.984375 1.265625 2.375q0.421875 1.375 0.421875 3.03125q0 1.515625 -0.390625 2.921875q-0.390625 1.390625 -1.25 2.46875q-0.84375 1.078125 -2.21875 1.734375q-1.359375 0.640625 -3.296875 0.640625q-0.34375 0 -0.890625 -0.015625q-0.546875 0 -1.125 -0.03125q-0.578125 -0.03125 -1.0625 -0.0625q-0.484375 -0.015625 -0.703125 -0.0625l0 -14.953125zm4.03125 1.421875q-0.28125 0 -0.609375 0q-0.328125 0 -0.65625 0.015625q-0.3125 0.015625 -0.578125 0.046875q-0.265625 0.015625 -0.421875 0.03125l0 11.953125q0.109375 0.015625 0.40625 0.03125q0.296875 0.015625 0.609375 0.03125q0.328125 0 0.625 0.015625q0.3125 0 0.40625 0q1.5 0 2.515625 -0.5q1.015625 -0.515625 1.609375 -1.375q0.609375 -0.875 0.859375 -1.984375q0.265625 -1.125 0.265625 -2.328125q0 -1.03125 -0.234375 -2.09375q-0.234375 -1.0625 -0.8125 -1.90625q-0.578125 -0.859375 -1.546875 -1.390625q-0.96875 -0.546875 -2.4375 -0.546875z" fill-rule="nonzero"/><path fill="#000000" fill-opacity="0.0" d="m347.65695 171.47365l-17.165344 33.07086" fill-rule="evenodd"/><path stroke="#000000" stroke-width="2.0" stroke-linejoin="round" stroke-linecap="butt" d="m347.65695 171.47365l-14.007721 26.987366" fill-rule="evenodd"/><path fill="#000000" stroke="#000000" stroke-width="2.0" stroke-linecap="butt" d="m333.64923 198.46101l-0.9601135 -3.0324402l-0.8505554 6.5208893l4.843109 -4.4485626z" fill-rule="evenodd"/><path fill="#000000" fill-opacity="0.0" d="m405.86053 213.83542l45.19687 0" fill-rule="evenodd"/><path stroke="#000000" stroke-width="1.0" stroke-linejoin="round" stroke-linecap="butt" stroke-dasharray="4.0,3.0" d="m405.86053 213.83542l45.19687 0" fill-rule="evenodd"/><path fill="#000000" fill-opacity="0.0" d="m437.76492 171.47365l17.165344 33.07086" fill-rule="evenodd"/><path stroke="#000000" stroke-width="2.0" stroke-linejoin="round" stroke-linecap="butt" d="m437.76492 171.47365l14.007721 26.987366" fill-rule="evenodd"/><path fill="#000000" stroke="#000000" stroke-width="2.0" stroke-linecap="butt" d="m451.77264 198.46101l-3.0324402 -0.9601135l4.843109 4.4485626l-0.8505554 -6.5208893z" fill-rule="evenodd"/><path fill="#000000" fill-opacity="0.0" d="m490.68018 171.47365l-17.165375 33.07086" fill-rule="evenodd"/><path stroke="#000000" stroke-width="2.0" stroke-linejoin="round" stroke-linecap="butt" d="m490.68018 171.47365l-17.165375 33.07086" fill-rule="evenodd"/><path fill="#000000" d="m478.70956 190.0002c0 -1.4524689 1.1774597 -2.6299133 2.6299133 -2.6299133c0.69750977 0 1.3664246 0.2770691 1.8596497 0.77027893c0.49319458 0.49320984 0.7702942 1.1621399 0.7702942 1.8596344c0 1.4524689 -1.1774597 2.6299286 -2.6299438 2.6299286c-1.4524536 0 -2.6299133 -1.1774597 -2.6299133 -2.6299286z" fill-rule="evenodd"/><path stroke="#000000" stroke-width="2.0" stroke-linejoin="round" stroke-linecap="butt" d="m478.70956 190.0002c0 -1.4524689 1.1774597 -2.6299133 2.6299133 -2.6299133c0.69750977 0 1.3664246 0.2770691 1.8596497 0.77027893c0.49319458 0.49320984 0.7702942 1.1621399 0.7702942 1.8596344c0 1.4524689 -1.1774597 2.6299286 -2.6299438 2.6299286c-1.4524536 0 -2.6299133 -1.1774597 -2.6299133 -2.6299286z" fill-rule="evenodd"/><path fill="#000000" fill-opacity="0.0" d="m334.34894 213.83542l45.19684 0" fill-rule="evenodd"/><path stroke="#000000" stroke-width="1.0" stroke-linejoin="round" stroke-linecap="butt" stroke-dasharray="4.0,3.0" d="m334.34894 213.83542l45.19684 0" fill-rule="evenodd"/><path fill="#000000" fill-opacity="0.0" d="m441.61633 162.19774l45.19687 0" fill-rule="evenodd"/><path stroke="#000000" stroke-width="2.0" stroke-linejoin="round" stroke-linecap="butt" d="m441.61633 162.19774l45.19687 0" fill-rule="evenodd"/><path fill="#000000" d="m463.50708 162.33203c0 -1.4524689 1.1774597 -2.6299286 2.6299438 -2.6299286c0.69747925 0 1.3664246 0.27708435 1.8596191 0.7702942c0.4932251 0.49319458 0.7702942 1.1621246 0.7702942 1.8596344c0 1.4524536 -1.1774597 2.6299133 -2.6299133 2.6299133c-1.4524841 0 -2.6299438 -1.1774597 -2.6299438 -2.6299133z" fill-rule="evenodd"/><path stroke="#000000" stroke-width="2.0" stroke-linejoin="round" stroke-linecap="butt" d="m463.50708 162.33203c0 -1.4524689 1.1774597 -2.6299286 2.6299438 -2.6299286c0.69747925 0 1.3664246 0.27708435 1.8596191 0.7702942c0.4932251 0.49319458 0.7702942 1.1621246 0.7702942 1.8596344c0 1.4524536 -1.1774597 2.6299133 -2.6299133 2.6299133c-1.4524841 0 -2.6299438 -1.1774597 -2.6299438 -2.6299133z" fill-rule="evenodd"/><path fill="#fce5cd" d="m579.54065 224.06323c7.1325684 14.6653595 38.329834 16.226593 68.63257 16.952759c30.302673 0.7261658 87.865234 1.1605377 113.183716 -12.595795c25.318481 -13.756348 39.20868 -55.105865 38.72705 -69.94226c-0.48162842 -14.836395 -18.881042 -15.6080475 -41.61682 -19.07611c-22.735779 -3.4680786 -69.28302 -4.0026245 -94.79791 -1.7322845c-25.514893 2.27034 -44.269897 0.95536804 -58.29132 15.354324c-14.021423 14.398956 -32.96985 56.374023 -25.83728 71.03937z" fill-rule="evenodd"/><path stroke="#000000" stroke-width="1.0" stroke-linejoin="round" stroke-linecap="butt" d="m579.54065 224.06323c7.1325684 14.6653595 38.329834 16.226593 68.63257 16.952759c30.302673 0.7261658 87.865234 1.1605377 113.183716 -12.595795c25.318481 -13.756348 39.20868 -55.105865 38.72705 -69.94226c-0.48162842 -14.836395 -18.881042 -15.6080475 -41.61682 -19.07611c-22.735779 -3.4680786 -69.28302 -4.0026245 -94.79791 -1.7322845c-25.514893 2.27034 -44.269897 0.95536804 -58.29132 15.354324c-14.021423 14.398956 -32.96985 56.374023 -25.83728 71.03937z" fill-rule="evenodd"/><path fill="#000000" fill-opacity="0.0" d="m621.4748 162.19551c0 -7.244934 5.887329 -13.118103 13.149658 -13.118103c3.4874878 0 6.8320923 1.3820801 9.298157 3.8421936c2.4660034 2.4601288 3.8514404 5.796768 3.8514404 9.275909c0 7.244934 -5.887268 13.118118 -13.149597 13.118118c-7.262329 0 -13.149658 -5.873184 -13.149658 -13.118118z" fill-rule="evenodd"/><path stroke="#000000" stroke-width="2.0" stroke-linejoin="round" stroke-linecap="butt" d="m621.4748 162.19551c0 -7.244934 5.887329 -13.118103 13.149658 -13.118103c3.4874878 0 6.8320923 1.3820801 9.298157 3.8421936c2.4660034 2.4601288 3.8514404 5.796768 3.8514404 9.275909c0 7.244934 -5.887268 13.118118 -13.149597 13.118118c-7.262329 0 -13.149658 -5.873184 -13.149658 -13.118118z" fill-rule="evenodd"/><path fill="#000000" d="m637.3078 165.53488l-5.515625 0l-1.484375 4.140625l-1.75 0l5.65625 -15.171875l0.8125 0l5.671875 15.171875l-1.859375 0l-1.53125 -4.140625zm-4.9375 -1.53125l4.390625 0l-1.65625 -4.546875l-0.53125 -2.265625l-0.03125 0l-0.53125 2.3125l-1.640625 4.5z" fill-rule="nonzero"/><path fill="#000000" fill-opacity="0.0" d="m647.77405 162.19551l45.19684 0" fill-rule="evenodd"/><path stroke="#000000" stroke-width="2.0" stroke-linejoin="round" stroke-linecap="butt" d="m647.77405 162.19551l38.34265 0" fill-rule="evenodd"/><path fill="#000000" stroke="#000000" stroke-width="2.0" stroke-linecap="butt" d="m686.1167 162.19551l-2.2491455 2.2491608l6.1795044 -2.2491608l-6.1795044 -2.249176z" fill-rule="evenodd"/><path fill="#000000" fill-opacity="0.0" d="m692.98645 162.19551c0 -7.244934 5.887268 -13.118103 13.149597 -13.118103c3.4874878 0 6.8321533 1.3820801 9.298157 3.8421936c2.4660034 2.4601288 3.8514404 5.796768 3.8514404 9.275909c0 7.244934 -5.887268 13.118118 -13.149597 13.118118c-7.262329 0 -13.149597 -5.873184 -13.149597 -13.118118z" fill-rule="evenodd"/><path stroke="#000000" stroke-width="2.0" stroke-linejoin="round" stroke-linecap="butt" d="m692.98645 162.19551c0 -7.244934 5.887268 -13.118103 13.149597 -13.118103c3.4874878 0 6.8321533 1.3820801 9.298157 3.8421936c2.4660034 2.4601288 3.8514404 5.796768 3.8514404 9.275909c0 7.244934 -5.887268 13.118118 -13.149597 13.118118c-7.262329 0 -13.149597 -5.873184 -13.149597 -13.118118z" fill-rule="evenodd"/><path fill="#000000" d="m710.7207 158.15988q0 0.53125 -0.171875 1.09375q-0.171875 0.546875 -0.515625 1.03125q-0.328125 0.46875 -0.875 0.84375q-0.53125 0.359375 -1.25 0.546875l0 0.09375q0.640625 0.09375 1.21875 0.359375q0.59375 0.25 1.03125 0.703125q0.453125 0.4375 0.734375 1.078125q0.28125 0.640625 0.28125 1.515625q0 1.15625 -0.484375 2.0q-0.484375 0.84375 -1.265625 1.375q-0.765625 0.53125 -1.78125 0.796875q-1.0 0.25 -2.046875 0.25q-0.359375 0 -0.859375 0q-0.484375 0 -1.015625 -0.03125q-0.53125 -0.03125 -1.0625 -0.09375q-0.53125 -0.046875 -0.9375 -0.15625l0 -14.6875q0.796875 -0.140625 1.828125 -0.21875q1.046875 -0.078125 2.28125 -0.078125q0.84375 0 1.703125 0.140625q0.859375 0.125 1.5625 0.53125q0.703125 0.390625 1.15625 1.09375q0.46875 0.703125 0.46875 1.8125zm-4.953125 10.15625q0.6875 0 1.328125 -0.15625q0.640625 -0.171875 1.125 -0.515625q0.5 -0.359375 0.78125 -0.859375q0.296875 -0.515625 0.296875 -1.21875q0 -0.875 -0.359375 -1.40625q-0.34375 -0.546875 -0.921875 -0.84375q-0.5625 -0.296875 -1.265625 -0.40625q-0.703125 -0.109375 -1.40625 -0.109375l-1.859375 0l0 5.359375q0.15625 0.046875 0.421875 0.078125q0.28125 0.015625 0.59375 0.03125q0.328125 0.015625 0.671875 0.03125q0.34375 0.015625 0.59375 0.015625zm-1.171875 -7.0q0.375 0 0.875 -0.015625q0.515625 -0.03125 0.859375 -0.078125q0.515625 -0.15625 0.953125 -0.40625q0.453125 -0.25 0.796875 -0.578125q0.359375 -0.328125 0.5625 -0.765625q0.203125 -0.4375 0.203125 -0.953125q0 -0.703125 -0.265625 -1.15625q-0.265625 -0.46875 -0.71875 -0.734375q-0.453125 -0.28125 -1.03125 -0.390625q-0.5625 -0.125 -1.15625 -0.125q-0.703125 0 -1.296875 0.03125q-0.59375 0.03125 -0.890625 0.09375l0 5.078125l1.109375 0z" fill-rule="nonzero"/><path fill="#000000" fill-opacity="0.0" d="m657.2306 213.83319c0 -7.244934 5.887329 -13.118103 13.149658 -13.118103c3.4874878 0 6.8321533 1.3820801 9.298157 3.8421936c2.4660034 2.4601288 3.8514404 5.796768 3.8514404 9.275909c0 7.244934 -5.887268 13.118118 -13.149597 13.118118c-7.262329 0 -13.149658 -5.873184 -13.149658 -13.118118z" fill-rule="evenodd"/><path stroke="#000000" stroke-width="2.0" stroke-linejoin="round" stroke-linecap="butt" d="m657.2306 213.83319c0 -7.244934 5.887329 -13.118103 13.149658 -13.118103c3.4874878 0 6.8321533 1.3820801 9.298157 3.8421936c2.4660034 2.4601288 3.8514404 5.796768 3.8514404 9.275909c0 7.244934 -5.887268 13.118118 -13.149597 13.118118c-7.262329 0 -13.149658 -5.873184 -13.149658 -13.118118z" fill-rule="evenodd"/><path fill="#000000" d="m666.47675 206.37569l8.125 0l0 1.59375l-6.359375 0l0 4.875l5.828125 0l0 1.578125l-5.828125 0l0 5.3125l6.46875 0l0 1.578125l-8.234375 0l0 -14.9375z" fill-rule="nonzero"/><path fill="#000000" fill-opacity="0.0" d="m643.9226 171.47142l17.165344 33.07086" fill-rule="evenodd"/><path stroke="#000000" stroke-width="2.0" stroke-linejoin="round" stroke-linecap="butt" d="m643.9226 171.47142l14.00769 26.987366" fill-rule="evenodd"/><path fill="#000000" stroke="#000000" stroke-width="2.0" stroke-linecap="butt" d="m657.93036 198.45877l-3.0324707 -0.9601135l4.8431396 4.4485626l-0.85058594 -6.5208893z" fill-rule="evenodd"/><path fill="#000000" fill-opacity="0.0" d="m764.49805 162.19551l-45.1969 0" fill-rule="evenodd"/><path stroke="#000000" stroke-width="1.0" stroke-linejoin="round" stroke-linecap="butt" stroke-dasharray="4.0,3.0" d="m764.49805 162.19551l-45.1969 0" fill-rule="evenodd"/><path fill="#000000" fill-opacity="0.0" d="m728.74225 213.83319c0 -7.244934 5.887268 -13.118103 13.149597 -13.118103c3.4874878 0 6.8321533 1.3820801 9.298157 3.8421936c2.4660645 2.4601288 3.8514404 5.796768 3.8514404 9.275909c0 7.244934 -5.887268 13.118118 -13.149597 13.118118c-7.262329 0 -13.149597 -5.873184 -13.149597 -13.118118z" fill-rule="evenodd"/><path stroke="#000000" stroke-width="2.0" stroke-linejoin="round" stroke-linecap="butt" d="m728.74225 213.83319c0 -7.244934 5.887268 -13.118103 13.149597 -13.118103c3.4874878 0 6.8321533 1.3820801 9.298157 3.8421936c2.4660645 2.4601288 3.8514404 5.796768 3.8514404 9.275909c0 7.244934 -5.887268 13.118118 -13.149597 13.118118c-7.262329 0 -13.149597 -5.873184 -13.149597 -13.118118z" fill-rule="evenodd"/><path fill="#000000" d="m738.191 206.37569l8.125 0l0 1.59375l-6.359375 0l0 5.09375l5.9375 0l0 1.578125l-5.9375 0l0 6.671875l-1.765625 0l0 -14.9375z" fill-rule="nonzero"/><path fill="#000000" fill-opacity="0.0" d="m764.49805 162.19551c0 -7.244934 5.887268 -13.118103 13.149597 -13.118103c3.4874878 0 6.8321533 1.3820801 9.298157 3.8421936c2.4660645 2.4601288 3.8514404 5.796768 3.8514404 9.275909c0 7.244934 -5.887268 13.118118 -13.149597 13.118118c-7.262329 0 -13.149597 -5.873184 -13.149597 -13.118118z" fill-rule="evenodd"/><path stroke="#000000" stroke-width="2.0" stroke-linejoin="round" stroke-linecap="butt" d="m764.49805 162.19551c0 -7.244934 5.887268 -13.118103 13.149597 -13.118103c3.4874878 0 6.8321533 1.3820801 9.298157 3.8421936c2.4660645 2.4601288 3.8514404 5.796768 3.8514404 9.275909c0 7.244934 -5.887268 13.118118 -13.149597 13.118118c-7.262329 0 -13.149597 -5.873184 -13.149597 -13.118118z" fill-rule="evenodd"/><path fill="#000000" d="m782.9334 169.0505q-0.640625 0.5 -1.625 0.6875q-0.984375 0.1875 -2.09375 0.1875q-1.34375 0 -2.515625 -0.453125q-1.171875 -0.453125 -2.046875 -1.390625q-0.875 -0.9375 -1.390625 -2.390625q-0.515625 -1.46875 -0.515625 -3.484375q0 -2.09375 0.5625 -3.546875q0.578125 -1.46875 1.5 -2.390625q0.9375 -0.921875 2.078125 -1.34375q1.15625 -0.4375 2.34375 -0.4375q1.28125 0 2.09375 0.140625q0.8125 0.140625 1.390625 0.375l-0.421875 1.5625q-1.03125 -0.5 -2.921875 -0.5q-0.875 0 -1.734375 0.328125q-0.859375 0.3125 -1.53125 1.046875q-0.671875 0.71875 -1.078125 1.890625q-0.390625 1.171875 -0.390625 2.875q0 1.546875 0.375 2.703125q0.390625 1.140625 1.0625 1.90625q0.671875 0.765625 1.578125 1.15625q0.90625 0.375 1.96875 0.375q0.953125 0 1.671875 -0.1875q0.71875 -0.1875 1.203125 -0.484375l0.4375 1.375z" fill-rule="nonzero"/><path fill="#000000" fill-opacity="0.0" d="m585.719 213.83319c0 -7.244934 5.887329 -13.118103 13.149597 -13.118103c3.4875488 0 6.8321533 1.3820801 9.298218 3.8421936c2.4660034 2.4601288 3.8514404 5.796768 3.8514404 9.275909c0 7.244934 -5.887329 13.118118 -13.149658 13.118118c-7.262268 0 -13.149597 -5.873184 -13.149597 -13.118118z" fill-rule="evenodd"/><path stroke="#000000" stroke-width="2.0" stroke-linejoin="round" stroke-linecap="butt" d="m585.719 213.83319c0 -7.244934 5.887329 -13.118103 13.149597 -13.118103c3.4875488 0 6.8321533 1.3820801 9.298218 3.8421936c2.4660034 2.4601288 3.8514404 5.796768 3.8514404 9.275909c0 7.244934 -5.887329 13.118118 -13.149658 13.118118c-7.262268 0 -13.149597 -5.873184 -13.149597 -13.118118z" fill-rule="evenodd"/><path fill="#000000" d="m593.7068 206.37569q0.40625 -0.0625 0.90625 -0.09375q0.5 -0.03125 1.046875 -0.03125q0.546875 -0.015625 1.0625 -0.015625q0.53125 -0.015625 0.96875 -0.015625q1.796875 0 3.109375 0.5625q1.3125 0.546875 2.15625 1.546875q0.859375 0.984375 1.265625 2.375q0.421875 1.375 0.421875 3.03125q0 1.515625 -0.390625 2.921875q-0.390625 1.390625 -1.25 2.46875q-0.84375 1.078125 -2.21875 1.734375q-1.359375 0.640625 -3.296875 0.640625q-0.34375 0 -0.890625 -0.015625q-0.546875 0 -1.125 -0.03125q-0.578125 -0.03125 -1.0625 -0.0625q-0.484375 -0.015625 -0.703125 -0.0625l0 -14.953125zm4.03125 1.421875q-0.28125 0 -0.609375 0q-0.328125 0 -0.65625 0.015625q-0.3125 0.015625 -0.578125 0.046875q-0.265625 0.015625 -0.421875 0.03125l0 11.953125q0.109375 0.015625 0.40625 0.03125q0.296875 0.015625 0.609375 0.03125q0.328125 0 0.625 0.015625q0.3125 0 0.40625 0q1.5 0 2.515625 -0.5q1.015625 -0.515625 1.609375 -1.375q0.609375 -0.875 0.859375 -1.984375q0.265625 -1.125 0.265625 -2.328125q0 -1.03125 -0.234375 -2.09375q-0.234375 -1.0625 -0.8125 -1.90625q-0.578125 -0.859375 -1.546875 -1.390625q-0.96875 -0.546875 -2.4375 -0.546875z" fill-rule="nonzero"/><path fill="#000000" fill-opacity="0.0" d="m625.32623 171.47142l-17.165344 33.07086" fill-rule="evenodd"/><path stroke="#000000" stroke-width="2.0" stroke-linejoin="round" stroke-linecap="butt" d="m625.32623 171.47142l-14.00769 26.987366" fill-rule="evenodd"/><path fill="#000000" stroke="#000000" stroke-width="2.0" stroke-linecap="butt" d="m611.31854 198.45877l-0.96014404 -3.0324402l-0.8505249 6.5208893l4.8430786 -4.4485626z" fill-rule="evenodd"/><path fill="#000000" fill-opacity="0.0" d="m683.52985 213.83319l45.19684 0" fill-rule="evenodd"/><path stroke="#000000" stroke-width="1.0" stroke-linejoin="round" stroke-linecap="butt" stroke-dasharray="4.0,3.0" d="m683.52985 213.83319l45.19684 0" fill-rule="evenodd"/><path fill="#000000" fill-opacity="0.0" d="m715.4342 171.47142l17.165344 33.07086" fill-rule="evenodd"/><path stroke="#000000" stroke-width="2.0" stroke-linejoin="round" stroke-linecap="butt" d="m715.4342 171.47142l14.007751 26.987366" fill-rule="evenodd"/><path fill="#000000" stroke="#000000" stroke-width="2.0" stroke-linecap="butt" d="m729.44196 198.45877l-3.0324707 -0.9601135l4.8431396 4.4485626l-0.85058594 -6.5208893z" fill-rule="evenodd"/><path fill="#000000" fill-opacity="0.0" d="m751.19 204.55728l17.165344 -33.07086" fill-rule="evenodd"/><path stroke="#000000" stroke-width="2.0" stroke-linejoin="round" stroke-linecap="butt" d="m751.19006 204.5573l14.00769 -26.987381" fill-rule="evenodd"/><path fill="#000000" stroke="#000000" stroke-width="2.0" stroke-linecap="butt" d="m765.19775 177.56993l0.96014404 3.0324402l0.8505249 -6.5208893l-4.8430786 4.4485626z" fill-rule="evenodd"/><path fill="#000000" fill-opacity="0.0" d="m657.2306 213.83319l-45.19684 0" fill-rule="evenodd"/><path stroke="#000000" stroke-width="1.0" stroke-linejoin="round" stroke-linecap="butt" stroke-dasharray="4.0,3.0" d="m657.2306 213.83319l-45.19684 0" fill-rule="evenodd"/></g></svg>