<svg version="1.1" viewBox="0.0 0.0 831.496062992126 275.90551181102364" fill="none" stroke="none" stroke-linecap="square" stroke-miterlimit="10" xmlns:xlink="http://www.w3.org/1999/xlink" xmlns="http://www.w3.org/2000/svg"><clipPath id="p.0"><path d="m0 0l831.49603 0l0 275.90552l-831.49603 0l0 -275.90552z" clip-rule="nonzero"/></clipPath><g clip-path="url(#p.0)"><path fill="#000000" fill-opacity="0.0" d="m0 0l831.49603 0l0 275.90552l-831.49603 0z" fill-rule="evenodd"/><path fill="#ffffff" d="m77.387085 100.42932c0 -8.349503 6.768608 -15.118111 15.118111 -15.118111c4.0095673 0 7.8549194 1.5927963 10.690117 4.427994c2.8351974 2.8351898 4.427994 6.680542 4.427994 10.690117c0 8.349503 -6.768608 15.118111 -15.118111 15.118111c-8.349503 0 -15.118111 -6.768608 -15.118111 -15.118111z" fill-rule="evenodd"/><path stroke="#000000" stroke-width="2.0" stroke-linejoin="round" stroke-linecap="butt" d="m77.387085 100.42932c0 -8.349503 6.768608 -15.118111 15.118111 -15.118111c4.0095673 0 7.8549194 1.5927963 10.690117 4.427994c2.8351974 2.8351898 4.427994 6.680542 4.427994 10.690117c0 8.349503 -6.768608 15.118111 -15.118111 15.118111c-8.349503 0 -15.118111 -6.768608 -15.118111 -15.118111z" fill-rule="evenodd"/><path fill="#000000" d="m95.18857 103.76869l-5.515625 0l-1.484375 4.140625l-1.75 0l5.65625 -15.171875l0.8125 0l5.6718674 15.171875l-1.8593674 0l-1.53125 -4.140625zm-4.9375 -1.53125l4.390625 0l-1.65625 -4.546875l-0.53125 -2.265625l-0.03125 0l-0.53125 2.3125l-1.640625 4.5z" fill-rule="nonzero"/><path fill="#ffffff" d="m164.89868 100.42932c0 -8.349503 6.7686157 -15.118111 15.118118 -15.118111c4.0095673 0 7.8549194 1.5927963 10.690109 4.427994c2.835205 2.8351898 4.427994 6.680542 4.427994 10.690117c0 8.349503 -6.7686005 15.118111 -15.118103 15.118111c-8.349503 0 -15.118118 -6.768608 -15.118118 -15.118111z" fill-rule="evenodd"/><path stroke="#000000" stroke-width="2.0" stroke-linejoin="round" stroke-linecap="butt" d="m164.89868 100.42932c0 -8.349503 6.7686157 -15.118111 15.118118 -15.118111c4.0095673 0 7.8549194 1.5927963 10.690109 4.427994c2.835205 2.8351898 4.427994 6.680542 4.427994 10.690117c0 8.349503 -6.7686005 15.118111 -15.118103 15.118111c-8.349503 0 -15.118118 -6.768608 -15.118118 -15.118111z" fill-rule="evenodd"/><path fill="#000000" d="m184.60146 96.39369q0 0.53125 -0.171875 1.09375q-0.171875 0.546875 -0.515625 1.03125q-0.328125 0.46875 -0.875 0.84375q-0.53125 0.359375 -1.25 0.546875l0 0.09375q0.640625 0.09375 1.21875 0.359375q0.59375 0.25 1.03125 0.703125q0.453125 0.4375 0.734375 1.078125q0.28125 0.640625 0.28125 1.515625q0 1.15625 -0.484375 2.0q-0.484375 0.84375 -1.265625 1.375q-0.765625 0.53125 -1.78125 0.796875q-1.0 0.25 -2.046875 0.25q-0.359375 0 -0.859375 0q-0.484375 0 -1.015625 -0.03125q-0.53125 -0.03125 -1.0625 -0.09375q-0.53125 -0.046875 -0.9375 -0.15625l0 -14.6875q0.796875 -0.140625 1.828125 -0.21875q1.046875 -0.078125 2.28125 -0.078125q0.84375 0 1.703125 0.140625q0.859375 0.125 1.5625 0.53125q0.703125 0.390625 1.15625 1.09375q0.46875 0.703125 0.46875 1.8125zm-4.953125 10.15625q0.6875 0 1.328125 -0.15625q0.640625 -0.171875 1.125 -0.515625q0.5 -0.359375 0.78125 -0.859375q0.296875 -0.515625 0.296875 -1.21875q0 -0.875 -0.359375 -1.40625q-0.34375 -0.546875 -0.921875 -0.84375q-0.5625 -0.296875 -1.265625 -0.40625q-0.703125 -0.109375 -1.40625 -0.109375l-1.859375 0l0 5.359375q0.15625 0.046875 0.421875 0.078125q0.28125 0.015625 0.59375 0.03125q0.328125 0.015625 0.671875 0.03125q0.34375 0.015625 0.59375 0.015625zm-1.171875 -7.0q0.375 0 0.875 -0.015625q0.515625 -0.03125 0.859375 -0.078125q0.515625 -0.15625 0.953125 -0.40625q0.453125 -0.25 0.796875 -0.578125q0.359375 -0.328125 0.5625 -0.765625q0.203125 -0.4375 0.203125 -0.953125q0 -0.703125 -0.265625 -1.15625q-0.265625 -0.46875 -0.71875 -0.734375q-0.453125 -0.28125 -1.03125 -0.390625q-0.5625 -0.125 -1.15625 -0.125q-0.703125 0 -1.296875 0.03125q-0.59375 0.03125 -0.890625 0.09375l0 5.078125l1.109375 0z" fill-rule="nonzero"/><path fill="#ffffff" d="m121.14288 168.067c0 -8.349503 6.768608 -15.118103 15.118118 -15.118103c4.0095673 0 7.8549194 1.5927887 10.690109 4.4279785c2.835205 2.835205 4.427994 6.6805573 4.427994 10.6901245c0 8.349503 -6.7686005 15.118103 -15.118103 15.118103c-8.34951 0 -15.118118 -6.7686005 -15.118118 -15.118103z" fill-rule="evenodd"/><path stroke="#000000" stroke-width="2.0" stroke-linejoin="round" stroke-linecap="butt" d="m121.14288 168.067c0 -8.349503 6.768608 -15.118103 15.118118 -15.118103c4.0095673 0 7.8549194 1.5927887 10.690109 4.4279785c2.835205 2.835205 4.427994 6.6805573 4.427994 10.6901245c0 8.349503 -6.7686005 15.118103 -15.118103 15.118103c-8.34951 0 -15.118118 -6.7686005 -15.118118 -15.118103z" fill-rule="evenodd"/><path fill="#000000" d="m132.35754 160.6095l8.125 0l0 1.59375l-6.359375 0l0 4.875l5.828125 0l0 1.578125l-5.828125 0l0 5.3125l6.46875 0l0 1.578125l-8.234375 0l0 -14.9375z" fill-rule="nonzero"/><path fill="#000000" fill-opacity="0.0" d="m103.19531 111.11944l22.362206 46.267723" fill-rule="evenodd"/><path stroke="#000000" stroke-width="2.0" stroke-linejoin="round" stroke-linecap="butt" d="m103.19531 111.11944l22.362206 46.267723" fill-rule="evenodd"/><path fill="#000000" fill-opacity="0.0" d="m164.89868 100.42932l-57.259834 0" fill-rule="evenodd"/><path stroke="#000000" stroke-width="2.0" stroke-linejoin="round" stroke-linecap="butt" d="m164.89868 100.42932l-57.259834 0" fill-rule="evenodd"/><path fill="#ffffff" d="m208.6545 168.067c0 -8.349503 6.7686005 -15.118103 15.118103 -15.118103c4.0095825 0 7.8549194 1.5927887 10.6901245 4.4279785c2.8351898 2.835205 4.427994 6.6805573 4.427994 10.6901245c0 8.349503 -6.7686157 15.118103 -15.118118 15.118103c-8.349503 0 -15.118103 -6.7686005 -15.118103 -15.118103z" fill-rule="evenodd"/><path stroke="#000000" stroke-width="2.0" stroke-linejoin="round" stroke-linecap="butt" d="m208.6545 168.067c0 -8.349503 6.7686005 -15.118103 15.118103 -15.118103c4.0095825 0 7.8549194 1.5927887 10.6901245 4.4279785c2.8351898 2.835205 4.427994 6.6805573 4.427994 10.6901245c0 8.349503 -6.7686157 15.118103 -15.118118 15.118103c-8.349503 0 -15.118103 -6.7686005 -15.118103 -15.118103z" fill-rule="evenodd"/><path fill="#000000" d="m220.07176 160.6095l8.125 0l0 1.59375l-6.359375 0l0 5.09375l5.9375 0l0 1.578125l-5.9375 0l0 6.671875l-1.765625 0l0 -14.9375z" fill-rule="nonzero"/><path fill="#ffffff" d="m260.4103 100.42932c0 -8.349503 6.768585 -15.118111 15.118103 -15.118111c4.009552 0 7.8549194 1.5927963 10.6901245 4.427994c2.8351746 2.8351898 4.4279785 6.680542 4.4279785 10.690117c0 8.349503 -6.7686157 15.118111 -15.118103 15.118111c-8.349518 0 -15.118103 -6.768608 -15.118103 -15.118111z" fill-rule="evenodd"/><path stroke="#000000" stroke-width="2.0" stroke-linejoin="round" stroke-linecap="butt" d="m260.4103 100.42932c0 -8.349503 6.768585 -15.118111 15.118103 -15.118111c4.009552 0 7.8549194 1.5927963 10.6901245 4.427994c2.8351746 2.8351898 4.4279785 6.680542 4.4279785 10.690117c0 8.349503 -6.7686157 15.118111 -15.118103 15.118111c-8.349518 0 -15.118103 -6.768608 -15.118103 -15.118111z" fill-rule="evenodd"/><path fill="#000000" d="m280.8142 107.28432q-0.640625 0.5 -1.625 0.6875q-0.984375 0.1875 -2.09375 0.1875q-1.34375 0 -2.515625 -0.453125q-1.171875 -0.453125 -2.046875 -1.390625q-0.875 -0.9375 -1.390625 -2.390625q-0.515625 -1.46875 -0.515625 -3.484375q0 -2.09375 0.5625 -3.546875q0.578125 -1.46875 1.5 -2.390625q0.9375 -0.921875 2.078125 -1.34375q1.15625 -0.4375 2.34375 -0.4375q1.28125 0 2.09375 0.140625q0.8125 0.140625 1.390625 0.375l-0.421875 1.5625q-1.03125 -0.5 -2.921875 -0.5q-0.875 0 -1.734375 0.328125q-0.859375 0.3125 -1.53125 1.046875q-0.671875 0.71875 -1.078125 1.890625q-0.390625 1.171875 -0.390625 2.875q0 1.546875 0.375 2.703125q0.390625 1.140625 1.0625 1.90625q0.671875 0.765625 1.578125 1.15625q0.90625 0.375 1.96875 0.375q0.953125 0 1.671875 -0.1875q0.71875 -0.1875 1.203125 -0.484375l0.4375 1.375z" fill-rule="nonzero"/><path fill="#ffffff" d="m25.631279 168.067c0 -8.349503 6.768608 -15.118103 15.118111 -15.118103c4.009571 0 7.8549232 1.5927887 10.690117 4.4279785c2.8351974 2.835205 4.427994 6.6805573 4.427994 10.6901245c0 8.349503 -6.768608 15.118103 -15.118111 15.118103c-8.349503 0 -15.118111 -6.7686005 -15.118111 -15.118103z" fill-rule="evenodd"/><path stroke="#000000" stroke-width="2.0" stroke-linejoin="round" stroke-linecap="butt" d="m25.631279 168.067c0 -8.349503 6.768608 -15.118103 15.118111 -15.118103c4.009571 0 7.8549232 1.5927887 10.690117 4.4279785c2.8351974 2.835205 4.427994 6.6805573 4.427994 10.6901245c0 8.349503 -6.768608 15.118103 -15.118111 15.118103c-8.349503 0 -15.118111 -6.7686005 -15.118111 -15.118103z" fill-rule="evenodd"/><path fill="#000000" d="m35.587563 160.6095q0.40625 -0.0625 0.90625 -0.09375q0.5 -0.03125 1.046875 -0.03125q0.546875 -0.015625 1.0625 -0.015625q0.53125 -0.015625 0.96875 -0.015625q1.796875 0 3.109375 0.5625q1.3125 0.546875 2.15625 1.546875q0.859375 0.984375 1.265625 2.375q0.421875 1.375 0.421875 3.03125q0 1.515625 -0.390625 2.921875q-0.390625 1.390625 -1.25 2.46875q-0.84375 1.078125 -2.21875 1.734375q-1.359375 0.640625 -3.296875 0.640625q-0.34375 0 -0.890625 -0.015625q-0.546875 0 -1.125 -0.03125q-0.578125 -0.03125 -1.0625 -0.0625q-0.484375 -0.015625 -0.703125 -0.0625l0 -14.953125zm4.03125 1.421875q-0.28125 0 -0.609375 0q-0.328125 0 -0.65625 0.015625q-0.3125 0.015625 -0.578125 0.046875q-0.265625 0.015625 -0.421875 0.03125l0 11.953125q0.109375 0.015625 0.40625 0.03125q0.296875 0.015625 0.609375 0.03125q0.328125 0 0.625 0.015625q0.3125 0 0.40625 0q1.5 0 2.515625 -0.5q1.015625 -0.515625 1.609375 -1.375q0.609375 -0.875 0.859375 -1.984375q0.265625 -1.125 0.265625 -2.328125q0 -1.03125 -0.234375 -2.09375q-0.234375 -1.0625 -0.8125 -1.90625q-0.578125 -0.859375 -1.546875 -1.390625q-0.96875 -0.546875 -2.4375 -0.546875z" fill-rule="nonzero"/><path fill="#000000" fill-opacity="0.0" d="m81.81507 111.11944l-30.362202 46.267723" fill-rule="evenodd"/><path stroke="#000000" stroke-width="2.0" stroke-linejoin="round" stroke-linecap="butt" d="m81.81507 111.11944l-30.362202 46.267723" fill-rule="evenodd"/><path fill="#000000" fill-opacity="0.0" d="m151.3791 168.067l57.259842 0" fill-rule="evenodd"/><path stroke="#000000" stroke-width="2.0" stroke-linejoin="round" stroke-linecap="butt" d="m151.3791 168.067l57.259842 0" fill-rule="evenodd"/><path fill="#000000" fill-opacity="0.0" d="m190.70691 111.11944l22.362213 46.267723" fill-rule="evenodd"/><path stroke="#000000" stroke-width="2.0" stroke-linejoin="round" stroke-linecap="butt" d="m190.70691 111.11944l22.362213 46.267723" fill-rule="evenodd"/><path fill="#000000" fill-opacity="0.0" d="m264.8383 111.11944l-30.362213 46.267723" fill-rule="evenodd"/><path stroke="#000000" stroke-width="2.0" stroke-linejoin="round" stroke-linecap="butt" d="m264.8383 111.11944l-30.362213 46.267723" fill-rule="evenodd"/><path fill="#000000" fill-opacity="0.0" d="m121.14288 168.067l-65.25984 0" fill-rule="evenodd"/><path stroke="#000000" stroke-width="2.0" stroke-linejoin="round" stroke-linecap="butt" d="m121.14288 168.067l-65.25984 0" fill-rule="evenodd"/><path fill="#000000" fill-opacity="0.0" d="m260.4103 100.42932l-65.25986 0" fill-rule="evenodd"/><path stroke="#000000" stroke-width="2.0" stroke-linejoin="round" stroke-linecap="butt" d="m260.4103 100.42932l-65.25986 0" fill-rule="evenodd"/><path fill="#ffffff" d="m128.63446 101.158875c0 -5.218437 3.3843079 -9.448814 7.5590515 -9.448814c2.0047913 0 3.9274597 0.99549866 5.3450623 2.7674942c1.4176025 1.7719955 2.2140045 4.1753387 2.2140045 6.68132c0 5.218437 -3.3843079 9.448822 -7.559067 9.448822c-4.1747437 0 -7.5590515 -4.230385 -7.5590515 -9.448822z" fill-rule="evenodd"/><path fill="#000000" d="m140.22414 103.581375l-1.890625 0l0 3.4375l-1.25 0l0 -3.4375l-4.9375 0l0 -0.53125l5.3125 -7.40625l0.875 0l0 6.8125l1.890625 0l0 1.125zm-3.140625 -4.609375l0.15625 -1.3125l-0.046875 0l-0.5625 1.09375l-2.25 3.046875l-0.765625 0.78125l1.109375 -0.125l2.359375 0l0 -3.484375z" fill-rule="nonzero"/><path fill="#ffffff" d="m220.39917 101.158875c0 -5.218437 3.3843079 -9.448814 7.5590515 -9.448814c2.0047913 0 3.9274597 0.99549866 5.3450623 2.7674942c1.4176025 1.7719955 2.2139893 4.1753387 2.2139893 6.68132c0 5.218437 -3.3842926 9.448822 -7.5590515 9.448822c-4.1747437 0 -7.5590515 -4.230385 -7.5590515 -9.448822z" fill-rule="evenodd"/><path fill="#000000" d="m231.98885 103.581375l-1.890625 0l0 3.4375l-1.25 0l0 -3.4375l-4.9375 0l0 -0.53125l5.3125 -7.40625l0.875 0l0 6.8125l1.890625 0l0 1.125zm-3.140625 -4.609375l0.15625 -1.3125l-0.046875 0l-0.5625 1.09375l-2.25 3.046875l-0.765625 0.78125l1.109375 -0.125l2.359375 0l0 -3.484375z" fill-rule="nonzero"/><path fill="#ffffff" d="m81.4748 168.52022c0 -5.2184296 3.3843002 -9.448822 7.5590515 -9.448822c2.0047913 0 3.9274673 0.99549866 5.3450623 2.7675018c1.4175949 1.7720032 2.213997 4.1753387 2.213997 6.68132c0 5.218445 -3.3843079 9.448822 -7.559059 9.448822c-4.1747513 0 -7.5590515 -4.230377 -7.5590515 -9.448822z" fill-rule="evenodd"/><path fill="#000000" d="m88.42384 173.45834q0.53125 0 1.0 -0.15625q0.46875 -0.171875 0.796875 -0.484375q0.34375 -0.3125 0.53125 -0.734375q0.1875 -0.4375 0.1875 -0.953125q0 -1.125 -0.671875 -1.65625q-0.65625 -0.546875 -1.8125 -0.546875l-1.1875 0l0 -0.46875l2.296875 -3.546875l0.734375 -0.703125l-1.03125 0.15625l-3.171875 0l0 -1.1875l5.71875 0l0 0.46875l-2.546875 3.828125l-0.5625 0.453125l0 0.03125l0.546875 -0.109375q0.640625 0.015625 1.171875 0.234375q0.546875 0.21875 0.953125 0.625q0.40625 0.40625 0.625 0.984375q0.21875 0.5625 0.21875 1.28125q0 0.859375 -0.3125 1.53125q-0.296875 0.671875 -0.8125 1.140625q-0.515625 0.453125 -1.21875 0.6875q-0.703125 0.234375 -1.484375 0.234375q-0.734375 0 -1.3125 -0.109375q-0.5625 -0.109375 -1.0 -0.28125l0.34375 -1.140625q0.359375 0.171875 0.859375 0.296875q0.515625 0.125 1.140625 0.125z" fill-rule="nonzero"/><path fill="#ffffff" d="m169.87816 168.52022c0 -5.2184296 3.3843079 -9.448822 7.5590515 -9.448822c2.0047913 0 3.927475 0.99549866 5.3450623 2.7675018c1.4176025 1.7720032 2.2140045 4.1753387 2.2140045 6.68132c0 5.218445 -3.3843079 9.448822 -7.559067 9.448822c-4.1747437 0 -7.5590515 -4.230377 -7.5590515 -9.448822z" fill-rule="evenodd"/><path fill="#000000" d="m176.82721 173.45834q0.53125 0 1.0 -0.15625q0.46875 -0.171875 0.796875 -0.484375q0.34375 -0.3125 0.53125 -0.734375q0.1875 -0.4375 0.1875 -0.953125q0 -1.125 -0.671875 -1.65625q-0.65625 -0.546875 -1.8125 -0.546875l-1.1875 0l0 -0.46875l2.296875 -3.546875l0.734375 -0.703125l-1.03125 0.15625l-3.171875 0l0 -1.1875l5.71875 0l0 0.46875l-2.546875 3.828125l-0.5625 0.453125l0 0.03125l0.546875 -0.109375q0.640625 0.015625 1.171875 0.234375q0.546875 0.21875 0.953125 0.625q0.40625 0.40625 0.625 0.984375q0.21875 0.5625 0.21875 1.28125q0 0.859375 -0.3125 1.53125q-0.296875 0.671875 -0.8125 1.140625q-0.515625 0.453125 -1.21875 0.6875q-0.703125 0.234375 -1.484375 0.234375q-0.734375 0 -1.3125 -0.109375q-0.5625 -0.109375 -1.0 -0.28125l0.34375 -1.140625q0.359375 0.171875 0.859375 0.296875q0.515625 0.125 1.140625 0.125z" fill-rule="nonzero"/><path fill="#ffffff" d="m60.43278 134.24815c0 -5.2184296 3.384304 -9.448814 7.5590553 -9.448814c2.0047836 0 3.9274597 0.99549866 5.3450623 2.7674942c1.4175949 1.7720032 2.2139893 4.1753387 2.2139893 6.68132c0 5.218445 -3.3843002 9.448822 -7.5590515 9.448822c-4.1747513 0 -7.5590553 -4.230377 -7.5590553 -9.448822z" fill-rule="evenodd"/><path fill="#000000" d="m70.77245 131.4519q0 0.84375 -0.3125 1.734375q-0.3125 0.890625 -0.828125 1.796875q-0.5 0.890625 -1.125 1.75q-0.625 0.84375 -1.25 1.609375l-0.78125 0.6875l0 0.0625l1.03125 -0.171875l3.484375 0l0 1.1875l-6.375 0l0 -0.46875q0.359375 -0.359375 0.859375 -0.90625q0.5 -0.546875 1.03125 -1.203125q0.53125 -0.671875 1.046875 -1.40625q0.53125 -0.75 0.953125 -1.515625q0.421875 -0.765625 0.671875 -1.515625q0.265625 -0.765625 0.265625 -1.4375q0 -0.78125 -0.453125 -1.296875q-0.453125 -0.515625 -1.359375 -0.515625q-0.609375 0 -1.1875 0.25q-0.578125 0.234375 -0.984375 0.5625l-0.53125 -0.921875q0.5625 -0.46875 1.328125 -0.734375q0.765625 -0.28125 1.640625 -0.28125q0.6875 0 1.21875 0.203125q0.53125 0.203125 0.890625 0.578125q0.375 0.359375 0.5625 0.859375q0.203125 0.5 0.203125 1.09375z" fill-rule="nonzero"/><path fill="#ffffff" d="m106.31513 134.24815c0 -5.2184296 3.3843079 -9.448814 7.559059 -9.448814c2.0047836 0 3.9274597 0.99549866 5.3450546 2.7674942c1.4176025 1.7720032 2.213997 4.1753387 2.213997 6.68132c0 5.218445 -3.3843002 9.448822 -7.5590515 9.448822c-4.1747513 0 -7.559059 -4.230377 -7.559059 -9.448822z" fill-rule="evenodd"/><path fill="#000000" d="m117.38918 136.73315q0 0.734375 -0.234375 1.390625q-0.21875 0.640625 -0.65625 1.125q-0.421875 0.484375 -1.0625 0.765625q-0.640625 0.28125 -1.453125 0.28125q-0.8125 0 -1.453125 -0.25q-0.625 -0.25 -1.09375 -0.75q-0.46875 -0.515625 -0.71875 -1.25q-0.25 -0.734375 -0.25 -1.703125q0 -1.578125 0.40625 -2.90625q0.421875 -1.34375 1.140625 -2.328125q0.71875 -1.0 1.703125 -1.609375q0.984375 -0.625 2.140625 -0.78125l0.265625 1.015625q-0.890625 0.171875 -1.640625 0.625q-0.734375 0.4375 -1.28125 1.09375q-0.546875 0.65625 -0.90625 1.46875q-0.34375 0.8125 -0.484375 1.6875q0.265625 -0.4375 0.875 -0.796875q0.609375 -0.359375 1.484375 -0.359375q1.5 0 2.359375 0.875q0.859375 0.859375 0.859375 2.40625zm-1.328125 0.125q0 -1.140625 -0.53125 -1.703125q-0.53125 -0.578125 -1.625 -0.578125q-0.796875 0 -1.359375 0.390625q-0.5625 0.375 -0.796875 0.859375q-0.03125 0.21875 -0.03125 0.359375q0 0.140625 0 0.328125q0 0.484375 0.140625 0.96875q0.140625 0.484375 0.421875 0.859375q0.296875 0.375 0.71875 0.609375q0.421875 0.234375 1.0 0.234375q0.453125 0 0.828125 -0.171875q0.390625 -0.1875 0.65625 -0.484375q0.265625 -0.3125 0.421875 -0.734375q0.15625 -0.4375 0.15625 -0.9375z" fill-rule="nonzero"/><path fill="#ffffff" d="m193.03783 134.24815c0 -5.2184296 3.3843079 -9.448814 7.5590515 -9.448814c2.0047913 0 3.9274597 0.99549866 5.3450623 2.7674942c1.4176025 1.7720032 2.2139893 4.1753387 2.2139893 6.68132c0 5.218445 -3.3842926 9.448822 -7.5590515 9.448822c-4.1747437 0 -7.5590515 -4.230377 -7.5590515 -9.448822z" fill-rule="evenodd"/><path fill="#000000" d="m199.98688 139.18628q0.53125 0 1.0 -0.15625q0.46875 -0.171875 0.796875 -0.484375q0.34375 -0.3125 0.53125 -0.734375q0.1875 -0.4375 0.1875 -0.953125q0 -1.125 -0.671875 -1.65625q-0.65625 -0.546875 -1.8125 -0.546875l-1.1875 0l0 -0.46875l2.296875 -3.546875l0.734375 -0.703125l-1.03125 0.15625l-3.171875 0l0 -1.1875l5.71875 0l0 0.46875l-2.546875 3.828125l-0.5625 0.453125l0 0.03125l0.546875 -0.109375q0.640625 0.015625 1.171875 0.234375q0.546875 0.21875 0.953125 0.625q0.40625 0.40625 0.625 0.984375q0.21875 0.5625 0.21875 1.28125q0 0.859375 -0.3125 1.53125q-0.296875 0.671875 -0.8125 1.140625q-0.515625 0.453125 -1.21875 0.6875q-0.703125 0.234375 -1.484375 0.234375q-0.734375 0 -1.3125 -0.109375q-0.5625 -0.109375 -1.0 -0.28125l0.34375 -1.140625q0.359375 0.171875 0.859375 0.296875q0.515625 0.125 1.140625 0.125z" fill-rule="nonzero"/><path fill="#ffffff" d="m244.39917 134.24815c0 -5.2184296 3.3843079 -9.448814 7.5590515 -9.448814c2.0047913 0 3.9274597 0.99549866 5.3450623 2.7674942c1.4176025 1.7720032 2.2139893 4.1753387 2.2139893 6.68132c0 5.218445 -3.3843079 9.448822 -7.5590515 9.448822c-4.1747437 0 -7.5590515 -4.230377 -7.5590515 -9.448822z" fill-rule="evenodd"/><path fill="#000000" d="m251.34822 139.18628q0.53125 0 1.0 -0.15625q0.46875 -0.171875 0.796875 -0.484375q0.34375 -0.3125 0.53125 -0.734375q0.1875 -0.4375 0.1875 -0.953125q0 -1.125 -0.671875 -1.65625q-0.65625 -0.546875 -1.8125 -0.546875l-1.1875 0l0 -0.46875l2.296875 -3.546875l0.734375 -0.703125l-1.03125 0.15625l-3.171875 0l0 -1.1875l5.71875 0l0 0.46875l-2.546875 3.828125l-0.5625 0.453125l0 0.03125l0.546875 -0.109375q0.640625 0.015625 1.171875 0.234375q0.546875 0.21875 0.953125 0.625q0.40625 0.40625 0.625 0.984375q0.21875 0.5625 0.21875 1.28125q0 0.859375 -0.3125 1.53125q-0.296875 0.671875 -0.8125 1.140625q-0.515625 0.453125 -1.21875 0.6875q-0.703125 0.234375 -1.484375 0.234375q-0.734375 0 -1.3125 -0.109375q-0.5625 -0.109375 -1.0 -0.28125l0.34375 -1.140625q0.359375 0.171875 0.859375 0.296875q0.515625 0.125 1.140625 0.125z" fill-rule="nonzero"/><path fill="#d9d9d9" d="m389.3871 32.42932c0 -8.349503 6.7686157 -15.118111 15.118103 -15.118111c4.0095825 0 7.8549194 1.5927963 10.6901245 4.427992c2.835205 2.8351955 4.4279785 6.680546 4.4279785 10.690119c0 8.349499 -6.768585 15.118111 -15.118103 15.118111c-8.349487 0 -15.118103 -6.768612 -15.118103 -15.118111z" fill-rule="evenodd"/><path stroke="#000000" stroke-width="2.0" stroke-linejoin="round" stroke-linecap="butt" d="m389.3871 32.42932c0 -8.349503 6.7686157 -15.118111 15.118103 -15.118111c4.0095825 0 7.8549194 1.5927963 10.6901245 4.427992c2.835205 2.8351955 4.4279785 6.680546 4.4279785 10.690119c0 8.349499 -6.768585 15.118111 -15.118103 15.118111c-8.349487 0 -15.118103 -6.768612 -15.118103 -15.118111z" fill-rule="evenodd"/><path fill="#000000" d="m407.18857 35.768696l-5.515625 0l-1.484375 4.140625l-1.75 0l5.65625 -15.171875l0.8125 0l5.671875 15.171875l-1.859375 0l-1.53125 -4.140625zm-4.9375 -1.53125l4.390625 0l-1.65625 -4.546875l-0.53125 -2.265625l-0.03125 0l-0.53125 2.3125l-1.640625 4.5z" fill-rule="nonzero"/><path fill="#ffffff" d="m476.89868 32.42932c0 -8.349503 6.7686157 -15.118111 15.118103 -15.118111c4.0095825 0 7.85495 1.5927963 10.6901245 4.427992c2.835205 2.8351955 4.428009 6.680546 4.428009 10.690119c0 8.349499 -6.7686157 15.118111 -15.118134 15.118111c-8.349487 0 -15.118103 -6.768612 -15.118103 -15.118111z" fill-rule="evenodd"/><path stroke="#000000" stroke-width="2.0" stroke-linejoin="round" stroke-linecap="butt" d="m476.89868 32.42932c0 -8.349503 6.7686157 -15.118111 15.118103 -15.118111c4.0095825 0 7.85495 1.5927963 10.6901245 4.427992c2.835205 2.8351955 4.428009 6.680546 4.428009 10.690119c0 8.349499 -6.7686157 15.118111 -15.118134 15.118111c-8.349487 0 -15.118103 -6.768612 -15.118103 -15.118111z" fill-rule="evenodd"/><path fill="#000000" d="m496.60147 28.393696q0 0.53125 -0.171875 1.09375q-0.171875 0.546875 -0.515625 1.03125q-0.328125 0.46875 -0.875 0.84375q-0.53125 0.359375 -1.25 0.546875l0 0.09375q0.640625 0.09375 1.21875 0.359375q0.59375 0.25 1.03125 0.703125q0.453125 0.4375 0.734375 1.078125q0.28125 0.640625 0.28125 1.515625q0 1.15625 -0.484375 2.0q-0.484375 0.84375 -1.265625 1.375q-0.765625 0.53125 -1.78125 0.796875q-1.0 0.25 -2.046875 0.25q-0.359375 0 -0.859375 0q-0.484375 0 -1.015625 -0.03125q-0.53125 -0.03125 -1.0625 -0.09375q-0.53125 -0.046875 -0.9375 -0.15625l0 -14.6875q0.796875 -0.140625 1.828125 -0.21875q1.046875 -0.078125 2.28125 -0.078125q0.84375 0 1.703125 0.140625q0.859375 0.125 1.5625 0.53125q0.703125 0.390625 1.15625 1.09375q0.46875 0.703125 0.46875 1.8125zm-4.953125 10.15625q0.6875 0 1.328125 -0.15625q0.640625 -0.171875 1.125 -0.515625q0.5 -0.359375 0.78125 -0.859375q0.296875 -0.515625 0.296875 -1.21875q0 -0.875 -0.359375 -1.40625q-0.34375 -0.546875 -0.921875 -0.84375q-0.5625 -0.296875 -1.265625 -0.40625q-0.703125 -0.109375 -1.40625 -0.109375l-1.859375 0l0 5.359375q0.15625 0.046875 0.421875 0.078125q0.28125 0.015625 0.59375 0.03125q0.328125 0.015625 0.671875 0.03125q0.34375 0.015625 0.59375 0.015625zm-1.171875 -7.0q0.375 0 0.875 -0.015625q0.515625 -0.03125 0.859375 -0.078125q0.515625 -0.15625 0.953125 -0.40625q0.453125 -0.25 0.796875 -0.578125q0.359375 -0.328125 0.5625 -0.765625q0.203125 -0.4375 0.203125 -0.953125q0 -0.703125 -0.265625 -1.15625q-0.265625 -0.46875 -0.71875 -0.734375q-0.453125 -0.28125 -1.03125 -0.390625q-0.5625 -0.125 -1.15625 -0.125q-0.703125 0 -1.296875 0.03125q-0.59375 0.03125 -0.890625 0.09375l0 5.078125l1.109375 0z" fill-rule="nonzero"/><path fill="#ffffff" d="m433.14288 100.067c0 -8.349503 6.7686157 -15.118111 15.118103 -15.118111c4.0095825 0 7.8549194 1.5927963 10.6901245 4.427994c2.835205 2.8351974 4.428009 6.680542 4.428009 10.690117c0 8.349503 -6.7686157 15.118111 -15.118134 15.118111c-8.349487 0 -15.118103 -6.768608 -15.118103 -15.118111z" fill-rule="evenodd"/><path stroke="#000000" stroke-width="2.0" stroke-linejoin="round" stroke-linecap="butt" d="m433.14288 100.067c0 -8.349503 6.7686157 -15.118111 15.118103 -15.118111c4.0095825 0 7.8549194 1.5927963 10.6901245 4.427994c2.835205 2.8351974 4.428009 6.680542 4.428009 10.690117c0 8.349503 -6.7686157 15.118111 -15.118134 15.118111c-8.349487 0 -15.118103 -6.768608 -15.118103 -15.118111z" fill-rule="evenodd"/><path fill="#000000" d="m444.35754 92.609505l8.125 0l0 1.59375l-6.359375 0l0 4.875l5.828125 0l0 1.578125l-5.828125 0l0 5.3125l6.46875 0l0 1.578125l-8.234375 0l0 -14.9375z" fill-rule="nonzero"/><path fill="#000000" fill-opacity="0.0" d="m415.1953 43.11944l22.362213 46.267715" fill-rule="evenodd"/><path stroke="#000000" stroke-width="1.0" stroke-linejoin="round" stroke-linecap="butt" stroke-dasharray="4.0,3.0" d="m415.1953 43.11944l22.362213 46.267715" fill-rule="evenodd"/><path fill="#000000" fill-opacity="0.0" d="m419.6233 32.42932l57.259857 0" fill-rule="evenodd"/><path stroke="#000000" stroke-width="2.0" stroke-linejoin="round" stroke-linecap="butt" d="m419.62332 32.42932l50.40567 0" fill-rule="evenodd"/><path fill="#000000" stroke="#000000" stroke-width="2.0" stroke-linecap="butt" d="m470.029 32.42932l-2.249176 2.2491684l6.179535 -2.2491684l-6.179535 -2.2491684z" fill-rule="evenodd"/><path fill="#ffffff" d="m520.6545 100.067c0 -8.349503 6.7686157 -15.118111 15.118103 -15.118111c4.0095825 0 7.8549194 1.5927963 10.6901245 4.427994c2.835205 2.8351974 4.4279785 6.680542 4.4279785 10.690117c0 8.349503 -6.7685547 15.118111 -15.118103 15.118111c-8.349487 0 -15.118103 -6.768608 -15.118103 -15.118111z" fill-rule="evenodd"/><path stroke="#000000" stroke-width="2.0" stroke-linejoin="round" stroke-linecap="butt" d="m520.6545 100.067c0 -8.349503 6.7686157 -15.118111 15.118103 -15.118111c4.0095825 0 7.8549194 1.5927963 10.6901245 4.427994c2.835205 2.8351974 4.4279785 6.680542 4.4279785 10.690117c0 8.349503 -6.7685547 15.118111 -15.118103 15.118111c-8.349487 0 -15.118103 -6.768608 -15.118103 -15.118111z" fill-rule="evenodd"/><path fill="#000000" d="m532.0718 92.609505l8.125 0l0 1.59375l-6.359375 0l0 5.09375l5.9375 0l0 1.578125l-5.9375 0l0 6.671875l-1.765625 0l0 -14.9375z" fill-rule="nonzero"/><path fill="#ffffff" d="m572.4103 32.42932c0 -8.349503 6.7686157 -15.118111 15.118103 -15.118111c4.0095825 0 7.8549194 1.5927963 10.6901245 4.427992c2.835205 2.8351955 4.4279785 6.680546 4.4279785 10.690119c0 8.349499 -6.7685547 15.118111 -15.118103 15.118111c-8.349487 0 -15.118103 -6.768612 -15.118103 -15.118111z" fill-rule="evenodd"/><path stroke="#000000" stroke-width="2.0" stroke-linejoin="round" stroke-linecap="butt" d="m572.4103 32.42932c0 -8.349503 6.7686157 -15.118111 15.118103 -15.118111c4.0095825 0 7.8549194 1.5927963 10.6901245 4.427992c2.835205 2.8351955 4.4279785 6.680546 4.4279785 10.690119c0 8.349499 -6.7685547 15.118111 -15.118103 15.118111c-8.349487 0 -15.118103 -6.768612 -15.118103 -15.118111z" fill-rule="evenodd"/><path fill="#000000" d="m592.8142 39.28432q-0.640625 0.5 -1.625 0.6875q-0.984375 0.1875 -2.09375 0.1875q-1.34375 0 -2.515625 -0.453125q-1.171875 -0.453125 -2.046875 -1.390625q-0.875 -0.9375 -1.390625 -2.390625q-0.515625 -1.46875 -0.515625 -3.484375q0 -2.09375 0.5625 -3.546875q0.578125 -1.46875 1.5 -2.390625q0.9375 -0.921875 2.078125 -1.34375q1.15625 -0.4375 2.34375 -0.4375q1.28125 0 2.09375 0.140625q0.8125 0.140625 1.390625 0.375l-0.421875 1.5625q-1.03125 -0.5 -2.921875 -0.5q-0.875 0 -1.734375 0.328125q-0.859375 0.3125 -1.53125 1.046875q-0.671875 0.71875 -1.078125 1.890625q-0.390625 1.171875 -0.390625 2.875q0 1.546875 0.375 2.703125q0.390625 1.140625 1.0625 1.90625q0.671875 0.765625 1.578125 1.15625q0.90625 0.375 1.96875 0.375q0.953125 0 1.671875 -0.1875q0.71875 -0.1875 1.203125 -0.484375l0.4375 1.375z" fill-rule="nonzero"/><path fill="#ffffff" d="m337.6313 100.067c0 -8.349503 6.7686157 -15.118111 15.118103 -15.118111c4.0095825 0 7.8549194 1.5927963 10.6901245 4.427994c2.8351746 2.8351974 4.4279785 6.680542 4.4279785 10.690117c0 8.349503 -6.7686157 15.118111 -15.118103 15.118111c-8.349487 0 -15.118103 -6.768608 -15.118103 -15.118111z" fill-rule="evenodd"/><path stroke="#000000" stroke-width="2.0" stroke-linejoin="round" stroke-linecap="butt" d="m337.6313 100.067c0 -8.349503 6.7686157 -15.118111 15.118103 -15.118111c4.0095825 0 7.8549194 1.5927963 10.6901245 4.427994c2.8351746 2.8351974 4.4279785 6.680542 4.4279785 10.690117c0 8.349503 -6.7686157 15.118111 -15.118103 15.118111c-8.349487 0 -15.118103 -6.768608 -15.118103 -15.118111z" fill-rule="evenodd"/><path fill="#000000" d="m347.58755 92.609505q0.40625 -0.0625 0.90625 -0.09375q0.5 -0.03125 1.046875 -0.03125q0.546875 -0.015625 1.0625 -0.015625q0.53125 -0.015625 0.96875 -0.015625q1.796875 0 3.109375 0.5625q1.3125 0.546875 2.15625 1.546875q0.859375 0.984375 1.265625 2.375q0.421875 1.375 0.421875 3.03125q0 1.515625 -0.390625 2.921875q-0.390625 1.390625 -1.25 2.46875q-0.84375 1.078125 -2.21875 1.734375q-1.359375 0.640625 -3.296875 0.640625q-0.34375 0 -0.890625 -0.015625q-0.546875 0 -1.125 -0.03125q-0.578125 -0.03125 -1.0625 -0.0625q-0.484375 -0.015625 -0.703125 -0.0625l0 -14.953125zm4.03125 1.421875q-0.28125 0 -0.609375 0q-0.328125 0 -0.65625 0.015625q-0.3125 0.015625 -0.578125 0.046875q-0.265625 0.015625 -0.421875 0.03125l0 11.953125q0.109375 0.015625 0.40625 0.03125q0.296875 0.015625 0.609375 0.03125q0.328125 0 0.625 0.015625q0.3125 0 0.40625 0q1.5 0 2.515625 -0.5q1.015625 -0.515625 1.609375 -1.375q0.609375 -0.875 0.859375 -1.984375q0.265625 -1.125 0.265625 -2.328125q0 -1.03125 -0.234375 -2.09375q-0.234375 -1.0625 -0.8125 -1.90625q-0.578125 -0.859375 -1.546875 -1.390625q-0.96875 -0.546875 -2.4375 -0.546875z" fill-rule="nonzero"/><path fill="#000000" fill-opacity="0.0" d="m393.81506 43.11944l-30.362183 46.267715" fill-rule="evenodd"/><path stroke="#000000" stroke-width="2.0" stroke-linejoin="round" stroke-linecap="butt" d="m393.8151 43.11944l-26.601715 40.537247" fill-rule="evenodd"/><path fill="#000000" stroke="#000000" stroke-width="2.0" stroke-linecap="butt" d="m367.21338 83.656685l-0.64642334 -3.114418l-1.5099487 6.400429l5.2707825 -3.9324493z" fill-rule="evenodd"/><path fill="#000000" fill-opacity="0.0" d="m463.37912 100.067l57.259857 0" fill-rule="evenodd"/><path stroke="#000000" stroke-width="1.0" stroke-linejoin="round" stroke-linecap="butt" stroke-dasharray="4.0,3.0" d="m463.37912 100.067l57.259857 0" fill-rule="evenodd"/><path fill="#000000" fill-opacity="0.0" d="m502.7069 43.11944l22.362183 46.267715" fill-rule="evenodd"/><path stroke="#000000" stroke-width="2.0" stroke-linejoin="round" stroke-linecap="butt" d="m502.7069 43.11944l19.379517 40.09655" fill-rule="evenodd"/><path fill="#000000" stroke="#000000" stroke-width="2.0" stroke-linecap="butt" d="m522.0864 83.21599l-3.0037842 -1.0463028l4.7141113 4.585022l-0.66400146 -6.5425186z" fill-rule="evenodd"/><path fill="#000000" fill-opacity="0.0" d="m576.83826 43.11944l-30.362183 46.267715" fill-rule="evenodd"/><path stroke="#000000" stroke-width="1.0" stroke-linejoin="round" stroke-linecap="butt" stroke-dasharray="4.0,3.0" d="m576.83826 43.11944l-30.362183 46.267715" fill-rule="evenodd"/><path fill="#000000" fill-opacity="0.0" d="m367.8675 100.067l65.25986 0" fill-rule="evenodd"/><path stroke="#000000" stroke-width="2.0" stroke-linejoin="round" stroke-linecap="butt" d="m367.8675 100.067l58.40567 0" fill-rule="evenodd"/><path fill="#000000" stroke="#000000" stroke-width="2.0" stroke-linecap="butt" d="m426.27316 100.067l-2.249176 2.2491684l6.179535 -2.2491684l-6.179535 -2.2491684z" fill-rule="evenodd"/><path fill="#000000" fill-opacity="0.0" d="m507.13492 32.42932l65.25986 0" fill-rule="evenodd"/><path stroke="#000000" stroke-width="2.0" stroke-linejoin="round" stroke-linecap="butt" d="m507.13492 32.42932l58.40567 0" fill-rule="evenodd"/><path fill="#000000" stroke="#000000" stroke-width="2.0" stroke-linecap="butt" d="m565.5406 32.42932l-2.2491455 2.2491684l6.1795044 -2.2491684l-6.1795044 -2.2491684z" fill-rule="evenodd"/><path fill="#ffffff" d="m438.9538 33.15888c0 -5.218441 3.3843079 -9.44882 7.5590515 -9.44882c2.0047913 0 3.9274597 0.99549675 5.3450623 2.7674942c1.4176025 1.7719975 2.2139893 4.1753426 2.2139893 6.681326c0 5.218437 -3.3843079 9.448818 -7.5590515 9.448818c-4.1747437 0 -7.5590515 -4.230381 -7.5590515 -9.448818z" fill-rule="evenodd"/><path fill="#000000" d="m450.54346 35.581375l-1.890625 0l0 3.4375l-1.25 0l0 -3.4375l-4.9375 0l0 -0.53125l5.3125 -7.406248l0.875 0l0 6.812498l1.890625 0l0 1.125zm-3.140625 -4.609373l0.15625 -1.3125l-0.046875 0l-0.5625 1.09375l-2.25 3.046873l-0.765625 0.78125l1.109375 -0.125l2.359375 0l0 -3.484373z" fill-rule="nonzero"/><path fill="#ffffff" d="m531.55884 33.15888c0 -5.218441 3.3842773 -9.44882 7.559021 -9.44882c2.0048218 0 3.9274902 0.99549675 5.345093 2.7674942c1.4176025 1.7719975 2.2139893 4.1753426 2.2139893 6.681326c0 5.218437 -3.3842773 9.448818 -7.559082 9.448818c-4.1747437 0 -7.559021 -4.230381 -7.559021 -9.448818z" fill-rule="evenodd"/><path fill="#000000" d="m543.1485 35.581375l-1.890625 0l0 3.4375l-1.25 0l0 -3.4375l-4.9375 0l0 -0.53125l5.3125 -7.406248l0.875 0l0 6.812498l1.890625 0l0 1.125zm-3.140625 -4.609373l0.15625 -1.3125l-0.046875 0l-0.5625 1.09375l-2.25 3.046873l-0.765625 0.78125l1.109375 -0.125l2.359375 0l0 -3.484373z" fill-rule="nonzero"/><path fill="#ffffff" d="m393.4748 100.52022c0 -5.218437 3.3843079 -9.448814 7.5590515 -9.448814c2.0047913 0 3.9274597 0.99549866 5.3450623 2.7674942c1.4176025 1.7719955 2.2139893 4.1753387 2.2139893 6.68132c0 5.218445 -3.3842773 9.448822 -7.5590515 9.448822c-4.1747437 0 -7.5590515 -4.230377 -7.5590515 -9.448822z" fill-rule="evenodd"/><path fill="#000000" d="m400.42386 105.45834q0.53125 0 1.0 -0.15625q0.46875 -0.171875 0.796875 -0.484375q0.34375 -0.3125 0.53125 -0.734375q0.1875 -0.4375 0.1875 -0.953125q0 -1.125 -0.671875 -1.65625q-0.65625 -0.546875 -1.8125 -0.546875l-1.1875 0l0 -0.46875l2.296875 -3.546875l0.734375 -0.703125l-1.03125 0.15625l-3.171875 0l0 -1.1875l5.71875 0l0 0.46875l-2.546875 3.828125l-0.5625 0.453125l0 0.03125l0.546875 -0.109375q0.640625 0.015625 1.171875 0.234375q0.546875 0.21875 0.953125 0.625q0.40625 0.40625 0.625 0.984375q0.21875 0.5625 0.21875 1.28125q0 0.859375 -0.3125 1.53125q-0.296875 0.671875 -0.8125 1.140625q-0.515625 0.453125 -1.21875 0.6875q-0.703125 0.234375 -1.484375 0.234375q-0.734375 0 -1.3125 -0.109375q-0.5625 -0.109375 -1.0 -0.28125l0.34375 -1.140625q0.359375 0.171875 0.859375 0.296875q0.515625 0.125 1.140625 0.125z" fill-rule="nonzero"/><path fill="#ffffff" d="m481.87817 100.52022c0 -5.218437 3.3842773 -9.448814 7.5590515 -9.448814c2.0047913 0 3.9274597 0.99549866 5.3450623 2.7674942c1.417572 1.7719955 2.2139893 4.1753387 2.2139893 6.68132c0 5.218445 -3.3843079 9.448822 -7.5590515 9.448822c-4.174774 0 -7.5590515 -4.230377 -7.5590515 -9.448822z" fill-rule="evenodd"/><path fill="#000000" d="m488.8272 105.45834q0.53125 0 1.0 -0.15625q0.46875 -0.171875 0.796875 -0.484375q0.34375 -0.3125 0.53125 -0.734375q0.1875 -0.4375 0.1875 -0.953125q0 -1.125 -0.671875 -1.65625q-0.65625 -0.546875 -1.8125 -0.546875l-1.1875 0l0 -0.46875l2.296875 -3.546875l0.734375 -0.703125l-1.03125 0.15625l-3.171875 0l0 -1.1875l5.71875 0l0 0.46875l-2.546875 3.828125l-0.5625 0.453125l0 0.03125l0.546875 -0.109375q0.640625 0.015625 1.171875 0.234375q0.546875 0.21875 0.953125 0.625q0.40625 0.40625 0.625 0.984375q0.21875 0.5625 0.21875 1.28125q0 0.859375 -0.3125 1.53125q-0.296875 0.671875 -0.8125 1.140625q-0.515625 0.453125 -1.21875 0.6875q-0.703125 0.234375 -1.484375 0.234375q-0.734375 0 -1.3125 -0.109375q-0.5625 -0.109375 -1.0 -0.28125l0.34375 -1.140625q0.359375 0.171875 0.859375 0.296875q0.515625 0.125 1.140625 0.125z" fill-rule="nonzero"/><path fill="#ffffff" d="m373.27313 62.04648c0 -5.218437 3.3842773 -9.448818 7.5590515 -9.448818c2.0047607 0 3.9274597 0.99549866 5.3450623 2.7674942c1.417572 1.7719994 2.2139893 4.1753426 2.2139893 6.681324c0 5.218437 -3.3843079 9.448822 -7.5590515 9.448822c-4.174774 0 -7.5590515 -4.230385 -7.5590515 -9.448822z" fill-rule="evenodd"/><path fill="#000000" d="m383.6128 59.25023q0 0.84375 -0.3125 1.734375q-0.3125 0.890625 -0.828125 1.796875q-0.5 0.890625 -1.125 1.75q-0.625 0.84375 -1.25 1.609375l-0.78125 0.6875l0 0.0625l1.03125 -0.171875l3.484375 0l0 1.1875l-6.375 0l0 -0.46875q0.359375 -0.359375 0.859375 -0.90625q0.5 -0.546875 1.03125 -1.203125q0.53125 -0.671875 1.046875 -1.40625q0.53125 -0.75 0.953125 -1.515625q0.421875 -0.765625 0.671875 -1.515625q0.265625 -0.765625 0.265625 -1.4375q0 -0.78125 -0.453125 -1.296875q-0.453125 -0.515625 -1.359375 -0.515625q-0.609375 0 -1.1875 0.25q-0.578125 0.234375 -0.984375 0.5625l-0.53125 -0.921875q0.5625 -0.46875 1.328125 -0.734375q0.765625 -0.28125 1.640625 -0.28125q0.6875 0 1.21875 0.203125q0.53125 0.203125 0.890625 0.578125q0.375 0.359375 0.5625 0.859375q0.203125 0.5 0.203125 1.09375z" fill-rule="nonzero"/><path fill="#ffffff" d="m418.31512 66.24816c0 -5.218441 3.3843079 -9.448818 7.5590515 -9.448818c2.0047913 0 3.9274902 0.99549484 5.3450623 2.7674942c1.4176025 1.7719955 2.2140198 4.1753426 2.2140198 6.681324c0 5.218437 -3.3843079 9.448822 -7.559082 9.448822c-4.1747437 0 -7.5590515 -4.230385 -7.5590515 -9.448822z" fill-rule="evenodd"/><path fill="#000000" d="m429.3892 68.73316q0 0.734375 -0.234375 1.390625q-0.21875 0.640625 -0.65625 1.125q-0.421875 0.484375 -1.0625 0.765625q-0.640625 0.28125 -1.453125 0.28125q-0.8125 0 -1.453125 -0.25q-0.625 -0.25 -1.09375 -0.75q-0.46875 -0.515625 -0.71875 -1.25q-0.25 -0.734375 -0.25 -1.703125q0 -1.578125 0.40625 -2.90625q0.421875 -1.34375 1.140625 -2.328125q0.71875 -1.0 1.703125 -1.609375q0.984375 -0.625 2.140625 -0.78125l0.265625 1.015625q-0.890625 0.171875 -1.640625 0.625q-0.734375 0.4375 -1.28125 1.09375q-0.546875 0.65625 -0.90625 1.46875q-0.34375 0.8125 -0.484375 1.6875q0.265625 -0.4375 0.875 -0.796875q0.609375 -0.359375 1.484375 -0.359375q1.5 0 2.359375 0.875q0.859375 0.859375 0.859375 2.40625zm-1.328125 0.125q0 -1.140625 -0.53125 -1.703125q-0.53125 -0.578125 -1.625 -0.578125q-0.796875 0 -1.359375 0.390625q-0.5625 0.375 -0.796875 0.859375q-0.03125 0.21875 -0.03125 0.359375q0 0.140625 0 0.328125q0 0.484375 0.140625 0.96875q0.140625 0.484375 0.421875 0.859375q0.296875 0.375 0.71875 0.609375q0.421875 0.234375 1.0 0.234375q0.453125 0 0.828125 -0.171875q0.390625 -0.1875 0.65625 -0.484375q0.265625 -0.3125 0.421875 -0.734375q0.15625 -0.4375 0.15625 -0.9375z" fill-rule="nonzero"/><path fill="#ffffff" d="m504.19748 62.04648c0 -5.218437 3.3843079 -9.448818 7.5590515 -9.448818c2.0048218 0 3.9274902 0.99549866 5.345093 2.7674942c1.4176025 1.7719994 2.2139893 4.1753426 2.2139893 6.681324c0 5.218437 -3.3843384 9.448822 -7.559082 9.448822c-4.1747437 0 -7.5590515 -4.230385 -7.5590515 -9.448822z" fill-rule="evenodd"/><path fill="#000000" d="m511.14655 66.984604q0.53125 0 1.0 -0.15625q0.46875 -0.171875 0.796875 -0.484375q0.34375 -0.3125 0.53125 -0.734375q0.1875 -0.4375 0.1875 -0.953125q0 -1.125 -0.671875 -1.65625q-0.65625 -0.546875 -1.8125 -0.546875l-1.1875 0l0 -0.46875l2.296875 -3.546875l0.734375 -0.703125l-1.03125 0.15625l-3.171875 0l0 -1.1875l5.71875 0l0 0.46875l-2.546875 3.828125l-0.5625 0.453125l0 0.03125l0.546875 -0.109375q0.640625 0.015625 1.171875 0.234375q0.546875 0.21875 0.953125 0.625q0.40625 0.40625 0.625 0.984375q0.21875 0.5625 0.21875 1.28125q0 0.859375 -0.3125 1.53125q-0.296875 0.671875 -0.8125 1.140625q-0.515625 0.453125 -1.21875 0.6875q-0.703125 0.234375 -1.484375 0.234375q-0.734375 0 -1.3125 -0.109375q-0.5625 -0.109375 -1.0 -0.28125l0.34375 -1.140625q0.359375 0.171875 0.859375 0.296875q0.515625 0.125 1.140625 0.125z" fill-rule="nonzero"/><path fill="#ffffff" d="m556.3992 66.24816c0 -5.218441 3.3842773 -9.448818 7.559082 -9.448818c2.0047607 0 3.9274292 0.99549484 5.3450317 2.7674942c1.4176025 1.7719955 2.2139893 4.1753426 2.2139893 6.681324c0 5.218437 -3.3842773 9.448822 -7.559021 9.448822c-4.1748047 0 -7.559082 -4.230385 -7.559082 -9.448822z" fill-rule="evenodd"/><path fill="#000000" d="m563.3482 71.18629q0.53125 0 1.0 -0.15625q0.46875 -0.171875 0.796875 -0.484375q0.34375 -0.3125 0.53125 -0.734375q0.1875 -0.4375 0.1875 -0.953125q0 -1.125 -0.671875 -1.65625q-0.65625 -0.546875 -1.8125 -0.546875l-1.1875 0l0 -0.46875l2.296875 -3.546875l0.734375 -0.703125l-1.03125 0.15625l-3.171875 0l0 -1.1875l5.71875 0l0 0.46875l-2.546875 3.828125l-0.5625 0.453125l0 0.03125l0.546875 -0.109375q0.640625 0.015625 1.171875 0.234375q0.546875 0.21875 0.953125 0.625q0.40625 0.40625 0.625 0.984375q0.21875 0.5625 0.21875 1.28125q0 0.859375 -0.3125 1.53125q-0.296875 0.671875 -0.8125 1.140625q-0.515625 0.453125 -1.21875 0.6875q-0.703125 0.234375 -1.484375 0.234375q-0.734375 0 -1.3125 -0.109375q-0.5625 -0.109375 -1.0 -0.28125l0.34375 -1.140625q0.359375 0.171875 0.859375 0.296875q0.515625 0.125 1.140625 0.125z" fill-rule="nonzero"/><path fill="#ffffff" d="m389.3871 168.42932c0 -8.349503 6.7686157 -15.118118 15.118103 -15.118118c4.0095825 0 7.8549194 1.592804 10.6901245 4.427994c2.835205 2.835205 4.4279785 6.6805573 4.4279785 10.6901245c0 8.349503 -6.768585 15.118103 -15.118103 15.118103c-8.349487 0 -15.118103 -6.7686005 -15.118103 -15.118103z" fill-rule="evenodd"/><path stroke="#000000" stroke-width="2.0" stroke-linejoin="round" stroke-linecap="butt" d="m389.3871 168.42932c0 -8.349503 6.7686157 -15.118118 15.118103 -15.118118c4.0095825 0 7.8549194 1.592804 10.6901245 4.427994c2.835205 2.835205 4.4279785 6.6805573 4.4279785 10.6901245c0 8.349503 -6.768585 15.118103 -15.118103 15.118103c-8.349487 0 -15.118103 -6.7686005 -15.118103 -15.118103z" fill-rule="evenodd"/><path fill="#000000" d="m407.18857 171.76869l-5.515625 0l-1.484375 4.140625l-1.75 0l5.65625 -15.171875l0.8125 0l5.671875 15.171875l-1.859375 0l-1.53125 -4.140625zm-4.9375 -1.53125l4.390625 0l-1.65625 -4.546875l-0.53125 -2.265625l-0.03125 0l-0.53125 2.3125l-1.640625 4.5z" fill-rule="nonzero"/><path fill="#ffffff" d="m476.89868 168.42932c0 -8.349503 6.7686157 -15.118118 15.118103 -15.118118c4.0095825 0 7.85495 1.592804 10.6901245 4.427994c2.835205 2.835205 4.428009 6.6805573 4.428009 10.6901245c0 8.349503 -6.7686157 15.118103 -15.118134 15.118103c-8.349487 0 -15.118103 -6.7686005 -15.118103 -15.118103z" fill-rule="evenodd"/><path stroke="#000000" stroke-width="2.0" stroke-linejoin="round" stroke-linecap="butt" d="m476.89868 168.42932c0 -8.349503 6.7686157 -15.118118 15.118103 -15.118118c4.0095825 0 7.85495 1.592804 10.6901245 4.427994c2.835205 2.835205 4.428009 6.6805573 4.428009 10.6901245c0 8.349503 -6.7686157 15.118103 -15.118134 15.118103c-8.349487 0 -15.118103 -6.7686005 -15.118103 -15.118103z" fill-rule="evenodd"/><path fill="#000000" d="m496.60147 164.39369q0 0.53125 -0.171875 1.09375q-0.171875 0.546875 -0.515625 1.03125q-0.328125 0.46875 -0.875 0.84375q-0.53125 0.359375 -1.25 0.546875l0 0.09375q0.640625 0.09375 1.21875 0.359375q0.59375 0.25 1.03125 0.703125q0.453125 0.4375 0.734375 1.078125q0.28125 0.640625 0.28125 1.515625q0 1.15625 -0.484375 2.0q-0.484375 0.84375 -1.265625 1.375q-0.765625 0.53125 -1.78125 0.796875q-1.0 0.25 -2.046875 0.25q-0.359375 0 -0.859375 0q-0.484375 0 -1.015625 -0.03125q-0.53125 -0.03125 -1.0625 -0.09375q-0.53125 -0.046875 -0.9375 -0.15625l0 -14.6875q0.796875 -0.140625 1.828125 -0.21875q1.046875 -0.078125 2.28125 -0.078125q0.84375 0 1.703125 0.140625q0.859375 0.125 1.5625 0.53125q0.703125 0.390625 1.15625 1.09375q0.46875 0.703125 0.46875 1.8125zm-4.953125 10.15625q0.6875 0 1.328125 -0.15625q0.640625 -0.171875 1.125 -0.515625q0.5 -0.359375 0.78125 -0.859375q0.296875 -0.515625 0.296875 -1.21875q0 -0.875 -0.359375 -1.40625q-0.34375 -0.546875 -0.921875 -0.84375q-0.5625 -0.296875 -1.265625 -0.40625q-0.703125 -0.109375 -1.40625 -0.109375l-1.859375 0l0 5.359375q0.15625 0.046875 0.421875 0.078125q0.28125 0.015625 0.59375 0.03125q0.328125 0.015625 0.671875 0.03125q0.34375 0.015625 0.59375 0.015625zm-1.171875 -7.0q0.375 0 0.875 -0.015625q0.515625 -0.03125 0.859375 -0.078125q0.515625 -0.15625 0.953125 -0.40625q0.453125 -0.25 0.796875 -0.578125q0.359375 -0.328125 0.5625 -0.765625q0.203125 -0.4375 0.203125 -0.953125q0 -0.703125 -0.265625 -1.15625q-0.265625 -0.46875 -0.71875 -0.734375q-0.453125 -0.28125 -1.03125 -0.390625q-0.5625 -0.125 -1.15625 -0.125q-0.703125 0 -1.296875 0.03125q-0.59375 0.03125 -0.890625 0.09375l0 5.078125l1.109375 0z" fill-rule="nonzero"/><path fill="#ffffff" d="m433.14288 236.067c0 -8.349503 6.7686157 -15.118103 15.118103 -15.118103c4.0095825 0 7.8549194 1.5927887 10.6901245 4.4279785c2.835205 2.835205 4.428009 6.6805573 4.428009 10.6901245c0 8.349503 -6.7686157 15.118103 -15.118134 15.118103c-8.349487 0 -15.118103 -6.7686005 -15.118103 -15.118103z" fill-rule="evenodd"/><path stroke="#000000" stroke-width="2.0" stroke-linejoin="round" stroke-linecap="butt" d="m433.14288 236.067c0 -8.349503 6.7686157 -15.118103 15.118103 -15.118103c4.0095825 0 7.8549194 1.5927887 10.6901245 4.4279785c2.835205 2.835205 4.428009 6.6805573 4.428009 10.6901245c0 8.349503 -6.7686157 15.118103 -15.118134 15.118103c-8.349487 0 -15.118103 -6.7686005 -15.118103 -15.118103z" fill-rule="evenodd"/><path fill="#000000" d="m444.35754 228.6095l8.125 0l0 1.59375l-6.359375 0l0 4.875l5.828125 0l0 1.578125l-5.828125 0l0 5.3125l6.46875 0l0 1.578125l-8.234375 0l0 -14.9375z" fill-rule="nonzero"/><path fill="#000000" fill-opacity="0.0" d="m415.1953 179.11945l22.362213 46.267715" fill-rule="evenodd"/><path stroke="#000000" stroke-width="1.0" stroke-linejoin="round" stroke-linecap="butt" stroke-dasharray="4.0,3.0" d="m415.1953 179.11945l22.362213 46.267715" fill-rule="evenodd"/><path fill="#000000" fill-opacity="0.0" d="m419.6233 168.42932l57.259857 0" fill-rule="evenodd"/><path stroke="#000000" stroke-width="2.0" stroke-linejoin="round" stroke-linecap="butt" d="m426.47748 168.42932l50.40567 0" fill-rule="evenodd"/><path fill="#000000" stroke="#000000" stroke-width="2.0" stroke-linecap="butt" d="m426.47748 168.42932l2.249176 -2.249176l-6.179535 2.249176l6.179535 2.2491608z" fill-rule="evenodd"/><path fill="#d9d9d9" d="m520.6545 236.067c0 -8.349503 6.7686157 -15.118103 15.118103 -15.118103c4.0095825 0 7.8549194 1.5927887 10.6901245 4.4279785c2.835205 2.835205 4.4279785 6.6805573 4.4279785 10.6901245c0 8.349503 -6.7685547 15.118103 -15.118103 15.118103c-8.349487 0 -15.118103 -6.7686005 -15.118103 -15.118103z" fill-rule="evenodd"/><path stroke="#000000" stroke-width="2.0" stroke-linejoin="round" stroke-linecap="butt" d="m520.6545 236.067c0 -8.349503 6.7686157 -15.118103 15.118103 -15.118103c4.0095825 0 7.8549194 1.5927887 10.6901245 4.4279785c2.835205 2.835205 4.4279785 6.6805573 4.4279785 10.6901245c0 8.349503 -6.7685547 15.118103 -15.118103 15.118103c-8.349487 0 -15.118103 -6.7686005 -15.118103 -15.118103z" fill-rule="evenodd"/><path fill="#000000" d="m532.0718 228.6095l8.125 0l0 1.59375l-6.359375 0l0 5.09375l5.9375 0l0 1.578125l-5.9375 0l0 6.671875l-1.765625 0l0 -14.9375z" fill-rule="nonzero"/><path fill="#ffffff" d="m572.4103 168.42932c0 -8.349503 6.7686157 -15.118118 15.118103 -15.118118c4.0095825 0 7.8549194 1.592804 10.6901245 4.427994c2.835205 2.835205 4.4279785 6.6805573 4.4279785 10.6901245c0 8.349503 -6.7685547 15.118103 -15.118103 15.118103c-8.349487 0 -15.118103 -6.7686005 -15.118103 -15.118103z" fill-rule="evenodd"/><path stroke="#000000" stroke-width="2.0" stroke-linejoin="round" stroke-linecap="butt" d="m572.4103 168.42932c0 -8.349503 6.7686157 -15.118118 15.118103 -15.118118c4.0095825 0 7.8549194 1.592804 10.6901245 4.427994c2.835205 2.835205 4.4279785 6.6805573 4.4279785 10.6901245c0 8.349503 -6.7685547 15.118103 -15.118103 15.118103c-8.349487 0 -15.118103 -6.7686005 -15.118103 -15.118103z" fill-rule="evenodd"/><path fill="#000000" d="m592.8142 175.28432q-0.640625 0.5 -1.625 0.6875q-0.984375 0.1875 -2.09375 0.1875q-1.34375 0 -2.515625 -0.453125q-1.171875 -0.453125 -2.046875 -1.390625q-0.875 -0.9375 -1.390625 -2.390625q-0.515625 -1.46875 -0.515625 -3.484375q0 -2.09375 0.5625 -3.546875q0.578125 -1.46875 1.5 -2.390625q0.9375 -0.921875 2.078125 -1.34375q1.15625 -0.4375 2.34375 -0.4375q1.28125 0 2.09375 0.140625q0.8125 0.140625 1.390625 0.375l-0.421875 1.5625q-1.03125 -0.5 -2.921875 -0.5q-0.875 0 -1.734375 0.328125q-0.859375 0.3125 -1.53125 1.046875q-0.671875 0.71875 -1.078125 1.890625q-0.390625 1.171875 -0.390625 2.875q0 1.546875 0.375 2.703125q0.390625 1.140625 1.0625 1.90625q0.671875 0.765625 1.578125 1.15625q0.90625 0.375 1.96875 0.375q0.953125 0 1.671875 -0.1875q0.71875 -0.1875 1.203125 -0.484375l0.4375 1.375z" fill-rule="nonzero"/><path fill="#ffffff" d="m337.6313 236.067c0 -8.349503 6.7686157 -15.118103 15.118103 -15.118103c4.0095825 0 7.8549194 1.5927887 10.6901245 4.4279785c2.8351746 2.835205 4.4279785 6.6805573 4.4279785 10.6901245c0 8.349503 -6.7686157 15.118103 -15.118103 15.118103c-8.349487 0 -15.118103 -6.7686005 -15.118103 -15.118103z" fill-rule="evenodd"/><path stroke="#000000" stroke-width="2.0" stroke-linejoin="round" stroke-linecap="butt" d="m337.6313 236.067c0 -8.349503 6.7686157 -15.118103 15.118103 -15.118103c4.0095825 0 7.8549194 1.5927887 10.6901245 4.4279785c2.8351746 2.835205 4.4279785 6.6805573 4.4279785 10.6901245c0 8.349503 -6.7686157 15.118103 -15.118103 15.118103c-8.349487 0 -15.118103 -6.7686005 -15.118103 -15.118103z" fill-rule="evenodd"/><path fill="#000000" d="m347.58755 228.6095q0.40625 -0.0625 0.90625 -0.09375q0.5 -0.03125 1.046875 -0.03125q0.546875 -0.015625 1.0625 -0.015625q0.53125 -0.015625 0.96875 -0.015625q1.796875 0 3.109375 0.5625q1.3125 0.546875 2.15625 1.546875q0.859375 0.984375 1.265625 2.375q0.421875 1.375 0.421875 3.03125q0 1.515625 -0.390625 2.921875q-0.390625 1.390625 -1.25 2.46875q-0.84375 1.078125 -2.21875 1.734375q-1.359375 0.640625 -3.296875 0.640625q-0.34375 0 -0.890625 -0.015625q-0.546875 0 -1.125 -0.03125q-0.578125 -0.03125 -1.0625 -0.0625q-0.484375 -0.015625 -0.703125 -0.0625l0 -14.953125zm4.03125 1.421875q-0.28125 0 -0.609375 0q-0.328125 0 -0.65625 0.015625q-0.3125 0.015625 -0.578125 0.046875q-0.265625 0.015625 -0.421875 0.03125l0 11.953125q0.109375 0.015625 0.40625 0.03125q0.296875 0.015625 0.609375 0.03125q0.328125 0 0.625 0.015625q0.3125 0 0.40625 0q1.5 0 2.515625 -0.5q1.015625 -0.515625 1.609375 -1.375q0.609375 -0.875 0.859375 -1.984375q0.265625 -1.125 0.265625 -2.328125q0 -1.03125 -0.234375 -2.09375q-0.234375 -1.0625 -0.8125 -1.90625q-0.578125 -0.859375 -1.546875 -1.390625q-0.96875 -0.546875 -2.4375 -0.546875z" fill-rule="nonzero"/><path fill="#000000" fill-opacity="0.0" d="m393.81506 179.11945l-30.362183 46.267715" fill-rule="evenodd"/><path stroke="#000000" stroke-width="1.0" stroke-linejoin="round" stroke-linecap="butt" stroke-dasharray="4.0,3.0" d="m393.81506 179.11945l-30.362183 46.267715" fill-rule="evenodd"/><path fill="#000000" fill-opacity="0.0" d="m463.37912 236.067l57.259857 0" fill-rule="evenodd"/><path stroke="#000000" stroke-width="2.0" stroke-linejoin="round" stroke-linecap="butt" d="m470.23328 236.06702l50.40564 0" fill-rule="evenodd"/><path fill="#000000" stroke="#000000" stroke-width="2.0" stroke-linecap="butt" d="m470.23328 236.06702l2.249176 -2.249176l-6.179535 2.249176l6.179535 2.2491608z" fill-rule="evenodd"/><path fill="#000000" fill-opacity="0.0" d="m502.7069 179.11945l22.362183 46.267715" fill-rule="evenodd"/><path stroke="#000000" stroke-width="2.0" stroke-linejoin="round" stroke-linecap="butt" d="m505.68954 185.29062l19.379547 40.096542" fill-rule="evenodd"/><path fill="#000000" stroke="#000000" stroke-width="2.0" stroke-linecap="butt" d="m505.68958 185.29062l3.0037842 1.0462952l-4.714142 -4.585022l0.6640625 6.5425262z" fill-rule="evenodd"/><path fill="#000000" fill-opacity="0.0" d="m576.83826 179.11945l-30.362183 46.267715" fill-rule="evenodd"/><path stroke="#000000" stroke-width="2.0" stroke-linejoin="round" stroke-linecap="butt" d="m573.0778 184.84991l-26.601746 40.537247" fill-rule="evenodd"/><path fill="#000000" stroke="#000000" stroke-width="2.0" stroke-linecap="butt" d="m573.0778 184.84991l0.64642334 3.1144257l1.5099487 -6.4004364l-5.270813 3.9324493z" fill-rule="evenodd"/><path fill="#000000" fill-opacity="0.0" d="m367.8675 236.067l65.25986 0" fill-rule="evenodd"/><path stroke="#000000" stroke-width="2.0" stroke-linejoin="round" stroke-linecap="butt" d="m374.72165 236.06702l58.4057 0" fill-rule="evenodd"/><path fill="#000000" stroke="#000000" stroke-width="2.0" stroke-linecap="butt" d="m374.72168 236.06702l2.2491455 -2.249176l-6.179535 2.249176l6.179535 2.2491608z" fill-rule="evenodd"/><path fill="#000000" fill-opacity="0.0" d="m507.13492 168.42932l65.25986 0" fill-rule="evenodd"/><path stroke="#000000" stroke-width="1.0" stroke-linejoin="round" stroke-linecap="butt" stroke-dasharray="4.0,3.0" d="m507.13492 168.42932l65.25986 0" fill-rule="evenodd"/><path fill="#ffffff" d="m443.99582 169.15887c0 -5.2184296 3.3843079 -9.448822 7.5590515 -9.448822c2.0047913 0 3.9274597 0.99549866 5.3450623 2.7675018c1.417572 1.7720032 2.2139893 4.1753387 2.2139893 6.68132c0 5.218445 -3.3843079 9.448822 -7.5590515 9.448822c-4.1747437 0 -7.5590515 -4.230377 -7.5590515 -9.448822z" fill-rule="evenodd"/><path fill="#000000" d="m455.58548 171.58138l-1.890625 0l0 3.4375l-1.25 0l0 -3.4375l-4.9375 0l0 -0.53125l5.3125 -7.40625l0.875 0l0 6.8125l1.890625 0l0 1.125zm-3.140625 -4.609375l0.15625 -1.3125l-0.046875 0l-0.5625 1.09375l-2.25 3.046875l-0.765625 0.78125l1.109375 -0.125l2.359375 0l0 -3.484375z" fill-rule="nonzero"/><path fill="#ffffff" d="m532.3992 169.15887c0 -5.2184296 3.3842773 -9.448822 7.559082 -9.448822c2.0047607 0 3.9274292 0.99549866 5.3450317 2.7675018c1.4176025 1.7720032 2.2139893 4.1753387 2.2139893 6.68132c0 5.218445 -3.3842773 9.448822 -7.559021 9.448822c-4.1748047 0 -7.559082 -4.230377 -7.559082 -9.448822z" fill-rule="evenodd"/><path fill="#000000" d="m543.98883 171.58138l-1.890625 0l0 3.4375l-1.25 0l0 -3.4375l-4.9375 0l0 -0.53125l5.3125 -7.40625l0.875 0l0 6.8125l1.890625 0l0 1.125zm-3.140625 -4.609375l0.15625 -1.3125l-0.046875 0l-0.5625 1.09375l-2.25 3.046875l-0.765625 0.78125l1.109375 -0.125l2.359375 0l0 -3.484375z" fill-rule="nonzero"/><path fill="#ffffff" d="m395.99582 236.52022c0 -5.2184296 3.3843079 -9.448822 7.5590515 -9.448822c2.0047913 0 3.9274597 0.99549866 5.3450623 2.7675018c1.417572 1.7720032 2.2139893 4.1753387 2.2139893 6.68132c0 5.218445 -3.3843079 9.448822 -7.5590515 9.448822c-4.1747437 0 -7.5590515 -4.230377 -7.5590515 -9.448822z" fill-rule="evenodd"/><path fill="#000000" d="m402.94485 241.45834q0.53125 0 1.0 -0.15625q0.46875 -0.171875 0.796875 -0.484375q0.34375 -0.3125 0.53125 -0.734375q0.1875 -0.4375 0.1875 -0.953125q0 -1.125 -0.671875 -1.65625q-0.65625 -0.546875 -1.8125 -0.546875l-1.1875 0l0 -0.46875l2.296875 -3.546875l0.734375 -0.703125l-1.03125 0.15625l-3.171875 0l0 -1.1875l5.71875 0l0 0.46875l-2.546875 3.828125l-0.5625 0.453125l0 0.03125l0.546875 -0.109375q0.640625 0.015625 1.171875 0.234375q0.546875 0.21875 0.953125 0.625q0.40625 0.40625 0.625 0.984375q0.21875 0.5625 0.21875 1.28125q0 0.859375 -0.3125 1.53125q-0.296875 0.671875 -0.8125 1.140625q-0.515625 0.453125 -1.21875 0.6875q-0.703125 0.234375 -1.484375 0.234375q-0.734375 0 -1.3125 -0.109375q-0.5625 -0.109375 -1.0 -0.28125l0.34375 -1.140625q0.359375 0.171875 0.859375 0.296875q0.515625 0.125 1.140625 0.125z" fill-rule="nonzero"/><path fill="#ffffff" d="m486.07983 236.52022c0 -5.2184296 3.3843079 -9.448822 7.5590515 -9.448822c2.0047913 0 3.9274597 0.99549866 5.3450623 2.7675018c1.4176025 1.7720032 2.2140198 4.1753387 2.2140198 6.68132c0 5.218445 -3.3843079 9.448822 -7.559082 9.448822c-4.1747437 0 -7.5590515 -4.230377 -7.5590515 -9.448822z" fill-rule="evenodd"/><path fill="#000000" d="m493.0289 241.45834q0.53125 0 1.0 -0.15625q0.46875 -0.171875 0.796875 -0.484375q0.34375 -0.3125 0.53125 -0.734375q0.1875 -0.4375 0.1875 -0.953125q0 -1.125 -0.671875 -1.65625q-0.65625 -0.546875 -1.8125 -0.546875l-1.1875 0l0 -0.46875l2.296875 -3.546875l0.734375 -0.703125l-1.03125 0.15625l-3.171875 0l0 -1.1875l5.71875 0l0 0.46875l-2.546875 3.828125l-0.5625 0.453125l0 0.03125l0.546875 -0.109375q0.640625 0.015625 1.171875 0.234375q0.546875 0.21875 0.953125 0.625q0.40625 0.40625 0.625 0.984375q0.21875 0.5625 0.21875 1.28125q0 0.859375 -0.3125 1.53125q-0.296875 0.671875 -0.8125 1.140625q-0.515625 0.453125 -1.21875 0.6875q-0.703125 0.234375 -1.484375 0.234375q-0.734375 0 -1.3125 -0.109375q-0.5625 -0.109375 -1.0 -0.28125l0.34375 -1.140625q0.359375 0.171875 0.859375 0.296875q0.515625 0.125 1.140625 0.125z" fill-rule="nonzero"/><path fill="#ffffff" d="m372.43277 202.24815c0 -5.2184296 3.3843079 -9.448807 7.559082 -9.448807c2.0047607 0 3.9274597 0.99549866 5.3450317 2.7674866c1.4176025 1.7720032 2.2140198 4.1753387 2.2140198 6.68132c0 5.218445 -3.3843079 9.448822 -7.5590515 9.448822c-4.174774 0 -7.559082 -4.230377 -7.559082 -9.448822z" fill-rule="evenodd"/><path fill="#000000" d="m382.77246 199.4519q0 0.84375 -0.3125 1.734375q-0.3125 0.890625 -0.828125 1.796875q-0.5 0.890625 -1.125 1.75q-0.625 0.84375 -1.25 1.609375l-0.78125 0.6875l0 0.0625l1.03125 -0.171875l3.484375 0l0 1.1875l-6.375 0l0 -0.46875q0.359375 -0.359375 0.859375 -0.90625q0.5 -0.546875 1.03125 -1.203125q0.53125 -0.671875 1.046875 -1.40625q0.53125 -0.75 0.953125 -1.515625q0.421875 -0.765625 0.671875 -1.515625q0.265625 -0.765625 0.265625 -1.4375q0 -0.78125 -0.453125 -1.296875q-0.453125 -0.515625 -1.359375 -0.515625q-0.609375 0 -1.1875 0.25q-0.578125 0.234375 -0.984375 0.5625l-0.53125 -0.921875q0.5625 -0.46875 1.328125 -0.734375q0.765625 -0.28125 1.640625 -0.28125q0.6875 0 1.21875 0.203125q0.53125 0.203125 0.890625 0.578125q0.375 0.359375 0.5625 0.859375q0.203125 0.5 0.203125 1.09375z" fill-rule="nonzero"/><path fill="#ffffff" d="m418.31512 202.24815c0 -5.2184296 3.3843079 -9.448807 7.5590515 -9.448807c2.0047913 0 3.9274902 0.99549866 5.3450623 2.7674866c1.4176025 1.7720032 2.2140198 4.1753387 2.2140198 6.68132c0 5.218445 -3.3843079 9.448822 -7.559082 9.448822c-4.1747437 0 -7.5590515 -4.230377 -7.5590515 -9.448822z" fill-rule="evenodd"/><path fill="#000000" d="m429.3892 204.73315q0 0.734375 -0.234375 1.390625q-0.21875 0.640625 -0.65625 1.125q-0.421875 0.484375 -1.0625 0.765625q-0.640625 0.28125 -1.453125 0.28125q-0.8125 0 -1.453125 -0.25q-0.625 -0.25 -1.09375 -0.75q-0.46875 -0.515625 -0.71875 -1.25q-0.25 -0.734375 -0.25 -1.703125q0 -1.578125 0.40625 -2.90625q0.421875 -1.34375 1.140625 -2.328125q0.71875 -1.0 1.703125 -1.609375q0.984375 -0.625 2.140625 -0.78125l0.265625 1.015625q-0.890625 0.171875 -1.640625 0.625q-0.734375 0.4375 -1.28125 1.09375q-0.546875 0.65625 -0.90625 1.46875q-0.34375 0.8125 -0.484375 1.6875q0.265625 -0.4375 0.875 -0.796875q0.609375 -0.359375 1.484375 -0.359375q1.5 0 2.359375 0.875q0.859375 0.859375 0.859375 2.40625zm-1.328125 0.125q0 -1.140625 -0.53125 -1.703125q-0.53125 -0.578125 -1.625 -0.578125q-0.796875 0 -1.359375 0.390625q-0.5625 0.375 -0.796875 0.859375q-0.03125 0.21875 -0.03125 0.359375q0 0.140625 0 0.328125q0 0.484375 0.140625 0.96875q0.140625 0.484375 0.421875 0.859375q0.296875 0.375 0.71875 0.609375q0.421875 0.234375 1.0 0.234375q0.453125 0 0.828125 -0.171875q0.390625 -0.1875 0.65625 -0.484375q0.265625 -0.3125 0.421875 -0.734375q0.15625 -0.4375 0.15625 -0.9375z" fill-rule="nonzero"/><path fill="#ffffff" d="m507.55884 207.29018c0 -5.2184296 3.3843079 -9.448822 7.559021 -9.448822c2.0048218 0 3.9274902 0.99549866 5.345093 2.7675018c1.4176025 1.7719879 2.2139893 4.1753387 2.2139893 6.68132c0 5.218445 -3.3842773 9.448822 -7.559082 9.448822c-4.174713 0 -7.559021 -4.230377 -7.559021 -9.448822z" fill-rule="evenodd"/><path fill="#000000" d="m514.5079 212.2283q0.53125 0 1.0 -0.15625q0.46875 -0.171875 0.796875 -0.484375q0.34375 -0.3125 0.53125 -0.734375q0.1875 -0.4375 0.1875 -0.953125q0 -1.125 -0.671875 -1.65625q-0.65625 -0.546875 -1.8125 -0.546875l-1.1875 0l0 -0.46875l2.296875 -3.546875l0.734375 -0.703125l-1.03125 0.15625l-3.171875 0l0 -1.1875l5.71875 0l0 0.46875l-2.546875 3.828125l-0.5625 0.453125l0 0.03125l0.546875 -0.109375q0.640625 0.015625 1.171875 0.234375q0.546875 0.21875 0.953125 0.625q0.40625 0.40625 0.625 0.984375q0.21875 0.5625 0.21875 1.28125q0 0.859375 -0.3125 1.53125q-0.296875 0.671875 -0.8125 1.140625q-0.515625 0.453125 -1.21875 0.6875q-0.703125 0.234375 -1.484375 0.234375q-0.734375 0 -1.3125 -0.109375q-0.5625 -0.109375 -1.0 -0.28125l0.34375 -1.140625q0.359375 0.171875 0.859375 0.296875q0.515625 0.125 1.140625 0.125z" fill-rule="nonzero"/><path fill="#ffffff" d="m553.03784 207.29018c0 -5.2184296 3.3842773 -9.448822 7.559021 -9.448822c2.0048218 0 3.9274902 0.99549866 5.345093 2.7675018c1.4176025 1.7719879 2.2139893 4.1753387 2.2139893 6.68132c0 5.218445 -3.3843384 9.448822 -7.559082 9.448822c-4.1747437 0 -7.559021 -4.230377 -7.559021 -9.448822z" fill-rule="evenodd"/><path fill="#000000" d="m559.9869 212.2283q0.53125 0 1.0 -0.15625q0.46875 -0.171875 0.796875 -0.484375q0.34375 -0.3125 0.53125 -0.734375q0.1875 -0.4375 0.1875 -0.953125q0 -1.125 -0.671875 -1.65625q-0.65625 -0.546875 -1.8125 -0.546875l-1.1875 0l0 -0.46875l2.296875 -3.546875l0.734375 -0.703125l-1.03125 0.15625l-3.171875 0l0 -1.1875l5.71875 0l0 0.46875l-2.546875 3.828125l-0.5625 0.453125l0 0.03125l0.546875 -0.109375q0.640625 0.015625 1.171875 0.234375q0.546875 0.21875 0.953125 0.625q0.40625 0.40625 0.625 0.984375q0.21875 0.5625 0.21875 1.28125q0 0.859375 -0.3125 1.53125q-0.296875 0.671875 -0.8125 1.140625q-0.515625 0.453125 -1.21875 0.6875q-0.703125 0.234375 -1.484375 0.234375q-0.734375 0 -1.3125 -0.109375q-0.5625 -0.109375 -1.0 -0.28125l0.34375 -1.140625q0.359375 0.171875 0.859375 0.296875q0.515625 0.125 1.140625 0.125z" fill-rule="nonzero"/><path fill="#ffffff" d="m714.1745 20.067001c0 -8.349502 6.7686157 -15.118111 15.118103 -15.118111c4.0095825 0 7.8549194 1.5927963 10.6901245 4.4279923c2.835205 2.8351955 4.4279785 6.680545 4.4279785 10.690118c0 8.349503 -6.7686157 15.118111 -15.118103 15.118111c-8.349487 0 -15.118103 -6.768608 -15.118103 -15.118111z" fill-rule="evenodd"/><path stroke="#000000" stroke-width="2.0" stroke-linejoin="round" stroke-linecap="butt" d="m714.1745 20.067001c0 -8.349502 6.7686157 -15.118111 15.118103 -15.118111c4.0095825 0 7.8549194 1.5927963 10.6901245 4.4279923c2.835205 2.8351955 4.4279785 6.680545 4.4279785 10.690118c0 8.349503 -6.7686157 15.118111 -15.118103 15.118111c-8.349487 0 -15.118103 -6.768608 -15.118103 -15.118111z" fill-rule="evenodd"/><path fill="#000000" d="m731.97595 23.406376l-5.515625 0l-1.484375 4.140625l-1.75 0l5.65625 -15.171874l0.8125 0l5.671875 15.171874l-1.859375 0l-1.53125 -4.140625zm-4.9375 -1.53125l4.390625 0l-1.65625 -4.546875l-0.53125 -2.265624l-0.03125 0l-0.53125 2.312499l-1.640625 4.5z" fill-rule="nonzero"/><path fill="#000000" fill-opacity="0.0" d="m689.2926 44.94889l29.322815 -14.204723" fill-rule="evenodd"/><path stroke="#000000" stroke-width="2.0" stroke-linejoin="round" stroke-linecap="butt" d="m695.46106 41.96071l23.154358 -11.216543" fill-rule="evenodd"/><path fill="#000000" stroke="#000000" stroke-width="2.0" stroke-linecap="butt" d="m695.46106 41.96071l1.0436401 -3.0047264l-4.5808105 4.718231l6.541931 -0.6698952z" fill-rule="evenodd"/><path fill="#ffffff" d="m674.1745 60.067c0 -8.349503 6.7686157 -15.118111 15.118103 -15.118111c4.0095825 0 7.8549194 1.5927963 10.6901245 4.427994c2.835205 2.8351936 4.4279785 6.680546 4.4279785 10.690117c0 8.349503 -6.7686157 15.118111 -15.118103 15.118111c-8.349487 0 -15.118103 -6.768608 -15.118103 -15.118111z" fill-rule="evenodd"/><path stroke="#000000" stroke-width="2.0" stroke-linejoin="round" stroke-linecap="butt" d="m674.1745 60.067c0 -8.349503 6.7686157 -15.118111 15.118103 -15.118111c4.0095825 0 7.8549194 1.5927963 10.6901245 4.427994c2.835205 2.8351936 4.4279785 6.680546 4.4279785 10.690117c0 8.349503 -6.7686157 15.118111 -15.118103 15.118111c-8.349487 0 -15.118103 -6.768608 -15.118103 -15.118111z" fill-rule="evenodd"/><path fill="#000000" d="m693.87726 56.031376q0 0.53125 -0.171875 1.09375q-0.171875 0.546875 -0.515625 1.03125q-0.328125 0.46875 -0.875 0.84375q-0.53125 0.359375 -1.25 0.546875l0 0.09375q0.640625 0.09375 1.21875 0.359375q0.59375 0.25 1.03125 0.703125q0.453125 0.4375 0.734375 1.078125q0.28125 0.640625 0.28125 1.515625q0 1.1562538 -0.484375 2.0000038q-0.484375 0.84375 -1.265625 1.375q-0.765625 0.53125 -1.78125 0.796875q-1.0 0.25 -2.046875 0.25q-0.359375 0 -0.859375 0q-0.484375 0 -1.015625 -0.03125q-0.53125 -0.03125 -1.0625 -0.09375q-0.53125 -0.046875 -0.9375 -0.15625l0 -14.687504q0.796875 -0.140625 1.828125 -0.21875q1.046875 -0.078125 2.28125 -0.078125q0.84375 0 1.703125 0.140625q0.859375 0.125 1.5625 0.53125q0.703125 0.390625 1.15625 1.09375q0.46875 0.703125 0.46875 1.8125zm-4.953125 10.156254q0.6875 0 1.328125 -0.15625q0.640625 -0.171875 1.125 -0.515625q0.5 -0.359375 0.78125 -0.859375q0.296875 -0.515625 0.296875 -1.2187538q0 -0.875 -0.359375 -1.40625q-0.34375 -0.546875 -0.921875 -0.84375q-0.5625 -0.296875 -1.265625 -0.40625q-0.703125 -0.109375 -1.40625 -0.109375l-1.859375 0l0 5.359379q0.15625 0.046875 0.421875 0.078125q0.28125 0.015625 0.59375 0.03125q0.328125 0.015625 0.671875 0.03125q0.34375 0.015625 0.59375 0.015625zm-1.171875 -7.000004q0.375 0 0.875 -0.015625q0.515625 -0.03125 0.859375 -0.078125q0.515625 -0.15625 0.953125 -0.40625q0.453125 -0.25 0.796875 -0.578125q0.359375 -0.328125 0.5625 -0.765625q0.203125 -0.4375 0.203125 -0.953125q0 -0.703125 -0.265625 -1.15625q-0.265625 -0.46875 -0.71875 -0.734375q-0.453125 -0.28125 -1.03125 -0.390625q-0.5625 -0.125 -1.15625 -0.125q-0.703125 0 -1.296875 0.03125q-0.59375 0.03125 -0.890625 0.09375l0 5.078125l1.109375 0z" fill-rule="nonzero"/><path fill="#ffffff" d="m754.1745 60.067c0 -8.349503 6.7686157 -15.118111 15.118103 -15.118111c4.0095825 0 7.8549194 1.5927963 10.6901245 4.427994c2.835205 2.8351936 4.4279785 6.680546 4.4279785 10.690117c0 8.349503 -6.7686157 15.118111 -15.118103 15.118111c-8.349487 0 -15.118103 -6.768608 -15.118103 -15.118111z" fill-rule="evenodd"/><path stroke="#000000" stroke-width="2.0" stroke-linejoin="round" stroke-linecap="butt" d="m754.1745 60.067c0 -8.349503 6.7686157 -15.118111 15.118103 -15.118111c4.0095825 0 7.8549194 1.5927963 10.6901245 4.427994c2.835205 2.8351936 4.4279785 6.680546 4.4279785 10.690117c0 8.349503 -6.7686157 15.118111 -15.118103 15.118111c-8.349487 0 -15.118103 -6.768608 -15.118103 -15.118111z" fill-rule="evenodd"/><path fill="#000000" d="m764.13074 52.6095q0.40625 -0.0625 0.90625 -0.09375q0.5 -0.03125 1.046875 -0.03125q0.546875 -0.015625 1.0625 -0.015625q0.53125 -0.015625 0.96875 -0.015625q1.796875 0 3.109375 0.5625q1.3125 0.546875 2.15625 1.546875q0.859375 0.984375 1.265625 2.375q0.421875 1.375 0.421875 3.03125q0 1.515625 -0.390625 2.921875q-0.390625 1.3906288 -1.25 2.4687538q-0.84375 1.078125 -2.21875 1.734375q-1.359375 0.640625 -3.296875 0.640625q-0.34375 0 -0.890625 -0.015625q-0.546875 0 -1.125 -0.03125q-0.578125 -0.03125 -1.0625 -0.0625q-0.484375 -0.015625 -0.703125 -0.0625l0 -14.953129zm4.03125 1.421875q-0.28125 0 -0.609375 0q-0.328125 0 -0.65625 0.015625q-0.3125 0.015625 -0.578125 0.046875q-0.265625 0.015625 -0.421875 0.03125l0 11.953129q0.109375 0.015625 0.40625 0.03125q0.296875 0.015625 0.609375 0.03125q0.328125 0 0.625 0.015625q0.3125 0 0.40625 0q1.5 0 2.515625 -0.5q1.015625 -0.515625 1.609375 -1.375q0.609375 -0.8750038 0.859375 -1.9843788q0.265625 -1.125 0.265625 -2.328125q0 -1.03125 -0.234375 -2.09375q-0.234375 -1.0625 -0.8125 -1.90625q-0.578125 -0.859375 -1.546875 -1.390625q-0.96875 -0.546875 -2.4375 -0.546875z" fill-rule="nonzero"/><path fill="#000000" fill-opacity="0.0" d="m769.2926 44.94889l-29.322815 -14.204723" fill-rule="evenodd"/><path stroke="#000000" stroke-width="2.0" stroke-linejoin="round" stroke-linecap="butt" d="m763.1241 41.96071l-23.154358 -11.216543" fill-rule="evenodd"/><path fill="#000000" stroke="#000000" stroke-width="2.0" stroke-linecap="butt" d="m763.1241 41.96071l-3.0047607 1.0436096l6.541931 0.6698952l-4.5808105 -4.718231z" fill-rule="evenodd"/><path fill="#000000" fill-opacity="0.0" d="m665.2926 92.94889l13.322815 -22.204727" fill-rule="evenodd"/><path stroke="#000000" stroke-width="2.0" stroke-linejoin="round" stroke-linecap="butt" d="m668.8191 87.07148l9.796326 -16.327316" fill-rule="evenodd"/><path fill="#000000" stroke="#000000" stroke-width="2.0" stroke-linecap="butt" d="m668.81903 87.07149l-0.77142334 -3.0858307l-1.2507324 6.456093l5.108032 -4.1417236z" fill-rule="evenodd"/><path fill="#ffffff" d="m650.1745 108.067c0 -8.349503 6.7686157 -15.118111 15.118103 -15.118111c4.0095825 0 7.8549194 1.5927963 10.6901245 4.427994c2.835205 2.8351974 4.4279785 6.680542 4.4279785 10.690117c0 8.349503 -6.7686157 15.118111 -15.118103 15.118111c-8.349487 0 -15.118103 -6.768608 -15.118103 -15.118111z" fill-rule="evenodd"/><path stroke="#000000" stroke-width="2.0" stroke-linejoin="round" stroke-linecap="butt" d="m650.1745 108.067c0 -8.349503 6.7686157 -15.118111 15.118103 -15.118111c4.0095825 0 7.8549194 1.5927963 10.6901245 4.427994c2.835205 2.8351974 4.4279785 6.680542 4.4279785 10.690117c0 8.349503 -6.7686157 15.118111 -15.118103 15.118111c-8.349487 0 -15.118103 -6.768608 -15.118103 -15.118111z" fill-rule="evenodd"/><path fill="#000000" d="m670.57837 114.922005q-0.640625 0.5 -1.625 0.6875q-0.984375 0.1875 -2.09375 0.1875q-1.34375 0 -2.515625 -0.453125q-1.171875 -0.453125 -2.046875 -1.390625q-0.875 -0.9375 -1.390625 -2.390625q-0.515625 -1.46875 -0.515625 -3.484375q0 -2.09375 0.5625 -3.546875q0.578125 -1.46875 1.5 -2.390625q0.9375 -0.921875 2.078125 -1.34375q1.15625 -0.4375 2.34375 -0.4375q1.28125 0 2.09375 0.140625q0.8125 0.140625 1.390625 0.375l-0.421875 1.5625q-1.03125 -0.5 -2.921875 -0.5q-0.875 0 -1.734375 0.328125q-0.859375 0.3125 -1.53125 1.046875q-0.671875 0.71875 -1.078125 1.890625q-0.390625 1.171875 -0.390625 2.875q0 1.546875 0.375 2.703125q0.390625 1.140625 1.0625 1.90625q0.671875 0.765625 1.578125 1.15625q0.90625 0.375 1.96875 0.375q0.953125 0 1.671875 -0.1875q0.71875 -0.1875 1.203125 -0.484375l0.4375 1.375z" fill-rule="nonzero"/><path fill="#ffffff" d="m698.1745 108.067c0 -8.349503 6.7686157 -15.118111 15.118103 -15.118111c4.0095825 0 7.8549194 1.5927963 10.6901245 4.427994c2.835205 2.8351974 4.4279785 6.680542 4.4279785 10.690117c0 8.349503 -6.7686157 15.118111 -15.118103 15.118111c-8.349487 0 -15.118103 -6.768608 -15.118103 -15.118111z" fill-rule="evenodd"/><path stroke="#000000" stroke-width="2.0" stroke-linejoin="round" stroke-linecap="butt" d="m698.1745 108.067c0 -8.349503 6.7686157 -15.118111 15.118103 -15.118111c4.0095825 0 7.8549194 1.5927963 10.6901245 4.427994c2.835205 2.8351974 4.4279785 6.680542 4.4279785 10.690117c0 8.349503 -6.7686157 15.118111 -15.118103 15.118111c-8.349487 0 -15.118103 -6.768608 -15.118103 -15.118111z" fill-rule="evenodd"/><path fill="#000000" d="m709.59174 100.609505l8.125 0l0 1.59375l-6.359375 0l0 5.09375l5.9375 0l0 1.578125l-5.9375 0l0 6.671875l-1.765625 0l0 -14.9375z" fill-rule="nonzero"/><path fill="#000000" fill-opacity="0.0" d="m713.2926 92.94889l-13.322815 -22.204727" fill-rule="evenodd"/><path stroke="#000000" stroke-width="2.0" stroke-linejoin="round" stroke-linecap="butt" d="m709.7662 87.07148l-9.796448 -16.327316" fill-rule="evenodd"/><path fill="#000000" stroke="#000000" stroke-width="2.0" stroke-linecap="butt" d="m709.7661 87.07149l-3.0858154 -0.7714615l5.107971 4.1417236l-1.2506714 -6.456093z" fill-rule="evenodd"/><path fill="#ffffff" d="m754.1745 108.067c0 -8.349503 6.7686157 -15.118111 15.118103 -15.118111c4.0095825 0 7.8549194 1.5927963 10.6901245 4.427994c2.835205 2.8351974 4.4279785 6.680542 4.4279785 10.690117c0 8.349503 -6.7686157 15.118111 -15.118103 15.118111c-8.349487 0 -15.118103 -6.768608 -15.118103 -15.118111z" fill-rule="evenodd"/><path stroke="#000000" stroke-width="2.0" stroke-linejoin="round" stroke-linecap="butt" d="m754.1745 108.067c0 -8.349503 6.7686157 -15.118111 15.118103 -15.118111c4.0095825 0 7.8549194 1.5927963 10.6901245 4.427994c2.835205 2.8351974 4.4279785 6.680542 4.4279785 10.690117c0 8.349503 -6.7686157 15.118111 -15.118103 15.118111c-8.349487 0 -15.118103 -6.768608 -15.118103 -15.118111z" fill-rule="evenodd"/><path fill="#000000" d="m765.38916 100.609505l8.125 0l0 1.59375l-6.359375 0l0 4.875l5.828125 0l0 1.578125l-5.828125 0l0 5.3125l6.46875 0l0 1.578125l-8.234375 0l0 -14.9375z" fill-rule="nonzero"/><path fill="#000000" fill-opacity="0.0" d="m769.2926 92.94889l0 -17.763779" fill-rule="evenodd"/><path stroke="#000000" stroke-width="2.0" stroke-linejoin="round" stroke-linecap="butt" d="m769.29254 86.09471l0 -10.909599" fill-rule="evenodd"/><path fill="#000000" stroke="#000000" stroke-width="2.0" stroke-linecap="butt" d="m769.29254 86.09472l-2.2491455 -2.2491684l2.2491455 6.179535l2.2492065 -6.179535z" fill-rule="evenodd"/><path fill="#ffffff" d="m706.1745 160.42932c0 -8.349503 6.7686157 -15.118118 15.118103 -15.118118c4.0095825 0 7.8549194 1.592804 10.6901245 4.427994c2.835205 2.835205 4.4279785 6.6805573 4.4279785 10.6901245c0 8.349503 -6.7686157 15.118103 -15.118103 15.118103c-8.349487 0 -15.118103 -6.7686005 -15.118103 -15.118103z" fill-rule="evenodd"/><path stroke="#000000" stroke-width="2.0" stroke-linejoin="round" stroke-linecap="butt" d="m706.1745 160.42932c0 -8.349503 6.7686157 -15.118118 15.118103 -15.118118c4.0095825 0 7.8549194 1.592804 10.6901245 4.427994c2.835205 2.835205 4.4279785 6.6805573 4.4279785 10.6901245c0 8.349503 -6.7686157 15.118103 -15.118103 15.118103c-8.349487 0 -15.118103 -6.7686005 -15.118103 -15.118103z" fill-rule="evenodd"/><path fill="#000000" d="m723.97595 163.76869l-5.515625 0l-1.484375 4.140625l-1.75 0l5.65625 -15.171875l0.8125 0l5.671875 15.171875l-1.859375 0l-1.53125 -4.140625zm-4.9375 -1.53125l4.390625 0l-1.65625 -4.546875l-0.53125 -2.265625l-0.03125 0l-0.53125 2.3125l-1.640625 4.5z" fill-rule="nonzero"/><path fill="#000000" fill-opacity="0.0" d="m681.2926 193.3112l29.322815 -22.204712" fill-rule="evenodd"/><path stroke="#000000" stroke-width="2.0" stroke-linejoin="round" stroke-linecap="butt" d="m686.7569 189.17339l23.85852 -18.066895" fill-rule="evenodd"/><path fill="#000000" stroke="#000000" stroke-width="2.0" stroke-linecap="butt" d="m686.7569 189.17339l0.4352417 -3.150879l-3.5686035 5.5236206l6.2842407 -1.9374695z" fill-rule="evenodd"/><path fill="#ffffff" d="m666.1745 208.42932c0 -8.349503 6.7686157 -15.118118 15.118103 -15.118118c4.0095825 0 7.8549194 1.592804 10.6901245 4.427994c2.835205 2.835205 4.4279785 6.6805573 4.4279785 10.6901245c0 8.349503 -6.7686157 15.118103 -15.118103 15.118103c-8.349487 0 -15.118103 -6.7686005 -15.118103 -15.118103z" fill-rule="evenodd"/><path stroke="#000000" stroke-width="2.0" stroke-linejoin="round" stroke-linecap="butt" d="m666.1745 208.42932c0 -8.349503 6.7686157 -15.118118 15.118103 -15.118118c4.0095825 0 7.8549194 1.592804 10.6901245 4.427994c2.835205 2.835205 4.4279785 6.6805573 4.4279785 10.6901245c0 8.349503 -6.7686157 15.118103 -15.118103 15.118103c-8.349487 0 -15.118103 -6.7686005 -15.118103 -15.118103z" fill-rule="evenodd"/><path fill="#000000" d="m685.87726 204.39369q0 0.53125 -0.171875 1.09375q-0.171875 0.546875 -0.515625 1.03125q-0.328125 0.46875 -0.875 0.84375q-0.53125 0.359375 -1.25 0.546875l0 0.09375q0.640625 0.09375 1.21875 0.359375q0.59375 0.25 1.03125 0.703125q0.453125 0.4375 0.734375 1.078125q0.28125 0.640625 0.28125 1.515625q0 1.15625 -0.484375 2.0q-0.484375 0.84375 -1.265625 1.375q-0.765625 0.53125 -1.78125 0.796875q-1.0 0.25 -2.046875 0.25q-0.359375 0 -0.859375 0q-0.484375 0 -1.015625 -0.03125q-0.53125 -0.03125 -1.0625 -0.09375q-0.53125 -0.046875 -0.9375 -0.15625l0 -14.6875q0.796875 -0.140625 1.828125 -0.21875q1.046875 -0.078125 2.28125 -0.078125q0.84375 0 1.703125 0.140625q0.859375 0.125 1.5625 0.53125q0.703125 0.390625 1.15625 1.09375q0.46875 0.703125 0.46875 1.8125zm-4.953125 10.15625q0.6875 0 1.328125 -0.15625q0.640625 -0.171875 1.125 -0.515625q0.5 -0.359375 0.78125 -0.859375q0.296875 -0.515625 0.296875 -1.21875q0 -0.875 -0.359375 -1.40625q-0.34375 -0.546875 -0.921875 -0.84375q-0.5625 -0.296875 -1.265625 -0.40625q-0.703125 -0.109375 -1.40625 -0.109375l-1.859375 0l0 5.359375q0.15625 0.046875 0.421875 0.078125q0.28125 0.015625 0.59375 0.03125q0.328125 0.015625 0.671875 0.03125q0.34375 0.015625 0.59375 0.015625zm-1.171875 -7.0q0.375 0 0.875 -0.015625q0.515625 -0.03125 0.859375 -0.078125q0.515625 -0.15625 0.953125 -0.40625q0.453125 -0.25 0.796875 -0.578125q0.359375 -0.328125 0.5625 -0.765625q0.203125 -0.4375 0.203125 -0.953125q0 -0.703125 -0.265625 -1.15625q-0.265625 -0.46875 -0.71875 -0.734375q-0.453125 -0.28125 -1.03125 -0.390625q-0.5625 -0.125 -1.15625 -0.125q-0.703125 0 -1.296875 0.03125q-0.59375 0.03125 -0.890625 0.09375l0 5.078125l1.109375 0z" fill-rule="nonzero"/><path fill="#ffffff" d="m746.1745 208.42932c0 -8.349503 6.7686157 -15.118118 15.118103 -15.118118c4.0095825 0 7.8549194 1.592804 10.6901245 4.427994c2.835205 2.835205 4.4279785 6.6805573 4.4279785 10.6901245c0 8.349503 -6.7686157 15.118103 -15.118103 15.118103c-8.349487 0 -15.118103 -6.7686005 -15.118103 -15.118103z" fill-rule="evenodd"/><path stroke="#000000" stroke-width="2.0" stroke-linejoin="round" stroke-linecap="butt" d="m746.1745 208.42932c0 -8.349503 6.7686157 -15.118118 15.118103 -15.118118c4.0095825 0 7.8549194 1.592804 10.6901245 4.427994c2.835205 2.835205 4.4279785 6.6805573 4.4279785 10.6901245c0 8.349503 -6.7686157 15.118103 -15.118103 15.118103c-8.349487 0 -15.118103 -6.7686005 -15.118103 -15.118103z" fill-rule="evenodd"/><path fill="#000000" d="m756.13074 200.97182q0.40625 -0.0625 0.90625 -0.09375q0.5 -0.03125 1.046875 -0.03125q0.546875 -0.015625 1.0625 -0.015625q0.53125 -0.015625 0.96875 -0.015625q1.796875 0 3.109375 0.5625q1.3125 0.546875 2.15625 1.546875q0.859375 0.984375 1.265625 2.375q0.421875 1.375 0.421875 3.03125q0 1.515625 -0.390625 2.921875q-0.390625 1.390625 -1.25 2.46875q-0.84375 1.078125 -2.21875 1.734375q-1.359375 0.640625 -3.296875 0.640625q-0.34375 0 -0.890625 -0.015625q-0.546875 0 -1.125 -0.03125q-0.578125 -0.03125 -1.0625 -0.0625q-0.484375 -0.015625 -0.703125 -0.0625l0 -14.953125zm4.03125 1.421875q-0.28125 0 -0.609375 0q-0.328125 0 -0.65625 0.015625q-0.3125 0.015625 -0.578125 0.046875q-0.265625 0.015625 -0.421875 0.03125l0 11.953125q0.109375 0.015625 0.40625 0.03125q0.296875 0.015625 0.609375 0.03125q0.328125 0 0.625 0.015625q0.3125 0 0.40625 0q1.5 0 2.515625 -0.5q1.015625 -0.515625 1.609375 -1.375q0.609375 -0.875 0.859375 -1.984375q0.265625 -1.125 0.265625 -2.328125q0 -1.03125 -0.234375 -2.09375q-0.234375 -1.0625 -0.8125 -1.90625q-0.578125 -0.859375 -1.546875 -1.390625q-0.96875 -0.546875 -2.4375 -0.546875z" fill-rule="nonzero"/><path fill="#000000" fill-opacity="0.0" d="m761.2926 193.3112l-29.322815 -22.204712" fill-rule="evenodd"/><path stroke="#000000" stroke-width="2.0" stroke-linejoin="round" stroke-linecap="butt" d="m755.8283 189.17339l-23.858582 -18.066895" fill-rule="evenodd"/><path fill="#000000" stroke="#000000" stroke-width="2.0" stroke-linecap="butt" d="m755.8283 189.17339l-3.150879 0.43527222l6.2842407 1.9374695l-3.5686035 -5.5236206z" fill-rule="evenodd"/><path fill="#000000" fill-opacity="0.0" d="m681.2926 241.3112l0 -17.763779" fill-rule="evenodd"/><path stroke="#000000" stroke-width="2.0" stroke-linejoin="round" stroke-linecap="butt" d="m681.2926 234.45705l0 -10.909622" fill-rule="evenodd"/><path fill="#000000" stroke="#000000" stroke-width="2.0" stroke-linecap="butt" d="m681.2926 234.45703l-2.2491455 -2.2491608l2.2491455 6.179535l2.2491455 -6.179535z" fill-rule="evenodd"/><path fill="#ffffff" d="m666.1745 256.42932c0 -8.349503 6.7686157 -15.118118 15.118103 -15.118118c4.0095825 0 7.8549194 1.592804 10.6901245 4.427994c2.835205 2.835205 4.4279785 6.6805573 4.4279785 10.6901245c0 8.349487 -6.7686157 15.118103 -15.118103 15.118103c-8.349487 0 -15.118103 -6.7686157 -15.118103 -15.118103z" fill-rule="evenodd"/><path stroke="#000000" stroke-width="2.0" stroke-linejoin="round" stroke-linecap="butt" d="m666.1745 256.42932c0 -8.349503 6.7686157 -15.118118 15.118103 -15.118118c4.0095825 0 7.8549194 1.592804 10.6901245 4.427994c2.835205 2.835205 4.4279785 6.6805573 4.4279785 10.6901245c0 8.349487 -6.7686157 15.118103 -15.118103 15.118103c-8.349487 0 -15.118103 -6.7686157 -15.118103 -15.118103z" fill-rule="evenodd"/><path fill="#000000" d="m686.57837 263.28433q-0.640625 0.5 -1.625 0.6875q-0.984375 0.1875 -2.09375 0.1875q-1.34375 0 -2.515625 -0.453125q-1.171875 -0.453125 -2.046875 -1.390625q-0.875 -0.9375 -1.390625 -2.390625q-0.515625 -1.46875 -0.515625 -3.484375q0 -2.0937653 0.5625 -3.5468903q0.578125 -1.46875 1.5 -2.390625q0.9375 -0.921875 2.078125 -1.34375q1.15625 -0.4375 2.34375 -0.4375q1.28125 0 2.09375 0.140625q0.8125 0.140625 1.390625 0.375l-0.421875 1.5625q-1.03125 -0.5 -2.921875 -0.5q-0.875 0 -1.734375 0.328125q-0.859375 0.3125 -1.53125 1.046875q-0.671875 0.71875 -1.078125 1.890625q-0.390625 1.171875 -0.390625 2.8750153q0 1.546875 0.375 2.703125q0.390625 1.140625 1.0625 1.90625q0.671875 0.765625 1.578125 1.15625q0.90625 0.375 1.96875 0.375q0.953125 0 1.671875 -0.1875q0.71875 -0.1875 1.203125 -0.484375l0.4375 1.375z" fill-rule="nonzero"/><path fill="#ffffff" d="m706.1745 208.42932c0 -8.349503 6.7686157 -15.118118 15.118103 -15.118118c4.0095825 0 7.8549194 1.592804 10.6901245 4.427994c2.835205 2.835205 4.4279785 6.6805573 4.4279785 10.6901245c0 8.349503 -6.7686157 15.118103 -15.118103 15.118103c-8.349487 0 -15.118103 -6.7686005 -15.118103 -15.118103z" fill-rule="evenodd"/><path stroke="#000000" stroke-width="2.0" stroke-linejoin="round" stroke-linecap="butt" d="m706.1745 208.42932c0 -8.349503 6.7686157 -15.118118 15.118103 -15.118118c4.0095825 0 7.8549194 1.592804 10.6901245 4.427994c2.835205 2.835205 4.4279785 6.6805573 4.4279785 10.6901245c0 8.349503 -6.7686157 15.118103 -15.118103 15.118103c-8.349487 0 -15.118103 -6.7686005 -15.118103 -15.118103z" fill-rule="evenodd"/><path fill="#000000" d="m717.59174 200.97182l8.125 0l0 1.59375l-6.359375 0l0 5.09375l5.9375 0l0 1.578125l-5.9375 0l0 6.671875l-1.765625 0l0 -14.9375z" fill-rule="nonzero"/><path fill="#000000" fill-opacity="0.0" d="m721.2926 193.3112l0 -17.763779" fill-rule="evenodd"/><path stroke="#000000" stroke-width="2.0" stroke-linejoin="round" stroke-linecap="butt" d="m721.29254 186.45705l0 -10.909622" fill-rule="evenodd"/><path fill="#000000" stroke="#000000" stroke-width="2.0" stroke-linecap="butt" d="m721.29254 186.45703l-2.2491455 -2.2491608l2.2491455 6.179535l2.2492065 -6.179535z" fill-rule="evenodd"/><path fill="#ffffff" d="m746.1745 256.42932c0 -8.349503 6.7686157 -15.118118 15.118103 -15.118118c4.0095825 0 7.8549194 1.592804 10.6901245 4.427994c2.835205 2.835205 4.4279785 6.6805573 4.4279785 10.6901245c0 8.349487 -6.7686157 15.118103 -15.118103 15.118103c-8.349487 0 -15.118103 -6.7686157 -15.118103 -15.118103z" fill-rule="evenodd"/><path stroke="#000000" stroke-width="2.0" stroke-linejoin="round" stroke-linecap="butt" d="m746.1745 256.42932c0 -8.349503 6.7686157 -15.118118 15.118103 -15.118118c4.0095825 0 7.8549194 1.592804 10.6901245 4.427994c2.835205 2.835205 4.4279785 6.6805573 4.4279785 10.6901245c0 8.349487 -6.7686157 15.118103 -15.118103 15.118103c-8.349487 0 -15.118103 -6.7686157 -15.118103 -15.118103z" fill-rule="evenodd"/><path fill="#000000" d="m757.38916 248.97182l8.125 0l0 1.59375l-6.359375 0l0 4.875l5.828125 0l0 1.5781403l-5.828125 0l0 5.3125l6.46875 0l0 1.578125l-8.234375 0l0 -14.937515z" fill-rule="nonzero"/><path fill="#000000" fill-opacity="0.0" d="m761.2926 241.3112l0 -17.763779" fill-rule="evenodd"/><path stroke="#000000" stroke-width="2.0" stroke-linejoin="round" stroke-linecap="butt" d="m761.29254 234.45705l0 -10.909622" fill-rule="evenodd"/><path fill="#000000" stroke="#000000" stroke-width="2.0" stroke-linecap="butt" d="m761.29254 234.45703l-2.2491455 -2.2491608l2.2491455 6.179535l2.2492065 -6.179535z" fill-rule="evenodd"/><path fill="#000000" fill-opacity="0.0" d="m312.44623 11.822964l0 244.8504" fill-rule="evenodd"/><path stroke="#000000" stroke-width="2.0" stroke-linejoin="round" stroke-linecap="butt" d="m312.44623 11.822964l0 244.8504" fill-rule="evenodd"/><path fill="#000000" fill-opacity="0.0" d="m312.44623 134.24815l488.063 0" fill-rule="evenodd"/><path stroke="#000000" stroke-width="2.0" stroke-linejoin="round" stroke-linecap="butt" d="m312.44623 134.24815l488.063 0" fill-rule="evenodd"/></g></svg>