<svg version="1.1" viewBox="0.0 0.0 831.496062992126 130.39370078740157" fill="none" stroke="none" stroke-linecap="square" stroke-miterlimit="10" xmlns:xlink="http://www.w3.org/1999/xlink" xmlns="http://www.w3.org/2000/svg"><clipPath id="p.0"><path d="m0 0l831.49603 0l0 130.3937l-831.49603 0l0 -130.3937z" clip-rule="nonzero"/></clipPath><g clip-path="url(#p.0)"><path fill="#000000" fill-opacity="0.0" d="m0 0l831.49603 0l0 130.3937l-831.49603 0z" fill-rule="evenodd"/><path shape-rendering="crispEdges" fill="#ffffff" d="m6.5710425 33.27682l38.448822 0l0 38.942257l-38.448822 0l0 -38.942257z" fill-rule="nonzero"/><path shape-rendering="crispEdges" fill="#ffffff" d="m45.019863 33.27682l38.44882 0l0 38.942257l-38.44882 0l0 -38.942257z" fill-rule="nonzero"/><path shape-rendering="crispEdges" fill="#ffffff" d="m83.46868 33.27682l38.448814 0l0 38.942257l-38.448814 0l0 -38.942257z" fill-rule="nonzero"/><path shape-rendering="crispEdges" fill="#ffffff" d="m121.917496 33.27682l38.448822 0l0 38.942257l-38.448822 0l0 -38.942257z" fill-rule="nonzero"/><path shape-rendering="crispEdges" fill="#ffffff" d="m160.36632 33.27682l38.448822 0l0 38.942257l-38.448822 0l0 -38.942257z" fill-rule="nonzero"/><path shape-rendering="crispEdges" fill="#ffffff" d="m198.81514 33.27682l38.448822 0l0 38.942257l-38.448822 0l0 -38.942257z" fill-rule="nonzero"/><path shape-rendering="crispEdges" fill="#ffffff" d="m237.26396 33.27682l38.448807 0l0 38.942257l-38.448807 0l0 -38.942257z" fill-rule="nonzero"/><path shape-rendering="crispEdges" fill="#ffffff" d="m275.71277 33.27682l38.448822 0l0 38.942257l-38.448822 0l0 -38.942257z" fill-rule="nonzero"/><path shape-rendering="crispEdges" fill="#ffffff" d="m314.1616 33.27682l38.448822 0l0 38.942257l-38.448822 0l0 -38.942257z" fill-rule="nonzero"/><path shape-rendering="crispEdges" fill="#ffffff" d="m352.6104 33.27682l38.448822 0l0 38.942257l-38.448822 0l0 -38.942257z" fill-rule="nonzero"/><path stroke="#000000" stroke-width="2.0" stroke-linecap="butt" d="m6.5710425 32.27682l0 40.942257" fill-rule="nonzero"/><path stroke="#000000" stroke-width="2.0" stroke-linecap="butt" d="m45.019863 32.27682l0 40.942257" fill-rule="nonzero"/><path stroke="#000000" stroke-width="2.0" stroke-linecap="butt" d="m83.46868 32.27682l0 40.942257" fill-rule="nonzero"/><path stroke="#000000" stroke-width="2.0" stroke-linecap="butt" d="m121.917496 32.27682l0 40.942257" fill-rule="nonzero"/><path stroke="#000000" stroke-width="2.0" stroke-linecap="butt" d="m160.36632 32.27682l0 40.942257" fill-rule="nonzero"/><path stroke="#000000" stroke-width="2.0" stroke-linecap="butt" d="m198.81514 32.27682l0 40.942257" fill-rule="nonzero"/><path stroke="#000000" stroke-width="2.0" stroke-linecap="butt" d="m237.26396 32.27682l0 40.942257" fill-rule="nonzero"/><path stroke="#000000" stroke-width="2.0" stroke-linecap="butt" d="m275.71277 32.27682l0 40.942257" fill-rule="nonzero"/><path stroke="#000000" stroke-width="2.0" stroke-linecap="butt" d="m314.1616 32.27682l0 40.942257" fill-rule="nonzero"/><path stroke="#000000" stroke-width="2.0" stroke-linecap="butt" d="m352.6104 32.27682l0 40.942257" fill-rule="nonzero"/><path stroke="#000000" stroke-width="2.0" stroke-linecap="butt" d="m391.05923 32.27682l0 40.942257" fill-rule="nonzero"/><path stroke="#000000" stroke-width="2.0" stroke-linecap="butt" d="m5.5710425 33.27682l386.4882 0" fill-rule="nonzero"/><path stroke="#000000" stroke-width="2.0" stroke-linecap="butt" d="m5.5710425 72.21908l386.4882 0" fill-rule="nonzero"/><path fill="#000000" d="m21.68037 50.358574q0 -0.890625 0.265625 -1.65625q0.265625 -0.765625 0.765625 -1.328125q0.5 -0.5625 1.25 -0.875q0.765625 -0.3125 1.765625 -0.3125q1.90625 0 2.96875 1.234375q1.0625 1.21875 1.0625 3.46875q0 2.109375 -0.484375 3.6875q-0.46875 1.5625 -1.3125 2.65625q-0.828125 1.078125 -1.984375 1.6875q-1.140625 0.609375 -2.484375 0.765625l-0.34375 -1.1875q1.09375 -0.171875 1.953125 -0.640625q0.875 -0.46875 1.5 -1.171875q0.625 -0.703125 1.015625 -1.609375q0.390625 -0.90625 0.53125 -1.96875q-0.5 0.59375 -1.109375 0.828125q-0.59375 0.234375 -1.59375 0.234375q-0.765625 0 -1.453125 -0.25q-0.671875 -0.25 -1.203125 -0.734375q-0.515625 -0.484375 -0.8125 -1.1875q-0.296875 -0.71875 -0.296875 -1.640625zm1.546875 -0.140625q0 1.328125 0.703125 1.984375q0.703125 0.65625 1.84375 0.65625q0.90625 0 1.5625 -0.296875q0.65625 -0.296875 0.9375 -0.78125q0.03125 -0.234375 0.03125 -0.421875q0 -0.1875 0 -0.390625q0 -0.671875 -0.15625 -1.296875q-0.15625 -0.625 -0.484375 -1.125q-0.3125 -0.5 -0.828125 -0.78125q-0.515625 -0.28125 -1.203125 -0.28125q-1.140625 0 -1.78125 0.71875q-0.625 0.71875 -0.625 2.015625z" fill-rule="nonzero"/><path fill="#000000" d="m56.09223 58.09295l2.609375 0l0 -9.03125l0.1875 -1.109375l-0.75 0.875l-2.046875 1.484375l-0.703125 -0.953125l4.09375 -3.171875l0.671875 0l0 11.90625l2.5625 0l0 1.375l-6.625 0l0 -1.375zm17.933289 -2.640625l-2.203125 0l0 4.015625l-1.453125 0l0 -4.015625l-5.75 0l0 -0.609375l6.1875 -8.640625l1.015625 0l0 7.953125l2.203125 0l0 1.296875zm-3.65625 -5.375l0.1875 -1.515625l-0.0625 0l-0.65625 1.265625l-2.625 3.5625l-0.890625 0.90625l1.296875 -0.140625l2.75 0l0 -4.078125z" fill-rule="nonzero"/><path fill="#000000" d="m94.54105 58.09295l2.609375 0l0 -9.03125l0.1875 -1.109375l-0.75 0.875l-2.046875 1.484375l-0.703125 -0.953125l4.09375 -3.171875l0.671875 0l0 11.90625l2.5625 0l0 1.375l-6.625 0l0 -1.375zm9.417664 -1.734375q0 -1.1875 0.609375 -2.046875q0.625 -0.875 1.9375 -1.578125q-0.46875 -0.28125 -0.875 -0.578125q-0.40625 -0.3125 -0.71875 -0.703125q-0.296875 -0.390625 -0.484375 -0.875q-0.171875 -0.5 -0.171875 -1.125q0 -0.734375 0.25 -1.328125q0.265625 -0.59375 0.734375 -1.015625q0.46875 -0.4375 1.125 -0.671875q0.671875 -0.25 1.515625 -0.25q0.78125 0 1.40625 0.234375q0.640625 0.21875 1.078125 0.609375q0.4375 0.390625 0.671875 0.9375q0.25 0.53125 0.25 1.1875q0 1.0625 -0.484375 1.875q-0.484375 0.8125 -1.59375 1.59375q0.484375 0.28125 0.921875 0.625q0.4375 0.328125 0.765625 0.734375q0.328125 0.40625 0.515625 0.921875q0.1875 0.515625 0.1875 1.171875q0 0.796875 -0.265625 1.46875q-0.265625 0.65625 -0.765625 1.140625q-0.5 0.46875 -1.234375 0.734375q-0.734375 0.265625 -1.65625 0.265625q-0.90625 0 -1.59375 -0.25q-0.6875 -0.265625 -1.171875 -0.703125q-0.46875 -0.453125 -0.71875 -1.0625q-0.234375 -0.609375 -0.234375 -1.3125zm6.171875 -0.1875q0 -0.5625 -0.21875 -0.984375q-0.21875 -0.421875 -0.59375 -0.765625q-0.359375 -0.34375 -0.828125 -0.625q-0.46875 -0.28125 -0.96875 -0.546875q-1.140625 0.640625 -1.625 1.421875q-0.484375 0.78125 -0.484375 1.5q0 0.4375 0.140625 0.859375q0.15625 0.40625 0.453125 0.703125q0.3125 0.296875 0.75 0.484375q0.4375 0.171875 1.015625 0.171875q0.46875 0 0.890625 -0.140625q0.4375 -0.140625 0.75 -0.40625q0.328125 -0.28125 0.515625 -0.703125q0.203125 -0.421875 0.203125 -0.96875zm-4.421875 -6.765625q0 0.53125 0.203125 0.9375q0.21875 0.390625 0.5625 0.71875q0.34375 0.3125 0.78125 0.578125q0.453125 0.265625 0.9375 0.515625q0.84375 -0.65625 1.234375 -1.28125q0.40625 -0.640625 0.40625 -1.40625q0 -0.953125 -0.59375 -1.46875q-0.578125 -0.515625 -1.390625 -0.515625q-0.515625 0 -0.90625 0.171875q-0.390625 0.171875 -0.671875 0.4375q-0.28125 0.25 -0.421875 0.609375q-0.140625 0.34375 -0.140625 0.703125z" fill-rule="nonzero"/><path fill="#000000" d="m177.75119 49.3742q0 0.984375 -0.375 2.03125q-0.359375 1.03125 -0.953125 2.078125q-0.578125 1.046875 -1.3125 2.046875q-0.71875 0.984375 -1.453125 1.890625l-0.90625 0.796875l0 0.078125l1.1875 -0.203125l4.0625 0l0 1.375l-7.421875 0l0 -0.546875q0.40625 -0.421875 0.984375 -1.046875q0.578125 -0.640625 1.203125 -1.40625q0.625 -0.78125 1.234375 -1.640625q0.609375 -0.875 1.09375 -1.765625q0.5 -0.90625 0.796875 -1.78125q0.296875 -0.875 0.296875 -1.65625q0 -0.921875 -0.515625 -1.53125q-0.515625 -0.609375 -1.578125 -0.609375q-0.71875 0 -1.390625 0.296875q-0.671875 0.28125 -1.15625 0.65625l-0.609375 -1.0625q0.65625 -0.5625 1.546875 -0.875q0.890625 -0.3125 1.921875 -0.3125q0.796875 0 1.40625 0.234375q0.625 0.234375 1.046875 0.671875q0.4375 0.421875 0.65625 1.015625q0.234375 0.578125 0.234375 1.265625zm11.620789 6.078125l-2.203125 0l0 4.015625l-1.453125 0l0 -4.015625l-5.75 0l0 -0.609375l6.1875 -8.640625l1.015625 0l0 7.953125l2.203125 0l0 1.296875zm-3.65625 -5.375l0.1875 -1.515625l-0.0625 0l-0.65625 1.265625l-2.625 3.5625l-0.890625 0.90625l1.296875 -0.140625l2.75 0l0 -4.078125z" fill-rule="nonzero"/><path fill="#000000" d="m212.23126 58.389824q0.640625 0 1.171875 -0.1875q0.546875 -0.1875 0.9375 -0.546875q0.390625 -0.375 0.609375 -0.875q0.234375 -0.5 0.234375 -1.09375q0 -1.3125 -0.78125 -1.9375q-0.765625 -0.640625 -2.125 -0.640625l-1.390625 0l0 -0.546875l2.6875 -4.140625l0.859375 -0.8125l-1.203125 0.1875l-3.703125 0l0 -1.390625l6.671875 0l0 0.546875l-2.96875 4.453125l-0.65625 0.546875l0 0.03125l0.625 -0.125q0.75 0.015625 1.375 0.265625q0.640625 0.25 1.109375 0.734375q0.46875 0.46875 0.734375 1.140625q0.265625 0.65625 0.265625 1.5q0 1.0 -0.359375 1.78125q-0.359375 0.78125 -0.96875 1.328125q-0.59375 0.53125 -1.421875 0.8125q-0.8125 0.265625 -1.734375 0.265625q-0.84375 0 -1.515625 -0.125q-0.671875 -0.125 -1.171875 -0.34375l0.390625 -1.3125q0.4375 0.203125 1.015625 0.34375q0.59375 0.140625 1.3125 0.140625zm9.777039 0q1.296875 0 2.125 -0.75q0.84375 -0.75 0.84375 -2.171875q0 -1.359375 -0.828125 -2.03125q-0.828125 -0.671875 -2.28125 -0.671875l-1.578125 0.09375l0 -6.453125l5.828125 0l0 1.390625l-4.421875 0l0 3.703125l0.796875 -0.03125q1.859375 0.015625 2.921875 1.03125q1.0625 1.0 1.0625 2.890625q0 1.03125 -0.359375 1.84375q-0.359375 0.8125 -0.96875 1.359375q-0.59375 0.546875 -1.421875 0.828125q-0.8125 0.265625 -1.75 0.265625q-0.84375 0 -1.421875 -0.09375q-0.578125 -0.09375 -1.078125 -0.28125l0.390625 -1.265625q0.421875 0.171875 0.921875 0.265625q0.5 0.078125 1.21875 0.078125z" fill-rule="nonzero"/><path fill="#000000" d="m254.64882 49.3742q0 0.984375 -0.375 2.03125q-0.359375 1.03125 -0.953125 2.078125q-0.578125 1.046875 -1.3125 2.046875q-0.71875 0.984375 -1.453125 1.890625l-0.90625 0.796875l0 0.078125l1.1875 -0.203125l4.0625 0l0 1.375l-7.421875 0l0 -0.546875q0.40625 -0.421875 0.984375 -1.046875q0.578125 -0.640625 1.203125 -1.40625q0.625 -0.78125 1.234375 -1.640625q0.609375 -0.875 1.09375 -1.765625q0.5 -0.90625 0.796875 -1.78125q0.296875 -0.875 0.296875 -1.65625q0 -0.921875 -0.515625 -1.53125q-0.515625 -0.609375 -1.578125 -0.609375q-0.71875 0 -1.390625 0.296875q-0.671875 0.28125 -1.15625 0.65625l-0.609375 -1.0625q0.65625 -0.5625 1.546875 -0.875q0.890625 -0.3125 1.921875 -0.3125q0.796875 0 1.40625 0.234375q0.625 0.234375 1.046875 0.671875q0.4375 0.421875 0.65625 1.015625q0.234375 0.578125 0.234375 1.265625zm3.8864288 10.09375l4.6875 -10.9375l0.828125 -0.90625l-1.109375 0.171875l-5.3125 0l0 -1.390625l7.796875 0l0 0.5l-5.375 12.5625l-1.515625 0z" fill-rule="nonzero"/><path fill="#000000" d="m293.09766 49.3742q0 0.984375 -0.375 2.03125q-0.359375 1.03125 -0.953125 2.078125q-0.578125 1.046875 -1.3125 2.046875q-0.71875 0.984375 -1.453125 1.890625l-0.90625 0.796875l0 0.078125l1.1875 -0.203125l4.0625 0l0 1.375l-7.421875 0l0 -0.546875q0.40625 -0.421875 0.984375 -1.046875q0.578125 -0.640625 1.203125 -1.40625q0.625 -0.78125 1.234375 -1.640625q0.609375 -0.875 1.09375 -1.765625q0.5 -0.90625 0.796875 -1.78125q0.296875 -0.875 0.296875 -1.65625q0 -0.921875 -0.515625 -1.53125q-0.515625 -0.609375 -1.578125 -0.609375q-0.71875 0 -1.390625 0.296875q-0.671875 0.28125 -1.15625 0.65625l-0.609375 -1.0625q0.65625 -0.5625 1.546875 -0.875q0.890625 -0.3125 1.921875 -0.3125q0.796875 0 1.40625 0.234375q0.625 0.234375 1.046875 0.671875q0.4375 0.421875 0.65625 1.015625q0.234375 0.578125 0.234375 1.265625zm2.6364136 3.5625q0 -3.359375 1.09375 -5.046875q1.09375 -1.703125 3.1875 -1.703125q2.25 0 3.265625 1.671875q1.015625 1.671875 1.015625 5.078125q0 3.359375 -1.09375 5.0625q-1.078125 1.6875 -3.1875 1.6875q-2.21875 0 -3.25 -1.765625q-1.03125 -1.78125 -1.03125 -4.984375zm1.546875 0q0 1.21875 0.15625 2.21875q0.171875 0.984375 0.5 1.703125q0.34375 0.71875 0.84375 1.125q0.515625 0.40625 1.234375 0.40625q1.421875 0 2.078125 -1.3125q0.65625 -1.328125 0.65625 -4.140625q0 -1.1875 -0.140625 -2.1875q-0.140625 -1.015625 -0.46875 -1.734375q-0.3125 -0.734375 -0.84375 -1.125q-0.515625 -0.40625 -1.28125 -0.40625q-1.40625 0 -2.078125 1.328125q-0.65625 1.328125 -0.65625 4.125z" fill-rule="nonzero"/><path fill="#000000" d="m366.02652 58.389824q0.640625 0 1.171875 -0.1875q0.546875 -0.1875 0.9375 -0.546875q0.390625 -0.375 0.609375 -0.875q0.234375 -0.5 0.234375 -1.09375q0 -1.3125 -0.78125 -1.9375q-0.765625 -0.640625 -2.125 -0.640625l-1.390625 0l0 -0.546875l2.6875 -4.140625l0.859375 -0.8125l-1.203125 0.1875l-3.703125 0l0 -1.390625l6.671875 0l0 0.546875l-2.96875 4.453125l-0.65625 0.546875l0 0.03125l0.625 -0.125q0.75 0.015625 1.375 0.265625q0.640625 0.25 1.109375 0.734375q0.46875 0.46875 0.734375 1.140625q0.265625 0.65625 0.265625 1.5q0 1.0 -0.359375 1.78125q-0.359375 0.78125 -0.96875 1.328125q-0.59375 0.53125 -1.421875 0.8125q-0.8125 0.265625 -1.734375 0.265625q-0.84375 0 -1.515625 -0.125q-0.671875 -0.125 -1.171875 -0.34375l0.390625 -1.3125q0.4375 0.203125 1.015625 0.34375q0.59375 0.140625 1.3125 0.140625zm7.8239136 -0.296875l2.609375 0l0 -9.03125l0.1875 -1.109375l-0.75 0.875l-2.046875 1.484375l-0.703125 -0.953125l4.09375 -3.171875l0.671875 0l0 11.90625l2.5625 0l0 1.375l-6.625 0l0 -1.375z" fill-rule="nonzero"/><path fill="#000000" fill-opacity="0.0" d="m140.92377 105.48293l0 -30.866142" fill-rule="evenodd"/><path stroke="#000000" stroke-width="2.0" stroke-linejoin="round" stroke-linecap="butt" d="m140.92377 105.48294l0 -24.011978" fill-rule="evenodd"/><path fill="#000000" stroke="#000000" stroke-width="2.0" stroke-linecap="butt" d="m140.92377 81.47096l2.2491608 2.2491684l-2.2491608 -6.179535l-2.249176 6.179535z" fill-rule="evenodd"/><path fill="#000000" fill-opacity="0.0" d="m158.86076 105.48293l-35.87401 0l0 18.897636l35.87401 0z" fill-rule="evenodd"/><path fill="#000000" d="m127.17636 113.47301l0 -0.390625q0.234375 -0.109375 0.53125 -0.203125q0.3125 -0.109375 0.625 -0.1875q0.328125 -0.078125 0.609375 -0.125q0.296875 -0.0625 0.515625 -0.0625l0.296875 0.1875l-1.515625 7.109375l1.1875 0l0 0.40625q-0.328125 0.265625 -0.78125 0.421875q-0.453125 0.15625 -0.875 0.15625q-0.46875 0 -0.671875 -0.203125q-0.203125 -0.203125 -0.203125 -0.484375q0 -0.3125 0.046875 -0.609375q0.046875 -0.3125 0.140625 -0.6875l1.109375 -5.171875l-1.015625 -0.15625zm1.28125 -3.546875q0 -0.421875 0.25 -0.65625q0.265625 -0.234375 0.671875 -0.234375q0.453125 0 0.703125 0.234375q0.265625 0.234375 0.265625 0.65625q0 0.390625 -0.265625 0.625q-0.25 0.21875 -0.703125 0.21875q-0.40625 0 -0.671875 -0.21875q-0.25 -0.234375 -0.25 -0.625z" fill-rule="nonzero"/><path fill="#000000" d="m135.38037 113.37926l6.78125 0l0 1.15625l-6.78125 0l0 -1.15625zm0 2.65625l6.78125 0l0 1.15625l-6.78125 0l0 -1.15625zm15.461395 3.734375q0.53125 0 1.0 -0.15625q0.46875 -0.171875 0.796875 -0.484375q0.34375 -0.3125 0.53125 -0.734375q0.1875 -0.4375 0.1875 -0.953125q0 -1.125 -0.671875 -1.65625q-0.65625 -0.546875 -1.8125 -0.546875l-1.1875 0l0 -0.46875l2.296875 -3.546875l0.734375 -0.703125l-1.03125 0.15625l-3.171875 0l0 -1.1875l5.71875 0l0 0.46875l-2.546875 3.828125l-0.5625 0.453125l0 0.03125l0.546875 -0.109375q0.640625 0.015625 1.171875 0.234375q0.546875 0.21875 0.953125 0.625q0.40625 0.40625 0.625 0.984375q0.21875 0.5625 0.21875 1.28125q0 0.859375 -0.3125 1.53125q-0.296875 0.671875 -0.8125 1.140625q-0.515625 0.453125 -1.21875 0.6875q-0.703125 0.234375 -1.484375 0.234375q-0.734375 0 -1.3125 -0.109375q-0.5625 -0.109375 -1.0 -0.28125l0.34375 -1.140625q0.359375 0.171875 0.859375 0.296875q0.515625 0.125 1.140625 0.125z" fill-rule="nonzero"/><path fill="#000000" fill-opacity="0.0" d="m334.6455 105.48302l0 -30.866142" fill-rule="evenodd"/><path stroke="#000000" stroke-width="2.0" stroke-linejoin="round" stroke-linecap="butt" d="m334.6455 105.48301l0 -24.011963" fill-rule="evenodd"/><path fill="#000000" stroke="#000000" stroke-width="2.0" stroke-linecap="butt" d="m334.6455 81.47105l2.249176 2.2491684l-2.249176 -6.179535l-2.249176 6.179535z" fill-rule="evenodd"/><path fill="#000000" fill-opacity="0.0" d="m372.1888 105.48302l-75.08661 0l0 18.897636l75.08661 0z" fill-rule="evenodd"/><path fill="#000000" d="m313.03445 115.89496q0.09375 -0.390625 0.1875 -0.796875q0.09375 -0.421875 0.109375 -0.6875q-0.015625 -0.421875 -0.140625 -0.671875q-0.125 -0.25 -0.484375 -0.25q-0.390625 0 -0.796875 0.3125q-0.390625 0.296875 -0.75 0.765625q-0.359375 0.46875 -0.65625 1.015625q-0.296875 0.53125 -0.484375 1.015625l-0.984375 4.09375l-1.28125 0l1.015625 -4.5q0.109375 -0.484375 0.1875 -0.9375q0.078125 -0.46875 0.078125 -0.96875q0 -0.359375 -0.125 -0.578125q-0.125 -0.21875 -0.453125 -0.21875q-0.3125 0 -0.703125 0.3125q-0.375 0.296875 -0.75 0.765625q-0.359375 0.46875 -0.671875 1.015625q-0.3125 0.53125 -0.515625 1.03125l-0.84375 4.078125l-1.375 0l1.484375 -7.078125l-0.96875 -0.140625l0 -0.390625q0.53125 -0.28125 1.140625 -0.421875q0.609375 -0.15625 1.0625 -0.15625l0.34375 0.1875l-0.703125 2.828125l0.0625 0q0.1875 -0.4375 0.53125 -0.96875q0.34375 -0.53125 0.78125 -0.984375q0.453125 -0.453125 0.96875 -0.75q0.515625 -0.3125 1.03125 -0.3125q0.1875 0 0.375 0.0625q0.1875 0.0625 0.328125 0.234375q0.15625 0.15625 0.25 0.453125q0.09375 0.28125 0.09375 0.734375q0 0.34375 -0.078125 0.75q-0.0625 0.40625 -0.15625 0.78125q0.234375 -0.546875 0.59375 -1.078125q0.375 -0.53125 0.8125 -0.953125q0.4375 -0.4375 0.921875 -0.703125q0.484375 -0.28125 1.0 -0.28125q0.609375 0 0.921875 0.390625q0.3125 0.375 0.3125 1.046875q0 0.515625 -0.109375 0.96875q-0.09375 0.453125 -0.203125 0.984375l-1.03125 3.90625l1.171875 0l0 0.40625q-0.3125 0.265625 -0.78125 0.421875q-0.453125 0.15625 -0.875 0.15625q-0.46875 0 -0.640625 -0.203125q-0.171875 -0.203125 -0.171875 -0.5q0 -0.46875 0.21875 -1.28125l0.75 -2.90625zm3.8156433 -2.421875l0 -0.390625q0.234375 -0.109375 0.53125 -0.203125q0.3125 -0.109375 0.625 -0.1875q0.328125 -0.078125 0.609375 -0.125q0.296875 -0.0625 0.515625 -0.0625l0.296875 0.1875l-1.515625 7.109375l1.1875 0l0 0.40625q-0.328125 0.265625 -0.78125 0.421875q-0.453125 0.15625 -0.875 0.15625q-0.46875 0 -0.671875 -0.203125q-0.203125 -0.203125 -0.203125 -0.484375q0 -0.3125 0.046875 -0.609375q0.046875 -0.3125 0.140625 -0.6875l1.109375 -5.171875l-1.015625 -0.15625zm1.28125 -3.546875q0 -0.421875 0.25 -0.65625q0.265625 -0.234375 0.671875 -0.234375q0.453125 0 0.703125 0.234375q0.265625 0.234375 0.265625 0.65625q0 0.390625 -0.265625 0.625q-0.25 0.21875 -0.703125 0.21875q-0.40625 0 -0.671875 -0.21875q-0.25 -0.234375 -0.25 -0.625zm8.182007 6.203125q0.109375 -0.5 0.203125 -0.921875q0.09375 -0.421875 0.09375 -0.828125q0 -0.375 -0.171875 -0.625q-0.171875 -0.265625 -0.53125 -0.265625q-0.4375 0 -0.890625 0.359375q-0.4375 0.34375 -0.828125 0.84375q-0.390625 0.5 -0.703125 1.03125q-0.296875 0.53125 -0.46875 0.890625l-0.84375 4.078125l-1.34375 0l1.40625 -7.078125l-0.96875 -0.140625l0.03125 -0.390625q0.21875 -0.125 0.5 -0.21875q0.28125 -0.109375 0.578125 -0.1875q0.296875 -0.078125 0.578125 -0.125q0.28125 -0.046875 0.515625 -0.046875l0.3125 0.1875l-0.59375 2.828125l0.078125 0q0.296875 -0.640625 0.6875 -1.1875q0.390625 -0.546875 0.828125 -0.953125q0.453125 -0.421875 0.921875 -0.640625q0.484375 -0.234375 0.984375 -0.234375q0.671875 0 0.984375 0.421875q0.3125 0.421875 0.3125 1.0625q0 0.34375 -0.078125 0.875q-0.078125 0.53125 -0.203125 1.0l-0.90625 3.9375l1.1875 0l0 0.40625q-0.328125 0.265625 -0.78125 0.421875q-0.453125 0.15625 -0.890625 0.15625q-0.453125 0 -0.640625 -0.1875q-0.171875 -0.1875 -0.171875 -0.421875q0 -0.296875 0.078125 -0.65625q0.078125 -0.359375 0.15625 -0.734375l0.578125 -2.65625zm6.7382812 4.5625l-4.09375 0l0.078125 -0.46875q0.703125 -0.28125 1.375 -0.375l2.0 -9.5q-0.3125 -0.0625 -0.609375 -0.15625q-0.28125 -0.109375 -0.59375 -0.234375l0.125 -0.46875l4.09375 0l-0.09375 0.46875q-0.328125 0.125 -0.703125 0.234375q-0.359375 0.09375 -0.6875 0.15625l-2.0 9.5q0.328125 0.0625 0.640625 0.15625q0.3125 0.09375 0.546875 0.21875l-0.078125 0.46875zm7.5817566 -4.5625q0.109375 -0.5 0.203125 -0.921875q0.09375 -0.421875 0.09375 -0.828125q0 -0.375 -0.171875 -0.625q-0.171875 -0.265625 -0.53125 -0.265625q-0.4375 0 -0.890625 0.359375q-0.4375 0.34375 -0.828125 0.84375q-0.390625 0.5 -0.703125 1.03125q-0.296875 0.53125 -0.46875 0.890625l-0.84375 4.078125l-1.34375 0l1.40625 -7.078125l-0.96875 -0.140625l0.03125 -0.390625q0.21875 -0.125 0.5 -0.21875q0.28125 -0.109375 0.578125 -0.1875q0.296875 -0.078125 0.578125 -0.125q0.28125 -0.046875 0.515625 -0.046875l0.3125 0.1875l-0.59375 2.828125l0.078125 0q0.296875 -0.640625 0.6875 -1.1875q0.390625 -0.546875 0.828125 -0.953125q0.453125 -0.421875 0.921875 -0.640625q0.484375 -0.234375 0.984375 -0.234375q0.671875 0 0.984375 0.421875q0.3125 0.421875 0.3125 1.0625q0 0.34375 -0.078125 0.875q-0.078125 0.53125 -0.203125 1.0l-0.90625 3.9375l1.1875 0l0 0.40625q-0.328125 0.265625 -0.78125 0.421875q-0.453125 0.15625 -0.890625 0.15625q-0.453125 0 -0.640625 -0.1875q-0.171875 -0.1875 -0.171875 -0.421875q0 -0.296875 0.078125 -0.65625q0.078125 -0.359375 0.15625 -0.734375l0.578125 -2.65625zm5.7226257 3.765625q0.421875 0 0.859375 -0.40625q0.4375 -0.40625 0.8125 -0.984375q0.390625 -0.578125 0.6875 -1.203125q0.3125 -0.625 0.484375 -1.046875l0.515625 -2.734375q-0.25 -0.15625 -0.453125 -0.203125q-0.1875 -0.0625 -0.5625 -0.078125q-0.765625 0.015625 -1.375 0.46875q-0.609375 0.453125 -1.03125 1.171875q-0.40625 0.703125 -0.625 1.59375q-0.21875 0.875 -0.21875 1.71875q0 0.8125 0.203125 1.265625q0.203125 0.4375 0.703125 0.4375zm2.515625 -2.34375q-0.203125 0.578125 -0.53125 1.171875q-0.3125 0.59375 -0.71875 1.078125q-0.40625 0.46875 -0.90625 0.78125q-0.484375 0.296875 -1.03125 0.296875q-1.671875 0 -1.671875 -2.421875q0 -1.140625 0.3125 -2.203125q0.328125 -1.0625 0.9375 -1.890625q0.609375 -0.828125 1.46875 -1.3125q0.859375 -0.5 1.96875 -0.5q0.421875 0 0.625 0.0625q0.203125 0.046875 0.53125 0.1875l0.609375 -3.015625l-1.125 -0.15625l0 -0.390625q0.234375 -0.09375 0.515625 -0.1875q0.296875 -0.09375 0.609375 -0.15625q0.3125 -0.078125 0.625 -0.140625q0.328125 -0.0625 0.609375 -0.09375l0.328125 0.125l-2.1875 11.03125l1.171875 0l0 0.390625q-0.328125 0.265625 -0.78125 0.421875q-0.4375 0.15625 -0.875 0.15625q-0.46875 0 -0.671875 -0.1875q-0.1875 -0.203125 -0.1875 -0.4375q0 -0.28125 0.109375 -0.9375q0.109375 -0.65625 0.328125 -1.671875l-0.0625 0zm9.247528 1.71875q-0.140625 0.296875 -0.421875 0.59375q-0.265625 0.28125 -0.640625 0.515625q-0.359375 0.234375 -0.828125 0.359375q-0.453125 0.140625 -0.984375 0.140625q-1.328125 0 -2.046875 -0.75q-0.703125 -0.765625 -0.703125 -2.109375q0 -1.140625 0.3125 -2.140625q0.328125 -1.015625 0.90625 -1.765625q0.578125 -0.75 1.390625 -1.171875q0.828125 -0.4375 1.84375 -0.4375q0.765625 0 1.3125 0.390625q0.546875 0.390625 0.546875 1.15625q0 1.140625 -1.125 1.796875q-1.125 0.65625 -3.640625 0.84375q-0.0625 0.265625 -0.09375 0.53125q-0.015625 0.25 -0.015625 0.5q0 0.953125 0.484375 1.5625q0.5 0.609375 1.4375 0.609375q0.296875 0 0.59375 -0.09375q0.296875 -0.09375 0.5625 -0.234375q0.265625 -0.15625 0.484375 -0.3125q0.21875 -0.15625 0.375 -0.296875l0.25 0.3125zm-1.671875 -6.078125q-0.6875 0.015625 -1.28125 0.65625q-0.59375 0.625 -1.015625 2.15625q1.5625 -0.046875 2.421875 -0.53125q0.859375 -0.5 0.859375 -1.359375q0 -0.328125 -0.203125 -0.609375q-0.1875 -0.296875 -0.78125 -0.3125zm5.8890076 4.09375q-0.171875 0.1875 -0.40625 0.421875q-0.234375 0.21875 -0.46875 0.46875q-0.21875 0.234375 -0.40625 0.46875q-0.1875 0.234375 -0.3125 0.453125q-0.03125 0.109375 -0.046875 0.3125q0 0.203125 -0.015625 0.4375q0 0.234375 0 0.4375q0 0.203125 0.015625 0.296875q-0.265625 0.109375 -0.546875 0.15625q-0.28125 0.046875 -0.53125 0.046875q-0.53125 0 -0.890625 -0.203125q0.15625 -0.484375 0.59375 -1.078125q0.453125 -0.59375 1.0 -1.140625q0.546875 -0.5625 1.046875 -1.015625q0.515625 -0.46875 0.78125 -0.6875l-1.09375 -2.9375l-1.03125 -0.140625l0 -0.390625q0.109375 -0.0625 0.28125 -0.171875q0.1875 -0.109375 0.421875 -0.203125q0.234375 -0.09375 0.46875 -0.15625q0.234375 -0.0625 0.46875 -0.0625q0.34375 0 0.5 0.1875q0.171875 0.171875 0.265625 0.421875l0.78125 2.78125q0.375 -0.375 0.8125 -0.828125q0.4375 -0.46875 0.65625 -0.890625q0.015625 -0.109375 0.015625 -0.3125q0 -0.203125 -0.015625 -0.4375q-0.015625 -0.234375 -0.03125 -0.4375q-0.015625 -0.203125 -0.03125 -0.296875q0.28125 -0.09375 0.53125 -0.140625q0.265625 -0.0625 0.546875 -0.0625q0.515625 0 0.890625 0.203125q-0.09375 0.328125 -0.328125 0.703125q-0.21875 0.359375 -0.53125 0.734375q-0.296875 0.359375 -0.640625 0.71875q-0.34375 0.359375 -0.671875 0.671875q-0.3125 0.3125 -0.59375 0.5625q-0.265625 0.25 -0.4375 0.390625l1.15625 3.109375l1.046875 0.140625l0 0.390625q-0.09375 0.0625 -0.28125 0.171875q-0.1875 0.09375 -0.40625 0.1875q-0.21875 0.09375 -0.46875 0.15625q-0.234375 0.0625 -0.453125 0.0625q-0.328125 0 -0.515625 -0.171875q-0.171875 -0.171875 -0.25 -0.4375l-0.875 -2.890625z" fill-rule="nonzero"/><path fill="#000000" fill-opacity="0.0" d="m125.016396 75.908134c0 4.279114 -3.4689102 7.7480316 -7.7480316 7.7480316l-44.551178 0c-4.2791214 0 -7.7480316 3.4689102 -7.7480316 7.7480316c0 -4.2791214 -3.4689102 -7.7480316 -7.7480316 -7.7480316l-44.55118 0c-4.2791195 0 -7.7480316 -3.4689178 -7.7480316 -7.7480316z" fill-rule="evenodd"/><path fill="#000000" fill-opacity="0.0" d="m125.016396 75.908134c0 4.279114 -3.4689102 7.7480316 -7.7480316 7.7480316l-44.551178 0c-4.2791214 0 -7.7480316 3.4689102 -7.7480316 7.7480316c0 -4.2791214 -3.4689102 -7.7480316 -7.7480316 -7.7480316l-44.55118 0c-4.2791195 0 -7.7480316 -3.4689178 -7.7480316 -7.7480316" fill-rule="evenodd"/><path stroke="#000000" stroke-width="1.0" stroke-linejoin="round" stroke-linecap="butt" d="m125.016396 75.908134c0 4.279114 -3.4689102 7.7480316 -7.7480316 7.7480316l-44.551178 0c-4.2791214 0 -7.7480316 3.4689102 -7.7480316 7.7480316c0 -4.2791214 -3.4689102 -7.7480316 -7.7480316 -7.7480316l-44.55118 0c-4.2791195 0 -7.7480316 -3.4689178 -7.7480316 -7.7480316" fill-rule="evenodd"/><path fill="#000000" fill-opacity="0.0" d="m18.795925 89.13437l92.34645 0l0 19.401573l-92.34645 0z" fill-rule="evenodd"/><path fill="#000000" d="m32.007072 102.42328q0 -0.484375 -0.296875 -0.75q-0.28125 -0.28125 -0.703125 -0.453125q-0.421875 -0.1875 -0.9375 -0.359375q-0.5 -0.171875 -0.921875 -0.4375q-0.421875 -0.265625 -0.71875 -0.671875q-0.28125 -0.421875 -0.28125 -1.125q0 -1.15625 0.65625 -1.6875q0.65625 -0.53125 1.828125 -0.53125q0.859375 0 1.4375 0.15625q0.59375 0.140625 1.03125 0.34375l-0.3125 1.0625q-0.359375 -0.171875 -0.890625 -0.3125q-0.515625 -0.140625 -1.109375 -0.140625q-0.703125 0 -1.03125 0.25q-0.328125 0.234375 -0.328125 0.828125q0 0.421875 0.28125 0.65625q0.296875 0.21875 0.71875 0.40625q0.421875 0.1875 0.921875 0.359375q0.515625 0.171875 0.9375 0.46875q0.421875 0.28125 0.703125 0.734375q0.296875 0.4375 0.296875 1.15625q0 0.5 -0.171875 0.953125q-0.15625 0.453125 -0.515625 0.78125q-0.359375 0.3125 -0.875 0.484375q-0.515625 0.1875 -1.21875 0.1875q-0.90625 0 -1.546875 -0.171875q-0.640625 -0.171875 -1.078125 -0.421875l0.390625 -1.078125q0.359375 0.203125 0.953125 0.390625q0.59375 0.171875 1.203125 0.171875q0.6875 0 1.125 -0.265625q0.453125 -0.28125 0.453125 -0.984375zm2.7672577 -1.828125q0 -2.03125 0.90625 -3.109375q0.90625 -1.078125 2.59375 -1.078125q0.90625 0 1.5625 0.296875q0.671875 0.296875 1.09375 0.84375q0.4375 0.546875 0.640625 1.328125q0.21875 0.78125 0.21875 1.71875q0 2.03125 -0.90625 3.109375q-0.90625 1.078125 -2.609375 1.078125q-0.890625 0 -1.5625 -0.296875q-0.65625 -0.296875 -1.09375 -0.84375q-0.421875 -0.546875 -0.640625 -1.328125q-0.203125 -0.78125 -0.203125 -1.71875zm1.328125 0q0 0.609375 0.125 1.171875q0.125 0.5625 0.375 0.984375q0.25 0.40625 0.671875 0.671875q0.421875 0.25 1.0 0.25q2.1875 0.015625 2.1875 -3.078125q0 -0.625 -0.125 -1.1875q-0.125 -0.5625 -0.375 -0.96875q-0.25 -0.421875 -0.671875 -0.671875q-0.421875 -0.25 -1.015625 -0.25q-2.171875 -0.015625 -2.171875 3.078125zm11.482269 -2.765625q-0.484375 -0.15625 -0.921875 -0.15625q-0.6875 0 -1.09375 0.375q-0.390625 0.375 -0.484375 0.953125l0 5.59375l-1.28125 0l0 -8.0l0.890625 0l0.25 0.96875l0.0625 0q0.296875 -0.53125 0.71875 -0.828125q0.421875 -0.296875 1.078125 -0.296875q0.46875 0 1.046875 0.15625l-0.265625 1.234375zm1.0762634 -1.234375l1.25 0l0 -1.578125l1.28125 -0.375l0 1.953125l2.171875 0l0 1.125l-2.171875 0l0 4.421875q0 0.84375 0.203125 1.1875q0.21875 0.34375 0.703125 0.34375q0.421875 0 0.703125 -0.09375q0.296875 -0.09375 0.640625 -0.234375l0.296875 0.984375q-0.4375 0.203125 -0.953125 0.328125q-0.5 0.125 -1.09375 0.125q-0.984375 0 -1.390625 -0.546875q-0.390625 -0.546875 -0.390625 -1.84375l0 -4.671875l-1.25 0l0 -1.125zm12.154266 7.359375q-0.484375 0.390625 -1.21875 0.609375q-0.71875 0.21875 -1.546875 0.21875q-0.90625 0 -1.578125 -0.296875q-0.671875 -0.296875 -1.109375 -0.84375q-0.421875 -0.546875 -0.640625 -1.3125q-0.203125 -0.78125 -0.203125 -1.734375q0 -2.046875 0.90625 -3.109375q0.921875 -1.078125 2.609375 -1.078125q0.546875 0 1.09375 0.125q0.546875 0.109375 0.96875 0.453125q0.4375 0.328125 0.703125 0.953125q0.28125 0.609375 0.28125 1.609375q0 0.53125 -0.09375 1.171875l-5.140625 0q0 0.703125 0.140625 1.25q0.15625 0.546875 0.453125 0.921875q0.3125 0.375 0.796875 0.578125q0.484375 0.203125 1.1875 0.203125q0.546875 0 1.078125 -0.1875q0.546875 -0.203125 0.828125 -0.453125l0.484375 0.921875zm-2.765625 -6.4375q-0.9375 0 -1.515625 0.5q-0.5625 0.5 -0.671875 1.703125l3.96875 0q0 -1.21875 -0.46875 -1.703125q-0.453125 -0.5 -1.3125 -0.5zm11.190521 4.328125q0 0.8125 0.015625 1.484375q0.015625 0.65625 0.140625 1.296875l-0.859375 0l-0.3125 -1.140625l-0.078125 0q-0.3125 0.5625 -0.921875 0.9375q-0.609375 0.359375 -1.421875 0.359375q-1.59375 0 -2.375 -1.0q-0.78125 -1.015625 -0.78125 -3.15625q0 -2.046875 0.96875 -3.109375q0.96875 -1.0625 2.671875 -1.0625q0.59375 0 0.9375 0.0625q0.34375 0.0625 0.734375 0.203125l0 -3.328125l1.28125 0l0 8.453125zm-3.234375 1.828125q0.8125 0 1.296875 -0.421875q0.484375 -0.4375 0.65625 -1.296875l0 -3.96875q-0.28125 -0.21875 -0.65625 -0.3125q-0.359375 -0.109375 -0.96875 -0.109375q-1.109375 0 -1.734375 0.734375q-0.625 0.734375 -0.625 2.328125q0 0.65625 0.09375 1.21875q0.109375 0.5625 0.34375 0.96875q0.25 0.390625 0.640625 0.625q0.390625 0.234375 0.953125 0.234375zm9.97377 -7.078125l0.875 0l0.25 0.953125l0.0625 0q0.359375 -0.546875 0.9375 -0.84375q0.59375 -0.296875 1.34375 -0.296875q1.59375 0 2.375 0.953125q0.796875 0.9375 0.796875 3.078125q0 1.0 -0.265625 1.8125q-0.265625 0.8125 -0.75 1.375q-0.46875 0.546875 -1.15625 0.859375q-0.671875 0.296875 -1.515625 0.296875q-0.59375 0 -0.9375 -0.078125q-0.34375 -0.0625 -0.734375 -0.234375l0 3.328125l-1.28125 0l0 -11.203125zm3.234375 0.921875q-0.828125 0 -1.296875 0.4375q-0.46875 0.421875 -0.65625 1.28125l0 3.96875q0.28125 0.21875 0.640625 0.34375q0.375 0.125 0.984375 0.125q1.109375 0 1.75 -0.828125q0.65625 -0.828125 0.65625 -2.421875q0 -0.65625 -0.125 -1.1875q-0.109375 -0.546875 -0.359375 -0.921875q-0.234375 -0.375 -0.625 -0.578125q-0.390625 -0.21875 -0.96875 -0.21875zm5.2966537 -0.328125q0.609375 -0.375 1.40625 -0.546875q0.8125 -0.171875 1.6875 -0.171875q0.84375 0 1.34375 0.21875q0.5 0.21875 0.765625 0.59375q0.265625 0.359375 0.34375 0.796875q0.09375 0.421875 0.09375 0.859375q0 0.953125 -0.046875 1.875q-0.046875 0.90625 -0.046875 1.71875q0 0.59375 0.046875 1.125q0.046875 0.515625 0.171875 0.96875l-0.9375 0l-0.34375 -1.125l-0.078125 0q-0.140625 0.234375 -0.359375 0.453125q-0.21875 0.203125 -0.515625 0.375q-0.296875 0.171875 -0.703125 0.28125q-0.40625 0.109375 -0.90625 0.109375q-0.515625 0 -0.96875 -0.15625q-0.4375 -0.15625 -0.765625 -0.453125q-0.3125 -0.296875 -0.5 -0.703125q-0.171875 -0.421875 -0.171875 -0.953125q0 -0.703125 0.28125 -1.171875q0.296875 -0.484375 0.8125 -0.765625q0.515625 -0.28125 1.25 -0.390625q0.734375 -0.125 1.609375 -0.125q0.21875 0 0.4375 0q0.21875 0 0.4375 0.03125q0.046875 -0.484375 0.046875 -0.859375q0 -0.875 -0.359375 -1.234375q-0.34375 -0.359375 -1.265625 -0.359375q-0.28125 0 -0.59375 0.046875q-0.3125 0.046875 -0.640625 0.125q-0.328125 0.0625 -0.625 0.171875q-0.28125 0.09375 -0.515625 0.21875l-0.390625 -0.953125zm2.265625 6.421875q0.453125 0 0.796875 -0.125q0.359375 -0.125 0.609375 -0.296875q0.265625 -0.1875 0.421875 -0.40625q0.171875 -0.234375 0.25 -0.4375l0 -1.328125q-0.21875 -0.015625 -0.453125 -0.015625q-0.234375 -0.015625 -0.453125 -0.015625q-0.5 0 -0.96875 0.0625q-0.46875 0.046875 -0.828125 0.203125q-0.359375 0.140625 -0.578125 0.40625q-0.21875 0.265625 -0.21875 0.671875q0 0.546875 0.390625 0.921875q0.40625 0.359375 1.03125 0.359375zm9.576645 -5.78125q-0.484375 -0.15625 -0.921875 -0.15625q-0.6875 0 -1.09375 0.375q-0.390625 0.375 -0.484375 0.953125l0 5.59375l-1.28125 0l0 -8.0l0.890625 0l0.25 0.96875l0.0625 0q0.296875 -0.53125 0.71875 -0.828125q0.421875 -0.296875 1.078125 -0.296875q0.46875 0 1.046875 0.15625l-0.265625 1.234375zm1.0762634 -1.234375l1.25 0l0 -1.578125l1.28125 -0.375l0 1.953125l2.171875 0l0 1.125l-2.171875 0l0 4.421875q0 0.84375 0.203125 1.1875q0.21875 0.34375 0.703125 0.34375q0.421875 0 0.703125 -0.09375q0.296875 -0.09375 0.640625 -0.234375l0.296875 0.984375q-0.4375 0.203125 -0.953125 0.328125q-0.5 0.125 -1.09375 0.125q-0.984375 0 -1.390625 -0.546875q-0.390625 -0.546875 -0.390625 -1.84375l0 -4.671875l-1.25 0l0 -1.125z" fill-rule="nonzero"/><path fill="#000000" fill-opacity="0.0" d="m221.94688 81.77428l23.67775 0l0 22.614174l-23.67775 0z" fill-rule="evenodd"/><path fill="#000000" d="m231.94623 89.600525q0 0.984375 -0.375 2.03125q-0.359375 1.03125 -0.953125 2.078125q-0.578125 1.046875 -1.3125 2.046875q-0.71875 0.984375 -1.453125 1.890625l-0.90625 0.796875l0 0.078125l1.1875 -0.203125l4.0625 0l0 1.375l-7.421875 0l0 -0.546875q0.40625 -0.421875 0.984375 -1.046875q0.578125 -0.640625 1.203125 -1.40625q0.625 -0.78125 1.234375 -1.640625q0.609375 -0.875 1.09375 -1.765625q0.5 -0.90625 0.796875 -1.78125q0.296875 -0.875 0.296875 -1.65625q0 -0.921875 -0.515625 -1.53125q-0.515625 -0.609375 -1.578125 -0.609375q-0.71875 0 -1.390625 0.296875q-0.671875 0.28125 -1.15625 0.65625l-0.609375 -1.0625q0.65625 -0.5625 1.546875 -0.875q0.890625 -0.3125 1.921875 -0.3125q0.796875 0 1.40625 0.234375q0.625 0.234375 1.046875 0.671875q0.4375 0.421875 0.65625 1.015625q0.234375 0.578125 0.234375 1.265625zm3.8551636 8.71875l2.609375 0l0 -9.03125l0.1875 -1.109375l-0.75 0.875l-2.046875 1.484375l-0.703125 -0.953125l4.09375 -3.171875l0.671875 0l0 11.90625l2.5625 0l0 1.375l-6.625 0l0 -1.375z" fill-rule="nonzero"/><path fill="#000000" fill-opacity="0.0" d="m144.38417 59.89609c0 16.598423 38.774902 33.19685 77.54979 33.19685" fill-rule="evenodd"/><path stroke="#000000" stroke-width="1.0" stroke-linejoin="round" stroke-linecap="butt" d="m144.38417 59.89609c0 16.598423 38.774902 33.19685 77.54979 33.19685" fill-rule="evenodd"/><path fill="#000000" fill-opacity="0.0" d="m245.62463 93.08136c43.448517 0 86.897064 -18.09449 86.897064 -36.188976" fill-rule="evenodd"/><path stroke="#000000" stroke-width="1.0" stroke-linejoin="round" stroke-linecap="butt" d="m245.62463 93.08137c21.724274 0 43.448517 -4.523628 59.74173 -11.309059c8.146606 -3.392723 14.935425 -7.350891 19.687592 -11.591782c2.3761292 -2.120453 4.243042 -4.3115845 5.5159607 -6.5380516c0.3182068 -0.5566139 0.5993042 -1.1154442 0.84198 -1.6759262c0.12130737 -0.28024292 0.23300171 -0.5608978 0.33496094 -0.84189606c0.050964355 -0.14050293 0.099487305 -0.28108597 0.14553833 -0.42175293l0.13006592 -0.41999054" fill-rule="evenodd"/><path fill="#000000" stroke="#000000" stroke-width="1.0" stroke-linecap="butt" d="m332.02246 60.28291l0.948761 1.276413l-0.6625061 -3.2206306l-1.5626831 2.8929825z" fill-rule="evenodd"/><path fill="#000000" fill-opacity="0.0" d="m247.97717 1.1076074l23.677765 0l0 22.614174l-23.677765 0z" fill-rule="evenodd"/><path fill="#000000" d="m251.66402 17.652605l2.609375 0l0 -9.03125l0.1875 -1.1093745l-0.75 0.8749995l-2.046875 1.484375l-0.703125 -0.953125l4.09375 -3.1718745l0.671875 0l0 11.90625l2.5624847 0l0 1.375l-6.6249847 0l0 -1.375zm9.120773 -7.734375q0 -0.890625 0.265625 -1.65625q0.265625 -0.7656245 0.765625 -1.3281245q0.5 -0.5625 1.25 -0.875q0.765625 -0.3125 1.765625 -0.3125q1.90625 0 2.96875 1.234375q1.0625 1.2187495 1.0625 3.4687495q0 2.109375 -0.484375 3.6875q-0.46875 1.5625 -1.3125 2.65625q-0.828125 1.078125 -1.984375 1.6875q-1.140625 0.609375 -2.484375 0.765625l-0.34375 -1.1875q1.09375 -0.171875 1.953125 -0.640625q0.875 -0.46875 1.5 -1.171875q0.625 -0.703125 1.015625 -1.609375q0.390625 -0.90625 0.53125 -1.96875q-0.5 0.59375 -1.109375 0.828125q-0.59375 0.234375 -1.59375 0.234375q-0.765625 0 -1.453125 -0.25q-0.671875 -0.25 -1.203125 -0.734375q-0.515625 -0.484375 -0.8125 -1.1875q-0.296875 -0.71875 -0.296875 -1.640625zm1.546875 -0.140625q0 1.328125 0.703125 1.984375q0.703125 0.65625 1.84375 0.65625q0.90625 0 1.5625 -0.296875q0.65625 -0.296875 0.9375 -0.78125q0.03125 -0.234375 0.03125 -0.421875q0 -0.1875 0 -0.390625q0 -0.671875 -0.15625 -1.296875q-0.15625 -0.625 -0.484375 -1.125q-0.3125 -0.49999952 -0.828125 -0.7812495q-0.515625 -0.28125 -1.203125 -0.28125q-1.140625 0 -1.78125 0.71875q-0.625 0.7187495 -0.625 2.0156245z" fill-rule="nonzero"/><path fill="#000000" fill-opacity="0.0" d="m247.97717 12.414694c-51.79323 0 -103.58647 20.582678 -103.58647 41.16535" fill-rule="evenodd"/><path stroke="#000000" stroke-width="1.0" stroke-linejoin="round" stroke-linecap="butt" d="m247.97717 12.414695c-25.896622 0 -51.793243 5.145669 -71.21571 12.864171c-9.711227 3.859253 -17.80391 8.361713 -23.468796 13.18578c-2.8324432 2.4120293 -5.0579376 4.9044647 -6.5753174 7.4370995c-0.7586975 1.2663155 -1.3403625 2.5426865 -1.7323456 3.8240738c-0.024490356 0.08008957 -0.04826355 0.16019821 -0.0712738 0.24032211l-0.06062317 0.21815872" fill-rule="evenodd"/><path fill="#000000" stroke="#000000" stroke-width="1.0" stroke-linecap="butt" d="m144.8531 50.1843l-0.96255493 -1.266037l0.69740295 3.213253l1.5312042 -2.9097748z" fill-rule="evenodd"/><path fill="#000000" fill-opacity="0.0" d="m271.65494 12.414694c30.430176 0 60.86035 19.070866 60.86035 38.14173" fill-rule="evenodd"/><path stroke="#000000" stroke-width="1.0" stroke-linejoin="round" stroke-linecap="butt" d="m271.65494 12.414694c30.430176 0 60.86035 19.070866 60.86035 38.14173" fill-rule="evenodd"/><path fill="#000000" fill-opacity="0.0" d="m137.23634 56.7336c0 -2.4700623 1.8746338 -4.4724426 4.1871033 -4.4724426c1.1104889 0 2.1754913 0.47120285 2.9607239 1.309948c0.78523254 0.8387451 1.2263794 1.9763298 1.2263794 3.1624947c0 2.4700584 -1.8746338 4.472439 -4.1871033 4.472439c-2.3124695 0 -4.1871033 -2.0023804 -4.1871033 -4.472439z" fill-rule="evenodd"/><path fill="#000000" fill-opacity="0.0" d="m331.29816 53.7336c0 -2.4700623 1.8746338 -4.4724426 4.1871033 -4.4724426c1.1105042 0 2.1755066 0.47120285 2.9607239 1.309948c0.7852478 0.8387451 1.2263794 1.9763298 1.2263794 3.1624947c0 2.4700584 -1.8746338 4.472439 -4.1871033 4.472439c-2.3124695 0 -4.1871033 -2.0023804 -4.1871033 -4.472439z" fill-rule="evenodd"/><path shape-rendering="crispEdges" fill="#ffffff" d="m441.02502 33.27682l38.448822 0l0 38.942257l-38.448822 0l0 -38.942257z" fill-rule="nonzero"/><path shape-rendering="crispEdges" fill="#ffffff" d="m479.47385 33.27682l38.448822 0l0 38.942257l-38.448822 0l0 -38.942257z" fill-rule="nonzero"/><path shape-rendering="crispEdges" fill="#ffffff" d="m517.92267 33.27682l38.44879 0l0 38.942257l-38.44879 0l0 -38.942257z" fill-rule="nonzero"/><path shape-rendering="crispEdges" fill="#ffffff" d="m556.37146 33.27682l38.448853 0l0 38.942257l-38.448853 0l0 -38.942257z" fill-rule="nonzero"/><path shape-rendering="crispEdges" fill="#ffffff" d="m594.8203 33.27682l38.44879 0l0 38.942257l-38.44879 0l0 -38.942257z" fill-rule="nonzero"/><path shape-rendering="crispEdges" fill="#ffffff" d="m633.2691 33.27682l38.448853 0l0 38.942257l-38.448853 0l0 -38.942257z" fill-rule="nonzero"/><path shape-rendering="crispEdges" fill="#ffffff" d="m671.71796 33.27682l38.44879 0l0 38.942257l-38.44879 0l0 -38.942257z" fill-rule="nonzero"/><path shape-rendering="crispEdges" fill="#ffffff" d="m710.16675 33.27682l38.448853 0l0 38.942257l-38.448853 0l0 -38.942257z" fill-rule="nonzero"/><path shape-rendering="crispEdges" fill="#ffffff" d="m748.6156 33.27682l38.44879 0l0 38.942257l-38.44879 0l0 -38.942257z" fill-rule="nonzero"/><path shape-rendering="crispEdges" fill="#ffffff" d="m787.0644 33.27682l38.448853 0l0 38.942257l-38.448853 0l0 -38.942257z" fill-rule="nonzero"/><path stroke="#000000" stroke-width="2.0" stroke-linecap="butt" d="m441.02502 32.27682l0 40.942257" fill-rule="nonzero"/><path stroke="#000000" stroke-width="2.0" stroke-linecap="butt" d="m479.47385 32.27682l0 40.942257" fill-rule="nonzero"/><path stroke="#000000" stroke-width="2.0" stroke-linecap="butt" d="m517.92267 32.27682l0 40.942257" fill-rule="nonzero"/><path stroke="#000000" stroke-width="2.0" stroke-linecap="butt" d="m556.37146 32.27682l0 40.942257" fill-rule="nonzero"/><path stroke="#000000" stroke-width="2.0" stroke-linecap="butt" d="m594.8203 32.27682l0 40.942257" fill-rule="nonzero"/><path stroke="#000000" stroke-width="2.0" stroke-linecap="butt" d="m633.2691 32.27682l0 40.942257" fill-rule="nonzero"/><path stroke="#000000" stroke-width="2.0" stroke-linecap="butt" d="m671.71796 32.27682l0 40.942257" fill-rule="nonzero"/><path stroke="#000000" stroke-width="2.0" stroke-linecap="butt" d="m710.16675 32.27682l0 40.942257" fill-rule="nonzero"/><path stroke="#000000" stroke-width="2.0" stroke-linecap="butt" d="m748.6156 32.27682l0 40.942257" fill-rule="nonzero"/><path stroke="#000000" stroke-width="2.0" stroke-linecap="butt" d="m787.0644 32.27682l0 40.942257" fill-rule="nonzero"/><path stroke="#000000" stroke-width="2.0" stroke-linecap="butt" d="m825.51324 32.27682l0 40.942257" fill-rule="nonzero"/><path stroke="#000000" stroke-width="2.0" stroke-linecap="butt" d="m440.02502 33.27682l386.48822 0" fill-rule="nonzero"/><path stroke="#000000" stroke-width="2.0" stroke-linecap="butt" d="m440.02502 72.21908l386.48822 0" fill-rule="nonzero"/><path fill="#000000" d="m456.13437 50.358574q0 -0.890625 0.265625 -1.65625q0.265625 -0.765625 0.765625 -1.328125q0.5 -0.5625 1.25 -0.875q0.765625 -0.3125 1.765625 -0.3125q1.90625 0 2.96875 1.234375q1.0625 1.21875 1.0625 3.46875q0 2.109375 -0.484375 3.6875q-0.46875 1.5625 -1.3125 2.65625q-0.828125 1.078125 -1.984375 1.6875q-1.140625 0.609375 -2.484375 0.765625l-0.34375 -1.1875q1.09375 -0.171875 1.953125 -0.640625q0.875 -0.46875 1.5 -1.171875q0.625 -0.703125 1.015625 -1.609375q0.390625 -0.90625 0.53125 -1.96875q-0.5 0.59375 -1.109375 0.828125q-0.59375 0.234375 -1.59375 0.234375q-0.765625 0 -1.453125 -0.25q-0.671875 -0.25 -1.203125 -0.734375q-0.515625 -0.484375 -0.8125 -1.1875q-0.296875 -0.71875 -0.296875 -1.640625zm1.546875 -0.140625q0 1.328125 0.703125 1.984375q0.703125 0.65625 1.84375 0.65625q0.90625 0 1.5625 -0.296875q0.65625 -0.296875 0.9375 -0.78125q0.03125 -0.234375 0.03125 -0.421875q0 -0.1875 0 -0.390625q0 -0.671875 -0.15625 -1.296875q-0.15625 -0.625 -0.484375 -1.125q-0.3125 -0.5 -0.828125 -0.78125q-0.515625 -0.28125 -1.203125 -0.28125q-1.140625 0 -1.78125 0.71875q-0.625 0.71875 -0.625 2.015625z" fill-rule="nonzero"/><path fill="#000000" d="m490.54623 58.09295l2.609375 0l0 -9.03125l0.1875 -1.109375l-0.75 0.875l-2.046875 1.484375l-0.703125 -0.953125l4.09375 -3.171875l0.671875 0l0 11.90625l2.5625 0l0 1.375l-6.625 0l0 -1.375zm17.933289 -2.640625l-2.203125 0l0 4.015625l-1.453125 0l0 -4.015625l-5.75 0l0 -0.609375l6.1875 -8.640625l1.015625 0l0 7.953125l2.203125 0l0 1.296875zm-3.65625 -5.375l0.1875 -1.515625l-0.0625 0l-0.65625 1.265625l-2.625 3.5625l-0.890625 0.90625l1.296875 -0.140625l2.75 0l0 -4.078125z" fill-rule="nonzero"/><path fill="#000000" d="m528.99506 58.09295l2.609375 0l0 -9.03125l0.1875 -1.109375l-0.75 0.875l-2.046875 1.484375l-0.703125 -0.953125l4.09375 -3.171875l0.671875 0l0 11.90625l2.5625 0l0 1.375l-6.625 0l0 -1.375zm9.417664 -1.734375q0 -1.1875 0.609375 -2.046875q0.625 -0.875 1.9375 -1.578125q-0.46875 -0.28125 -0.875 -0.578125q-0.40625 -0.3125 -0.71875 -0.703125q-0.296875 -0.390625 -0.484375 -0.875q-0.171875 -0.5 -0.171875 -1.125q0 -0.734375 0.25 -1.328125q0.265625 -0.59375 0.734375 -1.015625q0.46875 -0.4375 1.125 -0.671875q0.671875 -0.25 1.515625 -0.25q0.78125 0 1.40625 0.234375q0.640625 0.21875 1.078125 0.609375q0.4375 0.390625 0.671875 0.9375q0.25 0.53125 0.25 1.1875q0 1.0625 -0.484375 1.875q-0.484375 0.8125 -1.59375 1.59375q0.484375 0.28125 0.921875 0.625q0.4375 0.328125 0.765625 0.734375q0.328125 0.40625 0.515625 0.921875q0.1875 0.515625 0.1875 1.171875q0 0.796875 -0.265625 1.46875q-0.265625 0.65625 -0.765625 1.140625q-0.5 0.46875 -1.234375 0.734375q-0.734375 0.265625 -1.65625 0.265625q-0.90625 0 -1.59375 -0.25q-0.6875 -0.265625 -1.171875 -0.703125q-0.46875 -0.453125 -0.71875 -1.0625q-0.234375 -0.609375 -0.234375 -1.3125zm6.171875 -0.1875q0 -0.5625 -0.21875 -0.984375q-0.21875 -0.421875 -0.59375 -0.765625q-0.359375 -0.34375 -0.828125 -0.625q-0.46875 -0.28125 -0.96875 -0.546875q-1.140625 0.640625 -1.625 1.421875q-0.484375 0.78125 -0.484375 1.5q0 0.4375 0.140625 0.859375q0.15625 0.40625 0.453125 0.703125q0.3125 0.296875 0.75 0.484375q0.4375 0.171875 1.015625 0.171875q0.46875 0 0.890625 -0.140625q0.4375 -0.140625 0.75 -0.40625q0.328125 -0.28125 0.515625 -0.703125q0.203125 -0.421875 0.203125 -0.96875zm-4.421875 -6.765625q0 0.53125 0.203125 0.9375q0.21875 0.390625 0.5625 0.71875q0.34375 0.3125 0.78125 0.578125q0.453125 0.265625 0.9375 0.515625q0.84375 -0.65625 1.234375 -1.28125q0.40625 -0.640625 0.40625 -1.40625q0 -0.953125 -0.59375 -1.46875q-0.578125 -0.515625 -1.390625 -0.515625q-0.515625 0 -0.90625 0.171875q-0.390625 0.171875 -0.671875 0.4375q-0.28125 0.25 -0.421875 0.609375q-0.140625 0.34375 -0.140625 0.703125z" fill-rule="nonzero"/><path fill="#000000" d="m567.44385 58.09295l2.609375 0l0 -9.03125l0.1875 -1.109375l-0.75 0.875l-2.046875 1.484375l-0.703125 -0.953125l4.09375 -3.171875l0.671875 0l0 11.90625l2.5625 0l0 1.375l-6.625 0l0 -1.375zm9.120789 -7.734375q0 -0.890625 0.265625 -1.65625q0.265625 -0.765625 0.765625 -1.328125q0.5 -0.5625 1.25 -0.875q0.765625 -0.3125 1.765625 -0.3125q1.90625 0 2.96875 1.234375q1.0625 1.21875 1.0625 3.46875q0 2.109375 -0.484375 3.6875q-0.46875 1.5625 -1.3125 2.65625q-0.828125 1.078125 -1.984375 1.6875q-1.140625 0.609375 -2.484375 0.765625l-0.34375 -1.1875q1.09375 -0.171875 1.953125 -0.640625q0.875 -0.46875 1.5 -1.171875q0.625 -0.703125 1.015625 -1.609375q0.390625 -0.90625 0.53125 -1.96875q-0.5 0.59375 -1.109375 0.828125q-0.59375 0.234375 -1.59375 0.234375q-0.765625 0 -1.453125 -0.25q-0.671875 -0.25 -1.203125 -0.734375q-0.515625 -0.484375 -0.8125 -1.1875q-0.296875 -0.71875 -0.296875 -1.640625zm1.546875 -0.140625q0 1.328125 0.703125 1.984375q0.703125 0.65625 1.84375 0.65625q0.90625 0 1.5625 -0.296875q0.65625 -0.296875 0.9375 -0.78125q0.03125 -0.234375 0.03125 -0.421875q0 -0.1875 0 -0.390625q0 -0.671875 -0.15625 -1.296875q-0.15625 -0.625 -0.484375 -1.125q-0.3125 -0.5 -0.828125 -0.78125q-0.515625 -0.28125 -1.203125 -0.28125q-1.140625 0 -1.78125 0.71875q-0.625 0.71875 -0.625 2.015625z" fill-rule="nonzero"/><path fill="#000000" d="m646.68524 58.389824q0.640625 0 1.171875 -0.1875q0.546875 -0.1875 0.9375 -0.546875q0.390625 -0.375 0.609375 -0.875q0.234375 -0.5 0.234375 -1.09375q0 -1.3125 -0.78125 -1.9375q-0.765625 -0.640625 -2.125 -0.640625l-1.390625 0l0 -0.546875l2.6875 -4.140625l0.859375 -0.8125l-1.203125 0.1875l-3.703125 0l0 -1.390625l6.671875 0l0 0.546875l-2.96875 4.453125l-0.65625 0.546875l0 0.03125l0.625 -0.125q0.75 0.015625 1.375 0.265625q0.640625 0.25 1.109375 0.734375q0.46875 0.46875 0.734375 1.140625q0.265625 0.65625 0.265625 1.5q0 1.0 -0.359375 1.78125q-0.359375 0.78125 -0.96875 1.328125q-0.59375 0.53125 -1.421875 0.8125q-0.8125 0.265625 -1.734375 0.265625q-0.84375 0 -1.515625 -0.125q-0.671875 -0.125 -1.171875 -0.34375l0.390625 -1.3125q0.4375 0.203125 1.015625 0.34375q0.59375 0.140625 1.3125 0.140625zm9.777039 0q1.296875 0 2.125 -0.75q0.84375 -0.75 0.84375 -2.171875q0 -1.359375 -0.828125 -2.03125q-0.828125 -0.671875 -2.28125 -0.671875l-1.578125 0.09375l0 -6.453125l5.828125 0l0 1.390625l-4.421875 0l0 3.703125l0.796875 -0.03125q1.859375 0.015625 2.921875 1.03125q1.0625 1.0 1.0625 2.890625q0 1.03125 -0.359375 1.84375q-0.359375 0.8125 -0.96875 1.359375q-0.59375 0.546875 -1.421875 0.828125q-0.8125 0.265625 -1.75 0.265625q-0.84375 0 -1.421875 -0.09375q-0.578125 -0.09375 -1.078125 -0.28125l0.390625 -1.265625q0.421875 0.171875 0.921875 0.265625q0.5 0.078125 1.21875 0.078125z" fill-rule="nonzero"/><path fill="#000000" d="m689.10284 49.3742q0 0.984375 -0.375 2.03125q-0.359375 1.03125 -0.953125 2.078125q-0.578125 1.046875 -1.3125 2.046875q-0.71875 0.984375 -1.453125 1.890625l-0.90625 0.796875l0 0.078125l1.1875 -0.203125l4.0625 0l0 1.375l-7.421875 0l0 -0.546875q0.40625 -0.421875 0.984375 -1.046875q0.578125 -0.640625 1.203125 -1.40625q0.625 -0.78125 1.234375 -1.640625q0.609375 -0.875 1.09375 -1.765625q0.5 -0.90625 0.796875 -1.78125q0.296875 -0.875 0.296875 -1.65625q0 -0.921875 -0.515625 -1.53125q-0.515625 -0.609375 -1.578125 -0.609375q-0.71875 0 -1.390625 0.296875q-0.671875 0.28125 -1.15625 0.65625l-0.609375 -1.0625q0.65625 -0.5625 1.546875 -0.875q0.890625 -0.3125 1.921875 -0.3125q0.796875 0 1.40625 0.234375q0.625 0.234375 1.046875 0.671875q0.4375 0.421875 0.65625 1.015625q0.234375 0.578125 0.234375 1.265625zm3.8864136 10.09375l4.6875 -10.9375l0.828125 -0.90625l-1.109375 0.171875l-5.3125 0l0 -1.390625l7.796875 0l0 0.5l-5.375 12.5625l-1.515625 0z" fill-rule="nonzero"/><path fill="#000000" d="m766.0004 49.3742q0 0.984375 -0.375 2.03125q-0.359375 1.03125 -0.953125 2.078125q-0.578125 1.046875 -1.3125 2.046875q-0.71875 0.984375 -1.453125 1.890625l-0.90625 0.796875l0 0.078125l1.1875 -0.203125l4.0625 0l0 1.375l-7.421875 0l0 -0.546875q0.40625 -0.421875 0.984375 -1.046875q0.578125 -0.640625 1.203125 -1.40625q0.625 -0.78125 1.234375 -1.640625q0.609375 -0.875 1.09375 -1.765625q0.5 -0.90625 0.796875 -1.78125q0.296875 -0.875 0.296875 -1.65625q0 -0.921875 -0.515625 -1.53125q-0.515625 -0.609375 -1.578125 -0.609375q-0.71875 0 -1.390625 0.296875q-0.671875 0.28125 -1.15625 0.65625l-0.609375 -1.0625q0.65625 -0.5625 1.546875 -0.875q0.890625 -0.3125 1.921875 -0.3125q0.796875 0 1.40625 0.234375q0.625 0.234375 1.046875 0.671875q0.4375 0.421875 0.65625 1.015625q0.234375 0.578125 0.234375 1.265625zm3.8551636 8.71875l2.609375 0l0 -9.03125l0.1875 -1.109375l-0.75 0.875l-2.046875 1.484375l-0.703125 -0.953125l4.09375 -3.171875l0.671875 0l0 11.90625l2.5625 0l0 1.375l-6.625 0l0 -1.375z" fill-rule="nonzero"/><path fill="#000000" d="m800.4805 58.389824q0.640625 0 1.171875 -0.1875q0.546875 -0.1875 0.9375 -0.546875q0.390625 -0.375 0.609375 -0.875q0.234375 -0.5 0.234375 -1.09375q0 -1.3125 -0.78125 -1.9375q-0.765625 -0.640625 -2.125 -0.640625l-1.390625 0l0 -0.546875l2.6875 -4.140625l0.859375 -0.8125l-1.203125 0.1875l-3.703125 0l0 -1.390625l6.671875 0l0 0.546875l-2.96875 4.453125l-0.65625 0.546875l0 0.03125l0.625 -0.125q0.75 0.015625 1.375 0.265625q0.640625 0.25 1.109375 0.734375q0.46875 0.46875 0.734375 1.140625q0.265625 0.65625 0.265625 1.5q0 1.0 -0.359375 1.78125q-0.359375 0.78125 -0.96875 1.328125q-0.59375 0.53125 -1.421875 0.8125q-0.8125 0.265625 -1.734375 0.265625q-0.84375 0 -1.515625 -0.125q-0.671875 -0.125 -1.171875 -0.34375l0.390625 -1.3125q0.4375 0.203125 1.015625 0.34375q0.59375 0.140625 1.3125 0.140625zm7.8239136 -0.296875l2.609375 0l0 -9.03125l0.1875 -1.109375l-0.75 0.875l-2.046875 1.484375l-0.703125 -0.953125l4.09375 -3.171875l0.671875 0l0 11.90625l2.5625 0l0 1.375l-6.625 0l0 -1.375z" fill-rule="nonzero"/><path fill="#000000" fill-opacity="0.0" d="m613.41455 105.48293l0 -30.866142" fill-rule="evenodd"/><path stroke="#000000" stroke-width="2.0" stroke-linejoin="round" stroke-linecap="butt" d="m613.41455 105.48294l0 -24.011978" fill-rule="evenodd"/><path fill="#000000" stroke="#000000" stroke-width="2.0" stroke-linecap="butt" d="m613.41455 81.47096l2.2492065 2.2491684l-2.2492065 -6.179535l-2.2491455 6.179535z" fill-rule="evenodd"/><path fill="#000000" fill-opacity="0.0" d="m631.35156 105.48293l-35.874023 0l0 18.897636l35.874023 0z" fill-rule="evenodd"/><path fill="#000000" d="m599.6672 113.47301l0 -0.390625q0.234375 -0.109375 0.53125 -0.203125q0.3125 -0.109375 0.625 -0.1875q0.328125 -0.078125 0.609375 -0.125q0.296875 -0.0625 0.515625 -0.0625l0.296875 0.1875l-1.515625 7.109375l1.1875 0l0 0.40625q-0.328125 0.265625 -0.78125 0.421875q-0.453125 0.15625 -0.875 0.15625q-0.46875 0 -0.671875 -0.203125q-0.203125 -0.203125 -0.203125 -0.484375q0 -0.3125 0.046875 -0.609375q0.046875 -0.3125 0.140625 -0.6875l1.109375 -5.171875l-1.015625 -0.15625zm1.28125 -3.546875q0 -0.421875 0.25 -0.65625q0.265625 -0.234375 0.671875 -0.234375q0.453125 0 0.703125 0.234375q0.265625 0.234375 0.265625 0.65625q0 0.390625 -0.265625 0.625q-0.25 0.21875 -0.703125 0.21875q-0.40625 0 -0.671875 -0.21875q-0.25 -0.234375 -0.25 -0.625z" fill-rule="nonzero"/><path fill="#000000" d="m607.87115 113.37926l6.78125 0l0 1.15625l-6.78125 0l0 -1.15625zm0 2.65625l6.78125 0l0 1.15625l-6.78125 0l0 -1.15625zm20.10205 1.21875l-1.890625 0l0 3.4375l-1.25 0l0 -3.4375l-4.9375 0l0 -0.53125l5.3125 -7.40625l0.875 0l0 6.8125l1.890625 0l0 1.125zm-3.140625 -4.609375l0.15625 -1.3125l-0.046875 0l-0.5625 1.09375l-2.25 3.046875l-0.765625 0.78125l1.109375 -0.125l2.359375 0l0 -3.484375z" fill-rule="nonzero"/><path fill="#000000" fill-opacity="0.0" d="m729.8357 105.48302l0 -30.866142" fill-rule="evenodd"/><path stroke="#000000" stroke-width="2.0" stroke-linejoin="round" stroke-linecap="butt" d="m729.8357 105.48301l0 -24.011963" fill-rule="evenodd"/><path fill="#000000" stroke="#000000" stroke-width="2.0" stroke-linecap="butt" d="m729.8357 81.47105l2.2492065 2.2491684l-2.2492065 -6.179535l-2.2491455 6.179535z" fill-rule="evenodd"/><path fill="#000000" fill-opacity="0.0" d="m767.379 105.48302l-75.08667 0l0 18.897636l75.08667 0z" fill-rule="evenodd"/><path fill="#000000" d="m708.2247 115.89496q0.09375 -0.390625 0.1875 -0.796875q0.09375 -0.421875 0.109375 -0.6875q-0.015625 -0.421875 -0.140625 -0.671875q-0.125 -0.25 -0.484375 -0.25q-0.390625 0 -0.796875 0.3125q-0.390625 0.296875 -0.75 0.765625q-0.359375 0.46875 -0.65625 1.015625q-0.296875 0.53125 -0.484375 1.015625l-0.984375 4.09375l-1.28125 0l1.015625 -4.5q0.109375 -0.484375 0.1875 -0.9375q0.078125 -0.46875 0.078125 -0.96875q0 -0.359375 -0.125 -0.578125q-0.125 -0.21875 -0.453125 -0.21875q-0.3125 0 -0.703125 0.3125q-0.375 0.296875 -0.75 0.765625q-0.359375 0.46875 -0.671875 1.015625q-0.3125 0.53125 -0.515625 1.03125l-0.84375 4.078125l-1.375 0l1.484375 -7.078125l-0.96875 -0.140625l0 -0.390625q0.53125 -0.28125 1.140625 -0.421875q0.609375 -0.15625 1.0625 -0.15625l0.34375 0.1875l-0.703125 2.828125l0.0625 0q0.1875 -0.4375 0.53125 -0.96875q0.34375 -0.53125 0.78125 -0.984375q0.453125 -0.453125 0.96875 -0.75q0.515625 -0.3125 1.03125 -0.3125q0.1875 0 0.375 0.0625q0.1875 0.0625 0.328125 0.234375q0.15625 0.15625 0.25 0.453125q0.09375 0.28125 0.09375 0.734375q0 0.34375 -0.078125 0.75q-0.0625 0.40625 -0.15625 0.78125q0.234375 -0.546875 0.59375 -1.078125q0.375 -0.53125 0.8125 -0.953125q0.4375 -0.4375 0.921875 -0.703125q0.484375 -0.28125 1.0 -0.28125q0.609375 0 0.921875 0.390625q0.3125 0.375 0.3125 1.046875q0 0.515625 -0.109375 0.96875q-0.09375 0.453125 -0.203125 0.984375l-1.03125 3.90625l1.171875 0l0 0.40625q-0.3125 0.265625 -0.78125 0.421875q-0.453125 0.15625 -0.875 0.15625q-0.46875 0 -0.640625 -0.203125q-0.171875 -0.203125 -0.171875 -0.5q0 -0.46875 0.21875 -1.28125l0.75 -2.90625zm3.8156128 -2.421875l0 -0.390625q0.234375 -0.109375 0.53125 -0.203125q0.3125 -0.109375 0.625 -0.1875q0.328125 -0.078125 0.609375 -0.125q0.296875 -0.0625 0.515625 -0.0625l0.296875 0.1875l-1.515625 7.109375l1.1875 0l0 0.40625q-0.328125 0.265625 -0.78125 0.421875q-0.453125 0.15625 -0.875 0.15625q-0.46875 0 -0.671875 -0.203125q-0.203125 -0.203125 -0.203125 -0.484375q0 -0.3125 0.046875 -0.609375q0.046875 -0.3125 0.140625 -0.6875l1.109375 -5.171875l-1.015625 -0.15625zm1.28125 -3.546875q0 -0.421875 0.25 -0.65625q0.265625 -0.234375 0.671875 -0.234375q0.453125 0 0.703125 0.234375q0.265625 0.234375 0.265625 0.65625q0 0.390625 -0.265625 0.625q-0.25 0.21875 -0.703125 0.21875q-0.40625 0 -0.671875 -0.21875q-0.25 -0.234375 -0.25 -0.625zm8.182007 6.203125q0.109375 -0.5 0.203125 -0.921875q0.09375 -0.421875 0.09375 -0.828125q0 -0.375 -0.171875 -0.625q-0.171875 -0.265625 -0.53125 -0.265625q-0.4375 0 -0.890625 0.359375q-0.4375 0.34375 -0.828125 0.84375q-0.390625 0.5 -0.703125 1.03125q-0.296875 0.53125 -0.46875 0.890625l-0.84375 4.078125l-1.34375 0l1.40625 -7.078125l-0.96875 -0.140625l0.03125 -0.390625q0.21875 -0.125 0.5 -0.21875q0.28125 -0.109375 0.578125 -0.1875q0.296875 -0.078125 0.578125 -0.125q0.28125 -0.046875 0.515625 -0.046875l0.3125 0.1875l-0.59375 2.828125l0.078125 0q0.296875 -0.640625 0.6875 -1.1875q0.390625 -0.546875 0.828125 -0.953125q0.453125 -0.421875 0.921875 -0.640625q0.484375 -0.234375 0.984375 -0.234375q0.671875 0 0.984375 0.421875q0.3125 0.421875 0.3125 1.0625q0 0.34375 -0.078125 0.875q-0.078125 0.53125 -0.203125 1.0l-0.90625 3.9375l1.1875 0l0 0.40625q-0.328125 0.265625 -0.78125 0.421875q-0.453125 0.15625 -0.890625 0.15625q-0.453125 0 -0.640625 -0.1875q-0.171875 -0.1875 -0.171875 -0.421875q0 -0.296875 0.078125 -0.65625q0.078125 -0.359375 0.15625 -0.734375l0.578125 -2.65625zm6.7382812 4.5625l-4.09375 0l0.078125 -0.46875q0.703125 -0.28125 1.375 -0.375l2.0 -9.5q-0.3125 -0.0625 -0.609375 -0.15625q-0.28125 -0.109375 -0.59375 -0.234375l0.125 -0.46875l4.09375 0l-0.09375 0.46875q-0.328125 0.125 -0.703125 0.234375q-0.359375 0.09375 -0.6875 0.15625l-2.0 9.5q0.328125 0.0625 0.640625 0.15625q0.3125 0.09375 0.546875 0.21875l-0.078125 0.46875zm7.581787 -4.5625q0.109375 -0.5 0.203125 -0.921875q0.09375 -0.421875 0.09375 -0.828125q0 -0.375 -0.171875 -0.625q-0.171875 -0.265625 -0.53125 -0.265625q-0.4375 0 -0.890625 0.359375q-0.4375 0.34375 -0.828125 0.84375q-0.390625 0.5 -0.703125 1.03125q-0.296875 0.53125 -0.46875 0.890625l-0.84375 4.078125l-1.34375 0l1.40625 -7.078125l-0.96875 -0.140625l0.03125 -0.390625q0.21875 -0.125 0.5 -0.21875q0.28125 -0.109375 0.578125 -0.1875q0.296875 -0.078125 0.578125 -0.125q0.28125 -0.046875 0.515625 -0.046875l0.3125 0.1875l-0.59375 2.828125l0.078125 0q0.296875 -0.640625 0.6875 -1.1875q0.390625 -0.546875 0.828125 -0.953125q0.453125 -0.421875 0.921875 -0.640625q0.484375 -0.234375 0.984375 -0.234375q0.671875 0 0.984375 0.421875q0.3125 0.421875 0.3125 1.0625q0 0.34375 -0.078125 0.875q-0.078125 0.53125 -0.203125 1.0l-0.90625 3.9375l1.1875 0l0 0.40625q-0.328125 0.265625 -0.78125 0.421875q-0.453125 0.15625 -0.890625 0.15625q-0.453125 0 -0.640625 -0.1875q-0.171875 -0.1875 -0.171875 -0.421875q0 -0.296875 0.078125 -0.65625q0.078125 -0.359375 0.15625 -0.734375l0.578125 -2.65625zm5.722595 3.765625q0.421875 0 0.859375 -0.40625q0.4375 -0.40625 0.8125 -0.984375q0.390625 -0.578125 0.6875 -1.203125q0.3125 -0.625 0.484375 -1.046875l0.515625 -2.734375q-0.25 -0.15625 -0.453125 -0.203125q-0.1875 -0.0625 -0.5625 -0.078125q-0.765625 0.015625 -1.375 0.46875q-0.609375 0.453125 -1.03125 1.171875q-0.40625 0.703125 -0.625 1.59375q-0.21875 0.875 -0.21875 1.71875q0 0.8125 0.203125 1.265625q0.203125 0.4375 0.703125 0.4375zm2.515625 -2.34375q-0.203125 0.578125 -0.53125 1.171875q-0.3125 0.59375 -0.71875 1.078125q-0.40625 0.46875 -0.90625 0.78125q-0.484375 0.296875 -1.03125 0.296875q-1.671875 0 -1.671875 -2.421875q0 -1.140625 0.3125 -2.203125q0.328125 -1.0625 0.9375 -1.890625q0.609375 -0.828125 1.46875 -1.3125q0.859375 -0.5 1.96875 -0.5q0.421875 0 0.625 0.0625q0.203125 0.046875 0.53125 0.1875l0.609375 -3.015625l-1.125 -0.15625l0 -0.390625q0.234375 -0.09375 0.515625 -0.1875q0.296875 -0.09375 0.609375 -0.15625q0.3125 -0.078125 0.625 -0.140625q0.328125 -0.0625 0.609375 -0.09375l0.328125 0.125l-2.1875 11.03125l1.171875 0l0 0.390625q-0.328125 0.265625 -0.78125 0.421875q-0.4375 0.15625 -0.875 0.15625q-0.46875 0 -0.671875 -0.1875q-0.1875 -0.203125 -0.1875 -0.4375q0 -0.28125 0.109375 -0.9375q0.109375 -0.65625 0.328125 -1.671875l-0.0625 0zm9.247559 1.71875q-0.140625 0.296875 -0.421875 0.59375q-0.265625 0.28125 -0.640625 0.515625q-0.359375 0.234375 -0.828125 0.359375q-0.453125 0.140625 -0.984375 0.140625q-1.328125 0 -2.046875 -0.75q-0.703125 -0.765625 -0.703125 -2.109375q0 -1.140625 0.3125 -2.140625q0.328125 -1.015625 0.90625 -1.765625q0.578125 -0.75 1.390625 -1.171875q0.828125 -0.4375 1.84375 -0.4375q0.765625 0 1.3125 0.390625q0.546875 0.390625 0.546875 1.15625q0 1.140625 -1.125 1.796875q-1.125 0.65625 -3.640625 0.84375q-0.0625 0.265625 -0.09375 0.53125q-0.015625 0.25 -0.015625 0.5q0 0.953125 0.484375 1.5625q0.5 0.609375 1.4375 0.609375q0.296875 0 0.59375 -0.09375q0.296875 -0.09375 0.5625 -0.234375q0.265625 -0.15625 0.484375 -0.3125q0.21875 -0.15625 0.375 -0.296875l0.25 0.3125zm-1.671875 -6.078125q-0.6875 0.015625 -1.28125 0.65625q-0.59375 0.625 -1.015625 2.15625q1.5625 -0.046875 2.421875 -0.53125q0.859375 -0.5 0.859375 -1.359375q0 -0.328125 -0.203125 -0.609375q-0.1875 -0.296875 -0.78125 -0.3125zm5.888977 4.09375q-0.171875 0.1875 -0.40625 0.421875q-0.234375 0.21875 -0.46875 0.46875q-0.21875 0.234375 -0.40625 0.46875q-0.1875 0.234375 -0.3125 0.453125q-0.03125 0.109375 -0.046875 0.3125q0 0.203125 -0.015625 0.4375q0 0.234375 0 0.4375q0 0.203125 0.015625 0.296875q-0.265625 0.109375 -0.546875 0.15625q-0.28125 0.046875 -0.53125 0.046875q-0.53125 0 -0.890625 -0.203125q0.15625 -0.484375 0.59375 -1.078125q0.453125 -0.59375 1.0 -1.140625q0.546875 -0.5625 1.046875 -1.015625q0.515625 -0.46875 0.78125 -0.6875l-1.09375 -2.9375l-1.03125 -0.140625l0 -0.390625q0.109375 -0.0625 0.28125 -0.171875q0.1875 -0.109375 0.421875 -0.203125q0.234375 -0.09375 0.46875 -0.15625q0.234375 -0.0625 0.46875 -0.0625q0.34375 0 0.5 0.1875q0.171875 0.171875 0.265625 0.421875l0.78125 2.78125q0.375 -0.375 0.8125 -0.828125q0.4375 -0.46875 0.65625 -0.890625q0.015625 -0.109375 0.015625 -0.3125q0 -0.203125 -0.015625 -0.4375q-0.015625 -0.234375 -0.03125 -0.4375q-0.015625 -0.203125 -0.03125 -0.296875q0.28125 -0.09375 0.53125 -0.140625q0.265625 -0.0625 0.546875 -0.0625q0.515625 0 0.890625 0.203125q-0.09375 0.328125 -0.328125 0.703125q-0.21875 0.359375 -0.53125 0.734375q-0.296875 0.359375 -0.640625 0.71875q-0.34375 0.359375 -0.671875 0.671875q-0.3125 0.3125 -0.59375 0.5625q-0.265625 0.25 -0.4375 0.390625l1.15625 3.109375l1.046875 0.140625l0 0.390625q-0.09375 0.0625 -0.28125 0.171875q-0.1875 0.09375 -0.40625 0.1875q-0.21875 0.09375 -0.46875 0.15625q-0.234375 0.0625 -0.453125 0.0625q-0.328125 0 -0.515625 -0.171875q-0.171875 -0.171875 -0.25 -0.4375l-0.875 -2.890625z" fill-rule="nonzero"/><path fill="#000000" fill-opacity="0.0" d="m596.7925 75.908134c0 4.279114 -3.468933 7.7480316 -7.748047 7.7480316l-63.212585 0c-4.279114 0 -7.748047 3.4689102 -7.748047 7.7480316c0 -4.2791214 -3.468872 -7.7480316 -7.7480164 -7.7480316l-63.212616 0c-4.279114 0 -7.7480164 -3.4689178 -7.7480164 -7.7480316z" fill-rule="evenodd"/><path fill="#000000" fill-opacity="0.0" d="m596.7925 75.908134c0 4.279114 -3.468933 7.7480316 -7.748047 7.7480316l-63.212585 0c-4.279114 0 -7.748047 3.4689102 -7.748047 7.7480316c0 -4.2791214 -3.468872 -7.7480316 -7.7480164 -7.7480316l-63.212616 0c-4.279114 0 -7.7480164 -3.4689178 -7.7480164 -7.7480316" fill-rule="evenodd"/><path stroke="#000000" stroke-width="1.0" stroke-linejoin="round" stroke-linecap="butt" d="m596.7925 75.908134c0 4.279114 -3.468933 7.7480316 -7.748047 7.7480316l-63.212585 0c-4.279114 0 -7.748047 3.4689102 -7.748047 7.7480316c0 -4.2791214 -3.468872 -7.7480316 -7.7480164 -7.7480316l-63.212616 0c-4.279114 0 -7.7480164 -3.4689178 -7.7480164 -7.7480316" fill-rule="evenodd"/><path fill="#000000" fill-opacity="0.0" d="m471.91058 89.13437l92.346436 0l0 19.401573l-92.346436 0z" fill-rule="evenodd"/><path fill="#000000" d="m485.12173 102.42328q0 -0.484375 -0.296875 -0.75q-0.28125 -0.28125 -0.703125 -0.453125q-0.421875 -0.1875 -0.9375 -0.359375q-0.5 -0.171875 -0.921875 -0.4375q-0.421875 -0.265625 -0.71875 -0.671875q-0.28125 -0.421875 -0.28125 -1.125q0 -1.15625 0.65625 -1.6875q0.65625 -0.53125 1.828125 -0.53125q0.859375 0 1.4375 0.15625q0.59375 0.140625 1.03125 0.34375l-0.3125 1.0625q-0.359375 -0.171875 -0.890625 -0.3125q-0.515625 -0.140625 -1.109375 -0.140625q-0.703125 0 -1.03125 0.25q-0.328125 0.234375 -0.328125 0.828125q0 0.421875 0.28125 0.65625q0.296875 0.21875 0.71875 0.40625q0.421875 0.1875 0.921875 0.359375q0.515625 0.171875 0.9375 0.46875q0.421875 0.28125 0.703125 0.734375q0.296875 0.4375 0.296875 1.15625q0 0.5 -0.171875 0.953125q-0.15625 0.453125 -0.515625 0.78125q-0.359375 0.3125 -0.875 0.484375q-0.515625 0.1875 -1.21875 0.1875q-0.90625 0 -1.546875 -0.171875q-0.640625 -0.171875 -1.078125 -0.421875l0.390625 -1.078125q0.359375 0.203125 0.953125 0.390625q0.59375 0.171875 1.203125 0.171875q0.6875 0 1.125 -0.265625q0.453125 -0.28125 0.453125 -0.984375zm2.7672424 -1.828125q0 -2.03125 0.90625 -3.109375q0.90625 -1.078125 2.59375 -1.078125q0.90625 0 1.5625 0.296875q0.671875 0.296875 1.09375 0.84375q0.4375 0.546875 0.640625 1.328125q0.21875 0.78125 0.21875 1.71875q0 2.03125 -0.90625 3.109375q-0.90625 1.078125 -2.609375 1.078125q-0.890625 0 -1.5625 -0.296875q-0.65625 -0.296875 -1.09375 -0.84375q-0.421875 -0.546875 -0.640625 -1.328125q-0.203125 -0.78125 -0.203125 -1.71875zm1.328125 0q0 0.609375 0.125 1.171875q0.125 0.5625 0.375 0.984375q0.25 0.40625 0.671875 0.671875q0.421875 0.25 1.0 0.25q2.1875 0.015625 2.1875 -3.078125q0 -0.625 -0.125 -1.1875q-0.125 -0.5625 -0.375 -0.96875q-0.25 -0.421875 -0.671875 -0.671875q-0.421875 -0.25 -1.015625 -0.25q-2.171875 -0.015625 -2.171875 3.078125zm11.482269 -2.765625q-0.484375 -0.15625 -0.921875 -0.15625q-0.6875 0 -1.09375 0.375q-0.390625 0.375 -0.484375 0.953125l0 5.59375l-1.28125 0l0 -8.0l0.890625 0l0.25 0.96875l0.0625 0q0.296875 -0.53125 0.71875 -0.828125q0.421875 -0.296875 1.078125 -0.296875q0.46875 0 1.046875 0.15625l-0.265625 1.234375zm1.0762634 -1.234375l1.25 0l0 -1.578125l1.28125 -0.375l0 1.953125l2.171875 0l0 1.125l-2.171875 0l0 4.421875q0 0.84375 0.203125 1.1875q0.21875 0.34375 0.703125 0.34375q0.421875 0 0.703125 -0.09375q0.296875 -0.09375 0.640625 -0.234375l0.296875 0.984375q-0.4375 0.203125 -0.953125 0.328125q-0.5 0.125 -1.09375 0.125q-0.984375 0 -1.390625 -0.546875q-0.390625 -0.546875 -0.390625 -1.84375l0 -4.671875l-1.25 0l0 -1.125zm12.154297 7.359375q-0.484375 0.390625 -1.21875 0.609375q-0.7187805 0.21875 -1.5469055 0.21875q-0.90625 0 -1.578125 -0.296875q-0.671875 -0.296875 -1.109375 -0.84375q-0.421875 -0.546875 -0.640625 -1.3125q-0.203125 -0.78125 -0.203125 -1.734375q0 -2.046875 0.90625 -3.109375q0.921875 -1.078125 2.609375 -1.078125q0.546875 0 1.0937805 0.125q0.546875 0.109375 0.96875 0.453125q0.4375 0.328125 0.703125 0.953125q0.28125 0.609375 0.28125 1.609375q0 0.53125 -0.09375 1.171875l-5.1406555 0q0 0.703125 0.140625 1.25q0.15625 0.546875 0.453125 0.921875q0.3125 0.375 0.796875 0.578125q0.484375 0.203125 1.1875 0.203125q0.5469055 0 1.0781555 -0.1875q0.546875 -0.203125 0.828125 -0.453125l0.484375 0.921875zm-2.7656555 -6.4375q-0.9375 0 -1.515625 0.5q-0.5625 0.5 -0.671875 1.703125l3.9687805 0q0 -1.21875 -0.46875 -1.703125q-0.453125 -0.5 -1.3125305 -0.5zm11.190521 4.328125q0 0.8125 0.015625 1.484375q0.015625 0.65625 0.140625 1.296875l-0.859375 0l-0.3125 -1.140625l-0.078125 0q-0.3125 0.5625 -0.921875 0.9375q-0.609375 0.359375 -1.421875 0.359375q-1.59375 0 -2.375 -1.0q-0.78125 -1.015625 -0.78125 -3.15625q0 -2.046875 0.96875 -3.109375q0.96875 -1.0625 2.671875 -1.0625q0.59375 0 0.9375 0.0625q0.34375 0.0625 0.734375 0.203125l0 -3.328125l1.28125 0l0 8.453125zm-3.234375 1.828125q0.8125 0 1.296875 -0.421875q0.484375 -0.4375 0.65625 -1.296875l0 -3.96875q-0.28125 -0.21875 -0.65625 -0.3125q-0.359375 -0.109375 -0.96875 -0.109375q-1.109375 0 -1.734375 0.734375q-0.625 0.734375 -0.625 2.328125q0 0.65625 0.09375 1.21875q0.109375 0.5625 0.34375 0.96875q0.25 0.390625 0.640625 0.625q0.390625 0.234375 0.953125 0.234375zm9.973755 -7.078125l0.875 0l0.25 0.953125l0.0625 0q0.359375 -0.546875 0.9375 -0.84375q0.59375 -0.296875 1.34375 -0.296875q1.59375 0 2.375 0.953125q0.796875 0.9375 0.796875 3.078125q0 1.0 -0.265625 1.8125q-0.265625 0.8125 -0.75 1.375q-0.46875 0.546875 -1.15625 0.859375q-0.671875 0.296875 -1.515625 0.296875q-0.59375 0 -0.9375 -0.078125q-0.34375 -0.0625 -0.734375 -0.234375l0 3.328125l-1.28125 0l0 -11.203125zm3.234375 0.921875q-0.828125 0 -1.296875 0.4375q-0.46875 0.421875 -0.65625 1.28125l0 3.96875q0.28125 0.21875 0.640625 0.34375q0.375 0.125 0.984375 0.125q1.109375 0 1.75 -0.828125q0.65625 -0.828125 0.65625 -2.421875q0 -0.65625 -0.125 -1.1875q-0.109375 -0.546875 -0.359375 -0.921875q-0.234375 -0.375 -0.625 -0.578125q-0.390625 -0.21875 -0.96875 -0.21875zm5.296692 -0.328125q0.609375 -0.375 1.40625 -0.546875q0.8125 -0.171875 1.6875 -0.171875q0.84375 0 1.34375 0.21875q0.5 0.21875 0.765625 0.59375q0.265625 0.359375 0.34375 0.796875q0.09375 0.421875 0.09375 0.859375q0 0.953125 -0.046875 1.875q-0.046875 0.90625 -0.046875 1.71875q0 0.59375 0.046875 1.125q0.046875 0.515625 0.171875 0.96875l-0.9375 0l-0.34375 -1.125l-0.078125 0q-0.140625 0.234375 -0.359375 0.453125q-0.21875 0.203125 -0.515625 0.375q-0.296875 0.171875 -0.703125 0.28125q-0.40625 0.109375 -0.90625 0.109375q-0.515625 0 -0.96875 -0.15625q-0.4375 -0.15625 -0.765625 -0.453125q-0.3125 -0.296875 -0.5 -0.703125q-0.171875 -0.421875 -0.171875 -0.953125q0 -0.703125 0.28125 -1.171875q0.296875 -0.484375 0.8125 -0.765625q0.515625 -0.28125 1.25 -0.390625q0.734375 -0.125 1.609375 -0.125q0.21875 0 0.4375 0q0.21875 0 0.4375 0.03125q0.046875 -0.484375 0.046875 -0.859375q0 -0.875 -0.359375 -1.234375q-0.34375 -0.359375 -1.265625 -0.359375q-0.28125 0 -0.59375 0.046875q-0.3125 0.046875 -0.640625 0.125q-0.328125 0.0625 -0.625 0.171875q-0.28125 0.09375 -0.515625 0.21875l-0.390625 -0.953125zm2.265625 6.421875q0.453125 0 0.796875 -0.125q0.359375 -0.125 0.609375 -0.296875q0.265625 -0.1875 0.421875 -0.40625q0.171875 -0.234375 0.25 -0.4375l0 -1.328125q-0.21875 -0.015625 -0.453125 -0.015625q-0.234375 -0.015625 -0.453125 -0.015625q-0.5 0 -0.96875 0.0625q-0.46875 0.046875 -0.828125 0.203125q-0.359375 0.140625 -0.578125 0.40625q-0.21875 0.265625 -0.21875 0.671875q0 0.546875 0.390625 0.921875q0.40625 0.359375 1.03125 0.359375zm9.57666 -5.78125q-0.484375 -0.15625 -0.921875 -0.15625q-0.6875 0 -1.09375 0.375q-0.390625 0.375 -0.484375 0.953125l0 5.59375l-1.28125 0l0 -8.0l0.890625 0l0.25 0.96875l0.0625 0q0.296875 -0.53125 0.71875 -0.828125q0.421875 -0.296875 1.078125 -0.296875q0.46875 0 1.046875 0.15625l-0.265625 1.234375zm1.0762329 -1.234375l1.25 0l0 -1.578125l1.28125 -0.375l0 1.953125l2.171875 0l0 1.125l-2.171875 0l0 4.421875q0 0.84375 0.203125 1.1875q0.21875 0.34375 0.703125 0.34375q0.421875 0 0.703125 -0.09375q0.296875 -0.09375 0.640625 -0.234375l0.296875 0.984375q-0.4375 0.203125 -0.953125 0.328125q-0.5 0.125 -1.09375 0.125q-0.984375 0 -1.390625 -0.546875q-0.390625 -0.546875 -0.390625 -1.84375l0 -4.671875l-1.25 0l0 -1.125z" fill-rule="nonzero"/><path fill="#000000" fill-opacity="0.0" d="m658.2414 81.77428l23.677734 0l0 22.614174l-23.677734 0z" fill-rule="evenodd"/><path fill="#000000" d="m668.2407 89.600525q0 0.984375 -0.375 2.03125q-0.359375 1.03125 -0.953125 2.078125q-0.578125 1.046875 -1.3125 2.046875q-0.71875 0.984375 -1.453125 1.890625l-0.90625 0.796875l0 0.078125l1.1875 -0.203125l4.0625 0l0 1.375l-7.421875 0l0 -0.546875q0.40625 -0.421875 0.984375 -1.046875q0.578125 -0.640625 1.203125 -1.40625q0.625 -0.78125 1.234375 -1.640625q0.609375 -0.875 1.09375 -1.765625q0.5 -0.90625 0.796875 -1.78125q0.296875 -0.875 0.296875 -1.65625q0 -0.921875 -0.515625 -1.53125q-0.515625 -0.609375 -1.578125 -0.609375q-0.71875 0 -1.390625 0.296875q-0.671875 0.28125 -1.15625 0.65625l-0.609375 -1.0625q0.65625 -0.5625 1.546875 -0.875q0.890625 -0.3125 1.921875 -0.3125q0.796875 0 1.40625 0.234375q0.625 0.234375 1.046875 0.671875q0.4375 0.421875 0.65625 1.015625q0.234375 0.578125 0.234375 1.265625zm11.620789 6.078125l-2.203125 0l0 4.015625l-1.453125 0l0 -4.015625l-5.75 0l0 -0.609375l6.1875 -8.640625l1.015625 0l0 7.953125l2.203125 0l0 1.296875zm-3.65625 -5.375l0.1875 -1.515625l-0.0625 0l-0.65625 1.265625l-2.625 3.5625l-0.890625 0.90625l1.296875 -0.140625l2.75 0l0 -4.078125z" fill-rule="nonzero"/><path fill="#000000" fill-opacity="0.0" d="m615.0345 59.89609c0 16.598423 21.598938 33.19685 43.197876 33.19685" fill-rule="evenodd"/><path stroke="#000000" stroke-width="1.0" stroke-linejoin="round" stroke-linecap="butt" d="m615.0345 59.89609c0 16.598423 21.598938 33.19685 43.197876 33.19685" fill-rule="evenodd"/><path fill="#000000" fill-opacity="0.0" d="m681.9191 93.08136c23.825195 0 47.65033 -18.09449 47.65033 -36.188976" fill-rule="evenodd"/><path stroke="#000000" stroke-width="1.0" stroke-linejoin="round" stroke-linecap="butt" d="m681.9191 93.08137c11.912537 0 23.825195 -4.523628 32.759583 -11.309059c4.467285 -3.392723 8.190002 -7.350891 10.795776 -11.591782c1.3029785 -2.120453 2.3267212 -4.3115845 3.0247192 -6.5380516c0.17449951 -0.5566139 0.32861328 -1.1154442 0.46166992 -1.6759262c0.06652832 -0.28024292 0.12780762 -0.5608978 0.18371582 -0.84189606c0.027893066 -0.14050293 0.05456543 -0.28108597 0.079833984 -0.42175293l0.0670166 -0.3947258" fill-rule="evenodd"/><path fill="#000000" stroke="#000000" stroke-width="1.0" stroke-linecap="butt" d="m729.29144 60.30817l1.029602 1.21212l-0.8701782 -3.170826l-1.371582 2.9883423z" fill-rule="evenodd"/><path fill="#000000" fill-opacity="0.0" d="m662.79926 1.1076074l23.677734 0l0 22.614174l-23.677734 0z" fill-rule="evenodd"/><path fill="#000000" d="m672.7986 8.933855q0 0.984375 -0.375 2.03125q-0.359375 1.03125 -0.953125 2.078125q-0.578125 1.046875 -1.3125 2.046875q-0.71875 0.984375 -1.453125 1.890625l-0.90625 0.796875l0 0.078125l1.1875 -0.203125l4.0625 0l0 1.375l-7.421875 0l0 -0.546875q0.40625 -0.421875 0.984375 -1.046875q0.578125 -0.640625 1.203125 -1.40625q0.625 -0.78125 1.234375 -1.640625q0.609375 -0.875 1.09375 -1.765625q0.5 -0.90625 0.796875 -1.78125q0.296875 -0.875 0.296875 -1.65625q0 -0.921875 -0.515625 -1.5312495q-0.515625 -0.609375 -1.578125 -0.609375q-0.71875 0 -1.390625 0.296875q-0.671875 0.28125 -1.15625 0.65625l-0.609375 -1.0625q0.65625 -0.5625 1.546875 -0.875q0.890625 -0.3125 1.921875 -0.3125q0.796875 0 1.40625 0.234375q0.625 0.234375 1.046875 0.671875q0.4375 0.421875 0.65625 1.015625q0.234375 0.5781245 0.234375 1.2656245zm2.6364136 3.5625q0 -3.359375 1.09375 -5.0468745q1.09375 -1.703125 3.1875 -1.703125q2.25 0 3.265625 1.671875q1.015625 1.6718745 1.015625 5.0781245q0 3.359375 -1.09375 5.0625q-1.078125 1.6875 -3.1875 1.6875q-2.21875 0 -3.25 -1.765625q-1.03125 -1.78125 -1.03125 -4.984375zm1.546875 0q0 1.21875 0.15625 2.21875q0.171875 0.984375 0.5 1.703125q0.34375 0.71875 0.84375 1.125q0.515625 0.40625 1.234375 0.40625q1.421875 0 2.078125 -1.3125q0.65625 -1.328125 0.65625 -4.140625q0 -1.1875 -0.140625 -2.1875q-0.140625 -1.015625 -0.46875 -1.734375q-0.3125 -0.7343745 -0.84375 -1.1249995q-0.515625 -0.40625 -1.28125 -0.40625q-1.40625 0 -2.078125 1.3281245q-0.65625 1.328125 -0.65625 4.125z" fill-rule="nonzero"/><path fill="#000000" fill-opacity="0.0" d="m662.79926 12.414694c-23.884155 0 -47.76831 20.582678 -47.76831 41.16535" fill-rule="evenodd"/><path stroke="#000000" stroke-width="1.0" stroke-linejoin="round" stroke-linecap="butt" d="m662.79926 12.414695c-11.942078 0 -23.884155 5.145669 -32.8407 12.864171c-4.4782715 3.859253 -8.210205 8.361713 -10.82251 13.18578c-1.3061523 2.4120293 -2.3324585 4.9044647 -3.0321655 7.4370995c-0.34985352 1.2663155 -0.618103 2.5426865 -0.7988281 3.8240738l-0.057495117 0.4339943" fill-rule="evenodd"/><path fill="#000000" stroke="#000000" stroke-width="1.0" stroke-linecap="butt" d="m615.24756 50.159813l-1.0512695 -1.1934052l0.927063 3.1546593l1.3175659 -3.0125237z" fill-rule="evenodd"/><path fill="#000000" fill-opacity="0.0" d="m686.477 12.414694c21.539978 0 43.079956 19.070866 43.079956 38.14173" fill-rule="evenodd"/><path stroke="#000000" stroke-width="1.0" stroke-linejoin="round" stroke-linecap="butt" d="m686.477 12.414694c21.539978 0 43.079956 19.070866 43.079956 38.14173" fill-rule="evenodd"/><path fill="#000000" fill-opacity="0.0" d="m607.88666 56.7336c0 -2.4700623 1.8746338 -4.4724426 4.1870728 -4.4724426c1.1105347 0 2.175537 0.47120285 2.9607544 1.309948c0.7852173 0.8387451 1.2263794 1.9763298 1.2263794 3.1624947c0 2.4700584 -1.8746338 4.472439 -4.187134 4.472439c-2.312439 0 -4.1870728 -2.0023804 -4.1870728 -4.472439z" fill-rule="evenodd"/><path fill="#000000" fill-opacity="0.0" d="m728.32886 53.7336c0 -2.4700623 1.8746338 -4.4724426 4.1870728 -4.4724426c1.1104736 0 2.175476 0.47120285 2.9607544 1.309948c0.7852173 0.8387451 1.2263794 1.9763298 1.2263794 3.1624947c0 2.4700584 -1.8746338 4.472439 -4.187134 4.472439c-2.312439 0 -4.1870728 -2.0023804 -4.1870728 -4.472439z" fill-rule="evenodd"/></g></svg>