<svg version="1.1" viewBox="0.0 0.0 487.8267716535433 141.30971128608923" fill="none" stroke="none" stroke-linecap="square" stroke-miterlimit="10" xmlns:xlink="http://www.w3.org/1999/xlink" xmlns="http://www.w3.org/2000/svg"><clipPath id="p.0"><path d="m0 0l487.82678 0l0 141.30971l-487.82678 0l0 -141.30971z" clip-rule="nonzero"/></clipPath><g clip-path="url(#p.0)"><path fill="#000000" fill-opacity="0.0" d="m0 0l487.82678 0l0 141.30971l-487.82678 0z" fill-rule="evenodd"/><path fill="#000000" fill-opacity="0.0" d="m233.78426 26.701702c100.39369 0 200.7874 33.68504 200.7874 67.37009" fill-rule="evenodd"/><path stroke="#000000" stroke-width="2.0" stroke-linejoin="round" stroke-linecap="butt" stroke-dasharray="8.0,6.0" d="m241.36397 26.766235l1.8291321 0.03312683c3.1342316 0.064762115 6.265396 0.16139412 9.390457 0.28886414c6.2500916 0.25494003 12.4756775 0.63323784 18.652252 1.1266708c12.353119 0.986866 24.510162 2.4342709 36.275055 4.2764206c23.529785 3.6843033 45.490906 8.94759 64.31473 15.263538c18.823822 6.3159447 34.510315 13.684547 45.490875 21.579472c5.4902954 3.947464 9.804108 8.026512 12.7453 12.171349c0.18383789 0.2590561 0.36227417 0.51836395 0.53533936 0.77791595l0.24987793 0.380867" fill-rule="evenodd"/><path fill="#000000" stroke="#000000" stroke-width="2.0" stroke-linecap="butt" d="m234.78421 26.710217c0.015472412 -1.8169518 1.5009308 -3.27734 3.3178864 -3.2618713c1.8169556 0.015468597 3.2773438 1.5009384 3.2618713 3.3178902c-0.015472412 1.8169498 -1.500946 3.27734 -3.3178864 3.2618713c-1.8169556 -0.015470505 -3.2773438 -1.5009403 -3.2618713 -3.3178902z" fill-rule="nonzero"/><path fill="#000000" stroke="#000000" stroke-width="2.0" stroke-linecap="butt" d="m427.70667 83.68983l5.9574585 7.6025543l0.32315063 -9.653275z" fill-rule="evenodd"/><path fill="#000000" fill-opacity="0.0" d="m137.2769 13.977161c0 -3.5138187 2.8485107 -6.362332 6.362335 -6.362332l104.66116 0c1.6873932 0 3.3056793 0.67031527 4.4988403 1.8634839c1.1931763 1.1931686 1.8634949 2.8114529 1.8634949 4.498848l0 25.448563c0 3.5138206 -2.848526 6.362335 -6.362335 6.362335l-104.66116 0c-3.5138245 0 -6.362335 -2.8485146 -6.362335 -6.362335z" fill-rule="evenodd"/><path stroke="#000000" stroke-width="2.0" stroke-linejoin="round" stroke-linecap="butt" d="m137.2769 13.977161c0 -3.5138187 2.8485107 -6.362332 6.362335 -6.362332l104.66116 0c1.6873932 0 3.3056793 0.67031527 4.4988403 1.8634839c1.1931763 1.1931686 1.8634949 2.8114529 1.8634949 4.498848l0 25.448563c0 3.5138206 -2.848526 6.362335 -6.362335 6.362335l-104.66116 0c-3.5138245 0 -6.362335 -2.8485146 -6.362335 -6.362335z" fill-rule="evenodd"/><path fill="#000000" d="m174.03221 32.958294l-4.796875 0l0.125 -0.625q0.84375 -0.328125 1.671875 -0.5000019l8.421875 -14.0625l0.546875 0l2.421875 14.0625q0.375 0.078125 0.765625 0.2031269q0.40625 0.109375 0.71875 0.296875l-0.109375 0.625l-5.40625 0l0.109375 -0.625q0.953125 -0.3593769 1.875 -0.5000019l-0.640625 -3.90625l-5.015625 0l-2.28125 3.90625q0.921875 0.125 1.703125 0.5000019l-0.109375 0.625zm1.3125 -6.140627l4.21875 0l-0.6875 -4.53125l-0.046875 -1.828125l-0.03125 0l-0.859375 1.875l-2.59375 4.484375z" fill-rule="nonzero"/><path fill="#000000" fill-opacity="0.0" d="m219.73701 12.63871l14.047241 0l0 28.125984l-14.047241 0z" fill-rule="evenodd"/><path fill="#000000" fill-opacity="0.0" d="m221.82152 7.6148295l0 38.17323" fill-rule="evenodd"/><path stroke="#000000" stroke-width="2.0" stroke-linejoin="round" stroke-linecap="butt" d="m221.82152 7.6148295l0 38.17323" fill-rule="evenodd"/><path fill="#000000" fill-opacity="0.0" d="m339.37613 70.071785c39.795258 0 79.590546 12.0 79.590546 24.0" fill-rule="evenodd"/><path stroke="#999999" stroke-width="2.0" stroke-linejoin="round" stroke-linecap="butt" d="m346.95477 70.21441l0.80181885 0.031181335c0.3093567 0.012718201 0.6185608 0.026123047 0.92755127 0.04019928c0.6180115 0.028152466 1.23526 0.059005737 1.8515625 0.09251404c1.2326965 0.0670166 2.4617615 0.14465332 3.685913 0.23254395c4.8966675 0.3515625 9.715637 0.8671875 14.37915 1.5234375c9.327026 1.3125 18.032227 3.1875 25.493835 5.4375c3.7308044 1.125 7.1507263 2.34375 10.182007 3.6328125c1.515625 0.64453125 2.9341125 1.3066406 4.2457275 1.9833984c0.65582275 0.33837128 1.2849121 0.6804199 1.8860474 1.0257568c0.30056763 0.17266083 0.59420776 0.3461609 0.88064575 0.5204239l0.07980347 0.04927826" fill-rule="evenodd"/><path fill="#999999" stroke="#999999" stroke-width="2.0" stroke-linecap="butt" d="m340.37592 70.0906c0.034210205 -1.8166962 1.5346375 -3.2617035 3.3513489 -3.2275085c1.8166809 0.034187317 3.2616882 1.5346222 3.2275085 3.3513184c-0.034210205 1.8166962 -1.5346375 3.2617035 -3.3513184 3.2275162c-1.8167114 -0.034194946 -3.2617188 -1.5346298 -3.227539 -3.351326z" fill-rule="nonzero"/><path fill="#999999" stroke="#999999" stroke-width="2.0" stroke-linecap="butt" d="m408.81186 86.87505l8.303589 4.9336243l-3.1896362 -9.116821z" fill-rule="evenodd"/><path fill="#000000" fill-opacity="0.0" d="m242.8819 57.34724c0 -3.5138206 2.8485107 -6.3623314 6.36232 -6.3623314l104.66118 0c1.6873779 0 3.305664 0.6703148 4.4988403 1.8634834c1.1931763 1.1931686 1.8634949 2.811451 1.8634949 4.498848l0 25.448566c0 3.5138168 -2.8485413 6.3623276 -6.362335 6.3623276l-104.66118 0c-3.5138092 0 -6.36232 -2.8485107 -6.36232 -6.3623276z" fill-rule="evenodd"/><path stroke="#999999" stroke-width="2.0" stroke-linejoin="round" stroke-linecap="butt" d="m242.8819 57.34724c0 -3.5138206 2.8485107 -6.3623314 6.36232 -6.3623314l104.66118 0c1.6873779 0 3.305664 0.6703148 4.4988403 1.8634834c1.1931763 1.1931686 1.8634949 2.811451 1.8634949 4.498848l0 25.448566c0 3.5138168 -2.8485413 6.3623276 -6.362335 6.3623276l-104.66118 0c-3.5138092 0 -6.36232 -2.8485107 -6.36232 -6.3623276z" fill-rule="evenodd"/><path fill="#999999" d="m276.20114 76.32837l0.109375 -0.625q0.953125 -0.40625 1.875 -0.5l2.65625 -12.656246q-0.421875 -0.078125 -0.828125 -0.21875q-0.40625 -0.140625 -0.8125 -0.3125l0.15625 -0.625l2.25 0q0.796875 0 1.578125 -0.0625q0.796875 -0.0625 1.984375 -0.0625q0.859375 0 1.625 0.15625q0.765625 0.140625 1.34375 0.46875q0.578125 0.3125 0.921875 0.84375q0.34375 0.515625 0.34375 1.2812462q0 0.75 -0.234375 1.421875q-0.21875 0.671875 -0.6875 1.25q-0.46875 0.5625 -1.1875 0.984375q-0.71875 0.421875 -1.671875 0.671875l0 0.09375q0.484375 0.046875 1.0 0.21875q0.515625 0.171875 0.921875 0.5q0.421875 0.328125 0.671875 0.828125q0.265625 0.5 0.265625 1.1875q0 1.125 -0.4375 2.09375q-0.421875 0.953125 -1.265625 1.671875q-0.828125 0.703125 -2.109375 1.109375q-1.28125 0.40625 -2.984375 0.40625q-0.75 0 -1.65625 -0.0625q-0.90625 -0.0625 -1.78125 -0.0625l-2.046875 0zm5.875 -0.984375q0.875 0.03125 1.65625 -0.21875q0.796875 -0.265625 1.390625 -0.75q0.609375 -0.5 0.953125 -1.203125q0.359375 -0.71875 0.359375 -1.640625q0 -0.703125 -0.25 -1.15625q-0.234375 -0.453125 -0.703125 -0.6875q-0.453125 -0.234375 -1.09375 -0.3125q-0.640625 -0.078125 -1.4375 -0.078125l-1.609375 0l-1.25 5.875q0.28125 0.09375 0.6875 0.15625q0.40625 0.046875 1.296875 0.015625zm0.5625 -7.15625q0.359375 0 0.859375 -0.03125q0.5 -0.046875 0.859375 -0.078125q1.6875 -0.59375 2.34375 -1.609375q0.65625 -1.015625 0.65625 -2.21875q0 -0.8281212 -0.609375 -1.3437462q-0.59375 -0.53125 -2.0 -0.53125q-0.6875 0 -1.171875 0.03125q-0.46875 0.03125 -0.796875 0.078125l-1.203125 5.703121l1.0625 0z" fill-rule="nonzero"/><path fill="#000000" fill-opacity="0.0" d="m325.32886 56.00879l14.047272 0l0 28.125984l-14.047272 0z" fill-rule="evenodd"/><path fill="#000000" fill-opacity="0.0" d="m327.4134 50.98491l0 38.173225" fill-rule="evenodd"/><path stroke="#999999" stroke-width="2.0" stroke-linejoin="round" stroke-linecap="butt" d="m327.4134 50.98491l0 38.173225" fill-rule="evenodd"/><path fill="#000000" fill-opacity="0.0" d="m360.26773 100.4391c0 -3.5138168 2.8485107 -6.3623276 6.3623047 -6.3623276l104.66116 0c1.6874084 0 3.3056946 0.670311 4.498871 1.8634796c1.1931458 1.1931686 1.8634644 2.8114548 1.8634644 4.498848l0 25.448563c0 3.5138245 -2.8485107 6.362335 -6.362335 6.362335l-104.66116 0c-3.513794 0 -6.3623047 -2.8485107 -6.3623047 -6.362335z" fill-rule="evenodd"/><path stroke="#000000" stroke-width="2.0" stroke-linejoin="round" stroke-linecap="butt" d="m360.26773 100.4391c0 -3.5138168 2.8485107 -6.3623276 6.3623047 -6.3623276l104.66116 0c1.6874084 0 3.3056946 0.670311 4.498871 1.8634796c1.1931458 1.1931686 1.8634644 2.8114548 1.8634644 4.498848l0 25.448563c0 3.5138245 -2.8485107 6.362335 -6.362335 6.362335l-104.66116 0c-3.513794 0 -6.3623047 -2.8485107 -6.3623047 -6.362335z" fill-rule="evenodd"/><path fill="#000000" d="m405.56393 115.545235l0.53125 0q0 0.59375 -0.125 1.5q-0.109375 0.90625 -0.34375 1.75q-0.421875 0.234375 -0.921875 0.40625q-0.484375 0.171875 -1.015625 0.28125q-0.53125 0.109375 -1.046875 0.140625q-0.5 0.046875 -0.953125 0.046875q-1.8125 0 -3.078125 -0.5q-1.25 -0.515625 -2.03125 -1.34375q-0.78125 -0.84375 -1.140625 -1.859375q-0.34375 -1.03125 -0.34375 -2.046875q0 -2.171875 0.609375 -3.953125q0.625 -1.78125 1.765625 -3.046875q1.140625 -1.28125 2.765625 -1.984375q1.640625 -0.703125 3.6875 -0.703125q1.40625 0 2.390625 0.203125q0.984375 0.1875 1.640625 0.53125q-0.0625 0.328125 -0.1875 0.796875q-0.109375 0.453125 -0.265625 0.96875q-0.15625 0.515625 -0.328125 1.0q-0.171875 0.484375 -0.328125 0.890625l-0.546875 0l-0.453125 -3.0625q-0.28125 -0.109375 -0.84375 -0.15625q-0.5625 -0.0625 -1.09375 -0.0625q-1.40625 0 -2.609375 0.546875q-1.1875 0.546875 -2.0625 1.609375q-0.875 1.0625 -1.375 2.671875q-0.484375 1.59375 -0.484375 3.703125q0 1.328125 0.453125 2.234375q0.46875 0.90625 1.15625 1.46875q0.703125 0.546875 1.5 0.78125q0.8125 0.234375 1.546875 0.203125q0.71875 0.03125 1.21875 -0.09375q0.5 -0.140625 0.734375 -0.28125l1.578125 -2.640625z" fill-rule="nonzero"/><path fill="#000000" fill-opacity="0.0" d="m463.06903 104.01404l14.047241 0l0 28.125992l-14.047241 0z" fill-rule="evenodd"/><path fill="#000000" fill-opacity="0.0" d="m444.79922 94.076775l0 38.173225" fill-rule="evenodd"/><path stroke="#000000" stroke-width="2.0" stroke-linejoin="round" stroke-linecap="butt" d="m444.79922 94.076775l0 38.173225" fill-rule="evenodd"/><path fill="#000000" d="m454.82806 113.8822c0 -3.357193 2.721527 -6.0787354 6.0787354 -6.0787354c1.6121826 0 3.1583252 0.64043427 4.2983093 1.7804184c1.1399841 1.1399841 1.780426 2.6861343 1.780426 4.298317c0 3.3572006 -2.721527 6.078743 -6.0787354 6.078743c-3.3572083 0 -6.0787354 -2.7215424 -6.0787354 -6.078743z" fill-rule="evenodd"/><path fill="#000000" fill-opacity="0.0" d="m9.141732 36.960865c0 -6.502884 5.2716293 -11.774513 11.774514 -11.774513l74.12026 0c3.122795 0 6.117691 1.2405262 8.325844 3.4486752c2.2081451 2.208149 3.4486694 5.203043 3.4486694 8.325838l0 47.096645c0 6.502884 -5.2716293 11.774513 -11.774513 11.774513l-74.12026 0c-6.502885 0 -11.774514 -5.2716293 -11.774514 -11.774513z" fill-rule="evenodd"/><path stroke="#000000" stroke-width="2.0" stroke-linejoin="round" stroke-linecap="butt" d="m9.141732 36.960865c0 -6.502884 5.2716293 -11.774513 11.774514 -11.774513l74.12026 0c3.122795 0 6.117691 1.2405262 8.325844 3.4486752c2.2081451 2.208149 3.4486694 5.203043 3.4486694 8.325838l0 47.096645c0 6.502884 -5.2716293 11.774513 -11.774513 11.774513l-74.12026 0c-6.502885 0 -11.774514 -5.2716293 -11.774514 -11.774513z" fill-rule="evenodd"/><path fill="#000000" d="m21.699745 41.443115l1.46875 0l0 -2.0l2.765625 -0.78125l0 2.78125l2.609375 0l0 2.359375l-2.609375 0l0 4.09375q0 1.109375 0.21875 1.59375q0.234375 0.46875 0.859375 0.46875q0.421875 0 0.734375 -0.078125q0.3125 -0.09375 0.6875 -0.265625l0.5 2.140625q-0.578125 0.28125 -1.359375 0.46875q-0.765625 0.1875 -1.546875 0.1875q-1.46875 0 -2.171875 -0.75q-0.6875 -0.765625 -0.6875 -2.484375l0 -5.375l-1.46875 0l0 -2.359375zm7.9306183 5.34375q0 -2.71875 1.3125 -4.171875q1.328125 -1.46875 3.71875 -1.46875q1.28125 0 2.21875 0.40625q0.9375 0.40625 1.546875 1.140625q0.625 0.734375 0.9375 1.78125q0.3125 1.046875 0.3125 2.3125q0 2.703125 -1.3125 4.171875q-1.3125 1.453125 -3.703125 1.453125q-1.28125 0 -2.21875 -0.40625q-0.9375 -0.40625 -1.5625 -1.140625q-0.625 -0.734375 -0.9375 -1.78125q-0.3125 -1.046875 -0.3125 -2.296875zm2.859375 0q0 0.703125 0.125 1.296875q0.125 0.59375 0.375 1.046875q0.265625 0.453125 0.671875 0.703125q0.421875 0.234375 1.0 0.234375q1.09375 0 1.625 -0.78125q0.53125 -0.796875 0.53125 -2.5q0 -1.46875 -0.5 -2.375q-0.484375 -0.90625 -1.65625 -0.90625q-1.015625 0 -1.59375 0.765625q-0.578125 0.765625 -0.578125 2.515625zm9.109497 -5.34375l2.015625 0l0.328125 1.28125l0.078125 0q0.5625 -0.796875 1.3125 -1.1875q0.765625 -0.390625 1.84375 -0.390625q2.015625 0 3.015625 1.28125q1.0 1.265625 1.0 4.078125q0 1.359375 -0.328125 2.46875q-0.3125 1.09375 -0.9375 1.859375q-0.625 0.765625 -1.53125 1.171875q-0.90625 0.40625 -2.09375 0.40625q-0.65625 0 -1.078125 -0.09375q-0.421875 -0.09375 -0.859375 -0.3125l0 4.375l-2.765625 0l0 -14.9375zm4.75 2.0625q-0.8125 0 -1.265625 0.40625q-0.453125 0.390625 -0.71875 1.203125l0 4.4375q0.296875 0.234375 0.640625 0.375q0.359375 0.140625 0.9375 0.140625q1.203125 0 1.796875 -0.84375q0.59375 -0.84375 0.59375 -2.78125q0 -1.40625 -0.46875 -2.171875q-0.46875 -0.765625 -1.515625 -0.765625z" fill-rule="nonzero"/><path fill="#000000" d="m27.21537 78.17749q0 -0.4375 -0.359375 -0.6875q-0.359375 -0.25 -0.890625 -0.46875q-0.53125 -0.21875 -1.171875 -0.4375q-0.640625 -0.21875 -1.171875 -0.609375q-0.53125 -0.40625 -0.90625 -1.015625q-0.359375 -0.609375 -0.359375 -1.5625q0 -1.578125 0.9375 -2.40625q0.9375 -0.84375 2.71875 -0.84375q1.203125 0 2.1875 0.265625q0.984375 0.25 1.53125 0.578125l-0.609375 2.0q-0.5 -0.1875 -1.25 -0.40625q-0.734375 -0.21875 -1.5 -0.21875q-1.234375 0 -1.234375 0.96875q0 0.375 0.359375 0.609375q0.359375 0.234375 0.890625 0.4375q0.53125 0.203125 1.171875 0.4375q0.640625 0.234375 1.171875 0.609375q0.53125 0.375 0.890625 0.984375q0.375 0.59375 0.375 1.53125q0 1.609375 -1.046875 2.546875q-1.03125 0.921875 -3.09375 0.921875q-1.125 0 -2.125 -0.296875q-0.984375 -0.28125 -1.609375 -0.65625l0.765625 -2.078125q0.5 0.28125 1.296875 0.546875q0.8125 0.265625 1.671875 0.265625q0.625 0 0.984375 -0.234375q0.375 -0.234375 0.375 -0.78125zm4.8286285 -7.734375l2.765625 0l0 10.671875l-2.765625 0l0 -10.671875zm-0.40625 -3.0q0 -0.625 0.453125 -1.0625q0.46875 -0.4375 1.265625 -0.4375q0.8125 0 1.3125 0.4375q0.5 0.4375 0.5 1.0625q0 0.625 -0.5 1.046875q-0.5 0.40625 -1.3125 0.40625q-0.796875 0 -1.265625 -0.40625q-0.453125 -0.421875 -0.453125 -1.046875zm5.3466644 11.328125l4.203125 -5.0625l1.09375 -0.90625l-5.296875 0l0 -2.359375l8.359375 0l0 2.359375l-4.15625 5.140625l-1.0625 0.828125l5.21875 0l0 2.34375l-8.359375 0l0 -2.34375zm18.691406 1.421875q-0.640625 0.515625 -1.75 0.875q-1.09375 0.34375 -2.328125 0.34375q-2.578125 0 -3.78125 -1.5q-1.1875 -1.5 -1.1875 -4.125q0 -2.8125 1.34375 -4.21875q1.34375 -1.421875 3.78125 -1.421875q0.8125 0 1.578125 0.21875q0.765625 0.21875 1.359375 0.703125q0.59375 0.484375 0.953125 1.328125q0.375 0.828125 0.375 2.0625q0 0.453125 -0.0625 0.96875q-0.046875 0.5 -0.15625 1.0625l-6.40625 0q0.078125 1.34375 0.703125 2.03125q0.625 0.671875 2.03125 0.671875q0.875 0 1.5625 -0.265625q0.703125 -0.265625 1.0625 -0.546875l0.921875 1.8125zm-3.96875 -7.828125q-1.09375 0 -1.625 0.65625q-0.515625 0.65625 -0.609375 1.734375l3.953125 0q0.09375 -1.140625 -0.34375 -1.765625q-0.4375 -0.625 -1.375 -0.625z" fill-rule="nonzero"/><path fill="#000000" d="m85.016304 76.536865l-2.515625 0l0 4.578125l-1.65625 0l0 -4.578125l-6.578125 0l0 -0.71875l7.078125 -9.875l1.15625 0l0 9.09375l2.515625 0l0 1.5zm-4.171875 -6.15625l0.203125 -1.75l-0.0625 0l-0.734375 1.453125l-3.015625 4.078125l-1.015625 1.046875l1.484375 -0.171875l3.140625 0l0 -4.65625z" fill-rule="nonzero"/><path fill="#000000" fill-opacity="0.0" d="m64.30695 31.723885l14.047249 0l0 28.125984l-14.047249 0z" fill-rule="evenodd"/><path fill="#000000" fill-opacity="0.0" d="m78.3542 45.786877c14.730804 0 22.095474 -4.771652 29.461617 -9.543308c7.3661423 -4.771652 14.733757 -9.543306 29.467522 -9.543306" fill-rule="evenodd"/><path stroke="#000000" stroke-width="2.0" stroke-linejoin="round" stroke-linecap="butt" d="m85.91943 45.314034l0.5613251 -0.077796936c0.18816376 -0.027210236 0.3748932 -0.055355072 0.5602112 -0.08440399c0.37065125 -0.058101654 0.7356796 -0.11984253 1.0953064 -0.18508148c2.8770523 -0.5219002 5.408844 -1.2674713 7.7104874 -2.1621552c4.6032867 -1.7893715 8.285988 -4.1752014 11.969055 -6.5610275c3.683075 -2.385826 7.366516 -4.771652 11.970909 -6.5610237c1.1510925 -0.44734192 2.3597488 -0.8574066 3.640358 -1.220871c0.32014465 -0.090867996 0.6447983 -0.17882156 0.97415924 -0.26371574c0.16468048 -0.042448044 0.33054352 -0.08413315 0.49761963 -0.12503433l0.4513321 -0.10757446" fill-rule="evenodd"/><path fill="#000000" stroke="#000000" stroke-width="2.0" stroke-linecap="butt" d="m79.35225 45.7245c-0.113342285 -1.8134804 1.264885 -3.3754768 3.0783615 -3.488823c1.8134766 -0.113349915 3.3754807 1.2648811 3.488823 3.0783577c0.113349915 1.8134804 -1.264885 3.3754807 -3.0783615 3.4888268c-1.8134766 0.1133461 -3.375473 -1.264885 -3.488823 -3.0783615z" fill-rule="nonzero"/><path fill="#000000" stroke="#000000" stroke-width="2.0" stroke-linecap="butt" d="m125.69846 31.250404l8.677361 -4.2419033l-9.373886 -2.328209z" fill-rule="evenodd"/><path fill="#000000" fill-opacity="0.0" d="m427.55984 94.077034l14.047241 0l0 28.125984l-14.047241 0z" fill-rule="evenodd"/></g></svg>