<svg version="1.1" viewBox="0.0 0.0 496.745406824147 145.11548556430446" fill="none" stroke="none" stroke-linecap="square" stroke-miterlimit="10" xmlns:xlink="http://www.w3.org/1999/xlink" xmlns="http://www.w3.org/2000/svg"><clipPath id="p.0"><path d="m0 0l496.7454 0l0 145.11548l-496.7454 0l0 -145.11548z" clip-rule="nonzero"/></clipPath><g clip-path="url(#p.0)"><path fill="#000000" fill-opacity="0.0" d="m0 0l496.7454 0l0 145.11548l-496.7454 0z" fill-rule="evenodd"/><path fill="#000000" fill-opacity="0.0" d="m236.90236 30.355246c33.889755 0 67.779526 12.141733 67.779526 24.283464" fill-rule="evenodd"/><path stroke="#000000" stroke-width="2.0" stroke-linejoin="round" stroke-linecap="butt" d="m244.47977 30.553791l0.34934998 0.017988205c0.52627563 0.028484344 1.0519257 0.059700012 1.5767975 0.09360504c1.0497589 0.06780815 2.096405 0.1463623 3.138916 0.23529053c4.1700287 0.3557148 8.273865 0.87742996 12.245331 1.5414295c7.9429016 1.3280029 15.356293 3.225151 21.710632 5.5017242c3.1771545 1.1382866 6.0895386 2.3714333 8.67099 3.6757202c1.290741 0.6521416 2.4987183 1.3220711 3.6156921 2.0068245c0.5585022 0.3423767 1.0942078 0.6884537 1.6061707 1.0378723l0.30819702 0.2133522" fill-rule="evenodd"/><path fill="#000000" stroke="#000000" stroke-width="2.0" stroke-linecap="butt" d="m237.90201 30.38144c0.047592163 -1.8163929 1.5586548 -3.25029 3.3750458 -3.2026958c1.816391 0.04759407 3.25029 1.5586529 3.2026978 3.3750458c-0.047592163 1.8163929 -1.5586548 3.250288 -3.3750458 3.2026958c-1.816391 -0.047592163 -3.25029 -1.558651 -3.2026978 -3.3750458z" fill-rule="nonzero"/><path fill="#000000" stroke="#000000" stroke-width="2.0" stroke-linecap="butt" d="m295.01474 46.79912l7.966461 5.4612923l-2.5922241 -9.304333z" fill-rule="evenodd"/><path fill="#000000" fill-opacity="0.0" d="m140.39502 17.630705c0 -3.5138187 2.8485107 -6.3623323 6.36232 -6.3623323l104.66116 0c1.6873932 0 3.3056793 0.67031574 4.4988556 1.8634844c1.1931763 1.1931686 1.8634949 2.8114529 1.8634949 4.498848l0 25.448565c0 3.5138168 -2.848526 6.3623314 -6.3623505 6.3623314l-104.66116 0c-3.5138092 0 -6.36232 -2.8485146 -6.36232 -6.3623314z" fill-rule="evenodd"/><path stroke="#000000" stroke-width="2.0" stroke-linejoin="round" stroke-linecap="butt" d="m140.39502 17.630705c0 -3.5138187 2.8485107 -6.3623323 6.36232 -6.3623323l104.66116 0c1.6873932 0 3.3056793 0.67031574 4.4988556 1.8634844c1.1931763 1.1931686 1.8634949 2.8114529 1.8634949 4.498848l0 25.448565c0 3.5138168 -2.848526 6.3623314 -6.3623505 6.3623314l-104.66116 0c-3.5138092 0 -6.36232 -2.8485146 -6.36232 -6.3623314z" fill-rule="evenodd"/><path fill="#000000" d="m177.15031 36.611835l-4.796875 0l0.125 -0.625q0.84375 -0.328125 1.671875 -0.5l8.421875 -14.0625l0.546875 0l2.421875 14.0625q0.375 0.078125 0.765625 0.203125q0.40625 0.109375 0.71875 0.296875l-0.109375 0.625l-5.40625 0l0.109375 -0.625q0.953125 -0.359375 1.875 -0.5l-0.640625 -3.90625l-5.015625 0l-2.28125 3.90625q0.921875 0.125 1.703125 0.5l-0.109375 0.625zm1.3125 -6.140625l4.21875 0l-0.6875 -4.53125l-0.046875 -1.828125l-0.03125 0l-0.859375 1.875l-2.59375 4.484375z" fill-rule="nonzero"/><path fill="#000000" fill-opacity="0.0" d="m222.85512 16.292253l14.047241 0l0 28.125986l-14.047241 0z" fill-rule="evenodd"/><path fill="#000000" fill-opacity="0.0" d="m224.93964 11.268373l0 38.17323" fill-rule="evenodd"/><path stroke="#000000" stroke-width="2.0" stroke-linejoin="round" stroke-linecap="butt" d="m224.93964 11.268373l0 38.17323" fill-rule="evenodd"/><path fill="#000000" fill-opacity="0.0" d="m342.49423 73.72533c39.795258 0 79.590546 12.0 79.590546 24.0" fill-rule="evenodd"/><path stroke="#000000" stroke-width="2.0" stroke-linejoin="round" stroke-linecap="butt" d="m350.07288 73.86795l0.80184937 0.031181335c0.30932617 0.012718201 0.6185608 0.026123047 0.92752075 0.04019928c0.618042 0.028152466 1.2352905 0.059005737 1.851593 0.09251404c1.2326965 0.0670166 2.461731 0.14465332 3.6858826 0.23254395c4.8966675 0.3515625 9.715637 0.8671875 14.37915 1.5234375c9.327026 1.3125 18.032227 3.1875 25.493835 5.4375c3.730835 1.125 7.1507263 2.34375 10.182007 3.6328125c1.515625 0.64453125 2.9341125 1.3066406 4.245758 1.9833984c0.65579224 0.3383789 1.2848816 0.6804199 1.8860168 1.0257492c0.30056763 0.17267609 0.59420776 0.3461609 0.88067627 0.52043915l0.07980347 0.04927063" fill-rule="evenodd"/><path fill="#000000" stroke="#000000" stroke-width="2.0" stroke-linecap="butt" d="m343.49405 73.74414c0.034179688 -1.8166962 1.5346069 -3.2616959 3.3513184 -3.2275085c1.8166809 0.034187317 3.2616882 1.5346222 3.2275085 3.3513184c-0.034179688 1.8166962 -1.5346375 3.2617035 -3.3513184 3.2275162c-1.8167114 -0.034187317 -3.2617188 -1.5346298 -3.2275085 -3.351326z" fill-rule="nonzero"/><path fill="#000000" stroke="#000000" stroke-width="2.0" stroke-linecap="butt" d="m411.92996 90.528595l8.303589 4.9336243l-3.1896362 -9.116821z" fill-rule="evenodd"/><path fill="#000000" fill-opacity="0.0" d="m246.0 61.000782c0 -3.5138168 2.8485107 -6.3623314 6.362335 -6.3623314l104.66116 0c1.6873779 0 3.305664 0.6703148 4.4988403 1.8634834c1.1931763 1.1931686 1.8634949 2.8114548 1.8634949 4.498848l0 25.448566c0 3.5138168 -2.8485107 6.3623276 -6.362335 6.3623276l-104.66116 0c-3.5138245 0 -6.362335 -2.8485107 -6.362335 -6.3623276z" fill-rule="evenodd"/><path stroke="#000000" stroke-width="2.0" stroke-linejoin="round" stroke-linecap="butt" d="m246.0 61.000782c0 -3.5138168 2.8485107 -6.3623314 6.362335 -6.3623314l104.66116 0c1.6873779 0 3.305664 0.6703148 4.4988403 1.8634834c1.1931763 1.1931686 1.8634949 2.8114548 1.8634949 4.498848l0 25.448566c0 3.5138168 -2.8485107 6.3623276 -6.362335 6.3623276l-104.66116 0c-3.5138245 0 -6.362335 -2.8485107 -6.362335 -6.3623276z" fill-rule="evenodd"/><path fill="#000000" d="m279.31924 79.98191l0.109375 -0.625q0.953125 -0.40625 1.875 -0.5l2.65625 -12.65625q-0.421875 -0.078125 -0.828125 -0.21875q-0.40625 -0.140625 -0.8125 -0.3125l0.15625 -0.625l2.25 0q0.796875 0 1.578125 -0.0625q0.796875 -0.0625 1.984375 -0.0625q0.859375 0 1.625 0.15625q0.765625 0.140625 1.34375 0.46875q0.578125 0.3125 0.921875 0.84375q0.34375 0.515625 0.34375 1.28125q0 0.75 -0.234375 1.421875q-0.21875 0.671875 -0.6875 1.25q-0.46875 0.5625 -1.1875 0.984375q-0.71875 0.421875 -1.671875 0.671875l0 0.09375q0.484375 0.046875 1.0 0.21875q0.515625 0.171875 0.921875 0.5q0.421875 0.328125 0.671875 0.828125q0.265625 0.5 0.265625 1.1875q0 1.125 -0.4375 2.09375q-0.421875 0.953125 -1.265625 1.671875q-0.828125 0.703125 -2.109375 1.109375q-1.28125 0.40625 -2.984375 0.40625q-0.75 0 -1.65625 -0.0625q-0.90625 -0.0625 -1.78125 -0.0625l-2.046875 0zm5.875 -0.984375q0.875 0.03125 1.65625 -0.21875q0.796875 -0.265625 1.390625 -0.75q0.609375 -0.5 0.953125 -1.203125q0.359375 -0.71875 0.359375 -1.640625q0 -0.703125 -0.25 -1.15625q-0.234375 -0.453125 -0.703125 -0.6875q-0.453125 -0.234375 -1.09375 -0.3125q-0.640625 -0.078125 -1.4375 -0.078125l-1.609375 0l-1.25 5.875q0.28125 0.09375 0.6875 0.15625q0.40625 0.046875 1.296875 0.015625zm0.5625 -7.15625q0.359375 0 0.859375 -0.03125q0.5 -0.046875 0.859375 -0.078125q1.6875 -0.59375 2.34375 -1.609375q0.65625 -1.015625 0.65625 -2.21875q0 -0.828125 -0.609375 -1.34375q-0.59375 -0.53125 -2.0 -0.53125q-0.6875 0 -1.171875 0.03125q-0.46875 0.03125 -0.796875 0.078125l-1.203125 5.703125l1.0625 0z" fill-rule="nonzero"/><path fill="#000000" fill-opacity="0.0" d="m328.447 59.662334l14.047241 0l0 28.12598l-14.047241 0z" fill-rule="evenodd"/><path fill="#000000" fill-opacity="0.0" d="m330.5315 54.63845l0 38.173225" fill-rule="evenodd"/><path stroke="#000000" stroke-width="2.0" stroke-linejoin="round" stroke-linecap="butt" d="m330.5315 54.63845l0 38.173225" fill-rule="evenodd"/><path fill="#000000" fill-opacity="0.0" d="m363.38583 104.09264c0 -3.5138168 2.8485107 -6.3623276 6.362335 -6.3623276l104.66116 0c1.6873779 0 3.305664 0.670311 4.4988403 1.8634796c1.1931763 1.1931686 1.8634949 2.8114548 1.8634949 4.498848l0 25.44857c0 3.5138092 -2.8485413 6.362335 -6.362335 6.362335l-104.66116 0c-3.5138245 0 -6.362335 -2.848526 -6.362335 -6.362335z" fill-rule="evenodd"/><path stroke="#000000" stroke-width="2.0" stroke-linejoin="round" stroke-linecap="butt" d="m363.38583 104.09264c0 -3.5138168 2.8485107 -6.3623276 6.362335 -6.3623276l104.66116 0c1.6873779 0 3.305664 0.670311 4.4988403 1.8634796c1.1931763 1.1931686 1.8634949 2.8114548 1.8634949 4.498848l0 25.44857c0 3.5138092 -2.8485413 6.362335 -6.362335 6.362335l-104.66116 0c-3.5138245 0 -6.362335 -2.848526 -6.362335 -6.362335z" fill-rule="evenodd"/><path fill="#000000" d="m408.68204 119.19878l0.53125 0q0 0.59375 -0.125 1.5q-0.109375 0.90625 -0.34375 1.75q-0.421875 0.234375 -0.921875 0.40625q-0.484375 0.171875 -1.015625 0.28125q-0.53125 0.109375 -1.046875 0.140625q-0.5 0.046875 -0.953125 0.046875q-1.8125 0 -3.078125 -0.5q-1.25 -0.515625 -2.03125 -1.34375q-0.78125 -0.84375 -1.140625 -1.859375q-0.34375 -1.03125 -0.34375 -2.046875q0 -2.171875 0.609375 -3.953125q0.625 -1.78125 1.765625 -3.046875q1.140625 -1.28125 2.765625 -1.984375q1.640625 -0.703125 3.6875 -0.703125q1.40625 0 2.390625 0.203125q0.984375 0.1875 1.640625 0.53125q-0.0625 0.328125 -0.1875 0.796875q-0.109375 0.453125 -0.265625 0.96875q-0.15625 0.515625 -0.328125 1.0q-0.171875 0.484375 -0.328125 0.890625l-0.546875 0l-0.453125 -3.0625q-0.28125 -0.109375 -0.84375 -0.15625q-0.5625 -0.0625 -1.09375 -0.0625q-1.40625 0 -2.609375 0.546875q-1.1875 0.546875 -2.0625 1.609375q-0.875 1.0625 -1.375 2.671875q-0.484375 1.59375 -0.484375 3.703125q0 1.328125 0.453125 2.234375q0.46875 0.90625 1.15625 1.46875q0.703125 0.546875 1.5 0.78125q0.8125 0.234375 1.546875 0.203125q0.71875 0.03125 1.21875 -0.09375q0.5 -0.140625 0.734375 -0.28125l1.578125 -2.640625z" fill-rule="nonzero"/><path fill="#000000" fill-opacity="0.0" d="m466.18713 107.66758l14.047241 0l0 28.125984l-14.047241 0z" fill-rule="evenodd"/><path fill="#000000" fill-opacity="0.0" d="m447.91733 97.730316l0 38.173233" fill-rule="evenodd"/><path stroke="#000000" stroke-width="2.0" stroke-linejoin="round" stroke-linecap="butt" d="m447.91733 97.730316l0 38.173233" fill-rule="evenodd"/><path fill="#000000" d="m457.94617 117.53575c0 -3.3572006 2.7215576 -6.078743 6.0787354 -6.078743c1.6121826 0 3.1583557 0.64043427 4.29834 1.7804184c1.1399841 1.1399841 1.7803955 2.686142 1.7803955 4.2983246c0 3.357193 -2.721527 6.0787354 -6.0787354 6.0787354c-3.3571777 0 -6.0787354 -2.7215424 -6.0787354 -6.0787354z" fill-rule="evenodd"/><path fill="#000000" fill-opacity="0.0" d="m12.259843 40.61441c0 -6.5028877 5.2716284 -11.774515 11.774514 -11.774515l74.12026 0c3.122795 0 6.117691 1.2405262 8.325844 3.4486752c2.2081451 2.208149 3.4486694 5.203045 3.4486694 8.32584l0 47.09664c0 6.502884 -5.2716293 11.774513 -11.774513 11.774513l-74.12026 0c-6.502886 0 -11.774514 -5.2716293 -11.774514 -11.774513z" fill-rule="evenodd"/><path stroke="#000000" stroke-width="2.0" stroke-linejoin="round" stroke-linecap="butt" d="m12.259843 40.61441c0 -6.5028877 5.2716284 -11.774515 11.774514 -11.774515l74.12026 0c3.122795 0 6.117691 1.2405262 8.325844 3.4486752c2.2081451 2.208149 3.4486694 5.203045 3.4486694 8.32584l0 47.09664c0 6.502884 -5.2716293 11.774513 -11.774513 11.774513l-74.12026 0c-6.502886 0 -11.774514 -5.2716293 -11.774514 -11.774513z" fill-rule="evenodd"/><path fill="#000000" d="m24.817854 45.096657l1.46875 0l0 -2.0l2.765625 -0.78125l0 2.78125l2.609375 0l0 2.359375l-2.609375 0l0 4.09375q0 1.109375 0.21875 1.59375q0.234375 0.46875 0.859375 0.46875q0.421875 0 0.734375 -0.078125q0.3125 -0.09375 0.6875 -0.265625l0.5000019 2.140625q-0.5781269 0.28125 -1.3593769 0.46875q-0.765625 0.1875 -1.546875 0.1875q-1.46875 0 -2.171875 -0.75q-0.6875 -0.765625 -0.6875 -2.484375l0 -5.375l-1.46875 0l0 -2.359375zm7.93062 5.34375q0 -2.71875 1.3125 -4.171875q1.328125 -1.46875 3.71875 -1.46875q1.28125 0 2.21875 0.40625q0.9375 0.40625 1.546875 1.140625q0.625 0.734375 0.9375 1.78125q0.3125 1.046875 0.3125 2.3125q0 2.703125 -1.3125 4.171875q-1.3125 1.453125 -3.703125 1.453125q-1.28125 0 -2.21875 -0.40625q-0.9375 -0.40625 -1.5625 -1.140625q-0.625 -0.734375 -0.9375 -1.78125q-0.3125 -1.046875 -0.3125 -2.296875zm2.859375 0q0 0.703125 0.125 1.296875q0.125 0.59375 0.375 1.046875q0.265625 0.453125 0.671875 0.703125q0.421875 0.234375 1.0 0.234375q1.09375 0 1.625 -0.78125q0.53125 -0.796875 0.53125 -2.5q0 -1.46875 -0.5 -2.375q-0.484375 -0.90625 -1.65625 -0.90625q-1.015625 0 -1.59375 0.765625q-0.578125 0.765625 -0.578125 2.515625zm9.109497 -5.34375l2.015625 0l0.328125 1.28125l0.078125 0q0.5625 -0.796875 1.3125 -1.1875q0.765625 -0.390625 1.84375 -0.390625q2.015625 0 3.015625 1.28125q1.0 1.265625 1.0 4.078125q0 1.359375 -0.328125 2.46875q-0.3125 1.09375 -0.9375 1.859375q-0.625 0.765625 -1.53125 1.171875q-0.90625 0.40625 -2.09375 0.40625q-0.65625 0 -1.078125 -0.09375q-0.421875 -0.09375 -0.859375 -0.3125l0 4.375l-2.765625 0l0 -14.9375zm4.75 2.0625q-0.8125 0 -1.265625 0.40625q-0.453125 0.390625 -0.71875 1.203125l0 4.4375q0.296875 0.234375 0.640625 0.375q0.359375 0.140625 0.9375 0.140625q1.203125 0 1.796875 -0.84375q0.59375 -0.84375 0.59375 -2.78125q0 -1.40625 -0.46875 -2.171875q-0.46875 -0.765625 -1.515625 -0.765625z" fill-rule="nonzero"/><path fill="#000000" d="m30.333479 81.83103q0 -0.4375 -0.359375 -0.6875q-0.359375 -0.25 -0.890625 -0.46875q-0.53125 -0.21875 -1.171875 -0.4375q-0.640625 -0.21875 -1.171875 -0.609375q-0.53125 -0.40625 -0.90625 -1.015625q-0.359375 -0.609375 -0.359375 -1.5625q0 -1.578125 0.9375 -2.40625q0.9375 -0.84375 2.71875 -0.84375q1.203125 0 2.1875 0.265625q0.9843769 0.25 1.5312519 0.578125l-0.609375 2.0q-0.5000019 -0.1875 -1.2500019 -0.40625q-0.734375 -0.21875 -1.5 -0.21875q-1.234375 0 -1.234375 0.96875q0 0.375 0.359375 0.609375q0.359375 0.234375 0.890625 0.4375q0.53125 0.203125 1.171875 0.4375q0.640625 0.234375 1.171875 0.609375q0.5312519 0.375 0.8906269 0.984375q0.375 0.59375 0.375 1.53125q0 1.609375 -1.046875 2.546875q-1.0312519 0.921875 -3.093752 0.921875q-1.125 0 -2.125 -0.296875q-0.984375 -0.28125 -1.609375 -0.65625l0.765625 -2.078125q0.5 0.28125 1.296875 0.546875q0.8125 0.265625 1.671875 0.265625q0.625 0 0.984375 -0.234375q0.375 -0.234375 0.375 -0.78125zm4.8286304 -7.734375l2.765625 0l0 10.671875l-2.765625 0l0 -10.671875zm-0.40625 -3.0q0 -0.625 0.453125 -1.0625q0.46875 -0.4375 1.265625 -0.4375q0.8125 0 1.3125 0.4375q0.5 0.4375 0.5 1.0625q0 0.625 -0.5 1.046875q-0.5 0.40625 -1.3125 0.40625q-0.796875 0 -1.265625 -0.40625q-0.453125 -0.421875 -0.453125 -1.046875zm5.3466644 11.328125l4.203125 -5.0625l1.09375 -0.90625l-5.296875 0l0 -2.359375l8.359375 0l0 2.359375l-4.15625 5.140625l-1.0625 0.828125l5.21875 0l0 2.34375l-8.359375 0l0 -2.34375zm18.691406 1.421875q-0.640625 0.515625 -1.75 0.875q-1.09375 0.34375 -2.328125 0.34375q-2.578125 0 -3.78125 -1.5q-1.1875 -1.5 -1.1875 -4.125q0 -2.8125 1.34375 -4.21875q1.34375 -1.421875 3.78125 -1.421875q0.8125 0 1.578125 0.21875q0.765625 0.21875 1.359375 0.703125q0.59375 0.484375 0.953125 1.328125q0.375 0.828125 0.375 2.0625q0 0.453125 -0.0625 0.96875q-0.046875 0.5 -0.15625 1.0625l-6.40625 0q0.078125 1.34375 0.703125 2.03125q0.625 0.671875 2.03125 0.671875q0.875 0 1.5625 -0.265625q0.703125 -0.265625 1.0625 -0.546875l0.921875 1.8125zm-3.96875 -7.828125q-1.09375 0 -1.625 0.65625q-0.515625 0.65625 -0.609375 1.734375l3.953125 0q0.09375 -1.140625 -0.34375 -1.765625q-0.4375 -0.625 -1.375 -0.625z" fill-rule="nonzero"/><path fill="#000000" d="m88.134415 80.19041l-2.515625 0l0 4.578125l-1.65625 0l0 -4.578125l-6.578125 0l0 -0.71875l7.078125 -9.875l1.15625 0l0 9.09375l2.515625 0l0 1.5zm-4.171875 -6.15625l0.203125 -1.75l-0.0625 0l-0.734375 1.453125l-3.015625 4.078125l-1.015625 1.046875l1.484375 -0.171875l3.140625 0l0 -4.65625z" fill-rule="nonzero"/><path fill="#000000" fill-opacity="0.0" d="m67.425064 35.377426l14.047249 0l0 28.125984l-14.047249 0z" fill-rule="evenodd"/><path fill="#000000" fill-opacity="0.0" d="m81.47231 49.44042c14.730804 0 22.095474 -4.771652 29.461617 -9.543304c7.3661423 -4.771656 14.733757 -9.543308 29.467514 -9.543308" fill-rule="evenodd"/><path stroke="#000000" stroke-width="2.0" stroke-linejoin="round" stroke-linecap="butt" d="m89.037544 48.967575l0.5613251 -0.077796936c0.18816376 -0.027210236 0.3748932 -0.055351257 0.5602112 -0.08440399c0.37065125 -0.058101654 0.7356796 -0.11984253 1.0953064 -0.18508148c2.8770523 -0.52189636 5.408844 -1.2674675 7.7104874 -2.1621552c4.6032867 -1.7893677 8.285988 -4.1751976 11.969055 -6.5610237c3.683075 -2.38583 7.366516 -4.771656 11.970909 -6.5610237c1.1510925 -0.44734573 2.3597488 -0.8574066 3.640358 -1.2208748c0.32014465 -0.09086609 0.6447983 -0.17881966 0.97415924 -0.26371384c0.16468048 -0.042448044 0.33054352 -0.08413315 0.49762726 -0.12503433l0.45132446 -0.10757446" fill-rule="evenodd"/><path fill="#000000" stroke="#000000" stroke-width="2.0" stroke-linecap="butt" d="m82.47036 49.37804c-0.113342285 -1.8134766 1.264885 -3.3754768 3.0783615 -3.488823c1.8134766 -0.1133461 3.3754807 1.2648811 3.488823 3.0783615c0.113349915 1.8134766 -1.264885 3.3754768 -3.0783615 3.488823c-1.8134766 0.1133461 -3.375473 -1.2648811 -3.488823 -3.0783615z" fill-rule="nonzero"/><path fill="#000000" stroke="#000000" stroke-width="2.0" stroke-linecap="butt" d="m128.81657 34.903946l8.677353 -4.2419014l-9.373871 -2.328209z" fill-rule="evenodd"/></g></svg>