<svg version="1.1" viewBox="0.0 0.0 841.6167979002624 131.71653543307087" fill="none" stroke="none" stroke-linecap="square" stroke-miterlimit="10" xmlns:xlink="http://www.w3.org/1999/xlink" xmlns="http://www.w3.org/2000/svg"><clipPath id="p.0"><path d="m0 0l841.6168 0l0 131.71654l-841.6168 0l0 -131.71654z" clip-rule="nonzero"/></clipPath><g clip-path="url(#p.0)"><path fill="#000000" fill-opacity="0.0" d="m0 0l841.6168 0l0 131.71654l-841.6168 0z" fill-rule="evenodd"/><path fill="#000000" fill-opacity="0.0" d="m11.4134865 43.408035l39.43307 0l0 39.433067l-39.43307 0z" fill-rule="evenodd"/><path stroke="#000000" stroke-width="2.0" stroke-linejoin="round" stroke-linecap="butt" d="m11.4134865 43.408035l39.43307 0l0 39.433067l-39.43307 0z" fill-rule="evenodd"/><path fill="#000000" d="m27.125208 60.935196q0 -0.890625 0.265625 -1.65625q0.265625 -0.765625 0.765625 -1.328125q0.5 -0.5625 1.25 -0.875q0.765625 -0.3125 1.765625 -0.3125q1.9062519 0 2.968752 1.234375q1.0625 1.21875 1.0625 3.46875q0 2.109375 -0.484375 3.6875q-0.46875 1.5625 -1.3125 2.65625q-0.828125 1.078125 -1.9843769 1.6875q-1.140625 0.609375 -2.484375 0.765625l-0.34375 -1.1875q1.09375 -0.171875 1.953125 -0.640625q0.875 -0.46875 1.5000019 -1.171875q0.625 -0.703125 1.015625 -1.609375q0.390625 -0.90625 0.53125 -1.96875q-0.5 0.59375 -1.109375 0.828125q-0.5937519 0.234375 -1.5937519 0.234375q-0.765625 0 -1.453125 -0.25q-0.671875 -0.25 -1.203125 -0.734375q-0.515625 -0.484375 -0.8125 -1.1875q-0.296875 -0.71875 -0.296875 -1.640625zm1.546875 -0.140625q0 1.328125 0.703125 1.984375q0.703125 0.65625 1.84375 0.65625q0.9062519 0 1.5625019 -0.296875q0.65625 -0.296875 0.9375 -0.78125q0.03125 -0.234375 0.03125 -0.421875q0 -0.1875 0 -0.390625q0 -0.671875 -0.15625 -1.296875q-0.15625 -0.625 -0.484375 -1.125q-0.3125 -0.5 -0.828125 -0.78125q-0.5156269 -0.28125 -1.2031269 -0.28125q-1.140625 0 -1.78125 0.71875q-0.625 0.71875 -0.625 2.015625z" fill-rule="nonzero"/><path fill="#000000" fill-opacity="0.0" d="m51.413486 43.408035l39.43307 0l0 39.433067l-39.43307 0z" fill-rule="evenodd"/><path stroke="#000000" stroke-width="2.0" stroke-linejoin="round" stroke-linecap="butt" d="m51.413486 43.408035l39.43307 0l0 39.433067l-39.43307 0z" fill-rule="evenodd"/><path fill="#000000" d="m61.08825 68.66957l2.609375 0l0 -9.03125l0.1875 -1.109375l-0.75 0.875l-2.046875 1.484375l-0.703125 -0.953125l4.09375 -3.171875l0.671875 0l0 11.90625l2.5625 0l0 1.375l-6.625 0l0 -1.375zm17.933289 -2.640625l-2.203125 0l0 4.015625l-1.453125 0l0 -4.015625l-5.75 0l0 -0.609375l6.1875 -8.640625l1.015625 0l0 7.953125l2.203125 0l0 1.296875zm-3.65625 -5.375l0.1875 -1.515625l-0.0625 0l-0.65625 1.265625l-2.625 3.5625l-0.890625 0.90625l1.296875 -0.140625l2.75 0l0 -4.078125z" fill-rule="nonzero"/><path fill="#000000" fill-opacity="0.0" d="m91.41349 43.408035l39.433067 0l0 39.433067l-39.433067 0z" fill-rule="evenodd"/><path stroke="#000000" stroke-width="2.0" stroke-linejoin="round" stroke-linecap="butt" d="m91.41349 43.408035l39.433067 0l0 39.433067l-39.433067 0z" fill-rule="evenodd"/><path fill="#000000" d="m101.08825 68.66957l2.609375 0l0 -9.03125l0.1875 -1.109375l-0.75 0.875l-2.046875 1.484375l-0.703125 -0.953125l4.09375 -3.171875l0.671875 0l0 11.90625l2.5625 0l0 1.375l-6.625 0l0 -1.375zm9.417664 -1.734375q0 -1.1875 0.609375 -2.046875q0.625 -0.875 1.9375 -1.578125q-0.46875 -0.28125 -0.875 -0.578125q-0.40625 -0.3125 -0.71875 -0.703125q-0.296875 -0.390625 -0.484375 -0.875q-0.171875 -0.5 -0.171875 -1.125q0 -0.734375 0.25 -1.328125q0.265625 -0.59375 0.734375 -1.015625q0.46875 -0.4375 1.125 -0.671875q0.671875 -0.25 1.515625 -0.25q0.78125 0 1.40625 0.234375q0.640625 0.21875 1.078125 0.609375q0.4375 0.390625 0.671875 0.9375q0.25 0.53125 0.25 1.1875q0 1.0625 -0.484375 1.875q-0.484375 0.8125 -1.59375 1.59375q0.484375 0.28125 0.921875 0.625q0.4375 0.328125 0.765625 0.734375q0.328125 0.40625 0.515625 0.921875q0.1875 0.515625 0.1875 1.171875q0 0.796875 -0.265625 1.46875q-0.265625 0.65625 -0.765625 1.140625q-0.5 0.46875 -1.234375 0.734375q-0.734375 0.265625 -1.65625 0.265625q-0.90625 0 -1.59375 -0.25q-0.6875 -0.265625 -1.171875 -0.703125q-0.46875 -0.453125 -0.71875 -1.0625q-0.234375 -0.609375 -0.234375 -1.3125zm6.171875 -0.1875q0 -0.5625 -0.21875 -0.984375q-0.21875 -0.421875 -0.59375 -0.765625q-0.359375 -0.34375 -0.828125 -0.625q-0.46875 -0.28125 -0.96875 -0.546875q-1.140625 0.640625 -1.625 1.421875q-0.484375 0.78125 -0.484375 1.5q0 0.4375 0.140625 0.859375q0.15625 0.40625 0.453125 0.703125q0.3125 0.296875 0.75 0.484375q0.4375 0.171875 1.015625 0.171875q0.46875 0 0.890625 -0.140625q0.4375 -0.140625 0.75 -0.40625q0.328125 -0.28125 0.515625 -0.703125q0.203125 -0.421875 0.203125 -0.96875zm-4.421875 -6.765625q0 0.53125 0.203125 0.9375q0.21875 0.390625 0.5625 0.71875q0.34375 0.3125 0.78125 0.578125q0.453125 0.265625 0.9375 0.515625q0.84375 -0.65625 1.234375 -1.28125q0.40625 -0.640625 0.40625 -1.40625q0 -0.953125 -0.59375 -1.46875q-0.578125 -0.515625 -1.390625 -0.515625q-0.515625 0 -0.90625 0.171875q-0.390625 0.171875 -0.671875 0.4375q-0.28125 0.25 -0.421875 0.609375q-0.140625 0.34375 -0.140625 0.703125z" fill-rule="nonzero"/><path fill="#000000" fill-opacity="0.0" d="m131.41348 43.408035l39.433075 0l0 39.433067l-39.433075 0z" fill-rule="evenodd"/><path stroke="#000000" stroke-width="2.0" stroke-linejoin="round" stroke-linecap="butt" d="m131.41348 43.408035l39.433075 0l0 39.433067l-39.433075 0z" fill-rule="evenodd"/><path fill="#000000" fill-opacity="0.0" d="m171.41348 43.408035l39.433075 0l0 39.433067l-39.433075 0z" fill-rule="evenodd"/><path stroke="#000000" stroke-width="2.0" stroke-linejoin="round" stroke-linecap="butt" d="m171.41348 43.408035l39.433075 0l0 39.433067l-39.433075 0z" fill-rule="evenodd"/><path fill="#000000" d="m187.40076 59.95082q0 0.984375 -0.375 2.03125q-0.359375 1.03125 -0.953125 2.078125q-0.578125 1.046875 -1.3125 2.046875q-0.71875 0.984375 -1.453125 1.890625l-0.90625 0.796875l0 0.078125l1.1875 -0.203125l4.0625 0l0 1.375l-7.421875 0l0 -0.546875q0.40625 -0.421875 0.984375 -1.046875q0.578125 -0.640625 1.203125 -1.40625q0.625 -0.78125 1.234375 -1.640625q0.609375 -0.875 1.09375 -1.765625q0.5 -0.90625 0.796875 -1.78125q0.296875 -0.875 0.296875 -1.65625q0 -0.921875 -0.515625 -1.53125q-0.515625 -0.609375 -1.578125 -0.609375q-0.71875 0 -1.390625 0.296875q-0.671875 0.28125 -1.15625 0.65625l-0.609375 -1.0625q0.65625 -0.5625 1.546875 -0.875q0.890625 -0.3125 1.921875 -0.3125q0.796875 0 1.40625 0.234375q0.625 0.234375 1.046875 0.671875q0.4375 0.421875 0.65625 1.015625q0.234375 0.578125 0.234375 1.265625zm11.620789 6.078125l-2.203125 0l0 4.015625l-1.453125 0l0 -4.015625l-5.75 0l0 -0.609375l6.1875 -8.640625l1.015625 0l0 7.953125l2.203125 0l0 1.296875zm-3.65625 -5.375l0.1875 -1.515625l-0.0625 0l-0.65625 1.265625l-2.625 3.5625l-0.890625 0.90625l1.296875 -0.140625l2.75 0l0 -4.078125z" fill-rule="nonzero"/><path fill="#000000" fill-opacity="0.0" d="m211.41348 43.408035l39.433075 0l0 39.433067l-39.433075 0z" fill-rule="evenodd"/><path stroke="#000000" stroke-width="2.0" stroke-linejoin="round" stroke-linecap="butt" d="m211.41348 43.408035l39.433075 0l0 39.433067l-39.433075 0z" fill-rule="evenodd"/><path fill="#000000" d="m227.40076 59.95082q0 0.984375 -0.375 2.03125q-0.359375 1.03125 -0.953125 2.078125q-0.578125 1.046875 -1.3125 2.046875q-0.71875 0.984375 -1.453125 1.890625l-0.90625 0.796875l0 0.078125l1.1875 -0.203125l4.0625 0l0 1.375l-7.421875 0l0 -0.546875q0.40625 -0.421875 0.984375 -1.046875q0.578125 -0.640625 1.203125 -1.40625q0.625 -0.78125 1.234375 -1.640625q0.609375 -0.875 1.09375 -1.765625q0.5 -0.90625 0.796875 -1.78125q0.296875 -0.875 0.296875 -1.65625q0 -0.921875 -0.515625 -1.53125q-0.515625 -0.609375 -1.578125 -0.609375q-0.71875 0 -1.390625 0.296875q-0.671875 0.28125 -1.15625 0.65625l-0.609375 -1.0625q0.65625 -0.5625 1.546875 -0.875q0.890625 -0.3125 1.921875 -0.3125q0.796875 0 1.40625 0.234375q0.625 0.234375 1.046875 0.671875q0.4375 0.421875 0.65625 1.015625q0.234375 0.578125 0.234375 1.265625zm3.8864136 10.09375l4.6875 -10.9375l0.828125 -0.90625l-1.109375 0.171875l-5.3125 0l0 -1.390625l7.796875 0l0 0.5l-5.375 12.5625l-1.515625 0z" fill-rule="nonzero"/><path fill="#000000" fill-opacity="0.0" d="m251.41348 43.408035l39.433075 0l0 39.433067l-39.433075 0z" fill-rule="evenodd"/><path stroke="#000000" stroke-width="2.0" stroke-linejoin="round" stroke-linecap="butt" d="m251.41348 43.408035l39.433075 0l0 39.433067l-39.433075 0z" fill-rule="evenodd"/><path fill="#000000" d="m267.40076 59.95082q0 0.984375 -0.375 2.03125q-0.359375 1.03125 -0.953125 2.078125q-0.578125 1.046875 -1.3125 2.046875q-0.71875 0.984375 -1.453125 1.890625l-0.90625 0.796875l0 0.078125l1.1875 -0.203125l4.0625 0l0 1.375l-7.421875 0l0 -0.546875q0.40625 -0.421875 0.984375 -1.046875q0.578125 -0.640625 1.203125 -1.40625q0.625 -0.78125 1.234375 -1.640625q0.609375 -0.875 1.09375 -1.765625q0.5 -0.90625 0.796875 -1.78125q0.296875 -0.875 0.296875 -1.65625q0 -0.921875 -0.515625 -1.53125q-0.515625 -0.609375 -1.578125 -0.609375q-0.71875 0 -1.390625 0.296875q-0.671875 0.28125 -1.15625 0.65625l-0.609375 -1.0625q0.65625 -0.5625 1.546875 -0.875q0.890625 -0.3125 1.921875 -0.3125q0.796875 0 1.40625 0.234375q0.625 0.234375 1.046875 0.671875q0.4375 0.421875 0.65625 1.015625q0.234375 0.578125 0.234375 1.265625zm3.8864136 10.09375l4.6875 -10.9375l0.828125 -0.90625l-1.109375 0.171875l-5.3125 0l0 -1.390625l7.796875 0l0 0.5l-5.375 12.5625l-1.515625 0z" fill-rule="nonzero"/><path fill="#000000" fill-opacity="0.0" d="m291.41348 43.408035l39.433075 0l0 39.433067l-39.433075 0z" fill-rule="evenodd"/><path stroke="#000000" stroke-width="2.0" stroke-linejoin="round" stroke-linecap="butt" d="m291.41348 43.408035l39.433075 0l0 39.433067l-39.433075 0z" fill-rule="evenodd"/><path fill="#000000" d="m307.40076 59.95082q0 0.984375 -0.375 2.03125q-0.359375 1.03125 -0.953125 2.078125q-0.578125 1.046875 -1.3125 2.046875q-0.71875 0.984375 -1.453125 1.890625l-0.90625 0.796875l0 0.078125l1.1875 -0.203125l4.0625 0l0 1.375l-7.421875 0l0 -0.546875q0.40625 -0.421875 0.984375 -1.046875q0.578125 -0.640625 1.203125 -1.40625q0.625 -0.78125 1.234375 -1.640625q0.609375 -0.875 1.09375 -1.765625q0.5 -0.90625 0.796875 -1.78125q0.296875 -0.875 0.296875 -1.65625q0 -0.921875 -0.515625 -1.53125q-0.515625 -0.609375 -1.578125 -0.609375q-0.71875 0 -1.390625 0.296875q-0.671875 0.28125 -1.15625 0.65625l-0.609375 -1.0625q0.65625 -0.5625 1.546875 -0.875q0.890625 -0.3125 1.921875 -0.3125q0.796875 0 1.40625 0.234375q0.625 0.234375 1.046875 0.671875q0.4375 0.421875 0.65625 1.015625q0.234375 0.578125 0.234375 1.265625zm2.6364136 3.5625q0 -3.359375 1.09375 -5.046875q1.09375 -1.703125 3.1875 -1.703125q2.25 0 3.265625 1.671875q1.015625 1.671875 1.015625 5.078125q0 3.359375 -1.09375 5.0625q-1.078125 1.6875 -3.1875 1.6875q-2.21875 0 -3.25 -1.765625q-1.03125 -1.78125 -1.03125 -4.984375zm1.546875 0q0 1.21875 0.15625 2.21875q0.171875 0.984375 0.5 1.703125q0.34375 0.71875 0.84375 1.125q0.515625 0.40625 1.234375 0.40625q1.421875 0 2.078125 -1.3125q0.65625 -1.328125 0.65625 -4.140625q0 -1.1875 -0.140625 -2.1875q-0.140625 -1.015625 -0.46875 -1.734375q-0.3125 -0.734375 -0.84375 -1.125q-0.515625 -0.40625 -1.28125 -0.40625q-1.40625 0 -2.078125 1.328125q-0.65625 1.328125 -0.65625 4.125z" fill-rule="nonzero"/><path fill="#000000" fill-opacity="0.0" d="m331.41348 43.408035l39.433075 0l0 39.433067l-39.433075 0z" fill-rule="evenodd"/><path stroke="#000000" stroke-width="2.0" stroke-linejoin="round" stroke-linecap="butt" d="m331.41348 43.408035l39.433075 0l0 39.433067l-39.433075 0z" fill-rule="evenodd"/><path fill="#000000" fill-opacity="0.0" d="m151.13004 102.896225l0 -20.062996" fill-rule="evenodd"/><path stroke="#000000" stroke-width="2.0" stroke-linejoin="round" stroke-linecap="butt" d="m151.13004 102.896225l0 -8.062996" fill-rule="evenodd"/><path fill="#000000" stroke="#000000" stroke-width="2.0" stroke-linecap="butt" d="m154.4335 94.83323l-3.3034668 -9.076195l-3.3034668 9.076195z" fill-rule="evenodd"/><path fill="#000000" fill-opacity="0.0" d="m121.28752 102.896225l59.685028 0l0 26.645676l-59.685028 0z" fill-rule="evenodd"/><path fill="#000000" d="m137.57465 114.76031l0 -0.390625q0.234375 -0.109375 0.53125 -0.203125q0.3125 -0.109375 0.625 -0.1875q0.328125 -0.078125 0.609375 -0.125q0.296875 -0.0625 0.515625 -0.0625l0.296875 0.1875l-1.515625 7.109375l1.1875 0l0 0.40625q-0.328125 0.265625 -0.78125 0.421875q-0.453125 0.15625 -0.875 0.15625q-0.46875 0 -0.671875 -0.203125q-0.203125 -0.203125 -0.203125 -0.484375q0 -0.3125 0.046875 -0.609375q0.046875 -0.3125 0.140625 -0.6875l1.109375 -5.171875l-1.015625 -0.15625zm1.28125 -3.546875q0 -0.421875 0.25 -0.65625q0.265625 -0.234375 0.671875 -0.234375q0.453125 0 0.703125 0.234375q0.265625 0.234375 0.265625 0.65625q0 0.390625 -0.265625 0.625q-0.25 0.21875 -0.703125 0.21875q-0.40625 0 -0.671875 -0.21875q-0.25 -0.234375 -0.25 -0.625z" fill-rule="nonzero"/><path fill="#000000" d="m145.39465 114.66656l6.78125 0l0 1.15625l-6.78125 0l0 -1.15625zm0 2.65625l6.78125 0l0 1.15625l-6.78125 0l0 -1.15625zm15.461395 3.734375q0.53125 0 1.0 -0.15625q0.46875 -0.171875 0.796875 -0.484375q0.34375 -0.3125 0.53125 -0.734375q0.1875 -0.4375 0.1875 -0.953125q0 -1.125 -0.671875 -1.65625q-0.65625 -0.546875 -1.8125 -0.546875l-1.1875 0l0 -0.46875l2.296875 -3.546875l0.734375 -0.703125l-1.03125 0.15625l-3.171875 0l0 -1.1875l5.71875 0l0 0.46875l-2.546875 3.828125l-0.5625 0.453125l0 0.03125l0.546875 -0.109375q0.640625 0.015625 1.171875 0.234375q0.546875 0.21875 0.953125 0.625q0.40625 0.40625 0.625 0.984375q0.21875 0.5625 0.21875 1.28125q0 0.859375 -0.3125 1.53125q-0.296875 0.671875 -0.8125 1.140625q-0.515625 0.453125 -1.21875 0.6875q-0.703125 0.234375 -1.484375 0.234375q-0.734375 0 -1.3125 -0.109375q-0.5625 -0.109375 -1.0 -0.28125l0.34375 -1.140625q0.359375 0.171875 0.859375 0.296875q0.515625 0.125 1.140625 0.125z" fill-rule="nonzero"/><path fill="#000000" fill-opacity="0.0" d="m134.1379 87.39885c0 4.2791214 -3.4689026 7.7480316 -7.7480316 7.7480316l-47.007874 0c-4.279114 0 -7.7480316 3.4689102 -7.7480316 7.7480316c0 -4.2791214 -3.4689102 -7.7480316 -7.748028 -7.7480316l-47.007874 0c-4.2791195 0 -7.7480316 -3.4689102 -7.7480316 -7.7480316z" fill-rule="evenodd"/><path fill="#000000" fill-opacity="0.0" d="m134.1379 87.39885c0 4.2791214 -3.4689026 7.7480316 -7.7480316 7.7480316l-47.007874 0c-4.279114 0 -7.7480316 3.4689102 -7.7480316 7.7480316c0 -4.2791214 -3.4689102 -7.7480316 -7.748028 -7.7480316l-47.007874 0c-4.2791195 0 -7.7480316 -3.4689102 -7.7480316 -7.7480316" fill-rule="evenodd"/><path stroke="#000000" stroke-width="1.0" stroke-linejoin="round" stroke-linecap="butt" d="m134.1379 87.39885c0 4.2791214 -3.4689026 7.7480316 -7.7480316 7.7480316l-47.007874 0c-4.279114 0 -7.7480316 3.4689102 -7.7480316 7.7480316c0 -4.2791214 -3.4689102 -7.7480316 -7.748028 -7.7480316l-47.007874 0c-4.2791195 0 -7.7480316 -3.4689102 -7.7480316 -7.7480316" fill-rule="evenodd"/><path fill="#000000" fill-opacity="0.0" d="m5.1300254 97.55633l137.44882 0l0 26.645668l-137.44882 0z" fill-rule="evenodd"/><path fill="#000000" d="m40.892353 114.467285q0 -0.484375 -0.296875 -0.75q-0.28125 -0.28125 -0.703125 -0.453125q-0.421875 -0.1875 -0.9375 -0.359375q-0.5 -0.171875 -0.921875 -0.4375q-0.421875 -0.265625 -0.71875 -0.671875q-0.28125 -0.421875 -0.28125 -1.125q0 -1.15625 0.65625 -1.6875q0.65625 -0.53125 1.828125 -0.53125q0.859375 0 1.4375 0.15625q0.59375 0.140625 1.03125 0.34375l-0.3125 1.0625q-0.359375 -0.171875 -0.890625 -0.3125q-0.515625 -0.140625 -1.109375 -0.140625q-0.703125 0 -1.03125 0.25q-0.328125 0.234375 -0.328125 0.828125q0 0.421875 0.28125 0.65625q0.296875 0.21875 0.71875 0.40625q0.421875 0.1875 0.921875 0.359375q0.515625 0.171875 0.9375 0.46875q0.421875 0.28125 0.703125 0.734375q0.296875 0.4375 0.296875 1.15625q0 0.5 -0.171875 0.953125q-0.15625 0.453125 -0.515625 0.78125q-0.359375 0.3125 -0.875 0.484375q-0.515625 0.1875 -1.21875 0.1875q-0.90625 0 -1.546875 -0.171875q-0.640625 -0.171875 -1.078125 -0.421875l0.390625 -1.078125q0.359375 0.203125 0.953125 0.390625q0.59375 0.171875 1.203125 0.171875q0.6875 0 1.125 -0.265625q0.453125 -0.28125 0.453125 -0.984375zm2.7672577 -1.828125q0 -2.03125 0.90625 -3.109375q0.90625 -1.078125 2.59375 -1.078125q0.90625 0 1.5625 0.296875q0.671875 0.296875 1.09375 0.84375q0.4375 0.546875 0.640625 1.328125q0.21875 0.78125 0.21875 1.71875q0 2.03125 -0.90625 3.109375q-0.90625 1.078125 -2.609375 1.078125q-0.890625 0 -1.5625 -0.296875q-0.65625 -0.296875 -1.09375 -0.84375q-0.421875 -0.546875 -0.640625 -1.328125q-0.203125 -0.78125 -0.203125 -1.71875zm1.328125 0q0 0.609375 0.125 1.171875q0.125 0.5625 0.375 0.984375q0.25 0.40625 0.671875 0.671875q0.421875 0.25 1.0 0.25q2.1875 0.015625 2.1875 -3.078125q0 -0.625 -0.125 -1.1875q-0.125 -0.5625 -0.375 -0.96875q-0.25 -0.421875 -0.671875 -0.671875q-0.421875 -0.25 -1.015625 -0.25q-2.171875 -0.015625 -2.171875 3.078125zm11.482269 -2.765625q-0.484375 -0.15625 -0.921875 -0.15625q-0.6875 0 -1.09375 0.375q-0.390625 0.375 -0.484375 0.953125l0 5.59375l-1.28125 0l0 -8.0l0.890625 0l0.25 0.96875l0.0625 0q0.296875 -0.53125 0.71875 -0.828125q0.421875 -0.296875 1.078125 -0.296875q0.46875 0 1.046875 0.15625l-0.265625 1.234375zm1.0762634 -1.234375l1.25 0l0 -1.578125l1.28125 -0.375l0 1.953125l2.171875 0l0 1.125l-2.171875 0l0 4.421875q0 0.84375 0.203125 1.1875q0.21875 0.34375 0.703125 0.34375q0.421875 0 0.703125 -0.09375q0.296875 -0.09375 0.640625 -0.234375l0.296875 0.984375q-0.4375 0.203125 -0.953125 0.328125q-0.5 0.125 -1.09375 0.125q-0.984375 0 -1.390625 -0.546875q-0.390625 -0.546875 -0.390625 -1.84375l0 -4.671875l-1.25 0l0 -1.125zm12.15427 7.359375q-0.484375 0.390625 -1.21875 0.609375q-0.71875 0.21875 -1.546875 0.21875q-0.90625 0 -1.578125 -0.296875q-0.671875 -0.296875 -1.109375 -0.84375q-0.4218788 -0.546875 -0.6406288 -1.3125q-0.203125 -0.78125 -0.203125 -1.734375q0 -2.046875 0.9062538 -3.109375q0.921875 -1.078125 2.609375 -1.078125q0.546875 0 1.09375 0.125q0.546875 0.109375 0.96875 0.453125q0.4375 0.328125 0.703125 0.953125q0.28125 0.609375 0.28125 1.609375q0 0.53125 -0.09375 1.171875l-5.140625 0q0 0.703125 0.140625 1.25q0.15625 0.546875 0.453125 0.921875q0.3125 0.375 0.796875 0.578125q0.484375 0.203125 1.1875 0.203125q0.546875 0 1.078125 -0.1875q0.546875 -0.203125 0.828125 -0.453125l0.484375 0.921875zm-2.765625 -6.4375q-0.9375 0 -1.515625 0.5q-0.5625 0.5 -0.671875 1.703125l3.96875 0q0 -1.21875 -0.46875 -1.703125q-0.453125 -0.5 -1.3125 -0.5zm11.190521 4.328125q0 0.8125 0.015625 1.484375q0.015625 0.65625 0.140625 1.296875l-0.859375 0l-0.3125 -1.140625l-0.078125 0q-0.3125 0.5625 -0.921875 0.9375q-0.609375 0.359375 -1.421875 0.359375q-1.59375 0 -2.375 -1.0q-0.78125 -1.015625 -0.78125 -3.15625q0 -2.046875 0.96875 -3.109375q0.96875 -1.0625 2.671875 -1.0625q0.59375 0 0.9375 0.0625q0.34375 0.0625 0.734375 0.203125l0 -3.328125l1.28125 0l0 8.453125zm-3.234375 1.828125q0.8125 0 1.296875 -0.421875q0.484375 -0.4375 0.65625 -1.296875l0 -3.96875q-0.28125 -0.21875 -0.65625 -0.3125q-0.359375 -0.109375 -0.96875 -0.109375q-1.109375 0 -1.734375 0.734375q-0.625 0.734375 -0.625 2.328125q0 0.65625 0.09375 1.21875q0.109375 0.5625 0.34375 0.96875q0.25 0.390625 0.640625 0.625q0.390625 0.234375 0.953125 0.234375zm9.97377 -7.078125l0.875 0l0.25 0.953125l0.0625 0q0.359375 -0.546875 0.9375 -0.84375q0.59375 -0.296875 1.34375 -0.296875q1.59375 0 2.375 0.953125q0.796875 0.9375 0.796875 3.078125q0 1.0 -0.265625 1.8125q-0.265625 0.8125 -0.75 1.375q-0.46875 0.546875 -1.15625 0.859375q-0.671875 0.296875 -1.515625 0.296875q-0.59375 0 -0.9375 -0.078125q-0.34375 -0.0625 -0.734375 -0.234375l0 3.328125l-1.28125 0l0 -11.203125zm3.234375 0.921875q-0.828125 0 -1.296875 0.4375q-0.46875 0.421875 -0.65625 1.28125l0 3.96875q0.28125 0.21875 0.640625 0.34375q0.375 0.125 0.984375 0.125q1.109375 0 1.75 -0.828125q0.65625 -0.828125 0.65625 -2.421875q0 -0.65625 -0.125 -1.1875q-0.109375 -0.546875 -0.359375 -0.921875q-0.234375 -0.375 -0.625 -0.578125q-0.390625 -0.21875 -0.96875 -0.21875zm5.296646 -0.328125q0.609375 -0.375 1.40625 -0.546875q0.8125 -0.171875 1.6875 -0.171875q0.84375 0 1.34375 0.21875q0.5 0.21875 0.765625 0.59375q0.265625 0.359375 0.34375 0.796875q0.09375 0.421875 0.09375 0.859375q0 0.953125 -0.046875 1.875q-0.046875 0.90625 -0.046875 1.71875q0 0.59375 0.046875 1.125q0.046875 0.515625 0.171875 0.96875l-0.9375 0l-0.34375 -1.125l-0.078125 0q-0.140625 0.234375 -0.359375 0.453125q-0.21875 0.203125 -0.515625 0.375q-0.296875 0.171875 -0.703125 0.28125q-0.40625 0.109375 -0.90625 0.109375q-0.515625 0 -0.96875 -0.15625q-0.4375 -0.15625 -0.765625 -0.453125q-0.3125 -0.296875 -0.5 -0.703125q-0.171875 -0.421875 -0.171875 -0.953125q0 -0.703125 0.28125 -1.171875q0.296875 -0.484375 0.8125 -0.765625q0.515625 -0.28125 1.25 -0.390625q0.734375 -0.125 1.609375 -0.125q0.21875 0 0.4375 0q0.21875 0 0.4375 0.03125q0.046875 -0.484375 0.046875 -0.859375q0 -0.875 -0.359375 -1.234375q-0.34375 -0.359375 -1.265625 -0.359375q-0.28125 0 -0.59375 0.046875q-0.3125 0.046875 -0.640625 0.125q-0.328125 0.0625 -0.625 0.171875q-0.28125 0.09375 -0.515625 0.21875l-0.390625 -0.953125zm2.265625 6.421875q0.453125 0 0.796875 -0.125q0.359375 -0.125 0.609375 -0.296875q0.265625 -0.1875 0.421875 -0.40625q0.171875 -0.234375 0.25 -0.4375l0 -1.328125q-0.21875 -0.015625 -0.453125 -0.015625q-0.234375 -0.015625 -0.453125 -0.015625q-0.5 0 -0.96875 0.0625q-0.46875 0.046875 -0.828125 0.203125q-0.359375 0.140625 -0.578125 0.40625q-0.21875 0.265625 -0.21875 0.671875q0 0.546875 0.390625 0.921875q0.40625 0.359375 1.03125 0.359375zm9.576645 -5.78125q-0.484375 -0.15625 -0.921875 -0.15625q-0.6875 0 -1.09375 0.375q-0.390625 0.375 -0.484375 0.953125l0 5.59375l-1.28125 0l0 -8.0l0.890625 0l0.25 0.96875l0.0625 0q0.296875 -0.53125 0.71875 -0.828125q0.421875 -0.296875 1.078125 -0.296875q0.46875 0 1.046875 0.15625l-0.265625 1.234375zm1.0762634 -1.234375l1.25 0l0 -1.578125l1.28125 -0.375l0 1.953125l2.171875 0l0 1.125l-2.171875 0l0 4.421875q0 0.84375 0.203125 1.1875q0.21875 0.34375 0.703125 0.34375q0.421875 0 0.703125 -0.09375q0.296875 -0.09375 0.640625 -0.234375l0.296875 0.984375q-0.4375 0.203125 -0.953125 0.328125q-0.5 0.125 -1.09375 0.125q-0.984375 0 -1.390625 -0.546875q-0.390625 -0.546875 -0.390625 -1.84375l0 -4.671875l-1.25 0l0 -1.125z" fill-rule="nonzero"/><path fill="#000000" fill-opacity="0.0" d="m228.33395 87.526146l20.434235 0l0 22.614174l-20.434235 0z" fill-rule="evenodd"/><path fill="#000000" d="m236.71153 95.352394q0 0.984375 -0.375 2.03125q-0.359375 1.03125 -0.953125 2.078125q-0.578125 1.046875 -1.3125 2.046875q-0.71875 0.984375 -1.453125 1.890625l-0.90625 0.796875l0 0.078125l1.1875 -0.203125l4.0625 0l0 1.375l-7.421875 0l0 -0.546875q0.40625 -0.421875 0.984375 -1.046875q0.578125 -0.640625 1.203125 -1.40625q0.625 -0.78125 1.234375 -1.640625q0.609375 -0.875 1.09375 -1.765625q0.5 -0.90625 0.796875 -1.78125q0.296875 -0.875 0.296875 -1.65625q0 -0.921875 -0.515625 -1.53125q-0.515625 -0.609375 -1.578125 -0.609375q-0.71875 0 -1.390625 0.296875q-0.671875 0.28125 -1.15625 0.65625l-0.609375 -1.0625q0.65625 -0.5625 1.546875 -0.875q0.890625 -0.3125 1.921875 -0.3125q0.796875 0 1.40625 0.234375q0.625 0.234375 1.046875 0.671875q0.4375 0.421875 0.65625 1.015625q0.234375 0.578125 0.234375 1.265625zm3.8551636 8.71875l2.609375 0l0 -9.03125l0.1875 -1.109375l-0.75 0.875l-2.046875 1.484375l-0.703125 -0.953125l4.09375 -3.171875l0.671875 0l0 11.90625l2.5625 0l0 1.375l-6.625 0l0 -1.375z" fill-rule="nonzero"/><path fill="#000000" fill-opacity="0.0" d="m155.68004 65.64806c0 16.598427 36.327515 33.196854 72.655014 33.196854" fill-rule="evenodd"/><path stroke="#000000" stroke-width="1.0" stroke-linejoin="round" stroke-linecap="butt" d="m155.68004 65.64806c0 16.598427 36.327515 33.196854 72.655014 33.196854" fill-rule="evenodd"/><path fill="#000000" fill-opacity="0.0" d="m248.76819 98.83323c48.756104 0 97.51224 -18.094482 97.51224 -36.188972" fill-rule="evenodd"/><path stroke="#000000" stroke-width="1.0" stroke-linejoin="round" stroke-linecap="butt" d="m248.76819 98.83323c24.378052 0 48.756104 -4.5236206 67.03964 -11.3090515c9.141785 -3.3927155 16.759949 -7.350891 22.092651 -11.591782c2.6663513 -2.120453 4.761322 -4.311577 6.189728 -6.538048c0.7142029 -1.1132355 1.2617493 -2.2353058 1.6307678 -3.3617935l0.002166748 -0.006828308" fill-rule="evenodd"/><path fill="#000000" stroke="#000000" stroke-width="1.0" stroke-linecap="butt" d="m345.72314 66.02573l0.9267273 1.2924881l-0.60717773 -3.231514l-1.61203 2.8657684z" fill-rule="evenodd"/><path fill="#000000" fill-opacity="0.0" d="m255.59059 6.859479l20.43422 0l0 22.614174l-20.43422 0z" fill-rule="evenodd"/><path fill="#000000" d="m257.65567 23.404478l2.609375 0l0 -9.031251l0.1875 -1.109375l-0.75 0.875l-2.046875 1.484375l-0.703125 -0.953125l4.09375 -3.171875l0.671875 0l0 11.906251l2.5625 0l0 1.375l-6.625 0l0 -1.375zm9.120789 -7.734376q0 -0.890625 0.265625 -1.65625q0.265625 -0.765625 0.765625 -1.328125q0.5 -0.5625 1.25 -0.875q0.765625 -0.3125 1.765625 -0.3125q1.90625 0 2.96875 1.234375q1.0625 1.21875 1.0625 3.468751q0 2.109375 -0.484375 3.6875q-0.46875 1.5625 -1.3125 2.65625q-0.828125 1.078125 -1.984375 1.6875q-1.140625 0.609375 -2.484375 0.765625l-0.34375 -1.1875q1.09375 -0.171875 1.953125 -0.640625q0.875 -0.46875 1.5 -1.171875q0.625 -0.703125 1.015625 -1.609375q0.390625 -0.90625 0.53125 -1.96875q-0.5 0.59375 -1.109375 0.828125q-0.59375 0.234375 -1.59375 0.234375q-0.765625 0 -1.453125 -0.25q-0.671875 -0.25 -1.203125 -0.734375q-0.515625 -0.484375 -0.8125 -1.1875q-0.296875 -0.71875 -0.296875 -1.640626zm1.546875 -0.140625q0 1.328126 0.703125 1.984376q0.703125 0.65625 1.84375 0.65625q0.90625 0 1.5625 -0.296875q0.65625 -0.296875 0.9375 -0.78125q0.03125 -0.234375 0.03125 -0.421875q0 -0.1875 0 -0.390625q0 -0.67187595 -0.15625 -1.296876q-0.15625 -0.625 -0.484375 -1.125q-0.3125 -0.5 -0.828125 -0.78125q-0.515625 -0.28125 -1.203125 -0.28125q-1.140625 0 -1.78125 0.71875q-0.625 0.71875 -0.625 2.015625z" fill-rule="nonzero"/><path fill="#000000" fill-opacity="0.0" d="m255.59059 18.166565c-49.950333 0 -99.90065 20.582676 -99.90065 41.165356" fill-rule="evenodd"/><path stroke="#000000" stroke-width="1.0" stroke-linejoin="round" stroke-linecap="butt" d="m255.59059 18.166565c-24.975174 0 -49.950333 5.145672 -68.6817 12.864176c-9.365692 3.859251 -17.170425 8.3617115 -22.633743 13.185774c-2.731659 2.412033 -4.87796 4.9044647 -6.3413544 7.4370995c-0.73168945 1.2663193 -1.2926483 2.5426865 -1.6706848 3.8240776c-0.023635864 0.080085754 -0.046554565 0.1601944 -0.068740845 0.2403183l-0.057891846 0.21603394" fill-rule="evenodd"/><path fill="#000000" stroke="#000000" stroke-width="1.0" stroke-linecap="butt" d="m156.13647 55.934048l-0.96847534 -1.2615242l0.7124176 3.2099533l1.5175781 -2.9169006z" fill-rule="evenodd"/><path fill="#000000" fill-opacity="0.0" d="m276.0248 18.166565c35.11856 0 70.23712 19.070866 70.23712 38.14173" fill-rule="evenodd"/><path stroke="#000000" stroke-width="1.0" stroke-linejoin="round" stroke-linecap="butt" d="m276.0248 18.166565c35.11856 0 70.23712 19.070866 70.23712 38.14173" fill-rule="evenodd"/><path fill="#000000" fill-opacity="0.0" d="m148.53221 62.485573c0 -2.4700623 1.8746338 -4.4724426 4.1871033 -4.4724426c1.1104889 0 2.1754913 0.47120285 2.9607239 1.309948c0.78523254 0.8387451 1.2263794 1.9763298 1.2263794 3.1624947c0 2.4700623 -1.8746338 4.4724426 -4.1871033 4.4724426c-2.3124695 0 -4.1871033 -2.0023804 -4.1871033 -4.4724426z" fill-rule="evenodd"/><path fill="#000000" fill-opacity="0.0" d="m345.04803 59.485573c0 -2.4700623 1.8746338 -4.4724426 4.1871033 -4.4724426c1.1104736 0 2.175476 0.47120285 2.9607239 1.309948c0.7852173 0.8387451 1.2263794 1.9763298 1.2263794 3.1624947c0 2.4700584 -1.8746338 4.472439 -4.1871033 4.472439c-2.3124695 0 -4.1871033 -2.0023804 -4.1871033 -4.472439z" fill-rule="evenodd"/><path fill="#000000" fill-opacity="0.0" d="m371.41348 43.408035l39.433075 0l0 39.433067l-39.433075 0z" fill-rule="evenodd"/><path stroke="#000000" stroke-width="2.0" stroke-linejoin="round" stroke-linecap="butt" d="m371.41348 43.408035l39.433075 0l0 39.433067l-39.433075 0z" fill-rule="evenodd"/><path fill="#000000" d="m387.40076 59.95082q0 0.984375 -0.375 2.03125q-0.359375 1.03125 -0.953125 2.078125q-0.578125 1.046875 -1.3125 2.046875q-0.71875 0.984375 -1.453125 1.890625l-0.90625 0.796875l0 0.078125l1.1875 -0.203125l4.0625 0l0 1.375l-7.421875 0l0 -0.546875q0.40625 -0.421875 0.984375 -1.046875q0.578125 -0.640625 1.203125 -1.40625q0.625 -0.78125 1.234375 -1.640625q0.609375 -0.875 1.09375 -1.765625q0.5 -0.90625 0.796875 -1.78125q0.296875 -0.875 0.296875 -1.65625q0 -0.921875 -0.515625 -1.53125q-0.515625 -0.609375 -1.578125 -0.609375q-0.71875 0 -1.390625 0.296875q-0.671875 0.28125 -1.15625 0.65625l-0.609375 -1.0625q0.65625 -0.5625 1.546875 -0.875q0.890625 -0.3125 1.921875 -0.3125q0.796875 0 1.40625 0.234375q0.625 0.234375 1.046875 0.671875q0.4375 0.421875 0.65625 1.015625q0.234375 0.578125 0.234375 1.265625zm3.8551636 8.71875l2.609375 0l0 -9.03125l0.1875 -1.109375l-0.75 0.875l-2.046875 1.484375l-0.703125 -0.953125l4.09375 -3.171875l0.671875 0l0 11.90625l2.5625 0l0 1.375l-6.625 0l0 -1.375z" fill-rule="nonzero"/><path fill="#000000" fill-opacity="0.0" d="m351.01718 109.538055l0.12597656 -26.708656" fill-rule="evenodd"/><path stroke="#000000" stroke-width="2.0" stroke-linejoin="round" stroke-linecap="butt" d="m351.01718 109.538055l0.06939697 -14.708794" fill-rule="evenodd"/><path fill="#000000" stroke="#000000" stroke-width="2.0" stroke-linecap="butt" d="m354.38998 94.84484l-3.26062 -9.091675l-3.346222 9.060516z" fill-rule="evenodd"/><path fill="#000000" fill-opacity="0.0" d="m304.9857 109.538055l92.06299 0l0 20.062988l-92.06299 0z" fill-rule="evenodd"/><path fill="#000000" d="m329.40613 120.53268q0.09375 -0.390625 0.1875 -0.796875q0.09375 -0.421875 0.109375 -0.6875q-0.015625 -0.421875 -0.140625 -0.671875q-0.125 -0.25 -0.484375 -0.25q-0.390625 0 -0.796875 0.3125q-0.390625 0.296875 -0.75 0.765625q-0.359375 0.46875 -0.65625 1.015625q-0.296875 0.53125 -0.484375 1.015625l-0.984375 4.09375l-1.28125 0l1.015625 -4.5q0.109375 -0.484375 0.1875 -0.9375q0.078125 -0.46875 0.078125 -0.96875q0 -0.359375 -0.125 -0.578125q-0.125 -0.21875 -0.453125 -0.21875q-0.3125 0 -0.703125 0.3125q-0.375 0.296875 -0.75 0.765625q-0.359375 0.46875 -0.671875 1.015625q-0.3125 0.53125 -0.515625 1.03125l-0.84375 4.078125l-1.375 0l1.484375 -7.078125l-0.96875 -0.140625l0 -0.390625q0.53125 -0.28125 1.140625 -0.421875q0.609375 -0.15625 1.0625 -0.15625l0.34375 0.1875l-0.703125 2.828125l0.0625 0q0.1875 -0.4375 0.53125 -0.96875q0.34375 -0.53125 0.78125 -0.984375q0.453125 -0.453125 0.96875 -0.75q0.515625 -0.3125 1.03125 -0.3125q0.1875 0 0.375 0.0625q0.1875 0.0625 0.328125 0.234375q0.15625 0.15625 0.25 0.453125q0.09375 0.28125 0.09375 0.734375q0 0.34375 -0.078125 0.75q-0.0625 0.40625 -0.15625 0.78125q0.234375 -0.546875 0.59375 -1.078125q0.375 -0.53125 0.8125 -0.953125q0.4375 -0.4375 0.921875 -0.703125q0.484375 -0.28125 1.0 -0.28125q0.609375 0 0.921875 0.390625q0.3125 0.375 0.3125 1.046875q0 0.515625 -0.109375 0.96875q-0.09375 0.453125 -0.203125 0.984375l-1.03125 3.90625l1.171875 0l0 0.40625q-0.3125 0.265625 -0.78125 0.421875q-0.453125 0.15625 -0.875 0.15625q-0.46875 0 -0.640625 -0.203125q-0.171875 -0.203125 -0.171875 -0.5q0 -0.46875 0.21875 -1.28125l0.75 -2.90625zm3.8156433 -2.421875l0 -0.390625q0.234375 -0.109375 0.53125 -0.203125q0.3125 -0.109375 0.625 -0.1875q0.328125 -0.078125 0.609375 -0.125q0.296875 -0.0625 0.515625 -0.0625l0.296875 0.1875l-1.515625 7.109375l1.1875 0l0 0.40625q-0.328125 0.265625 -0.78125 0.421875q-0.453125 0.15625 -0.875 0.15625q-0.46875 0 -0.671875 -0.203125q-0.203125 -0.203125 -0.203125 -0.484375q0 -0.3125 0.046875 -0.609375q0.046875 -0.3125 0.140625 -0.6875l1.109375 -5.171875l-1.015625 -0.15625zm1.28125 -3.546875q0 -0.421875 0.25 -0.65625q0.265625 -0.234375 0.671875 -0.234375q0.453125 0 0.703125 0.234375q0.265625 0.234375 0.265625 0.65625q0 0.390625 -0.265625 0.625q-0.25 0.21875 -0.703125 0.21875q-0.40625 0 -0.671875 -0.21875q-0.25 -0.234375 -0.25 -0.625zm8.182007 6.203125q0.109375 -0.5 0.203125 -0.921875q0.09375 -0.421875 0.09375 -0.828125q0 -0.375 -0.171875 -0.625q-0.171875 -0.265625 -0.53125 -0.265625q-0.4375 0 -0.890625 0.359375q-0.4375 0.34375 -0.828125 0.84375q-0.390625 0.5 -0.703125 1.03125q-0.296875 0.53125 -0.46875 0.890625l-0.84375 4.078125l-1.34375 0l1.40625 -7.078125l-0.96875 -0.140625l0.03125 -0.390625q0.21875 -0.125 0.5 -0.21875q0.28125 -0.109375 0.578125 -0.1875q0.296875 -0.078125 0.578125 -0.125q0.28125 -0.046875 0.515625 -0.046875l0.3125 0.1875l-0.59375 2.828125l0.078125 0q0.296875 -0.640625 0.6875 -1.1875q0.390625 -0.546875 0.828125 -0.953125q0.453125 -0.421875 0.921875 -0.640625q0.484375 -0.234375 0.984375 -0.234375q0.671875 0 0.984375 0.421875q0.3125 0.421875 0.3125 1.0625q0 0.34375 -0.078125 0.875q-0.078125 0.53125 -0.203125 1.0l-0.90625 3.9375l1.1875 0l0 0.40625q-0.328125 0.265625 -0.78125 0.421875q-0.453125 0.15625 -0.890625 0.15625q-0.453125 0 -0.640625 -0.1875q-0.171875 -0.1875 -0.171875 -0.421875q0 -0.296875 0.078125 -0.65625q0.078125 -0.359375 0.15625 -0.734375l0.578125 -2.65625zm6.7382812 4.5625l-4.09375 0l0.078125 -0.46875q0.703125 -0.28125 1.375 -0.375l2.0 -9.5q-0.3125 -0.0625 -0.609375 -0.15625q-0.28125 -0.109375 -0.59375 -0.234375l0.125 -0.46875l4.09375 0l-0.09375 0.46875q-0.328125 0.125 -0.703125 0.234375q-0.359375 0.09375 -0.6875 0.15625l-2.0 9.5q0.328125 0.0625 0.640625 0.15625q0.3125 0.09375 0.546875 0.21875l-0.078125 0.46875zm7.5817566 -4.5625q0.109375 -0.5 0.203125 -0.921875q0.09375 -0.421875 0.09375 -0.828125q0 -0.375 -0.171875 -0.625q-0.171875 -0.265625 -0.53125 -0.265625q-0.4375 0 -0.890625 0.359375q-0.4375 0.34375 -0.828125 0.84375q-0.390625 0.5 -0.703125 1.03125q-0.296875 0.53125 -0.46875 0.890625l-0.84375 4.078125l-1.34375 0l1.40625 -7.078125l-0.96875 -0.140625l0.03125 -0.390625q0.21875 -0.125 0.5 -0.21875q0.28125 -0.109375 0.578125 -0.1875q0.296875 -0.078125 0.578125 -0.125q0.28125 -0.046875 0.515625 -0.046875l0.3125 0.1875l-0.59375 2.828125l0.078125 0q0.296875 -0.640625 0.6875 -1.1875q0.390625 -0.546875 0.828125 -0.953125q0.453125 -0.421875 0.921875 -0.640625q0.484375 -0.234375 0.984375 -0.234375q0.671875 0 0.984375 0.421875q0.3125 0.421875 0.3125 1.0625q0 0.34375 -0.078125 0.875q-0.078125 0.53125 -0.203125 1.0l-0.90625 3.9375l1.1875 0l0 0.40625q-0.328125 0.265625 -0.78125 0.421875q-0.453125 0.15625 -0.890625 0.15625q-0.453125 0 -0.640625 -0.1875q-0.171875 -0.1875 -0.171875 -0.421875q0 -0.296875 0.078125 -0.65625q0.078125 -0.359375 0.15625 -0.734375l0.578125 -2.65625zm5.7226257 3.765625q0.421875 0 0.859375 -0.40625q0.4375 -0.40625 0.8125 -0.984375q0.390625 -0.578125 0.6875 -1.203125q0.3125 -0.625 0.484375 -1.046875l0.515625 -2.734375q-0.25 -0.15625 -0.453125 -0.203125q-0.1875 -0.0625 -0.5625 -0.078125q-0.765625 0.015625 -1.375 0.46875q-0.609375 0.453125 -1.03125 1.171875q-0.40625 0.703125 -0.625 1.59375q-0.21875 0.875 -0.21875 1.71875q0 0.8125 0.203125 1.265625q0.203125 0.4375 0.703125 0.4375zm2.515625 -2.34375q-0.203125 0.578125 -0.53125 1.171875q-0.3125 0.59375 -0.71875 1.078125q-0.40625 0.46875 -0.90625 0.78125q-0.484375 0.296875 -1.03125 0.296875q-1.671875 0 -1.671875 -2.421875q0 -1.140625 0.3125 -2.203125q0.328125 -1.0625 0.9375 -1.890625q0.609375 -0.828125 1.46875 -1.3125q0.859375 -0.5 1.96875 -0.5q0.421875 0 0.625 0.0625q0.203125 0.046875 0.53125 0.1875l0.609375 -3.015625l-1.125 -0.15625l0 -0.390625q0.234375 -0.09375 0.515625 -0.1875q0.296875 -0.09375 0.609375 -0.15625q0.3125 -0.078125 0.625 -0.140625q0.328125 -0.0625 0.609375 -0.09375l0.328125 0.125l-2.1875 11.03125l1.171875 0l0 0.390625q-0.328125 0.265625 -0.78125 0.421875q-0.4375 0.15625 -0.875 0.15625q-0.46875 0 -0.671875 -0.1875q-0.1875 -0.203125 -0.1875 -0.4375q0 -0.28125 0.109375 -0.9375q0.109375 -0.65625 0.328125 -1.671875l-0.0625 0zm9.247528 1.71875q-0.140625 0.296875 -0.421875 0.59375q-0.265625 0.28125 -0.640625 0.515625q-0.359375 0.234375 -0.828125 0.359375q-0.453125 0.140625 -0.984375 0.140625q-1.328125 0 -2.046875 -0.75q-0.703125 -0.765625 -0.703125 -2.109375q0 -1.140625 0.3125 -2.140625q0.328125 -1.015625 0.90625 -1.765625q0.578125 -0.75 1.390625 -1.171875q0.828125 -0.4375 1.84375 -0.4375q0.765625 0 1.3125 0.390625q0.546875 0.390625 0.546875 1.15625q0 1.140625 -1.125 1.796875q-1.125 0.65625 -3.640625 0.84375q-0.0625 0.265625 -0.09375 0.53125q-0.015625 0.25 -0.015625 0.5q0 0.953125 0.484375 1.5625q0.5 0.609375 1.4375 0.609375q0.296875 0 0.59375 -0.09375q0.296875 -0.09375 0.5625 -0.234375q0.265625 -0.15625 0.484375 -0.3125q0.21875 -0.15625 0.375 -0.296875l0.25 0.3125zm-1.671875 -6.078125q-0.6875 0.015625 -1.28125 0.65625q-0.59375 0.625 -1.015625 2.15625q1.5625 -0.046875 2.421875 -0.53125q0.859375 -0.5 0.859375 -1.359375q0 -0.328125 -0.203125 -0.609375q-0.1875 -0.296875 -0.78125 -0.3125zm5.8890076 4.09375q-0.171875 0.1875 -0.40625 0.421875q-0.234375 0.21875 -0.46875 0.46875q-0.21875 0.234375 -0.40625 0.46875q-0.1875 0.234375 -0.3125 0.453125q-0.03125 0.109375 -0.046875 0.3125q0 0.203125 -0.015625 0.4375q0 0.234375 0 0.4375q0 0.203125 0.015625 0.296875q-0.265625 0.109375 -0.546875 0.15625q-0.28125 0.046875 -0.53125 0.046875q-0.53125 0 -0.890625 -0.203125q0.15625 -0.484375 0.59375 -1.078125q0.453125 -0.59375 1.0 -1.140625q0.546875 -0.5625 1.046875 -1.015625q0.515625 -0.46875 0.78125 -0.6875l-1.09375 -2.9375l-1.03125 -0.140625l0 -0.390625q0.109375 -0.0625 0.28125 -0.171875q0.1875 -0.109375 0.421875 -0.203125q0.234375 -0.09375 0.46875 -0.15625q0.234375 -0.0625 0.46875 -0.0625q0.34375 0 0.5 0.1875q0.171875 0.171875 0.265625 0.421875l0.78125 2.78125q0.375 -0.375 0.8125 -0.828125q0.4375 -0.46875 0.65625 -0.890625q0.015625 -0.109375 0.015625 -0.3125q0 -0.203125 -0.015625 -0.4375q-0.015625 -0.234375 -0.03125 -0.4375q-0.015625 -0.203125 -0.03125 -0.296875q0.28125 -0.09375 0.53125 -0.140625q0.265625 -0.0625 0.546875 -0.0625q0.515625 0 0.890625 0.203125q-0.09375 0.328125 -0.328125 0.703125q-0.21875 0.359375 -0.53125 0.734375q-0.296875 0.359375 -0.640625 0.71875q-0.34375 0.359375 -0.671875 0.671875q-0.3125 0.3125 -0.59375 0.5625q-0.265625 0.25 -0.4375 0.390625l1.15625 3.109375l1.046875 0.140625l0 0.390625q-0.09375 0.0625 -0.28125 0.171875q-0.1875 0.09375 -0.40625 0.1875q-0.21875 0.09375 -0.46875 0.15625q-0.234375 0.0625 -0.453125 0.0625q-0.328125 0 -0.515625 -0.171875q-0.171875 -0.171875 -0.25 -0.4375l-0.875 -2.890625z" fill-rule="nonzero"/><path fill="#000000" fill-opacity="0.0" d="m437.41873 43.352917l39.433075 0l0 39.43307l-39.433075 0z" fill-rule="evenodd"/><path stroke="#000000" stroke-width="2.0" stroke-linejoin="round" stroke-linecap="butt" d="m437.41873 43.352917l39.433075 0l0 39.43307l-39.433075 0z" fill-rule="evenodd"/><path fill="#000000" d="m453.13046 60.880077q0 -0.890625 0.265625 -1.65625q0.265625 -0.765625 0.765625 -1.328125q0.5 -0.5625 1.25 -0.875q0.765625 -0.3125 1.765625 -0.3125q1.90625 0 2.96875 1.234375q1.0625 1.21875 1.0625 3.46875q0 2.109375 -0.484375 3.6874962q-0.46875 1.5625 -1.3125 2.65625q-0.828125 1.078125 -1.984375 1.6875q-1.140625 0.609375 -2.484375 0.765625l-0.34375 -1.1875q1.09375 -0.171875 1.953125 -0.640625q0.875 -0.46875 1.5 -1.171875q0.625 -0.703125 1.015625 -1.609375q0.390625 -0.90625 0.53125 -1.9687462q-0.5 0.5937462 -1.109375 0.8281212q-0.59375 0.234375 -1.59375 0.234375q-0.765625 0 -1.453125 -0.25q-0.671875 -0.25 -1.203125 -0.7343712q-0.515625 -0.484375 -0.8125 -1.1875q-0.296875 -0.71875 -0.296875 -1.640625zm1.546875 -0.140625q0 1.328125 0.703125 1.984375q0.703125 0.65625 1.84375 0.65625q0.90625 0 1.5625 -0.296875q0.65625 -0.296875 0.9375 -0.78125q0.03125 -0.234375 0.03125 -0.421875q0 -0.1875 0 -0.390625q0 -0.671875 -0.15625 -1.296875q-0.15625 -0.625 -0.484375 -1.125q-0.3125 -0.5 -0.828125 -0.78125q-0.515625 -0.28125 -1.203125 -0.28125q-1.140625 0 -1.78125 0.71875q-0.625 0.71875 -0.625 2.015625z" fill-rule="nonzero"/><path fill="#000000" fill-opacity="0.0" d="m477.41873 43.352917l39.433075 0l0 39.43307l-39.433075 0z" fill-rule="evenodd"/><path stroke="#000000" stroke-width="2.0" stroke-linejoin="round" stroke-linecap="butt" d="m477.41873 43.352917l39.433075 0l0 39.43307l-39.433075 0z" fill-rule="evenodd"/><path fill="#000000" d="m487.0935 68.61445l2.609375 0l0 -9.031246l0.1875 -1.109375l-0.75 0.875l-2.046875 1.484375l-0.703125 -0.953125l4.09375 -3.171875l0.671875 0l0 11.906246l2.5625 0l0 1.375l-6.625 0l0 -1.375zm17.933289 -2.640625l-2.203125 0l0 4.015625l-1.453125 0l0 -4.015625l-5.75 0l0 -0.609375l6.1875 -8.640621l1.015625 0l0 7.953121l2.203125 0l0 1.296875zm-3.65625 -5.374996l0.1875 -1.515625l-0.0625 0l-0.65625 1.265625l-2.625 3.5625l-0.890625 0.9062462l1.296875 -0.140625l2.75 0l0 -4.078121z" fill-rule="nonzero"/><path fill="#000000" fill-opacity="0.0" d="m517.41876 43.352917l39.433044 0l0 39.43307l-39.433044 0z" fill-rule="evenodd"/><path stroke="#000000" stroke-width="2.0" stroke-linejoin="round" stroke-linecap="butt" d="m517.41876 43.352917l39.433044 0l0 39.43307l-39.433044 0z" fill-rule="evenodd"/><path fill="#000000" d="m527.0935 68.61445l2.609375 0l0 -9.031246l0.1875 -1.109375l-0.75 0.875l-2.046875 1.484375l-0.703125 -0.953125l4.09375 -3.171875l0.671875 0l0 11.906246l2.5625 0l0 1.375l-6.625 0l0 -1.375zm9.417664 -1.734375q0 -1.1875 0.609375 -2.046875q0.625 -0.8749962 1.9375 -1.5781212q-0.46875 -0.28125 -0.875 -0.578125q-0.40625 -0.3125 -0.71875 -0.703125q-0.296875 -0.390625 -0.484375 -0.875q-0.171875 -0.5 -0.171875 -1.125q0 -0.734375 0.25 -1.328125q0.265625 -0.59375 0.734375 -1.015625q0.46875 -0.4375 1.125 -0.671875q0.671875 -0.25 1.515625 -0.25q0.78125 0 1.40625 0.234375q0.640625 0.21875 1.078125 0.609375q0.4375 0.390625 0.671875 0.9375q0.25 0.53125 0.25 1.1875q0 1.0625 -0.484375 1.875q-0.484375 0.8125 -1.59375 1.59375q0.484375 0.28125 0.921875 0.625q0.4375 0.3281212 0.765625 0.7343712q0.328125 0.40625 0.515625 0.921875q0.1875 0.515625 0.1875 1.171875q0 0.796875 -0.265625 1.46875q-0.265625 0.65625 -0.765625 1.140625q-0.5 0.46875 -1.234375 0.734375q-0.734375 0.265625 -1.65625 0.265625q-0.90625 0 -1.59375 -0.25q-0.6875 -0.265625 -1.171875 -0.703125q-0.46875 -0.453125 -0.71875 -1.0625q-0.234375 -0.609375 -0.234375 -1.3125zm6.171875 -0.1875q0 -0.5625 -0.21875 -0.984375q-0.21875 -0.421875 -0.59375 -0.765625q-0.359375 -0.34375 -0.828125 -0.625q-0.46875 -0.28125 -0.96875 -0.5468712q-1.140625 0.6406212 -1.625 1.4218712q-0.484375 0.78125 -0.484375 1.5q0 0.4375 0.140625 0.859375q0.15625 0.40625 0.453125 0.703125q0.3125 0.296875 0.75 0.484375q0.4375 0.171875 1.015625 0.171875q0.46875 0 0.890625 -0.140625q0.4375 -0.140625 0.75 -0.40625q0.328125 -0.28125 0.515625 -0.703125q0.203125 -0.421875 0.203125 -0.96875zm-4.421875 -6.765621q0 0.53125 0.203125 0.9375q0.21875 0.390625 0.5625 0.71875q0.34375 0.3125 0.78125 0.578125q0.453125 0.265625 0.9375 0.515625q0.84375 -0.65625 1.234375 -1.28125q0.40625 -0.640625 0.40625 -1.40625q0 -0.953125 -0.59375 -1.46875q-0.578125 -0.515625 -1.390625 -0.515625q-0.515625 0 -0.90625 0.171875q-0.390625 0.171875 -0.671875 0.4375q-0.28125 0.25 -0.421875 0.609375q-0.140625 0.34375 -0.140625 0.703125z" fill-rule="nonzero"/><path fill="#000000" fill-opacity="0.0" d="m557.41876 43.352917l39.433044 0l0 39.43307l-39.433044 0z" fill-rule="evenodd"/><path stroke="#000000" stroke-width="2.0" stroke-linejoin="round" stroke-linecap="butt" d="m557.41876 43.352917l39.433044 0l0 39.43307l-39.433044 0z" fill-rule="evenodd"/><path fill="#000000" d="m567.0935 68.61445l2.609375 0l0 -9.031246l0.1875 -1.109375l-0.75 0.875l-2.046875 1.484375l-0.703125 -0.953125l4.09375 -3.171875l0.671875 0l0 11.906246l2.5625 0l0 1.375l-6.625 0l0 -1.375zm9.120789 -7.734371q0 -0.890625 0.265625 -1.65625q0.265625 -0.765625 0.765625 -1.328125q0.5 -0.5625 1.25 -0.875q0.765625 -0.3125 1.765625 -0.3125q1.90625 0 2.96875 1.234375q1.0625 1.21875 1.0625 3.46875q0 2.109375 -0.484375 3.6874962q-0.46875 1.5625 -1.3125 2.65625q-0.828125 1.078125 -1.984375 1.6875q-1.140625 0.609375 -2.484375 0.765625l-0.34375 -1.1875q1.09375 -0.171875 1.953125 -0.640625q0.875 -0.46875 1.5 -1.171875q0.625 -0.703125 1.015625 -1.609375q0.390625 -0.90625 0.53125 -1.9687462q-0.5 0.5937462 -1.109375 0.8281212q-0.59375 0.234375 -1.59375 0.234375q-0.765625 0 -1.453125 -0.25q-0.671875 -0.25 -1.203125 -0.7343712q-0.515625 -0.484375 -0.8125 -1.1875q-0.296875 -0.71875 -0.296875 -1.640625zm1.546875 -0.140625q0 1.328125 0.703125 1.984375q0.703125 0.65625 1.84375 0.65625q0.90625 0 1.5625 -0.296875q0.65625 -0.296875 0.9375 -0.78125q0.03125 -0.234375 0.03125 -0.421875q0 -0.1875 0 -0.390625q0 -0.671875 -0.15625 -1.296875q-0.15625 -0.625 -0.484375 -1.125q-0.3125 -0.5 -0.828125 -0.78125q-0.515625 -0.28125 -1.203125 -0.28125q-1.140625 0 -1.78125 0.71875q-0.625 0.71875 -0.625 2.015625z" fill-rule="nonzero"/><path fill="#000000" fill-opacity="0.0" d="m597.41876 43.352917l39.433044 0l0 39.43307l-39.433044 0z" fill-rule="evenodd"/><path stroke="#000000" stroke-width="2.0" stroke-linejoin="round" stroke-linecap="butt" d="m597.41876 43.352917l39.433044 0l0 39.43307l-39.433044 0z" fill-rule="evenodd"/><path fill="#000000" fill-opacity="0.0" d="m637.41876 43.352917l39.433044 0l0 39.43307l-39.433044 0z" fill-rule="evenodd"/><path stroke="#000000" stroke-width="2.0" stroke-linejoin="round" stroke-linecap="butt" d="m637.41876 43.352917l39.433044 0l0 39.43307l-39.433044 0z" fill-rule="evenodd"/><path fill="#000000" d="m653.406 59.895702q0 0.984375 -0.375 2.03125q-0.359375 1.03125 -0.953125 2.0781212q-0.578125 1.046875 -1.3125 2.046875q-0.71875 0.984375 -1.453125 1.890625l-0.90625 0.796875l0 0.078125l1.1875 -0.203125l4.0625 0l0 1.375l-7.421875 0l0 -0.546875q0.40625 -0.421875 0.984375 -1.046875q0.578125 -0.640625 1.203125 -1.40625q0.625 -0.78125 1.234375 -1.640625q0.609375 -0.875 1.09375 -1.7656212q0.5 -0.90625 0.796875 -1.78125q0.296875 -0.875 0.296875 -1.65625q0 -0.921875 -0.515625 -1.53125q-0.515625 -0.609375 -1.578125 -0.609375q-0.71875 0 -1.390625 0.296875q-0.671875 0.28125 -1.15625 0.65625l-0.609375 -1.0625q0.65625 -0.5625 1.546875 -0.875q0.890625 -0.3125 1.921875 -0.3125q0.796875 0 1.40625 0.234375q0.625 0.234375 1.046875 0.671875q0.4375 0.421875 0.65625 1.015625q0.234375 0.578125 0.234375 1.265625zm3.8864136 10.093746l4.6875 -10.937496l0.828125 -0.90625l-1.109375 0.171875l-5.3125 0l0 -1.390625l7.796875 0l0 0.5l-5.375 12.562496l-1.515625 0z" fill-rule="nonzero"/><path fill="#000000" fill-opacity="0.0" d="m677.41876 43.352917l39.433044 0l0 39.43307l-39.433044 0z" fill-rule="evenodd"/><path stroke="#000000" stroke-width="2.0" stroke-linejoin="round" stroke-linecap="butt" d="m677.41876 43.352917l39.433044 0l0 39.43307l-39.433044 0z" fill-rule="evenodd"/><path fill="#000000" d="m693.406 59.895702q0 0.984375 -0.375 2.03125q-0.359375 1.03125 -0.953125 2.0781212q-0.578125 1.046875 -1.3125 2.046875q-0.71875 0.984375 -1.453125 1.890625l-0.90625 0.796875l0 0.078125l1.1875 -0.203125l4.0625 0l0 1.375l-7.421875 0l0 -0.546875q0.40625 -0.421875 0.984375 -1.046875q0.578125 -0.640625 1.203125 -1.40625q0.625 -0.78125 1.234375 -1.640625q0.609375 -0.875 1.09375 -1.7656212q0.5 -0.90625 0.796875 -1.78125q0.296875 -0.875 0.296875 -1.65625q0 -0.921875 -0.515625 -1.53125q-0.515625 -0.609375 -1.578125 -0.609375q-0.71875 0 -1.390625 0.296875q-0.671875 0.28125 -1.15625 0.65625l-0.609375 -1.0625q0.65625 -0.5625 1.546875 -0.875q0.890625 -0.3125 1.921875 -0.3125q0.796875 0 1.40625 0.234375q0.625 0.234375 1.046875 0.671875q0.4375 0.421875 0.65625 1.015625q0.234375 0.578125 0.234375 1.265625zm3.8864136 10.093746l4.6875 -10.937496l0.828125 -0.90625l-1.109375 0.171875l-5.3125 0l0 -1.390625l7.796875 0l0 0.5l-5.375 12.562496l-1.515625 0z" fill-rule="nonzero"/><path fill="#000000" fill-opacity="0.0" d="m717.41876 43.352917l39.433044 0l0 39.43307l-39.433044 0z" fill-rule="evenodd"/><path stroke="#000000" stroke-width="2.0" stroke-linejoin="round" stroke-linecap="butt" d="m717.41876 43.352917l39.433044 0l0 39.43307l-39.433044 0z" fill-rule="evenodd"/><path fill="#000000" fill-opacity="0.0" d="m757.41876 43.352917l39.433044 0l0 39.43307l-39.433044 0z" fill-rule="evenodd"/><path stroke="#000000" stroke-width="2.0" stroke-linejoin="round" stroke-linecap="butt" d="m757.41876 43.352917l39.433044 0l0 39.43307l-39.433044 0z" fill-rule="evenodd"/><path fill="#000000" d="m773.406 59.895702q0 0.984375 -0.375 2.03125q-0.359375 1.03125 -0.953125 2.0781212q-0.578125 1.046875 -1.3125 2.046875q-0.71875 0.984375 -1.453125 1.890625l-0.90625 0.796875l0 0.078125l1.1875 -0.203125l4.0625 0l0 1.375l-7.421875 0l0 -0.546875q0.40625 -0.421875 0.984375 -1.046875q0.578125 -0.640625 1.203125 -1.40625q0.625 -0.78125 1.234375 -1.640625q0.609375 -0.875 1.09375 -1.7656212q0.5 -0.90625 0.796875 -1.78125q0.296875 -0.875 0.296875 -1.65625q0 -0.921875 -0.515625 -1.53125q-0.515625 -0.609375 -1.578125 -0.609375q-0.71875 0 -1.390625 0.296875q-0.671875 0.28125 -1.15625 0.65625l-0.609375 -1.0625q0.65625 -0.5625 1.546875 -0.875q0.890625 -0.3125 1.921875 -0.3125q0.796875 0 1.40625 0.234375q0.625 0.234375 1.046875 0.671875q0.4375 0.421875 0.65625 1.015625q0.234375 0.578125 0.234375 1.265625zm3.8551636 8.718746l2.609375 0l0 -9.031246l0.1875 -1.109375l-0.75 0.875l-2.046875 1.484375l-0.703125 -0.953125l4.09375 -3.171875l0.671875 0l0 11.906246l2.5625 0l0 1.375l-6.625 0l0 -1.375z" fill-rule="nonzero"/><path fill="#000000" fill-opacity="0.0" d="m616.5302 109.422844l0.5983887 -26.645676" fill-rule="evenodd"/><path stroke="#000000" stroke-width="2.0" stroke-linejoin="round" stroke-linecap="butt" d="m616.5302 109.42284l0.3289795 -14.648689" fill-rule="evenodd"/><path fill="#000000" stroke="#000000" stroke-width="2.0" stroke-linecap="butt" d="m620.1618 94.84832l-3.098816 -9.148087l-3.5064697 8.999741z" fill-rule="evenodd"/><path fill="#000000" fill-opacity="0.0" d="m586.6877 109.422844l59.684998 0l0 20.062996l-59.684998 0z" fill-rule="evenodd"/><path fill="#000000" d="m602.9748 117.99559l0 -0.390625q0.234375 -0.109375 0.53125 -0.203125q0.3125 -0.109375 0.625 -0.1875q0.328125 -0.078125 0.609375 -0.125q0.296875 -0.0625 0.515625 -0.0625l0.296875 0.1875l-1.515625 7.109375l1.1875 0l0 0.40625q-0.328125 0.265625 -0.78125 0.421875q-0.453125 0.15625 -0.875 0.15625q-0.46875 0 -0.671875 -0.203125q-0.203125 -0.203125 -0.203125 -0.484375q0 -0.3125 0.046875 -0.609375q0.046875 -0.3125 0.140625 -0.6875l1.109375 -5.171875l-1.015625 -0.15625zm1.28125 -3.546875q0 -0.421875 0.25 -0.65625q0.265625 -0.234375 0.671875 -0.234375q0.453125 0 0.703125 0.234375q0.265625 0.234375 0.265625 0.65625q0 0.390625 -0.265625 0.625q-0.25 0.21875 -0.703125 0.21875q-0.40625 0 -0.671875 -0.21875q-0.25 -0.234375 -0.25 -0.625z" fill-rule="nonzero"/><path fill="#000000" d="m610.7948 117.90184l6.78125 0l0 1.15625l-6.78125 0l0 -1.15625zm0 2.65625l6.78125 0l0 1.15625l-6.78125 0l0 -1.15625zm20.10199 1.21875l-1.890625 0l0 3.4375l-1.25 0l0 -3.4375l-4.9375 0l0 -0.53125l5.3125 -7.40625l0.875 0l0 6.8125l1.890625 0l0 1.125zm-3.140625 -4.609375l0.15625 -1.3125l-0.046875 0l-0.5625 1.09375l-2.25 3.046875l-0.765625 0.78125l1.109375 -0.125l2.359375 0l0 -3.484375z" fill-rule="nonzero"/><path fill="#000000" fill-opacity="0.0" d="m597.1841 87.338585c0 4.444374 -3.6028442 8.047249 -8.047241 8.047249l-64.92914 0c-4.444336 0 -8.047241 3.6028671 -8.047241 8.047241c0 -4.444374 -3.6028442 -8.047241 -8.047241 -8.047241l-64.92914 0c-4.4443665 0 -8.047241 -3.6028748 -8.047241 -8.047249z" fill-rule="evenodd"/><path fill="#000000" fill-opacity="0.0" d="m597.1841 87.338585c0 4.444374 -3.6028442 8.047249 -8.047241 8.047249l-64.92914 0c-4.444336 0 -8.047241 3.6028671 -8.047241 8.047241c0 -4.444374 -3.6028442 -8.047241 -8.047241 -8.047241l-64.92914 0c-4.4443665 0 -8.047241 -3.6028748 -8.047241 -8.047249" fill-rule="evenodd"/><path stroke="#000000" stroke-width="1.0" stroke-linejoin="round" stroke-linecap="butt" d="m597.1841 87.338585c0 4.444374 -3.6028442 8.047249 -8.047241 8.047249l-64.92914 0c-4.444336 0 -8.047241 3.6028671 -8.047241 8.047241c0 -4.444374 -3.6028442 -8.047241 -8.047241 -8.047241l-64.92914 0c-4.4443665 0 -8.047241 -3.6028748 -8.047241 -8.047249" fill-rule="evenodd"/><path fill="#000000" fill-opacity="0.0" d="m447.4275 97.55633l137.44879 0l0 26.645668l-137.44879 0z" fill-rule="evenodd"/><path fill="#000000" d="m483.18982 114.467285q0 -0.484375 -0.296875 -0.75q-0.28125 -0.28125 -0.703125 -0.453125q-0.421875 -0.1875 -0.9375 -0.359375q-0.5 -0.171875 -0.921875 -0.4375q-0.421875 -0.265625 -0.71875 -0.671875q-0.28125 -0.421875 -0.28125 -1.125q0 -1.15625 0.65625 -1.6875q0.65625 -0.53125 1.828125 -0.53125q0.859375 0 1.4375 0.15625q0.59375 0.140625 1.03125 0.34375l-0.3125 1.0625q-0.359375 -0.171875 -0.890625 -0.3125q-0.515625 -0.140625 -1.109375 -0.140625q-0.703125 0 -1.03125 0.25q-0.328125 0.234375 -0.328125 0.828125q0 0.421875 0.28125 0.65625q0.296875 0.21875 0.71875 0.40625q0.421875 0.1875 0.921875 0.359375q0.515625 0.171875 0.9375 0.46875q0.421875 0.28125 0.703125 0.734375q0.296875 0.4375 0.296875 1.15625q0 0.5 -0.171875 0.953125q-0.15625 0.453125 -0.515625 0.78125q-0.359375 0.3125 -0.875 0.484375q-0.515625 0.1875 -1.21875 0.1875q-0.90625 0 -1.546875 -0.171875q-0.640625 -0.171875 -1.078125 -0.421875l0.390625 -1.078125q0.359375 0.203125 0.953125 0.390625q0.59375 0.171875 1.203125 0.171875q0.6875 0 1.125 -0.265625q0.453125 -0.28125 0.453125 -0.984375zm2.7672424 -1.828125q0 -2.03125 0.90625 -3.109375q0.90625 -1.078125 2.59375 -1.078125q0.90625 0 1.5625 0.296875q0.671875 0.296875 1.09375 0.84375q0.4375 0.546875 0.640625 1.328125q0.21875 0.78125 0.21875 1.71875q0 2.03125 -0.90625 3.109375q-0.90625 1.078125 -2.609375 1.078125q-0.890625 0 -1.5625 -0.296875q-0.65625 -0.296875 -1.09375 -0.84375q-0.421875 -0.546875 -0.640625 -1.328125q-0.203125 -0.78125 -0.203125 -1.71875zm1.328125 0q0 0.609375 0.125 1.171875q0.125 0.5625 0.375 0.984375q0.25 0.40625 0.671875 0.671875q0.421875 0.25 1.0 0.25q2.1875 0.015625 2.1875 -3.078125q0 -0.625 -0.125 -1.1875q-0.125 -0.5625 -0.375 -0.96875q-0.25 -0.421875 -0.671875 -0.671875q-0.421875 -0.25 -1.015625 -0.25q-2.171875 -0.015625 -2.171875 3.078125zm11.482269 -2.765625q-0.484375 -0.15625 -0.921875 -0.15625q-0.6875 0 -1.09375 0.375q-0.390625 0.375 -0.484375 0.953125l0 5.59375l-1.28125 0l0 -8.0l0.890625 0l0.25 0.96875l0.0625 0q0.296875 -0.53125 0.71875 -0.828125q0.421875 -0.296875 1.078125 -0.296875q0.46875 0 1.046875 0.15625l-0.265625 1.234375zm1.0762634 -1.234375l1.25 0l0 -1.578125l1.28125 -0.375l0 1.953125l2.171875 0l0 1.125l-2.171875 0l0 4.421875q0 0.84375 0.203125 1.1875q0.21875 0.34375 0.703125 0.34375q0.421875 0 0.703125 -0.09375q0.296875 -0.09375 0.640625 -0.234375l0.296875 0.984375q-0.4375 0.203125 -0.953125 0.328125q-0.5 0.125 -1.09375 0.125q-0.984375 0 -1.390625 -0.546875q-0.390625 -0.546875 -0.390625 -1.84375l0 -4.671875l-1.25 0l0 -1.125zm12.154266 7.359375q-0.484375 0.390625 -1.21875 0.609375q-0.71875 0.21875 -1.546875 0.21875q-0.90625 0 -1.578125 -0.296875q-0.671875 -0.296875 -1.109375 -0.84375q-0.421875 -0.546875 -0.640625 -1.3125q-0.203125 -0.78125 -0.203125 -1.734375q0 -2.046875 0.90625 -3.109375q0.921875 -1.078125 2.609375 -1.078125q0.546875 0 1.09375 0.125q0.546875 0.109375 0.96875 0.453125q0.4375 0.328125 0.703125 0.953125q0.28125 0.609375 0.28125 1.609375q0 0.53125 -0.09375 1.171875l-5.140625 0q0 0.703125 0.140625 1.25q0.15625 0.546875 0.453125 0.921875q0.3125 0.375 0.796875 0.578125q0.484375 0.203125 1.1875 0.203125q0.546875 0 1.078125 -0.1875q0.546875 -0.203125 0.828125 -0.453125l0.484375 0.921875zm-2.765625 -6.4375q-0.9375 0 -1.515625 0.5q-0.5625 0.5 -0.671875 1.703125l3.96875 0q0 -1.21875 -0.46875 -1.703125q-0.453125 -0.5 -1.3125 -0.5zm11.190552 4.328125q0 0.8125 0.015625 1.484375q0.015625 0.65625 0.140625 1.296875l-0.859375 0l-0.3125 -1.140625l-0.078125 0q-0.3125 0.5625 -0.921875 0.9375q-0.609375 0.359375 -1.421875 0.359375q-1.59375 0 -2.375 -1.0q-0.78125 -1.015625 -0.78125 -3.15625q0 -2.046875 0.96875 -3.109375q0.96875 -1.0625 2.671875 -1.0625q0.59375 0 0.9375 0.0625q0.34375 0.0625 0.734375 0.203125l0 -3.328125l1.28125 0l0 8.453125zm-3.234375 1.828125q0.8125 0 1.296875 -0.421875q0.484375 -0.4375 0.65625 -1.296875l0 -3.96875q-0.28125 -0.21875 -0.65625 -0.3125q-0.359375 -0.109375 -0.96875 -0.109375q-1.109375 0 -1.734375 0.734375q-0.625 0.734375 -0.625 2.328125q0 0.65625 0.09375 1.21875q0.109375 0.5625 0.34375 0.96875q0.25 0.390625 0.640625 0.625q0.390625 0.234375 0.953125 0.234375zm9.973755 -7.078125l0.875 0l0.25 0.953125l0.0625 0q0.359375 -0.546875 0.9375 -0.84375q0.59375 -0.296875 1.34375 -0.296875q1.59375 0 2.375 0.953125q0.796875 0.9375 0.796875 3.078125q0 1.0 -0.265625 1.8125q-0.265625 0.8125 -0.75 1.375q-0.46875 0.546875 -1.15625 0.859375q-0.671875 0.296875 -1.515625 0.296875q-0.59375 0 -0.9375 -0.078125q-0.34375 -0.0625 -0.734375 -0.234375l0 3.328125l-1.28125 0l0 -11.203125zm3.234375 0.921875q-0.828125 0 -1.296875 0.4375q-0.46875 0.421875 -0.65625 1.28125l0 3.96875q0.28125 0.21875 0.640625 0.34375q0.375 0.125 0.984375 0.125q1.109375 0 1.75 -0.828125q0.65625 -0.828125 0.65625 -2.421875q0 -0.65625 -0.125 -1.1875q-0.109375 -0.546875 -0.359375 -0.921875q-0.234375 -0.375 -0.625 -0.578125q-0.390625 -0.21875 -0.96875 -0.21875zm5.296631 -0.328125q0.609375 -0.375 1.40625 -0.546875q0.8125 -0.171875 1.6875 -0.171875q0.84375 0 1.34375 0.21875q0.5 0.21875 0.765625 0.59375q0.265625 0.359375 0.34375 0.796875q0.09375 0.421875 0.09375 0.859375q0 0.953125 -0.046875 1.875q-0.046875 0.90625 -0.046875 1.71875q0 0.59375 0.046875 1.125q0.046875 0.515625 0.171875 0.96875l-0.9375 0l-0.34375 -1.125l-0.078125 0q-0.140625 0.234375 -0.359375 0.453125q-0.21875 0.203125 -0.515625 0.375q-0.296875 0.171875 -0.703125 0.28125q-0.40625 0.109375 -0.90625 0.109375q-0.515625 0 -0.96875 -0.15625q-0.4375 -0.15625 -0.765625 -0.453125q-0.3125 -0.296875 -0.5 -0.703125q-0.171875 -0.421875 -0.171875 -0.953125q0 -0.703125 0.28125 -1.171875q0.296875 -0.484375 0.8125 -0.765625q0.515625 -0.28125 1.25 -0.390625q0.734375 -0.125 1.609375 -0.125q0.21875 0 0.4375 0q0.21875 0 0.4375 0.03125q0.046875 -0.484375 0.046875 -0.859375q0 -0.875 -0.359375 -1.234375q-0.34375 -0.359375 -1.265625 -0.359375q-0.28125 0 -0.59375 0.046875q-0.3125 0.046875 -0.640625 0.125q-0.328125 0.0625 -0.625 0.171875q-0.28125 0.09375 -0.515625 0.21875l-0.390625 -0.953125zm2.265625 6.421875q0.453125 0 0.796875 -0.125q0.359375 -0.125 0.609375 -0.296875q0.265625 -0.1875 0.421875 -0.40625q0.171875 -0.234375 0.25 -0.4375l0 -1.328125q-0.21875 -0.015625 -0.453125 -0.015625q-0.234375 -0.015625 -0.453125 -0.015625q-0.5 0 -0.96875 0.0625q-0.46875 0.046875 -0.828125 0.203125q-0.359375 0.140625 -0.578125 0.40625q-0.21875 0.265625 -0.21875 0.671875q0 0.546875 0.390625 0.921875q0.40625 0.359375 1.03125 0.359375zm9.57666 -5.78125q-0.484375 -0.15625 -0.921875 -0.15625q-0.6875 0 -1.09375 0.375q-0.390625 0.375 -0.484375 0.953125l0 5.59375l-1.28125 0l0 -8.0l0.890625 0l0.25 0.96875l0.0625 0q0.296875 -0.53125 0.71875 -0.828125q0.421875 -0.296875 1.078125 -0.296875q0.46875 0 1.046875 0.15625l-0.265625 1.234375zm1.0762329 -1.234375l1.25 0l0 -1.578125l1.28125 -0.375l0 1.953125l2.171875 0l0 1.125l-2.171875 0l0 4.421875q0 0.84375 0.203125 1.1875q0.21875 0.34375 0.703125 0.34375q0.421875 0 0.703125 -0.09375q0.296875 -0.09375 0.640625 -0.234375l0.296875 0.984375q-0.4375 0.203125 -0.953125 0.328125q-0.5 0.125 -1.09375 0.125q-0.984375 0 -1.390625 -0.546875q-0.390625 -0.546875 -0.390625 -1.84375l0 -4.671875l-1.25 0l0 -1.125z" fill-rule="nonzero"/><path fill="#000000" fill-opacity="0.0" d="m661.6141 87.46982l23.55127 0l0 22.614174l-23.55127 0z" fill-rule="evenodd"/><path fill="#000000" d="m671.5502 95.29607q0 0.984375 -0.375 2.03125q-0.359375 1.03125 -0.953125 2.078125q-0.578125 1.046875 -1.3125 2.046875q-0.71875 0.984375 -1.453125 1.890625l-0.90625 0.796875l0 0.078125l1.1875 -0.203125l4.0625 0l0 1.375l-7.421875 0l0 -0.546875q0.40625 -0.421875 0.984375 -1.046875q0.578125 -0.640625 1.203125 -1.40625q0.625 -0.78125 1.234375 -1.640625q0.609375 -0.875 1.09375 -1.765625q0.5 -0.90625 0.796875 -1.78125q0.296875 -0.875 0.296875 -1.65625q0 -0.921875 -0.515625 -1.53125q-0.515625 -0.609375 -1.578125 -0.609375q-0.71875 0 -1.390625 0.296875q-0.671875 0.28125 -1.15625 0.65625l-0.609375 -1.0625q0.65625 -0.5625 1.546875 -0.875q0.890625 -0.3125 1.921875 -0.3125q0.796875 0 1.40625 0.234375q0.625 0.234375 1.046875 0.671875q0.4375 0.421875 0.65625 1.015625q0.234375 0.578125 0.234375 1.265625zm11.620789 6.078125l-2.203125 0l0 4.015625l-1.453125 0l0 -4.015625l-5.75 0l0 -0.609375l6.1875 -8.640625l1.015625 0l0 7.953125l2.203125 0l0 1.296875zm-3.65625 -5.375l0.1875 -1.515625l-0.0625 0l-0.65625 1.265625l-2.625 3.5625l-0.890625 0.90625l1.296875 -0.140625l2.75 0l0 -4.078125z" fill-rule="nonzero"/><path fill="#000000" fill-opacity="0.0" d="m614.8689 65.591736c0 16.598427 23.369202 33.196854 46.738403 33.196854" fill-rule="evenodd"/><path stroke="#000000" stroke-width="1.0" stroke-linejoin="round" stroke-linecap="butt" d="m614.8689 65.591736c0 16.598427 23.369202 33.196854 46.738403 33.196854" fill-rule="evenodd"/><path fill="#000000" fill-opacity="0.0" d="m685.16534 98.7769c27.132568 0 54.265076 -17.716537 54.265076 -35.433067" fill-rule="evenodd"/><path stroke="#000000" stroke-width="1.0" stroke-linejoin="round" stroke-linecap="butt" d="m685.16534 98.7769c13.566284 0 27.132568 -4.4291306 37.30725 -11.07283c5.0873413 -3.3218536 9.326782 -7.197342 12.294495 -11.349655c1.4837036 -2.0761566 2.6495972 -4.2215195 3.444519 -6.4014893c0.19873047 -0.5449829 0.37426758 -1.0921402 0.52575684 -1.6409225c0.075805664 -0.27438354 0.14556885 -0.5491791 0.20922852 -0.8243103c0.03186035 -0.13755798 0.062072754 -0.27521515 0.09088135 -0.41293335l0.06317139 -0.31975555" fill-rule="evenodd"/><path fill="#000000" stroke="#000000" stroke-width="1.0" stroke-linecap="butt" d="m739.1006 66.75501l1.0111694 1.2275925l-0.8220215 -3.1836548l-1.416687 2.967186z" fill-rule="evenodd"/><path fill="#000000" fill-opacity="0.0" d="m669.5803 6.8031497l23.55133 0l0 22.614172l-23.55133 0z" fill-rule="evenodd"/><path fill="#000000" d="m679.5164 14.629397q0 0.984375 -0.375 2.031251q-0.359375 1.03125 -0.953125 2.078125q-0.578125 1.046875 -1.3125 2.046875q-0.71875 0.984375 -1.453125 1.890625l-0.90625 0.796875l0 0.078125l1.1875 -0.203125l4.0625 0l0 1.375l-7.421875 0l0 -0.546875q0.40625 -0.421875 0.984375 -1.046875q0.578125 -0.640625 1.203125 -1.40625q0.625 -0.78125 1.234375 -1.640625q0.609375 -0.875 1.09375 -1.765625q0.5 -0.90625 0.796875 -1.78125q0.296875 -0.87500095 0.296875 -1.656251q0 -0.921875 -0.515625 -1.53125q-0.515625 -0.609375 -1.578125 -0.609375q-0.71875 0 -1.390625 0.296875q-0.671875 0.28125 -1.15625 0.65625l-0.609375 -1.0625q0.65625 -0.5625 1.546875 -0.875q0.890625 -0.3125 1.921875 -0.3125q0.796875 0 1.40625 0.234375q0.625 0.234375 1.046875 0.671875q0.4375 0.421875 0.65625 1.015625q0.234375 0.578125 0.234375 1.265625zm2.6364136 3.562501q0 -3.359376 1.09375 -5.046876q1.09375 -1.703125 3.1875 -1.703125q2.25 0 3.265625 1.671875q1.015625 1.671875 1.015625 5.078126q0 3.359375 -1.09375 5.0625q-1.078125 1.6875 -3.1875 1.6875q-2.21875 0 -3.25 -1.765625q-1.03125 -1.78125 -1.03125 -4.984375zm1.546875 0q0 1.21875 0.15625 2.21875q0.171875 0.984375 0.5 1.703125q0.34375 0.71875 0.84375 1.125q0.515625 0.40625 1.234375 0.40625q1.421875 0 2.078125 -1.3125q0.65625 -1.328125 0.65625 -4.140625q0 -1.1875 -0.140625 -2.1875q-0.140625 -1.015626 -0.46875 -1.734376q-0.3125 -0.734375 -0.84375 -1.125q-0.515625 -0.40625 -1.28125 -0.40625q-1.40625 0 -2.078125 1.328125q-0.65625 1.328125 -0.65625 4.125001z" fill-rule="nonzero"/><path fill="#000000" fill-opacity="0.0" d="m669.5803 18.110237c-27.355103 0 -54.710205 20.582676 -54.710205 41.16535" fill-rule="evenodd"/><path stroke="#000000" stroke-width="1.0" stroke-linejoin="round" stroke-linecap="butt" d="m669.5803 18.110237c-13.67749 0 -27.355103 5.145668 -37.61328 12.864172c-5.1290894 3.859251 -9.40332 8.3617115 -12.395264 13.185778c-1.4959717 2.412033 -2.6713867 4.9044647 -3.4728394 7.4370995c-0.4006958 1.2663193 -0.70788574 2.5426826 -0.914917 3.8240776l-0.06616211 0.43610382" fill-rule="evenodd"/><path fill="#000000" stroke="#000000" stroke-width="1.0" stroke-linecap="butt" d="m615.11786 55.85747l-1.0403442 -1.2029343l0.8982544 3.1629753l1.3450317 -3.000393z" fill-rule="evenodd"/><path fill="#000000" fill-opacity="0.0" d="m693.13165 18.110237c23.146606 0 46.293274 19.464565 46.293274 38.929134" fill-rule="evenodd"/><path stroke="#000000" stroke-width="1.0" stroke-linejoin="round" stroke-linecap="butt" d="m693.13165 18.110237c23.146606 0 46.293274 19.464565 46.293274 38.929134" fill-rule="evenodd"/><path fill="#000000" fill-opacity="0.0" d="m609.96423 62.42924c0 -2.4700584 1.2863159 -4.472439 2.873108 -4.472439c0.7619629 0 1.4927368 0.47120285 2.0315552 1.309948c0.53881836 0.8387451 0.8414917 1.976326 0.8414917 3.1624908c0 2.470066 -1.2863159 4.472439 -2.8730469 4.472439c-1.586792 0 -2.873108 -2.0023727 -2.873108 -4.472439z" fill-rule="evenodd"/><path fill="#000000" fill-opacity="0.0" d="m738.593 60.195045c0 -2.4700623 1.2863159 -4.4724426 2.873108 -4.4724426c0.7619629 0 1.4927368 0.47120285 2.0315552 1.309948c0.53881836 0.8387451 0.8414917 1.9763298 0.8414917 3.1624947c0 2.4700584 -1.2863159 4.4724426 -2.8730469 4.4724426c-1.586792 0 -2.873108 -2.0023842 -2.873108 -4.4724426z" fill-rule="evenodd"/><path fill="#000000" fill-opacity="0.0" d="m797.41876 43.352917l39.433044 0l0 39.43307l-39.433044 0z" fill-rule="evenodd"/><path stroke="#000000" stroke-width="2.0" stroke-linejoin="round" stroke-linecap="butt" d="m797.41876 43.352917l39.433044 0l0 39.43307l-39.433044 0z" fill-rule="evenodd"/><path fill="#000000" d="m813.406 59.895702q0 0.984375 -0.375 2.03125q-0.359375 1.03125 -0.953125 2.0781212q-0.578125 1.046875 -1.3125 2.046875q-0.71875 0.984375 -1.453125 1.890625l-0.90625 0.796875l0 0.078125l1.1875 -0.203125l4.0625 0l0 1.375l-7.421875 0l0 -0.546875q0.40625 -0.421875 0.984375 -1.046875q0.578125 -0.640625 1.203125 -1.40625q0.625 -0.78125 1.234375 -1.640625q0.609375 -0.875 1.09375 -1.7656212q0.5 -0.90625 0.796875 -1.78125q0.296875 -0.875 0.296875 -1.65625q0 -0.921875 -0.515625 -1.53125q-0.515625 -0.609375 -1.578125 -0.609375q-0.71875 0 -1.390625 0.296875q-0.671875 0.28125 -1.15625 0.65625l-0.609375 -1.0625q0.65625 -0.5625 1.546875 -0.875q0.890625 -0.3125 1.921875 -0.3125q0.796875 0 1.40625 0.234375q0.625 0.234375 1.046875 0.671875q0.4375 0.421875 0.65625 1.015625q0.234375 0.578125 0.234375 1.265625zm2.6364136 3.5625q0 -3.359375 1.09375 -5.046875q1.09375 -1.703125 3.1875 -1.703125q2.25 0 3.265625 1.671875q1.015625 1.671875 1.015625 5.078125q0 3.3593712 -1.09375 5.062496q-1.078125 1.6875 -3.1875 1.6875q-2.21875 0 -3.25 -1.765625q-1.03125 -1.78125 -1.03125 -4.984371zm1.546875 0q0 1.2187462 0.15625 2.2187462q0.171875 0.984375 0.5 1.703125q0.34375 0.71875 0.84375 1.125q0.515625 0.40625 1.234375 0.40625q1.421875 0 2.078125 -1.3125q0.65625 -1.328125 0.65625 -4.140621q0 -1.1875 -0.140625 -2.1875q-0.140625 -1.015625 -0.46875 -1.734375q-0.3125 -0.734375 -0.84375 -1.125q-0.515625 -0.40625 -1.28125 -0.40625q-1.40625 0 -2.078125 1.328125q-0.65625 1.328125 -0.65625 4.125z" fill-rule="nonzero"/><path fill="#000000" fill-opacity="0.0" d="m737.1391 108.83727l0 -26.047249" fill-rule="evenodd"/><path stroke="#000000" stroke-width="2.0" stroke-linejoin="round" stroke-linecap="butt" d="m737.1391 108.83727l0 -14.047249" fill-rule="evenodd"/><path fill="#000000" stroke="#000000" stroke-width="2.0" stroke-linecap="butt" d="m740.44257 94.79002l-3.3034668 -9.076195l-3.3034668 9.076195z" fill-rule="evenodd"/><path fill="#000000" fill-opacity="0.0" d="m689.7533 108.83727l94.77167 0l0 20.062996l-94.77167 0z" fill-rule="evenodd"/><path fill="#000000" d="m715.5281 119.831894q0.09375 -0.390625 0.1875 -0.796875q0.09375 -0.421875 0.109375 -0.6875q-0.015625 -0.421875 -0.140625 -0.671875q-0.125 -0.25 -0.484375 -0.25q-0.390625 0 -0.796875 0.3125q-0.390625 0.296875 -0.75 0.765625q-0.359375 0.46875 -0.65625 1.015625q-0.296875 0.53125 -0.484375 1.015625l-0.984375 4.09375l-1.28125 0l1.015625 -4.5q0.109375 -0.484375 0.1875 -0.9375q0.078125 -0.46875 0.078125 -0.96875q0 -0.359375 -0.125 -0.578125q-0.125 -0.21875 -0.453125 -0.21875q-0.3125 0 -0.703125 0.3125q-0.375 0.296875 -0.75 0.765625q-0.359375 0.46875 -0.671875 1.015625q-0.3125 0.53125 -0.515625 1.03125l-0.84375 4.078125l-1.375 0l1.484375 -7.078125l-0.96875 -0.140625l0 -0.390625q0.53125 -0.28125 1.140625 -0.421875q0.609375 -0.15625 1.0625 -0.15625l0.34375 0.1875l-0.703125 2.828125l0.0625 0q0.1875 -0.4375 0.53125 -0.96875q0.34375 -0.53125 0.78125 -0.984375q0.453125 -0.453125 0.96875 -0.75q0.515625 -0.3125 1.03125 -0.3125q0.1875 0 0.375 0.0625q0.1875 0.0625 0.328125 0.234375q0.15625 0.15625 0.25 0.453125q0.09375 0.28125 0.09375 0.734375q0 0.34375 -0.078125 0.75q-0.0625 0.40625 -0.15625 0.78125q0.234375 -0.546875 0.59375 -1.078125q0.375 -0.53125 0.8125 -0.953125q0.4375 -0.4375 0.921875 -0.703125q0.484375 -0.28125 1.0 -0.28125q0.609375 0 0.921875 0.390625q0.3125 0.375 0.3125 1.046875q0 0.515625 -0.109375 0.96875q-0.09375 0.453125 -0.203125 0.984375l-1.03125 3.90625l1.171875 0l0 0.40625q-0.3125 0.265625 -0.78125 0.421875q-0.453125 0.15625 -0.875 0.15625q-0.46875 0 -0.640625 -0.203125q-0.171875 -0.203125 -0.171875 -0.5q0 -0.46875 0.21875 -1.28125l0.75 -2.90625zm3.8156128 -2.421875l0 -0.390625q0.234375 -0.109375 0.53125 -0.203125q0.3125 -0.109375 0.625 -0.1875q0.328125 -0.078125 0.609375 -0.125q0.296875 -0.0625 0.515625 -0.0625l0.296875 0.1875l-1.515625 7.109375l1.1875 0l0 0.40625q-0.328125 0.265625 -0.78125 0.421875q-0.453125 0.15625 -0.875 0.15625q-0.46875 0 -0.671875 -0.203125q-0.203125 -0.203125 -0.203125 -0.484375q0 -0.3125 0.046875 -0.609375q0.046875 -0.3125 0.140625 -0.6875l1.109375 -5.171875l-1.015625 -0.15625zm1.28125 -3.546875q0 -0.421875 0.25 -0.65625q0.265625 -0.234375 0.671875 -0.234375q0.453125 0 0.703125 0.234375q0.265625 0.234375 0.265625 0.65625q0 0.390625 -0.265625 0.625q-0.25 0.21875 -0.703125 0.21875q-0.40625 0 -0.671875 -0.21875q-0.25 -0.234375 -0.25 -0.625zm8.182007 6.203125q0.109375 -0.5 0.203125 -0.921875q0.09375 -0.421875 0.09375 -0.828125q0 -0.375 -0.171875 -0.625q-0.171875 -0.265625 -0.53125 -0.265625q-0.4375 0 -0.890625 0.359375q-0.4375 0.34375 -0.828125 0.84375q-0.390625 0.5 -0.703125 1.03125q-0.296875 0.53125 -0.46875 0.890625l-0.84375 4.078125l-1.34375 0l1.40625 -7.078125l-0.96875 -0.140625l0.03125 -0.390625q0.21875 -0.125 0.5 -0.21875q0.28125 -0.109375 0.578125 -0.1875q0.296875 -0.078125 0.578125 -0.125q0.28125 -0.046875 0.515625 -0.046875l0.3125 0.1875l-0.59375 2.828125l0.078125 0q0.296875 -0.640625 0.6875 -1.1875q0.390625 -0.546875 0.828125 -0.953125q0.453125 -0.421875 0.921875 -0.640625q0.484375 -0.234375 0.984375 -0.234375q0.671875 0 0.984375 0.421875q0.3125 0.421875 0.3125 1.0625q0 0.34375 -0.078125 0.875q-0.078125 0.53125 -0.203125 1.0l-0.90625 3.9375l1.1875 0l0 0.40625q-0.328125 0.265625 -0.78125 0.421875q-0.453125 0.15625 -0.890625 0.15625q-0.453125 0 -0.640625 -0.1875q-0.171875 -0.1875 -0.171875 -0.421875q0 -0.296875 0.078125 -0.65625q0.078125 -0.359375 0.15625 -0.734375l0.578125 -2.65625zm6.7382812 4.5625l-4.09375 0l0.078125 -0.46875q0.703125 -0.28125 1.375 -0.375l2.0 -9.5q-0.3125 -0.0625 -0.609375 -0.15625q-0.28125 -0.109375 -0.59375 -0.234375l0.125 -0.46875l4.09375 0l-0.09375 0.46875q-0.328125 0.125 -0.703125 0.234375q-0.359375 0.09375 -0.6875 0.15625l-2.0 9.5q0.328125 0.0625 0.640625 0.15625q0.3125 0.09375 0.546875 0.21875l-0.078125 0.46875zm7.581787 -4.5625q0.109375 -0.5 0.203125 -0.921875q0.09375 -0.421875 0.09375 -0.828125q0 -0.375 -0.171875 -0.625q-0.171875 -0.265625 -0.53125 -0.265625q-0.4375 0 -0.890625 0.359375q-0.4375 0.34375 -0.828125 0.84375q-0.390625 0.5 -0.703125 1.03125q-0.296875 0.53125 -0.46875 0.890625l-0.84375 4.078125l-1.34375 0l1.40625 -7.078125l-0.96875 -0.140625l0.03125 -0.390625q0.21875 -0.125 0.5 -0.21875q0.28125 -0.109375 0.578125 -0.1875q0.296875 -0.078125 0.578125 -0.125q0.28125 -0.046875 0.515625 -0.046875l0.3125 0.1875l-0.59375 2.828125l0.078125 0q0.296875 -0.640625 0.6875 -1.1875q0.390625 -0.546875 0.828125 -0.953125q0.453125 -0.421875 0.921875 -0.640625q0.484375 -0.234375 0.984375 -0.234375q0.671875 0 0.984375 0.421875q0.3125 0.421875 0.3125 1.0625q0 0.34375 -0.078125 0.875q-0.078125 0.53125 -0.203125 1.0l-0.90625 3.9375l1.1875 0l0 0.40625q-0.328125 0.265625 -0.78125 0.421875q-0.453125 0.15625 -0.890625 0.15625q-0.453125 0 -0.640625 -0.1875q-0.171875 -0.1875 -0.171875 -0.421875q0 -0.296875 0.078125 -0.65625q0.078125 -0.359375 0.15625 -0.734375l0.578125 -2.65625zm5.722595 3.765625q0.421875 0 0.859375 -0.40625q0.4375 -0.40625 0.8125 -0.984375q0.390625 -0.578125 0.6875 -1.203125q0.3125 -0.625 0.484375 -1.046875l0.515625 -2.734375q-0.25 -0.15625 -0.453125 -0.203125q-0.1875 -0.0625 -0.5625 -0.078125q-0.765625 0.015625 -1.375 0.46875q-0.609375 0.453125 -1.03125 1.171875q-0.40625 0.703125 -0.625 1.59375q-0.21875 0.875 -0.21875 1.71875q0 0.8125 0.203125 1.265625q0.203125 0.4375 0.703125 0.4375zm2.515625 -2.34375q-0.203125 0.578125 -0.53125 1.171875q-0.3125 0.59375 -0.71875 1.078125q-0.40625 0.46875 -0.90625 0.78125q-0.484375 0.296875 -1.03125 0.296875q-1.671875 0 -1.671875 -2.421875q0 -1.140625 0.3125 -2.203125q0.328125 -1.0625 0.9375 -1.890625q0.609375 -0.828125 1.46875 -1.3125q0.859375 -0.5 1.96875 -0.5q0.421875 0 0.625 0.0625q0.203125 0.046875 0.53125 0.1875l0.609375 -3.015625l-1.125 -0.15625l0 -0.390625q0.234375 -0.09375 0.515625 -0.1875q0.296875 -0.09375 0.609375 -0.15625q0.3125 -0.078125 0.625 -0.140625q0.328125 -0.0625 0.609375 -0.09375l0.328125 0.125l-2.1875 11.03125l1.171875 0l0 0.390625q-0.328125 0.265625 -0.78125 0.421875q-0.4375 0.15625 -0.875 0.15625q-0.46875 0 -0.671875 -0.1875q-0.1875 -0.203125 -0.1875 -0.4375q0 -0.28125 0.109375 -0.9375q0.109375 -0.65625 0.328125 -1.671875l-0.0625 0zm9.247559 1.71875q-0.140625 0.296875 -0.421875 0.59375q-0.265625 0.28125 -0.640625 0.515625q-0.359375 0.234375 -0.828125 0.359375q-0.453125 0.140625 -0.984375 0.140625q-1.328125 0 -2.046875 -0.75q-0.703125 -0.765625 -0.703125 -2.109375q0 -1.140625 0.3125 -2.140625q0.328125 -1.015625 0.90625 -1.765625q0.578125 -0.75 1.390625 -1.171875q0.828125 -0.4375 1.84375 -0.4375q0.765625 0 1.3125 0.390625q0.546875 0.390625 0.546875 1.15625q0 1.140625 -1.125 1.796875q-1.125 0.65625 -3.640625 0.84375q-0.0625 0.265625 -0.09375 0.53125q-0.015625 0.25 -0.015625 0.5q0 0.953125 0.484375 1.5625q0.5 0.609375 1.4375 0.609375q0.296875 0 0.59375 -0.09375q0.296875 -0.09375 0.5625 -0.234375q0.265625 -0.15625 0.484375 -0.3125q0.21875 -0.15625 0.375 -0.296875l0.25 0.3125zm-1.671875 -6.078125q-0.6875 0.015625 -1.28125 0.65625q-0.59375 0.625 -1.015625 2.15625q1.5625 -0.046875 2.421875 -0.53125q0.859375 -0.5 0.859375 -1.359375q0 -0.328125 -0.203125 -0.609375q-0.1875 -0.296875 -0.78125 -0.3125zm5.888977 4.09375q-0.171875 0.1875 -0.40625 0.421875q-0.234375 0.21875 -0.46875 0.46875q-0.21875 0.234375 -0.40625 0.46875q-0.1875 0.234375 -0.3125 0.453125q-0.03125 0.109375 -0.046875 0.3125q0 0.203125 -0.015625 0.4375q0 0.234375 0 0.4375q0 0.203125 0.015625 0.296875q-0.265625 0.109375 -0.546875 0.15625q-0.28125 0.046875 -0.53125 0.046875q-0.53125 0 -0.890625 -0.203125q0.15625 -0.484375 0.59375 -1.078125q0.453125 -0.59375 1.0 -1.140625q0.546875 -0.5625 1.046875 -1.015625q0.515625 -0.46875 0.78125 -0.6875l-1.09375 -2.9375l-1.03125 -0.140625l0 -0.390625q0.109375 -0.0625 0.28125 -0.171875q0.1875 -0.109375 0.421875 -0.203125q0.234375 -0.09375 0.46875 -0.15625q0.234375 -0.0625 0.46875 -0.0625q0.34375 0 0.5 0.1875q0.171875 0.171875 0.265625 0.421875l0.78125 2.78125q0.375 -0.375 0.8125 -0.828125q0.4375 -0.46875 0.65625 -0.890625q0.015625 -0.109375 0.015625 -0.3125q0 -0.203125 -0.015625 -0.4375q-0.015625 -0.234375 -0.03125 -0.4375q-0.015625 -0.203125 -0.03125 -0.296875q0.28125 -0.09375 0.53125 -0.140625q0.265625 -0.0625 0.546875 -0.0625q0.515625 0 0.890625 0.203125q-0.09375 0.328125 -0.328125 0.703125q-0.21875 0.359375 -0.53125 0.734375q-0.296875 0.359375 -0.640625 0.71875q-0.34375 0.359375 -0.671875 0.671875q-0.3125 0.3125 -0.59375 0.5625q-0.265625 0.25 -0.4375 0.390625l1.15625 3.109375l1.046875 0.140625l0 0.390625q-0.09375 0.0625 -0.28125 0.171875q-0.1875 0.09375 -0.40625 0.1875q-0.21875 0.09375 -0.46875 0.15625q-0.234375 0.0625 -0.453125 0.0625q-0.328125 0 -0.515625 -0.171875q-0.171875 -0.171875 -0.25 -0.4375l-0.875 -2.890625z" fill-rule="nonzero"/></g></svg>