<svg version="1.1" viewBox="0.0 0.0 779.8556430446195 104.63779527559055" fill="none" stroke="none" stroke-linecap="square" stroke-miterlimit="10" xmlns:xlink="http://www.w3.org/1999/xlink" xmlns="http://www.w3.org/2000/svg"><clipPath id="p.0"><path d="m0 0l779.85565 0l0 104.637794l-779.85565 0l0 -104.637794z" clip-rule="nonzero"/></clipPath><g clip-path="url(#p.0)"><path fill="#000000" fill-opacity="0.0" d="m0 0l779.85565 0l0 104.637794l-779.85565 0z" fill-rule="evenodd"/><path fill="#000000" fill-opacity="0.0" d="m6.2822533 22.549768l39.43307 0l0 39.433067l-39.43307 0z" fill-rule="evenodd"/><path stroke="#000000" stroke-width="2.0" stroke-linejoin="round" stroke-linecap="butt" d="m6.2822533 22.549768l39.43307 0l0 39.433067l-39.43307 0z" fill-rule="evenodd"/><path fill="#000000" d="m22.29085 46.076927q0 -1.1875 0.609375 -2.046875q0.625 -0.875 1.9375 -1.578125q-0.46875 -0.28125 -0.875 -0.578125q-0.40625 -0.3125 -0.71875 -0.703125q-0.296875 -0.390625 -0.484375 -0.875q-0.171875 -0.5 -0.171875 -1.125q0 -0.734375 0.25 -1.328125q0.265625 -0.59375 0.734375 -1.015625q0.46875 -0.4375 1.125 -0.671875q0.671875 -0.25 1.515625 -0.25q0.78125 0 1.40625 0.234375q0.640625 0.21875 1.078125 0.609375q0.4375 0.390625 0.671875 0.9375q0.25 0.53125 0.25 1.1875q0 1.0625 -0.484375 1.875q-0.484375 0.8125 -1.59375 1.59375q0.484375 0.28125 0.921875 0.625q0.4375 0.328125 0.765625 0.734375q0.328125 0.40625 0.515625 0.921875q0.1875 0.515625 0.1875 1.171875q0 0.796875 -0.265625 1.46875q-0.265625 0.65625 -0.765625 1.140625q-0.5 0.46875 -1.234375 0.734375q-0.734375 0.265625 -1.65625 0.265625q-0.90625 0 -1.59375 -0.25q-0.6875 -0.265625 -1.171875 -0.703125q-0.46875 -0.453125 -0.71875 -1.0625q-0.234375 -0.609375 -0.234375 -1.3125zm6.171875 -0.1875q0 -0.5625 -0.21875 -0.984375q-0.21875 -0.421875 -0.59375 -0.765625q-0.359375 -0.34375 -0.828125 -0.625q-0.46875 -0.28125 -0.96875 -0.546875q-1.140625 0.640625 -1.625 1.421875q-0.484375 0.78125 -0.484375 1.5q0 0.4375 0.140625 0.859375q0.15625 0.40625 0.453125 0.703125q0.3125 0.296875 0.75 0.484375q0.4375 0.171875 1.015625 0.171875q0.46875 0 0.890625 -0.140625q0.4375 -0.140625 0.75 -0.40625q0.328125 -0.28125 0.515625 -0.703125q0.203125 -0.421875 0.203125 -0.96875zm-4.421875 -6.765625q0 0.53125 0.203125 0.9375q0.21875 0.390625 0.5625 0.71875q0.34375 0.3125 0.78125 0.578125q0.453125 0.265625 0.9375 0.515625q0.84375 -0.65625 1.234375 -1.28125q0.40625 -0.640625 0.40625 -1.40625q0 -0.953125 -0.59375 -1.46875q-0.578125 -0.515625 -1.390625 -0.515625q-0.515625 0 -0.90625 0.171875q-0.390625 0.171875 -0.671875 0.4375q-0.28125 0.25 -0.421875 0.609375q-0.140625 0.34375 -0.140625 0.703125z" fill-rule="nonzero"/><path fill="#000000" fill-opacity="0.0" d="m46.282253 22.549768l39.43307 0l0 39.433067l-39.43307 0z" fill-rule="evenodd"/><path stroke="#000000" stroke-width="2.0" stroke-linejoin="round" stroke-linecap="butt" d="m46.282253 22.549768l39.43307 0l0 39.433067l-39.43307 0z" fill-rule="evenodd"/><path fill="#000000" d="m55.957016 47.811302l2.609375 0l0 -9.03125l0.1875 -1.109375l-0.75 0.875l-2.046875 1.484375l-0.703125 -0.953125l4.09375 -3.171875l0.671875 0l0 11.90625l2.5625 0l0 1.375l-6.625 0l0 -1.375zm17.933289 -2.640625l-2.203125 0l0 4.015625l-1.453125 0l0 -4.015625l-5.75 0l0 -0.609375l6.1875 -8.640625l1.015625 0l0 7.953125l2.203125 0l0 1.296875zm-3.65625 -5.375l0.1875 -1.515625l-0.0625 0l-0.65625 1.265625l-2.625 3.5625l-0.890625 0.90625l1.296875 -0.140625l2.75 0l0 -4.078125z" fill-rule="nonzero"/><path fill="#000000" fill-opacity="0.0" d="m86.28226 22.549768l39.433067 0l0 39.433067l-39.433067 0z" fill-rule="evenodd"/><path stroke="#000000" stroke-width="2.0" stroke-linejoin="round" stroke-linecap="butt" d="m86.28226 22.549768l39.433067 0l0 39.433067l-39.433067 0z" fill-rule="evenodd"/><path fill="#000000" d="m95.957016 47.811302l2.609375 0l0 -9.03125l0.1875 -1.109375l-0.75 0.875l-2.046875 1.484375l-0.703125 -0.953125l4.09375 -3.171875l0.671875 0l0 11.90625l2.5625 0l0 1.375l-6.625 0l0 -1.375zm9.417664 -1.734375q0 -1.1875 0.609375 -2.046875q0.625 -0.875 1.9375 -1.578125q-0.46875 -0.28125 -0.875 -0.578125q-0.40625 -0.3125 -0.71875 -0.703125q-0.296875 -0.390625 -0.484375 -0.875q-0.171875 -0.5 -0.171875 -1.125q0 -0.734375 0.25 -1.328125q0.265625 -0.59375 0.734375 -1.015625q0.46875 -0.4375 1.125 -0.671875q0.671875 -0.25 1.515625 -0.25q0.78125 0 1.40625 0.234375q0.640625 0.21875 1.078125 0.609375q0.4375 0.390625 0.671875 0.9375q0.25 0.53125 0.25 1.1875q0 1.0625 -0.484375 1.875q-0.484375 0.8125 -1.59375 1.59375q0.484375 0.28125 0.921875 0.625q0.4375 0.328125 0.765625 0.734375q0.328125 0.40625 0.515625 0.921875q0.1875 0.515625 0.1875 1.171875q0 0.796875 -0.265625 1.46875q-0.265625 0.65625 -0.765625 1.140625q-0.5 0.46875 -1.234375 0.734375q-0.734375 0.265625 -1.65625 0.265625q-0.90625 0 -1.59375 -0.25q-0.6875 -0.265625 -1.171875 -0.703125q-0.46875 -0.453125 -0.71875 -1.0625q-0.234375 -0.609375 -0.234375 -1.3125zm6.171875 -0.1875q0 -0.5625 -0.21875 -0.984375q-0.21875 -0.421875 -0.59375 -0.765625q-0.359375 -0.34375 -0.828125 -0.625q-0.46875 -0.28125 -0.96875 -0.546875q-1.140625 0.640625 -1.625 1.421875q-0.484375 0.78125 -0.484375 1.5q0 0.4375 0.140625 0.859375q0.15625 0.40625 0.453125 0.703125q0.3125 0.296875 0.75 0.484375q0.4375 0.171875 1.015625 0.171875q0.46875 0 0.890625 -0.140625q0.4375 -0.140625 0.75 -0.40625q0.328125 -0.28125 0.515625 -0.703125q0.203125 -0.421875 0.203125 -0.96875zm-4.421875 -6.765625q0 0.53125 0.203125 0.9375q0.21875 0.390625 0.5625 0.71875q0.34375 0.3125 0.78125 0.578125q0.453125 0.265625 0.9375 0.515625q0.84375 -0.65625 1.234375 -1.28125q0.40625 -0.640625 0.40625 -1.40625q0 -0.953125 -0.59375 -1.46875q-0.578125 -0.515625 -1.390625 -0.515625q-0.515625 0 -0.90625 0.171875q-0.390625 0.171875 -0.671875 0.4375q-0.28125 0.25 -0.421875 0.609375q-0.140625 0.34375 -0.140625 0.703125z" fill-rule="nonzero"/><path fill="#000000" fill-opacity="0.0" d="m126.28226 22.549768l39.43306 0l0 39.433067l-39.43306 0z" fill-rule="evenodd"/><path stroke="#000000" stroke-width="2.0" stroke-linejoin="round" stroke-linecap="butt" d="m126.28226 22.549768l39.43306 0l0 39.433067l-39.43306 0z" fill-rule="evenodd"/><path fill="#000000" d="m139.99397 40.076927q0 -0.890625 0.265625 -1.65625q0.265625 -0.765625 0.765625 -1.328125q0.5 -0.5625 1.25 -0.875q0.765625 -0.3125 1.765625 -0.3125q1.90625 0 2.96875 1.234375q1.0625 1.21875 1.0625 3.46875q0 2.109375 -0.484375 3.6875q-0.46875 1.5625 -1.3125 2.65625q-0.828125 1.078125 -1.984375 1.6875q-1.140625 0.609375 -2.484375 0.765625l-0.34375 -1.1875q1.09375 -0.171875 1.953125 -0.640625q0.875 -0.46875 1.5 -1.171875q0.625 -0.703125 1.015625 -1.609375q0.390625 -0.90625 0.53125 -1.96875q-0.5 0.59375 -1.109375 0.828125q-0.59375 0.234375 -1.59375 0.234375q-0.765625 0 -1.453125 -0.25q-0.671875 -0.25 -1.203125 -0.734375q-0.515625 -0.484375 -0.8125 -1.1875q-0.296875 -0.71875 -0.296875 -1.640625zm1.546875 -0.140625q0 1.328125 0.703125 1.984375q0.703125 0.65625 1.84375 0.65625q0.90625 0 1.5625 -0.296875q0.65625 -0.296875 0.9375 -0.78125q0.03125 -0.234375 0.03125 -0.421875q0 -0.1875 0 -0.390625q0 -0.671875 -0.15625 -1.296875q-0.15625 -0.625 -0.484375 -1.125q-0.3125 -0.5 -0.828125 -0.78125q-0.515625 -0.28125 -1.203125 -0.28125q-1.140625 0 -1.78125 0.71875q-0.625 0.71875 -0.625 2.015625z" fill-rule="nonzero"/><path fill="#000000" fill-opacity="0.0" d="m166.28226 22.549768l39.43306 0l0 39.433067l-39.43306 0z" fill-rule="evenodd"/><path stroke="#000000" stroke-width="2.0" stroke-linejoin="round" stroke-linecap="butt" d="m166.28226 22.549768l39.43306 0l0 39.433067l-39.43306 0z" fill-rule="evenodd"/><path fill="#000000" d="m188.1971 45.248802q0 0.859375 -0.265625 1.625q-0.25 0.75 -0.75 1.328125q-0.5 0.5625 -1.25 0.890625q-0.75 0.3125 -1.703125 0.3125q-0.9375 0 -1.6875 -0.296875q-0.734375 -0.296875 -1.28125 -0.875q-0.53125 -0.59375 -0.828125 -1.453125q-0.28125 -0.859375 -0.28125 -1.984375q0 -1.84375 0.46875 -3.390625q0.484375 -1.5625 1.3125 -2.71875q0.84375 -1.15625 1.984375 -1.875q1.15625 -0.71875 2.5 -0.90625l0.3125 1.1875q-1.046875 0.1875 -1.90625 0.71875q-0.859375 0.515625 -1.5 1.28125q-0.640625 0.765625 -1.0625 1.71875q-0.40625 0.953125 -0.546875 1.953125q0.296875 -0.5 1.0 -0.921875q0.71875 -0.421875 1.734375 -0.421875q1.765625 0 2.75 1.015625q1.0 1.0 1.0 2.8125zm-1.546875 0.15625q0 -1.328125 -0.609375 -2.0q-0.609375 -0.671875 -1.90625 -0.671875q-0.90625 0 -1.578125 0.453125q-0.65625 0.4375 -0.921875 1.0q-0.03125 0.265625 -0.03125 0.4375q0 0.15625 0 0.359375q0 0.578125 0.15625 1.140625q0.15625 0.5625 0.484375 1.0q0.34375 0.4375 0.828125 0.71875q0.5 0.265625 1.171875 0.265625q0.546875 0 0.984375 -0.203125q0.4375 -0.21875 0.75 -0.5625q0.328125 -0.359375 0.5 -0.859375q0.171875 -0.5 0.171875 -1.078125z" fill-rule="nonzero"/><path fill="#000000" fill-opacity="0.0" d="m206.28226 22.549768l39.43306 0l0 39.433067l-39.43306 0z" fill-rule="evenodd"/><path stroke="#000000" stroke-width="2.0" stroke-linejoin="round" stroke-linecap="butt" d="m206.28226 22.549768l39.43306 0l0 39.433067l-39.43306 0z" fill-rule="evenodd"/><path fill="#000000" d="m222.26952 39.092552q0 0.984375 -0.375 2.03125q-0.359375 1.03125 -0.953125 2.078125q-0.578125 1.046875 -1.3125 2.046875q-0.71875 0.984375 -1.453125 1.890625l-0.90625 0.796875l0 0.078125l1.1875 -0.203125l4.0625 0l0 1.375l-7.421875 0l0 -0.546875q0.40625 -0.421875 0.984375 -1.046875q0.578125 -0.640625 1.203125 -1.40625q0.625 -0.78125 1.234375 -1.640625q0.609375 -0.875 1.09375 -1.765625q0.5 -0.90625 0.796875 -1.78125q0.296875 -0.875 0.296875 -1.65625q0 -0.921875 -0.515625 -1.53125q-0.515625 -0.609375 -1.578125 -0.609375q-0.71875 0 -1.390625 0.296875q-0.671875 0.28125 -1.15625 0.65625l-0.609375 -1.0625q0.65625 -0.5625 1.546875 -0.875q0.890625 -0.3125 1.921875 -0.3125q0.796875 0 1.40625 0.234375q0.625 0.234375 1.046875 0.671875q0.4375 0.421875 0.65625 1.015625q0.234375 0.578125 0.234375 1.265625zm3.8864136 10.09375l4.6875 -10.9375l0.828125 -0.90625l-1.109375 0.171875l-5.3125 0l0 -1.390625l7.796875 0l0 0.5l-5.375 12.5625l-1.515625 0z" fill-rule="nonzero"/><path fill="#000000" fill-opacity="0.0" d="m145.99881 82.03796l0 -20.062992" fill-rule="evenodd"/><path stroke="#000000" stroke-width="2.0" stroke-linejoin="round" stroke-linecap="butt" d="m145.9988 82.03796l0 -8.062996" fill-rule="evenodd"/><path fill="#000000" stroke="#000000" stroke-width="2.0" stroke-linecap="butt" d="m149.30226 73.97496l-3.3034668 -9.076195l-3.3034515 9.076195z" fill-rule="evenodd"/><path fill="#000000" fill-opacity="0.0" d="m116.15628 82.03796l59.685043 0l0 26.645668l-59.685043 0z" fill-rule="evenodd"/><path fill="#000000" d="m138.48927 93.12079l1.203125 0l-1.703125 8.0l-1.203125 0l1.703125 -8.0zm0.25 -2.453125q0 -0.359375 0.25 -0.609375q0.25 -0.265625 0.625 -0.265625q0.359375 0 0.609375 0.265625q0.265625 0.25 0.265625 0.609375q0 0.375 -0.265625 0.625q-0.25 0.25 -0.609375 0.25q-0.375 0 -0.625 -0.25q-0.25 -0.25 -0.25 -0.625zm2.2065125 3.140625l6.78125 0l0 1.15625l-6.78125 0l0 -1.15625zm0 2.65625l6.78125 0l0 1.15625l-6.78125 0l0 -1.15625zm9.883148 3.734375q0.75 0 1.3125 -0.234375q0.5625 -0.25 0.921875 -0.640625q0.375 -0.390625 0.5625 -0.890625q0.1875 -0.515625 0.1875 -1.046875q0 -0.828125 -0.421875 -1.265625q-0.40625 -0.453125 -1.546875 -0.453125l-1.15625 0l0.109375 -0.46875l2.90625 -3.546875l0.828125 -0.703125l-1.0 0.15625l-2.96875 0l0.234375 -1.1875l5.4375 0l-0.09375 0.46875l-3.21875 3.875l-0.625 0.453125l0 0.03125l0.53125 -0.109375q0.4375 0 0.828125 0.15625q0.40625 0.15625 0.71875 0.46875q0.3125 0.3125 0.5 0.796875q0.1875 0.46875 0.1875 1.140625q0 0.859375 -0.28125 1.609375q-0.28125 0.75 -0.84375 1.3125q-0.546875 0.546875 -1.375 0.875q-0.828125 0.3125 -1.9375 0.3125q-0.6875 0 -1.234375 -0.109375q-0.546875 -0.109375 -0.953125 -0.28125l0.578125 -1.140625q0.3125 0.171875 0.765625 0.296875q0.453125 0.125 1.046875 0.125z" fill-rule="nonzero"/><path fill="#000000" fill-opacity="0.0" d="m129.00667 66.54058c0 4.2791214 -3.4689178 7.7480316 -7.7480392 7.7480316l-47.007874 0c-4.2791214 0 -7.7480316 3.4689102 -7.7480316 7.7480316c0 -4.2791214 -3.4689102 -7.7480316 -7.748028 -7.7480316l-47.007874 0c-4.27912 0 -7.7480316 -3.4689102 -7.7480316 -7.7480316z" fill-rule="evenodd"/><path fill="#000000" fill-opacity="0.0" d="m129.00667 66.54058c0 4.2791214 -3.4689178 7.7480316 -7.7480392 7.7480316l-47.007874 0c-4.2791214 0 -7.7480316 3.4689102 -7.7480316 7.7480316c0 -4.2791214 -3.4689102 -7.7480316 -7.748028 -7.7480316l-47.007874 0c-4.27912 0 -7.7480316 -3.4689102 -7.7480316 -7.7480316" fill-rule="evenodd"/><path stroke="#000000" stroke-width="1.0" stroke-linejoin="round" stroke-linecap="butt" d="m129.00667 66.54058c0 4.2791214 -3.4689178 7.7480316 -7.7480392 7.7480316l-47.007874 0c-4.2791214 0 -7.7480316 3.4689102 -7.7480316 7.7480316c0 -4.2791214 -3.4689102 -7.7480316 -7.748028 -7.7480316l-47.007874 0c-4.27912 0 -7.7480316 -3.4689102 -7.7480316 -7.7480316" fill-rule="evenodd"/><path fill="#000000" fill-opacity="0.0" d="m-0.001208399 76.69806l137.44882 0l0 26.645676l-137.44882 0z" fill-rule="evenodd"/><path fill="#000000" d="m35.76112 93.609024q0 -0.484375 -0.296875 -0.75q-0.28125 -0.28125 -0.703125 -0.453125q-0.421875 -0.1875 -0.9375 -0.359375q-0.5 -0.171875 -0.921875 -0.4375q-0.421875 -0.265625 -0.71875 -0.671875q-0.28125 -0.421875 -0.28125 -1.125q0 -1.15625 0.65625 -1.6875q0.65625 -0.53125 1.828125 -0.53125q0.859375 0 1.4375 0.15625q0.59375 0.140625 1.03125 0.34375l-0.3125 1.0625q-0.359375 -0.171875 -0.890625 -0.3125q-0.515625 -0.140625 -1.109375 -0.140625q-0.703125 0 -1.03125 0.25q-0.328125 0.234375 -0.328125 0.828125q0 0.421875 0.28125 0.65625q0.296875 0.21875 0.71875 0.40625q0.421875 0.1875 0.921875 0.359375q0.515625 0.171875 0.9375 0.46875q0.421875 0.28125 0.703125 0.734375q0.296875 0.4375 0.296875 1.15625q0 0.5 -0.171875 0.953125q-0.15625 0.453125 -0.515625 0.78125q-0.359375 0.3125 -0.875 0.484375q-0.515625 0.1875 -1.21875 0.1875q-0.90625 0 -1.546875 -0.171875q-0.640625 -0.171875 -1.078125 -0.421875l0.390625 -1.078125q0.359375 0.203125 0.953125 0.390625q0.59375 0.171875 1.203125 0.171875q0.6875 0 1.125 -0.265625q0.453125 -0.28125 0.453125 -0.984375zm2.7672577 -1.828125q0 -2.03125 0.90625 -3.109375q0.90625 -1.078125 2.59375 -1.078125q0.90625 0 1.5625 0.296875q0.671875 0.296875 1.09375 0.84375q0.4375 0.546875 0.640625 1.328125q0.21875 0.78125 0.21875 1.71875q0 2.03125 -0.90625 3.109375q-0.90625 1.078125 -2.609375 1.078125q-0.890625 0 -1.5625 -0.296875q-0.65625 -0.296875 -1.09375 -0.84375q-0.421875 -0.546875 -0.640625 -1.328125q-0.203125 -0.78125 -0.203125 -1.71875zm1.328125 0q0 0.609375 0.125 1.171875q0.125 0.5625 0.375 0.984375q0.25 0.40625 0.671875 0.671875q0.421875 0.25 1.0 0.25q2.1875 0.015625 2.1875 -3.078125q0 -0.625 -0.125 -1.1875q-0.125 -0.5625 -0.375 -0.96875q-0.25 -0.421875 -0.671875 -0.671875q-0.421875 -0.25 -1.015625 -0.25q-2.171875 -0.015625 -2.171875 3.078125zm11.482269 -2.765625q-0.484375 -0.15625 -0.921875 -0.15625q-0.6875 0 -1.09375 0.375q-0.390625 0.375 -0.484375 0.953125l0 5.59375l-1.28125 0l0 -8.0l0.890625 0l0.25 0.96875l0.0625 0q0.296875 -0.53125 0.71875 -0.828125q0.421875 -0.296875 1.078125 -0.296875q0.46875 0 1.046875 0.15625l-0.265625 1.234375zm1.0762634 -1.234375l1.25 0l0 -1.578125l1.28125 -0.375l0 1.953125l2.171875 0l0 1.125l-2.171875 0l0 4.421875q0 0.84375 0.203125 1.1875q0.21875 0.34375 0.703125 0.34375q0.421875 0 0.703125 -0.09375q0.296875 -0.09375 0.640625 -0.234375l0.296875 0.984375q-0.4375 0.203125 -0.953125 0.328125q-0.5 0.125 -1.09375 0.125q-0.984375 0 -1.390625 -0.546875q-0.390625 -0.546875 -0.390625 -1.84375l0 -4.671875l-1.25 0l0 -1.125zm12.15427 7.359375q-0.484375 0.390625 -1.2187538 0.609375q-0.71875 0.21875 -1.546875 0.21875q-0.90625 0 -1.578125 -0.296875q-0.671875 -0.296875 -1.109375 -0.84375q-0.421875 -0.546875 -0.640625 -1.3125q-0.203125 -0.78125 -0.203125 -1.734375q0 -2.046875 0.90625 -3.109375q0.921875 -1.078125 2.609375 -1.078125q0.546875 0 1.09375 0.125q0.546875 0.109375 0.96875 0.453125q0.4375038 0.328125 0.7031288 0.953125q0.28125 0.609375 0.28125 1.609375q0 0.53125 -0.09375 1.171875l-5.140629 0q0 0.703125 0.140625 1.25q0.15625 0.546875 0.453125 0.921875q0.3125 0.375 0.796875 0.578125q0.484375 0.203125 1.1875 0.203125q0.546875 0 1.078125 -0.1875q0.546875 -0.203125 0.8281288 -0.453125l0.484375 0.921875zm-2.7656288 -6.4375q-0.9375 0 -1.515625 0.5q-0.5625 0.5 -0.671875 1.703125l3.96875 0q0 -1.21875 -0.46875 -1.703125q-0.453125 -0.5 -1.3125 -0.5zm11.190525 4.328125q0 0.8125 0.015625 1.484375q0.015625 0.65625 0.140625 1.296875l-0.859375 0l-0.3125 -1.140625l-0.078125 0q-0.3125 0.5625 -0.921875 0.9375q-0.609375 0.359375 -1.421875 0.359375q-1.59375 0 -2.375 -1.0q-0.78125 -1.015625 -0.78125 -3.15625q0 -2.046875 0.96875 -3.109375q0.96875 -1.0625 2.671875 -1.0625q0.59375 0 0.9375 0.0625q0.34375 0.0625 0.734375 0.203125l0 -3.328125l1.28125 0l0 8.453125zm-3.234375 1.828125q0.8125 0 1.296875 -0.421875q0.484375 -0.4375 0.65625 -1.296875l0 -3.96875q-0.28125 -0.21875 -0.65625 -0.3125q-0.359375 -0.109375 -0.96875 -0.109375q-1.109375 0 -1.734375 0.734375q-0.625 0.734375 -0.625 2.328125q0 0.65625 0.09375 1.21875q0.109375 0.5625 0.34375 0.96875q0.25 0.390625 0.640625 0.625q0.390625 0.234375 0.953125 0.234375zm9.97377 -7.078125l0.875 0l0.25 0.953125l0.0625 0q0.359375 -0.546875 0.9375 -0.84375q0.59375 -0.296875 1.34375 -0.296875q1.59375 0 2.375 0.953125q0.796875 0.9375 0.796875 3.078125q0 1.0 -0.265625 1.8125q-0.265625 0.8125 -0.75 1.375q-0.46875 0.546875 -1.15625 0.859375q-0.671875 0.296875 -1.515625 0.296875q-0.59375 0 -0.9375 -0.078125q-0.34375 -0.0625 -0.734375 -0.234375l0 3.328125l-1.28125 0l0 -11.203125zm3.234375 0.921875q-0.828125 0 -1.296875 0.4375q-0.46875 0.421875 -0.65625 1.28125l0 3.96875q0.28125 0.21875 0.640625 0.34375q0.375 0.125 0.984375 0.125q1.109375 0 1.75 -0.828125q0.65625 -0.828125 0.65625 -2.421875q0 -0.65625 -0.125 -1.1875q-0.109375 -0.546875 -0.359375 -0.921875q-0.234375 -0.375 -0.625 -0.578125q-0.390625 -0.21875 -0.96875 -0.21875zm5.296646 -0.328125q0.609375 -0.375 1.40625 -0.546875q0.8125 -0.171875 1.6875 -0.171875q0.84375 0 1.34375 0.21875q0.5 0.21875 0.765625 0.59375q0.265625 0.359375 0.34375 0.796875q0.09375 0.421875 0.09375 0.859375q0 0.953125 -0.046875 1.875q-0.046875 0.90625 -0.046875 1.71875q0 0.59375 0.046875 1.125q0.046875 0.515625 0.171875 0.96875l-0.9375 0l-0.34375 -1.125l-0.078125 0q-0.140625 0.234375 -0.359375 0.453125q-0.21875 0.203125 -0.515625 0.375q-0.296875 0.171875 -0.703125 0.28125q-0.40625 0.109375 -0.90625 0.109375q-0.515625 0 -0.96875 -0.15625q-0.4375 -0.15625 -0.765625 -0.453125q-0.3125 -0.296875 -0.5 -0.703125q-0.171875 -0.421875 -0.171875 -0.953125q0 -0.703125 0.28125 -1.171875q0.296875 -0.484375 0.8125 -0.765625q0.515625 -0.28125 1.25 -0.390625q0.734375 -0.125 1.609375 -0.125q0.21875 0 0.4375 0q0.21875 0 0.4375 0.03125q0.046875 -0.484375 0.046875 -0.859375q0 -0.875 -0.359375 -1.234375q-0.34375 -0.359375 -1.265625 -0.359375q-0.28125 0 -0.59375 0.046875q-0.3125 0.046875 -0.640625 0.125q-0.328125 0.0625 -0.625 0.171875q-0.28125 0.09375 -0.515625 0.21875l-0.390625 -0.953125zm2.265625 6.421875q0.453125 0 0.796875 -0.125q0.359375 -0.125 0.609375 -0.296875q0.265625 -0.1875 0.421875 -0.40625q0.171875 -0.234375 0.25 -0.4375l0 -1.328125q-0.21875 -0.015625 -0.453125 -0.015625q-0.234375 -0.015625 -0.453125 -0.015625q-0.5 0 -0.96875 0.0625q-0.46875 0.046875 -0.828125 0.203125q-0.359375 0.140625 -0.578125 0.40625q-0.21875 0.265625 -0.21875 0.671875q0 0.546875 0.390625 0.921875q0.40625 0.359375 1.03125 0.359375zm9.576645 -5.78125q-0.484375 -0.15625 -0.921875 -0.15625q-0.6875 0 -1.09375 0.375q-0.390625 0.375 -0.484375 0.953125l0 5.59375l-1.28125 0l0 -8.0l0.890625 0l0.25 0.96875l0.0625 0q0.296875 -0.53125 0.71875 -0.828125q0.421875 -0.296875 1.078125 -0.296875q0.46875 0 1.046875 0.15625l-0.265625 1.234375zm1.0762634 -1.234375l1.25 0l0 -1.578125l1.28125 -0.375l0 1.953125l2.171875 0l0 1.125l-2.171875 0l0 4.421875q0 0.84375 0.203125 1.1875q0.21875 0.34375 0.703125 0.34375q0.421875 0 0.703125 -0.09375q0.296875 -0.09375 0.640625 -0.234375l0.296875 0.984375q-0.4375 0.203125 -0.953125 0.328125q-0.5 0.125 -1.09375 0.125q-0.984375 0 -1.390625 -0.546875q-0.390625 -0.546875 -0.390625 -1.84375l0 -4.671875l-1.25 0l0 -1.125z" fill-rule="nonzero"/><path fill="#000000" fill-opacity="0.0" d="m271.08224 22.194124l39.433075 0l0 39.433075l-39.433075 0z" fill-rule="evenodd"/><path stroke="#000000" stroke-width="2.0" stroke-linejoin="round" stroke-linecap="butt" d="m271.08224 22.194124l39.433075 0l0 39.433075l-39.433075 0z" fill-rule="evenodd"/><path fill="#000000" d="m287.09082 45.721283q0 -1.1875 0.609375 -2.046875q0.625 -0.875 1.9375 -1.578125q-0.46875 -0.28125 -0.875 -0.578125q-0.40625 -0.3125 -0.71875 -0.703125q-0.296875 -0.390625 -0.484375 -0.875q-0.171875 -0.5 -0.171875 -1.125q0 -0.734375 0.25 -1.328125q0.265625 -0.59375 0.734375 -1.015625q0.46875 -0.4375 1.125 -0.671875q0.671875 -0.25 1.515625 -0.25q0.78125 0 1.40625 0.234375q0.640625 0.21875 1.078125 0.609375q0.4375 0.390625 0.671875 0.9375q0.25 0.53125 0.25 1.1875q0 1.0625 -0.484375 1.875q-0.484375 0.8125 -1.59375 1.59375q0.484375 0.28125 0.921875 0.625q0.4375 0.328125 0.765625 0.734375q0.328125 0.40625 0.515625 0.921875q0.1875 0.515625 0.1875 1.171875q0 0.796875 -0.265625 1.46875q-0.265625 0.65625 -0.765625 1.140625q-0.5 0.46875 -1.234375 0.734375q-0.734375 0.265625 -1.65625 0.265625q-0.90625 0 -1.59375 -0.25q-0.6875 -0.265625 -1.171875 -0.703125q-0.46875 -0.453125 -0.71875 -1.0625q-0.234375 -0.609375 -0.234375 -1.3125zm6.171875 -0.1875q0 -0.5625 -0.21875 -0.984375q-0.21875 -0.421875 -0.59375 -0.765625q-0.359375 -0.34375 -0.828125 -0.625q-0.46875 -0.28125 -0.96875 -0.546875q-1.140625 0.640625 -1.625 1.421875q-0.484375 0.78125 -0.484375 1.5q0 0.4375 0.140625 0.859375q0.15625 0.40625 0.453125 0.703125q0.3125 0.296875 0.75 0.484375q0.4375 0.171875 1.015625 0.171875q0.46875 0 0.890625 -0.140625q0.4375 -0.140625 0.75 -0.40625q0.328125 -0.28125 0.515625 -0.703125q0.203125 -0.421875 0.203125 -0.96875zm-4.421875 -6.765625q0 0.53125 0.203125 0.9375q0.21875 0.390625 0.5625 0.71875q0.34375 0.3125 0.78125 0.578125q0.453125 0.265625 0.9375 0.515625q0.84375 -0.65625 1.234375 -1.28125q0.40625 -0.640625 0.40625 -1.40625q0 -0.953125 -0.59375 -1.46875q-0.578125 -0.515625 -1.390625 -0.515625q-0.515625 0 -0.90625 0.171875q-0.390625 0.171875 -0.671875 0.4375q-0.28125 0.25 -0.421875 0.609375q-0.140625 0.34375 -0.140625 0.703125z" fill-rule="nonzero"/><path fill="#000000" fill-opacity="0.0" d="m311.08224 22.194124l39.433075 0l0 39.433075l-39.433075 0z" fill-rule="evenodd"/><path stroke="#000000" stroke-width="2.0" stroke-linejoin="round" stroke-linecap="butt" d="m311.08224 22.194124l39.433075 0l0 39.433075l-39.433075 0z" fill-rule="evenodd"/><path fill="#000000" d="m324.79395 39.721283q0 -0.890625 0.265625 -1.65625q0.265625 -0.765625 0.765625 -1.328125q0.5 -0.5625 1.25 -0.875q0.765625 -0.3125 1.765625 -0.3125q1.90625 0 2.96875 1.234375q1.0625 1.21875 1.0625 3.46875q0 2.109375 -0.484375 3.6875q-0.46875 1.5625 -1.3125 2.65625q-0.828125 1.078125 -1.984375 1.6875q-1.140625 0.609375 -2.484375 0.765625l-0.34375 -1.1875q1.09375 -0.171875 1.953125 -0.640625q0.875 -0.46875 1.5 -1.171875q0.625 -0.703125 1.015625 -1.609375q0.390625 -0.90625 0.53125 -1.96875q-0.5 0.59375 -1.109375 0.828125q-0.59375 0.234375 -1.59375 0.234375q-0.765625 0 -1.453125 -0.25q-0.671875 -0.25 -1.203125 -0.734375q-0.515625 -0.484375 -0.8125 -1.1875q-0.296875 -0.71875 -0.296875 -1.640625zm1.546875 -0.140625q0 1.328125 0.703125 1.984375q0.703125 0.65625 1.84375 0.65625q0.90625 0 1.5625 -0.296875q0.65625 -0.296875 0.9375 -0.78125q0.03125 -0.234375 0.03125 -0.421875q0 -0.1875 0 -0.390625q0 -0.671875 -0.15625 -1.296875q-0.15625 -0.625 -0.484375 -1.125q-0.3125 -0.5 -0.828125 -0.78125q-0.515625 -0.28125 -1.203125 -0.28125q-1.140625 0 -1.78125 0.71875q-0.625 0.71875 -0.625 2.015625z" fill-rule="nonzero"/><path fill="#000000" fill-opacity="0.0" d="m351.08224 22.194124l39.433075 0l0 39.433075l-39.433075 0z" fill-rule="evenodd"/><path stroke="#000000" stroke-width="2.0" stroke-linejoin="round" stroke-linecap="butt" d="m351.08224 22.194124l39.433075 0l0 39.433075l-39.433075 0z" fill-rule="evenodd"/><path fill="#000000" d="m360.757 47.455658l2.609375 0l0 -9.03125l0.1875 -1.109375l-0.75 0.875l-2.046875 1.484375l-0.703125 -0.953125l4.09375 -3.171875l0.671875 0l0 11.90625l2.5625 0l0 1.375l-6.625 0l0 -1.375zm17.933289 -2.640625l-2.203125 0l0 4.015625l-1.453125 0l0 -4.015625l-5.75 0l0 -0.609375l6.1875 -8.640625l1.015625 0l0 7.953125l2.203125 0l0 1.296875zm-3.65625 -5.375l0.1875 -1.515625l-0.0625 0l-0.65625 1.265625l-2.625 3.5625l-0.890625 0.90625l1.296875 -0.140625l2.75 0l0 -4.078125z" fill-rule="nonzero"/><path fill="#000000" fill-opacity="0.0" d="m391.08224 22.194124l39.433075 0l0 39.433075l-39.433075 0z" fill-rule="evenodd"/><path stroke="#000000" stroke-width="2.0" stroke-linejoin="round" stroke-linecap="butt" d="m391.08224 22.194124l39.433075 0l0 39.433075l-39.433075 0z" fill-rule="evenodd"/><path fill="#000000" d="m400.757 47.455658l2.609375 0l0 -9.03125l0.1875 -1.109375l-0.75 0.875l-2.046875 1.484375l-0.703125 -0.953125l4.09375 -3.171875l0.671875 0l0 11.90625l2.5625 0l0 1.375l-6.625 0l0 -1.375zm9.417664 -1.734375q0 -1.1875 0.609375 -2.046875q0.625 -0.875 1.9375 -1.578125q-0.46875 -0.28125 -0.875 -0.578125q-0.40625 -0.3125 -0.71875 -0.703125q-0.296875 -0.390625 -0.484375 -0.875q-0.171875 -0.5 -0.171875 -1.125q0 -0.734375 0.25 -1.328125q0.265625 -0.59375 0.734375 -1.015625q0.46875 -0.4375 1.125 -0.671875q0.671875 -0.25 1.515625 -0.25q0.78125 0 1.40625 0.234375q0.640625 0.21875 1.078125 0.609375q0.4375 0.390625 0.671875 0.9375q0.25 0.53125 0.25 1.1875q0 1.0625 -0.484375 1.875q-0.484375 0.8125 -1.59375 1.59375q0.484375 0.28125 0.921875 0.625q0.4375 0.328125 0.765625 0.734375q0.328125 0.40625 0.515625 0.921875q0.1875 0.515625 0.1875 1.171875q0 0.796875 -0.265625 1.46875q-0.265625 0.65625 -0.765625 1.140625q-0.5 0.46875 -1.234375 0.734375q-0.734375 0.265625 -1.65625 0.265625q-0.90625 0 -1.59375 -0.25q-0.6875 -0.265625 -1.171875 -0.703125q-0.46875 -0.453125 -0.71875 -1.0625q-0.234375 -0.609375 -0.234375 -1.3125zm6.171875 -0.1875q0 -0.5625 -0.21875 -0.984375q-0.21875 -0.421875 -0.59375 -0.765625q-0.359375 -0.34375 -0.828125 -0.625q-0.46875 -0.28125 -0.96875 -0.546875q-1.140625 0.640625 -1.625 1.421875q-0.484375 0.78125 -0.484375 1.5q0 0.4375 0.140625 0.859375q0.15625 0.40625 0.453125 0.703125q0.3125 0.296875 0.75 0.484375q0.4375 0.171875 1.015625 0.171875q0.46875 0 0.890625 -0.140625q0.4375 -0.140625 0.75 -0.40625q0.328125 -0.28125 0.515625 -0.703125q0.203125 -0.421875 0.203125 -0.96875zm-4.421875 -6.765625q0 0.53125 0.203125 0.9375q0.21875 0.390625 0.5625 0.71875q0.34375 0.3125 0.78125 0.578125q0.453125 0.265625 0.9375 0.515625q0.84375 -0.65625 1.234375 -1.28125q0.40625 -0.640625 0.40625 -1.40625q0 -0.953125 -0.59375 -1.46875q-0.578125 -0.515625 -1.390625 -0.515625q-0.515625 0 -0.90625 0.171875q-0.390625 0.171875 -0.671875 0.4375q-0.28125 0.25 -0.421875 0.609375q-0.140625 0.34375 -0.140625 0.703125z" fill-rule="nonzero"/><path fill="#000000" fill-opacity="0.0" d="m431.08224 22.194124l39.433075 0l0 39.433075l-39.433075 0z" fill-rule="evenodd"/><path stroke="#000000" stroke-width="2.0" stroke-linejoin="round" stroke-linecap="butt" d="m431.08224 22.194124l39.433075 0l0 39.433075l-39.433075 0z" fill-rule="evenodd"/><path fill="#000000" d="m452.99707 44.893158q0 0.859375 -0.265625 1.625q-0.25 0.75 -0.75 1.328125q-0.5 0.5625 -1.25 0.890625q-0.75 0.3125 -1.703125 0.3125q-0.9375 0 -1.6875 -0.296875q-0.734375 -0.296875 -1.28125 -0.875q-0.53125 -0.59375 -0.828125 -1.453125q-0.28125 -0.859375 -0.28125 -1.984375q0 -1.84375 0.46875 -3.390625q0.484375 -1.5625 1.3125 -2.71875q0.84375 -1.15625 1.984375 -1.875q1.15625 -0.71875 2.5 -0.90625l0.3125 1.1875q-1.046875 0.1875 -1.90625 0.71875q-0.859375 0.515625 -1.5 1.28125q-0.640625 0.765625 -1.0625 1.71875q-0.40625 0.953125 -0.546875 1.953125q0.296875 -0.5 1.0 -0.921875q0.71875 -0.421875 1.734375 -0.421875q1.765625 0 2.75 1.015625q1.0 1.0 1.0 2.8125zm-1.546875 0.15625q0 -1.328125 -0.609375 -2.0q-0.609375 -0.671875 -1.90625 -0.671875q-0.90625 0 -1.578125 0.453125q-0.65625 0.4375 -0.921875 1.0q-0.03125 0.265625 -0.03125 0.4375q0 0.15625 0 0.359375q0 0.578125 0.15625 1.140625q0.15625 0.5625 0.484375 1.0q0.34375 0.4375 0.828125 0.71875q0.5 0.265625 1.171875 0.265625q0.546875 0 0.984375 -0.203125q0.4375 -0.21875 0.75 -0.5625q0.328125 -0.359375 0.5 -0.859375q0.171875 -0.5 0.171875 -1.078125z" fill-rule="nonzero"/><path fill="#000000" fill-opacity="0.0" d="m471.08224 22.194124l39.433075 0l0 39.433075l-39.433075 0z" fill-rule="evenodd"/><path stroke="#000000" stroke-width="2.0" stroke-linejoin="round" stroke-linecap="butt" d="m471.08224 22.194124l39.433075 0l0 39.433075l-39.433075 0z" fill-rule="evenodd"/><path fill="#000000" d="m487.0695 38.736908q0 0.984375 -0.375 2.03125q-0.359375 1.03125 -0.953125 2.078125q-0.578125 1.046875 -1.3125 2.046875q-0.71875 0.984375 -1.453125 1.890625l-0.90625 0.796875l0 0.078125l1.1875 -0.203125l4.0625 0l0 1.375l-7.421875 0l0 -0.546875q0.40625 -0.421875 0.984375 -1.046875q0.578125 -0.640625 1.203125 -1.40625q0.625 -0.78125 1.234375 -1.640625q0.609375 -0.875 1.09375 -1.765625q0.5 -0.90625 0.796875 -1.78125q0.296875 -0.875 0.296875 -1.65625q0 -0.921875 -0.515625 -1.53125q-0.515625 -0.609375 -1.578125 -0.609375q-0.71875 0 -1.390625 0.296875q-0.671875 0.28125 -1.15625 0.65625l-0.609375 -1.0625q0.65625 -0.5625 1.546875 -0.875q0.890625 -0.3125 1.921875 -0.3125q0.796875 0 1.40625 0.234375q0.625 0.234375 1.046875 0.671875q0.4375 0.421875 0.65625 1.015625q0.234375 0.578125 0.234375 1.265625zm3.8864136 10.09375l4.6875 -10.9375l0.828125 -0.90625l-1.109375 0.171875l-5.3125 0l0 -1.390625l7.796875 0l0 0.5l-5.375 12.5625l-1.515625 0z" fill-rule="nonzero"/><path fill="#000000" fill-opacity="0.0" d="m387.6328 0.0011678485l12.648499 0l0 16.908617l-12.648499 0z" fill-rule="evenodd"/><path fill="#000000" d="m390.87357 6.591804q0 -0.671875 0.1875 -1.234375q0.203125 -0.578125 0.578125 -0.984375q0.390625 -0.421875 0.953125 -0.65625q0.5625 -0.25 1.3125 -0.25q1.421875 0 2.21875 0.921875q0.796875 0.921875 0.796875 2.59375q0 1.5781255 -0.359375 2.7656255q-0.34375 1.171875 -0.984375 1.984375q-0.625 0.8125 -1.484375 1.265625q-0.859375 0.453125 -1.859375 0.578125l-0.25 -0.890625q0.8125 -0.125 1.453125 -0.46875q0.65625 -0.359375 1.125 -0.890625q0.46875 -0.53125 0.75 -1.203125q0.296875 -0.6875 0.40625 -1.484375q-0.375 0.453125 -0.828125 0.625q-0.453125 0.171875 -1.1875 0.171875q-0.578125 0 -1.09375 -0.1875q-0.5 -0.1875 -0.890625 -0.546875q-0.390625 -0.359375 -0.625 -0.8906255q-0.21875 -0.53125 -0.21875 -1.21875zm1.171875 -0.109375q0 0.984375 0.515625 1.484375q0.53125 0.5000005 1.375 0.5000005q0.6875 0 1.171875 -0.21875q0.484375 -0.234375 0.703125 -0.5937505q0.015625 -0.1875 0.015625 -0.3125q0 -0.140625 0 -0.296875q0 -0.5 -0.125 -0.96875q-0.109375 -0.46875 -0.34375 -0.84375q-0.234375 -0.375 -0.625 -0.578125q-0.375 -0.203125 -0.890625 -0.203125q-0.859375 0 -1.328125 0.53125q-0.46875 0.53125 -0.46875 1.5z" fill-rule="nonzero"/><path fill="#000000" fill-opacity="0.0" d="m387.6328 8.455477c-5.485443 0 -10.970917 6.2406454 -10.970917 12.481291" fill-rule="evenodd"/><path stroke="#000000" stroke-width="1.0" stroke-linejoin="round" stroke-linecap="butt" d="m387.63284 8.455477c-2.7427368 0 -5.485504 1.5601606 -7.5425415 3.900403c-1.0285034 1.1701221 -1.8856201 2.535263 -2.4855652 3.9979143c-0.15002441 0.36566353 -0.28390503 0.7374191 -0.40045166 1.1137466l-0.02420044 0.081539154" fill-rule="evenodd"/><path fill="#000000" stroke="#000000" stroke-width="1.0" stroke-linecap="butt" d="m377.18008 17.54908l-0.9416504 -1.2816868l0.64450073 3.2242794l1.5788269 -2.8842163z" fill-rule="evenodd"/><path fill="#000000" fill-opacity="0.0" d="m400.2813 8.455477c6.4983826 0 12.996796 5.66368 12.996796 11.32736" fill-rule="evenodd"/><path stroke="#000000" stroke-width="1.0" stroke-linejoin="round" stroke-linecap="butt" d="m400.2813 8.455477c6.4983826 0 12.996796 5.66368 12.996796 11.32736" fill-rule="evenodd"/><path fill="#000000" fill-opacity="0.0" d="m375.25674 23.298532c0 -1.8468628 0.36901855 -3.3440437 0.82424927 -3.3440437c0.21862793 0 0.4282837 0.3523178 0.5828552 0.9794483c0.15460205 0.6271305 0.24142456 1.4777012 0.24142456 2.3645954c0 1.8468647 -0.36901855 3.3440456 -0.8242798 3.3440456c-0.21859741 0 -0.42825317 -0.3523178 -0.5828247 -0.9794483c-0.15460205 -0.6271305 -0.24142456 -1.4777012 -0.24142456 -2.3645973z" fill-rule="evenodd"/><path fill="#000000" fill-opacity="0.0" d="m413.03824 22.147137c0 -1.8468647 0.36904907 -3.3440437 0.8242798 -3.3440437c0.21859741 0 0.42825317 0.3523178 0.5828247 0.9794464c0.15460205 0.6271305 0.24142456 1.4777012 0.24142456 2.3645973c0 1.8468647 -0.36901855 3.3440437 -0.82424927 3.3440437c-0.21862793 0 -0.4282837 -0.3523178 -0.5828552 -0.9794483c-0.15457153 -0.6271305 -0.24142456 -1.4777012 -0.24142456 -2.3645954z" fill-rule="evenodd"/><path fill="#000000" fill-opacity="0.0" d="m341.91742 0.0011678485l12.648499 0l0 16.908617l-12.648499 0z" fill-rule="evenodd"/><path fill="#000000" d="m345.15817 6.591804q0 -0.671875 0.1875 -1.234375q0.203125 -0.578125 0.578125 -0.984375q0.390625 -0.421875 0.953125 -0.65625q0.5625 -0.25 1.3125 -0.25q1.421875 0 2.21875 0.921875q0.796875 0.921875 0.796875 2.59375q0 1.5781255 -0.359375 2.7656255q-0.34375 1.171875 -0.984375 1.984375q-0.625 0.8125 -1.484375 1.265625q-0.859375 0.453125 -1.859375 0.578125l-0.25 -0.890625q0.8125 -0.125 1.453125 -0.46875q0.65625 -0.359375 1.125 -0.890625q0.46875 -0.53125 0.75 -1.203125q0.296875 -0.6875 0.40625 -1.484375q-0.375 0.453125 -0.828125 0.625q-0.453125 0.171875 -1.1875 0.171875q-0.578125 0 -1.09375 -0.1875q-0.5 -0.1875 -0.890625 -0.546875q-0.390625 -0.359375 -0.625 -0.8906255q-0.21875 -0.53125 -0.21875 -1.21875zm1.171875 -0.109375q0 0.984375 0.515625 1.484375q0.53125 0.5000005 1.375 0.5000005q0.6875 0 1.171875 -0.21875q0.484375 -0.234375 0.703125 -0.5937505q0.015625 -0.1875 0.015625 -0.3125q0 -0.140625 0 -0.296875q0 -0.5 -0.125 -0.96875q-0.109375 -0.46875 -0.34375 -0.84375q-0.234375 -0.375 -0.625 -0.578125q-0.375 -0.203125 -0.890625 -0.203125q-0.859375 0 -1.328125 0.53125q-0.46875 0.53125 -0.46875 1.5z" fill-rule="nonzero"/><path fill="#000000" fill-opacity="0.0" d="m341.91742 8.455477c-5.4854736 0 -10.970947 6.2406454 -10.970947 12.481291" fill-rule="evenodd"/><path stroke="#000000" stroke-width="1.0" stroke-linejoin="round" stroke-linecap="butt" d="m341.91742 8.455477c-2.7427673 0 -5.4854736 1.5601606 -7.542511 3.900403c-1.0285339 1.1701221 -1.8856201 2.535263 -2.4856262 3.9979143c-0.1499939 0.36566353 -0.28390503 0.7374191 -0.40042114 1.1137466l-0.02420044 0.081539154" fill-rule="evenodd"/><path fill="#000000" stroke="#000000" stroke-width="1.0" stroke-linecap="butt" d="m331.46463 17.54908l-0.9416199 -1.2816868l0.64450073 3.2242794l1.5788269 -2.8842144z" fill-rule="evenodd"/><path fill="#000000" fill-opacity="0.0" d="m354.56592 8.455477c6.4983826 0 12.996765 5.66368 12.996765 11.32736" fill-rule="evenodd"/><path stroke="#000000" stroke-width="1.0" stroke-linejoin="round" stroke-linecap="butt" d="m354.56592 8.455477c6.4983826 0 12.996765 5.66368 12.996765 11.32736" fill-rule="evenodd"/><path fill="#000000" fill-opacity="0.0" d="m329.54132 23.298532c0 -1.8468628 0.36904907 -3.3440437 0.8242798 -3.3440437c0.21859741 0 0.42825317 0.3523178 0.5828552 0.9794483c0.15457153 0.6271305 0.24142456 1.4777012 0.24142456 2.3645954c0 1.8468647 -0.36904907 3.3440456 -0.8242798 3.3440456c-0.21862793 0 -0.4282837 -0.3523178 -0.5828552 -0.9794483c-0.15457153 -0.6271305 -0.24142456 -1.4777012 -0.24142456 -2.3645973z" fill-rule="evenodd"/><path fill="#000000" fill-opacity="0.0" d="m367.3228 22.147137c0 -1.8468647 0.36904907 -3.3440437 0.8242798 -3.3440437c0.21862793 0 0.4282837 0.3523178 0.5828552 0.9794464c0.15457153 0.6271305 0.24142456 1.4777012 0.24142456 2.3645973c0 1.8468647 -0.36904907 3.3440437 -0.8242798 3.3440437c-0.21859741 0 -0.42825317 -0.3523178 -0.5828552 -0.9794483c-0.15457153 -0.6271305 -0.24142456 -1.4777012 -0.24142456 -2.3645954z" fill-rule="evenodd"/><path fill="#000000" fill-opacity="0.0" d="m339.03946 65.698685l20.434204 0l0 17.763779l-20.434204 0z" fill-rule="evenodd"/><path fill="#000000" d="m342.84702 78.70056l2.0625 0l0 -7.09375l0.140625 -0.875l-0.59375 0.6875l-1.609375 1.15625l-0.546875 -0.734375l3.21875 -2.5l0.53125 0l0 9.359375l2.0 0l0 1.078125l-5.203125 0l0 -1.078125zm14.097046 -2.078125l-1.734375 0l0 3.15625l-1.140625 0l0 -3.15625l-4.515625 0l0 -0.484375l4.859375 -6.78125l0.796875 0l0 6.25l1.734375 0l0 1.015625zm-2.875 -4.21875l0.140625 -1.203125l-0.046875 0l-0.515625 1.0l-2.0625 2.796875l-0.703125 0.71875l1.03125 -0.109375l2.15625 0l0 -3.203125z" fill-rule="nonzero"/><path fill="#000000" fill-opacity="0.0" d="m329.18634 62.594334c0 5.999996 4.9242554 11.999996 9.848511 11.999996" fill-rule="evenodd"/><path stroke="#000000" stroke-width="1.0" stroke-linejoin="round" stroke-linecap="butt" d="m329.18634 62.594334c0 5.999996 4.9242554 11.999996 9.848511 11.999996" fill-rule="evenodd"/><path fill="#000000" fill-opacity="0.0" d="m359.47366 74.580574c4.1871033 0 8.374207 -5.842514 8.374207 -11.685036" fill-rule="evenodd"/><path stroke="#000000" stroke-width="1.0" stroke-linejoin="round" stroke-linecap="butt" d="m359.47366 74.580574c2.093567 0 4.1871033 -1.4606323 5.757263 -3.6515732c0.7850952 -1.0954742 1.4393616 -2.3735275 1.8973083 -3.7428665c0.057250977 -0.17116547 0.11141968 -0.34375763 0.16241455 -0.517601c0.025512695 -0.08692169 0.050201416 -0.17415619 0.07406616 -0.2616806l0.02999878 -0.11432648" fill-rule="evenodd"/><path fill="#000000" stroke="#000000" stroke-width="1.0" stroke-linecap="butt" d="m367.3947 66.29253l0.96603394 1.2634125l-0.70617676 -3.2113342l-1.5232544 2.9139328z" fill-rule="evenodd"/><path fill="#000000" fill-opacity="0.0" d="m322.0385 59.43184c0 -2.4700623 1.8746338 -4.4724426 4.1871033 -4.4724426c1.1104736 0 2.175476 0.47120285 2.9607239 1.309948c0.7852173 0.8387451 1.2263794 1.9763298 1.2263794 3.1624947c0 2.4700623 -1.8746338 4.472439 -4.1871033 4.472439c-2.3124695 0 -4.1871033 -2.0023766 -4.1871033 -4.472439z" fill-rule="evenodd"/><path fill="#000000" fill-opacity="0.0" d="m366.61182 59.72756c0 -2.4700584 1.8746033 -4.472439 4.1870728 -4.472439c1.1105042 0 2.1755066 0.47119904 2.9607544 1.309948c0.7852173 0.8387451 1.2263489 1.976326 1.2263489 3.1624908c0 2.4700623 -1.8746033 4.472439 -4.1871033 4.472439c-2.3124695 0 -4.1870728 -2.0023766 -4.1870728 -4.472439z" fill-rule="evenodd"/><path fill="#000000" fill-opacity="0.0" d="m387.7165 65.66507l20.434235 0l0 17.763779l-20.434235 0z" fill-rule="evenodd"/><path fill="#000000" d="m391.52405 78.66695l2.0625 0l0 -7.09375l0.140625 -0.875l-0.59375 0.6875l-1.609375 1.15625l-0.546875 -0.734375l3.21875 -2.5l0.53125 0l0 9.359375l2.0 0l0 1.078125l-5.203125 0l0 -1.078125zm7.4095764 -1.375q0 -0.921875 0.484375 -1.59375q0.484375 -0.6875 1.5 -1.25q-0.359375 -0.21875 -0.671875 -0.453125q-0.3125 -0.25 -0.5625 -0.546875q-0.234375 -0.3125 -0.375 -0.6875q-0.140625 -0.390625 -0.140625 -0.890625q0 -0.5625 0.1875 -1.03125q0.203125 -0.46875 0.578125 -0.796875q0.375 -0.34375 0.890625 -0.53125q0.53125 -0.203125 1.1875 -0.203125q0.609375 0 1.109375 0.1875q0.5 0.171875 0.84375 0.484375q0.34375 0.296875 0.53125 0.71875q0.1875 0.421875 0.1875 0.9375q0 0.84375 -0.375 1.484375q-0.375 0.625 -1.265625 1.25q0.390625 0.21875 0.734375 0.484375q0.34375 0.265625 0.59375 0.59375q0.265625 0.3125 0.40625 0.71875q0.140625 0.390625 0.140625 0.90625q0 0.640625 -0.203125 1.15625q-0.203125 0.515625 -0.59375 0.890625q-0.390625 0.375 -0.96875 0.59375q-0.578125 0.203125 -1.3125 0.203125q-0.703125 0 -1.25 -0.203125q-0.53125 -0.203125 -0.90625 -0.546875q-0.375 -0.359375 -0.5625 -0.828125q-0.1875 -0.484375 -0.1875 -1.046875zm4.84375 -0.140625q0 -0.4375 -0.171875 -0.765625q-0.171875 -0.328125 -0.46875 -0.59375q-0.28125 -0.28125 -0.65625 -0.5q-0.359375 -0.21875 -0.75 -0.421875q-0.890625 0.5 -1.28125 1.109375q-0.375 0.609375 -0.375 1.171875q0 0.34375 0.109375 0.671875q0.125 0.328125 0.359375 0.5625q0.234375 0.234375 0.578125 0.375q0.34375 0.140625 0.796875 0.140625q0.375 0 0.703125 -0.109375q0.34375 -0.109375 0.59375 -0.328125q0.265625 -0.21875 0.40625 -0.546875q0.15625 -0.328125 0.15625 -0.765625zm-3.46875 -5.3125q0 0.421875 0.15625 0.734375q0.171875 0.3125 0.4375 0.5625q0.265625 0.25 0.609375 0.46875q0.359375 0.203125 0.75 0.390625q0.65625 -0.515625 0.96875 -1.0q0.3125 -0.5 0.3125 -1.109375q0 -0.75 -0.46875 -1.140625q-0.453125 -0.40625 -1.09375 -0.40625q-0.390625 0 -0.703125 0.140625q-0.3125 0.125 -0.53125 0.328125q-0.21875 0.203125 -0.328125 0.484375q-0.109375 0.265625 -0.109375 0.546875z" fill-rule="nonzero"/><path fill="#000000" fill-opacity="0.0" d="m377.86337 62.782444c0 5.8897667 4.9242554 11.77953 9.848541 11.77953" fill-rule="evenodd"/><path stroke="#000000" stroke-width="1.0" stroke-linejoin="round" stroke-linecap="butt" d="m377.86337 62.782444c0 5.8897667 4.9242554 11.77953 9.848541 11.77953" fill-rule="evenodd"/><path fill="#000000" fill-opacity="0.0" d="m408.15073 74.54696c4.1871033 0 8.374207 -5.8425217 8.374207 -11.6850395" fill-rule="evenodd"/><path stroke="#000000" stroke-width="1.0" stroke-linejoin="round" stroke-linecap="butt" d="m408.15073 74.54696c2.0935364 0 4.1870728 -1.4606247 5.7572327 -3.6515732c0.78512573 -1.0954742 1.4393616 -2.37352 1.8973083 -3.742859c0.057250977 -0.1711731 0.111450195 -0.34376526 0.16241455 -0.51760864c0.025512695 -0.08692169 0.050201416 -0.17415619 0.07406616 -0.26167297l0.030029297 -0.11433411" fill-rule="evenodd"/><path fill="#000000" stroke="#000000" stroke-width="1.0" stroke-linecap="butt" d="m416.07178 66.25892l0.9660034 1.2634125l-0.70614624 -3.2113419l-1.5232849 2.9139328z" fill-rule="evenodd"/><path fill="#000000" fill-opacity="0.0" d="m370.71555 59.61995c0 -2.4700584 1.8746338 -4.472439 4.1871033 -4.472439c1.1104736 0 2.1755066 0.47120285 2.9607239 1.309948c0.7852478 0.8387451 1.2263794 1.976326 1.2263794 3.1624908c0 2.4700623 -1.8746338 4.4724426 -4.1871033 4.4724426c-2.3124695 0 -4.1871033 -2.0023804 -4.1871033 -4.4724426z" fill-rule="evenodd"/><path fill="#000000" fill-opacity="0.0" d="m415.28885 59.693943c0 -2.4700623 1.8746338 -4.4724426 4.1871033 -4.4724426c1.1104736 0 2.175476 0.47120285 2.9607239 1.309948c0.7852173 0.8387451 1.2263794 1.9763298 1.2263794 3.1624947c0 2.4700584 -1.8746338 4.472439 -4.1871033 4.472439c-2.3124695 0 -4.1871033 -2.0023804 -4.1871033 -4.472439z" fill-rule="evenodd"/><path fill="#000000" fill-opacity="0.0" d="m449.8803 80.700745l0 -20.062992" fill-rule="evenodd"/><path stroke="#000000" stroke-width="2.0" stroke-linejoin="round" stroke-linecap="butt" d="m449.88034 80.700745l0 -8.062988" fill-rule="evenodd"/><path fill="#000000" stroke="#000000" stroke-width="2.0" stroke-linecap="butt" d="m453.1838 72.63776l-3.3034668 -9.076199l-3.3034668 9.076199z" fill-rule="evenodd"/><path fill="#000000" fill-opacity="0.0" d="m420.0378 80.700745l59.685028 0l0 26.645668l-59.685028 0z" fill-rule="evenodd"/><path fill="#000000" d="m442.3708 91.78358l1.203125 0l-1.703125 8.0l-1.203125 0l1.703125 -8.0zm0.25 -2.453125q0 -0.359375 0.25 -0.609375q0.25 -0.265625 0.625 -0.265625q0.359375 0 0.609375 0.265625q0.265625 0.25 0.265625 0.609375q0 0.375 -0.265625 0.625q-0.25 0.25 -0.609375 0.25q-0.375 0 -0.625 -0.25q-0.25 -0.25 -0.25 -0.625zm2.2065125 3.140625l6.78125 0l0 1.15625l-6.78125 0l0 -1.15625zm0 2.65625l6.78125 0l0 1.15625l-6.78125 0l0 -1.15625zm15.023773 1.21875l-1.796875 0l-0.71875 3.4375l-1.171875 0l0.71875 -3.4375l-4.703125 0l0.109375 -0.53125l6.640625 -7.40625l0.8125 0l-1.453125 6.84375l1.796875 0l-0.234375 1.09375zm-1.984375 -4.609375l0.4375 -1.3125l-0.0625 0l-0.75 1.09375l-2.765625 3.046875l-0.890625 0.796875l1.078125 -0.109375l2.203125 0l0.75 -3.515625z" fill-rule="nonzero"/><path fill="#000000" fill-opacity="0.0" d="m536.30457 22.833233l39.433044 0l0 39.43307l-39.433044 0z" fill-rule="evenodd"/><path stroke="#000000" stroke-width="2.0" stroke-linejoin="round" stroke-linecap="butt" d="m536.30457 22.833233l39.433044 0l0 39.43307l-39.433044 0z" fill-rule="evenodd"/><path fill="#000000" d="m560.2194 45.532265q0 0.859375 -0.265625 1.625q-0.25 0.75 -0.75 1.328125q-0.5 0.5625 -1.25 0.890625q-0.75 0.3125 -1.703125 0.3125q-0.9375 0 -1.6875 -0.296875q-0.734375 -0.296875 -1.28125 -0.875q-0.53125 -0.59375 -0.828125 -1.453125q-0.28125 -0.859375 -0.28125 -1.984375q0 -1.84375 0.46875 -3.390625q0.484375 -1.5625 1.3125 -2.71875q0.84375 -1.15625 1.984375 -1.875q1.15625 -0.71875 2.5 -0.90625l0.3125 1.1875q-1.046875 0.1875 -1.90625 0.71875q-0.859375 0.515625 -1.5 1.28125q-0.640625 0.765625 -1.0625 1.71875q-0.40625 0.953125 -0.546875 1.953125q0.296875 -0.5 1.0 -0.921875q0.71875 -0.421875 1.734375 -0.421875q1.765625 0 2.75 1.015625q1.0 1.0 1.0 2.8125zm-1.546875 0.15625q0 -1.328125 -0.609375 -2.0q-0.609375 -0.671875 -1.90625 -0.671875q-0.90625 0 -1.578125 0.453125q-0.65625 0.4375 -0.921875 1.0q-0.03125 0.265625 -0.03125 0.4375q0 0.15625 0 0.359375q0 0.578125 0.15625 1.140625q0.15625 0.5625 0.484375 1.0q0.34375 0.4375 0.828125 0.71875q0.5 0.265625 1.171875 0.265625q0.546875 0 0.984375 -0.203125q0.4375 -0.21875 0.75 -0.5625q0.328125 -0.359375 0.5 -0.859375q0.171875 -0.5 0.171875 -1.078125z" fill-rule="nonzero"/><path fill="#000000" fill-opacity="0.0" d="m576.30457 22.833233l39.433044 0l0 39.43307l-39.433044 0z" fill-rule="evenodd"/><path stroke="#000000" stroke-width="2.0" stroke-linejoin="round" stroke-linecap="butt" d="m576.30457 22.833233l39.433044 0l0 39.43307l-39.433044 0z" fill-rule="evenodd"/><path fill="#000000" d="m590.3132 46.36039q0 -1.1875 0.609375 -2.046875q0.625 -0.875 1.9375 -1.578125q-0.46875 -0.28125 -0.875 -0.578125q-0.40625 -0.3125 -0.71875 -0.703125q-0.296875 -0.390625 -0.484375 -0.875q-0.171875 -0.5 -0.171875 -1.125q0 -0.734375 0.25 -1.328125q0.265625 -0.59375 0.734375 -1.015625q0.46875 -0.4375 1.125 -0.671875q0.671875 -0.25 1.515625 -0.25q0.78125 0 1.40625 0.234375q0.640625 0.21875 1.078125 0.609375q0.4375 0.390625 0.671875 0.9375q0.25 0.53125 0.25 1.1875q0 1.0625 -0.484375 1.875q-0.484375 0.8125 -1.59375 1.59375q0.484375 0.28125 0.921875 0.625q0.4375 0.328125 0.765625 0.734375q0.328125 0.40625 0.515625 0.921875q0.1875 0.515625 0.1875 1.171875q0 0.796875 -0.265625 1.46875q-0.265625 0.65625 -0.765625 1.140625q-0.5 0.46875 -1.234375 0.734375q-0.734375 0.265625 -1.65625 0.265625q-0.90625 0 -1.59375 -0.25q-0.6875 -0.265625 -1.171875 -0.703125q-0.46875 -0.453125 -0.71875 -1.0625q-0.234375 -0.609375 -0.234375 -1.3125zm6.171875 -0.1875q0 -0.5625 -0.21875 -0.984375q-0.21875 -0.421875 -0.59375 -0.765625q-0.359375 -0.34375 -0.828125 -0.625q-0.46875 -0.28125 -0.96875 -0.546875q-1.140625 0.640625 -1.625 1.421875q-0.484375 0.78125 -0.484375 1.5q0 0.4375 0.140625 0.859375q0.15625 0.40625 0.453125 0.703125q0.3125 0.296875 0.75 0.484375q0.4375 0.171875 1.015625 0.171875q0.46875 0 0.890625 -0.140625q0.4375 -0.140625 0.75 -0.40625q0.328125 -0.28125 0.515625 -0.703125q0.203125 -0.421875 0.203125 -0.96875zm-4.421875 -6.765625q0 0.53125 0.203125 0.9375q0.21875 0.390625 0.5625 0.71875q0.34375 0.3125 0.78125 0.578125q0.453125 0.265625 0.9375 0.515625q0.84375 -0.65625 1.234375 -1.28125q0.40625 -0.640625 0.40625 -1.40625q0 -0.953125 -0.59375 -1.46875q-0.578125 -0.515625 -1.390625 -0.515625q-0.515625 0 -0.90625 0.171875q-0.390625 0.171875 -0.671875 0.4375q-0.28125 0.25 -0.421875 0.609375q-0.140625 0.34375 -0.140625 0.703125z" fill-rule="nonzero"/><path fill="#000000" fill-opacity="0.0" d="m616.30457 22.833233l39.433044 0l0 39.43307l-39.433044 0z" fill-rule="evenodd"/><path stroke="#000000" stroke-width="2.0" stroke-linejoin="round" stroke-linecap="butt" d="m616.30457 22.833233l39.433044 0l0 39.43307l-39.433044 0z" fill-rule="evenodd"/><path fill="#000000" d="m630.0163 40.36039q0 -0.890625 0.265625 -1.65625q0.265625 -0.765625 0.765625 -1.328125q0.5 -0.5625 1.25 -0.875q0.765625 -0.3125 1.765625 -0.3125q1.90625 0 2.96875 1.234375q1.0625 1.21875 1.0625 3.46875q0 2.109375 -0.484375 3.6875q-0.46875 1.5625 -1.3125 2.65625q-0.828125 1.078125 -1.984375 1.6875q-1.140625 0.609375 -2.484375 0.765625l-0.34375 -1.1875q1.09375 -0.171875 1.953125 -0.640625q0.875 -0.46875 1.5 -1.171875q0.625 -0.703125 1.015625 -1.609375q0.390625 -0.90625 0.53125 -1.96875q-0.5 0.59375 -1.109375 0.828125q-0.59375 0.234375 -1.59375 0.234375q-0.765625 0 -1.453125 -0.25q-0.671875 -0.25 -1.203125 -0.734375q-0.515625 -0.484375 -0.8125 -1.1875q-0.296875 -0.71875 -0.296875 -1.640625zm1.546875 -0.140625q0 1.328125 0.703125 1.984375q0.703125 0.65625 1.84375 0.65625q0.90625 0 1.5625 -0.296875q0.65625 -0.296875 0.9375 -0.78125q0.03125 -0.234375 0.03125 -0.421875q0 -0.1875 0 -0.390625q0 -0.671875 -0.15625 -1.296875q-0.15625 -0.625 -0.484375 -1.125q-0.3125 -0.5 -0.828125 -0.78125q-0.515625 -0.28125 -1.203125 -0.28125q-1.140625 0 -1.78125 0.71875q-0.625 0.71875 -0.625 2.015625z" fill-rule="nonzero"/><path fill="#000000" fill-opacity="0.0" d="m656.30457 22.833233l39.433044 0l0 39.43307l-39.433044 0z" fill-rule="evenodd"/><path stroke="#000000" stroke-width="2.0" stroke-linejoin="round" stroke-linecap="butt" d="m656.30457 22.833233l39.433044 0l0 39.43307l-39.433044 0z" fill-rule="evenodd"/><path fill="#000000" d="m665.9793 48.094765l2.609375 0l0 -9.03125l0.1875 -1.109375l-0.75 0.875l-2.046875 1.484375l-0.703125 -0.953125l4.09375 -3.171875l0.671875 0l0 11.90625l2.5625 0l0 1.375l-6.625 0l0 -1.375zm17.933289 -2.640625l-2.203125 0l0 4.015625l-1.453125 0l0 -4.015625l-5.75 0l0 -0.609375l6.1875 -8.640625l1.015625 0l0 7.953125l2.203125 0l0 1.296875zm-3.65625 -5.375l0.1875 -1.515625l-0.0625 0l-0.65625 1.265625l-2.625 3.5625l-0.890625 0.90625l1.296875 -0.140625l2.75 0l0 -4.078125z" fill-rule="nonzero"/><path fill="#000000" fill-opacity="0.0" d="m696.30457 22.833233l39.433044 0l0 39.43307l-39.433044 0z" fill-rule="evenodd"/><path stroke="#000000" stroke-width="2.0" stroke-linejoin="round" stroke-linecap="butt" d="m696.30457 22.833233l39.433044 0l0 39.43307l-39.433044 0z" fill-rule="evenodd"/><path fill="#000000" d="m705.9793 48.094765l2.609375 0l0 -9.03125l0.1875 -1.109375l-0.75 0.875l-2.046875 1.484375l-0.703125 -0.953125l4.09375 -3.171875l0.671875 0l0 11.90625l2.5625 0l0 1.375l-6.625 0l0 -1.375zm9.417664 -1.734375q0 -1.1875 0.609375 -2.046875q0.625 -0.875 1.9375 -1.578125q-0.46875 -0.28125 -0.875 -0.578125q-0.40625 -0.3125 -0.71875 -0.703125q-0.296875 -0.390625 -0.484375 -0.875q-0.171875 -0.5 -0.171875 -1.125q0 -0.734375 0.25 -1.328125q0.265625 -0.59375 0.734375 -1.015625q0.46875 -0.4375 1.125 -0.671875q0.671875 -0.25 1.515625 -0.25q0.78125 0 1.40625 0.234375q0.640625 0.21875 1.078125 0.609375q0.4375 0.390625 0.671875 0.9375q0.25 0.53125 0.25 1.1875q0 1.0625 -0.484375 1.875q-0.484375 0.8125 -1.59375 1.59375q0.484375 0.28125 0.921875 0.625q0.4375 0.328125 0.765625 0.734375q0.328125 0.40625 0.515625 0.921875q0.1875 0.515625 0.1875 1.171875q0 0.796875 -0.265625 1.46875q-0.265625 0.65625 -0.765625 1.140625q-0.5 0.46875 -1.234375 0.734375q-0.734375 0.265625 -1.65625 0.265625q-0.90625 0 -1.59375 -0.25q-0.6875 -0.265625 -1.171875 -0.703125q-0.46875 -0.453125 -0.71875 -1.0625q-0.234375 -0.609375 -0.234375 -1.3125zm6.171875 -0.1875q0 -0.5625 -0.21875 -0.984375q-0.21875 -0.421875 -0.59375 -0.765625q-0.359375 -0.34375 -0.828125 -0.625q-0.46875 -0.28125 -0.96875 -0.546875q-1.140625 0.640625 -1.625 1.421875q-0.484375 0.78125 -0.484375 1.5q0 0.4375 0.140625 0.859375q0.15625 0.40625 0.453125 0.703125q0.3125 0.296875 0.75 0.484375q0.4375 0.171875 1.015625 0.171875q0.46875 0 0.890625 -0.140625q0.4375 -0.140625 0.75 -0.40625q0.328125 -0.28125 0.515625 -0.703125q0.203125 -0.421875 0.203125 -0.96875zm-4.421875 -6.765625q0 0.53125 0.203125 0.9375q0.21875 0.390625 0.5625 0.71875q0.34375 0.3125 0.78125 0.578125q0.453125 0.265625 0.9375 0.515625q0.84375 -0.65625 1.234375 -1.28125q0.40625 -0.640625 0.40625 -1.40625q0 -0.953125 -0.59375 -1.46875q-0.578125 -0.515625 -1.390625 -0.515625q-0.515625 0 -0.90625 0.171875q-0.390625 0.171875 -0.671875 0.4375q-0.28125 0.25 -0.421875 0.609375q-0.140625 0.34375 -0.140625 0.703125z" fill-rule="nonzero"/><path fill="#000000" fill-opacity="0.0" d="m736.30457 22.833233l39.433044 0l0 39.43307l-39.433044 0z" fill-rule="evenodd"/><path stroke="#000000" stroke-width="2.0" stroke-linejoin="round" stroke-linecap="butt" d="m736.30457 22.833233l39.433044 0l0 39.43307l-39.433044 0z" fill-rule="evenodd"/><path fill="#000000" d="m752.2918 39.376015q0 0.984375 -0.375 2.03125q-0.359375 1.03125 -0.953125 2.078125q-0.578125 1.046875 -1.3125 2.046875q-0.71875 0.984375 -1.453125 1.890625l-0.90625 0.796875l0 0.078125l1.1875 -0.203125l4.0625 0l0 1.375l-7.421875 0l0 -0.546875q0.40625 -0.421875 0.984375 -1.046875q0.578125 -0.640625 1.203125 -1.40625q0.625 -0.78125 1.234375 -1.640625q0.609375 -0.875 1.09375 -1.765625q0.5 -0.90625 0.796875 -1.78125q0.296875 -0.875 0.296875 -1.65625q0 -0.921875 -0.515625 -1.53125q-0.515625 -0.609375 -1.578125 -0.609375q-0.71875 0 -1.390625 0.296875q-0.671875 0.28125 -1.15625 0.65625l-0.609375 -1.0625q0.65625 -0.5625 1.546875 -0.875q0.890625 -0.3125 1.921875 -0.3125q0.796875 0 1.40625 0.234375q0.625 0.234375 1.046875 0.671875q0.4375 0.421875 0.65625 1.015625q0.234375 0.578125 0.234375 1.265625zm3.8864136 10.09375l4.6875 -10.9375l0.828125 -0.90625l-1.109375 0.171875l-5.3125 0l0 -1.390625l7.796875 0l0 0.5l-5.375 12.5625l-1.515625 0z" fill-rule="nonzero"/><path fill="#000000" fill-opacity="0.0" d="m652.85516 1.7638713l12.648499 0l0 16.908617l-12.648499 0z" fill-rule="evenodd"/><path fill="#000000" d="m662.2365 12.229507q0 0.640625 -0.203125 1.203125q-0.1875 0.5625 -0.5625 0.984375q-0.375 0.421875 -0.9375 0.671875q-0.546875 0.25 -1.265625 0.25q-0.703125 0 -1.265625 -0.21875q-0.546875 -0.234375 -0.953125 -0.671875q-0.40625 -0.4375 -0.625 -1.078125q-0.203125 -0.640625 -0.203125 -1.484375q0 -1.375 0.34375 -2.53125q0.359375 -1.171875 0.984375 -2.03125q0.625 -0.875 1.484375 -1.40625q0.859375 -0.546875 1.875 -0.6875l0.234375 0.890625q-0.78125 0.140625 -1.421875 0.53125q-0.640625 0.390625 -1.125 0.96875q-0.484375 0.5625 -0.796875 1.28125q-0.296875 0.71875 -0.40625 1.46875q0.21875 -0.375 0.75 -0.6875q0.53125 -0.3125 1.296875 -0.3125q1.3125 0 2.046875 0.75q0.75 0.75 0.75 2.109375zm-1.15625 0.109375q0 -1.0 -0.46875 -1.5q-0.453125 -0.5 -1.40625 -0.5q-0.6875 0 -1.1875 0.34375q-0.484375 0.328125 -0.6875 0.75q-0.03125 0.1875 -0.03125 0.3125q0 0.125 0 0.28125q0 0.4375 0.109375 0.859375q0.125 0.40625 0.375 0.734375q0.265625 0.328125 0.625 0.53125q0.375 0.203125 0.875 0.203125q0.40625 0 0.734375 -0.140625q0.328125 -0.15625 0.5625 -0.421875q0.234375 -0.265625 0.359375 -0.640625q0.140625 -0.390625 0.140625 -0.8125z" fill-rule="nonzero"/><path fill="#000000" fill-opacity="0.0" d="m652.85516 10.21818c-5.4854736 0 -10.970947 6.2406464 -10.970947 12.481291" fill-rule="evenodd"/><path stroke="#000000" stroke-width="1.0" stroke-linejoin="round" stroke-linecap="butt" d="m652.85516 10.21818c-2.7427368 0 -5.4854736 1.5601616 -7.5425415 3.900403c-1.0285034 1.1701221 -1.8856201 2.535262 -2.4855957 3.9979162c-0.14996338 0.36566162 -0.2838745 0.7374191 -0.40045166 1.1137466l-0.024169922 0.08153725" fill-rule="evenodd"/><path fill="#000000" stroke="#000000" stroke-width="1.0" stroke-linecap="butt" d="m642.4024 19.311785l-0.9416504 -1.2816887l0.64453125 3.2242813l1.5787964 -2.8842163z" fill-rule="evenodd"/><path fill="#000000" fill-opacity="0.0" d="m665.50366 10.21818c6.498352 0 12.996765 5.66368 12.996765 11.32736" fill-rule="evenodd"/><path stroke="#000000" stroke-width="1.0" stroke-linejoin="round" stroke-linecap="butt" d="m665.50366 10.21818c6.498352 0 12.996765 5.66368 12.996765 11.32736" fill-rule="evenodd"/><path fill="#000000" fill-opacity="0.0" d="m640.47906 25.061237c0 -1.8468647 0.36901855 -3.3440437 0.8242798 -3.3440437c0.21862793 0 0.4282837 0.3523178 0.5828247 0.9794464c0.15460205 0.6271305 0.24145508 1.4777012 0.24145508 2.3645973c0 1.8468647 -0.3690796 3.3440437 -0.8242798 3.3440437c-0.21862793 0 -0.4282837 -0.3523178 -0.58288574 -0.9794483c-0.15454102 -0.6271305 -0.24139404 -1.4777012 -0.24139404 -2.3645954z" fill-rule="evenodd"/><path fill="#000000" fill-opacity="0.0" d="m678.26056 23.90984c0 -1.8468647 0.36901855 -3.3440437 0.8242798 -3.3440437c0.21862793 0 0.4282837 0.3523178 0.5828247 0.9794483c0.15460205 0.6271286 0.24145508 1.4776993 0.24145508 2.3645954c0 1.8468647 -0.3690796 3.3440437 -0.8242798 3.3440437c-0.21862793 0 -0.4282837 -0.3523178 -0.5828247 -0.9794483c-0.15460205 -0.6271286 -0.24145508 -1.4776993 -0.24145508 -2.3645954z" fill-rule="evenodd"/><path fill="#000000" fill-opacity="0.0" d="m607.1398 1.7638713l12.6484375 0l0 16.908617l-12.6484375 0z" fill-rule="evenodd"/><path fill="#000000" d="m616.5211 12.229507q0 0.640625 -0.203125 1.203125q-0.1875 0.5625 -0.5625 0.984375q-0.375 0.421875 -0.9375 0.671875q-0.546875 0.25 -1.265625 0.25q-0.703125 0 -1.265625 -0.21875q-0.546875 -0.234375 -0.953125 -0.671875q-0.40625 -0.4375 -0.625 -1.078125q-0.203125 -0.640625 -0.203125 -1.484375q0 -1.375 0.34375 -2.53125q0.359375 -1.171875 0.984375 -2.03125q0.625 -0.875 1.484375 -1.40625q0.859375 -0.546875 1.875 -0.6875l0.234375 0.890625q-0.78125 0.140625 -1.421875 0.53125q-0.640625 0.390625 -1.125 0.96875q-0.484375 0.5625 -0.796875 1.28125q-0.296875 0.71875 -0.40625 1.46875q0.21875 -0.375 0.75 -0.6875q0.53125 -0.3125 1.296875 -0.3125q1.3125 0 2.046875 0.75q0.75 0.75 0.75 2.109375zm-1.15625 0.109375q0 -1.0 -0.46875 -1.5q-0.453125 -0.5 -1.40625 -0.5q-0.6875 0 -1.1875 0.34375q-0.484375 0.328125 -0.6875 0.75q-0.03125 0.1875 -0.03125 0.3125q0 0.125 0 0.28125q0 0.4375 0.109375 0.859375q0.125 0.40625 0.375 0.734375q0.265625 0.328125 0.625 0.53125q0.375 0.203125 0.875 0.203125q0.40625 0 0.734375 -0.140625q0.328125 -0.15625 0.5625 -0.421875q0.234375 -0.265625 0.359375 -0.640625q0.140625 -0.390625 0.140625 -0.8125z" fill-rule="nonzero"/><path fill="#000000" fill-opacity="0.0" d="m607.1398 10.21818c-5.4854736 0 -10.970947 6.2406464 -10.970947 12.481291" fill-rule="evenodd"/><path stroke="#000000" stroke-width="1.0" stroke-linejoin="round" stroke-linecap="butt" d="m607.1397 10.21818c-2.7427368 0 -5.4854126 1.5601616 -7.5424805 3.900403c-1.0285645 1.1701221 -1.8856812 2.535262 -2.4855957 3.9979162c-0.15002441 0.36566162 -0.28393555 0.7374191 -0.40045166 1.1137466l-0.024230957 0.081539154" fill-rule="evenodd"/><path fill="#000000" stroke="#000000" stroke-width="1.0" stroke-linecap="butt" d="m596.68695 19.311785l-0.94158936 -1.2816887l0.6444702 3.2242813l1.5787964 -2.8842144z" fill-rule="evenodd"/><path fill="#000000" fill-opacity="0.0" d="m619.7882 10.21818c6.498413 0 12.996826 5.66368 12.996826 11.32736" fill-rule="evenodd"/><path stroke="#000000" stroke-width="1.0" stroke-linejoin="round" stroke-linecap="butt" d="m619.7882 10.21818c6.498413 0 12.996826 5.66368 12.996826 11.32736" fill-rule="evenodd"/><path fill="#000000" fill-opacity="0.0" d="m594.7637 25.061237c0 -1.8468647 0.36901855 -3.3440437 0.8242798 -3.3440437c0.2185669 0 0.42822266 0.3523178 0.5828247 0.9794464c0.15460205 0.6271305 0.24139404 1.4777012 0.24139404 2.3645973c0 1.8468647 -0.36901855 3.3440437 -0.82421875 3.3440437c-0.21862793 0 -0.4282837 -0.3523178 -0.58288574 -0.9794483c-0.15454102 -0.6271305 -0.24139404 -1.4777012 -0.24139404 -2.3645954z" fill-rule="evenodd"/><path fill="#000000" fill-opacity="0.0" d="m632.54517 23.90984c0 -1.8468647 0.36901855 -3.3440437 0.8242798 -3.3440437c0.2185669 0 0.42822266 0.3523178 0.5828247 0.9794483c0.15460205 0.6271286 0.24139404 1.4776993 0.24139404 2.3645954c0 1.8468647 -0.36901855 3.3440437 -0.82421875 3.3440437c-0.21862793 0 -0.4282837 -0.3523178 -0.58288574 -0.9794483c-0.15454102 -0.6271286 -0.24139404 -1.4776993 -0.24139404 -2.3645954z" fill-rule="evenodd"/><path fill="#000000" fill-opacity="0.0" d="m641.87646 65.72002l20.434204 0l0 17.763779l-20.434204 0z" fill-rule="evenodd"/><path fill="#000000" d="m645.684 78.72189l2.0625 0l0 -7.09375l0.140625 -0.875l-0.59375 0.6875l-1.609375 1.15625l-0.546875 -0.734375l3.21875 -2.5l0.53125 0l0 9.359375l2.0 0l0 1.078125l-5.203125 0l0 -1.078125zm14.097046 -2.078125l-1.734375 0l0 3.15625l-1.140625 0l0 -3.15625l-4.515625 0l0 -0.484375l4.859375 -6.78125l0.796875 0l0 6.25l1.734375 0l0 1.015625zm-2.875 -4.21875l0.140625 -1.203125l-0.046875 0l-0.515625 1.0l-2.0625 2.796875l-0.703125 0.71875l1.03125 -0.109375l2.15625 0l0 -3.203125z" fill-rule="nonzero"/><path fill="#000000" fill-opacity="0.0" d="m632.0233 63.3373c0 5.6377983 4.9243164 11.275593 9.848572 11.275593" fill-rule="evenodd"/><path stroke="#000000" stroke-width="1.0" stroke-linejoin="round" stroke-linecap="butt" d="m632.0233 63.3373c0 5.6377983 4.9243164 11.275593 9.848572 11.275593" fill-rule="evenodd"/><path fill="#000000" fill-opacity="0.0" d="m662.31067 74.601906c4.187134 0 8.374207 -5.8425217 8.374207 -11.6850395" fill-rule="evenodd"/><path stroke="#000000" stroke-width="1.0" stroke-linejoin="round" stroke-linecap="butt" d="m662.31067 74.601906c2.093567 0 4.187134 -1.4606323 5.757263 -3.6515732c0.7850952 -1.0954742 1.439331 -2.3735275 1.8972778 -3.7428665c0.057250977 -0.17116547 0.111450195 -0.34375763 0.16241455 -0.517601c0.025512695 -0.08692169 0.0501709 -0.17415619 0.074035645 -0.2616806l0.030029297 -0.11432648" fill-rule="evenodd"/><path fill="#000000" stroke="#000000" stroke-width="1.0" stroke-linecap="butt" d="m670.2317 66.31386l0.9660034 1.2634125l-0.7061157 -3.2113419l-1.5232544 2.9139404z" fill-rule="evenodd"/><path fill="#000000" fill-opacity="0.0" d="m624.8755 60.17481c0 -2.4700623 1.8746338 -4.4724426 4.187134 -4.4724426c1.1104736 0 2.175476 0.47120285 2.9606934 1.309948c0.7852783 0.8387451 1.2263794 1.9763298 1.2263794 3.1624947c0 2.4700584 -1.8746338 4.472439 -4.1870728 4.472439c-2.3125 0 -4.187134 -2.0023804 -4.187134 -4.472439z" fill-rule="evenodd"/><path fill="#000000" fill-opacity="0.0" d="m669.4488 59.74889c0 -2.4700623 1.8746338 -4.4724426 4.187134 -4.4724426c1.1104736 0 2.175476 0.47120285 2.9606934 1.309948c0.7852783 0.8387451 1.2263794 1.9763298 1.2263794 3.1624947c0 2.4700584 -1.8746338 4.472439 -4.1870728 4.472439c-2.3125 0 -4.187134 -2.0023804 -4.187134 -4.472439z" fill-rule="evenodd"/><path fill="#000000" fill-opacity="0.0" d="m690.5535 65.6864l20.434204 0l0 17.763779l-20.434204 0z" fill-rule="evenodd"/><path fill="#000000" d="m694.3611 78.68828l2.0625 0l0 -7.09375l0.140625 -0.875l-0.59375 0.6875l-1.609375 1.15625l-0.546875 -0.734375l3.21875 -2.5l0.53125 0l0 9.359375l2.0 0l0 1.078125l-5.203125 0l0 -1.078125zm7.409546 -1.375q0 -0.921875 0.484375 -1.59375q0.484375 -0.6875 1.5 -1.25q-0.359375 -0.21875 -0.671875 -0.453125q-0.3125 -0.25 -0.5625 -0.546875q-0.234375 -0.3125 -0.375 -0.6875q-0.140625 -0.390625 -0.140625 -0.890625q0 -0.5625 0.1875 -1.03125q0.203125 -0.46875 0.578125 -0.796875q0.375 -0.34375 0.890625 -0.53125q0.53125 -0.203125 1.1875 -0.203125q0.609375 0 1.109375 0.1875q0.5 0.171875 0.84375 0.484375q0.34375 0.296875 0.53125 0.71875q0.1875 0.421875 0.1875 0.9375q0 0.84375 -0.375 1.484375q-0.375 0.625 -1.265625 1.25q0.390625 0.21875 0.734375 0.484375q0.34375 0.265625 0.59375 0.59375q0.265625 0.3125 0.40625 0.71875q0.140625 0.390625 0.140625 0.90625q0 0.640625 -0.203125 1.15625q-0.203125 0.515625 -0.59375 0.890625q-0.390625 0.375 -0.96875 0.59375q-0.578125 0.203125 -1.3125 0.203125q-0.703125 0 -1.25 -0.203125q-0.53125 -0.203125 -0.90625 -0.546875q-0.375 -0.359375 -0.5625 -0.828125q-0.1875 -0.484375 -0.1875 -1.046875zm4.84375 -0.140625q0 -0.4375 -0.171875 -0.765625q-0.171875 -0.328125 -0.46875 -0.59375q-0.28125 -0.28125 -0.65625 -0.5q-0.359375 -0.21875 -0.75 -0.421875q-0.890625 0.5 -1.28125 1.109375q-0.375 0.609375 -0.375 1.171875q0 0.34375 0.109375 0.671875q0.125 0.328125 0.359375 0.5625q0.234375 0.234375 0.578125 0.375q0.34375 0.140625 0.796875 0.140625q0.375 0 0.703125 -0.109375q0.34375 -0.109375 0.59375 -0.328125q0.265625 -0.21875 0.40625 -0.546875q0.15625 -0.328125 0.15625 -0.765625zm-3.46875 -5.3125q0 0.421875 0.15625 0.734375q0.171875 0.3125 0.4375 0.5625q0.265625 0.25 0.609375 0.46875q0.359375 0.203125 0.75 0.390625q0.65625 -0.515625 0.96875 -1.0q0.3125 -0.5 0.3125 -1.109375q0 -0.75 -0.46875 -1.140625q-0.453125 -0.40625 -1.09375 -0.40625q-0.390625 0 -0.703125 0.140625q-0.3125 0.125 -0.53125 0.328125q-0.21875 0.203125 -0.328125 0.484375q-0.109375 0.265625 -0.109375 0.546875z" fill-rule="nonzero"/><path fill="#000000" fill-opacity="0.0" d="m680.7004 63.40955c0 5.5748024 4.9242554 11.149609 9.848511 11.149609" fill-rule="evenodd"/><path stroke="#000000" stroke-width="1.0" stroke-linejoin="round" stroke-linecap="butt" d="m680.7004 63.40955c0 5.5748024 4.9242554 11.149609 9.848511 11.149609" fill-rule="evenodd"/><path fill="#000000" fill-opacity="0.0" d="m710.98773 74.56829c4.1870728 0 8.374207 -5.8425217 8.374207 -11.6850395" fill-rule="evenodd"/><path stroke="#000000" stroke-width="1.0" stroke-linejoin="round" stroke-linecap="butt" d="m710.9877 74.56829c2.093628 0 4.187195 -1.4606323 5.757324 -3.6515808c0.7850952 -1.0954666 1.439331 -2.37352 1.8973389 -3.742859c0.057250977 -0.1711731 0.111328125 -0.34376526 0.16235352 -0.51760864c0.025512695 -0.08692169 0.050231934 -0.17415619 0.07409668 -0.26167297l0.030029297 -0.11432648" fill-rule="evenodd"/><path fill="#000000" stroke="#000000" stroke-width="1.0" stroke-linecap="butt" d="m718.9088 66.28024l0.9660034 1.2634125l-0.70617676 -3.2113419l-1.5232544 2.9139328z" fill-rule="evenodd"/><path fill="#000000" fill-opacity="0.0" d="m673.55255 60.247055c0 -2.4700584 1.8746338 -4.472439 4.187134 -4.472439c1.1104736 0 2.175476 0.47120285 2.9606934 1.309948c0.7852173 0.8387451 1.2263794 1.976326 1.2263794 3.1624908c0 2.4700623 -1.8746338 4.4724426 -4.1870728 4.4724426c-2.3125 0 -4.187134 -2.0023804 -4.187134 -4.4724426z" fill-rule="evenodd"/><path fill="#000000" fill-opacity="0.0" d="m718.12585 59.71527c0 -2.4700584 1.8746338 -4.472439 4.1870728 -4.472439c1.1105347 0 2.175537 0.47119904 2.9607544 1.309948c0.7852173 0.8387451 1.2263794 1.976326 1.2263794 3.1624908c0 2.4700623 -1.8746338 4.4724426 -4.187134 4.4724426c-2.312439 0 -4.1870728 -2.0023804 -4.1870728 -4.4724426z" fill-rule="evenodd"/><path fill="#000000" fill-opacity="0.0" d="m753.7588 82.32935l0 -20.062992" fill-rule="evenodd"/><path stroke="#000000" stroke-width="2.0" stroke-linejoin="round" stroke-linecap="butt" d="m753.7588 82.32935l0 -8.062988" fill-rule="evenodd"/><path fill="#000000" stroke="#000000" stroke-width="2.0" stroke-linecap="butt" d="m757.06226 74.266365l-3.3034668 -9.076195l-3.3034668 9.076195z" fill-rule="evenodd"/><path fill="#000000" fill-opacity="0.0" d="m723.9163 82.32935l59.684998 0l0 26.645668l-59.684998 0z" fill-rule="evenodd"/><path fill="#000000" d="m746.24927 93.412186l1.203125 0l-1.703125 8.0l-1.203125 0l1.703125 -8.0zm0.25 -2.453125q0 -0.359375 0.25 -0.609375q0.25 -0.265625 0.625 -0.265625q0.359375 0 0.609375 0.265625q0.265625 0.25 0.265625 0.609375q0 0.375 -0.265625 0.625q-0.25 0.25 -0.609375 0.25q-0.375 0 -0.625 -0.25q-0.25 -0.25 -0.25 -0.625zm2.206543 3.140625l6.78125 0l0 1.15625l-6.78125 0l0 -1.15625zm0 2.65625l6.78125 0l0 1.15625l-6.78125 0l0 -1.15625zm9.773743 3.734375q0.734375 0 1.296875 -0.234375q0.5625 -0.234375 0.953125 -0.640625q0.40625 -0.40625 0.609375 -0.953125q0.21875 -0.546875 0.203125 -1.203125q0.015625 -0.90625 -0.484375 -1.359375q-0.5 -0.453125 -1.65625 -0.453125l-1.28125 0.078125l1.171875 -5.515625l4.734375 0l-0.265625 1.1875l-3.59375 0l-0.6875 3.203125q0.015625 0 0.109375 0q0.09375 0 0.21875 -0.015625q0.15625 0 0.3125 -0.015625q0.75 0 1.265625 0.234375q0.515625 0.21875 0.828125 0.59375q0.3125 0.375 0.4375 0.859375q0.140625 0.484375 0.140625 0.984375q0 1.234375 -0.40625 2.078125q-0.390625 0.828125 -1.046875 1.34375q-0.640625 0.515625 -1.453125 0.734375q-0.8125 0.203125 -1.640625 0.203125q-0.640625 0 -1.125 -0.09375q-0.484375 -0.09375 -0.859375 -0.265625l0.546875 -1.109375q0.328125 0.140625 0.703125 0.25q0.390625 0.109375 0.96875 0.109375z" fill-rule="nonzero"/><path fill="#000000" fill-opacity="0.0" d="m599.14746 66.00321l20.434204 0l0 17.763779l-20.434204 0z" fill-rule="evenodd"/><path fill="#000000" d="m606.13635 72.926956q0 -0.703125 0.203125 -1.296875q0.203125 -0.609375 0.59375 -1.046875q0.40625 -0.4375 1.0 -0.6875q0.59375 -0.25 1.375 -0.25q1.5 0 2.328125 0.96875q0.84375 0.96875 0.84375 2.734375q0 1.65625 -0.375 2.890625q-0.375 1.234375 -1.03125 2.09375q-0.65625 0.84375 -1.5625 1.328125q-0.90625 0.46875 -1.953125 0.59375l-0.265625 -0.9375q0.84375 -0.125 1.53125 -0.484375q0.6875 -0.375 1.171875 -0.921875q0.484375 -0.5625 0.796875 -1.265625q0.3125 -0.71875 0.421875 -1.5625q-0.390625 0.46875 -0.875 0.65625q-0.46875 0.1875 -1.25 0.1875q-0.59375 0 -1.140625 -0.203125q-0.53125 -0.203125 -0.9375 -0.578125q-0.40625 -0.375 -0.640625 -0.9375q-0.234375 -0.5625 -0.234375 -1.28125zm1.21875 -0.109375q0 1.03125 0.546875 1.5625q0.546875 0.515625 1.4375 0.515625q0.71875 0 1.234375 -0.234375q0.515625 -0.234375 0.734375 -0.609375q0.03125 -0.203125 0.03125 -0.34375q0 -0.140625 0 -0.3125q0 -0.515625 -0.125 -1.0q-0.125 -0.5 -0.375 -0.890625q-0.25 -0.390625 -0.65625 -0.609375q-0.40625 -0.21875 -0.9375 -0.21875q-0.90625 0 -1.40625 0.5625q-0.484375 0.5625 -0.484375 1.578125z" fill-rule="nonzero"/><path fill="#000000" fill-opacity="0.0" d="m589.2943 63.34231c0 5.7637825 4.9242554 11.527561 9.848511 11.527561" fill-rule="evenodd"/><path stroke="#000000" stroke-width="1.0" stroke-linejoin="round" stroke-linecap="butt" d="m589.2943 63.34231c0 5.7637825 4.9242554 11.527561 9.848511 11.527561" fill-rule="evenodd"/><path fill="#000000" fill-opacity="0.0" d="m619.58167 74.8851c4.1870728 0 8.374207 -5.8425217 8.374207 -11.6850395" fill-rule="evenodd"/><path stroke="#000000" stroke-width="1.0" stroke-linejoin="round" stroke-linecap="butt" d="m619.58167 74.8851c2.0935059 0 4.187134 -1.4606323 5.757263 -3.6515808c0.7850952 -1.0954666 1.439331 -2.37352 1.8972778 -3.742859c0.057250977 -0.1711731 0.111450195 -0.34376526 0.16241455 -0.51760864c0.025512695 -0.08692169 0.0501709 -0.17415619 0.07409668 -0.26167297l0.029968262 -0.11432648" fill-rule="evenodd"/><path fill="#000000" stroke="#000000" stroke-width="1.0" stroke-linecap="butt" d="m627.5027 66.59705l0.9660034 1.2634125l-0.7061157 -3.2113419l-1.5232544 2.9139328z" fill-rule="evenodd"/><path fill="#000000" fill-opacity="0.0" d="m582.1465 60.17982c0 -2.4700623 1.8746338 -4.4724426 4.187134 -4.4724426c1.1104736 0 2.175476 0.47120285 2.9606934 1.309948c0.7852173 0.8387451 1.2263794 1.9763298 1.2263794 3.1624947c0 2.4700584 -1.8746338 4.472439 -4.1870728 4.472439c-2.3125 0 -4.187134 -2.0023804 -4.187134 -4.472439z" fill-rule="evenodd"/><path fill="#000000" fill-opacity="0.0" d="m626.7198 60.03208c0 -2.4700623 1.8746338 -4.4724426 4.1870728 -4.4724426c1.1105347 0 2.175537 0.47120285 2.9607544 1.309948c0.7852173 0.8387451 1.2263794 1.9763298 1.2263794 3.1624947c0 2.4700623 -1.8746338 4.4724426 -4.187134 4.4724426c-2.312439 0 -4.1870728 -2.0023804 -4.1870728 -4.4724426z" fill-rule="evenodd"/><path fill="#000000" fill-opacity="0.0" d="m556.59106 65.88515l20.434204 0l0 17.763786l-20.434204 0z" fill-rule="evenodd"/><path fill="#000000" d="m563.81433 77.512024q0 -0.921875 0.484375 -1.59375q0.484375 -0.6875 1.5 -1.25q-0.359375 -0.21875 -0.671875 -0.453125q-0.3125 -0.25 -0.5625 -0.546875q-0.234375 -0.3125 -0.375 -0.6875q-0.140625 -0.390625 -0.140625 -0.890625q0 -0.5625 0.1875 -1.03125q0.203125 -0.46875 0.578125 -0.796875q0.375 -0.34375 0.890625 -0.53125q0.53125 -0.203125 1.1875 -0.203125q0.609375 0 1.109375 0.1875q0.5 0.171875 0.84375 0.484375q0.34375 0.296875 0.53125 0.71875q0.1875 0.421875 0.1875 0.9375q0 0.84375 -0.375 1.484375q-0.375 0.625 -1.265625 1.25q0.390625 0.21875 0.734375 0.484375q0.34375 0.265625 0.59375 0.59375q0.265625 0.3125 0.40625 0.71875q0.140625 0.390625 0.140625 0.90625q0 0.640625 -0.203125 1.15625q-0.203125 0.515625 -0.59375 0.890625q-0.390625 0.375 -0.96875 0.59375q-0.578125 0.203125 -1.3125 0.203125q-0.703125 0 -1.25 -0.203125q-0.53125 -0.203125 -0.90625 -0.546875q-0.375 -0.359375 -0.5625 -0.828125q-0.1875 -0.484375 -0.1875 -1.046875zm4.84375 -0.140625q0 -0.4375 -0.171875 -0.765625q-0.171875 -0.328125 -0.46875 -0.59375q-0.28125 -0.28125 -0.65625 -0.5q-0.359375 -0.21875 -0.75 -0.421875q-0.890625 0.5 -1.28125 1.109375q-0.375 0.609375 -0.375 1.171875q0 0.34375 0.109375 0.671875q0.125 0.328125 0.359375 0.5625q0.234375 0.234375 0.578125 0.375q0.34375 0.140625 0.796875 0.140625q0.375 0 0.703125 -0.109375q0.34375 -0.109375 0.59375 -0.328125q0.265625 -0.21875 0.40625 -0.546875q0.15625 -0.328125 0.15625 -0.765625zm-3.46875 -5.3125q0 0.421875 0.15625 0.734375q0.171875 0.3125 0.4375 0.5625q0.265625 0.25 0.609375 0.46875q0.359375 0.203125 0.75 0.390625q0.65625 -0.515625 0.96875 -1.0q0.3125 -0.5 0.3125 -1.109375q0 -0.75 -0.46875 -1.140625q-0.453125 -0.40625 -1.09375 -0.40625q-0.390625 0 -0.703125 0.140625q-0.3125 0.125 -0.53125 0.328125q-0.21875 0.203125 -0.328125 0.484375q-0.109375 0.265625 -0.109375 0.546875z" fill-rule="nonzero"/><path fill="#000000" fill-opacity="0.0" d="m546.738 63.445984c0 5.6535416 4.9242554 11.307083 9.848511 11.307083" fill-rule="evenodd"/><path stroke="#000000" stroke-width="1.0" stroke-linejoin="round" stroke-linecap="butt" d="m546.738 63.445984c0 5.6535416 4.9242554 11.307083 9.848511 11.307083" fill-rule="evenodd"/><path fill="#000000" fill-opacity="0.0" d="m577.02527 74.767044c4.187134 0 8.374207 -5.8425217 8.374207 -11.685043" fill-rule="evenodd"/><path stroke="#000000" stroke-width="1.0" stroke-linejoin="round" stroke-linecap="butt" d="m577.0253 74.76704c2.0935059 0 4.1870728 -1.4606247 5.757263 -3.6515732c0.7850342 -1.0954742 1.43927 -2.37352 1.8972168 -3.742859c0.057250977 -0.1711731 0.111450195 -0.34376526 0.16241455 -0.51760864c0.025512695 -0.08692169 0.050231934 -0.17415619 0.07409668 -0.26167297l0.029968262 -0.11433411" fill-rule="evenodd"/><path fill="#000000" stroke="#000000" stroke-width="1.0" stroke-linecap="butt" d="m584.94635 66.479l0.9660034 1.2634125l-0.70617676 -3.2113419l-1.5232544 2.9139328z" fill-rule="evenodd"/><path fill="#000000" fill-opacity="0.0" d="m539.59015 60.28349c0 -2.4700584 1.8745728 -4.472439 4.1870728 -4.472439c1.1104736 0 2.175476 0.47119904 2.9607544 1.309948c0.7852173 0.8387451 1.2263184 1.976326 1.2263184 3.1624908c0 2.4700623 -1.8746338 4.472439 -4.1870728 4.472439c-2.3125 0 -4.1870728 -2.0023766 -4.1870728 -4.472439z" fill-rule="evenodd"/><path fill="#000000" fill-opacity="0.0" d="m584.1634 59.91402c0 -2.4700584 1.8746338 -4.472439 4.187134 -4.472439c1.1104736 0 2.175476 0.47120285 2.9606934 1.309948c0.7852783 0.8387451 1.2263794 1.976326 1.2263794 3.1624908c0 2.4700623 -1.8746338 4.472439 -4.1870728 4.472439c-2.3125 0 -4.187134 -2.0023766 -4.187134 -4.472439z" fill-rule="evenodd"/><path fill="#000000" fill-opacity="0.0" d="m695.1405 1.8201146l12.648499 0l0 16.908617l-12.648499 0z" fill-rule="evenodd"/><path fill="#000000" d="m704.52185 12.28575q0 0.640625 -0.203125 1.203125q-0.1875 0.5625 -0.5625 0.984375q-0.375 0.421875 -0.9375 0.671875q-0.546875 0.25 -1.265625 0.25q-0.703125 0 -1.265625 -0.21875q-0.546875 -0.234375 -0.953125 -0.671875q-0.40625 -0.4375 -0.625 -1.078125q-0.203125 -0.640625 -0.203125 -1.484375q0 -1.375 0.34375 -2.53125q0.359375 -1.171875 0.984375 -2.0312495q0.625 -0.875 1.484375 -1.40625q0.859375 -0.546875 1.875 -0.6875l0.234375 0.890625q-0.78125 0.140625 -1.421875 0.53125q-0.640625 0.390625 -1.125 0.96875q-0.484375 0.5624995 -0.796875 1.2812495q-0.296875 0.71875 -0.40625 1.46875q0.21875 -0.375 0.75 -0.6875q0.53125 -0.3125 1.296875 -0.3125q1.3125 0 2.046875 0.75q0.75 0.75 0.75 2.109375zm-1.15625 0.109375q0 -1.0 -0.46875 -1.5q-0.453125 -0.5 -1.40625 -0.5q-0.6875 0 -1.1875 0.34375q-0.484375 0.328125 -0.6875 0.75q-0.03125 0.1875 -0.03125 0.3125q0 0.125 0 0.28125q0 0.4375 0.109375 0.859375q0.125 0.40625 0.375 0.734375q0.265625 0.328125 0.625 0.53125q0.375 0.203125 0.875 0.203125q0.40625 0 0.734375 -0.140625q0.328125 -0.15625 0.5625 -0.421875q0.234375 -0.265625 0.359375 -0.640625q0.140625 -0.390625 0.140625 -0.8125z" fill-rule="nonzero"/><path fill="#000000" fill-opacity="0.0" d="m695.1405 10.274424c-5.4854736 0 -10.970947 6.2406445 -10.970947 12.481291" fill-rule="evenodd"/><path stroke="#000000" stroke-width="1.0" stroke-linejoin="round" stroke-linecap="butt" d="m695.1405 10.274423c-2.7426758 0 -5.4854736 1.5601616 -7.5425415 3.900404c-1.0285034 1.1701212 -1.8856201 2.535262 -2.4855957 3.9979143c-0.14996338 0.36566353 -0.2838745 0.73742104 -0.40045166 1.1137486l-0.024169922 0.08153725" fill-rule="evenodd"/><path fill="#000000" stroke="#000000" stroke-width="1.0" stroke-linecap="butt" d="m684.68774 19.368027l-0.9416504 -1.2816868l0.64453125 3.2242794l1.5787964 -2.8842144z" fill-rule="evenodd"/><path fill="#000000" fill-opacity="0.0" d="m707.789 10.274424c6.498352 0 12.996765 5.66368 12.996765 11.32736" fill-rule="evenodd"/><path stroke="#000000" stroke-width="1.0" stroke-linejoin="round" stroke-linecap="butt" d="m707.789 10.274424c6.498352 0 12.996765 5.66368 12.996765 11.32736" fill-rule="evenodd"/><path fill="#000000" fill-opacity="0.0" d="m682.7644 25.11748c0 -1.8468647 0.36901855 -3.3440437 0.8242798 -3.3440437c0.21862793 0 0.4282837 0.3523178 0.5828247 0.9794483c0.15460205 0.6271305 0.24145508 1.4777012 0.24145508 2.3645954c0 1.8468647 -0.3690796 3.3440456 -0.8242798 3.3440456c-0.21862793 0 -0.4282837 -0.3523178 -0.58288574 -0.9794483c-0.15454102 -0.6271305 -0.24139404 -1.4777012 -0.24139404 -2.3645973z" fill-rule="evenodd"/><path fill="#000000" fill-opacity="0.0" d="m720.5459 23.966084c0 -1.8468647 0.36901855 -3.3440456 0.8242798 -3.3440456c0.21862793 0 0.4282837 0.35231972 0.5828247 0.9794483c0.15460205 0.6271305 0.24145508 1.4777012 0.24145508 2.3645973c0 1.8468647 -0.3690796 3.3440437 -0.8242798 3.3440437c-0.21862793 0 -0.4282837 -0.3523178 -0.5828247 -0.9794483c-0.15460205 -0.6271305 -0.24145508 -1.4777012 -0.24145508 -2.3645954z" fill-rule="evenodd"/><path fill="#000000" fill-opacity="0.0" d="m563.4562 1.8395631l12.648499 0l0 16.908617l-12.648499 0z" fill-rule="evenodd"/><path fill="#000000" d="m572.8376 12.3052q0 0.640625 -0.203125 1.203125q-0.1875 0.5625 -0.5625 0.984375q-0.375 0.421875 -0.9375 0.671875q-0.546875 0.25 -1.265625 0.25q-0.703125 0 -1.265625 -0.21875q-0.546875 -0.234375 -0.953125 -0.671875q-0.40625 -0.4375 -0.625 -1.078125q-0.203125 -0.640625 -0.203125 -1.484375q0 -1.375 0.34375 -2.53125q0.359375 -1.171875 0.984375 -2.0312505q0.625 -0.875 1.484375 -1.40625q0.859375 -0.546875 1.875 -0.6875l0.234375 0.890625q-0.78125 0.140625 -1.421875 0.53125q-0.640625 0.390625 -1.125 0.96875q-0.484375 0.5625005 -0.796875 1.2812505q-0.296875 0.71875 -0.40625 1.46875q0.21875 -0.375 0.75 -0.6875q0.53125 -0.3125 1.296875 -0.3125q1.3125 0 2.046875 0.75q0.75 0.75 0.75 2.109375zm-1.15625 0.109375q0 -1.0 -0.46875 -1.5q-0.453125 -0.5 -1.40625 -0.5q-0.6875 0 -1.1875 0.34375q-0.484375 0.328125 -0.6875 0.75q-0.03125 0.1875 -0.03125 0.3125q0 0.125 0 0.28125q0 0.4375 0.109375 0.859375q0.125 0.40625 0.375 0.734375q0.265625 0.328125 0.625 0.53125q0.375 0.203125 0.875 0.203125q0.40625 0 0.734375 -0.140625q0.328125 -0.15625 0.5625 -0.421875q0.234375 -0.265625 0.359375 -0.640625q0.140625 -0.390625 0.140625 -0.8125z" fill-rule="nonzero"/><path fill="#000000" fill-opacity="0.0" d="m563.4562 10.293872c-5.4854126 0 -10.970886 6.2406454 -10.970886 12.481292" fill-rule="evenodd"/><path stroke="#000000" stroke-width="1.0" stroke-linejoin="round" stroke-linecap="butt" d="m563.4562 10.293872c-2.7427368 0 -5.4854736 1.5601616 -7.5424805 3.900404c-1.0285034 1.1701202 -1.8856201 2.535262 -2.4856567 3.9979143c-0.14996338 0.36566162 -0.2838745 0.7374191 -0.40039062 1.1137466l-0.024230957 0.08153725" fill-rule="evenodd"/><path fill="#000000" stroke="#000000" stroke-width="1.0" stroke-linecap="butt" d="m553.0034 19.387474l-0.94158936 -1.2816868l0.6444702 3.2242794l1.5787964 -2.8842163z" fill-rule="evenodd"/><path fill="#000000" fill-opacity="0.0" d="m576.1047 10.293872c6.498413 0 12.996826 5.66368 12.996826 11.327361" fill-rule="evenodd"/><path stroke="#000000" stroke-width="1.0" stroke-linejoin="round" stroke-linecap="butt" d="m576.1047 10.293872c6.498413 0 12.996826 5.66368 12.996826 11.327361" fill-rule="evenodd"/><path fill="#000000" fill-opacity="0.0" d="m551.08014 25.136929c0 -1.8468647 0.36901855 -3.3440437 0.82421875 -3.3440437c0.21862793 0 0.4282837 0.3523178 0.58288574 0.9794483c0.15454102 0.6271286 0.24139404 1.4776993 0.24139404 2.3645954c0 1.8468647 -0.36901855 3.3440437 -0.8242798 3.3440437c-0.2185669 0 -0.42822266 -0.3523178 -0.5828247 -0.9794483c-0.15460205 -0.6271286 -0.24139404 -1.4776993 -0.24139404 -2.3645954z" fill-rule="evenodd"/><path fill="#000000" fill-opacity="0.0" d="m588.86163 23.98553c0 -1.8468647 0.36901855 -3.3440437 0.8242798 -3.3440437c0.2185669 0 0.42822266 0.3523178 0.5828247 0.9794483c0.15460205 0.6271305 0.24139404 1.4777012 0.24139404 2.3645954c0 1.8468647 -0.36901855 3.3440456 -0.82421875 3.3440456c-0.21862793 0 -0.4282837 -0.35231972 -0.58288574 -0.9794483c-0.15454102 -0.6271305 -0.24139404 -1.4777012 -0.24139404 -2.3645973z" fill-rule="evenodd"/></g></svg>