<svg version="1.1" viewBox="0.0 0.0 841.6167979002624 131.71653543307087" fill="none" stroke="none" stroke-linecap="square" stroke-miterlimit="10" xmlns:xlink="http://www.w3.org/1999/xlink" xmlns="http://www.w3.org/2000/svg"><clipPath id="p.0"><path d="m0 0l841.6168 0l0 131.71654l-841.6168 0l0 -131.71654z" clip-rule="nonzero"/></clipPath><g clip-path="url(#p.0)"><path fill="#000000" fill-opacity="0.0" d="m0 0l841.6168 0l0 131.71654l-841.6168 0z" fill-rule="evenodd"/><path fill="#000000" fill-opacity="0.0" d="m11.4134865 43.408035l39.43307 0l0 39.433067l-39.43307 0z" fill-rule="evenodd"/><path stroke="#000000" stroke-width="2.0" stroke-linejoin="round" stroke-linecap="butt" d="m11.4134865 43.408035l39.43307 0l0 39.433067l-39.43307 0z" fill-rule="evenodd"/><path fill="#000000" d="m27.125208 60.935196q0 -0.890625 0.265625 -1.65625q0.265625 -0.765625 0.765625 -1.328125q0.5 -0.5625 1.25 -0.875q0.765625 -0.3125 1.765625 -0.3125q1.9062519 0 2.968752 1.234375q1.0625 1.21875 1.0625 3.46875q0 2.109375 -0.484375 3.6875q-0.46875 1.5625 -1.3125 2.65625q-0.828125 1.078125 -1.9843769 1.6875q-1.140625 0.609375 -2.484375 0.765625l-0.34375 -1.1875q1.09375 -0.171875 1.953125 -0.640625q0.875 -0.46875 1.5000019 -1.171875q0.625 -0.703125 1.015625 -1.609375q0.390625 -0.90625 0.53125 -1.96875q-0.5 0.59375 -1.109375 0.828125q-0.5937519 0.234375 -1.5937519 0.234375q-0.765625 0 -1.453125 -0.25q-0.671875 -0.25 -1.203125 -0.734375q-0.515625 -0.484375 -0.8125 -1.1875q-0.296875 -0.71875 -0.296875 -1.640625zm1.546875 -0.140625q0 1.328125 0.703125 1.984375q0.703125 0.65625 1.84375 0.65625q0.9062519 0 1.5625019 -0.296875q0.65625 -0.296875 0.9375 -0.78125q0.03125 -0.234375 0.03125 -0.421875q0 -0.1875 0 -0.390625q0 -0.671875 -0.15625 -1.296875q-0.15625 -0.625 -0.484375 -1.125q-0.3125 -0.5 -0.828125 -0.78125q-0.5156269 -0.28125 -1.2031269 -0.28125q-1.140625 0 -1.78125 0.71875q-0.625 0.71875 -0.625 2.015625z" fill-rule="nonzero"/><path fill="#000000" fill-opacity="0.0" d="m51.413486 43.408035l39.43307 0l0 39.433067l-39.43307 0z" fill-rule="evenodd"/><path stroke="#000000" stroke-width="2.0" stroke-linejoin="round" stroke-linecap="butt" d="m51.413486 43.408035l39.43307 0l0 39.433067l-39.43307 0z" fill-rule="evenodd"/><path fill="#000000" d="m61.08825 68.66957l2.609375 0l0 -9.03125l0.1875 -1.109375l-0.75 0.875l-2.046875 1.484375l-0.703125 -0.953125l4.09375 -3.171875l0.671875 0l0 11.90625l2.5625 0l0 1.375l-6.625 0l0 -1.375zm17.933289 -2.640625l-2.203125 0l0 4.015625l-1.453125 0l0 -4.015625l-5.75 0l0 -0.609375l6.1875 -8.640625l1.015625 0l0 7.953125l2.203125 0l0 1.296875zm-3.65625 -5.375l0.1875 -1.515625l-0.0625 0l-0.65625 1.265625l-2.625 3.5625l-0.890625 0.90625l1.296875 -0.140625l2.75 0l0 -4.078125z" fill-rule="nonzero"/><path fill="#000000" fill-opacity="0.0" d="m91.41349 43.408035l39.433067 0l0 39.433067l-39.433067 0z" fill-rule="evenodd"/><path stroke="#000000" stroke-width="2.0" stroke-linejoin="round" stroke-linecap="butt" d="m91.41349 43.408035l39.433067 0l0 39.433067l-39.433067 0z" fill-rule="evenodd"/><path fill="#000000" d="m101.08825 68.66957l2.609375 0l0 -9.03125l0.1875 -1.109375l-0.75 0.875l-2.046875 1.484375l-0.703125 -0.953125l4.09375 -3.171875l0.671875 0l0 11.90625l2.5625 0l0 1.375l-6.625 0l0 -1.375zm9.417664 -1.734375q0 -1.1875 0.609375 -2.046875q0.625 -0.875 1.9375 -1.578125q-0.46875 -0.28125 -0.875 -0.578125q-0.40625 -0.3125 -0.71875 -0.703125q-0.296875 -0.390625 -0.484375 -0.875q-0.171875 -0.5 -0.171875 -1.125q0 -0.734375 0.25 -1.328125q0.265625 -0.59375 0.734375 -1.015625q0.46875 -0.4375 1.125 -0.671875q0.671875 -0.25 1.515625 -0.25q0.78125 0 1.40625 0.234375q0.640625 0.21875 1.078125 0.609375q0.4375 0.390625 0.671875 0.9375q0.25 0.53125 0.25 1.1875q0 1.0625 -0.484375 1.875q-0.484375 0.8125 -1.59375 1.59375q0.484375 0.28125 0.921875 0.625q0.4375 0.328125 0.765625 0.734375q0.328125 0.40625 0.515625 0.921875q0.1875 0.515625 0.1875 1.171875q0 0.796875 -0.265625 1.46875q-0.265625 0.65625 -0.765625 1.140625q-0.5 0.46875 -1.234375 0.734375q-0.734375 0.265625 -1.65625 0.265625q-0.90625 0 -1.59375 -0.25q-0.6875 -0.265625 -1.171875 -0.703125q-0.46875 -0.453125 -0.71875 -1.0625q-0.234375 -0.609375 -0.234375 -1.3125zm6.171875 -0.1875q0 -0.5625 -0.21875 -0.984375q-0.21875 -0.421875 -0.59375 -0.765625q-0.359375 -0.34375 -0.828125 -0.625q-0.46875 -0.28125 -0.96875 -0.546875q-1.140625 0.640625 -1.625 1.421875q-0.484375 0.78125 -0.484375 1.5q0 0.4375 0.140625 0.859375q0.15625 0.40625 0.453125 0.703125q0.3125 0.296875 0.75 0.484375q0.4375 0.171875 1.015625 0.171875q0.46875 0 0.890625 -0.140625q0.4375 -0.140625 0.75 -0.40625q0.328125 -0.28125 0.515625 -0.703125q0.203125 -0.421875 0.203125 -0.96875zm-4.421875 -6.765625q0 0.53125 0.203125 0.9375q0.21875 0.390625 0.5625 0.71875q0.34375 0.3125 0.78125 0.578125q0.453125 0.265625 0.9375 0.515625q0.84375 -0.65625 1.234375 -1.28125q0.40625 -0.640625 0.40625 -1.40625q0 -0.953125 -0.59375 -1.46875q-0.578125 -0.515625 -1.390625 -0.515625q-0.515625 0 -0.90625 0.171875q-0.390625 0.171875 -0.671875 0.4375q-0.28125 0.25 -0.421875 0.609375q-0.140625 0.34375 -0.140625 0.703125z" fill-rule="nonzero"/><path fill="#000000" fill-opacity="0.0" d="m131.41348 43.408035l39.433075 0l0 39.433067l-39.433075 0z" fill-rule="evenodd"/><path stroke="#000000" stroke-width="2.0" stroke-linejoin="round" stroke-linecap="butt" d="m131.41348 43.408035l39.433075 0l0 39.433067l-39.433075 0z" fill-rule="evenodd"/><path fill="#000000" fill-opacity="0.0" d="m171.41348 43.408035l39.433075 0l0 39.433067l-39.433075 0z" fill-rule="evenodd"/><path stroke="#000000" stroke-width="2.0" stroke-linejoin="round" stroke-linecap="butt" d="m171.41348 43.408035l39.433075 0l0 39.433067l-39.433075 0z" fill-rule="evenodd"/><path fill="#000000" d="m187.40076 59.95082q0 0.984375 -0.375 2.03125q-0.359375 1.03125 -0.953125 2.078125q-0.578125 1.046875 -1.3125 2.046875q-0.71875 0.984375 -1.453125 1.890625l-0.90625 0.796875l0 0.078125l1.1875 -0.203125l4.0625 0l0 1.375l-7.421875 0l0 -0.546875q0.40625 -0.421875 0.984375 -1.046875q0.578125 -0.640625 1.203125 -1.40625q0.625 -0.78125 1.234375 -1.640625q0.609375 -0.875 1.09375 -1.765625q0.5 -0.90625 0.796875 -1.78125q0.296875 -0.875 0.296875 -1.65625q0 -0.921875 -0.515625 -1.53125q-0.515625 -0.609375 -1.578125 -0.609375q-0.71875 0 -1.390625 0.296875q-0.671875 0.28125 -1.15625 0.65625l-0.609375 -1.0625q0.65625 -0.5625 1.546875 -0.875q0.890625 -0.3125 1.921875 -0.3125q0.796875 0 1.40625 0.234375q0.625 0.234375 1.046875 0.671875q0.4375 0.421875 0.65625 1.015625q0.234375 0.578125 0.234375 1.265625zm11.620789 6.078125l-2.203125 0l0 4.015625l-1.453125 0l0 -4.015625l-5.75 0l0 -0.609375l6.1875 -8.640625l1.015625 0l0 7.953125l2.203125 0l0 1.296875zm-3.65625 -5.375l0.1875 -1.515625l-0.0625 0l-0.65625 1.265625l-2.625 3.5625l-0.890625 0.90625l1.296875 -0.140625l2.75 0l0 -4.078125z" fill-rule="nonzero"/><path fill="#000000" fill-opacity="0.0" d="m211.41348 43.408035l39.433075 0l0 39.433067l-39.433075 0z" fill-rule="evenodd"/><path stroke="#000000" stroke-width="2.0" stroke-linejoin="round" stroke-linecap="butt" d="m211.41348 43.408035l39.433075 0l0 39.433067l-39.433075 0z" fill-rule="evenodd"/><path fill="#000000" d="m227.40076 59.95082q0 0.984375 -0.375 2.03125q-0.359375 1.03125 -0.953125 2.078125q-0.578125 1.046875 -1.3125 2.046875q-0.71875 0.984375 -1.453125 1.890625l-0.90625 0.796875l0 0.078125l1.1875 -0.203125l4.0625 0l0 1.375l-7.421875 0l0 -0.546875q0.40625 -0.421875 0.984375 -1.046875q0.578125 -0.640625 1.203125 -1.40625q0.625 -0.78125 1.234375 -1.640625q0.609375 -0.875 1.09375 -1.765625q0.5 -0.90625 0.796875 -1.78125q0.296875 -0.875 0.296875 -1.65625q0 -0.921875 -0.515625 -1.53125q-0.515625 -0.609375 -1.578125 -0.609375q-0.71875 0 -1.390625 0.296875q-0.671875 0.28125 -1.15625 0.65625l-0.609375 -1.0625q0.65625 -0.5625 1.546875 -0.875q0.890625 -0.3125 1.921875 -0.3125q0.796875 0 1.40625 0.234375q0.625 0.234375 1.046875 0.671875q0.4375 0.421875 0.65625 1.015625q0.234375 0.578125 0.234375 1.265625zm3.8864136 10.09375l4.6875 -10.9375l0.828125 -0.90625l-1.109375 0.171875l-5.3125 0l0 -1.390625l7.796875 0l0 0.5l-5.375 12.5625l-1.515625 0z" fill-rule="nonzero"/><path fill="#000000" fill-opacity="0.0" d="m251.41348 43.408035l39.433075 0l0 39.433067l-39.433075 0z" fill-rule="evenodd"/><path stroke="#000000" stroke-width="2.0" stroke-linejoin="round" stroke-linecap="butt" d="m251.41348 43.408035l39.433075 0l0 39.433067l-39.433075 0z" fill-rule="evenodd"/><path fill="#000000" d="m267.40076 59.95082q0 0.984375 -0.375 2.03125q-0.359375 1.03125 -0.953125 2.078125q-0.578125 1.046875 -1.3125 2.046875q-0.71875 0.984375 -1.453125 1.890625l-0.90625 0.796875l0 0.078125l1.1875 -0.203125l4.0625 0l0 1.375l-7.421875 0l0 -0.546875q0.40625 -0.421875 0.984375 -1.046875q0.578125 -0.640625 1.203125 -1.40625q0.625 -0.78125 1.234375 -1.640625q0.609375 -0.875 1.09375 -1.765625q0.5 -0.90625 0.796875 -1.78125q0.296875 -0.875 0.296875 -1.65625q0 -0.921875 -0.515625 -1.53125q-0.515625 -0.609375 -1.578125 -0.609375q-0.71875 0 -1.390625 0.296875q-0.671875 0.28125 -1.15625 0.65625l-0.609375 -1.0625q0.65625 -0.5625 1.546875 -0.875q0.890625 -0.3125 1.921875 -0.3125q0.796875 0 1.40625 0.234375q0.625 0.234375 1.046875 0.671875q0.4375 0.421875 0.65625 1.015625q0.234375 0.578125 0.234375 1.265625zm3.8864136 10.09375l4.6875 -10.9375l0.828125 -0.90625l-1.109375 0.171875l-5.3125 0l0 -1.390625l7.796875 0l0 0.5l-5.375 12.5625l-1.515625 0z" fill-rule="nonzero"/><path fill="#000000" fill-opacity="0.0" d="m291.41348 43.408035l39.433075 0l0 39.433067l-39.433075 0z" fill-rule="evenodd"/><path stroke="#000000" stroke-width="2.0" stroke-linejoin="round" stroke-linecap="butt" d="m291.41348 43.408035l39.433075 0l0 39.433067l-39.433075 0z" fill-rule="evenodd"/><path fill="#000000" d="m307.40076 59.95082q0 0.984375 -0.375 2.03125q-0.359375 1.03125 -0.953125 2.078125q-0.578125 1.046875 -1.3125 2.046875q-0.71875 0.984375 -1.453125 1.890625l-0.90625 0.796875l0 0.078125l1.1875 -0.203125l4.0625 0l0 1.375l-7.421875 0l0 -0.546875q0.40625 -0.421875 0.984375 -1.046875q0.578125 -0.640625 1.203125 -1.40625q0.625 -0.78125 1.234375 -1.640625q0.609375 -0.875 1.09375 -1.765625q0.5 -0.90625 0.796875 -1.78125q0.296875 -0.875 0.296875 -1.65625q0 -0.921875 -0.515625 -1.53125q-0.515625 -0.609375 -1.578125 -0.609375q-0.71875 0 -1.390625 0.296875q-0.671875 0.28125 -1.15625 0.65625l-0.609375 -1.0625q0.65625 -0.5625 1.546875 -0.875q0.890625 -0.3125 1.921875 -0.3125q0.796875 0 1.40625 0.234375q0.625 0.234375 1.046875 0.671875q0.4375 0.421875 0.65625 1.015625q0.234375 0.578125 0.234375 1.265625zm2.6364136 3.5625q0 -3.359375 1.09375 -5.046875q1.09375 -1.703125 3.1875 -1.703125q2.25 0 3.265625 1.671875q1.015625 1.671875 1.015625 5.078125q0 3.359375 -1.09375 5.0625q-1.078125 1.6875 -3.1875 1.6875q-2.21875 0 -3.25 -1.765625q-1.03125 -1.78125 -1.03125 -4.984375zm1.546875 0q0 1.21875 0.15625 2.21875q0.171875 0.984375 0.5 1.703125q0.34375 0.71875 0.84375 1.125q0.515625 0.40625 1.234375 0.40625q1.421875 0 2.078125 -1.3125q0.65625 -1.328125 0.65625 -4.140625q0 -1.1875 -0.140625 -2.1875q-0.140625 -1.015625 -0.46875 -1.734375q-0.3125 -0.734375 -0.84375 -1.125q-0.515625 -0.40625 -1.28125 -0.40625q-1.40625 0 -2.078125 1.328125q-0.65625 1.328125 -0.65625 4.125z" fill-rule="nonzero"/><path fill="#000000" fill-opacity="0.0" d="m331.41348 43.408035l39.433075 0l0 39.433067l-39.433075 0z" fill-rule="evenodd"/><path stroke="#000000" stroke-width="2.0" stroke-linejoin="round" stroke-linecap="butt" d="m331.41348 43.408035l39.433075 0l0 39.433067l-39.433075 0z" fill-rule="evenodd"/><path fill="#000000" fill-opacity="0.0" d="m151.13004 102.896225l0 -20.062996" fill-rule="evenodd"/><path stroke="#000000" stroke-width="2.0" stroke-linejoin="round" stroke-linecap="butt" d="m151.13004 102.896225l0 -8.062996" fill-rule="evenodd"/><path fill="#000000" stroke="#000000" stroke-width="2.0" stroke-linecap="butt" d="m154.4335 94.83323l-3.3034668 -9.076195l-3.3034668 9.076195z" fill-rule="evenodd"/><path fill="#000000" fill-opacity="0.0" d="m121.28752 102.896225l59.685028 0l0 26.645676l-59.685028 0z" fill-rule="evenodd"/><path fill="#000000" d="m143.62051 113.97906l1.203125 0l-1.703125 8.0l-1.203125 0l1.703125 -8.0zm0.25 -2.453125q0 -0.359375 0.25 -0.609375q0.25 -0.265625 0.625 -0.265625q0.359375 0 0.609375 0.265625q0.265625 0.25 0.265625 0.609375q0 0.375 -0.265625 0.625q-0.25 0.25 -0.609375 0.25q-0.375 0 -0.625 -0.25q-0.25 -0.25 -0.25 -0.625zm2.2065125 3.140625l6.78125 0l0 1.15625l-6.78125 0l0 -1.15625zm0 2.65625l6.78125 0l0 1.15625l-6.78125 0l0 -1.15625zm9.883148 3.734375q0.75 0 1.3125 -0.234375q0.5625 -0.25 0.921875 -0.640625q0.375 -0.390625 0.5625 -0.890625q0.1875 -0.515625 0.1875 -1.046875q0 -0.828125 -0.421875 -1.265625q-0.40625 -0.453125 -1.546875 -0.453125l-1.15625 0l0.109375 -0.46875l2.90625 -3.546875l0.828125 -0.703125l-1.0 0.15625l-2.96875 0l0.234375 -1.1875l5.4375 0l-0.09375 0.46875l-3.21875 3.875l-0.625 0.453125l0 0.03125l0.53125 -0.109375q0.4375 0 0.828125 0.15625q0.40625 0.15625 0.71875 0.46875q0.3125 0.3125 0.5 0.796875q0.1875 0.46875 0.1875 1.140625q0 0.859375 -0.28125 1.609375q-0.28125 0.75 -0.84375 1.3125q-0.546875 0.546875 -1.375 0.875q-0.828125 0.3125 -1.9375 0.3125q-0.6875 0 -1.234375 -0.109375q-0.546875 -0.109375 -0.953125 -0.28125l0.578125 -1.140625q0.3125 0.171875 0.765625 0.296875q0.453125 0.125 1.046875 0.125z" fill-rule="nonzero"/><path fill="#000000" fill-opacity="0.0" d="m134.1379 87.39885c0 4.2791214 -3.4689026 7.7480316 -7.7480316 7.7480316l-47.007874 0c-4.279114 0 -7.7480316 3.4689102 -7.7480316 7.7480316c0 -4.2791214 -3.4689102 -7.7480316 -7.748028 -7.7480316l-47.007874 0c-4.2791195 0 -7.7480316 -3.4689102 -7.7480316 -7.7480316z" fill-rule="evenodd"/><path fill="#000000" fill-opacity="0.0" d="m134.1379 87.39885c0 4.2791214 -3.4689026 7.7480316 -7.7480316 7.7480316l-47.007874 0c-4.279114 0 -7.7480316 3.4689102 -7.7480316 7.7480316c0 -4.2791214 -3.4689102 -7.7480316 -7.748028 -7.7480316l-47.007874 0c-4.2791195 0 -7.7480316 -3.4689102 -7.7480316 -7.7480316" fill-rule="evenodd"/><path stroke="#000000" stroke-width="1.0" stroke-linejoin="round" stroke-linecap="butt" d="m134.1379 87.39885c0 4.2791214 -3.4689026 7.7480316 -7.7480316 7.7480316l-47.007874 0c-4.279114 0 -7.7480316 3.4689102 -7.7480316 7.7480316c0 -4.2791214 -3.4689102 -7.7480316 -7.748028 -7.7480316l-47.007874 0c-4.2791195 0 -7.7480316 -3.4689102 -7.7480316 -7.7480316" fill-rule="evenodd"/><path fill="#000000" fill-opacity="0.0" d="m5.1300254 97.55633l137.44882 0l0 26.645668l-137.44882 0z" fill-rule="evenodd"/><path fill="#000000" d="m40.892353 114.467285q0 -0.484375 -0.296875 -0.75q-0.28125 -0.28125 -0.703125 -0.453125q-0.421875 -0.1875 -0.9375 -0.359375q-0.5 -0.171875 -0.921875 -0.4375q-0.421875 -0.265625 -0.71875 -0.671875q-0.28125 -0.421875 -0.28125 -1.125q0 -1.15625 0.65625 -1.6875q0.65625 -0.53125 1.828125 -0.53125q0.859375 0 1.4375 0.15625q0.59375 0.140625 1.03125 0.34375l-0.3125 1.0625q-0.359375 -0.171875 -0.890625 -0.3125q-0.515625 -0.140625 -1.109375 -0.140625q-0.703125 0 -1.03125 0.25q-0.328125 0.234375 -0.328125 0.828125q0 0.421875 0.28125 0.65625q0.296875 0.21875 0.71875 0.40625q0.421875 0.1875 0.921875 0.359375q0.515625 0.171875 0.9375 0.46875q0.421875 0.28125 0.703125 0.734375q0.296875 0.4375 0.296875 1.15625q0 0.5 -0.171875 0.953125q-0.15625 0.453125 -0.515625 0.78125q-0.359375 0.3125 -0.875 0.484375q-0.515625 0.1875 -1.21875 0.1875q-0.90625 0 -1.546875 -0.171875q-0.640625 -0.171875 -1.078125 -0.421875l0.390625 -1.078125q0.359375 0.203125 0.953125 0.390625q0.59375 0.171875 1.203125 0.171875q0.6875 0 1.125 -0.265625q0.453125 -0.28125 0.453125 -0.984375zm2.7672577 -1.828125q0 -2.03125 0.90625 -3.109375q0.90625 -1.078125 2.59375 -1.078125q0.90625 0 1.5625 0.296875q0.671875 0.296875 1.09375 0.84375q0.4375 0.546875 0.640625 1.328125q0.21875 0.78125 0.21875 1.71875q0 2.03125 -0.90625 3.109375q-0.90625 1.078125 -2.609375 1.078125q-0.890625 0 -1.5625 -0.296875q-0.65625 -0.296875 -1.09375 -0.84375q-0.421875 -0.546875 -0.640625 -1.328125q-0.203125 -0.78125 -0.203125 -1.71875zm1.328125 0q0 0.609375 0.125 1.171875q0.125 0.5625 0.375 0.984375q0.25 0.40625 0.671875 0.671875q0.421875 0.25 1.0 0.25q2.1875 0.015625 2.1875 -3.078125q0 -0.625 -0.125 -1.1875q-0.125 -0.5625 -0.375 -0.96875q-0.25 -0.421875 -0.671875 -0.671875q-0.421875 -0.25 -1.015625 -0.25q-2.171875 -0.015625 -2.171875 3.078125zm11.482269 -2.765625q-0.484375 -0.15625 -0.921875 -0.15625q-0.6875 0 -1.09375 0.375q-0.390625 0.375 -0.484375 0.953125l0 5.59375l-1.28125 0l0 -8.0l0.890625 0l0.25 0.96875l0.0625 0q0.296875 -0.53125 0.71875 -0.828125q0.421875 -0.296875 1.078125 -0.296875q0.46875 0 1.046875 0.15625l-0.265625 1.234375zm1.0762634 -1.234375l1.25 0l0 -1.578125l1.28125 -0.375l0 1.953125l2.171875 0l0 1.125l-2.171875 0l0 4.421875q0 0.84375 0.203125 1.1875q0.21875 0.34375 0.703125 0.34375q0.421875 0 0.703125 -0.09375q0.296875 -0.09375 0.640625 -0.234375l0.296875 0.984375q-0.4375 0.203125 -0.953125 0.328125q-0.5 0.125 -1.09375 0.125q-0.984375 0 -1.390625 -0.546875q-0.390625 -0.546875 -0.390625 -1.84375l0 -4.671875l-1.25 0l0 -1.125zm12.15427 7.359375q-0.484375 0.390625 -1.21875 0.609375q-0.71875 0.21875 -1.546875 0.21875q-0.90625 0 -1.578125 -0.296875q-0.671875 -0.296875 -1.109375 -0.84375q-0.4218788 -0.546875 -0.6406288 -1.3125q-0.203125 -0.78125 -0.203125 -1.734375q0 -2.046875 0.9062538 -3.109375q0.921875 -1.078125 2.609375 -1.078125q0.546875 0 1.09375 0.125q0.546875 0.109375 0.96875 0.453125q0.4375 0.328125 0.703125 0.953125q0.28125 0.609375 0.28125 1.609375q0 0.53125 -0.09375 1.171875l-5.140625 0q0 0.703125 0.140625 1.25q0.15625 0.546875 0.453125 0.921875q0.3125 0.375 0.796875 0.578125q0.484375 0.203125 1.1875 0.203125q0.546875 0 1.078125 -0.1875q0.546875 -0.203125 0.828125 -0.453125l0.484375 0.921875zm-2.765625 -6.4375q-0.9375 0 -1.515625 0.5q-0.5625 0.5 -0.671875 1.703125l3.96875 0q0 -1.21875 -0.46875 -1.703125q-0.453125 -0.5 -1.3125 -0.5zm11.190521 4.328125q0 0.8125 0.015625 1.484375q0.015625 0.65625 0.140625 1.296875l-0.859375 0l-0.3125 -1.140625l-0.078125 0q-0.3125 0.5625 -0.921875 0.9375q-0.609375 0.359375 -1.421875 0.359375q-1.59375 0 -2.375 -1.0q-0.78125 -1.015625 -0.78125 -3.15625q0 -2.046875 0.96875 -3.109375q0.96875 -1.0625 2.671875 -1.0625q0.59375 0 0.9375 0.0625q0.34375 0.0625 0.734375 0.203125l0 -3.328125l1.28125 0l0 8.453125zm-3.234375 1.828125q0.8125 0 1.296875 -0.421875q0.484375 -0.4375 0.65625 -1.296875l0 -3.96875q-0.28125 -0.21875 -0.65625 -0.3125q-0.359375 -0.109375 -0.96875 -0.109375q-1.109375 0 -1.734375 0.734375q-0.625 0.734375 -0.625 2.328125q0 0.65625 0.09375 1.21875q0.109375 0.5625 0.34375 0.96875q0.25 0.390625 0.640625 0.625q0.390625 0.234375 0.953125 0.234375zm9.97377 -7.078125l0.875 0l0.25 0.953125l0.0625 0q0.359375 -0.546875 0.9375 -0.84375q0.59375 -0.296875 1.34375 -0.296875q1.59375 0 2.375 0.953125q0.796875 0.9375 0.796875 3.078125q0 1.0 -0.265625 1.8125q-0.265625 0.8125 -0.75 1.375q-0.46875 0.546875 -1.15625 0.859375q-0.671875 0.296875 -1.515625 0.296875q-0.59375 0 -0.9375 -0.078125q-0.34375 -0.0625 -0.734375 -0.234375l0 3.328125l-1.28125 0l0 -11.203125zm3.234375 0.921875q-0.828125 0 -1.296875 0.4375q-0.46875 0.421875 -0.65625 1.28125l0 3.96875q0.28125 0.21875 0.640625 0.34375q0.375 0.125 0.984375 0.125q1.109375 0 1.75 -0.828125q0.65625 -0.828125 0.65625 -2.421875q0 -0.65625 -0.125 -1.1875q-0.109375 -0.546875 -0.359375 -0.921875q-0.234375 -0.375 -0.625 -0.578125q-0.390625 -0.21875 -0.96875 -0.21875zm5.296646 -0.328125q0.609375 -0.375 1.40625 -0.546875q0.8125 -0.171875 1.6875 -0.171875q0.84375 0 1.34375 0.21875q0.5 0.21875 0.765625 0.59375q0.265625 0.359375 0.34375 0.796875q0.09375 0.421875 0.09375 0.859375q0 0.953125 -0.046875 1.875q-0.046875 0.90625 -0.046875 1.71875q0 0.59375 0.046875 1.125q0.046875 0.515625 0.171875 0.96875l-0.9375 0l-0.34375 -1.125l-0.078125 0q-0.140625 0.234375 -0.359375 0.453125q-0.21875 0.203125 -0.515625 0.375q-0.296875 0.171875 -0.703125 0.28125q-0.40625 0.109375 -0.90625 0.109375q-0.515625 0 -0.96875 -0.15625q-0.4375 -0.15625 -0.765625 -0.453125q-0.3125 -0.296875 -0.5 -0.703125q-0.171875 -0.421875 -0.171875 -0.953125q0 -0.703125 0.28125 -1.171875q0.296875 -0.484375 0.8125 -0.765625q0.515625 -0.28125 1.25 -0.390625q0.734375 -0.125 1.609375 -0.125q0.21875 0 0.4375 0q0.21875 0 0.4375 0.03125q0.046875 -0.484375 0.046875 -0.859375q0 -0.875 -0.359375 -1.234375q-0.34375 -0.359375 -1.265625 -0.359375q-0.28125 0 -0.59375 0.046875q-0.3125 0.046875 -0.640625 0.125q-0.328125 0.0625 -0.625 0.171875q-0.28125 0.09375 -0.515625 0.21875l-0.390625 -0.953125zm2.265625 6.421875q0.453125 0 0.796875 -0.125q0.359375 -0.125 0.609375 -0.296875q0.265625 -0.1875 0.421875 -0.40625q0.171875 -0.234375 0.25 -0.4375l0 -1.328125q-0.21875 -0.015625 -0.453125 -0.015625q-0.234375 -0.015625 -0.453125 -0.015625q-0.5 0 -0.96875 0.0625q-0.46875 0.046875 -0.828125 0.203125q-0.359375 0.140625 -0.578125 0.40625q-0.21875 0.265625 -0.21875 0.671875q0 0.546875 0.390625 0.921875q0.40625 0.359375 1.03125 0.359375zm9.576645 -5.78125q-0.484375 -0.15625 -0.921875 -0.15625q-0.6875 0 -1.09375 0.375q-0.390625 0.375 -0.484375 0.953125l0 5.59375l-1.28125 0l0 -8.0l0.890625 0l0.25 0.96875l0.0625 0q0.296875 -0.53125 0.71875 -0.828125q0.421875 -0.296875 1.078125 -0.296875q0.46875 0 1.046875 0.15625l-0.265625 1.234375zm1.0762634 -1.234375l1.25 0l0 -1.578125l1.28125 -0.375l0 1.953125l2.171875 0l0 1.125l-2.171875 0l0 4.421875q0 0.84375 0.203125 1.1875q0.21875 0.34375 0.703125 0.34375q0.421875 0 0.703125 -0.09375q0.296875 -0.09375 0.640625 -0.234375l0.296875 0.984375q-0.4375 0.203125 -0.953125 0.328125q-0.5 0.125 -1.09375 0.125q-0.984375 0 -1.390625 -0.546875q-0.390625 -0.546875 -0.390625 -1.84375l0 -4.671875l-1.25 0l0 -1.125z" fill-rule="nonzero"/><path fill="#000000" fill-opacity="0.0" d="m228.33395 87.526146l20.434235 0l0 22.614174l-20.434235 0z" fill-rule="evenodd"/><path fill="#000000" d="m236.71153 95.352394q0 0.984375 -0.375 2.03125q-0.359375 1.03125 -0.953125 2.078125q-0.578125 1.046875 -1.3125 2.046875q-0.71875 0.984375 -1.453125 1.890625l-0.90625 0.796875l0 0.078125l1.1875 -0.203125l4.0625 0l0 1.375l-7.421875 0l0 -0.546875q0.40625 -0.421875 0.984375 -1.046875q0.578125 -0.640625 1.203125 -1.40625q0.625 -0.78125 1.234375 -1.640625q0.609375 -0.875 1.09375 -1.765625q0.5 -0.90625 0.796875 -1.78125q0.296875 -0.875 0.296875 -1.65625q0 -0.921875 -0.515625 -1.53125q-0.515625 -0.609375 -1.578125 -0.609375q-0.71875 0 -1.390625 0.296875q-0.671875 0.28125 -1.15625 0.65625l-0.609375 -1.0625q0.65625 -0.5625 1.546875 -0.875q0.890625 -0.3125 1.921875 -0.3125q0.796875 0 1.40625 0.234375q0.625 0.234375 1.046875 0.671875q0.4375 0.421875 0.65625 1.015625q0.234375 0.578125 0.234375 1.265625zm3.8551636 8.71875l2.609375 0l0 -9.03125l0.1875 -1.109375l-0.75 0.875l-2.046875 1.484375l-0.703125 -0.953125l4.09375 -3.171875l0.671875 0l0 11.90625l2.5625 0l0 1.375l-6.625 0l0 -1.375z" fill-rule="nonzero"/><path fill="#000000" fill-opacity="0.0" d="m157.97745 64.11646c0 17.354332 35.177536 34.708656 70.35506 34.708656" fill-rule="evenodd"/><path stroke="#000000" stroke-width="1.0" stroke-linejoin="round" stroke-linecap="butt" d="m157.97745 64.11646c0 17.354332 35.177536 34.708656 70.35506 34.708656" fill-rule="evenodd"/><path fill="#000000" fill-opacity="0.0" d="m248.76819 98.83323c47.60614 0 95.21228 -18.866142 95.21228 -37.73228" fill-rule="evenodd"/><path stroke="#000000" stroke-width="1.0" stroke-linejoin="round" stroke-linecap="butt" d="m248.76819 98.83323c23.80307 0 47.60614 -4.7165375 65.458435 -11.791336c8.926147 -3.5373993 16.364594 -7.6643677 21.571533 -12.086121c2.6034546 -2.2108765 4.649048 -4.495453 6.043762 -6.8168716c0.69732666 -1.1607056 1.2319946 -2.3306274 1.5922852 -3.5051575l0.042510986 -0.1429367" fill-rule="evenodd"/><path fill="#000000" stroke="#000000" stroke-width="1.0" stroke-linecap="butt" d="m343.4767 64.49081l0.947052 1.2776718l-0.6582031 -3.221508l-1.5665283 2.8909035z" fill-rule="evenodd"/><path fill="#000000" fill-opacity="0.0" d="m255.59059 6.859479l20.43422 0l0 22.614174l-20.43422 0z" fill-rule="evenodd"/><path fill="#000000" d="m257.65567 23.404478l2.609375 0l0 -9.031251l0.1875 -1.109375l-0.75 0.875l-2.046875 1.484375l-0.703125 -0.953125l4.09375 -3.171875l0.671875 0l0 11.906251l2.5625 0l0 1.375l-6.625 0l0 -1.375zm9.120789 -7.734376q0 -0.890625 0.265625 -1.65625q0.265625 -0.765625 0.765625 -1.328125q0.5 -0.5625 1.25 -0.875q0.765625 -0.3125 1.765625 -0.3125q1.90625 0 2.96875 1.234375q1.0625 1.21875 1.0625 3.468751q0 2.109375 -0.484375 3.6875q-0.46875 1.5625 -1.3125 2.65625q-0.828125 1.078125 -1.984375 1.6875q-1.140625 0.609375 -2.484375 0.765625l-0.34375 -1.1875q1.09375 -0.171875 1.953125 -0.640625q0.875 -0.46875 1.5 -1.171875q0.625 -0.703125 1.015625 -1.609375q0.390625 -0.90625 0.53125 -1.96875q-0.5 0.59375 -1.109375 0.828125q-0.59375 0.234375 -1.59375 0.234375q-0.765625 0 -1.453125 -0.25q-0.671875 -0.25 -1.203125 -0.734375q-0.515625 -0.484375 -0.8125 -1.1875q-0.296875 -0.71875 -0.296875 -1.640626zm1.546875 -0.140625q0 1.328126 0.703125 1.984376q0.703125 0.65625 1.84375 0.65625q0.90625 0 1.5625 -0.296875q0.65625 -0.296875 0.9375 -0.78125q0.03125 -0.234375 0.03125 -0.421875q0 -0.1875 0 -0.390625q0 -0.67187595 -0.15625 -1.296876q-0.15625 -0.625 -0.484375 -1.125q-0.3125 -0.5 -0.828125 -0.78125q-0.515625 -0.28125 -1.203125 -0.28125q-1.140625 0 -1.78125 0.71875q-0.625 0.71875 -0.625 2.015625z" fill-rule="nonzero"/><path fill="#000000" fill-opacity="0.0" d="m255.59059 18.166565c-48.800354 0 -97.60069 19.811024 -97.60069 39.622047" fill-rule="evenodd"/><path stroke="#000000" stroke-width="1.0" stroke-linejoin="round" stroke-linecap="butt" d="m255.59059 18.166565c-24.400177 0 -48.800354 4.952757 -67.10048 12.381891c-9.15007 3.7145672 -16.775131 8.048227 -22.112656 12.691435c-2.6687775 2.3216057 -4.7656555 4.7205963 -6.1953583 7.1582794c-0.714859 1.2188416 -1.2628937 2.4473572 -1.6322327 3.6807137c-0.023101807 0.07708359 -0.04547119 0.15418243 -0.06716919 0.23130798l-0.022766113 0.083717346" fill-rule="evenodd"/><path fill="#000000" stroke="#000000" stroke-width="1.0" stroke-linecap="butt" d="m158.45993 54.393913l-0.9597168 -1.2681999l0.69018555 3.2148094l1.5377197 -2.9063263z" fill-rule="evenodd"/><path fill="#000000" fill-opacity="0.0" d="m276.0248 18.166565c33.983307 0 67.966644 18.31496 67.966644 36.62992" fill-rule="evenodd"/><path stroke="#000000" stroke-width="1.0" stroke-linejoin="round" stroke-linecap="butt" d="m276.0248 18.166565c33.983307 0 67.966644 18.31496 67.966644 36.62992" fill-rule="evenodd"/><path fill="#000000" fill-opacity="0.0" d="m150.82962 60.953968c0 -2.4700623 1.8746338 -4.4724426 4.1871033 -4.4724426c1.1104889 0 2.1754913 0.47120285 2.9607239 1.309948c0.78523254 0.8387451 1.2263794 1.9763298 1.2263794 3.1624947c0 2.4700584 -1.8746338 4.472439 -4.1871033 4.472439c-2.3124695 0 -4.1871033 -2.0023804 -4.1871033 -4.472439z" fill-rule="evenodd"/><path fill="#000000" fill-opacity="0.0" d="m342.7506 57.953968c0 -2.4700623 1.8746338 -4.4724426 4.1871033 -4.4724426c1.1105042 0 2.1755066 0.47120285 2.9607239 1.309948c0.7852478 0.8387451 1.2263794 1.9763298 1.2263794 3.1624947c0 2.4700584 -1.8746338 4.472439 -4.1871033 4.472439c-2.3124695 0 -4.1871033 -2.0023804 -4.1871033 -4.472439z" fill-rule="evenodd"/><path fill="#000000" fill-opacity="0.0" d="m371.41348 43.408035l39.433075 0l0 39.433067l-39.433075 0z" fill-rule="evenodd"/><path stroke="#000000" stroke-width="2.0" stroke-linejoin="round" stroke-linecap="butt" d="m371.41348 43.408035l39.433075 0l0 39.433067l-39.433075 0z" fill-rule="evenodd"/><path fill="#000000" d="m387.40076 59.95082q0 0.984375 -0.375 2.03125q-0.359375 1.03125 -0.953125 2.078125q-0.578125 1.046875 -1.3125 2.046875q-0.71875 0.984375 -1.453125 1.890625l-0.90625 0.796875l0 0.078125l1.1875 -0.203125l4.0625 0l0 1.375l-7.421875 0l0 -0.546875q0.40625 -0.421875 0.984375 -1.046875q0.578125 -0.640625 1.203125 -1.40625q0.625 -0.78125 1.234375 -1.640625q0.609375 -0.875 1.09375 -1.765625q0.5 -0.90625 0.796875 -1.78125q0.296875 -0.875 0.296875 -1.65625q0 -0.921875 -0.515625 -1.53125q-0.515625 -0.609375 -1.578125 -0.609375q-0.71875 0 -1.390625 0.296875q-0.671875 0.28125 -1.15625 0.65625l-0.609375 -1.0625q0.65625 -0.5625 1.546875 -0.875q0.890625 -0.3125 1.921875 -0.3125q0.796875 0 1.40625 0.234375q0.625 0.234375 1.046875 0.671875q0.4375 0.421875 0.65625 1.015625q0.234375 0.578125 0.234375 1.265625zm3.8551636 8.71875l2.609375 0l0 -9.03125l0.1875 -1.109375l-0.75 0.875l-2.046875 1.484375l-0.703125 -0.953125l4.09375 -3.171875l0.671875 0l0 11.90625l2.5625 0l0 1.375l-6.625 0l0 -1.375z" fill-rule="nonzero"/><path fill="#000000" fill-opacity="0.0" d="m349.49222 102.95502l0 -20.062996" fill-rule="evenodd"/><path stroke="#000000" stroke-width="2.0" stroke-linejoin="round" stroke-linecap="butt" d="m349.49222 102.955025l0 -8.063004" fill-rule="evenodd"/><path fill="#000000" stroke="#000000" stroke-width="2.0" stroke-linecap="butt" d="m352.7957 94.89202l-3.3034668 -9.076195l-3.3034668 9.076195z" fill-rule="evenodd"/><path fill="#000000" fill-opacity="0.0" d="m309.2875 102.95502l80.409454 0l0 26.645676l-80.409454 0z" fill-rule="evenodd"/><path fill="#000000" d="m324.10315 122.03785l0.96875 -4.53125q0.125 -0.5625 0.1875 -0.984375q0.0625 -0.4375 0.0625 -0.75q0 -0.4375 -0.15625 -0.671875q-0.15625 -0.234375 -0.546875 -0.234375q-0.40625 0 -0.796875 0.21875q-0.375 0.203125 -0.71875 0.515625q-0.328125 0.3125 -0.609375 0.671875q-0.28125 0.34375 -0.4375 0.625l-1.046875 5.140625l-1.203125 0l1.6875 -8.0l0.859375 0l-0.09375 1.375l0.0625 0q0.25 -0.25 0.546875 -0.53125q0.296875 -0.28125 0.65625 -0.5q0.359375 -0.234375 0.78125 -0.375q0.421875 -0.15625 0.9375 -0.15625q0.71875 0 0.96875 0.453125q0.25 0.4375 0.25 1.234375q0.234375 -0.296875 0.546875 -0.59375q0.328125 -0.3125 0.703125 -0.546875q0.375 -0.25 0.796875 -0.390625q0.421875 -0.15625 0.828125 -0.15625q0.734375 0 1.125 0.34375q0.390625 0.34375 0.390625 1.265625q0 0.671875 -0.234375 1.78125l-1.0 4.796875l-1.203125 0l1.0 -4.8125q0.09375 -0.46875 0.15625 -0.828125q0.0625 -0.375 0.0625 -0.640625q0 -0.4375 -0.1875 -0.65625q-0.171875 -0.234375 -0.59375 -0.234375q-0.328125 0 -0.703125 0.21875q-0.375 0.21875 -0.734375 0.546875q-0.34375 0.3125 -0.625 0.6875q-0.28125 0.359375 -0.4375 0.671875l-1.046875 5.046875l-1.203125 0zm9.895538 -8.0l1.203125 0l-1.703125 8.0l-1.203125 0l1.703125 -8.0zm0.25 -2.453125q0 -0.359375 0.25 -0.609375q0.25 -0.265625 0.625 -0.265625q0.359375 0 0.609375 0.265625q0.265625 0.25 0.265625 0.609375q0 0.375 -0.265625 0.625q-0.25 0.25 -0.609375 0.25q-0.375 0 -0.625 -0.25q-0.25 -0.25 -0.25 -0.625zm6.6283875 10.453125l1.078125 -5.0625q0.0625 -0.28125 0.109375 -0.5625q0.046875 -0.28125 0.046875 -0.5q0 -0.46875 -0.21875 -0.75q-0.21875 -0.296875 -0.8125 -0.296875q-0.40625 0 -0.8125 0.203125q-0.40625 0.1875 -0.765625 0.484375q-0.34375 0.296875 -0.625 0.65625q-0.265625 0.359375 -0.46875 0.703125l-1.046875 5.125l-1.203125 0l1.6875 -8.0l0.84375 0l-0.0625 1.375l0.0625 0q0.203125 -0.25 0.484375 -0.53125q0.296875 -0.28125 0.65625 -0.5q0.359375 -0.234375 0.796875 -0.375q0.453125 -0.15625 1.0 -0.15625q0.796875 0 1.265625 0.390625q0.46875 0.375 0.46875 1.328125q0 0.484375 -0.15625 1.15625l-1.125 5.3125l-1.203125 0zm6.4145203 -11.203125l1.28125 0l-2.375 11.203125l-1.28125 0l2.375 -11.203125zm6.369507 11.203125l1.078125 -5.0625q0.0625 -0.28125 0.109375 -0.5625q0.046875 -0.28125 0.046875 -0.5q0 -0.46875 -0.21875 -0.75q-0.21875 -0.296875 -0.8125 -0.296875q-0.40625 0 -0.8125 0.203125q-0.40625 0.1875 -0.765625 0.484375q-0.34375 0.296875 -0.625 0.65625q-0.265625 0.359375 -0.46875 0.703125l-1.046875 5.125l-1.203125 0l1.6875 -8.0l0.84375 0l-0.0625 1.375l0.0625 0q0.203125 -0.25 0.484375 -0.53125q0.296875 -0.28125 0.65625 -0.5q0.359375 -0.234375 0.796875 -0.375q0.453125 -0.15625 1.0 -0.15625q0.796875 0 1.265625 0.390625q0.46875 0.375 0.46875 1.328125q0 0.484375 -0.15625 1.15625l-1.125 5.3125l-1.203125 0zm9.75827 -2.75q-0.125 0.625 -0.1875 1.171875q-0.0625 0.53125 -0.0625 1.0q0 0.171875 0 0.328125q0.015625 0.140625 0.03125 0.28125l-0.796875 0l-0.234375 -1.390625l-0.0625 0q-0.1875 0.265625 -0.484375 0.546875q-0.28125 0.28125 -0.640625 0.515625q-0.34375 0.21875 -0.734375 0.34375q-0.390625 0.140625 -0.8125 0.140625q-0.875 0 -1.40625 -0.640625q-0.515625 -0.65625 -0.515625 -2.0625q0 -0.9375 0.265625 -1.9375q0.28125 -1.0 0.8125 -1.8125q0.53125 -0.828125 1.3125 -1.34375q0.796875 -0.53125 1.84375 -0.53125q0.28125 0 0.484375 0.015625q0.21875 0.015625 0.390625 0.046875q0.1875 0.03125 0.34375 0.09375q0.171875 0.046875 0.34375 0.109375l0.703125 -3.328125l1.203125 0l-1.796875 8.453125zm-3.53125 1.921875q0.328125 0 0.671875 -0.1875q0.359375 -0.1875 0.671875 -0.453125q0.3125 -0.28125 0.5625 -0.59375q0.25 -0.3125 0.390625 -0.578125l0.90625 -4.15625q-0.28125 -0.171875 -0.625 -0.25q-0.34375 -0.078125 -0.90625 -0.078125q-0.640625 0 -1.15625 0.390625q-0.5 0.390625 -0.859375 1.046875q-0.359375 0.65625 -0.5625 1.515625q-0.1875 0.84375 -0.1875 1.734375q0 0.65625 0.25 1.140625q0.265625 0.46875 0.84375 0.46875zm11.190887 0.046875q-0.5625 0.484375 -1.328125 0.734375q-0.75 0.234375 -1.515625 0.234375q-1.28125 0 -1.9375 -0.734375q-0.640625 -0.734375 -0.640625 -2.046875q0 -1.3125 0.359375 -2.34375q0.375 -1.046875 0.96875 -1.765625q0.609375 -0.71875 1.359375 -1.09375q0.765625 -0.390625 1.578125 -0.390625q0.5625 0 0.984375 0.15625q0.4375 0.15625 0.703125 0.421875q0.28125 0.265625 0.40625 0.609375q0.125 0.34375 0.125 0.734375q0 1.125 -1.109375 1.78125q-1.09375 0.640625 -3.21875 0.640625q-0.1875 0 -0.390625 0q-0.203125 -0.015625 -0.4375 -0.03125q-0.0625 0.3125 -0.09375 0.578125q-0.03125 0.265625 -0.03125 0.484375q0 0.875 0.390625 1.4375q0.40625 0.546875 1.25 0.546875q0.71875 0 1.296875 -0.234375q0.578125 -0.234375 0.90625 -0.484375l0.375 0.765625zm-1.359375 -6.390625q-0.875 0 -1.53125 0.609375q-0.640625 0.59375 -0.96875 1.796875q0.59375 0 1.25 -0.03125q0.65625 -0.03125 1.1875 -0.171875q0.546875 -0.140625 0.890625 -0.4375q0.359375 -0.296875 0.359375 -0.8125q0 -0.171875 -0.0625 -0.328125q-0.046875 -0.171875 -0.171875 -0.296875q-0.125 -0.140625 -0.359375 -0.234375q-0.234375 -0.09375 -0.59375 -0.09375zm5.542633 3.078125l-1.71875 -3.90625l1.359375 0l0.953125 2.203125l0.28125 0.921875l0.65625 -0.921875l1.9375 -2.203125l1.453125 0l-3.390625 3.84375l1.90625 4.15625l-1.359375 0l-1.09375 -2.4375l-0.3125 -0.953125l-0.671875 0.953125l-2.140625 2.4375l-1.46875 0l3.609375 -4.09375z" fill-rule="nonzero"/><path fill="#000000" fill-opacity="0.0" d="m437.41873 43.352917l39.433075 0l0 39.43307l-39.433075 0z" fill-rule="evenodd"/><path stroke="#000000" stroke-width="2.0" stroke-linejoin="round" stroke-linecap="butt" d="m437.41873 43.352917l39.433075 0l0 39.43307l-39.433075 0z" fill-rule="evenodd"/><path fill="#000000" d="m453.13046 60.880077q0 -0.890625 0.265625 -1.65625q0.265625 -0.765625 0.765625 -1.328125q0.5 -0.5625 1.25 -0.875q0.765625 -0.3125 1.765625 -0.3125q1.90625 0 2.96875 1.234375q1.0625 1.21875 1.0625 3.46875q0 2.109375 -0.484375 3.6874962q-0.46875 1.5625 -1.3125 2.65625q-0.828125 1.078125 -1.984375 1.6875q-1.140625 0.609375 -2.484375 0.765625l-0.34375 -1.1875q1.09375 -0.171875 1.953125 -0.640625q0.875 -0.46875 1.5 -1.171875q0.625 -0.703125 1.015625 -1.609375q0.390625 -0.90625 0.53125 -1.9687462q-0.5 0.5937462 -1.109375 0.8281212q-0.59375 0.234375 -1.59375 0.234375q-0.765625 0 -1.453125 -0.25q-0.671875 -0.25 -1.203125 -0.7343712q-0.515625 -0.484375 -0.8125 -1.1875q-0.296875 -0.71875 -0.296875 -1.640625zm1.546875 -0.140625q0 1.328125 0.703125 1.984375q0.703125 0.65625 1.84375 0.65625q0.90625 0 1.5625 -0.296875q0.65625 -0.296875 0.9375 -0.78125q0.03125 -0.234375 0.03125 -0.421875q0 -0.1875 0 -0.390625q0 -0.671875 -0.15625 -1.296875q-0.15625 -0.625 -0.484375 -1.125q-0.3125 -0.5 -0.828125 -0.78125q-0.515625 -0.28125 -1.203125 -0.28125q-1.140625 0 -1.78125 0.71875q-0.625 0.71875 -0.625 2.015625z" fill-rule="nonzero"/><path fill="#000000" fill-opacity="0.0" d="m477.41873 43.352917l39.433075 0l0 39.43307l-39.433075 0z" fill-rule="evenodd"/><path stroke="#000000" stroke-width="2.0" stroke-linejoin="round" stroke-linecap="butt" d="m477.41873 43.352917l39.433075 0l0 39.43307l-39.433075 0z" fill-rule="evenodd"/><path fill="#000000" d="m487.0935 68.61445l2.609375 0l0 -9.031246l0.1875 -1.109375l-0.75 0.875l-2.046875 1.484375l-0.703125 -0.953125l4.09375 -3.171875l0.671875 0l0 11.906246l2.5625 0l0 1.375l-6.625 0l0 -1.375zm17.933289 -2.640625l-2.203125 0l0 4.015625l-1.453125 0l0 -4.015625l-5.75 0l0 -0.609375l6.1875 -8.640621l1.015625 0l0 7.953121l2.203125 0l0 1.296875zm-3.65625 -5.374996l0.1875 -1.515625l-0.0625 0l-0.65625 1.265625l-2.625 3.5625l-0.890625 0.9062462l1.296875 -0.140625l2.75 0l0 -4.078121z" fill-rule="nonzero"/><path fill="#000000" fill-opacity="0.0" d="m517.41876 43.352917l39.433044 0l0 39.43307l-39.433044 0z" fill-rule="evenodd"/><path stroke="#000000" stroke-width="2.0" stroke-linejoin="round" stroke-linecap="butt" d="m517.41876 43.352917l39.433044 0l0 39.43307l-39.433044 0z" fill-rule="evenodd"/><path fill="#000000" d="m527.0935 68.61445l2.609375 0l0 -9.031246l0.1875 -1.109375l-0.75 0.875l-2.046875 1.484375l-0.703125 -0.953125l4.09375 -3.171875l0.671875 0l0 11.906246l2.5625 0l0 1.375l-6.625 0l0 -1.375zm9.417664 -1.734375q0 -1.1875 0.609375 -2.046875q0.625 -0.8749962 1.9375 -1.5781212q-0.46875 -0.28125 -0.875 -0.578125q-0.40625 -0.3125 -0.71875 -0.703125q-0.296875 -0.390625 -0.484375 -0.875q-0.171875 -0.5 -0.171875 -1.125q0 -0.734375 0.25 -1.328125q0.265625 -0.59375 0.734375 -1.015625q0.46875 -0.4375 1.125 -0.671875q0.671875 -0.25 1.515625 -0.25q0.78125 0 1.40625 0.234375q0.640625 0.21875 1.078125 0.609375q0.4375 0.390625 0.671875 0.9375q0.25 0.53125 0.25 1.1875q0 1.0625 -0.484375 1.875q-0.484375 0.8125 -1.59375 1.59375q0.484375 0.28125 0.921875 0.625q0.4375 0.3281212 0.765625 0.7343712q0.328125 0.40625 0.515625 0.921875q0.1875 0.515625 0.1875 1.171875q0 0.796875 -0.265625 1.46875q-0.265625 0.65625 -0.765625 1.140625q-0.5 0.46875 -1.234375 0.734375q-0.734375 0.265625 -1.65625 0.265625q-0.90625 0 -1.59375 -0.25q-0.6875 -0.265625 -1.171875 -0.703125q-0.46875 -0.453125 -0.71875 -1.0625q-0.234375 -0.609375 -0.234375 -1.3125zm6.171875 -0.1875q0 -0.5625 -0.21875 -0.984375q-0.21875 -0.421875 -0.59375 -0.765625q-0.359375 -0.34375 -0.828125 -0.625q-0.46875 -0.28125 -0.96875 -0.5468712q-1.140625 0.6406212 -1.625 1.4218712q-0.484375 0.78125 -0.484375 1.5q0 0.4375 0.140625 0.859375q0.15625 0.40625 0.453125 0.703125q0.3125 0.296875 0.75 0.484375q0.4375 0.171875 1.015625 0.171875q0.46875 0 0.890625 -0.140625q0.4375 -0.140625 0.75 -0.40625q0.328125 -0.28125 0.515625 -0.703125q0.203125 -0.421875 0.203125 -0.96875zm-4.421875 -6.765621q0 0.53125 0.203125 0.9375q0.21875 0.390625 0.5625 0.71875q0.34375 0.3125 0.78125 0.578125q0.453125 0.265625 0.9375 0.515625q0.84375 -0.65625 1.234375 -1.28125q0.40625 -0.640625 0.40625 -1.40625q0 -0.953125 -0.59375 -1.46875q-0.578125 -0.515625 -1.390625 -0.515625q-0.515625 0 -0.90625 0.171875q-0.390625 0.171875 -0.671875 0.4375q-0.28125 0.25 -0.421875 0.609375q-0.140625 0.34375 -0.140625 0.703125z" fill-rule="nonzero"/><path fill="#000000" fill-opacity="0.0" d="m557.41876 43.352917l39.433044 0l0 39.43307l-39.433044 0z" fill-rule="evenodd"/><path stroke="#000000" stroke-width="2.0" stroke-linejoin="round" stroke-linecap="butt" d="m557.41876 43.352917l39.433044 0l0 39.43307l-39.433044 0z" fill-rule="evenodd"/><path fill="#000000" d="m567.0935 68.61445l2.609375 0l0 -9.031246l0.1875 -1.109375l-0.75 0.875l-2.046875 1.484375l-0.703125 -0.953125l4.09375 -3.171875l0.671875 0l0 11.906246l2.5625 0l0 1.375l-6.625 0l0 -1.375zm9.120789 -7.734371q0 -0.890625 0.265625 -1.65625q0.265625 -0.765625 0.765625 -1.328125q0.5 -0.5625 1.25 -0.875q0.765625 -0.3125 1.765625 -0.3125q1.90625 0 2.96875 1.234375q1.0625 1.21875 1.0625 3.46875q0 2.109375 -0.484375 3.6874962q-0.46875 1.5625 -1.3125 2.65625q-0.828125 1.078125 -1.984375 1.6875q-1.140625 0.609375 -2.484375 0.765625l-0.34375 -1.1875q1.09375 -0.171875 1.953125 -0.640625q0.875 -0.46875 1.5 -1.171875q0.625 -0.703125 1.015625 -1.609375q0.390625 -0.90625 0.53125 -1.9687462q-0.5 0.5937462 -1.109375 0.8281212q-0.59375 0.234375 -1.59375 0.234375q-0.765625 0 -1.453125 -0.25q-0.671875 -0.25 -1.203125 -0.7343712q-0.515625 -0.484375 -0.8125 -1.1875q-0.296875 -0.71875 -0.296875 -1.640625zm1.546875 -0.140625q0 1.328125 0.703125 1.984375q0.703125 0.65625 1.84375 0.65625q0.90625 0 1.5625 -0.296875q0.65625 -0.296875 0.9375 -0.78125q0.03125 -0.234375 0.03125 -0.421875q0 -0.1875 0 -0.390625q0 -0.671875 -0.15625 -1.296875q-0.15625 -0.625 -0.484375 -1.125q-0.3125 -0.5 -0.828125 -0.78125q-0.515625 -0.28125 -1.203125 -0.28125q-1.140625 0 -1.78125 0.71875q-0.625 0.71875 -0.625 2.015625z" fill-rule="nonzero"/><path fill="#000000" fill-opacity="0.0" d="m597.41876 43.352917l39.433044 0l0 39.43307l-39.433044 0z" fill-rule="evenodd"/><path stroke="#000000" stroke-width="2.0" stroke-linejoin="round" stroke-linecap="butt" d="m597.41876 43.352917l39.433044 0l0 39.43307l-39.433044 0z" fill-rule="evenodd"/><path fill="#000000" fill-opacity="0.0" d="m637.41876 43.352917l39.433044 0l0 39.43307l-39.433044 0z" fill-rule="evenodd"/><path stroke="#000000" stroke-width="2.0" stroke-linejoin="round" stroke-linecap="butt" d="m637.41876 43.352917l39.433044 0l0 39.43307l-39.433044 0z" fill-rule="evenodd"/><path fill="#000000" d="m653.406 59.895702q0 0.984375 -0.375 2.03125q-0.359375 1.03125 -0.953125 2.0781212q-0.578125 1.046875 -1.3125 2.046875q-0.71875 0.984375 -1.453125 1.890625l-0.90625 0.796875l0 0.078125l1.1875 -0.203125l4.0625 0l0 1.375l-7.421875 0l0 -0.546875q0.40625 -0.421875 0.984375 -1.046875q0.578125 -0.640625 1.203125 -1.40625q0.625 -0.78125 1.234375 -1.640625q0.609375 -0.875 1.09375 -1.7656212q0.5 -0.90625 0.796875 -1.78125q0.296875 -0.875 0.296875 -1.65625q0 -0.921875 -0.515625 -1.53125q-0.515625 -0.609375 -1.578125 -0.609375q-0.71875 0 -1.390625 0.296875q-0.671875 0.28125 -1.15625 0.65625l-0.609375 -1.0625q0.65625 -0.5625 1.546875 -0.875q0.890625 -0.3125 1.921875 -0.3125q0.796875 0 1.40625 0.234375q0.625 0.234375 1.046875 0.671875q0.4375 0.421875 0.65625 1.015625q0.234375 0.578125 0.234375 1.265625zm3.8864136 10.093746l4.6875 -10.937496l0.828125 -0.90625l-1.109375 0.171875l-5.3125 0l0 -1.390625l7.796875 0l0 0.5l-5.375 12.562496l-1.515625 0z" fill-rule="nonzero"/><path fill="#000000" fill-opacity="0.0" d="m677.41876 43.352917l39.433044 0l0 39.43307l-39.433044 0z" fill-rule="evenodd"/><path stroke="#000000" stroke-width="2.0" stroke-linejoin="round" stroke-linecap="butt" d="m677.41876 43.352917l39.433044 0l0 39.43307l-39.433044 0z" fill-rule="evenodd"/><path fill="#000000" d="m693.406 59.895702q0 0.984375 -0.375 2.03125q-0.359375 1.03125 -0.953125 2.0781212q-0.578125 1.046875 -1.3125 2.046875q-0.71875 0.984375 -1.453125 1.890625l-0.90625 0.796875l0 0.078125l1.1875 -0.203125l4.0625 0l0 1.375l-7.421875 0l0 -0.546875q0.40625 -0.421875 0.984375 -1.046875q0.578125 -0.640625 1.203125 -1.40625q0.625 -0.78125 1.234375 -1.640625q0.609375 -0.875 1.09375 -1.7656212q0.5 -0.90625 0.796875 -1.78125q0.296875 -0.875 0.296875 -1.65625q0 -0.921875 -0.515625 -1.53125q-0.515625 -0.609375 -1.578125 -0.609375q-0.71875 0 -1.390625 0.296875q-0.671875 0.28125 -1.15625 0.65625l-0.609375 -1.0625q0.65625 -0.5625 1.546875 -0.875q0.890625 -0.3125 1.921875 -0.3125q0.796875 0 1.40625 0.234375q0.625 0.234375 1.046875 0.671875q0.4375 0.421875 0.65625 1.015625q0.234375 0.578125 0.234375 1.265625zm3.8864136 10.093746l4.6875 -10.937496l0.828125 -0.90625l-1.109375 0.171875l-5.3125 0l0 -1.390625l7.796875 0l0 0.5l-5.375 12.562496l-1.515625 0z" fill-rule="nonzero"/><path fill="#000000" fill-opacity="0.0" d="m717.41876 43.352917l39.433044 0l0 39.43307l-39.433044 0z" fill-rule="evenodd"/><path stroke="#000000" stroke-width="2.0" stroke-linejoin="round" stroke-linecap="butt" d="m717.41876 43.352917l39.433044 0l0 39.43307l-39.433044 0z" fill-rule="evenodd"/><path fill="#000000" fill-opacity="0.0" d="m757.41876 43.352917l39.433044 0l0 39.43307l-39.433044 0z" fill-rule="evenodd"/><path stroke="#000000" stroke-width="2.0" stroke-linejoin="round" stroke-linecap="butt" d="m757.41876 43.352917l39.433044 0l0 39.43307l-39.433044 0z" fill-rule="evenodd"/><path fill="#000000" d="m773.406 59.895702q0 0.984375 -0.375 2.03125q-0.359375 1.03125 -0.953125 2.0781212q-0.578125 1.046875 -1.3125 2.046875q-0.71875 0.984375 -1.453125 1.890625l-0.90625 0.796875l0 0.078125l1.1875 -0.203125l4.0625 0l0 1.375l-7.421875 0l0 -0.546875q0.40625 -0.421875 0.984375 -1.046875q0.578125 -0.640625 1.203125 -1.40625q0.625 -0.78125 1.234375 -1.640625q0.609375 -0.875 1.09375 -1.7656212q0.5 -0.90625 0.796875 -1.78125q0.296875 -0.875 0.296875 -1.65625q0 -0.921875 -0.515625 -1.53125q-0.515625 -0.609375 -1.578125 -0.609375q-0.71875 0 -1.390625 0.296875q-0.671875 0.28125 -1.15625 0.65625l-0.609375 -1.0625q0.65625 -0.5625 1.546875 -0.875q0.890625 -0.3125 1.921875 -0.3125q0.796875 0 1.40625 0.234375q0.625 0.234375 1.046875 0.671875q0.4375 0.421875 0.65625 1.015625q0.234375 0.578125 0.234375 1.265625zm3.8551636 8.718746l2.609375 0l0 -9.031246l0.1875 -1.109375l-0.75 0.875l-2.046875 1.484375l-0.703125 -0.953125l4.09375 -3.171875l0.671875 0l0 11.906246l2.5625 0l0 1.375l-6.625 0l0 -1.375z" fill-rule="nonzero"/><path fill="#000000" fill-opacity="0.0" d="m616.52924 102.8411l0.5983887 -20.062988" fill-rule="evenodd"/><path stroke="#000000" stroke-width="2.0" stroke-linejoin="round" stroke-linecap="butt" d="m616.52924 102.8411l0.24066162 -8.068321" fill-rule="evenodd"/><path fill="#000000" stroke="#000000" stroke-width="2.0" stroke-linecap="butt" d="m620.0719 94.87127l-3.031433 -9.170654l-3.5725708 8.973671z" fill-rule="evenodd"/><path fill="#000000" fill-opacity="0.0" d="m586.6867 102.8411l59.68506 0l0 26.645668l-59.68506 0z" fill-rule="evenodd"/><path fill="#000000" d="m609.0197 113.92394l1.203125 0l-1.703125 8.0l-1.203125 0l1.703125 -8.0zm0.25 -2.453125q0 -0.359375 0.25 -0.609375q0.25 -0.265625 0.625 -0.265625q0.359375 0 0.609375 0.265625q0.265625 0.25 0.265625 0.609375q0 0.375 -0.265625 0.625q-0.25 0.25 -0.609375 0.25q-0.375 0 -0.625 -0.25q-0.25 -0.25 -0.25 -0.625zm2.206482 3.140625l6.78125 0l0 1.15625l-6.78125 0l0 -1.15625zm0 2.65625l6.78125 0l0 1.15625l-6.78125 0l0 -1.15625zm15.023804 1.21875l-1.796875 0l-0.71875 3.4375l-1.171875 0l0.71875 -3.4375l-4.703125 0l0.109375 -0.53125l6.640625 -7.40625l0.8125 0l-1.453125 6.84375l1.796875 0l-0.234375 1.09375zm-1.984375 -4.609375l0.4375 -1.3125l-0.0625 0l-0.75 1.09375l-2.765625 3.046875l-0.890625 0.796875l1.078125 -0.109375l2.203125 0l0.75 -3.515625z" fill-rule="nonzero"/><path fill="#000000" fill-opacity="0.0" d="m597.1841 87.338585c0 4.444374 -3.6028442 8.047249 -8.047241 8.047249l-64.92914 0c-4.444336 0 -8.047241 3.6028671 -8.047241 8.047241c0 -4.444374 -3.6028442 -8.047241 -8.047241 -8.047241l-64.92914 0c-4.4443665 0 -8.047241 -3.6028748 -8.047241 -8.047249z" fill-rule="evenodd"/><path fill="#000000" fill-opacity="0.0" d="m597.1841 87.338585c0 4.444374 -3.6028442 8.047249 -8.047241 8.047249l-64.92914 0c-4.444336 0 -8.047241 3.6028671 -8.047241 8.047241c0 -4.444374 -3.6028442 -8.047241 -8.047241 -8.047241l-64.92914 0c-4.4443665 0 -8.047241 -3.6028748 -8.047241 -8.047249" fill-rule="evenodd"/><path stroke="#000000" stroke-width="1.0" stroke-linejoin="round" stroke-linecap="butt" d="m597.1841 87.338585c0 4.444374 -3.6028442 8.047249 -8.047241 8.047249l-64.92914 0c-4.444336 0 -8.047241 3.6028671 -8.047241 8.047241c0 -4.444374 -3.6028442 -8.047241 -8.047241 -8.047241l-64.92914 0c-4.4443665 0 -8.047241 -3.6028748 -8.047241 -8.047249" fill-rule="evenodd"/><path fill="#000000" fill-opacity="0.0" d="m443.2565 96.49111l137.44882 0l0 26.645668l-137.44882 0z" fill-rule="evenodd"/><path fill="#000000" d="m479.01883 113.40207q0 -0.484375 -0.296875 -0.75q-0.28125 -0.28125 -0.703125 -0.453125q-0.421875 -0.1875 -0.9375 -0.359375q-0.5 -0.171875 -0.921875 -0.4375q-0.421875 -0.265625 -0.71875 -0.671875q-0.28125 -0.421875 -0.28125 -1.125q0 -1.15625 0.65625 -1.6875q0.65625 -0.53125 1.828125 -0.53125q0.859375 0 1.4375 0.15625q0.59375 0.140625 1.03125 0.34375l-0.3125 1.0625q-0.359375 -0.171875 -0.890625 -0.3125q-0.515625 -0.140625 -1.109375 -0.140625q-0.703125 0 -1.03125 0.25q-0.328125 0.234375 -0.328125 0.828125q0 0.421875 0.28125 0.65625q0.296875 0.21875 0.71875 0.40625q0.421875 0.1875 0.921875 0.359375q0.515625 0.171875 0.9375 0.46875q0.421875 0.28125 0.703125 0.734375q0.296875 0.4375 0.296875 1.15625q0 0.5 -0.171875 0.953125q-0.15625 0.453125 -0.515625 0.78125q-0.359375 0.3125 -0.875 0.484375q-0.515625 0.1875 -1.21875 0.1875q-0.90625 0 -1.546875 -0.171875q-0.640625 -0.171875 -1.078125 -0.421875l0.390625 -1.078125q0.359375 0.203125 0.953125 0.390625q0.59375 0.171875 1.203125 0.171875q0.6875 0 1.125 -0.265625q0.453125 -0.28125 0.453125 -0.984375zm2.7672424 -1.828125q0 -2.03125 0.90625 -3.109375q0.90625 -1.078125 2.59375 -1.078125q0.90625 0 1.5625 0.296875q0.671875 0.296875 1.09375 0.84375q0.4375 0.546875 0.640625 1.328125q0.21875 0.78125 0.21875 1.71875q0 2.03125 -0.90625 3.109375q-0.90625 1.078125 -2.609375 1.078125q-0.890625 0 -1.5625 -0.296875q-0.65625 -0.296875 -1.09375 -0.84375q-0.421875 -0.546875 -0.640625 -1.328125q-0.203125 -0.78125 -0.203125 -1.71875zm1.328125 0q0 0.609375 0.125 1.171875q0.125 0.5625 0.375 0.984375q0.25 0.40625 0.671875 0.671875q0.421875 0.25 1.0 0.25q2.1875 0.015625 2.1875 -3.078125q0 -0.625 -0.125 -1.1875q-0.125 -0.5625 -0.375 -0.96875q-0.25 -0.421875 -0.671875 -0.671875q-0.421875 -0.25 -1.015625 -0.25q-2.171875 -0.015625 -2.171875 3.078125zm11.482269 -2.765625q-0.484375 -0.15625 -0.921875 -0.15625q-0.6875 0 -1.09375 0.375q-0.390625 0.375 -0.484375 0.953125l0 5.59375l-1.28125 0l0 -8.0l0.890625 0l0.25 0.96875l0.0625 0q0.296875 -0.53125 0.71875 -0.828125q0.421875 -0.296875 1.078125 -0.296875q0.46875 0 1.046875 0.15625l-0.265625 1.234375zm1.0762634 -1.234375l1.25 0l0 -1.578125l1.28125 -0.375l0 1.953125l2.171875 0l0 1.125l-2.171875 0l0 4.421875q0 0.84375 0.203125 1.1875q0.21875 0.34375 0.703125 0.34375q0.421875 0 0.703125 -0.09375q0.296875 -0.09375 0.640625 -0.234375l0.296875 0.984375q-0.4375 0.203125 -0.953125 0.328125q-0.5 0.125 -1.09375 0.125q-0.984375 0 -1.390625 -0.546875q-0.390625 -0.546875 -0.390625 -1.84375l0 -4.671875l-1.25 0l0 -1.125zm12.154266 7.359375q-0.484375 0.390625 -1.21875 0.609375q-0.71875 0.21875 -1.546875 0.21875q-0.90625 0 -1.578125 -0.296875q-0.671875 -0.296875 -1.109375 -0.84375q-0.421875 -0.546875 -0.640625 -1.3125q-0.203125 -0.78125 -0.203125 -1.734375q0 -2.046875 0.90625 -3.109375q0.921875 -1.078125 2.609375 -1.078125q0.546875 0 1.09375 0.125q0.546875 0.109375 0.96875 0.453125q0.4375 0.328125 0.703125 0.953125q0.28125 0.609375 0.28125 1.609375q0 0.53125 -0.09375 1.171875l-5.140625 0q0 0.703125 0.140625 1.25q0.15625 0.546875 0.453125 0.921875q0.3125 0.375 0.796875 0.578125q0.484375 0.203125 1.1875 0.203125q0.546875 0 1.078125 -0.1875q0.546875 -0.203125 0.828125 -0.453125l0.484375 0.921875zm-2.765625 -6.4375q-0.9375 0 -1.515625 0.5q-0.5625 0.5 -0.671875 1.703125l3.96875 0q0 -1.21875 -0.46875 -1.703125q-0.453125 -0.5 -1.3125 -0.5zm11.190521 4.328125q0 0.8125 0.015625 1.484375q0.015625 0.65625 0.140625 1.296875l-0.859375 0l-0.3125 -1.140625l-0.078125 0q-0.3125 0.5625 -0.921875 0.9375q-0.609375 0.359375 -1.421875 0.359375q-1.59375 0 -2.375 -1.0q-0.78125 -1.015625 -0.78125 -3.15625q0 -2.046875 0.96875 -3.109375q0.96875 -1.0625 2.671875 -1.0625q0.59375 0 0.9375 0.0625q0.34375 0.0625 0.734375 0.203125l0 -3.328125l1.28125 0l0 8.453125zm-3.234375 1.828125q0.8125 0 1.296875 -0.421875q0.484375 -0.4375 0.65625 -1.296875l0 -3.96875q-0.28125 -0.21875 -0.65625 -0.3125q-0.359375 -0.109375 -0.96875 -0.109375q-1.109375 0 -1.734375 0.734375q-0.625 0.734375 -0.625 2.328125q0 0.65625 0.09375 1.21875q0.109375 0.5625 0.34375 0.96875q0.25 0.390625 0.640625 0.625q0.390625 0.234375 0.953125 0.234375zm9.973755 -7.078125l0.875 0l0.25 0.953125l0.0625 0q0.359375 -0.546875 0.9375 -0.84375q0.59375 -0.296875 1.34375 -0.296875q1.59375 0 2.375 0.953125q0.796875 0.9375 0.796875 3.078125q0 1.0 -0.265625 1.8125q-0.265625 0.8125 -0.75 1.375q-0.46875 0.546875 -1.15625 0.859375q-0.671875 0.296875 -1.515625 0.296875q-0.59375 0 -0.9375 -0.078125q-0.34375 -0.0625 -0.734375 -0.234375l0 3.328125l-1.28125 0l0 -11.203125zm3.234375 0.921875q-0.828125 0 -1.296875 0.4375q-0.46875 0.421875 -0.65625 1.28125l0 3.96875q0.28125 0.21875 0.640625 0.34375q0.375 0.125 0.984375 0.125q1.109375 0 1.75 -0.828125q0.65625 -0.828125 0.65625 -2.421875q0 -0.65625 -0.125 -1.1875q-0.109375 -0.546875 -0.359375 -0.921875q-0.234375 -0.375 -0.625 -0.578125q-0.390625 -0.21875 -0.96875 -0.21875zm5.296692 -0.328125q0.609375 -0.375 1.40625 -0.546875q0.8125 -0.171875 1.6875 -0.171875q0.84375 0 1.34375 0.21875q0.5 0.21875 0.765625 0.59375q0.265625 0.359375 0.34375 0.796875q0.09375 0.421875 0.09375 0.859375q0 0.953125 -0.046875 1.875q-0.046875 0.90625 -0.046875 1.71875q0 0.59375 0.046875 1.125q0.046875 0.515625 0.171875 0.96875l-0.9375 0l-0.34375 -1.125l-0.078125 0q-0.140625 0.234375 -0.359375 0.453125q-0.21875 0.203125 -0.515625 0.375q-0.296875 0.171875 -0.703125 0.28125q-0.40625 0.109375 -0.90625 0.109375q-0.515625 0 -0.96875 -0.15625q-0.4375 -0.15625 -0.765625 -0.453125q-0.3125 -0.296875 -0.5 -0.703125q-0.171875 -0.421875 -0.171875 -0.953125q0 -0.703125 0.28125 -1.171875q0.296875 -0.484375 0.8125 -0.765625q0.515625 -0.28125 1.25 -0.390625q0.734375 -0.125 1.609375 -0.125q0.21875 0 0.4375 0q0.21875 0 0.4375 0.03125q0.046875 -0.484375 0.046875 -0.859375q0 -0.875 -0.359375 -1.234375q-0.34375 -0.359375 -1.265625 -0.359375q-0.28125 0 -0.59375 0.046875q-0.3125 0.046875 -0.640625 0.125q-0.328125 0.0625 -0.625 0.171875q-0.28125 0.09375 -0.515625 0.21875l-0.390625 -0.953125zm2.265625 6.421875q0.453125 0 0.796875 -0.125q0.359375 -0.125 0.609375 -0.296875q0.265625 -0.1875 0.421875 -0.40625q0.171875 -0.234375 0.25 -0.4375l0 -1.328125q-0.21875 -0.015625 -0.453125 -0.015625q-0.234375 -0.015625 -0.453125 -0.015625q-0.5 0 -0.96875 0.0625q-0.46875 0.046875 -0.828125 0.203125q-0.359375 0.140625 -0.578125 0.40625q-0.21875 0.265625 -0.21875 0.671875q0 0.546875 0.390625 0.921875q0.40625 0.359375 1.03125 0.359375zm9.576599 -5.78125q-0.484375 -0.15625 -0.921875 -0.15625q-0.6875 0 -1.09375 0.375q-0.390625 0.375 -0.484375 0.953125l0 5.59375l-1.28125 0l0 -8.0l0.890625 0l0.25 0.96875l0.0625 0q0.296875 -0.53125 0.71875 -0.828125q0.421875 -0.296875 1.078125 -0.296875q0.46875 0 1.046875 0.15625l-0.265625 1.234375zm1.076294 -1.234375l1.25 0l0 -1.578125l1.28125 -0.375l0 1.953125l2.171875 0l0 1.125l-2.171875 0l0 4.421875q0 0.84375 0.203125 1.1875q0.21875 0.34375 0.703125 0.34375q0.421875 0 0.703125 -0.09375q0.296875 -0.09375 0.640625 -0.234375l0.296875 0.984375q-0.4375 0.203125 -0.953125 0.328125q-0.5 0.125 -1.09375 0.125q-0.984375 0 -1.390625 -0.546875q-0.390625 -0.546875 -0.390625 -1.84375l0 -4.671875l-1.25 0l0 -1.125z" fill-rule="nonzero"/><path fill="#000000" fill-opacity="0.0" d="m661.6141 87.46982l23.55127 0l0 22.614174l-23.55127 0z" fill-rule="evenodd"/><path fill="#000000" d="m671.5502 95.29607q0 0.984375 -0.375 2.03125q-0.359375 1.03125 -0.953125 2.078125q-0.578125 1.046875 -1.3125 2.046875q-0.71875 0.984375 -1.453125 1.890625l-0.90625 0.796875l0 0.078125l1.1875 -0.203125l4.0625 0l0 1.375l-7.421875 0l0 -0.546875q0.40625 -0.421875 0.984375 -1.046875q0.578125 -0.640625 1.203125 -1.40625q0.625 -0.78125 1.234375 -1.640625q0.609375 -0.875 1.09375 -1.765625q0.5 -0.90625 0.796875 -1.78125q0.296875 -0.875 0.296875 -1.65625q0 -0.921875 -0.515625 -1.53125q-0.515625 -0.609375 -1.578125 -0.609375q-0.71875 0 -1.390625 0.296875q-0.671875 0.28125 -1.15625 0.65625l-0.609375 -1.0625q0.65625 -0.5625 1.546875 -0.875q0.890625 -0.3125 1.921875 -0.3125q0.796875 0 1.40625 0.234375q0.625 0.234375 1.046875 0.671875q0.4375 0.421875 0.65625 1.015625q0.234375 0.578125 0.234375 1.265625zm11.620789 6.078125l-2.203125 0l0 4.015625l-1.453125 0l0 -4.015625l-5.75 0l0 -0.609375l6.1875 -8.640625l1.015625 0l0 7.953125l2.203125 0l0 1.296875zm-3.65625 -5.375l0.1875 -1.515625l-0.0625 0l-0.65625 1.265625l-2.625 3.5625l-0.890625 0.90625l1.296875 -0.140625l2.75 0l0 -4.078125z" fill-rule="nonzero"/><path fill="#000000" fill-opacity="0.0" d="m613.3373 64.060135c0 17.354324 24.138062 34.708656 48.276123 34.708656" fill-rule="evenodd"/><path stroke="#000000" stroke-width="1.0" stroke-linejoin="round" stroke-linecap="butt" d="m613.3373 64.060135c0 17.354324 24.138062 34.708656 48.276123 34.708656" fill-rule="evenodd"/><path fill="#000000" fill-opacity="0.0" d="m685.16534 98.7769c27.901428 0 55.802795 -18.866142 55.802795 -37.73228" fill-rule="evenodd"/><path stroke="#000000" stroke-width="1.0" stroke-linejoin="round" stroke-linecap="butt" d="m685.16534 98.7769c13.950745 0 27.901428 -4.7165375 38.36444 -11.791336c5.2315063 -3.5373993 9.5911255 -7.6643677 12.642883 -12.086121c1.5258179 -2.2108765 2.7247314 -4.495453 3.5421143 -6.8168716c0.40875244 -1.1607056 0.7220459 -2.3306274 0.9332886 -3.5051575l0.020019531 -0.118873596" fill-rule="evenodd"/><path fill="#000000" stroke="#000000" stroke-width="1.0" stroke-linecap="butt" d="m740.6681 64.45854l1.0217896 1.2187347l-0.84973145 -3.1763687l-1.3908081 2.9794235z" fill-rule="evenodd"/><path fill="#000000" fill-opacity="0.0" d="m669.5803 6.8031497l23.55133 0l0 22.614172l-23.55133 0z" fill-rule="evenodd"/><path fill="#000000" d="m679.5164 14.629397q0 0.984375 -0.375 2.031251q-0.359375 1.03125 -0.953125 2.078125q-0.578125 1.046875 -1.3125 2.046875q-0.71875 0.984375 -1.453125 1.890625l-0.90625 0.796875l0 0.078125l1.1875 -0.203125l4.0625 0l0 1.375l-7.421875 0l0 -0.546875q0.40625 -0.421875 0.984375 -1.046875q0.578125 -0.640625 1.203125 -1.40625q0.625 -0.78125 1.234375 -1.640625q0.609375 -0.875 1.09375 -1.765625q0.5 -0.90625 0.796875 -1.78125q0.296875 -0.87500095 0.296875 -1.656251q0 -0.921875 -0.515625 -1.53125q-0.515625 -0.609375 -1.578125 -0.609375q-0.71875 0 -1.390625 0.296875q-0.671875 0.28125 -1.15625 0.65625l-0.609375 -1.0625q0.65625 -0.5625 1.546875 -0.875q0.890625 -0.3125 1.921875 -0.3125q0.796875 0 1.40625 0.234375q0.625 0.234375 1.046875 0.671875q0.4375 0.421875 0.65625 1.015625q0.234375 0.578125 0.234375 1.265625zm2.6364136 3.562501q0 -3.359376 1.09375 -5.046876q1.09375 -1.703125 3.1875 -1.703125q2.25 0 3.265625 1.671875q1.015625 1.671875 1.015625 5.078126q0 3.359375 -1.09375 5.0625q-1.078125 1.6875 -3.1875 1.6875q-2.21875 0 -3.25 -1.765625q-1.03125 -1.78125 -1.03125 -4.984375zm1.546875 0q0 1.21875 0.15625 2.21875q0.171875 0.984375 0.5 1.703125q0.34375 0.71875 0.84375 1.125q0.515625 0.40625 1.234375 0.40625q1.421875 0 2.078125 -1.3125q0.65625 -1.328125 0.65625 -4.140625q0 -1.1875 -0.140625 -2.1875q-0.140625 -1.015626 -0.46875 -1.734376q-0.3125 -0.734375 -0.84375 -1.125q-0.515625 -0.40625 -1.28125 -0.40625q-1.40625 0 -2.078125 1.328125q-0.65625 1.328125 -0.65625 4.125001z" fill-rule="nonzero"/><path fill="#000000" fill-opacity="0.0" d="m669.5803 18.110237c-28.123962 0 -56.247925 19.811024 -56.247925 39.622047" fill-rule="evenodd"/><path stroke="#000000" stroke-width="1.0" stroke-linejoin="round" stroke-linecap="butt" d="m669.5803 18.110237c-14.061951 0 -28.123962 4.952755 -38.67047 12.381889c-5.2731934 3.7145653 -9.667603 8.048229 -12.743652 12.691437c-1.5380249 2.3216057 -2.746521 4.7205963 -3.5704346 7.1582794c-0.41192627 1.2188416 -0.72784424 2.4473572 -0.9406738 3.6807137l-0.047546387 0.29370117" fill-rule="evenodd"/><path fill="#000000" stroke="#000000" stroke-width="1.0" stroke-linecap="butt" d="m613.6075 54.316257l-1.0306396 -1.211235l0.8729248 3.1700783l1.3689575 -2.9895172z" fill-rule="evenodd"/><path fill="#000000" fill-opacity="0.0" d="m693.13165 18.110237c23.915466 0 47.830933 18.31496 47.830933 36.62992" fill-rule="evenodd"/><path stroke="#000000" stroke-width="1.0" stroke-linejoin="round" stroke-linecap="butt" d="m693.13165 18.110237c23.915466 0 47.830933 18.31496 47.830933 36.62992" fill-rule="evenodd"/><path fill="#000000" fill-opacity="0.0" d="m608.4326 60.897636c0 -2.4700584 1.2863159 -4.472439 2.873108 -4.472439c0.7619629 0 1.4927368 0.47120285 2.0315552 1.309948c0.53881836 0.8387451 0.84155273 1.976326 0.84155273 3.1624908c0 2.4700623 -1.286377 4.4724426 -2.873108 4.4724426c-1.586792 0 -2.873108 -2.0023804 -2.873108 -4.4724426z" fill-rule="evenodd"/><path fill="#000000" fill-opacity="0.0" d="m740.12463 57.897636c0 -2.4700584 1.2863159 -4.472439 2.8730469 -4.472439c0.7620239 0 1.4927979 0.47120285 2.0316162 1.309948c0.53881836 0.8387451 0.8414917 1.976326 0.8414917 3.1624908c0 2.4700623 -1.2863159 4.4724426 -2.873108 4.4724426c-1.586731 0 -2.8730469 -2.0023804 -2.8730469 -4.4724426z" fill-rule="evenodd"/><path fill="#000000" fill-opacity="0.0" d="m797.41876 43.352917l39.433044 0l0 39.43307l-39.433044 0z" fill-rule="evenodd"/><path stroke="#000000" stroke-width="2.0" stroke-linejoin="round" stroke-linecap="butt" d="m797.41876 43.352917l39.433044 0l0 39.43307l-39.433044 0z" fill-rule="evenodd"/><path fill="#000000" d="m813.406 59.895702q0 0.984375 -0.375 2.03125q-0.359375 1.03125 -0.953125 2.0781212q-0.578125 1.046875 -1.3125 2.046875q-0.71875 0.984375 -1.453125 1.890625l-0.90625 0.796875l0 0.078125l1.1875 -0.203125l4.0625 0l0 1.375l-7.421875 0l0 -0.546875q0.40625 -0.421875 0.984375 -1.046875q0.578125 -0.640625 1.203125 -1.40625q0.625 -0.78125 1.234375 -1.640625q0.609375 -0.875 1.09375 -1.7656212q0.5 -0.90625 0.796875 -1.78125q0.296875 -0.875 0.296875 -1.65625q0 -0.921875 -0.515625 -1.53125q-0.515625 -0.609375 -1.578125 -0.609375q-0.71875 0 -1.390625 0.296875q-0.671875 0.28125 -1.15625 0.65625l-0.609375 -1.0625q0.65625 -0.5625 1.546875 -0.875q0.890625 -0.3125 1.921875 -0.3125q0.796875 0 1.40625 0.234375q0.625 0.234375 1.046875 0.671875q0.4375 0.421875 0.65625 1.015625q0.234375 0.578125 0.234375 1.265625zm2.6364136 3.5625q0 -3.359375 1.09375 -5.046875q1.09375 -1.703125 3.1875 -1.703125q2.25 0 3.265625 1.671875q1.015625 1.671875 1.015625 5.078125q0 3.3593712 -1.09375 5.062496q-1.078125 1.6875 -3.1875 1.6875q-2.21875 0 -3.25 -1.765625q-1.03125 -1.78125 -1.03125 -4.984371zm1.546875 0q0 1.2187462 0.15625 2.2187462q0.171875 0.984375 0.5 1.703125q0.34375 0.71875 0.84375 1.125q0.515625 0.40625 1.234375 0.40625q1.421875 0 2.078125 -1.3125q0.65625 -1.328125 0.65625 -4.140621q0 -1.1875 -0.140625 -2.1875q-0.140625 -1.015625 -0.46875 -1.734375q-0.3125 -0.734375 -0.84375 -1.125q-0.515625 -0.40625 -1.28125 -0.40625q-1.40625 0 -2.078125 1.328125q-0.65625 1.328125 -0.65625 4.125z" fill-rule="nonzero"/><path fill="#000000" fill-opacity="0.0" d="m737.13525 102.25343l0 -20.062988" fill-rule="evenodd"/><path stroke="#000000" stroke-width="2.0" stroke-linejoin="round" stroke-linecap="butt" d="m737.13525 102.25343l0 -8.062988" fill-rule="evenodd"/><path fill="#000000" stroke="#000000" stroke-width="2.0" stroke-linecap="butt" d="m740.4387 94.190445l-3.3034668 -9.076195l-3.3034668 9.076195z" fill-rule="evenodd"/><path fill="#000000" fill-opacity="0.0" d="m696.93054 102.25343l80.409424 0l0 26.645676l-80.409424 0z" fill-rule="evenodd"/><path fill="#000000" d="m711.7462 121.336266l0.96875 -4.53125q0.125 -0.5625 0.1875 -0.984375q0.0625 -0.4375 0.0625 -0.75q0 -0.4375 -0.15625 -0.671875q-0.15625 -0.234375 -0.546875 -0.234375q-0.40625 0 -0.796875 0.21875q-0.375 0.203125 -0.71875 0.515625q-0.328125 0.3125 -0.609375 0.671875q-0.28125 0.34375 -0.4375 0.625l-1.046875 5.140625l-1.203125 0l1.6875 -8.0l0.859375 0l-0.09375 1.375l0.0625 0q0.25 -0.25 0.546875 -0.53125q0.296875 -0.28125 0.65625 -0.5q0.359375 -0.234375 0.78125 -0.375q0.421875 -0.15625 0.9375 -0.15625q0.71875 0 0.96875 0.453125q0.25 0.4375 0.25 1.234375q0.234375 -0.296875 0.546875 -0.59375q0.328125 -0.3125 0.703125 -0.546875q0.375 -0.25 0.796875 -0.390625q0.421875 -0.15625 0.828125 -0.15625q0.734375 0 1.125 0.34375q0.390625 0.34375 0.390625 1.265625q0 0.671875 -0.234375 1.78125l-1.0 4.796875l-1.203125 0l1.0 -4.8125q0.09375 -0.46875 0.15625 -0.828125q0.0625 -0.375 0.0625 -0.640625q0 -0.4375 -0.1875 -0.65625q-0.171875 -0.234375 -0.59375 -0.234375q-0.328125 0 -0.703125 0.21875q-0.375 0.21875 -0.734375 0.546875q-0.34375 0.3125 -0.625 0.6875q-0.28125 0.359375 -0.4375 0.671875l-1.046875 5.046875l-1.203125 0zm9.895508 -8.0l1.203125 0l-1.703125 8.0l-1.203125 0l1.703125 -8.0zm0.25 -2.453125q0 -0.359375 0.25 -0.609375q0.25 -0.265625 0.625 -0.265625q0.359375 0 0.609375 0.265625q0.265625 0.25 0.265625 0.609375q0 0.375 -0.265625 0.625q-0.25 0.25 -0.609375 0.25q-0.375 0 -0.625 -0.25q-0.25 -0.25 -0.25 -0.625zm6.628357 10.453125l1.078186 -5.0625q0.0625 -0.28125 0.109375 -0.5625q0.046875 -0.28125 0.046875 -0.5q0 -0.46875 -0.21875 -0.75q-0.21875 -0.296875 -0.81256104 -0.296875q-0.40625 0 -0.8125 0.203125q-0.40625 0.1875 -0.765625 0.484375q-0.34375 0.296875 -0.625 0.65625q-0.265625 0.359375 -0.46875 0.703125l-1.046875 5.125l-1.203125 0l1.6875 -8.0l0.84375 0l-0.0625 1.375l0.0625 0q0.203125 -0.25 0.484375 -0.53125q0.296875 -0.28125 0.65625 -0.5q0.359375 -0.234375 0.796875 -0.375q0.453125 -0.15625 1.000061 -0.15625q0.796875 0 1.265625 0.390625q0.46875 0.375 0.46875 1.328125q0 0.484375 -0.15625 1.15625l-1.125 5.3125l-1.203186 0zm6.414551 -11.203125l1.28125 0l-2.375 11.203125l-1.28125 0l2.375 -11.203125zm6.369507 11.203125l1.078125 -5.0625q0.0625 -0.28125 0.109375 -0.5625q0.046875 -0.28125 0.046875 -0.5q0 -0.46875 -0.21875 -0.75q-0.21875 -0.296875 -0.8125 -0.296875q-0.40625 0 -0.8125 0.203125q-0.40625 0.1875 -0.765625 0.484375q-0.34375 0.296875 -0.625 0.65625q-0.265625 0.359375 -0.46875 0.703125l-1.046875 5.125l-1.203125 0l1.6875 -8.0l0.84375 0l-0.0625 1.375l0.0625 0q0.203125 -0.25 0.484375 -0.53125q0.296875 -0.28125 0.65625 -0.5q0.359375 -0.234375 0.796875 -0.375q0.453125 -0.15625 1.0 -0.15625q0.796875 0 1.265625 0.390625q0.46875 0.375 0.46875 1.328125q0 0.484375 -0.15625 1.15625l-1.125 5.3125l-1.203125 0zm9.758301 -2.75q-0.125 0.625 -0.1875 1.171875q-0.0625 0.53125 -0.0625 1.0q0 0.171875 0 0.328125q0.015625 0.140625 0.03125 0.28125l-0.796875 0l-0.234375 -1.390625l-0.0625 0q-0.1875 0.265625 -0.484375 0.546875q-0.28125 0.28125 -0.640625 0.515625q-0.34375 0.21875 -0.734375 0.34375q-0.390625 0.140625 -0.8125 0.140625q-0.875 0 -1.40625 -0.640625q-0.515625 -0.65625 -0.515625 -2.0625q0 -0.9375 0.265625 -1.9375q0.28125 -1.0 0.8125 -1.8125q0.53125 -0.828125 1.3125 -1.34375q0.796875 -0.53125 1.84375 -0.53125q0.28125 0 0.484375 0.015625q0.21875 0.015625 0.390625 0.046875q0.1875 0.03125 0.34375 0.09375q0.171875 0.046875 0.34375 0.109375l0.703125 -3.328125l1.203125 0l-1.796875 8.453125zm-3.53125 1.921875q0.328125 0 0.671875 -0.1875q0.359375 -0.1875 0.671875 -0.453125q0.3125 -0.28125 0.5625 -0.59375q0.25 -0.3125 0.390625 -0.578125l0.90625 -4.15625q-0.28125 -0.171875 -0.625 -0.25q-0.34375 -0.078125 -0.90625 -0.078125q-0.640625 0 -1.15625 0.390625q-0.5 0.390625 -0.859375 1.046875q-0.359375 0.65625 -0.5625 1.515625q-0.1875 0.84375 -0.1875 1.734375q0 0.65625 0.25 1.140625q0.265625 0.46875 0.84375 0.46875zm11.190857 0.046875q-0.5625 0.484375 -1.328125 0.734375q-0.75 0.234375 -1.515625 0.234375q-1.28125 0 -1.9375 -0.734375q-0.640625 -0.734375 -0.640625 -2.046875q0 -1.3125 0.359375 -2.34375q0.375 -1.046875 0.96875 -1.765625q0.609375 -0.71875 1.359375 -1.09375q0.765625 -0.390625 1.578125 -0.390625q0.5625 0 0.984375 0.15625q0.4375 0.15625 0.703125 0.421875q0.28125 0.265625 0.40625 0.609375q0.125 0.34375 0.125 0.734375q0 1.125 -1.109375 1.78125q-1.09375 0.640625 -3.21875 0.640625q-0.1875 0 -0.390625 0q-0.203125 -0.015625 -0.4375 -0.03125q-0.0625 0.3125 -0.09375 0.578125q-0.03125 0.265625 -0.03125 0.484375q0 0.875 0.390625 1.4375q0.40625 0.546875 1.25 0.546875q0.71875 0 1.296875 -0.234375q0.578125 -0.234375 0.90625 -0.484375l0.375 0.765625zm-1.359375 -6.390625q-0.875 0 -1.53125 0.609375q-0.640625 0.59375 -0.96875 1.796875q0.59375 0 1.25 -0.03125q0.65625 -0.03125 1.1875 -0.171875q0.546875 -0.140625 0.890625 -0.4375q0.359375 -0.296875 0.359375 -0.8125q0 -0.171875 -0.0625 -0.328125q-0.046875 -0.171875 -0.171875 -0.296875q-0.125 -0.140625 -0.359375 -0.234375q-0.234375 -0.09375 -0.59375 -0.09375zm5.5426636 3.078125l-1.71875 -3.90625l1.359375 0l0.953125 2.203125l0.28125 0.921875l0.65625 -0.921875l1.9375 -2.203125l1.453125 0l-3.390625 3.84375l1.90625 4.15625l-1.359375 0l-1.09375 -2.4375l-0.3125 -0.953125l-0.671875 0.953125l-2.140625 2.4375l-1.46875 0l3.609375 -4.09375z" fill-rule="nonzero"/></g></svg>