<svg version="1.1" viewBox="0.0 0.0 574.9133858267717 167.501312335958" fill="none" stroke="none" stroke-linecap="square" stroke-miterlimit="10" xmlns:xlink="http://www.w3.org/1999/xlink" xmlns="http://www.w3.org/2000/svg"><clipPath id="p.0"><path d="m0 0l574.9134 0l0 167.50131l-574.9134 0l0 -167.50131z" clip-rule="nonzero"/></clipPath><g clip-path="url(#p.0)"><path fill="#000000" fill-opacity="0.0" d="m0 0l574.9134 0l0 167.50131l-574.9134 0z" fill-rule="evenodd"/><path fill="#000000" fill-opacity="0.0" d="m190.6378 3.2624671l0 161.70079" fill-rule="evenodd"/><path stroke="#000000" stroke-width="1.0" stroke-linejoin="round" stroke-linecap="butt" d="m190.6378 3.2624671l0 161.70079" fill-rule="evenodd"/><path fill="#000000" fill-opacity="0.0" d="m410.8792 3.2624671l0 161.70079" fill-rule="evenodd"/><path stroke="#000000" stroke-width="1.0" stroke-linejoin="round" stroke-linecap="butt" d="m410.8792 3.2624671l0 161.70079" fill-rule="evenodd"/><path fill="#000000" fill-opacity="0.0" d="m202.45673 22.222765l192.91339 0l0 134.4567l-192.91339 0z" fill-rule="evenodd"/><path fill="#000000" d="m220.3786 47.56214l-5.515625 0l-1.484375 4.140625l-1.75 0l5.65625 -15.171875l0.8125 0l5.671875 15.171875l-1.859375 0l-1.53125 -4.140625zm-4.9375 -1.53125l4.390625 0l-1.65625 -4.546875l-0.53125 -2.265625l-0.03125 0l-0.53125 2.3125l-1.640625 4.5z" fill-rule="nonzero"/><path fill="#000000" d="m244.9412 42.577766q1.390625 1.515625 2.390625 2.296875q1.015625 0.78125 1.921875 1.171875l0 0.46875q-1.03125 0.5 -2.0 1.28125q-0.96875 0.765625 -2.3125 2.265625l-0.8125 0q0.984375 -2.09375 2.0625 -3.21875l-16.609375 0l0 -1.046875l16.609375 0q-0.796875 -1.015625 -1.109375 -1.5q-0.3125 -0.484375 -0.921875 -1.71875l0.78125 0z" fill-rule="nonzero"/><path fill="#000000" d="m260.62018 56.390266q-0.984375 -1.015625 -1.671875 -2.25q-0.671875 -1.21875 -1.09375 -2.5q-0.421875 -1.296875 -0.609375 -2.609375q-0.1875 -1.3125 -0.1875 -2.515625q0 -1.171875 0.1875 -2.46875q0.1875 -1.296875 0.609375 -2.609375q0.4375 -1.3125 1.125 -2.5625q0.703125 -1.265625 1.703125 -2.359375l1.015625 0.75q-0.84375 1.09375 -1.40625 2.25q-0.5625 1.15625 -0.90625 2.359375q-0.34375 1.1875 -0.484375 2.375q-0.140625 1.1875 -0.140625 2.265625q0 1.03125 0.15625 2.234375q0.171875 1.203125 0.515625 2.40625q0.359375 1.203125 0.921875 2.359375q0.5625 1.15625 1.34375 2.09375l-1.078125 0.78125zm2.5812683 -8.25q0 -1.34375 0.703125 -2.328125q0.703125 -1.0 2.1875 -1.8125q-0.53125 -0.3125 -0.984375 -0.65625q-0.453125 -0.359375 -0.8125 -0.8125q-0.34375 -0.453125 -0.546875 -1.0q-0.203125 -0.5625 -0.203125 -1.28125q0 -0.828125 0.28125 -1.515625q0.296875 -0.6875 0.828125 -1.171875q0.546875 -0.484375 1.296875 -0.765625q0.765625 -0.28125 1.71875 -0.28125q0.90625 0 1.625 0.265625q0.734375 0.25 1.234375 0.703125q0.5 0.4375 0.765625 1.0625q0.28125 0.609375 0.28125 1.359375q0 1.21875 -0.5625 2.15625q-0.546875 0.921875 -1.828125 1.8125q0.5625 0.328125 1.0625 0.71875q0.5 0.375 0.875 0.84375q0.375 0.46875 0.578125 1.0625q0.21875 0.578125 0.21875 1.328125q0 0.90625 -0.296875 1.671875q-0.296875 0.75 -0.875 1.296875q-0.578125 0.546875 -1.40625 0.859375q-0.828125 0.296875 -1.90625 0.296875q-1.015625 0 -1.8125 -0.296875q-0.78125 -0.296875 -1.328125 -0.796875q-0.546875 -0.515625 -0.828125 -1.203125q-0.265625 -0.703125 -0.265625 -1.515625zm7.0625 -0.21875q0 -0.640625 -0.265625 -1.109375q-0.25 -0.484375 -0.671875 -0.875q-0.40625 -0.390625 -0.953125 -0.703125q-0.53125 -0.328125 -1.09375 -0.640625q-1.3125 0.734375 -1.875 1.640625q-0.546875 0.890625 -0.546875 1.6875q0 0.515625 0.171875 0.984375q0.171875 0.46875 0.515625 0.8125q0.34375 0.34375 0.84375 0.546875q0.5 0.203125 1.15625 0.203125q0.53125 0 1.015625 -0.15625q0.5 -0.171875 0.875 -0.46875q0.375 -0.3125 0.59375 -0.796875q0.234375 -0.484375 0.234375 -1.125zm-5.0625 -7.71875q0 0.59375 0.234375 1.0625q0.234375 0.453125 0.625 0.828125q0.40625 0.359375 0.90625 0.671875q0.515625 0.296875 1.078125 0.578125q0.953125 -0.75 1.40625 -1.46875q0.46875 -0.734375 0.46875 -1.609375q0 -1.078125 -0.671875 -1.65625q-0.671875 -0.59375 -1.609375 -0.59375q-0.578125 0 -1.03125 0.1875q-0.4375 0.1875 -0.765625 0.484375q-0.3125 0.296875 -0.484375 0.703125q-0.15625 0.390625 -0.15625 0.8125zm9.217621 10.578125q0 -0.5 0.34375 -0.8125q0.34375 -0.328125 0.875 -0.328125q0.65625 0 1.0625 0.46875q0.421875 0.46875 0.421875 1.359375q0 0.765625 -0.21875 1.34375q-0.203125 0.578125 -0.546875 0.984375q-0.34375 0.421875 -0.75 0.6875q-0.40625 0.265625 -0.8125 0.390625l-0.53125 -0.828125q0.765625 -0.296875 1.140625 -0.921875q0.375 -0.625 0.375 -1.265625q-0.1875 0.0625 -0.359375 0.0625q-0.421875 0 -0.71875 -0.28125q-0.28125 -0.296875 -0.28125 -0.859375zm12.673859 -3.21875l-5.515625 0l-1.484375 4.140625l-1.75 0l5.65625 -15.171875l0.8125 0l5.671875 15.171875l-1.859375 0l-1.53125 -4.140625zm-4.9375 -1.53125l4.390625 0l-1.65625 -4.546875l-0.53125 -2.265625l-0.03125 0l-0.53125 2.3125l-1.640625 4.5zm10.115509 4.75q0 -0.5 0.34375 -0.8125q0.34375 -0.328125 0.875 -0.328125q0.65625 0 1.0625 0.46875q0.421875 0.46875 0.421875 1.359375q0 0.765625 -0.21875 1.34375q-0.203125 0.578125 -0.546875 0.984375q-0.34375 0.421875 -0.75 0.6875q-0.40625 0.265625 -0.8125 0.390625l-0.53125 -0.828125q0.765625 -0.296875 1.140625 -0.921875q0.375 -0.625 0.375 -1.265625q-0.1875 0.0625 -0.359375 0.0625q-0.421875 0 -0.71875 -0.28125q-0.28125 -0.296875 -0.28125 -0.859375zm14.564453 -10.59375q0 0.53125 -0.171875 1.09375q-0.171875 0.546875 -0.515625 1.03125q-0.328125 0.46875 -0.875 0.84375q-0.53125 0.359375 -1.25 0.546875l0 0.09375q0.640625 0.09375 1.21875 0.359375q0.59375 0.25 1.03125 0.703125q0.453125 0.4375 0.734375 1.078125q0.28125 0.640625 0.28125 1.515625q0 1.15625 -0.484375 2.0q-0.484375 0.84375 -1.265625 1.375q-0.765625 0.53125 -1.78125 0.796875q-1.0 0.25 -2.046875 0.25q-0.359375 0 -0.859375 0q-0.484375 0 -1.015625 -0.03125q-0.53125 -0.03125 -1.0625 -0.09375q-0.53125 -0.046875 -0.9375 -0.15625l0 -14.6875q0.796875 -0.140625 1.828125 -0.21875q1.046875 -0.078125 2.28125 -0.078125q0.84375 0 1.703125 0.140625q0.859375 0.125 1.5625 0.53125q0.703125 0.390625 1.15625 1.09375q0.46875 0.703125 0.46875 1.8125zm-4.953125 10.15625q0.6875 0 1.328125 -0.15625q0.640625 -0.171875 1.125 -0.515625q0.5 -0.359375 0.78125 -0.859375q0.296875 -0.515625 0.296875 -1.21875q0 -0.875 -0.359375 -1.40625q-0.34375 -0.546875 -0.921875 -0.84375q-0.5625 -0.296875 -1.265625 -0.40625q-0.703125 -0.109375 -1.40625 -0.109375l-1.859375 0l0 5.359375q0.15625 0.046875 0.421875 0.078125q0.28125 0.015625 0.59375 0.03125q0.328125 0.015625 0.671875 0.03125q0.34375 0.015625 0.59375 0.015625zm-1.171875 -7.0q0.375 0 0.875 -0.015625q0.515625 -0.03125 0.859375 -0.078125q0.515625 -0.15625 0.953125 -0.40625q0.453125 -0.25 0.796875 -0.578125q0.359375 -0.328125 0.5625 -0.765625q0.203125 -0.4375 0.203125 -0.953125q0 -0.703125 -0.265625 -1.15625q-0.265625 -0.46875 -0.71875 -0.734375q-0.453125 -0.28125 -1.03125 -0.390625q-0.5625 -0.125 -1.15625 -0.125q-0.703125 0 -1.296875 0.03125q-0.59375 0.03125 -0.890625 0.09375l0 5.078125l1.109375 0zm8.893188 -6.828125q0.984375 1.03125 1.65625 2.265625q0.6875 1.21875 1.109375 2.515625q0.421875 1.28125 0.609375 2.59375q0.1875 1.3125 0.1875 2.5q0 1.171875 -0.1875 2.484375q-0.1875 1.296875 -0.625 2.609375q-0.421875 1.3125 -1.125 2.5625q-0.6875 1.265625 -1.6875 2.34375l-1.015625 -0.734375q0.84375 -1.09375 1.421875 -2.265625q0.578125 -1.171875 0.90625 -2.359375q0.328125 -1.203125 0.46875 -2.375q0.140625 -1.171875 0.140625 -2.265625q0 -1.015625 -0.171875 -2.203125q-0.171875 -1.203125 -0.53125 -2.421875q-0.34375 -1.21875 -0.90625 -2.359375q-0.546875 -1.15625 -1.328125 -2.09375l1.078125 -0.796875zm15.385254 19.875q-0.984375 -1.015625 -1.671875 -2.25q-0.671875 -1.21875 -1.09375 -2.5q-0.421875 -1.296875 -0.609375 -2.609375q-0.1875 -1.3125 -0.1875 -2.515625q0 -1.171875 0.1875 -2.46875q0.1875 -1.296875 0.609375 -2.609375q0.4375 -1.3125 1.125 -2.5625q0.703125 -1.265625 1.703125 -2.359375l1.015625 0.75q-0.84375 1.09375 -1.40625 2.25q-0.5625 1.15625 -0.90625 2.359375q-0.34375 1.1875 -0.484375 2.375q-0.140625 1.1875 -0.140625 2.265625q0 1.03125 0.15625 2.234375q0.171875 1.203125 0.515625 2.40625q0.359375 1.203125 0.921875 2.359375q0.5625 1.15625 1.34375 2.09375l-1.078125 0.78125zm6.1125183 -5.921875q0.734375 0 1.34375 -0.203125q0.625 -0.21875 1.0625 -0.640625q0.453125 -0.421875 0.703125 -0.984375q0.265625 -0.578125 0.265625 -1.265625q0 -1.5 -0.890625 -2.21875q-0.875 -0.71875 -2.4375 -0.71875l-1.578125 0l0 -0.625l3.078125 -4.734375l0.96875 -0.9375l-1.375 0.21875l-4.234375 0l0 -1.59375l7.625 0l0 0.625l-3.390625 5.09375l-0.75 0.625l0 0.046875l0.71875 -0.15625q0.859375 0.015625 1.578125 0.3125q0.734375 0.28125 1.265625 0.828125q0.53125 0.546875 0.828125 1.3125q0.296875 0.75 0.296875 1.703125q0 1.15625 -0.40625 2.0625q-0.40625 0.890625 -1.09375 1.5q-0.6875 0.59375 -1.625 0.921875q-0.9375 0.3125 -1.984375 0.3125q-0.96875 0 -1.734375 -0.15625q-0.765625 -0.140625 -1.34375 -0.375l0.453125 -1.515625q0.484375 0.234375 1.15625 0.40625q0.671875 0.15625 1.5 0.15625zm7.686371 0.3125q0 -0.5 0.34375 -0.8125q0.34375 -0.328125 0.875 -0.328125q0.65625 0 1.0625 0.46875q0.421875 0.46875 0.421875 1.359375q0 0.765625 -0.21875 1.34375q-0.203125 0.578125 -0.546875 0.984375q-0.34375 0.421875 -0.75 0.6875q-0.40625 0.265625 -0.8125 0.390625l-0.53125 -0.828125q0.765625 -0.296875 1.140625 -0.921875q0.375 -0.625 0.375 -1.265625q-0.1875 0.0625 -0.359375 0.0625q-0.421875 0 -0.71875 -0.28125q-0.28125 -0.296875 -0.28125 -0.859375zm12.673859 -3.21875l-5.515625 0l-1.484375 4.140625l-1.75 0l5.65625 -15.171875l0.8125 0l5.671875 15.171875l-1.859375 0l-1.53125 -4.140625zm-4.9375 -1.53125l4.390625 0l-1.65625 -4.546875l-0.53125 -2.265625l-0.03125 0l-0.53125 2.3125l-1.640625 4.5zm10.115509 4.75q0 -0.5 0.34375 -0.8125q0.34375 -0.328125 0.875 -0.328125q0.65625 0 1.0625 0.46875q0.421875 0.46875 0.421875 1.359375q0 0.765625 -0.21875 1.34375q-0.203125 0.578125 -0.546875 0.984375q-0.34375 0.421875 -0.75 0.6875q-0.40625 0.265625 -0.8125 0.390625l-0.53125 -0.828125q0.765625 -0.296875 1.140625 -0.921875q0.375 -0.625 0.375 -1.265625q-0.1875 0.0625 -0.359375 0.0625q-0.421875 0 -0.71875 -0.28125q-0.28125 -0.296875 -0.28125 -0.859375zm15.126953 0.296875q-0.640625 0.5 -1.625 0.6875q-0.984375 0.1875 -2.09375 0.1875q-1.34375 0 -2.515625 -0.453125q-1.171875 -0.453125 -2.046875 -1.390625q-0.875 -0.9375 -1.390625 -2.390625q-0.515625 -1.46875 -0.515625 -3.484375q0 -2.09375 0.5625 -3.546875q0.578125 -1.46875 1.5 -2.390625q0.9375 -0.921875 2.078125 -1.34375q1.15625 -0.4375 2.34375 -0.4375q1.28125 0 2.09375 0.140625q0.8125 0.140625 1.390625 0.375l-0.421875 1.5625q-1.03125 -0.5 -2.921875 -0.5q-0.875 0 -1.734375 0.328125q-0.859375 0.3125 -1.53125 1.046875q-0.671875 0.71875 -1.078125 1.890625q-0.390625 1.171875 -0.390625 2.875q0 1.546875 0.375 2.703125q0.390625 1.140625 1.0625 1.90625q0.671875 0.765625 1.578125 1.15625q0.90625 0.375 1.96875 0.375q0.953125 0 1.671875 -0.1875q0.71875 -0.1875 1.203125 -0.484375l0.4375 1.375zm1.9284058 -14.5625q0.984375 1.03125 1.65625 2.265625q0.6875 1.21875 1.109375 2.515625q0.421875 1.28125 0.609375 2.59375q0.1875 1.3125 0.1875 2.5q0 1.171875 -0.1875 2.484375q-0.1875 1.296875 -0.625 2.609375q-0.421875 1.3125 -1.125 2.5625q-0.6875 1.265625 -1.6875 2.34375l-1.015625 -0.734375q0.84375 -1.09375 1.421875 -2.265625q0.578125 -1.171875 0.90625 -2.359375q0.328125 -1.203125 0.46875 -2.375q0.140625 -1.171875 0.140625 -2.265625q0 -1.015625 -0.171875 -2.203125q-0.171875 -1.203125 -0.53125 -2.421875q-0.34375 -1.21875 -0.90625 -2.359375q-0.546875 -1.15625 -1.328125 -2.09375l1.078125 -0.796875z" fill-rule="nonzero"/><path fill="#000000" d="m222.26923 69.62714q0 0.53125 -0.171875 1.09375q-0.171875 0.546875 -0.515625 1.03125q-0.328125 0.46875 -0.875 0.84375q-0.53125 0.359375 -1.25 0.546875l0 0.09375q0.640625 0.09375 1.21875 0.359375q0.59375 0.25 1.03125 0.703125q0.453125 0.4375 0.734375 1.078125q0.28125 0.640625 0.28125 1.515625q0 1.15625 -0.484375 2.0q-0.484375 0.84375 -1.265625 1.375q-0.765625 0.53125 -1.78125 0.796875q-1.0 0.25 -2.046875 0.25q-0.359375 0 -0.859375 0q-0.484375 0 -1.015625 -0.03125q-0.53125 -0.03125 -1.0625 -0.09375q-0.53125 -0.046875 -0.9375 -0.15625l0 -14.6875q0.796875 -0.140625 1.828125 -0.21875q1.046875 -0.078125 2.28125 -0.078125q0.84375 0 1.703125 0.140625q0.859375 0.125 1.5625 0.53125q0.703125 0.390625 1.15625 1.09375q0.46875 0.703125 0.46875 1.8125zm-4.953125 10.15625q0.6875 0 1.328125 -0.15625q0.640625 -0.171875 1.125 -0.515625q0.5 -0.359375 0.78125 -0.859375q0.296875 -0.515625 0.296875 -1.21875q0 -0.875 -0.359375 -1.40625q-0.34375 -0.546875 -0.921875 -0.84375q-0.5625 -0.296875 -1.265625 -0.40625q-0.703125 -0.109375 -1.40625 -0.109375l-1.859375 0l0 5.359375q0.15625 0.046875 0.421875 0.078125q0.28125 0.015625 0.59375 0.03125q0.328125 0.015625 0.671875 0.03125q0.34375 0.015625 0.59375 0.015625zm-1.171875 -7.0q0.375 0 0.875 -0.015625q0.515625 -0.03125 0.859375 -0.078125q0.515625 -0.15625 0.953125 -0.40625q0.453125 -0.25 0.796875 -0.578125q0.359375 -0.328125 0.5625 -0.765625q0.203125 -0.4375 0.203125 -0.953125q0 -0.703125 -0.265625 -1.15625q-0.265625 -0.46875 -0.71875 -0.734375q-0.453125 -0.28125 -1.03125 -0.390625q-0.5625 -0.125 -1.15625 -0.125q-0.703125 0 -1.296875 0.03125q-0.59375 0.03125 -0.890625 0.09375l0 5.078125l1.109375 0z" fill-rule="nonzero"/><path fill="#000000" d="m245.79453 72.01776q1.390625 1.515625 2.390625 2.296875q1.015625 0.78125 1.921875 1.171875l0 0.46875q-1.03125 0.5 -2.0 1.28125q-0.96875 0.765625 -2.3125 2.265625l-0.8125 0q0.984375 -2.09375 2.0625 -3.21875l-16.609375 0l0 -1.046875l16.609375 0q-0.796875 -1.015625 -1.109375 -1.5q-0.3125 -0.484375 -0.921875 -1.71875l0.78125 0z" fill-rule="nonzero"/><path fill="#000000" d="m261.4735 85.83026q-0.984375 -1.015625 -1.671875 -2.25q-0.671875 -1.21875 -1.09375 -2.5q-0.421875 -1.296875 -0.609375 -2.609375q-0.1875 -1.3125 -0.1875 -2.515625q0 -1.171875 0.1875 -2.46875q0.1875 -1.296875 0.609375 -2.609375q0.4375 -1.3125 1.125 -2.5625q0.703125 -1.265625 1.703125 -2.359375l1.015625 0.75q-0.84375 1.09375 -1.40625 2.25q-0.5625 1.15625 -0.90625 2.359375q-0.34375 1.1875 -0.484375 2.375q-0.140625 1.1875 -0.140625 2.265625q0 1.03125 0.15625 2.234375q0.171875 1.203125 0.515625 2.40625q0.359375 1.203125 0.921875 2.359375q0.5625 1.15625 1.34375 2.09375l-1.078125 0.78125zm6.1125183 -5.921875q0.734375 0 1.34375 -0.203125q0.625 -0.21875 1.0625 -0.640625q0.453125 -0.421875 0.703125 -0.984375q0.265625 -0.578125 0.265625 -1.265625q0 -1.5 -0.890625 -2.21875q-0.875 -0.71875 -2.4375 -0.71875l-1.578125 0l0 -0.625l3.078125 -4.734375l0.96875 -0.9375l-1.375 0.21875l-4.234375 0l0 -1.59375l7.625 0l0 0.625l-3.390625 5.09375l-0.75 0.625l0 0.046875l0.71875 -0.15625q0.859375 0.015625 1.578125 0.3125q0.734375 0.28125 1.265625 0.828125q0.53125 0.546875 0.828125 1.3125q0.296875 0.75 0.296875 1.703125q0 1.15625 -0.40625 2.0625q-0.40625 0.890625 -1.09375 1.5q-0.6875 0.59375 -1.625 0.921875q-0.9375 0.3125 -1.984375 0.3125q-0.96875 0 -1.734375 -0.15625q-0.765625 -0.140625 -1.34375 -0.375l0.453125 -1.515625q0.484375 0.234375 1.15625 0.40625q0.671875 0.15625 1.5 0.15625zm7.686371 0.3125q0 -0.5 0.34375 -0.8125q0.34375 -0.328125 0.875 -0.328125q0.65625 0 1.0625 0.46875q0.421875 0.46875 0.421875 1.359375q0 0.765625 -0.21875 1.34375q-0.203125 0.578125 -0.546875 0.984375q-0.34375 0.421875 -0.75 0.6875q-0.40625 0.265625 -0.8125 0.390625l-0.53125 -0.828125q0.765625 -0.296875 1.140625 -0.921875q0.375 -0.625 0.375 -1.265625q-0.1875 0.0625 -0.359375 0.0625q-0.421875 0 -0.71875 -0.28125q-0.28125 -0.296875 -0.28125 -0.859375zm14.564484 -10.59375q0 0.53125 -0.171875 1.09375q-0.171875 0.546875 -0.515625 1.03125q-0.328125 0.46875 -0.875 0.84375q-0.53125 0.359375 -1.25 0.546875l0 0.09375q0.640625 0.09375 1.21875 0.359375q0.59375 0.25 1.03125 0.703125q0.453125 0.4375 0.734375 1.078125q0.28125 0.640625 0.28125 1.515625q0 1.15625 -0.484375 2.0q-0.484375 0.84375 -1.265625 1.375q-0.765625 0.53125 -1.78125 0.796875q-1.0 0.25 -2.046875 0.25q-0.359375 0 -0.859375 0q-0.484375 0 -1.015625 -0.03125q-0.53125 -0.03125 -1.0625 -0.09375q-0.53125 -0.046875 -0.9375 -0.15625l0 -14.6875q0.796875 -0.140625 1.828125 -0.21875q1.046875 -0.078125 2.28125 -0.078125q0.84375 0 1.703125 0.140625q0.859375 0.125 1.5625 0.53125q0.703125 0.390625 1.15625 1.09375q0.46875 0.703125 0.46875 1.8125zm-4.953125 10.15625q0.6875 0 1.328125 -0.15625q0.640625 -0.171875 1.125 -0.515625q0.5 -0.359375 0.78125 -0.859375q0.296875 -0.515625 0.296875 -1.21875q0 -0.875 -0.359375 -1.40625q-0.34375 -0.546875 -0.921875 -0.84375q-0.5625 -0.296875 -1.265625 -0.40625q-0.703125 -0.109375 -1.40625 -0.109375l-1.859375 0l0 5.359375q0.15625 0.046875 0.421875 0.078125q0.28125 0.015625 0.59375 0.03125q0.328125 0.015625 0.671875 0.03125q0.34375 0.015625 0.59375 0.015625zm-1.171875 -7.0q0.375 0 0.875 -0.015625q0.515625 -0.03125 0.859375 -0.078125q0.515625 -0.15625 0.953125 -0.40625q0.453125 -0.25 0.796875 -0.578125q0.359375 -0.328125 0.5625 -0.765625q0.203125 -0.4375 0.203125 -0.953125q0 -0.703125 -0.265625 -1.15625q-0.265625 -0.46875 -0.71875 -0.734375q-0.453125 -0.28125 -1.03125 -0.390625q-0.5625 -0.125 -1.15625 -0.125q-0.703125 0 -1.296875 0.03125q-0.59375 0.03125 -0.890625 0.09375l0 5.078125l1.109375 0zm8.815033 7.4375q0 -0.5 0.34375 -0.8125q0.34375 -0.328125 0.875 -0.328125q0.65625 0 1.0625 0.46875q0.421875 0.46875 0.421875 1.359375q0 0.765625 -0.21875 1.34375q-0.203125 0.578125 -0.546875 0.984375q-0.34375 0.421875 -0.75 0.6875q-0.40625 0.265625 -0.8125 0.390625l-0.53125 -0.828125q0.765625 -0.296875 1.140625 -0.921875q0.375 -0.625 0.375 -1.265625q-0.1875 0.0625 -0.359375 0.0625q-0.421875 0 -0.71875 -0.28125q-0.28125 -0.296875 -0.28125 -0.859375zm15.126984 0.296875q-0.640625 0.5 -1.625 0.6875q-0.984375 0.1875 -2.09375 0.1875q-1.34375 0 -2.515625 -0.453125q-1.171875 -0.453125 -2.046875 -1.390625q-0.875 -0.9375 -1.390625 -2.390625q-0.515625 -1.46875 -0.515625 -3.484375q0 -2.09375 0.5625 -3.546875q0.578125 -1.46875 1.5 -2.390625q0.9375 -0.921875 2.078125 -1.34375q1.15625 -0.4375 2.34375 -0.4375q1.28125 0 2.09375 0.140625q0.8125 0.140625 1.390625 0.375l-0.421875 1.5625q-1.03125 -0.5 -2.921875 -0.5q-0.875 0 -1.734375 0.328125q-0.859375 0.3125 -1.53125 1.046875q-0.671875 0.71875 -1.078125 1.890625q-0.390625 1.171875 -0.390625 2.875q0 1.546875 0.375 2.703125q0.390625 1.140625 1.0625 1.90625q0.671875 0.765625 1.578125 1.15625q0.90625 0.375 1.96875 0.375q0.953125 0 1.671875 -0.1875q0.71875 -0.1875 1.203125 -0.484375l0.4375 1.375zm1.9284058 -14.5625q0.984375 1.03125 1.65625 2.265625q0.6875 1.21875 1.109375 2.515625q0.421875 1.28125 0.609375 2.59375q0.1875 1.3125 0.1875 2.5q0 1.171875 -0.1875 2.484375q-0.1875 1.296875 -0.625 2.609375q-0.421875 1.3125 -1.125 2.5625q-0.6875 1.265625 -1.6875 2.34375l-1.015625 -0.734375q0.84375 -1.09375 1.421875 -2.265625q0.578125 -1.171875 0.90625 -2.359375q0.328125 -1.203125 0.46875 -2.375q0.140625 -1.171875 0.140625 -2.265625q0 -1.015625 -0.171875 -2.203125q-0.171875 -1.203125 -0.53125 -2.421875q-0.34375 -1.21875 -0.90625 -2.359375q-0.546875 -1.15625 -1.328125 -2.09375l1.078125 -0.796875z" fill-rule="nonzero"/><path fill="#000000" d="m222.83173 109.95775q-0.640625 0.5 -1.625 0.6875q-0.984375 0.1875 -2.09375 0.1875q-1.34375 0 -2.515625 -0.453125q-1.171875 -0.453125 -2.046875 -1.390625q-0.875 -0.9375 -1.390625 -2.390625q-0.515625 -1.46875 -0.515625 -3.484375q0 -2.09375 0.5625 -3.546875q0.578125 -1.46875 1.5 -2.390625q0.9375 -0.921875 2.078125 -1.34375q1.15625 -0.4375 2.34375 -0.4375q1.28125 0 2.09375 0.140625q0.8125 0.140625 1.390625 0.375l-0.421875 1.5625q-1.03125 -0.5 -2.921875 -0.5q-0.875 0 -1.734375 0.328125q-0.859375 0.3125 -1.53125 1.046875q-0.671875 0.71875 -1.078125 1.890625q-0.390625 1.171875 -0.390625 2.875q0 1.546875 0.375 2.703125q0.390625 1.140625 1.0625 1.90625q0.671875 0.765625 1.578125 1.15625q0.90625 0.375 1.96875 0.375q0.953125 0 1.671875 -0.1875q0.71875 -0.1875 1.203125 -0.484375l0.4375 1.375z" fill-rule="nonzero"/><path fill="#000000" d="m244.66393 101.45775q1.390625 1.515625 2.390625 2.296875q1.015625 0.78125 1.921875 1.171875l0 0.46875q-1.03125 0.5 -2.0 1.28125q-0.96875 0.765625 -2.3125 2.265625l-0.8125 0q0.984375 -2.09375 2.0625 -3.21875l-16.609375 0l0 -1.046875l16.609375 0q-0.796875 -1.015625 -1.109375 -1.5q-0.3125 -0.484375 -0.921875 -1.71875l0.78125 0z" fill-rule="nonzero"/><path fill="#000000" d="m260.34293 115.27025q-0.984375 -1.015625 -1.671875 -2.25q-0.671875 -1.21875 -1.09375 -2.5q-0.421875 -1.296875 -0.609375 -2.609375q-0.1875 -1.3125 -0.1875 -2.515625q0 -1.171875 0.1875 -2.46875q0.1875 -1.296875 0.609375 -2.609375q0.4375 -1.3125 1.125 -2.5625q0.703125 -1.265625 1.703125 -2.359375l1.015625 0.75q-0.84375 1.09375 -1.40625 2.25q-0.5625 1.15625 -0.90625 2.359375q-0.34375 1.1875 -0.484375 2.375q-0.140625 1.1875 -0.140625 2.265625q0 1.03125 0.15625 2.234375q0.171875 1.203125 0.515625 2.40625q0.359375 1.203125 0.921875 2.359375q0.5625 1.15625 1.34375 2.09375l-1.078125 0.78125zm3.4718933 -4.6875l5.359375 -12.5l0.9375 -1.046875l-1.265625 0.203125l-6.078125 0l0 -1.59375l8.921875 0l0 0.578125l-6.140625 14.359375l-1.734375 0zm7.980316 -0.921875q0 -0.5 0.34375 -0.8125q0.34375 -0.328125 0.875 -0.328125q0.65625 0 1.0625 0.46875q0.421875 0.46875 0.421875 1.359375q0 0.765625 -0.21875 1.34375q-0.203125 0.578125 -0.546875 0.984375q-0.34375 0.421875 -0.75 0.6875q-0.40625 0.265625 -0.8125 0.390625l-0.53125 -0.828125q0.765625 -0.296875 1.140625 -0.921875q0.375 -0.625 0.375 -1.265625q-0.1875 0.0625 -0.359375 0.0625q-0.421875 0 -0.71875 -0.28125q-0.28125 -0.296875 -0.28125 -0.859375zm15.126984 0.296875q-0.640625 0.5 -1.625 0.6875q-0.984375 0.1875 -2.09375 0.1875q-1.34375 0 -2.515625 -0.453125q-1.171875 -0.453125 -2.046875 -1.390625q-0.875 -0.9375 -1.390625 -2.390625q-0.515625 -1.46875 -0.515625 -3.484375q0 -2.09375 0.5625 -3.546875q0.578125 -1.46875 1.5 -2.390625q0.9375 -0.921875 2.078125 -1.34375q1.15625 -0.4375 2.34375 -0.4375q1.28125 0 2.09375 0.140625q0.8125 0.140625 1.390625 0.375l-0.421875 1.5625q-1.03125 -0.5 -2.921875 -0.5q-0.875 0 -1.734375 0.328125q-0.859375 0.3125 -1.53125 1.046875q-0.671875 0.71875 -1.078125 1.890625q-0.390625 1.171875 -0.390625 2.875q0 1.546875 0.375 2.703125q0.390625 1.140625 1.0625 1.90625q0.671875 0.765625 1.578125 1.15625q0.90625 0.375 1.96875 0.375q0.953125 0 1.671875 -0.1875q0.71875 -0.1875 1.203125 -0.484375l0.4375 1.375zm1.8502808 -0.296875q0 -0.5 0.34375 -0.8125q0.34375 -0.328125 0.875 -0.328125q0.65625 0 1.0625 0.46875q0.421875 0.46875 0.421875 1.359375q0 0.765625 -0.21875 1.34375q-0.203125 0.578125 -0.546875 0.984375q-0.34375 0.421875 -0.75 0.6875q-0.40625 0.265625 -0.8125 0.390625l-0.53125 -0.828125q0.765625 -0.296875 1.140625 -0.921875q0.375 -0.625 0.375 -1.265625q-0.1875 0.0625 -0.359375 0.0625q-0.421875 0 -0.71875 -0.28125q-0.28125 -0.296875 -0.28125 -0.859375zm12.673828 -3.21875l-5.515625 0l-1.484375 4.140625l-1.75 0l5.65625 -15.171875l0.8125 0l5.671875 15.171875l-1.859375 0l-1.53125 -4.140625zm-4.9375 -1.53125l4.390625 0l-1.65625 -4.546875l-0.53125 -2.265625l-0.03125 0l-0.53125 2.3125l-1.640625 4.5zm9.617645 -9.515625q0.984375 1.03125 1.65625 2.265625q0.6875 1.21875 1.109375 2.515625q0.421875 1.28125 0.609375 2.59375q0.1875 1.3125 0.1875 2.5q0 1.171875 -0.1875 2.484375q-0.1875 1.296875 -0.625 2.609375q-0.421875 1.3125 -1.125 2.5625q-0.6875 1.265625 -1.6875 2.34375l-1.015625 -0.734375q0.84375 -1.09375 1.421875 -2.265625q0.578125 -1.171875 0.90625 -2.359375q0.328125 -1.203125 0.46875 -2.375q0.140625 -1.171875 0.140625 -2.265625q0 -1.015625 -0.171875 -2.203125q-0.171875 -1.203125 -0.53125 -2.421875q-0.34375 -1.21875 -0.90625 -2.359375q-0.546875 -1.15625 -1.328125 -2.09375l1.078125 -0.796875zm15.385254 19.875q-0.984375 -1.015625 -1.671875 -2.25q-0.671875 -1.21875 -1.09375 -2.5q-0.421875 -1.296875 -0.609375 -2.609375q-0.1875 -1.3125 -0.1875 -2.515625q0 -1.171875 0.1875 -2.46875q0.1875 -1.296875 0.609375 -2.609375q0.4375 -1.3125 1.125 -2.5625q0.703125 -1.265625 1.703125 -2.359375l1.015625 0.75q-0.84375 1.09375 -1.40625 2.25q-0.5625 1.15625 -0.90625 2.359375q-0.34375 1.1875 -0.484375 2.375q-0.140625 1.1875 -0.140625 2.265625q0 1.03125 0.15625 2.234375q0.171875 1.203125 0.515625 2.40625q0.359375 1.203125 0.921875 2.359375q0.5625 1.15625 1.34375 2.09375l-1.078125 0.78125zm11.628143 -9.1875q0 0.984375 -0.3125 1.84375q-0.296875 0.859375 -0.875 1.515625q-0.5625 0.65625 -1.421875 1.03125q-0.859375 0.359375 -1.9375 0.359375q-1.0625 0 -1.921875 -0.328125q-0.859375 -0.34375 -1.484375 -1.015625q-0.609375 -0.671875 -0.9375 -1.65625q-0.328125 -0.984375 -0.328125 -2.265625q0 -2.109375 0.546875 -3.890625q0.546875 -1.78125 1.5 -3.09375q0.953125 -1.328125 2.265625 -2.140625q1.3125 -0.828125 2.859375 -1.046875l0.359375 1.359375q-1.203125 0.21875 -2.1875 0.828125q-0.96875 0.59375 -1.703125 1.46875q-0.734375 0.859375 -1.21875 1.953125q-0.46875 1.09375 -0.625 2.234375q0.328125 -0.5625 1.140625 -1.046875q0.8125 -0.484375 1.984375 -0.484375q2.015625 0 3.15625 1.15625q1.140625 1.15625 1.140625 3.21875zm-1.78125 0.171875q0 -1.515625 -0.703125 -2.28125q-0.703125 -0.765625 -2.171875 -0.765625q-1.046875 0 -1.8125 0.515625q-0.75 0.5 -1.046875 1.140625q-0.046875 0.296875 -0.046875 0.5q0 0.1875 0 0.421875q0 0.65625 0.1875 1.296875q0.1875 0.640625 0.5625 1.140625q0.390625 0.5 0.953125 0.8125q0.5625 0.3125 1.328125 0.3125q0.625 0 1.125 -0.234375q0.5 -0.234375 0.859375 -0.640625q0.359375 -0.40625 0.5625 -0.984375q0.203125 -0.578125 0.203125 -1.234375zm3.9519958 3.40625q0 -0.5 0.34375 -0.8125q0.34375 -0.328125 0.875 -0.328125q0.65625 0 1.0625 0.46875q0.421875 0.46875 0.421875 1.359375q0 0.765625 -0.21875 1.34375q-0.203125 0.578125 -0.546875 0.984375q-0.34375 0.421875 -0.75 0.6875q-0.40625 0.265625 -0.8125 0.390625l-0.53125 -0.828125q0.765625 -0.296875 1.140625 -0.921875q0.375 -0.625 0.375 -1.265625q-0.1875 0.0625 -0.359375 0.0625q-0.421875 0 -0.71875 -0.28125q-0.28125 -0.296875 -0.28125 -0.859375zm15.126984 0.296875q-0.640625 0.5 -1.625 0.6875q-0.984375 0.1875 -2.09375 0.1875q-1.34375 0 -2.515625 -0.453125q-1.171875 -0.453125 -2.046875 -1.390625q-0.875 -0.9375 -1.390625 -2.390625q-0.515625 -1.46875 -0.515625 -3.484375q0 -2.09375 0.5625 -3.546875q0.578125 -1.46875 1.5 -2.390625q0.9375 -0.921875 2.078125 -1.34375q1.15625 -0.4375 2.34375 -0.4375q1.28125 0 2.09375 0.140625q0.8125 0.140625 1.390625 0.375l-0.421875 1.5625q-1.03125 -0.5 -2.921875 -0.5q-0.875 0 -1.734375 0.328125q-0.859375 0.3125 -1.53125 1.046875q-0.671875 0.71875 -1.078125 1.890625q-0.390625 1.171875 -0.390625 2.875q0 1.546875 0.375 2.703125q0.390625 1.140625 1.0625 1.90625q0.671875 0.765625 1.578125 1.15625q0.90625 0.375 1.96875 0.375q0.953125 0 1.671875 -0.1875q0.71875 -0.1875 1.203125 -0.484375l0.4375 1.375zm1.8502808 -0.296875q0 -0.5 0.34375 -0.8125q0.34375 -0.328125 0.875 -0.328125q0.65625 0 1.0625 0.46875q0.421875 0.46875 0.421875 1.359375q0 0.765625 -0.21875 1.34375q-0.203125 0.578125 -0.546875 0.984375q-0.34375 0.421875 -0.75 0.6875q-0.40625 0.265625 -0.8125 0.390625l-0.53125 -0.828125q0.765625 -0.296875 1.140625 -0.921875q0.375 -0.625 0.375 -1.265625q-0.1875 0.0625 -0.359375 0.0625q-0.421875 0 -0.71875 -0.28125q-0.28125 -0.296875 -0.28125 -0.859375zm5.564453 -14.015625q0.40625 -0.0625 0.90625 -0.09375q0.5 -0.03125 1.046875 -0.03125q0.546875 -0.015625 1.0625 -0.015625q0.53125 -0.015625 0.96875 -0.015625q1.796875 0 3.109375 0.5625q1.3125 0.546875 2.15625 1.546875q0.859375 0.984375 1.265625 2.375q0.421875 1.375 0.421875 3.03125q0 1.515625 -0.390625 2.921875q-0.390625 1.390625 -1.25 2.46875q-0.84375 1.078125 -2.21875 1.734375q-1.359375 0.640625 -3.296875 0.640625q-0.34375 0 -0.890625 -0.015625q-0.546875 0 -1.125 -0.03125q-0.578125 -0.03125 -1.0625 -0.0625q-0.484375 -0.015625 -0.703125 -0.0625l0 -14.953125zm4.03125 1.421875q-0.28125 0 -0.609375 0q-0.328125 0 -0.65625 0.015625q-0.3125 0.015625 -0.578125 0.046875q-0.265625 0.015625 -0.421875 0.03125l0 11.953125q0.109375 0.015625 0.40625 0.03125q0.296875 0.015625 0.609375 0.03125q0.328125 0 0.625 0.015625q0.3125 0 0.40625 0q1.5 0 2.515625 -0.5q1.015625 -0.515625 1.609375 -1.375q0.609375 -0.875 0.859375 -1.984375q0.265625 -1.125 0.265625 -2.328125q0 -1.03125 -0.234375 -2.09375q-0.234375 -1.0625 -0.8125 -1.90625q-0.578125 -0.859375 -1.546875 -1.390625q-0.96875 -0.546875 -2.4375 -0.546875zm9.229919 -1.671875q0.984375 1.03125 1.65625 2.265625q0.6875 1.21875 1.109375 2.515625q0.421875 1.28125 0.609375 2.59375q0.1875 1.3125 0.1875 2.5q0 1.171875 -0.1875 2.484375q-0.1875 1.296875 -0.625 2.609375q-0.421875 1.3125 -1.125 2.5625q-0.6875 1.265625 -1.6875 2.34375l-1.015625 -0.734375q0.84375 -1.09375 1.421875 -2.265625q0.578125 -1.171875 0.90625 -2.359375q0.328125 -1.203125 0.46875 -2.375q0.140625 -1.171875 0.140625 -2.265625q0 -1.015625 -0.171875 -2.203125q-0.171875 -1.203125 -0.53125 -2.421875q-0.34375 -1.21875 -0.90625 -2.359375q-0.546875 -1.15625 -1.328125 -2.09375l1.078125 -0.796875z" fill-rule="nonzero"/><path fill="#000000" d="m213.26923 125.08525q0.40625 -0.0625 0.90625 -0.09375q0.5 -0.03125 1.046875 -0.03125q0.546875 -0.015625 1.0625 -0.015625q0.53125 -0.015625 0.96875 -0.015625q1.796875 0 3.109375 0.5625q1.3125 0.546875 2.15625 1.546875q0.859375 0.984375 1.265625 2.375q0.421875 1.375 0.421875 3.03125q0 1.515625 -0.390625 2.921875q-0.390625 1.390625 -1.25 2.46875q-0.84375 1.078125 -2.21875 1.734375q-1.359375 0.640625 -3.296875 0.640625q-0.34375 0 -0.890625 -0.015625q-0.546875 0 -1.125 -0.03125q-0.578125 -0.03125 -1.0625 -0.0625q-0.484375 -0.015625 -0.703125 -0.0625l0 -14.953125zm4.03125 1.421875q-0.28125 0 -0.609375 0q-0.328125 0 -0.65625 0.015625q-0.3125 0.015625 -0.578125 0.046875q-0.265625 0.015625 -0.421875 0.03125l0 11.953125q0.109375 0.015625 0.40625 0.03125q0.296875 0.015625 0.609375 0.03125q0.328125 0 0.625 0.015625q0.3125 0 0.40625 0q1.5 0 2.515625 -0.5q1.015625 -0.515625 1.609375 -1.375q0.609375 -0.875 0.859375 -1.984375q0.265625 -1.125 0.265625 -2.328125q0 -1.03125 -0.234375 -2.09375q-0.234375 -1.0625 -0.8125 -1.90625q-0.578125 -0.859375 -1.546875 -1.390625q-0.96875 -0.546875 -2.4375 -0.546875z" fill-rule="nonzero"/><path fill="#000000" d="m247.2875 130.89775q1.390625 1.515625 2.390625 2.296875q1.015625 0.78125 1.921875 1.171875l0 0.46875q-1.03125 0.5 -2.0 1.28125q-0.96875 0.765625 -2.3125 2.265625l-0.8125 0q0.984375 -2.09375 2.0625 -3.21875l-16.609375 0l0 -1.046875l16.609375 0q-0.796875 -1.015625 -1.109375 -1.5q-0.3125 -0.484375 -0.921875 -1.71875l0.78125 0z" fill-rule="nonzero"/><path fill="#000000" d="m262.9665 144.71025q-0.984375 -1.015625 -1.671875 -2.25q-0.671875 -1.21875 -1.09375 -2.5q-0.421875 -1.296875 -0.609375 -2.609375q-0.1875 -1.3125 -0.1875 -2.515625q0 -1.171875 0.1875 -2.46875q0.1875 -1.296875 0.609375 -2.609375q0.4375 -1.3125 1.125 -2.5625q0.703125 -1.265625 1.703125 -2.359375l1.015625 0.75q-0.84375 1.09375 -1.40625 2.25q-0.5625 1.15625 -0.90625 2.359375q-0.34375 1.1875 -0.484375 2.375q-0.140625 1.1875 -0.140625 2.265625q0 1.03125 0.15625 2.234375q0.171875 1.203125 0.515625 2.40625q0.359375 1.203125 0.921875 2.359375q0.5625 1.15625 1.34375 2.09375l-1.078125 0.78125zm10.643768 -16.21875q0 1.125 -0.421875 2.3125q-0.40625 1.171875 -1.078125 2.375q-0.671875 1.1875 -1.515625 2.328125q-0.828125 1.140625 -1.65625 2.171875l-1.046875 0.921875l0 0.078125l1.359375 -0.234375l4.65625 0l0 1.578125l-8.484375 0l0 -0.625q0.46875 -0.484375 1.125 -1.203125q0.65625 -0.734375 1.375 -1.609375q0.71875 -0.890625 1.40625 -1.875q0.6875 -1.0 1.25 -2.015625q0.578125 -1.03125 0.90625 -2.03125q0.34375 -1.0 0.34375 -1.90625q0 -1.046875 -0.59375 -1.734375q-0.59375 -0.6875 -1.8125 -0.6875q-0.8125 0 -1.578125 0.328125q-0.765625 0.328125 -1.3125 0.75l-0.703125 -1.21875q0.734375 -0.625 1.75 -0.984375q1.03125 -0.375 2.203125 -0.375q0.921875 0 1.625 0.265625q0.703125 0.265625 1.1875 0.765625q0.5 0.484375 0.75 1.15625q0.265625 0.671875 0.265625 1.46875zm3.1551208 10.609375q0 -0.5 0.34375 -0.8125q0.34375 -0.328125 0.875 -0.328125q0.65625 0 1.0625 0.46875q0.421875 0.46875 0.421875 1.359375q0 0.765625 -0.21875 1.34375q-0.203125 0.578125 -0.546875 0.984375q-0.34375 0.421875 -0.75 0.6875q-0.40625 0.265625 -0.8125 0.390625l-0.53125 -0.828125q0.765625 -0.296875 1.140625 -0.921875q0.375 -0.625 0.375 -1.265625q-0.1875 0.0625 -0.359375 0.0625q-0.421875 0 -0.71875 -0.28125q-0.28125 -0.296875 -0.28125 -0.859375zm5.5644836 -14.015625q0.40625 -0.0625 0.90625 -0.09375q0.5 -0.03125 1.046875 -0.03125q0.546875 -0.015625 1.0625 -0.015625q0.53125 -0.015625 0.96875 -0.015625q1.796875 0 3.109375 0.5625q1.3125 0.546875 2.15625 1.546875q0.859375 0.984375 1.265625 2.375q0.421875 1.375 0.421875 3.03125q0 1.515625 -0.390625 2.921875q-0.390625 1.390625 -1.25 2.46875q-0.84375 1.078125 -2.21875 1.734375q-1.359375 0.640625 -3.296875 0.640625q-0.34375 0 -0.890625 -0.015625q-0.546875 0 -1.125 -0.03125q-0.578125 -0.03125 -1.0625 -0.0625q-0.484375 -0.015625 -0.703125 -0.0625l0 -14.953125zm4.03125 1.421875q-0.28125 0 -0.609375 0q-0.328125 0 -0.65625 0.015625q-0.3125 0.015625 -0.578125 0.046875q-0.265625 0.015625 -0.421875 0.03125l0 11.953125q0.109375 0.015625 0.40625 0.03125q0.296875 0.015625 0.609375 0.03125q0.328125 0 0.625 0.015625q0.3125 0 0.40625 0q1.5 0 2.515625 -0.5q1.015625 -0.515625 1.609375 -1.375q0.609375 -0.875 0.859375 -1.984375q0.265625 -1.125 0.265625 -2.328125q0 -1.03125 -0.234375 -2.09375q-0.234375 -1.0625 -0.8125 -1.90625q-0.578125 -0.859375 -1.546875 -1.390625q-0.96875 -0.546875 -2.4375 -0.546875zm8.51178 12.59375q0 -0.5 0.34375 -0.8125q0.34375 -0.328125 0.875 -0.328125q0.65625 0 1.0625 0.46875q0.421875 0.46875 0.421875 1.359375q0 0.765625 -0.21875 1.34375q-0.203125 0.578125 -0.546875 0.984375q-0.34375 0.421875 -0.75 0.6875q-0.40625 0.265625 -0.8125 0.390625l-0.53125 -0.828125q0.765625 -0.296875 1.140625 -0.921875q0.375 -0.625 0.375 -1.265625q-0.1875 0.0625 -0.359375 0.0625q-0.421875 0 -0.71875 -0.28125q-0.28125 -0.296875 -0.28125 -0.859375zm5.564453 -14.015625q0.40625 -0.0625 0.90625 -0.09375q0.5 -0.03125 1.046875 -0.03125q0.546875 -0.015625 1.0625 -0.015625q0.53125 -0.015625 0.96875 -0.015625q1.796875 0 3.109375 0.5625q1.3125 0.546875 2.15625 1.546875q0.859375 0.984375 1.265625 2.375q0.421875 1.375 0.421875 3.03125q0 1.515625 -0.390625 2.921875q-0.390625 1.390625 -1.25 2.46875q-0.84375 1.078125 -2.21875 1.734375q-1.359375 0.640625 -3.296875 0.640625q-0.34375 0 -0.890625 -0.015625q-0.546875 0 -1.125 -0.03125q-0.578125 -0.03125 -1.0625 -0.0625q-0.484375 -0.015625 -0.703125 -0.0625l0 -14.953125zm4.03125 1.421875q-0.28125 0 -0.609375 0q-0.328125 0 -0.65625 0.015625q-0.3125 0.015625 -0.578125 0.046875q-0.265625 0.015625 -0.421875 0.03125l0 11.953125q0.109375 0.015625 0.40625 0.03125q0.296875 0.015625 0.609375 0.03125q0.328125 0 0.625 0.015625q0.3125 0 0.40625 0q1.5 0 2.515625 -0.5q1.015625 -0.515625 1.609375 -1.375q0.609375 -0.875 0.859375 -1.984375q0.265625 -1.125 0.265625 -2.328125q0 -1.03125 -0.234375 -2.09375q-0.234375 -1.0625 -0.8125 -1.90625q-0.578125 -0.859375 -1.546875 -1.390625q-0.96875 -0.546875 -2.4375 -0.546875zm9.229919 -1.671875q0.984375 1.03125 1.65625 2.265625q0.6875 1.21875 1.109375 2.515625q0.421875 1.28125 0.609375 2.59375q0.1875 1.3125 0.1875 2.5q0 1.171875 -0.1875 2.484375q-0.1875 1.296875 -0.625 2.609375q-0.421875 1.3125 -1.125 2.5625q-0.6875 1.265625 -1.6875 2.34375l-1.015625 -0.734375q0.84375 -1.09375 1.421875 -2.265625q0.578125 -1.171875 0.90625 -2.359375q0.328125 -1.203125 0.46875 -2.375q0.140625 -1.171875 0.140625 -2.265625q0 -1.015625 -0.171875 -2.203125q-0.171875 -1.203125 -0.53125 -2.421875q-0.34375 -1.21875 -0.90625 -2.359375q-0.546875 -1.15625 -1.328125 -2.09375l1.078125 -0.796875z" fill-rule="nonzero"/><path stroke="#9e9e9e" stroke-width="1.0" stroke-linecap="butt" d="m432.93192 56.583908l0 105.82677" fill-rule="nonzero"/><path stroke="#9e9e9e" stroke-width="1.0" stroke-linecap="butt" d="m459.3886 28.628527l0 133.78215" fill-rule="nonzero"/><path stroke="#9e9e9e" stroke-width="1.0" stroke-linecap="butt" d="m485.84528 29.129839l0 133.28084" fill-rule="nonzero"/><path stroke="#9e9e9e" stroke-width="1.0" stroke-linecap="butt" d="m512.302 29.129839l0 133.28084" fill-rule="nonzero"/><path stroke="#9e9e9e" stroke-width="1.0" stroke-linecap="butt" d="m538.75867 29.129839l0 133.28084" fill-rule="nonzero"/><path stroke="#9e9e9e" stroke-width="1.0" stroke-linecap="butt" d="m565.2154 29.129839l0 133.28084" fill-rule="nonzero"/><path stroke="#9e9e9e" stroke-width="1.0" stroke-linecap="butt" d="m459.8873 29.628527l105.82675 0" fill-rule="nonzero"/><path stroke="#9e9e9e" stroke-width="1.0" stroke-linecap="butt" d="m431.93192 56.08522l133.78214 0" fill-rule="nonzero"/><path stroke="#9e9e9e" stroke-width="1.0" stroke-linecap="butt" d="m432.43323 82.54191l133.28082 0" fill-rule="nonzero"/><path stroke="#9e9e9e" stroke-width="1.0" stroke-linecap="butt" d="m432.43323 108.998604l133.28082 0" fill-rule="nonzero"/><path stroke="#9e9e9e" stroke-width="1.0" stroke-linecap="butt" d="m432.43323 135.45529l133.28082 0" fill-rule="nonzero"/><path stroke="#9e9e9e" stroke-width="1.0" stroke-linecap="butt" d="m432.43323 161.91199l133.28082 0" fill-rule="nonzero"/><path fill="#000000" d="m474.95688 45.95187l-4.8125 0l-1.3125 3.625l-1.515625 0l4.9375 -13.265625l0.703125 0l4.96875 13.265625l-1.625 0l-1.34375 -3.625zm-4.3125 -1.34375l3.84375 0l-1.453125 -3.96875l-0.46875 -1.96875l-0.015625 0l-0.46875 2.0l-1.4375 3.9375z" fill-rule="nonzero"/><path fill="#000000" d="m503.07913 39.498745q0 0.46875 -0.15625 0.953125q-0.140625 0.484375 -0.4375 0.90625q-0.296875 0.421875 -0.765625 0.75q-0.46875 0.3125 -1.09375 0.46875l0 0.078125q0.5625 0.09375 1.0625 0.328125q0.515625 0.21875 0.90625 0.609375q0.390625 0.390625 0.625 0.953125q0.25 0.546875 0.25 1.3125q0 1.015625 -0.421875 1.75q-0.40625 0.734375 -1.09375 1.203125q-0.671875 0.46875 -1.5625 0.703125q-0.875 0.21875 -1.78125 0.21875q-0.3125 0 -0.75 0q-0.421875 0 -0.890625 -0.03125q-0.46875 -0.03125 -0.9375 -0.078125q-0.46875 -0.046875 -0.828125 -0.140625l0 -12.859375q0.703125 -0.109375 1.609375 -0.171875q0.921875 -0.078125 2.0 -0.078125q0.71875 0 1.46875 0.125q0.765625 0.109375 1.375 0.453125q0.625 0.34375 1.015625 0.96875q0.40625 0.609375 0.40625 1.578125zm-4.328125 8.890625q0.609375 0 1.15625 -0.140625q0.5625 -0.140625 0.984375 -0.453125q0.4375 -0.3125 0.6875 -0.75q0.25 -0.453125 0.25 -1.0625q0 -0.765625 -0.3125 -1.234375q-0.296875 -0.46875 -0.796875 -0.734375q-0.484375 -0.265625 -1.109375 -0.34375q-0.609375 -0.09375 -1.234375 -0.09375l-1.609375 0l0 4.671875q0.125 0.046875 0.359375 0.0625q0.25 0.015625 0.53125 0.03125q0.28125 0.015625 0.578125 0.03125q0.296875 0.015625 0.515625 0.015625zm-1.015625 -6.125q0.3125 0 0.75 -0.015625q0.453125 -0.015625 0.75 -0.0625q0.453125 -0.140625 0.84375 -0.359375q0.390625 -0.21875 0.703125 -0.5q0.3125 -0.296875 0.484375 -0.671875q0.171875 -0.390625 0.171875 -0.828125q0 -0.625 -0.234375 -1.015625q-0.234375 -0.40625 -0.625 -0.640625q-0.390625 -0.25 -0.890625 -0.34375q-0.5 -0.109375 -1.03125 -0.109375q-0.609375 0 -1.125 0.03125q-0.515625 0.015625 -0.765625 0.078125l0 4.4375l0.96875 0z" fill-rule="nonzero"/><path fill="#000000" d="m530.1415 49.029995q-0.546875 0.4375 -1.40625 0.59375q-0.859375 0.171875 -1.828125 0.171875q-1.1875 0 -2.21875 -0.390625q-1.015625 -0.40625 -1.78125 -1.21875q-0.765625 -0.828125 -1.21875 -2.109375q-0.4375 -1.28125 -0.4375 -3.03125q0 -1.828125 0.484375 -3.09375q0.5 -1.28125 1.3125 -2.09375q0.8125 -0.8125 1.8125 -1.1875q1.015625 -0.375 2.0625 -0.375q1.109375 0 1.8125 0.125q0.71875 0.109375 1.21875 0.328125l-0.359375 1.359375q-0.90625 -0.4375 -2.5625 -0.4375q-0.765625 0 -1.515625 0.28125q-0.734375 0.28125 -1.328125 0.921875q-0.59375 0.625 -0.953125 1.65625q-0.34375 1.03125 -0.34375 2.515625q0 1.34375 0.328125 2.359375q0.34375 1.0 0.921875 1.671875q0.59375 0.671875 1.390625 1.015625q0.796875 0.328125 1.71875 0.328125q0.84375 0 1.46875 -0.171875q0.625 -0.171875 1.0625 -0.421875l0.359375 1.203125z" fill-rule="nonzero"/><path fill="#000000" d="m547.46454 36.51437q0.359375 -0.046875 0.796875 -0.078125q0.4375 -0.03125 0.90625 -0.03125q0.484375 -0.015625 0.9375 -0.015625q0.46875 -0.015625 0.859375 -0.015625q1.5625 0 2.703125 0.484375q1.15625 0.484375 1.890625 1.359375q0.75 0.859375 1.109375 2.078125q0.375 1.203125 0.375 2.65625q0 1.328125 -0.34375 2.546875q-0.34375 1.21875 -1.09375 2.171875q-0.75 0.9375 -1.953125 1.515625q-1.1875 0.5625 -2.875 0.5625q-0.296875 0 -0.78125 -0.015625q-0.46875 0 -0.984375 -0.03125q-0.5 -0.03125 -0.9375 -0.046875q-0.421875 -0.015625 -0.609375 -0.0625l0 -13.078125zm3.53125 1.234375q-0.234375 0 -0.53125 0q-0.28125 0 -0.5625 0.015625q-0.28125 0.015625 -0.515625 0.046875q-0.234375 0.015625 -0.359375 0.03125l0 10.453125q0.09375 0.015625 0.34375 0.03125q0.265625 0 0.546875 0.015625q0.28125 0 0.53125 0.015625q0.265625 0 0.359375 0q1.3125 0 2.1875 -0.4375q0.890625 -0.453125 1.421875 -1.203125q0.53125 -0.765625 0.75 -1.734375q0.234375 -0.984375 0.234375 -2.03125q0 -0.90625 -0.203125 -1.828125q-0.203125 -0.9375 -0.71875 -1.671875q-0.5 -0.75 -1.34375 -1.21875q-0.84375 -0.484375 -2.140625 -0.484375z" fill-rule="nonzero"/><path fill="#000000" d="m448.50018 72.40856l-4.8125 0l-1.3125 3.625l-1.515625 0l4.9375 -13.265621l0.703125 0l4.96875 13.265621l-1.625 0l-1.34375 -3.625zm-4.3125 -1.34375l3.84375 0l-1.453125 -3.96875l-0.46875 -1.96875l-0.015625 0l-0.46875 2.0l-1.4375 3.9375z" fill-rule="nonzero"/><path fill="#000000" d="m522.49335 76.03356l4.6875 -10.9375l0.828125 -0.90625l-1.109375 0.171875l-5.3125 0l0 -1.3906212l7.796875 0l0 0.5l-5.375 12.562496l-1.515625 0z" fill-rule="nonzero"/><path fill="#000000" d="m450.16574 92.41213q0 0.46875 -0.15625 0.953125q-0.140625 0.484375 -0.4375 0.90625q-0.296875 0.421875 -0.765625 0.75q-0.46875 0.3125 -1.09375 0.46875l0 0.078125q0.5625 0.09375 1.0625 0.328125q0.515625 0.21875 0.90625 0.609375q0.390625 0.390625 0.625 0.953125q0.25 0.546875 0.25 1.3125q0 1.015625 -0.421875 1.75q-0.40625 0.734375 -1.09375 1.203125q-0.671875 0.46875 -1.5625 0.703125q-0.875 0.21875 -1.78125 0.21875q-0.3125 0 -0.75 0q-0.421875 0 -0.890625 -0.03125q-0.46875 -0.03125 -0.9375 -0.078125q-0.46875 -0.046875 -0.828125 -0.140625l0 -12.859375q0.703125 -0.109375 1.609375 -0.171875q0.921875 -0.078125 2.0 -0.078125q0.71875 0 1.46875 0.125q0.765625 0.109375 1.375 0.453125q0.625 0.34375 1.015625 0.96875q0.40625 0.609375 0.40625 1.578125zm-4.328125 8.890625q0.609375 0 1.15625 -0.140625q0.5625 -0.140625 0.984375 -0.453125q0.4375 -0.3125 0.6875 -0.75q0.25 -0.453125 0.25 -1.0625q0 -0.765625 -0.3125 -1.234375q-0.296875 -0.46875 -0.796875 -0.734375q-0.484375 -0.265625 -1.109375 -0.34375q-0.609375 -0.09375 -1.234375 -0.09375l-1.609375 0l0 4.671875q0.125 0.046875 0.359375 0.0625q0.25 0.015625 0.53125 0.03125q0.28125 0.015625 0.578125 0.03125q0.296875 0.015625 0.515625 0.015625zm-1.015625 -6.125q0.3125 0 0.75 -0.015625q0.453125 -0.015625 0.75 -0.0625q0.453125 -0.140625 0.84375 -0.359375q0.390625 -0.21875 0.703125 -0.5q0.3125 -0.296875 0.484375 -0.671875q0.171875 -0.390625 0.171875 -0.828125q0 -0.625 -0.234375 -1.015625q-0.234375 -0.40625 -0.625 -0.640625q-0.390625 -0.25 -0.890625 -0.34375q-0.5 -0.109375 -1.03125 -0.109375q-0.609375 0 -1.125 0.03125q-0.515625 0.015625 -0.765625 0.078125l0 4.4375l0.96875 0z" fill-rule="nonzero"/><path fill="#000000" d="m468.79874 99.38088q0 -1.1875 0.609375 -2.046875q0.625 -0.875 1.9375 -1.578125q-0.46875 -0.28125 -0.875 -0.578125q-0.40625 -0.3125 -0.71875 -0.703125q-0.296875 -0.390625 -0.484375 -0.875q-0.171875 -0.5 -0.171875 -1.125q0 -0.734375 0.25 -1.328125q0.265625 -0.59375 0.734375 -1.015625q0.46875 -0.4375 1.125 -0.671875q0.671875 -0.25 1.515625 -0.25q0.78125 0 1.40625 0.234375q0.640625 0.21875 1.078125 0.609375q0.4375 0.390625 0.671875 0.9375q0.25 0.53125 0.25 1.1875q0 1.0625 -0.484375 1.875q-0.484375 0.8125 -1.59375 1.59375q0.484375 0.28125 0.921875 0.625q0.4375 0.328125 0.765625 0.734375q0.328125 0.40625 0.515625 0.921875q0.1875 0.515625 0.1875 1.171875q0 0.796875 -0.265625 1.46875q-0.265625 0.65625 -0.765625 1.140625q-0.5 0.46875 -1.234375 0.734375q-0.734375 0.265625 -1.65625 0.265625q-0.90625 0 -1.59375 -0.25q-0.6875 -0.265625 -1.171875 -0.703125q-0.46875 -0.453125 -0.71875 -1.0625q-0.234375 -0.609375 -0.234375 -1.3125zm6.171875 -0.1875q0 -0.5625 -0.21875 -0.984375q-0.21875 -0.421875 -0.59375 -0.765625q-0.359375 -0.34375 -0.828125 -0.625q-0.46875 -0.28125 -0.96875 -0.546875q-1.140625 0.640625 -1.625 1.421875q-0.484375 0.78125 -0.484375 1.5q0 0.4375 0.140625 0.859375q0.15625 0.40625 0.453125 0.703125q0.3125 0.296875 0.75 0.484375q0.4375 0.171875 1.015625 0.171875q0.46875 0 0.890625 -0.140625q0.4375 -0.140625 0.75 -0.40625q0.328125 -0.28125 0.515625 -0.703125q0.203125 -0.421875 0.203125 -0.96875zm-4.421875 -6.765625q0 0.53125 0.203125 0.9375q0.21875 0.390625 0.5625 0.71875q0.34375 0.3125 0.78125 0.578125q0.453125 0.265625 0.9375 0.515625q0.84375 -0.65625 1.234375 -1.28125q0.40625 -0.640625 0.40625 -1.40625q0 -0.953125 -0.59375 -1.46875q-0.578125 -0.515625 -1.390625 -0.515625q-0.515625 0 -0.90625 0.171875q-0.390625 0.171875 -0.671875 0.4375q-0.28125 0.25 -0.421875 0.609375q-0.140625 0.34375 -0.140625 0.703125z" fill-rule="nonzero"/><path fill="#000000" d="m450.7714 128.40007q-0.546875 0.4375 -1.40625 0.59375q-0.859375 0.171875 -1.828125 0.171875q-1.1875 0 -2.21875 -0.390625q-1.015625 -0.40625 -1.78125 -1.2187424q-0.765625 -0.828125 -1.21875 -2.109375q-0.4375 -1.28125 -0.4375 -3.03125q0 -1.828125 0.484375 -3.09375q0.5 -1.28125 1.3125 -2.09375q0.8125 -0.8125 1.8125 -1.1875q1.015625 -0.375 2.0625 -0.375q1.109375 0 1.8125 0.125q0.71875 0.109375 1.21875 0.328125l-0.359375 1.359375q-0.90625 -0.4375 -2.5625 -0.4375q-0.765625 0 -1.515625 0.28125q-0.734375 0.28125 -1.328125 0.921875q-0.59375 0.625 -0.953125 1.65625q-0.34375 1.03125 -0.34375 2.515625q0 1.34375 0.328125 2.359375q0.34375 1.0 0.921875 1.671875q0.59375 0.671875 1.390625 1.015625q0.796875 0.328125 1.71875 0.328125q0.84375 0 1.46875 -0.171875q0.625 -0.171875 1.0625 -0.421875l0.359375 1.2031174z" fill-rule="nonzero"/><path fill="#000000" d="m471.8925 127.86883q0.640625 0 1.171875 -0.1875q0.546875 -0.1875 0.9375 -0.546875q0.390625 -0.375 0.609375 -0.875q0.234375 -0.5 0.234375 -1.09375q0 -1.3125 -0.78125 -1.9375q-0.765625 -0.640625 -2.125 -0.640625l-1.390625 0l0 -0.546875l2.6875 -4.140625l0.859375 -0.8125l-1.203125 0.1875l-3.703125 0l0 -1.390625l6.671875 0l0 0.546875l-2.96875 4.453125l-0.65625 0.546875l0 0.03125l0.625 -0.125q0.75 0.015625 1.375 0.265625q0.640625 0.25 1.109375 0.734375q0.46875 0.46875 0.734375 1.140625q0.265625 0.65625 0.265625 1.5q0 1.0 -0.359375 1.78125q-0.359375 0.78125 -0.96875 1.3281174q-0.59375 0.53125 -1.421875 0.8125q-0.8125 0.265625 -1.734375 0.265625q-0.84375 0 -1.515625 -0.125q-0.671875 -0.125 -1.171875 -0.34375l0.390625 -1.3124924q0.4375 0.203125 1.015625 0.34375q0.59375 0.140625 1.3125 0.140625z" fill-rule="nonzero"/><path fill="#000000" d="m498.34918 127.86883q0.640625 0 1.171875 -0.1875q0.546875 -0.1875 0.9375 -0.546875q0.390625 -0.375 0.609375 -0.875q0.234375 -0.5 0.234375 -1.09375q0 -1.3125 -0.78125 -1.9375q-0.765625 -0.640625 -2.125 -0.640625l-1.390625 0l0 -0.546875l2.6875 -4.140625l0.859375 -0.8125l-1.203125 0.1875l-3.703125 0l0 -1.390625l6.671875 0l0 0.546875l-2.96875 4.453125l-0.65625 0.546875l0 0.03125l0.625 -0.125q0.75 0.015625 1.375 0.265625q0.640625 0.25 1.109375 0.734375q0.46875 0.46875 0.734375 1.140625q0.265625 0.65625 0.265625 1.5q0 1.0 -0.359375 1.78125q-0.359375 0.78125 -0.96875 1.3281174q-0.59375 0.53125 -1.421875 0.8125q-0.8125 0.265625 -1.734375 0.265625q-0.84375 0 -1.515625 -0.125q-0.671875 -0.125 -1.171875 -0.34375l0.390625 -1.3124924q0.4375 0.203125 1.015625 0.34375q0.59375 0.140625 1.3125 0.140625z" fill-rule="nonzero"/><path fill="#000000" d="m441.6378 142.34114q0.359375 -0.046875 0.796875 -0.078125q0.4375 -0.03125 0.90625 -0.03125q0.484375 -0.015625 0.9375 -0.015625q0.46875 -0.015625 0.859375 -0.015625q1.5625 0 2.703125 0.484375q1.15625 0.484375 1.890625 1.359375q0.75 0.859375 1.109375 2.078125q0.375 1.203125 0.375 2.65625q0 1.328125 -0.34375 2.546875q-0.34375 1.21875 -1.09375 2.171875q-0.75 0.9375 -1.953125 1.515625q-1.1875 0.5625 -2.875 0.5625q-0.296875 0 -0.78125 -0.015625q-0.46875 0 -0.984375 -0.03125q-0.5 -0.03125 -0.9375 -0.046875q-0.421875 -0.015625 -0.609375 -0.0625l0 -13.078125zm3.53125 1.234375q-0.234375 0 -0.53125 0q-0.28125 0 -0.5625 0.015625q-0.28125 0.015625 -0.515625 0.046875q-0.234375 0.015625 -0.359375 0.03125l0 10.453125q0.09375 0.015625 0.34375 0.03125q0.265625 0 0.546875 0.015625q0.28125 0 0.53125 0.015625q0.265625 0 0.359375 0q1.3125 0 2.1875 -0.4375q0.890625 -0.453125 1.421875 -1.203125q0.53125 -0.765625 0.75 -1.734375q0.234375 -0.984375 0.234375 -2.03125q0 -0.90625 -0.203125 -1.828125q-0.203125 -0.9375 -0.71875 -1.671875q-0.5 -0.75 -1.34375 -1.21875q-0.84375 -0.484375 -2.140625 -0.484375z" fill-rule="nonzero"/><path fill="#000000" d="m529.61835 151.46614q0 0.859375 -0.265625 1.625q-0.25 0.75 -0.75 1.328125q-0.5 0.5625 -1.25 0.890625q-0.75 0.3125 -1.703125 0.3125q-0.9375 0 -1.6875 -0.296875q-0.734375 -0.296875 -1.28125 -0.875q-0.53125 -0.59375 -0.828125 -1.453125q-0.28125 -0.859375 -0.28125 -1.984375q0 -1.84375 0.46875 -3.390625q0.484375 -1.5625 1.3125 -2.71875q0.84375 -1.15625 1.984375 -1.875q1.15625 -0.71875 2.5 -0.90625l0.3125 1.1875q-1.046875 0.1875 -1.90625 0.71875q-0.859375 0.515625 -1.5 1.28125q-0.640625 0.765625 -1.0625 1.71875q-0.40625 0.953125 -0.546875 1.953125q0.296875 -0.5 1.0 -0.921875q0.71875 -0.421875 1.734375 -0.421875q1.765625 0 2.75 1.015625q1.0 1.0 1.0 2.8125zm-1.546875 0.15625q0 -1.328125 -0.609375 -2.0q-0.609375 -0.671875 -1.90625 -0.671875q-0.90625 0 -1.578125 0.453125q-0.65625 0.4375 -0.921875 1.0q-0.03125 0.265625 -0.03125 0.4375q0 0.15625 0 0.359375q0 0.578125 0.15625 1.140625q0.15625 0.5625 0.484375 1.0q0.34375 0.4375 0.828125 0.71875q0.5 0.265625 1.171875 0.265625q0.546875 0 0.984375 -0.203125q0.4375 -0.21875 0.75 -0.5625q0.328125 -0.359375 0.5 -0.859375q0.171875 -0.5 0.171875 -1.078125z" fill-rule="nonzero"/><path fill="#000000" d="m555.2313 145.30989q0 0.984375 -0.375 2.03125q-0.359375 1.03125 -0.953125 2.078125q-0.578125 1.046875 -1.3125 2.046875q-0.71875 0.984375 -1.453125 1.890625l-0.90625 0.796875l0 0.078125l1.1875 -0.203125l4.0625 0l0 1.375l-7.421875 0l0 -0.546875q0.40625 -0.421875 0.984375 -1.046875q0.578125 -0.640625 1.203125 -1.40625q0.625 -0.78125 1.234375 -1.640625q0.609375 -0.875 1.09375 -1.765625q0.5 -0.90625 0.796875 -1.78125q0.296875 -0.875 0.296875 -1.65625q0 -0.921875 -0.515625 -1.53125q-0.515625 -0.609375 -1.578125 -0.609375q-0.71875 0 -1.390625 0.296875q-0.671875 0.28125 -1.15625 0.65625l-0.609375 -1.0625q0.65625 -0.5625 1.546875 -0.875q0.890625 -0.3125 1.921875 -0.3125q0.796875 0 1.40625 0.234375q0.625 0.234375 1.046875 0.671875q0.4375 0.421875 0.65625 1.015625q0.234375 0.578125 0.234375 1.265625z" fill-rule="nonzero"/><path fill="#000000" fill-opacity="0.0" d="m452.33347 -2.6234424l93.480316 0l0 42.01575l-93.480316 0z" fill-rule="evenodd"/><path fill="#000000" d="m462.69284 13.0934305l6.09375 0l0 1.1875l-4.765625 0l0 3.828126l4.453125 0l0 1.171875l-4.453125 0l0 5.015625l-1.328125 0l0 -11.203126zm11.928284 4.437501q-0.484375 -0.15625 -0.921875 -0.15625q-0.6875 0 -1.09375 0.375q-0.390625 0.375 -0.484375 0.953125l0 5.59375l-1.28125 0l0 -8.0l0.890625 0l0.25 0.96875l0.0625 0q0.296875 -0.53125 0.71875 -0.828125q0.421875 -0.296875 1.078125 -0.296875q0.46875 0 1.046875 0.15625l-0.265625 1.234375zm1.2056274 2.765625q0 -2.03125 0.90625 -3.109375q0.90625 -1.078125 2.59375 -1.078125q0.90625 0 1.5625 0.296875q0.671875 0.296875 1.09375 0.84375q0.4375 0.546875 0.640625 1.328125q0.21875 0.78125 0.21875 1.71875q0 2.03125 -0.90625 3.109375q-0.90625 1.078125 -2.609375 1.078125q-0.890625 0 -1.5625 -0.296875q-0.65625 -0.296875 -1.09375 -0.84375q-0.421875 -0.546875 -0.640625 -1.328125q-0.203125 -0.78125 -0.203125 -1.71875zm1.328125 0q0 0.609375 0.125 1.171875q0.125 0.5625 0.375 0.984375q0.25 0.40625 0.671875 0.671875q0.421875 0.25 1.0 0.25q2.1875 0.015625 2.1875 -3.078125q0 -0.625 -0.125 -1.1875q-0.125 -0.5625 -0.375 -0.96875q-0.25 -0.421875 -0.671875 -0.671875q-0.421875 -0.25 -1.015625 -0.25q-2.171875 -0.015625 -2.171875 3.078125zm12.388519 4.0l0 -4.53125q0 -0.640625 -0.0625 -1.109375q-0.046875 -0.46875 -0.21875 -0.78125q-0.15625 -0.328125 -0.453125 -0.484375q-0.296875 -0.171875 -0.765625 -0.171875q-0.734375 0 -1.234375 0.453125q-0.484375 0.453125 -0.671875 1.125l0 5.5l-1.28125 0l0 -8.0l0.890625 0l0.25 0.96875l0.0625 0q0.421875 -0.5 0.984375 -0.828125q0.578125 -0.328125 1.484375 -0.328125q0.78125 0 1.265625 0.296875q0.484375 0.296875 0.75 1.03125q0.375 -0.625 1.015625 -0.96875q0.65625 -0.359375 1.46875 -0.359375q0.671875 0 1.140625 0.15625q0.46875 0.140625 0.765625 0.53125q0.296875 0.375 0.4375 1.03125q0.140625 0.65625 0.140625 1.671875l0 4.796875l-1.28125 0l0 -4.8125q0 -0.578125 -0.0625 -1.0q-0.046875 -0.421875 -0.21875 -0.703125q-0.171875 -0.28125 -0.46875 -0.421875q-0.296875 -0.140625 -0.765625 -0.140625q-0.8125 0 -1.265625 0.453125q-0.4375 0.453125 -0.625 1.28125l0 5.34375l-1.28125 0z" fill-rule="nonzero"/><path fill="#000000" d="m515.05743 16.312181q1.203125 1.328125 2.078125 2.015625q0.890625 0.6875 1.671875 1.015625l0 0.421875q-0.890625 0.4375 -1.75 1.125q-0.84375 0.671875 -2.015625 1.96875l-0.703125 0q0.859375 -1.828125 1.796875 -2.8125l-14.53125 0l0 -0.921875l14.53125 0q-0.6875 -0.875 -0.96875 -1.296875q-0.265625 -0.4375 -0.8125 -1.515625l0.703125 0z" fill-rule="nonzero"/><path fill="#000000" fill-opacity="0.0" d="m413.7953 54.272964l41.826782 0l0 42.614174l-41.826782 0z" fill-rule="evenodd"/><path fill="#000000" d="m423.38904 60.61734l-3.484375 0l0 10.015625l-1.328125 0l0 -10.015625l-3.5 0l0 -1.1875l8.3125 0l0 1.1875zm-0.98046875 6.015625q0 -2.03125 0.90625 -3.109375q0.90625 -1.078125 2.59375 -1.078125q0.90625 0 1.5625 0.296875q0.671875 0.296875 1.09375 0.84375q0.4375 0.546875 0.640625 1.328125q0.21875 0.78125 0.21875 1.71875q0 2.03125 -0.90625 3.109375q-0.90625 1.078125 -2.609375 1.078125q-0.890625 0 -1.5625 -0.296875q-0.65625 -0.296875 -1.09375 -0.84375q-0.421875 -0.546875 -0.640625 -1.328125q-0.203125 -0.78125 -0.203125 -1.71875zm1.328125 0q0 0.609375 0.125 1.171875q0.125 0.5625 0.375 0.984375q0.25 0.40625 0.671875 0.671875q0.421875 0.25 1.0 0.25q2.1875 0.015625 2.1875 -3.078125q0 -0.625 -0.125 -1.1875q-0.125 -0.5625 -0.375 -0.96875q-0.25 -0.421875 -0.671875 -0.671875q-0.421875 -0.25 -1.015625 -0.25q-2.171875 -0.015625 -2.171875 3.078125z" fill-rule="nonzero"/><path fill="#000000" d="m420.27042 89.95797l0 -0.59375q0.921875 0.453125 1.28125 0.6875q0.375 0.25 1.125 0.84375l0 -11.53125l0.796875 0l0 11.53125q0.84375 -0.8125 2.40625 -1.546875l0 0.609375q-1.125 1.0 -1.703125 1.71875q-0.578125 0.734375 -0.953125 1.515625l-0.359375 0q-0.28125 -0.671875 -0.875 -1.4375q-0.59375 -0.75 -1.71875 -1.796875z" fill-rule="nonzero"/><path fill="#000000" fill-opacity="0.0" d="m5.453772 40.6063c0 -12.185055 9.877937 -22.062994 22.062992 -22.062994c5.851469 0 11.463278 2.3244877 15.600893 6.462101c4.1376114 4.1376133 6.462101 9.749422 6.462101 15.600893c0 12.185055 -9.877941 22.062992 -22.062994 22.062992c-12.185054 0 -22.062992 -9.877937 -22.062992 -22.062992z" fill-rule="evenodd"/><path stroke="#000000" stroke-width="2.5170603674540684" stroke-linejoin="round" stroke-linecap="butt" d="m5.453772 40.6063c0 -12.185055 9.877937 -22.062994 22.062992 -22.062994c5.851469 0 11.463278 2.3244877 15.600893 6.462101c4.1376114 4.1376133 6.462101 9.749422 6.462101 15.600893c0 12.185055 -9.877941 22.062992 -22.062994 22.062992c-12.185054 0 -22.062992 -9.877937 -22.062992 -22.062992z" fill-rule="evenodd"/><path fill="#000000" d="m30.471355 45.614704l-8.078125 0l-2.203125 6.078125l-2.5625 0l8.296875 -22.281252l1.203125 0l8.328125 22.281252l-2.734375 0l-2.25 -6.078125zm-7.234375 -2.25l6.453125 0l-2.4375 -6.671875l-0.796875 -3.328125l-0.03125 0l-0.78125 3.390625l-2.40625 6.609375z" fill-rule="nonzero"/><path fill="#000000" fill-opacity="0.0" d="m49.579758 40.6063l20.944878 0" fill-rule="evenodd"/><path stroke="#000000" stroke-width="1.6797900262467191" stroke-linejoin="round" stroke-linecap="butt" d="m49.579758 40.6063l20.944878 0" fill-rule="evenodd"/><path fill="#000000" fill-opacity="0.0" d="m114.31723 40.6063c0 -12.185055 9.877937 -22.062994 22.062988 -22.062994c5.851471 0 11.463287 2.3244877 15.600891 6.462101c4.137619 4.1376133 6.4621124 9.749422 6.4621124 15.600893c0 12.185055 -9.877945 22.062992 -22.063004 22.062992c-12.185051 0 -22.062988 -9.877937 -22.062988 -22.062992z" fill-rule="evenodd"/><path stroke="#000000" stroke-width="2.5170603674540684" stroke-linejoin="round" stroke-linecap="butt" d="m114.31723 40.6063c0 -12.185055 9.877937 -22.062994 22.062988 -22.062994c5.851471 0 11.463287 2.3244877 15.600891 6.462101c4.137619 4.1376133 6.4621124 9.749422 6.4621124 15.600893c0 12.185055 -9.877945 22.062992 -22.063004 22.062992c-12.185051 0 -22.062988 -9.877937 -22.062988 -22.062992z" fill-rule="evenodd"/><path fill="#000000" d="m142.13168 34.770954q0 0.78125 -0.265625 1.609375q-0.25 0.8125 -0.75 1.515625q-0.5 0.703125 -1.28125 1.234375q-0.78125 0.53125 -1.84375 0.8125l0 0.125q0.9375 0.15625 1.796875 0.53125q0.859375 0.375 1.515625 1.03125q0.671875 0.65625 1.078125 1.609375q0.40625 0.9375 0.40625 2.21875q0 1.6875 -0.71875 2.9375q-0.703125 1.234375 -1.84375 2.015625q-1.140625 0.78125 -2.609375 1.15625q-1.46875 0.375 -3.015625 0.375q-0.53125 0 -1.25 0q-0.71875 0 -1.5 -0.046875q-0.78125 -0.046875 -1.5625 -0.125q-0.78125 -0.078125 -1.390625 -0.234375l0 -21.578127q1.171875 -0.203125 2.703125 -0.328125q1.53125 -0.125 3.34375 -0.125q1.234375 0 2.5 0.21875q1.265625 0.203125 2.296875 0.78125q1.03125 0.578125 1.703125 1.6093769q0.6875 1.03125 0.6875 2.65625zm-7.28125 14.921875q1.015625 0 1.953125 -0.234375q0.9375 -0.234375 1.65625 -0.75q0.71875 -0.53125 1.140625 -1.28125q0.421875 -0.75 0.421875 -1.78125q0 -1.28125 -0.515625 -2.0625q-0.515625 -0.78125 -1.34375 -1.21875q-0.828125 -0.453125 -1.875 -0.609375q-1.03125 -0.15625 -2.0625 -0.15625l-2.71875 0l0 7.875q0.21875 0.0625 0.625 0.09375q0.40625 0.03125 0.875 0.0625q0.46875 0.03125 0.96875 0.046875q0.5 0.015625 0.875 0.015625zm-1.71875 -10.28125q0.53125 0 1.28125 -0.03125q0.75 -0.03125 1.265625 -0.09375q0.75 -0.25 1.40625 -0.609375q0.65625 -0.359375 1.171875 -0.84375q0.515625 -0.484375 0.8125 -1.125q0.296875 -0.640625 0.296875 -1.40625q0 -1.03125 -0.390625 -1.703125q-0.390625 -0.671875 -1.046875 -1.078125q-0.65625 -0.40625 -1.515625 -0.5781269q-0.84375 -0.171875 -1.71875 -0.171875q-1.03125 0 -1.890625 0.046875q-0.859375 0.046875 -1.296875 0.140625l0 7.453127l1.625 0z" fill-rule="nonzero"/><path fill="#000000" fill-opacity="0.0" d="m5.453772 134.6267c0 -12.185059 9.877937 -22.062996 22.062992 -22.062996c5.851469 0 11.463278 2.3244858 15.600893 6.462097c4.1376114 4.137619 6.462101 9.749428 6.462101 15.600899c0 12.185043 -9.877941 22.062988 -22.062994 22.062988c-12.185054 0 -22.062992 -9.877945 -22.062992 -22.062988z" fill-rule="evenodd"/><path stroke="#000000" stroke-width="2.5170603674540684" stroke-linejoin="round" stroke-linecap="butt" d="m5.453772 134.6267c0 -12.185059 9.877937 -22.062996 22.062992 -22.062996c5.851469 0 11.463278 2.3244858 15.600893 6.462097c4.1376114 4.137619 6.462101 9.749428 6.462101 15.600899c0 12.185043 -9.877941 22.062988 -22.062994 22.062988c-12.185054 0 -22.062992 -9.877945 -22.062992 -22.062988z" fill-rule="evenodd"/><path fill="#000000" d="m34.08073 144.80696q-0.9375 0.71875 -2.390625 1.0q-1.4375 0.28125 -3.0625 0.28125q-1.984375 0 -3.703125 -0.671875q-1.71875 -0.671875 -3.0 -2.046875q-1.28125 -1.390625 -2.046875 -3.53125q-0.75 -2.140625 -0.75 -5.09375q0 -3.0625 0.828125 -5.203125q0.84375 -2.1562424 2.203125 -3.5156174q1.359375 -1.359375 3.046875 -1.984375q1.703125 -0.640625 3.453125 -0.640625q1.875 0 3.0625 0.21875q1.1875 0.203125 2.046875 0.546875l-0.625 2.28125q-1.515625 -0.71875 -4.296875 -0.71875q-1.28125 0 -2.546875 0.46875q-1.25 0.46875 -2.234375 1.53125q-0.984375 1.0624924 -1.578125 2.7968674q-0.59375 1.71875 -0.59375 4.21875q0 2.265625 0.5625 3.953125q0.5625 1.6875 1.546875 2.828125q0.984375 1.125 2.3125 1.6875q1.34375 0.5625 2.90625 0.5625q1.40625 0 2.453125 -0.28125q1.046875 -0.28125 1.78125 -0.71875l0.625 2.03125z" fill-rule="nonzero"/><path fill="#000000" fill-opacity="0.0" d="m114.31723 134.6267c0 -12.185059 9.877937 -22.062996 22.062988 -22.062996c5.851471 0 11.463287 2.3244858 15.600891 6.462097c4.137619 4.137619 6.4621124 9.749428 6.4621124 15.600899c0 12.185043 -9.877945 22.062988 -22.063004 22.062988c-12.185051 0 -22.062988 -9.877945 -22.062988 -22.062988z" fill-rule="evenodd"/><path stroke="#000000" stroke-width="2.5170603674540684" stroke-linejoin="round" stroke-linecap="butt" d="m114.31723 134.6267c0 -12.185059 9.877937 -22.062996 22.062988 -22.062996c5.851471 0 11.463287 2.3244858 15.600891 6.462097c4.137619 4.137619 6.4621124 9.749428 6.4621124 15.600899c0 12.185043 -9.877945 22.062988 -22.063004 22.062988c-12.185051 0 -22.062988 -9.877945 -22.062988 -22.062988z" fill-rule="evenodd"/><path fill="#000000" d="m128.89731 123.77572q0.609375 -0.09375 1.34375 -0.140625q0.734375 -0.046875 1.53125 -0.0625q0.796875 -0.015625 1.5625 -0.03125q0.765625 -0.015625 1.421875 -0.015625q2.640625 0 4.5625 0.828125q1.921875 0.8125 3.171875 2.265625q1.265625 1.4531174 1.875 3.4999924q0.609375 2.03125 0.609375 4.46875q0 2.234375 -0.578125 4.28125q-0.578125 2.046875 -1.84375 3.640625q-1.25 1.578125 -3.25 2.53125q-2.0 0.953125 -4.859375 0.953125q-0.5 0 -1.296875 -0.015625q-0.796875 -0.015625 -1.640625 -0.0625q-0.84375 -0.046875 -1.578125 -0.078125q-0.71875 -0.03125 -1.03125 -0.09375l0 -21.968742zm5.921875 2.078125q-0.40625 0 -0.890625 0q-0.484375 0 -0.953125 0.03125q-0.46875 0.03125 -0.859375 0.0625q-0.390625 0.03125 -0.609375 0.0625l0 17.546867q0.15625 0.03125 0.59375 0.046875q0.4375 0.015625 0.90625 0.03125q0.46875 0.015625 0.90625 0.03125q0.4375 0.015625 0.59375 0.015625q2.203125 0 3.6875 -0.75q1.484375 -0.765625 2.375 -2.03125q0.890625 -1.265625 1.265625 -2.90625q0.390625 -1.640625 0.390625 -3.40625q0 -1.53125 -0.359375 -3.078125q-0.34375 -1.5625 -1.1875 -2.8125q-0.84375 -1.2499924 -2.265625 -2.0468674q-1.421875 -0.796875 -3.59375 -0.796875z" fill-rule="nonzero"/><path fill="#000000" fill-opacity="0.0" d="m87.14865 82.41958l33.637794 -26.204723" fill-rule="evenodd"/><path stroke="#000000" stroke-width="1.6797900262467191" stroke-linejoin="round" stroke-linecap="butt" d="m87.14865 82.41958l33.637794 -26.204723" fill-rule="evenodd"/><path fill="#000000" fill-opacity="0.0" d="m87.632645 134.62563l26.677162 0" fill-rule="evenodd"/><path stroke="#000000" stroke-width="1.6797900262467191" stroke-linejoin="round" stroke-linecap="butt" d="m87.632645 134.62563l19.11811 0" fill-rule="evenodd"/><path fill="#000000" stroke="#000000" stroke-width="1.6797900262467191" stroke-linecap="butt" d="m106.750755 136.4831l5.1033707 -1.8574677l-5.1033707 -1.8574677z" fill-rule="evenodd"/><path fill="#000000" fill-opacity="0.0" d="m72.523994 88.47731c0 -4.7313843 3.8355408 -8.566925 8.566925 -8.566925c2.2720947 0 4.451126 0.90258026 6.0577316 2.5091934c1.6066132 1.6066132 2.509201 3.7856445 2.509201 6.0577316c0 4.7313843 -3.8355484 8.566933 -8.566933 8.566933c-4.7313843 0 -8.566925 -3.8355484 -8.566925 -8.566933z" fill-rule="evenodd"/><path fill="#000000" d="m79.75194 94.64688q0.671875 0 1.25 -0.203125q0.59375 -0.203125 1.015625 -0.59375q0.421875 -0.390625 0.65625 -0.921875q0.25 -0.546875 0.25 -1.203125q0 -1.40625 -0.84375 -2.09375q-0.828125 -0.6875 -2.296875 -0.6875l-1.484375 0l0 -0.578125l2.890625 -4.46875l0.9375 -0.890625l-1.3125 0.203125l-3.984375 0l0 -1.484375l7.1875 0l0 0.578125l-3.203125 4.8125l-0.703125 0.59375l0 0.03125l0.6875 -0.140625q0.796875 0.015625 1.484375 0.296875q0.6875 0.265625 1.1875 0.78125q0.5 0.515625 0.78125 1.234375q0.28125 0.703125 0.28125 1.609375q0 1.09375 -0.390625 1.9375q-0.375 0.84375 -1.03125 1.421875q-0.640625 0.578125 -1.53125 0.875q-0.890625 0.296875 -1.875 0.296875q-0.90625 0 -1.640625 -0.140625q-0.71875 -0.140625 -1.265625 -0.359375l0.4375 -1.421875q0.453125 0.21875 1.078125 0.375q0.640625 0.140625 1.4375 0.140625z" fill-rule="nonzero"/><path fill="#000000" fill-opacity="0.0" d="m70.51447 40.60523c0 -6.314308 2.7215424 -11.433069 6.0787354 -11.433069c1.6121826 0 3.1583328 1.2045517 4.2983246 3.348669c1.1399841 2.1441154 1.7804184 5.052162 1.7804184 8.0844c0 6.314312 -2.7215424 11.433071 -6.078743 11.433071c-3.357193 0 -6.0787354 -5.118759 -6.0787354 -11.433071z" fill-rule="evenodd"/><path fill="#000000" d="m73.66989 44.587296q0 -1.265625 0.65625 -2.203125q0.671875 -0.9375 2.078125 -1.703125q-0.5 -0.3125 -0.9375 -0.640625q-0.4375 -0.328125 -0.765625 -0.75q-0.328125 -0.421875 -0.53125 -0.9375q-0.1875 -0.53125 -0.1875 -1.21875q0 -0.78125 0.265625 -1.421875q0.28125 -0.65625 0.796875 -1.109375q0.515625 -0.46875 1.21875 -0.734375q0.71875 -0.265625 1.625 -0.265625q0.84375 0 1.53125 0.25q0.6875 0.234375 1.15625 0.65625q0.484375 0.421875 0.734375 1.015625q0.265625 0.578125 0.265625 1.28125q0 1.15625 -0.53125 2.03125q-0.515625 0.875 -1.71875 1.71875q0.515625 0.296875 0.984375 0.671875q0.484375 0.359375 0.828125 0.796875q0.359375 0.4375 0.5625 1.0q0.203125 0.546875 0.203125 1.25q0 0.875 -0.28125 1.59375q-0.28125 0.703125 -0.828125 1.21875q-0.546875 0.515625 -1.328125 0.8125q-0.78125 0.28125 -1.796875 0.28125q-0.96875 0 -1.71875 -0.28125q-0.734375 -0.28125 -1.25 -0.75q-0.515625 -0.484375 -0.78125 -1.140625q-0.25 -0.65625 -0.25 -1.421875zm6.65625 -0.203125q0 -0.609375 -0.25 -1.0625q-0.234375 -0.453125 -0.625 -0.828125q-0.390625 -0.375 -0.890625 -0.671875q-0.5 -0.296875 -1.046875 -0.578125q-1.234375 0.6875 -1.765625 1.53125q-0.515625 0.84375 -0.515625 1.609375q0 0.484375 0.15625 0.921875q0.171875 0.4375 0.484375 0.765625q0.328125 0.328125 0.796875 0.515625q0.484375 0.1875 1.109375 0.1875q0.5 0 0.953125 -0.140625q0.46875 -0.15625 0.8125 -0.4375q0.359375 -0.296875 0.5625 -0.75q0.21875 -0.453125 0.21875 -1.0625zm-4.765625 -7.296875q0 0.5625 0.21875 1.0q0.21875 0.4375 0.59375 0.78125q0.375 0.34375 0.859375 0.640625q0.484375 0.28125 1.0 0.546875q0.90625 -0.703125 1.34375 -1.390625q0.4375 -0.6875 0.4375 -1.515625q0 -1.03125 -0.640625 -1.578125q-0.640625 -0.5625 -1.515625 -0.5625q-0.546875 0 -0.96875 0.1875q-0.421875 0.1875 -0.734375 0.46875q-0.296875 0.28125 -0.453125 0.65625q-0.140625 0.359375 -0.140625 0.765625z" fill-rule="nonzero"/><path fill="#000000" fill-opacity="0.0" d="m82.67195 40.60523l31.653542 0" fill-rule="evenodd"/><path stroke="#000000" stroke-width="1.6797900262467191" stroke-linejoin="round" stroke-linecap="butt" d="m82.67195 40.605232l24.094482 0" fill-rule="evenodd"/><path fill="#000000" stroke="#000000" stroke-width="1.6797900262467191" stroke-linecap="butt" d="m106.76643 42.462704l5.1033707 -1.8574715l-5.1033707 -1.8574753z" fill-rule="evenodd"/><path fill="#000000" fill-opacity="0.0" d="m165.9938 108.45009c-7.0078735 0 -14.015747 5.2913437 -14.015747 10.58268" fill-rule="evenodd"/><path stroke="#000000" stroke-width="1.6797900262467191" stroke-linejoin="round" stroke-linecap="butt" d="m165.9938 108.45009c-7.0078735 0 -14.015747 5.2913437 -14.015747 10.58268" fill-rule="evenodd"/><path fill="#000000" fill-opacity="0.0" d="m75.03319 94.53505l-31.905514 24.503937" fill-rule="evenodd"/><path stroke="#000000" stroke-width="1.6797900262467191" stroke-linejoin="round" stroke-linecap="butt" d="m75.03319 94.53504l-25.910503 19.899681" fill-rule="evenodd"/><path fill="#000000" stroke="#000000" stroke-width="1.6797900262467191" stroke-linecap="butt" d="m47.991287 112.96158l-2.916031 4.581627l5.1788216 -1.6353455z" fill-rule="evenodd"/><path fill="#000000" fill-opacity="0.0" d="m165.9938 108.45009c0 -6.314308 4.688675 -11.433067 10.472443 -11.433067c2.7774658 0 5.4411774 1.2045517 7.405136 3.3486633c1.9639587 2.1441193 3.0673065 5.05217 3.0673065 8.084404c0 6.314316 -4.688675 11.433075 -10.472443 11.433075c-5.7837677 0 -10.472443 -5.118759 -10.472443 -11.433075z" fill-rule="evenodd"/><path fill="#000000" d="m176.92375 104.9009q0 1.0625 -0.390625 2.1875q-0.390625 1.109375 -1.03125 2.234375q-0.640625 1.125 -1.421875 2.203125q-0.78125 1.078125 -1.5625 2.046875l-1.0 0.875l0 0.078125l1.296875 -0.21875l4.390625 0l0 1.484375l-8.015625 0l0 -0.578125q0.4375 -0.46875 1.0625 -1.15625q0.625 -0.6875 1.296875 -1.515625q0.6875 -0.84375 1.328125 -1.78125q0.65625 -0.9375 1.1875 -1.890625q0.546875 -0.96875 0.859375 -1.90625q0.328125 -0.953125 0.328125 -1.8125q0 -0.984375 -0.5625 -1.640625q-0.5625 -0.65625 -1.71875 -0.65625q-0.765625 0 -1.5 0.3125q-0.71875 0.3125 -1.234375 0.71875l-0.671875 -1.140625q0.71875 -0.609375 1.671875 -0.953125q0.96875 -0.34375 2.078125 -0.34375q0.875 0 1.53125 0.25q0.671875 0.25 1.125 0.71875q0.46875 0.46875 0.703125 1.109375q0.25 0.625 0.25 1.375z" fill-rule="nonzero"/><path fill="#000000" fill-opacity="0.0" d="m176.46625 119.88316c0 7.370079 -9.007874 14.740158 -18.015747 14.740158" fill-rule="evenodd"/><path stroke="#000000" stroke-width="1.6797900262467191" stroke-linejoin="round" stroke-linecap="butt" d="m176.46625 119.88316c0 3.6850357 -2.2519684 7.370079 -5.6299133 10.13385c-0.8444977 0.6909485 -1.7593536 1.3243103 -2.727005 1.8857117c-0.48381042 0.28070068 -0.98083496 0.543396 -1.4888458 0.7863159c-0.2539978 0.1214447 -0.51075745 0.23794556 -0.769989 0.34928894l-0.008239746 0.0034332275" fill-rule="evenodd"/><path fill="#000000" stroke="#000000" stroke-width="1.6797900262467191" stroke-linecap="butt" d="m165.45363 131.2254l-4.6017914 2.8841248l5.3790436 0.7485962z" fill-rule="evenodd"/><path fill="#000000" fill-opacity="0.0" d="m73.39642 134.62563c0 -6.314316 3.1868896 -11.433075 7.1181107 -11.433075c1.8878403 0 3.6983566 1.2045517 5.033264 3.348671c1.3349075 2.1441116 2.0848465 5.052162 2.0848465 8.084404c0 6.3143005 -3.1868896 11.43306 -7.1181107 11.43306c-3.931221 0 -7.1181107 -5.118759 -7.1181107 -11.43306z" fill-rule="evenodd"/><path fill="#000000" d="m85.38752 137.71706q0 0.921875 -0.28125 1.75q-0.28125 0.8125 -0.828125 1.421875q-0.546875 0.609375 -1.359375 0.96875q-0.796875 0.34375 -1.8125 0.34375q-1.015625 0 -1.828125 -0.3125q-0.796875 -0.328125 -1.390625 -0.953125q-0.578125 -0.640625 -0.890625 -1.5625q-0.3125 -0.9375 -0.3125 -2.140625q0 -2.0 0.515625 -3.671875q0.515625 -1.6875 1.421875 -2.9375q0.90625 -1.25 2.140625 -2.015625q1.25 -0.7812424 2.6875 -0.9843674l0.34375 1.2968674q-1.125 0.203125 -2.046875 0.765625q-0.921875 0.5625 -1.625 1.390625q-0.6875 0.8125 -1.140625 1.84375q-0.4375 1.03125 -0.59375 2.125q0.3125 -0.546875 1.078125 -1.0q0.765625 -0.453125 1.875 -0.453125q1.890625 0 2.96875 1.09375q1.078125 1.078125 1.078125 3.03125zm-1.671875 0.15625q0 -1.421875 -0.671875 -2.140625q-0.65625 -0.734375 -2.046875 -0.734375q-0.984375 0 -1.703125 0.484375q-0.703125 0.484375 -1.0 1.09375q-0.03125 0.28125 -0.03125 0.46875q0 0.171875 0 0.390625q0 0.625 0.171875 1.234375q0.171875 0.59375 0.53125 1.078125q0.359375 0.46875 0.890625 0.765625q0.546875 0.28125 1.265625 0.28125q0.578125 0 1.046875 -0.21875q0.484375 -0.21875 0.828125 -0.59375q0.34375 -0.390625 0.53125 -0.9375q0.1875 -0.546875 0.1875 -1.171875z" fill-rule="nonzero"/><path fill="#000000" fill-opacity="0.0" d="m49.579758 134.6267l23.81102 0" fill-rule="evenodd"/><path stroke="#000000" stroke-width="1.6797900262467191" stroke-linejoin="round" stroke-linecap="butt" d="m49.579758 134.6267l23.81102 0" fill-rule="evenodd"/><path fill="#000000" fill-opacity="0.0" d="m4.275593 88.644806c0 -5.2619324 5.11876 -9.527565 11.433071 -9.527565c6.31431 0 11.433071 4.2656326 11.433071 9.527565c0 5.2619247 -5.118761 9.527557 -11.433071 9.527557c-6.314311 0 -11.433071 -4.2656326 -11.433071 -9.527557z" fill-rule="evenodd"/><path fill="#000000" d="m15.583812 94.81437q0.67187405 0 1.249999 -0.203125q0.59375 -0.203125 1.015625 -0.59375q0.421875 -0.390625 0.65625 -0.921875q0.25 -0.546875 0.25 -1.203125q0 -1.40625 -0.84375 -2.09375q-0.828125 -0.6875 -2.296874 -0.6875l-1.484375 0l0 -0.578125l2.890624 -4.46875l0.9375 -0.890625l-1.3125 0.203125l-3.984374 0l0 -1.484375l7.187499 0l0 0.578125l-3.203125 4.8125l-0.70312405 0.59375l0 0.03125l0.68749905 -0.140625q0.796875 0.015625 1.484375 0.296875q0.6875 0.265625 1.1875 0.78125q0.5 0.515625 0.78125 1.234375q0.28125 0.703125 0.28125 1.609375q0 1.09375 -0.390625 1.9375q-0.375 0.84375 -1.03125 1.421875q-0.640625 0.578125 -1.53125 0.875q-0.890625 0.296875 -1.874999 0.296875q-0.90625 0 -1.640625 -0.140625q-0.71875 -0.140625 -1.265625 -0.359375l0.4375 -1.421875q0.453125 0.21875 1.078125 0.375q0.640625 0.140625 1.4375 0.140625z" fill-rule="nonzero"/><path fill="#000000" fill-opacity="0.0" d="m25.802172 90.61895c0 -4.7313843 5.118761 -8.566933 11.433073 -8.566933c6.314308 0 11.433071 3.8355484 11.433071 8.566933c0 4.7313843 -5.118763 8.566925 -11.433071 8.566925c-6.314312 0 -11.433073 -3.8355408 -11.433073 -8.566925z" fill-rule="evenodd"/><path fill="#000000" d="m34.61039 97.96039l5.046875 -11.796875l0.890625 -1.0l-1.1875 0.1875l-5.734375 0l0 -1.484375l8.40625 0l0 0.546875l-5.796875 13.546875l-1.625 0z" fill-rule="nonzero"/><path fill="#000000" fill-opacity="0.0" d="m15.708664 60.062126l0 19.055115" fill-rule="evenodd"/><path stroke="#000000" stroke-width="1.6797900262467191" stroke-linejoin="round" stroke-linecap="butt" d="m15.708664 60.062126l0 19.055115" fill-rule="evenodd"/><path fill="#000000" fill-opacity="0.0" d="m15.708664 98.17236l-0.50393677 17.41732" fill-rule="evenodd"/><path stroke="#000000" stroke-width="1.6797900262467191" stroke-linejoin="round" stroke-linecap="butt" d="m15.708664 98.172356l-0.28532124 9.861427" fill-rule="evenodd"/><path fill="#000000" stroke="#000000" stroke-width="1.6797900262467191" stroke-linecap="butt" d="m13.566646 107.980064l1.7091026 5.154953l2.0042906 -5.0475082z" fill-rule="evenodd"/><path fill="#000000" fill-opacity="0.0" d="m37.235245 82.05202l-0.5354347 -22.236217" fill-rule="evenodd"/><path stroke="#000000" stroke-width="1.6797900262467191" stroke-linejoin="round" stroke-linecap="butt" d="m37.235245 82.05202l-0.35346985 -14.679352" fill-rule="evenodd"/><path fill="#000000" stroke="#000000" stroke-width="1.6797900262467191" stroke-linecap="butt" d="m38.73871 67.32795l-1.9797821 -5.0571747l-1.7340851 5.146599z" fill-rule="evenodd"/><path fill="#000000" fill-opacity="0.0" d="m37.223873 99.15865l0.12598419 16.818901" fill-rule="evenodd"/><path stroke="#000000" stroke-width="1.6797900262467191" stroke-linejoin="round" stroke-linecap="butt" d="m37.223873 99.15865l0.12598419 16.818901" fill-rule="evenodd"/></g></svg>