<svg version="1.1" viewBox="0.0 0.0 1138.3727034120734 277.90813648293965" fill="none" stroke="none" stroke-linecap="square" stroke-miterlimit="10" xmlns:xlink="http://www.w3.org/1999/xlink" xmlns="http://www.w3.org/2000/svg"><clipPath id="p.0"><path d="m0 0l1138.3727 0l0 277.90814l-1138.3727 0l0 -277.90814z" clip-rule="nonzero"/></clipPath><g clip-path="url(#p.0)"><path fill="#000000" fill-opacity="0.0" d="m0 0l1138.3727 0l0 277.90814l-1138.3727 0z" fill-rule="evenodd"/><path fill="#000000" fill-opacity="0.0" d="m78.9058 37.6063c0 -14.507261 11.760452 -26.267717 26.267715 -26.267717c6.966629 0 13.647926 2.7674837 18.574081 7.693636c4.926155 4.9261513 7.6936417 11.607449 7.6936417 18.574081c0 14.507259 -11.760468 26.267715 -26.267723 26.267715c-14.507263 0 -26.267715 -11.760456 -26.267715 -26.267715z" fill-rule="evenodd"/><path stroke="#000000" stroke-width="3.0" stroke-linejoin="round" stroke-linecap="butt" d="m78.9058 37.6063c0 -14.507261 11.760452 -26.267717 26.267715 -26.267717c6.966629 0 13.647926 2.7674837 18.574081 7.693636c4.926155 4.9261513 7.6936417 11.607449 7.6936417 18.574081c0 14.507259 -11.760468 26.267715 -26.267723 26.267715c-14.507263 0 -26.267715 -11.760456 -26.267715 -26.267715z" fill-rule="evenodd"/><path fill="#000000" d="m108.35258 43.71192l-9.640625 0l-2.609375 7.234375l-3.0625 0l9.890625 -26.546875l1.421875 0l9.921875 26.546875l-3.234375 0l-2.6875 -7.234375zm-8.625 -2.6875l7.6875 0l-2.90625 -7.953125l-0.9375 -3.96875l-0.046875 0l-0.921875 4.03125l-2.875 7.890625z" fill-rule="nonzero"/><path fill="#000000" fill-opacity="0.0" d="m220.61314 37.6063c0 -14.507261 11.760468 -26.267717 26.267715 -26.267717c6.966629 0 13.647919 2.7674837 18.574097 7.693636c4.9261475 4.9261513 7.693634 11.607449 7.693634 18.574081c0 14.507259 -11.760468 26.267715 -26.26773 26.267715c-14.507248 0 -26.267715 -11.760456 -26.267715 -26.267715z" fill-rule="evenodd"/><path stroke="#000000" stroke-width="3.0" stroke-linejoin="round" stroke-linecap="butt" d="m220.61314 37.6063c0 -14.507261 11.760468 -26.267717 26.267715 -26.267717c6.966629 0 13.647919 2.7674837 18.574097 7.693636c4.9261475 4.9261513 7.693634 11.607449 7.693634 18.574081c0 14.507259 -11.760468 26.267715 -26.26773 26.267715c-14.507248 0 -26.267715 -11.760456 -26.267715 -26.267715z" fill-rule="evenodd"/><path fill="#000000" d="m253.39108 30.790047q0 0.9375 -0.296875 1.90625q-0.296875 0.96875 -0.890625 1.8125q-0.59375 0.828125 -1.53125 1.46875q-0.9375 0.640625 -2.203125 0.96875l0 0.15625q1.125 0.1875 2.140625 0.640625q1.03125 0.4375 1.8125 1.21875q0.78125 0.78125 1.265625 1.90625q0.484375 1.125 0.484375 2.65625q0 2.015625 -0.84375 3.484375q-0.828125 1.46875 -2.203125 2.40625q-1.359375 0.9375 -3.109375 1.390625q-1.75 0.4375 -3.578125 0.4375q-0.640625 0 -1.5 0q-0.859375 0 -1.796875 -0.0625q-0.921875 -0.046875 -1.859375 -0.140625q-0.9375 -0.09375 -1.640625 -0.28125l0 -25.71875q1.375 -0.21875 3.203125 -0.359375q1.84375 -0.15625 4.0 -0.15625q1.453125 0 2.96875 0.25q1.515625 0.234375 2.734375 0.921875q1.234375 0.6875 2.03125 1.921875q0.8125 1.234375 0.8125 3.171875zm-8.65625 17.765625q1.1875 0 2.3125 -0.28125q1.125 -0.28125 1.984375 -0.890625q0.859375 -0.625 1.359375 -1.515625q0.5 -0.890625 0.5 -2.125q0 -1.53125 -0.625 -2.453125q-0.609375 -0.9375 -1.59375 -1.453125q-0.984375 -0.53125 -2.21875 -0.71875q-1.234375 -0.1875 -2.46875 -0.1875l-3.25 0l0 9.359375q0.265625 0.078125 0.75 0.125q0.484375 0.03125 1.046875 0.078125q0.5625 0.03125 1.15625 0.046875q0.59375 0.015625 1.046875 0.015625zm-2.046875 -12.234375q0.625 0 1.515625 -0.03125q0.90625 -0.046875 1.5 -0.125q0.890625 -0.296875 1.671875 -0.71875q0.796875 -0.4375 1.40625 -1.015625q0.625 -0.578125 0.96875 -1.34375q0.359375 -0.765625 0.359375 -1.65625q0 -1.234375 -0.46875 -2.03125q-0.46875 -0.8125 -1.25 -1.296875q-0.78125 -0.484375 -1.796875 -0.6875q-1.0 -0.203125 -2.046875 -0.203125q-1.234375 0 -2.265625 0.0625q-1.015625 0.046875 -1.546875 0.15625l0 8.890625l1.953125 0z" fill-rule="nonzero"/><path fill="#000000" fill-opacity="0.0" d="m150.53703 140.94751c0 -14.507263 11.760452 -26.267723 26.267715 -26.267723c6.966629 0 13.647934 2.7674866 18.574081 7.6936417c4.9261475 4.9261475 7.693634 11.607452 7.693634 18.574081c0 14.507263 -11.760452 26.267715 -26.267715 26.267715c-14.507263 0 -26.267715 -11.760452 -26.267715 -26.267715z" fill-rule="evenodd"/><path stroke="#000000" stroke-width="3.0" stroke-linejoin="round" stroke-linecap="butt" d="m150.53703 140.94751c0 -14.507263 11.760452 -26.267723 26.267715 -26.267723c6.966629 0 13.647934 2.7674866 18.574081 7.6936417c4.9261475 4.9261475 7.693634 11.607452 7.693634 18.574081c0 14.507263 -11.760452 26.267715 -26.267715 26.267715c-14.507263 0 -26.267715 -11.760452 -26.267715 -26.267715z" fill-rule="evenodd"/><path fill="#000000" d="m167.37894 128.1625q0.703125 -0.109375 1.578125 -0.171875q0.890625 -0.0625 1.84375 -0.078125q0.953125 -0.015625 1.859375 -0.03125q0.921875 -0.015625 1.703125 -0.015625q3.125 0 5.421875 0.96875q2.296875 0.96875 3.78125 2.703125q1.5 1.734375 2.234375 4.171875q0.734375 2.421875 0.734375 5.328125q0 2.65625 -0.703125 5.09375q-0.6875 2.4375 -2.1875 4.328125q-1.484375 1.890625 -3.875 3.03125q-2.390625 1.140625 -5.78125 1.140625q-0.59375 0 -1.546875 -0.03125q-0.953125 -0.015625 -1.96875 -0.078125q-1.0 -0.046875 -1.859375 -0.09375q-0.859375 -0.03125 -1.234375 -0.109375l0 -26.15625zm7.0625 2.453125q-0.484375 0 -1.078125 0q-0.578125 0 -1.140625 0.046875q-0.546875 0.03125 -1.015625 0.078125q-0.46875 0.03125 -0.734375 0.0625l0 20.90625q0.1875 0.046875 0.703125 0.0625q0.53125 0.015625 1.09375 0.03125q0.5625 0.015625 1.078125 0.046875q0.53125 0.015625 0.71875 0.015625q2.609375 0 4.375 -0.890625q1.78125 -0.90625 2.84375 -2.40625q1.0625 -1.515625 1.5 -3.46875q0.453125 -1.96875 0.453125 -4.0625q0 -1.828125 -0.40625 -3.671875q-0.40625 -1.859375 -1.421875 -3.34375q-1.0 -1.5 -2.703125 -2.453125q-1.703125 -0.953125 -4.265625 -0.953125z" fill-rule="nonzero"/><path fill="#000000" fill-opacity="0.0" d="m123.7476 56.180378l34.488182 66.20473" fill-rule="evenodd"/><path stroke="#000000" stroke-width="2.0" stroke-linejoin="round" stroke-linecap="butt" d="m123.7476 56.180378l34.488182 66.20473" fill-rule="evenodd"/><path fill="#000000" fill-opacity="0.0" d="m286.4399 140.94751c0 -14.507263 11.760468 -26.267723 26.26773 -26.267723c6.966614 0 13.647919 2.7674866 18.574066 7.6936417c4.9261475 4.9261475 7.693634 11.607452 7.693634 18.574081c0 14.507263 -11.760437 26.267715 -26.2677 26.267715c-14.507263 0 -26.26773 -11.760452 -26.26773 -26.267715z" fill-rule="evenodd"/><path stroke="#000000" stroke-width="3.0" stroke-linejoin="round" stroke-linecap="butt" d="m286.4399 140.94751c0 -14.507263 11.760468 -26.267723 26.26773 -26.267723c6.966614 0 13.647919 2.7674866 18.574066 7.6936417c4.9261475 4.9261475 7.693634 11.607452 7.693634 18.574081c0 14.507263 -11.760437 26.267715 -26.2677 26.267715c-14.507263 0 -26.26773 -11.760452 -26.26773 -26.267715z" fill-rule="evenodd"/><path fill="#000000" d="m304.36374 128.1625l14.21875 0l0 2.75l-11.125 0l0 8.5625l10.203125 0l0 2.75l-10.203125 0l0 9.296875l11.3125 0l0 2.765625l-14.40625 0l0 -26.125z" fill-rule="nonzero"/><path fill="#000000" fill-opacity="0.0" d="m78.9058 234.14961c0 -14.507263 11.760452 -26.267715 26.267715 -26.267715c6.966629 0 13.647926 2.7674713 18.574081 7.693634c4.926155 4.9261475 7.6936417 11.607437 7.6936417 18.574081c0 14.507248 -11.760468 26.267715 -26.267723 26.267715c-14.507263 0 -26.267715 -11.760468 -26.267715 -26.267715z" fill-rule="evenodd"/><path stroke="#000000" stroke-width="3.0" stroke-linejoin="round" stroke-linecap="butt" d="m78.9058 234.14961c0 -14.507263 11.760452 -26.267715 26.267715 -26.267715c6.966629 0 13.647926 2.7674713 18.574081 7.693634c4.926155 4.9261475 7.6936417 11.607437 7.6936417 18.574081c0 14.507248 -11.760468 26.267715 -26.267723 26.267715c-14.507263 0 -26.267715 -11.760468 -26.267715 -26.267715z" fill-rule="evenodd"/><path fill="#000000" d="m97.184235 221.36461l14.21875 0l0 2.75l-11.125 0l0 8.921875l10.375 0l0 2.765625l-10.375 0l0 11.6875l-3.09375 0l0 -26.125z" fill-rule="nonzero"/><path fill="#000000" fill-opacity="0.0" d="m5.206323 140.94751c0 -14.507263 11.760456 -26.267723 26.267715 -26.267723c6.966631 0 13.647928 2.7674866 18.57408 7.6936417c4.926155 4.9261475 7.693638 11.607452 7.693638 18.574081c0 14.507263 -11.760456 26.267715 -26.267717 26.267715c-14.507259 0 -26.267715 -11.760452 -26.267715 -26.267715z" fill-rule="evenodd"/><path stroke="#000000" stroke-width="3.0" stroke-linejoin="round" stroke-linecap="butt" d="m5.206323 140.94751c0 -14.507263 11.760456 -26.267723 26.267715 -26.267723c6.966631 0 13.647928 2.7674866 18.57408 7.6936417c4.926155 4.9261475 7.693638 11.607452 7.693638 18.574081c0 14.507263 -11.760456 26.267715 -26.267717 26.267715c-14.507259 0 -26.267715 -11.760452 -26.267715 -26.267715z" fill-rule="evenodd"/><path fill="#000000" d="m39.195652 153.20938q-1.109375 0.859375 -2.828125 1.1875q-1.71875 0.34375 -3.65625 0.34375q-2.359373 0 -4.421873 -0.796875q-2.046875 -0.8125 -3.578125 -2.453125q-1.53125 -1.640625 -2.421875 -4.203125q-0.890625 -2.5625 -0.890625 -6.0625q0 -3.65625 0.984375 -6.21875q0.984375 -2.5625 2.609375 -4.171875q1.625 -1.625 3.640625 -2.375q2.015625 -0.75 4.109373 -0.75q2.234375 0 3.65625 0.25q1.421875 0.234375 2.421875 0.640625l-0.734375 2.734375q-1.796875 -0.859375 -5.125 -0.859375q-1.5312481 0 -3.031248 0.5625q-1.484375 0.546875 -2.65625 1.828125q-1.171875 1.265625 -1.890625 3.328125q-0.703125 2.046875 -0.703125 5.03125q0 2.6875 0.671875 4.703125q0.671875 2.015625 1.84375 3.359375q1.1875 1.34375 2.765625 2.015625q1.59375 0.671875 3.453123 0.671875q1.6875 0 2.9375 -0.328125q1.25 -0.34375 2.109375 -0.875l0.734375 2.4375z" fill-rule="nonzero"/><path fill="#000000" fill-opacity="0.0" d="m86.599434 56.180378l-36.56693 66.20473" fill-rule="evenodd"/><path stroke="#000000" stroke-width="2.0" stroke-linejoin="round" stroke-linecap="butt" d="m86.599434 56.180378l-36.56693 66.20473" fill-rule="evenodd"/><path fill="#000000" fill-opacity="0.0" d="m203.07246 140.94751l83.37007 0" fill-rule="evenodd"/><path stroke="#000000" stroke-width="2.0" stroke-linejoin="round" stroke-linecap="butt" d="m203.07246 140.94751l83.37007 0" fill-rule="evenodd"/><path fill="#000000" fill-opacity="0.0" d="m294.13354 122.37343l-28.692902 -66.20473" fill-rule="evenodd"/><path stroke="#000000" stroke-width="2.0" stroke-linejoin="round" stroke-linecap="butt" d="m294.13354 122.37343l-28.692902 -66.20473" fill-rule="evenodd"/><path fill="#000000" fill-opacity="0.0" d="m294.13354 159.52159l-36.37793 56.06299" fill-rule="evenodd"/><path stroke="#000000" stroke-width="2.0" stroke-linejoin="round" stroke-linecap="butt" d="m294.13354 159.52159l-36.37793 56.06299" fill-rule="evenodd"/><path fill="#000000" fill-opacity="0.0" d="m131.44124 37.6063l89.165344 0" fill-rule="evenodd"/><path stroke="#000000" stroke-width="2.0" stroke-linejoin="round" stroke-linecap="butt" d="m131.44124 37.6063l89.165344 0" fill-rule="evenodd"/><path fill="#000000" fill-opacity="0.0" d="m50.04812 159.52159l36.566933 56.06299" fill-rule="evenodd"/><path stroke="#000000" stroke-width="2.0" stroke-linejoin="round" stroke-linecap="butt" d="m50.04812 159.52159l36.566933 56.06299" fill-rule="evenodd"/><path fill="#000000" fill-opacity="0.0" d="m57.741756 140.94751l92.7874 0" fill-rule="evenodd"/><path stroke="#000000" stroke-width="2.0" stroke-linejoin="round" stroke-linecap="butt" d="m57.741756 140.94751l92.7874 0" fill-rule="evenodd"/><path fill="#000000" fill-opacity="0.0" d="m59.660378 70.2986l28.692917 0l0 51.716537l-28.692917 0z" fill-rule="evenodd"/><path fill="#000000" d="m80.551 90.47672q0 1.40625 -0.53125 2.890625q-0.515625 1.484375 -1.359375 2.984375q-0.828125 1.484375 -1.875 2.90625q-1.03125 1.421875 -2.078125 2.703125l-1.296875 1.15625l0 0.109375l1.703125 -0.296875l5.8125 0l0 1.96875l-10.609375 0l0 -0.765625q0.578125 -0.625 1.40625 -1.53125q0.828125 -0.90625 1.71875 -2.0q0.890625 -1.109375 1.75 -2.34375q0.875 -1.25 1.578125 -2.53125q0.71875 -1.28125 1.140625 -2.53125q0.421875 -1.25 0.421875 -2.375q0 -1.296875 -0.75 -2.15625q-0.734375 -0.875 -2.265625 -0.875q-1.0 0 -1.96875 0.421875q-0.953125 0.40625 -1.65625 0.9375l-0.875 -1.515625q0.9375 -0.8125 2.21875 -1.265625q1.28125 -0.453125 2.75 -0.453125q1.140625 0 2.015625 0.34375q0.875 0.328125 1.484375 0.9375q0.625 0.609375 0.9375 1.453125q0.328125 0.84375 0.328125 1.828125z" fill-rule="nonzero"/><path fill="#000000" fill-opacity="0.0" d="m89.86022 128.2746l28.692917 0l0 51.716537l-28.692917 0z" fill-rule="evenodd"/><path fill="#000000" d="m110.75085 148.45273q0 1.40625 -0.53125 2.890625q-0.515625 1.484375 -1.359375 2.984375q-0.828125 1.484375 -1.875 2.90625q-1.03125 1.421875 -2.078125 2.703125l-1.296875 1.15625l0 0.109375l1.703125 -0.296875l5.8125 0l0 1.96875l-10.609375 0l0 -0.765625q0.578125 -0.625 1.40625 -1.53125q0.828125 -0.90625 1.71875 -2.0q0.890625 -1.109375 1.75 -2.34375q0.875 -1.25 1.578125 -2.53125q0.71875 -1.28125 1.140625 -2.53125q0.421875 -1.25 0.421875 -2.375q0 -1.296875 -0.75 -2.15625q-0.734375 -0.875 -2.265625 -0.875q-1.0 0 -1.96875 0.421875q-0.953125 0.40625 -1.65625 0.9375l-0.875 -1.515625q0.9375 -0.8125 2.21875 -1.265625q1.28125 -0.453125 2.75 -0.453125q1.140625 0 2.015625 0.34375q0.875 0.328125 1.484375 0.9375q0.625 0.609375 0.9375 1.453125q0.328125 0.84375 0.328125 1.828125z" fill-rule="nonzero"/><path fill="#000000" fill-opacity="0.0" d="m171.9436 23.80998l28.692917 0l0 51.71653l-28.692917 0z" fill-rule="evenodd"/><path fill="#000000" d="m194.91235 52.675602l-3.140625 0l0 5.734375l-2.078125 0l0 -5.734375l-8.21875 0l0 -0.875l8.859375 -12.34375l1.4375 0l0 11.359375l3.140625 0l0 1.859375zm-5.21875 -7.671875l0.265625 -2.1875l-0.078125 0l-0.9375 1.8125l-3.765625 5.09375l-1.28125 1.296875l1.875 -0.203125l3.921875 0l0 -5.8125z" fill-rule="nonzero"/><path fill="#000000" fill-opacity="0.0" d="m131.94489 55.609474l28.692917 0l0 51.716537l-28.692917 0z" fill-rule="evenodd"/><path fill="#000000" d="m152.83551 75.7876q0 1.40625 -0.53125 2.890625q-0.515625 1.484375 -1.359375 2.984375q-0.828125 1.484375 -1.875 2.90625q-1.03125 1.421875 -2.078125 2.703125l-1.296875 1.15625l0 0.109375l1.703125 -0.296875l5.8125 0l0 1.96875l-10.609375 0l0 -0.765625q0.578125 -0.625 1.40625 -1.53125q0.828125 -0.90625 1.71875 -2.0q0.890625 -1.109375 1.75 -2.34375q0.875 -1.25 1.578125 -2.53125q0.71875 -1.28125 1.140625 -2.53125q0.421875 -1.25 0.421875 -2.375q0 -1.296875 -0.75 -2.15625q-0.734375 -0.875 -2.265625 -0.875q-1.0 0 -1.96875 0.421875q-0.953125 0.40625 -1.65625 0.9375l-0.875 -1.515625q0.9375 -0.8125 2.21875 -1.265625q1.28125 -0.453125 2.75 -0.453125q1.140625 0 2.015625 0.34375q0.875 0.328125 1.484375 0.9375q0.625 0.609375 0.9375 1.453125q0.328125 0.84375 0.328125 1.828125z" fill-rule="nonzero"/><path fill="#000000" fill-opacity="0.0" d="m229.74223 128.67279l28.692917 0l0 51.716522l-28.692917 0z" fill-rule="evenodd"/><path fill="#000000" d="m244.97661 161.7259q0.90625 0 1.671875 -0.265625q0.78125 -0.265625 1.34375 -0.78125q0.5625 -0.53125 0.875 -1.25q0.328125 -0.71875 0.328125 -1.5625q0 -1.875 -1.109375 -2.78125q-1.109375 -0.90625 -3.046875 -0.90625l-1.984375 0l0 -0.765625l3.84375 -5.921875l1.234375 -1.171875l-1.734375 0.265625l-5.28125 0l0 -1.96875l9.515625 0l0 0.765625l-4.234375 6.375l-0.9375 0.765625l0 0.0625l0.90625 -0.1875q1.0625 0.03125 1.96875 0.390625q0.90625 0.359375 1.5625 1.046875q0.671875 0.671875 1.046875 1.625q0.375 0.9375 0.375 2.140625q0 1.4375 -0.515625 2.5625q-0.5 1.109375 -1.359375 1.875q-0.859375 0.75 -2.046875 1.15625q-1.171875 0.390625 -2.46875 0.390625q-1.203125 0 -2.171875 -0.1875q-0.953125 -0.171875 -1.671875 -0.46875l0.5625 -1.890625q0.609375 0.28125 1.453125 0.484375q0.84375 0.203125 1.875 0.203125z" fill-rule="nonzero"/><path fill="#000000" fill-opacity="0.0" d="m271.68185 54.630104l28.692932 0l0 51.716537l-28.692932 0z" fill-rule="evenodd"/><path fill="#000000" d="m286.91623 87.68323q0.90625 0 1.671875 -0.265625q0.78125 -0.265625 1.34375 -0.78125q0.5625 -0.53125 0.875 -1.25q0.328125 -0.71875 0.328125 -1.5625q0 -1.875 -1.109375 -2.78125q-1.109375 -0.90625 -3.046875 -0.90625l-1.984375 0l0 -0.765625l3.84375 -5.921875l1.234375 -1.171875l-1.734375 0.265625l-5.28125 0l0 -1.96875l9.515625 0l0 0.765625l-4.234375 6.375l-0.9375 0.765625l0 0.0625l0.90625 -0.1875q1.0625 0.03125 1.96875 0.390625q0.90625 0.359375 1.5625 1.046875q0.671875 0.671875 1.046875 1.625q0.375 0.9375 0.375 2.140625q0 1.4375 -0.515625 2.5625q-0.5 1.109375 -1.359375 1.875q-0.859375 0.75 -2.046875 1.15625q-1.171875 0.390625 -2.46875 0.390625q-1.203125 0 -2.171875 -0.1875q-0.953125 -0.171875 -1.671875 -0.46875l0.5625 -1.890625q0.609375 0.28125 1.453125 0.484375q0.84375 0.203125 1.875 0.203125z" fill-rule="nonzero"/><path fill="#000000" fill-opacity="0.0" d="m268.2207 169.58484l28.692932 0l0 51.716537l-28.692932 0z" fill-rule="evenodd"/><path fill="#000000" d="m280.1582 204.18484l6.6875 -15.625l1.171875 -1.296875l-1.578125 0.234375l-7.59375 0l0 -1.96875l11.140625 0l0 0.71875l-7.671875 17.9375l-2.15625 0z" fill-rule="nonzero"/><path fill="#000000" fill-opacity="0.0" d="m43.068974 174.85898l28.692913 0l0 51.716537l-28.692913 0z" fill-rule="evenodd"/><path fill="#000000" d="m58.30335 207.9121q0.90625 0 1.671875 -0.265625q0.78125 -0.265625 1.34375 -0.78125q0.5625 -0.53125 0.875 -1.25q0.328125 -0.71875 0.328125 -1.5625q0 -1.875 -1.109375 -2.78125q-1.109375 -0.90625 -3.046875 -0.90625l-1.984375 0l0 -0.765625l3.84375 -5.921875l1.234375 -1.171875l-1.734375 0.265625l-5.28125 0l0 -1.96875l9.515625 0l0 0.765625l-4.234375 6.375l-0.9375 0.765625l0 0.0625l0.90625 -0.1875q1.0625 0.03125 1.96875 0.390625q0.90625 0.359375 1.5625 1.046875q0.671875 0.671875 1.0468712 1.625q0.375 0.9375 0.375 2.140625q0 1.4375 -0.515625 2.5625q-0.4999962 1.109375 -1.3593712 1.875q-0.859375 0.75 -2.046875 1.15625q-1.171875 0.390625 -2.46875 0.390625q-1.203125 0 -2.171875 -0.1875q-0.953125 -0.171875 -1.671875 -0.46875l0.5625 -1.890625q0.609375 0.28125 1.453125 0.484375q0.84375 0.203125 1.875 0.203125z" fill-rule="nonzero"/><path fill="#000000" fill-opacity="0.0" d="m212.90448 234.14961c0 -14.507263 11.760468 -26.267715 26.267715 -26.267715c6.9666443 0 13.647934 2.7674713 18.574081 7.693634c4.9261475 4.9261475 7.693634 11.607437 7.693634 18.574081c0 14.507248 -11.760452 26.267715 -26.267715 26.267715c-14.507248 0 -26.267715 -11.760468 -26.267715 -26.267715z" fill-rule="evenodd"/><path stroke="#000000" stroke-width="3.0" stroke-linejoin="round" stroke-linecap="butt" d="m212.90448 234.14961c0 -14.507263 11.760468 -26.267715 26.267715 -26.267715c6.9666443 0 13.647934 2.7674713 18.574081 7.693634c4.9261475 4.9261475 7.693634 11.607437 7.693634 18.574081c0 14.507248 -11.760452 26.267715 -26.267715 26.267715c-14.507248 0 -26.267715 -11.760468 -26.267715 -26.267715z" fill-rule="evenodd"/><path fill="#000000" d="m238.5589 234.45836l8.765625 0l0 11.5q-0.59375 0.453125 -1.4375 0.828125q-0.828125 0.359375 -1.78125 0.625q-0.953125 0.265625 -1.984375 0.390625q-1.03125 0.140625 -2.0 0.140625q-2.5 0 -4.59375 -0.796875q-2.078125 -0.8125 -3.609375 -2.46875q-1.53125 -1.671875 -2.390625 -4.21875q-0.859375 -2.5625 -0.859375 -6.03125q0 -3.625 1.046875 -6.203125q1.046875 -2.578125 2.71875 -4.1875q1.6875 -1.625 3.765625 -2.375q2.09375 -0.75 4.1875 -0.75q2.234375 0 3.6875 0.25q1.46875 0.234375 2.46875 0.640625l-0.78125 2.734375q-1.796875 -0.859375 -5.109375 -0.859375q-1.578125 0 -3.125 0.546875q-1.546875 0.53125 -2.78125 1.8125q-1.234375 1.265625 -2.015625 3.3125q-0.78125 2.046875 -0.78125 5.078125q0 2.765625 0.625 4.78125q0.640625 2.015625 1.78125 3.34375q1.140625 1.3125 2.734375 1.96875q1.609375 0.65625 3.515625 0.65625q2.390625 0 4.078125 -0.9375l0 -7.28125l-6.125 -0.734375l0 -1.765625z" fill-rule="nonzero"/><path fill="#000000" fill-opacity="0.0" d="m123.7476 215.57553l34.488182 -56.063004" fill-rule="evenodd"/><path stroke="#000000" stroke-width="2.0" stroke-linejoin="round" stroke-linecap="butt" d="m123.7476 215.57553l34.488182 -56.063004" fill-rule="evenodd"/><path fill="#000000" fill-opacity="0.0" d="m133.56943 167.74265l28.692917 0l0 51.716522l-28.692917 0z" fill-rule="evenodd"/><path fill="#000000" d="m148.8038 200.79576q0.90625 0 1.671875 -0.265625q0.78125 -0.265625 1.34375 -0.78125q0.5625 -0.53125 0.875 -1.25q0.328125 -0.71875 0.328125 -1.5625q0 -1.875 -1.109375 -2.78125q-1.109375 -0.90625 -3.046875 -0.90625l-1.984375 0l0 -0.765625l3.84375 -5.921875l1.234375 -1.171875l-1.734375 0.265625l-5.28125 0l0 -1.96875l9.515625 0l0 0.765625l-4.234375 6.375l-0.9375 0.765625l0 0.0625l0.90625 -0.1875q1.0625 0.03125 1.96875 0.390625q0.90625 0.359375 1.5625 1.046875q0.671875 0.671875 1.046875 1.625q0.375 0.9375 0.375 2.140625q0 1.4375 -0.515625 2.5625q-0.5 1.109375 -1.359375 1.875q-0.859375 0.75 -2.046875 1.15625q-1.171875 0.390625 -2.46875 0.390625q-1.203125 0 -2.171875 -0.1875q-0.953125 -0.171875 -1.671875 -0.46875l0.5625 -1.890625q0.609375 0.28125 1.453125 0.484375q0.84375 0.203125 1.875 0.203125z" fill-rule="nonzero"/><path fill="#000000" fill-opacity="0.0" d="m472.85855 37.6063c0 -14.507261 11.760468 -26.267717 26.26773 -26.267717c6.966614 0 13.647888 2.7674837 18.574097 7.693636c4.9261475 4.9261513 7.6936035 11.607449 7.6936035 18.574081c0 14.507259 -11.760437 26.267715 -26.2677 26.267715c-14.507263 0 -26.26773 -11.760456 -26.26773 -26.267715z" fill-rule="evenodd"/><path stroke="#000000" stroke-width="3.0" stroke-linejoin="round" stroke-linecap="butt" d="m472.85855 37.6063c0 -14.507261 11.760468 -26.267717 26.26773 -26.267717c6.966614 0 13.647888 2.7674837 18.574097 7.693636c4.9261475 4.9261513 7.6936035 11.607449 7.6936035 18.574081c0 14.507259 -11.760437 26.267715 -26.2677 26.267715c-14.507263 0 -26.26773 -11.760456 -26.26773 -26.267715z" fill-rule="evenodd"/><path fill="#000000" d="m502.30533 43.71192l-9.640625 0l-2.609375 7.234375l-3.0625 0l9.890625 -26.546875l1.421875 0l9.921875 26.546875l-3.234375 0l-2.6875 -7.234375zm-8.625 -2.6875l7.6875 0l-2.90625 -7.953125l-0.9375 -3.96875l-0.046875 0l-0.921875 4.03125l-2.875 7.890625z" fill-rule="nonzero"/><path fill="#000000" fill-opacity="0.0" d="m614.5659 37.6063c0 -14.507261 11.760437 -26.267717 26.2677 -26.267717c6.966614 0 13.647949 2.7674837 18.574097 7.693636c4.9261475 4.9261513 7.6936035 11.607449 7.6936035 18.574081c0 14.507259 -11.760437 26.267715 -26.2677 26.267715c-14.507263 0 -26.2677 -11.760456 -26.2677 -26.267715z" fill-rule="evenodd"/><path stroke="#000000" stroke-width="3.0" stroke-linejoin="round" stroke-linecap="butt" d="m614.5659 37.6063c0 -14.507261 11.760437 -26.267717 26.2677 -26.267717c6.966614 0 13.647949 2.7674837 18.574097 7.693636c4.9261475 4.9261513 7.6936035 11.607449 7.6936035 18.574081c0 14.507259 -11.760437 26.267715 -26.2677 26.267715c-14.507263 0 -26.2677 -11.760456 -26.2677 -26.267715z" fill-rule="evenodd"/><path fill="#000000" d="m647.3439 30.790047q0 0.9375 -0.296875 1.90625q-0.296875 0.96875 -0.890625 1.8125q-0.59375 0.828125 -1.53125 1.46875q-0.9375 0.640625 -2.203125 0.96875l0 0.15625q1.125 0.1875 2.140625 0.640625q1.03125 0.4375 1.8125 1.21875q0.78125 0.78125 1.265625 1.90625q0.484375 1.125 0.484375 2.65625q0 2.015625 -0.84375 3.484375q-0.828125 1.46875 -2.203125 2.40625q-1.359375 0.9375 -3.109375 1.390625q-1.75 0.4375 -3.578125 0.4375q-0.640625 0 -1.5 0q-0.859375 0 -1.796875 -0.0625q-0.921875 -0.046875 -1.859375 -0.140625q-0.9375 -0.09375 -1.640625 -0.28125l0 -25.71875q1.375 -0.21875 3.203125 -0.359375q1.84375 -0.15625 4.0 -0.15625q1.453125 0 2.96875 0.25q1.515625 0.234375 2.734375 0.921875q1.234375 0.6875 2.03125 1.921875q0.8125 1.234375 0.8125 3.171875zm-8.65625 17.765625q1.1875 0 2.3125 -0.28125q1.125 -0.28125 1.984375 -0.890625q0.859375 -0.625 1.359375 -1.515625q0.5 -0.890625 0.5 -2.125q0 -1.53125 -0.625 -2.453125q-0.609375 -0.9375 -1.59375 -1.453125q-0.984375 -0.53125 -2.21875 -0.71875q-1.234375 -0.1875 -2.46875 -0.1875l-3.25 0l0 9.359375q0.265625 0.078125 0.75 0.125q0.484375 0.03125 1.046875 0.078125q0.5625 0.03125 1.15625 0.046875q0.59375 0.015625 1.046875 0.015625zm-2.046875 -12.234375q0.625 0 1.515625 -0.03125q0.90625 -0.046875 1.5 -0.125q0.890625 -0.296875 1.671875 -0.71875q0.796875 -0.4375 1.40625 -1.015625q0.625 -0.578125 0.96875 -1.34375q0.359375 -0.765625 0.359375 -1.65625q0 -1.234375 -0.46875 -2.03125q-0.46875 -0.8125 -1.25 -1.296875q-0.78125 -0.484375 -1.796875 -0.6875q-1.0 -0.203125 -2.046875 -0.203125q-1.234375 0 -2.265625 0.0625q-1.015625 0.046875 -1.546875 0.15625l0 8.890625l1.953125 0z" fill-rule="nonzero"/><path fill="#000000" fill-opacity="0.0" d="m544.4898 140.94751c0 -14.507263 11.760437 -26.267723 26.2677 -26.267723c6.966614 0 13.647949 2.7674866 18.574097 7.6936417c4.9261475 4.9261475 7.6936035 11.607452 7.6936035 18.574081c0 14.507263 -11.760437 26.267715 -26.2677 26.267715c-14.507263 0 -26.2677 -11.760452 -26.2677 -26.267715z" fill-rule="evenodd"/><path stroke="#000000" stroke-width="3.0" stroke-linejoin="round" stroke-linecap="butt" d="m544.4898 140.94751c0 -14.507263 11.760437 -26.267723 26.2677 -26.267723c6.966614 0 13.647949 2.7674866 18.574097 7.6936417c4.9261475 4.9261475 7.6936035 11.607452 7.6936035 18.574081c0 14.507263 -11.760437 26.267715 -26.2677 26.267715c-14.507263 0 -26.2677 -11.760452 -26.2677 -26.267715z" fill-rule="evenodd"/><path fill="#000000" d="m561.3317 128.1625q0.703125 -0.109375 1.578125 -0.171875q0.890625 -0.0625 1.84375 -0.078125q0.953125 -0.015625 1.859375 -0.03125q0.921875 -0.015625 1.703125 -0.015625q3.125 0 5.421875 0.96875q2.296875 0.96875 3.78125 2.703125q1.5 1.734375 2.234375 4.171875q0.734375 2.421875 0.734375 5.328125q0 2.65625 -0.703125 5.09375q-0.6875 2.4375 -2.1875 4.328125q-1.484375 1.890625 -3.875 3.03125q-2.390625 1.140625 -5.78125 1.140625q-0.59375 0 -1.546875 -0.03125q-0.953125 -0.015625 -1.96875 -0.078125q-1.0 -0.046875 -1.859375 -0.09375q-0.859375 -0.03125 -1.234375 -0.109375l0 -26.15625zm7.0625 2.453125q-0.484375 0 -1.078125 0q-0.578125 0 -1.140625 0.046875q-0.546875 0.03125 -1.015625 0.078125q-0.46875 0.03125 -0.734375 0.0625l0 20.90625q0.1875 0.046875 0.703125 0.0625q0.53125 0.015625 1.09375 0.03125q0.5625 0.015625 1.078125 0.046875q0.53125 0.015625 0.71875 0.015625q2.609375 0 4.375 -0.890625q1.78125 -0.90625 2.84375 -2.40625q1.0625 -1.515625 1.5 -3.46875q0.453125 -1.96875 0.453125 -4.0625q0 -1.828125 -0.40625 -3.671875q-0.40625 -1.859375 -1.421875 -3.34375q-1.0 -1.5 -2.703125 -2.453125q-1.703125 -0.953125 -4.265625 -0.953125z" fill-rule="nonzero"/><path fill="#000000" fill-opacity="0.0" d="m680.3927 140.94751c0 -14.507263 11.760437 -26.267723 26.2677 -26.267723c6.966614 0 13.647949 2.7674866 18.574097 7.6936417c4.9261475 4.9261475 7.6936035 11.607452 7.6936035 18.574081c0 14.507263 -11.760437 26.267715 -26.2677 26.267715c-14.507263 0 -26.2677 -11.760452 -26.2677 -26.267715z" fill-rule="evenodd"/><path stroke="#000000" stroke-width="3.0" stroke-linejoin="round" stroke-linecap="butt" d="m680.3927 140.94751c0 -14.507263 11.760437 -26.267723 26.2677 -26.267723c6.966614 0 13.647949 2.7674866 18.574097 7.6936417c4.9261475 4.9261475 7.6936035 11.607452 7.6936035 18.574081c0 14.507263 -11.760437 26.267715 -26.2677 26.267715c-14.507263 0 -26.2677 -11.760452 -26.2677 -26.267715z" fill-rule="evenodd"/><path fill="#000000" d="m698.3165 128.1625l14.21875 0l0 2.75l-11.125 0l0 8.5625l10.203125 0l0 2.75l-10.203125 0l0 9.296875l11.3125 0l0 2.765625l-14.40625 0l0 -26.125z" fill-rule="nonzero"/><path fill="#000000" fill-opacity="0.0" d="m472.85855 234.14961c0 -14.507263 11.760468 -26.267715 26.26773 -26.267715c6.966614 0 13.647888 2.7674713 18.574097 7.693634c4.9261475 4.9261475 7.6936035 11.607437 7.6936035 18.574081c0 14.507248 -11.760437 26.267715 -26.2677 26.267715c-14.507263 0 -26.26773 -11.760468 -26.26773 -26.267715z" fill-rule="evenodd"/><path stroke="#000000" stroke-width="3.0" stroke-linejoin="round" stroke-linecap="butt" d="m472.85855 234.14961c0 -14.507263 11.760468 -26.267715 26.26773 -26.267715c6.966614 0 13.647888 2.7674713 18.574097 7.693634c4.9261475 4.9261475 7.6936035 11.607437 7.6936035 18.574081c0 14.507248 -11.760437 26.267715 -26.2677 26.267715c-14.507263 0 -26.26773 -11.760468 -26.26773 -26.267715z" fill-rule="evenodd"/><path fill="#000000" d="m491.137 221.36461l14.21875 0l0 2.75l-11.125 0l0 8.921875l10.375 0l0 2.765625l-10.375 0l0 11.6875l-3.09375 0l0 -26.125z" fill-rule="nonzero"/><path fill="#000000" fill-opacity="0.0" d="m399.1591 140.94751c0 -14.507263 11.760437 -26.267723 26.2677 -26.267723c6.9666443 0 13.647949 2.7674866 18.574097 7.6936417c4.9261475 4.9261475 7.693634 11.607452 7.693634 18.574081c0 14.507263 -11.760468 26.267715 -26.26773 26.267715c-14.507263 0 -26.2677 -11.760452 -26.2677 -26.267715z" fill-rule="evenodd"/><path stroke="#000000" stroke-width="3.0" stroke-linejoin="round" stroke-linecap="butt" d="m399.1591 140.94751c0 -14.507263 11.760437 -26.267723 26.2677 -26.267723c6.9666443 0 13.647949 2.7674866 18.574097 7.6936417c4.9261475 4.9261475 7.693634 11.607452 7.693634 18.574081c0 14.507263 -11.760468 26.267715 -26.26773 26.267715c-14.507263 0 -26.2677 -11.760452 -26.2677 -26.267715z" fill-rule="evenodd"/><path fill="#000000" d="m433.1484 153.20938q-1.109375 0.859375 -2.828125 1.1875q-1.71875 0.34375 -3.65625 0.34375q-2.359375 0 -4.421875 -0.796875q-2.046875 -0.8125 -3.578125 -2.453125q-1.53125 -1.640625 -2.421875 -4.203125q-0.890625 -2.5625 -0.890625 -6.0625q0 -3.65625 0.984375 -6.21875q0.984375 -2.5625 2.609375 -4.171875q1.625 -1.625 3.640625 -2.375q2.015625 -0.75 4.109375 -0.75q2.234375 0 3.65625 0.25q1.421875 0.234375 2.421875 0.640625l-0.734375 2.734375q-1.796875 -0.859375 -5.125 -0.859375q-1.53125 0 -3.03125 0.5625q-1.484375 0.546875 -2.65625 1.828125q-1.171875 1.265625 -1.890625 3.328125q-0.703125 2.046875 -0.703125 5.03125q0 2.6875 0.671875 4.703125q0.671875 2.015625 1.84375 3.359375q1.1875 1.34375 2.765625 2.015625q1.59375 0.671875 3.453125 0.671875q1.6875 0 2.9375 -0.328125q1.25 -0.34375 2.109375 -0.875l0.734375 2.4375z" fill-rule="nonzero"/><path fill="#000000" fill-opacity="0.0" d="m480.5522 56.180378l-36.566925 66.20473" fill-rule="evenodd"/><path stroke="#000000" stroke-width="2.0" stroke-linejoin="round" stroke-linecap="butt" d="m480.5522 56.180378l-36.566925 66.20473" fill-rule="evenodd"/><path fill="#000000" fill-opacity="0.0" d="m597.0252 140.94751l83.37012 0" fill-rule="evenodd"/><path stroke="#000000" stroke-width="2.0" stroke-linejoin="round" stroke-linecap="butt" d="m597.0252 140.94751l83.37012 0" fill-rule="evenodd"/><path fill="#000000" fill-opacity="0.0" d="m688.0863 122.37343l-28.692932 -66.20473" fill-rule="evenodd"/><path stroke="#000000" stroke-width="2.0" stroke-linejoin="round" stroke-linecap="butt" d="m688.0863 122.37343l-28.692932 -66.20473" fill-rule="evenodd"/><path fill="#000000" fill-opacity="0.0" d="m688.0863 159.52159l-36.37793 56.06299" fill-rule="evenodd"/><path stroke="#000000" stroke-width="2.0" stroke-linejoin="round" stroke-linecap="butt" d="m688.0863 159.52159l-36.37793 56.06299" fill-rule="evenodd"/><path fill="#000000" fill-opacity="0.0" d="m444.0009 159.52159l36.566925 56.06299" fill-rule="evenodd"/><path stroke="#000000" stroke-width="2.0" stroke-linejoin="round" stroke-linecap="butt" d="m444.0009 159.52159l36.566925 56.06299" fill-rule="evenodd"/><path fill="#000000" fill-opacity="0.0" d="m451.69452 140.94751l92.787415 0" fill-rule="evenodd"/><path stroke="#000000" stroke-width="2.0" stroke-linejoin="round" stroke-linecap="butt" d="m451.69452 140.94751l92.787415 0" fill-rule="evenodd"/><path fill="#000000" fill-opacity="0.0" d="m453.61313 70.2986l28.692932 0l0 51.716537l-28.692932 0z" fill-rule="evenodd"/><path fill="#000000" d="m474.50375 90.47672q0 1.40625 -0.53125 2.890625q-0.515625 1.484375 -1.359375 2.984375q-0.828125 1.484375 -1.875 2.90625q-1.03125 1.421875 -2.078125 2.703125l-1.296875 1.15625l0 0.109375l1.703125 -0.296875l5.8125 0l0 1.96875l-10.609375 0l0 -0.765625q0.578125 -0.625 1.40625 -1.53125q0.828125 -0.90625 1.71875 -2.0q0.890625 -1.109375 1.75 -2.34375q0.875 -1.25 1.578125 -2.53125q0.71875 -1.28125 1.140625 -2.53125q0.421875 -1.25 0.421875 -2.375q0 -1.296875 -0.75 -2.15625q-0.734375 -0.875 -2.265625 -0.875q-1.0 0 -1.96875 0.421875q-0.953125 0.40625 -1.65625 0.9375l-0.875 -1.515625q0.9375 -0.8125 2.21875 -1.265625q1.28125 -0.453125 2.75 -0.453125q1.140625 0 2.015625 0.34375q0.875 0.328125 1.484375 0.9375q0.625 0.609375 0.9375 1.453125q0.328125 0.84375 0.328125 1.828125z" fill-rule="nonzero"/><path fill="#000000" fill-opacity="0.0" d="m483.813 128.2746l28.692932 0l0 51.716537l-28.692932 0z" fill-rule="evenodd"/><path fill="#000000" d="m504.7036 148.45273q0 1.40625 -0.53125 2.890625q-0.515625 1.484375 -1.359375 2.984375q-0.828125 1.484375 -1.875 2.90625q-1.03125 1.421875 -2.078125 2.703125l-1.296875 1.15625l0 0.109375l1.703125 -0.296875l5.8125 0l0 1.96875l-10.609375 0l0 -0.765625q0.578125 -0.625 1.40625 -1.53125q0.828125 -0.90625 1.71875 -2.0q0.890625 -1.109375 1.75 -2.34375q0.875 -1.25 1.578125 -2.53125q0.71875 -1.28125 1.140625 -2.53125q0.421875 -1.25 0.421875 -2.375q0 -1.296875 -0.75 -2.15625q-0.734375 -0.875 -2.265625 -0.875q-1.0 0 -1.96875 0.421875q-0.953125 0.40625 -1.65625 0.9375l-0.875 -1.515625q0.9375 -0.8125 2.21875 -1.265625q1.28125 -0.453125 2.75 -0.453125q1.140625 0 2.015625 0.34375q0.875 0.328125 1.484375 0.9375q0.625 0.609375 0.9375 1.453125q0.328125 0.84375 0.328125 1.828125z" fill-rule="nonzero"/><path fill="#000000" fill-opacity="0.0" d="m623.695 128.67279l28.692871 0l0 51.716522l-28.692871 0z" fill-rule="evenodd"/><path fill="#000000" d="m638.9294 161.7259q0.90625 0 1.671875 -0.265625q0.78125 -0.265625 1.34375 -0.78125q0.5625 -0.53125 0.875 -1.25q0.328125 -0.71875 0.328125 -1.5625q0 -1.875 -1.109375 -2.78125q-1.109375 -0.90625 -3.046875 -0.90625l-1.984375 0l0 -0.765625l3.84375 -5.921875l1.234375 -1.171875l-1.734375 0.265625l-5.28125 0l0 -1.96875l9.515625 0l0 0.765625l-4.234375 6.375l-0.9375 0.765625l0 0.0625l0.90625 -0.1875q1.0625 0.03125 1.96875 0.390625q0.90625 0.359375 1.5625 1.046875q0.671875 0.671875 1.046875 1.625q0.375 0.9375 0.375 2.140625q0 1.4375 -0.515625 2.5625q-0.5 1.109375 -1.359375 1.875q-0.859375 0.75 -2.046875 1.15625q-1.171875 0.390625 -2.46875 0.390625q-1.203125 0 -2.171875 -0.1875q-0.953125 -0.171875 -1.671875 -0.46875l0.5625 -1.890625q0.609375 0.28125 1.453125 0.484375q0.84375 0.203125 1.875 0.203125z" fill-rule="nonzero"/><path fill="#000000" fill-opacity="0.0" d="m665.63464 54.630104l28.692871 0l0 51.716537l-28.692871 0z" fill-rule="evenodd"/><path fill="#000000" d="m680.869 87.68323q0.90625 0 1.671875 -0.265625q0.78125 -0.265625 1.34375 -0.78125q0.5625 -0.53125 0.875 -1.25q0.328125 -0.71875 0.328125 -1.5625q0 -1.875 -1.109375 -2.78125q-1.109375 -0.90625 -3.046875 -0.90625l-1.984375 0l0 -0.765625l3.84375 -5.921875l1.234375 -1.171875l-1.734375 0.265625l-5.28125 0l0 -1.96875l9.515625 0l0 0.765625l-4.234375 6.375l-0.9375 0.765625l0 0.0625l0.90625 -0.1875q1.0625 0.03125 1.96875 0.390625q0.90625 0.359375 1.5625 1.046875q0.671875 0.671875 1.046875 1.625q0.375 0.9375 0.375 2.140625q0 1.4375 -0.515625 2.5625q-0.5 1.109375 -1.359375 1.875q-0.859375 0.75 -2.046875 1.15625q-1.171875 0.390625 -2.46875 0.390625q-1.203125 0 -2.171875 -0.1875q-0.953125 -0.171875 -1.671875 -0.46875l0.5625 -1.890625q0.609375 0.28125 1.453125 0.484375q0.84375 0.203125 1.875 0.203125z" fill-rule="nonzero"/><path fill="#000000" fill-opacity="0.0" d="m662.17346 169.58484l28.692932 0l0 51.716537l-28.692932 0z" fill-rule="evenodd"/><path fill="#000000" d="m674.11096 204.18484l6.6875 -15.625l1.171875 -1.296875l-1.578125 0.234375l-7.59375 0l0 -1.96875l11.140625 0l0 0.71875l-7.671875 17.9375l-2.15625 0z" fill-rule="nonzero"/><path fill="#000000" fill-opacity="0.0" d="m437.02173 174.85898l28.692902 0l0 51.716537l-28.692902 0z" fill-rule="evenodd"/><path fill="#000000" d="m452.2561 207.9121q0.90625 0 1.671875 -0.265625q0.78125 -0.265625 1.34375 -0.78125q0.5625 -0.53125 0.875 -1.25q0.328125 -0.71875 0.328125 -1.5625q0 -1.875 -1.109375 -2.78125q-1.109375 -0.90625 -3.046875 -0.90625l-1.984375 0l0 -0.765625l3.84375 -5.921875l1.234375 -1.171875l-1.734375 0.265625l-5.28125 0l0 -1.96875l9.515625 0l0 0.765625l-4.234375 6.375l-0.9375 0.765625l0 0.0625l0.90625 -0.1875q1.0625 0.03125 1.96875 0.390625q0.90625 0.359375 1.5625 1.046875q0.671875 0.671875 1.046875 1.625q0.375 0.9375 0.375 2.140625q0 1.4375 -0.515625 2.5625q-0.5 1.109375 -1.359375 1.875q-0.859375 0.75 -2.046875 1.15625q-1.171875 0.390625 -2.46875 0.390625q-1.203125 0 -2.171875 -0.1875q-0.953125 -0.171875 -1.671875 -0.46875l0.5625 -1.890625q0.609375 0.28125 1.453125 0.484375q0.84375 0.203125 1.875 0.203125z" fill-rule="nonzero"/><path fill="#000000" fill-opacity="0.0" d="m606.85724 234.14961c0 -14.507263 11.760437 -26.267715 26.2677 -26.267715c6.966675 0 13.647949 2.7674713 18.574097 7.693634c4.9261475 4.9261475 7.6936646 11.607437 7.6936646 18.574081c0 14.507248 -11.760498 26.267715 -26.267761 26.267715c-14.507263 0 -26.2677 -11.760468 -26.2677 -26.267715z" fill-rule="evenodd"/><path stroke="#000000" stroke-width="3.0" stroke-linejoin="round" stroke-linecap="butt" d="m606.85724 234.14961c0 -14.507263 11.760437 -26.267715 26.2677 -26.267715c6.966675 0 13.647949 2.7674713 18.574097 7.693634c4.9261475 4.9261475 7.6936646 11.607437 7.6936646 18.574081c0 14.507248 -11.760498 26.267715 -26.267761 26.267715c-14.507263 0 -26.2677 -11.760468 -26.2677 -26.267715z" fill-rule="evenodd"/><path fill="#000000" d="m632.51166 234.45836l8.765625 0l0 11.5q-0.59375 0.453125 -1.4375 0.828125q-0.828125 0.359375 -1.78125 0.625q-0.953125 0.265625 -1.984375 0.390625q-1.03125 0.140625 -2.0 0.140625q-2.5 0 -4.59375 -0.796875q-2.078125 -0.8125 -3.609375 -2.46875q-1.53125 -1.671875 -2.390625 -4.21875q-0.859375 -2.5625 -0.859375 -6.03125q0 -3.625 1.046875 -6.203125q1.046875 -2.578125 2.71875 -4.1875q1.6875 -1.625 3.765625 -2.375q2.09375 -0.75 4.1875 -0.75q2.234375 0 3.6875 0.25q1.46875 0.234375 2.46875 0.640625l-0.78125 2.734375q-1.796875 -0.859375 -5.109375 -0.859375q-1.578125 0 -3.125 0.546875q-1.546875 0.53125 -2.78125 1.8125q-1.234375 1.265625 -2.015625 3.3125q-0.78125 2.046875 -0.78125 5.078125q0 2.765625 0.625 4.78125q0.640625 2.015625 1.78125 3.34375q1.140625 1.3125 2.734375 1.96875q1.609375 0.65625 3.515625 0.65625q2.390625 0 4.078125 -0.9375l0 -7.28125l-6.125 -0.734375l0 -1.765625z" fill-rule="nonzero"/><path fill="#000000" fill-opacity="0.0" d="m873.61804 37.6063c0 -14.507261 11.760498 -26.267717 26.267761 -26.267717c6.966614 0 13.647888 2.7674837 18.574036 7.693636c4.9261475 4.9261513 7.6936646 11.607449 7.6936646 18.574081c0 14.507259 -11.760498 26.267715 -26.2677 26.267715c-14.507263 0 -26.267761 -11.760456 -26.267761 -26.267715z" fill-rule="evenodd"/><path stroke="#000000" stroke-width="3.0" stroke-linejoin="round" stroke-linecap="butt" d="m873.61804 37.6063c0 -14.507261 11.760498 -26.267717 26.267761 -26.267717c6.966614 0 13.647888 2.7674837 18.574036 7.693636c4.9261475 4.9261513 7.6936646 11.607449 7.6936646 18.574081c0 14.507259 -11.760498 26.267715 -26.2677 26.267715c-14.507263 0 -26.267761 -11.760456 -26.267761 -26.267715z" fill-rule="evenodd"/><path fill="#000000" d="m903.0648 43.71192l-9.640625 0l-2.609375 7.234375l-3.0625 0l9.890625 -26.546875l1.421875 0l9.921875 26.546875l-3.234375 0l-2.6875 -7.234375zm-8.625 -2.6875l7.6875 0l-2.90625 -7.953125l-0.9375 -3.96875l-0.046875 0l-0.921875 4.03125l-2.875 7.890625z" fill-rule="nonzero"/><path fill="#000000" fill-opacity="0.0" d="m1015.3254 37.6063c0 -14.507261 11.760437 -26.267717 26.267761 -26.267717c6.966675 0 13.647949 2.7674837 18.574097 7.693636c4.9261475 4.9261513 7.6936035 11.607449 7.6936035 18.574081c0 14.507259 -11.760498 26.267715 -26.2677 26.267715c-14.507324 0 -26.267761 -11.760456 -26.267761 -26.267715z" fill-rule="evenodd"/><path stroke="#000000" stroke-width="3.0" stroke-linejoin="round" stroke-linecap="butt" d="m1015.3254 37.6063c0 -14.507261 11.760437 -26.267717 26.267761 -26.267717c6.966675 0 13.647949 2.7674837 18.574097 7.693636c4.9261475 4.9261513 7.6936035 11.607449 7.6936035 18.574081c0 14.507259 -11.760498 26.267715 -26.2677 26.267715c-14.507324 0 -26.267761 -11.760456 -26.267761 -26.267715z" fill-rule="evenodd"/><path fill="#000000" d="m1048.1034 30.790047q0 0.9375 -0.296875 1.90625q-0.296875 0.96875 -0.890625 1.8125q-0.59375 0.828125 -1.53125 1.46875q-0.9375 0.640625 -2.203125 0.96875l0 0.15625q1.125 0.1875 2.140625 0.640625q1.03125 0.4375 1.8125 1.21875q0.78125 0.78125 1.265625 1.90625q0.484375 1.125 0.484375 2.65625q0 2.015625 -0.84375 3.484375q-0.828125 1.46875 -2.203125 2.40625q-1.359375 0.9375 -3.109375 1.390625q-1.75 0.4375 -3.578125 0.4375q-0.640625 0 -1.5 0q-0.859375 0 -1.796875 -0.0625q-0.921875 -0.046875 -1.859375 -0.140625q-0.9375 -0.09375 -1.640625 -0.28125l0 -25.71875q1.375 -0.21875 3.203125 -0.359375q1.84375 -0.15625 4.0 -0.15625q1.453125 0 2.96875 0.25q1.515625 0.234375 2.734375 0.921875q1.234375 0.6875 2.03125 1.921875q0.8125 1.234375 0.8125 3.171875zm-8.65625 17.765625q1.1875 0 2.3125 -0.28125q1.125 -0.28125 1.984375 -0.890625q0.859375 -0.625 1.359375 -1.515625q0.5 -0.890625 0.5 -2.125q0 -1.53125 -0.625 -2.453125q-0.609375 -0.9375 -1.59375 -1.453125q-0.984375 -0.53125 -2.21875 -0.71875q-1.234375 -0.1875 -2.46875 -0.1875l-3.25 0l0 9.359375q0.265625 0.078125 0.75 0.125q0.484375 0.03125 1.046875 0.078125q0.5625 0.03125 1.15625 0.046875q0.59375 0.015625 1.046875 0.015625zm-2.046875 -12.234375q0.625 0 1.515625 -0.03125q0.90625 -0.046875 1.5 -0.125q0.890625 -0.296875 1.671875 -0.71875q0.796875 -0.4375 1.40625 -1.015625q0.625 -0.578125 0.96875 -1.34375q0.359375 -0.765625 0.359375 -1.65625q0 -1.234375 -0.46875 -2.03125q-0.46875 -0.8125 -1.25 -1.296875q-0.78125 -0.484375 -1.796875 -0.6875q-1.0 -0.203125 -2.046875 -0.203125q-1.234375 0 -2.265625 0.0625q-1.015625 0.046875 -1.546875 0.15625l0 8.890625l1.953125 0z" fill-rule="nonzero"/><path fill="#000000" fill-opacity="0.0" d="m945.24927 140.94751c0 -14.507263 11.760498 -26.267723 26.267761 -26.267723c6.966614 0 13.647888 2.7674866 18.574036 7.6936417c4.9261475 4.9261475 7.6936646 11.607452 7.6936646 18.574081c0 14.507263 -11.760437 26.267715 -26.2677 26.267715c-14.507263 0 -26.267761 -11.760452 -26.267761 -26.267715z" fill-rule="evenodd"/><path stroke="#000000" stroke-width="3.0" stroke-linejoin="round" stroke-linecap="butt" d="m945.24927 140.94751c0 -14.507263 11.760498 -26.267723 26.267761 -26.267723c6.966614 0 13.647888 2.7674866 18.574036 7.6936417c4.9261475 4.9261475 7.6936646 11.607452 7.6936646 18.574081c0 14.507263 -11.760437 26.267715 -26.2677 26.267715c-14.507263 0 -26.267761 -11.760452 -26.267761 -26.267715z" fill-rule="evenodd"/><path fill="#000000" d="m962.0912 128.1625q0.703125 -0.109375 1.578125 -0.171875q0.890625 -0.0625 1.84375 -0.078125q0.953125 -0.015625 1.859375 -0.03125q0.921875 -0.015625 1.703125 -0.015625q3.125 0 5.421875 0.96875q2.296875 0.96875 3.78125 2.703125q1.5 1.734375 2.234375 4.171875q0.734375 2.421875 0.734375 5.328125q0 2.65625 -0.703125 5.09375q-0.6875 2.4375 -2.1875 4.328125q-1.484375 1.890625 -3.875 3.03125q-2.390625 1.140625 -5.78125 1.140625q-0.59375 0 -1.546875 -0.03125q-0.953125 -0.015625 -1.96875 -0.078125q-1.0 -0.046875 -1.859375 -0.09375q-0.859375 -0.03125 -1.234375 -0.109375l0 -26.15625zm7.0625 2.453125q-0.484375 0 -1.078125 0q-0.578125 0 -1.140625 0.046875q-0.546875 0.03125 -1.015625 0.078125q-0.46875 0.03125 -0.734375 0.0625l0 20.90625q0.1875 0.046875 0.703125 0.0625q0.53125 0.015625 1.09375 0.03125q0.5625 0.015625 1.078125 0.046875q0.53125 0.015625 0.71875 0.015625q2.609375 0 4.375 -0.890625q1.78125 -0.90625 2.84375 -2.40625q1.0625 -1.515625 1.5 -3.46875q0.453125 -1.96875 0.453125 -4.0625q0 -1.828125 -0.40625 -3.671875q-0.40625 -1.859375 -1.421875 -3.34375q-1.0 -1.5 -2.703125 -2.453125q-1.703125 -0.953125 -4.265625 -0.953125z" fill-rule="nonzero"/><path fill="#000000" fill-opacity="0.0" d="m918.45984 56.180378l34.48822 66.20473" fill-rule="evenodd"/><path stroke="#000000" stroke-width="2.0" stroke-linejoin="round" stroke-linecap="butt" d="m918.45984 56.180378l34.48822 66.20473" fill-rule="evenodd"/><path fill="#000000" fill-opacity="0.0" d="m1081.1522 140.94751c0 -14.507263 11.760376 -26.267723 26.2677 -26.267723c6.9665527 0 13.647949 2.7674866 18.574097 7.6936417c4.9261475 4.9261475 7.6936035 11.607452 7.6936035 18.574081c0 14.507263 -11.760498 26.267715 -26.2677 26.267715c-14.507324 0 -26.2677 -11.760452 -26.2677 -26.267715z" fill-rule="evenodd"/><path stroke="#000000" stroke-width="3.0" stroke-linejoin="round" stroke-linecap="butt" d="m1081.1522 140.94751c0 -14.507263 11.760376 -26.267723 26.2677 -26.267723c6.9665527 0 13.647949 2.7674866 18.574097 7.6936417c4.9261475 4.9261475 7.6936035 11.607452 7.6936035 18.574081c0 14.507263 -11.760498 26.267715 -26.2677 26.267715c-14.507324 0 -26.2677 -11.760452 -26.2677 -26.267715z" fill-rule="evenodd"/><path fill="#000000" d="m1099.076 128.1625l14.21875 0l0 2.75l-11.125 0l0 8.5625l10.203125 0l0 2.75l-10.203125 0l0 9.296875l11.3125 0l0 2.765625l-14.40625 0l0 -26.125z" fill-rule="nonzero"/><path fill="#000000" fill-opacity="0.0" d="m873.61804 234.14961c0 -14.507263 11.760498 -26.267715 26.267761 -26.267715c6.966614 0 13.647888 2.7674713 18.574036 7.693634c4.9261475 4.9261475 7.6936646 11.607437 7.6936646 18.574081c0 14.507248 -11.760498 26.267715 -26.2677 26.267715c-14.507263 0 -26.267761 -11.760468 -26.267761 -26.267715z" fill-rule="evenodd"/><path stroke="#000000" stroke-width="3.0" stroke-linejoin="round" stroke-linecap="butt" d="m873.61804 234.14961c0 -14.507263 11.760498 -26.267715 26.267761 -26.267715c6.966614 0 13.647888 2.7674713 18.574036 7.693634c4.9261475 4.9261475 7.6936646 11.607437 7.6936646 18.574081c0 14.507248 -11.760498 26.267715 -26.2677 26.267715c-14.507263 0 -26.267761 -11.760468 -26.267761 -26.267715z" fill-rule="evenodd"/><path fill="#000000" d="m891.8965 221.36461l14.21875 0l0 2.75l-11.125 0l0 8.921875l10.375 0l0 2.765625l-10.375 0l0 11.6875l-3.09375 0l0 -26.125z" fill-rule="nonzero"/><path fill="#000000" fill-opacity="0.0" d="m799.9186 140.94751c0 -14.507263 11.760437 -26.267723 26.2677 -26.267723c6.966675 0 13.647949 2.7674866 18.574097 7.6936417c4.9261475 4.9261475 7.6936646 11.607452 7.6936646 18.574081c0 14.507263 -11.760498 26.267715 -26.267761 26.267715c-14.507263 0 -26.2677 -11.760452 -26.2677 -26.267715z" fill-rule="evenodd"/><path stroke="#000000" stroke-width="3.0" stroke-linejoin="round" stroke-linecap="butt" d="m799.9186 140.94751c0 -14.507263 11.760437 -26.267723 26.2677 -26.267723c6.966675 0 13.647949 2.7674866 18.574097 7.6936417c4.9261475 4.9261475 7.6936646 11.607452 7.6936646 18.574081c0 14.507263 -11.760498 26.267715 -26.267761 26.267715c-14.507263 0 -26.2677 -11.760452 -26.2677 -26.267715z" fill-rule="evenodd"/><path fill="#000000" d="m833.9079 153.20938q-1.109375 0.859375 -2.828125 1.1875q-1.71875 0.34375 -3.65625 0.34375q-2.359375 0 -4.421875 -0.796875q-2.046875 -0.8125 -3.578125 -2.453125q-1.53125 -1.640625 -2.421875 -4.203125q-0.890625 -2.5625 -0.890625 -6.0625q0 -3.65625 0.984375 -6.21875q0.984375 -2.5625 2.609375 -4.171875q1.625 -1.625 3.640625 -2.375q2.015625 -0.75 4.109375 -0.75q2.234375 0 3.65625 0.25q1.421875 0.234375 2.421875 0.640625l-0.734375 2.734375q-1.796875 -0.859375 -5.125 -0.859375q-1.53125 0 -3.03125 0.5625q-1.484375 0.546875 -2.65625 1.828125q-1.171875 1.265625 -1.890625 3.328125q-0.703125 2.046875 -0.703125 5.03125q0 2.6875 0.671875 4.703125q0.671875 2.015625 1.84375 3.359375q1.1875 1.34375 2.765625 2.015625q1.59375 0.671875 3.453125 0.671875q1.6875 0 2.9375 -0.328125q1.25 -0.34375 2.109375 -0.875l0.734375 2.4375z" fill-rule="nonzero"/><path fill="#000000" fill-opacity="0.0" d="m997.7847 140.94751l83.370056 0" fill-rule="evenodd"/><path stroke="#000000" stroke-width="2.0" stroke-linejoin="round" stroke-linecap="butt" d="m997.7847 140.94751l83.370056 0" fill-rule="evenodd"/><path fill="#000000" fill-opacity="0.0" d="m1088.8458 122.37343l-28.692871 -66.20473" fill-rule="evenodd"/><path stroke="#000000" stroke-width="2.0" stroke-linejoin="round" stroke-linecap="butt" d="m1088.8458 122.37343l-28.692871 -66.20473" fill-rule="evenodd"/><path fill="#000000" fill-opacity="0.0" d="m1088.8458 159.52159l-36.37793 56.06299" fill-rule="evenodd"/><path stroke="#000000" stroke-width="2.0" stroke-linejoin="round" stroke-linecap="butt" d="m1088.8458 159.52159l-36.37793 56.06299" fill-rule="evenodd"/><path fill="#000000" fill-opacity="0.0" d="m852.45404 140.94751l92.78735 0" fill-rule="evenodd"/><path stroke="#000000" stroke-width="2.0" stroke-linejoin="round" stroke-linecap="butt" d="m852.45404 140.94751l92.78735 0" fill-rule="evenodd"/><path fill="#000000" fill-opacity="0.0" d="m884.5725 128.2746l28.692871 0l0 51.716537l-28.692871 0z" fill-rule="evenodd"/><path fill="#000000" d="m905.46313 148.45273q0 1.40625 -0.53125 2.890625q-0.515625 1.484375 -1.359375 2.984375q-0.828125 1.484375 -1.875 2.90625q-1.03125 1.421875 -2.078125 2.703125l-1.296875 1.15625l0 0.109375l1.703125 -0.296875l5.8125 0l0 1.96875l-10.609375 0l0 -0.765625q0.578125 -0.625 1.40625 -1.53125q0.828125 -0.90625 1.71875 -2.0q0.890625 -1.109375 1.75 -2.34375q0.875 -1.25 1.578125 -2.53125q0.71875 -1.28125 1.140625 -2.53125q0.421875 -1.25 0.421875 -2.375q0 -1.296875 -0.75 -2.15625q-0.734375 -0.875 -2.265625 -0.875q-1.0 0 -1.96875 0.421875q-0.953125 0.40625 -1.65625 0.9375l-0.875 -1.515625q0.9375 -0.8125 2.21875 -1.265625q1.28125 -0.453125 2.75 -0.453125q1.140625 0 2.015625 0.34375q0.875 0.328125 1.484375 0.9375q0.625 0.609375 0.9375 1.453125q0.328125 0.84375 0.328125 1.828125z" fill-rule="nonzero"/><path fill="#000000" fill-opacity="0.0" d="m966.6559 23.80998l28.692871 0l0 51.71653l-28.692871 0z" fill-rule="evenodd"/><path fill="#000000" fill-opacity="0.0" d="m926.65717 55.609474l28.692871 0l0 51.716537l-28.692871 0z" fill-rule="evenodd"/><path fill="#000000" d="m947.5478 75.7876q0 1.40625 -0.53125 2.890625q-0.515625 1.484375 -1.359375 2.984375q-0.828125 1.484375 -1.875 2.90625q-1.03125 1.421875 -2.078125 2.703125l-1.296875 1.15625l0 0.109375l1.703125 -0.296875l5.8125 0l0 1.96875l-10.609375 0l0 -0.765625q0.578125 -0.625 1.40625 -1.53125q0.828125 -0.90625 1.71875 -2.0q0.890625 -1.109375 1.75 -2.34375q0.875 -1.25 1.578125 -2.53125q0.71875 -1.28125 1.140625 -2.53125q0.421875 -1.25 0.421875 -2.375q0 -1.296875 -0.75 -2.15625q-0.734375 -0.875 -2.265625 -0.875q-1.0 0 -1.96875 0.421875q-0.953125 0.40625 -1.65625 0.9375l-0.875 -1.515625q0.9375 -0.8125 2.21875 -1.265625q1.28125 -0.453125 2.75 -0.453125q1.140625 0 2.015625 0.34375q0.875 0.328125 1.484375 0.9375q0.625 0.609375 0.9375 1.453125q0.328125 0.84375 0.328125 1.828125z" fill-rule="nonzero"/><path fill="#000000" fill-opacity="0.0" d="m1024.4545 128.67279l28.692993 0l0 51.716522l-28.692993 0z" fill-rule="evenodd"/><path fill="#000000" d="m1039.6888 161.7259q0.90625 0 1.671875 -0.265625q0.78125 -0.265625 1.34375 -0.78125q0.5625 -0.53125 0.875 -1.25q0.328125 -0.71875 0.328125 -1.5625q0 -1.875 -1.109375 -2.78125q-1.109375 -0.90625 -3.046875 -0.90625l-1.984375 0l0 -0.765625l3.84375 -5.921875l1.234375 -1.171875l-1.734375 0.265625l-5.28125 0l0 -1.96875l9.515625 0l0 0.765625l-4.234375 6.375l-0.9375 0.765625l0 0.0625l0.90625 -0.1875q1.0625 0.03125 1.96875 0.390625q0.90625 0.359375 1.5625 1.046875q0.671875 0.671875 1.046875 1.625q0.375 0.9375 0.375 2.140625q0 1.4375 -0.515625 2.5625q-0.5 1.109375 -1.359375 1.875q-0.859375 0.75 -2.046875 1.15625q-1.171875 0.390625 -2.46875 0.390625q-1.203125 0 -2.171875 -0.1875q-0.953125 -0.171875 -1.671875 -0.46875l0.5625 -1.890625q0.609375 0.28125 1.453125 0.484375q0.84375 0.203125 1.875 0.203125z" fill-rule="nonzero"/><path fill="#000000" fill-opacity="0.0" d="m1066.3942 54.630104l28.692871 0l0 51.716537l-28.692871 0z" fill-rule="evenodd"/><path fill="#000000" d="m1081.6285 87.68323q0.90625 0 1.671875 -0.265625q0.78125 -0.265625 1.34375 -0.78125q0.5625 -0.53125 0.875 -1.25q0.328125 -0.71875 0.328125 -1.5625q0 -1.875 -1.109375 -2.78125q-1.109375 -0.90625 -3.046875 -0.90625l-1.984375 0l0 -0.765625l3.84375 -5.921875l1.234375 -1.171875l-1.734375 0.265625l-5.28125 0l0 -1.96875l9.515625 0l0 0.765625l-4.234375 6.375l-0.9375 0.765625l0 0.0625l0.90625 -0.1875q1.0625 0.03125 1.96875 0.390625q0.90625 0.359375 1.5625 1.046875q0.671875 0.671875 1.046875 1.625q0.375 0.9375 0.375 2.140625q0 1.4375 -0.515625 2.5625q-0.5 1.109375 -1.359375 1.875q-0.859375 0.75 -2.046875 1.15625q-1.171875 0.390625 -2.46875 0.390625q-1.203125 0 -2.171875 -0.1875q-0.953125 -0.171875 -1.671875 -0.46875l0.5625 -1.890625q0.609375 0.28125 1.453125 0.484375q0.84375 0.203125 1.875 0.203125z" fill-rule="nonzero"/><path fill="#000000" fill-opacity="0.0" d="m1062.933 169.58484l28.692871 0l0 51.716537l-28.692871 0z" fill-rule="evenodd"/><path fill="#000000" d="m1074.8705 204.18484l6.6875 -15.625l1.171875 -1.296875l-1.578125 0.234375l-7.59375 0l0 -1.96875l11.140625 0l0 0.71875l-7.671875 17.9375l-2.15625 0z" fill-rule="nonzero"/><path fill="#000000" fill-opacity="0.0" d="m1007.61676 234.14961c0 -14.507263 11.760437 -26.267715 26.267761 -26.267715c6.9665527 0 13.647827 2.7674713 18.573975 7.693634c4.9261475 4.9261475 7.6937256 11.607437 7.6937256 18.574081c0 14.507248 -11.760498 26.267715 -26.2677 26.267715c-14.507324 0 -26.267761 -11.760468 -26.267761 -26.267715z" fill-rule="evenodd"/><path stroke="#000000" stroke-width="3.0" stroke-linejoin="round" stroke-linecap="butt" d="m1007.61676 234.14961c0 -14.507263 11.760437 -26.267715 26.267761 -26.267715c6.9665527 0 13.647827 2.7674713 18.573975 7.693634c4.9261475 4.9261475 7.6937256 11.607437 7.6937256 18.574081c0 14.507248 -11.760498 26.267715 -26.2677 26.267715c-14.507324 0 -26.267761 -11.760468 -26.267761 -26.267715z" fill-rule="evenodd"/><path fill="#000000" d="m1033.2711 234.45836l8.765625 0l0 11.5q-0.59375 0.453125 -1.4375 0.828125q-0.828125 0.359375 -1.78125 0.625q-0.953125 0.265625 -1.984375 0.390625q-1.03125 0.140625 -2.0 0.140625q-2.5 0 -4.59375 -0.796875q-2.078125 -0.8125 -3.609375 -2.46875q-1.53125 -1.671875 -2.390625 -4.21875q-0.85931396 -2.5625 -0.85931396 -6.03125q0 -3.625 1.046814 -6.203125q1.046875 -2.578125 2.71875 -4.1875q1.6875 -1.625 3.765625 -2.375q2.09375 -0.75 4.1875 -0.75q2.234375 0 3.6875 0.25q1.46875 0.234375 2.46875 0.640625l-0.78125 2.734375q-1.796875 -0.859375 -5.109375 -0.859375q-1.578125 0 -3.125 0.546875q-1.546875 0.53125 -2.78125 1.8125q-1.234375 1.265625 -2.015625 3.3125q-0.78125 2.046875 -0.78125 5.078125q0 2.765625 0.625 4.78125q0.640625 2.015625 1.78125 3.34375q1.140625 1.3125 2.734375 1.96875q1.609375 0.65625 3.515625 0.65625q2.390625 0 4.078125 -0.9375l0 -7.28125l-6.125 -0.734375l0 -1.765625z" fill-rule="nonzero"/><path fill="#000000" fill-opacity="0.0" d="m918.45984 215.57553l34.48822 -56.063004" fill-rule="evenodd"/><path stroke="#000000" stroke-width="2.0" stroke-linejoin="round" stroke-linecap="butt" d="m918.45984 215.57553l34.48822 -56.063004" fill-rule="evenodd"/><path fill="#000000" fill-opacity="0.0" d="m928.2817 167.74265l28.692932 0l0 51.716522l-28.692932 0z" fill-rule="evenodd"/><path fill="#000000" d="m943.51605 200.79576q0.90625 0 1.671875 -0.265625q0.78125 -0.265625 1.34375 -0.78125q0.5625 -0.53125 0.875 -1.25q0.328125 -0.71875 0.328125 -1.5625q0 -1.875 -1.109375 -2.78125q-1.109375 -0.90625 -3.046875 -0.90625l-1.984375 0l0 -0.765625l3.84375 -5.921875l1.234375 -1.171875l-1.734375 0.265625l-5.28125 0l0 -1.96875l9.515625 0l0 0.765625l-4.234375 6.375l-0.9375 0.765625l0 0.0625l0.90625 -0.1875q1.0625 0.03125 1.96875 0.390625q0.90625 0.359375 1.5625 1.046875q0.671875 0.671875 1.046875 1.625q0.375 0.9375 0.375 2.140625q0 1.4375 -0.515625 2.5625q-0.5 1.109375 -1.359375 1.875q-0.859375 0.75 -2.046875 1.15625q-1.171875 0.390625 -2.46875 0.390625q-1.203125 0 -2.171875 -0.1875q-0.953125 -0.171875 -1.671875 -0.46875l0.5625 -1.890625q0.609375 0.28125 1.453125 0.484375q0.84375 0.203125 1.875 0.203125z" fill-rule="nonzero"/><path fill="#000000" fill-opacity="0.0" d="m766.42334 8.833805l0 261.29135" fill-rule="evenodd"/><path stroke="#000000" stroke-width="1.0" stroke-linejoin="round" stroke-linecap="butt" d="m766.42334 8.833805l0 261.29135" fill-rule="evenodd"/><path fill="#000000" fill-opacity="0.0" d="m369.06723 7.21832l0 261.29132" fill-rule="evenodd"/><path stroke="#000000" stroke-width="1.0" stroke-linejoin="round" stroke-linecap="butt" d="m369.06723 7.21832l0 261.29132" fill-rule="evenodd"/></g></svg>