<svg version="1.1" viewBox="0.0 0.0 518.7086614173228 172.9028871391076" fill="none" stroke="none" stroke-linecap="square" stroke-miterlimit="10" xmlns:xlink="http://www.w3.org/1999/xlink" xmlns="http://www.w3.org/2000/svg"><clipPath id="p.0"><path d="m0 0l518.7087 0l0 172.9029l-518.7087 0l0 -172.9029z" clip-rule="nonzero"/></clipPath><g clip-path="url(#p.0)"><path fill="#000000" fill-opacity="0.0" d="m0 0l518.7087 0l0 172.9029l-518.7087 0z" fill-rule="evenodd"/><path fill="#000000" fill-opacity="0.0" d="m27.303741 30.212599c0 -14.507259 11.760456 -26.267717 26.267715 -26.267717c6.966633 0 13.647926 2.7674837 18.574081 7.6936364c4.926155 4.926152 7.693634 11.607448 7.693634 18.574081c0 14.507257 -11.760452 26.267717 -26.267715 26.267717c-14.507259 0 -26.267715 -11.76046 -26.267715 -26.267717z" fill-rule="evenodd"/><path stroke="#000000" stroke-width="3.0" stroke-linejoin="round" stroke-linecap="butt" d="m27.303741 30.212599c0 -14.507259 11.760456 -26.267717 26.267715 -26.267717c6.966633 0 13.647926 2.7674837 18.574081 7.6936364c4.926155 4.926152 7.693634 11.607448 7.693634 18.574081c0 14.507257 -11.760452 26.267717 -26.267715 26.267717c-14.507259 0 -26.267715 -11.76046 -26.267715 -26.267717z" fill-rule="evenodd"/><path fill="#000000" d="m56.750523 36.318222l-9.640625 0l-2.609375 7.234375l-3.0625 0l9.890625 -26.546877l1.421875 0l9.921875 26.546877l-3.234375 0l-2.6875 -7.234375zm-8.625 -2.6875l7.6875 0l-2.90625 -7.953127l-0.9375 -3.96875l-0.046875 0l-0.921875 4.03125l-2.875 7.890627z" fill-rule="nonzero"/><path fill="#000000" fill-opacity="0.0" d="m79.83917 30.212599l77.133865 0" fill-rule="evenodd"/><path stroke="#000000" stroke-width="2.0" stroke-linejoin="round" stroke-linecap="butt" d="m79.83917 30.212599l77.133865 0" fill-rule="evenodd"/><path fill="#000000" fill-opacity="0.0" d="m156.98485 30.212599c0 -14.507259 11.760452 -26.267717 26.267715 -26.267717c6.966629 0 13.647919 2.7674837 18.574081 7.6936364c4.9261475 4.926152 7.693634 11.607448 7.693634 18.574081c0 14.507257 -11.760452 26.267717 -26.267715 26.267717c-14.507263 0 -26.267715 -11.76046 -26.267715 -26.267717z" fill-rule="evenodd"/><path stroke="#000000" stroke-width="3.0" stroke-linejoin="round" stroke-linecap="butt" d="m156.98485 30.212599c0 -14.507259 11.760452 -26.267717 26.267715 -26.267717c6.966629 0 13.647919 2.7674837 18.574081 7.6936364c4.9261475 4.926152 7.693634 11.607448 7.693634 18.574081c0 14.507257 -11.760452 26.267717 -26.267715 26.267717c-14.507263 0 -26.267715 -11.76046 -26.267715 -26.267717z" fill-rule="evenodd"/><path fill="#000000" d="m189.76279 23.396345q0 0.9375 -0.296875 1.90625q-0.296875 0.96875 -0.890625 1.8125q-0.59375 0.828125 -1.53125 1.46875q-0.9375 0.640625 -2.203125 0.96875l0 0.15625q1.125 0.1875 2.140625 0.640625q1.03125 0.4375 1.8125 1.21875q0.78125 0.7812519 1.265625 1.9062519q0.484375 1.125 0.484375 2.65625q0 2.015625 -0.84375 3.484375q-0.828125 1.46875 -2.203125 2.40625q-1.359375 0.9375 -3.109375 1.390625q-1.75 0.4375 -3.578125 0.4375q-0.640625 0 -1.5 0q-0.859375 0 -1.796875 -0.0625q-0.921875 -0.046875 -1.859375 -0.140625q-0.9375 -0.09375 -1.640625 -0.28125l0 -25.718752q1.375 -0.21875 3.203125 -0.359375q1.84375 -0.15625 4.0 -0.15625q1.453125 0 2.96875 0.25q1.515625 0.234375 2.734375 0.921875q1.234375 0.6875 2.03125 1.921875q0.8125 1.234375 0.8125 3.171875zm-8.65625 17.765627q1.1875 0 2.3125 -0.28125q1.125 -0.28125 1.984375 -0.890625q0.859375 -0.625 1.359375 -1.515625q0.5 -0.890625 0.5 -2.125q0 -1.53125 -0.625 -2.453125q-0.609375 -0.9375 -1.59375 -1.453125q-0.984375 -0.5312519 -2.21875 -0.7187519q-1.234375 -0.1875 -2.46875 -0.1875l-3.25 0l0 9.359377q0.265625 0.078125 0.75 0.125q0.484375 0.03125 1.046875 0.078125q0.5625 0.03125 1.15625 0.046875q0.59375 0.015625 1.046875 0.015625zm-2.046875 -12.234377q0.625 0 1.515625 -0.03125q0.90625 -0.046875 1.5 -0.125q0.890625 -0.296875 1.671875 -0.71875q0.796875 -0.4375 1.40625 -1.015625q0.625 -0.578125 0.96875 -1.34375q0.359375 -0.765625 0.359375 -1.65625q0 -1.234375 -0.46875 -2.03125q-0.46875 -0.8125 -1.25 -1.296875q-0.78125 -0.484375 -1.796875 -0.6875q-1.0 -0.203125 -2.046875 -0.203125q-1.234375 0 -2.265625 0.0625q-1.015625 0.046875 -1.546875 0.15625l0 8.890625l1.953125 0z" fill-rule="nonzero"/><path fill="#000000" fill-opacity="0.0" d="m27.303741 142.2126c0 -14.507263 11.760456 -26.267715 26.267715 -26.267715c6.966633 0 13.647926 2.767479 18.574081 7.693634c4.926155 4.9261475 7.693634 11.607452 7.693634 18.574081c0 14.507263 -11.760452 26.267715 -26.267715 26.267715c-14.507259 0 -26.267715 -11.760452 -26.267715 -26.267715z" fill-rule="evenodd"/><path stroke="#000000" stroke-width="3.0" stroke-linejoin="round" stroke-linecap="butt" d="m27.303741 142.2126c0 -14.507263 11.760456 -26.267715 26.267715 -26.267715c6.966633 0 13.647926 2.767479 18.574081 7.693634c4.926155 4.9261475 7.693634 11.607452 7.693634 18.574081c0 14.507263 -11.760452 26.267715 -26.267715 26.267715c-14.507259 0 -26.267715 -11.760452 -26.267715 -26.267715z" fill-rule="evenodd"/><path fill="#000000" d="m61.29307 154.47447q-1.109375 0.859375 -2.828125 1.1875q-1.71875 0.34375 -3.65625 0.34375q-2.359375 0 -4.421875 -0.796875q-2.046875 -0.8125 -3.578125 -2.453125q-1.53125 -1.640625 -2.421875 -4.203125q-0.890625 -2.5625 -0.890625 -6.0625q0 -3.65625 0.984375 -6.21875q0.984375 -2.5625 2.609375 -4.171875q1.625 -1.625 3.640625 -2.375q2.015625 -0.75 4.109375 -0.75q2.234375 0 3.65625 0.25q1.421875 0.234375 2.421875 0.640625l-0.734375 2.734375q-1.796875 -0.859375 -5.125 -0.859375q-1.53125 0 -3.03125 0.5625q-1.484375 0.546875 -2.65625 1.828125q-1.171875 1.265625 -1.890625 3.328125q-0.703125 2.046875 -0.703125 5.03125q0 2.6875 0.671875 4.703125q0.671875 2.015625 1.84375 3.359375q1.1875 1.34375 2.765625 2.015625q1.59375 0.671875 3.453125 0.671875q1.6875 0 2.9375 -0.328125q1.25 -0.34375 2.109375 -0.875l0.734375 2.4375z" fill-rule="nonzero"/><path fill="#000000" fill-opacity="0.0" d="m156.98485 142.2126c0 -14.507263 11.760452 -26.267715 26.267715 -26.267715c6.966629 0 13.647919 2.767479 18.574081 7.693634c4.9261475 4.9261475 7.693634 11.607452 7.693634 18.574081c0 14.507263 -11.760452 26.267715 -26.267715 26.267715c-14.507263 0 -26.267715 -11.760452 -26.267715 -26.267715z" fill-rule="evenodd"/><path stroke="#000000" stroke-width="3.0" stroke-linejoin="round" stroke-linecap="butt" d="m156.98485 142.2126c0 -14.507263 11.760452 -26.267715 26.267715 -26.267715c6.966629 0 13.647919 2.767479 18.574081 7.693634c4.9261475 4.9261475 7.693634 11.607452 7.693634 18.574081c0 14.507263 -11.760452 26.267715 -26.267715 26.267715c-14.507263 0 -26.267715 -11.760452 -26.267715 -26.267715z" fill-rule="evenodd"/><path fill="#000000" d="m173.82675 129.4276q0.703125 -0.109375 1.578125 -0.171875q0.890625 -0.0625 1.84375 -0.078125q0.953125 -0.015625 1.859375 -0.03125q0.921875 -0.015625 1.703125 -0.015625q3.125 0 5.421875 0.96875q2.296875 0.96875 3.78125 2.703125q1.5 1.734375 2.234375 4.171875q0.734375 2.421875 0.734375 5.328125q0 2.65625 -0.703125 5.09375q-0.6875 2.4375 -2.1875 4.328125q-1.484375 1.890625 -3.875 3.03125q-2.390625 1.140625 -5.78125 1.140625q-0.59375 0 -1.546875 -0.03125q-0.953125 -0.015625 -1.96875 -0.078125q-1.0 -0.046875 -1.859375 -0.09375q-0.859375 -0.03125 -1.234375 -0.109375l0 -26.15625zm7.0625 2.453125q-0.484375 0 -1.078125 0q-0.578125 0 -1.140625 0.046875q-0.546875 0.03125 -1.015625 0.078125q-0.46875 0.03125 -0.734375 0.0625l0 20.90625q0.1875 0.046875 0.703125 0.0625q0.53125 0.015625 1.09375 0.03125q0.5625 0.015625 1.078125 0.046875q0.53125 0.015625 0.71875 0.015625q2.609375 0 4.375 -0.890625q1.78125 -0.90625 2.84375 -2.40625q1.0625 -1.515625 1.5 -3.46875q0.453125 -1.96875 0.453125 -4.0625q0 -1.828125 -0.40625 -3.671875q-0.40625 -1.859375 -1.421875 -3.34375q-1.0 -1.5 -2.703125 -2.453125q-1.703125 -0.953125 -4.265625 -0.953125z" fill-rule="nonzero"/><path fill="#000000" fill-opacity="0.0" d="m72.14554 123.63852l92.53543 -74.86614" fill-rule="evenodd"/><path stroke="#000000" stroke-width="2.0" stroke-linejoin="round" stroke-linecap="butt" d="m72.14554 123.63852l92.53543 -74.86614" fill-rule="evenodd"/><path fill="#000000" fill-opacity="0.0" d="m79.83917 142.2126l77.133865 0" fill-rule="evenodd"/><path stroke="#000000" stroke-width="2.0" stroke-linejoin="round" stroke-linecap="butt" d="m79.83917 142.2126l77.133865 0" fill-rule="evenodd"/><path fill="#000000" fill-opacity="0.0" d="m183.25256 115.944885l0 -59.46457" fill-rule="evenodd"/><path stroke="#000000" stroke-width="2.0" stroke-linejoin="round" stroke-linecap="butt" d="m183.25256 115.944885l0 -59.46457" fill-rule="evenodd"/><path fill="#000000" fill-opacity="0.0" d="m281.1909 30.204725c0 -14.50726 11.760437 -26.267717 26.2677 -26.267717c6.9666443 0 13.647949 2.7674837 18.574097 7.693636c4.9261475 4.926153 7.693634 11.607449 7.693634 18.574081c0 14.507257 -11.760468 26.267717 -26.26773 26.267717c-14.507263 0 -26.2677 -11.76046 -26.2677 -26.267717z" fill-rule="evenodd"/><path stroke="#000000" stroke-width="3.0" stroke-linejoin="round" stroke-linecap="butt" d="m281.1909 30.204725c0 -14.50726 11.760437 -26.267717 26.2677 -26.267717c6.9666443 0 13.647949 2.7674837 18.574097 7.693636c4.9261475 4.926153 7.693634 11.607449 7.693634 18.574081c0 14.507257 -11.760468 26.267717 -26.26773 26.267717c-14.507263 0 -26.2677 -11.76046 -26.2677 -26.267717z" fill-rule="evenodd"/><path fill="#000000" d="m310.63766 36.31035l-9.640625 0l-2.609375 7.234375l-3.0625 0l9.890625 -26.546877l1.421875 0l9.921875 26.546877l-3.234375 0l-2.6875 -7.234375zm-8.625 -2.6875l7.6875 0l-2.90625 -7.953127l-0.9375 -3.96875l-0.046875 0l-0.921875 4.03125l-2.875 7.890627z" fill-rule="nonzero"/><path fill="#000000" fill-opacity="0.0" d="m333.72632 30.204725l24.97638 0" fill-rule="evenodd"/><path stroke="#000000" stroke-width="2.0" stroke-linejoin="round" stroke-linecap="butt" d="m333.72632 30.204725l24.97638 0" fill-rule="evenodd"/><path fill="#000000" fill-opacity="0.0" d="m410.87198 30.204725c0 -14.50726 11.760468 -26.267717 26.26773 -26.267717c6.966614 0 13.647919 2.7674837 18.574066 7.693636c4.9261475 4.926153 7.693634 11.607449 7.693634 18.574081c0 14.507257 -11.760437 26.267717 -26.2677 26.267717c-14.507263 0 -26.26773 -11.76046 -26.26773 -26.267717z" fill-rule="evenodd"/><path stroke="#000000" stroke-width="3.0" stroke-linejoin="round" stroke-linecap="butt" d="m410.87198 30.204725c0 -14.50726 11.760468 -26.267717 26.26773 -26.267717c6.966614 0 13.647919 2.7674837 18.574066 7.693636c4.9261475 4.926153 7.693634 11.607449 7.693634 18.574081c0 14.507257 -11.760437 26.267717 -26.2677 26.267717c-14.507263 0 -26.26773 -11.76046 -26.26773 -26.267717z" fill-rule="evenodd"/><path fill="#000000" d="m443.64993 23.388472q0 0.9375 -0.296875 1.90625q-0.296875 0.96875 -0.890625 1.8125q-0.59375 0.828125 -1.53125 1.46875q-0.9375 0.640625 -2.203125 0.96875l0 0.15625q1.125 0.1875 2.140625 0.640625q1.03125 0.4375 1.8125 1.21875q0.78125 0.7812519 1.265625 1.9062519q0.484375 1.125 0.484375 2.65625q0 2.015625 -0.84375 3.484375q-0.828125 1.46875 -2.203125 2.40625q-1.359375 0.9375 -3.109375 1.390625q-1.75 0.4375 -3.578125 0.4375q-0.640625 0 -1.5 0q-0.859375 0 -1.796875 -0.0625q-0.921875 -0.046875 -1.859375 -0.140625q-0.9375 -0.09375 -1.640625 -0.28125l0 -25.718752q1.375 -0.21875 3.203125 -0.359375q1.84375 -0.15625 4.0 -0.15625q1.453125 0 2.96875 0.25q1.515625 0.234375 2.734375 0.921875q1.234375 0.6875 2.03125 1.921875q0.8125 1.234375 0.8125 3.171875zm-8.65625 17.765627q1.1875 0 2.3125 -0.28125q1.125 -0.28125 1.984375 -0.890625q0.859375 -0.625 1.359375 -1.515625q0.5 -0.890625 0.5 -2.125q0 -1.53125 -0.625 -2.453125q-0.609375 -0.9375 -1.59375 -1.453125q-0.984375 -0.5312519 -2.21875 -0.7187519q-1.234375 -0.1875 -2.46875 -0.1875l-3.25 0l0 9.359377q0.265625 0.078125 0.75 0.125q0.484375 0.03125 1.046875 0.078125q0.5625 0.03125 1.15625 0.046875q0.59375 0.015625 1.046875 0.015625zm-2.046875 -12.234377q0.625 0 1.515625 -0.03125q0.90625 -0.046875 1.5 -0.125q0.890625 -0.296875 1.671875 -0.71875q0.796875 -0.4375 1.40625 -1.015625q0.625 -0.578125 0.96875 -1.34375q0.359375 -0.765625 0.359375 -1.65625q0 -1.234375 -0.46875 -2.03125q-0.46875 -0.8125 -1.25 -1.296875q-0.78125 -0.484375 -1.796875 -0.6875q-1.0 -0.203125 -2.046875 -0.203125q-1.234375 0 -2.265625 0.0625q-1.015625 0.046875 -1.546875 0.15625l0 8.890625l1.953125 0z" fill-rule="nonzero"/><path fill="#000000" fill-opacity="0.0" d="m281.1909 142.20473c0 -14.507263 11.760437 -26.267723 26.2677 -26.267723c6.9666443 0 13.647949 2.7674866 18.574097 7.6936417c4.9261475 4.9261475 7.693634 11.607452 7.693634 18.574081c0 14.507263 -11.760468 26.267715 -26.26773 26.267715c-14.507263 0 -26.2677 -11.760452 -26.2677 -26.267715z" fill-rule="evenodd"/><path stroke="#000000" stroke-width="3.0" stroke-linejoin="round" stroke-linecap="butt" d="m281.1909 142.20473c0 -14.507263 11.760437 -26.267723 26.2677 -26.267723c6.9666443 0 13.647949 2.7674866 18.574097 7.6936417c4.9261475 4.9261475 7.693634 11.607452 7.693634 18.574081c0 14.507263 -11.760468 26.267715 -26.26773 26.267715c-14.507263 0 -26.2677 -11.760452 -26.2677 -26.267715z" fill-rule="evenodd"/><path fill="#000000" d="m315.1802 154.4666q-1.109375 0.859375 -2.828125 1.1875q-1.71875 0.34375 -3.65625 0.34375q-2.359375 0 -4.421875 -0.796875q-2.046875 -0.8125 -3.578125 -2.453125q-1.53125 -1.640625 -2.421875 -4.203125q-0.890625 -2.5625 -0.890625 -6.0625q0 -3.65625 0.984375 -6.21875q0.984375 -2.5625 2.609375 -4.171875q1.625 -1.625 3.640625 -2.375q2.015625 -0.75 4.109375 -0.75q2.234375 0 3.65625 0.25q1.421875 0.234375 2.421875 0.640625l-0.734375 2.734375q-1.796875 -0.859375 -5.125 -0.859375q-1.53125 0 -3.03125 0.5625q-1.484375 0.546875 -2.65625 1.828125q-1.171875 1.265625 -1.890625 3.328125q-0.703125 2.046875 -0.703125 5.03125q0 2.6875 0.671875 4.703125q0.671875 2.015625 1.84375 3.359375q1.1875 1.34375 2.765625 2.015625q1.59375 0.671875 3.453125 0.671875q1.6875 0 2.9375 -0.328125q1.25 -0.34375 2.109375 -0.875l0.734375 2.4375z" fill-rule="nonzero"/><path fill="#000000" fill-opacity="0.0" d="m410.87198 142.20473c0 -14.507263 11.760468 -26.267723 26.26773 -26.267723c6.966614 0 13.647919 2.7674866 18.574066 7.6936417c4.9261475 4.9261475 7.693634 11.607452 7.693634 18.574081c0 14.507263 -11.760437 26.267715 -26.2677 26.267715c-14.507263 0 -26.26773 -11.760452 -26.26773 -26.267715z" fill-rule="evenodd"/><path stroke="#000000" stroke-width="3.0" stroke-linejoin="round" stroke-linecap="butt" d="m410.87198 142.20473c0 -14.507263 11.760468 -26.267723 26.26773 -26.267723c6.966614 0 13.647919 2.7674866 18.574066 7.6936417c4.9261475 4.9261475 7.693634 11.607452 7.693634 18.574081c0 14.507263 -11.760437 26.267715 -26.2677 26.267715c-14.507263 0 -26.26773 -11.760452 -26.26773 -26.267715z" fill-rule="evenodd"/><path fill="#000000" d="m427.7139 129.41972q0.703125 -0.109375 1.578125 -0.171875q0.890625 -0.0625 1.84375 -0.078125q0.953125 -0.015625 1.859375 -0.03125q0.921875 -0.015625 1.703125 -0.015625q3.125 0 5.421875 0.96875q2.296875 0.96875 3.78125 2.703125q1.5 1.734375 2.234375 4.171875q0.734375 2.421875 0.734375 5.328125q0 2.65625 -0.703125 5.09375q-0.6875 2.4375 -2.1875 4.328125q-1.484375 1.890625 -3.875 3.03125q-2.390625 1.140625 -5.78125 1.140625q-0.59375 0 -1.546875 -0.03125q-0.953125 -0.015625 -1.96875 -0.078125q-1.0 -0.046875 -1.859375 -0.09375q-0.859375 -0.03125 -1.234375 -0.109375l0 -26.15625zm7.0625 2.453125q-0.484375 0 -1.078125 0q-0.578125 0 -1.140625 0.046875q-0.546875 0.03125 -1.015625 0.078125q-0.46875 0.03125 -0.734375 0.0625l0 20.90625q0.1875 0.046875 0.703125 0.0625q0.53125 0.015625 1.09375 0.03125q0.5625 0.015625 1.078125 0.046875q0.53125 0.015625 0.71875 0.015625q2.609375 0 4.375 -0.890625q1.78125 -0.90625 2.84375 -2.40625q1.0625 -1.515625 1.5 -3.46875q0.453125 -1.96875 0.453125 -4.0625q0 -1.828125 -0.40625 -3.671875q-0.40625 -1.859375 -1.421875 -3.34375q-1.0 -1.5 -2.703125 -2.453125q-1.703125 -0.953125 -4.265625 -0.953125z" fill-rule="nonzero"/><path fill="#000000" fill-opacity="0.0" d="m378.4804 80.02365l40.094482 -31.244095" fill-rule="evenodd"/><path stroke="#000000" stroke-width="2.0" stroke-linejoin="round" stroke-linecap="butt" d="m378.4804 80.02365l40.094482 -31.244095" fill-rule="evenodd"/><path fill="#000000" fill-opacity="0.0" d="m379.0709 142.20473l31.811035 0" fill-rule="evenodd"/><path stroke="#000000" stroke-width="2.0" stroke-linejoin="round" stroke-linecap="butt" d="m379.0709 142.20473l22.811035 0" fill-rule="evenodd"/><path fill="#000000" stroke="#000000" stroke-width="2.0" stroke-linecap="butt" d="m401.88193 144.41628l6.0762024 -2.2115479l-6.0762024 -2.211563z" fill-rule="evenodd"/><path fill="#000000" fill-opacity="0.0" d="m361.08673 87.22835c0 -5.62722 4.5617676 -10.18898 10.188995 -10.18898c2.7022705 0 5.2938843 1.0734787 7.2046814 2.9842834c1.9107971 1.9108047 2.9842834 4.502411 2.9842834 7.2046967c0 5.6272125 -4.5617676 10.188972 -10.188965 10.188972c-5.627228 0 -10.188995 -4.56176 -10.188995 -10.188972z" fill-rule="evenodd"/><path fill="#000000" d="m369.6804 94.37772q0.828125 0 1.515625 -0.234375q0.703125 -0.25 1.203125 -0.71875q0.5 -0.46875 0.78125 -1.109375q0.296875 -0.65625 0.296875 -1.421875q0 -1.671875 -1.0 -2.484375q-0.984375 -0.828125 -2.75 -0.828125l-1.765625 0l0 -0.6875l3.453125 -5.328125l1.109375 -1.0625l-1.5625 0.234375l-4.75 0l0 -1.765625l8.5625 0l0 0.6875l-3.8125 5.734375l-0.84375 0.703125l0 0.046875l0.8125 -0.171875q0.96875 0.03125 1.78125 0.359375q0.8125 0.3125 1.40625 0.9375q0.609375 0.609375 0.9375 1.46875q0.34375 0.84375 0.34375 1.921875q0 1.296875 -0.453125 2.3125q-0.453125 1.0 -1.234375 1.6875q-0.78125 0.671875 -1.84375 1.03125q-1.046875 0.359375 -2.234375 0.359375q-1.078125 0 -1.9375 -0.171875q-0.859375 -0.15625 -1.515625 -0.421875l0.5 -1.703125q0.5625 0.265625 1.3125 0.453125q0.765625 0.171875 1.6875 0.171875z" fill-rule="nonzero"/><path fill="#000000" fill-opacity="0.0" d="m358.69296 30.204725c0 -7.514553 3.2432861 -13.6063 7.2440796 -13.6063c1.9212646 0 3.7638245 1.4335175 5.122345 3.9851933c1.3585205 2.5516758 2.1217346 6.012491 2.1217346 9.621107c0 7.514551 -3.2432861 13.606298 -7.2440796 13.606298c-4.0007935 0 -7.2440796 -6.0917473 -7.2440796 -13.606298z" fill-rule="evenodd"/><path fill="#000000" d="m362.4397 34.7291q0 -1.5 0.796875 -2.609375q0.796875 -1.125 2.46875 -2.03125q-0.59375 -0.375 -1.109375 -0.765625q-0.515625 -0.390625 -0.921875 -0.890625q-0.390625 -0.515625 -0.625 -1.140625q-0.21875 -0.625 -0.21875 -1.4375q0 -0.9375 0.3125 -1.703125q0.328125 -0.765625 0.9375 -1.3125q0.625 -0.5625 1.46875 -0.875q0.859375 -0.3125 1.9375 -0.3125q1.015625 0 1.828125 0.296875q0.8125 0.28125 1.375 0.796875q0.5625 0.5 0.875 1.203125q0.3125 0.6875 0.3125 1.53125q0 1.359375 -0.625 2.40625q-0.625 1.046875 -2.0625 2.046875q0.625 0.359375 1.1875 0.796875q0.5625 0.4375 0.984375 0.96875q0.421875 0.515625 0.65625 1.1875q0.25 0.65625 0.25 1.484375q0 1.03125 -0.34375 1.890625q-0.328125 0.859375 -0.984375 1.46875q-0.640625 0.609375 -1.578125 0.953125q-0.9375 0.34375 -2.140625 0.34375q-1.15625 0 -2.046875 -0.328125q-0.875 -0.34375 -1.5 -0.90625q-0.609375 -0.578125 -0.921875 -1.359375q-0.3125 -0.78125 -0.3125 -1.703125zm7.953125 -0.234375q0 -0.71875 -0.296875 -1.25q-0.28125 -0.546875 -0.75 -0.984375q-0.46875 -0.453125 -1.078125 -0.8125q-0.59375 -0.359375 -1.234375 -0.6875q-1.46875 0.8125 -2.09375 1.828125q-0.625 1.0 -0.625 1.90625q0 0.578125 0.1875 1.109375q0.203125 0.53125 0.578125 0.921875q0.390625 0.375 0.953125 0.609375q0.5625 0.21875 1.3125 0.21875q0.59375 0 1.140625 -0.171875q0.5625 -0.1875 0.984375 -0.53125q0.421875 -0.359375 0.671875 -0.890625q0.25 -0.546875 0.25 -1.265625zm-5.6875 -8.6875q0 0.671875 0.265625 1.1875q0.265625 0.515625 0.703125 0.921875q0.4375 0.40625 1.015625 0.765625q0.578125 0.34375 1.203125 0.65625q1.078125 -0.84375 1.59375 -1.65625q0.515625 -0.8125 0.515625 -1.796875q0 -1.234375 -0.75 -1.890625q-0.75 -0.65625 -1.8125 -0.65625q-0.65625 0 -1.15625 0.21875q-0.5 0.21875 -0.859375 0.5625q-0.359375 0.328125 -0.546875 0.765625q-0.171875 0.4375 -0.171875 0.921875z" fill-rule="nonzero"/><path fill="#000000" fill-opacity="0.0" d="m373.18112 30.204725l37.700806 0" fill-rule="evenodd"/><path stroke="#000000" stroke-width="2.0" stroke-linejoin="round" stroke-linecap="butt" d="m373.18115 30.204725l28.700775 0" fill-rule="evenodd"/><path fill="#000000" stroke="#000000" stroke-width="2.0" stroke-linecap="butt" d="m401.88193 32.41628l6.0762024 -2.2115536l-6.0762024 -2.2115555z" fill-rule="evenodd"/><path fill="#000000" fill-opacity="0.0" d="m472.4305 111.02362c-8.362183 0 -16.724396 6.299217 -16.724396 12.598427" fill-rule="evenodd"/><path stroke="#000000" stroke-width="2.0" stroke-linejoin="round" stroke-linecap="butt" d="m472.4305 111.02362c-8.362183 0 -16.724396 6.299217 -16.724396 12.598427" fill-rule="evenodd"/><path fill="#000000" fill-opacity="0.0" d="m364.071 94.433044l-38.04724 29.196846" fill-rule="evenodd"/><path stroke="#000000" stroke-width="2.0" stroke-linejoin="round" stroke-linecap="butt" d="m364.07104 94.43304l-30.907257 23.71775" fill-rule="evenodd"/><path fill="#000000" stroke="#000000" stroke-width="2.0" stroke-linecap="butt" d="m331.81738 116.396286l-3.47406 5.453621l6.166809 -1.9446335z" fill-rule="evenodd"/><path fill="#000000" fill-opacity="0.0" d="m472.4305 111.02362c0 -7.5145493 5.591156 -13.6063 12.48819 -13.6063c3.3120728 0 6.488495 1.4335175 8.830475 3.985199c2.3420105 2.551674 3.6577148 6.0124893 3.6577148 9.621101c0 7.5145493 -5.591156 13.6063 -12.48819 13.6063c-6.8970337 0 -12.48819 -6.091751 -12.48819 -13.6063z" fill-rule="evenodd"/><path fill="#000000" d="m486.0035 106.57925q0 1.265625 -0.46875 2.609375q-0.46875 1.328125 -1.234375 2.671875q-0.75 1.34375 -1.6875 2.625q-0.921875 1.28125 -1.859375 2.4375l-1.1875 1.03125l0 0.09375l1.546875 -0.265625l5.234375 0l0 1.78125l-9.5625 0l0 -0.703125q0.53125 -0.546875 1.265625 -1.359375q0.75 -0.8125 1.546875 -1.8125q0.8125 -1.0 1.59375 -2.109375q0.78125 -1.125 1.40625 -2.265625q0.640625 -1.15625 1.03125 -2.28125q0.390625 -1.125 0.390625 -2.140625q0 -1.171875 -0.671875 -1.953125q-0.671875 -0.78125 -2.046875 -0.78125q-0.90625 0 -1.78125 0.375q-0.859375 0.375 -1.484375 0.84375l-0.796875 -1.359375q0.84375 -0.71875 2.0 -1.125q1.15625 -0.421875 2.46875 -0.421875q1.03125 0 1.828125 0.3125q0.796875 0.296875 1.34375 0.84375q0.546875 0.546875 0.828125 1.3125q0.296875 0.75 0.296875 1.640625z" fill-rule="nonzero"/><path fill="#000000" fill-opacity="0.0" d="m484.9187 124.62992c0 8.787407 -10.75589 17.574806 -21.51181 17.574806" fill-rule="evenodd"/><path stroke="#000000" stroke-width="2.0" stroke-linejoin="round" stroke-linecap="butt" d="m484.91873 124.62992c0 4.3936996 -2.6889954 8.787407 -6.7224426 12.08268c-1.0083923 0.823822 -2.100769 1.5789795 -3.256195 2.2483368c-0.5777283 0.33467102 -1.1711731 0.64790344 -1.777771 0.93751526c-0.3033142 0.14482117 -0.6098633 0.28373718 -0.9194031 0.4164734l-0.03363037 0.014022827" fill-rule="evenodd"/><path fill="#000000" stroke="#000000" stroke-width="2.0" stroke-linecap="butt" d="m471.74832 138.16597l-5.4818115 3.4293823l6.4036865 0.8965912z" fill-rule="evenodd"/><path fill="#000000" fill-opacity="0.0" d="m362.126 142.20473c0 -7.514557 3.7932434 -13.606308 8.472443 -13.606308c2.2470398 0 4.4020386 1.4335175 5.990906 3.985199c1.5888977 2.5516815 2.4815369 6.012497 2.4815369 9.621109c0 7.5145416 -3.7932434 13.606293 -8.472443 13.606293c-4.679199 0 -8.472443 -6.091751 -8.472443 -13.606293z" fill-rule="evenodd"/><path fill="#000000" d="m376.42004 145.68222q0 1.109375 -0.34375 2.078125q-0.328125 0.96875 -0.984375 1.703125q-0.640625 0.734375 -1.609375 1.15625q-0.953125 0.40625 -2.171875 0.40625q-1.203125 0 -2.171875 -0.375q-0.953125 -0.390625 -1.65625 -1.140625q-0.6875 -0.75 -1.0625 -1.859375q-0.375 -1.109375 -0.375 -2.546875q0 -2.375 0.609375 -4.375q0.609375 -2.015625 1.6875 -3.5q1.09375 -1.484375 2.5625 -2.40625q1.484375 -0.921875 3.203125 -1.171875l0.40625 1.546875q-1.34375 0.234375 -2.453125 0.90625q-1.09375 0.671875 -1.921875 1.65625q-0.828125 0.984375 -1.359375 2.21875q-0.53125 1.21875 -0.71875 2.515625q0.390625 -0.65625 1.296875 -1.1875q0.90625 -0.546875 2.234375 -0.546875q2.25 0 3.53125 1.296875q1.296875 1.296875 1.296875 3.625zm-2.0 0.1875q0 -1.703125 -0.796875 -2.5625q-0.78125 -0.859375 -2.4375 -0.859375q-1.171875 0 -2.03125 0.578125q-0.84375 0.5625 -1.1875 1.28125q-0.046875 0.34375 -0.046875 0.5625q0 0.21875 0 0.46875q0 0.75 0.203125 1.46875q0.203125 0.71875 0.625 1.28125q0.4375 0.5625 1.078125 0.921875q0.640625 0.34375 1.5 0.34375q0.703125 0 1.265625 -0.265625q0.5625 -0.265625 0.96875 -0.71875q0.40625 -0.453125 0.625 -1.09375q0.234375 -0.65625 0.234375 -1.40625z" fill-rule="nonzero"/><path fill="#000000" fill-opacity="0.0" d="m333.72632 142.20473l28.409454 0" fill-rule="evenodd"/><path stroke="#000000" stroke-width="2.0" stroke-linejoin="round" stroke-linecap="butt" d="m333.72632 142.20473l28.409454 0" fill-rule="evenodd"/><path fill="#000000" fill-opacity="0.0" d="m279.7874 87.44889c0 -6.2708282 6.091736 -11.354332 13.606293 -11.354332c7.514557 0 13.606293 5.0835037 13.606293 11.354332c0 6.2708206 -6.091736 11.354324 -13.606293 11.354324c-7.514557 0 -13.606293 -5.0835037 -13.606293 -11.354324z" fill-rule="evenodd"/><path fill="#000000" d="m292.71265 94.59826q0.828125 0 1.515625 -0.234375q0.703125 -0.25 1.203125 -0.71875q0.5 -0.46875 0.78125 -1.109375q0.296875 -0.65625 0.296875 -1.421875q0 -1.671875 -1.0 -2.484375q-0.984375 -0.828125 -2.75 -0.828125l-1.765625 0l0 -0.6875l3.453125 -5.328125l1.109375 -1.0625l-1.5625 0.234375l-4.75 0l0 -1.765625l8.5625 0l0 0.6875l-3.8125 5.734375l-0.84375 0.703125l0 0.046875l0.8125 -0.171875q0.96875 0.03125 1.78125 0.359375q0.8125 0.3125 1.40625 0.9375q0.609375 0.609375 0.9375 1.46875q0.34375 0.84375 0.34375 1.921875q0 1.296875 -0.453125 2.3125q-0.453125 1.0 -1.234375 1.6875q-0.78125 0.671875 -1.84375 1.03125q-1.046875 0.359375 -2.234375 0.359375q-1.078125 0 -1.9375 -0.171875q-0.859375 -0.15625 -1.515625 -0.421875l0.5 -1.703125q0.5625 0.265625 1.3125 0.453125q0.765625 0.171875 1.6875 0.171875z" fill-rule="nonzero"/><path fill="#000000" fill-opacity="0.0" d="m305.43045 89.779526c0 -5.6272125 6.091736 -10.188972 13.606293 -10.188972c7.514557 0 13.606293 4.56176 13.606293 10.188972c0 5.62722 -6.091736 10.18898 -13.606293 10.18898c-7.514557 0 -13.606293 -4.56176 -13.606293 -10.18898z" fill-rule="evenodd"/><path fill="#000000" d="m315.38693 98.31953l6.015625 -14.0625l1.0625 -1.171875l-1.421875 0.203125l-6.828125 0l0 -1.765625l10.03125 0l0 0.640625l-6.921875 16.15625l-1.9375 0z" fill-rule="nonzero"/><path fill="#000000" fill-opacity="0.0" d="m293.3937 53.385895l0 22.708664" fill-rule="evenodd"/><path stroke="#000000" stroke-width="2.0" stroke-linejoin="round" stroke-linecap="butt" d="m293.3937 53.385895l0 22.708664" fill-rule="evenodd"/><path fill="#000000" fill-opacity="0.0" d="m293.3937 98.803215l-0.56692505 20.755905" fill-rule="evenodd"/><path stroke="#000000" stroke-width="2.0" stroke-linejoin="round" stroke-linecap="butt" d="m293.3937 98.80322l-0.3211975 11.759254" fill-rule="evenodd"/><path fill="#000000" stroke="#000000" stroke-width="2.0" stroke-linecap="butt" d="m290.8618 110.5021l2.0448303 6.1343155l2.3766174 -6.01355z" fill-rule="evenodd"/><path fill="#000000" fill-opacity="0.0" d="m319.03674 79.59055l-0.62991333 -26.48819" fill-rule="evenodd"/><path stroke="#000000" stroke-width="2.0" stroke-linejoin="round" stroke-linecap="butt" d="m319.03674 79.59055l-0.4159546 -17.490734" fill-rule="evenodd"/><path fill="#000000" stroke="#000000" stroke-width="2.0" stroke-linecap="butt" d="m320.83173 62.04724l-2.3553772 -6.0219l-2.0664978 6.127056z" fill-rule="evenodd"/><path fill="#000000" fill-opacity="0.0" d="m319.0363 99.968506l0.1574707 20.031494" fill-rule="evenodd"/><path stroke="#000000" stroke-width="2.0" stroke-linejoin="round" stroke-linecap="butt" d="m319.0363 99.968506l0.1574707 20.031494" fill-rule="evenodd"/></g></svg>