<svg version="1.1" viewBox="0.0 0.0 574.9133858267717 167.501312335958" fill="none" stroke="none" stroke-linecap="square" stroke-miterlimit="10" xmlns:xlink="http://www.w3.org/1999/xlink" xmlns="http://www.w3.org/2000/svg"><clipPath id="p.0"><path d="m0 0l574.9134 0l0 167.50131l-574.9134 0l0 -167.50131z" clip-rule="nonzero"/></clipPath><g clip-path="url(#p.0)"><path fill="#000000" fill-opacity="0.0" d="m0 0l574.9134 0l0 167.50131l-574.9134 0z" fill-rule="evenodd"/><path fill="#000000" fill-opacity="0.0" d="m190.6378 3.2624671l0 161.70079" fill-rule="evenodd"/><path stroke="#000000" stroke-width="1.0" stroke-linejoin="round" stroke-linecap="butt" d="m190.6378 3.2624671l0 161.70079" fill-rule="evenodd"/><path fill="#000000" fill-opacity="0.0" d="m410.8792 3.2624671l0 161.70079" fill-rule="evenodd"/><path stroke="#000000" stroke-width="1.0" stroke-linejoin="round" stroke-linecap="butt" d="m410.8792 3.2624671l0 161.70079" fill-rule="evenodd"/><path fill="#000000" fill-opacity="0.0" d="m202.45673 22.222765l192.91339 0l0 134.4567l-192.91339 0z" fill-rule="evenodd"/><path fill="#000000" d="m220.3786 47.56214l-5.515625 0l-1.484375 4.140625l-1.75 0l5.65625 -15.171875l0.8125 0l5.671875 15.171875l-1.859375 0l-1.53125 -4.140625zm-4.9375 -1.53125l4.390625 0l-1.65625 -4.546875l-0.53125 -2.265625l-0.03125 0l-0.53125 2.3125l-1.640625 4.5z" fill-rule="nonzero"/><path fill="#000000" d="m244.9412 42.577766q1.390625 1.515625 2.390625 2.296875q1.015625 0.78125 1.921875 1.171875l0 0.46875q-1.03125 0.5 -2.0 1.28125q-0.96875 0.765625 -2.3125 2.265625l-0.8125 0q0.984375 -2.09375 2.0625 -3.21875l-16.609375 0l0 -1.046875l16.609375 0q-0.796875 -1.015625 -1.109375 -1.5q-0.3125 -0.484375 -0.921875 -1.71875l0.78125 0z" fill-rule="nonzero"/><path fill="#000000" d="m260.62018 56.390266q-0.984375 -1.015625 -1.671875 -2.25q-0.671875 -1.21875 -1.09375 -2.5q-0.421875 -1.296875 -0.609375 -2.609375q-0.1875 -1.3125 -0.1875 -2.515625q0 -1.171875 0.1875 -2.46875q0.1875 -1.296875 0.609375 -2.609375q0.4375 -1.3125 1.125 -2.5625q0.703125 -1.265625 1.703125 -2.359375l1.015625 0.75q-0.84375 1.09375 -1.40625 2.25q-0.5625 1.15625 -0.90625 2.359375q-0.34375 1.1875 -0.484375 2.375q-0.140625 1.1875 -0.140625 2.265625q0 1.03125 0.15625 2.234375q0.171875 1.203125 0.515625 2.40625q0.359375 1.203125 0.921875 2.359375q0.5625 1.15625 1.34375 2.09375l-1.078125 0.78125zm2.5812683 -8.25q0 -1.34375 0.703125 -2.328125q0.703125 -1.0 2.1875 -1.8125q-0.53125 -0.3125 -0.984375 -0.65625q-0.453125 -0.359375 -0.8125 -0.8125q-0.34375 -0.453125 -0.546875 -1.0q-0.203125 -0.5625 -0.203125 -1.28125q0 -0.828125 0.28125 -1.515625q0.296875 -0.6875 0.828125 -1.171875q0.546875 -0.484375 1.296875 -0.765625q0.765625 -0.28125 1.71875 -0.28125q0.90625 0 1.625 0.265625q0.734375 0.25 1.234375 0.703125q0.5 0.4375 0.765625 1.0625q0.28125 0.609375 0.28125 1.359375q0 1.21875 -0.5625 2.15625q-0.546875 0.921875 -1.828125 1.8125q0.5625 0.328125 1.0625 0.71875q0.5 0.375 0.875 0.84375q0.375 0.46875 0.578125 1.0625q0.21875 0.578125 0.21875 1.328125q0 0.90625 -0.296875 1.671875q-0.296875 0.75 -0.875 1.296875q-0.578125 0.546875 -1.40625 0.859375q-0.828125 0.296875 -1.90625 0.296875q-1.015625 0 -1.8125 -0.296875q-0.78125 -0.296875 -1.328125 -0.796875q-0.546875 -0.515625 -0.828125 -1.203125q-0.265625 -0.703125 -0.265625 -1.515625zm7.0625 -0.21875q0 -0.640625 -0.265625 -1.109375q-0.25 -0.484375 -0.671875 -0.875q-0.40625 -0.390625 -0.953125 -0.703125q-0.53125 -0.328125 -1.09375 -0.640625q-1.3125 0.734375 -1.875 1.640625q-0.546875 0.890625 -0.546875 1.6875q0 0.515625 0.171875 0.984375q0.171875 0.46875 0.515625 0.8125q0.34375 0.34375 0.84375 0.546875q0.5 0.203125 1.15625 0.203125q0.53125 0 1.015625 -0.15625q0.5 -0.171875 0.875 -0.46875q0.375 -0.3125 0.59375 -0.796875q0.234375 -0.484375 0.234375 -1.125zm-5.0625 -7.71875q0 0.59375 0.234375 1.0625q0.234375 0.453125 0.625 0.828125q0.40625 0.359375 0.90625 0.671875q0.515625 0.296875 1.078125 0.578125q0.953125 -0.75 1.40625 -1.46875q0.46875 -0.734375 0.46875 -1.609375q0 -1.078125 -0.671875 -1.65625q-0.671875 -0.59375 -1.609375 -0.59375q-0.578125 0 -1.03125 0.1875q-0.4375 0.1875 -0.765625 0.484375q-0.3125 0.296875 -0.484375 0.703125q-0.15625 0.390625 -0.15625 0.8125zm9.217621 10.578125q0 -0.5 0.34375 -0.8125q0.34375 -0.328125 0.875 -0.328125q0.65625 0 1.0625 0.46875q0.421875 0.46875 0.421875 1.359375q0 0.765625 -0.21875 1.34375q-0.203125 0.578125 -0.546875 0.984375q-0.34375 0.421875 -0.75 0.6875q-0.40625 0.265625 -0.8125 0.390625l-0.53125 -0.828125q0.765625 -0.296875 1.140625 -0.921875q0.375 -0.625 0.375 -1.265625q-0.1875 0.0625 -0.359375 0.0625q-0.421875 0 -0.71875 -0.28125q-0.28125 -0.296875 -0.28125 -0.859375zm12.673859 -3.21875l-5.515625 0l-1.484375 4.140625l-1.75 0l5.65625 -15.171875l0.8125 0l5.671875 15.171875l-1.859375 0l-1.53125 -4.140625zm-4.9375 -1.53125l4.390625 0l-1.65625 -4.546875l-0.53125 -2.265625l-0.03125 0l-0.53125 2.3125l-1.640625 4.5zm10.115509 4.75q0 -0.5 0.34375 -0.8125q0.34375 -0.328125 0.875 -0.328125q0.65625 0 1.0625 0.46875q0.421875 0.46875 0.421875 1.359375q0 0.765625 -0.21875 1.34375q-0.203125 0.578125 -0.546875 0.984375q-0.34375 0.421875 -0.75 0.6875q-0.40625 0.265625 -0.8125 0.390625l-0.53125 -0.828125q0.765625 -0.296875 1.140625 -0.921875q0.375 -0.625 0.375 -1.265625q-0.1875 0.0625 -0.359375 0.0625q-0.421875 0 -0.71875 -0.28125q-0.28125 -0.296875 -0.28125 -0.859375zm14.564453 -10.59375q0 0.53125 -0.171875 1.09375q-0.171875 0.546875 -0.515625 1.03125q-0.328125 0.46875 -0.875 0.84375q-0.53125 0.359375 -1.25 0.546875l0 0.09375q0.640625 0.09375 1.21875 0.359375q0.59375 0.25 1.03125 0.703125q0.453125 0.4375 0.734375 1.078125q0.28125 0.640625 0.28125 1.515625q0 1.15625 -0.484375 2.0q-0.484375 0.84375 -1.265625 1.375q-0.765625 0.53125 -1.78125 0.796875q-1.0 0.25 -2.046875 0.25q-0.359375 0 -0.859375 0q-0.484375 0 -1.015625 -0.03125q-0.53125 -0.03125 -1.0625 -0.09375q-0.53125 -0.046875 -0.9375 -0.15625l0 -14.6875q0.796875 -0.140625 1.828125 -0.21875q1.046875 -0.078125 2.28125 -0.078125q0.84375 0 1.703125 0.140625q0.859375 0.125 1.5625 0.53125q0.703125 0.390625 1.15625 1.09375q0.46875 0.703125 0.46875 1.8125zm-4.953125 10.15625q0.6875 0 1.328125 -0.15625q0.640625 -0.171875 1.125 -0.515625q0.5 -0.359375 0.78125 -0.859375q0.296875 -0.515625 0.296875 -1.21875q0 -0.875 -0.359375 -1.40625q-0.34375 -0.546875 -0.921875 -0.84375q-0.5625 -0.296875 -1.265625 -0.40625q-0.703125 -0.109375 -1.40625 -0.109375l-1.859375 0l0 5.359375q0.15625 0.046875 0.421875 0.078125q0.28125 0.015625 0.59375 0.03125q0.328125 0.015625 0.671875 0.03125q0.34375 0.015625 0.59375 0.015625zm-1.171875 -7.0q0.375 0 0.875 -0.015625q0.515625 -0.03125 0.859375 -0.078125q0.515625 -0.15625 0.953125 -0.40625q0.453125 -0.25 0.796875 -0.578125q0.359375 -0.328125 0.5625 -0.765625q0.203125 -0.4375 0.203125 -0.953125q0 -0.703125 -0.265625 -1.15625q-0.265625 -0.46875 -0.71875 -0.734375q-0.453125 -0.28125 -1.03125 -0.390625q-0.5625 -0.125 -1.15625 -0.125q-0.703125 0 -1.296875 0.03125q-0.59375 0.03125 -0.890625 0.09375l0 5.078125l1.109375 0zm8.893188 -6.828125q0.984375 1.03125 1.65625 2.265625q0.6875 1.21875 1.109375 2.515625q0.421875 1.28125 0.609375 2.59375q0.1875 1.3125 0.1875 2.5q0 1.171875 -0.1875 2.484375q-0.1875 1.296875 -0.625 2.609375q-0.421875 1.3125 -1.125 2.5625q-0.6875 1.265625 -1.6875 2.34375l-1.015625 -0.734375q0.84375 -1.09375 1.421875 -2.265625q0.578125 -1.171875 0.90625 -2.359375q0.328125 -1.203125 0.46875 -2.375q0.140625 -1.171875 0.140625 -2.265625q0 -1.015625 -0.171875 -2.203125q-0.171875 -1.203125 -0.53125 -2.421875q-0.34375 -1.21875 -0.90625 -2.359375q-0.546875 -1.15625 -1.328125 -2.09375l1.078125 -0.796875zm15.385254 19.875q-0.984375 -1.015625 -1.671875 -2.25q-0.671875 -1.21875 -1.09375 -2.5q-0.421875 -1.296875 -0.609375 -2.609375q-0.1875 -1.3125 -0.1875 -2.515625q0 -1.171875 0.1875 -2.46875q0.1875 -1.296875 0.609375 -2.609375q0.4375 -1.3125 1.125 -2.5625q0.703125 -1.265625 1.703125 -2.359375l1.015625 0.75q-0.84375 1.09375 -1.40625 2.25q-0.5625 1.15625 -0.90625 2.359375q-0.34375 1.1875 -0.484375 2.375q-0.140625 1.1875 -0.140625 2.265625q0 1.03125 0.15625 2.234375q0.171875 1.203125 0.515625 2.40625q0.359375 1.203125 0.921875 2.359375q0.5625 1.15625 1.34375 2.09375l-1.078125 0.78125zm6.1125183 -5.921875q0.734375 0 1.34375 -0.203125q0.625 -0.21875 1.0625 -0.640625q0.453125 -0.421875 0.703125 -0.984375q0.265625 -0.578125 0.265625 -1.265625q0 -1.5 -0.890625 -2.21875q-0.875 -0.71875 -2.4375 -0.71875l-1.578125 0l0 -0.625l3.078125 -4.734375l0.96875 -0.9375l-1.375 0.21875l-4.234375 0l0 -1.59375l7.625 0l0 0.625l-3.390625 5.09375l-0.75 0.625l0 0.046875l0.71875 -0.15625q0.859375 0.015625 1.578125 0.3125q0.734375 0.28125 1.265625 0.828125q0.53125 0.546875 0.828125 1.3125q0.296875 0.75 0.296875 1.703125q0 1.15625 -0.40625 2.0625q-0.40625 0.890625 -1.09375 1.5q-0.6875 0.59375 -1.625 0.921875q-0.9375 0.3125 -1.984375 0.3125q-0.96875 0 -1.734375 -0.15625q-0.765625 -0.140625 -1.34375 -0.375l0.453125 -1.515625q0.484375 0.234375 1.15625 0.40625q0.671875 0.15625 1.5 0.15625zm7.686371 0.3125q0 -0.5 0.34375 -0.8125q0.34375 -0.328125 0.875 -0.328125q0.65625 0 1.0625 0.46875q0.421875 0.46875 0.421875 1.359375q0 0.765625 -0.21875 1.34375q-0.203125 0.578125 -0.546875 0.984375q-0.34375 0.421875 -0.75 0.6875q-0.40625 0.265625 -0.8125 0.390625l-0.53125 -0.828125q0.765625 -0.296875 1.140625 -0.921875q0.375 -0.625 0.375 -1.265625q-0.1875 0.0625 -0.359375 0.0625q-0.421875 0 -0.71875 -0.28125q-0.28125 -0.296875 -0.28125 -0.859375zm12.673859 -3.21875l-5.515625 0l-1.484375 4.140625l-1.75 0l5.65625 -15.171875l0.8125 0l5.671875 15.171875l-1.859375 0l-1.53125 -4.140625zm-4.9375 -1.53125l4.390625 0l-1.65625 -4.546875l-0.53125 -2.265625l-0.03125 0l-0.53125 2.3125l-1.640625 4.5zm10.115509 4.75q0 -0.5 0.34375 -0.8125q0.34375 -0.328125 0.875 -0.328125q0.65625 0 1.0625 0.46875q0.421875 0.46875 0.421875 1.359375q0 0.765625 -0.21875 1.34375q-0.203125 0.578125 -0.546875 0.984375q-0.34375 0.421875 -0.75 0.6875q-0.40625 0.265625 -0.8125 0.390625l-0.53125 -0.828125q0.765625 -0.296875 1.140625 -0.921875q0.375 -0.625 0.375 -1.265625q-0.1875 0.0625 -0.359375 0.0625q-0.421875 0 -0.71875 -0.28125q-0.28125 -0.296875 -0.28125 -0.859375zm15.126953 0.296875q-0.640625 0.5 -1.625 0.6875q-0.984375 0.1875 -2.09375 0.1875q-1.34375 0 -2.515625 -0.453125q-1.171875 -0.453125 -2.046875 -1.390625q-0.875 -0.9375 -1.390625 -2.390625q-0.515625 -1.46875 -0.515625 -3.484375q0 -2.09375 0.5625 -3.546875q0.578125 -1.46875 1.5 -2.390625q0.9375 -0.921875 2.078125 -1.34375q1.15625 -0.4375 2.34375 -0.4375q1.28125 0 2.09375 0.140625q0.8125 0.140625 1.390625 0.375l-0.421875 1.5625q-1.03125 -0.5 -2.921875 -0.5q-0.875 0 -1.734375 0.328125q-0.859375 0.3125 -1.53125 1.046875q-0.671875 0.71875 -1.078125 1.890625q-0.390625 1.171875 -0.390625 2.875q0 1.546875 0.375 2.703125q0.390625 1.140625 1.0625 1.90625q0.671875 0.765625 1.578125 1.15625q0.90625 0.375 1.96875 0.375q0.953125 0 1.671875 -0.1875q0.71875 -0.1875 1.203125 -0.484375l0.4375 1.375zm1.9284058 -14.5625q0.984375 1.03125 1.65625 2.265625q0.6875 1.21875 1.109375 2.515625q0.421875 1.28125 0.609375 2.59375q0.1875 1.3125 0.1875 2.5q0 1.171875 -0.1875 2.484375q-0.1875 1.296875 -0.625 2.609375q-0.421875 1.3125 -1.125 2.5625q-0.6875 1.265625 -1.6875 2.34375l-1.015625 -0.734375q0.84375 -1.09375 1.421875 -2.265625q0.578125 -1.171875 0.90625 -2.359375q0.328125 -1.203125 0.46875 -2.375q0.140625 -1.171875 0.140625 -2.265625q0 -1.015625 -0.171875 -2.203125q-0.171875 -1.203125 -0.53125 -2.421875q-0.34375 -1.21875 -0.90625 -2.359375q-0.546875 -1.15625 -1.328125 -2.09375l1.078125 -0.796875z" fill-rule="nonzero"/><path fill="#000000" d="m222.26923 69.62714q0 0.53125 -0.171875 1.09375q-0.171875 0.546875 -0.515625 1.03125q-0.328125 0.46875 -0.875 0.84375q-0.53125 0.359375 -1.25 0.546875l0 0.09375q0.640625 0.09375 1.21875 0.359375q0.59375 0.25 1.03125 0.703125q0.453125 0.4375 0.734375 1.078125q0.28125 0.640625 0.28125 1.515625q0 1.15625 -0.484375 2.0q-0.484375 0.84375 -1.265625 1.375q-0.765625 0.53125 -1.78125 0.796875q-1.0 0.25 -2.046875 0.25q-0.359375 0 -0.859375 0q-0.484375 0 -1.015625 -0.03125q-0.53125 -0.03125 -1.0625 -0.09375q-0.53125 -0.046875 -0.9375 -0.15625l0 -14.6875q0.796875 -0.140625 1.828125 -0.21875q1.046875 -0.078125 2.28125 -0.078125q0.84375 0 1.703125 0.140625q0.859375 0.125 1.5625 0.53125q0.703125 0.390625 1.15625 1.09375q0.46875 0.703125 0.46875 1.8125zm-4.953125 10.15625q0.6875 0 1.328125 -0.15625q0.640625 -0.171875 1.125 -0.515625q0.5 -0.359375 0.78125 -0.859375q0.296875 -0.515625 0.296875 -1.21875q0 -0.875 -0.359375 -1.40625q-0.34375 -0.546875 -0.921875 -0.84375q-0.5625 -0.296875 -1.265625 -0.40625q-0.703125 -0.109375 -1.40625 -0.109375l-1.859375 0l0 5.359375q0.15625 0.046875 0.421875 0.078125q0.28125 0.015625 0.59375 0.03125q0.328125 0.015625 0.671875 0.03125q0.34375 0.015625 0.59375 0.015625zm-1.171875 -7.0q0.375 0 0.875 -0.015625q0.515625 -0.03125 0.859375 -0.078125q0.515625 -0.15625 0.953125 -0.40625q0.453125 -0.25 0.796875 -0.578125q0.359375 -0.328125 0.5625 -0.765625q0.203125 -0.4375 0.203125 -0.953125q0 -0.703125 -0.265625 -1.15625q-0.265625 -0.46875 -0.71875 -0.734375q-0.453125 -0.28125 -1.03125 -0.390625q-0.5625 -0.125 -1.15625 -0.125q-0.703125 0 -1.296875 0.03125q-0.59375 0.03125 -0.890625 0.09375l0 5.078125l1.109375 0z" fill-rule="nonzero"/><path fill="#000000" d="m245.79453 72.01776q1.390625 1.515625 2.390625 2.296875q1.015625 0.78125 1.921875 1.171875l0 0.46875q-1.03125 0.5 -2.0 1.28125q-0.96875 0.765625 -2.3125 2.265625l-0.8125 0q0.984375 -2.09375 2.0625 -3.21875l-16.609375 0l0 -1.046875l16.609375 0q-0.796875 -1.015625 -1.109375 -1.5q-0.3125 -0.484375 -0.921875 -1.71875l0.78125 0z" fill-rule="nonzero"/><path fill="#000000" d="m261.4735 85.83026q-0.984375 -1.015625 -1.671875 -2.25q-0.671875 -1.21875 -1.09375 -2.5q-0.421875 -1.296875 -0.609375 -2.609375q-0.1875 -1.3125 -0.1875 -2.515625q0 -1.171875 0.1875 -2.46875q0.1875 -1.296875 0.609375 -2.609375q0.4375 -1.3125 1.125 -2.5625q0.703125 -1.265625 1.703125 -2.359375l1.015625 0.75q-0.84375 1.09375 -1.40625 2.25q-0.5625 1.15625 -0.90625 2.359375q-0.34375 1.1875 -0.484375 2.375q-0.140625 1.1875 -0.140625 2.265625q0 1.03125 0.15625 2.234375q0.171875 1.203125 0.515625 2.40625q0.359375 1.203125 0.921875 2.359375q0.5625 1.15625 1.34375 2.09375l-1.078125 0.78125zm6.1125183 -5.921875q0.734375 0 1.34375 -0.203125q0.625 -0.21875 1.0625 -0.640625q0.453125 -0.421875 0.703125 -0.984375q0.265625 -0.578125 0.265625 -1.265625q0 -1.5 -0.890625 -2.21875q-0.875 -0.71875 -2.4375 -0.71875l-1.578125 0l0 -0.625l3.078125 -4.734375l0.96875 -0.9375l-1.375 0.21875l-4.234375 0l0 -1.59375l7.625 0l0 0.625l-3.390625 5.09375l-0.75 0.625l0 0.046875l0.71875 -0.15625q0.859375 0.015625 1.578125 0.3125q0.734375 0.28125 1.265625 0.828125q0.53125 0.546875 0.828125 1.3125q0.296875 0.75 0.296875 1.703125q0 1.15625 -0.40625 2.0625q-0.40625 0.890625 -1.09375 1.5q-0.6875 0.59375 -1.625 0.921875q-0.9375 0.3125 -1.984375 0.3125q-0.96875 0 -1.734375 -0.15625q-0.765625 -0.140625 -1.34375 -0.375l0.453125 -1.515625q0.484375 0.234375 1.15625 0.40625q0.671875 0.15625 1.5 0.15625zm7.686371 0.3125q0 -0.5 0.34375 -0.8125q0.34375 -0.328125 0.875 -0.328125q0.65625 0 1.0625 0.46875q0.421875 0.46875 0.421875 1.359375q0 0.765625 -0.21875 1.34375q-0.203125 0.578125 -0.546875 0.984375q-0.34375 0.421875 -0.75 0.6875q-0.40625 0.265625 -0.8125 0.390625l-0.53125 -0.828125q0.765625 -0.296875 1.140625 -0.921875q0.375 -0.625 0.375 -1.265625q-0.1875 0.0625 -0.359375 0.0625q-0.421875 0 -0.71875 -0.28125q-0.28125 -0.296875 -0.28125 -0.859375zm14.564484 -10.59375q0 0.53125 -0.171875 1.09375q-0.171875 0.546875 -0.515625 1.03125q-0.328125 0.46875 -0.875 0.84375q-0.53125 0.359375 -1.25 0.546875l0 0.09375q0.640625 0.09375 1.21875 0.359375q0.59375 0.25 1.03125 0.703125q0.453125 0.4375 0.734375 1.078125q0.28125 0.640625 0.28125 1.515625q0 1.15625 -0.484375 2.0q-0.484375 0.84375 -1.265625 1.375q-0.765625 0.53125 -1.78125 0.796875q-1.0 0.25 -2.046875 0.25q-0.359375 0 -0.859375 0q-0.484375 0 -1.015625 -0.03125q-0.53125 -0.03125 -1.0625 -0.09375q-0.53125 -0.046875 -0.9375 -0.15625l0 -14.6875q0.796875 -0.140625 1.828125 -0.21875q1.046875 -0.078125 2.28125 -0.078125q0.84375 0 1.703125 0.140625q0.859375 0.125 1.5625 0.53125q0.703125 0.390625 1.15625 1.09375q0.46875 0.703125 0.46875 1.8125zm-4.953125 10.15625q0.6875 0 1.328125 -0.15625q0.640625 -0.171875 1.125 -0.515625q0.5 -0.359375 0.78125 -0.859375q0.296875 -0.515625 0.296875 -1.21875q0 -0.875 -0.359375 -1.40625q-0.34375 -0.546875 -0.921875 -0.84375q-0.5625 -0.296875 -1.265625 -0.40625q-0.703125 -0.109375 -1.40625 -0.109375l-1.859375 0l0 5.359375q0.15625 0.046875 0.421875 0.078125q0.28125 0.015625 0.59375 0.03125q0.328125 0.015625 0.671875 0.03125q0.34375 0.015625 0.59375 0.015625zm-1.171875 -7.0q0.375 0 0.875 -0.015625q0.515625 -0.03125 0.859375 -0.078125q0.515625 -0.15625 0.953125 -0.40625q0.453125 -0.25 0.796875 -0.578125q0.359375 -0.328125 0.5625 -0.765625q0.203125 -0.4375 0.203125 -0.953125q0 -0.703125 -0.265625 -1.15625q-0.265625 -0.46875 -0.71875 -0.734375q-0.453125 -0.28125 -1.03125 -0.390625q-0.5625 -0.125 -1.15625 -0.125q-0.703125 0 -1.296875 0.03125q-0.59375 0.03125 -0.890625 0.09375l0 5.078125l1.109375 0zm8.815033 7.4375q0 -0.5 0.34375 -0.8125q0.34375 -0.328125 0.875 -0.328125q0.65625 0 1.0625 0.46875q0.421875 0.46875 0.421875 1.359375q0 0.765625 -0.21875 1.34375q-0.203125 0.578125 -0.546875 0.984375q-0.34375 0.421875 -0.75 0.6875q-0.40625 0.265625 -0.8125 0.390625l-0.53125 -0.828125q0.765625 -0.296875 1.140625 -0.921875q0.375 -0.625 0.375 -1.265625q-0.1875 0.0625 -0.359375 0.0625q-0.421875 0 -0.71875 -0.28125q-0.28125 -0.296875 -0.28125 -0.859375zm15.126984 0.296875q-0.640625 0.5 -1.625 0.6875q-0.984375 0.1875 -2.09375 0.1875q-1.34375 0 -2.515625 -0.453125q-1.171875 -0.453125 -2.046875 -1.390625q-0.875 -0.9375 -1.390625 -2.390625q-0.515625 -1.46875 -0.515625 -3.484375q0 -2.09375 0.5625 -3.546875q0.578125 -1.46875 1.5 -2.390625q0.9375 -0.921875 2.078125 -1.34375q1.15625 -0.4375 2.34375 -0.4375q1.28125 0 2.09375 0.140625q0.8125 0.140625 1.390625 0.375l-0.421875 1.5625q-1.03125 -0.5 -2.921875 -0.5q-0.875 0 -1.734375 0.328125q-0.859375 0.3125 -1.53125 1.046875q-0.671875 0.71875 -1.078125 1.890625q-0.390625 1.171875 -0.390625 2.875q0 1.546875 0.375 2.703125q0.390625 1.140625 1.0625 1.90625q0.671875 0.765625 1.578125 1.15625q0.90625 0.375 1.96875 0.375q0.953125 0 1.671875 -0.1875q0.71875 -0.1875 1.203125 -0.484375l0.4375 1.375zm1.9284058 -14.5625q0.984375 1.03125 1.65625 2.265625q0.6875 1.21875 1.109375 2.515625q0.421875 1.28125 0.609375 2.59375q0.1875 1.3125 0.1875 2.5q0 1.171875 -0.1875 2.484375q-0.1875 1.296875 -0.625 2.609375q-0.421875 1.3125 -1.125 2.5625q-0.6875 1.265625 -1.6875 2.34375l-1.015625 -0.734375q0.84375 -1.09375 1.421875 -2.265625q0.578125 -1.171875 0.90625 -2.359375q0.328125 -1.203125 0.46875 -2.375q0.140625 -1.171875 0.140625 -2.265625q0 -1.015625 -0.171875 -2.203125q-0.171875 -1.203125 -0.53125 -2.421875q-0.34375 -1.21875 -0.90625 -2.359375q-0.546875 -1.15625 -1.328125 -2.09375l1.078125 -0.796875z" fill-rule="nonzero"/><path fill="#000000" d="m222.83173 109.95775q-0.640625 0.5 -1.625 0.6875q-0.984375 0.1875 -2.09375 0.1875q-1.34375 0 -2.515625 -0.453125q-1.171875 -0.453125 -2.046875 -1.390625q-0.875 -0.9375 -1.390625 -2.390625q-0.515625 -1.46875 -0.515625 -3.484375q0 -2.09375 0.5625 -3.546875q0.578125 -1.46875 1.5 -2.390625q0.9375 -0.921875 2.078125 -1.34375q1.15625 -0.4375 2.34375 -0.4375q1.28125 0 2.09375 0.140625q0.8125 0.140625 1.390625 0.375l-0.421875 1.5625q-1.03125 -0.5 -2.921875 -0.5q-0.875 0 -1.734375 0.328125q-0.859375 0.3125 -1.53125 1.046875q-0.671875 0.71875 -1.078125 1.890625q-0.390625 1.171875 -0.390625 2.875q0 1.546875 0.375 2.703125q0.390625 1.140625 1.0625 1.90625q0.671875 0.765625 1.578125 1.15625q0.90625 0.375 1.96875 0.375q0.953125 0 1.671875 -0.1875q0.71875 -0.1875 1.203125 -0.484375l0.4375 1.375z" fill-rule="nonzero"/><path fill="#000000" d="m244.66393 101.45775q1.390625 1.515625 2.390625 2.296875q1.015625 0.78125 1.921875 1.171875l0 0.46875q-1.03125 0.5 -2.0 1.28125q-0.96875 0.765625 -2.3125 2.265625l-0.8125 0q0.984375 -2.09375 2.0625 -3.21875l-16.609375 0l0 -1.046875l16.609375 0q-0.796875 -1.015625 -1.109375 -1.5q-0.3125 -0.484375 -0.921875 -1.71875l0.78125 0z" fill-rule="nonzero"/><path fill="#000000" d="m260.34293 115.27025q-0.984375 -1.015625 -1.671875 -2.25q-0.671875 -1.21875 -1.09375 -2.5q-0.421875 -1.296875 -0.609375 -2.609375q-0.1875 -1.3125 -0.1875 -2.515625q0 -1.171875 0.1875 -2.46875q0.1875 -1.296875 0.609375 -2.609375q0.4375 -1.3125 1.125 -2.5625q0.703125 -1.265625 1.703125 -2.359375l1.015625 0.75q-0.84375 1.09375 -1.40625 2.25q-0.5625 1.15625 -0.90625 2.359375q-0.34375 1.1875 -0.484375 2.375q-0.140625 1.1875 -0.140625 2.265625q0 1.03125 0.15625 2.234375q0.171875 1.203125 0.515625 2.40625q0.359375 1.203125 0.921875 2.359375q0.5625 1.15625 1.34375 2.09375l-1.078125 0.78125zm3.4718933 -4.6875l5.359375 -12.5l0.9375 -1.046875l-1.265625 0.203125l-6.078125 0l0 -1.59375l8.921875 0l0 0.578125l-6.140625 14.359375l-1.734375 0zm7.980316 -0.921875q0 -0.5 0.34375 -0.8125q0.34375 -0.328125 0.875 -0.328125q0.65625 0 1.0625 0.46875q0.421875 0.46875 0.421875 1.359375q0 0.765625 -0.21875 1.34375q-0.203125 0.578125 -0.546875 0.984375q-0.34375 0.421875 -0.75 0.6875q-0.40625 0.265625 -0.8125 0.390625l-0.53125 -0.828125q0.765625 -0.296875 1.140625 -0.921875q0.375 -0.625 0.375 -1.265625q-0.1875 0.0625 -0.359375 0.0625q-0.421875 0 -0.71875 -0.28125q-0.28125 -0.296875 -0.28125 -0.859375zm15.126984 0.296875q-0.640625 0.5 -1.625 0.6875q-0.984375 0.1875 -2.09375 0.1875q-1.34375 0 -2.515625 -0.453125q-1.171875 -0.453125 -2.046875 -1.390625q-0.875 -0.9375 -1.390625 -2.390625q-0.515625 -1.46875 -0.515625 -3.484375q0 -2.09375 0.5625 -3.546875q0.578125 -1.46875 1.5 -2.390625q0.9375 -0.921875 2.078125 -1.34375q1.15625 -0.4375 2.34375 -0.4375q1.28125 0 2.09375 0.140625q0.8125 0.140625 1.390625 0.375l-0.421875 1.5625q-1.03125 -0.5 -2.921875 -0.5q-0.875 0 -1.734375 0.328125q-0.859375 0.3125 -1.53125 1.046875q-0.671875 0.71875 -1.078125 1.890625q-0.390625 1.171875 -0.390625 2.875q0 1.546875 0.375 2.703125q0.390625 1.140625 1.0625 1.90625q0.671875 0.765625 1.578125 1.15625q0.90625 0.375 1.96875 0.375q0.953125 0 1.671875 -0.1875q0.71875 -0.1875 1.203125 -0.484375l0.4375 1.375zm1.8502808 -0.296875q0 -0.5 0.34375 -0.8125q0.34375 -0.328125 0.875 -0.328125q0.65625 0 1.0625 0.46875q0.421875 0.46875 0.421875 1.359375q0 0.765625 -0.21875 1.34375q-0.203125 0.578125 -0.546875 0.984375q-0.34375 0.421875 -0.75 0.6875q-0.40625 0.265625 -0.8125 0.390625l-0.53125 -0.828125q0.765625 -0.296875 1.140625 -0.921875q0.375 -0.625 0.375 -1.265625q-0.1875 0.0625 -0.359375 0.0625q-0.421875 0 -0.71875 -0.28125q-0.28125 -0.296875 -0.28125 -0.859375zm12.673828 -3.21875l-5.515625 0l-1.484375 4.140625l-1.75 0l5.65625 -15.171875l0.8125 0l5.671875 15.171875l-1.859375 0l-1.53125 -4.140625zm-4.9375 -1.53125l4.390625 0l-1.65625 -4.546875l-0.53125 -2.265625l-0.03125 0l-0.53125 2.3125l-1.640625 4.5zm9.617645 -9.515625q0.984375 1.03125 1.65625 2.265625q0.6875 1.21875 1.109375 2.515625q0.421875 1.28125 0.609375 2.59375q0.1875 1.3125 0.1875 2.5q0 1.171875 -0.1875 2.484375q-0.1875 1.296875 -0.625 2.609375q-0.421875 1.3125 -1.125 2.5625q-0.6875 1.265625 -1.6875 2.34375l-1.015625 -0.734375q0.84375 -1.09375 1.421875 -2.265625q0.578125 -1.171875 0.90625 -2.359375q0.328125 -1.203125 0.46875 -2.375q0.140625 -1.171875 0.140625 -2.265625q0 -1.015625 -0.171875 -2.203125q-0.171875 -1.203125 -0.53125 -2.421875q-0.34375 -1.21875 -0.90625 -2.359375q-0.546875 -1.15625 -1.328125 -2.09375l1.078125 -0.796875zm15.385254 19.875q-0.984375 -1.015625 -1.671875 -2.25q-0.671875 -1.21875 -1.09375 -2.5q-0.421875 -1.296875 -0.609375 -2.609375q-0.1875 -1.3125 -0.1875 -2.515625q0 -1.171875 0.1875 -2.46875q0.1875 -1.296875 0.609375 -2.609375q0.4375 -1.3125 1.125 -2.5625q0.703125 -1.265625 1.703125 -2.359375l1.015625 0.75q-0.84375 1.09375 -1.40625 2.25q-0.5625 1.15625 -0.90625 2.359375q-0.34375 1.1875 -0.484375 2.375q-0.140625 1.1875 -0.140625 2.265625q0 1.03125 0.15625 2.234375q0.171875 1.203125 0.515625 2.40625q0.359375 1.203125 0.921875 2.359375q0.5625 1.15625 1.34375 2.09375l-1.078125 0.78125zm11.628143 -9.1875q0 0.984375 -0.3125 1.84375q-0.296875 0.859375 -0.875 1.515625q-0.5625 0.65625 -1.421875 1.03125q-0.859375 0.359375 -1.9375 0.359375q-1.0625 0 -1.921875 -0.328125q-0.859375 -0.34375 -1.484375 -1.015625q-0.609375 -0.671875 -0.9375 -1.65625q-0.328125 -0.984375 -0.328125 -2.265625q0 -2.109375 0.546875 -3.890625q0.546875 -1.78125 1.5 -3.09375q0.953125 -1.328125 2.265625 -2.140625q1.3125 -0.828125 2.859375 -1.046875l0.359375 1.359375q-1.203125 0.21875 -2.1875 0.828125q-0.96875 0.59375 -1.703125 1.46875q-0.734375 0.859375 -1.21875 1.953125q-0.46875 1.09375 -0.625 2.234375q0.328125 -0.5625 1.140625 -1.046875q0.8125 -0.484375 1.984375 -0.484375q2.015625 0 3.15625 1.15625q1.140625 1.15625 1.140625 3.21875zm-1.78125 0.171875q0 -1.515625 -0.703125 -2.28125q-0.703125 -0.765625 -2.171875 -0.765625q-1.046875 0 -1.8125 0.515625q-0.75 0.5 -1.046875 1.140625q-0.046875 0.296875 -0.046875 0.5q0 0.1875 0 0.421875q0 0.65625 0.1875 1.296875q0.1875 0.640625 0.5625 1.140625q0.390625 0.5 0.953125 0.8125q0.5625 0.3125 1.328125 0.3125q0.625 0 1.125 -0.234375q0.5 -0.234375 0.859375 -0.640625q0.359375 -0.40625 0.5625 -0.984375q0.203125 -0.578125 0.203125 -1.234375zm3.9519958 3.40625q0 -0.5 0.34375 -0.8125q0.34375 -0.328125 0.875 -0.328125q0.65625 0 1.0625 0.46875q0.421875 0.46875 0.421875 1.359375q0 0.765625 -0.21875 1.34375q-0.203125 0.578125 -0.546875 0.984375q-0.34375 0.421875 -0.75 0.6875q-0.40625 0.265625 -0.8125 0.390625l-0.53125 -0.828125q0.765625 -0.296875 1.140625 -0.921875q0.375 -0.625 0.375 -1.265625q-0.1875 0.0625 -0.359375 0.0625q-0.421875 0 -0.71875 -0.28125q-0.28125 -0.296875 -0.28125 -0.859375zm15.126984 0.296875q-0.640625 0.5 -1.625 0.6875q-0.984375 0.1875 -2.09375 0.1875q-1.34375 0 -2.515625 -0.453125q-1.171875 -0.453125 -2.046875 -1.390625q-0.875 -0.9375 -1.390625 -2.390625q-0.515625 -1.46875 -0.515625 -3.484375q0 -2.09375 0.5625 -3.546875q0.578125 -1.46875 1.5 -2.390625q0.9375 -0.921875 2.078125 -1.34375q1.15625 -0.4375 2.34375 -0.4375q1.28125 0 2.09375 0.140625q0.8125 0.140625 1.390625 0.375l-0.421875 1.5625q-1.03125 -0.5 -2.921875 -0.5q-0.875 0 -1.734375 0.328125q-0.859375 0.3125 -1.53125 1.046875q-0.671875 0.71875 -1.078125 1.890625q-0.390625 1.171875 -0.390625 2.875q0 1.546875 0.375 2.703125q0.390625 1.140625 1.0625 1.90625q0.671875 0.765625 1.578125 1.15625q0.90625 0.375 1.96875 0.375q0.953125 0 1.671875 -0.1875q0.71875 -0.1875 1.203125 -0.484375l0.4375 1.375zm1.8502808 -0.296875q0 -0.5 0.34375 -0.8125q0.34375 -0.328125 0.875 -0.328125q0.65625 0 1.0625 0.46875q0.421875 0.46875 0.421875 1.359375q0 0.765625 -0.21875 1.34375q-0.203125 0.578125 -0.546875 0.984375q-0.34375 0.421875 -0.75 0.6875q-0.40625 0.265625 -0.8125 0.390625l-0.53125 -0.828125q0.765625 -0.296875 1.140625 -0.921875q0.375 -0.625 0.375 -1.265625q-0.1875 0.0625 -0.359375 0.0625q-0.421875 0 -0.71875 -0.28125q-0.28125 -0.296875 -0.28125 -0.859375zm5.564453 -14.015625q0.40625 -0.0625 0.90625 -0.09375q0.5 -0.03125 1.046875 -0.03125q0.546875 -0.015625 1.0625 -0.015625q0.53125 -0.015625 0.96875 -0.015625q1.796875 0 3.109375 0.5625q1.3125 0.546875 2.15625 1.546875q0.859375 0.984375 1.265625 2.375q0.421875 1.375 0.421875 3.03125q0 1.515625 -0.390625 2.921875q-0.390625 1.390625 -1.25 2.46875q-0.84375 1.078125 -2.21875 1.734375q-1.359375 0.640625 -3.296875 0.640625q-0.34375 0 -0.890625 -0.015625q-0.546875 0 -1.125 -0.03125q-0.578125 -0.03125 -1.0625 -0.0625q-0.484375 -0.015625 -0.703125 -0.0625l0 -14.953125zm4.03125 1.421875q-0.28125 0 -0.609375 0q-0.328125 0 -0.65625 0.015625q-0.3125 0.015625 -0.578125 0.046875q-0.265625 0.015625 -0.421875 0.03125l0 11.953125q0.109375 0.015625 0.40625 0.03125q0.296875 0.015625 0.609375 0.03125q0.328125 0 0.625 0.015625q0.3125 0 0.40625 0q1.5 0 2.515625 -0.5q1.015625 -0.515625 1.609375 -1.375q0.609375 -0.875 0.859375 -1.984375q0.265625 -1.125 0.265625 -2.328125q0 -1.03125 -0.234375 -2.09375q-0.234375 -1.0625 -0.8125 -1.90625q-0.578125 -0.859375 -1.546875 -1.390625q-0.96875 -0.546875 -2.4375 -0.546875zm9.229919 -1.671875q0.984375 1.03125 1.65625 2.265625q0.6875 1.21875 1.109375 2.515625q0.421875 1.28125 0.609375 2.59375q0.1875 1.3125 0.1875 2.5q0 1.171875 -0.1875 2.484375q-0.1875 1.296875 -0.625 2.609375q-0.421875 1.3125 -1.125 2.5625q-0.6875 1.265625 -1.6875 2.34375l-1.015625 -0.734375q0.84375 -1.09375 1.421875 -2.265625q0.578125 -1.171875 0.90625 -2.359375q0.328125 -1.203125 0.46875 -2.375q0.140625 -1.171875 0.140625 -2.265625q0 -1.015625 -0.171875 -2.203125q-0.171875 -1.203125 -0.53125 -2.421875q-0.34375 -1.21875 -0.90625 -2.359375q-0.546875 -1.15625 -1.328125 -2.09375l1.078125 -0.796875z" fill-rule="nonzero"/><path fill="#000000" d="m213.26923 125.08525q0.40625 -0.0625 0.90625 -0.09375q0.5 -0.03125 1.046875 -0.03125q0.546875 -0.015625 1.0625 -0.015625q0.53125 -0.015625 0.96875 -0.015625q1.796875 0 3.109375 0.5625q1.3125 0.546875 2.15625 1.546875q0.859375 0.984375 1.265625 2.375q0.421875 1.375 0.421875 3.03125q0 1.515625 -0.390625 2.921875q-0.390625 1.390625 -1.25 2.46875q-0.84375 1.078125 -2.21875 1.734375q-1.359375 0.640625 -3.296875 0.640625q-0.34375 0 -0.890625 -0.015625q-0.546875 0 -1.125 -0.03125q-0.578125 -0.03125 -1.0625 -0.0625q-0.484375 -0.015625 -0.703125 -0.0625l0 -14.953125zm4.03125 1.421875q-0.28125 0 -0.609375 0q-0.328125 0 -0.65625 0.015625q-0.3125 0.015625 -0.578125 0.046875q-0.265625 0.015625 -0.421875 0.03125l0 11.953125q0.109375 0.015625 0.40625 0.03125q0.296875 0.015625 0.609375 0.03125q0.328125 0 0.625 0.015625q0.3125 0 0.40625 0q1.5 0 2.515625 -0.5q1.015625 -0.515625 1.609375 -1.375q0.609375 -0.875 0.859375 -1.984375q0.265625 -1.125 0.265625 -2.328125q0 -1.03125 -0.234375 -2.09375q-0.234375 -1.0625 -0.8125 -1.90625q-0.578125 -0.859375 -1.546875 -1.390625q-0.96875 -0.546875 -2.4375 -0.546875z" fill-rule="nonzero"/><path fill="#000000" d="m247.2875 130.89775q1.390625 1.515625 2.390625 2.296875q1.015625 0.78125 1.921875 1.171875l0 0.46875q-1.03125 0.5 -2.0 1.28125q-0.96875 0.765625 -2.3125 2.265625l-0.8125 0q0.984375 -2.09375 2.0625 -3.21875l-16.609375 0l0 -1.046875l16.609375 0q-0.796875 -1.015625 -1.109375 -1.5q-0.3125 -0.484375 -0.921875 -1.71875l0.78125 0z" fill-rule="nonzero"/><path fill="#000000" d="m262.9665 144.71025q-0.984375 -1.015625 -1.671875 -2.25q-0.671875 -1.21875 -1.09375 -2.5q-0.421875 -1.296875 -0.609375 -2.609375q-0.1875 -1.3125 -0.1875 -2.515625q0 -1.171875 0.1875 -2.46875q0.1875 -1.296875 0.609375 -2.609375q0.4375 -1.3125 1.125 -2.5625q0.703125 -1.265625 1.703125 -2.359375l1.015625 0.75q-0.84375 1.09375 -1.40625 2.25q-0.5625 1.15625 -0.90625 2.359375q-0.34375 1.1875 -0.484375 2.375q-0.140625 1.1875 -0.140625 2.265625q0 1.03125 0.15625 2.234375q0.171875 1.203125 0.515625 2.40625q0.359375 1.203125 0.921875 2.359375q0.5625 1.15625 1.34375 2.09375l-1.078125 0.78125zm10.643768 -16.21875q0 1.125 -0.421875 2.3125q-0.40625 1.171875 -1.078125 2.375q-0.671875 1.1875 -1.515625 2.328125q-0.828125 1.140625 -1.65625 2.171875l-1.046875 0.921875l0 0.078125l1.359375 -0.234375l4.65625 0l0 1.578125l-8.484375 0l0 -0.625q0.46875 -0.484375 1.125 -1.203125q0.65625 -0.734375 1.375 -1.609375q0.71875 -0.890625 1.40625 -1.875q0.6875 -1.0 1.25 -2.015625q0.578125 -1.03125 0.90625 -2.03125q0.34375 -1.0 0.34375 -1.90625q0 -1.046875 -0.59375 -1.734375q-0.59375 -0.6875 -1.8125 -0.6875q-0.8125 0 -1.578125 0.328125q-0.765625 0.328125 -1.3125 0.75l-0.703125 -1.21875q0.734375 -0.625 1.75 -0.984375q1.03125 -0.375 2.203125 -0.375q0.921875 0 1.625 0.265625q0.703125 0.265625 1.1875 0.765625q0.5 0.484375 0.75 1.15625q0.265625 0.671875 0.265625 1.46875zm3.1551208 10.609375q0 -0.5 0.34375 -0.8125q0.34375 -0.328125 0.875 -0.328125q0.65625 0 1.0625 0.46875q0.421875 0.46875 0.421875 1.359375q0 0.765625 -0.21875 1.34375q-0.203125 0.578125 -0.546875 0.984375q-0.34375 0.421875 -0.75 0.6875q-0.40625 0.265625 -0.8125 0.390625l-0.53125 -0.828125q0.765625 -0.296875 1.140625 -0.921875q0.375 -0.625 0.375 -1.265625q-0.1875 0.0625 -0.359375 0.0625q-0.421875 0 -0.71875 -0.28125q-0.28125 -0.296875 -0.28125 -0.859375zm5.5644836 -14.015625q0.40625 -0.0625 0.90625 -0.09375q0.5 -0.03125 1.046875 -0.03125q0.546875 -0.015625 1.0625 -0.015625q0.53125 -0.015625 0.96875 -0.015625q1.796875 0 3.109375 0.5625q1.3125 0.546875 2.15625 1.546875q0.859375 0.984375 1.265625 2.375q0.421875 1.375 0.421875 3.03125q0 1.515625 -0.390625 2.921875q-0.390625 1.390625 -1.25 2.46875q-0.84375 1.078125 -2.21875 1.734375q-1.359375 0.640625 -3.296875 0.640625q-0.34375 0 -0.890625 -0.015625q-0.546875 0 -1.125 -0.03125q-0.578125 -0.03125 -1.0625 -0.0625q-0.484375 -0.015625 -0.703125 -0.0625l0 -14.953125zm4.03125 1.421875q-0.28125 0 -0.609375 0q-0.328125 0 -0.65625 0.015625q-0.3125 0.015625 -0.578125 0.046875q-0.265625 0.015625 -0.421875 0.03125l0 11.953125q0.109375 0.015625 0.40625 0.03125q0.296875 0.015625 0.609375 0.03125q0.328125 0 0.625 0.015625q0.3125 0 0.40625 0q1.5 0 2.515625 -0.5q1.015625 -0.515625 1.609375 -1.375q0.609375 -0.875 0.859375 -1.984375q0.265625 -1.125 0.265625 -2.328125q0 -1.03125 -0.234375 -2.09375q-0.234375 -1.0625 -0.8125 -1.90625q-0.578125 -0.859375 -1.546875 -1.390625q-0.96875 -0.546875 -2.4375 -0.546875zm8.51178 12.59375q0 -0.5 0.34375 -0.8125q0.34375 -0.328125 0.875 -0.328125q0.65625 0 1.0625 0.46875q0.421875 0.46875 0.421875 1.359375q0 0.765625 -0.21875 1.34375q-0.203125 0.578125 -0.546875 0.984375q-0.34375 0.421875 -0.75 0.6875q-0.40625 0.265625 -0.8125 0.390625l-0.53125 -0.828125q0.765625 -0.296875 1.140625 -0.921875q0.375 -0.625 0.375 -1.265625q-0.1875 0.0625 -0.359375 0.0625q-0.421875 0 -0.71875 -0.28125q-0.28125 -0.296875 -0.28125 -0.859375zm5.564453 -14.015625q0.40625 -0.0625 0.90625 -0.09375q0.5 -0.03125 1.046875 -0.03125q0.546875 -0.015625 1.0625 -0.015625q0.53125 -0.015625 0.96875 -0.015625q1.796875 0 3.109375 0.5625q1.3125 0.546875 2.15625 1.546875q0.859375 0.984375 1.265625 2.375q0.421875 1.375 0.421875 3.03125q0 1.515625 -0.390625 2.921875q-0.390625 1.390625 -1.25 2.46875q-0.84375 1.078125 -2.21875 1.734375q-1.359375 0.640625 -3.296875 0.640625q-0.34375 0 -0.890625 -0.015625q-0.546875 0 -1.125 -0.03125q-0.578125 -0.03125 -1.0625 -0.0625q-0.484375 -0.015625 -0.703125 -0.0625l0 -14.953125zm4.03125 1.421875q-0.28125 0 -0.609375 0q-0.328125 0 -0.65625 0.015625q-0.3125 0.015625 -0.578125 0.046875q-0.265625 0.015625 -0.421875 0.03125l0 11.953125q0.109375 0.015625 0.40625 0.03125q0.296875 0.015625 0.609375 0.03125q0.328125 0 0.625 0.015625q0.3125 0 0.40625 0q1.5 0 2.515625 -0.5q1.015625 -0.515625 1.609375 -1.375q0.609375 -0.875 0.859375 -1.984375q0.265625 -1.125 0.265625 -2.328125q0 -1.03125 -0.234375 -2.09375q-0.234375 -1.0625 -0.8125 -1.90625q-0.578125 -0.859375 -1.546875 -1.390625q-0.96875 -0.546875 -2.4375 -0.546875zm9.229919 -1.671875q0.984375 1.03125 1.65625 2.265625q0.6875 1.21875 1.109375 2.515625q0.421875 1.28125 0.609375 2.59375q0.1875 1.3125 0.1875 2.5q0 1.171875 -0.1875 2.484375q-0.1875 1.296875 -0.625 2.609375q-0.421875 1.3125 -1.125 2.5625q-0.6875 1.265625 -1.6875 2.34375l-1.015625 -0.734375q0.84375 -1.09375 1.421875 -2.265625q0.578125 -1.171875 0.90625 -2.359375q0.328125 -1.203125 0.46875 -2.375q0.140625 -1.171875 0.140625 -2.265625q0 -1.015625 -0.171875 -2.203125q-0.171875 -1.203125 -0.53125 -2.421875q-0.34375 -1.21875 -0.90625 -2.359375q-0.546875 -1.15625 -1.328125 -2.09375l1.078125 -0.796875z" fill-rule="nonzero"/><path stroke="#9e9e9e" stroke-width="1.0" stroke-linecap="butt" d="m432.93192 56.583908l0 105.82677" fill-rule="nonzero"/><path stroke="#9e9e9e" stroke-width="1.0" stroke-linecap="butt" d="m459.3886 28.628527l0 133.78215" fill-rule="nonzero"/><path stroke="#9e9e9e" stroke-width="1.0" stroke-linecap="butt" d="m485.84528 29.129839l0 133.28084" fill-rule="nonzero"/><path stroke="#9e9e9e" stroke-width="1.0" stroke-linecap="butt" d="m512.302 29.129839l0 133.28084" fill-rule="nonzero"/><path stroke="#9e9e9e" stroke-width="1.0" stroke-linecap="butt" d="m538.75867 29.129839l0 133.28084" fill-rule="nonzero"/><path stroke="#9e9e9e" stroke-width="1.0" stroke-linecap="butt" d="m565.2154 29.129839l0 133.28084" fill-rule="nonzero"/><path stroke="#9e9e9e" stroke-width="1.0" stroke-linecap="butt" d="m459.8873 29.628527l105.82675 0" fill-rule="nonzero"/><path stroke="#9e9e9e" stroke-width="1.0" stroke-linecap="butt" d="m431.93192 56.08522l133.78214 0" fill-rule="nonzero"/><path stroke="#9e9e9e" stroke-width="1.0" stroke-linecap="butt" d="m432.43323 82.54191l133.28082 0" fill-rule="nonzero"/><path stroke="#9e9e9e" stroke-width="1.0" stroke-linecap="butt" d="m432.43323 108.998604l133.28082 0" fill-rule="nonzero"/><path stroke="#9e9e9e" stroke-width="1.0" stroke-linecap="butt" d="m432.43323 135.45529l133.28082 0" fill-rule="nonzero"/><path stroke="#9e9e9e" stroke-width="1.0" stroke-linecap="butt" d="m432.43323 161.91199l133.28082 0" fill-rule="nonzero"/><path fill="#000000" d="m474.95688 45.95187l-4.8125 0l-1.3125 3.625l-1.515625 0l4.9375 -13.265625l0.703125 0l4.96875 13.265625l-1.625 0l-1.34375 -3.625zm-4.3125 -1.34375l3.84375 0l-1.453125 -3.96875l-0.46875 -1.96875l-0.015625 0l-0.46875 2.0l-1.4375 3.9375z" fill-rule="nonzero"/><path fill="#000000" d="m503.07913 39.498745q0 0.46875 -0.15625 0.953125q-0.140625 0.484375 -0.4375 0.90625q-0.296875 0.421875 -0.765625 0.75q-0.46875 0.3125 -1.09375 0.46875l0 0.078125q0.5625 0.09375 1.0625 0.328125q0.515625 0.21875 0.90625 0.609375q0.390625 0.390625 0.625 0.953125q0.25 0.546875 0.25 1.3125q0 1.015625 -0.421875 1.75q-0.40625 0.734375 -1.09375 1.203125q-0.671875 0.46875 -1.5625 0.703125q-0.875 0.21875 -1.78125 0.21875q-0.3125 0 -0.75 0q-0.421875 0 -0.890625 -0.03125q-0.46875 -0.03125 -0.9375 -0.078125q-0.46875 -0.046875 -0.828125 -0.140625l0 -12.859375q0.703125 -0.109375 1.609375 -0.171875q0.921875 -0.078125 2.0 -0.078125q0.71875 0 1.46875 0.125q0.765625 0.109375 1.375 0.453125q0.625 0.34375 1.015625 0.96875q0.40625 0.609375 0.40625 1.578125zm-4.328125 8.890625q0.609375 0 1.15625 -0.140625q0.5625 -0.140625 0.984375 -0.453125q0.4375 -0.3125 0.6875 -0.75q0.25 -0.453125 0.25 -1.0625q0 -0.765625 -0.3125 -1.234375q-0.296875 -0.46875 -0.796875 -0.734375q-0.484375 -0.265625 -1.109375 -0.34375q-0.609375 -0.09375 -1.234375 -0.09375l-1.609375 0l0 4.671875q0.125 0.046875 0.359375 0.0625q0.25 0.015625 0.53125 0.03125q0.28125 0.015625 0.578125 0.03125q0.296875 0.015625 0.515625 0.015625zm-1.015625 -6.125q0.3125 0 0.75 -0.015625q0.453125 -0.015625 0.75 -0.0625q0.453125 -0.140625 0.84375 -0.359375q0.390625 -0.21875 0.703125 -0.5q0.3125 -0.296875 0.484375 -0.671875q0.171875 -0.390625 0.171875 -0.828125q0 -0.625 -0.234375 -1.015625q-0.234375 -0.40625 -0.625 -0.640625q-0.390625 -0.25 -0.890625 -0.34375q-0.5 -0.109375 -1.03125 -0.109375q-0.609375 0 -1.125 0.03125q-0.515625 0.015625 -0.765625 0.078125l0 4.4375l0.96875 0z" fill-rule="nonzero"/><path fill="#000000" d="m530.1415 49.029995q-0.546875 0.4375 -1.40625 0.59375q-0.859375 0.171875 -1.828125 0.171875q-1.1875 0 -2.21875 -0.390625q-1.015625 -0.40625 -1.78125 -1.21875q-0.765625 -0.828125 -1.21875 -2.109375q-0.4375 -1.28125 -0.4375 -3.03125q0 -1.828125 0.484375 -3.09375q0.5 -1.28125 1.3125 -2.09375q0.8125 -0.8125 1.8125 -1.1875q1.015625 -0.375 2.0625 -0.375q1.109375 0 1.8125 0.125q0.71875 0.109375 1.21875 0.328125l-0.359375 1.359375q-0.90625 -0.4375 -2.5625 -0.4375q-0.765625 0 -1.515625 0.28125q-0.734375 0.28125 -1.328125 0.921875q-0.59375 0.625 -0.953125 1.65625q-0.34375 1.03125 -0.34375 2.515625q0 1.34375 0.328125 2.359375q0.34375 1.0 0.921875 1.671875q0.59375 0.671875 1.390625 1.015625q0.796875 0.328125 1.71875 0.328125q0.84375 0 1.46875 -0.171875q0.625 -0.171875 1.0625 -0.421875l0.359375 1.203125z" fill-rule="nonzero"/><path fill="#000000" d="m547.46454 36.51437q0.359375 -0.046875 0.796875 -0.078125q0.4375 -0.03125 0.90625 -0.03125q0.484375 -0.015625 0.9375 -0.015625q0.46875 -0.015625 0.859375 -0.015625q1.5625 0 2.703125 0.484375q1.15625 0.484375 1.890625 1.359375q0.75 0.859375 1.109375 2.078125q0.375 1.203125 0.375 2.65625q0 1.328125 -0.34375 2.546875q-0.34375 1.21875 -1.09375 2.171875q-0.75 0.9375 -1.953125 1.515625q-1.1875 0.5625 -2.875 0.5625q-0.296875 0 -0.78125 -0.015625q-0.46875 0 -0.984375 -0.03125q-0.5 -0.03125 -0.9375 -0.046875q-0.421875 -0.015625 -0.609375 -0.0625l0 -13.078125zm3.53125 1.234375q-0.234375 0 -0.53125 0q-0.28125 0 -0.5625 0.015625q-0.28125 0.015625 -0.515625 0.046875q-0.234375 0.015625 -0.359375 0.03125l0 10.453125q0.09375 0.015625 0.34375 0.03125q0.265625 0 0.546875 0.015625q0.28125 0 0.53125 0.015625q0.265625 0 0.359375 0q1.3125 0 2.1875 -0.4375q0.890625 -0.453125 1.421875 -1.203125q0.53125 -0.765625 0.75 -1.734375q0.234375 -0.984375 0.234375 -2.03125q0 -0.90625 -0.203125 -1.828125q-0.203125 -0.9375 -0.71875 -1.671875q-0.5 -0.75 -1.34375 -1.21875q-0.84375 -0.484375 -2.140625 -0.484375z" fill-rule="nonzero"/><path fill="#000000" d="m448.50018 72.40856l-4.8125 0l-1.3125 3.625l-1.515625 0l4.9375 -13.265621l0.703125 0l4.96875 13.265621l-1.625 0l-1.34375 -3.625zm-4.3125 -1.34375l3.84375 0l-1.453125 -3.96875l-0.46875 -1.96875l-0.015625 0l-0.46875 2.0l-1.4375 3.9375z" fill-rule="nonzero"/><path fill="#000000" d="m522.49335 76.03356l4.6875 -10.9375l0.828125 -0.90625l-1.109375 0.171875l-5.3125 0l0 -1.3906212l7.796875 0l0 0.5l-5.375 12.562496l-1.515625 0z" fill-rule="nonzero"/><path fill="#000000" d="m450.16574 92.41213q0 0.46875 -0.15625 0.953125q-0.140625 0.484375 -0.4375 0.90625q-0.296875 0.421875 -0.765625 0.75q-0.46875 0.3125 -1.09375 0.46875l0 0.078125q0.5625 0.09375 1.0625 0.328125q0.515625 0.21875 0.90625 0.609375q0.390625 0.390625 0.625 0.953125q0.25 0.546875 0.25 1.3125q0 1.015625 -0.421875 1.75q-0.40625 0.734375 -1.09375 1.203125q-0.671875 0.46875 -1.5625 0.703125q-0.875 0.21875 -1.78125 0.21875q-0.3125 0 -0.75 0q-0.421875 0 -0.890625 -0.03125q-0.46875 -0.03125 -0.9375 -0.078125q-0.46875 -0.046875 -0.828125 -0.140625l0 -12.859375q0.703125 -0.109375 1.609375 -0.171875q0.921875 -0.078125 2.0 -0.078125q0.71875 0 1.46875 0.125q0.765625 0.109375 1.375 0.453125q0.625 0.34375 1.015625 0.96875q0.40625 0.609375 0.40625 1.578125zm-4.328125 8.890625q0.609375 0 1.15625 -0.140625q0.5625 -0.140625 0.984375 -0.453125q0.4375 -0.3125 0.6875 -0.75q0.25 -0.453125 0.25 -1.0625q0 -0.765625 -0.3125 -1.234375q-0.296875 -0.46875 -0.796875 -0.734375q-0.484375 -0.265625 -1.109375 -0.34375q-0.609375 -0.09375 -1.234375 -0.09375l-1.609375 0l0 4.671875q0.125 0.046875 0.359375 0.0625q0.25 0.015625 0.53125 0.03125q0.28125 0.015625 0.578125 0.03125q0.296875 0.015625 0.515625 0.015625zm-1.015625 -6.125q0.3125 0 0.75 -0.015625q0.453125 -0.015625 0.75 -0.0625q0.453125 -0.140625 0.84375 -0.359375q0.390625 -0.21875 0.703125 -0.5q0.3125 -0.296875 0.484375 -0.671875q0.171875 -0.390625 0.171875 -0.828125q0 -0.625 -0.234375 -1.015625q-0.234375 -0.40625 -0.625 -0.640625q-0.390625 -0.25 -0.890625 -0.34375q-0.5 -0.109375 -1.03125 -0.109375q-0.609375 0 -1.125 0.03125q-0.515625 0.015625 -0.765625 0.078125l0 4.4375l0.96875 0z" fill-rule="nonzero"/><path fill="#000000" d="m468.79874 99.38088q0 -1.1875 0.609375 -2.046875q0.625 -0.875 1.9375 -1.578125q-0.46875 -0.28125 -0.875 -0.578125q-0.40625 -0.3125 -0.71875 -0.703125q-0.296875 -0.390625 -0.484375 -0.875q-0.171875 -0.5 -0.171875 -1.125q0 -0.734375 0.25 -1.328125q0.265625 -0.59375 0.734375 -1.015625q0.46875 -0.4375 1.125 -0.671875q0.671875 -0.25 1.515625 -0.25q0.78125 0 1.40625 0.234375q0.640625 0.21875 1.078125 0.609375q0.4375 0.390625 0.671875 0.9375q0.25 0.53125 0.25 1.1875q0 1.0625 -0.484375 1.875q-0.484375 0.8125 -1.59375 1.59375q0.484375 0.28125 0.921875 0.625q0.4375 0.328125 0.765625 0.734375q0.328125 0.40625 0.515625 0.921875q0.1875 0.515625 0.1875 1.171875q0 0.796875 -0.265625 1.46875q-0.265625 0.65625 -0.765625 1.140625q-0.5 0.46875 -1.234375 0.734375q-0.734375 0.265625 -1.65625 0.265625q-0.90625 0 -1.59375 -0.25q-0.6875 -0.265625 -1.171875 -0.703125q-0.46875 -0.453125 -0.71875 -1.0625q-0.234375 -0.609375 -0.234375 -1.3125zm6.171875 -0.1875q0 -0.5625 -0.21875 -0.984375q-0.21875 -0.421875 -0.59375 -0.765625q-0.359375 -0.34375 -0.828125 -0.625q-0.46875 -0.28125 -0.96875 -0.546875q-1.140625 0.640625 -1.625 1.421875q-0.484375 0.78125 -0.484375 1.5q0 0.4375 0.140625 0.859375q0.15625 0.40625 0.453125 0.703125q0.3125 0.296875 0.75 0.484375q0.4375 0.171875 1.015625 0.171875q0.46875 0 0.890625 -0.140625q0.4375 -0.140625 0.75 -0.40625q0.328125 -0.28125 0.515625 -0.703125q0.203125 -0.421875 0.203125 -0.96875zm-4.421875 -6.765625q0 0.53125 0.203125 0.9375q0.21875 0.390625 0.5625 0.71875q0.34375 0.3125 0.78125 0.578125q0.453125 0.265625 0.9375 0.515625q0.84375 -0.65625 1.234375 -1.28125q0.40625 -0.640625 0.40625 -1.40625q0 -0.953125 -0.59375 -1.46875q-0.578125 -0.515625 -1.390625 -0.515625q-0.515625 0 -0.90625 0.171875q-0.390625 0.171875 -0.671875 0.4375q-0.28125 0.25 -0.421875 0.609375q-0.140625 0.34375 -0.140625 0.703125z" fill-rule="nonzero"/><path fill="#000000" d="m450.7714 128.40007q-0.546875 0.4375 -1.40625 0.59375q-0.859375 0.171875 -1.828125 0.171875q-1.1875 0 -2.21875 -0.390625q-1.015625 -0.40625 -1.78125 -1.2187424q-0.765625 -0.828125 -1.21875 -2.109375q-0.4375 -1.28125 -0.4375 -3.03125q0 -1.828125 0.484375 -3.09375q0.5 -1.28125 1.3125 -2.09375q0.8125 -0.8125 1.8125 -1.1875q1.015625 -0.375 2.0625 -0.375q1.109375 0 1.8125 0.125q0.71875 0.109375 1.21875 0.328125l-0.359375 1.359375q-0.90625 -0.4375 -2.5625 -0.4375q-0.765625 0 -1.515625 0.28125q-0.734375 0.28125 -1.328125 0.921875q-0.59375 0.625 -0.953125 1.65625q-0.34375 1.03125 -0.34375 2.515625q0 1.34375 0.328125 2.359375q0.34375 1.0 0.921875 1.671875q0.59375 0.671875 1.390625 1.015625q0.796875 0.328125 1.71875 0.328125q0.84375 0 1.46875 -0.171875q0.625 -0.171875 1.0625 -0.421875l0.359375 1.2031174z" fill-rule="nonzero"/><path fill="#000000" d="m471.8925 127.86883q0.640625 0 1.171875 -0.1875q0.546875 -0.1875 0.9375 -0.546875q0.390625 -0.375 0.609375 -0.875q0.234375 -0.5 0.234375 -1.09375q0 -1.3125 -0.78125 -1.9375q-0.765625 -0.640625 -2.125 -0.640625l-1.390625 0l0 -0.546875l2.6875 -4.140625l0.859375 -0.8125l-1.203125 0.1875l-3.703125 0l0 -1.390625l6.671875 0l0 0.546875l-2.96875 4.453125l-0.65625 0.546875l0 0.03125l0.625 -0.125q0.75 0.015625 1.375 0.265625q0.640625 0.25 1.109375 0.734375q0.46875 0.46875 0.734375 1.140625q0.265625 0.65625 0.265625 1.5q0 1.0 -0.359375 1.78125q-0.359375 0.78125 -0.96875 1.3281174q-0.59375 0.53125 -1.421875 0.8125q-0.8125 0.265625 -1.734375 0.265625q-0.84375 0 -1.515625 -0.125q-0.671875 -0.125 -1.171875 -0.34375l0.390625 -1.3124924q0.4375 0.203125 1.015625 0.34375q0.59375 0.140625 1.3125 0.140625z" fill-rule="nonzero"/><path fill="#000000" d="m498.34918 127.86883q0.640625 0 1.171875 -0.1875q0.546875 -0.1875 0.9375 -0.546875q0.390625 -0.375 0.609375 -0.875q0.234375 -0.5 0.234375 -1.09375q0 -1.3125 -0.78125 -1.9375q-0.765625 -0.640625 -2.125 -0.640625l-1.390625 0l0 -0.546875l2.6875 -4.140625l0.859375 -0.8125l-1.203125 0.1875l-3.703125 0l0 -1.390625l6.671875 0l0 0.546875l-2.96875 4.453125l-0.65625 0.546875l0 0.03125l0.625 -0.125q0.75 0.015625 1.375 0.265625q0.640625 0.25 1.109375 0.734375q0.46875 0.46875 0.734375 1.140625q0.265625 0.65625 0.265625 1.5q0 1.0 -0.359375 1.78125q-0.359375 0.78125 -0.96875 1.3281174q-0.59375 0.53125 -1.421875 0.8125q-0.8125 0.265625 -1.734375 0.265625q-0.84375 0 -1.515625 -0.125q-0.671875 -0.125 -1.171875 -0.34375l0.390625 -1.3124924q0.4375 0.203125 1.015625 0.34375q0.59375 0.140625 1.3125 0.140625z" fill-rule="nonzero"/><path fill="#000000" d="m441.6378 142.34114q0.359375 -0.046875 0.796875 -0.078125q0.4375 -0.03125 0.90625 -0.03125q0.484375 -0.015625 0.9375 -0.015625q0.46875 -0.015625 0.859375 -0.015625q1.5625 0 2.703125 0.484375q1.15625 0.484375 1.890625 1.359375q0.75 0.859375 1.109375 2.078125q0.375 1.203125 0.375 2.65625q0 1.328125 -0.34375 2.546875q-0.34375 1.21875 -1.09375 2.171875q-0.75 0.9375 -1.953125 1.515625q-1.1875 0.5625 -2.875 0.5625q-0.296875 0 -0.78125 -0.015625q-0.46875 0 -0.984375 -0.03125q-0.5 -0.03125 -0.9375 -0.046875q-0.421875 -0.015625 -0.609375 -0.0625l0 -13.078125zm3.53125 1.234375q-0.234375 0 -0.53125 0q-0.28125 0 -0.5625 0.015625q-0.28125 0.015625 -0.515625 0.046875q-0.234375 0.015625 -0.359375 0.03125l0 10.453125q0.09375 0.015625 0.34375 0.03125q0.265625 0 0.546875 0.015625q0.28125 0 0.53125 0.015625q0.265625 0 0.359375 0q1.3125 0 2.1875 -0.4375q0.890625 -0.453125 1.421875 -1.203125q0.53125 -0.765625 0.75 -1.734375q0.234375 -0.984375 0.234375 -2.03125q0 -0.90625 -0.203125 -1.828125q-0.203125 -0.9375 -0.71875 -1.671875q-0.5 -0.75 -1.34375 -1.21875q-0.84375 -0.484375 -2.140625 -0.484375z" fill-rule="nonzero"/><path fill="#000000" d="m529.61835 151.46614q0 0.859375 -0.265625 1.625q-0.25 0.75 -0.75 1.328125q-0.5 0.5625 -1.25 0.890625q-0.75 0.3125 -1.703125 0.3125q-0.9375 0 -1.6875 -0.296875q-0.734375 -0.296875 -1.28125 -0.875q-0.53125 -0.59375 -0.828125 -1.453125q-0.28125 -0.859375 -0.28125 -1.984375q0 -1.84375 0.46875 -3.390625q0.484375 -1.5625 1.3125 -2.71875q0.84375 -1.15625 1.984375 -1.875q1.15625 -0.71875 2.5 -0.90625l0.3125 1.1875q-1.046875 0.1875 -1.90625 0.71875q-0.859375 0.515625 -1.5 1.28125q-0.640625 0.765625 -1.0625 1.71875q-0.40625 0.953125 -0.546875 1.953125q0.296875 -0.5 1.0 -0.921875q0.71875 -0.421875 1.734375 -0.421875q1.765625 0 2.75 1.015625q1.0 1.0 1.0 2.8125zm-1.546875 0.15625q0 -1.328125 -0.609375 -2.0q-0.609375 -0.671875 -1.90625 -0.671875q-0.90625 0 -1.578125 0.453125q-0.65625 0.4375 -0.921875 1.0q-0.03125 0.265625 -0.03125 0.4375q0 0.15625 0 0.359375q0 0.578125 0.15625 1.140625q0.15625 0.5625 0.484375 1.0q0.34375 0.4375 0.828125 0.71875q0.5 0.265625 1.171875 0.265625q0.546875 0 0.984375 -0.203125q0.4375 -0.21875 0.75 -0.5625q0.328125 -0.359375 0.5 -0.859375q0.171875 -0.5 0.171875 -1.078125z" fill-rule="nonzero"/><path fill="#000000" d="m555.2313 145.30989q0 0.984375 -0.375 2.03125q-0.359375 1.03125 -0.953125 2.078125q-0.578125 1.046875 -1.3125 2.046875q-0.71875 0.984375 -1.453125 1.890625l-0.90625 0.796875l0 0.078125l1.1875 -0.203125l4.0625 0l0 1.375l-7.421875 0l0 -0.546875q0.40625 -0.421875 0.984375 -1.046875q0.578125 -0.640625 1.203125 -1.40625q0.625 -0.78125 1.234375 -1.640625q0.609375 -0.875 1.09375 -1.765625q0.5 -0.90625 0.796875 -1.78125q0.296875 -0.875 0.296875 -1.65625q0 -0.921875 -0.515625 -1.53125q-0.515625 -0.609375 -1.578125 -0.609375q-0.71875 0 -1.390625 0.296875q-0.671875 0.28125 -1.15625 0.65625l-0.609375 -1.0625q0.65625 -0.5625 1.546875 -0.875q0.890625 -0.3125 1.921875 -0.3125q0.796875 0 1.40625 0.234375q0.625 0.234375 1.046875 0.671875q0.4375 0.421875 0.65625 1.015625q0.234375 0.578125 0.234375 1.265625z" fill-rule="nonzero"/><path fill="#000000" fill-opacity="0.0" d="m452.33347 -2.6234424l93.480316 0l0 42.01575l-93.480316 0z" fill-rule="evenodd"/><path fill="#000000" d="m462.69284 13.0934305l6.09375 0l0 1.1875l-4.765625 0l0 3.828126l4.453125 0l0 1.171875l-4.453125 0l0 5.015625l-1.328125 0l0 -11.203126zm11.928284 4.437501q-0.484375 -0.15625 -0.921875 -0.15625q-0.6875 0 -1.09375 0.375q-0.390625 0.375 -0.484375 0.953125l0 5.59375l-1.28125 0l0 -8.0l0.890625 0l0.25 0.96875l0.0625 0q0.296875 -0.53125 0.71875 -0.828125q0.421875 -0.296875 1.078125 -0.296875q0.46875 0 1.046875 0.15625l-0.265625 1.234375zm1.2056274 2.765625q0 -2.03125 0.90625 -3.109375q0.90625 -1.078125 2.59375 -1.078125q0.90625 0 1.5625 0.296875q0.671875 0.296875 1.09375 0.84375q0.4375 0.546875 0.640625 1.328125q0.21875 0.78125 0.21875 1.71875q0 2.03125 -0.90625 3.109375q-0.90625 1.078125 -2.609375 1.078125q-0.890625 0 -1.5625 -0.296875q-0.65625 -0.296875 -1.09375 -0.84375q-0.421875 -0.546875 -0.640625 -1.328125q-0.203125 -0.78125 -0.203125 -1.71875zm1.328125 0q0 0.609375 0.125 1.171875q0.125 0.5625 0.375 0.984375q0.25 0.40625 0.671875 0.671875q0.421875 0.25 1.0 0.25q2.1875 0.015625 2.1875 -3.078125q0 -0.625 -0.125 -1.1875q-0.125 -0.5625 -0.375 -0.96875q-0.25 -0.421875 -0.671875 -0.671875q-0.421875 -0.25 -1.015625 -0.25q-2.171875 -0.015625 -2.171875 3.078125zm12.388519 4.0l0 -4.53125q0 -0.640625 -0.0625 -1.109375q-0.046875 -0.46875 -0.21875 -0.78125q-0.15625 -0.328125 -0.453125 -0.484375q-0.296875 -0.171875 -0.765625 -0.171875q-0.734375 0 -1.234375 0.453125q-0.484375 0.453125 -0.671875 1.125l0 5.5l-1.28125 0l0 -8.0l0.890625 0l0.25 0.96875l0.0625 0q0.421875 -0.5 0.984375 -0.828125q0.578125 -0.328125 1.484375 -0.328125q0.78125 0 1.265625 0.296875q0.484375 0.296875 0.75 1.03125q0.375 -0.625 1.015625 -0.96875q0.65625 -0.359375 1.46875 -0.359375q0.671875 0 1.140625 0.15625q0.46875 0.140625 0.765625 0.53125q0.296875 0.375 0.4375 1.03125q0.140625 0.65625 0.140625 1.671875l0 4.796875l-1.28125 0l0 -4.8125q0 -0.578125 -0.0625 -1.0q-0.046875 -0.421875 -0.21875 -0.703125q-0.171875 -0.28125 -0.46875 -0.421875q-0.296875 -0.140625 -0.765625 -0.140625q-0.8125 0 -1.265625 0.453125q-0.4375 0.453125 -0.625 1.28125l0 5.34375l-1.28125 0z" fill-rule="nonzero"/><path fill="#000000" d="m515.05743 16.312181q1.203125 1.328125 2.078125 2.015625q0.890625 0.6875 1.671875 1.015625l0 0.421875q-0.890625 0.4375 -1.75 1.125q-0.84375 0.671875 -2.015625 1.96875l-0.703125 0q0.859375 -1.828125 1.796875 -2.8125l-14.53125 0l0 -0.921875l14.53125 0q-0.6875 -0.875 -0.96875 -1.296875q-0.265625 -0.4375 -0.8125 -1.515625l0.703125 0z" fill-rule="nonzero"/><path fill="#000000" fill-opacity="0.0" d="m413.7953 54.272964l41.826782 0l0 42.614174l-41.826782 0z" fill-rule="evenodd"/><path fill="#000000" d="m423.38904 60.61734l-3.484375 0l0 10.015625l-1.328125 0l0 -10.015625l-3.5 0l0 -1.1875l8.3125 0l0 1.1875zm-0.98046875 6.015625q0 -2.03125 0.90625 -3.109375q0.90625 -1.078125 2.59375 -1.078125q0.90625 0 1.5625 0.296875q0.671875 0.296875 1.09375 0.84375q0.4375 0.546875 0.640625 1.328125q0.21875 0.78125 0.21875 1.71875q0 2.03125 -0.90625 3.109375q-0.90625 1.078125 -2.609375 1.078125q-0.890625 0 -1.5625 -0.296875q-0.65625 -0.296875 -1.09375 -0.84375q-0.421875 -0.546875 -0.640625 -1.328125q-0.203125 -0.78125 -0.203125 -1.71875zm1.328125 0q0 0.609375 0.125 1.171875q0.125 0.5625 0.375 0.984375q0.25 0.40625 0.671875 0.671875q0.421875 0.25 1.0 0.25q2.1875 0.015625 2.1875 -3.078125q0 -0.625 -0.125 -1.1875q-0.125 -0.5625 -0.375 -0.96875q-0.25 -0.421875 -0.671875 -0.671875q-0.421875 -0.25 -1.015625 -0.25q-2.171875 -0.015625 -2.171875 3.078125z" fill-rule="nonzero"/><path fill="#000000" d="m420.27042 89.95797l0 -0.59375q0.921875 0.453125 1.28125 0.6875q0.375 0.25 1.125 0.84375l0 -11.53125l0.796875 0l0 11.53125q0.84375 -0.8125 2.40625 -1.546875l0 0.609375q-1.125 1.0 -1.703125 1.71875q-0.578125 0.734375 -0.953125 1.515625l-0.359375 0q-0.28125 -0.671875 -0.875 -1.4375q-0.59375 -0.75 -1.71875 -1.796875z" fill-rule="nonzero"/><path fill="#000000" fill-opacity="0.0" d="m19.920172 48.14844c0 -10.229355 8.292528 -18.521883 18.521883 -18.521883c4.9123077 0 9.623421 1.9514065 13.096947 5.4249325c3.473526 3.473526 5.4249344 8.184639 5.4249344 13.096951c0 10.229351 -8.29253 18.521877 -18.521881 18.521877c-10.229355 0 -18.521883 -8.292526 -18.521883 -18.521877z" fill-rule="evenodd"/><path stroke="#000000" stroke-width="2.1128608923884515" stroke-linejoin="round" stroke-linecap="butt" d="m19.920172 48.14844c0 -10.229355 8.292528 -18.521883 18.521883 -18.521883c4.9123077 0 9.623421 1.9514065 13.096947 5.4249325c3.473526 3.473526 5.4249344 8.184639 5.4249344 13.096951c0 10.229351 -8.29253 18.521877 -18.521881 18.521877c-10.229355 0 -18.521883 -8.292526 -18.521883 -18.521877z" fill-rule="evenodd"/><path fill="#000000" d="m40.66913 52.297817l-6.78125 0l-1.84375 5.109375l-2.15625 0l6.96875 -18.703125l1.0 0l7.0 18.703125l-2.28125 0l-1.90625 -5.109375zm-6.0625 -1.890625l5.40625 0l-2.046875 -5.59375l-0.65625 -2.796875l-0.03125 0l-0.65625 2.84375l-2.015625 5.546875z" fill-rule="nonzero"/><path fill="#000000" fill-opacity="0.0" d="m56.963936 48.14844l17.58323 0" fill-rule="evenodd"/><path stroke="#000000" stroke-width="1.4094488188976377" stroke-linejoin="round" stroke-linecap="butt" d="m56.963936 48.14844l17.58323 0" fill-rule="evenodd"/><path fill="#000000" fill-opacity="0.0" d="m111.31104 48.14844c0 -10.229355 8.292534 -18.521883 18.521889 -18.521883c4.9123077 0 9.623413 1.9514065 13.096939 5.4249325c3.473526 3.473526 5.424942 8.184639 5.424942 13.096951c0 10.229351 -8.292526 18.521877 -18.521881 18.521877c-10.229355 0 -18.521889 -8.292526 -18.521889 -18.521877z" fill-rule="evenodd"/><path stroke="#000000" stroke-width="2.1128608923884515" stroke-linejoin="round" stroke-linecap="butt" d="m111.31104 48.14844c0 -10.229355 8.292534 -18.521883 18.521889 -18.521883c4.9123077 0 9.623413 1.9514065 13.096939 5.4249325c3.473526 3.473526 5.424942 8.184639 5.424942 13.096951c0 10.229351 -8.292526 18.521877 -18.521881 18.521877c-10.229355 0 -18.521889 -8.292526 -18.521889 -18.521877z" fill-rule="evenodd"/><path fill="#000000" d="m134.4169 43.204067q0 0.65625 -0.21875 1.34375q-0.203125 0.6875 -0.625 1.28125q-0.421875 0.59375 -1.078125 1.046875q-0.65625 0.4375 -1.546875 0.671875l0 0.109375q0.796875 0.125 1.515625 0.4375q0.71875 0.3125 1.265625 0.875q0.5625 0.546875 0.90625 1.34375q0.34375 0.78125 0.34375 1.859375q0 1.421875 -0.59375 2.46875q-0.59375 1.03125 -1.5625 1.6875q-0.953125 0.65625 -2.1875 0.96875q-1.234375 0.3125 -2.53125 0.3125q-0.43749237 0 -1.0468674 0q-0.609375 0 -1.265625 -0.046875q-0.65625 -0.03125 -1.3125 -0.09375q-0.65625 -0.0625 -1.15625 -0.1875l0 -18.125q0.96875 -0.15625 2.25 -0.265625q1.296875 -0.109375 2.8281174 -0.109375q1.03125 0 2.09375 0.171875q1.0625 0.171875 1.921875 0.671875q0.875 0.484375 1.4375 1.359375q0.5625 0.859375 0.5625 2.21875zm-6.09375 12.515625q0.84375 0 1.625 -0.1875q0.796875 -0.203125 1.390625 -0.625q0.609375 -0.4375 0.96875 -1.0625q0.359375 -0.640625 0.359375 -1.515625q0 -1.078125 -0.4375 -1.734375q-0.4375 -0.65625 -1.140625 -1.015625q-0.6875 -0.375 -1.5625 -0.5q-0.859375 -0.140625 -1.7343674 -0.140625l-2.28125 0l0 6.609375q0.1875 0.046875 0.515625 0.078125q0.34375 0.015625 0.734375 0.046875q0.40625 0.03125 0.828125 0.046875q0.42186737 0 0.7343674 0zm-1.4531174 -8.625q0.453125 0 1.078125 -0.015625q0.6406174 -0.03125 1.0624924 -0.078125q0.625 -0.21875 1.171875 -0.515625q0.5625 -0.3125 0.984375 -0.71875q0.4375 -0.40625 0.6875 -0.9375q0.25 -0.546875 0.25 -1.171875q0 -0.875 -0.328125 -1.4375q-0.328125 -0.5625 -0.890625 -0.90625q-0.546875 -0.34375 -1.25 -0.484375q-0.703125 -0.140625 -1.453125 -0.140625q-0.8593674 0 -1.5937424 0.046875q-0.71875 0.03125 -1.078125 0.109375l0 6.25l1.359375 0z" fill-rule="nonzero"/><path fill="#000000" fill-opacity="0.0" d="m19.920172 127.07856c0 -10.229355 8.292528 -18.521881 18.521883 -18.521881c4.9123077 0 9.623421 1.9514008 13.096947 5.4249344c3.473526 3.473526 5.4249344 8.184639 5.4249344 13.096947c0 10.229347 -8.29253 18.521873 -18.521881 18.521873c-10.229355 0 -18.521883 -8.292526 -18.521883 -18.521873z" fill-rule="evenodd"/><path stroke="#000000" stroke-width="2.1128608923884515" stroke-linejoin="round" stroke-linecap="butt" d="m19.920172 127.07856c0 -10.229355 8.292528 -18.521881 18.521883 -18.521881c4.9123077 0 9.623421 1.9514008 13.096947 5.4249344c3.473526 3.473526 5.4249344 8.184639 5.4249344 13.096947c0 10.229347 -8.29253 18.521873 -18.521881 18.521873c-10.229355 0 -18.521883 -8.292526 -18.521883 -18.521873z" fill-rule="evenodd"/><path fill="#000000" d="m43.88446 135.57169q-0.78125 0.609375 -2.0 0.84375q-1.203125 0.234375 -2.578125 0.234375q-1.65625 0 -3.109375 -0.5625q-1.4375 -0.5625 -2.515625 -1.71875q-1.078125 -1.15625 -1.71875 -2.953125q-0.625 -1.8125 -0.625 -4.28125q0 -2.578125 0.6875 -4.375q0.703125 -1.8125 1.84375 -2.953125q1.15625 -1.140625 2.578125 -1.65625q1.421875 -0.53125 2.890625 -0.53125q1.578125 0 2.578125 0.171875q1.0 0.171875 1.703125 0.453125l-0.515625 1.921875q-1.265625 -0.609375 -3.609375 -0.609375q-1.078125 0 -2.140625 0.40625q-1.046875 0.390625 -1.875 1.28125q-0.828125 0.890625 -1.328125 2.34375q-0.5 1.4375 -0.5 3.546875q0 1.890625 0.46875 3.3125q0.484375 1.421875 1.3125 2.375q0.828125 0.9375 1.9375 1.421875q1.125 0.46875 2.4375 0.46875q1.1875 0 2.0625 -0.234375q0.890625 -0.25 1.484375 -0.609375l0.53125 1.703125z" fill-rule="nonzero"/><path fill="#000000" fill-opacity="0.0" d="m111.31104 127.07856c0 -10.229355 8.292534 -18.521881 18.521889 -18.521881c4.9123077 0 9.623413 1.9514008 13.096939 5.4249344c3.473526 3.473526 5.424942 8.184639 5.424942 13.096947c0 10.229347 -8.292526 18.521873 -18.521881 18.521873c-10.229355 0 -18.521889 -8.292526 -18.521889 -18.521873z" fill-rule="evenodd"/><path stroke="#000000" stroke-width="2.1128608923884515" stroke-linejoin="round" stroke-linecap="butt" d="m111.31104 127.07856c0 -10.229355 8.292534 -18.521881 18.521889 -18.521881c4.9123077 0 9.623413 1.9514008 13.096939 5.4249344c3.473526 3.473526 5.424942 8.184639 5.424942 13.096947c0 10.229347 -8.292526 18.521873 -18.521881 18.521873c-10.229355 0 -18.521889 -8.292526 -18.521889 -18.521873z" fill-rule="evenodd"/><path fill="#000000" d="m122.839424 117.93106q0.5 -0.078125 1.109375 -0.109375q0.625 -0.046875 1.296875 -0.0625q0.671875 -0.015625 1.3125 -0.03125q0.640625 -0.015625 1.203125 -0.015625q2.2031174 0 3.8124924 0.6875q1.625 0.6875 2.671875 1.90625q1.0625 1.21875 1.5625 2.9375q0.515625 1.703125 0.515625 3.765625q0 1.859375 -0.484375 3.59375q-0.484375 1.71875 -1.53125 3.046875q-1.046875 1.3125 -2.734375 2.125q-1.6875 0.796875 -4.0781174 0.796875q-0.421875 0 -1.09375 -0.015625q-0.671875 -0.015625 -1.390625 -0.0625q-0.703125 -0.03125 -1.3125 -0.0625q-0.59375 -0.015625 -0.859375 -0.0625l0 -18.4375zm4.96875 1.734375q-0.34375 0 -0.75 0q-0.40625 0 -0.796875 0.03125q-0.390625 0.015625 -0.71875 0.046875q-0.328125 0.03125 -0.515625 0.046875l0 14.734375q0.125 0.03125 0.484375 0.046875q0.375 0 0.765625 0.015625q0.40625 0.015625 0.765625 0.03125q0.375 0.015625 0.5 0.015625q1.8437424 0 3.0937424 -0.625q1.25 -0.640625 2.0 -1.703125q0.75 -1.078125 1.0625 -2.453125q0.3125 -1.375 0.3125 -2.84375q0 -1.296875 -0.296875 -2.59375q-0.28125 -1.3125 -1.0 -2.359375q-0.703125 -1.046875 -1.90625 -1.71875q-1.1875 -0.671875 -2.9999924 -0.671875z" fill-rule="nonzero"/><path fill="#000000" fill-opacity="0.0" d="m88.50302 83.25069l28.23893 -21.998863" fill-rule="evenodd"/><path stroke="#000000" stroke-width="1.4094488188976377" stroke-linejoin="round" stroke-linecap="butt" d="m88.50302 83.25069l28.23893 -21.998863" fill-rule="evenodd"/><path fill="#000000" fill-opacity="0.0" d="m88.90933 127.07766l22.395485 0" fill-rule="evenodd"/><path stroke="#000000" stroke-width="1.4094488188976377" stroke-linejoin="round" stroke-linecap="butt" d="m88.90933 127.07767l16.052956 0" fill-rule="evenodd"/><path fill="#000000" stroke="#000000" stroke-width="1.4094488188976377" stroke-linecap="butt" d="m104.96229 128.6362l4.2820435 -1.5585327l-4.2820435 -1.5585403z" fill-rule="evenodd"/><path fill="#000000" fill-opacity="0.0" d="m76.225624 88.33616c0 -3.9720001 3.2199326 -7.1919403 7.1919327 -7.1919403c1.9074173 0 3.7367172 0.75772095 5.0854645 2.1064682c1.3487549 1.3487549 2.1064758 3.1780472 2.1064758 5.085472c0 3.9719925 -3.2199402 7.1919327 -7.1919403 7.1919327c-3.9720001 0 -7.1919327 -3.2199402 -7.1919327 -7.1919327z" fill-rule="evenodd"/><path fill="#000000" d="m82.28522 93.58961q0.578125 0 1.0625 -0.15625q0.5 -0.171875 0.84375 -0.5q0.359375 -0.34375 0.5625 -0.796875q0.203125 -0.453125 0.203125 -1.0q0 -1.171875 -0.703125 -1.75q-0.703125 -0.578125 -1.9375 -0.578125l-1.25 0l0 -0.484375l2.4375 -3.765625l0.78125 -0.734375l-1.09375 0.171875l-3.359375 0l0 -1.25l6.046875 0l0 0.484375l-2.6875 4.046875l-0.59375 0.484375l0 0.03125l0.5625 -0.109375q0.6875 0.015625 1.25 0.25q0.578125 0.21875 1.0 0.65625q0.421875 0.421875 0.65625 1.03125q0.25 0.59375 0.25 1.359375q0 0.90625 -0.328125 1.625q-0.3125 0.703125 -0.875 1.1875q-0.546875 0.484375 -1.296875 0.734375q-0.734375 0.25 -1.5625 0.25q-0.765625 0 -1.375 -0.125q-0.609375 -0.109375 -1.0625 -0.296875l0.359375 -1.203125q0.390625 0.1875 0.921875 0.3125q0.53125 0.125 1.1875 0.125z" fill-rule="nonzero"/><path fill="#000000" fill-opacity="0.0" d="m74.53863 48.14754c0 -5.3008614 2.2847366 -9.598061 5.1031036 -9.598061c1.3534241 0 2.6514206 1.011219 3.6084366 2.8112068c0.957016 1.799984 1.494667 4.241291 1.494667 6.786854c0 5.300865 -2.2847366 9.598064 -5.1031036 9.598064c-2.818367 0 -5.1031036 -4.2971992 -5.1031036 -9.598064z" fill-rule="evenodd"/><path fill="#000000" d="m77.189545 51.55724q0 -1.0625 0.546875 -1.84375q0.5625 -0.78125 1.75 -1.4375q-0.421875 -0.25 -0.796875 -0.53125q-0.359375 -0.28125 -0.640625 -0.625q-0.28125 -0.359375 -0.4375 -0.796875q-0.15625 -0.4375 -0.15625 -1.015625q0 -0.65625 0.21875 -1.1875q0.234375 -0.546875 0.65625 -0.9375q0.4375 -0.390625 1.03125 -0.609375q0.609375 -0.21875 1.375 -0.21875q0.703125 0 1.28125 0.203125q0.578125 0.203125 0.96875 0.5625q0.40625 0.34375 0.625 0.84375q0.21875 0.484375 0.21875 1.078125q0 0.953125 -0.4375 1.6875q-0.4375 0.734375 -1.453125 1.453125q0.4375 0.25 0.828125 0.5625q0.40625 0.296875 0.6875 0.671875q0.296875 0.375 0.46875 0.84375q0.171875 0.453125 0.171875 1.046875q0 0.734375 -0.234375 1.328125q-0.234375 0.59375 -0.703125 1.03125q-0.453125 0.4375 -1.109375 0.6875q-0.65625 0.234375 -1.5 0.234375q-0.8125 0 -1.4375 -0.234375q-0.625 -0.234375 -1.0625 -0.640625q-0.421875 -0.40625 -0.640625 -0.953125q-0.21875 -0.5625 -0.21875 -1.203125zm5.59375 -0.171875q0 -0.5 -0.203125 -0.875q-0.203125 -0.390625 -0.53125 -0.703125q-0.328125 -0.3125 -0.765625 -0.5625q-0.421875 -0.25 -0.875 -0.484375q-1.03125 0.5625 -1.46875 1.28125q-0.4375 0.703125 -0.4375 1.34375q0 0.40625 0.125 0.78125q0.140625 0.375 0.40625 0.65625q0.28125 0.265625 0.671875 0.421875q0.40625 0.15625 0.921875 0.15625q0.421875 0 0.8125 -0.125q0.390625 -0.125 0.6875 -0.359375q0.296875 -0.25 0.46875 -0.625q0.1875 -0.390625 0.1875 -0.90625zm-4.015625 -6.109375q0 0.46875 0.1875 0.84375q0.1875 0.359375 0.5 0.640625q0.3125 0.28125 0.71875 0.53125q0.40625 0.25 0.84375 0.46875q0.765625 -0.59375 1.125 -1.171875q0.359375 -0.578125 0.359375 -1.265625q0 -0.859375 -0.53125 -1.328125q-0.53125 -0.46875 -1.265625 -0.46875q-0.46875 0 -0.828125 0.15625q-0.34375 0.15625 -0.59375 0.390625q-0.25 0.234375 -0.390625 0.546875q-0.125 0.3125 -0.125 0.65625z" fill-rule="nonzero"/><path fill="#000000" fill-opacity="0.0" d="m84.744835 48.14754l26.57315 0" fill-rule="evenodd"/><path stroke="#000000" stroke-width="1.4094488188976377" stroke-linejoin="round" stroke-linecap="butt" d="m84.744835 48.14754l20.230629 0" fill-rule="evenodd"/><path fill="#000000" stroke="#000000" stroke-width="1.4094488188976377" stroke-linecap="butt" d="m104.975464 49.706078l4.2820435 -1.5585365l-4.2820435 -1.5585365z" fill-rule="evenodd"/><path fill="#000000" fill-opacity="0.0" d="m154.69353 105.1033c-5.8831024 0 -11.76622 4.4420776 -11.76622 8.884155" fill-rule="evenodd"/><path stroke="#000000" stroke-width="1.4094488188976377" stroke-linejoin="round" stroke-linecap="butt" d="m154.69353 105.1033c-5.8831024 0 -11.76622 4.4420776 -11.76622 8.884155" fill-rule="evenodd"/><path fill="#000000" fill-opacity="0.0" d="m78.33209 93.42162l-26.78468 20.571053" fill-rule="evenodd"/><path stroke="#000000" stroke-width="1.4094488188976377" stroke-linejoin="round" stroke-linecap="butt" d="m78.332085 93.421616l-21.754486 16.707802" fill-rule="evenodd"/><path fill="#000000" stroke="#000000" stroke-width="1.4094488188976377" stroke-linecap="butt" d="m55.628284 108.89336l-2.4467278 3.8442764l4.345352 -1.3721542z" fill-rule="evenodd"/><path fill="#000000" fill-opacity="0.0" d="m154.69353 105.1033c0 -5.300865 3.936142 -9.598061 8.791611 -9.598061c2.3316803 0 4.567871 1.0112228 6.216614 2.811203c1.6487427 1.7999878 2.5750122 4.241295 2.5750122 6.7868576c0 5.300865 -3.936142 9.598061 -8.791626 9.598061c-4.8554688 0 -8.791611 -4.2971954 -8.791611 -9.598061z" fill-rule="evenodd"/><path fill="#000000" d="m164.1562 102.2005q0 0.890625 -0.34375 1.828125q-0.328125 0.9375 -0.859375 1.890625q-0.53125 0.9375 -1.1875 1.84375q-0.65625 0.90625 -1.3125 1.71875l-0.828125 0.734375l0 0.0625l1.078125 -0.1875l3.6875 0l0 1.25l-6.734375 0l0 -0.484375q0.375 -0.390625 0.890625 -0.96875q0.53125 -0.578125 1.09375 -1.28125q0.5625 -0.703125 1.109375 -1.484375q0.5625 -0.78125 1.0 -1.59375q0.453125 -0.8125 0.71875 -1.609375q0.28125 -0.796875 0.28125 -1.5q0 -0.828125 -0.484375 -1.375q-0.46875 -0.5625 -1.421875 -0.5625q-0.65625 0 -1.265625 0.265625q-0.609375 0.265625 -1.046875 0.609375l-0.546875 -0.96875q0.59375 -0.515625 1.390625 -0.796875q0.8125 -0.28125 1.75 -0.28125q0.71875 0 1.28125 0.21875q0.5625 0.203125 0.953125 0.59375q0.390625 0.375 0.59375 0.921875q0.203125 0.53125 0.203125 1.15625z" fill-rule="nonzero"/><path fill="#000000" fill-opacity="0.0" d="m163.48514 114.70136c0 6.187187 -7.5621033 12.374367 -15.124222 12.374367" fill-rule="evenodd"/><path stroke="#000000" stroke-width="1.4094488188976377" stroke-linejoin="round" stroke-linecap="butt" d="m163.48514 114.70136c0 3.0935822 -1.8905334 6.1871796 -4.726303 8.50737c-0.70895386 0.58005524 -1.4769745 1.111763 -2.289322 1.5830536c-0.40615845 0.23564148 -0.82341003 0.4561844 -1.2498932 0.6601105c-0.21322632 0.10195923 -0.42878723 0.19976044 -0.6464081 0.29323578l-0.010009766 0.004180908" fill-rule="evenodd"/><path fill="#000000" stroke="#000000" stroke-width="1.4094488188976377" stroke-linecap="butt" d="m154.23726 124.225235l-3.8614197 2.4195786l4.5132904 0.62857056z" fill-rule="evenodd"/><path fill="#000000" fill-opacity="0.0" d="m76.95803 127.07766c0 -5.300865 2.6753922 -9.598061 5.9756546 -9.598061c1.5848389 0 3.1047668 1.0112228 4.225418 2.811203c1.1206589 1.7999878 1.7502289 4.241295 1.7502289 6.7868576c0 5.300865 -2.6753922 9.598061 -5.975647 9.598061c-3.3002625 0 -5.9756546 -4.2971954 -5.9756546 -9.598061z" fill-rule="evenodd"/><path fill="#000000" d="m87.02076 129.75299q0 0.765625 -0.234375 1.453125q-0.234375 0.6875 -0.6875 1.203125q-0.453125 0.515625 -1.140625 0.8125q-0.671875 0.296875 -1.53125 0.296875q-0.84375 0 -1.53125 -0.265625q-0.671875 -0.28125 -1.171875 -0.8125q-0.484375 -0.53125 -0.75 -1.296875q-0.25 -0.78125 -0.25 -1.796875q0 -1.6718826 0.421875 -3.0781326q0.4375 -1.421875 1.1875 -2.46875q0.765625 -1.046875 1.8125 -1.703125q1.046875 -0.65625 2.25 -0.8125l0.296875 1.078125q-0.953125 0.171875 -1.734375 0.640625q-0.765625 0.46875 -1.359375 1.171875q-0.578125 0.6875 -0.953125 1.546875q-0.375 0.859375 -0.5 1.78125q0.265625 -0.453125 0.90625 -0.828125q0.640625 -0.390625 1.578125 -0.390625q1.59375 0 2.484375 0.921875q0.90625 0.9062576 0.90625 2.5468826zm-1.390625 0.125q0 -1.1875 -0.5625 -1.796875q-0.5625 -0.6093826 -1.734375 -0.6093826q-0.828125 0 -1.421875 0.40625q-0.59375 0.40625763 -0.84375 0.9062576q-0.03125 0.234375 -0.03125 0.390625q0 0.15625 0 0.34375q0 0.515625 0.140625 1.03125q0.15625 0.5 0.453125 0.90625q0.3125 0.390625 0.75 0.640625q0.453125 0.234375 1.0625 0.234375q0.484375 0 0.875 -0.1875q0.40625 -0.1875 0.6875 -0.5q0.296875 -0.328125 0.453125 -0.78125q0.171875 -0.453125 0.171875 -0.984375z" fill-rule="nonzero"/><path fill="#000000" fill-opacity="0.0" d="m56.963936 127.07856l19.989357 0" fill-rule="evenodd"/><path stroke="#000000" stroke-width="1.4094488188976377" stroke-linejoin="round" stroke-linecap="butt" d="m56.963936 127.07856l19.989357 0" fill-rule="evenodd"/><path fill="#000000" fill-opacity="0.0" d="m18.93109 88.47676c0 -4.4173813 4.2971992 -7.9983826 9.598064 -7.9983826c5.3008633 0 9.5980625 3.5810013 9.5980625 7.9983826c0 4.417389 -4.2971992 7.99839 -9.5980625 7.99839c-5.300865 0 -9.598064 -3.5810013 -9.598064 -7.99839z" fill-rule="evenodd"/><path fill="#000000" d="m27.699957 93.73021q0.578125 0 1.0625 -0.15625q0.5 -0.171875 0.84375 -0.5q0.359375 -0.34375 0.5625 -0.796875q0.203125 -0.453125 0.203125 -1.0q0 -1.171875 -0.703125 -1.75q-0.703125 -0.578125 -1.9375 -0.578125l-1.25 0l0 -0.484375l2.4375 -3.765625l0.78125 -0.734375l-1.09375 0.171875l-3.359375 0l0 -1.25l6.046875 0l0 0.484375l-2.6875 4.046875l-0.59375 0.484375l0 0.03125l0.5625 -0.109375q0.6875 0.015625 1.25 0.25q0.578125 0.21875 1.0 0.65625q0.421875 0.421875 0.65625 1.03125q0.25 0.59375 0.25 1.359375q0 0.90625 -0.328125 1.625q-0.3125 0.703125 -0.875 1.1875q-0.546875 0.484375 -1.296875 0.734375q-0.734375 0.25 -1.5625 0.25q-0.765625 0 -1.375 -0.125q-0.609375 -0.109375 -1.0625 -0.296875l0.359375 -1.203125q0.390625 0.1875 0.921875 0.3125q0.53125 0.125 1.1875 0.125z" fill-rule="nonzero"/><path fill="#000000" fill-opacity="0.0" d="m37.002655 90.134056c0 -3.9719925 4.2971992 -7.1919327 9.598061 -7.1919327c5.300865 0 9.598064 3.2199402 9.598064 7.1919327c0 3.9720001 -4.2971992 7.1919403 -9.598064 7.1919403c-5.3008614 0 -9.598061 -3.2199402 -9.598061 -7.1919403z" fill-rule="evenodd"/><path fill="#000000" d="m43.67777 96.37188l4.25 -9.90625l0.734375 -0.828125l-1.0 0.15625l-4.8125 0l0 -1.25l7.0625 0l0 0.453125l-4.859375 11.375l-1.375 0z" fill-rule="nonzero"/><path fill="#000000" fill-opacity="0.0" d="m28.529154 64.481606l0 15.996773" fill-rule="evenodd"/><path stroke="#000000" stroke-width="1.4094488188976377" stroke-linejoin="round" stroke-linecap="butt" d="m28.529154 64.481606l0 15.996773" fill-rule="evenodd"/><path fill="#000000" fill-opacity="0.0" d="m28.529154 96.47515l-0.42305565 14.621841" fill-rule="evenodd"/><path stroke="#000000" stroke-width="1.4094488188976377" stroke-linejoin="round" stroke-linecap="butt" d="m28.529154 96.47515l-0.23962402 8.281975" fill-rule="evenodd"/><path fill="#000000" stroke="#000000" stroke-width="1.4094488188976377" stroke-linecap="butt" d="m26.731646 104.71205l1.434042 4.325325l1.6817265 -4.235176z" fill-rule="evenodd"/><path fill="#000000" fill-opacity="0.0" d="m46.600716 82.94212l-0.4494934 -18.667313" fill-rule="evenodd"/><path stroke="#000000" stroke-width="1.4094488188976377" stroke-linejoin="round" stroke-linecap="butt" d="m46.600716 82.942116l-0.29681778 -12.326622" fill-rule="evenodd"/><path fill="#000000" stroke="#000000" stroke-width="1.4094488188976377" stroke-linecap="butt" d="m47.861984 70.57798l-1.6611633 -4.243286l-1.4550056 4.318321z" fill-rule="evenodd"/><path fill="#000000" fill-opacity="0.0" d="m46.59117 97.30314l0.1057663 14.119469" fill-rule="evenodd"/><path stroke="#000000" stroke-width="1.4094488188976377" stroke-linejoin="round" stroke-linecap="butt" d="m46.59117 97.30314l0.1057663 14.119469" fill-rule="evenodd"/></g></svg>