<svg version="1.1" viewBox="0.0 0.0 1325.3858267716535 516.5380577427821" fill="none" stroke="none" stroke-linecap="square" stroke-miterlimit="10" xmlns:xlink="http://www.w3.org/1999/xlink" xmlns="http://www.w3.org/2000/svg"><clipPath id="p.0"><path d="m0 0l1325.3859 0l0 516.5381l-1325.3859 0l0 -516.5381z" clip-rule="nonzero"/></clipPath><g clip-path="url(#p.0)"><path fill="#000000" fill-opacity="0.0" d="m0 0l1325.3859 0l0 516.5381l-1325.3859 0z" fill-rule="evenodd"/><path fill="#000000" fill-opacity="0.0" d="m1116.1638 38.993893c0 -14.507259 11.760376 -26.267717 26.2677 -26.267717c6.966675 0 13.647949 2.7674837 18.574097 7.693636c4.9261475 4.926153 7.6936035 11.607449 7.6936035 18.574081c0 14.507259 -11.760498 26.26772 -26.2677 26.26772c-14.507324 0 -26.2677 -11.76046 -26.2677 -26.26772z" fill-rule="evenodd"/><path stroke="#000000" stroke-width="3.0" stroke-linejoin="round" stroke-linecap="butt" d="m1116.1638 38.993893c0 -14.507259 11.760376 -26.267717 26.2677 -26.267717c6.966675 0 13.647949 2.7674837 18.574097 7.693636c4.9261475 4.926153 7.6936035 11.607449 7.6936035 18.574081c0 14.507259 -11.760498 26.26772 -26.2677 26.26772c-14.507324 0 -26.2677 -11.76046 -26.2677 -26.26772z" fill-rule="evenodd"/><path fill="#000000" d="m1145.6106 45.099514l-9.640625 0l-2.609375 7.234375l-3.0625 0l9.890625 -26.546875l1.421875 0l9.921875 26.546875l-3.234375 0l-2.6875 -7.234375zm-8.625 -2.6875l7.6875 0l-2.90625 -7.953125l-0.9375 -3.96875l-0.046875 0l-0.921875 4.03125l-2.875 7.890625z" fill-rule="nonzero"/><path fill="#000000" fill-opacity="0.0" d="m1190.8942 117.53425c0 -14.507256 11.760498 -26.267715 26.2677 -26.267715c6.966675 0 13.647949 2.7674866 18.574097 7.693634c4.9261475 4.926155 7.6936035 11.607452 7.6936035 18.574081c0 14.507256 -11.760376 26.267723 -26.2677 26.267723c-14.507202 0 -26.2677 -11.760468 -26.2677 -26.267723z" fill-rule="evenodd"/><path stroke="#000000" stroke-width="3.0" stroke-linejoin="round" stroke-linecap="butt" d="m1190.8942 117.53425c0 -14.507256 11.760498 -26.267715 26.2677 -26.267715c6.966675 0 13.647949 2.7674866 18.574097 7.693634c4.9261475 4.926155 7.6936035 11.607452 7.6936035 18.574081c0 14.507256 -11.760376 26.267723 -26.2677 26.267723c-14.507202 0 -26.2677 -11.760468 -26.2677 -26.267723z" fill-rule="evenodd"/><path fill="#000000" d="m1207.7361 104.749245q0.703125 -0.109375 1.578125 -0.171875q0.890625 -0.0625 1.84375 -0.078125q0.953125 -0.015625 1.859375 -0.03125q0.921875 -0.015625 1.703125 -0.015625q3.125 0 5.421875 0.96875q2.296875 0.96875 3.78125 2.703125q1.5 1.734375 2.234375 4.171875q0.734375 2.421875 0.734375 5.328125q0 2.65625 -0.703125 5.09375q-0.6875 2.4375 -2.1875 4.328125q-1.484375 1.8906326 -3.875 3.0312576q-2.390625 1.140625 -5.78125 1.140625q-0.59375 0 -1.546875 -0.03125q-0.953125 -0.015625 -1.96875 -0.078125q-1.0 -0.046875 -1.859375 -0.09375q-0.859375 -0.03125 -1.234375 -0.109375l0 -26.156258zm7.0625 2.453125q-0.484375 0 -1.078125 0q-0.578125 0 -1.140625 0.046875q-0.546875 0.03125 -1.015625 0.078125q-0.46875 0.03125 -0.734375 0.0625l0 20.906258q0.1875 0.046875 0.703125 0.0625q0.53125 0.015625 1.09375 0.03125q0.5625 0.015625 1.078125 0.046875q0.53125 0.015625 0.71875 0.015625q2.609375 0 4.375 -0.8906326q1.78125 -0.90625 2.84375 -2.40625q1.0625 -1.515625 1.5 -3.46875q0.453125 -1.96875 0.453125 -4.0625q0 -1.828125 -0.40625 -3.671875q-0.40625 -1.859375 -1.421875 -3.34375q-1.0 -1.5 -2.703125 -2.453125q-1.703125 -0.953125 -4.265625 -0.953125z" fill-rule="nonzero"/><path fill="#000000" fill-opacity="0.0" d="m1161.0056 57.567974l56.15747 33.700787" fill-rule="evenodd"/><path stroke="#000000" stroke-width="2.0" stroke-linejoin="round" stroke-linecap="butt" d="m1161.0056 57.567974l50.280273 30.173862" fill-rule="evenodd"/><path fill="#000000" stroke="#000000" stroke-width="2.0" stroke-linecap="butt" d="m1211.2859 87.74184l-3.0858154 0.7712021l6.4559326 1.2512283l-4.1412354 -5.10833z" fill-rule="evenodd"/><path fill="#000000" fill-opacity="0.0" d="m1041.6187 117.59856c0 -14.507263 11.760376 -26.267723 26.2677 -26.267723c6.9665527 0 13.647827 2.7674866 18.574097 7.6936417c4.9261475 4.9261475 7.6936035 11.607445 7.6936035 18.574081c0 14.507263 -11.760498 26.267715 -26.2677 26.267715c-14.507324 0 -26.2677 -11.760452 -26.2677 -26.267715z" fill-rule="evenodd"/><path stroke="#000000" stroke-width="3.0" stroke-linejoin="round" stroke-linecap="butt" d="m1041.6187 117.59856c0 -14.507263 11.760376 -26.267723 26.2677 -26.267723c6.9665527 0 13.647827 2.7674866 18.574097 7.6936417c4.9261475 4.9261475 7.6936035 11.607445 7.6936035 18.574081c0 14.507263 -11.760498 26.267715 -26.2677 26.267715c-14.507324 0 -26.2677 -11.760452 -26.2677 -26.267715z" fill-rule="evenodd"/><path fill="#000000" d="m1074.3965 110.7823q0 0.9375 -0.296875 1.90625q-0.296875 0.96875 -0.890625 1.8125q-0.59375 0.828125 -1.53125 1.46875q-0.9375 0.640625 -2.203125 0.96875l0 0.15625q1.125 0.1875 2.140625 0.640625q1.03125 0.4375 1.8125 1.21875q0.78125 0.78125 1.265625 1.90625q0.484375 1.125 0.484375 2.65625q0 2.015625 -0.84375 3.484375q-0.828125 1.46875 -2.203125 2.40625q-1.359375 0.9375 -3.109375 1.390625q-1.75 0.4375 -3.578125 0.4375q-0.640625 0 -1.5 0q-0.859375 0 -1.796875 -0.0625q-0.921875 -0.046875 -1.859375 -0.140625q-0.9375 -0.09375 -1.640625 -0.28125l0 -25.71875q1.375 -0.21875 3.203125 -0.359375q1.84375 -0.15625 4.0 -0.15625q1.453125 0 2.96875 0.25q1.515625 0.234375 2.734375 0.921875q1.234375 0.6875 2.03125 1.921875q0.8125 1.234375 0.8125 3.171875zm-8.65625 17.765625q1.1875 0 2.3125 -0.28125q1.125 -0.28125 1.984375 -0.890625q0.859375 -0.625 1.359375 -1.515625q0.5 -0.890625 0.5 -2.125q0 -1.53125 -0.625 -2.453125q-0.609375 -0.9375 -1.59375 -1.453125q-0.984375 -0.53125 -2.21875 -0.71875q-1.234375 -0.1875 -2.46875 -0.1875l-3.25 0l0 9.359375q0.265625 0.078125 0.75 0.125q0.484375 0.03125 1.046875 0.078125q0.5625 0.03125 1.15625 0.046875q0.59375 0.015625 1.046875 0.015625zm-2.046875 -12.234375q0.625 0 1.515625 -0.03125q0.90625 -0.046875 1.5 -0.125q0.890625 -0.296875 1.671875 -0.71875q0.796875 -0.4375 1.40625 -1.015625q0.625 -0.578125 0.96875 -1.34375q0.359375 -0.765625 0.359375 -1.65625q0 -1.234375 -0.46875 -2.03125q-0.46875 -0.8125 -1.25 -1.296875q-0.78125 -0.484375 -1.796875 -0.6875q-1.0 -0.203125 -2.046875 -0.203125q-1.234375 0 -2.265625 0.0625q-1.015625 0.046875 -1.546875 0.15625l0 8.890625l1.953125 0z" fill-rule="nonzero"/><path fill="#000000" fill-opacity="0.0" d="m1190.8931 201.83047c0 -14.507248 11.760376 -26.267715 26.2677 -26.267715c6.966675 0 13.647949 2.7674866 18.574097 7.693634c4.9261475 4.9261627 7.6936035 11.607452 7.6936035 18.574081c0 14.507263 -11.760498 26.267715 -26.2677 26.267715c-14.507324 0 -26.2677 -11.760452 -26.2677 -26.267715z" fill-rule="evenodd"/><path stroke="#000000" stroke-width="3.0" stroke-linejoin="round" stroke-linecap="butt" d="m1190.8931 201.83047c0 -14.507248 11.760376 -26.267715 26.2677 -26.267715c6.966675 0 13.647949 2.7674866 18.574097 7.693634c4.9261475 4.9261627 7.6936035 11.607452 7.6936035 18.574081c0 14.507263 -11.760498 26.267715 -26.2677 26.267715c-14.507324 0 -26.2677 -11.760452 -26.2677 -26.267715z" fill-rule="evenodd"/><path fill="#000000" d="m1208.8169 189.04547l14.21875 0l0 2.75l-11.125 0l0 8.5625l10.203125 0l0 2.75l-10.203125 0l0 9.296875l11.3125 0l0 2.765625l-14.40625 0l0 -26.125z" fill-rule="nonzero"/><path fill="#000000" fill-opacity="0.0" d="m1093.8367 202.9171c0 -14.507263 11.760376 -26.267715 26.2677 -26.267715c6.9665527 0 13.647827 2.7674713 18.574097 7.693634c4.9261475 4.9261475 7.6936035 11.607437 7.6936035 18.574081c0 14.507248 -11.760498 26.267715 -26.2677 26.267715c-14.507324 0 -26.2677 -11.760468 -26.2677 -26.267715z" fill-rule="evenodd"/><path stroke="#000000" stroke-width="3.0" stroke-linejoin="round" stroke-linecap="butt" d="m1093.8367 202.9171c0 -14.507263 11.760376 -26.267715 26.2677 -26.267715c6.9665527 0 13.647827 2.7674713 18.574097 7.693634c4.9261475 4.9261475 7.6936035 11.607437 7.6936035 18.574081c0 14.507248 -11.760498 26.267715 -26.2677 26.267715c-14.507324 0 -26.2677 -11.760468 -26.2677 -26.267715z" fill-rule="evenodd"/><path fill="#000000" d="m1112.115 190.1321l14.21875 0l0 2.75l-11.125 0l0 8.921875l10.375 0l0 2.765625l-10.375 0l0 11.6875l-3.09375 0l0 -26.125z" fill-rule="nonzero"/><path fill="#000000" fill-opacity="0.0" d="m996.7789 201.83047c0 -14.507248 11.760437 -26.267715 26.2677 -26.267715c6.966614 0 13.647888 2.7674866 18.574036 7.693634c4.9262695 4.9261627 7.6937256 11.607452 7.6937256 18.574081c0 14.507263 -11.760498 26.267715 -26.267761 26.267715c-14.507263 0 -26.2677 -11.760452 -26.2677 -26.267715z" fill-rule="evenodd"/><path stroke="#000000" stroke-width="3.0" stroke-linejoin="round" stroke-linecap="butt" d="m996.7789 201.83047c0 -14.507248 11.760437 -26.267715 26.2677 -26.267715c6.966614 0 13.647888 2.7674866 18.574036 7.693634c4.9262695 4.9261627 7.6937256 11.607452 7.6937256 18.574081c0 14.507263 -11.760498 26.267715 -26.267761 26.267715c-14.507263 0 -26.2677 -11.760452 -26.2677 -26.267715z" fill-rule="evenodd"/><path fill="#000000" d="m1030.7682 214.09235q-1.109375 0.859375 -2.828125 1.1875q-1.71875 0.34375 -3.65625 0.34375q-2.359375 0 -4.421875 -0.796875q-2.046875 -0.8125 -3.578125 -2.453125q-1.53125 -1.640625 -2.421875 -4.203125q-0.890625 -2.5625 -0.890625 -6.0625q0 -3.65625 0.984375 -6.21875q0.984375 -2.5625 2.609375 -4.171875q1.625 -1.625 3.640625 -2.375q2.015625 -0.75 4.109375 -0.75q2.234375 0 3.65625 0.25q1.421875 0.234375 2.421875 0.640625l-0.734375 2.734375q-1.796875 -0.859375 -5.125 -0.859375q-1.53125 0 -3.03125 0.5625q-1.484375 0.546875 -2.65625 1.828125q-1.171875 1.265625 -1.890625 3.328125q-0.703125 2.046875 -0.703125 5.03125q0 2.6875 0.671875 4.703125q0.671875 2.015625 1.84375 3.359375q1.1875 1.34375 2.765625 2.015625q1.59375 0.671875 3.453125 0.671875q1.6875 0 2.9375 -0.328125q1.25 -0.34375 2.109375 -0.875l0.734375 2.4375z" fill-rule="nonzero"/><path fill="#000000" fill-opacity="0.0" d="m1086.4604 136.17264l33.637695 40.472443" fill-rule="evenodd"/><path stroke="#000000" stroke-width="2.0" stroke-linejoin="round" stroke-linecap="butt" d="m1086.4603 136.17264l29.256836 35.201202" fill-rule="evenodd"/><path fill="#000000" stroke="#000000" stroke-width="2.0" stroke-linecap="butt" d="m1115.7172 171.37384l-3.1673584 -0.292099l5.6795654 3.3147736l-2.2202148 -6.190033z" fill-rule="evenodd"/><path fill="#000000" fill-opacity="0.0" d="m1049.3123 136.17264l-26.267761 39.401566" fill-rule="evenodd"/><path stroke="#000000" stroke-width="2.0" stroke-linejoin="round" stroke-linecap="butt" d="m1049.3123 136.17264l-22.465698 33.698563" fill-rule="evenodd"/><path fill="#000000" stroke="#000000" stroke-width="2.0" stroke-linecap="butt" d="m1026.8466 169.87119l-0.6237793 -3.1190338l-1.5563965 6.3892975l5.2991943 -3.8940582z" fill-rule="evenodd"/><path fill="#000000" fill-opacity="0.0" d="m1217.1619 143.80197l0 31.748032" fill-rule="evenodd"/><path stroke="#000000" stroke-width="2.0" stroke-linejoin="round" stroke-linecap="butt" d="m1217.1619 143.80197l0 24.893845" fill-rule="evenodd"/><path fill="#000000" stroke="#000000" stroke-width="2.0" stroke-linecap="butt" d="m1217.1619 168.69582l-2.2491455 -2.2491608l2.2491455 6.179535l2.2492676 -6.179535z" fill-rule="evenodd"/><path fill="#000000" fill-opacity="0.0" d="m1123.8574 57.567974l-55.968506 33.763775" fill-rule="evenodd"/><path stroke="#000000" stroke-width="2.0" stroke-linejoin="round" stroke-linecap="butt" d="m1123.8574 57.567974l-50.099487 30.223263" fill-rule="evenodd"/><path fill="#000000" stroke="#000000" stroke-width="2.0" stroke-linecap="butt" d="m1073.7579 87.79124l0.7640381 -3.0876694l-4.1295166 5.117897l6.453125 -1.2661667z" fill-rule="evenodd"/><path fill="#000000" fill-opacity="0.0" d="m93.544876 206.77165c0 -14.507263 11.760452 -26.267715 26.267715 -26.267715c6.966629 0 13.647919 2.7674866 18.574081 7.693634c4.9261475 4.9261475 7.693634 11.607452 7.693634 18.574081c0 14.507263 -11.760452 26.267715 -26.267715 26.267715c-14.507263 0 -26.267715 -11.760452 -26.267715 -26.267715z" fill-rule="evenodd"/><path stroke="#000000" stroke-width="3.0" stroke-linejoin="round" stroke-linecap="butt" d="m93.544876 206.77165c0 -14.507263 11.760452 -26.267715 26.267715 -26.267715c6.966629 0 13.647919 2.7674866 18.574081 7.693634c4.9261475 4.9261475 7.693634 11.607452 7.693634 18.574081c0 14.507263 -11.760452 26.267715 -26.267715 26.267715c-14.507263 0 -26.267715 -11.760452 -26.267715 -26.267715z" fill-rule="evenodd"/><path fill="#000000" d="m122.99165 212.87727l-9.640625 0l-2.609375 7.234375l-3.0625 0l9.890625 -26.546875l1.421875 0l9.921875 26.546875l-3.234375 0l-2.6875 -7.234375zm-8.625 -2.6875l7.6875 0l-2.90625 -7.953125l-0.9375 -3.96875l-0.046875 0l-0.921875 4.03125l-2.875 7.890625z" fill-rule="nonzero"/><path fill="#000000" fill-opacity="0.0" d="m235.25223 206.77165c0 -14.507263 11.760452 -26.267715 26.2677 -26.267715c6.9666443 0 13.647949 2.7674866 18.574097 7.693634c4.9261475 4.9261475 7.693634 11.607452 7.693634 18.574081c0 14.507263 -11.760468 26.267715 -26.26773 26.267715c-14.507248 0 -26.2677 -11.760452 -26.2677 -26.267715z" fill-rule="evenodd"/><path stroke="#000000" stroke-width="3.0" stroke-linejoin="round" stroke-linecap="butt" d="m235.25223 206.77165c0 -14.507263 11.760452 -26.267715 26.2677 -26.267715c6.9666443 0 13.647949 2.7674866 18.574097 7.693634c4.9261475 4.9261475 7.693634 11.607452 7.693634 18.574081c0 14.507263 -11.760468 26.267715 -26.26773 26.267715c-14.507248 0 -26.2677 -11.760452 -26.2677 -26.267715z" fill-rule="evenodd"/><path fill="#000000" d="m268.03015 199.9554q0 0.9375 -0.296875 1.90625q-0.296875 0.96875 -0.890625 1.8125q-0.59375 0.828125 -1.53125 1.46875q-0.9375 0.640625 -2.203125 0.96875l0 0.15625q1.125 0.1875 2.140625 0.640625q1.03125 0.4375 1.8125 1.21875q0.78125 0.78125 1.265625 1.90625q0.484375 1.125 0.484375 2.65625q0 2.015625 -0.84375 3.484375q-0.828125 1.46875 -2.203125 2.40625q-1.359375 0.9375 -3.109375 1.390625q-1.75 0.4375 -3.578125 0.4375q-0.640625 0 -1.5 0q-0.859375 0 -1.7968597 -0.0625q-0.921875 -0.046875 -1.859375 -0.140625q-0.9375 -0.09375 -1.640625 -0.28125l0 -25.71875q1.375 -0.21875 3.203125 -0.359375q1.8437347 -0.15625 3.9999847 -0.15625q1.453125 0 2.96875 0.25q1.515625 0.234375 2.734375 0.921875q1.234375 0.6875 2.03125 1.921875q0.8125 1.234375 0.8125 3.171875zm-8.65625 17.765625q1.1875 0 2.3125 -0.28125q1.125 -0.28125 1.984375 -0.890625q0.859375 -0.625 1.359375 -1.515625q0.5 -0.890625 0.5 -2.125q0 -1.53125 -0.625 -2.453125q-0.609375 -0.9375 -1.59375 -1.453125q-0.984375 -0.53125 -2.21875 -0.71875q-1.234375 -0.1875 -2.46875 -0.1875l-3.2499847 0l0 9.359375q0.265625 0.078125 0.74998474 0.125q0.484375 0.03125 1.046875 0.078125q0.5625 0.03125 1.15625 0.046875q0.59375 0.015625 1.046875 0.015625zm-2.046875 -12.234375q0.625 0 1.515625 -0.03125q0.90625 -0.046875 1.5 -0.125q0.890625 -0.296875 1.671875 -0.71875q0.796875 -0.4375 1.40625 -1.015625q0.625 -0.578125 0.96875 -1.34375q0.359375 -0.765625 0.359375 -1.65625q0 -1.234375 -0.46875 -2.03125q-0.46875 -0.8125 -1.25 -1.296875q-0.78125 -0.484375 -1.796875 -0.6875q-1.0 -0.203125 -2.046875 -0.203125q-1.234375 0 -2.265625 0.0625q-1.0156097 0.046875 -1.5468597 0.15625l0 8.890625l1.9531097 0z" fill-rule="nonzero"/><path fill="#000000" fill-opacity="0.0" d="m165.1761 310.11285c0 -14.507263 11.760468 -26.2677 26.267715 -26.2677c6.9666443 0 13.647934 2.7674866 18.574081 7.693634c4.9261627 4.9261475 7.693634 11.607452 7.693634 18.574066c0 14.507263 -11.760452 26.26773 -26.267715 26.26773c-14.507248 0 -26.267715 -11.760468 -26.267715 -26.26773z" fill-rule="evenodd"/><path stroke="#000000" stroke-width="3.0" stroke-linejoin="round" stroke-linecap="butt" d="m165.1761 310.11285c0 -14.507263 11.760468 -26.2677 26.267715 -26.2677c6.9666443 0 13.647934 2.7674866 18.574081 7.693634c4.9261627 4.9261475 7.693634 11.607452 7.693634 18.574066c0 14.507263 -11.760452 26.26773 -26.267715 26.26773c-14.507248 0 -26.267715 -11.760468 -26.267715 -26.26773z" fill-rule="evenodd"/><path fill="#000000" d="m183.09993 297.32785l14.21875 0l0 2.75l-11.125 0l0 8.5625l10.203125 0l0 2.75l-10.203125 0l0 9.296875l11.3125 0l0 2.765625l-14.40625 0l0 -26.125z" fill-rule="nonzero"/><path fill="#000000" fill-opacity="0.0" d="m138.38667 225.34573l34.48819 66.20471" fill-rule="evenodd"/><path stroke="#000000" stroke-width="2.0" stroke-linejoin="round" stroke-linecap="butt" d="m138.38667 225.34573l34.48819 66.20471" fill-rule="evenodd"/><path fill="#000000" fill-opacity="0.0" d="m301.07898 310.11285c0 -14.507263 11.760468 -26.2677 26.26773 -26.2677c6.9666443 0 13.647919 2.7674866 18.574066 7.693634c4.926178 4.9261475 7.6936646 11.607452 7.6936646 18.574066c0 14.507263 -11.760468 26.26773 -26.26773 26.26773c-14.507263 0 -26.26773 -11.760468 -26.26773 -26.26773z" fill-rule="evenodd"/><path stroke="#000000" stroke-width="3.0" stroke-linejoin="round" stroke-linecap="butt" d="m301.07898 310.11285c0 -14.507263 11.760468 -26.2677 26.26773 -26.2677c6.9666443 0 13.647919 2.7674866 18.574066 7.693634c4.926178 4.9261475 7.6936646 11.607452 7.6936646 18.574066c0 14.507263 -11.760468 26.26773 -26.26773 26.26773c-14.507263 0 -26.26773 -11.760468 -26.26773 -26.26773z" fill-rule="evenodd"/><path fill="#000000" d="m319.35742 297.32785l14.21875 0l0 2.75l-11.125 0l0 8.921875l10.375 0l0 2.765625l-10.375 0l0 11.6875l-3.09375 0l0 -26.125z" fill-rule="nonzero"/><path fill="#000000" fill-opacity="0.0" d="m373.00418 206.77165c0 -14.507263 11.760468 -26.267715 26.26773 -26.267715c6.966614 0 13.647919 2.7674866 18.574066 7.693634c4.9261475 4.9261475 7.693634 11.607452 7.693634 18.574081c0 14.507263 -11.760437 26.267715 -26.2677 26.267715c-14.507263 0 -26.26773 -11.760452 -26.26773 -26.267715z" fill-rule="evenodd"/><path stroke="#000000" stroke-width="3.0" stroke-linejoin="round" stroke-linecap="butt" d="m373.00418 206.77165c0 -14.507263 11.760468 -26.267715 26.26773 -26.267715c6.966614 0 13.647919 2.7674866 18.574066 7.693634c4.9261475 4.9261475 7.693634 11.607452 7.693634 18.574081c0 14.507263 -11.760437 26.267715 -26.2677 26.267715c-14.507263 0 -26.26773 -11.760452 -26.26773 -26.267715z" fill-rule="evenodd"/><path fill="#000000" d="m406.99353 219.03352q-1.109375 0.859375 -2.828125 1.1875q-1.71875 0.34375 -3.65625 0.34375q-2.359375 0 -4.421875 -0.796875q-2.046875 -0.8125 -3.578125 -2.453125q-1.53125 -1.640625 -2.421875 -4.203125q-0.890625 -2.5625 -0.890625 -6.0625q0 -3.65625 0.984375 -6.21875q0.984375 -2.5625 2.609375 -4.171875q1.625 -1.625 3.640625 -2.375q2.015625 -0.75 4.109375 -0.75q2.234375 0 3.65625 0.25q1.421875 0.234375 2.421875 0.640625l-0.734375 2.734375q-1.796875 -0.859375 -5.125 -0.859375q-1.53125 0 -3.03125 0.5625q-1.484375 0.546875 -2.65625 1.828125q-1.171875 1.265625 -1.890625 3.328125q-0.703125 2.046875 -0.703125 5.03125q0 2.6875 0.671875 4.703125q0.671875 2.015625 1.84375 3.359375q1.1875 1.34375 2.765625 2.015625q1.59375 0.671875 3.453125 0.671875q1.6875 0 2.9375 -0.328125q1.25 -0.34375 2.109375 -0.875l0.734375 2.4375z" fill-rule="nonzero"/><path fill="#000000" fill-opacity="0.0" d="m19.845398 310.11285c0 -14.507263 11.760458 -26.2677 26.267715 -26.2677c6.966633 0 13.64793 2.7674866 18.574081 7.693634c4.926155 4.9261475 7.693634 11.607452 7.693634 18.574066c0 14.507263 -11.760456 26.26773 -26.267715 26.26773c-14.507257 0 -26.267715 -11.760468 -26.267715 -26.26773z" fill-rule="evenodd"/><path stroke="#000000" stroke-width="3.0" stroke-linejoin="round" stroke-linecap="butt" d="m19.845398 310.11285c0 -14.507263 11.760458 -26.2677 26.267715 -26.2677c6.966633 0 13.64793 2.7674866 18.574081 7.693634c4.926155 4.9261475 7.693634 11.607452 7.693634 18.574066c0 14.507263 -11.760456 26.26773 -26.267715 26.26773c-14.507257 0 -26.267715 -11.760468 -26.267715 -26.26773z" fill-rule="evenodd"/><path fill="#000000" d="m36.68731 297.32785q0.703125 -0.109375 1.578125 -0.171875q0.890625 -0.0625 1.84375 -0.078125q0.953125 -0.015625 1.859375 -0.03125q0.921875 -0.015625 1.703125 -0.015625q3.125 0 5.421875 0.96875q2.296875 0.96875 3.78125 2.703125q1.5 1.734375 2.234375 4.171875q0.734375 2.421875 0.734375 5.328125q0 2.65625 -0.703125 5.09375q-0.6875 2.4375 -2.1875 4.328125q-1.484375 1.890625 -3.875 3.03125q-2.390625 1.140625 -5.78125 1.140625q-0.59375 0 -1.546875 -0.03125q-0.953125 -0.015625 -1.96875 -0.078125q-1.0 -0.046875 -1.859375 -0.09375q-0.859375 -0.03125 -1.234375 -0.109375l0 -26.15625zm7.0625 2.453125q-0.484375 0 -1.078125 0q-0.578125 0 -1.140625 0.046875q-0.546875 0.03125 -1.015625 0.078125q-0.46875 0.03125 -0.734375 0.0625l0 20.90625q0.1875 0.046875 0.703125 0.0625q0.53125 0.015625 1.09375 0.03125q0.5625 0.015625 1.078125 0.046875q0.53125 0.015625 0.71875 0.015625q2.609375 0 4.375 -0.890625q1.78125 -0.90625 2.84375 -2.40625q1.0625 -1.515625 1.5 -3.46875q0.453125 -1.96875 0.453125 -4.0625q0 -1.828125 -0.40625 -3.671875q-0.40625 -1.859375 -1.421875 -3.34375q-1.0 -1.5 -2.703125 -2.453125q-1.703125 -0.953125 -4.265625 -0.953125z" fill-rule="nonzero"/><path fill="#000000" fill-opacity="0.0" d="m101.23851 225.34573l-36.566933 66.20471" fill-rule="evenodd"/><path stroke="#000000" stroke-width="2.0" stroke-linejoin="round" stroke-linecap="butt" d="m101.23851 225.34573l-36.566933 66.20471" fill-rule="evenodd"/><path fill="#000000" fill-opacity="0.0" d="m217.71153 310.11285l83.37007 0" fill-rule="evenodd"/><path stroke="#000000" stroke-width="2.0" stroke-linejoin="round" stroke-linecap="butt" d="m217.71153 310.11285l83.37007 0" fill-rule="evenodd"/><path fill="#000000" fill-opacity="0.0" d="m308.77264 291.5388l-28.692932 -66.20473" fill-rule="evenodd"/><path stroke="#000000" stroke-width="2.0" stroke-linejoin="round" stroke-linecap="butt" d="m308.77264 291.5388l-28.692932 -66.20473" fill-rule="evenodd"/><path fill="#000000" fill-opacity="0.0" d="m345.92078 291.5388l34.771667 -66.20473" fill-rule="evenodd"/><path stroke="#000000" stroke-width="2.0" stroke-linejoin="round" stroke-linecap="butt" d="m345.92078 291.5388l34.771667 -66.20473" fill-rule="evenodd"/><path fill="#000000" fill-opacity="0.0" d="m146.0803 206.77165l89.16536 0" fill-rule="evenodd"/><path stroke="#000000" stroke-width="2.0" stroke-linejoin="round" stroke-linecap="butt" d="m146.0803 206.77165l89.16536 0" fill-rule="evenodd"/><path fill="#000000" fill-opacity="0.0" d="m287.78766 206.77165l85.22833 0" fill-rule="evenodd"/><path stroke="#000000" stroke-width="2.0" stroke-linejoin="round" stroke-linecap="butt" d="m287.78766 206.77165l85.22833 0" fill-rule="evenodd"/><path fill="#000000" fill-opacity="0.0" d="m72.38083 310.11285l92.7874 0" fill-rule="evenodd"/><path stroke="#000000" stroke-width="2.0" stroke-linejoin="round" stroke-linecap="butt" d="m72.38083 310.11285l92.7874 0" fill-rule="evenodd"/><path fill="#000000" fill-opacity="0.0" d="m56.787403 223.79527l28.692913 0l0 51.716537l-28.692913 0z" fill-rule="evenodd"/><path fill="#000000" d="m77.678024 243.9734q0 1.40625 -0.53125 2.890625q-0.515625 1.484375 -1.359375 2.984375q-0.828125 1.484375 -1.875 2.90625q-1.03125 1.421875 -2.078125 2.703125l-1.296875 1.1562347l0 0.109375l1.703125 -0.296875l5.8125 0l0 1.96875l-10.609375 0l0 -0.765625q0.578125 -0.625 1.40625 -1.53125q0.828125 -0.90623474 1.71875 -1.9999847q0.890625 -1.109375 1.75 -2.34375q0.875 -1.25 1.578125 -2.53125q0.71875 -1.28125 1.140625 -2.53125q0.421875 -1.25 0.421875 -2.375q0 -1.296875 -0.75 -2.15625q-0.734375 -0.875 -2.265625 -0.875q-1.0 0 -1.96875 0.421875q-0.953125 0.40625 -1.65625 0.9375l-0.875 -1.515625q0.9375 -0.8125 2.21875 -1.265625q1.28125 -0.453125 2.75 -0.453125q1.140625 0 2.015625 0.34375q0.875 0.328125 1.484375 0.9375q0.625 0.609375 0.9375 1.453125q0.328125 0.84375 0.328125 1.828125z" fill-rule="nonzero"/><path fill="#000000" fill-opacity="0.0" d="m111.872795 297.43994l28.69291 0l0 51.716553l-28.69291 0z" fill-rule="evenodd"/><path fill="#000000" d="m127.10717 330.49307q0.9062424 0 1.6718674 -0.265625q0.78125 -0.265625 1.34375 -0.78125q0.5625 -0.53125 0.875 -1.25q0.328125 -0.71875 0.328125 -1.5625q0 -1.875 -1.109375 -2.78125q-1.109375 -0.90625 -3.0468674 -0.90625l-1.984375 0l0 -0.765625l3.8437424 -5.921875l1.234375 -1.171875l-1.734375 0.265625l-5.2812424 0l0 -1.96875l9.515617 0l0 0.765625l-4.234375 6.375l-0.9374924 0.765625l0 0.0625l0.9062424 -0.1875q1.0625 0.03125 1.96875 0.390625q0.90625 0.359375 1.5625 1.046875q0.671875 0.671875 1.046875 1.625q0.375 0.9375 0.375 2.140625q0 1.4375 -0.515625 2.5625q-0.5 1.109375 -1.359375 1.875q-0.859375 0.75 -2.046875 1.15625q-1.171875 0.390625 -2.4687424 0.390625q-1.203125 0 -2.171875 -0.1875q-0.953125 -0.171875 -1.671875 -0.46875l0.5625 -1.890625q0.609375 0.28125 1.453125 0.484375q0.84375 0.203125 1.875 0.203125z" fill-rule="nonzero"/><path fill="#000000" fill-opacity="0.0" d="m186.58267 169.01147l28.692917 0l0 51.716537l-28.692917 0z" fill-rule="evenodd"/><path fill="#000000" d="m209.55142 197.8771l-3.140625 0l0 5.734375l-2.078125 0l0 -5.734375l-8.21875 0l0 -0.875l8.859375 -12.34375l1.4375 0l0 11.359375l3.140625 0l0 1.859375zm-5.21875 -7.671875l0.265625 -2.1875l-0.078125 0l-0.9375 1.8125l-3.765625 5.09375l-1.28125 1.296875l1.875 -0.203125l3.921875 0l0 -5.8125z" fill-rule="nonzero"/><path fill="#000000" fill-opacity="0.0" d="m146.58395 224.77483l28.692917 0l0 51.716537l-28.692917 0z" fill-rule="evenodd"/><path fill="#000000" d="m168.69333 253.74983q0 1.234375 -0.375 2.3124847q-0.359375 1.078125 -1.09375 1.890625q-0.71875 0.8125 -1.78125 1.28125q-1.0625 0.453125 -2.421875 0.453125q-1.328125 0 -2.40625 -0.421875q-1.0625 -0.421875 -1.84375 -1.265625q-0.765625 -0.84375 -1.1875 -2.0624847q-0.40625 -1.234375 -0.40625 -2.828125q0 -2.640625 0.671875 -4.859375q0.6875 -2.234375 1.890625 -3.875q1.203125 -1.65625 2.84375 -2.6875q1.640625 -1.03125 3.5625 -1.296875l0.453125 1.71875q-1.5 0.265625 -2.734375 1.015625q-1.21875 0.734375 -2.140625 1.828125q-0.921875 1.09375 -1.515625 2.453125q-0.578125 1.359375 -0.78125 2.796875q0.421875 -0.71875 1.4375 -1.3125q1.015625 -0.609375 2.46875 -0.609375q2.515625 0 3.9375 1.453125q1.421875 1.4375 1.421875 4.015625zm-2.203125 0.21875q0 -1.890625 -0.890625 -2.84375q-0.875 -0.96875 -2.71875 -0.96875q-1.296875 0 -2.25 0.640625q-0.9375 0.640625 -1.3125 1.4375q-0.0625 0.375 -0.0625 0.609375q0 0.234375 0 0.53125q0 0.828125 0.21875 1.625q0.234375 0.796875 0.71875 1.4374847q0.484375 0.625 1.1875 1.015625q0.703125 0.375 1.671875 0.375q0.765625 0 1.390625 -0.28125q0.625 -0.296875 1.078125 -0.796875q0.453125 -0.515625 0.703125 -1.2343597q0.265625 -0.71875 0.265625 -1.546875z" fill-rule="nonzero"/><path fill="#000000" fill-opacity="0.0" d="m244.38132 297.83813l28.692902 0l0 51.716553l-28.692902 0z" fill-rule="evenodd"/><path fill="#000000" d="m259.6157 330.89127q0.90625 0 1.671875 -0.265625q0.78125 -0.265625 1.34375 -0.78125q0.5625 -0.53125 0.875 -1.25q0.328125 -0.71875 0.328125 -1.5625q0 -1.875 -1.109375 -2.78125q-1.109375 -0.90625 -3.046875 -0.90625l-1.984375 0l0 -0.765625l3.84375 -5.921875l1.234375 -1.171875l-1.734375 0.265625l-5.28125 0l0 -1.96875l9.515625 0l0 0.765625l-4.234375 6.375l-0.9375 0.765625l0 0.0625l0.90625 -0.1875q1.0625 0.03125 1.96875 0.390625q0.90625 0.359375 1.5625 1.046875q0.671875 0.671875 1.046875 1.625q0.375 0.9375 0.375 2.140625q0 1.4375 -0.515625 2.5625q-0.5 1.109375 -1.359375 1.875q-0.859375 0.75 -2.046875 1.15625q-1.171875 0.390625 -2.46875 0.390625q-1.203125 0 -2.171875 -0.1875q-0.953125 -0.171875 -1.671875 -0.46875l0.5625 -1.890625q0.609375 0.28125 1.453125 0.484375q0.84375 0.203125 1.875 0.203125z" fill-rule="nonzero"/><path fill="#000000" fill-opacity="0.0" d="m286.32095 223.79546l28.692902 0l0 51.716537l-28.692902 0z" fill-rule="evenodd"/><path fill="#000000" d="m301.55533 256.84857q0.90625 0 1.671875 -0.265625q0.78125 -0.265625 1.34375 -0.78123474q0.5625 -0.53125 0.875 -1.25q0.328125 -0.71875 0.328125 -1.5625q0 -1.875 -1.109375 -2.78125q-1.109375 -0.90625 -3.046875 -0.90625l-1.984375 0l0 -0.765625l3.84375 -5.921875l1.234375 -1.171875l-1.734375 0.265625l-5.28125 0l0 -1.96875l9.515625 0l0 0.765625l-4.234375 6.375l-0.9375 0.765625l0 0.0625l0.90625 -0.1875q1.0625 0.03125 1.96875 0.390625q0.90625 0.359375 1.5625 1.046875q0.671875 0.671875 1.046875 1.625q0.375 0.9375 0.375 2.140625q0 1.4375 -0.515625 2.5625q-0.5 1.1093597 -1.359375 1.8749847q-0.859375 0.75 -2.046875 1.15625q-1.171875 0.390625 -2.46875 0.390625q-1.203125 0 -2.171875 -0.1875q-0.953125 -0.171875 -1.671875 -0.46875l0.5625 -1.890625q0.609375 0.28125 1.453125 0.484375q0.84375 0.203125 1.875 0.203125z" fill-rule="nonzero"/><path fill="#000000" fill-opacity="0.0" d="m314.87415 170.30711l28.692902 0l0 51.716537l-28.692902 0z" fill-rule="evenodd"/><path fill="#000000" d="m337.8429 199.17274l-3.140625 0l0 5.734375l-2.078125 0l0 -5.734375l-8.21875 0l0 -0.875l8.859375 -12.34375l1.4375 0l0 11.359375l3.140625 0l0 1.859375zm-5.21875 -7.671875l0.265625 -2.1875l-0.078125 0l-0.9375 1.8125l-3.765625 5.09375l-1.28125 1.296875l1.875 -0.203125l3.921875 0l0 -5.8125z" fill-rule="nonzero"/><path fill="#000000" fill-opacity="0.0" d="m355.0252 241.32349l28.692902 0l0 51.716522l-28.692902 0z" fill-rule="evenodd"/><path fill="#000000" d="m370.25958 274.37662q0.90625 0 1.671875 -0.265625q0.78125 -0.265625 1.34375 -0.78125q0.5625 -0.53125 0.875 -1.25q0.328125 -0.71875 0.328125 -1.5625q0 -1.875 -1.109375 -2.78125q-1.109375 -0.90625 -3.046875 -0.90625l-1.984375 0l0 -0.765625l3.84375 -5.921875l1.234375 -1.171875l-1.734375 0.265625l-5.28125 0l0 -1.96875l9.515625 0l0 0.765625l-4.234375 6.375l-0.9375 0.765625l0 0.0625l0.90625 -0.1875q1.0625 0.03125 1.96875 0.390625q0.90625 0.359375 1.5625 1.046875q0.671875 0.671875 1.046875 1.625q0.375 0.9375 0.375 2.140625q0 1.4375 -0.515625 2.5625q-0.5 1.109375 -1.359375 1.875q-0.859375 0.75 -2.046875 1.15625q-1.171875 0.390625 -2.46875 0.390625q-1.203125 0 -2.171875 -0.1875q-0.953125 -0.171875 -1.671875 -0.46875l0.5625 -1.890625q0.609375 0.28125 1.453125 0.484375q0.84375 0.203125 1.875 0.203125z" fill-rule="nonzero"/><path fill="#d9d9d9" d="m576.5338 79.06562c0 -14.507263 11.760437 -26.26772 26.2677 -26.26772c6.966675 0 13.647949 2.7674828 18.574097 7.693634c4.9261475 4.9261513 7.6936646 11.607449 7.6936646 18.574085c0 14.507256 -11.760498 26.267715 -26.267761 26.267715c-14.507263 0 -26.2677 -11.76046 -26.2677 -26.267715z" fill-rule="evenodd"/><path stroke="#000000" stroke-width="3.0" stroke-linejoin="round" stroke-linecap="butt" d="m576.5338 79.06562c0 -14.507263 11.760437 -26.26772 26.2677 -26.26772c6.966675 0 13.647949 2.7674828 18.574097 7.693634c4.9261475 4.9261513 7.6936646 11.607449 7.6936646 18.574085c0 14.507256 -11.760498 26.267715 -26.267761 26.267715c-14.507263 0 -26.2677 -11.76046 -26.2677 -26.267715z" fill-rule="evenodd"/><path fill="#000000" d="m605.9806 85.17124l-9.640625 0l-2.609375 7.234375l-3.0625 0l9.890625 -26.546875l1.421875 0l9.921875 26.546875l-3.234375 0l-2.6875 -7.234375zm-8.625 -2.6875l7.6875 0l-2.90625 -7.953125l-0.9375 -3.96875l-0.046875 0l-0.921875 4.03125l-2.875 7.890625z" fill-rule="nonzero"/><path fill="#000000" fill-opacity="0.0" d="m718.24115 79.06562c0 -14.507263 11.760498 -26.26772 26.267761 -26.26772c6.966614 0 13.647888 2.7674828 18.574036 7.693634c4.9261475 4.9261513 7.6936646 11.607449 7.6936646 18.574085c0 14.507256 -11.760498 26.267715 -26.2677 26.267715c-14.507263 0 -26.267761 -11.76046 -26.267761 -26.267715z" fill-rule="evenodd"/><path stroke="#000000" stroke-width="3.0" stroke-linejoin="round" stroke-linecap="butt" d="m718.24115 79.06562c0 -14.507263 11.760498 -26.26772 26.267761 -26.26772c6.966614 0 13.647888 2.7674828 18.574036 7.693634c4.9261475 4.9261513 7.6936646 11.607449 7.6936646 18.574085c0 14.507256 -11.760498 26.267715 -26.2677 26.267715c-14.507263 0 -26.267761 -11.76046 -26.267761 -26.267715z" fill-rule="evenodd"/><path fill="#000000" d="m751.0191 72.24937q0 0.9375 -0.296875 1.90625q-0.296875 0.96875 -0.890625 1.8125q-0.59375 0.828125 -1.53125 1.46875q-0.9375 0.640625 -2.203125 0.96875l0 0.15625q1.125 0.1875 2.140625 0.640625q1.03125 0.4375 1.8125 1.21875q0.78125 0.78125 1.265625 1.90625q0.484375 1.125 0.484375 2.65625q0 2.015625 -0.84375 3.484375q-0.828125 1.46875 -2.203125 2.40625q-1.359375 0.9375 -3.109375 1.390625q-1.75 0.4375 -3.578125 0.4375q-0.640625 0 -1.5 0q-0.859375 0 -1.796875 -0.0625q-0.921875 -0.046875 -1.859375 -0.140625q-0.9375 -0.09375 -1.640625 -0.28125l0 -25.71875q1.375 -0.21875 3.203125 -0.359375q1.84375 -0.15625 4.0 -0.15625q1.453125 0 2.96875 0.25q1.515625 0.234375 2.734375 0.921875q1.234375 0.6875 2.03125 1.921875q0.8125 1.234375 0.8125 3.171875zm-8.65625 17.765625q1.1875 0 2.3125 -0.28125q1.125 -0.28125 1.984375 -0.890625q0.859375 -0.625 1.359375 -1.515625q0.5 -0.890625 0.5 -2.125q0 -1.53125 -0.625 -2.453125q-0.609375 -0.9375 -1.59375 -1.453125q-0.984375 -0.53125 -2.21875 -0.71875q-1.234375 -0.1875 -2.46875 -0.1875l-3.25 0l0 9.359375q0.265625 0.078125 0.75 0.125q0.484375 0.03125 1.046875 0.078125q0.5625 0.03125 1.15625 0.046875q0.59375 0.015625 1.046875 0.015625zm-2.046875 -12.234375q0.625 0 1.515625 -0.03125q0.90625 -0.046875 1.5 -0.125q0.890625 -0.296875 1.671875 -0.71875q0.796875 -0.4375 1.40625 -1.015625q0.625 -0.578125 0.96875 -1.34375q0.359375 -0.765625 0.359375 -1.65625q0 -1.234375 -0.46875 -2.03125q-0.46875 -0.8125 -1.25 -1.296875q-0.78125 -0.484375 -1.796875 -0.6875q-1.0 -0.203125 -2.046875 -0.203125q-1.234375 0 -2.265625 0.0625q-1.015625 0.046875 -1.546875 0.15625l0 8.890625l1.953125 0z" fill-rule="nonzero"/><path fill="#000000" fill-opacity="0.0" d="m648.16504 182.40683c0 -14.507263 11.760498 -26.267715 26.2677 -26.267715c6.966675 0 13.647949 2.7674713 18.574097 7.693634c4.9261475 4.9261475 7.6936646 11.607437 7.6936646 18.574081c0 14.507248 -11.760498 26.267715 -26.267761 26.267715c-14.507202 0 -26.2677 -11.760468 -26.2677 -26.267715z" fill-rule="evenodd"/><path stroke="#000000" stroke-width="3.0" stroke-linejoin="round" stroke-linecap="butt" d="m648.16504 182.40683c0 -14.507263 11.760498 -26.267715 26.2677 -26.267715c6.966675 0 13.647949 2.7674713 18.574097 7.693634c4.9261475 4.9261475 7.6936646 11.607437 7.6936646 18.574081c0 14.507248 -11.760498 26.267715 -26.267761 26.267715c-14.507202 0 -26.2677 -11.760468 -26.2677 -26.267715z" fill-rule="evenodd"/><path fill="#000000" d="m666.08887 169.62183l14.21875 0l0 2.75l-11.125 0l0 8.5625l10.203125 0l0 2.75l-10.203125 0l0 9.296875l11.3125 0l0 2.765625l-14.40625 0l0 -26.125z" fill-rule="nonzero"/><path fill="#000000" fill-opacity="0.0" d="m621.3756 97.639694l34.48822 66.20473" fill-rule="evenodd"/><path stroke="#000000" stroke-width="2.0" stroke-linejoin="round" stroke-linecap="butt" stroke-dasharray="8.0,6.0" d="m621.3756 97.639694l34.48822 66.20473" fill-rule="evenodd"/><path fill="#000000" fill-opacity="0.0" d="m784.06793 182.40683c0 -14.507263 11.760437 -26.267715 26.2677 -26.267715c6.966675 0 13.647949 2.7674713 18.574097 7.693634c4.9261475 4.9261475 7.6936646 11.607437 7.6936646 18.574081c0 14.507248 -11.760498 26.267715 -26.267761 26.267715c-14.507263 0 -26.2677 -11.760468 -26.2677 -26.267715z" fill-rule="evenodd"/><path stroke="#000000" stroke-width="3.0" stroke-linejoin="round" stroke-linecap="butt" d="m784.06793 182.40683c0 -14.507263 11.760437 -26.267715 26.2677 -26.267715c6.966675 0 13.647949 2.7674713 18.574097 7.693634c4.9261475 4.9261475 7.6936646 11.607437 7.6936646 18.574081c0 14.507248 -11.760498 26.267715 -26.267761 26.267715c-14.507263 0 -26.2677 -11.760468 -26.2677 -26.267715z" fill-rule="evenodd"/><path fill="#000000" d="m802.3464 169.62183l14.21875 0l0 2.75l-11.125 0l0 8.921875l10.375 0l0 2.765625l-10.375 0l0 11.6875l-3.09375 0l0 -26.125z" fill-rule="nonzero"/><path fill="#000000" fill-opacity="0.0" d="m855.99316 79.06562c0 -14.507263 11.760437 -26.26772 26.2677 -26.26772c6.966614 0 13.647888 2.7674828 18.574097 7.693634c4.9261475 4.9261513 7.6936035 11.607449 7.6936035 18.574085c0 14.507256 -11.760437 26.267715 -26.2677 26.267715c-14.507263 0 -26.2677 -11.76046 -26.2677 -26.267715z" fill-rule="evenodd"/><path stroke="#000000" stroke-width="3.0" stroke-linejoin="round" stroke-linecap="butt" d="m855.99316 79.06562c0 -14.507263 11.760437 -26.26772 26.2677 -26.26772c6.966614 0 13.647888 2.7674828 18.574097 7.693634c4.9261475 4.9261513 7.6936035 11.607449 7.6936035 18.574085c0 14.507256 -11.760437 26.267715 -26.2677 26.267715c-14.507263 0 -26.2677 -11.76046 -26.2677 -26.267715z" fill-rule="evenodd"/><path fill="#000000" d="m889.9825 91.32749q-1.109375 0.859375 -2.828125 1.1875q-1.71875 0.34375 -3.65625 0.34375q-2.359375 0 -4.421875 -0.796875q-2.046875 -0.8125 -3.578125 -2.453125q-1.53125 -1.640625 -2.421875 -4.203125q-0.890625 -2.5625 -0.890625 -6.0625q0 -3.65625 0.984375 -6.21875q0.984375 -2.5625 2.609375 -4.171875q1.625 -1.625 3.640625 -2.375q2.015625 -0.75 4.109375 -0.75q2.234375 0 3.65625 0.25q1.421875 0.234375 2.421875 0.640625l-0.734375 2.734375q-1.796875 -0.859375 -5.125 -0.859375q-1.53125 0 -3.03125 0.5625q-1.484375 0.546875 -2.65625 1.828125q-1.171875 1.265625 -1.890625 3.328125q-0.703125 2.046875 -0.703125 5.03125q0 2.6875 0.671875 4.703125q0.671875 2.015625 1.84375 3.359375q1.1875 1.34375 2.765625 2.015625q1.59375 0.671875 3.453125 0.671875q1.6875 0 2.9375 -0.328125q1.25 -0.34375 2.109375 -0.875l0.734375 2.4375z" fill-rule="nonzero"/><path fill="#000000" fill-opacity="0.0" d="m502.83435 182.40683c0 -14.507263 11.760437 -26.267715 26.2677 -26.267715c6.966614 0 13.647949 2.7674713 18.574097 7.693634c4.9261475 4.9261475 7.6936035 11.607437 7.6936035 18.574081c0 14.507248 -11.760437 26.267715 -26.2677 26.267715c-14.507263 0 -26.2677 -11.760468 -26.2677 -26.267715z" fill-rule="evenodd"/><path stroke="#000000" stroke-width="3.0" stroke-linejoin="round" stroke-linecap="butt" d="m502.83435 182.40683c0 -14.507263 11.760437 -26.267715 26.2677 -26.267715c6.966614 0 13.647949 2.7674713 18.574097 7.693634c4.9261475 4.9261475 7.6936035 11.607437 7.6936035 18.574081c0 14.507248 -11.760437 26.267715 -26.2677 26.267715c-14.507263 0 -26.2677 -11.760468 -26.2677 -26.267715z" fill-rule="evenodd"/><path fill="#000000" d="m519.6763 169.62183q0.703125 -0.109375 1.578125 -0.171875q0.890625 -0.0625 1.84375 -0.078125q0.953125 -0.015625 1.859375 -0.03125q0.921875 -0.015625 1.703125 -0.015625q3.125 0 5.421875 0.96875q2.296875 0.96875 3.78125 2.703125q1.5 1.734375 2.234375 4.171875q0.734375 2.421875 0.734375 5.328125q0 2.65625 -0.703125 5.09375q-0.6875 2.4375 -2.1875 4.328125q-1.484375 1.890625 -3.875 3.03125q-2.390625 1.140625 -5.78125 1.140625q-0.59375 0 -1.546875 -0.03125q-0.953125 -0.015625 -1.96875 -0.078125q-1.0 -0.046875 -1.859375 -0.09375q-0.859375 -0.03125 -1.234375 -0.109375l0 -26.15625zm7.0625 2.453125q-0.484375 0 -1.078125 0q-0.578125 0 -1.140625 0.046875q-0.546875 0.03125 -1.015625 0.078125q-0.46875 0.03125 -0.734375 0.0625l0 20.90625q0.1875 0.046875 0.703125 0.0625q0.53125 0.015625 1.09375 0.03125q0.5625 0.015625 1.078125 0.046875q0.53125 0.015625 0.71875 0.015625q2.609375 0 4.375 -0.890625q1.78125 -0.90625 2.84375 -2.40625q1.0625 -1.515625 1.5 -3.46875q0.453125 -1.96875 0.453125 -4.0625q0 -1.828125 -0.40625 -3.671875q-0.40625 -1.859375 -1.421875 -3.34375q-1.0 -1.5 -2.703125 -2.453125q-1.703125 -0.953125 -4.265625 -0.953125z" fill-rule="nonzero"/><path fill="#000000" fill-opacity="0.0" d="m584.2275 97.639694l-36.566956 66.20473" fill-rule="evenodd"/><path stroke="#000000" stroke-width="2.0" stroke-linejoin="round" stroke-linecap="butt" d="m584.2274 97.6397l-33.25299 60.204903" fill-rule="evenodd"/><path fill="#000000" stroke="#000000" stroke-width="2.0" stroke-linecap="butt" d="m550.9744 157.8446l-0.8814087 -3.056244l-1.0188599 6.496704l4.956482 -4.3218384z" fill-rule="evenodd"/><path fill="#000000" fill-opacity="0.0" d="m700.7005 182.40683l83.370056 0" fill-rule="evenodd"/><path stroke="#000000" stroke-width="2.0" stroke-linejoin="round" stroke-linecap="butt" stroke-dasharray="8.0,6.0" d="m700.7005 182.40683l83.370056 0" fill-rule="evenodd"/><path fill="#000000" fill-opacity="0.0" d="m763.6671 99.29731l28.094482 64.53544" fill-rule="evenodd"/><path stroke="#000000" stroke-width="2.0" stroke-linejoin="round" stroke-linecap="butt" d="m763.66705 99.2973l25.358643 58.250946" fill-rule="evenodd"/><path fill="#000000" stroke="#000000" stroke-width="2.0" stroke-linecap="butt" d="m789.0257 157.54825l-2.959961 -1.1644745l4.5288086 4.768173l-0.4043579 -6.56369z" fill-rule="evenodd"/><path fill="#000000" fill-opacity="0.0" d="m828.9097 163.83275l34.771667 -66.20473" fill-rule="evenodd"/><path stroke="#000000" stroke-width="2.0" stroke-linejoin="round" stroke-linecap="butt" stroke-dasharray="8.0,6.0" d="m828.9097 163.83275l34.771667 -66.20473" fill-rule="evenodd"/><path fill="#000000" fill-opacity="0.0" d="m629.0693 79.06562l89.165344 0" fill-rule="evenodd"/><path stroke="#000000" stroke-width="2.0" stroke-linejoin="round" stroke-linecap="butt" d="m629.0693 79.06562l82.31116 0" fill-rule="evenodd"/><path fill="#000000" stroke="#000000" stroke-width="2.0" stroke-linecap="butt" d="m711.38043 79.06562l-2.2492065 2.2491608l6.1795654 -2.2491608l-6.1795654 -2.2491684z" fill-rule="evenodd"/><path fill="#000000" fill-opacity="0.0" d="m770.7766 79.06562l85.22833 0" fill-rule="evenodd"/><path stroke="#000000" stroke-width="2.0" stroke-linejoin="round" stroke-linecap="butt" d="m770.77655 79.06562l78.37421 0" fill-rule="evenodd"/><path fill="#000000" stroke="#000000" stroke-width="2.0" stroke-linecap="butt" d="m849.15076 79.06562l-2.2491455 2.2491608l6.1795044 -2.2491608l-6.1795044 -2.2491684z" fill-rule="evenodd"/><path fill="#000000" fill-opacity="0.0" d="m555.36975 182.40683l92.787415 0" fill-rule="evenodd"/><path stroke="#000000" stroke-width="2.0" stroke-linejoin="round" stroke-linecap="butt" d="m555.3698 182.40683l85.93323 0" fill-rule="evenodd"/><path fill="#000000" stroke="#000000" stroke-width="2.0" stroke-linecap="butt" d="m641.30304 182.40683l-2.2492065 2.2491608l6.1795654 -2.2491608l-6.1795654 -2.249176z" fill-rule="evenodd"/><path fill="#000000" fill-opacity="0.0" d="m539.77637 96.08924l28.692871 0l0 51.71653l-28.692871 0z" fill-rule="evenodd"/><path fill="#000000" d="m560.667 116.267365q0 1.40625 -0.53125 2.890625q-0.515625 1.484375 -1.359375 2.984375q-0.828125 1.484375 -1.875 2.90625q-1.03125 1.421875 -2.078125 2.703125l-1.296875 1.15625l0 0.109375l1.703125 -0.296875l5.8125 0l0 1.96875l-10.609375 0l0 -0.765625q0.578125 -0.625 1.40625 -1.53125q0.828125 -0.90625 1.71875 -2.0q0.890625 -1.109375 1.75 -2.34375q0.875 -1.25 1.578125 -2.53125q0.71875 -1.28125 1.140625 -2.53125q0.421875 -1.25 0.421875 -2.375q0 -1.296875 -0.75 -2.15625q-0.734375 -0.875 -2.265625 -0.875q-1.0 0 -1.96875 0.421875q-0.953125 0.40625 -1.65625 0.9375l-0.875 -1.515625q0.9375 -0.8125 2.21875 -1.265625q1.28125 -0.453125 2.75 -0.453125q1.140625 0 2.015625 0.34375q0.875 0.328125 1.484375 0.9375q0.625 0.609375 0.9375 1.453125q0.328125 0.84375 0.328125 1.828125z" fill-rule="nonzero"/><path fill="#000000" fill-opacity="0.0" d="m594.86176 169.73392l28.692871 0l0 51.716537l-28.692871 0z" fill-rule="evenodd"/><path fill="#000000" d="m610.0961 202.78703q0.90625 0 1.671875 -0.265625q0.78125 -0.265625 1.34375 -0.78125q0.5625 -0.53125 0.875 -1.25q0.328125 -0.71875 0.328125 -1.5625q0 -1.875 -1.109375 -2.78125q-1.109375 -0.90625 -3.046875 -0.90625l-1.984375 0l0 -0.765625l3.84375 -5.921875l1.234375 -1.171875l-1.734375 0.265625l-5.28125 0l0 -1.96875l9.515625 0l0 0.765625l-4.234375 6.375l-0.9375 0.765625l0 0.0625l0.90625 -0.1875q1.0625 0.03125 1.96875 0.390625q0.90625 0.359375 1.5625 1.046875q0.671875 0.671875 1.046875 1.625q0.375 0.9375 0.375 2.140625q0 1.4375 -0.515625 2.5625q-0.5 1.109375 -1.359375 1.875q-0.859375 0.75 -2.046875 1.15625q-1.171875 0.390625 -2.46875 0.390625q-1.203125 0 -2.171875 -0.1875q-0.953125 -0.171875 -1.671875 -0.46875l0.5625 -1.890625q0.609375 0.28125 1.453125 0.484375q0.84375 0.203125 1.875 0.203125z" fill-rule="nonzero"/><path fill="#000000" fill-opacity="0.0" d="m669.5716 41.30544l28.692932 0l0 51.716534l-28.692932 0z" fill-rule="evenodd"/><path fill="#000000" d="m692.54034 70.17106l-3.140625 0l0 5.734375l-2.078125 0l0 -5.734375l-8.21875 0l0 -0.875l8.859375 -12.343746l1.4375 0l0 11.359371l3.140625 0l0 1.859375zm-5.21875 -7.671871l0.265625 -2.1875l-0.078125 0l-0.9375 1.8125l-3.765625 5.093746l-1.28125 1.296875l1.875 -0.203125l3.921875 0l0 -5.812496z" fill-rule="nonzero"/><path fill="#000000" fill-opacity="0.0" d="m629.5729 97.068794l28.692932 0l0 51.71653l-28.692932 0z" fill-rule="evenodd"/><path fill="#000000" d="m651.68225 126.04379q0 1.234375 -0.375 2.3125q-0.359375 1.078125 -1.09375 1.890625q-0.71875 0.8125 -1.78125 1.28125q-1.0625 0.453125 -2.421875 0.453125q-1.328125 0 -2.40625 -0.421875q-1.0625 -0.421875 -1.84375 -1.265625q-0.765625 -0.84375 -1.1875 -2.0625q-0.40625 -1.234375 -0.40625 -2.828125q0 -2.640625 0.671875 -4.859375q0.6875 -2.234375 1.890625 -3.875q1.203125 -1.65625 2.84375 -2.6875q1.640625 -1.03125 3.5625 -1.296875l0.453125 1.71875q-1.5 0.265625 -2.734375 1.015625q-1.21875 0.734375 -2.140625 1.828125q-0.921875 1.09375 -1.515625 2.453125q-0.578125 1.359375 -0.78125 2.796875q0.421875 -0.71875 1.4375 -1.3125q1.015625 -0.609375 2.46875 -0.609375q2.515625 0 3.9375 1.453125q1.421875 1.4375 1.421875 4.015625zm-2.203125 0.21875q0 -1.890625 -0.890625 -2.84375q-0.875 -0.96875 -2.71875 -0.96875q-1.296875 0 -2.25 0.640625q-0.9375 0.640625 -1.3125 1.4375q-0.0625 0.375 -0.0625 0.609375q0 0.234375 0 0.53125q0 0.828125 0.21875 1.625q0.234375 0.796875 0.71875 1.4375q0.484375 0.625 1.1875 1.015625q0.703125 0.375 1.671875 0.375q0.765625 0 1.390625 -0.28125q0.625 -0.296875 1.078125 -0.796875q0.453125 -0.515625 0.703125 -1.234375q0.265625 -0.71875 0.265625 -1.546875z" fill-rule="nonzero"/><path fill="#000000" fill-opacity="0.0" d="m727.37024 170.1321l28.692932 0l0 51.716537l-28.692932 0z" fill-rule="evenodd"/><path fill="#000000" d="m742.6046 203.18523q0.90625 0 1.671875 -0.265625q0.78125 -0.265625 1.34375 -0.78125q0.5625 -0.53125 0.875 -1.25q0.328125 -0.71875 0.328125 -1.5625q0 -1.875 -1.109375 -2.78125q-1.109375 -0.90625 -3.046875 -0.90625l-1.984375 0l0 -0.765625l3.84375 -5.921875l1.234375 -1.171875l-1.734375 0.265625l-5.28125 0l0 -1.96875l9.515625 0l0 0.765625l-4.234375 6.375l-0.9375 0.765625l0 0.0625l0.90625 -0.1875q1.0625 0.03125 1.96875 0.390625q0.90625 0.359375 1.5625 1.046875q0.671875 0.671875 1.046875 1.625q0.375 0.9375 0.375 2.140625q0 1.4375 -0.515625 2.5625q-0.5 1.109375 -1.359375 1.875q-0.859375 0.75 -2.046875 1.15625q-1.171875 0.390625 -2.46875 0.390625q-1.203125 0 -2.171875 -0.1875q-0.953125 -0.171875 -1.671875 -0.46875l0.5625 -1.890625q0.609375 0.28125 1.453125 0.484375q0.84375 0.203125 1.875 0.203125z" fill-rule="nonzero"/><path fill="#000000" fill-opacity="0.0" d="m769.3099 96.089424l28.692932 0l0 51.71653l-28.692932 0z" fill-rule="evenodd"/><path fill="#000000" d="m784.54425 129.14255q0.90625 0 1.671875 -0.265625q0.78125 -0.265625 1.34375 -0.78125q0.5625 -0.53125 0.875 -1.25q0.328125 -0.71875 0.328125 -1.5625q0 -1.875 -1.109375 -2.78125q-1.109375 -0.90625 -3.046875 -0.90625l-1.984375 0l0 -0.765625l3.84375 -5.921875l1.234375 -1.171875l-1.734375 0.265625l-5.28125 0l0 -1.96875l9.515625 0l0 0.765625l-4.234375 6.375l-0.9375 0.765625l0 0.0625l0.90625 -0.1875q1.0625 0.03125 1.96875 0.390625q0.90625 0.359375 1.5625 1.046875q0.671875 0.671875 1.046875 1.625q0.375 0.9375 0.375 2.140625q0 1.4375 -0.515625 2.5625q-0.5 1.109375 -1.359375 1.875q-0.859375 0.75 -2.046875 1.15625q-1.171875 0.390625 -2.46875 0.390625q-1.203125 0 -2.171875 -0.1875q-0.953125 -0.171875 -1.671875 -0.46875l0.5625 -1.890625q0.609375 0.28125 1.453125 0.484375q0.84375 0.203125 1.875 0.203125z" fill-rule="nonzero"/><path fill="#000000" fill-opacity="0.0" d="m797.8631 42.601078l28.692871 0l0 51.716534l-28.692871 0z" fill-rule="evenodd"/><path fill="#000000" d="m820.83185 71.4667l-3.140625 0l0 5.734375l-2.078125 0l0 -5.734375l-8.21875 0l0 -0.875l8.859375 -12.343746l1.4375 0l0 11.359371l3.140625 0l0 1.859375zm-5.21875 -7.671871l0.265625 -2.1875l-0.078125 0l-0.9375 1.8125l-3.765625 5.093746l-1.28125 1.296875l1.875 -0.203125l3.921875 0l0 -5.812496z" fill-rule="nonzero"/><path fill="#000000" fill-opacity="0.0" d="m838.01416 113.61745l28.692932 0l0 51.716537l-28.692932 0z" fill-rule="evenodd"/><path fill="#000000" d="m853.24854 146.67056q0.90625 0 1.671875 -0.265625q0.78125 -0.265625 1.34375 -0.78125q0.5625 -0.53125 0.875 -1.25q0.328125 -0.71875 0.328125 -1.5625q0 -1.875 -1.109375 -2.78125q-1.109375 -0.90625 -3.046875 -0.90625l-1.984375 0l0 -0.765625l3.84375 -5.921875l1.234375 -1.171875l-1.734375 0.265625l-5.28125 0l0 -1.96875l9.515625 0l0 0.765625l-4.234375 6.375l-0.9375 0.765625l0 0.0625l0.90625 -0.1875q1.0625 0.03125 1.96875 0.390625q0.90625 0.359375 1.5625 1.046875q0.671875 0.671875 1.046875 1.625q0.375 0.9375 0.375 2.140625q0 1.4375 -0.515625 2.5625q-0.5 1.109375 -1.359375 1.875q-0.859375 0.75 -2.046875 1.15625q-1.171875 0.390625 -2.46875 0.390625q-1.203125 0 -2.171875 -0.1875q-0.953125 -0.171875 -1.671875 -0.46875l0.5625 -1.890625q0.609375 0.28125 1.453125 0.484375q0.84375 0.203125 1.875 0.203125z" fill-rule="nonzero"/><path fill="#000000" fill-opacity="0.0" d="m576.5338 334.4777c0 -14.507263 11.760437 -26.26773 26.2677 -26.26773c6.966675 0 13.647949 2.7674866 18.574097 7.693634c4.9261475 4.926178 7.6936646 11.607452 7.6936646 18.574097c0 14.507263 -11.760498 26.2677 -26.267761 26.2677c-14.507263 0 -26.2677 -11.760437 -26.2677 -26.2677z" fill-rule="evenodd"/><path stroke="#000000" stroke-width="3.0" stroke-linejoin="round" stroke-linecap="butt" d="m576.5338 334.4777c0 -14.507263 11.760437 -26.26773 26.2677 -26.26773c6.966675 0 13.647949 2.7674866 18.574097 7.693634c4.9261475 4.926178 7.6936646 11.607452 7.6936646 18.574097c0 14.507263 -11.760498 26.2677 -26.267761 26.2677c-14.507263 0 -26.2677 -11.760437 -26.2677 -26.2677z" fill-rule="evenodd"/><path fill="#000000" d="m605.9806 340.5833l-9.640625 0l-2.609375 7.234375l-3.0625 0l9.890625 -26.546875l1.421875 0l9.921875 26.546875l-3.234375 0l-2.6875 -7.234375zm-8.625 -2.6875l7.6875 0l-2.90625 -7.953125l-0.9375 -3.96875l-0.046875 0l-0.921875 4.03125l-2.875 7.890625z" fill-rule="nonzero"/><path fill="#000000" fill-opacity="0.0" d="m718.24115 334.4777c0 -14.507263 11.760498 -26.26773 26.267761 -26.26773c6.966614 0 13.647888 2.7674866 18.574036 7.693634c4.9261475 4.926178 7.6936646 11.607452 7.6936646 18.574097c0 14.507263 -11.760498 26.2677 -26.2677 26.2677c-14.507263 0 -26.267761 -11.760437 -26.267761 -26.2677z" fill-rule="evenodd"/><path stroke="#000000" stroke-width="3.0" stroke-linejoin="round" stroke-linecap="butt" d="m718.24115 334.4777c0 -14.507263 11.760498 -26.26773 26.267761 -26.26773c6.966614 0 13.647888 2.7674866 18.574036 7.693634c4.9261475 4.926178 7.6936646 11.607452 7.6936646 18.574097c0 14.507263 -11.760498 26.2677 -26.2677 26.2677c-14.507263 0 -26.267761 -11.760437 -26.267761 -26.2677z" fill-rule="evenodd"/><path fill="#000000" d="m751.0191 327.66144q0 0.9375 -0.296875 1.90625q-0.296875 0.96875 -0.890625 1.8125q-0.59375 0.828125 -1.53125 1.46875q-0.9375 0.640625 -2.203125 0.96875l0 0.15625q1.125 0.1875 2.140625 0.640625q1.03125 0.4375 1.8125 1.21875q0.78125 0.78125 1.265625 1.90625q0.484375 1.125 0.484375 2.65625q0 2.015625 -0.84375 3.484375q-0.828125 1.46875 -2.203125 2.40625q-1.359375 0.9375 -3.109375 1.390625q-1.75 0.4375 -3.578125 0.4375q-0.640625 0 -1.5 0q-0.859375 0 -1.796875 -0.0625q-0.921875 -0.046875 -1.859375 -0.140625q-0.9375 -0.09375 -1.640625 -0.28125l0 -25.71875q1.375 -0.21875 3.203125 -0.359375q1.84375 -0.15625 4.0 -0.15625q1.453125 0 2.96875 0.25q1.515625 0.234375 2.734375 0.921875q1.234375 0.6875 2.03125 1.921875q0.8125 1.234375 0.8125 3.171875zm-8.65625 17.765625q1.1875 0 2.3125 -0.28125q1.125 -0.28125 1.984375 -0.890625q0.859375 -0.625 1.359375 -1.515625q0.5 -0.890625 0.5 -2.125q0 -1.53125 -0.625 -2.453125q-0.609375 -0.9375 -1.59375 -1.453125q-0.984375 -0.53125 -2.21875 -0.71875q-1.234375 -0.1875 -2.46875 -0.1875l-3.25 0l0 9.359375q0.265625 0.078125 0.75 0.125q0.484375 0.03125 1.046875 0.078125q0.5625 0.03125 1.15625 0.046875q0.59375 0.015625 1.046875 0.015625zm-2.046875 -12.234375q0.625 0 1.515625 -0.03125q0.90625 -0.046875 1.5 -0.125q0.890625 -0.296875 1.671875 -0.71875q0.796875 -0.4375 1.40625 -1.015625q0.625 -0.578125 0.96875 -1.34375q0.359375 -0.765625 0.359375 -1.65625q0 -1.234375 -0.46875 -2.03125q-0.46875 -0.8125 -1.25 -1.296875q-0.78125 -0.484375 -1.796875 -0.6875q-1.0 -0.203125 -2.046875 -0.203125q-1.234375 0 -2.265625 0.0625q-1.015625 0.046875 -1.546875 0.15625l0 8.890625l1.953125 0z" fill-rule="nonzero"/><path fill="#000000" fill-opacity="0.0" d="m648.16504 437.8189c0 -14.507263 11.760498 -26.26773 26.2677 -26.26773c6.966675 0 13.647949 2.7674866 18.574097 7.693634c4.9261475 4.9261475 7.6936646 11.607452 7.6936646 18.574097c0 14.507263 -11.760498 26.2677 -26.267761 26.2677c-14.507202 0 -26.2677 -11.760437 -26.2677 -26.2677z" fill-rule="evenodd"/><path stroke="#000000" stroke-width="3.0" stroke-linejoin="round" stroke-linecap="butt" d="m648.16504 437.8189c0 -14.507263 11.760498 -26.26773 26.2677 -26.26773c6.966675 0 13.647949 2.7674866 18.574097 7.693634c4.9261475 4.9261475 7.6936646 11.607452 7.6936646 18.574097c0 14.507263 -11.760498 26.2677 -26.267761 26.2677c-14.507202 0 -26.2677 -11.760437 -26.2677 -26.2677z" fill-rule="evenodd"/><path fill="#000000" d="m666.08887 425.0339l14.21875 0l0 2.75l-11.125 0l0 8.5625l10.203125 0l0 2.75l-10.203125 0l0 9.296875l11.3125 0l0 2.765625l-14.40625 0l0 -26.125z" fill-rule="nonzero"/><path fill="#000000" fill-opacity="0.0" d="m621.3756 353.05176l34.48822 66.20474" fill-rule="evenodd"/><path stroke="#000000" stroke-width="2.0" stroke-linejoin="round" stroke-linecap="butt" stroke-dasharray="8.0,6.0" d="m621.3756 353.05176l34.48822 66.20474" fill-rule="evenodd"/><path fill="#d9d9d9" d="m784.06793 437.8189c0 -14.507263 11.760437 -26.26773 26.2677 -26.26773c6.966675 0 13.647949 2.7674866 18.574097 7.693634c4.9261475 4.9261475 7.6936646 11.607452 7.6936646 18.574097c0 14.507263 -11.760498 26.2677 -26.267761 26.2677c-14.507263 0 -26.2677 -11.760437 -26.2677 -26.2677z" fill-rule="evenodd"/><path stroke="#000000" stroke-width="3.0" stroke-linejoin="round" stroke-linecap="butt" d="m784.06793 437.8189c0 -14.507263 11.760437 -26.26773 26.2677 -26.26773c6.966675 0 13.647949 2.7674866 18.574097 7.693634c4.9261475 4.9261475 7.6936646 11.607452 7.6936646 18.574097c0 14.507263 -11.760498 26.2677 -26.267761 26.2677c-14.507263 0 -26.2677 -11.760437 -26.2677 -26.2677z" fill-rule="evenodd"/><path fill="#000000" d="m802.3464 425.0339l14.21875 0l0 2.75l-11.125 0l0 8.921875l10.375 0l0 2.765625l-10.375 0l0 11.6875l-3.09375 0l0 -26.125z" fill-rule="nonzero"/><path fill="#000000" fill-opacity="0.0" d="m855.99316 334.4777c0 -14.507263 11.760437 -26.26773 26.2677 -26.26773c6.966614 0 13.647888 2.7674866 18.574097 7.693634c4.9261475 4.926178 7.6936035 11.607452 7.6936035 18.574097c0 14.507263 -11.760437 26.2677 -26.2677 26.2677c-14.507263 0 -26.2677 -11.760437 -26.2677 -26.2677z" fill-rule="evenodd"/><path stroke="#000000" stroke-width="3.0" stroke-linejoin="round" stroke-linecap="butt" d="m855.99316 334.4777c0 -14.507263 11.760437 -26.26773 26.2677 -26.26773c6.966614 0 13.647888 2.7674866 18.574097 7.693634c4.9261475 4.926178 7.6936035 11.607452 7.6936035 18.574097c0 14.507263 -11.760437 26.2677 -26.2677 26.2677c-14.507263 0 -26.2677 -11.760437 -26.2677 -26.2677z" fill-rule="evenodd"/><path fill="#000000" d="m889.9825 346.73956q-1.109375 0.859375 -2.828125 1.1875q-1.71875 0.34375 -3.65625 0.34375q-2.359375 0 -4.421875 -0.796875q-2.046875 -0.8125 -3.578125 -2.453125q-1.53125 -1.640625 -2.421875 -4.203125q-0.890625 -2.5625 -0.890625 -6.0625q0 -3.65625 0.984375 -6.21875q0.984375 -2.5625 2.609375 -4.171875q1.625 -1.625 3.640625 -2.375q2.015625 -0.75 4.109375 -0.75q2.234375 0 3.65625 0.25q1.421875 0.234375 2.421875 0.640625l-0.734375 2.734375q-1.796875 -0.859375 -5.125 -0.859375q-1.53125 0 -3.03125 0.5625q-1.484375 0.546875 -2.65625 1.828125q-1.171875 1.265625 -1.890625 3.328125q-0.703125 2.046875 -0.703125 5.03125q0 2.6875 0.671875 4.703125q0.671875 2.015625 1.84375 3.359375q1.1875 1.34375 2.765625 2.015625q1.59375 0.671875 3.453125 0.671875q1.6875 0 2.9375 -0.328125q1.25 -0.34375 2.109375 -0.875l0.734375 2.4375z" fill-rule="nonzero"/><path fill="#000000" fill-opacity="0.0" d="m502.83435 437.8189c0 -14.507263 11.760437 -26.26773 26.2677 -26.26773c6.966614 0 13.647949 2.7674866 18.574097 7.693634c4.9261475 4.9261475 7.6936035 11.607452 7.6936035 18.574097c0 14.507263 -11.760437 26.2677 -26.2677 26.2677c-14.507263 0 -26.2677 -11.760437 -26.2677 -26.2677z" fill-rule="evenodd"/><path stroke="#000000" stroke-width="3.0" stroke-linejoin="round" stroke-linecap="butt" d="m502.83435 437.8189c0 -14.507263 11.760437 -26.26773 26.2677 -26.26773c6.966614 0 13.647949 2.7674866 18.574097 7.693634c4.9261475 4.9261475 7.6936035 11.607452 7.6936035 18.574097c0 14.507263 -11.760437 26.2677 -26.2677 26.2677c-14.507263 0 -26.2677 -11.760437 -26.2677 -26.2677z" fill-rule="evenodd"/><path fill="#000000" d="m519.6763 425.0339q0.703125 -0.109375 1.578125 -0.171875q0.890625 -0.0625 1.84375 -0.078125q0.953125 -0.015625 1.859375 -0.03125q0.921875 -0.015625 1.703125 -0.015625q3.125 0 5.421875 0.96875q2.296875 0.96875 3.78125 2.703125q1.5 1.734375 2.234375 4.171875q0.734375 2.421875 0.734375 5.328125q0 2.65625 -0.703125 5.09375q-0.6875 2.4375 -2.1875 4.328125q-1.484375 1.890625 -3.875 3.03125q-2.390625 1.140625 -5.78125 1.140625q-0.59375 0 -1.546875 -0.03125q-0.953125 -0.015625 -1.96875 -0.078125q-1.0 -0.046875 -1.859375 -0.09375q-0.859375 -0.03125 -1.234375 -0.109375l0 -26.15625zm7.0625 2.453125q-0.484375 0 -1.078125 0q-0.578125 0 -1.140625 0.046875q-0.546875 0.03125 -1.015625 0.078125q-0.46875 0.03125 -0.734375 0.0625l0 20.90625q0.1875 0.046875 0.703125 0.0625q0.53125 0.015625 1.09375 0.03125q0.5625 0.015625 1.078125 0.046875q0.53125 0.015625 0.71875 0.015625q2.609375 0 4.375 -0.890625q1.78125 -0.90625 2.84375 -2.40625q1.0625 -1.515625 1.5 -3.46875q0.453125 -1.96875 0.453125 -4.0625q0 -1.828125 -0.40625 -3.671875q-0.40625 -1.859375 -1.421875 -3.34375q-1.0 -1.5 -2.703125 -2.453125q-1.703125 -0.953125 -4.265625 -0.953125z" fill-rule="nonzero"/><path fill="#000000" fill-opacity="0.0" d="m584.2275 353.05176l-36.566956 66.20474" fill-rule="evenodd"/><path stroke="#000000" stroke-width="2.0" stroke-linejoin="round" stroke-linecap="butt" stroke-dasharray="8.0,6.0" d="m584.2275 353.05176l-36.566956 66.20474" fill-rule="evenodd"/><path fill="#000000" fill-opacity="0.0" d="m784.06793 437.8189l-83.370056 0" fill-rule="evenodd"/><path stroke="#000000" stroke-width="2.0" stroke-linejoin="round" stroke-linecap="butt" d="m784.06793 437.8189l-76.51593 0" fill-rule="evenodd"/><path fill="#000000" stroke="#000000" stroke-width="2.0" stroke-linecap="butt" d="m707.552 437.8189l2.2491455 -2.249176l-6.1795044 2.249176l6.1795044 2.2491455z" fill-rule="evenodd"/><path fill="#000000" fill-opacity="0.0" d="m791.7616 419.2448l-28.692932 -66.20471" fill-rule="evenodd"/><path stroke="#000000" stroke-width="2.0" stroke-linejoin="round" stroke-linecap="butt" d="m791.76154 419.24484l-25.967224 -59.91577" fill-rule="evenodd"/><path fill="#000000" stroke="#000000" stroke-width="2.0" stroke-linecap="butt" d="m765.79425 359.32904l2.9580688 1.1693115l-4.520996 -4.775543l0.39361572 6.564331z" fill-rule="evenodd"/><path fill="#000000" fill-opacity="0.0" d="m828.9097 419.2448l34.771667 -66.20471" fill-rule="evenodd"/><path stroke="#000000" stroke-width="2.0" stroke-linejoin="round" stroke-linecap="butt" d="m828.9098 419.24484l31.584534 -60.136627" fill-rule="evenodd"/><path fill="#000000" stroke="#000000" stroke-width="2.0" stroke-linecap="butt" d="m860.4944 359.10825l0.94537354 3.0370483l0.8821411 -6.516693l-4.864624 4.425049z" fill-rule="evenodd"/><path fill="#000000" fill-opacity="0.0" d="m629.0693 334.4777l89.165344 0" fill-rule="evenodd"/><path stroke="#000000" stroke-width="2.0" stroke-linejoin="round" stroke-linecap="butt" d="m635.92346 334.4777l82.3111 0" fill-rule="evenodd"/><path fill="#000000" stroke="#000000" stroke-width="2.0" stroke-linecap="butt" d="m635.92346 334.4777l2.2491455 -2.249176l-6.1795654 2.249176l6.1795654 2.249176z" fill-rule="evenodd"/><path fill="#000000" fill-opacity="0.0" d="m770.7766 334.4777l85.22833 0" fill-rule="evenodd"/><path stroke="#000000" stroke-width="2.0" stroke-linejoin="round" stroke-linecap="butt" stroke-dasharray="8.0,6.0" d="m770.7766 334.4777l85.22833 0" fill-rule="evenodd"/><path fill="#000000" fill-opacity="0.0" d="m555.36975 437.8189l92.787415 0" fill-rule="evenodd"/><path stroke="#000000" stroke-width="2.0" stroke-linejoin="round" stroke-linecap="butt" d="m562.22394 437.8189l85.93323 0" fill-rule="evenodd"/><path fill="#000000" stroke="#000000" stroke-width="2.0" stroke-linecap="butt" d="m562.22394 437.8189l2.2492065 -2.249176l-6.1795654 2.249176l6.1795654 2.2491455z" fill-rule="evenodd"/><path fill="#000000" fill-opacity="0.0" d="m539.77637 351.5013l28.692871 0l0 51.716522l-28.692871 0z" fill-rule="evenodd"/><path fill="#000000" d="m560.667 371.67944q0 1.40625 -0.53125 2.890625q-0.515625 1.484375 -1.359375 2.984375q-0.828125 1.484375 -1.875 2.90625q-1.03125 1.421875 -2.078125 2.703125l-1.296875 1.15625l0 0.109375l1.703125 -0.296875l5.8125 0l0 1.96875l-10.609375 0l0 -0.765625q0.578125 -0.625 1.40625 -1.53125q0.828125 -0.90625 1.71875 -2.0q0.890625 -1.109375 1.75 -2.34375q0.875 -1.25 1.578125 -2.53125q0.71875 -1.28125 1.140625 -2.53125q0.421875 -1.25 0.421875 -2.375q0 -1.296875 -0.75 -2.15625q-0.734375 -0.875 -2.265625 -0.875q-1.0 0 -1.96875 0.421875q-0.953125 0.40625 -1.65625 0.9375l-0.875 -1.515625q0.9375 -0.8125 2.21875 -1.265625q1.28125 -0.453125 2.75 -0.453125q1.140625 0 2.015625 0.34375q0.875 0.328125 1.484375 0.9375q0.625 0.609375 0.9375 1.453125q0.328125 0.84375 0.328125 1.828125z" fill-rule="nonzero"/><path fill="#000000" fill-opacity="0.0" d="m594.86176 425.146l28.692871 0l0 51.716522l-28.692871 0z" fill-rule="evenodd"/><path fill="#000000" d="m610.0961 458.19913q0.90625 0 1.671875 -0.265625q0.78125 -0.265625 1.34375 -0.78125q0.5625 -0.53125 0.875 -1.25q0.328125 -0.71875 0.328125 -1.5625q0 -1.875 -1.109375 -2.78125q-1.109375 -0.90625 -3.046875 -0.90625l-1.984375 0l0 -0.765625l3.84375 -5.921875l1.234375 -1.171875l-1.734375 0.265625l-5.28125 0l0 -1.96875l9.515625 0l0 0.765625l-4.234375 6.375l-0.9375 0.765625l0 0.0625l0.90625 -0.1875q1.0625 0.03125 1.96875 0.390625q0.90625 0.359375 1.5625 1.046875q0.671875 0.671875 1.046875 1.625q0.375 0.9375 0.375 2.140625q0 1.4375 -0.515625 2.5625q-0.5 1.109375 -1.359375 1.875q-0.859375 0.75 -2.046875 1.15625q-1.171875 0.390625 -2.46875 0.390625q-1.203125 0 -2.171875 -0.1875q-0.953125 -0.171875 -1.671875 -0.46875l0.5625 -1.890625q0.609375 0.28125 1.453125 0.484375q0.84375 0.203125 1.875 0.203125z" fill-rule="nonzero"/><path fill="#000000" fill-opacity="0.0" d="m669.5716 296.7175l28.692932 0l0 51.716553l-28.692932 0z" fill-rule="evenodd"/><path fill="#000000" d="m692.54034 325.58313l-3.140625 0l0 5.734375l-2.078125 0l0 -5.734375l-8.21875 0l0 -0.875l8.859375 -12.34375l1.4375 0l0 11.359375l3.140625 0l0 1.859375zm-5.21875 -7.671875l0.265625 -2.1875l-0.078125 0l-0.9375 1.8125l-3.765625 5.09375l-1.28125 1.296875l1.875 -0.203125l3.921875 0l0 -5.8125z" fill-rule="nonzero"/><path fill="#000000" fill-opacity="0.0" d="m629.5729 352.48087l28.692932 0l0 51.716522l-28.692932 0z" fill-rule="evenodd"/><path fill="#000000" d="m651.68225 381.45587q0 1.234375 -0.375 2.3125q-0.359375 1.078125 -1.09375 1.890625q-0.71875 0.8125 -1.78125 1.28125q-1.0625 0.453125 -2.421875 0.453125q-1.328125 0 -2.40625 -0.421875q-1.0625 -0.421875 -1.84375 -1.265625q-0.765625 -0.84375 -1.1875 -2.0625q-0.40625 -1.234375 -0.40625 -2.828125q0 -2.640625 0.671875 -4.859375q0.6875 -2.234375 1.890625 -3.875q1.203125 -1.65625 2.84375 -2.6875q1.640625 -1.03125 3.5625 -1.296875l0.453125 1.71875q-1.5 0.265625 -2.734375 1.015625q-1.21875 0.734375 -2.140625 1.828125q-0.921875 1.09375 -1.515625 2.453125q-0.578125 1.359375 -0.78125 2.796875q0.421875 -0.71875 1.4375 -1.3125q1.015625 -0.609375 2.46875 -0.609375q2.515625 0 3.9375 1.453125q1.421875 1.4375 1.421875 4.015625zm-2.203125 0.21875q0 -1.890625 -0.890625 -2.84375q-0.875 -0.96875 -2.71875 -0.96875q-1.296875 0 -2.25 0.640625q-0.9375 0.640625 -1.3125 1.4375q-0.0625 0.375 -0.0625 0.609375q0 0.234375 0 0.53125q0 0.828125 0.21875 1.625q0.234375 0.796875 0.71875 1.4375q0.484375 0.625 1.1875 1.015625q0.703125 0.375 1.671875 0.375q0.765625 0 1.390625 -0.28125q0.625 -0.296875 1.078125 -0.796875q0.453125 -0.515625 0.703125 -1.234375q0.265625 -0.71875 0.265625 -1.546875z" fill-rule="nonzero"/><path fill="#000000" fill-opacity="0.0" d="m727.37024 425.5442l28.692932 0l0 51.716522l-28.692932 0z" fill-rule="evenodd"/><path fill="#000000" d="m742.6046 458.5973q0.90625 0 1.671875 -0.265625q0.78125 -0.265625 1.34375 -0.78125q0.5625 -0.53125 0.875 -1.25q0.328125 -0.71875 0.328125 -1.5625q0 -1.875 -1.109375 -2.78125q-1.109375 -0.90625 -3.046875 -0.90625l-1.984375 0l0 -0.765625l3.84375 -5.921875l1.234375 -1.171875l-1.734375 0.265625l-5.28125 0l0 -1.96875l9.515625 0l0 0.765625l-4.234375 6.375l-0.9375 0.765625l0 0.0625l0.90625 -0.1875q1.0625 0.03125 1.96875 0.390625q0.90625 0.359375 1.5625 1.046875q0.671875 0.671875 1.046875 1.625q0.375 0.9375 0.375 2.140625q0 1.4375 -0.515625 2.5625q-0.5 1.109375 -1.359375 1.875q-0.859375 0.75 -2.046875 1.15625q-1.171875 0.390625 -2.46875 0.390625q-1.203125 0 -2.171875 -0.1875q-0.953125 -0.171875 -1.671875 -0.46875l0.5625 -1.890625q0.609375 0.28125 1.453125 0.484375q0.84375 0.203125 1.875 0.203125z" fill-rule="nonzero"/><path fill="#000000" fill-opacity="0.0" d="m769.3099 351.5015l28.692932 0l0 51.716522l-28.692932 0z" fill-rule="evenodd"/><path fill="#000000" d="m784.54425 384.55463q0.90625 0 1.671875 -0.265625q0.78125 -0.265625 1.34375 -0.78125q0.5625 -0.53125 0.875 -1.25q0.328125 -0.71875 0.328125 -1.5625q0 -1.875 -1.109375 -2.78125q-1.109375 -0.90625 -3.046875 -0.90625l-1.984375 0l0 -0.765625l3.84375 -5.921875l1.234375 -1.171875l-1.734375 0.265625l-5.28125 0l0 -1.96875l9.515625 0l0 0.765625l-4.234375 6.375l-0.9375 0.765625l0 0.0625l0.90625 -0.1875q1.0625 0.03125 1.96875 0.390625q0.90625 0.359375 1.5625 1.046875q0.671875 0.671875 1.046875 1.625q0.375 0.9375 0.375 2.140625q0 1.4375 -0.515625 2.5625q-0.5 1.109375 -1.359375 1.875q-0.859375 0.75 -2.046875 1.15625q-1.171875 0.390625 -2.46875 0.390625q-1.203125 0 -2.171875 -0.1875q-0.953125 -0.171875 -1.671875 -0.46875l0.5625 -1.890625q0.609375 0.28125 1.453125 0.484375q0.84375 0.203125 1.875 0.203125z" fill-rule="nonzero"/><path fill="#000000" fill-opacity="0.0" d="m797.8631 298.01315l28.692871 0l0 51.716522l-28.692871 0z" fill-rule="evenodd"/><path fill="#000000" d="m820.83185 326.87878l-3.140625 0l0 5.734375l-2.078125 0l0 -5.734375l-8.21875 0l0 -0.875l8.859375 -12.34375l1.4375 0l0 11.359375l3.140625 0l0 1.859375zm-5.21875 -7.671875l0.265625 -2.1875l-0.078125 0l-0.9375 1.8125l-3.765625 5.09375l-1.28125 1.296875l1.875 -0.203125l3.921875 0l0 -5.8125z" fill-rule="nonzero"/><path fill="#000000" fill-opacity="0.0" d="m838.01416 369.0295l28.692932 0l0 51.716553l-28.692932 0z" fill-rule="evenodd"/><path fill="#000000" d="m853.24854 402.08264q0.90625 0 1.671875 -0.265625q0.78125 -0.265625 1.34375 -0.78125q0.5625 -0.53125 0.875 -1.25q0.328125 -0.71875 0.328125 -1.5625q0 -1.875 -1.109375 -2.78125q-1.109375 -0.90625 -3.046875 -0.90625l-1.984375 0l0 -0.765625l3.84375 -5.921875l1.234375 -1.171875l-1.734375 0.265625l-5.28125 0l0 -1.96875l9.515625 0l0 0.765625l-4.234375 6.375l-0.9375 0.765625l0 0.0625l0.90625 -0.1875q1.0625 0.03125 1.96875 0.390625q0.90625 0.359375 1.5625 1.046875q0.671875 0.671875 1.046875 1.625q0.375 0.9375 0.375 2.140625q0 1.4375 -0.515625 2.5625q-0.5 1.109375 -1.359375 1.875q-0.859375 0.75 -2.046875 1.15625q-1.171875 0.390625 -2.46875 0.390625q-1.203125 0 -2.171875 -0.1875q-0.953125 -0.171875 -1.671875 -0.46875l0.5625 -1.890625q0.609375 0.28125 1.453125 0.484375q0.84375 0.203125 1.875 0.203125z" fill-rule="nonzero"/><path fill="#000000" fill-opacity="0.0" d="m1092.9276 304.0359c0 -14.507263 11.760376 -26.26773 26.2677 -26.26773c6.9665527 0 13.647949 2.7674866 18.574097 7.693634c4.9261475 4.926178 7.6936035 11.607452 7.6936035 18.574097c0 14.507263 -11.760498 26.2677 -26.2677 26.2677c-14.507324 0 -26.2677 -11.760437 -26.2677 -26.2677z" fill-rule="evenodd"/><path stroke="#000000" stroke-width="3.0" stroke-linejoin="round" stroke-linecap="butt" d="m1092.9276 304.0359c0 -14.507263 11.760376 -26.26773 26.2677 -26.26773c6.9665527 0 13.647949 2.7674866 18.574097 7.693634c4.9261475 4.926178 7.6936035 11.607452 7.6936035 18.574097c0 14.507263 -11.760498 26.2677 -26.2677 26.2677c-14.507324 0 -26.2677 -11.760437 -26.2677 -26.2677z" fill-rule="evenodd"/><path fill="#000000" d="m1111.206 291.2509l14.21875 0l0 2.75l-11.125 0l0 8.921875l10.375 0l0 2.765625l-10.375 0l0 11.6875l-3.09375 0l0 -26.125z" fill-rule="nonzero"/><path fill="#000000" fill-opacity="0.0" d="m1169.1731 383.3767c0 -14.507263 11.760498 -26.26773 26.2677 -26.26773c6.966675 0 13.647949 2.7674866 18.574097 7.693634c4.9261475 4.9261475 7.6936035 11.607452 7.6936035 18.574097c0 14.507263 -11.760376 26.2677 -26.2677 26.2677c-14.507202 0 -26.2677 -11.760437 -26.2677 -26.2677z" fill-rule="evenodd"/><path stroke="#000000" stroke-width="3.0" stroke-linejoin="round" stroke-linecap="butt" d="m1169.1731 383.3767c0 -14.507263 11.760498 -26.26773 26.2677 -26.26773c6.966675 0 13.647949 2.7674866 18.574097 7.693634c4.9261475 4.9261475 7.6936035 11.607452 7.6936035 18.574097c0 14.507263 -11.760376 26.2677 -26.2677 26.2677c-14.507202 0 -26.2677 -11.760437 -26.2677 -26.2677z" fill-rule="evenodd"/><path fill="#000000" d="m1187.0969 370.5917l14.21875 0l0 2.75l-11.125 0l0 8.5625l10.203125 0l0 2.75l-10.203125 0l0 9.296875l11.3125 0l0 2.765625l-14.40625 0l0 -26.125z" fill-rule="nonzero"/><path fill="#000000" fill-opacity="0.0" d="m1137.7694 322.60995l57.66919 34.48819" fill-rule="evenodd"/><path stroke="#000000" stroke-width="2.0" stroke-linejoin="round" stroke-linecap="butt" d="m1137.7694 322.60995l51.786743 30.970276" fill-rule="evenodd"/><path fill="#000000" stroke="#000000" stroke-width="2.0" stroke-linecap="butt" d="m1189.5562 353.5802l-3.0847168 0.77593994l6.4578857 1.241333l-4.149048 -5.1019897z" fill-rule="evenodd"/><path fill="#000000" fill-opacity="0.0" d="m1015.35205 383.441c0 -14.507263 11.760498 -26.26773 26.2677 -26.26773c6.966675 0 13.647949 2.7674866 18.574097 7.693634c4.9261475 4.926178 7.6936035 11.607452 7.6936035 18.574097c0 14.507263 -11.760376 26.2677 -26.2677 26.2677c-14.507202 0 -26.2677 -11.760437 -26.2677 -26.2677z" fill-rule="evenodd"/><path stroke="#000000" stroke-width="3.0" stroke-linejoin="round" stroke-linecap="butt" d="m1015.35205 383.441c0 -14.507263 11.760498 -26.26773 26.2677 -26.26773c6.966675 0 13.647949 2.7674866 18.574097 7.693634c4.9261475 4.926178 7.6936035 11.607452 7.6936035 18.574097c0 14.507263 -11.760376 26.2677 -26.2677 26.2677c-14.507202 0 -26.2677 -11.760437 -26.2677 -26.2677z" fill-rule="evenodd"/><path fill="#000000" d="m1048.13 376.62476q0 0.9375 -0.296875 1.90625q-0.296875 0.96875 -0.890625 1.8125q-0.59375 0.828125 -1.53125 1.46875q-0.9375 0.640625 -2.203125 0.96875l0 0.15625q1.125 0.1875 2.140625 0.640625q1.03125 0.4375 1.8125 1.21875q0.78125 0.78125 1.265625 1.90625q0.484375 1.125 0.484375 2.65625q0 2.015625 -0.84375 3.484375q-0.828125 1.46875 -2.203125 2.40625q-1.359375 0.9375 -3.109375 1.390625q-1.75 0.4375 -3.578125 0.4375q-0.640625 0 -1.5 0q-0.859375 0 -1.796875 -0.0625q-0.921875 -0.046875 -1.859375 -0.140625q-0.9375 -0.09375 -1.640625 -0.28125l0 -25.71875q1.375 -0.21875 3.203125 -0.359375q1.84375 -0.15625 4.0 -0.15625q1.453125 0 2.96875 0.25q1.515625 0.234375 2.734375 0.921875q1.234375 0.6875 2.03125 1.921875q0.8125 1.234375 0.8125 3.171875zm-8.65625 17.765625q1.1875 0 2.3125 -0.28125q1.125 -0.28125 1.984375 -0.890625q0.859375 -0.625 1.359375 -1.515625q0.5 -0.890625 0.5 -2.125q0 -1.53125 -0.625 -2.453125q-0.609375 -0.9375 -1.59375 -1.453125q-0.984375 -0.53125 -2.21875 -0.71875q-1.234375 -0.1875 -2.46875 -0.1875l-3.25 0l0 9.359375q0.265625 0.078125 0.75 0.125q0.484375 0.03125 1.046875 0.078125q0.5625 0.03125 1.15625 0.046875q0.59375 0.015625 1.046875 0.015625zm-2.046875 -12.234375q0.625 0 1.515625 -0.03125q0.90625 -0.046875 1.5 -0.125q0.890625 -0.296875 1.671875 -0.71875q0.796875 -0.4375 1.40625 -1.015625q0.625 -0.578125 0.96875 -1.34375q0.359375 -0.765625 0.359375 -1.65625q0 -1.234375 -0.46875 -2.03125q-0.46875 -0.8125 -1.25 -1.296875q-0.78125 -0.484375 -1.796875 -0.6875q-1.0 -0.203125 -2.046875 -0.203125q-1.234375 0 -2.265625 0.0625q-1.015625 0.046875 -1.546875 0.15625l0 8.890625l1.953125 0z" fill-rule="nonzero"/><path fill="#000000" fill-opacity="0.0" d="m1169.172 468.2733c0 -14.507263 11.760376 -26.26773 26.2677 -26.26773c6.966675 0 13.647949 2.7674866 18.574097 7.693634c4.9261475 4.9261475 7.6936035 11.607452 7.6936035 18.574097c0 14.507233 -11.760498 26.2677 -26.2677 26.2677c-14.507324 0 -26.2677 -11.760468 -26.2677 -26.2677z" fill-rule="evenodd"/><path stroke="#000000" stroke-width="3.0" stroke-linejoin="round" stroke-linecap="butt" d="m1169.172 468.2733c0 -14.507263 11.760376 -26.26773 26.2677 -26.26773c6.966675 0 13.647949 2.7674866 18.574097 7.693634c4.9261475 4.9261475 7.6936035 11.607452 7.6936035 18.574097c0 14.507233 -11.760498 26.2677 -26.2677 26.2677c-14.507324 0 -26.2677 -11.760468 -26.2677 -26.2677z" fill-rule="evenodd"/><path fill="#000000" d="m1186.0139 455.48828q0.703125 -0.109375 1.578125 -0.171875q0.890625 -0.0625 1.84375 -0.078125q0.953125 -0.015625 1.859375 -0.03125q0.921875 -0.015625 1.703125 -0.015625q3.125 0 5.421875 0.96875q2.296875 0.96875 3.78125 2.703125q1.5 1.734375 2.234375 4.171875q0.734375 2.421875 0.734375 5.328125q0 2.65625 -0.703125 5.09375q-0.6875 2.4375 -2.1875 4.328125q-1.484375 1.890625 -3.875 3.03125q-2.390625 1.140625 -5.78125 1.140625q-0.59375 0 -1.546875 -0.03125q-0.953125 -0.015625 -1.96875 -0.078125q-1.0 -0.046875 -1.859375 -0.09375q-0.859375 -0.03125 -1.234375 -0.109375l0 -26.15625zm7.0625 2.453125q-0.484375 0 -1.078125 0q-0.578125 0 -1.140625 0.046875q-0.546875 0.03125 -1.015625 0.078125q-0.46875 0.03125 -0.734375 0.0625l0 20.90625q0.1875 0.046875 0.703125 0.0625q0.53125 0.015625 1.09375 0.03125q0.5625 0.015625 1.078125 0.046875q0.53125 0.015625 0.71875 0.015625q2.609375 0 4.375 -0.890625q1.78125 -0.90625 2.84375 -2.40625q1.0625 -1.515625 1.5 -3.46875q0.453125 -1.96875 0.453125 -4.0625q0 -1.828125 -0.40625 -3.671875q-0.40625 -1.859375 -1.421875 -3.34375q-1.0 -1.5 -2.703125 -2.453125q-1.703125 -0.953125 -4.265625 -0.953125z" fill-rule="nonzero"/><path fill="#000000" fill-opacity="0.0" d="m1092.9297 383.441c0 -14.507263 11.760376 -26.26773 26.2677 -26.26773c6.966675 0 13.647949 2.7674866 18.574097 7.693634c4.9261475 4.926178 7.6936035 11.607452 7.6936035 18.574097c0 14.507263 -11.760498 26.2677 -26.2677 26.2677c-14.507324 0 -26.2677 -11.760437 -26.2677 -26.2677z" fill-rule="evenodd"/><path stroke="#000000" stroke-width="3.0" stroke-linejoin="round" stroke-linecap="butt" d="m1092.9297 383.441c0 -14.507263 11.760376 -26.26773 26.2677 -26.26773c6.966675 0 13.647949 2.7674866 18.574097 7.693634c4.9261475 4.926178 7.6936035 11.607452 7.6936035 18.574097c0 14.507263 -11.760498 26.2677 -26.2677 26.2677c-14.507324 0 -26.2677 -11.760437 -26.2677 -26.2677z" fill-rule="evenodd"/><path fill="#000000" d="m1126.919 395.70288q-1.109375 0.859375 -2.828125 1.1875q-1.71875 0.34375 -3.65625 0.34375q-2.359375 0 -4.421875 -0.796875q-2.046875 -0.8125 -3.578125 -2.453125q-1.53125 -1.640625 -2.421875 -4.203125q-0.890625 -2.5625 -0.890625 -6.0625q0 -3.65625 0.984375 -6.21875q0.984375 -2.5625 2.609375 -4.171875q1.625 -1.625 3.640625 -2.375q2.015625 -0.75 4.109375 -0.75q2.234375 0 3.65625 0.25q1.421875 0.234375 2.421875 0.640625l-0.734375 2.734375q-1.796875 -0.859375 -5.125 -0.859375q-1.53125 0 -3.03125 0.5625q-1.484375 0.546875 -2.65625 1.828125q-1.171875 1.265625 -1.890625 3.328125q-0.703125 2.046875 -0.703125 5.03125q0 2.6875 0.671875 4.703125q0.671875 2.015625 1.84375 3.359375q1.1875 1.34375 2.765625 2.015625q1.59375 0.671875 3.453125 0.671875q1.6875 0 2.9375 -0.328125q1.25 -0.34375 2.109375 -0.875l0.734375 2.4375z" fill-rule="nonzero"/><path fill="#000000" fill-opacity="0.0" d="m1015.35223 467.41238c0 -14.507263 11.760437 -26.26773 26.267761 -26.26773c6.9665527 0 13.647827 2.7674866 18.574097 7.693634c4.9261475 4.926178 7.6936035 11.607452 7.6936035 18.574097c0 14.507263 -11.760498 26.2677 -26.2677 26.2677c-14.507324 0 -26.267761 -11.760437 -26.267761 -26.2677z" fill-rule="evenodd"/><path stroke="#000000" stroke-width="3.0" stroke-linejoin="round" stroke-linecap="butt" d="m1015.35223 467.41238c0 -14.507263 11.760437 -26.26773 26.267761 -26.26773c6.9665527 0 13.647827 2.7674866 18.574097 7.693634c4.9261475 4.926178 7.6936035 11.607452 7.6936035 18.574097c0 14.507263 -11.760498 26.2677 -26.2677 26.2677c-14.507324 0 -26.267761 -11.760437 -26.267761 -26.2677z" fill-rule="evenodd"/><path fill="#000000" d="m1044.7991 473.518l-9.640625 0l-2.609375 7.234375l-3.0625 0l9.890625 -26.546875l1.421875 0l9.921875 26.546875l-3.234375 0l-2.6875 -7.234375zm-8.625 -2.6875l7.6875 0l-2.90625 -7.953125l-0.9375 -3.96875l-0.046875 0l-0.921875 4.03125l-2.875 7.890625z" fill-rule="nonzero"/><path fill="#000000" fill-opacity="0.0" d="m1119.1953 330.3036l0 26.86615" fill-rule="evenodd"/><path stroke="#000000" stroke-width="2.0" stroke-linejoin="round" stroke-linecap="butt" d="m1119.1953 330.3036l0 20.011993" fill-rule="evenodd"/><path fill="#000000" stroke="#000000" stroke-width="2.0" stroke-linecap="butt" d="m1119.1953 350.31558l-2.2491455 -2.249176l2.2491455 6.179535l2.2491455 -6.179535z" fill-rule="evenodd"/><path fill="#000000" fill-opacity="0.0" d="m1041.6198 409.7087l0 31.433075" fill-rule="evenodd"/><path stroke="#000000" stroke-width="2.0" stroke-linejoin="round" stroke-linecap="butt" d="m1041.6198 409.7087l0 24.578888" fill-rule="evenodd"/><path fill="#000000" stroke="#000000" stroke-width="2.0" stroke-linecap="butt" d="m1041.6198 434.2876l-2.2491455 -2.249176l2.2491455 6.179535l2.2491455 -6.179535z" fill-rule="evenodd"/><path fill="#000000" fill-opacity="0.0" d="m1195.4408 409.6444l0 32.346466" fill-rule="evenodd"/><path stroke="#000000" stroke-width="2.0" stroke-linejoin="round" stroke-linecap="butt" d="m1195.4409 409.6444l0 25.49228" fill-rule="evenodd"/><path fill="#000000" stroke="#000000" stroke-width="2.0" stroke-linecap="butt" d="m1195.4409 435.1367l-2.2492676 -2.249176l2.2492676 6.179535l2.2491455 -6.179535z" fill-rule="evenodd"/><path fill="#000000" fill-opacity="0.0" d="m1100.6212 322.60995l-58.992188 34.55121" fill-rule="evenodd"/><path stroke="#000000" stroke-width="2.0" stroke-linejoin="round" stroke-linecap="butt" d="m1100.6212 322.60995l-53.077637 31.087128" fill-rule="evenodd"/><path fill="#000000" stroke="#000000" stroke-width="2.0" stroke-linecap="butt" d="m1047.5435 353.6971l0.8041992 -3.0774841l-4.1956787 5.063843l6.468994 -1.1822815z" fill-rule="evenodd"/><path fill="#000000" fill-opacity="0.0" d="m464.92072 8.461943l0 480.7559" fill-rule="evenodd"/><path stroke="#000000" stroke-width="1.0" stroke-linejoin="round" stroke-linecap="butt" d="m464.92072 8.461943l0 480.7559" fill-rule="evenodd"/><path fill="#000000" fill-opacity="0.0" d="m465.0572 266.15485l784.50397 0" fill-rule="evenodd"/><path stroke="#000000" stroke-width="1.0" stroke-linejoin="round" stroke-linecap="butt" d="m465.0572 266.15485l784.50397 0" fill-rule="evenodd"/></g></svg>