<svg version="1.1" viewBox="0.0 0.0 586.2572178477691 177.4304461942257" fill="none" stroke="none" stroke-linecap="square" stroke-miterlimit="10" xmlns:xlink="http://www.w3.org/1999/xlink" xmlns="http://www.w3.org/2000/svg"><clipPath id="p.0"><path d="m0 0l586.2572 0l0 177.43045l-586.2572 0l0 -177.43045z" clip-rule="nonzero"/></clipPath><g clip-path="url(#p.0)"><path fill="#000000" fill-opacity="0.0" d="m0 0l586.2572 0l0 177.43045l-586.2572 0z" fill-rule="evenodd"/><path fill="#000000" fill-opacity="0.0" d="m7.3168645 30.451443c0 -14.507258 11.760458 -26.267715 26.267715 -26.267715c6.966633 0 13.64793 2.7674832 18.574081 7.693636c4.9261513 4.926153 7.693638 11.607449 7.693638 18.57408c0 14.507259 -11.76046 26.26772 -26.26772 26.26772c-14.507257 0 -26.267715 -11.76046 -26.267715 -26.26772z" fill-rule="evenodd"/><path stroke="#000000" stroke-width="3.0" stroke-linejoin="round" stroke-linecap="butt" d="m7.3168645 30.451443c0 -14.507258 11.760458 -26.267715 26.267715 -26.267715c6.966633 0 13.64793 2.7674832 18.574081 7.693636c4.9261513 4.926153 7.693638 11.607449 7.693638 18.57408c0 14.507259 -11.76046 26.26772 -26.26772 26.26772c-14.507257 0 -26.267715 -11.76046 -26.267715 -26.26772z" fill-rule="evenodd"/><path fill="#000000" d="m36.763645 36.557064l-9.640625 0l-2.609375 7.234375l-3.0625 0l9.890625 -26.546873l1.421875 0l9.921875 26.546873l-3.234375 0l-2.6875 -7.234375zm-8.625 -2.6875l7.6875 0l-2.90625 -7.953123l-0.9375 -3.96875l-0.046875 0l-0.921875 4.03125l-2.875 7.890623z" fill-rule="nonzero"/><path fill="#000000" fill-opacity="0.0" d="m59.8523 30.451443l24.976376 0" fill-rule="evenodd"/><path stroke="#000000" stroke-width="2.0" stroke-linejoin="round" stroke-linecap="butt" d="m59.8523 30.451443l24.976376 0" fill-rule="evenodd"/><path fill="#000000" fill-opacity="0.0" d="m136.99797 30.451443c0 -14.507258 11.760452 -26.267715 26.267715 -26.267715c6.966629 0 13.647919 2.7674832 18.574081 7.693636c4.9261475 4.926153 7.693634 11.607449 7.693634 18.57408c0 14.507259 -11.760452 26.26772 -26.267715 26.26772c-14.507263 0 -26.267715 -11.76046 -26.267715 -26.26772z" fill-rule="evenodd"/><path stroke="#000000" stroke-width="3.0" stroke-linejoin="round" stroke-linecap="butt" d="m136.99797 30.451443c0 -14.507258 11.760452 -26.267715 26.267715 -26.267715c6.966629 0 13.647919 2.7674832 18.574081 7.693636c4.9261475 4.926153 7.693634 11.607449 7.693634 18.57408c0 14.507259 -11.760452 26.26772 -26.267715 26.26772c-14.507263 0 -26.267715 -11.76046 -26.267715 -26.26772z" fill-rule="evenodd"/><path fill="#000000" d="m169.77591 23.635191q0 0.9375 -0.296875 1.90625q-0.296875 0.96875 -0.890625 1.8125q-0.59375 0.828125 -1.53125 1.46875q-0.9375 0.640625 -2.203125 0.96875l0 0.15625q1.125 0.1875 2.140625 0.640625q1.03125 0.4375 1.8125 1.21875q0.78125 0.7812481 1.265625 1.9062481q0.484375 1.125 0.484375 2.65625q0 2.015625 -0.84375 3.484375q-0.828125 1.46875 -2.203125 2.40625q-1.359375 0.9375 -3.109375 1.390625q-1.75 0.4375 -3.578125 0.4375q-0.640625 0 -1.5 0q-0.859375 0 -1.796875 -0.0625q-0.921875 -0.046875 -1.859375 -0.140625q-0.9375 -0.09375 -1.640625 -0.28125l0 -25.718748q1.375 -0.21875 3.203125 -0.359375q1.84375 -0.15625 4.0 -0.15625q1.453125 0 2.96875 0.25q1.515625 0.234375 2.734375 0.921875q1.234375 0.6875 2.03125 1.921875q0.8125 1.234375 0.8125 3.171875zm-8.65625 17.765623q1.1875 0 2.3125 -0.28125q1.125 -0.28125 1.984375 -0.890625q0.859375 -0.625 1.359375 -1.515625q0.5 -0.890625 0.5 -2.125q0 -1.53125 -0.625 -2.453125q-0.609375 -0.9375 -1.59375 -1.453125q-0.984375 -0.53125 -2.21875 -0.7187481q-1.234375 -0.1875 -2.46875 -0.1875l-3.25 0l0 9.359373q0.265625 0.078125 0.75 0.125q0.484375 0.03125 1.046875 0.078125q0.5625 0.03125 1.15625 0.046875q0.59375 0.015625 1.046875 0.015625zm-2.046875 -12.234373q0.625 0 1.515625 -0.03125q0.90625 -0.046875 1.5 -0.125q0.890625 -0.296875 1.671875 -0.71875q0.796875 -0.4375 1.40625 -1.015625q0.625 -0.578125 0.96875 -1.34375q0.359375 -0.765625 0.359375 -1.65625q0 -1.234375 -0.46875 -2.03125q-0.46875 -0.8125 -1.25 -1.296875q-0.78125 -0.484375 -1.796875 -0.6875q-1.0 -0.203125 -2.046875 -0.203125q-1.234375 0 -2.265625 0.0625q-1.015625 0.046875 -1.546875 0.15625l0 8.890625l1.953125 0z" fill-rule="nonzero"/><path fill="#000000" fill-opacity="0.0" d="m7.3168645 142.45145c0 -14.507263 11.760458 -26.267723 26.267715 -26.267723c6.966633 0 13.64793 2.7674866 18.574081 7.6936417c4.9261513 4.9261475 7.693638 11.607452 7.693638 18.574081c0 14.507263 -11.76046 26.267715 -26.26772 26.267715c-14.507257 0 -26.267715 -11.760452 -26.267715 -26.267715z" fill-rule="evenodd"/><path stroke="#000000" stroke-width="3.0" stroke-linejoin="round" stroke-linecap="butt" d="m7.3168645 142.45145c0 -14.507263 11.760458 -26.267723 26.267715 -26.267723c6.966633 0 13.64793 2.7674866 18.574081 7.6936417c4.9261513 4.9261475 7.693638 11.607452 7.693638 18.574081c0 14.507263 -11.76046 26.267715 -26.26772 26.267715c-14.507257 0 -26.267715 -11.760452 -26.267715 -26.267715z" fill-rule="evenodd"/><path fill="#000000" d="m41.306194 154.71332q-1.109375 0.859375 -2.828125 1.1875q-1.71875 0.34375 -3.65625 0.34375q-2.359375 0 -4.421875 -0.796875q-2.046875 -0.8125 -3.578125 -2.453125q-1.53125 -1.640625 -2.421875 -4.203125q-0.890625 -2.5625 -0.890625 -6.0625q0 -3.65625 0.984375 -6.21875q0.984375 -2.5625 2.609375 -4.171875q1.625 -1.625 3.640625 -2.375q2.015625 -0.75 4.109375 -0.75q2.234375 0 3.65625 0.25q1.421875 0.234375 2.421875 0.640625l-0.734375 2.734375q-1.796875 -0.859375 -5.125 -0.859375q-1.53125 0 -3.03125 0.5625q-1.484375 0.546875 -2.65625 1.828125q-1.171875 1.265625 -1.890625 3.328125q-0.703125 2.046875 -0.703125 5.03125q0 2.6875 0.671875 4.703125q0.671875 2.015625 1.84375 3.359375q1.1875 1.34375 2.765625 2.015625q1.59375 0.671875 3.453125 0.671875q1.6875 0 2.9375 -0.328125q1.25 -0.34375 2.109375 -0.875l0.734375 2.4375z" fill-rule="nonzero"/><path fill="#000000" fill-opacity="0.0" d="m136.99797 142.45145c0 -14.507263 11.760452 -26.267723 26.267715 -26.267723c6.966629 0 13.647919 2.7674866 18.574081 7.6936417c4.9261475 4.9261475 7.693634 11.607452 7.693634 18.574081c0 14.507263 -11.760452 26.267715 -26.267715 26.267715c-14.507263 0 -26.267715 -11.760452 -26.267715 -26.267715z" fill-rule="evenodd"/><path stroke="#000000" stroke-width="3.0" stroke-linejoin="round" stroke-linecap="butt" d="m136.99797 142.45145c0 -14.507263 11.760452 -26.267723 26.267715 -26.267723c6.966629 0 13.647919 2.7674866 18.574081 7.6936417c4.9261475 4.9261475 7.693634 11.607452 7.693634 18.574081c0 14.507263 -11.760452 26.267715 -26.267715 26.267715c-14.507263 0 -26.267715 -11.760452 -26.267715 -26.267715z" fill-rule="evenodd"/><path fill="#000000" d="m153.83987 129.66644q0.703125 -0.109375 1.578125 -0.171875q0.890625 -0.0625 1.84375 -0.078125q0.953125 -0.015625 1.859375 -0.03125q0.921875 -0.015625 1.703125 -0.015625q3.125 0 5.421875 0.96875q2.296875 0.96875 3.78125 2.703125q1.5 1.734375 2.234375 4.171875q0.734375 2.421875 0.734375 5.328125q0 2.65625 -0.703125 5.09375q-0.6875 2.4375 -2.1875 4.328125q-1.484375 1.890625 -3.875 3.03125q-2.390625 1.140625 -5.78125 1.140625q-0.59375 0 -1.546875 -0.03125q-0.953125 -0.015625 -1.96875 -0.078125q-1.0 -0.046875 -1.859375 -0.09375q-0.859375 -0.03125 -1.234375 -0.109375l0 -26.15625zm7.0625 2.453125q-0.484375 0 -1.078125 0q-0.578125 0 -1.140625 0.046875q-0.546875 0.03125 -1.015625 0.078125q-0.46875 0.03125 -0.734375 0.0625l0 20.90625q0.1875 0.046875 0.703125 0.0625q0.53125 0.015625 1.09375 0.03125q0.5625 0.015625 1.078125 0.046875q0.53125 0.015625 0.71875 0.015625q2.609375 0 4.375 -0.890625q1.78125 -0.90625 2.84375 -2.40625q1.0625 -1.515625 1.5 -3.46875q0.453125 -1.96875 0.453125 -4.0625q0 -1.828125 -0.40625 -3.671875q-0.40625 -1.859375 -1.421875 -3.34375q-1.0 -1.5 -2.703125 -2.453125q-1.703125 -0.953125 -4.265625 -0.953125z" fill-rule="nonzero"/><path fill="#000000" fill-opacity="0.0" d="m110.4406 74.43664l34.23622 -25.417324" fill-rule="evenodd"/><path stroke="#000000" stroke-width="2.0" stroke-linejoin="round" stroke-linecap="butt" d="m110.4406 74.43664l34.23622 -25.417324" fill-rule="evenodd"/><path fill="#000000" fill-opacity="0.0" d="m112.03209 142.45145l24.97638 0" fill-rule="evenodd"/><path stroke="#000000" stroke-width="2.0" stroke-linejoin="round" stroke-linecap="butt" d="m112.03209 142.45145l15.976379 0" fill-rule="evenodd"/><path fill="#000000" stroke="#000000" stroke-width="2.0" stroke-linecap="butt" d="m128.00847 144.663l6.0762024 -2.2115479l-6.0762024 -2.211563z" fill-rule="evenodd"/><path fill="#000000" fill-opacity="0.0" d="m87.21319 84.05774c0 -7.5145493 6.091751 -13.606293 13.6063 -13.606293c3.608612 0 7.0694275 1.4335175 9.621109 3.9851913c2.551674 2.551674 3.9851913 6.0124893 3.9851913 9.621101c0 7.514557 -6.091751 13.6063 -13.6063 13.6063c-7.5145493 0 -13.6063 -6.0917435 -13.6063 -13.6063z" fill-rule="evenodd"/><path fill="#000000" d="m100.13843 91.207115q0.828125 0 1.515625 -0.234375q0.703125 -0.25 1.203125 -0.71875q0.5 -0.46875 0.78125 -1.109375q0.296875 -0.65625 0.296875 -1.421875q0 -1.671875 -1.0 -2.484375q-0.984375 -0.828125 -2.75 -0.828125l-1.765625 0l0 -0.6875l3.453125 -5.328125l1.109375 -1.0625l-1.5625 0.234375l-4.75 0l0 -1.765625l8.5625 0l0 0.6875l-3.8125 5.734375l-0.84375 0.703125l0 0.046875l0.8125 -0.171875q0.96875 0.03125 1.78125 0.359375q0.8125 0.3125 1.40625 0.9375q0.609375 0.609375 0.9375 1.46875q0.34375 0.84375 0.34375 1.921875q0 1.296875 -0.453125 2.3125q-0.453125 1.0 -1.234375 1.6875q-0.78125 0.671875 -1.84375 1.03125q-1.046875 0.359375 -2.234375 0.359375q-1.078125 0 -1.9375 -0.171875q-0.859375 -0.15625 -1.515625 -0.421875l0.5 -1.703125q0.5625 0.265625 1.3125 0.453125q0.765625 0.171875 1.6875 0.171875z" fill-rule="nonzero"/><path fill="#000000" fill-opacity="0.0" d="m84.81949 30.451443c0 -7.514551 6.091751 -13.606298 13.6063 -13.606298c3.608612 0 7.0694275 1.4335175 9.621109 3.9851933c2.551674 2.5516758 3.9851913 6.012491 3.9851913 9.621105c0 7.514553 -6.091751 13.6063 -13.6063 13.6063c-7.5145493 0 -13.6063 -6.0917473 -13.6063 -13.6063z" fill-rule="evenodd"/><path fill="#000000" d="m93.760345 34.97582q0 -1.5 0.796875 -2.609375q0.796875 -1.125 2.4687576 -2.03125q-0.5937576 -0.375 -1.1093826 -0.765625q-0.515625 -0.390625 -0.921875 -0.890625q-0.390625 -0.515625 -0.625 -1.140625q-0.21875 -0.625 -0.21875 -1.4375q0 -0.9375 0.3125 -1.703125q0.328125 -0.765625 0.9375 -1.3125q0.625 -0.5625 1.4687576 -0.875q0.859375 -0.3125 1.9375 -0.3125q1.015625 0 1.828125 0.296875q0.8125 0.28125 1.375 0.796875q0.5625 0.5 0.875 1.203125q0.3125 0.6875 0.3125 1.53125q0 1.359375 -0.625 2.40625q-0.625 1.046875 -2.0625 2.046875q0.625 0.359375 1.1875 0.796875q0.5625 0.4375 0.984375 0.96875q0.421875 0.515625 0.65625 1.1875q0.25 0.65625 0.25 1.484375q0 1.03125 -0.34375 1.890625q-0.328125 0.859375 -0.984375 1.46875q-0.640625 0.609375 -1.578125 0.953125q-0.9375 0.34375 -2.140625 0.34375q-1.15625 0 -2.0468826 -0.328125q-0.875 -0.34375 -1.5 -0.90625q-0.609375 -0.578125 -0.921875 -1.359375q-0.3125 -0.78125 -0.3125 -1.703125zm7.9531326 -0.234375q0 -0.71875 -0.296875 -1.25q-0.28125 -0.546875 -0.75 -0.984375q-0.46875 -0.453125 -1.078125 -0.8125q-0.59375 -0.359375 -1.234375 -0.6875q-1.46875 0.8125 -2.0937576 1.828125q-0.625 1.0 -0.625 1.90625q0 0.578125 0.1875 1.109375q0.203125 0.53125 0.578125 0.921875q0.390625 0.375 0.9531326 0.609375q0.5625 0.21875 1.3125 0.21875q0.59375 0 1.140625 -0.171875q0.5625 -0.1875 0.984375 -0.53125q0.421875 -0.359375 0.671875 -0.890625q0.25 -0.546875 0.25 -1.265625zm-5.6875076 -8.6875q0 0.671875 0.265625 1.1875q0.265625 0.515625 0.7031326 0.921875q0.4375 0.40625 1.015625 0.765625q0.578125 0.34375 1.203125 0.65625q1.078125 -0.84375 1.59375 -1.65625q0.515625 -0.8125 0.515625 -1.796875q0 -1.234375 -0.75 -1.890625q-0.75 -0.65625 -1.8125 -0.65625q-0.65625 0 -1.15625 0.21875q-0.5 0.21875 -0.8593826 0.5625q-0.359375 0.328125 -0.546875 0.765625q-0.171875 0.4375 -0.171875 0.921875z" fill-rule="nonzero"/><path fill="#000000" fill-opacity="0.0" d="m112.03209 30.451443l24.97638 0" fill-rule="evenodd"/><path stroke="#000000" stroke-width="2.0" stroke-linejoin="round" stroke-linecap="butt" d="m112.03209 30.451443l15.976379 0" fill-rule="evenodd"/><path fill="#000000" stroke="#000000" stroke-width="2.0" stroke-linecap="butt" d="m128.00847 32.663l6.0762024 -2.2115555l-6.0762024 -2.2115536z" fill-rule="evenodd"/><path fill="#000000" fill-opacity="0.0" d="m196.3208 111.27034c-7.244095 0 -14.48819 6.299217 -14.48819 12.598427" fill-rule="evenodd"/><path stroke="#000000" stroke-width="2.0" stroke-linejoin="round" stroke-linecap="butt" d="m196.3208 111.27034c-7.244095 0 -14.48819 6.299217 -14.48819 12.598427" fill-rule="evenodd"/><path fill="#000000" fill-opacity="0.0" d="m91.19838 93.67885l-39.055115 30.204727" fill-rule="evenodd"/><path stroke="#000000" stroke-width="2.0" stroke-linejoin="round" stroke-linecap="butt" d="m91.19838 93.67885l-31.935825 24.698753" fill-rule="evenodd"/><path fill="#000000" stroke="#000000" stroke-width="2.0" stroke-linecap="butt" d="m57.909584 116.62819l-3.453495 5.466675l6.159439 -1.9678497z" fill-rule="evenodd"/><path fill="#000000" fill-opacity="0.0" d="m196.3208 111.27034c0 -7.5145493 6.091751 -13.6063 13.606293 -13.6063c3.6086273 0 7.0694427 1.4335175 9.621109 3.9851913c2.5516815 2.5516815 3.985199 6.012497 3.985199 9.621109c0 7.5145493 -6.091751 13.6063 -13.606308 13.6063c-7.5145416 0 -13.606293 -6.091751 -13.606293 -13.6063z" fill-rule="evenodd"/><path fill="#000000" d="m212.45006 106.825966q0 1.265625 -0.46875 2.609375q-0.46875 1.328125 -1.234375 2.671875q-0.75 1.34375 -1.6875 2.625q-0.921875 1.28125 -1.859375 2.4375l-1.1875 1.03125l0 0.09375l1.546875 -0.265625l5.234375 0l0 1.78125l-9.5625 0l0 -0.703125q0.53125 -0.546875 1.265625 -1.359375q0.75 -0.8125 1.546875 -1.8125q0.8125 -1.0 1.59375 -2.109375q0.78125 -1.125 1.40625 -2.265625q0.640625 -1.15625 1.03125 -2.28125q0.390625 -1.125 0.390625 -2.140625q0 -1.171875 -0.671875 -1.953125q-0.671875 -0.78125 -2.046875 -0.78125q-0.90625 0 -1.78125 0.375q-0.859375 0.375 -1.484375 0.84375l-0.796875 -1.359375q0.84375 -0.71875 2.0 -1.125q1.15625 -0.421875 2.46875 -0.421875q1.03125 0 1.828125 0.3125q0.796875 0.296875 1.34375 0.84375q0.546875 0.546875 0.828125 1.3125q0.296875 0.75 0.296875 1.640625z" fill-rule="nonzero"/><path fill="#000000" fill-opacity="0.0" d="m209.9271 124.87664c0 8.787407 -10.188965 17.574806 -20.377945 17.574806" fill-rule="evenodd"/><path stroke="#000000" stroke-width="2.0" stroke-linejoin="round" stroke-linecap="butt" d="m209.92711 124.87664c0 4.3936996 -2.5472565 8.787407 -6.3681183 12.08268c-0.95521545 0.823822 -1.990036 1.5789795 -3.0845337 2.2483368c-0.5472717 0.33467102 -1.1094666 0.64790344 -1.684082 0.93751526c-0.1436615 0.072402954 -0.2881012 0.14334106 -0.43325806 0.21276855l-0.04937744 0.022979736" fill-rule="evenodd"/><path fill="#000000" stroke="#000000" stroke-width="2.0" stroke-linecap="butt" d="m197.79895 138.22868l-5.404419 3.5501099l6.421997 0.754364z" fill-rule="evenodd"/><path fill="#000000" fill-opacity="0.0" d="m84.81949 142.45145c0 -7.514557 6.091751 -13.606308 13.6063 -13.606308c3.608612 0 7.0694275 1.4335175 9.621109 3.985199c2.551674 2.5516815 3.9851913 6.012497 3.9851913 9.621109c0 7.5145416 -6.091751 13.606293 -13.6063 13.606293c-7.5145493 0 -13.6063 -6.091751 -13.6063 -13.606293z" fill-rule="evenodd"/><path fill="#000000" d="m103.94785 145.92894q0 1.109375 -0.34375 2.078125q-0.328125 0.96875 -0.984375 1.703125q-0.640625 0.734375 -1.609375 1.15625q-0.953125 0.40625 -2.171875 0.40625q-1.203125 0 -2.1718826 -0.375q-0.953125 -0.390625 -1.65625 -1.140625q-0.6875 -0.75 -1.0625 -1.859375q-0.375 -1.109375 -0.375 -2.546875q0 -2.375 0.609375 -4.375q0.609375 -2.015625 1.6875 -3.5q1.0937576 -1.484375 2.5625076 -2.40625q1.484375 -0.921875 3.203125 -1.171875l0.40625 1.546875q-1.34375 0.234375 -2.453125 0.90625q-1.09375 0.671875 -1.921875 1.65625q-0.828125 0.984375 -1.3593826 2.21875q-0.53125 1.21875 -0.71875 2.515625q0.390625 -0.65625 1.2968826 -1.1875q0.90625 -0.546875 2.234375 -0.546875q2.25 0 3.53125 1.296875q1.296875 1.296875 1.296875 3.625zm-2.0 0.1875q0 -1.703125 -0.796875 -2.5625q-0.78125 -0.859375 -2.4375 -0.859375q-1.171875 0 -2.0312576 0.578125q-0.84375 0.5625 -1.1875 1.28125q-0.046875 0.34375 -0.046875 0.5625q0 0.21875 0 0.46875q0 0.75 0.203125 1.46875q0.203125 0.71875 0.625 1.28125q0.4375 0.5625 1.0781326 0.921875q0.640625 0.34375 1.5 0.34375q0.703125 0 1.265625 -0.265625q0.5625 -0.265625 0.96875 -0.71875q0.40625 -0.453125 0.625 -1.09375q0.234375 -0.65625 0.234375 -1.40625z" fill-rule="nonzero"/><path fill="#000000" fill-opacity="0.0" d="m59.8523 142.45145l24.976376 0" fill-rule="evenodd"/><path stroke="#000000" stroke-width="2.0" stroke-linejoin="round" stroke-linecap="butt" d="m59.8523 142.45145l24.976376 0" fill-rule="evenodd"/><path fill="#000000" fill-opacity="0.0" d="m5.9139776 82.38714c0 -7.5145493 6.0917473 -13.6063 13.606299 -13.6063c3.608614 0 7.0694294 1.4335175 9.621105 3.9851913c2.5516777 2.5516815 3.9851933 6.012497 3.9851933 9.621109c0 7.5145493 -6.0917473 13.6063 -13.606298 13.6063c-7.514552 0 -13.606299 -6.091751 -13.606299 -13.6063z" fill-rule="evenodd"/><path fill="#000000" d="m18.839212 89.536514q0.828125 0 1.515625 -0.234375q0.703125 -0.25 1.203125 -0.71875q0.5 -0.46875 0.78125 -1.109375q0.296875 -0.65625 0.296875 -1.421875q0 -1.671875 -1.0 -2.484375q-0.984375 -0.828125 -2.75 -0.828125l-1.765625 0l0 -0.6875l3.453125 -5.328125l1.109375 -1.0625l-1.5625 0.234375l-4.75 0l0 -1.765625l8.5625 0l0 0.6875l-3.8125 5.734375l-0.84375 0.703125l0 0.046875l0.8125 -0.171875q0.96875 0.03125 1.78125 0.359375q0.8125 0.3125 1.40625 0.9375q0.609375 0.609375 0.9375 1.46875q0.34375 0.84375 0.34375 1.921875q0 1.296875 -0.453125 2.3125q-0.453125 1.0 -1.234375 1.6875q-0.78125 0.671875 -1.84375 1.03125q-1.046875 0.359375 -2.234375 0.359375q-1.078125 0 -1.9375 -0.171875q-0.859375 -0.15625 -1.515625 -0.421875l0.5 -1.703125q0.5625 0.265625 1.3125 0.453125q0.765625 0.171875 1.6875 0.171875z" fill-rule="nonzero"/><path fill="#000000" fill-opacity="0.0" d="m31.555973 86.608925c0 -7.5145493 6.0917473 -13.6063 13.606297 -13.6063c3.6086159 0 7.0694313 1.4335175 9.621109 3.9851913c2.551674 2.551674 3.9851913 6.0124893 3.9851913 9.621109c0 7.5145493 -6.0917473 13.6063 -13.6063 13.6063c-7.5145493 0 -13.606297 -6.091751 -13.606297 -13.6063z" fill-rule="evenodd"/><path fill="#000000" d="m41.51246 95.148926l6.015625 -14.0625l1.0625 -1.171875l-1.421875 0.203125l-6.828125 0l0 -1.765625l10.03125 0l0 0.640625l-6.921875 16.15625l-1.9375 0z" fill-rule="nonzero"/><path fill="#000000" fill-opacity="0.0" d="m19.520277 52.717846l0 16.062992" fill-rule="evenodd"/><path stroke="#000000" stroke-width="2.0" stroke-linejoin="round" stroke-linecap="butt" d="m19.520277 52.717846l0 16.062992" fill-rule="evenodd"/><path fill="#000000" fill-opacity="0.0" d="m19.520277 95.99344l-0.56692886 23.81102" fill-rule="evenodd"/><path stroke="#000000" stroke-width="2.0" stroke-linejoin="round" stroke-linecap="butt" d="m19.520277 95.99344l-0.352705 14.813576" fill-rule="evenodd"/><path fill="#000000" stroke="#000000" stroke-width="2.0" stroke-linecap="butt" d="m16.956646 110.75437l2.0662975 6.1271133l2.3555565 -6.0218353z" fill-rule="evenodd"/><path fill="#000000" fill-opacity="0.0" d="m45.16227 73.002625l-0.62992096 -19.653542" fill-rule="evenodd"/><path stroke="#000000" stroke-width="2.0" stroke-linejoin="round" stroke-linecap="butt" d="m45.162273 73.002625l-0.34160614 -10.658161" fill-rule="evenodd"/><path fill="#000000" stroke="#000000" stroke-width="2.0" stroke-linecap="butt" d="m47.031086 62.273617l-2.4050713 -6.0022316l-2.01577 6.1439247z" fill-rule="evenodd"/><path fill="#000000" fill-opacity="0.0" d="m45.16227 100.215225l0.15748215 20.031494" fill-rule="evenodd"/><path stroke="#000000" stroke-width="2.0" stroke-linejoin="round" stroke-linecap="butt" d="m45.16227 100.215225l0.15748215 20.031494" fill-rule="evenodd"/><path fill="#000000" fill-opacity="0.0" d="m230.6378 3.2624671l0 161.70079" fill-rule="evenodd"/><path stroke="#000000" stroke-width="1.0" stroke-linejoin="round" stroke-linecap="butt" d="m230.6378 3.2624671l0 161.70079" fill-rule="evenodd"/><path fill="#000000" fill-opacity="0.0" d="m426.8792 3.2624671l0 161.70079" fill-rule="evenodd"/><path stroke="#000000" stroke-width="1.0" stroke-linejoin="round" stroke-linecap="butt" d="m426.8792 3.2624671l0 161.70079" fill-rule="evenodd"/><path fill="#000000" fill-opacity="0.0" d="m243.17143 24.708765l179.11812 0l0 109.88976l-179.11812 0z" fill-rule="evenodd"/><path fill="#000000" d="m259.96832 48.003765l-4.8125153 0l-1.3125 3.625l-1.515625 0l4.9375153 -13.265625l0.703125 0l4.96875 13.265625l-1.625 0l-1.34375 -3.625zm-4.3125153 -1.34375l3.8437653 0l-1.453125 -3.96875l-0.46875 -1.96875l-0.015625 0l-0.46875 2.0l-1.4375153 3.9375z" fill-rule="nonzero"/><path fill="#000000" d="m281.4731 43.64439q1.203125 1.328125 2.078125 2.015625q0.890625 0.6875 1.671875 1.015625l0 0.421875q-0.890625 0.4375 -1.75 1.125q-0.84375 0.671875 -2.015625 1.96875l-0.703125 0q0.859375 -1.828125 1.796875 -2.8125l-14.53125 0l0 -0.921875l14.53125 0q-0.6875 -0.875 -0.96875 -1.296875q-0.265625 -0.4375 -0.8125 -1.515625l0.703125 0z" fill-rule="nonzero"/><path fill="#000000" d="m295.17307 55.73814q-0.859375 -0.90625 -1.453125 -1.984375q-0.59375 -1.0625 -0.96875 -2.1875q-0.359375 -1.125 -0.53125 -2.265625q-0.15625 -1.15625 -0.15625 -2.203125q0 -1.03125 0.15625 -2.15625q0.171875 -1.140625 0.546875 -2.28125q0.375 -1.15625 0.984375 -2.25q0.609375 -1.109375 1.484375 -2.0625l0.890625 0.65625q-0.75 0.953125 -1.25 1.96875q-0.484375 1.015625 -0.78125 2.0625q-0.296875 1.03125 -0.421875 2.078125q-0.125 1.03125 -0.125 1.984375q0 0.890625 0.140625 1.953125q0.140625 1.046875 0.4375 2.109375q0.3125 1.046875 0.8125 2.046875q0.5 1.015625 1.1875 1.84375l-0.953125 0.6875zm2.255005 -7.21875q0 -1.1875 0.609375 -2.046875q0.625 -0.875 1.9375 -1.578125q-0.46875 -0.28125 -0.875 -0.578125q-0.40625 -0.3125 -0.71875 -0.703125q-0.296875 -0.390625 -0.484375 -0.875q-0.171875 -0.5 -0.171875 -1.125q0 -0.734375 0.25 -1.328125q0.265625 -0.59375 0.734375 -1.015625q0.46875 -0.4375 1.125 -0.671875q0.671875 -0.25 1.515625 -0.25q0.78125 0 1.40625 0.234375q0.640625 0.21875 1.078125 0.609375q0.4375 0.390625 0.671875 0.9375q0.25 0.53125 0.25 1.1875q0 1.0625 -0.484375 1.875q-0.484375 0.8125 -1.59375 1.59375q0.484375 0.28125 0.921875 0.625q0.4375 0.328125 0.765625 0.734375q0.328125 0.40625 0.515625 0.921875q0.1875 0.515625 0.1875 1.171875q0 0.796875 -0.265625 1.46875q-0.265625 0.65625 -0.765625 1.140625q-0.5 0.46875 -1.234375 0.734375q-0.734375 0.265625 -1.65625 0.265625q-0.90625 0 -1.59375 -0.25q-0.6875 -0.265625 -1.171875 -0.703125q-0.46875 -0.453125 -0.71875 -1.0625q-0.234375 -0.609375 -0.234375 -1.3125zm6.171875 -0.1875q0 -0.5625 -0.21875 -0.984375q-0.21875 -0.421875 -0.59375 -0.765625q-0.359375 -0.34375 -0.828125 -0.625q-0.46875 -0.28125 -0.96875 -0.546875q-1.140625 0.640625 -1.625 1.421875q-0.484375 0.78125 -0.484375 1.5q0 0.4375 0.140625 0.859375q0.15625 0.40625 0.453125 0.703125q0.3125 0.296875 0.75 0.484375q0.4375 0.171875 1.015625 0.171875q0.46875 0 0.890625 -0.140625q0.4375 -0.140625 0.75 -0.40625q0.328125 -0.28125 0.515625 -0.703125q0.203125 -0.421875 0.203125 -0.96875zm-4.421875 -6.765625q0 0.53125 0.203125 0.9375q0.21875 0.390625 0.5625 0.71875q0.34375 0.3125 0.78125 0.578125q0.453125 0.265625 0.9375 0.515625q0.84375 -0.65625 1.234375 -1.28125q0.40625 -0.640625 0.40625 -1.40625q0 -0.953125 -0.59375 -1.46875q-0.578125 -0.515625 -1.390625 -0.515625q-0.515625 0 -0.90625 0.171875q-0.390625 0.171875 -0.671875 0.4375q-0.28125 0.25 -0.421875 0.609375q-0.140625 0.34375 -0.140625 0.703125zm8.073914 9.265625q0 -0.453125 0.296875 -0.734375q0.296875 -0.28125 0.765625 -0.28125q0.578125 0 0.9375 0.421875q0.359375 0.40625 0.359375 1.1875q0 0.671875 -0.1875 1.171875q-0.1875 0.5 -0.484375 0.859375q-0.296875 0.375 -0.65625 0.609375q-0.34375 0.234375 -0.703125 0.34375l-0.46875 -0.734375q0.671875 -0.25 1.0 -0.8125q0.328125 -0.546875 0.328125 -1.109375q-0.171875 0.0625 -0.3125 0.0625q-0.375 0 -0.625 -0.25q-0.25 -0.25 -0.25 -0.734375zm11.072662 -2.828125l-4.8125 0l-1.3125 3.625l-1.515625 0l4.9375 -13.265625l0.703125 0l4.96875 13.265625l-1.625 0l-1.34375 -3.625zm-4.3125 -1.34375l3.84375 0l-1.453125 -3.96875l-0.46875 -1.96875l-0.015625 0l-0.46875 2.0l-1.4375 3.9375zm8.855408 4.171875q0 -0.453125 0.296875 -0.734375q0.296875 -0.28125 0.765625 -0.28125q0.578125 0 0.9375 0.421875q0.359375 0.40625 0.359375 1.1875q0 0.671875 -0.1875 1.171875q-0.1875 0.5 -0.484375 0.859375q-0.296875 0.375 -0.65625 0.609375q-0.34375 0.234375 -0.703125 0.34375l-0.46875 -0.734375q0.671875 -0.25 1.0 -0.8125q0.328125 -0.546875 0.328125 -1.109375q-0.171875 0.0625 -0.3125 0.0625q-0.375 0 -0.625 -0.25q-0.25 -0.25 -0.25 -0.734375zm12.728912 -9.28125q0 0.46875 -0.15625 0.953125q-0.140625 0.484375 -0.4375 0.90625q-0.296875 0.421875 -0.765625 0.75q-0.46875 0.3125 -1.09375 0.46875l0 0.078125q0.5625 0.09375 1.0625 0.328125q0.515625 0.21875 0.90625 0.609375q0.390625 0.390625 0.625 0.953125q0.25 0.546875 0.25 1.3125q0 1.015625 -0.421875 1.75q-0.40625 0.734375 -1.09375 1.203125q-0.671875 0.46875 -1.5625 0.703125q-0.875 0.21875 -1.78125 0.21875q-0.3125 0 -0.75 0q-0.421875 0 -0.890625 -0.03125q-0.46875 -0.03125 -0.9375 -0.078125q-0.46875 -0.046875 -0.828125 -0.140625l0 -12.859375q0.703125 -0.109375 1.609375 -0.171875q0.921875 -0.078125 2.0 -0.078125q0.71875 0 1.46875 0.125q0.765625 0.109375 1.375 0.453125q0.625 0.34375 1.015625 0.96875q0.40625 0.609375 0.40625 1.578125zm-4.328125 8.890625q0.609375 0 1.15625 -0.140625q0.5625 -0.140625 0.984375 -0.453125q0.4375 -0.3125 0.6875 -0.75q0.25 -0.453125 0.25 -1.0625q0 -0.765625 -0.3125 -1.234375q-0.296875 -0.46875 -0.796875 -0.734375q-0.484375 -0.265625 -1.109375 -0.34375q-0.609375 -0.09375 -1.234375 -0.09375l-1.609375 0l0 4.671875q0.125 0.046875 0.359375 0.0625q0.25 0.015625 0.53125 0.03125q0.28125 0.015625 0.578125 0.03125q0.296875 0.015625 0.515625 0.015625zm-1.015625 -6.125q0.3125 0 0.75 -0.015625q0.453125 -0.015625 0.75 -0.0625q0.453125 -0.140625 0.84375 -0.359375q0.390625 -0.21875 0.703125 -0.5q0.3125 -0.296875 0.484375 -0.671875q0.171875 -0.390625 0.171875 -0.828125q0 -0.625 -0.234375 -1.015625q-0.234375 -0.40625 -0.625 -0.640625q-0.390625 -0.25 -0.890625 -0.34375q-0.5 -0.109375 -1.03125 -0.109375q-0.609375 0 -1.125 0.03125q-0.515625 0.015625 -0.765625 0.078125l0 4.4375l0.96875 0zm7.7702637 -5.96875q0.859375 0.890625 1.453125 1.96875q0.609375 1.0625 0.96875 2.203125q0.359375 1.125 0.53125 2.28125q0.171875 1.140625 0.171875 2.1875q0 1.015625 -0.171875 2.15625q-0.171875 1.140625 -0.546875 2.296875q-0.375 1.140625 -0.984375 2.234375q-0.59375 1.109375 -1.46875 2.0625l-0.90625 -0.65625q0.75 -0.953125 1.25 -1.984375q0.515625 -1.015625 0.796875 -2.0625q0.296875 -1.046875 0.40625 -2.0625q0.125 -1.03125 0.125 -1.984375q0 -0.90625 -0.15625 -1.9375q-0.140625 -1.046875 -0.453125 -2.109375q-0.296875 -1.0625 -0.78125 -2.0625q-0.484375 -1.015625 -1.1875 -1.84375l0.953125 -0.6875zm13.454956 17.390625q-0.859375 -0.90625 -1.453125 -1.984375q-0.59375 -1.0625 -0.96875 -2.1875q-0.359375 -1.125 -0.53125 -2.265625q-0.15625 -1.15625 -0.15625 -2.203125q0 -1.03125 0.15625 -2.15625q0.171875 -1.140625 0.546875 -2.28125q0.375 -1.15625 0.984375 -2.25q0.609375 -1.109375 1.484375 -2.0625l0.890625 0.65625q-0.75 0.953125 -1.25 1.96875q-0.484375 1.015625 -0.78125 2.0625q-0.296875 1.03125 -0.421875 2.078125q-0.125 1.03125 -0.125 1.984375q0 0.890625 0.140625 1.953125q0.140625 1.046875 0.4375 2.109375q0.3125 1.046875 0.8125 2.046875q0.5 1.015625 1.1875 1.84375l-0.953125 0.6875zm5.348755 -5.1875q0.640625 0 1.171875 -0.1875q0.546875 -0.1875 0.9375 -0.546875q0.390625 -0.375 0.609375 -0.875q0.234375 -0.5 0.234375 -1.09375q0 -1.3125 -0.78125 -1.9375q-0.765625 -0.640625 -2.125 -0.640625l-1.390625 0l0 -0.546875l2.6875 -4.140625l0.859375 -0.8125l-1.203125 0.1875l-3.703125 0l0 -1.390625l6.671875 0l0 0.546875l-2.96875 4.453125l-0.65625 0.546875l0 0.03125l0.625 -0.125q0.75 0.015625 1.375 0.265625q0.640625 0.25 1.109375 0.734375q0.46875 0.46875 0.734375 1.140625q0.265625 0.65625 0.265625 1.5q0 1.0 -0.359375 1.78125q-0.359375 0.78125 -0.96875 1.328125q-0.59375 0.53125 -1.421875 0.8125q-0.8125 0.265625 -1.734375 0.265625q-0.84375 0 -1.515625 -0.125q-0.671875 -0.125 -1.171875 -0.34375l0.390625 -1.3125q0.4375 0.203125 1.015625 0.34375q0.59375 0.140625 1.3125 0.140625zm6.7301636 0.28125q0 -0.453125 0.296875 -0.734375q0.296875 -0.28125 0.765625 -0.28125q0.578125 0 0.9375 0.421875q0.359375 0.40625 0.359375 1.1875q0 0.671875 -0.1875 1.171875q-0.1875 0.5 -0.484375 0.859375q-0.296875 0.375 -0.65625 0.609375q-0.34375 0.234375 -0.703125 0.34375l-0.46875 -0.734375q0.671875 -0.25 1.0 -0.8125q0.328125 -0.546875 0.328125 -1.109375q-0.171875 0.0625 -0.3125 0.0625q-0.375 0 -0.625 -0.25q-0.25 -0.25 -0.25 -0.734375zm11.072662 -2.828125l-4.8125 0l-1.3125 3.625l-1.515625 0l4.9375 -13.265625l0.703125 0l4.96875 13.265625l-1.625 0l-1.34375 -3.625zm-4.3125 -1.34375l3.84375 0l-1.453125 -3.96875l-0.46875 -1.96875l-0.015625 0l-0.46875 2.0l-1.4375 3.9375zm8.855408 4.171875q0 -0.453125 0.296875 -0.734375q0.296875 -0.28125 0.765625 -0.28125q0.578125 0 0.9375 0.421875q0.359375 0.40625 0.359375 1.1875q0 0.671875 -0.1875 1.171875q-0.1875 0.5 -0.484375 0.859375q-0.296875 0.375 -0.65625 0.609375q-0.34375 0.234375 -0.703125 0.34375l-0.46875 -0.734375q0.671875 -0.25 1.0 -0.8125q0.328125 -0.546875 0.328125 -1.109375q-0.171875 0.0625 -0.3125 0.0625q-0.375 0 -0.625 -0.25q-0.25 -0.25 -0.25 -0.734375zm13.213287 0.25q-0.546875 0.4375 -1.40625 0.59375q-0.859375 0.171875 -1.828125 0.171875q-1.1875 0 -2.21875 -0.390625q-1.015625 -0.40625 -1.78125 -1.21875q-0.765625 -0.828125 -1.21875 -2.109375q-0.4375 -1.28125 -0.4375 -3.03125q0 -1.828125 0.484375 -3.09375q0.5 -1.28125 1.3125 -2.09375q0.8125 -0.8125 1.8125 -1.1875q1.015625 -0.375 2.0625 -0.375q1.109375 0 1.8125 0.125q0.71875 0.109375 1.21875 0.328125l-0.359375 1.359375q-0.90625 -0.4375 -2.5625 -0.4375q-0.765625 0 -1.515625 0.28125q-0.734375 0.28125 -1.328125 0.921875q-0.59375 0.625 -0.953125 1.65625q-0.34375 1.03125 -0.34375 2.515625q0 1.34375 0.328125 2.359375q0.34375 1.0 0.921875 1.671875q0.59375 0.671875 1.390625 1.015625q0.796875 0.328125 1.71875 0.328125q0.84375 0 1.46875 -0.171875q0.625 -0.171875 1.0625 -0.421875l0.359375 1.203125zm1.6996155 -12.734375q0.859375 0.890625 1.453125 1.96875q0.609375 1.0625 0.96875 2.203125q0.359375 1.125 0.53125 2.28125q0.171875 1.140625 0.171875 2.1875q0 1.015625 -0.171875 2.15625q-0.171875 1.140625 -0.546875 2.296875q-0.375 1.140625 -0.984375 2.234375q-0.59375 1.109375 -1.46875 2.0625l-0.90625 -0.65625q0.75 -0.953125 1.25 -1.984375q0.515625 -1.015625 0.796875 -2.0625q0.296875 -1.046875 0.40625 -2.0625q0.125 -1.03125 0.125 -1.984375q0 -0.90625 -0.15625 -1.9375q-0.140625 -1.046875 -0.453125 -2.109375q-0.296875 -1.0625 -0.78125 -2.0625q-0.484375 -1.015625 -1.1875 -1.84375l0.953125 -0.6875z" fill-rule="nonzero"/><path fill="#000000" d="m261.62457 63.950638q0 0.46875 -0.15625 0.953125q-0.140625 0.484375 -0.4375 0.90625q-0.296875 0.421875 -0.765625 0.75q-0.46875 0.3125 -1.09375 0.46875l0 0.078125q0.5625 0.09375 1.0625 0.328125q0.515625 0.21875 0.90625 0.609375q0.390625 0.390625 0.625 0.953125q0.25 0.546875 0.25 1.3125q0 1.015625 -0.421875 1.75q-0.40625 0.734375 -1.09375 1.203125q-0.671875 0.46875 -1.5625 0.703125q-0.875 0.21875 -1.78125 0.21875q-0.3125 0 -0.75 0q-0.42189026 0 -0.89064026 -0.03125q-0.46875 -0.03125 -0.9375 -0.078125q-0.46875 -0.046875 -0.828125 -0.140625l0 -12.859375q0.703125 -0.109375 1.609375 -0.171875q0.92189026 -0.078125 2.0000153 -0.078125q0.71875 0 1.46875 0.125q0.765625 0.109375 1.375 0.453125q0.625 0.34375 1.015625 0.96875q0.40625 0.609375 0.40625 1.578125zm-4.328125 8.890625q0.609375 0 1.15625 -0.140625q0.5625 -0.140625 0.984375 -0.453125q0.4375 -0.3125 0.6875 -0.75q0.25 -0.453125 0.25 -1.0625q0 -0.765625 -0.3125 -1.234375q-0.296875 -0.46875 -0.796875 -0.734375q-0.484375 -0.265625 -1.109375 -0.34375q-0.609375 -0.09375 -1.234375 -0.09375l-1.6093903 0l0 4.671875q0.125 0.046875 0.359375 0.0625q0.25 0.015625 0.53126526 0.03125q0.28125 0.015625 0.578125 0.03125q0.296875 0.015625 0.515625 0.015625zm-1.015625 -6.125q0.3125 0 0.75 -0.015625q0.453125 -0.015625 0.75 -0.0625q0.453125 -0.140625 0.84375 -0.359375q0.390625 -0.21875 0.703125 -0.5q0.3125 -0.296875 0.484375 -0.671875q0.171875 -0.390625 0.171875 -0.828125q0 -0.625 -0.234375 -1.015625q-0.234375 -0.40625 -0.625 -0.640625q-0.390625 -0.25 -0.890625 -0.34375q-0.5 -0.109375 -1.03125 -0.109375q-0.609375 0 -1.125 0.03125q-0.51564026 0.015625 -0.76564026 0.078125l0 4.4375l0.96876526 0z" fill-rule="nonzero"/><path fill="#000000" d="m282.2198 66.04439q1.203125 1.328125 2.078125 2.015625q0.890625 0.6875 1.671875 1.015625l0 0.421875q-0.890625 0.4375 -1.75 1.125q-0.84375 0.671875 -2.015625 1.96875l-0.703125 0q0.859375 -1.828125 1.796875 -2.8125l-14.53125 0l0 -0.921875l14.53125 0q-0.6875 -0.875 -0.96875 -1.296875q-0.265625 -0.4375 -0.8125 -1.515625l0.703125 0z" fill-rule="nonzero"/><path fill="#000000" d="m295.91974 78.13814q-0.859375 -0.90625 -1.453125 -1.984375q-0.59375 -1.0625 -0.96875 -2.1875q-0.359375 -1.125 -0.53125 -2.265625q-0.15625 -1.15625 -0.15625 -2.203125q0 -1.03125 0.15625 -2.15625q0.171875 -1.140625 0.546875 -2.28125q0.375 -1.15625 0.984375 -2.25q0.609375 -1.109375 1.484375 -2.0625l0.890625 0.65625q-0.75 0.953125 -1.25 1.96875q-0.484375 1.015625 -0.78125 2.0625q-0.296875 1.03125 -0.421875 2.078125q-0.125 1.03125 -0.125 1.984375q0 0.890625 0.140625 1.953125q0.140625 1.046875 0.4375 2.109375q0.3125 1.046875 0.8125 2.046875q0.5 1.015625 1.1875 1.84375l-0.953125 0.6875zm5.348755 -5.1875q0.640625 0 1.171875 -0.1875q0.546875 -0.1875 0.9375 -0.546875q0.390625 -0.375 0.609375 -0.875q0.234375 -0.5 0.234375 -1.09375q0 -1.3125 -0.78125 -1.9375q-0.765625 -0.640625 -2.125 -0.640625l-1.390625 0l0 -0.546875l2.6875 -4.140625l0.859375 -0.8125l-1.203125 0.1875l-3.703125 0l0 -1.390625l6.671875 0l0 0.546875l-2.96875 4.453125l-0.65625 0.546875l0 0.03125l0.625 -0.125q0.75 0.015625 1.375 0.265625q0.640625 0.25 1.109375 0.734375q0.46875 0.46875 0.734375 1.140625q0.265625 0.65625 0.265625 1.5q0 1.0 -0.359375 1.78125q-0.359375 0.78125 -0.96875 1.328125q-0.59375 0.53125 -1.421875 0.8125q-0.8125 0.265625 -1.734375 0.265625q-0.84375 0 -1.515625 -0.125q-0.671875 -0.125 -1.171875 -0.34375l0.390625 -1.3125q0.4375 0.203125 1.015625 0.34375q0.59375 0.140625 1.3125 0.140625zm6.7301636 0.28125q0 -0.453125 0.296875 -0.734375q0.296875 -0.28125 0.765625 -0.28125q0.578125 0 0.9375 0.421875q0.359375 0.40625 0.359375 1.1875q0 0.671875 -0.1875 1.171875q-0.1875 0.5 -0.484375 0.859375q-0.296875 0.375 -0.65625 0.609375q-0.34375 0.234375 -0.703125 0.34375l-0.46875 -0.734375q0.671875 -0.25 1.0 -0.8125q0.328125 -0.546875 0.328125 -1.109375q-0.171875 0.0625 -0.3125 0.0625q-0.375 0 -0.625 -0.25q-0.25 -0.25 -0.25 -0.734375zm12.728912 -9.28125q0 0.46875 -0.15625 0.953125q-0.140625 0.484375 -0.4375 0.90625q-0.296875 0.421875 -0.765625 0.75q-0.46875 0.3125 -1.09375 0.46875l0 0.078125q0.5625 0.09375 1.0625 0.328125q0.515625 0.21875 0.90625 0.609375q0.390625 0.390625 0.625 0.953125q0.25 0.546875 0.25 1.3125q0 1.015625 -0.421875 1.75q-0.40625 0.734375 -1.09375 1.203125q-0.671875 0.46875 -1.5625 0.703125q-0.875 0.21875 -1.78125 0.21875q-0.3125 0 -0.75 0q-0.421875 0 -0.890625 -0.03125q-0.46875 -0.03125 -0.9375 -0.078125q-0.46875 -0.046875 -0.828125 -0.140625l0 -12.859375q0.703125 -0.109375 1.609375 -0.171875q0.921875 -0.078125 2.0 -0.078125q0.71875 0 1.46875 0.125q0.765625 0.109375 1.375 0.453125q0.625 0.34375 1.015625 0.96875q0.40625 0.609375 0.40625 1.578125zm-4.328125 8.890625q0.609375 0 1.15625 -0.140625q0.5625 -0.140625 0.984375 -0.453125q0.4375 -0.3125 0.6875 -0.75q0.25 -0.453125 0.25 -1.0625q0 -0.765625 -0.3125 -1.234375q-0.296875 -0.46875 -0.796875 -0.734375q-0.484375 -0.265625 -1.109375 -0.34375q-0.609375 -0.09375 -1.234375 -0.09375l-1.609375 0l0 4.671875q0.125 0.046875 0.359375 0.0625q0.25 0.015625 0.53125 0.03125q0.28125 0.015625 0.578125 0.03125q0.296875 0.015625 0.515625 0.015625zm-1.015625 -6.125q0.3125 0 0.75 -0.015625q0.453125 -0.015625 0.75 -0.0625q0.453125 -0.140625 0.84375 -0.359375q0.390625 -0.21875 0.703125 -0.5q0.3125 -0.296875 0.484375 -0.671875q0.171875 -0.390625 0.171875 -0.828125q0 -0.625 -0.234375 -1.015625q-0.234375 -0.40625 -0.625 -0.640625q-0.390625 -0.25 -0.890625 -0.34375q-0.5 -0.109375 -1.03125 -0.109375q-0.609375 0 -1.125 0.03125q-0.515625 0.015625 -0.765625 0.078125l0 4.4375l0.96875 0zm7.7077637 6.515625q0 -0.453125 0.296875 -0.734375q0.296875 -0.28125 0.765625 -0.28125q0.578125 0 0.9375 0.421875q0.359375 0.40625 0.359375 1.1875q0 0.671875 -0.1875 1.171875q-0.1875 0.5 -0.484375 0.859375q-0.296875 0.375 -0.65625 0.609375q-0.34375 0.234375 -0.703125 0.34375l-0.46875 -0.734375q0.671875 -0.25 1.0 -0.8125q0.328125 -0.546875 0.328125 -1.109375q-0.171875 0.0625 -0.3125 0.0625q-0.375 0 -0.625 -0.25q-0.25 -0.25 -0.25 -0.734375zm13.213287 0.25q-0.546875 0.4375 -1.40625 0.59375q-0.859375 0.171875 -1.828125 0.171875q-1.1875 0 -2.21875 -0.390625q-1.015625 -0.40625 -1.78125 -1.21875q-0.765625 -0.828125 -1.21875 -2.109375q-0.4375 -1.28125 -0.4375 -3.03125q0 -1.828125 0.484375 -3.09375q0.5 -1.28125 1.3125 -2.09375q0.8125 -0.8125 1.8125 -1.1875q1.015625 -0.375 2.0625 -0.375q1.109375 0 1.8125 0.125q0.71875 0.109375 1.21875 0.328125l-0.359375 1.359375q-0.90625 -0.4375 -2.5625 -0.4375q-0.765625 0 -1.515625 0.28125q-0.734375 0.28125 -1.328125 0.921875q-0.59375 0.625 -0.953125 1.65625q-0.34375 1.03125 -0.34375 2.515625q0 1.34375 0.328125 2.359375q0.34375 1.0 0.921875 1.671875q0.59375 0.671875 1.390625 1.015625q0.796875 0.328125 1.71875 0.328125q0.84375 0 1.46875 -0.171875q0.625 -0.171875 1.0625 -0.421875l0.359375 1.203125zm1.699585 -12.734375q0.859375 0.890625 1.453125 1.96875q0.609375 1.0625 0.96875 2.203125q0.359375 1.125 0.53125 2.28125q0.171875 1.140625 0.171875 2.1875q0 1.015625 -0.171875 2.15625q-0.171875 1.140625 -0.546875 2.296875q-0.375 1.140625 -0.984375 2.234375q-0.59375 1.109375 -1.46875 2.0625l-0.90625 -0.65625q0.75 -0.953125 1.25 -1.984375q0.515625 -1.015625 0.796875 -2.0625q0.296875 -1.046875 0.40625 -2.0625q0.125 -1.03125 0.125 -1.984375q0 -0.90625 -0.15625 -1.9375q-0.140625 -1.046875 -0.453125 -2.109375q-0.296875 -1.0625 -0.78125 -2.0625q-0.484375 -1.015625 -1.1875 -1.84375l0.953125 -0.6875z" fill-rule="nonzero"/><path fill="#000000" d="m262.10895 95.88188q-0.546875 0.4375 -1.40625 0.59375q-0.859375 0.171875 -1.828125 0.171875q-1.1875 0 -2.21875 -0.390625q-1.0156403 -0.40625 -1.7812653 -1.21875q-0.765625 -0.828125 -1.21875 -2.109375q-0.4375 -1.28125 -0.4375 -3.03125q0 -1.828125 0.484375 -3.09375q0.5 -1.28125 1.3125 -2.09375q0.8125 -0.8125 1.8125153 -1.1875q1.015625 -0.375 2.0625 -0.375q1.109375 0 1.8125 0.125q0.71875 0.109375 1.21875 0.328125l-0.359375 1.359375q-0.90625 -0.4375 -2.5625 -0.4375q-0.765625 0 -1.515625 0.28125q-0.734375 0.28125 -1.328125 0.921875q-0.59376526 0.625 -0.95314026 1.65625q-0.34375 1.03125 -0.34375 2.515625q0 1.34375 0.328125 2.359375q0.34375 1.0 0.92189026 1.671875q0.59375 0.671875 1.390625 1.015625q0.796875 0.328125 1.71875 0.328125q0.84375 0 1.46875 -0.171875q0.625 -0.171875 1.0625 -0.421875l0.359375 1.203125z" fill-rule="nonzero"/><path fill="#000000" d="m281.2306 88.44438q1.203125 1.328125 2.078125 2.015625q0.890625 0.6875 1.671875 1.015625l0 0.421875q-0.890625 0.4375 -1.75 1.125q-0.84375 0.671875 -2.015625 1.96875l-0.703125 0q0.859375 -1.828125 1.796875 -2.8125l-14.53125 0l0 -0.921875l14.53125 0q-0.6875 -0.875 -0.96875 -1.296875q-0.265625 -0.4375 -0.8125 -1.515625l0.703125 0z" fill-rule="nonzero"/><path fill="#000000" d="m294.93054 100.53813q-0.859375 -0.90625 -1.453125 -1.984375q-0.59375 -1.0625 -0.96875 -2.1875q-0.359375 -1.125 -0.53125 -2.265625q-0.15625 -1.15625 -0.15625 -2.203125q0 -1.03125 0.15625 -2.15625q0.171875 -1.140625 0.546875 -2.28125q0.375 -1.15625 0.984375 -2.25q0.609375 -1.109375 1.484375 -2.0625l0.890625 0.65625q-0.75 0.953125 -1.25 1.96875q-0.484375 1.015625 -0.78125 2.0625q-0.296875 1.03125 -0.421875 2.078125q-0.125 1.03125 -0.125 1.984375q0 0.890625 0.140625 1.953125q0.140625 1.046875 0.4375 2.109375q0.3125 1.046875 0.8125 2.046875q0.5 1.015625 1.1875 1.84375l-0.953125 0.6875zm3.036255 -4.109375l4.6875 -10.9375l0.828125 -0.90625l-1.109375 0.171875l-5.3125 0l0 -1.390625l7.796875 0l0 0.5l-5.375 12.5625l-1.515625 0zm6.9893494 -0.796875q0 -0.453125 0.296875 -0.734375q0.296875 -0.28125 0.765625 -0.28125q0.578125 0 0.9375 0.421875q0.359375 0.40625 0.359375 1.1875q0 0.671875 -0.1875 1.171875q-0.1875 0.5 -0.484375 0.859375q-0.296875 0.375 -0.65625 0.609375q-0.34375 0.234375 -0.703125 0.34375l-0.46875 -0.734375q0.671875 -0.25 1.0 -0.8125q0.328125 -0.546875 0.328125 -1.109375q-0.171875 0.0625 -0.3125 0.0625q-0.375 0 -0.625 -0.25q-0.25 -0.25 -0.25 -0.734375zm13.213287 0.25q-0.546875 0.4375 -1.40625 0.59375q-0.859375 0.171875 -1.828125 0.171875q-1.1875 0 -2.21875 -0.390625q-1.015625 -0.40625 -1.78125 -1.21875q-0.765625 -0.828125 -1.21875 -2.109375q-0.4375 -1.28125 -0.4375 -3.03125q0 -1.828125 0.484375 -3.09375q0.5 -1.28125 1.3125 -2.09375q0.8125 -0.8125 1.8125 -1.1875q1.015625 -0.375 2.0625 -0.375q1.109375 0 1.8125 0.125q0.71875 0.109375 1.21875 0.328125l-0.359375 1.359375q-0.90625 -0.4375 -2.5625 -0.4375q-0.765625 0 -1.515625 0.28125q-0.734375 0.28125 -1.328125 0.921875q-0.59375 0.625 -0.953125 1.65625q-0.34375 1.03125 -0.34375 2.515625q0 1.34375 0.328125 2.359375q0.34375 1.0 0.921875 1.671875q0.59375 0.671875 1.390625 1.015625q0.796875 0.328125 1.71875 0.328125q0.84375 0 1.46875 -0.171875q0.625 -0.171875 1.0625 -0.421875l0.359375 1.203125zm1.637085 -0.25q0 -0.453125 0.296875 -0.734375q0.296875 -0.28125 0.765625 -0.28125q0.578125 0 0.9375 0.421875q0.359375 0.40625 0.359375 1.1875q0 0.671875 -0.1875 1.171875q-0.1875 0.5 -0.484375 0.859375q-0.296875 0.375 -0.65625 0.609375q-0.34375 0.234375 -0.703125 0.34375l-0.46875 -0.734375q0.671875 -0.25 1.0 -0.8125q0.328125 -0.546875 0.328125 -1.109375q-0.171875 0.0625 -0.3125 0.0625q-0.375 0 -0.625 -0.25q-0.25 -0.25 -0.25 -0.734375zm11.072662 -2.828125l-4.8125 0l-1.3125 3.625l-1.515625 0l4.9375 -13.265625l0.703125 0l4.96875 13.265625l-1.625 0l-1.34375 -3.625zm-4.3125 -1.34375l3.84375 0l-1.453125 -3.96875l-0.46875 -1.96875l-0.015625 0l-0.46875 2.0l-1.4375 3.9375zm8.41391 -8.3125q0.859375 0.890625 1.453125 1.96875q0.609375 1.0625 0.96875 2.203125q0.359375 1.125 0.53125 2.28125q0.171875 1.140625 0.171875 2.1875q0 1.015625 -0.171875 2.15625q-0.171875 1.140625 -0.546875 2.296875q-0.375 1.140625 -0.984375 2.234375q-0.59375 1.109375 -1.46875 2.0625l-0.90625 -0.65625q0.75 -0.953125 1.25 -1.984375q0.515625 -1.015625 0.796875 -2.0625q0.296875 -1.046875 0.40625 -2.0625q0.125 -1.03125 0.125 -1.984375q0 -0.90625 -0.15625 -1.9375q-0.140625 -1.046875 -0.453125 -2.109375q-0.296875 -1.0625 -0.78125 -2.0625q-0.484375 -1.015625 -1.1875 -1.84375l0.953125 -0.6875zm13.454987 17.390625q-0.859375 -0.90625 -1.453125 -1.984375q-0.59375 -1.0625 -0.96875 -2.1875q-0.359375 -1.125 -0.53125 -2.265625q-0.15625 -1.15625 -0.15625 -2.203125q0 -1.03125 0.15625 -2.15625q0.171875 -1.140625 0.546875 -2.28125q0.375 -1.15625 0.984375 -2.25q0.609375 -1.109375 1.484375 -2.0625l0.890625 0.65625q-0.75 0.953125 -1.25 1.96875q-0.484375 1.015625 -0.78125 2.0625q-0.296875 1.03125 -0.421875 2.078125q-0.125 1.03125 -0.125 1.984375q0 0.890625 0.140625 1.953125q0.140625 1.046875 0.4375 2.109375q0.3125 1.046875 0.8125 2.046875q0.5 1.015625 1.1875 1.84375l-0.953125 0.6875zm10.161255 -8.046875q0 0.859375 -0.265625 1.625q-0.25 0.75 -0.75 1.328125q-0.5 0.5625 -1.25 0.890625q-0.75 0.3125 -1.703125 0.3125q-0.9375 0 -1.6875 -0.296875q-0.734375 -0.296875 -1.28125 -0.875q-0.53125 -0.59375 -0.828125 -1.453125q-0.28125 -0.859375 -0.28125 -1.984375q0 -1.84375 0.46875 -3.390625q0.484375 -1.5625 1.3125 -2.71875q0.84375 -1.15625 1.984375 -1.875q1.15625 -0.71875 2.5 -0.90625l0.3125 1.1875q-1.046875 0.1875 -1.90625 0.71875q-0.859375 0.515625 -1.5 1.28125q-0.640625 0.765625 -1.0625 1.71875q-0.40625 0.953125 -0.546875 1.953125q0.296875 -0.5 1.0 -0.921875q0.71875 -0.421875 1.734375 -0.421875q1.765625 0 2.75 1.015625q1.0 1.0 1.0 2.8125zm-1.546875 0.15625q0 -1.328125 -0.609375 -2.0q-0.609375 -0.671875 -1.90625 -0.671875q-0.90625 0 -1.578125 0.453125q-0.65625 0.4375 -0.921875 1.0q-0.03125 0.265625 -0.03125 0.4375q0 0.15625 0 0.359375q0 0.578125 0.15625 1.140625q0.15625 0.5625 0.484375 1.0q0.34375 0.4375 0.828125 0.71875q0.5 0.265625 1.171875 0.265625q0.546875 0 0.984375 -0.203125q0.4375 -0.21875 0.75 -0.5625q0.328125 -0.359375 0.5 -0.859375q0.171875 -0.5 0.171875 -1.078125zm3.4645386 2.984375q0 -0.453125 0.296875 -0.734375q0.296875 -0.28125 0.765625 -0.28125q0.578125 0 0.9375 0.421875q0.359375 0.40625 0.359375 1.1875q0 0.671875 -0.1875 1.171875q-0.1875 0.5 -0.484375 0.859375q-0.296875 0.375 -0.65625 0.609375q-0.34375 0.234375 -0.703125 0.34375l-0.46875 -0.734375q0.671875 -0.25 1.0 -0.8125q0.328125 -0.546875 0.328125 -1.109375q-0.171875 0.0625 -0.3125 0.0625q-0.375 0 -0.625 -0.25q-0.25 -0.25 -0.25 -0.734375zm13.213287 0.25q-0.546875 0.4375 -1.40625 0.59375q-0.859375 0.171875 -1.828125 0.171875q-1.1875 0 -2.21875 -0.390625q-1.015625 -0.40625 -1.78125 -1.21875q-0.765625 -0.828125 -1.21875 -2.109375q-0.4375 -1.28125 -0.4375 -3.03125q0 -1.828125 0.484375 -3.09375q0.5 -1.28125 1.3125 -2.09375q0.8125 -0.8125 1.8125 -1.1875q1.015625 -0.375 2.0625 -0.375q1.109375 0 1.8125 0.125q0.71875 0.109375 1.21875 0.328125l-0.359375 1.359375q-0.90625 -0.4375 -2.5625 -0.4375q-0.765625 0 -1.515625 0.28125q-0.734375 0.28125 -1.328125 0.921875q-0.59375 0.625 -0.953125 1.65625q-0.34375 1.03125 -0.34375 2.515625q0 1.34375 0.328125 2.359375q0.34375 1.0 0.921875 1.671875q0.59375 0.671875 1.390625 1.015625q0.796875 0.328125 1.71875 0.328125q0.84375 0 1.46875 -0.171875q0.625 -0.171875 1.0625 -0.421875l0.359375 1.203125zm1.637085 -0.25q0 -0.453125 0.296875 -0.734375q0.296875 -0.28125 0.765625 -0.28125q0.578125 0 0.9375 0.421875q0.359375 0.40625 0.359375 1.1875q0 0.671875 -0.1875 1.171875q-0.1875 0.5 -0.484375 0.859375q-0.296875 0.375 -0.65625 0.609375q-0.34375 0.234375 -0.703125 0.34375l-0.46875 -0.734375q0.671875 -0.25 1.0 -0.8125q0.328125 -0.546875 0.328125 -1.109375q-0.171875 0.0625 -0.3125 0.0625q-0.375 0 -0.625 -0.25q-0.25 -0.25 -0.25 -0.734375zm4.8539124 -12.265625q0.359375 -0.046875 0.796875 -0.078125q0.4375 -0.03125 0.90625 -0.03125q0.484375 -0.015625 0.9375 -0.015625q0.46875 -0.015625 0.859375 -0.015625q1.5625 0 2.703125 0.484375q1.15625 0.484375 1.890625 1.359375q0.75 0.859375 1.109375 2.078125q0.375 1.203125 0.375 2.65625q0 1.328125 -0.34375 2.546875q-0.34375 1.21875 -1.09375 2.171875q-0.75 0.9375 -1.953125 1.515625q-1.1875 0.5625 -2.875 0.5625q-0.296875 0 -0.78125 -0.015625q-0.46875 0 -0.984375 -0.03125q-0.5 -0.03125 -0.9375 -0.046875q-0.421875 -0.015625 -0.609375 -0.0625l0 -13.078125zm3.53125 1.234375q-0.234375 0 -0.53125 0q-0.28125 0 -0.5625 0.015625q-0.28125 0.015625 -0.515625 0.046875q-0.234375 0.015625 -0.359375 0.03125l0 10.453125q0.09375 0.015625 0.34375 0.03125q0.265625 0 0.546875 0.015625q0.28125 0 0.53125 0.015625q0.265625 0 0.359375 0q1.3125 0 2.1875 -0.4375q0.890625 -0.453125 1.421875 -1.203125q0.53125 -0.765625 0.75 -1.734375q0.234375 -0.984375 0.234375 -2.03125q0 -0.90625 -0.203125 -1.828125q-0.203125 -0.9375 -0.71875 -1.671875q-0.5 -0.75 -1.34375 -1.21875q-0.84375 -0.484375 -2.140625 -0.484375zm8.076202 -1.453125q0.859375 0.890625 1.453125 1.96875q0.609375 1.0625 0.96875 2.203125q0.359375 1.125 0.53125 2.28125q0.171875 1.140625 0.171875 2.1875q0 1.015625 -0.171875 2.15625q-0.171875 1.140625 -0.546875 2.296875q-0.375 1.140625 -0.984375 2.234375q-0.59375 1.109375 -1.46875 2.0625l-0.90625 -0.65625q0.75 -0.953125 1.25 -1.984375q0.515625 -1.015625 0.796875 -2.0625q0.296875 -1.046875 0.40625 -2.0625q0.125 -1.03125 0.125 -1.984375q0 -0.90625 -0.15625 -1.9375q-0.140625 -1.046875 -0.453125 -2.109375q-0.296875 -1.0625 -0.78125 -2.0625q-0.484375 -1.015625 -1.1875 -1.84375l0.953125 -0.6875z" fill-rule="nonzero"/><path fill="#000000" d="m253.74956 105.76626q0.359375 -0.046875 0.796875 -0.078125q0.4375 -0.03125 0.90625 -0.03125q0.484375 -0.015625 0.93751526 -0.015625q0.46875 -0.015625 0.859375 -0.015625q1.5625 0 2.703125 0.484375q1.15625 0.484375 1.890625 1.359375q0.75 0.859375 1.109375 2.078125q0.375 1.203125 0.375 2.65625q0 1.328125 -0.34375 2.546875q-0.34375 1.21875 -1.09375 2.171875q-0.75 0.9375 -1.953125 1.515625q-1.1875 0.5625 -2.875 0.5625q-0.296875 0 -0.78125 -0.015625q-0.46876526 0 -0.98439026 -0.03125q-0.5 -0.03125 -0.9375 -0.046875q-0.421875 -0.015625 -0.609375 -0.0625l0 -13.078125zm3.5312653 1.234375q-0.234375 0 -0.53125 0q-0.28125 0 -0.5625 0.015625q-0.28126526 0.015625 -0.51564026 0.046875q-0.234375 0.015625 -0.359375 0.03125l0 10.453125q0.09375 0.015625 0.34375 0.03125q0.265625 0 0.54689026 0.015625q0.28125 0 0.53125 0.015625q0.265625 0 0.359375 0q1.3125 0 2.1875 -0.4375q0.890625 -0.453125 1.421875 -1.203125q0.53125 -0.765625 0.75 -1.734375q0.234375 -0.984375 0.234375 -2.03125q0 -0.90625 -0.203125 -1.828125q-0.203125 -0.9375 -0.71875 -1.671875q-0.5 -0.75 -1.34375 -1.21875q-0.84375 -0.484375 -2.140625 -0.484375z" fill-rule="nonzero"/><path fill="#000000" d="m283.52573 110.84438q1.203125 1.328125 2.078125 2.015625q0.890625 0.6875 1.671875 1.015625l0 0.421875q-0.890625 0.4375 -1.75 1.125q-0.84375 0.671875 -2.015625 1.96875l-0.703125 0q0.859375 -1.828125 1.796875 -2.8125l-14.53125 0l0 -0.921875l14.53125 0q-0.6875 -0.875 -0.96875 -1.296875q-0.265625 -0.4375 -0.8125 -1.515625l0.703125 0z" fill-rule="nonzero"/><path fill="#000000" d="m297.22568 122.93813q-0.859375 -0.90625 -1.453125 -1.984375q-0.59375 -1.0625 -0.96875 -2.1875q-0.359375 -1.125 -0.53125 -2.265625q-0.15625 -1.15625 -0.15625 -2.203125q0 -1.03125 0.15625 -2.15625q0.171875 -1.140625 0.546875 -2.28125q0.375 -1.15625 0.984375 -2.25q0.609375 -1.109375 1.484375 -2.0625l0.890625 0.65625q-0.75 0.953125 -1.25 1.96875q-0.484375 1.015625 -0.78125 2.0625q-0.296875 1.03125 -0.421875 2.078125q-0.125 1.03125 -0.125 1.984375q0 0.890625 0.140625 1.953125q0.140625 1.046875 0.4375 2.109375q0.3125 1.046875 0.8125 2.046875q0.5 1.015625 1.1875 1.84375l-0.953125 0.6875zm9.317505 -14.203125q0 0.984375 -0.375 2.03125q-0.359375 1.03125 -0.953125 2.078125q-0.578125 1.046875 -1.3125 2.046875q-0.71875 0.984375 -1.453125 1.890625l-0.90625 0.796875l0 0.078125l1.1875 -0.203125l4.0625 0l0 1.375l-7.421875 0l0 -0.546875q0.40625 -0.421875 0.984375 -1.046875q0.578125 -0.640625 1.203125 -1.40625q0.625 -0.78125 1.234375 -1.640625q0.609375 -0.875 1.09375 -1.765625q0.5 -0.90625 0.796875 -1.78125q0.296875 -0.875 0.296875 -1.65625q0 -0.921875 -0.515625 -1.53125q-0.515625 -0.609375 -1.578125 -0.609375q-0.71875 0 -1.390625 0.296875q-0.671875 0.28125 -1.15625 0.65625l-0.609375 -1.0625q0.65625 -0.5625 1.546875 -0.875q0.890625 -0.3125 1.921875 -0.3125q0.796875 0 1.40625 0.234375q0.625 0.234375 1.046875 0.671875q0.4375 0.421875 0.65625 1.015625q0.234375 0.578125 0.234375 1.265625zm2.7614136 9.296875q0 -0.453125 0.296875 -0.734375q0.296875 -0.28125 0.765625 -0.28125q0.578125 0 0.9375 0.421875q0.359375 0.40625 0.359375 1.1875q0 0.671875 -0.1875 1.171875q-0.1875 0.5 -0.484375 0.859375q-0.296875 0.375 -0.65625 0.609375q-0.34375 0.234375 -0.703125 0.34375l-0.46875 -0.734375q0.671875 -0.25 1.0 -0.8125q0.328125 -0.546875 0.328125 -1.109375q-0.171875 0.0625 -0.3125 0.0625q-0.375 0 -0.625 -0.25q-0.25 -0.25 -0.25 -0.734375zm4.8539124 -12.265625q0.359375 -0.046875 0.796875 -0.078125q0.4375 -0.03125 0.90625 -0.03125q0.484375 -0.015625 0.9375 -0.015625q0.46875 -0.015625 0.859375 -0.015625q1.5625 0 2.703125 0.484375q1.15625 0.484375 1.890625 1.359375q0.75 0.859375 1.109375 2.078125q0.375 1.203125 0.375 2.65625q0 1.328125 -0.34375 2.546875q-0.34375 1.21875 -1.09375 2.171875q-0.75 0.9375 -1.953125 1.515625q-1.1875 0.5625 -2.875 0.5625q-0.296875 0 -0.78125 -0.015625q-0.46875 0 -0.984375 -0.03125q-0.5 -0.03125 -0.9375 -0.046875q-0.421875 -0.015625 -0.609375 -0.0625l0 -13.078125zm3.53125 1.234375q-0.234375 0 -0.53125 0q-0.28125 0 -0.5625 0.015625q-0.28125 0.015625 -0.515625 0.046875q-0.234375 0.015625 -0.359375 0.03125l0 10.453125q0.09375 0.015625 0.34375 0.03125q0.265625 0 0.546875 0.015625q0.28125 0 0.53125 0.015625q0.265625 0 0.359375 0q1.3125 0 2.1875 -0.4375q0.890625 -0.453125 1.421875 -1.203125q0.53125 -0.765625 0.75 -1.734375q0.234375 -0.984375 0.234375 -2.03125q0 -0.90625 -0.203125 -1.828125q-0.203125 -0.9375 -0.71875 -1.671875q-0.5 -0.75 -1.34375 -1.21875q-0.84375 -0.484375 -2.140625 -0.484375zm7.453705 11.03125q0 -0.453125 0.296875 -0.734375q0.296875 -0.28125 0.765625 -0.28125q0.578125 0 0.9375 0.421875q0.359375 0.40625 0.359375 1.1875q0 0.671875 -0.1875 1.171875q-0.1875 0.5 -0.484375 0.859375q-0.296875 0.375 -0.65625 0.609375q-0.34375 0.234375 -0.703125 0.34375l-0.46875 -0.734375q0.671875 -0.25 1.0 -0.8125q0.328125 -0.546875 0.328125 -1.109375q-0.171875 0.0625 -0.3125 0.0625q-0.375 0 -0.625 -0.25q-0.25 -0.25 -0.25 -0.734375zm4.8539124 -12.265625q0.359375 -0.046875 0.796875 -0.078125q0.4375 -0.03125 0.90625 -0.03125q0.484375 -0.015625 0.9375 -0.015625q0.46875 -0.015625 0.859375 -0.015625q1.5625 0 2.703125 0.484375q1.15625 0.484375 1.890625 1.359375q0.75 0.859375 1.109375 2.078125q0.375 1.203125 0.375 2.65625q0 1.328125 -0.34375 2.546875q-0.34375 1.21875 -1.09375 2.171875q-0.75 0.9375 -1.953125 1.515625q-1.1875 0.5625 -2.875 0.5625q-0.296875 0 -0.78125 -0.015625q-0.46875 0 -0.984375 -0.03125q-0.5 -0.03125 -0.9375 -0.046875q-0.421875 -0.015625 -0.609375 -0.0625l0 -13.078125zm3.53125 1.234375q-0.234375 0 -0.53125 0q-0.28125 0 -0.5625 0.015625q-0.28125 0.015625 -0.515625 0.046875q-0.234375 0.015625 -0.359375 0.03125l0 10.453125q0.09375 0.015625 0.34375 0.03125q0.265625 0 0.546875 0.015625q0.28125 0 0.53125 0.015625q0.265625 0 0.359375 0q1.3125 0 2.1875 -0.4375q0.890625 -0.453125 1.421875 -1.203125q0.53125 -0.765625 0.75 -1.734375q0.234375 -0.984375 0.234375 -2.03125q0 -0.90625 -0.203125 -1.828125q-0.203125 -0.9375 -0.71875 -1.671875q-0.5 -0.75 -1.34375 -1.21875q-0.84375 -0.484375 -2.140625 -0.484375zm8.076172 -1.453125q0.859375 0.890625 1.453125 1.96875q0.609375 1.0625 0.96875 2.203125q0.359375 1.125 0.53125 2.28125q0.171875 1.140625 0.171875 2.1875q0 1.015625 -0.171875 2.15625q-0.171875 1.140625 -0.546875 2.296875q-0.375 1.140625 -0.984375 2.234375q-0.59375 1.109375 -1.46875 2.0625l-0.90625 -0.65625q0.75 -0.953125 1.25 -1.984375q0.515625 -1.015625 0.796875 -2.0625q0.296875 -1.046875 0.40625 -2.0625q0.125 -1.03125 0.125 -1.984375q0 -0.90625 -0.15625 -1.9375q-0.140625 -1.046875 -0.453125 -2.109375q-0.296875 -1.0625 -0.78125 -2.0625q-0.484375 -1.015625 -1.1875 -1.84375l0.953125 -0.6875z" fill-rule="nonzero"/><path stroke="#9e9e9e" stroke-width="1.0" stroke-linecap="butt" d="m448.93192 56.583908l0 105.82677" fill-rule="nonzero"/><path stroke="#9e9e9e" stroke-width="1.0" stroke-linecap="butt" d="m475.3886 28.628527l0 133.78215" fill-rule="nonzero"/><path stroke="#9e9e9e" stroke-width="1.0" stroke-linecap="butt" d="m501.84528 29.129839l0 133.28084" fill-rule="nonzero"/><path stroke="#9e9e9e" stroke-width="1.0" stroke-linecap="butt" d="m528.302 29.129839l0 133.28084" fill-rule="nonzero"/><path stroke="#9e9e9e" stroke-width="1.0" stroke-linecap="butt" d="m554.75867 29.129839l0 133.28084" fill-rule="nonzero"/><path stroke="#9e9e9e" stroke-width="1.0" stroke-linecap="butt" d="m581.2154 29.129839l0 133.28084" fill-rule="nonzero"/><path stroke="#9e9e9e" stroke-width="1.0" stroke-linecap="butt" d="m475.8873 29.628527l105.82675 0" fill-rule="nonzero"/><path stroke="#9e9e9e" stroke-width="1.0" stroke-linecap="butt" d="m447.93192 56.08522l133.78214 0" fill-rule="nonzero"/><path stroke="#9e9e9e" stroke-width="1.0" stroke-linecap="butt" d="m448.43323 82.54191l133.28082 0" fill-rule="nonzero"/><path stroke="#9e9e9e" stroke-width="1.0" stroke-linecap="butt" d="m448.43323 108.998604l133.28082 0" fill-rule="nonzero"/><path stroke="#9e9e9e" stroke-width="1.0" stroke-linecap="butt" d="m448.43323 135.45529l133.28082 0" fill-rule="nonzero"/><path stroke="#9e9e9e" stroke-width="1.0" stroke-linecap="butt" d="m448.43323 161.91199l133.28082 0" fill-rule="nonzero"/><path fill="#000000" d="m490.95688 45.95187l-4.8125 0l-1.3125 3.625l-1.515625 0l4.9375 -13.265625l0.703125 0l4.96875 13.265625l-1.625 0l-1.34375 -3.625zm-4.3125 -1.34375l3.84375 0l-1.453125 -3.96875l-0.46875 -1.96875l-0.015625 0l-0.46875 2.0l-1.4375 3.9375z" fill-rule="nonzero"/><path fill="#000000" d="m519.07916 39.498745q0 0.46875 -0.15625 0.953125q-0.140625 0.484375 -0.4375 0.90625q-0.296875 0.421875 -0.765625 0.75q-0.46875 0.3125 -1.09375 0.46875l0 0.078125q0.5625 0.09375 1.0625 0.328125q0.515625 0.21875 0.90625 0.609375q0.390625 0.390625 0.625 0.953125q0.25 0.546875 0.25 1.3125q0 1.015625 -0.421875 1.75q-0.40625 0.734375 -1.09375 1.203125q-0.671875 0.46875 -1.5625 0.703125q-0.875 0.21875 -1.78125 0.21875q-0.3125 0 -0.75 0q-0.421875 0 -0.890625 -0.03125q-0.46875 -0.03125 -0.9375 -0.078125q-0.46878052 -0.046875 -0.8281555 -0.140625l0 -12.859375q0.703125 -0.109375 1.6094055 -0.171875q0.921875 -0.078125 2.0 -0.078125q0.71875 0 1.46875 0.125q0.765625 0.109375 1.375 0.453125q0.625 0.34375 1.015625 0.96875q0.40625 0.609375 0.40625 1.578125zm-4.328125 8.890625q0.609375 0 1.15625 -0.140625q0.5625 -0.140625 0.984375 -0.453125q0.4375 -0.3125 0.6875 -0.75q0.25 -0.453125 0.25 -1.0625q0 -0.765625 -0.3125 -1.234375q-0.296875 -0.46875 -0.796875 -0.734375q-0.484375 -0.265625 -1.109375 -0.34375q-0.609375 -0.09375 -1.234375 -0.09375l-1.609375 0l0 4.671875q0.125 0.046875 0.359375 0.0625q0.25 0.015625 0.53125 0.03125q0.28125 0.015625 0.578125 0.03125q0.296875 0.015625 0.515625 0.015625zm-1.015625 -6.125q0.3125 0 0.75 -0.015625q0.453125 -0.015625 0.75 -0.0625q0.453125 -0.140625 0.84375 -0.359375q0.390625 -0.21875 0.703125 -0.5q0.3125 -0.296875 0.484375 -0.671875q0.171875 -0.390625 0.171875 -0.828125q0 -0.625 -0.234375 -1.015625q-0.234375 -0.40625 -0.625 -0.640625q-0.390625 -0.25 -0.890625 -0.34375q-0.5 -0.109375 -1.03125 -0.109375q-0.609375 0 -1.125 0.03125q-0.515625 0.015625 -0.765625 0.078125l0 4.4375l0.96875 0z" fill-rule="nonzero"/><path fill="#000000" d="m546.1415 49.029995q-0.546875 0.4375 -1.40625 0.59375q-0.859375 0.171875 -1.828125 0.171875q-1.1875 0 -2.21875 -0.390625q-1.015625 -0.40625 -1.78125 -1.21875q-0.765625 -0.828125 -1.21875 -2.109375q-0.4375 -1.28125 -0.4375 -3.03125q0 -1.828125 0.484375 -3.09375q0.5 -1.28125 1.3125 -2.09375q0.8125 -0.8125 1.8125 -1.1875q1.015625 -0.375 2.0625 -0.375q1.109375 0 1.8125 0.125q0.71875 0.109375 1.21875 0.328125l-0.359375 1.359375q-0.90625 -0.4375 -2.5625 -0.4375q-0.765625 0 -1.515625 0.28125q-0.734375 0.28125 -1.328125 0.921875q-0.59375 0.625 -0.953125 1.65625q-0.34375 1.03125 -0.34375 2.515625q0 1.34375 0.328125 2.359375q0.34375 1.0 0.921875 1.671875q0.59375 0.671875 1.390625 1.015625q0.796875 0.328125 1.71875 0.328125q0.84375 0 1.46875 -0.171875q0.625 -0.171875 1.0625 -0.421875l0.359375 1.203125z" fill-rule="nonzero"/><path fill="#000000" d="m563.46454 36.51437q0.359375 -0.046875 0.796875 -0.078125q0.4375 -0.03125 0.90625 -0.03125q0.484375 -0.015625 0.9375 -0.015625q0.46875 -0.015625 0.859375 -0.015625q1.5625 0 2.703125 0.484375q1.15625 0.484375 1.890625 1.359375q0.75 0.859375 1.109375 2.078125q0.375 1.203125 0.375 2.65625q0 1.328125 -0.34375 2.546875q-0.34375 1.21875 -1.09375 2.171875q-0.75 0.9375 -1.953125 1.515625q-1.1875 0.5625 -2.875 0.5625q-0.296875 0 -0.78125 -0.015625q-0.46875 0 -0.984375 -0.03125q-0.5 -0.03125 -0.9375 -0.046875q-0.421875 -0.015625 -0.609375 -0.0625l0 -13.078125zm3.53125 1.234375q-0.234375 0 -0.53125 0q-0.28125 0 -0.5625 0.015625q-0.28125 0.015625 -0.515625 0.046875q-0.234375 0.015625 -0.359375 0.03125l0 10.453125q0.09375 0.015625 0.34375 0.03125q0.265625 0 0.546875 0.015625q0.28125 0 0.53125 0.015625q0.265625 0 0.359375 0q1.3125 0 2.1875 -0.4375q0.890625 -0.453125 1.421875 -1.203125q0.53125 -0.765625 0.75 -1.734375q0.234375 -0.984375 0.234375 -2.03125q0 -0.90625 -0.203125 -1.828125q-0.203125 -0.9375 -0.71875 -1.671875q-0.5 -0.75 -1.34375 -1.21875q-0.84375 -0.484375 -2.140625 -0.484375z" fill-rule="nonzero"/><path fill="#000000" d="m464.50018 72.40856l-4.8125 0l-1.3125 3.625l-1.515625 0l4.9375 -13.265621l0.703125 0l4.96875 13.265621l-1.625 0l-1.34375 -3.625zm-4.3125 -1.34375l3.84375 0l-1.453125 -3.96875l-0.46875 -1.96875l-0.015625 0l-0.46875 2.0l-1.4375 3.9375z" fill-rule="nonzero"/><path fill="#000000" d="m538.49335 76.03356l4.6875 -10.9375l0.828125 -0.90625l-1.109375 0.171875l-5.3125 0l0 -1.3906212l7.796875 0l0 0.5l-5.375 12.562496l-1.515625 0z" fill-rule="nonzero"/><path fill="#000000" d="m466.16574 92.41213q0 0.46875 -0.15625 0.953125q-0.140625 0.484375 -0.4375 0.90625q-0.296875 0.421875 -0.765625 0.75q-0.46875 0.3125 -1.09375 0.46875l0 0.078125q0.5625 0.09375 1.0625 0.328125q0.515625 0.21875 0.90625 0.609375q0.390625 0.390625 0.625 0.953125q0.25 0.546875 0.25 1.3125q0 1.015625 -0.421875 1.75q-0.40625 0.734375 -1.09375 1.203125q-0.671875 0.46875 -1.5625 0.703125q-0.875 0.21875 -1.78125 0.21875q-0.3125 0 -0.75 0q-0.421875 0 -0.890625 -0.03125q-0.46875 -0.03125 -0.9375 -0.078125q-0.46875 -0.046875 -0.828125 -0.140625l0 -12.859375q0.703125 -0.109375 1.609375 -0.171875q0.921875 -0.078125 2.0 -0.078125q0.71875 0 1.46875 0.125q0.765625 0.109375 1.375 0.453125q0.625 0.34375 1.015625 0.96875q0.40625 0.609375 0.40625 1.578125zm-4.328125 8.890625q0.609375 0 1.15625 -0.140625q0.5625 -0.140625 0.984375 -0.453125q0.4375 -0.3125 0.6875 -0.75q0.25 -0.453125 0.25 -1.0625q0 -0.765625 -0.3125 -1.234375q-0.296875 -0.46875 -0.796875 -0.734375q-0.484375 -0.265625 -1.109375 -0.34375q-0.609375 -0.09375 -1.234375 -0.09375l-1.609375 0l0 4.671875q0.125 0.046875 0.359375 0.0625q0.25 0.015625 0.53125 0.03125q0.28125 0.015625 0.578125 0.03125q0.296875 0.015625 0.515625 0.015625zm-1.015625 -6.125q0.3125 0 0.75 -0.015625q0.453125 -0.015625 0.75 -0.0625q0.453125 -0.140625 0.84375 -0.359375q0.390625 -0.21875 0.703125 -0.5q0.3125 -0.296875 0.484375 -0.671875q0.171875 -0.390625 0.171875 -0.828125q0 -0.625 -0.234375 -1.015625q-0.234375 -0.40625 -0.625 -0.640625q-0.390625 -0.25 -0.890625 -0.34375q-0.5 -0.109375 -1.03125 -0.109375q-0.609375 0 -1.125 0.03125q-0.515625 0.015625 -0.765625 0.078125l0 4.4375l0.96875 0z" fill-rule="nonzero"/><path fill="#000000" d="m484.79874 99.38088q0 -1.1875 0.609375 -2.046875q0.625 -0.875 1.9375 -1.578125q-0.46875 -0.28125 -0.875 -0.578125q-0.40625 -0.3125 -0.71875 -0.703125q-0.296875 -0.390625 -0.484375 -0.875q-0.171875 -0.5 -0.171875 -1.125q0 -0.734375 0.25 -1.328125q0.265625 -0.59375 0.734375 -1.015625q0.46875 -0.4375 1.125 -0.671875q0.671875 -0.25 1.515625 -0.25q0.78125 0 1.40625 0.234375q0.640625 0.21875 1.078125 0.609375q0.4375 0.390625 0.671875 0.9375q0.25 0.53125 0.25 1.1875q0 1.0625 -0.484375 1.875q-0.484375 0.8125 -1.59375 1.59375q0.484375 0.28125 0.921875 0.625q0.4375 0.328125 0.765625 0.734375q0.328125 0.40625 0.515625 0.921875q0.1875 0.515625 0.1875 1.171875q0 0.796875 -0.265625 1.46875q-0.265625 0.65625 -0.765625 1.140625q-0.5 0.46875 -1.234375 0.734375q-0.734375 0.265625 -1.65625 0.265625q-0.90625 0 -1.59375 -0.25q-0.6875 -0.265625 -1.171875 -0.703125q-0.46875 -0.453125 -0.71875 -1.0625q-0.234375 -0.609375 -0.234375 -1.3125zm6.171875 -0.1875q0 -0.5625 -0.21875 -0.984375q-0.21875 -0.421875 -0.59375 -0.765625q-0.359375 -0.34375 -0.828125 -0.625q-0.46875 -0.28125 -0.96875 -0.546875q-1.140625 0.640625 -1.625 1.421875q-0.484375 0.78125 -0.484375 1.5q0 0.4375 0.140625 0.859375q0.15625 0.40625 0.453125 0.703125q0.3125 0.296875 0.75 0.484375q0.4375 0.171875 1.015625 0.171875q0.46875 0 0.890625 -0.140625q0.4375 -0.140625 0.75 -0.40625q0.328125 -0.28125 0.515625 -0.703125q0.203125 -0.421875 0.203125 -0.96875zm-4.421875 -6.765625q0 0.53125 0.203125 0.9375q0.21875 0.390625 0.5625 0.71875q0.34375 0.3125 0.78125 0.578125q0.453125 0.265625 0.9375 0.515625q0.84375 -0.65625 1.234375 -1.28125q0.40625 -0.640625 0.40625 -1.40625q0 -0.953125 -0.59375 -1.46875q-0.578125 -0.515625 -1.390625 -0.515625q-0.515625 0 -0.90625 0.171875q-0.390625 0.171875 -0.671875 0.4375q-0.28125 0.25 -0.421875 0.609375q-0.140625 0.34375 -0.140625 0.703125z" fill-rule="nonzero"/><path fill="#000000" d="m466.7714 128.40007q-0.546875 0.4375 -1.40625 0.59375q-0.859375 0.171875 -1.828125 0.171875q-1.1875 0 -2.21875 -0.390625q-1.015625 -0.40625 -1.78125 -1.2187424q-0.765625 -0.828125 -1.21875 -2.109375q-0.4375 -1.28125 -0.4375 -3.03125q0 -1.828125 0.484375 -3.09375q0.5 -1.28125 1.3125 -2.09375q0.8125 -0.8125 1.8125 -1.1875q1.015625 -0.375 2.0625 -0.375q1.109375 0 1.8125 0.125q0.71875 0.109375 1.21875 0.328125l-0.359375 1.359375q-0.90625 -0.4375 -2.5625 -0.4375q-0.765625 0 -1.515625 0.28125q-0.734375 0.28125 -1.328125 0.921875q-0.59375 0.625 -0.953125 1.65625q-0.34375 1.03125 -0.34375 2.515625q0 1.34375 0.328125 2.359375q0.34375 1.0 0.921875 1.671875q0.59375 0.671875 1.390625 1.015625q0.796875 0.328125 1.71875 0.328125q0.84375 0 1.46875 -0.171875q0.625 -0.171875 1.0625 -0.421875l0.359375 1.2031174z" fill-rule="nonzero"/><path fill="#000000" d="m487.8925 127.86883q0.640625 0 1.171875 -0.1875q0.546875 -0.1875 0.9375 -0.546875q0.390625 -0.375 0.609375 -0.875q0.234375 -0.5 0.234375 -1.09375q0 -1.3125 -0.78125 -1.9375q-0.765625 -0.640625 -2.125 -0.640625l-1.390625 0l0 -0.546875l2.6875 -4.140625l0.859375 -0.8125l-1.203125 0.1875l-3.703125 0l0 -1.390625l6.671875 0l0 0.546875l-2.96875 4.453125l-0.65625 0.546875l0 0.03125l0.625 -0.125q0.75 0.015625 1.375 0.265625q0.640625 0.25 1.109375 0.734375q0.46875 0.46875 0.734375 1.140625q0.265625 0.65625 0.265625 1.5q0 1.0 -0.359375 1.78125q-0.359375 0.78125 -0.96875 1.3281174q-0.59375 0.53125 -1.421875 0.8125q-0.8125 0.265625 -1.734375 0.265625q-0.84375 0 -1.515625 -0.125q-0.671875 -0.125 -1.171875 -0.34375l0.390625 -1.3124924q0.4375 0.203125 1.015625 0.34375q0.59375 0.140625 1.3125 0.140625z" fill-rule="nonzero"/><path fill="#000000" d="m514.3492 127.86883q0.640625 0 1.171875 -0.1875q0.546875 -0.1875 0.9375 -0.546875q0.390625 -0.375 0.609375 -0.875q0.234375 -0.5 0.234375 -1.09375q0 -1.3125 -0.78125 -1.9375q-0.765625 -0.640625 -2.125 -0.640625l-1.390625 0l0 -0.546875l2.6875 -4.140625l0.859375 -0.8125l-1.203125 0.1875l-3.703125 0l0 -1.390625l6.671875 0l0 0.546875l-2.96875 4.453125l-0.65625 0.546875l0 0.03125l0.625 -0.125q0.75 0.015625 1.375 0.265625q0.640625 0.25 1.109375 0.734375q0.46875 0.46875 0.734375 1.140625q0.265625 0.65625 0.265625 1.5q0 1.0 -0.359375 1.78125q-0.359375 0.78125 -0.96875 1.3281174q-0.59375 0.53125 -1.421875 0.8125q-0.8125 0.265625 -1.734375 0.265625q-0.84375 0 -1.515625 -0.125q-0.671875 -0.125 -1.171875 -0.34375l0.390625 -1.3124924q0.4375 0.203125 1.015625 0.34375q0.59375 0.140625 1.3125 0.140625z" fill-rule="nonzero"/><path fill="#000000" d="m457.6378 142.34114q0.359375 -0.046875 0.796875 -0.078125q0.4375 -0.03125 0.90625 -0.03125q0.484375 -0.015625 0.9375 -0.015625q0.46875 -0.015625 0.859375 -0.015625q1.5625 0 2.703125 0.484375q1.15625 0.484375 1.890625 1.359375q0.75 0.859375 1.109375 2.078125q0.375 1.203125 0.375 2.65625q0 1.328125 -0.34375 2.546875q-0.34375 1.21875 -1.09375 2.171875q-0.75 0.9375 -1.953125 1.515625q-1.1875 0.5625 -2.875 0.5625q-0.296875 0 -0.78125 -0.015625q-0.46875 0 -0.984375 -0.03125q-0.5 -0.03125 -0.9375 -0.046875q-0.421875 -0.015625 -0.609375 -0.0625l0 -13.078125zm3.53125 1.234375q-0.234375 0 -0.53125 0q-0.28125 0 -0.5625 0.015625q-0.28125 0.015625 -0.515625 0.046875q-0.234375 0.015625 -0.359375 0.03125l0 10.453125q0.09375 0.015625 0.34375 0.03125q0.265625 0 0.546875 0.015625q0.28125 0 0.53125 0.015625q0.265625 0 0.359375 0q1.3125 0 2.1875 -0.4375q0.890625 -0.453125 1.421875 -1.203125q0.53125 -0.765625 0.75 -1.734375q0.234375 -0.984375 0.234375 -2.03125q0 -0.90625 -0.203125 -1.828125q-0.203125 -0.9375 -0.71875 -1.671875q-0.5 -0.75 -1.34375 -1.21875q-0.84375 -0.484375 -2.140625 -0.484375z" fill-rule="nonzero"/><path fill="#000000" d="m545.61835 151.46614q0 0.859375 -0.265625 1.625q-0.25 0.75 -0.75 1.328125q-0.5 0.5625 -1.25 0.890625q-0.75 0.3125 -1.703125 0.3125q-0.9375 0 -1.6875 -0.296875q-0.734375 -0.296875 -1.28125 -0.875q-0.53125 -0.59375 -0.828125 -1.453125q-0.28125 -0.859375 -0.28125 -1.984375q0 -1.84375 0.46875 -3.390625q0.484375 -1.5625 1.3125 -2.71875q0.84375 -1.15625 1.984375 -1.875q1.15625 -0.71875 2.5 -0.90625l0.3125 1.1875q-1.046875 0.1875 -1.90625 0.71875q-0.859375 0.515625 -1.5 1.28125q-0.640625 0.765625 -1.0625 1.71875q-0.40625 0.953125 -0.546875 1.953125q0.296875 -0.5 1.0 -0.921875q0.71875 -0.421875 1.734375 -0.421875q1.765625 0 2.75 1.015625q1.0 1.0 1.0 2.8125zm-1.546875 0.15625q0 -1.328125 -0.609375 -2.0q-0.609375 -0.671875 -1.90625 -0.671875q-0.90625 0 -1.578125 0.453125q-0.65625 0.4375 -0.921875 1.0q-0.03125 0.265625 -0.03125 0.4375q0 0.15625 0 0.359375q0 0.578125 0.15625 1.140625q0.15625 0.5625 0.484375 1.0q0.34375 0.4375 0.828125 0.71875q0.5 0.265625 1.171875 0.265625q0.546875 0 0.984375 -0.203125q0.4375 -0.21875 0.75 -0.5625q0.328125 -0.359375 0.5 -0.859375q0.171875 -0.5 0.171875 -1.078125z" fill-rule="nonzero"/><path fill="#000000" d="m571.2313 145.30989q0 0.984375 -0.375 2.03125q-0.359375 1.03125 -0.953125 2.078125q-0.578125 1.046875 -1.3125 2.046875q-0.71875 0.984375 -1.453125 1.890625l-0.90625 0.796875l0 0.078125l1.1875 -0.203125l4.0625 0l0 1.375l-7.421875 0l0 -0.546875q0.40625 -0.421875 0.984375 -1.046875q0.578125 -0.640625 1.203125 -1.40625q0.625 -0.78125 1.234375 -1.640625q0.609375 -0.875 1.09375 -1.765625q0.5 -0.90625 0.796875 -1.78125q0.296875 -0.875 0.296875 -1.65625q0 -0.921875 -0.515625 -1.53125q-0.515625 -0.609375 -1.578125 -0.609375q-0.71875 0 -1.390625 0.296875q-0.671875 0.28125 -1.15625 0.65625l-0.609375 -1.0625q0.65625 -0.5625 1.546875 -0.875q0.890625 -0.3125 1.921875 -0.3125q0.796875 0 1.40625 0.234375q0.625 0.234375 1.046875 0.671875q0.4375 0.421875 0.65625 1.015625q0.234375 0.578125 0.234375 1.265625z" fill-rule="nonzero"/><path fill="#000000" fill-opacity="0.0" d="m468.33347 -2.6234424l93.480316 0l0 42.01575l-93.480316 0z" fill-rule="evenodd"/><path fill="#000000" d="m478.69284 13.0934305l6.09375 0l0 1.1875l-4.765625 0l0 3.828126l4.453125 0l0 1.171875l-4.453125 0l0 5.015625l-1.328125 0l0 -11.203126zm11.928284 4.437501q-0.484375 -0.15625 -0.921875 -0.15625q-0.6875 0 -1.09375 0.375q-0.390625 0.375 -0.484375 0.953125l0 5.59375l-1.28125 0l0 -8.0l0.890625 0l0.25 0.96875l0.0625 0q0.296875 -0.53125 0.71875 -0.828125q0.421875 -0.296875 1.078125 -0.296875q0.46875 0 1.046875 0.15625l-0.265625 1.234375zm1.2056274 2.765625q0 -2.03125 0.90625 -3.109375q0.90625 -1.078125 2.59375 -1.078125q0.90625 0 1.5625 0.296875q0.671875 0.296875 1.09375 0.84375q0.4375 0.546875 0.640625 1.328125q0.21875 0.78125 0.21875 1.71875q0 2.03125 -0.90625 3.109375q-0.90625 1.078125 -2.609375 1.078125q-0.890625 0 -1.5625 -0.296875q-0.65625 -0.296875 -1.09375 -0.84375q-0.421875 -0.546875 -0.640625 -1.328125q-0.203125 -0.78125 -0.203125 -1.71875zm1.328125 0q0 0.609375 0.125 1.171875q0.125 0.5625 0.375 0.984375q0.25 0.40625 0.671875 0.671875q0.421875 0.25 1.0 0.25q2.1875 0.015625 2.1875 -3.078125q0 -0.625 -0.125 -1.1875q-0.125 -0.5625 -0.375 -0.96875q-0.25 -0.421875 -0.671875 -0.671875q-0.421875 -0.25 -1.015625 -0.25q-2.171875 -0.015625 -2.171875 3.078125zm12.388519 4.0l0 -4.53125q0 -0.640625 -0.0625 -1.109375q-0.046875 -0.46875 -0.21875 -0.78125q-0.15625 -0.328125 -0.453125 -0.484375q-0.296875 -0.171875 -0.765625 -0.171875q-0.734375 0 -1.234375 0.453125q-0.484375 0.453125 -0.671875 1.125l0 5.5l-1.28125 0l0 -8.0l0.890625 0l0.25 0.96875l0.0625 0q0.421875 -0.5 0.984375 -0.828125q0.578125 -0.328125 1.484375 -0.328125q0.78125 0 1.265625 0.296875q0.484375 0.296875 0.75 1.03125q0.375 -0.625 1.015625 -0.96875q0.65625 -0.359375 1.46875 -0.359375q0.671875 0 1.140625 0.15625q0.46875 0.140625 0.765625 0.53125q0.296875 0.375 0.4375 1.03125q0.140625 0.65625 0.140625 1.671875l0 4.796875l-1.28125 0l0 -4.8125q0 -0.578125 -0.0625 -1.0q-0.046875 -0.421875 -0.21875 -0.703125q-0.171875 -0.28125 -0.46875 -0.421875q-0.296875 -0.140625 -0.765625 -0.140625q-0.8125 0 -1.265625 0.453125q-0.4375 0.453125 -0.625 1.28125l0 5.34375l-1.28125 0z" fill-rule="nonzero"/><path fill="#000000" d="m531.05743 16.312181q1.203125 1.328125 2.078125 2.015625q0.890625 0.6875 1.671875 1.015625l0 0.421875q-0.890625 0.4375 -1.75 1.125q-0.84375 0.671875 -2.015625 1.96875l-0.703125 0q0.859375 -1.828125 1.796875 -2.8125l-14.53125 0l0 -0.921875l14.53125 0q-0.6875 -0.875 -0.96875 -1.296875q-0.265625 -0.4375 -0.8125 -1.515625l0.703125 0z" fill-rule="nonzero"/><path fill="#000000" fill-opacity="0.0" d="m429.7953 54.272964l41.826782 0l0 42.614174l-41.826782 0z" fill-rule="evenodd"/><path fill="#000000" d="m439.38904 60.61734l-3.484375 0l0 10.015625l-1.328125 0l0 -10.015625l-3.5 0l0 -1.1875l8.3125 0l0 1.1875zm-0.98046875 6.015625q0 -2.03125 0.90625 -3.109375q0.90625 -1.078125 2.59375 -1.078125q0.90625 0 1.5625 0.296875q0.671875 0.296875 1.09375 0.84375q0.4375 0.546875 0.640625 1.328125q0.21875 0.78125 0.21875 1.71875q0 2.03125 -0.90625 3.109375q-0.90625 1.078125 -2.609375 1.078125q-0.890625 0 -1.5625 -0.296875q-0.65625 -0.296875 -1.09375 -0.84375q-0.421875 -0.546875 -0.640625 -1.328125q-0.203125 -0.78125 -0.203125 -1.71875zm1.328125 0q0 0.609375 0.125 1.171875q0.125 0.5625 0.375 0.984375q0.25 0.40625 0.671875 0.671875q0.421875 0.25 1.0 0.25q2.1875 0.015625 2.1875 -3.078125q0 -0.625 -0.125 -1.1875q-0.125 -0.5625 -0.375 -0.96875q-0.25 -0.421875 -0.671875 -0.671875q-0.421875 -0.25 -1.015625 -0.25q-2.171875 -0.015625 -2.171875 3.078125z" fill-rule="nonzero"/><path fill="#000000" d="m436.27042 89.95797l0 -0.59375q0.921875 0.453125 1.28125 0.6875q0.375 0.25 1.125 0.84375l0 -11.53125l0.796875 0l0 11.53125q0.84375 -0.8125 2.40625 -1.546875l0 0.609375q-1.125 1.0 -1.703125 1.71875q-0.578125 0.734375 -0.953125 1.515625l-0.359375 0q-0.28125 -0.671875 -0.875 -1.4375q-0.59375 -0.75 -1.71875 -1.796875z" fill-rule="nonzero"/></g></svg>