<svg version="1.1" viewBox="0.0 0.0 518.7086614173228 172.9028871391076" fill="none" stroke="none" stroke-linecap="square" stroke-miterlimit="10" xmlns:xlink="http://www.w3.org/1999/xlink" xmlns="http://www.w3.org/2000/svg"><clipPath id="p.0"><path d="m0 0l518.7087 0l0 172.9029l-518.7087 0l0 -172.9029z" clip-rule="nonzero"/></clipPath><g clip-path="url(#p.0)"><path fill="#000000" fill-opacity="0.0" d="m0 0l518.7087 0l0 172.9029l-518.7087 0z" fill-rule="evenodd"/><path fill="#000000" fill-opacity="0.0" d="m27.303741 30.212599l0 0c0 -14.507259 11.760456 -26.267717 26.267715 -26.267717l0 0c6.966633 0 13.647926 2.7674837 18.574081 7.6936364c4.926155 4.926152 7.693634 11.607448 7.693634 18.574081l0 0c0 14.507257 -11.760452 26.267717 -26.267715 26.267717l0 0c-14.507259 0 -26.267715 -11.76046 -26.267715 -26.267717z" fill-rule="evenodd"/><path stroke="#000000" stroke-width="3.0" stroke-linejoin="round" stroke-linecap="butt" d="m27.303741 30.212599l0 0c0 -14.507259 11.760456 -26.267717 26.267715 -26.267717l0 0c6.966633 0 13.647926 2.7674837 18.574081 7.6936364c4.926155 4.926152 7.693634 11.607448 7.693634 18.574081l0 0c0 14.507257 -11.760452 26.267717 -26.267715 26.267717l0 0c-14.507259 0 -26.267715 -11.76046 -26.267715 -26.267717z" fill-rule="evenodd"/><path fill="#000000" d="m47.31842 37.1326l5.125 -13.359377l1.90625 0l5.46875 13.359377l-2.015625 0l-1.546875 -4.046875l-5.59375 0l-1.46875 4.046875l-1.875 0zm3.859375 -5.484377l4.53125 0l-1.40625 -3.703125q-0.625 -1.6875 -0.9375 -2.765625q-0.265625 1.28125 -0.71875 2.546875l-1.46875 3.921875z" fill-rule="nonzero"/><path fill="#000000" fill-opacity="0.0" d="m79.83917 30.212599l77.133865 0" fill-rule="evenodd"/><path stroke="#000000" stroke-width="3.0" stroke-linejoin="round" stroke-linecap="butt" d="m79.83917 30.212599l77.133865 0" fill-rule="evenodd"/><path fill="#000000" fill-opacity="0.0" d="m156.98485 30.212599l0 0c0 -14.507259 11.760452 -26.267717 26.267715 -26.267717l0 0c6.966629 0 13.647919 2.7674837 18.574081 7.6936364c4.9261475 4.926152 7.693634 11.607448 7.693634 18.574081l0 0c0 14.507257 -11.760452 26.267717 -26.267715 26.267717l0 0c-14.507263 0 -26.267715 -11.76046 -26.267715 -26.267717z" fill-rule="evenodd"/><path stroke="#000000" stroke-width="3.0" stroke-linejoin="round" stroke-linecap="butt" d="m156.98485 30.212599l0 0c0 -14.507259 11.760452 -26.267717 26.267715 -26.267717l0 0c6.966629 0 13.647919 2.7674837 18.574081 7.6936364c4.9261475 4.926152 7.693634 11.607448 7.693634 18.574081l0 0c0 14.507257 -11.760452 26.267717 -26.267715 26.267717l0 0c-14.507263 0 -26.267715 -11.76046 -26.267715 -26.267717z" fill-rule="evenodd"/><path fill="#000000" d="m178.39015 37.1326l0 -13.359377l5.015625 0q1.53125 0 2.453125 0.40625q0.921875 0.40625 1.4375 1.25q0.53125 0.84375 0.53125 1.765625q0 0.859375 -0.46875 1.625q-0.453125 0.75 -1.390625 1.203125q1.203125 0.359375 1.859375 1.21875q0.65625 0.8593769 0.65625 2.015627q0 0.9375 -0.40625 1.75q-0.390625 0.796875 -0.984375 1.234375q-0.578125 0.4375 -1.453125 0.671875q-0.875 0.21875 -2.15625 0.21875l-5.09375 0zm1.78125 -7.750002l2.875 0q1.1875 0 1.6875 -0.140625q0.671875 -0.203125 1.015625 -0.671875q0.34375 -0.46875 0.34375 -1.171875q0 -0.65625 -0.328125 -1.15625q-0.3125 -0.515625 -0.90625 -0.703125q-0.59375 -0.1875 -2.03125 -0.1875l-2.65625 0l0 4.03125zm0 6.171877l3.3125 0q0.859375 0 1.203125 -0.0625q0.609375 -0.109375 1.015625 -0.359375q0.421875 -0.265625 0.6875 -0.75q0.265625 -0.484375 0.265625 -1.125q0 -0.75 -0.390625 -1.2968769q-0.375 -0.546875 -1.0625 -0.765625q-0.671875 -0.234375 -1.953125 -0.234375l-3.078125 0l0 4.593752z" fill-rule="nonzero"/><path fill="#000000" fill-opacity="0.0" d="m27.303741 142.2126l0 0c0 -14.507263 11.760456 -26.267715 26.267715 -26.267715l0 0c6.966633 0 13.647926 2.767479 18.574081 7.693634c4.926155 4.9261475 7.693634 11.607452 7.693634 18.574081l0 0c0 14.507263 -11.760452 26.267715 -26.267715 26.267715l0 0c-14.507259 0 -26.267715 -11.760452 -26.267715 -26.267715z" fill-rule="evenodd"/><path stroke="#000000" stroke-width="3.0" stroke-linejoin="round" stroke-linecap="butt" d="m27.303741 142.2126l0 0c0 -14.507263 11.760456 -26.267715 26.267715 -26.267715l0 0c6.966633 0 13.647926 2.767479 18.574081 7.693634c4.926155 4.9261475 7.693634 11.607452 7.693634 18.574081l0 0c0 14.507263 -11.760452 26.267715 -26.267715 26.267715l0 0c-14.507259 0 -26.267715 -11.760452 -26.267715 -26.267715z" fill-rule="evenodd"/><path fill="#000000" d="m57.803734 144.4451l1.765625 0.453125q-0.5625 2.171875 -2.0 3.328125q-1.4375 1.140625 -3.53125 1.140625q-2.15625 0 -3.515625 -0.875q-1.34375 -0.890625 -2.0625 -2.546875q-0.703125 -1.671875 -0.703125 -3.59375q0 -2.078125 0.796875 -3.625q0.796875 -1.5625 2.265625 -2.359375q1.484375 -0.8125 3.25 -0.8125q2.0 0 3.359375 1.015625q1.375 1.015625 1.90625 2.875l-1.734375 0.40625q-0.46875 -1.453125 -1.359375 -2.109375q-0.875 -0.671875 -2.203125 -0.671875q-1.546875 0 -2.578125 0.734375q-1.03125 0.734375 -1.453125 1.984375q-0.421875 1.234375 -0.421875 2.5625q0 1.703125 0.5 2.96875q0.5 1.265625 1.546875 1.90625q1.046875 0.625 2.265625 0.625q1.484375 0 2.515625 -0.859375q1.03125 -0.859375 1.390625 -2.546875z" fill-rule="nonzero"/><path fill="#000000" fill-opacity="0.0" d="m156.98485 142.2126l0 0c0 -14.507263 11.760452 -26.267715 26.267715 -26.267715l0 0c6.966629 0 13.647919 2.767479 18.574081 7.693634c4.9261475 4.9261475 7.693634 11.607452 7.693634 18.574081l0 0c0 14.507263 -11.760452 26.267715 -26.267715 26.267715l0 0c-14.507263 0 -26.267715 -11.760452 -26.267715 -26.267715z" fill-rule="evenodd"/><path stroke="#000000" stroke-width="3.0" stroke-linejoin="round" stroke-linecap="butt" d="m156.98485 142.2126l0 0c0 -14.507263 11.760452 -26.267715 26.267715 -26.267715l0 0c6.966629 0 13.647919 2.767479 18.574081 7.693634c4.9261475 4.9261475 7.693634 11.607452 7.693634 18.574081l0 0c0 14.507263 -11.760452 26.267715 -26.267715 26.267715l0 0c-14.507263 0 -26.267715 -11.760452 -26.267715 -26.267715z" fill-rule="evenodd"/><path fill="#000000" d="m177.95358 149.1326l0 -13.359375l4.609375 0q1.546875 0 2.375 0.203125q1.140625 0.25 1.953125 0.953125q1.0625 0.890625 1.578125 2.28125q0.53125 1.390625 0.53125 3.171875q0 1.515625 -0.359375 2.703125q-0.359375 1.171875 -0.921875 1.9375q-0.546875 0.765625 -1.203125 1.21875q-0.65625 0.4375 -1.59375 0.671875q-0.9375 0.21875 -2.140625 0.21875l-4.828125 0zm1.765625 -1.578125l2.859375 0q1.3125 0 2.0625 -0.234375q0.75 -0.25 1.203125 -0.703125q0.625 -0.625 0.96875 -1.6875q0.359375 -1.0625 0.359375 -2.578125q0 -2.09375 -0.6875 -3.21875q-0.6875 -1.125 -1.671875 -1.5q-0.703125 -0.28125 -2.28125 -0.28125l-2.8125 0l0 10.203125z" fill-rule="nonzero"/><path fill="#000000" fill-opacity="0.0" d="m72.14554 123.63852l92.53543 -74.86614" fill-rule="evenodd"/><path stroke="#000000" stroke-width="3.0" stroke-linejoin="round" stroke-linecap="butt" d="m72.14554 123.63852l92.53543 -74.86614" fill-rule="evenodd"/><path fill="#000000" fill-opacity="0.0" d="m79.83917 142.2126l77.133865 0" fill-rule="evenodd"/><path stroke="#000000" stroke-width="3.0" stroke-linejoin="round" stroke-linecap="butt" d="m79.83917 142.2126l77.133865 0" fill-rule="evenodd"/><path fill="#000000" fill-opacity="0.0" d="m183.25256 115.944885l0 -59.46457" fill-rule="evenodd"/><path stroke="#000000" stroke-width="3.0" stroke-linejoin="round" stroke-linecap="butt" d="m183.25256 115.944885l0 -59.46457" fill-rule="evenodd"/><path fill="#000000" fill-opacity="0.0" d="m281.1909 30.204725l0 0c0 -14.50726 11.760437 -26.267717 26.2677 -26.267717l0 0c6.9666443 0 13.647949 2.7674837 18.574097 7.693636c4.9261475 4.926153 7.693634 11.607449 7.693634 18.574081l0 0c0 14.507257 -11.760468 26.267717 -26.26773 26.267717l0 0c-14.507263 0 -26.2677 -11.76046 -26.2677 -26.267717z" fill-rule="evenodd"/><path stroke="#000000" stroke-width="3.0" stroke-linejoin="round" stroke-linecap="butt" d="m281.1909 30.204725l0 0c0 -14.50726 11.760437 -26.267717 26.2677 -26.267717l0 0c6.9666443 0 13.647949 2.7674837 18.574097 7.693636c4.9261475 4.926153 7.693634 11.607449 7.693634 18.574081l0 0c0 14.507257 -11.760468 26.267717 -26.26773 26.267717l0 0c-14.507263 0 -26.2677 -11.76046 -26.2677 -26.267717z" fill-rule="evenodd"/><path fill="#000000" d="m301.20557 37.124725l5.125 -13.359377l1.90625 0l5.46875 13.359377l-2.015625 0l-1.546875 -4.046875l-5.59375 0l-1.46875 4.046875l-1.875 0zm3.859375 -5.484377l4.53125 0l-1.40625 -3.703125q-0.625 -1.6875 -0.9375 -2.765625q-0.265625 1.28125 -0.71875 2.546875l-1.46875 3.921875z" fill-rule="nonzero"/><path fill="#000000" fill-opacity="0.0" d="m333.72632 30.204725l24.97638 0" fill-rule="evenodd"/><path stroke="#000000" stroke-width="2.0" stroke-linejoin="round" stroke-linecap="butt" d="m333.72632 30.204725l24.97638 0" fill-rule="evenodd"/><path fill="#000000" fill-opacity="0.0" d="m410.87198 30.204725l0 0c0 -14.50726 11.760468 -26.267717 26.26773 -26.267717l0 0c6.966614 0 13.647919 2.7674837 18.574066 7.693636c4.9261475 4.926153 7.693634 11.607449 7.693634 18.574081l0 0c0 14.507257 -11.760437 26.267717 -26.2677 26.267717l0 0c-14.507263 0 -26.26773 -11.76046 -26.26773 -26.267717z" fill-rule="evenodd"/><path stroke="#000000" stroke-width="3.0" stroke-linejoin="round" stroke-linecap="butt" d="m410.87198 30.204725l0 0c0 -14.50726 11.760468 -26.267717 26.26773 -26.267717l0 0c6.966614 0 13.647919 2.7674837 18.574066 7.693636c4.9261475 4.926153 7.693634 11.607449 7.693634 18.574081l0 0c0 14.507257 -11.760437 26.267717 -26.2677 26.267717l0 0c-14.507263 0 -26.26773 -11.76046 -26.26773 -26.267717z" fill-rule="evenodd"/><path fill="#000000" d="m432.27728 37.124725l0 -13.359377l5.015625 0q1.53125 0 2.453125 0.40625q0.921875 0.40625 1.4375 1.25q0.53125 0.84375 0.53125 1.765625q0 0.859375 -0.46875 1.625q-0.453125 0.75 -1.390625 1.203125q1.203125 0.359375 1.859375 1.21875q0.65625 0.8593769 0.65625 2.015627q0 0.9375 -0.40625 1.75q-0.390625 0.796875 -0.984375 1.234375q-0.578125 0.4375 -1.453125 0.671875q-0.875 0.21875 -2.15625 0.21875l-5.09375 0zm1.78125 -7.750002l2.875 0q1.1875 0 1.6875 -0.140625q0.671875 -0.203125 1.015625 -0.671875q0.34375 -0.46875 0.34375 -1.171875q0 -0.65625 -0.328125 -1.15625q-0.3125 -0.515625 -0.90625 -0.703125q-0.59375 -0.1875 -2.03125 -0.1875l-2.65625 0l0 4.03125zm0 6.171877l3.3125 0q0.859375 0 1.203125 -0.0625q0.609375 -0.109375 1.015625 -0.359375q0.421875 -0.265625 0.6875 -0.75q0.265625 -0.484375 0.265625 -1.125q0 -0.75 -0.390625 -1.2968769q-0.375 -0.546875 -1.0625 -0.765625q-0.671875 -0.234375 -1.953125 -0.234375l-3.078125 0l0 4.593752z" fill-rule="nonzero"/><path fill="#000000" fill-opacity="0.0" d="m281.1909 142.20473l0 0c0 -14.507263 11.760437 -26.267723 26.2677 -26.267723l0 0c6.9666443 0 13.647949 2.7674866 18.574097 7.6936417c4.9261475 4.9261475 7.693634 11.607452 7.693634 18.574081l0 0c0 14.507263 -11.760468 26.267715 -26.26773 26.267715l0 0c-14.507263 0 -26.2677 -11.760452 -26.2677 -26.267715z" fill-rule="evenodd"/><path stroke="#000000" stroke-width="3.0" stroke-linejoin="round" stroke-linecap="butt" d="m281.1909 142.20473l0 0c0 -14.507263 11.760437 -26.267723 26.2677 -26.267723l0 0c6.9666443 0 13.647949 2.7674866 18.574097 7.6936417c4.9261475 4.9261475 7.693634 11.607452 7.693634 18.574081l0 0c0 14.507263 -11.760468 26.267715 -26.26773 26.267715l0 0c-14.507263 0 -26.2677 -11.760452 -26.2677 -26.267715z" fill-rule="evenodd"/><path fill="#000000" d="m311.6909 144.43723l1.765625 0.453125q-0.5625 2.171875 -2.0 3.328125q-1.4375 1.140625 -3.53125 1.140625q-2.15625 0 -3.515625 -0.875q-1.34375 -0.890625 -2.0625 -2.546875q-0.703125 -1.671875 -0.703125 -3.59375q0 -2.078125 0.796875 -3.625q0.796875 -1.5625 2.265625 -2.359375q1.484375 -0.8125 3.25 -0.8125q2.0 0 3.359375 1.015625q1.375 1.015625 1.90625 2.875l-1.734375 0.40625q-0.46875 -1.453125 -1.359375 -2.109375q-0.875 -0.671875 -2.203125 -0.671875q-1.546875 0 -2.578125 0.734375q-1.03125 0.734375 -1.453125 1.984375q-0.421875 1.234375 -0.421875 2.5625q0 1.703125 0.5 2.96875q0.5 1.265625 1.546875 1.90625q1.046875 0.625 2.265625 0.625q1.484375 0 2.515625 -0.859375q1.03125 -0.859375 1.390625 -2.546875z" fill-rule="nonzero"/><path fill="#000000" fill-opacity="0.0" d="m410.87198 142.20473l0 0c0 -14.507263 11.760468 -26.267723 26.26773 -26.267723l0 0c6.966614 0 13.647919 2.7674866 18.574066 7.6936417c4.9261475 4.9261475 7.693634 11.607452 7.693634 18.574081l0 0c0 14.507263 -11.760437 26.267715 -26.2677 26.267715l0 0c-14.507263 0 -26.26773 -11.760452 -26.26773 -26.267715z" fill-rule="evenodd"/><path stroke="#000000" stroke-width="3.0" stroke-linejoin="round" stroke-linecap="butt" d="m410.87198 142.20473l0 0c0 -14.507263 11.760468 -26.267723 26.26773 -26.267723l0 0c6.966614 0 13.647919 2.7674866 18.574066 7.6936417c4.9261475 4.9261475 7.693634 11.607452 7.693634 18.574081l0 0c0 14.507263 -11.760437 26.267715 -26.2677 26.267715l0 0c-14.507263 0 -26.26773 -11.760452 -26.26773 -26.267715z" fill-rule="evenodd"/><path fill="#000000" d="m431.84073 149.12473l0 -13.359375l4.609375 0q1.546875 0 2.375 0.203125q1.140625 0.25 1.953125 0.953125q1.0625 0.890625 1.578125 2.28125q0.53125 1.390625 0.53125 3.171875q0 1.515625 -0.359375 2.703125q-0.359375 1.171875 -0.921875 1.9375q-0.546875 0.765625 -1.203125 1.21875q-0.65625 0.4375 -1.59375 0.671875q-0.9375 0.21875 -2.140625 0.21875l-4.828125 0zm1.765625 -1.578125l2.859375 0q1.3125 0 2.0625 -0.234375q0.75 -0.25 1.203125 -0.703125q0.625 -0.625 0.96875 -1.6875q0.359375 -1.0625 0.359375 -2.578125q0 -2.09375 -0.6875 -3.21875q-0.6875 -1.125 -1.671875 -1.5q-0.703125 -0.28125 -2.28125 -0.28125l-2.8125 0l0 10.203125z" fill-rule="nonzero"/><path fill="#000000" fill-opacity="0.0" d="m384.3146 74.18992l34.236237 -25.417324" fill-rule="evenodd"/><path stroke="#000000" stroke-width="2.0" stroke-linejoin="round" stroke-linecap="butt" d="m384.3146 74.18992l34.236237 -25.417324" fill-rule="evenodd"/><path fill="#000000" fill-opacity="0.0" d="m385.9061 142.20473l24.97638 0" fill-rule="evenodd"/><path stroke="#000000" stroke-width="2.0" stroke-linejoin="round" stroke-linecap="butt" d="m385.9061 142.20473l15.976379 0" fill-rule="evenodd"/><path fill="#000000" stroke="#000000" stroke-width="2.0" stroke-linecap="butt" d="m401.88248 144.41628l6.076172 -2.2115479l-6.076172 -2.211563z" fill-rule="evenodd"/><path fill="#000000" fill-opacity="0.0" d="m361.08722 83.81102l0 0c0 -7.5145493 6.091736 -13.606293 13.606293 -13.606293l0 0c3.608612 0 7.0694275 1.4335175 9.621094 3.9851913c2.5516968 2.551674 3.985199 6.0124893 3.985199 9.621101l0 0c0 7.514557 -6.091736 13.6063 -13.606293 13.6063l0 0c-7.514557 0 -13.606293 -6.0917435 -13.606293 -13.6063z" fill-rule="evenodd"/><path fill="#000000" d="m369.4187 87.81977l2.109375 -0.28125q0.359375 1.78125 1.234375 2.578125q0.875 0.796875 2.125 0.796875q1.484375 0 2.5 -1.03125q1.03125 -1.03125 1.03125 -2.5625q0 -1.453125 -0.953125 -2.390625q-0.9375 -0.953125 -2.40625 -0.953125q-0.59375 0 -1.484375 0.234375l0.234375 -1.84375q0.203125 0.015625 0.34375 0.015625q1.34375 0 2.421875 -0.703125q1.078125 -0.703125 1.078125 -2.15625q0 -1.171875 -0.796875 -1.921875q-0.78125 -0.765625 -2.015625 -0.765625q-1.234375 0 -2.0625 0.78125q-0.8125 0.765625 -1.046875 2.3125l-2.109375 -0.375q0.390625 -2.125 1.75 -3.28125q1.375 -1.171875 3.421875 -1.171875q1.40625 0 2.578125 0.609375q1.1875 0.59375 1.8125 1.640625q0.640625 1.046875 0.640625 2.21875q0 1.109375 -0.609375 2.03125q-0.59375 0.90625 -1.765625 1.4375q1.53125 0.359375 2.375 1.46875q0.84375 1.109375 0.84375 2.765625q0 2.25 -1.640625 3.828125q-1.640625 1.5625 -4.15625 1.5625q-2.265625 0 -3.765625 -1.34375q-1.484375 -1.359375 -1.6875 -3.5z" fill-rule="nonzero"/><path fill="#000000" fill-opacity="0.0" d="m358.6935 30.204725l0 0c0 -7.514553 6.091736 -13.6063 13.606293 -13.6063l0 0c3.608612 0 7.0694275 1.4335175 9.621094 3.9851933c2.5516968 2.5516758 3.985199 6.012491 3.985199 9.621107l0 0c0 7.514551 -6.091736 13.606298 -13.606293 13.606298l0 0c-7.514557 0 -13.606293 -6.0917473 -13.606293 -13.606298z" fill-rule="evenodd"/><path fill="#000000" d="m370.25937 29.432224q-1.3125 -0.484375 -1.953125 -1.375q-0.625 -0.890625 -0.625 -2.140625q0 -1.875 1.34375 -3.140625q1.34375 -1.28125 3.578125 -1.28125q2.25 0 3.625 1.3125q1.375 1.296875 1.375 3.171875q0 1.203125 -0.625 2.09375q-0.625 0.875 -1.90625 1.359375q1.578125 0.515625 2.40625 1.671875q0.828125 1.140625 0.828125 2.734375q0 2.203125 -1.5625 3.703125q-1.5625 1.5 -4.09375 1.5q-2.546875 0 -4.109375 -1.5q-1.5625 -1.515625 -1.5625 -3.765625q0 -1.671875 0.84375 -2.796875q0.859375 -1.140625 2.4375 -1.546875zm-0.421875 -3.578125q0 1.21875 0.78125 2.0q0.78125 0.765625 2.03125 0.765625q1.21875 0 2.0 -0.765625q0.78125 -0.765625 0.78125 -1.890625q0 -1.15625 -0.8125 -1.9375q-0.796875 -0.796875 -1.984375 -0.796875q-1.203125 0 -2.0 0.78125q-0.796875 0.765625 -0.796875 1.84375zm-0.6875 7.9375q0 0.890625 0.421875 1.734375q0.4375 0.84375 1.28125 1.3125q0.84375 0.46875 1.8125 0.46875q1.515625 0 2.5 -0.96875q0.984375 -0.984375 0.984375 -2.484375q0 -1.515625 -1.015625 -2.515625q-1.015625 -1.0 -2.53125 -1.0q-1.5 0 -2.484375 0.984375q-0.96875 0.984375 -0.96875 2.46875z" fill-rule="nonzero"/><path fill="#000000" fill-opacity="0.0" d="m385.9061 30.204725l24.97638 0" fill-rule="evenodd"/><path stroke="#000000" stroke-width="2.0" stroke-linejoin="round" stroke-linecap="butt" d="m385.9061 30.204725l15.976379 0" fill-rule="evenodd"/><path fill="#000000" stroke="#000000" stroke-width="2.0" stroke-linecap="butt" d="m401.88248 32.41628l6.076172 -2.2115536l-6.076172 -2.2115555z" fill-rule="evenodd"/><path fill="#000000" fill-opacity="0.0" d="m470.19482 111.02362c-7.24411 0 -14.48819 6.299217 -14.48819 12.598427" fill-rule="evenodd"/><path stroke="#000000" stroke-width="2.0" stroke-linejoin="round" stroke-linecap="butt" d="m470.19482 111.02362c-7.24411 0 -14.48819 6.299217 -14.48819 12.598427" fill-rule="evenodd"/><path fill="#000000" fill-opacity="0.0" d="m365.0724 93.43213l-39.055115 30.204727" fill-rule="evenodd"/><path stroke="#000000" stroke-width="2.0" stroke-linejoin="round" stroke-linecap="butt" d="m365.0724 93.43213l-31.935791 24.698753" fill-rule="evenodd"/><path fill="#000000" stroke="#000000" stroke-width="2.0" stroke-linecap="butt" d="m331.7836 116.38147l-3.4534912 5.466675l6.1594543 -1.9678497z" fill-rule="evenodd"/><path fill="#000000" fill-opacity="0.0" d="m470.19482 111.02362l0 0c0 -7.5145493 6.091736 -13.6063 13.606293 -13.6063l0 0c3.608612 0 7.0694275 1.4335175 9.621094 3.985199c2.5516968 2.551674 3.985199 6.0124893 3.985199 9.621101l0 0c0 7.5145493 -6.091736 13.6063 -13.606293 13.6063l0 0c-7.514557 0 -13.606293 -6.091751 -13.606293 -13.6063z" fill-rule="evenodd"/><path fill="#000000" d="m487.69907 117.53237l0 2.03125l-11.34375 0q-0.03125 -0.765625 0.234375 -1.46875q0.4375 -1.15625 1.390625 -2.28125q0.953125 -1.125 2.765625 -2.609375q2.796875 -2.296875 3.78125 -3.625q0.984375 -1.34375 0.984375 -2.546875q0 -1.25 -0.90625 -2.109375q-0.890625 -0.859375 -2.328125 -0.859375q-1.515625 0 -2.4375 0.921875q-0.90625 0.90625 -0.921875 2.515625l-2.171875 -0.21875q0.21875 -2.421875 1.671875 -3.6875q1.453125 -1.28125 3.90625 -1.28125q2.46875 0 3.90625 1.375q1.453125 1.359375 1.453125 3.390625q0 1.03125 -0.421875 2.03125q-0.421875 1.0 -1.40625 2.109375q-0.96875 1.09375 -3.25 3.015625q-1.890625 1.59375 -2.4375 2.15625q-0.53125 0.5625 -0.890625 1.140625l8.421875 0z" fill-rule="nonzero"/><path fill="#000000" fill-opacity="0.0" d="m483.80112 124.62992c0 8.787407 -10.188965 17.574806 -20.37796 17.574806" fill-rule="evenodd"/><path stroke="#000000" stroke-width="2.0" stroke-linejoin="round" stroke-linecap="butt" d="m483.8011 124.62992c0 4.3936996 -2.5472412 8.787407 -6.368103 12.08268c-0.9552002 0.823822 -1.9900208 1.5789795 -3.0845642 2.2483368c-0.5472412 0.33467102 -1.1094055 0.64790344 -1.6840515 0.93751526c-0.14364624 0.072402954 -0.28808594 0.14334106 -0.43328857 0.21276855l-0.049346924 0.022979736" fill-rule="evenodd"/><path fill="#000000" stroke="#000000" stroke-width="2.0" stroke-linecap="butt" d="m471.67294 137.98196l-5.404419 3.5501099l6.421997 0.754364z" fill-rule="evenodd"/><path fill="#000000" fill-opacity="0.0" d="m358.6935 142.20473l0 0c0 -7.514557 6.091736 -13.606308 13.606293 -13.606308l0 0c3.608612 0 7.0694275 1.4335175 9.621094 3.985199c2.5516968 2.5516815 3.985199 6.012497 3.985199 9.621109l0 0c0 7.5145416 -6.091736 13.606293 -13.606293 13.606293l0 0c-7.514557 0 -13.606293 -6.091751 -13.606293 -13.606293z" fill-rule="evenodd"/><path fill="#000000" d="m377.94687 137.77597l-2.09375 0.15625q-0.28125 -1.234375 -0.796875 -1.796875q-0.859375 -0.90625 -2.109375 -0.90625q-1.0 0 -1.765625 0.5625q-1.0 0.71875 -1.578125 2.125q-0.5625 1.390625 -0.59375 3.96875q0.765625 -1.15625 1.859375 -1.71875q1.109375 -0.5625 2.3125 -0.5625q2.109375 0 3.59375 1.546875q1.484375 1.546875 1.484375 4.015625q0 1.609375 -0.703125 3.0q-0.6875 1.390625 -1.90625 2.140625q-1.21875 0.734375 -2.765625 0.734375q-2.640625 0 -4.3125 -1.9375q-1.65625 -1.953125 -1.65625 -6.40625q0 -4.96875 1.84375 -7.234375q1.59375 -1.96875 4.3125 -1.96875q2.03125 0 3.328125 1.140625q1.296875 1.125 1.546875 3.140625zm-8.609375 7.40625q0 1.078125 0.453125 2.078125q0.46875 1.0 1.296875 1.53125q0.84375 0.515625 1.75 0.515625q1.34375 0 2.296875 -1.078125q0.96875 -1.078125 0.96875 -2.9375q0 -1.78125 -0.953125 -2.796875q-0.953125 -1.03125 -2.390625 -1.03125q-1.421875 0 -2.421875 1.03125q-1.0 1.015625 -1.0 2.6875z" fill-rule="nonzero"/><path fill="#000000" fill-opacity="0.0" d="m333.72632 142.20473l24.97638 0" fill-rule="evenodd"/><path stroke="#000000" stroke-width="2.0" stroke-linejoin="round" stroke-linecap="butt" d="m333.72632 142.20473l24.97638 0" fill-rule="evenodd"/><path fill="#000000" fill-opacity="0.0" d="m279.788 82.14042l0 0c0 -7.5145493 6.091736 -13.6063 13.606293 -13.6063l0 0c3.608612 0 7.0694275 1.4335175 9.621124 3.9851913c2.5516663 2.5516815 3.9851685 6.012497 3.9851685 9.621109l0 0c0 7.5145493 -6.091736 13.6063 -13.606293 13.6063l0 0c-7.514557 0 -13.606293 -6.091751 -13.606293 -13.6063z" fill-rule="evenodd"/><path fill="#000000" d="m288.11948 86.14917l2.109375 -0.28125q0.359375 1.78125 1.234375 2.578125q0.875 0.796875 2.125 0.796875q1.484375 0 2.5 -1.03125q1.03125 -1.03125 1.03125 -2.5625q0 -1.453125 -0.953125 -2.390625q-0.9375 -0.953125 -2.40625 -0.953125q-0.59375 0 -1.484375 0.234375l0.234375 -1.84375q0.203125 0.015625 0.34375 0.015625q1.34375 0 2.421875 -0.703125q1.078125 -0.703125 1.078125 -2.15625q0 -1.171875 -0.796875 -1.921875q-0.78125 -0.765625 -2.015625 -0.765625q-1.234375 0 -2.0625 0.78125q-0.8125 0.765625 -1.046875 2.3125l-2.109375 -0.375q0.390625 -2.125 1.75 -3.28125q1.375 -1.171875 3.421875 -1.171875q1.40625 0 2.578125 0.609375q1.1875 0.59375 1.8125 1.640625q0.640625 1.046875 0.640625 2.21875q0 1.109375 -0.609375 2.03125q-0.59375 0.90625 -1.765625 1.4375q1.53125 0.359375 2.375 1.46875q0.84375 1.109375 0.84375 2.765625q0 2.25 -1.640625 3.828125q-1.640625 1.5625 -4.15625 1.5625q-2.265625 0 -3.765625 -1.34375q-1.484375 -1.359375 -1.6875 -3.5z" fill-rule="nonzero"/><path fill="#000000" fill-opacity="0.0" d="m305.43 86.362206l0 0c0 -7.5145493 6.091736 -13.6063 13.606293 -13.6063l0 0c3.608612 0 7.0694275 1.4335175 9.621094 3.9851913c2.5516968 2.5516815 3.985199 6.012497 3.985199 9.621109l0 0c0 7.5145493 -6.091736 13.6063 -13.606293 13.6063l0 0c-7.514557 0 -13.606293 -6.091751 -13.606293 -13.6063z" fill-rule="evenodd"/><path fill="#000000" d="m313.88647 79.96471l0 -2.015625l11.125 0l0 1.640625q-1.640625 1.734375 -3.265625 4.640625q-1.609375 2.890625 -2.484375 5.953125q-0.625 2.15625 -0.8125 4.71875l-2.15625 0q0.03125 -2.03125 0.78125 -4.890625q0.765625 -2.875 2.1875 -5.546875q1.4375 -2.671875 3.03125 -4.5l-8.40625 0z" fill-rule="nonzero"/><path fill="#000000" fill-opacity="0.0" d="m293.3943 52.47113l0 16.062988" fill-rule="evenodd"/><path stroke="#000000" stroke-width="2.0" stroke-linejoin="round" stroke-linecap="butt" d="m293.3943 52.47113l0 16.062988" fill-rule="evenodd"/><path fill="#000000" fill-opacity="0.0" d="m293.3943 95.74672l-0.56692505 23.81102" fill-rule="evenodd"/><path stroke="#000000" stroke-width="2.0" stroke-linejoin="round" stroke-linecap="butt" d="m293.3943 95.74672l-0.35269165 14.813576" fill-rule="evenodd"/><path fill="#000000" stroke="#000000" stroke-width="2.0" stroke-linecap="butt" d="m290.83066 110.50765l2.0663147 6.1271133l2.3555603 -6.0218353z" fill-rule="evenodd"/><path fill="#000000" fill-opacity="0.0" d="m319.0363 72.755905l-0.62991333 -19.653542" fill-rule="evenodd"/><path stroke="#000000" stroke-width="2.0" stroke-linejoin="round" stroke-linecap="butt" d="m319.0363 72.755905l-0.34161377 -10.658161" fill-rule="evenodd"/><path fill="#000000" stroke="#000000" stroke-width="2.0" stroke-linecap="butt" d="m320.90512 62.026897l-2.4050903 -6.0022316l-2.0157776 6.1439247z" fill-rule="evenodd"/><path fill="#000000" fill-opacity="0.0" d="m319.0363 99.968506l0.1574707 20.031494" fill-rule="evenodd"/><path stroke="#000000" stroke-width="2.0" stroke-linejoin="round" stroke-linecap="butt" d="m319.0363 99.968506l0.1574707 20.031494" fill-rule="evenodd"/></g></svg>