<svg version="1.1" viewBox="0.0 0.0 1471.291338582677 550.6456692913385" fill="none" stroke="none" stroke-linecap="square" stroke-miterlimit="10" xmlns:xlink="http://www.w3.org/1999/xlink" xmlns="http://www.w3.org/2000/svg"><clipPath id="p.0"><path d="m0 0l1471.2914 0l0 550.6457l-1471.2914 0l0 -550.6457z" clip-rule="nonzero"/></clipPath><g clip-path="url(#p.0)"><path fill="#000000" fill-opacity="0.0" d="m0 0l1471.2914 0l0 550.6457l-1471.2914 0z" fill-rule="evenodd"/><path fill="#efefef" d="m1036.4587 142.82773c8.737549 28.79309 45.72046 78.961945 74.0 94.0c28.279541 15.038055 71.39758 11.83551 95.677124 -3.7716522c24.279541 -15.607178 44.446167 -61.66667 50.0 -89.8714c5.553833 -28.20472 2.102417 -63.964127 -16.677124 -79.35695c-18.779541 -15.392826 -65.76245 -13.040245 -96.0 -13.0c-30.237549 0.040245056 -67.59192 -2.0918617 -85.42529 13.2414665c-17.833252 15.333336 -30.312256 49.965446 -21.574707 78.75854z" fill-rule="evenodd"/><path stroke="#000000" stroke-width="1.0" stroke-linejoin="round" stroke-linecap="butt" d="m1036.4587 142.82773c8.737549 28.79309 45.72046 78.961945 74.0 94.0c28.279541 15.038055 71.39758 11.83551 95.677124 -3.7716522c24.279541 -15.607178 44.446167 -61.66667 50.0 -89.8714c5.553833 -28.20472 2.102417 -63.964127 -16.677124 -79.35695c-18.779541 -15.392826 -65.76245 -13.040245 -96.0 -13.0c-30.237549 0.040245056 -67.59192 -2.0918617 -85.42529 13.2414665c-17.833252 15.333336 -30.312256 49.965446 -21.574707 78.75854z" fill-rule="evenodd"/><path fill="#000000" fill-opacity="0.0" d="m1050.8156 107.71916c0 -14.507263 11.760498 -26.267715 26.2677 -26.267715c6.966675 0 13.647949 2.767479 18.574097 7.693634c4.9261475 4.926155 7.6936035 11.607445 7.6936035 18.574081c0 14.507256 -11.760376 26.267715 -26.2677 26.267715c-14.507202 0 -26.2677 -11.76046 -26.2677 -26.267715z" fill-rule="evenodd"/><path stroke="#000000" stroke-width="3.0" stroke-linejoin="round" stroke-linecap="butt" d="m1050.8156 107.71916c0 -14.507263 11.760498 -26.267715 26.2677 -26.267715c6.966675 0 13.647949 2.767479 18.574097 7.693634c4.9261475 4.926155 7.6936035 11.607445 7.6936035 18.574081c0 14.507256 -11.760376 26.267715 -26.2677 26.267715c-14.507202 0 -26.2677 -11.76046 -26.2677 -26.267715z" fill-rule="evenodd"/><path fill="#000000" d="m1080.2623 113.82478l-9.640625 0l-2.609375 7.234375l-3.0625 0l9.890625 -26.546875l1.421875 0l9.921875 26.546875l-3.234375 0l-2.6875 -7.234375zm-8.625 -2.6875l7.6875 0l-2.90625 -7.953125l-0.9375 -3.96875l-0.046875 0l-0.921875 4.03125l-2.875 7.890625z" fill-rule="nonzero"/><path fill="#000000" fill-opacity="0.0" d="m1103.351 107.71916l89.165405 0" fill-rule="evenodd"/><path stroke="#000000" stroke-width="2.0" stroke-linejoin="round" stroke-linecap="butt" d="m1103.351 107.71916l82.31116 0" fill-rule="evenodd"/><path fill="#000000" stroke="#000000" stroke-width="2.0" stroke-linecap="butt" d="m1185.6621 107.71916l-2.2491455 2.2491684l6.1795654 -2.2491684l-6.1795654 -2.2491684z" fill-rule="evenodd"/><path fill="#000000" fill-opacity="0.0" d="m1192.523 107.71916c0 -14.507263 11.760376 -26.267715 26.2677 -26.267715c6.9665527 0 13.647949 2.767479 18.574097 7.693634c4.9261475 4.926155 7.6936035 11.607445 7.6936035 18.574081c0 14.507256 -11.760498 26.267715 -26.2677 26.267715c-14.507324 0 -26.2677 -11.76046 -26.2677 -26.267715z" fill-rule="evenodd"/><path stroke="#000000" stroke-width="3.0" stroke-linejoin="round" stroke-linecap="butt" d="m1192.523 107.71916c0 -14.507263 11.760376 -26.267715 26.2677 -26.267715c6.9665527 0 13.647949 2.767479 18.574097 7.693634c4.9261475 4.926155 7.6936035 11.607445 7.6936035 18.574081c0 14.507256 -11.760498 26.267715 -26.2677 26.267715c-14.507324 0 -26.2677 -11.76046 -26.2677 -26.267715z" fill-rule="evenodd"/><path fill="#000000" d="m1225.3009 100.90291q0 0.9375 -0.296875 1.90625q-0.296875 0.96875 -0.890625 1.8125q-0.59375 0.828125 -1.53125 1.46875q-0.9375 0.640625 -2.203125 0.96875l0 0.15625q1.125 0.1875 2.140625 0.640625q1.03125 0.4375 1.8125 1.21875q0.78125 0.78125 1.265625 1.90625q0.484375 1.125 0.484375 2.65625q0 2.015625 -0.84375 3.484375q-0.828125 1.46875 -2.203125 2.40625q-1.359375 0.9375 -3.109375 1.390625q-1.75 0.4375 -3.578125 0.4375q-0.640625 0 -1.5 0q-0.859375 0 -1.796875 -0.0625q-0.921875 -0.046875 -1.859375 -0.140625q-0.9375 -0.09375 -1.640625 -0.28125l0 -25.71875q1.375 -0.21875 3.203125 -0.359375q1.84375 -0.15625 4.0 -0.15625q1.453125 0 2.96875 0.25q1.515625 0.234375 2.734375 0.921875q1.234375 0.6875 2.03125 1.921875q0.8125 1.234375 0.8125 3.171875zm-8.65625 17.765625q1.1875 0 2.3125 -0.28125q1.125 -0.28125 1.984375 -0.890625q0.859375 -0.625 1.359375 -1.515625q0.5 -0.890625 0.5 -2.125q0 -1.53125 -0.625 -2.453125q-0.609375 -0.9375 -1.59375 -1.453125q-0.984375 -0.53125 -2.21875 -0.71875q-1.234375 -0.1875 -2.46875 -0.1875l-3.25 0l0 9.359375q0.265625 0.078125 0.75 0.125q0.484375 0.03125 1.046875 0.078125q0.5625 0.03125 1.15625 0.046875q0.59375 0.015625 1.046875 0.015625zm-2.046875 -12.234375q0.625 0 1.515625 -0.03125q0.90625 -0.046875 1.5 -0.125q0.890625 -0.296875 1.671875 -0.71875q0.796875 -0.4375 1.40625 -1.015625q0.625 -0.578125 0.96875 -1.34375q0.359375 -0.765625 0.359375 -1.65625q0 -1.234375 -0.46875 -2.03125q-0.46875 -0.8125 -1.25 -1.296875q-0.78125 -0.484375 -1.796875 -0.6875q-1.0 -0.203125 -2.046875 -0.203125q-1.234375 0 -2.265625 0.0625q-1.015625 0.046875 -1.546875 0.15625l0 8.890625l1.953125 0z" fill-rule="nonzero"/><path fill="#000000" fill-opacity="0.0" d="m1122.4468 211.06036c0 -14.507263 11.760498 -26.267715 26.2677 -26.267715c6.966675 0 13.647949 2.7674866 18.574097 7.693634c4.9261475 4.9261627 7.6936035 11.607452 7.6936035 18.574081c0 14.507263 -11.760376 26.267715 -26.2677 26.267715c-14.507202 0 -26.2677 -11.760452 -26.2677 -26.267715z" fill-rule="evenodd"/><path stroke="#000000" stroke-width="3.0" stroke-linejoin="round" stroke-linecap="butt" d="m1122.4468 211.06036c0 -14.507263 11.760498 -26.267715 26.2677 -26.267715c6.966675 0 13.647949 2.7674866 18.574097 7.693634c4.9261475 4.9261627 7.6936035 11.607452 7.6936035 18.574081c0 14.507263 -11.760376 26.267715 -26.2677 26.267715c-14.507202 0 -26.2677 -11.760452 -26.2677 -26.267715z" fill-rule="evenodd"/><path fill="#000000" d="m1140.3706 198.27536l14.21875 0l0 2.75l-11.125 0l0 8.5625l10.203125 0l0 2.75l-10.203125 0l0 9.296875l11.3125 0l0 2.765625l-14.40625 0l0 -26.125z" fill-rule="nonzero"/><path fill="#000000" fill-opacity="0.0" d="m1095.6573 126.29324l34.48816 66.20473" fill-rule="evenodd"/><path stroke="#000000" stroke-width="2.0" stroke-linejoin="round" stroke-linecap="butt" d="m1095.6573 126.29324l31.321533 60.1259" fill-rule="evenodd"/><path fill="#000000" stroke="#000000" stroke-width="2.0" stroke-linecap="butt" d="m1126.9789 186.41916l-3.0339355 -0.9556122l4.8497314 4.4413605l-0.8602295 -6.5196075z" fill-rule="evenodd"/><path fill="#000000" fill-opacity="0.0" d="m1200.2166 126.29324l-32.913452 66.20473" fill-rule="evenodd"/><path stroke="#000000" stroke-width="2.0" stroke-linejoin="round" stroke-linecap="butt" stroke-dasharray="8.0,6.0" d="m1200.2166 126.29324l-32.913452 66.20473" fill-rule="evenodd"/><path fill="#000000" fill-opacity="0.0" d="m1258.3497 211.06036c0 -14.507263 11.760376 -26.267715 26.2677 -26.267715c6.9665527 0 13.647827 2.7674866 18.574097 7.693634c4.9261475 4.9261627 7.6936035 11.607452 7.6936035 18.574081c0 14.507263 -11.760498 26.267715 -26.2677 26.267715c-14.507324 0 -26.2677 -11.760452 -26.2677 -26.267715z" fill-rule="evenodd"/><path stroke="#000000" stroke-width="3.0" stroke-linejoin="round" stroke-linecap="butt" d="m1258.3497 211.06036c0 -14.507263 11.760376 -26.267715 26.2677 -26.267715c6.9665527 0 13.647827 2.7674866 18.574097 7.693634c4.9261475 4.9261627 7.6936035 11.607452 7.6936035 18.574081c0 14.507263 -11.760498 26.267715 -26.2677 26.267715c-14.507324 0 -26.2677 -11.760452 -26.2677 -26.267715z" fill-rule="evenodd"/><path fill="#000000" d="m1276.628 198.27536l14.21875 0l0 2.75l-11.125 0l0 8.921875l10.375 0l0 2.765625l-10.375 0l0 11.6875l-3.09375 0l0 -26.125z" fill-rule="nonzero"/><path fill="#000000" fill-opacity="0.0" d="m1334.2289 112.784775c0 -14.507256 11.760498 -26.267715 26.267822 -26.267715c6.9665527 0 13.647827 2.7674866 18.573975 7.693634c4.9262695 4.926155 7.6937256 11.607452 7.6937256 18.574081c0 14.507263 -11.760498 26.267715 -26.2677 26.267715c-14.507324 0 -26.267822 -11.760452 -26.267822 -26.267715z" fill-rule="evenodd"/><path stroke="#000000" stroke-width="3.0" stroke-linejoin="round" stroke-linecap="butt" d="m1334.2289 112.784775c0 -14.507256 11.760498 -26.267715 26.267822 -26.267715c6.9665527 0 13.647827 2.7674866 18.573975 7.693634c4.9262695 4.926155 7.6937256 11.607452 7.6937256 18.574081c0 14.507263 -11.760498 26.267715 -26.2677 26.267715c-14.507324 0 -26.267822 -11.760452 -26.267822 -26.267715z" fill-rule="evenodd"/><path fill="#000000" d="m1368.2183 125.046646q-1.109375 0.859375 -2.828125 1.1875q-1.71875 0.34375 -3.65625 0.34375q-2.359375 0 -4.421875 -0.796875q-2.046875 -0.8125 -3.578125 -2.453125q-1.53125 -1.640625 -2.421875 -4.203125q-0.890625 -2.5625 -0.890625 -6.0625q0 -3.65625 0.984375 -6.21875q0.984375 -2.5625 2.609375 -4.171875q1.625 -1.625 3.640625 -2.375q2.015625 -0.75 4.109375 -0.75q2.234375 0 3.65625 0.25q1.421875 0.234375 2.421875 0.640625l-0.734375 2.734375q-1.796875 -0.859375 -5.125 -0.859375q-1.53125 0 -3.03125 0.5625q-1.484375 0.546875 -2.65625 1.828125q-1.171875 1.265625 -1.890625 3.328125q-0.703125 2.046875 -0.703125 5.03125q0 2.6875 0.671875 4.703125q0.671875 2.015625 1.84375 3.359375q1.1875 1.34375 2.765625 2.015625q1.59375 0.671875 3.453125 0.671875q1.6875 0 2.9375 -0.328125q1.25 -0.34375 2.109375 -0.875l0.734375 2.4375z" fill-rule="nonzero"/><path fill="#000000" fill-opacity="0.0" d="m977.1161 211.06036c0 -14.507263 11.760437 -26.267715 26.2677 -26.267715c6.966614 0 13.647949 2.7674866 18.574097 7.693634c4.9261475 4.9261627 7.6936035 11.607452 7.6936035 18.574081c0 14.507263 -11.760437 26.267715 -26.2677 26.267715c-14.507263 0 -26.2677 -11.760452 -26.2677 -26.267715z" fill-rule="evenodd"/><path stroke="#000000" stroke-width="3.0" stroke-linejoin="round" stroke-linecap="butt" d="m977.1161 211.06036c0 -14.507263 11.760437 -26.267715 26.2677 -26.267715c6.966614 0 13.647949 2.7674866 18.574097 7.693634c4.9261475 4.9261627 7.6936035 11.607452 7.6936035 18.574081c0 14.507263 -11.760437 26.267715 -26.2677 26.267715c-14.507263 0 -26.2677 -11.760452 -26.2677 -26.267715z" fill-rule="evenodd"/><path fill="#000000" d="m993.958 198.27536q0.703125 -0.109375 1.578125 -0.171875q0.890625 -0.0625 1.84375 -0.078125q0.953125 -0.015625 1.859375 -0.03125q0.921875 -0.015625 1.703125 -0.015625q3.125 0 5.421875 0.96875q2.296875 0.96875 3.78125 2.703125q1.5 1.734375 2.234375 4.171875q0.734375 2.421875 0.734375 5.328125q0 2.65625 -0.703125 5.09375q-0.6875 2.4375 -2.1875 4.328125q-1.484375 1.890625 -3.875 3.03125q-2.390625 1.140625 -5.78125 1.140625q-0.59375 0 -1.546875 -0.03125q-0.953125 -0.015625 -1.96875 -0.078125q-1.0 -0.046875 -1.859375 -0.09375q-0.859375 -0.03125 -1.234375 -0.109375l0 -26.15625zm7.0625 2.453125q-0.484375 0 -1.078125 0q-0.578125 0 -1.140625 0.046875q-0.546875 0.03125 -1.015625 0.078125q-0.46875 0.03125 -0.734375 0.0625l0 20.90625q0.1875 0.046875 0.703125 0.0625q0.53125 0.015625 1.09375 0.03125q0.5625 0.015625 1.078125 0.046875q0.53125 0.015625 0.71875 0.015625q2.609375 0 4.375 -0.890625q1.78125 -0.90625 2.84375 -2.40625q1.0625 -1.515625 1.5 -3.46875q0.453125 -1.96875 0.453125 -4.0625q0 -1.828125 -0.40625 -3.671875q-0.40625 -1.859375 -1.421875 -3.34375q-1.0 -1.5 -2.703125 -2.453125q-1.703125 -0.953125 -4.265625 -0.953125z" fill-rule="nonzero"/><path fill="#000000" fill-opacity="0.0" d="m1058.5092 126.29324l-36.566895 66.20473" fill-rule="evenodd"/><path stroke="#000000" stroke-width="4.0" stroke-linejoin="round" stroke-linecap="butt" d="m1058.5092 126.29324l-36.566895 66.20473" fill-rule="evenodd"/><path fill="#000000" fill-opacity="0.0" d="m1174.9822 211.06036l83.37012 0" fill-rule="evenodd"/><path stroke="#000000" stroke-width="4.0" stroke-linejoin="round" stroke-linecap="butt" d="m1174.9822 211.06036l83.37012 0" fill-rule="evenodd"/><path fill="#000000" fill-opacity="0.0" d="m1237.3647 126.29324l28.692871 66.20473" fill-rule="evenodd"/><path stroke="#000000" stroke-width="4.0" stroke-linejoin="round" stroke-linecap="butt" d="m1237.3647 126.29324l28.692871 66.20473" fill-rule="evenodd"/><path fill="#000000" fill-opacity="0.0" d="m1341.9226 131.35886l-38.740234 61.133865" fill-rule="evenodd"/><path stroke="#000000" stroke-width="2.0" stroke-linejoin="round" stroke-linecap="butt" stroke-dasharray="8.0,6.0" d="m1341.9226 131.35886l-38.740234 61.133865" fill-rule="evenodd"/><path fill="#efefef" d="m92.233025 72.79531c-1.9684982 14.698166 2.1412964 44.849083 14.223099 55.078743c12.081802 10.22966 45.02143 12.5 58.267723 6.2992096c13.246277 -6.200783 18.454056 -30.90551 21.20996 -43.503937c2.7559052 -12.598427 -0.33377075 -23.592735 -4.67453 -32.086613c-4.3407745 -8.493874 -10.871399 -15.727032 -21.370087 -18.87664c-10.498688 -3.1496048 -30.346008 -5.5358696 -41.62204 -0.020996094c-11.2760315 5.5148735 -24.06562 18.412071 -26.034126 33.110233z" fill-rule="evenodd"/><path stroke="#000000" stroke-width="1.0" stroke-linejoin="round" stroke-linecap="butt" d="m92.233025 72.79531c-1.9684982 14.698166 2.1412964 44.849083 14.223099 55.078743c12.081802 10.22966 45.02143 12.5 58.267723 6.2992096c13.246277 -6.200783 18.454056 -30.90551 21.20996 -43.503937c2.7559052 -12.598427 -0.33377075 -23.592735 -4.67453 -32.086613c-4.3407745 -8.493874 -10.871399 -15.727032 -21.370087 -18.87664c-10.498688 -3.1496048 -30.346008 -5.5358696 -41.62204 -0.020996094c-11.2760315 5.5148735 -24.06562 18.412071 -26.034126 33.110233z" fill-rule="evenodd"/><path fill="#000000" fill-opacity="0.0" d="m111.0229 89.65879c0 -14.507256 11.760452 -26.267715 26.267715 -26.267715c6.966629 0 13.647934 2.7674866 18.574081 7.693634c4.9261475 4.926155 7.693634 11.607452 7.693634 18.574081c0 14.507263 -11.760452 26.267715 -26.267715 26.267715c-14.507263 0 -26.267715 -11.760452 -26.267715 -26.267715z" fill-rule="evenodd"/><path stroke="#000000" stroke-width="3.0" stroke-linejoin="round" stroke-linecap="butt" d="m111.0229 89.65879c0 -14.507256 11.760452 -26.267715 26.267715 -26.267715c6.966629 0 13.647934 2.7674866 18.574081 7.693634c4.9261475 4.926155 7.693634 11.607452 7.693634 18.574081c0 14.507263 -11.760452 26.267715 -26.267715 26.267715c-14.507263 0 -26.267715 -11.760452 -26.267715 -26.267715z" fill-rule="evenodd"/><path fill="#000000" d="m140.46968 95.76441l-9.640625 0l-2.609375 7.234375l-3.0625 0l9.890625 -26.546875l1.421875 0l9.921875 26.546875l-3.234375 0l-2.6875 -7.234375zm-8.625 -2.6875l7.6875 0l-2.90625 -7.953125l-0.9375 -3.96875l-0.046875 0l-0.921875 4.03125l-2.875 7.890625z" fill-rule="nonzero"/><path fill="#000000" fill-opacity="0.0" d="m163.55833 89.65879l89.16536 0" fill-rule="evenodd"/><path stroke="#000000" stroke-width="4.0" stroke-linejoin="round" stroke-linecap="butt" d="m163.55833 89.65879l89.16536 0" fill-rule="evenodd"/><path fill="#000000" fill-opacity="0.0" d="m252.73026 89.65879c0 -14.507256 11.760468 -26.267715 26.2677 -26.267715c6.9666443 0 13.647949 2.7674866 18.574097 7.693634c4.9261475 4.926155 7.693634 11.607452 7.693634 18.574081c0 14.507263 -11.760468 26.267715 -26.26773 26.267715c-14.507233 0 -26.2677 -11.760452 -26.2677 -26.267715z" fill-rule="evenodd"/><path stroke="#000000" stroke-width="3.0" stroke-linejoin="round" stroke-linecap="butt" d="m252.73026 89.65879c0 -14.507256 11.760468 -26.267715 26.2677 -26.267715c6.9666443 0 13.647949 2.7674866 18.574097 7.693634c4.9261475 4.926155 7.693634 11.607452 7.693634 18.574081c0 14.507263 -11.760468 26.267715 -26.26773 26.267715c-14.507233 0 -26.2677 -11.760452 -26.2677 -26.267715z" fill-rule="evenodd"/><path fill="#000000" d="m285.50818 82.84254q0 0.9375 -0.296875 1.90625q-0.296875 0.96875 -0.890625 1.8125q-0.59375 0.828125 -1.53125 1.46875q-0.9375 0.640625 -2.203125 0.96875l0 0.15625q1.125 0.1875 2.140625 0.640625q1.03125 0.4375 1.8125 1.21875q0.78125 0.78125 1.265625 1.90625q0.484375 1.125 0.484375 2.65625q0 2.015625 -0.84375 3.484375q-0.828125 1.46875 -2.203125 2.40625q-1.359375 0.9375 -3.109375 1.390625q-1.75 0.4375 -3.578125 0.4375q-0.640625 0 -1.5 0q-0.859375 0 -1.796875 -0.0625q-0.921875 -0.046875 -1.859375 -0.140625q-0.9375 -0.09375 -1.640625 -0.28125l0 -25.71875q1.375 -0.21875 3.203125 -0.359375q1.84375 -0.15625 4.0 -0.15625q1.453125 0 2.96875 0.25q1.515625 0.234375 2.734375 0.921875q1.234375 0.6875 2.03125 1.921875q0.8125 1.234375 0.8125 3.171875zm-8.65625 17.765625q1.1875 0 2.3125 -0.28125q1.125 -0.28125 1.984375 -0.890625q0.859375 -0.625 1.359375 -1.515625q0.5 -0.890625 0.5 -2.125q0 -1.53125 -0.625 -2.453125q-0.609375 -0.9375 -1.59375 -1.453125q-0.984375 -0.53125 -2.21875 -0.71875q-1.234375 -0.1875 -2.46875 -0.1875l-3.25 0l0 9.359375q0.265625 0.078125 0.75 0.125q0.484375 0.03125 1.046875 0.078125q0.5625 0.03125 1.15625 0.046875q0.59375 0.015625 1.046875 0.015625zm-2.046875 -12.234375q0.625 0 1.515625 -0.03125q0.90625 -0.046875 1.5 -0.125q0.890625 -0.296875 1.671875 -0.71875q0.796875 -0.4375 1.40625 -1.015625q0.625 -0.578125 0.96875 -1.34375q0.359375 -0.765625 0.359375 -1.65625q0 -1.234375 -0.46875 -2.03125q-0.46875 -0.8125 -1.25 -1.296875q-0.78125 -0.484375 -1.796875 -0.6875q-1.0 -0.203125 -2.046875 -0.203125q-1.234375 0 -2.265625 0.0625q-1.015625 0.046875 -1.546875 0.15625l0 8.890625l1.953125 0z" fill-rule="nonzero"/><path fill="#000000" fill-opacity="0.0" d="m182.65413 193.0c0 -14.507263 11.760468 -26.267715 26.267715 -26.267715c6.9666443 0 13.647934 2.7674866 18.574081 7.693634c4.9261627 4.9261475 7.6936493 11.607452 7.6936493 18.574081c0 14.507263 -11.760468 26.267715 -26.26773 26.267715c-14.507248 0 -26.267715 -11.760452 -26.267715 -26.267715z" fill-rule="evenodd"/><path stroke="#000000" stroke-width="3.0" stroke-linejoin="round" stroke-linecap="butt" d="m182.65413 193.0c0 -14.507263 11.760468 -26.267715 26.267715 -26.267715c6.9666443 0 13.647934 2.7674866 18.574081 7.693634c4.9261627 4.9261475 7.6936493 11.607452 7.6936493 18.574081c0 14.507263 -11.760468 26.267715 -26.26773 26.267715c-14.507248 0 -26.267715 -11.760452 -26.267715 -26.267715z" fill-rule="evenodd"/><path fill="#000000" d="m200.57796 180.215l14.21875 0l0 2.75l-11.125 0l0 8.5625l10.203125 0l0 2.75l-10.203125 0l0 9.296875l11.3125 0l0 2.765625l-14.40625 0l0 -26.125z" fill-rule="nonzero"/><path fill="#000000" fill-opacity="0.0" d="m155.8647 108.23287l34.48819 66.20472" fill-rule="evenodd"/><path stroke="#000000" stroke-width="4.0" stroke-linejoin="round" stroke-linecap="butt" d="m155.8647 108.23287l34.48819 66.20472" fill-rule="evenodd"/><path fill="#000000" fill-opacity="0.0" d="m260.4239 108.23287l-32.91339 66.20472" fill-rule="evenodd"/><path stroke="#000000" stroke-width="2.0" stroke-linejoin="round" stroke-linecap="butt" stroke-dasharray="8.0,6.0" d="m260.4239 108.23287l-32.91339 66.20472" fill-rule="evenodd"/><path fill="#000000" fill-opacity="0.0" d="m318.557 193.0c0 -14.507263 11.760468 -26.267715 26.26773 -26.267715c6.9666443 0 13.647919 2.7674866 18.574097 7.693634c4.9261475 4.9261475 7.693634 11.607452 7.693634 18.574081c0 14.507263 -11.760468 26.267715 -26.26773 26.267715c-14.507263 0 -26.26773 -11.760452 -26.26773 -26.267715z" fill-rule="evenodd"/><path stroke="#000000" stroke-width="3.0" stroke-linejoin="round" stroke-linecap="butt" d="m318.557 193.0c0 -14.507263 11.760468 -26.267715 26.26773 -26.267715c6.9666443 0 13.647919 2.7674866 18.574097 7.693634c4.9261475 4.9261475 7.693634 11.607452 7.693634 18.574081c0 14.507263 -11.760468 26.267715 -26.26773 26.267715c-14.507263 0 -26.26773 -11.760452 -26.26773 -26.267715z" fill-rule="evenodd"/><path fill="#000000" d="m336.83545 180.215l14.21875 0l0 2.75l-11.125 0l0 8.921875l10.375 0l0 2.765625l-10.375 0l0 11.6875l-3.09375 0l0 -26.125z" fill-rule="nonzero"/><path fill="#000000" fill-opacity="0.0" d="m394.43628 94.72441c0 -14.507263 11.760468 -26.267715 26.26773 -26.267715c6.966614 0 13.647919 2.767479 18.574066 7.693634c4.9261475 4.926155 7.693634 11.607445 7.693634 18.574081c0 14.507256 -11.760437 26.267715 -26.2677 26.267715c-14.507263 0 -26.26773 -11.76046 -26.26773 -26.267715z" fill-rule="evenodd"/><path stroke="#000000" stroke-width="3.0" stroke-linejoin="round" stroke-linecap="butt" d="m394.43628 94.72441c0 -14.507263 11.760468 -26.267715 26.26773 -26.267715c6.966614 0 13.647919 2.767479 18.574066 7.693634c4.9261475 4.926155 7.693634 11.607445 7.693634 18.574081c0 14.507256 -11.760437 26.267715 -26.2677 26.267715c-14.507263 0 -26.26773 -11.76046 -26.26773 -26.267715z" fill-rule="evenodd"/><path fill="#000000" d="m428.42563 106.98628q-1.109375 0.859375 -2.828125 1.1875q-1.71875 0.34375 -3.65625 0.34375q-2.359375 0 -4.421875 -0.796875q-2.046875 -0.8125 -3.578125 -2.453125q-1.53125 -1.640625 -2.421875 -4.203125q-0.890625 -2.5625 -0.890625 -6.0625q0 -3.65625 0.984375 -6.21875q0.984375 -2.5625 2.609375 -4.171875q1.625 -1.625 3.640625 -2.375q2.015625 -0.75 4.109375 -0.75q2.234375 0 3.65625 0.25q1.421875 0.234375 2.421875 0.640625l-0.734375 2.734375q-1.796875 -0.859375 -5.125 -0.859375q-1.53125 0 -3.03125 0.5625q-1.484375 0.546875 -2.65625 1.828125q-1.171875 1.265625 -1.890625 3.328125q-0.703125 2.046875 -0.703125 5.03125q0 2.6875 0.671875 4.703125q0.671875 2.015625 1.84375 3.359375q1.1875 1.34375 2.765625 2.015625q1.59375 0.671875 3.453125 0.671875q1.6875 0 2.9375 -0.328125q1.25 -0.34375 2.109375 -0.875l0.734375 2.4375z" fill-rule="nonzero"/><path fill="#000000" fill-opacity="0.0" d="m37.323425 193.0c0 -14.507263 11.76046 -26.267715 26.26772 -26.267715c6.966633 0 13.6479225 2.7674866 18.574078 7.693634c4.926155 4.9261475 7.693634 11.607452 7.693634 18.574081c0 14.507263 -11.760452 26.267715 -26.267712 26.267715c-14.507259 0 -26.26772 -11.760452 -26.26772 -26.267715z" fill-rule="evenodd"/><path stroke="#000000" stroke-width="3.0" stroke-linejoin="round" stroke-linecap="butt" d="m37.323425 193.0c0 -14.507263 11.76046 -26.267715 26.26772 -26.267715c6.966633 0 13.6479225 2.7674866 18.574078 7.693634c4.926155 4.9261475 7.693634 11.607452 7.693634 18.574081c0 14.507263 -11.760452 26.267715 -26.267712 26.267715c-14.507259 0 -26.26772 -11.760452 -26.26772 -26.267715z" fill-rule="evenodd"/><path fill="#000000" d="m54.165337 180.215q0.703125 -0.109375 1.578125 -0.171875q0.890625 -0.0625 1.84375 -0.078125q0.953125 -0.015625 1.859375 -0.03125q0.921875 -0.015625 1.703125 -0.015625q3.125 0 5.421875 0.96875q2.296875 0.96875 3.78125 2.703125q1.5 1.734375 2.234375 4.171875q0.734375 2.421875 0.734375 5.328125q0 2.65625 -0.703125 5.09375q-0.6875 2.4375 -2.1875 4.328125q-1.484375 1.890625 -3.875 3.03125q-2.390625 1.140625 -5.78125 1.140625q-0.59375 0 -1.546875 -0.03125q-0.953125 -0.015625 -1.96875 -0.078125q-1.0 -0.046875 -1.859375 -0.09375q-0.859375 -0.03125 -1.234375 -0.109375l0 -26.15625zm7.0625 2.453125q-0.484375 0 -1.078125 0q-0.578125 0 -1.140625 0.046875q-0.546875 0.03125 -1.015625 0.078125q-0.46875 0.03125 -0.734375 0.0625l0 20.90625q0.1875 0.046875 0.703125 0.0625q0.53125 0.015625 1.09375 0.03125q0.5625 0.015625 1.078125 0.046875q0.53125 0.015625 0.71875 0.015625q2.609375 0 4.375 -0.890625q1.78125 -0.90625 2.84375 -2.40625q1.0625 -1.515625 1.5 -3.46875q0.453125 -1.96875 0.453125 -4.0625q0 -1.828125 -0.40625 -3.671875q-0.40625 -1.859375 -1.421875 -3.34375q-1.0 -1.5 -2.703125 -2.453125q-1.703125 -0.953125 -4.265625 -0.953125z" fill-rule="nonzero"/><path fill="#000000" fill-opacity="0.0" d="m118.71654 108.23287l-36.566933 66.20472" fill-rule="evenodd"/><path stroke="#000000" stroke-width="4.0" stroke-linejoin="round" stroke-linecap="butt" d="m118.71654 108.23287l-36.566933 66.20472" fill-rule="evenodd"/><path fill="#000000" fill-opacity="0.0" d="m235.18958 193.0l83.37009 0" fill-rule="evenodd"/><path stroke="#000000" stroke-width="2.0" stroke-linejoin="round" stroke-linecap="butt" stroke-dasharray="8.0,6.0" d="m235.18958 193.0l83.37009 0" fill-rule="evenodd"/><path fill="#000000" fill-opacity="0.0" d="m297.57205 108.23287l28.692902 66.20472" fill-rule="evenodd"/><path stroke="#000000" stroke-width="2.0" stroke-linejoin="round" stroke-linecap="butt" stroke-dasharray="8.0,6.0" d="m297.57205 108.23287l28.692902 66.20472" fill-rule="evenodd"/><path fill="#000000" fill-opacity="0.0" d="m402.1299 113.29849l-38.740143 61.13385" fill-rule="evenodd"/><path stroke="#000000" stroke-width="2.0" stroke-linejoin="round" stroke-linecap="butt" stroke-dasharray="8.0,6.0" d="m402.1299 113.29849l-38.740143 61.13385" fill-rule="evenodd"/><path fill="#efefef" d="m553.2006 109.39895c-0.79486084 12.919075 2.9812012 27.712166 15.230957 34.514442c12.249756 6.8022614 22.162292 6.3608856 58.2677 6.2992096c36.10547 -0.061676025 135.34601 7.100174 158.36487 -6.6692963c23.018799 -13.76947 -0.60809326 -61.256783 -20.252014 -75.9475c-19.64392 -14.690731 -65.67627 -11.997379 -97.61151 -12.196854c-31.935303 -0.19947433 -75.0 2.0 -94.0 11.0c-19.0 9.0 -19.2052 30.080925 -20.0 43.0z" fill-rule="evenodd"/><path stroke="#000000" stroke-width="1.0" stroke-linejoin="round" stroke-linecap="butt" d="m553.2006 109.39895c-0.79486084 12.919075 2.9812012 27.712166 15.230957 34.514442c12.249756 6.8022614 22.162292 6.3608856 58.2677 6.2992096c36.10547 -0.061676025 135.34601 7.100174 158.36487 -6.6692963c23.018799 -13.76947 -0.60809326 -61.256783 -20.252014 -75.9475c-19.64392 -14.690731 -65.67627 -11.997379 -97.61151 -12.196854c-31.935303 -0.19947433 -75.0 2.0 -94.0 11.0c-19.0 9.0 -19.2052 30.080925 -20.0 43.0z" fill-rule="evenodd"/><path fill="#000000" fill-opacity="0.0" d="m572.99664 105.698166c0 -14.507263 11.760498 -26.267723 26.2677 -26.267723c6.966675 0 13.647949 2.7674866 18.574097 7.6936417c4.9261475 4.9261475 7.6936646 11.607445 7.6936646 18.574081c0 14.507256 -11.760498 26.267715 -26.267761 26.267715c-14.507202 0 -26.2677 -11.76046 -26.2677 -26.267715z" fill-rule="evenodd"/><path stroke="#000000" stroke-width="3.0" stroke-linejoin="round" stroke-linecap="butt" d="m572.99664 105.698166c0 -14.507263 11.760498 -26.267723 26.2677 -26.267723c6.966675 0 13.647949 2.7674866 18.574097 7.6936417c4.9261475 4.9261475 7.6936646 11.607445 7.6936646 18.574081c0 14.507256 -11.760498 26.267715 -26.267761 26.267715c-14.507202 0 -26.2677 -11.76046 -26.2677 -26.267715z" fill-rule="evenodd"/><path fill="#000000" d="m602.4434 111.80379l-9.640625 0l-2.609375 7.234375l-3.0625 0l9.890625 -26.546875l1.421875 0l9.921875 26.546875l-3.234375 0l-2.6875 -7.234375zm-8.625 -2.6875l7.6875 0l-2.90625 -7.953125l-0.9375 -3.96875l-0.046875 0l-0.921875 4.03125l-2.875 7.890625z" fill-rule="nonzero"/><path fill="#000000" fill-opacity="0.0" d="m625.5321 105.698166l89.165344 0" fill-rule="evenodd"/><path stroke="#000000" stroke-width="2.0" stroke-linejoin="round" stroke-linecap="butt" d="m625.53204 105.698166l82.31122 0" fill-rule="evenodd"/><path fill="#000000" stroke="#000000" stroke-width="2.0" stroke-linecap="butt" d="m707.84326 105.698166l-2.2492065 2.2491608l6.1795654 -2.2491608l-6.1795654 -2.2491684z" fill-rule="evenodd"/><path fill="#000000" fill-opacity="0.0" d="m714.704 105.698166c0 -14.507263 11.760498 -26.267723 26.267761 -26.267723c6.966614 0 13.647888 2.7674866 18.574036 7.6936417c4.9261475 4.9261475 7.6936646 11.607445 7.6936646 18.574081c0 14.507256 -11.760437 26.267715 -26.2677 26.267715c-14.507263 0 -26.267761 -11.76046 -26.267761 -26.267715z" fill-rule="evenodd"/><path stroke="#000000" stroke-width="3.0" stroke-linejoin="round" stroke-linecap="butt" d="m714.704 105.698166c0 -14.507263 11.760498 -26.267723 26.267761 -26.267723c6.966614 0 13.647888 2.7674866 18.574036 7.6936417c4.9261475 4.9261475 7.6936646 11.607445 7.6936646 18.574081c0 14.507256 -11.760437 26.267715 -26.2677 26.267715c-14.507263 0 -26.267761 -11.76046 -26.267761 -26.267715z" fill-rule="evenodd"/><path fill="#000000" d="m747.48193 98.88191q0 0.9375 -0.296875 1.90625q-0.296875 0.96875 -0.890625 1.8125q-0.59375 0.828125 -1.53125 1.46875q-0.9375 0.640625 -2.203125 0.96875l0 0.15625q1.125 0.1875 2.140625 0.640625q1.03125 0.4375 1.8125 1.21875q0.78125 0.78125 1.265625 1.90625q0.484375 1.125 0.484375 2.65625q0 2.015625 -0.84375 3.484375q-0.828125 1.46875 -2.203125 2.40625q-1.359375 0.9375 -3.109375 1.390625q-1.75 0.4375 -3.578125 0.4375q-0.640625 0 -1.5 0q-0.859375 0 -1.796875 -0.0625q-0.921875 -0.046875 -1.859375 -0.140625q-0.9375 -0.09375 -1.640625 -0.28125l0 -25.71875q1.375 -0.21875 3.203125 -0.359375q1.84375 -0.15625 4.0 -0.15625q1.453125 0 2.96875 0.25q1.515625 0.234375 2.734375 0.921875q1.234375 0.6875 2.03125 1.921875q0.8125 1.234375 0.8125 3.171875zm-8.65625 17.765625q1.1875 0 2.3125 -0.28125q1.125 -0.28125 1.984375 -0.890625q0.859375 -0.625 1.359375 -1.515625q0.5 -0.890625 0.5 -2.125q0 -1.53125 -0.625 -2.453125q-0.609375 -0.9375 -1.59375 -1.453125q-0.984375 -0.53125 -2.21875 -0.71875q-1.234375 -0.1875 -2.46875 -0.1875l-3.25 0l0 9.359375q0.265625 0.078125 0.75 0.125q0.484375 0.03125 1.046875 0.078125q0.5625 0.03125 1.15625 0.046875q0.59375 0.015625 1.046875 0.015625zm-2.046875 -12.234375q0.625 0 1.515625 -0.03125q0.90625 -0.046875 1.5 -0.125q0.890625 -0.296875 1.671875 -0.71875q0.796875 -0.4375 1.40625 -1.015625q0.625 -0.578125 0.96875 -1.34375q0.359375 -0.765625 0.359375 -1.65625q0 -1.234375 -0.46875 -2.03125q-0.46875 -0.8125 -1.25 -1.296875q-0.78125 -0.484375 -1.796875 -0.6875q-1.0 -0.203125 -2.046875 -0.203125q-1.234375 0 -2.265625 0.0625q-1.015625 0.046875 -1.546875 0.15625l0 8.890625l1.953125 0z" fill-rule="nonzero"/><path fill="#000000" fill-opacity="0.0" d="m644.62787 209.03937c0 -14.507263 11.760498 -26.267715 26.267761 -26.267715c6.966614 0 13.647888 2.7674866 18.574036 7.693634c4.9261475 4.9261627 7.6936646 11.607452 7.6936646 18.574081c0 14.507263 -11.760437 26.267715 -26.2677 26.267715c-14.507263 0 -26.267761 -11.760452 -26.267761 -26.267715z" fill-rule="evenodd"/><path stroke="#000000" stroke-width="3.0" stroke-linejoin="round" stroke-linecap="butt" d="m644.62787 209.03937c0 -14.507263 11.760498 -26.267715 26.267761 -26.267715c6.966614 0 13.647888 2.7674866 18.574036 7.693634c4.9261475 4.9261627 7.6936646 11.607452 7.6936646 18.574081c0 14.507263 -11.760437 26.267715 -26.2677 26.267715c-14.507263 0 -26.267761 -11.760452 -26.267761 -26.267715z" fill-rule="evenodd"/><path fill="#000000" d="m662.5517 196.25436l14.21875 0l0 2.75l-11.125 0l0 8.5625l10.203125 0l0 2.75l-10.203125 0l0 9.296875l11.3125 0l0 2.765625l-14.40625 0l0 -26.125z" fill-rule="nonzero"/><path fill="#000000" fill-opacity="0.0" d="m617.83844 124.27224l34.48822 66.204735" fill-rule="evenodd"/><path stroke="#000000" stroke-width="4.0" stroke-linejoin="round" stroke-linecap="butt" d="m617.83844 124.27224l34.48822 66.204735" fill-rule="evenodd"/><path fill="#000000" fill-opacity="0.0" d="m722.39764 124.27224l-32.91339 66.204735" fill-rule="evenodd"/><path stroke="#000000" stroke-width="4.0" stroke-linejoin="round" stroke-linecap="butt" d="m722.39764 124.27224l-32.91339 66.204735" fill-rule="evenodd"/><path fill="#000000" fill-opacity="0.0" d="m780.53076 209.03937c0 -14.507263 11.760498 -26.267715 26.2677 -26.267715c6.966675 0 13.647949 2.7674866 18.574097 7.693634c4.9261475 4.9261627 7.6936646 11.607452 7.6936646 18.574081c0 14.507263 -11.760498 26.267715 -26.267761 26.267715c-14.507202 0 -26.2677 -11.760452 -26.2677 -26.267715z" fill-rule="evenodd"/><path stroke="#000000" stroke-width="3.0" stroke-linejoin="round" stroke-linecap="butt" d="m780.53076 209.03937c0 -14.507263 11.760498 -26.267715 26.2677 -26.267715c6.966675 0 13.647949 2.7674866 18.574097 7.693634c4.9261475 4.9261627 7.6936646 11.607452 7.6936646 18.574081c0 14.507263 -11.760498 26.267715 -26.267761 26.267715c-14.507202 0 -26.2677 -11.760452 -26.2677 -26.267715z" fill-rule="evenodd"/><path fill="#000000" d="m798.8092 196.25436l14.21875 0l0 2.75l-11.125 0l0 8.921875l10.375 0l0 2.765625l-10.375 0l0 11.6875l-3.09375 0l0 -26.125z" fill-rule="nonzero"/><path fill="#000000" fill-opacity="0.0" d="m856.41003 110.76378c0 -14.507256 11.760437 -26.267715 26.2677 -26.267715c6.966675 0 13.647949 2.7674866 18.574097 7.693634c4.9261475 4.926155 7.6936646 11.607452 7.6936646 18.574081c0 14.507263 -11.760498 26.267715 -26.267761 26.267715c-14.507263 0 -26.2677 -11.760452 -26.2677 -26.267715z" fill-rule="evenodd"/><path stroke="#000000" stroke-width="3.0" stroke-linejoin="round" stroke-linecap="butt" d="m856.41003 110.76378c0 -14.507256 11.760437 -26.267715 26.2677 -26.267715c6.966675 0 13.647949 2.7674866 18.574097 7.693634c4.9261475 4.926155 7.6936646 11.607452 7.6936646 18.574081c0 14.507263 -11.760498 26.267715 -26.267761 26.267715c-14.507263 0 -26.2677 -11.760452 -26.2677 -26.267715z" fill-rule="evenodd"/><path fill="#000000" d="m890.39935 123.02565q-1.109375 0.859375 -2.828125 1.1875q-1.71875 0.34375 -3.65625 0.34375q-2.359375 0 -4.421875 -0.796875q-2.046875 -0.8125 -3.578125 -2.453125q-1.53125 -1.640625 -2.421875 -4.203125q-0.890625 -2.5625 -0.890625 -6.0625q0 -3.65625 0.984375 -6.21875q0.984375 -2.5625 2.609375 -4.171875q1.625 -1.625 3.640625 -2.375q2.015625 -0.75 4.109375 -0.75q2.234375 0 3.65625 0.25q1.421875 0.234375 2.421875 0.640625l-0.734375 2.734375q-1.796875 -0.859375 -5.125 -0.859375q-1.53125 0 -3.03125 0.5625q-1.484375 0.546875 -2.65625 1.828125q-1.171875 1.265625 -1.890625 3.328125q-0.703125 2.046875 -0.703125 5.03125q0 2.6875 0.671875 4.703125q0.671875 2.015625 1.84375 3.359375q1.1875 1.34375 2.765625 2.015625q1.59375 0.671875 3.453125 0.671875q1.6875 0 2.9375 -0.328125q1.25 -0.34375 2.109375 -0.875l0.734375 2.4375z" fill-rule="nonzero"/><path fill="#000000" fill-opacity="0.0" d="m499.29718 209.03937c0 -14.507263 11.760468 -26.267715 26.2677 -26.267715c6.966675 0 13.647949 2.7674866 18.574097 7.693634c4.9261475 4.9261627 7.6936646 11.607452 7.6936646 18.574081c0 14.507263 -11.760498 26.267715 -26.267761 26.267715c-14.507233 0 -26.2677 -11.760452 -26.2677 -26.267715z" fill-rule="evenodd"/><path stroke="#000000" stroke-width="3.0" stroke-linejoin="round" stroke-linecap="butt" d="m499.29718 209.03937c0 -14.507263 11.760468 -26.267715 26.2677 -26.267715c6.966675 0 13.647949 2.7674866 18.574097 7.693634c4.9261475 4.9261627 7.6936646 11.607452 7.6936646 18.574081c0 14.507263 -11.760498 26.267715 -26.267761 26.267715c-14.507233 0 -26.2677 -11.760452 -26.2677 -26.267715z" fill-rule="evenodd"/><path fill="#000000" d="m516.1391 196.25436q0.703125 -0.109375 1.578125 -0.171875q0.890625 -0.0625 1.84375 -0.078125q0.953125 -0.015625 1.859375 -0.03125q0.921875 -0.015625 1.703125 -0.015625q3.125 0 5.421875 0.96875q2.296875 0.96875 3.78125 2.703125q1.5 1.734375 2.234375 4.171875q0.734375 2.421875 0.734375 5.328125q0 2.65625 -0.703125 5.09375q-0.6875 2.4375 -2.1875 4.328125q-1.484375 1.890625 -3.875 3.03125q-2.390625 1.140625 -5.78125 1.140625q-0.59375 0 -1.546875 -0.03125q-0.953125 -0.015625 -1.96875 -0.078125q-1.0 -0.046875 -1.859375 -0.09375q-0.859375 -0.03125 -1.234375 -0.109375l0 -26.15625zm7.0625 2.453125q-0.484375 0 -1.078125 0q-0.578125 0 -1.140625 0.046875q-0.546875 0.03125 -1.015625 0.078125q-0.46875 0.03125 -0.734375 0.0625l0 20.90625q0.1875 0.046875 0.703125 0.0625q0.53125 0.015625 1.09375 0.03125q0.5625 0.015625 1.078125 0.046875q0.53125 0.015625 0.71875 0.015625q2.609375 0 4.375 -0.890625q1.78125 -0.90625 2.84375 -2.40625q1.0625 -1.515625 1.5 -3.46875q0.453125 -1.96875 0.453125 -4.0625q0 -1.828125 -0.40625 -3.671875q-0.40625 -1.859375 -1.421875 -3.34375q-1.0 -1.5 -2.703125 -2.453125q-1.703125 -0.953125 -4.265625 -0.953125z" fill-rule="nonzero"/><path fill="#000000" fill-opacity="0.0" d="m580.6903 124.27224l-36.566956 66.204735" fill-rule="evenodd"/><path stroke="#000000" stroke-width="4.0" stroke-linejoin="round" stroke-linecap="butt" d="m580.6903 124.27224l-36.566956 66.204735" fill-rule="evenodd"/><path fill="#000000" fill-opacity="0.0" d="m697.1633 209.03937l83.370056 0" fill-rule="evenodd"/><path stroke="#000000" stroke-width="2.0" stroke-linejoin="round" stroke-linecap="butt" stroke-dasharray="8.0,6.0" d="m697.1633 209.03937l83.370056 0" fill-rule="evenodd"/><path fill="#000000" fill-opacity="0.0" d="m759.5458 124.27224l28.692932 66.204735" fill-rule="evenodd"/><path stroke="#000000" stroke-width="4.0" stroke-linejoin="round" stroke-linecap="butt" d="m759.5458 124.27224l28.692932 66.204735" fill-rule="evenodd"/><path fill="#000000" fill-opacity="0.0" d="m864.1037 129.33786l-38.740173 61.133865" fill-rule="evenodd"/><path stroke="#000000" stroke-width="2.0" stroke-linejoin="round" stroke-linecap="butt" stroke-dasharray="8.0,6.0" d="m864.1037 129.33786l-38.740173 61.133865" fill-rule="evenodd"/><path fill="#efefef" d="m98.48878 390.23215c7.3604584 29.959747 19.447945 84.33331 65.73754 101.0c46.28958 16.666656 177.33331 17.5 212.0 -1.0c34.666656 -18.5 8.456238 -80.16669 -4.0 -110.0c-12.456268 -29.833344 -42.947937 -55.333344 -70.73755 -69.0c-27.789581 -13.666687 -65.76245 -13.040253 -95.999985 -13.0c-30.237534 0.040222168 -67.59187 -2.091858 -85.4252 13.241455c-17.833336 15.3333435 -28.935257 48.798767 -21.574806 78.758545z" fill-rule="evenodd"/><path stroke="#000000" stroke-width="1.0" stroke-linejoin="round" stroke-linecap="butt" d="m98.48878 390.23215c7.3604584 29.959747 19.447945 84.33331 65.73754 101.0c46.28958 16.666656 177.33331 17.5 212.0 -1.0c34.666656 -18.5 8.456238 -80.16669 -4.0 -110.0c-12.456268 -29.833344 -42.947937 -55.333344 -70.73755 -69.0c-27.789581 -13.666687 -65.76245 -13.040253 -95.999985 -13.0c-30.237534 0.040222168 -67.59187 -2.091858 -85.4252 13.241455c-17.833336 15.3333435 -28.935257 48.798767 -21.574806 78.758545z" fill-rule="evenodd"/><path fill="#000000" fill-opacity="0.0" d="m112.84442 355.12335c0 -14.507263 11.76046 -26.2677 26.267715 -26.2677c6.966629 0 13.647934 2.7674866 18.574081 7.693634c4.9261475 4.9261475 7.693634 11.607452 7.693634 18.574066c0 14.507263 -11.760452 26.26773 -26.267715 26.26773c-14.507256 0 -26.267715 -11.760468 -26.267715 -26.26773z" fill-rule="evenodd"/><path stroke="#000000" stroke-width="3.0" stroke-linejoin="round" stroke-linecap="butt" d="m112.84442 355.12335c0 -14.507263 11.76046 -26.2677 26.267715 -26.2677c6.966629 0 13.647934 2.7674866 18.574081 7.693634c4.9261475 4.9261475 7.693634 11.607452 7.693634 18.574066c0 14.507263 -11.760452 26.26773 -26.267715 26.26773c-14.507256 0 -26.267715 -11.760468 -26.267715 -26.26773z" fill-rule="evenodd"/><path fill="#000000" d="m142.2912 361.22897l-9.640625 0l-2.609375 7.234375l-3.0624924 0l9.890617 -26.546875l1.421875 0l9.921875 26.546875l-3.234375 0l-2.6875 -7.234375zm-8.625 -2.6875l7.6875 0l-2.90625 -7.953125l-0.9375 -3.96875l-0.046875 0l-0.921875 4.03125l-2.875 7.890625z" fill-rule="nonzero"/><path fill="#000000" fill-opacity="0.0" d="m165.37985 355.12335l89.16536 0" fill-rule="evenodd"/><path stroke="#000000" stroke-width="2.0" stroke-linejoin="round" stroke-linecap="butt" d="m165.37985 355.12335l82.31119 0" fill-rule="evenodd"/><path fill="#000000" stroke="#000000" stroke-width="2.0" stroke-linecap="butt" d="m247.69104 355.12335l-2.2491608 2.249176l6.179535 -2.249176l-6.179535 -2.2491455z" fill-rule="evenodd"/><path fill="#000000" fill-opacity="0.0" d="m254.55177 355.12335c0 -14.507263 11.760452 -26.2677 26.267715 -26.2677c6.9666443 0 13.647919 2.7674866 18.574066 7.693634c4.926178 4.9261475 7.6936646 11.607452 7.6936646 18.574066c0 14.507263 -11.760468 26.26773 -26.26773 26.26773c-14.507263 0 -26.267715 -11.760468 -26.267715 -26.26773z" fill-rule="evenodd"/><path stroke="#000000" stroke-width="3.0" stroke-linejoin="round" stroke-linecap="butt" d="m254.55177 355.12335c0 -14.507263 11.760452 -26.2677 26.267715 -26.2677c6.9666443 0 13.647919 2.7674866 18.574066 7.693634c4.926178 4.9261475 7.6936646 11.607452 7.6936646 18.574066c0 14.507263 -11.760468 26.26773 -26.26773 26.26773c-14.507263 0 -26.267715 -11.760468 -26.267715 -26.26773z" fill-rule="evenodd"/><path fill="#000000" d="m287.3297 348.3071q0 0.9375 -0.296875 1.90625q-0.296875 0.96875 -0.890625 1.8125q-0.59375 0.828125 -1.53125 1.46875q-0.9375 0.640625 -2.203125 0.96875l0 0.15625q1.125 0.1875 2.140625 0.640625q1.03125 0.4375 1.8125 1.21875q0.78125 0.78125 1.265625 1.90625q0.484375 1.125 0.484375 2.65625q0 2.015625 -0.84375 3.484375q-0.828125 1.46875 -2.203125 2.40625q-1.359375 0.9375 -3.109375 1.390625q-1.75 0.4375 -3.578125 0.4375q-0.640625 0 -1.5 0q-0.859375 0 -1.796875 -0.0625q-0.921875 -0.046875 -1.859375 -0.140625q-0.9375 -0.09375 -1.640625 -0.28125l0 -25.71875q1.375 -0.21875 3.203125 -0.359375q1.84375 -0.15625 4.0 -0.15625q1.453125 0 2.96875 0.25q1.515625 0.234375 2.734375 0.921875q1.234375 0.6875 2.03125 1.921875q0.8125 1.234375 0.8125 3.171875zm-8.65625 17.765625q1.1875 0 2.3125 -0.28125q1.125 -0.28125 1.984375 -0.890625q0.859375 -0.625 1.359375 -1.515625q0.5 -0.890625 0.5 -2.125q0 -1.53125 -0.625 -2.453125q-0.609375 -0.9375 -1.59375 -1.453125q-0.984375 -0.53125 -2.21875 -0.71875q-1.234375 -0.1875 -2.46875 -0.1875l-3.25 0l0 9.359375q0.265625 0.078125 0.75 0.125q0.484375 0.03125 1.046875 0.078125q0.5625 0.03125 1.15625 0.046875q0.59375 0.015625 1.046875 0.015625zm-2.046875 -12.234375q0.625 0 1.515625 -0.03125q0.90625 -0.046875 1.5 -0.125q0.890625 -0.296875 1.671875 -0.71875q0.796875 -0.4375 1.40625 -1.015625q0.625 -0.578125 0.96875 -1.34375q0.359375 -0.765625 0.359375 -1.65625q0 -1.234375 -0.46875 -2.03125q-0.46875 -0.8125 -1.25 -1.296875q-0.78125 -0.484375 -1.796875 -0.6875q-1.0 -0.203125 -2.046875 -0.203125q-1.234375 0 -2.265625 0.0625q-1.015625 0.046875 -1.546875 0.15625l0 8.890625l1.953125 0z" fill-rule="nonzero"/><path fill="#000000" fill-opacity="0.0" d="m184.47566 458.46457c0 -14.507263 11.760452 -26.26773 26.267715 -26.26773c6.966629 0 13.647919 2.7674866 18.574081 7.693634c4.9261475 4.926178 7.693634 11.607452 7.693634 18.574097c0 14.507263 -11.760468 26.2677 -26.267715 26.2677c-14.507263 0 -26.267715 -11.760437 -26.267715 -26.2677z" fill-rule="evenodd"/><path stroke="#000000" stroke-width="3.0" stroke-linejoin="round" stroke-linecap="butt" d="m184.47566 458.46457c0 -14.507263 11.760452 -26.26773 26.267715 -26.26773c6.966629 0 13.647919 2.7674866 18.574081 7.693634c4.9261475 4.926178 7.693634 11.607452 7.693634 18.574097c0 14.507263 -11.760468 26.2677 -26.267715 26.2677c-14.507263 0 -26.267715 -11.760437 -26.267715 -26.2677z" fill-rule="evenodd"/><path fill="#000000" d="m202.39948 445.67957l14.21875 0l0 2.75l-11.125 0l0 8.5625l10.203125 0l0 2.75l-10.203125 0l0 9.296875l11.3125 0l0 2.765625l-14.40625 0l0 -26.125z" fill-rule="nonzero"/><path fill="#000000" fill-opacity="0.0" d="m157.68622 373.69745l34.48819 66.20471" fill-rule="evenodd"/><path stroke="#000000" stroke-width="2.0" stroke-linejoin="round" stroke-linecap="butt" d="m157.68622 373.69742l31.321548 60.125916" fill-rule="evenodd"/><path fill="#000000" stroke="#000000" stroke-width="2.0" stroke-linecap="butt" d="m189.00777 433.82333l-3.0338593 -0.95562744l4.849701 4.4413757l-0.8602295 -6.519623z" fill-rule="evenodd"/><path fill="#000000" fill-opacity="0.0" d="m262.24542 373.69745l-32.913406 66.20471" fill-rule="evenodd"/><path stroke="#000000" stroke-width="2.0" stroke-linejoin="round" stroke-linecap="butt" stroke-dasharray="8.0,6.0" d="m262.24542 373.69745l-32.913406 66.20471" fill-rule="evenodd"/><path fill="#000000" fill-opacity="0.0" d="m320.37854 458.46457c0 -14.507263 11.760468 -26.26773 26.26773 -26.26773c6.966614 0 13.647919 2.7674866 18.574066 7.693634c4.9261475 4.926178 7.693634 11.607452 7.693634 18.574097c0 14.507263 -11.760437 26.2677 -26.2677 26.2677c-14.507263 0 -26.26773 -11.760437 -26.26773 -26.2677z" fill-rule="evenodd"/><path stroke="#000000" stroke-width="3.0" stroke-linejoin="round" stroke-linecap="butt" d="m320.37854 458.46457c0 -14.507263 11.760468 -26.26773 26.26773 -26.26773c6.966614 0 13.647919 2.7674866 18.574066 7.693634c4.9261475 4.926178 7.693634 11.607452 7.693634 18.574097c0 14.507263 -11.760437 26.2677 -26.2677 26.2677c-14.507263 0 -26.26773 -11.760437 -26.26773 -26.2677z" fill-rule="evenodd"/><path fill="#000000" d="m338.65698 445.67957l14.21875 0l0 2.75l-11.125 0l0 8.921875l10.375 0l0 2.765625l-10.375 0l0 11.6875l-3.09375 0l0 -26.125z" fill-rule="nonzero"/><path fill="#000000" fill-opacity="0.0" d="m396.2578 360.18896c0 -14.507233 11.760468 -26.2677 26.2677 -26.2677c6.9666443 0 13.647949 2.7674866 18.574097 7.693634c4.9261475 4.9261475 7.693634 11.607452 7.693634 18.574066c0 14.507263 -11.760468 26.26773 -26.26773 26.26773c-14.507233 0 -26.2677 -11.760468 -26.2677 -26.26773z" fill-rule="evenodd"/><path stroke="#000000" stroke-width="3.0" stroke-linejoin="round" stroke-linecap="butt" d="m396.2578 360.18896c0 -14.507233 11.760468 -26.2677 26.2677 -26.2677c6.9666443 0 13.647949 2.7674866 18.574097 7.693634c4.9261475 4.9261475 7.693634 11.607452 7.693634 18.574066c0 14.507263 -11.760468 26.26773 -26.26773 26.26773c-14.507233 0 -26.2677 -11.760468 -26.2677 -26.26773z" fill-rule="evenodd"/><path fill="#000000" d="m430.24713 372.45084q-1.109375 0.859375 -2.828125 1.1875q-1.71875 0.34375 -3.65625 0.34375q-2.359375 0 -4.421875 -0.796875q-2.046875 -0.8125 -3.578125 -2.453125q-1.53125 -1.640625 -2.421875 -4.203125q-0.890625 -2.5625 -0.890625 -6.0625q0 -3.65625 0.984375 -6.21875q0.984375 -2.5625 2.609375 -4.171875q1.625 -1.625 3.640625 -2.375q2.015625 -0.75 4.109375 -0.75q2.234375 0 3.65625 0.25q1.421875 0.234375 2.421875 0.640625l-0.734375 2.734375q-1.796875 -0.859375 -5.125 -0.859375q-1.53125 0 -3.03125 0.5625q-1.484375 0.546875 -2.65625 1.828125q-1.171875 1.265625 -1.890625 3.328125q-0.703125 2.046875 -0.703125 5.03125q0 2.6875 0.671875 4.703125q0.671875 2.015625 1.84375 3.359375q1.1875 1.34375 2.765625 2.015625q1.59375 0.671875 3.453125 0.671875q1.6875 0 2.9375 -0.328125q1.25 -0.34375 2.109375 -0.875l0.734375 2.4375z" fill-rule="nonzero"/><path fill="#000000" fill-opacity="0.0" d="m39.144947 458.46457c0 -14.507263 11.76046 -26.26773 26.26772 -26.26773c6.966629 0 13.647926 2.7674866 18.574081 7.693634c4.9261475 4.926178 7.693634 11.607452 7.693634 18.574097c0 14.507263 -11.76046 26.2677 -26.267715 26.2677c-14.507259 0 -26.26772 -11.760437 -26.26772 -26.2677z" fill-rule="evenodd"/><path stroke="#000000" stroke-width="3.0" stroke-linejoin="round" stroke-linecap="butt" d="m39.144947 458.46457c0 -14.507263 11.76046 -26.26773 26.26772 -26.26773c6.966629 0 13.647926 2.7674866 18.574081 7.693634c4.9261475 4.926178 7.693634 11.607452 7.693634 18.574097c0 14.507263 -11.76046 26.2677 -26.267715 26.2677c-14.507259 0 -26.26772 -11.760437 -26.26772 -26.2677z" fill-rule="evenodd"/><path fill="#000000" d="m55.98686 445.67957q0.703125 -0.109375 1.578125 -0.171875q0.890625 -0.0625 1.84375 -0.078125q0.953125 -0.015625 1.859375 -0.03125q0.921875 -0.015625 1.703125 -0.015625q3.1250038 0 5.421879 0.96875q2.296875 0.96875 3.78125 2.703125q1.5 1.734375 2.234375 4.171875q0.734375 2.421875 0.734375 5.328125q0 2.65625 -0.703125 5.09375q-0.6875 2.4375 -2.1875 4.328125q-1.484375 1.890625 -3.875 3.03125q-2.390625 1.140625 -5.781254 1.140625q-0.59375 0 -1.546875 -0.03125q-0.953125 -0.015625 -1.96875 -0.078125q-1.0 -0.046875 -1.859375 -0.09375q-0.859375 -0.03125 -1.234375 -0.109375l0 -26.15625zm7.0625 2.453125q-0.484375 0 -1.078125 0q-0.578125 0 -1.140625 0.046875q-0.546875 0.03125 -1.015625 0.078125q-0.46875 0.03125 -0.734375 0.0625l0 20.90625q0.1875 0.046875 0.703125 0.0625q0.53125 0.015625 1.09375 0.03125q0.5625 0.015625 1.078125 0.046875q0.53125 0.015625 0.71875 0.015625q2.6093788 0 4.375004 -0.890625q1.78125 -0.90625 2.84375 -2.40625q1.0625 -1.515625 1.5 -3.46875q0.453125 -1.96875 0.453125 -4.0625q0 -1.828125 -0.40625 -3.671875q-0.40625 -1.859375 -1.421875 -3.34375q-1.0 -1.5 -2.703125 -2.453125q-1.703125 -0.953125 -4.265629 -0.953125z" fill-rule="nonzero"/><path fill="#000000" fill-opacity="0.0" d="m120.53806 373.69745l-36.566933 66.20471" fill-rule="evenodd"/><path stroke="#000000" stroke-width="4.0" stroke-linejoin="round" stroke-linecap="butt" d="m120.53806 373.69745l-36.566933 66.20471" fill-rule="evenodd"/><path fill="#000000" fill-opacity="0.0" d="m237.0111 458.46457l83.37007 0" fill-rule="evenodd"/><path stroke="#000000" stroke-width="2.0" stroke-linejoin="round" stroke-linecap="butt" stroke-dasharray="8.0,6.0" d="m237.0111 458.46457l83.37007 0" fill-rule="evenodd"/><path fill="#000000" fill-opacity="0.0" d="m299.39355 373.69745l28.692932 66.20471" fill-rule="evenodd"/><path stroke="#000000" stroke-width="2.0" stroke-linejoin="round" stroke-linecap="butt" d="m299.3936 373.69742l25.967316 59.91577" fill-rule="evenodd"/><path fill="#000000" stroke="#000000" stroke-width="2.0" stroke-linecap="butt" d="m325.36087 433.61322l-2.9580688 -1.1693115l4.5210266 4.775543l-0.39364624 -6.564331z" fill-rule="evenodd"/><path fill="#000000" fill-opacity="0.0" d="m403.95145 378.76306l-38.740173 61.13385" fill-rule="evenodd"/><path stroke="#000000" stroke-width="4.0" stroke-linejoin="round" stroke-linecap="butt" d="m403.95145 378.76306l-38.740173 61.13385" fill-rule="evenodd"/><path fill="#000000" d="m1036.8268 157.3727c0 -2.91362 2.3619385 -5.275589 5.275635 -5.275589c1.3991699 0 2.7409668 0.5558319 3.7303467 1.5451965c0.9893799 0.9893646 1.545166 2.3312225 1.545166 3.7303925c0 2.9136353 -2.3619385 5.2756042 -5.2755127 5.2756042c-2.9136963 0 -5.275635 -2.361969 -5.275635 -5.2756042z" fill-rule="evenodd"/><path stroke="#000000" stroke-width="1.0" stroke-linejoin="round" stroke-linecap="butt" d="m1036.8268 157.3727c0 -2.91362 2.3619385 -5.275589 5.275635 -5.275589c1.3991699 0 2.7409668 0.5558319 3.7303467 1.5451965c0.9893799 0.9893646 1.545166 2.3312225 1.545166 3.7303925c0 2.9136353 -2.3619385 5.2756042 -5.2755127 5.2756042c-2.9136963 0 -5.275635 -2.361969 -5.275635 -5.2756042z" fill-rule="evenodd"/><path fill="#000000" d="m101.714676 128.92744c0 -2.9136353 2.3619614 -5.2755966 5.275589 -5.2755966c1.3991776 0 2.741043 0.55581665 3.7304077 1.5451813c0.9893646 0.98937225 1.5451889 2.3312378 1.5451889 3.7304153c0 2.91362 -2.361969 5.275589 -5.2755966 5.275589c-2.9136276 0 -5.275589 -2.361969 -5.275589 -5.275589z" fill-rule="evenodd"/><path stroke="#000000" stroke-width="1.0" stroke-linejoin="round" stroke-linecap="butt" d="m101.714676 128.92744c0 -2.9136353 2.3619614 -5.2755966 5.275589 -5.2755966c1.3991776 0 2.741043 0.55581665 3.7304077 1.5451813c0.9893646 0.98937225 1.5451889 2.3312378 1.5451889 3.7304153c0 2.91362 -2.361969 5.275589 -5.2755966 5.275589c-2.9136276 0 -5.275589 -2.361969 -5.275589 -5.275589z" fill-rule="evenodd"/><path fill="#000000" d="m162.9387 131.5095c0 -2.91362 2.3619537 -5.2755814 5.275589 -5.2755814c1.3991699 0 2.741043 0.55581665 3.7304077 1.5451813c0.9893646 0.98937225 1.5451813 2.3312302 1.5451813 3.7304c0 2.9136353 -2.3619537 5.275589 -5.275589 5.275589c-2.9136353 0 -5.275589 -2.3619537 -5.275589 -5.275589z" fill-rule="evenodd"/><path stroke="#000000" stroke-width="1.0" stroke-linejoin="round" stroke-linecap="butt" d="m162.9387 131.5095c0 -2.91362 2.3619537 -5.2755814 5.275589 -5.2755814c1.3991699 0 2.741043 0.55581665 3.7304077 1.5451813c0.9893646 0.98937225 1.5451813 2.3312302 1.5451813 3.7304c0 2.9136353 -2.3619537 5.275589 -5.275589 5.275589c-2.9136353 0 -5.275589 -2.3619537 -5.275589 -5.275589z" fill-rule="evenodd"/><path fill="#000000" d="m180.16814 89.65912c0 -2.9136276 2.361969 -5.275589 5.275589 -5.275589c1.3991852 0 2.741043 0.55581665 3.7304077 1.5451813c0.9893646 0.9893646 1.5451965 2.3312302 1.5451965 3.7304077c0 2.9136276 -2.361969 5.275589 -5.2756042 5.275589c-2.91362 0 -5.275589 -2.3619614 -5.275589 -5.275589z" fill-rule="evenodd"/><path stroke="#000000" stroke-width="1.0" stroke-linejoin="round" stroke-linecap="butt" d="m180.16814 89.65912c0 -2.9136276 2.361969 -5.275589 5.275589 -5.275589c1.3991852 0 2.741043 0.55581665 3.7304077 1.5451813c0.9893646 0.9893646 1.5451965 2.3312302 1.5451965 3.7304077c0 2.9136276 -2.361969 5.275589 -5.2756042 5.275589c-2.91362 0 -5.275589 -2.3619614 -5.275589 -5.275589z" fill-rule="evenodd"/><path fill="#000000" d="m1246.4243 159.39665c0 -2.9136353 2.3619385 -5.275589 5.2755127 -5.275589c1.3991699 0 2.7410889 0.55581665 3.7304688 1.5451813c0.9893799 0.9893646 1.545166 2.3312378 1.545166 3.7304077c0 2.91362 -2.3619385 5.275589 -5.275635 5.275589c-2.9135742 0 -5.2755127 -2.361969 -5.2755127 -5.275589z" fill-rule="evenodd"/><path stroke="#000000" stroke-width="1.0" stroke-linejoin="round" stroke-linecap="butt" d="m1246.4243 159.39665c0 -2.9136353 2.3619385 -5.275589 5.2755127 -5.275589c1.3991699 0 2.7410889 0.55581665 3.7304688 1.5451813c0.9893799 0.9893646 1.545166 2.3312378 1.545166 3.7304077c0 2.91362 -2.3619385 5.275589 -5.275635 5.275589c-2.9135742 0 -5.2755127 -2.361969 -5.2755127 -5.275589z" fill-rule="evenodd"/><path fill="#000000" d="m564.2668 143.86647c0 -2.9136353 2.3619385 -5.275589 5.2755737 -5.275589c1.3991699 0 2.7410889 0.55581665 3.7304077 1.5451813c0.9893799 0.9893646 1.545227 2.3312378 1.545227 3.7304077c0 2.91362 -2.3619995 5.275589 -5.275635 5.275589c-2.9136353 0 -5.2755737 -2.361969 -5.2755737 -5.275589z" fill-rule="evenodd"/><path stroke="#000000" stroke-width="1.0" stroke-linejoin="round" stroke-linecap="butt" d="m564.2668 143.86647c0 -2.9136353 2.3619385 -5.275589 5.2755737 -5.275589c1.3991699 0 2.7410889 0.55581665 3.7304077 1.5451813c0.9893799 0.9893646 1.545227 2.3312378 1.545227 3.7304077c0 2.91362 -2.3619995 5.275589 -5.275635 5.275589c-2.9136353 0 -5.2755737 -2.361969 -5.2755737 -5.275589z" fill-rule="evenodd"/><path fill="#000000" d="m625.53186 150.09744c0 -2.9136353 2.3619995 -5.275589 5.275635 -5.275589c1.3991699 0 2.7410278 0.55581665 3.7304077 1.5451813c0.98931885 0.9893646 1.545166 2.3312225 1.545166 3.7304077c0 2.91362 -2.3619995 5.275589 -5.2755737 5.275589c-2.9136353 0 -5.275635 -2.361969 -5.275635 -5.275589z" fill-rule="evenodd"/><path stroke="#000000" stroke-width="1.0" stroke-linejoin="round" stroke-linecap="butt" d="m625.53186 150.09744c0 -2.9136353 2.3619995 -5.275589 5.275635 -5.275589c1.3991699 0 2.7410278 0.55581665 3.7304077 1.5451813c0.98931885 0.9893646 1.545166 2.3312225 1.545166 3.7304077c0 2.91362 -2.3619995 5.275589 -5.2755737 5.275589c-2.9136353 0 -5.275635 -2.361969 -5.275635 -5.275589z" fill-rule="evenodd"/><path fill="#000000" d="m702.48724 151.56802c0 -2.91362 2.3619995 -5.275589 5.275635 -5.275589c1.3991699 0 2.7410278 0.55581665 3.7304077 1.5451813c0.98931885 0.9893646 1.545166 2.3312378 1.545166 3.7304077c0 2.9136353 -2.3619995 5.275589 -5.2755737 5.275589c-2.9136353 0 -5.275635 -2.3619537 -5.275635 -5.275589z" fill-rule="evenodd"/><path stroke="#000000" stroke-width="1.0" stroke-linejoin="round" stroke-linecap="butt" d="m702.48724 151.56802c0 -2.91362 2.3619995 -5.275589 5.275635 -5.275589c1.3991699 0 2.7410278 0.55581665 3.7304077 1.5451813c0.98931885 0.9893646 1.545166 2.3312378 1.545166 3.7304077c0 2.9136353 -2.3619995 5.275589 -5.2755737 5.275589c-2.9136353 0 -5.275635 -2.3619537 -5.275635 -5.275589z" fill-rule="evenodd"/><path fill="#000000" d="m763.9256 148.62685c0 -2.91362 2.3619385 -5.275589 5.2755737 -5.275589c1.3991699 0 2.7410278 0.55581665 3.7304077 1.5451813c0.9893799 0.9893646 1.545166 2.3312378 1.545166 3.7304077c0 2.9136353 -2.3619385 5.275589 -5.2755737 5.275589c-2.9136353 0 -5.2755737 -2.3619537 -5.2755737 -5.275589z" fill-rule="evenodd"/><path stroke="#000000" stroke-width="1.0" stroke-linejoin="round" stroke-linecap="butt" d="m763.9256 148.62685c0 -2.91362 2.3619385 -5.275589 5.2755737 -5.275589c1.3991699 0 2.7410278 0.55581665 3.7304077 1.5451813c0.9893799 0.9893646 1.545166 2.3312378 1.545166 3.7304077c0 2.9136353 -2.3619385 5.275589 -5.2755737 5.275589c-2.9136353 0 -5.2755737 -2.3619537 -5.2755737 -5.275589z" fill-rule="evenodd"/><path fill="#000000" d="m97.73981 406.80084c0 -2.9136353 2.3619614 -5.2755737 5.2755966 -5.2755737c1.3991699 0 2.7410355 0.55581665 3.7304 1.545166c0.9893646 0.9893799 1.5451889 2.3312378 1.5451889 3.7304077c0 2.9136353 -2.3619614 5.2756042 -5.275589 5.2756042c-2.9136353 0 -5.2755966 -2.361969 -5.2755966 -5.2756042z" fill-rule="evenodd"/><path stroke="#000000" stroke-width="1.0" stroke-linejoin="round" stroke-linecap="butt" d="m97.73981 406.80084c0 -2.9136353 2.3619614 -5.2755737 5.2755966 -5.2755737c1.3991699 0 2.7410355 0.55581665 3.7304 1.545166c0.9893646 0.9893799 1.5451889 2.3312378 1.5451889 3.7304077c0 2.9136353 -2.3619614 5.2756042 -5.275589 5.2756042c-2.9136353 0 -5.2755966 -2.361969 -5.2755966 -5.2756042z" fill-rule="evenodd"/><path fill="#000000" d="m378.95654 410.31143c0 -2.9136353 2.361969 -5.2756042 5.2755737 -5.2756042c1.3991699 0 2.7410583 0.55581665 3.7304077 1.5451965c0.9893799 0.98934937 1.5451965 2.3312378 1.5451965 3.7304077c0 2.9136353 -2.361969 5.2755737 -5.2756042 5.2755737c-2.9136047 0 -5.2755737 -2.3619385 -5.2755737 -5.2755737z" fill-rule="evenodd"/><path stroke="#000000" stroke-width="1.0" stroke-linejoin="round" stroke-linecap="butt" d="m378.95654 410.31143c0 -2.9136353 2.361969 -5.2756042 5.2755737 -5.2756042c1.3991699 0 2.7410583 0.55581665 3.7304077 1.5451965c0.9893799 0.98934937 1.5451965 2.3312378 1.5451965 3.7304077c0 2.9136353 -2.361969 5.2755737 -5.2756042 5.2755737c-2.9136047 0 -5.2755737 -2.3619385 -5.2755737 -5.2755737z" fill-rule="evenodd"/><path fill="#000000" d="m1220.9509 211.0607c0 -2.9136353 2.3620605 -5.2756042 5.275635 -5.2756042c1.3991699 0 2.7410889 0.5558319 3.7303467 1.5451965c0.9893799 0.9893646 1.5452881 2.3312225 1.5452881 3.7304077c0 2.91362 -2.3620605 5.275589 -5.275635 5.275589c-2.9135742 0 -5.275635 -2.361969 -5.275635 -5.275589z" fill-rule="evenodd"/><path stroke="#000000" stroke-width="1.0" stroke-linejoin="round" stroke-linecap="butt" d="m1220.9509 211.0607c0 -2.9136353 2.3620605 -5.2756042 5.275635 -5.2756042c1.3991699 0 2.7410889 0.5558319 3.7303467 1.5451965c0.9893799 0.9893646 1.5452881 2.3312225 1.5452881 3.7304077c0 2.91362 -2.3620605 5.275589 -5.275635 5.275589c-2.9135742 0 -5.275635 -2.361969 -5.275635 -5.275589z" fill-rule="evenodd"/><path fill="#000000" fill-opacity="0.0" d="m479.35434 37.742783l0 500.0" fill-rule="evenodd"/><path stroke="#000000" stroke-width="1.0" stroke-linejoin="round" stroke-linecap="butt" d="m479.35434 37.742783l0 500.0" fill-rule="evenodd"/><path fill="#000000" fill-opacity="0.0" d="m34.194225 258.70865l1401.6063 0" fill-rule="evenodd"/><path stroke="#000000" stroke-width="1.0" stroke-linejoin="round" stroke-linecap="butt" d="m34.194225 258.70865l1401.6063 0" fill-rule="evenodd"/><path fill="#000000" fill-opacity="0.0" d="m963.0971 37.742783l0 500.0" fill-rule="evenodd"/><path stroke="#000000" stroke-width="1.0" stroke-linejoin="round" stroke-linecap="butt" d="m963.0971 37.742783l0 500.0" fill-rule="evenodd"/><path fill="#efefef" d="m503.54984 479.3531c14.247589 29.300964 78.77469 31.097534 137.09708 33.8714c58.32245 2.7738037 178.03107 3.9763794 212.83728 -17.228363c34.806213 -21.204712 8.456238 -80.16666 -4.0 -110.0c-12.456238 -29.833344 -42.947937 -55.333344 -70.73755 -69.0c-27.78955 -13.6666565 -58.73578 -16.403748 -96.0 -13.0c-37.26416 3.403778 -97.71912 4.196411 -127.585266 33.422577c-29.86615 29.226166 -65.85916 112.63342 -51.61154 141.93439z" fill-rule="evenodd"/><path stroke="#000000" stroke-width="1.0" stroke-linejoin="round" stroke-linecap="butt" d="m503.54984 479.3531c14.247589 29.300964 78.77469 31.097534 137.09708 33.8714c58.32245 2.7738037 178.03107 3.9763794 212.83728 -17.228363c34.806213 -21.204712 8.456238 -80.16666 -4.0 -110.0c-12.456238 -29.833344 -42.947937 -55.333344 -70.73755 -69.0c-27.78955 -13.6666565 -58.73578 -16.403748 -96.0 -13.0c-37.26416 3.403778 -97.71912 4.196411 -127.585266 33.422577c-29.86615 29.226166 -65.85916 112.63342 -51.61154 141.93439z" fill-rule="evenodd"/><path fill="#000000" fill-opacity="0.0" d="m590.1016 360.88977c0 -14.507263 11.760498 -26.26773 26.267761 -26.26773c6.966614 0 13.647888 2.7674866 18.574036 7.693634c4.9261475 4.9261475 7.6936646 11.607452 7.6936646 18.574097c0 14.507263 -11.760498 26.2677 -26.2677 26.2677c-14.507263 0 -26.267761 -11.760437 -26.267761 -26.2677z" fill-rule="evenodd"/><path stroke="#000000" stroke-width="3.0" stroke-linejoin="round" stroke-linecap="butt" d="m590.1016 360.88977c0 -14.507263 11.760498 -26.26773 26.267761 -26.26773c6.966614 0 13.647888 2.7674866 18.574036 7.693634c4.9261475 4.9261475 7.6936646 11.607452 7.6936646 18.574097c0 14.507263 -11.760498 26.2677 -26.2677 26.2677c-14.507263 0 -26.267761 -11.760437 -26.267761 -26.2677z" fill-rule="evenodd"/><path fill="#000000" d="m619.5484 366.9954l-9.640625 0l-2.609375 7.234375l-3.0625 0l9.890625 -26.546875l1.421875 0l9.921875 26.546875l-3.234375 0l-2.6875 -7.234375zm-8.625 -2.6875l7.6875 0l-2.90625 -7.953125l-0.9375 -3.96875l-0.046875 0l-0.921875 4.03125l-2.875 7.890625z" fill-rule="nonzero"/><path fill="#000000" fill-opacity="0.0" d="m642.6371 360.88977l89.165344 0" fill-rule="evenodd"/><path stroke="#000000" stroke-width="2.0" stroke-linejoin="round" stroke-linecap="butt" d="m642.6371 360.88977l82.31116 0" fill-rule="evenodd"/><path fill="#000000" stroke="#000000" stroke-width="2.0" stroke-linecap="butt" d="m724.94824 360.88977l-2.2491455 2.2491455l6.1795044 -2.2491455l-6.1795044 -2.249176z" fill-rule="evenodd"/><path fill="#000000" fill-opacity="0.0" d="m731.809 360.88977c0 -14.507263 11.760437 -26.26773 26.2677 -26.26773c6.966614 0 13.647888 2.7674866 18.574097 7.693634c4.9261475 4.9261475 7.6936035 11.607452 7.6936035 18.574097c0 14.507263 -11.760437 26.2677 -26.2677 26.2677c-14.507263 0 -26.2677 -11.760437 -26.2677 -26.2677z" fill-rule="evenodd"/><path stroke="#000000" stroke-width="3.0" stroke-linejoin="round" stroke-linecap="butt" d="m731.809 360.88977c0 -14.507263 11.760437 -26.26773 26.2677 -26.26773c6.966614 0 13.647888 2.7674866 18.574097 7.693634c4.9261475 4.9261475 7.6936035 11.607452 7.6936035 18.574097c0 14.507263 -11.760437 26.2677 -26.2677 26.2677c-14.507263 0 -26.2677 -11.760437 -26.2677 -26.2677z" fill-rule="evenodd"/><path fill="#000000" d="m764.5869 354.07352q0 0.9375 -0.296875 1.90625q-0.296875 0.96875 -0.890625 1.8125q-0.59375 0.828125 -1.53125 1.46875q-0.9375 0.640625 -2.203125 0.96875l0 0.15625q1.125 0.1875 2.140625 0.640625q1.03125 0.4375 1.8125 1.21875q0.78125 0.78125 1.265625 1.90625q0.484375 1.125 0.484375 2.65625q0 2.015625 -0.84375 3.484375q-0.828125 1.46875 -2.203125 2.40625q-1.359375 0.9375 -3.109375 1.390625q-1.75 0.4375 -3.578125 0.4375q-0.640625 0 -1.5 0q-0.859375 0 -1.796875 -0.0625q-0.921875 -0.046875 -1.859375 -0.140625q-0.9375 -0.09375 -1.640625 -0.28125l0 -25.71875q1.375 -0.21875 3.203125 -0.359375q1.84375 -0.15625 4.0 -0.15625q1.453125 0 2.96875 0.25q1.515625 0.234375 2.734375 0.921875q1.234375 0.6875 2.03125 1.921875q0.8125 1.234375 0.8125 3.171875zm-8.65625 17.765625q1.1875 0 2.3125 -0.28125q1.125 -0.28125 1.984375 -0.890625q0.859375 -0.625 1.359375 -1.515625q0.5 -0.890625 0.5 -2.125q0 -1.53125 -0.625 -2.453125q-0.609375 -0.9375 -1.59375 -1.453125q-0.984375 -0.53125 -2.21875 -0.71875q-1.234375 -0.1875 -2.46875 -0.1875l-3.25 0l0 9.359375q0.265625 0.078125 0.75 0.125q0.484375 0.03125 1.046875 0.078125q0.5625 0.03125 1.15625 0.046875q0.59375 0.015625 1.046875 0.015625zm-2.046875 -12.234375q0.625 0 1.515625 -0.03125q0.90625 -0.046875 1.5 -0.125q0.890625 -0.296875 1.671875 -0.71875q0.796875 -0.4375 1.40625 -1.015625q0.625 -0.578125 0.96875 -1.34375q0.359375 -0.765625 0.359375 -1.65625q0 -1.234375 -0.46875 -2.03125q-0.46875 -0.8125 -1.25 -1.296875q-0.78125 -0.484375 -1.796875 -0.6875q-1.0 -0.203125 -2.046875 -0.203125q-1.234375 0 -2.265625 0.0625q-1.015625 0.046875 -1.546875 0.15625l0 8.890625l1.953125 0z" fill-rule="nonzero"/><path fill="#000000" fill-opacity="0.0" d="m661.73285 464.23096c0 -14.507233 11.760498 -26.2677 26.267761 -26.2677c6.966614 0 13.647888 2.7674866 18.574036 7.693634c4.9262085 4.9261475 7.6936646 11.607452 7.6936646 18.574066c0 14.507263 -11.760437 26.26773 -26.2677 26.26773c-14.507263 0 -26.267761 -11.760468 -26.267761 -26.26773z" fill-rule="evenodd"/><path stroke="#000000" stroke-width="3.0" stroke-linejoin="round" stroke-linecap="butt" d="m661.73285 464.23096c0 -14.507233 11.760498 -26.2677 26.267761 -26.2677c6.966614 0 13.647888 2.7674866 18.574036 7.693634c4.9262085 4.9261475 7.6936646 11.607452 7.6936646 18.574066c0 14.507263 -11.760437 26.26773 -26.2677 26.26773c-14.507263 0 -26.267761 -11.760468 -26.267761 -26.26773z" fill-rule="evenodd"/><path fill="#000000" d="m679.6567 451.44595l14.21875 0l0 2.75l-11.125 0l0 8.5625l10.203125 0l0 2.75l-10.203125 0l0 9.296875l11.3125 0l0 2.765625l-14.40625 0l0 -26.125z" fill-rule="nonzero"/><path fill="#000000" fill-opacity="0.0" d="m634.9434 379.46384l34.48822 66.20474" fill-rule="evenodd"/><path stroke="#000000" stroke-width="2.0" stroke-linejoin="round" stroke-linecap="butt" d="m634.9434 379.46384l31.321533 60.125885" fill-rule="evenodd"/><path fill="#000000" stroke="#000000" stroke-width="2.0" stroke-linecap="butt" d="m666.26495 439.58975l-3.0338135 -0.95562744l4.8496704 4.4413757l-0.8602295 -6.519623z" fill-rule="evenodd"/><path fill="#000000" fill-opacity="0.0" d="m739.5026 379.46384l-32.91339 66.20474" fill-rule="evenodd"/><path stroke="#000000" stroke-width="2.0" stroke-linejoin="round" stroke-linecap="butt" stroke-dasharray="8.0,6.0" d="m739.5026 379.46384l-32.91339 66.20474" fill-rule="evenodd"/><path fill="#000000" fill-opacity="0.0" d="m797.63574 464.23096c0 -14.507233 11.760498 -26.2677 26.267761 -26.2677c6.966614 0 13.647888 2.7674866 18.574036 7.693634c4.9261475 4.9261475 7.6936646 11.607452 7.6936646 18.574066c0 14.507263 -11.760437 26.26773 -26.2677 26.26773c-14.507263 0 -26.267761 -11.760468 -26.267761 -26.26773z" fill-rule="evenodd"/><path stroke="#000000" stroke-width="3.0" stroke-linejoin="round" stroke-linecap="butt" d="m797.63574 464.23096c0 -14.507233 11.760498 -26.2677 26.267761 -26.2677c6.966614 0 13.647888 2.7674866 18.574036 7.693634c4.9261475 4.9261475 7.6936646 11.607452 7.6936646 18.574066c0 14.507263 -11.760437 26.26773 -26.2677 26.26773c-14.507263 0 -26.267761 -11.760468 -26.267761 -26.26773z" fill-rule="evenodd"/><path fill="#000000" d="m815.9142 451.44595l14.21875 0l0 2.75l-11.125 0l0 8.921875l10.375 0l0 2.765625l-10.375 0l0 11.6875l-3.09375 0l0 -26.125z" fill-rule="nonzero"/><path fill="#000000" fill-opacity="0.0" d="m873.515 365.95538c0 -14.507263 11.760498 -26.26773 26.2677 -26.26773c6.966675 0 13.647949 2.7674866 18.574097 7.693634c4.9261475 4.926178 7.6936646 11.607452 7.6936646 18.574097c0 14.507263 -11.760498 26.2677 -26.267761 26.2677c-14.507202 0 -26.2677 -11.760437 -26.2677 -26.2677z" fill-rule="evenodd"/><path stroke="#000000" stroke-width="3.0" stroke-linejoin="round" stroke-linecap="butt" d="m873.515 365.95538c0 -14.507263 11.760498 -26.26773 26.2677 -26.26773c6.966675 0 13.647949 2.7674866 18.574097 7.693634c4.9261475 4.926178 7.6936646 11.607452 7.6936646 18.574097c0 14.507263 -11.760498 26.2677 -26.267761 26.2677c-14.507202 0 -26.2677 -11.760437 -26.2677 -26.2677z" fill-rule="evenodd"/><path fill="#000000" d="m907.50433 378.21725q-1.109375 0.859375 -2.828125 1.1875q-1.71875 0.34375 -3.65625 0.34375q-2.359375 0 -4.421875 -0.796875q-2.046875 -0.8125 -3.578125 -2.453125q-1.53125 -1.640625 -2.421875 -4.203125q-0.890625 -2.5625 -0.890625 -6.0625q0 -3.65625 0.984375 -6.21875q0.984375 -2.5625 2.609375 -4.171875q1.625 -1.625 3.640625 -2.375q2.015625 -0.75 4.109375 -0.75q2.234375 0 3.65625 0.25q1.421875 0.234375 2.421875 0.640625l-0.734375 2.734375q-1.796875 -0.859375 -5.125 -0.859375q-1.53125 0 -3.03125 0.5625q-1.484375 0.546875 -2.65625 1.828125q-1.171875 1.265625 -1.890625 3.328125q-0.703125 2.046875 -0.703125 5.03125q0 2.6875 0.671875 4.703125q0.671875 2.015625 1.84375 3.359375q1.1875 1.34375 2.765625 2.015625q1.59375 0.671875 3.453125 0.671875q1.6875 0 2.9375 -0.328125q1.25 -0.34375 2.109375 -0.875l0.734375 2.4375z" fill-rule="nonzero"/><path fill="#000000" fill-opacity="0.0" d="m516.40216 464.23096c0 -14.507233 11.760437 -26.2677 26.2677 -26.2677c6.966675 0 13.647949 2.7674866 18.574097 7.693634c4.9261475 4.9261475 7.6936646 11.607452 7.6936646 18.574066c0 14.507263 -11.760498 26.26773 -26.267761 26.26773c-14.507263 0 -26.2677 -11.760468 -26.2677 -26.26773z" fill-rule="evenodd"/><path stroke="#000000" stroke-width="3.0" stroke-linejoin="round" stroke-linecap="butt" d="m516.40216 464.23096c0 -14.507233 11.760437 -26.2677 26.2677 -26.2677c6.966675 0 13.647949 2.7674866 18.574097 7.693634c4.9261475 4.9261475 7.6936646 11.607452 7.6936646 18.574066c0 14.507263 -11.760498 26.26773 -26.267761 26.26773c-14.507263 0 -26.2677 -11.760468 -26.2677 -26.26773z" fill-rule="evenodd"/><path fill="#000000" d="m533.2441 451.44595q0.703125 -0.109375 1.578125 -0.171875q0.890625 -0.0625 1.84375 -0.078125q0.953125 -0.015625 1.859375 -0.03125q0.921875 -0.015625 1.703125 -0.015625q3.125 0 5.421875 0.96875q2.296875 0.96875 3.78125 2.703125q1.5 1.734375 2.234375 4.171875q0.734375 2.421875 0.734375 5.328125q0 2.65625 -0.703125 5.09375q-0.6875 2.4375 -2.1875 4.328125q-1.484375 1.890625 -3.875 3.03125q-2.390625 1.140625 -5.78125 1.140625q-0.59375 0 -1.546875 -0.03125q-0.953125 -0.015625 -1.96875 -0.078125q-1.0 -0.046875 -1.859375 -0.09375q-0.859375 -0.03125 -1.234375 -0.109375l0 -26.15625zm7.0625 2.453125q-0.484375 0 -1.078125 0q-0.578125 0 -1.140625 0.046875q-0.546875 0.03125 -1.015625 0.078125q-0.46875 0.03125 -0.734375 0.0625l0 20.90625q0.1875 0.046875 0.703125 0.0625q0.53125 0.015625 1.09375 0.03125q0.5625 0.015625 1.078125 0.046875q0.53125 0.015625 0.71875 0.015625q2.609375 0 4.375 -0.890625q1.78125 -0.90625 2.84375 -2.40625q1.0625 -1.515625 1.5 -3.46875q0.453125 -1.96875 0.453125 -4.0625q0 -1.828125 -0.40625 -3.671875q-0.40625 -1.859375 -1.421875 -3.34375q-1.0 -1.5 -2.703125 -2.453125q-1.703125 -0.953125 -4.265625 -0.953125z" fill-rule="nonzero"/><path fill="#000000" fill-opacity="0.0" d="m597.7953 379.46384l-36.566956 66.20474" fill-rule="evenodd"/><path stroke="#000000" stroke-width="2.0" stroke-linejoin="round" stroke-linecap="butt" d="m597.7953 379.46384l-33.25305 60.204895" fill-rule="evenodd"/><path fill="#000000" stroke="#000000" stroke-width="2.0" stroke-linecap="butt" d="m564.54224 439.66873l-0.8814087 -3.056244l-1.0188599 6.496704l4.956543 -4.3218384z" fill-rule="evenodd"/><path fill="#000000" fill-opacity="0.0" d="m714.2683 464.23096l83.370056 0" fill-rule="evenodd"/><path stroke="#000000" stroke-width="2.0" stroke-linejoin="round" stroke-linecap="butt" stroke-dasharray="8.0,6.0" d="m714.2683 464.23096l83.370056 0" fill-rule="evenodd"/><path fill="#000000" fill-opacity="0.0" d="m776.6508 379.46384l28.692871 66.20474" fill-rule="evenodd"/><path stroke="#000000" stroke-width="2.0" stroke-linejoin="round" stroke-linecap="butt" d="m776.65076 379.46384l25.967285 59.91577" fill-rule="evenodd"/><path fill="#000000" stroke="#000000" stroke-width="2.0" stroke-linecap="butt" d="m802.61804 439.3796l-2.9580688 -1.169281l4.520996 4.775543l-0.39361572 -6.564331z" fill-rule="evenodd"/><path fill="#000000" fill-opacity="0.0" d="m881.2087 384.52945l-38.740173 61.13388" fill-rule="evenodd"/><path stroke="#000000" stroke-width="4.0" stroke-linejoin="round" stroke-linecap="butt" d="m881.2087 384.52945l-38.740173 61.13388" fill-rule="evenodd"/><path fill="#000000" d="m856.21375 416.07782c0 -2.9136047 2.3619995 -5.2755737 5.2755737 -5.2755737c1.3991699 0 2.7410889 0.55581665 3.7304077 1.545166c0.9893799 0.9893799 1.545227 2.3312378 1.545227 3.7304077c0 2.9136353 -2.3619995 5.2756042 -5.275635 5.2756042c-2.9135742 0 -5.2755737 -2.361969 -5.2755737 -5.2756042z" fill-rule="evenodd"/><path stroke="#000000" stroke-width="1.0" stroke-linejoin="round" stroke-linecap="butt" d="m856.21375 416.07782c0 -2.9136047 2.3619995 -5.2755737 5.2755737 -5.2755737c1.3991699 0 2.7410889 0.55581665 3.7304077 1.545166c0.9893799 0.9893799 1.545227 2.3312378 1.545227 3.7304077c0 2.9136353 -2.3619995 5.2756042 -5.275635 5.2756042c-2.9135742 0 -5.2755737 -2.361969 -5.2755737 -5.2756042z" fill-rule="evenodd"/><path fill="#efefef" d="m1003.36084 487.85498c14.24762 29.300964 78.77478 31.097534 137.09717 33.8714c58.322388 2.7738647 161.99951 11.070435 212.83728 -17.228333c50.837646 -28.298798 98.0603 -121.49213 92.188965 -152.56433c-5.87146 -31.072174 -83.59631 -27.296143 -127.41736 -33.868744c-43.821045 -6.572632 -91.66016 -10.209534 -135.50916 -5.566925c-43.84912 4.642578 -97.71924 4.196411 -127.58533 33.422546c-29.86621 29.226166 -65.85919 112.63342 -51.611572 141.93439z" fill-rule="evenodd"/><path stroke="#000000" stroke-width="1.0" stroke-linejoin="round" stroke-linecap="butt" d="m1003.36084 487.85498c14.24762 29.300964 78.77478 31.097534 137.09717 33.8714c58.322388 2.7738647 161.99951 11.070435 212.83728 -17.228333c50.837646 -28.298798 98.0603 -121.49213 92.188965 -152.56433c-5.87146 -31.072174 -83.59631 -27.296143 -127.41736 -33.868744c-43.821045 -6.572632 -91.66016 -10.209534 -135.50916 -5.566925c-43.84912 4.642578 -97.71924 4.196411 -127.58533 33.422546c-29.86621 29.226166 -65.85919 112.63342 -51.611572 141.93439z" fill-rule="evenodd"/><path fill="#000000" fill-opacity="0.0" d="m1089.9127 369.39362c0 -14.507263 11.760376 -26.26773 26.2677 -26.26773c6.9665527 0 13.647949 2.7674866 18.574097 7.6936646c4.9261475 4.9261475 7.6936035 11.607422 7.6936035 18.574066c0 14.507263 -11.760498 26.26773 -26.2677 26.26773c-14.507324 0 -26.2677 -11.760468 -26.2677 -26.26773z" fill-rule="evenodd"/><path stroke="#000000" stroke-width="3.0" stroke-linejoin="round" stroke-linecap="butt" d="m1089.9127 369.39362c0 -14.507263 11.760376 -26.26773 26.2677 -26.26773c6.9665527 0 13.647949 2.7674866 18.574097 7.6936646c4.9261475 4.9261475 7.6936035 11.607422 7.6936035 18.574066c0 14.507263 -11.760498 26.26773 -26.2677 26.26773c-14.507324 0 -26.2677 -11.760468 -26.2677 -26.26773z" fill-rule="evenodd"/><path fill="#000000" d="m1119.3595 375.49924l-9.640625 0l-2.609375 7.234375l-3.0625 0l9.890625 -26.546875l1.421875 0l9.921875 26.546875l-3.234375 0l-2.6875 -7.234375zm-8.625 -2.6875l7.6875 0l-2.90625 -7.953125l-0.9375 -3.96875l-0.046875 0l-0.921875 4.03125l-2.875 7.890625z" fill-rule="nonzero"/><path fill="#000000" fill-opacity="0.0" d="m1142.4481 369.39362l89.16528 0" fill-rule="evenodd"/><path stroke="#000000" stroke-width="2.0" stroke-linejoin="round" stroke-linecap="butt" d="m1142.4481 369.39362l82.31116 0" fill-rule="evenodd"/><path fill="#000000" stroke="#000000" stroke-width="2.0" stroke-linecap="butt" d="m1224.7593 369.39362l-2.2491455 2.249176l6.1794434 -2.249176l-6.1794434 -2.249176z" fill-rule="evenodd"/><path fill="#000000" fill-opacity="0.0" d="m1231.62 369.39362c0 -14.507263 11.760498 -26.26773 26.2677 -26.26773c6.966675 0 13.647949 2.7674866 18.574097 7.6936646c4.9261475 4.9261475 7.6936035 11.607422 7.6936035 18.574066c0 14.507263 -11.760376 26.26773 -26.2677 26.26773c-14.507202 0 -26.2677 -11.760468 -26.2677 -26.26773z" fill-rule="evenodd"/><path stroke="#000000" stroke-width="3.0" stroke-linejoin="round" stroke-linecap="butt" d="m1231.62 369.39362c0 -14.507263 11.760498 -26.26773 26.2677 -26.26773c6.966675 0 13.647949 2.7674866 18.574097 7.6936646c4.9261475 4.9261475 7.6936035 11.607422 7.6936035 18.574066c0 14.507263 -11.760376 26.26773 -26.2677 26.26773c-14.507202 0 -26.2677 -11.760468 -26.2677 -26.26773z" fill-rule="evenodd"/><path fill="#000000" d="m1264.398 362.57736q0 0.9375 -0.296875 1.90625q-0.296875 0.96875 -0.890625 1.8125q-0.59375 0.828125 -1.53125 1.46875q-0.9375 0.640625 -2.203125 0.96875l0 0.15625q1.125 0.1875 2.140625 0.640625q1.03125 0.4375 1.8125 1.21875q0.78125 0.78125 1.265625 1.90625q0.484375 1.125 0.484375 2.65625q0 2.015625 -0.84375 3.484375q-0.828125 1.46875 -2.203125 2.40625q-1.359375 0.9375 -3.109375 1.390625q-1.75 0.4375 -3.578125 0.4375q-0.640625 0 -1.5 0q-0.859375 0 -1.796875 -0.0625q-0.921875 -0.046875 -1.859375 -0.140625q-0.9375 -0.09375 -1.640625 -0.28125l0 -25.71875q1.375 -0.21875 3.203125 -0.359375q1.84375 -0.15625 4.0 -0.15625q1.453125 0 2.96875 0.25q1.515625 0.234375 2.734375 0.921875q1.234375 0.6875 2.03125 1.921875q0.8125 1.234375 0.8125 3.171875zm-8.65625 17.765625q1.1875 0 2.3125 -0.28125q1.125 -0.28125 1.984375 -0.890625q0.859375 -0.625 1.359375 -1.515625q0.5 -0.890625 0.5 -2.125q0 -1.53125 -0.625 -2.453125q-0.609375 -0.9375 -1.59375 -1.453125q-0.984375 -0.53125 -2.21875 -0.71875q-1.234375 -0.1875 -2.46875 -0.1875l-3.25 0l0 9.359375q0.265625 0.078125 0.75 0.125q0.484375 0.03125 1.046875 0.078125q0.5625 0.03125 1.15625 0.046875q0.59375 0.015625 1.046875 0.015625zm-2.046875 -12.234375q0.625 0 1.515625 -0.03125q0.90625 -0.046875 1.5 -0.125q0.890625 -0.296875 1.671875 -0.71875q0.796875 -0.4375 1.40625 -1.015625q0.625 -0.578125 0.96875 -1.34375q0.359375 -0.765625 0.359375 -1.65625q0 -1.234375 -0.46875 -2.03125q-0.46875 -0.8125 -1.25 -1.296875q-0.78125 -0.484375 -1.796875 -0.6875q-1.0 -0.203125 -2.046875 -0.203125q-1.234375 0 -2.265625 0.0625q-1.015625 0.046875 -1.546875 0.15625l0 8.890625l1.953125 0z" fill-rule="nonzero"/><path fill="#000000" fill-opacity="0.0" d="m1161.544 472.73483c0 -14.507263 11.760376 -26.26773 26.2677 -26.26773c6.9665527 0 13.647949 2.7674866 18.574097 7.693634c4.9261475 4.9261475 7.6936035 11.607452 7.6936035 18.574097c0 14.507263 -11.760498 26.2677 -26.2677 26.2677c-14.507324 0 -26.2677 -11.760437 -26.2677 -26.2677z" fill-rule="evenodd"/><path stroke="#000000" stroke-width="3.0" stroke-linejoin="round" stroke-linecap="butt" d="m1161.544 472.73483c0 -14.507263 11.760376 -26.26773 26.2677 -26.26773c6.9665527 0 13.647949 2.7674866 18.574097 7.693634c4.9261475 4.9261475 7.6936035 11.607452 7.6936035 18.574097c0 14.507263 -11.760498 26.2677 -26.2677 26.2677c-14.507324 0 -26.2677 -11.760437 -26.2677 -26.2677z" fill-rule="evenodd"/><path fill="#000000" d="m1179.4678 459.94983l14.21875 0l0 2.75l-11.125 0l0 8.5625l10.203125 0l0 2.75l-10.203125 0l0 9.296875l11.3125 0l0 2.765625l-14.40625 0l0 -26.125z" fill-rule="nonzero"/><path fill="#000000" fill-opacity="0.0" d="m1134.7545 387.96768l34.48816 66.20474" fill-rule="evenodd"/><path stroke="#000000" stroke-width="2.0" stroke-linejoin="round" stroke-linecap="butt" d="m1134.7544 387.96768l31.321533 60.125916" fill-rule="evenodd"/><path fill="#000000" stroke="#000000" stroke-width="2.0" stroke-linecap="butt" d="m1166.0759 448.0936l-3.0338135 -0.95562744l4.8497314 4.4413757l-0.8602295 -6.519623z" fill-rule="evenodd"/><path fill="#000000" fill-opacity="0.0" d="m1239.3136 387.96768l-32.91333 66.20474" fill-rule="evenodd"/><path stroke="#000000" stroke-width="2.0" stroke-linejoin="round" stroke-linecap="butt" stroke-dasharray="8.0,6.0" d="m1239.3136 387.96768l-32.91333 66.20474" fill-rule="evenodd"/><path fill="#000000" fill-opacity="0.0" d="m1297.4468 472.73483c0 -14.507263 11.760498 -26.26773 26.2677 -26.26773c6.966675 0 13.647949 2.7674866 18.574097 7.693634c4.9261475 4.9261475 7.6936035 11.607452 7.6936035 18.574097c0 14.507263 -11.760376 26.2677 -26.2677 26.2677c-14.507202 0 -26.2677 -11.760437 -26.2677 -26.2677z" fill-rule="evenodd"/><path stroke="#000000" stroke-width="3.0" stroke-linejoin="round" stroke-linecap="butt" d="m1297.4468 472.73483c0 -14.507263 11.760498 -26.26773 26.2677 -26.26773c6.966675 0 13.647949 2.7674866 18.574097 7.693634c4.9261475 4.9261475 7.6936035 11.607452 7.6936035 18.574097c0 14.507263 -11.760376 26.2677 -26.2677 26.2677c-14.507202 0 -26.2677 -11.760437 -26.2677 -26.2677z" fill-rule="evenodd"/><path fill="#000000" d="m1315.7252 459.94983l14.21875 0l0 2.75l-11.125 0l0 8.921875l10.375 0l0 2.765625l-10.375 0l0 11.6875l-3.09375 0l0 -26.125z" fill-rule="nonzero"/><path fill="#000000" fill-opacity="0.0" d="m1373.326 374.45923c0 -14.507263 11.760498 -26.2677 26.2677 -26.2677c6.966675 0 13.647949 2.7674866 18.574097 7.693634c4.9261475 4.9261475 7.6936035 11.607452 7.6936035 18.574066c0 14.507263 -11.760376 26.26773 -26.2677 26.26773c-14.507202 0 -26.2677 -11.760468 -26.2677 -26.26773z" fill-rule="evenodd"/><path stroke="#000000" stroke-width="3.0" stroke-linejoin="round" stroke-linecap="butt" d="m1373.326 374.45923c0 -14.507263 11.760498 -26.2677 26.2677 -26.2677c6.966675 0 13.647949 2.7674866 18.574097 7.693634c4.9261475 4.9261475 7.6936035 11.607452 7.6936035 18.574066c0 14.507263 -11.760376 26.26773 -26.2677 26.26773c-14.507202 0 -26.2677 -11.760468 -26.2677 -26.26773z" fill-rule="evenodd"/><path fill="#000000" d="m1407.3154 386.7211q-1.109375 0.859375 -2.828125 1.1875q-1.71875 0.34375 -3.65625 0.34375q-2.359375 0 -4.421875 -0.796875q-2.046875 -0.8125 -3.578125 -2.453125q-1.53125 -1.640625 -2.421875 -4.203125q-0.890625 -2.5625 -0.890625 -6.0625q0 -3.65625 0.984375 -6.21875q0.984375 -2.5625 2.609375 -4.171875q1.625 -1.625 3.640625 -2.375q2.015625 -0.75 4.109375 -0.75q2.234375 0 3.65625 0.25q1.421875 0.234375 2.421875 0.640625l-0.734375 2.734375q-1.796875 -0.859375 -5.125 -0.859375q-1.53125 0 -3.03125 0.5625q-1.484375 0.546875 -2.65625 1.828125q-1.171875 1.265625 -1.890625 3.328125q-0.703125 2.046875 -0.703125 5.03125q0 2.6875 0.671875 4.703125q0.671875 2.015625 1.84375 3.359375q1.1875 1.34375 2.765625 2.015625q1.59375 0.671875 3.453125 0.671875q1.6875 0 2.9375 -0.328125q1.25 -0.34375 2.109375 -0.875l0.734375 2.4375z" fill-rule="nonzero"/><path fill="#000000" fill-opacity="0.0" d="m1016.2132 472.73483c0 -14.507263 11.760437 -26.26773 26.267761 -26.26773c6.9665527 0 13.647827 2.7674866 18.573975 7.693634c4.9261475 4.9261475 7.6937256 11.607452 7.6937256 18.574097c0 14.507263 -11.760498 26.2677 -26.2677 26.2677c-14.507324 0 -26.267761 -11.760437 -26.267761 -26.2677z" fill-rule="evenodd"/><path stroke="#000000" stroke-width="3.0" stroke-linejoin="round" stroke-linecap="butt" d="m1016.2132 472.73483c0 -14.507263 11.760437 -26.26773 26.267761 -26.26773c6.9665527 0 13.647827 2.7674866 18.573975 7.693634c4.9261475 4.9261475 7.6937256 11.607452 7.6937256 18.574097c0 14.507263 -11.760498 26.2677 -26.2677 26.2677c-14.507324 0 -26.267761 -11.760437 -26.267761 -26.2677z" fill-rule="evenodd"/><path fill="#000000" d="m1033.055 459.94983q0.703125 -0.109375 1.578125 -0.171875q0.890625 -0.0625 1.84375 -0.078125q0.953125 -0.015625 1.859375 -0.03125q0.921875 -0.015625 1.703125 -0.015625q3.125 0 5.421875 0.96875q2.296875 0.96875 3.78125 2.703125q1.5 1.734375 2.234375 4.171875q0.734375 2.421875 0.734375 5.328125q0 2.65625 -0.703125 5.09375q-0.6875 2.4375 -2.1875 4.328125q-1.484375 1.890625 -3.875 3.03125q-2.390625 1.140625 -5.78125 1.140625q-0.59375 0 -1.546875 -0.03125q-0.953125 -0.015625 -1.96875 -0.078125q-1.0 -0.046875 -1.859375 -0.09375q-0.859375 -0.03125 -1.234375 -0.109375l0 -26.15625zm7.0625 2.453125q-0.484375 0 -1.078125 0q-0.578125 0 -1.140625 0.046875q-0.546875 0.03125 -1.015625 0.078125q-0.46875 0.03125 -0.734375 0.0625l0 20.90625q0.1875 0.046875 0.703125 0.0625q0.53125 0.015625 1.09375 0.03125q0.5625 0.015625 1.078125 0.046875q0.53125 0.015625 0.71875 0.015625q2.609375 0 4.375 -0.890625q1.78125 -0.90625 2.84375 -2.40625q1.0625 -1.515625 1.5 -3.46875q0.453125 -1.96875 0.453125 -4.0625q0 -1.828125 -0.40625 -3.671875q-0.40625 -1.859375 -1.421875 -3.34375q-1.0 -1.5 -2.703125 -2.453125q-1.703125 -0.953125 -4.265625 -0.953125z" fill-rule="nonzero"/><path fill="#000000" fill-opacity="0.0" d="m1097.6063 387.96768l-36.566895 66.20474" fill-rule="evenodd"/><path stroke="#000000" stroke-width="2.0" stroke-linejoin="round" stroke-linecap="butt" d="m1097.6063 387.96768l-33.25305 60.204895" fill-rule="evenodd"/><path fill="#000000" stroke="#000000" stroke-width="2.0" stroke-linecap="butt" d="m1064.3533 448.17258l-0.88134766 -3.056244l-1.0189209 6.496704l4.956543 -4.3218384z" fill-rule="evenodd"/><path fill="#000000" fill-opacity="0.0" d="m1214.0793 472.73483l83.37012 0" fill-rule="evenodd"/><path stroke="#000000" stroke-width="2.0" stroke-linejoin="round" stroke-linecap="butt" stroke-dasharray="8.0,6.0" d="m1214.0793 472.73483l83.37012 0" fill-rule="evenodd"/><path fill="#000000" fill-opacity="0.0" d="m1276.4618 387.96768l28.692993 66.20474" fill-rule="evenodd"/><path stroke="#000000" stroke-width="2.0" stroke-linejoin="round" stroke-linecap="butt" d="m1276.4618 387.96768l25.967285 59.91577" fill-rule="evenodd"/><path fill="#000000" stroke="#000000" stroke-width="2.0" stroke-linecap="butt" d="m1302.4291 447.88345l-2.95813 -1.169281l4.521118 4.775543l-0.39367676 -6.564331z" fill-rule="evenodd"/><path fill="#000000" fill-opacity="0.0" d="m1342.2886 454.16074l38.740112 -61.13385" fill-rule="evenodd"/><path stroke="#000000" stroke-width="2.0" stroke-linejoin="round" stroke-linecap="butt" d="m1342.2886 454.16077l35.07129 -55.3443" fill-rule="evenodd"/><path fill="#000000" stroke="#000000" stroke-width="2.0" stroke-linecap="butt" d="m1377.3599 398.8165l0.69592285 3.1037292l1.4078369 -6.423645l-5.2075195 4.0158386z" fill-rule="evenodd"/></g></svg>