<svg version="1.1" viewBox="0.0 0.0 1758.3858267716535 552.2572178477691" fill="none" stroke="none" stroke-linecap="square" stroke-miterlimit="10" xmlns:xlink="http://www.w3.org/1999/xlink" xmlns="http://www.w3.org/2000/svg"><clipPath id="p.0"><path d="m0 0l1758.3859 0l0 552.2572l-1758.3859 0l0 -552.2572z" clip-rule="nonzero"/></clipPath><g clip-path="url(#p.0)"><path fill="#000000" fill-opacity="0.0" d="m0 0l1758.3859 0l0 552.2572l-1758.3859 0z" fill-rule="evenodd"/><path fill="#efefef" d="m953.9753 199.26753c-1.3806152 25.440948 20.707764 55.813644 43.782104 47.33333c23.074402 -8.480301 55.023254 -81.45143 94.664 -98.21521c39.64087 -16.763779 120.30359 10.648727 143.18115 -2.3674622c22.877563 -13.01619 14.791748 -60.74147 -5.9160156 -75.72966c-20.707764 -14.988186 -81.0564 -18.143917 -118.33069 -14.1994705c-37.274292 3.9444427 -79.08484 14.003059 -105.31494 37.866142c-26.230103 23.863075 -50.68506 79.87138 -52.065613 105.31233z" fill-rule="evenodd"/><path stroke="#000000" stroke-width="1.0" stroke-linejoin="round" stroke-linecap="butt" d="m953.9753 199.26753c-1.3806152 25.440948 20.707764 55.813644 43.782104 47.33333c23.074402 -8.480301 55.023254 -81.45143 94.664 -98.21521c39.64087 -16.763779 120.30359 10.648727 143.18115 -2.3674622c22.877563 -13.01619 14.791748 -60.74147 -5.9160156 -75.72966c-20.707764 -14.988186 -81.0564 -18.143917 -118.33069 -14.1994705c-37.274292 3.9444427 -79.08484 14.003059 -105.31494 37.866142c-26.230103 23.863075 -50.68506 79.87138 -52.065613 105.31233z" fill-rule="evenodd"/><path fill="#000000" fill-opacity="0.0" d="m1037.9124 107.71916c0 -14.507263 11.760376 -26.267715 26.2677 -26.267715c6.966675 0 13.647949 2.767479 18.574097 7.693634c4.9261475 4.926155 7.6936035 11.607445 7.6936035 18.574081c0 14.507256 -11.760498 26.267715 -26.2677 26.267715c-14.507324 0 -26.2677 -11.76046 -26.2677 -26.267715z" fill-rule="evenodd"/><path stroke="#000000" stroke-width="3.0" stroke-linejoin="round" stroke-linecap="butt" d="m1037.9124 107.71916c0 -14.507263 11.760376 -26.267715 26.2677 -26.267715c6.966675 0 13.647949 2.767479 18.574097 7.693634c4.9261475 4.926155 7.6936035 11.607445 7.6936035 18.574081c0 14.507256 -11.760498 26.267715 -26.2677 26.267715c-14.507324 0 -26.2677 -11.76046 -26.2677 -26.267715z" fill-rule="evenodd"/><path fill="#000000" d="m1067.3591 113.82478l-9.640625 0l-2.609375 7.234375l-3.0625 0l9.890625 -26.546875l1.421875 0l9.921875 26.546875l-3.234375 0l-2.6875 -7.234375zm-8.625 -2.6875l7.6875 0l-2.90625 -7.953125l-0.9375 -3.96875l-0.046875 0l-0.921875 4.03125l-2.875 7.890625z" fill-rule="nonzero"/><path fill="#000000" fill-opacity="0.0" d="m1179.6196 107.71916c0 -14.507263 11.760498 -26.267715 26.267822 -26.267715c6.9665527 0 13.647827 2.767479 18.573975 7.693634c4.9261475 4.926155 7.6937256 11.607445 7.6937256 18.574081c0 14.507256 -11.760498 26.267715 -26.2677 26.267715c-14.507324 0 -26.267822 -11.76046 -26.267822 -26.267715z" fill-rule="evenodd"/><path stroke="#000000" stroke-width="3.0" stroke-linejoin="round" stroke-linecap="butt" d="m1179.6196 107.71916c0 -14.507263 11.760498 -26.267715 26.267822 -26.267715c6.9665527 0 13.647827 2.767479 18.573975 7.693634c4.9261475 4.926155 7.6937256 11.607445 7.6937256 18.574081c0 14.507256 -11.760498 26.267715 -26.2677 26.267715c-14.507324 0 -26.267822 -11.76046 -26.267822 -26.267715z" fill-rule="evenodd"/><path fill="#000000" d="m1212.3976 100.90291q0 0.9375 -0.296875 1.90625q-0.296875 0.96875 -0.890625 1.8125q-0.59375 0.828125 -1.53125 1.46875q-0.9375 0.640625 -2.203125 0.96875l0 0.15625q1.125 0.1875 2.140625 0.640625q1.03125 0.4375 1.8125 1.21875q0.78125 0.78125 1.265625 1.90625q0.484375 1.125 0.484375 2.65625q0 2.015625 -0.84375 3.484375q-0.828125 1.46875 -2.203125 2.40625q-1.359375 0.9375 -3.109375 1.390625q-1.75 0.4375 -3.578125 0.4375q-0.640625 0 -1.5 0q-0.859375 0 -1.796875 -0.0625q-0.921875 -0.046875 -1.859375 -0.140625q-0.9375 -0.09375 -1.640625 -0.28125l0 -25.71875q1.375 -0.21875 3.203125 -0.359375q1.84375 -0.15625 4.0 -0.15625q1.453125 0 2.96875 0.25q1.515625 0.234375 2.734375 0.921875q1.234375 0.6875 2.03125 1.921875q0.8125 1.234375 0.8125 3.171875zm-8.65625 17.765625q1.1875 0 2.3125 -0.28125q1.125 -0.28125 1.984375 -0.890625q0.859375 -0.625 1.359375 -1.515625q0.5 -0.890625 0.5 -2.125q0 -1.53125 -0.625 -2.453125q-0.609375 -0.9375 -1.59375 -1.453125q-0.984375 -0.53125 -2.21875 -0.71875q-1.234375 -0.1875 -2.46875 -0.1875l-3.25 0l0 9.359375q0.265625 0.078125 0.75 0.125q0.484375 0.03125 1.046875 0.078125q0.5625 0.03125 1.15625 0.046875q0.59375 0.015625 1.046875 0.015625zm-2.046875 -12.234375q0.625 0 1.515625 -0.03125q0.90625 -0.046875 1.5 -0.125q0.890625 -0.296875 1.671875 -0.71875q0.796875 -0.4375 1.40625 -1.015625q0.625 -0.578125 0.96875 -1.34375q0.359375 -0.765625 0.359375 -1.65625q0 -1.234375 -0.46875 -2.03125q-0.46875 -0.8125 -1.25 -1.296875q-0.78125 -0.484375 -1.796875 -0.6875q-1.0 -0.203125 -2.046875 -0.203125q-1.234375 0 -2.265625 0.0625q-1.015625 0.046875 -1.546875 0.15625l0 8.890625l1.953125 0z" fill-rule="nonzero"/><path fill="#000000" fill-opacity="0.0" d="m1109.5436 211.06036c0 -14.507263 11.760498 -26.267715 26.2677 -26.267715c6.966675 0 13.647949 2.7674866 18.574097 7.693634c4.9261475 4.9261627 7.6936035 11.607452 7.6936035 18.574081c0 14.507263 -11.760498 26.267715 -26.2677 26.267715c-14.507202 0 -26.2677 -11.760452 -26.2677 -26.267715z" fill-rule="evenodd"/><path stroke="#000000" stroke-width="3.0" stroke-linejoin="round" stroke-linecap="butt" d="m1109.5436 211.06036c0 -14.507263 11.760498 -26.267715 26.2677 -26.267715c6.966675 0 13.647949 2.7674866 18.574097 7.693634c4.9261475 4.9261627 7.6936035 11.607452 7.6936035 18.574081c0 14.507263 -11.760498 26.267715 -26.2677 26.267715c-14.507202 0 -26.2677 -11.760452 -26.2677 -26.267715z" fill-rule="evenodd"/><path fill="#000000" d="m1127.4674 198.27536l14.21875 0l0 2.75l-11.125 0l0 8.5625l10.203125 0l0 2.75l-10.203125 0l0 9.296875l11.3125 0l0 2.765625l-14.40625 0l0 -26.125z" fill-rule="nonzero"/><path fill="#000000" fill-opacity="0.0" d="m1187.3134 126.29324l-32.913452 66.20473" fill-rule="evenodd"/><path stroke="#000000" stroke-width="4.0" stroke-linejoin="round" stroke-linecap="butt" d="m1187.3134 126.29324l-32.913452 66.20473" fill-rule="evenodd"/><path fill="#000000" fill-opacity="0.0" d="m1245.4464 211.06036c0 -14.507263 11.760498 -26.267715 26.2677 -26.267715c6.966675 0 13.647949 2.7674866 18.574097 7.693634c4.9261475 4.9261627 7.6937256 11.607452 7.6937256 18.574081c0 14.507263 -11.760498 26.267715 -26.267822 26.267715c-14.507202 0 -26.2677 -11.760452 -26.2677 -26.267715z" fill-rule="evenodd"/><path stroke="#000000" stroke-width="3.0" stroke-linejoin="round" stroke-linecap="butt" d="m1245.4464 211.06036c0 -14.507263 11.760498 -26.267715 26.2677 -26.267715c6.966675 0 13.647949 2.7674866 18.574097 7.693634c4.9261475 4.9261627 7.6937256 11.607452 7.6937256 18.574081c0 14.507263 -11.760498 26.267715 -26.267822 26.267715c-14.507202 0 -26.2677 -11.760452 -26.2677 -26.267715z" fill-rule="evenodd"/><path fill="#000000" d="m1263.7249 198.27536l14.21875 0l0 2.75l-11.125 0l0 8.921875l10.375 0l0 2.765625l-10.375 0l0 11.6875l-3.09375 0l0 -26.125z" fill-rule="nonzero"/><path fill="#000000" fill-opacity="0.0" d="m1321.3257 112.784775c0 -14.507256 11.760498 -26.267715 26.2677 -26.267715c6.966675 0 13.647949 2.7674866 18.574097 7.693634c4.9261475 4.926155 7.6937256 11.607452 7.6937256 18.574081c0 14.507263 -11.760498 26.267715 -26.267822 26.267715c-14.507202 0 -26.2677 -11.760452 -26.2677 -26.267715z" fill-rule="evenodd"/><path stroke="#000000" stroke-width="3.0" stroke-linejoin="round" stroke-linecap="butt" d="m1321.3257 112.784775c0 -14.507256 11.760498 -26.267715 26.2677 -26.267715c6.966675 0 13.647949 2.7674866 18.574097 7.693634c4.9261475 4.926155 7.6937256 11.607452 7.6937256 18.574081c0 14.507263 -11.760498 26.267715 -26.267822 26.267715c-14.507202 0 -26.2677 -11.760452 -26.2677 -26.267715z" fill-rule="evenodd"/><path fill="#000000" d="m1355.3151 125.046646q-1.109375 0.859375 -2.828125 1.1875q-1.71875 0.34375 -3.65625 0.34375q-2.359375 0 -4.421875 -0.796875q-2.046875 -0.8125 -3.578125 -2.453125q-1.53125 -1.640625 -2.421875 -4.203125q-0.890625 -2.5625 -0.890625 -6.0625q0 -3.65625 0.984375 -6.21875q0.984375 -2.5625 2.609375 -4.171875q1.625 -1.625 3.640625 -2.375q2.015625 -0.75 4.109375 -0.75q2.234375 0 3.65625 0.25q1.421875 0.234375 2.421875 0.640625l-0.734375 2.734375q-1.796875 -0.859375 -5.125 -0.859375q-1.53125 0 -3.03125 0.5625q-1.484375 0.546875 -2.65625 1.828125q-1.171875 1.265625 -1.890625 3.328125q-0.703125 2.046875 -0.703125 5.03125q0 2.6875 0.671875 4.703125q0.671875 2.015625 1.84375 3.359375q1.1875 1.34375 2.765625 2.015625q1.59375 0.671875 3.453125 0.671875q1.6875 0 2.9375 -0.328125q1.25 -0.34375 2.109375 -0.875l0.734375 2.4375z" fill-rule="nonzero"/><path fill="#000000" fill-opacity="0.0" d="m964.2128 211.06036c0 -14.507263 11.760498 -26.267715 26.267761 -26.267715c6.966614 0 13.647888 2.7674866 18.574036 7.693634c4.9261475 4.9261627 7.6936646 11.607452 7.6936646 18.574081c0 14.507263 -11.760437 26.267715 -26.2677 26.267715c-14.507263 0 -26.267761 -11.760452 -26.267761 -26.267715z" fill-rule="evenodd"/><path stroke="#000000" stroke-width="3.0" stroke-linejoin="round" stroke-linecap="butt" d="m964.2128 211.06036c0 -14.507263 11.760498 -26.267715 26.267761 -26.267715c6.966614 0 13.647888 2.7674866 18.574036 7.693634c4.9261475 4.9261627 7.6936646 11.607452 7.6936646 18.574081c0 14.507263 -11.760437 26.267715 -26.2677 26.267715c-14.507263 0 -26.267761 -11.760452 -26.267761 -26.267715z" fill-rule="evenodd"/><path fill="#000000" d="m981.05475 198.27536q0.703125 -0.109375 1.578125 -0.171875q0.890625 -0.0625 1.84375 -0.078125q0.953125 -0.015625 1.859375 -0.03125q0.921875 -0.015625 1.703125 -0.015625q3.125 0 5.421875 0.96875q2.296875 0.96875 3.78125 2.703125q1.5 1.734375 2.234375 4.171875q0.734375 2.421875 0.734375 5.328125q0 2.65625 -0.703125 5.09375q-0.6875 2.4375 -2.1875 4.328125q-1.484375 1.890625 -3.875 3.03125q-2.390625 1.140625 -5.78125 1.140625q-0.59375 0 -1.546875 -0.03125q-0.953125 -0.015625 -1.96875 -0.078125q-1.0 -0.046875 -1.859375 -0.09375q-0.859375 -0.03125 -1.234375 -0.109375l0 -26.15625zm7.0625 2.453125q-0.484375 0 -1.078125 0q-0.578125 0 -1.140625 0.046875q-0.546875 0.03125 -1.015625 0.078125q-0.46875 0.03125 -0.734375 0.0625l0 20.90625q0.1875 0.046875 0.703125 0.0625q0.53125 0.015625 1.09375 0.03125q0.5625 0.015625 1.078125 0.046875q0.53125 0.015625 0.71875 0.015625q2.609375 0 4.375 -0.890625q1.78125 -0.90625 2.84375 -2.40625q1.0625 -1.515625 1.5 -3.46875q0.453125 -1.96875 0.453125 -4.0625q0 -1.828125 -0.40625 -3.671875q-0.40625 -1.859375 -1.421875 -3.34375q-1.0 -1.5 -2.703125 -2.453125q-1.703125 -0.953125 -4.265625 -0.953125z" fill-rule="nonzero"/><path fill="#000000" fill-opacity="0.0" d="m1045.606 126.29324l-36.566895 66.20473" fill-rule="evenodd"/><path stroke="#000000" stroke-width="2.0" stroke-linejoin="round" stroke-linecap="butt" d="m1045.606 126.29324l-33.25299 60.20491" fill-rule="evenodd"/><path fill="#000000" stroke="#000000" stroke-width="2.0" stroke-linecap="butt" d="m1012.3529 186.49815l-0.88134766 -3.0562592l-1.0189209 6.4967194l4.956543 -4.3218384z" fill-rule="evenodd"/><path fill="#000000" fill-opacity="0.0" d="m1162.079 211.06036l83.37012 0" fill-rule="evenodd"/><path stroke="#000000" stroke-width="2.0" stroke-linejoin="round" stroke-linecap="butt" stroke-dasharray="8.0,6.0" d="m1162.079 211.06036l83.37012 0" fill-rule="evenodd"/><path fill="#000000" fill-opacity="0.0" d="m1224.4614 126.29324l28.692993 66.20473" fill-rule="evenodd"/><path stroke="#000000" stroke-width="4.0" stroke-linejoin="round" stroke-linecap="butt" d="m1224.4614 126.29324l28.692993 66.20473" fill-rule="evenodd"/><path fill="#000000" fill-opacity="0.0" d="m1329.0194 131.35886l-38.740234 61.133865" fill-rule="evenodd"/><path stroke="#000000" stroke-width="2.0" stroke-linejoin="round" stroke-linecap="butt" stroke-dasharray="8.0,6.0" d="m1329.0194 131.35886l-38.740234 61.133865" fill-rule="evenodd"/><path fill="#efefef" d="m79.3298 72.79531c-1.9685059 14.698166 2.1412964 44.849083 14.223099 55.078743c12.081802 10.22966 45.02144 12.5 58.267715 6.2992096c13.246277 -6.200783 18.454071 -30.90551 21.209976 -43.503937c2.7559052 -12.598427 -0.33377075 -23.592735 -4.6745453 -32.086613c-4.3407745 -8.493874 -10.871399 -15.727032 -21.370071 -18.87664c-10.498688 -3.1496048 -30.346024 -5.5358696 -41.622055 -0.020996094c-11.2760315 5.5148735 -24.065613 18.412071 -26.034119 33.110233z" fill-rule="evenodd"/><path stroke="#000000" stroke-width="1.0" stroke-linejoin="round" stroke-linecap="butt" d="m79.3298 72.79531c-1.9685059 14.698166 2.1412964 44.849083 14.223099 55.078743c12.081802 10.22966 45.02144 12.5 58.267715 6.2992096c13.246277 -6.200783 18.454071 -30.90551 21.209976 -43.503937c2.7559052 -12.598427 -0.33377075 -23.592735 -4.6745453 -32.086613c-4.3407745 -8.493874 -10.871399 -15.727032 -21.370071 -18.87664c-10.498688 -3.1496048 -30.346024 -5.5358696 -41.622055 -0.020996094c-11.2760315 5.5148735 -24.065613 18.412071 -26.034119 33.110233z" fill-rule="evenodd"/><path fill="#000000" fill-opacity="0.0" d="m98.119675 89.65879c0 -14.507256 11.76046 -26.267715 26.267715 -26.267715c6.966629 0 13.647934 2.7674866 18.574081 7.693634c4.9261475 4.926155 7.693634 11.607452 7.693634 18.574081c0 14.507263 -11.760452 26.267715 -26.267715 26.267715c-14.507256 0 -26.267715 -11.760452 -26.267715 -26.267715z" fill-rule="evenodd"/><path stroke="#000000" stroke-width="3.0" stroke-linejoin="round" stroke-linecap="butt" d="m98.119675 89.65879c0 -14.507256 11.76046 -26.267715 26.267715 -26.267715c6.966629 0 13.647934 2.7674866 18.574081 7.693634c4.9261475 4.926155 7.693634 11.607452 7.693634 18.574081c0 14.507263 -11.760452 26.267715 -26.267715 26.267715c-14.507256 0 -26.267715 -11.760452 -26.267715 -26.267715z" fill-rule="evenodd"/><path fill="#000000" d="m127.56646 95.76441l-9.640625 0l-2.609375 7.234375l-3.0625 0l9.890625 -26.546875l1.421875 0l9.921867 26.546875l-3.234375 0l-2.6874924 -7.234375zm-8.625 -2.6875l7.6875 0l-2.90625 -7.953125l-0.9375 -3.96875l-0.046875 0l-0.921875 4.03125l-2.875 7.890625z" fill-rule="nonzero"/><path fill="#000000" fill-opacity="0.0" d="m150.6551 89.65879l89.16536 0" fill-rule="evenodd"/><path stroke="#000000" stroke-width="4.0" stroke-linejoin="round" stroke-linecap="butt" d="m150.6551 89.65879l89.16536 0" fill-rule="evenodd"/><path fill="#000000" fill-opacity="0.0" d="m239.82703 89.65879c0 -14.507256 11.760452 -26.267715 26.2677 -26.267715c6.9666443 0 13.647949 2.7674866 18.574097 7.693634c4.9261475 4.926155 7.693634 11.607452 7.693634 18.574081c0 14.507263 -11.760468 26.267715 -26.26773 26.267715c-14.507248 0 -26.2677 -11.760452 -26.2677 -26.267715z" fill-rule="evenodd"/><path stroke="#000000" stroke-width="3.0" stroke-linejoin="round" stroke-linecap="butt" d="m239.82703 89.65879c0 -14.507256 11.760452 -26.267715 26.2677 -26.267715c6.9666443 0 13.647949 2.7674866 18.574097 7.693634c4.9261475 4.926155 7.693634 11.607452 7.693634 18.574081c0 14.507263 -11.760468 26.267715 -26.26773 26.267715c-14.507248 0 -26.2677 -11.760452 -26.2677 -26.267715z" fill-rule="evenodd"/><path fill="#000000" d="m272.60498 82.84254q0 0.9375 -0.296875 1.90625q-0.296875 0.96875 -0.890625 1.8125q-0.59375 0.828125 -1.53125 1.46875q-0.9375 0.640625 -2.203125 0.96875l0 0.15625q1.125 0.1875 2.140625 0.640625q1.03125 0.4375 1.8125 1.21875q0.78125 0.78125 1.265625 1.90625q0.484375 1.125 0.484375 2.65625q0 2.015625 -0.84375 3.484375q-0.828125 1.46875 -2.203125 2.40625q-1.359375 0.9375 -3.109375 1.390625q-1.75 0.4375 -3.578125 0.4375q-0.640625 0 -1.5 0q-0.859375 0 -1.796875 -0.0625q-0.921875 -0.046875 -1.859375 -0.140625q-0.9375 -0.09375 -1.640625 -0.28125l0 -25.71875q1.375 -0.21875 3.203125 -0.359375q1.84375 -0.15625 4.0 -0.15625q1.453125 0 2.96875 0.25q1.515625 0.234375 2.734375 0.921875q1.234375 0.6875 2.03125 1.921875q0.8125 1.234375 0.8125 3.171875zm-8.65625 17.765625q1.1875 0 2.3125 -0.28125q1.125 -0.28125 1.984375 -0.890625q0.859375 -0.625 1.359375 -1.515625q0.5 -0.890625 0.5 -2.125q0 -1.53125 -0.625 -2.453125q-0.609375 -0.9375 -1.59375 -1.453125q-0.984375 -0.53125 -2.21875 -0.71875q-1.234375 -0.1875 -2.46875 -0.1875l-3.25 0l0 9.359375q0.265625 0.078125 0.75 0.125q0.484375 0.03125 1.046875 0.078125q0.5625 0.03125 1.15625 0.046875q0.59375 0.015625 1.046875 0.015625zm-2.046875 -12.234375q0.625 0 1.515625 -0.03125q0.90625 -0.046875 1.5 -0.125q0.890625 -0.296875 1.671875 -0.71875q0.796875 -0.4375 1.40625 -1.015625q0.625 -0.578125 0.96875 -1.34375q0.359375 -0.765625 0.359375 -1.65625q0 -1.234375 -0.46875 -2.03125q-0.46875 -0.8125 -1.25 -1.296875q-0.78125 -0.484375 -1.796875 -0.6875q-1.0 -0.203125 -2.046875 -0.203125q-1.234375 0 -2.265625 0.0625q-1.015625 0.046875 -1.546875 0.15625l0 8.890625l1.953125 0z" fill-rule="nonzero"/><path fill="#000000" fill-opacity="0.0" d="m169.75092 193.0c0 -14.507263 11.760452 -26.267715 26.267715 -26.267715c6.966629 0 13.647919 2.7674866 18.574081 7.693634c4.9261475 4.9261475 7.693634 11.607452 7.693634 18.574081c0 14.507263 -11.760468 26.267715 -26.267715 26.267715c-14.507263 0 -26.267715 -11.760452 -26.267715 -26.267715z" fill-rule="evenodd"/><path stroke="#000000" stroke-width="3.0" stroke-linejoin="round" stroke-linecap="butt" d="m169.75092 193.0c0 -14.507263 11.760452 -26.267715 26.267715 -26.267715c6.966629 0 13.647919 2.7674866 18.574081 7.693634c4.9261475 4.9261475 7.693634 11.607452 7.693634 18.574081c0 14.507263 -11.760468 26.267715 -26.267715 26.267715c-14.507263 0 -26.267715 -11.760452 -26.267715 -26.267715z" fill-rule="evenodd"/><path fill="#000000" d="m187.67473 180.215l14.21875 0l0 2.75l-11.125 0l0 8.5625l10.203125 0l0 2.75l-10.203125 0l0 9.296875l11.3125 0l0 2.765625l-14.40625 0l0 -26.125z" fill-rule="nonzero"/><path fill="#000000" fill-opacity="0.0" d="m142.96147 108.23287l34.48819 66.20472" fill-rule="evenodd"/><path stroke="#000000" stroke-width="4.0" stroke-linejoin="round" stroke-linecap="butt" d="m142.96147 108.23287l34.48819 66.20472" fill-rule="evenodd"/><path fill="#000000" fill-opacity="0.0" d="m247.52066 108.23287l-32.91339 66.20472" fill-rule="evenodd"/><path stroke="#000000" stroke-width="2.0" stroke-linejoin="round" stroke-linecap="butt" stroke-dasharray="8.0,6.0" d="m247.52066 108.23287l-32.91339 66.20472" fill-rule="evenodd"/><path fill="#000000" fill-opacity="0.0" d="m305.6538 193.0c0 -14.507263 11.760437 -26.267715 26.2677 -26.267715c6.9666443 0 13.647919 2.7674866 18.574097 7.693634c4.9261475 4.9261475 7.693634 11.607452 7.693634 18.574081c0 14.507263 -11.760468 26.267715 -26.26773 26.267715c-14.507263 0 -26.2677 -11.760452 -26.2677 -26.267715z" fill-rule="evenodd"/><path stroke="#000000" stroke-width="3.0" stroke-linejoin="round" stroke-linecap="butt" d="m305.6538 193.0c0 -14.507263 11.760437 -26.267715 26.2677 -26.267715c6.9666443 0 13.647919 2.7674866 18.574097 7.693634c4.9261475 4.9261475 7.693634 11.607452 7.693634 18.574081c0 14.507263 -11.760468 26.267715 -26.26773 26.267715c-14.507263 0 -26.2677 -11.760452 -26.2677 -26.267715z" fill-rule="evenodd"/><path fill="#000000" d="m323.93222 180.215l14.21875 0l0 2.75l-11.125 0l0 8.921875l10.375 0l0 2.765625l-10.375 0l0 11.6875l-3.09375 0l0 -26.125z" fill-rule="nonzero"/><path fill="#000000" fill-opacity="0.0" d="m381.53305 94.72441c0 -14.507263 11.760468 -26.267715 26.26773 -26.267715c6.966614 0 13.647919 2.767479 18.574066 7.693634c4.926178 4.926155 7.693634 11.607445 7.693634 18.574081c0 14.507256 -11.760437 26.267715 -26.2677 26.267715c-14.507263 0 -26.26773 -11.76046 -26.26773 -26.267715z" fill-rule="evenodd"/><path stroke="#000000" stroke-width="3.0" stroke-linejoin="round" stroke-linecap="butt" d="m381.53305 94.72441c0 -14.507263 11.760468 -26.267715 26.26773 -26.267715c6.966614 0 13.647919 2.767479 18.574066 7.693634c4.926178 4.926155 7.693634 11.607445 7.693634 18.574081c0 14.507256 -11.760437 26.267715 -26.2677 26.267715c-14.507263 0 -26.26773 -11.76046 -26.26773 -26.267715z" fill-rule="evenodd"/><path fill="#000000" d="m415.5224 106.98628q-1.109375 0.859375 -2.828125 1.1875q-1.71875 0.34375 -3.65625 0.34375q-2.359375 0 -4.421875 -0.796875q-2.046875 -0.8125 -3.578125 -2.453125q-1.53125 -1.640625 -2.421875 -4.203125q-0.890625 -2.5625 -0.890625 -6.0625q0 -3.65625 0.984375 -6.21875q0.984375 -2.5625 2.609375 -4.171875q1.625 -1.625 3.640625 -2.375q2.015625 -0.75 4.109375 -0.75q2.234375 0 3.65625 0.25q1.421875 0.234375 2.421875 0.640625l-0.734375 2.734375q-1.796875 -0.859375 -5.125 -0.859375q-1.53125 0 -3.03125 0.5625q-1.484375 0.546875 -2.65625 1.828125q-1.171875 1.265625 -1.890625 3.328125q-0.703125 2.046875 -0.703125 5.03125q0 2.6875 0.671875 4.703125q0.671875 2.015625 1.84375 3.359375q1.1875 1.34375 2.765625 2.015625q1.59375 0.671875 3.453125 0.671875q1.6875 0 2.9375 -0.328125q1.25 -0.34375 2.109375 -0.875l0.734375 2.4375z" fill-rule="nonzero"/><path fill="#000000" fill-opacity="0.0" d="m24.4202 193.0c0 -14.507263 11.760456 -26.267715 26.267715 -26.267715c6.966633 0 13.64793 2.7674866 18.574085 7.693634c4.9261475 4.9261475 7.693634 11.607452 7.693634 18.574081c0 14.507263 -11.76046 26.267715 -26.26772 26.267715c-14.507259 0 -26.267715 -11.760452 -26.267715 -26.267715z" fill-rule="evenodd"/><path stroke="#000000" stroke-width="3.0" stroke-linejoin="round" stroke-linecap="butt" d="m24.4202 193.0c0 -14.507263 11.760456 -26.267715 26.267715 -26.267715c6.966633 0 13.64793 2.7674866 18.574085 7.693634c4.9261475 4.9261475 7.693634 11.607452 7.693634 18.574081c0 14.507263 -11.76046 26.267715 -26.26772 26.267715c-14.507259 0 -26.267715 -11.760452 -26.267715 -26.267715z" fill-rule="evenodd"/><path fill="#000000" d="m41.26211 180.215q0.703125 -0.109375 1.578125 -0.171875q0.890625 -0.0625 1.84375 -0.078125q0.953125 -0.015625 1.859375 -0.03125q0.921875 -0.015625 1.703125 -0.015625q3.125 0 5.421875 0.96875q2.296875 0.96875 3.78125 2.703125q1.5 1.734375 2.234375 4.171875q0.734375 2.421875 0.734375 5.328125q0 2.65625 -0.703125 5.09375q-0.6875 2.4375 -2.1875 4.328125q-1.484375 1.890625 -3.875 3.03125q-2.390625 1.140625 -5.78125 1.140625q-0.59375 0 -1.546875 -0.03125q-0.953125 -0.015625 -1.96875 -0.078125q-1.0 -0.046875 -1.859375 -0.09375q-0.859375 -0.03125 -1.234375 -0.109375l0 -26.15625zm7.0625 2.453125q-0.484375 0 -1.078125 0q-0.578125 0 -1.140625 0.046875q-0.546875 0.03125 -1.015625 0.078125q-0.46875 0.03125 -0.734375 0.0625l0 20.90625q0.1875 0.046875 0.703125 0.0625q0.53125 0.015625 1.09375 0.03125q0.5625 0.015625 1.078125 0.046875q0.53125 0.015625 0.71875 0.015625q2.609375 0 4.375 -0.890625q1.78125 -0.90625 2.84375 -2.40625q1.0625 -1.515625 1.5 -3.46875q0.453125 -1.96875 0.453125 -4.0625q0 -1.828125 -0.40625 -3.671875q-0.40625 -1.859375 -1.421875 -3.34375q-1.0 -1.5 -2.703125 -2.453125q-1.703125 -0.953125 -4.265625 -0.953125z" fill-rule="nonzero"/><path fill="#000000" fill-opacity="0.0" d="m105.81331 108.23287l-36.566925 66.20472" fill-rule="evenodd"/><path stroke="#000000" stroke-width="4.0" stroke-linejoin="round" stroke-linecap="butt" d="m105.81331 108.23287l-36.566925 66.20472" fill-rule="evenodd"/><path fill="#000000" fill-opacity="0.0" d="m222.28635 193.0l83.37009 0" fill-rule="evenodd"/><path stroke="#000000" stroke-width="2.0" stroke-linejoin="round" stroke-linecap="butt" stroke-dasharray="8.0,6.0" d="m222.28635 193.0l83.37009 0" fill-rule="evenodd"/><path fill="#000000" fill-opacity="0.0" d="m284.66882 108.23287l28.692902 66.20472" fill-rule="evenodd"/><path stroke="#000000" stroke-width="2.0" stroke-linejoin="round" stroke-linecap="butt" stroke-dasharray="8.0,6.0" d="m284.66882 108.23287l28.692902 66.20472" fill-rule="evenodd"/><path fill="#000000" fill-opacity="0.0" d="m389.22668 113.29849l-38.740143 61.13385" fill-rule="evenodd"/><path stroke="#000000" stroke-width="2.0" stroke-linejoin="round" stroke-linecap="butt" stroke-dasharray="8.0,6.0" d="m389.22668 113.29849l-38.740143 61.13385" fill-rule="evenodd"/><path fill="#efefef" d="m538.63727 112.886345c-0.9383545 13.643921 12.030579 30.569115 30.766357 37.866142c18.735779 7.2970276 51.868347 7.296585 81.648315 5.9160156c29.779968 -1.3805847 75.92914 -4.5358734 97.031494 -14.199478c21.102356 -9.663605 32.34381 -30.56868 29.582703 -43.78215c-2.7611694 -13.21347 -12.377563 -30.532372 -46.14966 -35.498688c-33.772095 -4.966316 -124.336365 -2.582241 -156.48291 5.700783c-32.146545 8.283028 -35.458008 30.353462 -36.3963 43.997375z" fill-rule="evenodd"/><path stroke="#000000" stroke-width="1.0" stroke-linejoin="round" stroke-linecap="butt" d="m538.63727 112.886345c-0.9383545 13.643921 12.030579 30.569115 30.766357 37.866142c18.735779 7.2970276 51.868347 7.296585 81.648315 5.9160156c29.779968 -1.3805847 75.92914 -4.5358734 97.031494 -14.199478c21.102356 -9.663605 32.34381 -30.56868 29.582703 -43.78215c-2.7611694 -13.21347 -12.377563 -30.532372 -46.14966 -35.498688c-33.772095 -4.966316 -124.336365 -2.582241 -156.48291 5.700783c-32.146545 8.283028 -35.458008 30.353462 -36.3963 43.997375z" fill-rule="evenodd"/><path fill="#000000" fill-opacity="0.0" d="m560.09344 105.698166c0 -14.507263 11.760437 -26.267723 26.2677 -26.267723c6.966614 0 13.647949 2.7674866 18.574097 7.6936417c4.9261475 4.9261475 7.6936035 11.607445 7.6936035 18.574081c0 14.507256 -11.760437 26.267715 -26.2677 26.267715c-14.507263 0 -26.2677 -11.76046 -26.2677 -26.267715z" fill-rule="evenodd"/><path stroke="#000000" stroke-width="3.0" stroke-linejoin="round" stroke-linecap="butt" d="m560.09344 105.698166c0 -14.507263 11.760437 -26.267723 26.2677 -26.267723c6.966614 0 13.647949 2.7674866 18.574097 7.6936417c4.9261475 4.9261475 7.6936035 11.607445 7.6936035 18.574081c0 14.507256 -11.760437 26.267715 -26.2677 26.267715c-14.507263 0 -26.2677 -11.76046 -26.2677 -26.267715z" fill-rule="evenodd"/><path fill="#000000" d="m589.5402 111.80379l-9.640625 0l-2.609375 7.234375l-3.0625 0l9.890625 -26.546875l1.421875 0l9.921875 26.546875l-3.234375 0l-2.6875 -7.234375zm-8.625 -2.6875l7.6875 0l-2.90625 -7.953125l-0.9375 -3.96875l-0.046875 0l-0.921875 4.03125l-2.875 7.890625z" fill-rule="nonzero"/><path fill="#000000" fill-opacity="0.0" d="m604.93524 124.27224l34.48816 66.204735" fill-rule="evenodd"/><path stroke="#000000" stroke-width="4.0" stroke-linejoin="round" stroke-linecap="butt" d="m604.93524 124.27224l34.48816 66.204735" fill-rule="evenodd"/><path fill="#000000" fill-opacity="0.0" d="m701.8008 105.698166c0 -14.507263 11.760437 -26.267723 26.2677 -26.267723c6.966675 0 13.647949 2.7674866 18.574097 7.6936417c4.9261475 4.9261475 7.6936035 11.607445 7.6936035 18.574081c0 14.507256 -11.760437 26.267715 -26.2677 26.267715c-14.507263 0 -26.2677 -11.76046 -26.2677 -26.267715z" fill-rule="evenodd"/><path stroke="#000000" stroke-width="3.0" stroke-linejoin="round" stroke-linecap="butt" d="m701.8008 105.698166c0 -14.507263 11.760437 -26.267723 26.2677 -26.267723c6.966675 0 13.647949 2.7674866 18.574097 7.6936417c4.9261475 4.9261475 7.6936035 11.607445 7.6936035 18.574081c0 14.507256 -11.760437 26.267715 -26.2677 26.267715c-14.507263 0 -26.2677 -11.76046 -26.2677 -26.267715z" fill-rule="evenodd"/><path fill="#000000" d="m734.57874 98.88191q0 0.9375 -0.296875 1.90625q-0.296875 0.96875 -0.890625 1.8125q-0.59375 0.828125 -1.53125 1.46875q-0.9375 0.640625 -2.203125 0.96875l0 0.15625q1.125 0.1875 2.140625 0.640625q1.03125 0.4375 1.8125 1.21875q0.78125 0.78125 1.265625 1.90625q0.484375 1.125 0.484375 2.65625q0 2.015625 -0.84375 3.484375q-0.828125 1.46875 -2.203125 2.40625q-1.359375 0.9375 -3.109375 1.390625q-1.75 0.4375 -3.578125 0.4375q-0.640625 0 -1.5 0q-0.859375 0 -1.796875 -0.0625q-0.921875 -0.046875 -1.859375 -0.140625q-0.9375 -0.09375 -1.640625 -0.28125l0 -25.71875q1.375 -0.21875 3.203125 -0.359375q1.84375 -0.15625 4.0 -0.15625q1.453125 0 2.96875 0.25q1.515625 0.234375 2.734375 0.921875q1.234375 0.6875 2.03125 1.921875q0.8125 1.234375 0.8125 3.171875zm-8.65625 17.765625q1.1875 0 2.3125 -0.28125q1.125 -0.28125 1.984375 -0.890625q0.859375 -0.625 1.359375 -1.515625q0.5 -0.890625 0.5 -2.125q0 -1.53125 -0.625 -2.453125q-0.609375 -0.9375 -1.59375 -1.453125q-0.984375 -0.53125 -2.21875 -0.71875q-1.234375 -0.1875 -2.46875 -0.1875l-3.25 0l0 9.359375q0.265625 0.078125 0.75 0.125q0.484375 0.03125 1.046875 0.078125q0.5625 0.03125 1.15625 0.046875q0.59375 0.015625 1.046875 0.015625zm-2.046875 -12.234375q0.625 0 1.515625 -0.03125q0.90625 -0.046875 1.5 -0.125q0.890625 -0.296875 1.671875 -0.71875q0.796875 -0.4375 1.40625 -1.015625q0.625 -0.578125 0.96875 -1.34375q0.359375 -0.765625 0.359375 -1.65625q0 -1.234375 -0.46875 -2.03125q-0.46875 -0.8125 -1.25 -1.296875q-0.78125 -0.484375 -1.796875 -0.6875q-1.0 -0.203125 -2.046875 -0.203125q-1.234375 0 -2.265625 0.0625q-1.015625 0.046875 -1.546875 0.15625l0 8.890625l1.953125 0z" fill-rule="nonzero"/><path fill="#000000" fill-opacity="0.0" d="m631.7247 209.03937c0 -14.507263 11.760437 -26.267715 26.2677 -26.267715c6.966614 0 13.647949 2.7674866 18.574097 7.693634c4.9261475 4.9261627 7.6936035 11.607452 7.6936035 18.574081c0 14.507263 -11.760437 26.267715 -26.2677 26.267715c-14.507263 0 -26.2677 -11.760452 -26.2677 -26.267715z" fill-rule="evenodd"/><path stroke="#000000" stroke-width="3.0" stroke-linejoin="round" stroke-linecap="butt" d="m631.7247 209.03937c0 -14.507263 11.760437 -26.267715 26.2677 -26.267715c6.966614 0 13.647949 2.7674866 18.574097 7.693634c4.9261475 4.9261627 7.6936035 11.607452 7.6936035 18.574081c0 14.507263 -11.760437 26.267715 -26.2677 26.267715c-14.507263 0 -26.2677 -11.760452 -26.2677 -26.267715z" fill-rule="evenodd"/><path fill="#000000" d="m649.6485 196.25436l14.21875 0l0 2.75l-11.125 0l0 8.5625l10.203125 0l0 2.75l-10.203125 0l0 9.296875l11.3125 0l0 2.765625l-14.40625 0l0 -26.125z" fill-rule="nonzero"/><path fill="#000000" fill-opacity="0.0" d="m612.62885 105.698166l89.165344 0" fill-rule="evenodd"/><path stroke="#000000" stroke-width="2.0" stroke-linejoin="round" stroke-linecap="butt" d="m612.62885 105.698166l82.31122 0" fill-rule="evenodd"/><path fill="#000000" stroke="#000000" stroke-width="2.0" stroke-linecap="butt" d="m694.94006 105.698166l-2.2492065 2.2491608l6.1795654 -2.2491608l-6.1795654 -2.2491684z" fill-rule="evenodd"/><path fill="#000000" fill-opacity="0.0" d="m709.4944 124.27224l-32.91333 66.204735" fill-rule="evenodd"/><path stroke="#000000" stroke-width="4.0" stroke-linejoin="round" stroke-linecap="butt" d="m709.4944 124.27224l-32.91333 66.204735" fill-rule="evenodd"/><path fill="#000000" fill-opacity="0.0" d="m767.62756 209.03937c0 -14.507263 11.760437 -26.267715 26.2677 -26.267715c6.966614 0 13.647949 2.7674866 18.574097 7.693634c4.9261475 4.9261627 7.6936035 11.607452 7.6936035 18.574081c0 14.507263 -11.760437 26.267715 -26.2677 26.267715c-14.507263 0 -26.2677 -11.760452 -26.2677 -26.267715z" fill-rule="evenodd"/><path stroke="#000000" stroke-width="3.0" stroke-linejoin="round" stroke-linecap="butt" d="m767.62756 209.03937c0 -14.507263 11.760437 -26.267715 26.2677 -26.267715c6.966614 0 13.647949 2.7674866 18.574097 7.693634c4.9261475 4.9261627 7.6936035 11.607452 7.6936035 18.574081c0 14.507263 -11.760437 26.267715 -26.2677 26.267715c-14.507263 0 -26.2677 -11.760452 -26.2677 -26.267715z" fill-rule="evenodd"/><path fill="#000000" d="m785.906 196.25436l14.21875 0l0 2.75l-11.125 0l0 8.921875l10.375 0l0 2.765625l-10.375 0l0 11.6875l-3.09375 0l0 -26.125z" fill-rule="nonzero"/><path fill="#000000" fill-opacity="0.0" d="m843.50684 110.76378c0 -14.507256 11.760437 -26.267715 26.2677 -26.267715c6.966614 0 13.647949 2.7674866 18.574097 7.693634c4.9261475 4.926155 7.6936035 11.607452 7.6936035 18.574081c0 14.507263 -11.760437 26.267715 -26.2677 26.267715c-14.507263 0 -26.2677 -11.760452 -26.2677 -26.267715z" fill-rule="evenodd"/><path stroke="#000000" stroke-width="3.0" stroke-linejoin="round" stroke-linecap="butt" d="m843.50684 110.76378c0 -14.507256 11.760437 -26.267715 26.2677 -26.267715c6.966614 0 13.647949 2.7674866 18.574097 7.693634c4.9261475 4.926155 7.6936035 11.607452 7.6936035 18.574081c0 14.507263 -11.760437 26.267715 -26.2677 26.267715c-14.507263 0 -26.2677 -11.760452 -26.2677 -26.267715z" fill-rule="evenodd"/><path fill="#000000" d="m877.49615 123.02565q-1.109375 0.859375 -2.828125 1.1875q-1.71875 0.34375 -3.65625 0.34375q-2.359375 0 -4.421875 -0.796875q-2.046875 -0.8125 -3.578125 -2.453125q-1.53125 -1.640625 -2.421875 -4.203125q-0.890625 -2.5625 -0.890625 -6.0625q0 -3.65625 0.984375 -6.21875q0.984375 -2.5625 2.609375 -4.171875q1.625 -1.625 3.640625 -2.375q2.015625 -0.75 4.109375 -0.75q2.234375 0 3.65625 0.25q1.421875 0.234375 2.421875 0.640625l-0.734375 2.734375q-1.796875 -0.859375 -5.125 -0.859375q-1.53125 0 -3.03125 0.5625q-1.484375 0.546875 -2.65625 1.828125q-1.171875 1.265625 -1.890625 3.328125q-0.703125 2.046875 -0.703125 5.03125q0 2.6875 0.671875 4.703125q0.671875 2.015625 1.84375 3.359375q1.1875 1.34375 2.765625 2.015625q1.59375 0.671875 3.453125 0.671875q1.6875 0 2.9375 -0.328125q1.25 -0.34375 2.109375 -0.875l0.734375 2.4375z" fill-rule="nonzero"/><path fill="#000000" fill-opacity="0.0" d="m486.39395 209.03937c0 -14.507263 11.760468 -26.267715 26.26773 -26.267715c6.966614 0 13.647888 2.7674866 18.574097 7.693634c4.9261475 4.9261627 7.6936035 11.607452 7.6936035 18.574081c0 14.507263 -11.760437 26.267715 -26.2677 26.267715c-14.507263 0 -26.26773 -11.760452 -26.26773 -26.267715z" fill-rule="evenodd"/><path stroke="#000000" stroke-width="3.0" stroke-linejoin="round" stroke-linecap="butt" d="m486.39395 209.03937c0 -14.507263 11.760468 -26.267715 26.26773 -26.267715c6.966614 0 13.647888 2.7674866 18.574097 7.693634c4.9261475 4.9261627 7.6936035 11.607452 7.6936035 18.574081c0 14.507263 -11.760437 26.267715 -26.2677 26.267715c-14.507263 0 -26.26773 -11.760452 -26.26773 -26.267715z" fill-rule="evenodd"/><path fill="#000000" d="m503.23587 196.25436q0.703125 -0.109375 1.578125 -0.171875q0.890625 -0.0625 1.84375 -0.078125q0.953125 -0.015625 1.859375 -0.03125q0.921875 -0.015625 1.703125 -0.015625q3.1249695 0 5.4218445 0.96875q2.296875 0.96875 3.78125 2.703125q1.5 1.734375 2.234375 4.171875q0.734375 2.421875 0.734375 5.328125q0 2.65625 -0.703125 5.09375q-0.6875 2.4375 -2.1875 4.328125q-1.484375 1.890625 -3.875 3.03125q-2.390625 1.140625 -5.7812195 1.140625q-0.59375 0 -1.546875 -0.03125q-0.953125 -0.015625 -1.96875 -0.078125q-1.0 -0.046875 -1.859375 -0.09375q-0.859375 -0.03125 -1.234375 -0.109375l0 -26.15625zm7.0625 2.453125q-0.484375 0 -1.078125 0q-0.578125 0 -1.140625 0.046875q-0.546875 0.03125 -1.015625 0.078125q-0.46875 0.03125 -0.734375 0.0625l0 20.90625q0.1875 0.046875 0.703125 0.0625q0.53125 0.015625 1.09375 0.03125q0.5625 0.015625 1.078125 0.046875q0.53125 0.015625 0.71875 0.015625q2.6093445 0 4.3749695 -0.890625q1.78125 -0.90625 2.84375 -2.40625q1.0625 -1.515625 1.5 -3.46875q0.453125 -1.96875 0.453125 -4.0625q0 -1.828125 -0.40625 -3.671875q-0.40625 -1.859375 -1.421875 -3.34375q-1.0 -1.5 -2.703125 -2.453125q-1.703125 -0.953125 -4.2655945 -0.953125z" fill-rule="nonzero"/><path fill="#000000" fill-opacity="0.0" d="m567.78705 124.27224l-36.566895 66.204735" fill-rule="evenodd"/><path stroke="#000000" stroke-width="4.0" stroke-linejoin="round" stroke-linecap="butt" d="m567.78705 124.27224l-36.566895 66.204735" fill-rule="evenodd"/><path fill="#000000" fill-opacity="0.0" d="m684.2601 209.03937l83.37012 0" fill-rule="evenodd"/><path stroke="#000000" stroke-width="2.0" stroke-linejoin="round" stroke-linecap="butt" stroke-dasharray="8.0,6.0" d="m684.2601 209.03937l83.37012 0" fill-rule="evenodd"/><path fill="#000000" fill-opacity="0.0" d="m746.6426 124.27224l28.692932 66.204735" fill-rule="evenodd"/><path stroke="#000000" stroke-width="4.0" stroke-linejoin="round" stroke-linecap="butt" d="m746.6426 124.27224l28.692932 66.204735" fill-rule="evenodd"/><path fill="#000000" fill-opacity="0.0" d="m851.20044 129.33786l-38.740173 61.133865" fill-rule="evenodd"/><path stroke="#000000" stroke-width="2.0" stroke-linejoin="round" stroke-linecap="butt" stroke-dasharray="8.0,6.0" d="m851.20044 129.33786l-38.740173 61.133865" fill-rule="evenodd"/><path fill="#000000" d="m88.811455 128.92744c0 -2.9136353 2.3619614 -5.2755966 5.275589 -5.2755966c1.3991699 0 2.741043 0.55581665 3.7304077 1.5451813c0.9893646 0.98937225 1.5451813 2.3312378 1.5451813 3.7304153c0 2.91362 -2.3619614 5.275589 -5.275589 5.275589c-2.9136276 0 -5.275589 -2.361969 -5.275589 -5.275589z" fill-rule="evenodd"/><path stroke="#000000" stroke-width="1.0" stroke-linejoin="round" stroke-linecap="butt" d="m88.811455 128.92744c0 -2.9136353 2.3619614 -5.2755966 5.275589 -5.2755966c1.3991699 0 2.741043 0.55581665 3.7304077 1.5451813c0.9893646 0.98937225 1.5451813 2.3312378 1.5451813 3.7304153c0 2.91362 -2.3619614 5.275589 -5.275589 5.275589c-2.9136276 0 -5.275589 -2.361969 -5.275589 -5.275589z" fill-rule="evenodd"/><path fill="#000000" d="m150.03548 131.5095c0 -2.91362 2.361969 -5.2755814 5.275589 -5.2755814c1.3991699 0 2.741043 0.55581665 3.7304077 1.5451813c0.9893646 0.98937225 1.5451813 2.3312302 1.5451813 3.7304c0 2.9136353 -2.3619537 5.275589 -5.275589 5.275589c-2.91362 0 -5.275589 -2.3619537 -5.275589 -5.275589z" fill-rule="evenodd"/><path stroke="#000000" stroke-width="1.0" stroke-linejoin="round" stroke-linecap="butt" d="m150.03548 131.5095c0 -2.91362 2.361969 -5.2755814 5.275589 -5.2755814c1.3991699 0 2.741043 0.55581665 3.7304077 1.5451813c0.9893646 0.98937225 1.5451813 2.3312302 1.5451813 3.7304c0 2.9136353 -2.3619537 5.275589 -5.275589 5.275589c-2.91362 0 -5.275589 -2.3619537 -5.275589 -5.275589z" fill-rule="evenodd"/><path fill="#000000" d="m167.26492 89.65912c0 -2.9136276 2.3619537 -5.275589 5.275589 -5.275589c1.3991699 0 2.741043 0.55581665 3.7304077 1.5451813c0.9893646 0.9893646 1.5451813 2.3312302 1.5451813 3.7304077c0 2.9136276 -2.361969 5.275589 -5.275589 5.275589c-2.9136353 0 -5.275589 -2.3619614 -5.275589 -5.275589z" fill-rule="evenodd"/><path stroke="#000000" stroke-width="1.0" stroke-linejoin="round" stroke-linecap="butt" d="m167.26492 89.65912c0 -2.9136276 2.3619537 -5.275589 5.275589 -5.275589c1.3991699 0 2.741043 0.55581665 3.7304077 1.5451813c0.9893646 0.9893646 1.5451813 2.3312302 1.5451813 3.7304077c0 2.9136276 -2.361969 5.275589 -5.275589 5.275589c-2.9136353 0 -5.275589 -2.3619614 -5.275589 -5.275589z" fill-rule="evenodd"/><path fill="#000000" d="m1227.4097 146.91139c0 -2.91362 2.3620605 -5.275589 5.275635 -5.275589c1.3991699 0 2.7410889 0.55581665 3.7304688 1.5451813c0.9892578 0.9893646 1.545166 2.3312378 1.545166 3.7304077c0 2.9136353 -2.3619385 5.275589 -5.275635 5.275589c-2.9135742 0 -5.275635 -2.3619537 -5.275635 -5.275589z" fill-rule="evenodd"/><path stroke="#000000" stroke-width="1.0" stroke-linejoin="round" stroke-linecap="butt" d="m1227.4097 146.91139c0 -2.91362 2.3620605 -5.275589 5.275635 -5.275589c1.3991699 0 2.7410889 0.55581665 3.7304688 1.5451813c0.9892578 0.9893646 1.545166 2.3312378 1.545166 3.7304077c0 2.9136353 -2.3619385 5.275589 -5.275635 5.275589c-2.9135742 0 -5.275635 -2.3619537 -5.275635 -5.275589z" fill-rule="evenodd"/><path fill="#000000" d="m551.3636 143.86647c0 -2.9136353 2.3619385 -5.275589 5.2755737 -5.275589c1.3991699 0 2.7410278 0.55581665 3.7304077 1.5451813c0.9893799 0.9893646 1.545166 2.3312378 1.545166 3.7304077c0 2.91362 -2.3619385 5.275589 -5.2755737 5.275589c-2.9136353 0 -5.2755737 -2.361969 -5.2755737 -5.275589z" fill-rule="evenodd"/><path stroke="#000000" stroke-width="1.0" stroke-linejoin="round" stroke-linecap="butt" d="m551.3636 143.86647c0 -2.9136353 2.3619385 -5.275589 5.2755737 -5.275589c1.3991699 0 2.7410278 0.55581665 3.7304077 1.5451813c0.9893799 0.9893646 1.545166 2.3312378 1.545166 3.7304077c0 2.91362 -2.3619385 5.275589 -5.2755737 5.275589c-2.9136353 0 -5.2755737 -2.361969 -5.2755737 -5.275589z" fill-rule="evenodd"/><path fill="#000000" d="m615.7253 157.56598c0 -2.9136353 2.3619995 -5.275589 5.2755737 -5.275589c1.3991699 0 2.7410889 0.55581665 3.7304077 1.5451813c0.9893799 0.9893646 1.545227 2.3312378 1.545227 3.7304077c0 2.91362 -2.3619995 5.275589 -5.275635 5.275589c-2.9135742 0 -5.2755737 -2.361969 -5.2755737 -5.275589z" fill-rule="evenodd"/><path stroke="#000000" stroke-width="1.0" stroke-linejoin="round" stroke-linecap="butt" d="m615.7253 157.56598c0 -2.9136353 2.3619995 -5.275589 5.2755737 -5.275589c1.3991699 0 2.7410889 0.55581665 3.7304077 1.5451813c0.9893799 0.9893646 1.545227 2.3312378 1.545227 3.7304077c0 2.91362 -2.3619995 5.275589 -5.275635 5.275589c-2.9135742 0 -5.2755737 -2.361969 -5.2755737 -5.275589z" fill-rule="evenodd"/><path fill="#000000" d="m690.3894 154.09332c0 -2.9136353 2.3619995 -5.2756042 5.275635 -5.2756042c1.3991699 0 2.7410278 0.5558319 3.7303467 1.5451965c0.9893799 0.9893646 1.545227 2.3312225 1.545227 3.7304077c0 2.91362 -2.3619995 5.275589 -5.2755737 5.275589c-2.9136353 0 -5.275635 -2.361969 -5.275635 -5.275589z" fill-rule="evenodd"/><path stroke="#000000" stroke-width="1.0" stroke-linejoin="round" stroke-linecap="butt" d="m690.3894 154.09332c0 -2.9136353 2.3619995 -5.2756042 5.275635 -5.2756042c1.3991699 0 2.7410278 0.5558319 3.7303467 1.5451965c0.9893799 0.9893646 1.545227 2.3312225 1.545227 3.7304077c0 2.91362 -2.3619995 5.275589 -5.2755737 5.275589c-2.9136353 0 -5.275635 -2.361969 -5.275635 -5.275589z" fill-rule="evenodd"/><path fill="#000000" fill-opacity="0.0" d="m466.4511 37.742783l0 500.0" fill-rule="evenodd"/><path stroke="#000000" stroke-width="1.0" stroke-linejoin="round" stroke-linecap="butt" d="m466.4511 37.742783l0 500.0" fill-rule="evenodd"/><path fill="#000000" fill-opacity="0.0" d="m21.291 258.70865l1401.6063 0" fill-rule="evenodd"/><path stroke="#000000" stroke-width="1.0" stroke-linejoin="round" stroke-linecap="butt" d="m21.291 258.70865l1401.6063 0" fill-rule="evenodd"/><path fill="#000000" fill-opacity="0.0" d="m950.1939 37.742783l0 500.0" fill-rule="evenodd"/><path stroke="#000000" stroke-width="1.0" stroke-linejoin="round" stroke-linecap="butt" d="m950.1939 37.742783l0 500.0" fill-rule="evenodd"/><path fill="#000000" fill-opacity="0.0" d="m1090.4478 107.71916l89.165405 0" fill-rule="evenodd"/><path stroke="#000000" stroke-width="2.0" stroke-linejoin="round" stroke-linecap="butt" d="m1090.4478 107.71916l82.31116 0" fill-rule="evenodd"/><path fill="#000000" stroke="#000000" stroke-width="2.0" stroke-linecap="butt" d="m1172.7589 107.71916l-2.2491455 2.2491684l6.1795654 -2.2491684l-6.1795654 -2.2491684z" fill-rule="evenodd"/><path fill="#000000" d="m1170.2448 146.32298c0 -2.9136353 2.3619385 -5.275589 5.275635 -5.275589c1.3991699 0 2.7409668 0.55581665 3.7303467 1.5451813c0.9893799 0.9893646 1.545166 2.3312378 1.545166 3.7304077c0 2.9136353 -2.3619385 5.275589 -5.2755127 5.275589c-2.9136963 0 -5.275635 -2.3619537 -5.275635 -5.275589z" fill-rule="evenodd"/><path stroke="#000000" stroke-width="1.0" stroke-linejoin="round" stroke-linecap="butt" d="m1170.2448 146.32298c0 -2.9136353 2.3619385 -5.275589 5.275635 -5.275589c1.3991699 0 2.7409668 0.55581665 3.7303467 1.5451813c0.9893799 0.9893646 1.545166 2.3312378 1.545166 3.7304077c0 2.9136353 -2.3619385 5.275589 -5.2755127 5.275589c-2.9136963 0 -5.275635 -2.3619537 -5.275635 -5.275589z" fill-rule="evenodd"/><path fill="#efefef" d="m17.987755 474.97653c10.864391 27.570862 80.175415 34.670593 117.251976 35.26245c37.076538 0.5918579 75.445755 -6.115906 105.20734 -31.711273c29.761612 -25.595367 69.41777 -92.475525 73.3622 -121.8609c3.944458 -29.385376 -21.888428 -44.784332 -49.695526 -54.451447c-27.807083 -9.667114 -84.80359 -10.650909 -117.14699 -3.551178c-32.34339 7.0997314 -55.416878 16.764221 -76.913376 46.149597c-21.496506 29.385406 -62.93001 102.59186 -52.06562 130.16275z" fill-rule="evenodd"/><path stroke="#000000" stroke-width="1.0" stroke-linejoin="round" stroke-linecap="butt" d="m17.987755 474.97653c10.864391 27.570862 80.175415 34.670593 117.251976 35.26245c37.076538 0.5918579 75.445755 -6.115906 105.20734 -31.711273c29.761612 -25.595367 69.41777 -92.475525 73.3622 -121.8609c3.944458 -29.385376 -21.888428 -44.784332 -49.695526 -54.451447c-27.807083 -9.667114 -84.80359 -10.650909 -117.14699 -3.551178c-32.34339 7.0997314 -55.416878 16.764221 -76.913376 46.149597c-21.496506 29.385406 -62.93001 102.59186 -52.06562 130.16275z" fill-rule="evenodd"/><path fill="#000000" fill-opacity="0.0" d="m101.544876 347.02887c0 -14.507263 11.760452 -26.2677 26.267715 -26.2677c6.966629 0 13.647919 2.767456 18.574081 7.693634c4.9261475 4.9261475 7.693634 11.607422 7.693634 18.574066c0 14.507263 -11.760452 26.26773 -26.267715 26.26773c-14.507263 0 -26.267715 -11.760468 -26.267715 -26.26773z" fill-rule="evenodd"/><path stroke="#000000" stroke-width="3.0" stroke-linejoin="round" stroke-linecap="butt" d="m101.544876 347.02887c0 -14.507263 11.760452 -26.2677 26.267715 -26.2677c6.966629 0 13.647919 2.767456 18.574081 7.693634c4.9261475 4.9261475 7.693634 11.607422 7.693634 18.574066c0 14.507263 -11.760452 26.26773 -26.267715 26.26773c-14.507263 0 -26.267715 -11.760468 -26.267715 -26.26773z" fill-rule="evenodd"/><path fill="#000000" d="m130.99165 353.1345l-9.640625 0l-2.609375 7.234375l-3.0625 0l9.890625 -26.546875l1.421875 0l9.921875 26.546875l-3.234375 0l-2.6875 -7.234375zm-8.625 -2.6875l7.6875 0l-2.90625 -7.953125l-0.9375 -3.96875l-0.046875 0l-0.921875 4.03125l-2.875 7.890625z" fill-rule="nonzero"/><path fill="#000000" fill-opacity="0.0" d="m243.25223 347.02887c0 -14.507263 11.760452 -26.2677 26.2677 -26.2677c6.9666443 0 13.647949 2.767456 18.574097 7.693634c4.9261475 4.9261475 7.693634 11.607422 7.693634 18.574066c0 14.507263 -11.760468 26.26773 -26.26773 26.26773c-14.507248 0 -26.2677 -11.760468 -26.2677 -26.26773z" fill-rule="evenodd"/><path stroke="#000000" stroke-width="3.0" stroke-linejoin="round" stroke-linecap="butt" d="m243.25223 347.02887c0 -14.507263 11.760452 -26.2677 26.2677 -26.2677c6.9666443 0 13.647949 2.767456 18.574097 7.693634c4.9261475 4.9261475 7.693634 11.607422 7.693634 18.574066c0 14.507263 -11.760468 26.26773 -26.26773 26.26773c-14.507248 0 -26.2677 -11.760468 -26.2677 -26.26773z" fill-rule="evenodd"/><path fill="#000000" d="m276.03015 340.21262q0 0.9375 -0.296875 1.90625q-0.296875 0.96875 -0.890625 1.8125q-0.59375 0.828125 -1.53125 1.46875q-0.9375 0.640625 -2.203125 0.96875l0 0.15625q1.125 0.1875 2.140625 0.640625q1.03125 0.4375 1.8125 1.21875q0.78125 0.78125 1.265625 1.90625q0.484375 1.125 0.484375 2.65625q0 2.015625 -0.84375 3.484375q-0.828125 1.46875 -2.203125 2.40625q-1.359375 0.9375 -3.109375 1.390625q-1.75 0.4375 -3.578125 0.4375q-0.640625 0 -1.5 0q-0.859375 0 -1.796875 -0.0625q-0.921875 -0.046875 -1.859375 -0.140625q-0.9375 -0.09375 -1.640625 -0.28125l0 -25.71875q1.375 -0.21875 3.203125 -0.359375q1.84375 -0.15625 4.0 -0.15625q1.453125 0 2.96875 0.25q1.515625 0.234375 2.734375 0.921875q1.234375 0.6875 2.03125 1.921875q0.8125 1.234375 0.8125 3.171875zm-8.65625 17.765625q1.1875 0 2.3125 -0.28125q1.125 -0.28125 1.984375 -0.890625q0.859375 -0.625 1.359375 -1.515625q0.5 -0.890625 0.5 -2.125q0 -1.53125 -0.625 -2.453125q-0.609375 -0.9375 -1.59375 -1.453125q-0.984375 -0.53125 -2.21875 -0.71875q-1.234375 -0.1875 -2.46875 -0.1875l-3.25 0l0 9.359375q0.265625 0.078125 0.75 0.125q0.484375 0.03125 1.046875 0.078125q0.5625 0.03125 1.15625 0.046875q0.59375 0.015625 1.046875 0.015625zm-2.046875 -12.234375q0.625 0 1.515625 -0.03125q0.90625 -0.046875 1.5 -0.125q0.890625 -0.296875 1.671875 -0.71875q0.796875 -0.4375 1.40625 -1.015625q0.625 -0.578125 0.96875 -1.34375q0.359375 -0.765625 0.359375 -1.65625q0 -1.234375 -0.46875 -2.03125q-0.46875 -0.8125 -1.25 -1.296875q-0.78125 -0.484375 -1.796875 -0.6875q-1.0 -0.203125 -2.046875 -0.203125q-1.234375 0 -2.265625 0.0625q-1.015625 0.046875 -1.546875 0.15625l0 8.890625l1.953125 0z" fill-rule="nonzero"/><path fill="#000000" fill-opacity="0.0" d="m173.1761 450.3701c0 -14.507263 11.760468 -26.26773 26.267715 -26.26773c6.9666443 0 13.647934 2.7674866 18.574081 7.693634c4.9261627 4.9261475 7.693634 11.607452 7.693634 18.574097c0 14.507263 -11.760452 26.2677 -26.267715 26.2677c-14.507248 0 -26.267715 -11.760437 -26.267715 -26.2677z" fill-rule="evenodd"/><path stroke="#000000" stroke-width="3.0" stroke-linejoin="round" stroke-linecap="butt" d="m173.1761 450.3701c0 -14.507263 11.760468 -26.26773 26.267715 -26.26773c6.9666443 0 13.647934 2.7674866 18.574081 7.693634c4.9261627 4.9261475 7.693634 11.607452 7.693634 18.574097c0 14.507263 -11.760452 26.2677 -26.267715 26.2677c-14.507248 0 -26.267715 -11.760437 -26.267715 -26.2677z" fill-rule="evenodd"/><path fill="#000000" d="m191.09993 437.58508l14.21875 0l0 2.75l-11.125 0l0 8.5625l10.203125 0l0 2.75l-10.203125 0l0 9.296875l11.3125 0l0 2.765625l-14.40625 0l0 -26.125z" fill-rule="nonzero"/><path fill="#000000" fill-opacity="0.0" d="m146.38667 365.60297l34.48819 66.20471" fill-rule="evenodd"/><path stroke="#000000" stroke-width="2.0" stroke-linejoin="round" stroke-linecap="butt" d="m146.38667 365.60294l31.321533 60.125916" fill-rule="evenodd"/><path fill="#000000" stroke="#000000" stroke-width="2.0" stroke-linecap="butt" d="m177.7082 425.72885l-3.0338593 -0.95562744l4.849701 4.4413757l-0.8602295 -6.519623z" fill-rule="evenodd"/><path fill="#000000" fill-opacity="0.0" d="m250.94586 365.60297l-32.91339 66.20471" fill-rule="evenodd"/><path stroke="#000000" stroke-width="2.0" stroke-linejoin="round" stroke-linecap="butt" stroke-dasharray="8.0,6.0" d="m250.94586 365.60297l-32.91339 66.20471" fill-rule="evenodd"/><path fill="#000000" fill-opacity="0.0" d="m309.07898 450.3701c0 -14.507263 11.760468 -26.26773 26.26773 -26.26773c6.9666443 0 13.647919 2.7674866 18.574066 7.693634c4.926178 4.9261475 7.6936646 11.607452 7.6936646 18.574097c0 14.507263 -11.760468 26.2677 -26.26773 26.2677c-14.507263 0 -26.26773 -11.760437 -26.26773 -26.2677z" fill-rule="evenodd"/><path stroke="#000000" stroke-width="3.0" stroke-linejoin="round" stroke-linecap="butt" d="m309.07898 450.3701c0 -14.507263 11.760468 -26.26773 26.26773 -26.26773c6.9666443 0 13.647919 2.7674866 18.574066 7.693634c4.926178 4.9261475 7.6936646 11.607452 7.6936646 18.574097c0 14.507263 -11.760468 26.2677 -26.26773 26.2677c-14.507263 0 -26.26773 -11.760437 -26.26773 -26.2677z" fill-rule="evenodd"/><path fill="#000000" d="m327.35742 437.58508l14.21875 0l0 2.75l-11.125 0l0 8.921875l10.375 0l0 2.765625l-10.375 0l0 11.6875l-3.09375 0l0 -26.125z" fill-rule="nonzero"/><path fill="#000000" fill-opacity="0.0" d="m384.95825 352.09448c0 -14.507263 11.760468 -26.2677 26.26773 -26.2677c6.966614 0 13.647919 2.7674866 18.574066 7.693634c4.9261475 4.9261475 7.693634 11.607452 7.693634 18.574066c0 14.507263 -11.760437 26.26773 -26.2677 26.26773c-14.507263 0 -26.26773 -11.760468 -26.26773 -26.26773z" fill-rule="evenodd"/><path stroke="#000000" stroke-width="3.0" stroke-linejoin="round" stroke-linecap="butt" d="m384.95825 352.09448c0 -14.507263 11.760468 -26.2677 26.26773 -26.2677c6.966614 0 13.647919 2.7674866 18.574066 7.693634c4.9261475 4.9261475 7.693634 11.607452 7.693634 18.574066c0 14.507263 -11.760437 26.26773 -26.2677 26.26773c-14.507263 0 -26.26773 -11.760468 -26.26773 -26.26773z" fill-rule="evenodd"/><path fill="#000000" d="m418.9476 364.35635q-1.109375 0.859375 -2.828125 1.1875q-1.71875 0.34375 -3.65625 0.34375q-2.359375 0 -4.421875 -0.796875q-2.046875 -0.8125 -3.578125 -2.453125q-1.53125 -1.640625 -2.421875 -4.203125q-0.890625 -2.5625 -0.890625 -6.0625q0 -3.65625 0.984375 -6.21875q0.984375 -2.5625 2.609375 -4.171875q1.625 -1.625 3.640625 -2.375q2.015625 -0.75 4.109375 -0.75q2.234375 0 3.65625 0.25q1.421875 0.234375 2.421875 0.640625l-0.734375 2.734375q-1.796875 -0.859375 -5.125 -0.859375q-1.53125 0 -3.03125 0.5625q-1.484375 0.546875 -2.65625 1.828125q-1.171875 1.265625 -1.890625 3.328125q-0.703125 2.046875 -0.703125 5.03125q0 2.6875 0.671875 4.703125q0.671875 2.015625 1.84375 3.359375q1.1875 1.34375 2.765625 2.015625q1.59375 0.671875 3.453125 0.671875q1.6875 0 2.9375 -0.328125q1.25 -0.34375 2.109375 -0.875l0.734375 2.4375z" fill-rule="nonzero"/><path fill="#000000" fill-opacity="0.0" d="m27.845398 450.3701c0 -14.507263 11.760456 -26.26773 26.267715 -26.26773c6.966633 0 13.647926 2.7674866 18.574081 7.693634c4.926155 4.9261475 7.693634 11.607452 7.693634 18.574097c0 14.507263 -11.760452 26.2677 -26.267715 26.2677c-14.507259 0 -26.267715 -11.760437 -26.267715 -26.2677z" fill-rule="evenodd"/><path stroke="#000000" stroke-width="3.0" stroke-linejoin="round" stroke-linecap="butt" d="m27.845398 450.3701c0 -14.507263 11.760456 -26.26773 26.267715 -26.26773c6.966633 0 13.647926 2.7674866 18.574081 7.693634c4.926155 4.9261475 7.693634 11.607452 7.693634 18.574097c0 14.507263 -11.760452 26.2677 -26.267715 26.2677c-14.507259 0 -26.267715 -11.760437 -26.267715 -26.2677z" fill-rule="evenodd"/><path fill="#000000" d="m44.68731 437.58508q0.703125 -0.109375 1.578125 -0.171875q0.890625 -0.0625 1.84375 -0.078125q0.953125 -0.015625 1.859375 -0.03125q0.921875 -0.015625 1.703125 -0.015625q3.125 0 5.421875 0.96875q2.296875 0.96875 3.78125 2.703125q1.5 1.734375 2.234375 4.171875q0.734375 2.421875 0.734375 5.328125q0 2.65625 -0.703125 5.09375q-0.6875 2.4375 -2.1875 4.328125q-1.484375 1.890625 -3.875 3.03125q-2.390625 1.140625 -5.78125 1.140625q-0.59375 0 -1.546875 -0.03125q-0.953125 -0.015625 -1.96875 -0.078125q-1.0 -0.046875 -1.859375 -0.09375q-0.859375 -0.03125 -1.234375 -0.109375l0 -26.15625zm7.0625 2.453125q-0.484375 0 -1.078125 0q-0.578125 0 -1.140625 0.046875q-0.546875 0.03125 -1.015625 0.078125q-0.46875 0.03125 -0.734375 0.0625l0 20.90625q0.1875 0.046875 0.703125 0.0625q0.53125 0.015625 1.09375 0.03125q0.5625 0.015625 1.078125 0.046875q0.53125 0.015625 0.71875 0.015625q2.609375 0 4.375 -0.890625q1.78125 -0.90625 2.84375 -2.40625q1.0625 -1.515625 1.5 -3.46875q0.453125 -1.96875 0.453125 -4.0625q0 -1.828125 -0.40625 -3.671875q-0.40625 -1.859375 -1.421875 -3.34375q-1.0 -1.5 -2.703125 -2.453125q-1.703125 -0.953125 -4.265625 -0.953125z" fill-rule="nonzero"/><path fill="#000000" fill-opacity="0.0" d="m109.23851 365.60297l-36.566933 66.20471" fill-rule="evenodd"/><path stroke="#000000" stroke-width="2.0" stroke-linejoin="round" stroke-linecap="butt" d="m109.23851 365.60294l-33.253044 60.204895" fill-rule="evenodd"/><path fill="#000000" stroke="#000000" stroke-width="2.0" stroke-linecap="butt" d="m75.985466 425.80783l-0.8813782 -3.056244l-1.018898 6.496704l4.9565277 -4.3218384z" fill-rule="evenodd"/><path fill="#000000" fill-opacity="0.0" d="m225.71153 450.3701l83.37007 0" fill-rule="evenodd"/><path stroke="#000000" stroke-width="4.0" stroke-linejoin="round" stroke-linecap="butt" d="m225.71153 450.3701l83.37007 0" fill-rule="evenodd"/><path fill="#000000" fill-opacity="0.0" d="m288.09402 365.60297l28.692902 66.20471" fill-rule="evenodd"/><path stroke="#000000" stroke-width="4.0" stroke-linejoin="round" stroke-linecap="butt" d="m288.09402 365.60297l28.692902 66.20471" fill-rule="evenodd"/><path fill="#000000" fill-opacity="0.0" d="m353.92078 431.796l38.740173 -61.13385" fill-rule="evenodd"/><path stroke="#000000" stroke-width="2.0" stroke-linejoin="round" stroke-linecap="butt" stroke-dasharray="8.0,6.0" d="m353.92078 431.796l38.740173 -61.13385" fill-rule="evenodd"/><path fill="#000000" d="m295.009 396.68274c0 -2.9136353 2.361969 -5.2756042 5.2756042 -5.2756042c1.3991699 0 2.7410278 0.55584717 3.7304077 1.5451965c0.98934937 0.9893799 1.545166 2.3312378 1.545166 3.7304077c0 2.9136353 -2.361969 5.2756042 -5.2755737 5.2756042c-2.9136353 0 -5.2756042 -2.361969 -5.2756042 -5.2756042z" fill-rule="evenodd"/><path stroke="#000000" stroke-width="1.0" stroke-linejoin="round" stroke-linecap="butt" d="m295.009 396.68274c0 -2.9136353 2.361969 -5.2756042 5.2756042 -5.2756042c1.3991699 0 2.7410278 0.55584717 3.7304077 1.5451965c0.98934937 0.9893799 1.545166 2.3312378 1.545166 3.7304077c0 2.9136353 -2.361969 5.2756042 -5.2755737 5.2756042c-2.9136353 0 -5.2756042 -2.361969 -5.2756042 -5.2756042z" fill-rule="evenodd"/><path fill="#000000" fill-opacity="0.0" d="m154.0803 347.02887l89.16536 0" fill-rule="evenodd"/><path stroke="#000000" stroke-width="2.0" stroke-linejoin="round" stroke-linecap="butt" d="m154.0803 347.02887l82.31117 0" fill-rule="evenodd"/><path fill="#000000" stroke="#000000" stroke-width="2.0" stroke-linecap="butt" d="m236.39148 347.02887l-2.2491608 2.249176l6.179535 -2.249176l-6.179535 -2.249176z" fill-rule="evenodd"/><path fill="#efefef" d="m482.8592 489.99887c29.089264 26.571747 167.51794 26.0372 225.72443 26.097076c58.206482 0.059936523 103.91467 -7.8398743 123.514404 -25.737518c19.599792 -17.897614 10.791809 -49.78958 -5.9159546 -81.648285c-16.707825 -31.858704 -59.33246 -90.710846 -94.33075 -109.50394c-34.99823 -18.79309 -82.69159 -12.831146 -115.65875 -3.2545776c-32.967224 9.576538 -59.92218 28.37268 -82.14441 60.713898c-22.222198 32.341217 -80.2782 106.7616 -51.188965 133.33334z" fill-rule="evenodd"/><path stroke="#000000" stroke-width="1.0" stroke-linejoin="round" stroke-linecap="butt" d="m482.8592 489.99887c29.089264 26.571747 167.51794 26.0372 225.72443 26.097076c58.206482 0.059936523 103.91467 -7.8398743 123.514404 -25.737518c19.599792 -17.897614 10.791809 -49.78958 -5.9159546 -81.648285c-16.707825 -31.858704 -59.33246 -90.710846 -94.33075 -109.50394c-34.99823 -18.79309 -82.69159 -12.831146 -115.65875 -3.2545776c-32.967224 9.576538 -59.92218 28.37268 -82.14441 60.713898c-22.222198 32.341217 -80.2782 106.7616 -51.188965 133.33334z" fill-rule="evenodd"/><path fill="#000000" fill-opacity="0.0" d="m562.7194 358.12598c0 -14.507263 11.760437 -26.2677 26.2677 -26.2677c6.966614 0 13.647949 2.7674866 18.574097 7.693634c4.9261475 4.9261475 7.6936035 11.607452 7.6936035 18.574066c0 14.507263 -11.760437 26.26773 -26.2677 26.26773c-14.507263 0 -26.2677 -11.760468 -26.2677 -26.26773z" fill-rule="evenodd"/><path stroke="#000000" stroke-width="3.0" stroke-linejoin="round" stroke-linecap="butt" d="m562.7194 358.12598c0 -14.507263 11.760437 -26.2677 26.2677 -26.2677c6.966614 0 13.647949 2.7674866 18.574097 7.693634c4.9261475 4.9261475 7.6936035 11.607452 7.6936035 18.574066c0 14.507263 -11.760437 26.26773 -26.2677 26.26773c-14.507263 0 -26.2677 -11.760468 -26.2677 -26.26773z" fill-rule="evenodd"/><path fill="#000000" d="m592.1662 364.2316l-9.640625 0l-2.609375 7.234375l-3.0625 0l9.890625 -26.546875l1.421875 0l9.921875 26.546875l-3.234375 0l-2.6875 -7.234375zm-8.625 -2.6875l7.6875 0l-2.90625 -7.953125l-0.9375 -3.96875l-0.046875 0l-0.921875 4.03125l-2.875 7.890625z" fill-rule="nonzero"/><path fill="#000000" fill-opacity="0.0" d="m704.42676 358.12598c0 -14.507263 11.760437 -26.2677 26.2677 -26.2677c6.966675 0 13.647949 2.7674866 18.574097 7.693634c4.9261475 4.9261475 7.6936646 11.607452 7.6936646 18.574066c0 14.507263 -11.760498 26.26773 -26.267761 26.26773c-14.507263 0 -26.2677 -11.760468 -26.2677 -26.26773z" fill-rule="evenodd"/><path stroke="#000000" stroke-width="3.0" stroke-linejoin="round" stroke-linecap="butt" d="m704.42676 358.12598c0 -14.507263 11.760437 -26.2677 26.2677 -26.2677c6.966675 0 13.647949 2.7674866 18.574097 7.693634c4.9261475 4.9261475 7.6936646 11.607452 7.6936646 18.574066c0 14.507263 -11.760498 26.26773 -26.267761 26.26773c-14.507263 0 -26.2677 -11.760468 -26.2677 -26.26773z" fill-rule="evenodd"/><path fill="#000000" d="m737.2047 351.30972q0 0.9375 -0.296875 1.90625q-0.296875 0.96875 -0.890625 1.8125q-0.59375 0.828125 -1.53125 1.46875q-0.9375 0.640625 -2.203125 0.96875l0 0.15625q1.125 0.1875 2.140625 0.640625q1.03125 0.4375 1.8125 1.21875q0.78125 0.78125 1.265625 1.90625q0.484375 1.125 0.484375 2.65625q0 2.015625 -0.84375 3.484375q-0.828125 1.46875 -2.203125 2.40625q-1.359375 0.9375 -3.109375 1.390625q-1.75 0.4375 -3.578125 0.4375q-0.640625 0 -1.5 0q-0.859375 0 -1.796875 -0.0625q-0.921875 -0.046875 -1.859375 -0.140625q-0.9375 -0.09375 -1.640625 -0.28125l0 -25.71875q1.375 -0.21875 3.203125 -0.359375q1.84375 -0.15625 4.0 -0.15625q1.453125 0 2.96875 0.25q1.515625 0.234375 2.734375 0.921875q1.234375 0.6875 2.03125 1.921875q0.8125 1.234375 0.8125 3.171875zm-8.65625 17.765625q1.1875 0 2.3125 -0.28125q1.125 -0.28125 1.984375 -0.890625q0.859375 -0.625 1.359375 -1.515625q0.5 -0.890625 0.5 -2.125q0 -1.53125 -0.625 -2.453125q-0.609375 -0.9375 -1.59375 -1.453125q-0.984375 -0.53125 -2.21875 -0.71875q-1.234375 -0.1875 -2.46875 -0.1875l-3.25 0l0 9.359375q0.265625 0.078125 0.75 0.125q0.484375 0.03125 1.046875 0.078125q0.5625 0.03125 1.15625 0.046875q0.59375 0.015625 1.046875 0.015625zm-2.046875 -12.234375q0.625 0 1.515625 -0.03125q0.90625 -0.046875 1.5 -0.125q0.890625 -0.296875 1.671875 -0.71875q0.796875 -0.4375 1.40625 -1.015625q0.625 -0.578125 0.96875 -1.34375q0.359375 -0.765625 0.359375 -1.65625q0 -1.234375 -0.46875 -2.03125q-0.46875 -0.8125 -1.25 -1.296875q-0.78125 -0.484375 -1.796875 -0.6875q-1.0 -0.203125 -2.046875 -0.203125q-1.234375 0 -2.265625 0.0625q-1.015625 0.046875 -1.546875 0.15625l0 8.890625l1.953125 0z" fill-rule="nonzero"/><path fill="#000000" fill-opacity="0.0" d="m634.35065 461.4672c0 -14.507263 11.760437 -26.26773 26.2677 -26.26773c6.966675 0 13.647949 2.7674866 18.574097 7.693634c4.9261475 4.926178 7.6936646 11.607452 7.6936646 18.574097c0 14.507263 -11.760498 26.2677 -26.267761 26.2677c-14.507263 0 -26.2677 -11.760437 -26.2677 -26.2677z" fill-rule="evenodd"/><path stroke="#000000" stroke-width="3.0" stroke-linejoin="round" stroke-linecap="butt" d="m634.35065 461.4672c0 -14.507263 11.760437 -26.26773 26.2677 -26.26773c6.966675 0 13.647949 2.7674866 18.574097 7.693634c4.9261475 4.926178 7.6936646 11.607452 7.6936646 18.574097c0 14.507263 -11.760498 26.2677 -26.267761 26.2677c-14.507263 0 -26.2677 -11.760437 -26.2677 -26.2677z" fill-rule="evenodd"/><path fill="#000000" d="m652.2745 448.6822l14.21875 0l0 2.75l-11.125 0l0 8.5625l10.203125 0l0 2.75l-10.203125 0l0 9.296875l11.3125 0l0 2.765625l-14.40625 0l0 -26.125z" fill-rule="nonzero"/><path fill="#000000" fill-opacity="0.0" d="m607.5612 376.70007l34.48816 66.20471" fill-rule="evenodd"/><path stroke="#000000" stroke-width="2.0" stroke-linejoin="round" stroke-linecap="butt" d="m607.5612 376.70004l31.321533 60.125916" fill-rule="evenodd"/><path fill="#000000" stroke="#000000" stroke-width="2.0" stroke-linecap="butt" d="m638.88275 436.82596l-3.0338745 -0.95562744l4.8497314 4.4413757l-0.8602295 -6.519623z" fill-rule="evenodd"/><path fill="#000000" fill-opacity="0.0" d="m712.1204 376.70007l-32.91339 66.20471" fill-rule="evenodd"/><path stroke="#000000" stroke-width="2.0" stroke-linejoin="round" stroke-linecap="butt" stroke-dasharray="8.0,6.0" d="m712.1204 376.70007l-32.91339 66.20471" fill-rule="evenodd"/><path fill="#000000" fill-opacity="0.0" d="m770.25354 461.4672c0 -14.507263 11.760437 -26.26773 26.2677 -26.26773c6.966614 0 13.647949 2.7674866 18.574097 7.693634c4.9261475 4.926178 7.6936035 11.607452 7.6936035 18.574097c0 14.507263 -11.760437 26.2677 -26.2677 26.2677c-14.507263 0 -26.2677 -11.760437 -26.2677 -26.2677z" fill-rule="evenodd"/><path stroke="#000000" stroke-width="3.0" stroke-linejoin="round" stroke-linecap="butt" d="m770.25354 461.4672c0 -14.507263 11.760437 -26.26773 26.2677 -26.26773c6.966614 0 13.647949 2.7674866 18.574097 7.693634c4.9261475 4.926178 7.6936035 11.607452 7.6936035 18.574097c0 14.507263 -11.760437 26.2677 -26.2677 26.2677c-14.507263 0 -26.2677 -11.760437 -26.2677 -26.2677z" fill-rule="evenodd"/><path fill="#000000" d="m788.532 448.6822l14.21875 0l0 2.75l-11.125 0l0 8.921875l10.375 0l0 2.765625l-10.375 0l0 11.6875l-3.09375 0l0 -26.125z" fill-rule="nonzero"/><path fill="#000000" fill-opacity="0.0" d="m846.1328 363.1916c0 -14.507233 11.760437 -26.2677 26.2677 -26.2677c6.966614 0 13.647949 2.7674866 18.574097 7.693634c4.9261475 4.9261475 7.6936035 11.607452 7.6936035 18.574066c0 14.507263 -11.760437 26.26773 -26.2677 26.26773c-14.507263 0 -26.2677 -11.760468 -26.2677 -26.26773z" fill-rule="evenodd"/><path stroke="#000000" stroke-width="3.0" stroke-linejoin="round" stroke-linecap="butt" d="m846.1328 363.1916c0 -14.507233 11.760437 -26.2677 26.2677 -26.2677c6.966614 0 13.647949 2.7674866 18.574097 7.693634c4.9261475 4.9261475 7.6936035 11.607452 7.6936035 18.574066c0 14.507263 -11.760437 26.26773 -26.2677 26.26773c-14.507263 0 -26.2677 -11.760468 -26.2677 -26.26773z" fill-rule="evenodd"/><path fill="#000000" d="m880.12213 375.45346q-1.109375 0.859375 -2.828125 1.1875q-1.71875 0.34375 -3.65625 0.34375q-2.359375 0 -4.421875 -0.796875q-2.046875 -0.8125 -3.578125 -2.453125q-1.53125 -1.640625 -2.421875 -4.203125q-0.890625 -2.5625 -0.890625 -6.0625q0 -3.65625 0.984375 -6.21875q0.984375 -2.5625 2.609375 -4.171875q1.625 -1.625 3.640625 -2.375q2.015625 -0.75 4.109375 -0.75q2.234375 0 3.65625 0.25q1.421875 0.234375 2.421875 0.640625l-0.734375 2.734375q-1.796875 -0.859375 -5.125 -0.859375q-1.53125 0 -3.03125 0.5625q-1.484375 0.546875 -2.65625 1.828125q-1.171875 1.265625 -1.890625 3.328125q-0.703125 2.046875 -0.703125 5.03125q0 2.6875 0.671875 4.703125q0.671875 2.015625 1.84375 3.359375q1.1875 1.34375 2.765625 2.015625q1.59375 0.671875 3.453125 0.671875q1.6875 0 2.9375 -0.328125q1.25 -0.34375 2.109375 -0.875l0.734375 2.4375z" fill-rule="nonzero"/><path fill="#000000" fill-opacity="0.0" d="m489.01993 461.4672c0 -14.507263 11.760468 -26.26773 26.26773 -26.26773c6.966614 0 13.647949 2.7674866 18.574097 7.693634c4.9261475 4.926178 7.6936035 11.607452 7.6936035 18.574097c0 14.507263 -11.760437 26.2677 -26.2677 26.2677c-14.507263 0 -26.26773 -11.760437 -26.26773 -26.2677z" fill-rule="evenodd"/><path stroke="#000000" stroke-width="3.0" stroke-linejoin="round" stroke-linecap="butt" d="m489.01993 461.4672c0 -14.507263 11.760468 -26.26773 26.26773 -26.26773c6.966614 0 13.647949 2.7674866 18.574097 7.693634c4.9261475 4.926178 7.6936035 11.607452 7.6936035 18.574097c0 14.507263 -11.760437 26.2677 -26.2677 26.2677c-14.507263 0 -26.26773 -11.760437 -26.26773 -26.2677z" fill-rule="evenodd"/><path fill="#000000" d="m505.86185 448.6822q0.703125 -0.109375 1.578125 -0.171875q0.890625 -0.0625 1.84375 -0.078125q0.953125 -0.015625 1.859375 -0.03125q0.9219055 -0.015625 1.7031555 -0.015625q3.125 0 5.421875 0.96875q2.296875 0.96875 3.78125 2.703125q1.5 1.734375 2.234375 4.171875q0.734375 2.421875 0.734375 5.328125q0 2.65625 -0.703125 5.09375q-0.6875 2.4375 -2.1875 4.328125q-1.484375 1.890625 -3.875 3.03125q-2.390625 1.140625 -5.78125 1.140625q-0.5937805 0 -1.5469055 -0.03125q-0.953125 -0.015625 -1.96875 -0.078125q-1.0 -0.046875 -1.859375 -0.09375q-0.859375 -0.03125 -1.234375 -0.109375l0 -26.15625zm7.0625305 2.453125q-0.484375 0 -1.0781555 0q-0.578125 0 -1.140625 0.046875q-0.546875 0.03125 -1.015625 0.078125q-0.46875 0.03125 -0.734375 0.0625l0 20.90625q0.1875 0.046875 0.703125 0.0625q0.53125 0.015625 1.09375 0.03125q0.5625 0.015625 1.078125 0.046875q0.5312805 0.015625 0.7187805 0.015625q2.609375 0 4.375 -0.890625q1.78125 -0.90625 2.84375 -2.40625q1.0625 -1.515625 1.5 -3.46875q0.453125 -1.96875 0.453125 -4.0625q0 -1.828125 -0.40625 -3.671875q-0.40625 -1.859375 -1.421875 -3.34375q-1.0 -1.5 -2.703125 -2.453125q-1.703125 -0.953125 -4.265625 -0.953125z" fill-rule="nonzero"/><path fill="#000000" fill-opacity="0.0" d="m570.413 376.70007l-36.566895 66.20471" fill-rule="evenodd"/><path stroke="#000000" stroke-width="2.0" stroke-linejoin="round" stroke-linecap="butt" d="m570.4131 376.70004l-33.25305 60.204895" fill-rule="evenodd"/><path fill="#000000" stroke="#000000" stroke-width="2.0" stroke-linecap="butt" d="m537.16003 436.90497l-0.8814087 -3.0562744l-1.0188599 6.496704l4.956482 -4.321808z" fill-rule="evenodd"/><path fill="#000000" fill-opacity="0.0" d="m686.8861 461.4672l83.370056 0" fill-rule="evenodd"/><path stroke="#000000" stroke-width="2.0" stroke-linejoin="round" stroke-linecap="butt" d="m686.88605 461.4672l76.51593 0" fill-rule="evenodd"/><path fill="#000000" stroke="#000000" stroke-width="2.0" stroke-linecap="butt" d="m763.402 461.4672l-2.2491455 2.249176l6.1795044 -2.249176l-6.1795044 -2.249176z" fill-rule="evenodd"/><path fill="#000000" fill-opacity="0.0" d="m777.94714 442.8931l-28.692871 -66.20471" fill-rule="evenodd"/><path stroke="#000000" stroke-width="2.0" stroke-linejoin="round" stroke-linecap="butt" stroke-dasharray="8.0,6.0" d="m777.94714 442.8931l-28.692871 -66.20471" fill-rule="evenodd"/><path fill="#000000" fill-opacity="0.0" d="m815.09534 442.8931l38.740173 -61.13385" fill-rule="evenodd"/><path stroke="#000000" stroke-width="4.0" stroke-linejoin="round" stroke-linecap="butt" d="m815.09534 442.8931l38.740173 -61.13385" fill-rule="evenodd"/><path fill="#000000" fill-opacity="0.0" d="m615.2548 358.12598l89.165405 0" fill-rule="evenodd"/><path stroke="#000000" stroke-width="2.0" stroke-linejoin="round" stroke-linecap="butt" d="m615.2548 358.12598l82.31122 0" fill-rule="evenodd"/><path fill="#000000" stroke="#000000" stroke-width="2.0" stroke-linecap="butt" d="m697.56604 358.12598l-2.2492065 2.249176l6.1795654 -2.249176l-6.1795654 -2.2491455z" fill-rule="evenodd"/><path fill="#000000" fill-opacity="0.0" d="m1451.6771 25.161417l0 500.00003" fill-rule="evenodd"/><path stroke="#000000" stroke-width="1.0" stroke-linejoin="round" stroke-linecap="butt" d="m1451.6771 25.161417l0 500.00003" fill-rule="evenodd"/><path fill="#000000" fill-opacity="0.0" d="m1585.3027 152.02277c0 -14.507263 11.760498 -26.267715 26.2677 -26.267715c6.966675 0 13.647949 2.7674866 18.574097 7.693634c4.9261475 4.9261475 7.6936035 11.607452 7.6936035 18.574081c0 14.507263 -11.760376 26.267715 -26.2677 26.267715c-14.507202 0 -26.2677 -11.760452 -26.2677 -26.267715z" fill-rule="evenodd"/><path stroke="#000000" stroke-width="3.0" stroke-linejoin="round" stroke-linecap="butt" d="m1585.3027 152.02277c0 -14.507263 11.760498 -26.267715 26.2677 -26.267715c6.966675 0 13.647949 2.7674866 18.574097 7.693634c4.9261475 4.9261475 7.6936035 11.607452 7.6936035 18.574081c0 14.507263 -11.760376 26.267715 -26.2677 26.267715c-14.507202 0 -26.2677 -11.760452 -26.2677 -26.267715z" fill-rule="evenodd"/><path fill="#000000" d="m1614.7495 158.12839l-9.640625 0l-2.609375 7.234375l-3.0625 0l9.890625 -26.546875l1.421875 0l9.921875 26.546875l-3.234375 0l-2.6875 -7.234375zm-8.625 -2.6875l7.6875 0l-2.90625 -7.953125l-0.9375 -3.96875l-0.046875 0l-0.921875 4.03125l-2.875 7.890625z" fill-rule="nonzero"/><path fill="#000000" fill-opacity="0.0" d="m1585.3027 258.72208c0 -14.507263 11.760498 -26.26773 26.2677 -26.26773c6.966675 0 13.647949 2.7674866 18.574097 7.6936493c4.9261475 4.9261475 7.6936035 11.607437 7.6936035 18.574081c0 14.507263 -11.760376 26.2677 -26.2677 26.2677c-14.507202 0 -26.2677 -11.760437 -26.2677 -26.2677z" fill-rule="evenodd"/><path stroke="#000000" stroke-width="3.0" stroke-linejoin="round" stroke-linecap="butt" d="m1585.3027 258.72208c0 -14.507263 11.760498 -26.26773 26.2677 -26.26773c6.966675 0 13.647949 2.7674866 18.574097 7.6936493c4.9261475 4.9261475 7.6936035 11.607437 7.6936035 18.574081c0 14.507263 -11.760376 26.2677 -26.2677 26.2677c-14.507202 0 -26.2677 -11.760437 -26.2677 -26.2677z" fill-rule="evenodd"/><path fill="#000000" d="m1602.1447 245.93707q0.703125 -0.109375 1.578125 -0.171875q0.890625 -0.0625 1.84375 -0.078125q0.953125 -0.015625 1.859375 -0.03125q0.921875 -0.015625 1.703125 -0.015625q3.125 0 5.421875 0.96875q2.296875 0.96875 3.78125 2.703125q1.5 1.734375 2.234375 4.171875q0.734375 2.421875 0.734375 5.328125q0 2.65625 -0.703125 5.09375q-0.6875 2.4375 -2.1875 4.328125q-1.484375 1.890625 -3.875 3.03125q-2.390625 1.140625 -5.78125 1.140625q-0.59375 0 -1.546875 -0.03125q-0.953125 -0.015625 -1.96875 -0.078125q-1.0 -0.046875 -1.859375 -0.09375q-0.859375 -0.03125 -1.234375 -0.109375l0 -26.15625zm7.0625 2.453125q-0.484375 0 -1.078125 0q-0.578125 0 -1.140625 0.046875q-0.546875 0.03125 -1.015625 0.078125q-0.46875 0.03125 -0.734375 0.0625l0 20.90625q0.1875 0.046875 0.703125 0.0625q0.53125 0.015625 1.09375 0.03125q0.5625 0.015625 1.078125 0.046875q0.53125 0.015625 0.71875 0.015625q2.609375 0 4.375 -0.890625q1.78125 -0.90625 2.84375 -2.40625q1.0625 -1.515625 1.5 -3.46875q0.453125 -1.96875 0.453125 -4.0625q0 -1.828125 -0.40625 -3.671875q-0.40625 -1.859375 -1.421875 -3.34375q-1.0 -1.5 -2.703125 -2.453125q-1.703125 -0.953125 -4.265625 -0.953125z" fill-rule="nonzero"/><path fill="#000000" fill-opacity="0.0" d="m1611.5704 178.29048l0 54.173233" fill-rule="evenodd"/><path stroke="#000000" stroke-width="2.0" stroke-linejoin="round" stroke-linecap="butt" d="m1611.5706 178.29048l0 47.31906" fill-rule="evenodd"/><path fill="#000000" stroke="#000000" stroke-width="2.0" stroke-linecap="butt" d="m1611.5706 225.60953l-2.2491455 -2.2491608l2.2491455 6.179535l2.2491455 -6.179535z" fill-rule="evenodd"/><path fill="#000000" fill-opacity="0.0" d="m1503.9536 258.78638c0 -14.507263 11.760498 -26.267715 26.267822 -26.267715c6.9665527 0 13.647827 2.7674866 18.573975 7.693634c4.9262695 4.9261475 7.6937256 11.607452 7.6937256 18.574081c0 14.507263 -11.760498 26.2677 -26.2677 26.2677c-14.507324 0 -26.267822 -11.760437 -26.267822 -26.2677z" fill-rule="evenodd"/><path stroke="#000000" stroke-width="3.0" stroke-linejoin="round" stroke-linecap="butt" d="m1503.9536 258.78638c0 -14.507263 11.760498 -26.267715 26.267822 -26.267715c6.9665527 0 13.647827 2.7674866 18.573975 7.693634c4.9262695 4.9261475 7.6937256 11.607452 7.6937256 18.574081c0 14.507263 -11.760498 26.2677 -26.2677 26.2677c-14.507324 0 -26.267822 -11.760437 -26.267822 -26.2677z" fill-rule="evenodd"/><path fill="#000000" d="m1536.7316 251.97012q0 0.9375 -0.296875 1.90625q-0.296875 0.96875 -0.890625 1.8125q-0.59375 0.828125 -1.53125 1.46875q-0.9375 0.640625 -2.203125 0.96875l0 0.15625q1.125 0.1875 2.140625 0.640625q1.03125 0.4375 1.8125 1.21875q0.78125 0.78125 1.265625 1.90625q0.484375 1.125 0.484375 2.65625q0 2.015625 -0.84375 3.484375q-0.828125 1.46875 -2.203125 2.40625q-1.359375 0.9375 -3.109375 1.390625q-1.75 0.4375 -3.578125 0.4375q-0.640625 0 -1.5 0q-0.859375 0 -1.796875 -0.0625q-0.921875 -0.046875 -1.859375 -0.140625q-0.9375 -0.09375 -1.640625 -0.28125l0 -25.71875q1.375 -0.21875 3.203125 -0.359375q1.84375 -0.15625 4.0 -0.15625q1.453125 0 2.96875 0.25q1.515625 0.234375 2.734375 0.921875q1.234375 0.6875 2.03125 1.921875q0.8125 1.234375 0.8125 3.171875zm-8.65625 17.765625q1.1875 0 2.3125 -0.28125q1.125 -0.28125 1.984375 -0.890625q0.859375 -0.625 1.359375 -1.515625q0.5 -0.890625 0.5 -2.125q0 -1.53125 -0.625 -2.453125q-0.609375 -0.9375 -1.59375 -1.453125q-0.984375 -0.53125 -2.21875 -0.71875q-1.234375 -0.1875 -2.46875 -0.1875l-3.25 0l0 9.359375q0.265625 0.078125 0.75 0.125q0.484375 0.03125 1.046875 0.078125q0.5625 0.03125 1.15625 0.046875q0.59375 0.015625 1.046875 0.015625zm-2.046875 -12.234375q0.625 0 1.515625 -0.03125q0.90625 -0.046875 1.5 -0.125q0.890625 -0.296875 1.671875 -0.71875q0.796875 -0.4375 1.40625 -1.015625q0.625 -0.578125 0.96875 -1.34375q0.359375 -0.765625 0.359375 -1.65625q0 -1.234375 -0.46875 -2.03125q-0.46875 -0.8125 -1.25 -1.296875q-0.78125 -0.484375 -1.796875 -0.6875q-1.0 -0.203125 -2.046875 -0.203125q-1.234375 0 -2.265625 0.0625q-1.015625 0.046875 -1.546875 0.15625l0 8.890625l1.953125 0z" fill-rule="nonzero"/><path fill="#000000" fill-opacity="0.0" d="m1666.6506 258.7234c0 -14.507263 11.760498 -26.26773 26.267822 -26.26773c6.9665527 0 13.647827 2.7674866 18.573975 7.6936493c4.9262695 4.9261475 7.6937256 11.607437 7.6937256 18.574081c0 14.507263 -11.760498 26.2677 -26.2677 26.2677c-14.507324 0 -26.267822 -11.760437 -26.267822 -26.2677z" fill-rule="evenodd"/><path stroke="#000000" stroke-width="3.0" stroke-linejoin="round" stroke-linecap="butt" d="m1666.6506 258.7234c0 -14.507263 11.760498 -26.26773 26.267822 -26.26773c6.9665527 0 13.647827 2.7674866 18.573975 7.6936493c4.9262695 4.9261475 7.6937256 11.607437 7.6937256 18.574081c0 14.507263 -11.760498 26.2677 -26.2677 26.2677c-14.507324 0 -26.267822 -11.760437 -26.267822 -26.2677z" fill-rule="evenodd"/><path fill="#000000" d="m1684.5745 245.93839l14.21875 0l0 2.75l-11.125 0l0 8.5625l10.203125 0l0 2.75l-10.203125 0l0 9.296875l11.3125 0l0 2.765625l-14.40625 0l0 -26.125z" fill-rule="nonzero"/><path fill="#000000" fill-opacity="0.0" d="m1503.9539 352.10922c0 -14.507263 11.760498 -26.26773 26.2677 -26.26773c6.966675 0 13.647949 2.7674866 18.574097 7.693634c4.9261475 4.9261475 7.6936035 11.607452 7.6936035 18.574097c0 14.507233 -11.760498 26.2677 -26.2677 26.2677c-14.507202 0 -26.2677 -11.760468 -26.2677 -26.2677z" fill-rule="evenodd"/><path stroke="#000000" stroke-width="3.0" stroke-linejoin="round" stroke-linecap="butt" d="m1503.9539 352.10922c0 -14.507263 11.760498 -26.26773 26.2677 -26.26773c6.966675 0 13.647949 2.7674866 18.574097 7.693634c4.9261475 4.9261475 7.6936035 11.607452 7.6936035 18.574097c0 14.507233 -11.760498 26.2677 -26.2677 26.2677c-14.507202 0 -26.2677 -11.760468 -26.2677 -26.2677z" fill-rule="evenodd"/><path fill="#000000" d="m1522.2323 339.32422l14.21875 0l0 2.75l-11.125 0l0 8.921875l10.375 0l0 2.765625l-10.375 0l0 11.6875l-3.09375 0l0 -26.125z" fill-rule="nonzero"/><path fill="#000000" fill-opacity="0.0" d="m1503.5654 445.43204c0 -14.507263 11.760376 -26.2677 26.2677 -26.2677c6.9665527 0 13.647949 2.7674866 18.574097 7.693634c4.9261475 4.9261475 7.6936035 11.607452 7.6936035 18.574066c0 14.507263 -11.760498 26.26773 -26.2677 26.26773c-14.507324 0 -26.2677 -11.760468 -26.2677 -26.26773z" fill-rule="evenodd"/><path stroke="#000000" stroke-width="3.0" stroke-linejoin="round" stroke-linecap="butt" d="m1503.5654 445.43204c0 -14.507263 11.760376 -26.2677 26.2677 -26.2677c6.9665527 0 13.647949 2.7674866 18.574097 7.693634c4.9261475 4.9261475 7.6936035 11.607452 7.6936035 18.574066c0 14.507263 -11.760498 26.26773 -26.2677 26.26773c-14.507324 0 -26.2677 -11.760468 -26.2677 -26.26773z" fill-rule="evenodd"/><path fill="#000000" d="m1537.5547 457.6939q-1.109375 0.859375 -2.828125 1.1875q-1.71875 0.34375 -3.65625 0.34375q-2.359375 0 -4.421875 -0.796875q-2.046875 -0.8125 -3.578125 -2.453125q-1.53125 -1.640625 -2.421875 -4.203125q-0.890625 -2.5625 -0.890625 -6.0625q0 -3.65625 0.984375 -6.21875q0.984375 -2.5625 2.609375 -4.171875q1.625 -1.625 3.640625 -2.375q2.015625 -0.75 4.109375 -0.75q2.234375 0 3.65625 0.25q1.421875 0.234375 2.421875 0.640625l-0.734375 2.734375q-1.796875 -0.859375 -5.125 -0.859375q-1.53125 0 -3.03125 0.5625q-1.484375 0.546875 -2.65625 1.828125q-1.171875 1.265625 -1.890625 3.328125q-0.703125 2.046875 -0.703125 5.03125q0 2.6875 0.671875 4.703125q0.671875 2.015625 1.84375 3.359375q1.1875 1.34375 2.765625 2.015625q1.59375 0.671875 3.453125 0.671875q1.6875 0 2.9375 -0.328125q1.25 -0.34375 2.109375 -0.875l0.734375 2.4375z" fill-rule="nonzero"/><path fill="#000000" fill-opacity="0.0" d="m1530.2214 285.05408l0 40.787415" fill-rule="evenodd"/><path stroke="#000000" stroke-width="2.0" stroke-linejoin="round" stroke-linecap="butt" d="m1530.2214 285.0541l0 33.933228" fill-rule="evenodd"/><path fill="#000000" stroke="#000000" stroke-width="2.0" stroke-linecap="butt" d="m1530.2214 318.98734l-2.2491455 -2.249176l2.2491455 6.179535l2.2491455 -6.179535z" fill-rule="evenodd"/><path fill="#000000" fill-opacity="0.0" d="m1530.2216 378.37692l-0.3779297 40.787415" fill-rule="evenodd"/><path stroke="#000000" stroke-width="2.0" stroke-linejoin="round" stroke-linecap="butt" d="m1530.2217 378.37692l-0.3145752 33.933533" fill-rule="evenodd"/><path fill="#000000" stroke="#000000" stroke-width="2.0" stroke-linecap="butt" d="m1529.9072 412.31046l-2.2282715 -2.269928l2.1917725 6.2001343l2.3063965 -6.1584473z" fill-rule="evenodd"/><path fill="#000000" fill-opacity="0.0" d="m1630.1445 170.59685l62.77173 61.85826" fill-rule="evenodd"/><path stroke="#000000" stroke-width="2.0" stroke-linejoin="round" stroke-linecap="butt" d="m1630.1445 170.59685l57.88965 57.047287" fill-rule="evenodd"/><path fill="#000000" stroke="#000000" stroke-width="2.0" stroke-linecap="butt" d="m1688.0342 227.64413l-3.1807861 0.02330017l5.9802246 2.735443l-2.822754 -5.9394684z" fill-rule="evenodd"/><path fill="#000000" fill-opacity="0.0" d="m1082.7542 126.29324l34.48816 66.20473" fill-rule="evenodd"/><path stroke="#000000" stroke-width="4.0" stroke-linejoin="round" stroke-linecap="butt" d="m1082.7542 126.29324l34.48816 66.20473" fill-rule="evenodd"/><path fill="#000000" d="m1089.4763 149.43059c0 -2.91362 2.3620605 -5.275589 5.275635 -5.275589c1.3991699 0 2.7410889 0.55581665 3.7303467 1.5451813c0.9893799 0.9893646 1.5452881 2.3312378 1.5452881 3.7304077c0 2.9136353 -2.3620605 5.275589 -5.275635 5.275589c-2.9135742 0 -5.275635 -2.3619537 -5.275635 -5.275589z" fill-rule="evenodd"/><path stroke="#000000" stroke-width="1.0" stroke-linejoin="round" stroke-linecap="butt" d="m1089.4763 149.43059c0 -2.91362 2.3620605 -5.275589 5.275635 -5.275589c1.3991699 0 2.7410889 0.55581665 3.7303467 1.5451813c0.9893799 0.9893646 1.5452881 2.3312378 1.5452881 3.7304077c0 2.9136353 -2.3620605 5.275589 -5.275635 5.275589c-2.9135742 0 -5.275635 -2.3619537 -5.275635 -5.275589z" fill-rule="evenodd"/><path fill="#000000" d="m256.8362 451.5174c0 -2.9136353 2.361969 -5.2756042 5.2755737 -5.2756042c1.3991699 0 2.7410583 0.55581665 3.7304077 1.5451965c0.9893799 0.98934937 1.5451965 2.3312378 1.5451965 3.7304077c0 2.9136047 -2.361969 5.2755737 -5.2756042 5.2755737c-2.9136047 0 -5.2755737 -2.361969 -5.2755737 -5.2755737z" fill-rule="evenodd"/><path stroke="#000000" stroke-width="1.0" stroke-linejoin="round" stroke-linecap="butt" d="m256.8362 451.5174c0 -2.9136353 2.361969 -5.2756042 5.2755737 -5.2756042c1.3991699 0 2.7410583 0.55581665 3.7304077 1.5451965c0.9893799 0.98934937 1.5451965 2.3312378 1.5451965 3.7304077c0 2.9136047 -2.361969 5.2755737 -5.2756042 5.2755737c-2.9136047 0 -5.2755737 -2.361969 -5.2755737 -5.2755737z" fill-rule="evenodd"/><path fill="#000000" fill-opacity="0.0" d="m1592.9963 170.59685l-62.771606 61.92125" fill-rule="evenodd"/><path stroke="#000000" stroke-width="2.0" stroke-linejoin="round" stroke-linecap="butt" d="m1592.9963 170.59685l-57.891968 57.107788" fill-rule="evenodd"/><path fill="#000000" stroke="#000000" stroke-width="2.0" stroke-linecap="butt" d="m1535.1044 227.70464l0.021606445 -3.180725l-2.8197021 5.9409027l5.97876 -2.7384796z" fill-rule="evenodd"/><path fill="#000000" d="m825.8829 418.6865c0 -2.9136353 2.3619385 -5.2756042 5.2755737 -5.2756042c1.3991699 0 2.7410278 0.55584717 3.7304077 1.5451965c0.9893799 0.9893799 1.545166 2.3312378 1.545166 3.7304077c0 2.9136353 -2.3619385 5.2756042 -5.2755737 5.2756042c-2.9136353 0 -5.2755737 -2.361969 -5.2755737 -5.2756042z" fill-rule="evenodd"/><path stroke="#000000" stroke-width="1.0" stroke-linejoin="round" stroke-linecap="butt" d="m825.8829 418.6865c0 -2.9136353 2.3619385 -5.2756042 5.2755737 -5.2756042c1.3991699 0 2.7410278 0.55584717 3.7304077 1.5451965c0.9893799 0.9893799 1.545166 2.3312378 1.545166 3.7304077c0 2.9136353 -2.3619385 5.2756042 -5.2755737 5.2756042c-2.9136353 0 -5.2755737 -2.361969 -5.2755737 -5.2756042z" fill-rule="evenodd"/><path fill="#efefef" d="m987.93005 498.28137c29.089233 26.571716 162.16492 26.84253 225.72437 26.097107c63.55957 -0.74542236 121.757324 -1.2686157 155.63257 -30.56955c33.875366 -29.300964 60.912964 -113.887146 47.619507 -145.23624c-13.293579 -31.34909 -78.10681 -35.468506 -127.380615 -42.858276c-49.273804 -7.38974 -126.527954 -11.35257 -168.26245 -1.4803162c-41.734497 9.872284 -59.92212 28.372711 -82.14441 60.71393c-22.222168 32.341217 -80.2782 106.7616 -51.188965 133.33334z" fill-rule="evenodd"/><path stroke="#000000" stroke-width="1.0" stroke-linejoin="round" stroke-linecap="butt" d="m987.93005 498.28137c29.089233 26.571716 162.16492 26.84253 225.72437 26.097107c63.55957 -0.74542236 121.757324 -1.2686157 155.63257 -30.56955c33.875366 -29.300964 60.912964 -113.887146 47.619507 -145.23624c-13.293579 -31.34909 -78.10681 -35.468506 -127.380615 -42.858276c-49.273804 -7.38974 -126.527954 -11.35257 -168.26245 -1.4803162c-41.734497 9.872284 -59.92212 28.372711 -82.14441 60.71393c-22.222168 32.341217 -80.2782 106.7616 -51.188965 133.33334z" fill-rule="evenodd"/><path fill="#000000" fill-opacity="0.0" d="m1067.789 366.40683c0 -14.507263 11.760498 -26.26773 26.2677 -26.26773c6.966675 0 13.647949 2.7674866 18.574097 7.693634c4.9261475 4.926178 7.6936035 11.607452 7.6936035 18.574097c0 14.507263 -11.760376 26.2677 -26.2677 26.2677c-14.507202 0 -26.2677 -11.760437 -26.2677 -26.2677z" fill-rule="evenodd"/><path stroke="#000000" stroke-width="3.0" stroke-linejoin="round" stroke-linecap="butt" d="m1067.789 366.40683c0 -14.507263 11.760498 -26.26773 26.2677 -26.26773c6.966675 0 13.647949 2.7674866 18.574097 7.693634c4.9261475 4.926178 7.6936035 11.607452 7.6936035 18.574097c0 14.507263 -11.760376 26.2677 -26.2677 26.2677c-14.507202 0 -26.2677 -11.760437 -26.2677 -26.2677z" fill-rule="evenodd"/><path fill="#000000" d="m1097.2357 372.51245l-9.640625 0l-2.609375 7.234375l-3.0625 0l9.890625 -26.546875l1.421875 0l9.921875 26.546875l-3.234375 0l-2.6875 -7.234375zm-8.625 -2.6875l7.6875 0l-2.90625 -7.953125l-0.9375 -3.96875l-0.046875 0l-0.921875 4.03125l-2.875 7.890625z" fill-rule="nonzero"/><path fill="#000000" fill-opacity="0.0" d="m1209.4963 366.40683c0 -14.507263 11.760376 -26.26773 26.2677 -26.26773c6.966675 0 13.647949 2.7674866 18.574097 7.693634c4.9261475 4.926178 7.6936035 11.607452 7.6936035 18.574097c0 14.507263 -11.760498 26.2677 -26.2677 26.2677c-14.507324 0 -26.2677 -11.760437 -26.2677 -26.2677z" fill-rule="evenodd"/><path stroke="#000000" stroke-width="3.0" stroke-linejoin="round" stroke-linecap="butt" d="m1209.4963 366.40683c0 -14.507263 11.760376 -26.26773 26.2677 -26.26773c6.966675 0 13.647949 2.7674866 18.574097 7.693634c4.9261475 4.926178 7.6936035 11.607452 7.6936035 18.574097c0 14.507263 -11.760498 26.2677 -26.2677 26.2677c-14.507324 0 -26.2677 -11.760437 -26.2677 -26.2677z" fill-rule="evenodd"/><path fill="#000000" d="m1242.2743 359.59058q0 0.9375 -0.296875 1.90625q-0.296875 0.96875 -0.890625 1.8125q-0.59375 0.828125 -1.53125 1.46875q-0.9375 0.640625 -2.203125 0.96875l0 0.15625q1.125 0.1875 2.140625 0.640625q1.03125 0.4375 1.8125 1.21875q0.78125 0.78125 1.265625 1.90625q0.484375 1.125 0.484375 2.65625q0 2.015625 -0.84375 3.484375q-0.828125 1.46875 -2.203125 2.40625q-1.359375 0.9375 -3.109375 1.390625q-1.75 0.4375 -3.578125 0.4375q-0.640625 0 -1.5 0q-0.859375 0 -1.796875 -0.0625q-0.921875 -0.046875 -1.859375 -0.140625q-0.9375 -0.09375 -1.640625 -0.28125l0 -25.71875q1.375 -0.21875 3.203125 -0.359375q1.84375 -0.15625 4.0 -0.15625q1.453125 0 2.96875 0.25q1.515625 0.234375 2.734375 0.921875q1.234375 0.6875 2.03125 1.921875q0.8125 1.234375 0.8125 3.171875zm-8.65625 17.765625q1.1875 0 2.3125 -0.28125q1.125 -0.28125 1.984375 -0.890625q0.859375 -0.625 1.359375 -1.515625q0.5 -0.890625 0.5 -2.125q0 -1.53125 -0.625 -2.453125q-0.609375 -0.9375 -1.59375 -1.453125q-0.984375 -0.53125 -2.21875 -0.71875q-1.234375 -0.1875 -2.46875 -0.1875l-3.25 0l0 9.359375q0.265625 0.078125 0.75 0.125q0.484375 0.03125 1.046875 0.078125q0.5625 0.03125 1.15625 0.046875q0.59375 0.015625 1.046875 0.015625zm-2.046875 -12.234375q0.625 0 1.515625 -0.03125q0.90625 -0.046875 1.5 -0.125q0.890625 -0.296875 1.671875 -0.71875q0.796875 -0.4375 1.40625 -1.015625q0.625 -0.578125 0.96875 -1.34375q0.359375 -0.765625 0.359375 -1.65625q0 -1.234375 -0.46875 -2.03125q-0.46875 -0.8125 -1.25 -1.296875q-0.78125 -0.484375 -1.796875 -0.6875q-1.0 -0.203125 -2.046875 -0.203125q-1.234375 0 -2.265625 0.0625q-1.015625 0.046875 -1.546875 0.15625l0 8.890625l1.953125 0z" fill-rule="nonzero"/><path fill="#000000" fill-opacity="0.0" d="m1139.4202 469.74802c0 -14.507233 11.760498 -26.2677 26.2677 -26.2677c6.966675 0 13.647949 2.7674866 18.574097 7.693634c4.9261475 4.9261475 7.6937256 11.607452 7.6937256 18.574066c0 14.507263 -11.760498 26.26773 -26.267822 26.26773c-14.507202 0 -26.2677 -11.760468 -26.2677 -26.26773z" fill-rule="evenodd"/><path stroke="#000000" stroke-width="3.0" stroke-linejoin="round" stroke-linecap="butt" d="m1139.4202 469.74802c0 -14.507233 11.760498 -26.2677 26.2677 -26.2677c6.966675 0 13.647949 2.7674866 18.574097 7.693634c4.9261475 4.9261475 7.6937256 11.607452 7.6937256 18.574066c0 14.507263 -11.760498 26.26773 -26.267822 26.26773c-14.507202 0 -26.2677 -11.760468 -26.2677 -26.26773z" fill-rule="evenodd"/><path fill="#000000" d="m1157.344 456.96304l14.21875 0l0 2.75l-11.125 0l0 8.5625l10.203125 0l0 2.75l-10.203125 0l0 9.296875l11.3125 0l0 2.765625l-14.40625 0l0 -26.125z" fill-rule="nonzero"/><path fill="#000000" fill-opacity="0.0" d="m1112.6307 384.9809l34.48816 66.20474" fill-rule="evenodd"/><path stroke="#000000" stroke-width="2.0" stroke-linejoin="round" stroke-linecap="butt" d="m1112.6307 384.9809l31.321533 60.125885" fill-rule="evenodd"/><path fill="#000000" stroke="#000000" stroke-width="2.0" stroke-linecap="butt" d="m1143.9523 445.1068l-3.0338135 -0.95562744l4.8496094 4.4413757l-0.8602295 -6.519623z" fill-rule="evenodd"/><path fill="#000000" fill-opacity="0.0" d="m1217.19 384.9809l-32.91333 66.20474" fill-rule="evenodd"/><path stroke="#000000" stroke-width="2.0" stroke-linejoin="round" stroke-linecap="butt" stroke-dasharray="8.0,6.0" d="m1217.19 384.9809l-32.91333 66.20474" fill-rule="evenodd"/><path fill="#000000" fill-opacity="0.0" d="m1275.3231 469.74802c0 -14.507233 11.760376 -26.2677 26.2677 -26.2677c6.966675 0 13.647949 2.7674866 18.574097 7.693634c4.9261475 4.9261475 7.6936035 11.607452 7.6936035 18.574066c0 14.507263 -11.760498 26.26773 -26.2677 26.26773c-14.507324 0 -26.2677 -11.760468 -26.2677 -26.26773z" fill-rule="evenodd"/><path stroke="#000000" stroke-width="3.0" stroke-linejoin="round" stroke-linecap="butt" d="m1275.3231 469.74802c0 -14.507233 11.760376 -26.2677 26.2677 -26.2677c6.966675 0 13.647949 2.7674866 18.574097 7.693634c4.9261475 4.9261475 7.6936035 11.607452 7.6936035 18.574066c0 14.507263 -11.760498 26.26773 -26.2677 26.26773c-14.507324 0 -26.2677 -11.760468 -26.2677 -26.26773z" fill-rule="evenodd"/><path fill="#000000" d="m1293.6016 456.96304l14.21875 0l0 2.75l-11.125 0l0 8.921875l10.375 0l0 2.765625l-10.375 0l0 11.6875l-3.09375 0l0 -26.125z" fill-rule="nonzero"/><path fill="#000000" fill-opacity="0.0" d="m1351.2024 371.47244c0 -14.507263 11.760376 -26.26773 26.2677 -26.26773c6.9665527 0 13.647949 2.7674866 18.574097 7.693634c4.9261475 4.926178 7.6936035 11.607452 7.6936035 18.574097c0 14.507263 -11.760498 26.2677 -26.2677 26.2677c-14.507324 0 -26.2677 -11.760437 -26.2677 -26.2677z" fill-rule="evenodd"/><path stroke="#000000" stroke-width="3.0" stroke-linejoin="round" stroke-linecap="butt" d="m1351.2024 371.47244c0 -14.507263 11.760376 -26.26773 26.2677 -26.26773c6.9665527 0 13.647949 2.7674866 18.574097 7.693634c4.9261475 4.926178 7.6936035 11.607452 7.6936035 18.574097c0 14.507263 -11.760498 26.2677 -26.2677 26.2677c-14.507324 0 -26.2677 -11.760437 -26.2677 -26.2677z" fill-rule="evenodd"/><path fill="#000000" d="m1385.1917 383.7343q-1.109375 0.859375 -2.828125 1.1875q-1.71875 0.34375 -3.65625 0.34375q-2.359375 0 -4.421875 -0.796875q-2.046875 -0.8125 -3.578125 -2.453125q-1.53125 -1.640625 -2.421875 -4.203125q-0.890625 -2.5625 -0.890625 -6.0625q0 -3.65625 0.984375 -6.21875q0.984375 -2.5625 2.609375 -4.171875q1.625 -1.625 3.640625 -2.375q2.015625 -0.75 4.109375 -0.75q2.234375 0 3.65625 0.25q1.421875 0.234375 2.421875 0.640625l-0.734375 2.734375q-1.796875 -0.859375 -5.125 -0.859375q-1.53125 0 -3.03125 0.5625q-1.484375 0.546875 -2.65625 1.828125q-1.171875 1.265625 -1.890625 3.328125q-0.703125 2.046875 -0.703125 5.03125q0 2.6875 0.671875 4.703125q0.671875 2.015625 1.84375 3.359375q1.1875 1.34375 2.765625 2.015625q1.59375 0.671875 3.453125 0.671875q1.6875 0 2.9375 -0.328125q1.25 -0.34375 2.109375 -0.875l0.734375 2.4375z" fill-rule="nonzero"/><path fill="#000000" fill-opacity="0.0" d="m994.0895 469.74802c0 -14.507233 11.760498 -26.2677 26.267761 -26.2677c6.966614 0 13.647888 2.7674866 18.574036 7.693634c4.9261475 4.9261475 7.6936035 11.607452 7.6936035 18.574066c0 14.507263 -11.760376 26.26773 -26.26764 26.26773c-14.507263 0 -26.267761 -11.760468 -26.267761 -26.26773z" fill-rule="evenodd"/><path stroke="#000000" stroke-width="3.0" stroke-linejoin="round" stroke-linecap="butt" d="m994.0895 469.74802c0 -14.507233 11.760498 -26.2677 26.267761 -26.2677c6.966614 0 13.647888 2.7674866 18.574036 7.693634c4.9261475 4.9261475 7.6936035 11.607452 7.6936035 18.574066c0 14.507263 -11.760376 26.26773 -26.26764 26.26773c-14.507263 0 -26.267761 -11.760468 -26.267761 -26.26773z" fill-rule="evenodd"/><path fill="#000000" d="m1010.9314 456.96304q0.703125 -0.109375 1.578125 -0.171875q0.890625 -0.0625 1.84375 -0.078125q0.953125 -0.015625 1.859375 -0.03125q0.921875 -0.015625 1.703125 -0.015625q3.125 0 5.421875 0.96875q2.296875 0.96875 3.78125 2.703125q1.5 1.734375 2.234375 4.171875q0.734375 2.421875 0.734375 5.328125q0 2.65625 -0.703125 5.09375q-0.6875 2.4375 -2.1875 4.328125q-1.484375 1.890625 -3.875 3.03125q-2.390625 1.140625 -5.78125 1.140625q-0.59375 0 -1.546875 -0.03125q-0.953125 -0.015625 -1.96875 -0.078125q-1.0 -0.046875 -1.859375 -0.09375q-0.859375 -0.03125 -1.234375 -0.109375l0 -26.15625zm7.0625 2.453125q-0.484375 0 -1.078125 0q-0.578125 0 -1.140625 0.046875q-0.546875 0.03125 -1.015625 0.078125q-0.46875 0.03125 -0.734375 0.0625l0 20.90625q0.1875 0.046875 0.703125 0.0625q0.53125 0.015625 1.09375 0.03125q0.5625 0.015625 1.078125 0.046875q0.53125 0.015625 0.71875 0.015625q2.609375 0 4.375 -0.890625q1.78125 -0.90625 2.84375 -2.40625q1.0625 -1.515625 1.5 -3.46875q0.453125 -1.96875 0.453125 -4.0625q0 -1.828125 -0.40625 -3.671875q-0.40625 -1.859375 -1.421875 -3.34375q-1.0 -1.5 -2.703125 -2.453125q-1.703125 -0.953125 -4.265625 -0.953125z" fill-rule="nonzero"/><path fill="#000000" fill-opacity="0.0" d="m1075.4825 384.9809l-36.566895 66.20474" fill-rule="evenodd"/><path stroke="#000000" stroke-width="2.0" stroke-linejoin="round" stroke-linecap="butt" d="m1075.4827 384.9809l-33.25305 60.204895" fill-rule="evenodd"/><path fill="#000000" stroke="#000000" stroke-width="2.0" stroke-linecap="butt" d="m1042.2296 445.1858l-0.8814697 -3.056244l-1.0187988 6.496704l4.956421 -4.3218384z" fill-rule="evenodd"/><path fill="#000000" fill-opacity="0.0" d="m1191.9557 469.74802l83.369995 0" fill-rule="evenodd"/><path stroke="#000000" stroke-width="2.0" stroke-linejoin="round" stroke-linecap="butt" d="m1191.9556 469.74802l76.51599 0" fill-rule="evenodd"/><path fill="#000000" stroke="#000000" stroke-width="2.0" stroke-linecap="butt" d="m1268.4716 469.74802l-2.2491455 2.249176l6.1794434 -2.249176l-6.1794434 -2.2491455z" fill-rule="evenodd"/><path fill="#000000" fill-opacity="0.0" d="m1283.0167 451.17395l-28.692871 -66.20471" fill-rule="evenodd"/><path stroke="#000000" stroke-width="2.0" stroke-linejoin="round" stroke-linecap="butt" stroke-dasharray="8.0,6.0" d="m1283.0167 451.17395l-28.692871 -66.20471" fill-rule="evenodd"/><path fill="#000000" fill-opacity="0.0" d="m1320.1649 451.17395l38.740112 -61.13385" fill-rule="evenodd"/><path stroke="#000000" stroke-width="2.0" stroke-linejoin="round" stroke-linecap="butt" d="m1320.1649 451.17398l35.07129 -55.3443" fill-rule="evenodd"/><path fill="#000000" stroke="#000000" stroke-width="2.0" stroke-linecap="butt" d="m1355.2362 395.8297l0.69592285 3.1037292l1.4078369 -6.423645l-5.2075195 4.015808z" fill-rule="evenodd"/><path fill="#000000" fill-opacity="0.0" d="m1120.3243 366.40683l89.165405 0" fill-rule="evenodd"/><path stroke="#000000" stroke-width="2.0" stroke-linejoin="round" stroke-linecap="butt" d="m1120.3243 366.40683l82.31128 0" fill-rule="evenodd"/><path fill="#000000" stroke="#000000" stroke-width="2.0" stroke-linecap="butt" d="m1202.6356 366.40683l-2.2492676 2.249176l6.1795654 -2.249176l-6.1795654 -2.249176z" fill-rule="evenodd"/><path fill="#000000" d="m747.5821 139.47652c0 -2.91362 2.3619995 -5.275589 5.275635 -5.275589c1.3991699 0 2.7410278 0.55581665 3.7304077 1.5451813c0.98931885 0.9893646 1.545166 2.3312378 1.545166 3.7304077c0 2.9136353 -2.3619385 5.275589 -5.2755737 5.275589c-2.9136353 0 -5.275635 -2.3619537 -5.275635 -5.275589z" fill-rule="evenodd"/><path stroke="#000000" stroke-width="1.0" stroke-linejoin="round" stroke-linecap="butt" d="m747.5821 139.47652c0 -2.91362 2.3619995 -5.275589 5.275635 -5.275589c1.3991699 0 2.7410278 0.55581665 3.7304077 1.5451813c0.98931885 0.9893646 1.545166 2.3312378 1.545166 3.7304077c0 2.9136353 -2.3619385 5.275589 -5.2755737 5.275589c-2.9136353 0 -5.275635 -2.3619537 -5.275635 -5.275589z" fill-rule="evenodd"/></g></svg>