<svg version="1.1" viewBox="0.0 0.0 574.9133858267717 167.501312335958" fill="none" stroke="none" stroke-linecap="square" stroke-miterlimit="10" xmlns:xlink="http://www.w3.org/1999/xlink" xmlns="http://www.w3.org/2000/svg"><clipPath id="p.0"><path d="m0 0l574.9134 0l0 167.50131l-574.9134 0l0 -167.50131z" clip-rule="nonzero"/></clipPath><g clip-path="url(#p.0)"><path fill="#000000" fill-opacity="0.0" d="m0 0l574.9134 0l0 167.50131l-574.9134 0z" fill-rule="evenodd"/><path fill="#000000" fill-opacity="0.0" d="m190.6378 3.2624671l0 161.70079" fill-rule="evenodd"/><path stroke="#000000" stroke-width="1.0" stroke-linejoin="round" stroke-linecap="butt" d="m190.6378 3.2624671l0 161.70079" fill-rule="evenodd"/><path fill="#000000" fill-opacity="0.0" d="m410.8792 3.2624671l0 161.70079" fill-rule="evenodd"/><path stroke="#000000" stroke-width="1.0" stroke-linejoin="round" stroke-linecap="butt" d="m410.8792 3.2624671l0 161.70079" fill-rule="evenodd"/><path fill="#000000" fill-opacity="0.0" d="m202.45673 22.222765l192.91339 0l0 134.4567l-192.91339 0z" fill-rule="evenodd"/><path fill="#000000" d="m220.3786 47.56214l-5.515625 0l-1.484375 4.140625l-1.75 0l5.65625 -15.171875l0.8125 0l5.671875 15.171875l-1.859375 0l-1.53125 -4.140625zm-4.9375 -1.53125l4.390625 0l-1.65625 -4.546875l-0.53125 -2.265625l-0.03125 0l-0.53125 2.3125l-1.640625 4.5z" fill-rule="nonzero"/><path fill="#000000" d="m244.9412 42.577766q1.390625 1.515625 2.390625 2.296875q1.015625 0.78125 1.921875 1.171875l0 0.46875q-1.03125 0.5 -2.0 1.28125q-0.96875 0.765625 -2.3125 2.265625l-0.8125 0q0.984375 -2.09375 2.0625 -3.21875l-16.609375 0l0 -1.046875l16.609375 0q-0.796875 -1.015625 -1.109375 -1.5q-0.3125 -0.484375 -0.921875 -1.71875l0.78125 0z" fill-rule="nonzero"/><path fill="#000000" d="m260.62018 56.390266q-0.984375 -1.015625 -1.671875 -2.25q-0.671875 -1.21875 -1.09375 -2.5q-0.421875 -1.296875 -0.609375 -2.609375q-0.1875 -1.3125 -0.1875 -2.515625q0 -1.171875 0.1875 -2.46875q0.1875 -1.296875 0.609375 -2.609375q0.4375 -1.3125 1.125 -2.5625q0.703125 -1.265625 1.703125 -2.359375l1.015625 0.75q-0.84375 1.09375 -1.40625 2.25q-0.5625 1.15625 -0.90625 2.359375q-0.34375 1.1875 -0.484375 2.375q-0.140625 1.1875 -0.140625 2.265625q0 1.03125 0.15625 2.234375q0.171875 1.203125 0.515625 2.40625q0.359375 1.203125 0.921875 2.359375q0.5625 1.15625 1.34375 2.09375l-1.078125 0.78125zm2.5812683 -8.25q0 -1.34375 0.703125 -2.328125q0.703125 -1.0 2.1875 -1.8125q-0.53125 -0.3125 -0.984375 -0.65625q-0.453125 -0.359375 -0.8125 -0.8125q-0.34375 -0.453125 -0.546875 -1.0q-0.203125 -0.5625 -0.203125 -1.28125q0 -0.828125 0.28125 -1.515625q0.296875 -0.6875 0.828125 -1.171875q0.546875 -0.484375 1.296875 -0.765625q0.765625 -0.28125 1.71875 -0.28125q0.90625 0 1.625 0.265625q0.734375 0.25 1.234375 0.703125q0.5 0.4375 0.765625 1.0625q0.28125 0.609375 0.28125 1.359375q0 1.21875 -0.5625 2.15625q-0.546875 0.921875 -1.828125 1.8125q0.5625 0.328125 1.0625 0.71875q0.5 0.375 0.875 0.84375q0.375 0.46875 0.578125 1.0625q0.21875 0.578125 0.21875 1.328125q0 0.90625 -0.296875 1.671875q-0.296875 0.75 -0.875 1.296875q-0.578125 0.546875 -1.40625 0.859375q-0.828125 0.296875 -1.90625 0.296875q-1.015625 0 -1.8125 -0.296875q-0.78125 -0.296875 -1.328125 -0.796875q-0.546875 -0.515625 -0.828125 -1.203125q-0.265625 -0.703125 -0.265625 -1.515625zm7.0625 -0.21875q0 -0.640625 -0.265625 -1.109375q-0.25 -0.484375 -0.671875 -0.875q-0.40625 -0.390625 -0.953125 -0.703125q-0.53125 -0.328125 -1.09375 -0.640625q-1.3125 0.734375 -1.875 1.640625q-0.546875 0.890625 -0.546875 1.6875q0 0.515625 0.171875 0.984375q0.171875 0.46875 0.515625 0.8125q0.34375 0.34375 0.84375 0.546875q0.5 0.203125 1.15625 0.203125q0.53125 0 1.015625 -0.15625q0.5 -0.171875 0.875 -0.46875q0.375 -0.3125 0.59375 -0.796875q0.234375 -0.484375 0.234375 -1.125zm-5.0625 -7.71875q0 0.59375 0.234375 1.0625q0.234375 0.453125 0.625 0.828125q0.40625 0.359375 0.90625 0.671875q0.515625 0.296875 1.078125 0.578125q0.953125 -0.75 1.40625 -1.46875q0.46875 -0.734375 0.46875 -1.609375q0 -1.078125 -0.671875 -1.65625q-0.671875 -0.59375 -1.609375 -0.59375q-0.578125 0 -1.03125 0.1875q-0.4375 0.1875 -0.765625 0.484375q-0.3125 0.296875 -0.484375 0.703125q-0.15625 0.390625 -0.15625 0.8125zm9.217621 10.578125q0 -0.5 0.34375 -0.8125q0.34375 -0.328125 0.875 -0.328125q0.65625 0 1.0625 0.46875q0.421875 0.46875 0.421875 1.359375q0 0.765625 -0.21875 1.34375q-0.203125 0.578125 -0.546875 0.984375q-0.34375 0.421875 -0.75 0.6875q-0.40625 0.265625 -0.8125 0.390625l-0.53125 -0.828125q0.765625 -0.296875 1.140625 -0.921875q0.375 -0.625 0.375 -1.265625q-0.1875 0.0625 -0.359375 0.0625q-0.421875 0 -0.71875 -0.28125q-0.28125 -0.296875 -0.28125 -0.859375zm12.673859 -3.21875l-5.515625 0l-1.484375 4.140625l-1.75 0l5.65625 -15.171875l0.8125 0l5.671875 15.171875l-1.859375 0l-1.53125 -4.140625zm-4.9375 -1.53125l4.390625 0l-1.65625 -4.546875l-0.53125 -2.265625l-0.03125 0l-0.53125 2.3125l-1.640625 4.5zm10.115509 4.75q0 -0.5 0.34375 -0.8125q0.34375 -0.328125 0.875 -0.328125q0.65625 0 1.0625 0.46875q0.421875 0.46875 0.421875 1.359375q0 0.765625 -0.21875 1.34375q-0.203125 0.578125 -0.546875 0.984375q-0.34375 0.421875 -0.75 0.6875q-0.40625 0.265625 -0.8125 0.390625l-0.53125 -0.828125q0.765625 -0.296875 1.140625 -0.921875q0.375 -0.625 0.375 -1.265625q-0.1875 0.0625 -0.359375 0.0625q-0.421875 0 -0.71875 -0.28125q-0.28125 -0.296875 -0.28125 -0.859375zm14.564453 -10.59375q0 0.53125 -0.171875 1.09375q-0.171875 0.546875 -0.515625 1.03125q-0.328125 0.46875 -0.875 0.84375q-0.53125 0.359375 -1.25 0.546875l0 0.09375q0.640625 0.09375 1.21875 0.359375q0.59375 0.25 1.03125 0.703125q0.453125 0.4375 0.734375 1.078125q0.28125 0.640625 0.28125 1.515625q0 1.15625 -0.484375 2.0q-0.484375 0.84375 -1.265625 1.375q-0.765625 0.53125 -1.78125 0.796875q-1.0 0.25 -2.046875 0.25q-0.359375 0 -0.859375 0q-0.484375 0 -1.015625 -0.03125q-0.53125 -0.03125 -1.0625 -0.09375q-0.53125 -0.046875 -0.9375 -0.15625l0 -14.6875q0.796875 -0.140625 1.828125 -0.21875q1.046875 -0.078125 2.28125 -0.078125q0.84375 0 1.703125 0.140625q0.859375 0.125 1.5625 0.53125q0.703125 0.390625 1.15625 1.09375q0.46875 0.703125 0.46875 1.8125zm-4.953125 10.15625q0.6875 0 1.328125 -0.15625q0.640625 -0.171875 1.125 -0.515625q0.5 -0.359375 0.78125 -0.859375q0.296875 -0.515625 0.296875 -1.21875q0 -0.875 -0.359375 -1.40625q-0.34375 -0.546875 -0.921875 -0.84375q-0.5625 -0.296875 -1.265625 -0.40625q-0.703125 -0.109375 -1.40625 -0.109375l-1.859375 0l0 5.359375q0.15625 0.046875 0.421875 0.078125q0.28125 0.015625 0.59375 0.03125q0.328125 0.015625 0.671875 0.03125q0.34375 0.015625 0.59375 0.015625zm-1.171875 -7.0q0.375 0 0.875 -0.015625q0.515625 -0.03125 0.859375 -0.078125q0.515625 -0.15625 0.953125 -0.40625q0.453125 -0.25 0.796875 -0.578125q0.359375 -0.328125 0.5625 -0.765625q0.203125 -0.4375 0.203125 -0.953125q0 -0.703125 -0.265625 -1.15625q-0.265625 -0.46875 -0.71875 -0.734375q-0.453125 -0.28125 -1.03125 -0.390625q-0.5625 -0.125 -1.15625 -0.125q-0.703125 0 -1.296875 0.03125q-0.59375 0.03125 -0.890625 0.09375l0 5.078125l1.109375 0zm8.893188 -6.828125q0.984375 1.03125 1.65625 2.265625q0.6875 1.21875 1.109375 2.515625q0.421875 1.28125 0.609375 2.59375q0.1875 1.3125 0.1875 2.5q0 1.171875 -0.1875 2.484375q-0.1875 1.296875 -0.625 2.609375q-0.421875 1.3125 -1.125 2.5625q-0.6875 1.265625 -1.6875 2.34375l-1.015625 -0.734375q0.84375 -1.09375 1.421875 -2.265625q0.578125 -1.171875 0.90625 -2.359375q0.328125 -1.203125 0.46875 -2.375q0.140625 -1.171875 0.140625 -2.265625q0 -1.015625 -0.171875 -2.203125q-0.171875 -1.203125 -0.53125 -2.421875q-0.34375 -1.21875 -0.90625 -2.359375q-0.546875 -1.15625 -1.328125 -2.09375l1.078125 -0.796875zm15.385254 19.875q-0.984375 -1.015625 -1.671875 -2.25q-0.671875 -1.21875 -1.09375 -2.5q-0.421875 -1.296875 -0.609375 -2.609375q-0.1875 -1.3125 -0.1875 -2.515625q0 -1.171875 0.1875 -2.46875q0.1875 -1.296875 0.609375 -2.609375q0.4375 -1.3125 1.125 -2.5625q0.703125 -1.265625 1.703125 -2.359375l1.015625 0.75q-0.84375 1.09375 -1.40625 2.25q-0.5625 1.15625 -0.90625 2.359375q-0.34375 1.1875 -0.484375 2.375q-0.140625 1.1875 -0.140625 2.265625q0 1.03125 0.15625 2.234375q0.171875 1.203125 0.515625 2.40625q0.359375 1.203125 0.921875 2.359375q0.5625 1.15625 1.34375 2.09375l-1.078125 0.78125zm6.1125183 -5.921875q0.734375 0 1.34375 -0.203125q0.625 -0.21875 1.0625 -0.640625q0.453125 -0.421875 0.703125 -0.984375q0.265625 -0.578125 0.265625 -1.265625q0 -1.5 -0.890625 -2.21875q-0.875 -0.71875 -2.4375 -0.71875l-1.578125 0l0 -0.625l3.078125 -4.734375l0.96875 -0.9375l-1.375 0.21875l-4.234375 0l0 -1.59375l7.625 0l0 0.625l-3.390625 5.09375l-0.75 0.625l0 0.046875l0.71875 -0.15625q0.859375 0.015625 1.578125 0.3125q0.734375 0.28125 1.265625 0.828125q0.53125 0.546875 0.828125 1.3125q0.296875 0.75 0.296875 1.703125q0 1.15625 -0.40625 2.0625q-0.40625 0.890625 -1.09375 1.5q-0.6875 0.59375 -1.625 0.921875q-0.9375 0.3125 -1.984375 0.3125q-0.96875 0 -1.734375 -0.15625q-0.765625 -0.140625 -1.34375 -0.375l0.453125 -1.515625q0.484375 0.234375 1.15625 0.40625q0.671875 0.15625 1.5 0.15625zm7.686371 0.3125q0 -0.5 0.34375 -0.8125q0.34375 -0.328125 0.875 -0.328125q0.65625 0 1.0625 0.46875q0.421875 0.46875 0.421875 1.359375q0 0.765625 -0.21875 1.34375q-0.203125 0.578125 -0.546875 0.984375q-0.34375 0.421875 -0.75 0.6875q-0.40625 0.265625 -0.8125 0.390625l-0.53125 -0.828125q0.765625 -0.296875 1.140625 -0.921875q0.375 -0.625 0.375 -1.265625q-0.1875 0.0625 -0.359375 0.0625q-0.421875 0 -0.71875 -0.28125q-0.28125 -0.296875 -0.28125 -0.859375zm12.673859 -3.21875l-5.515625 0l-1.484375 4.140625l-1.75 0l5.65625 -15.171875l0.8125 0l5.671875 15.171875l-1.859375 0l-1.53125 -4.140625zm-4.9375 -1.53125l4.390625 0l-1.65625 -4.546875l-0.53125 -2.265625l-0.03125 0l-0.53125 2.3125l-1.640625 4.5zm10.115509 4.75q0 -0.5 0.34375 -0.8125q0.34375 -0.328125 0.875 -0.328125q0.65625 0 1.0625 0.46875q0.421875 0.46875 0.421875 1.359375q0 0.765625 -0.21875 1.34375q-0.203125 0.578125 -0.546875 0.984375q-0.34375 0.421875 -0.75 0.6875q-0.40625 0.265625 -0.8125 0.390625l-0.53125 -0.828125q0.765625 -0.296875 1.140625 -0.921875q0.375 -0.625 0.375 -1.265625q-0.1875 0.0625 -0.359375 0.0625q-0.421875 0 -0.71875 -0.28125q-0.28125 -0.296875 -0.28125 -0.859375zm15.126953 0.296875q-0.640625 0.5 -1.625 0.6875q-0.984375 0.1875 -2.09375 0.1875q-1.34375 0 -2.515625 -0.453125q-1.171875 -0.453125 -2.046875 -1.390625q-0.875 -0.9375 -1.390625 -2.390625q-0.515625 -1.46875 -0.515625 -3.484375q0 -2.09375 0.5625 -3.546875q0.578125 -1.46875 1.5 -2.390625q0.9375 -0.921875 2.078125 -1.34375q1.15625 -0.4375 2.34375 -0.4375q1.28125 0 2.09375 0.140625q0.8125 0.140625 1.390625 0.375l-0.421875 1.5625q-1.03125 -0.5 -2.921875 -0.5q-0.875 0 -1.734375 0.328125q-0.859375 0.3125 -1.53125 1.046875q-0.671875 0.71875 -1.078125 1.890625q-0.390625 1.171875 -0.390625 2.875q0 1.546875 0.375 2.703125q0.390625 1.140625 1.0625 1.90625q0.671875 0.765625 1.578125 1.15625q0.90625 0.375 1.96875 0.375q0.953125 0 1.671875 -0.1875q0.71875 -0.1875 1.203125 -0.484375l0.4375 1.375zm1.9284058 -14.5625q0.984375 1.03125 1.65625 2.265625q0.6875 1.21875 1.109375 2.515625q0.421875 1.28125 0.609375 2.59375q0.1875 1.3125 0.1875 2.5q0 1.171875 -0.1875 2.484375q-0.1875 1.296875 -0.625 2.609375q-0.421875 1.3125 -1.125 2.5625q-0.6875 1.265625 -1.6875 2.34375l-1.015625 -0.734375q0.84375 -1.09375 1.421875 -2.265625q0.578125 -1.171875 0.90625 -2.359375q0.328125 -1.203125 0.46875 -2.375q0.140625 -1.171875 0.140625 -2.265625q0 -1.015625 -0.171875 -2.203125q-0.171875 -1.203125 -0.53125 -2.421875q-0.34375 -1.21875 -0.90625 -2.359375q-0.546875 -1.15625 -1.328125 -2.09375l1.078125 -0.796875z" fill-rule="nonzero"/><path fill="#000000" d="m222.26923 69.62714q0 0.53125 -0.171875 1.09375q-0.171875 0.546875 -0.515625 1.03125q-0.328125 0.46875 -0.875 0.84375q-0.53125 0.359375 -1.25 0.546875l0 0.09375q0.640625 0.09375 1.21875 0.359375q0.59375 0.25 1.03125 0.703125q0.453125 0.4375 0.734375 1.078125q0.28125 0.640625 0.28125 1.515625q0 1.15625 -0.484375 2.0q-0.484375 0.84375 -1.265625 1.375q-0.765625 0.53125 -1.78125 0.796875q-1.0 0.25 -2.046875 0.25q-0.359375 0 -0.859375 0q-0.484375 0 -1.015625 -0.03125q-0.53125 -0.03125 -1.0625 -0.09375q-0.53125 -0.046875 -0.9375 -0.15625l0 -14.6875q0.796875 -0.140625 1.828125 -0.21875q1.046875 -0.078125 2.28125 -0.078125q0.84375 0 1.703125 0.140625q0.859375 0.125 1.5625 0.53125q0.703125 0.390625 1.15625 1.09375q0.46875 0.703125 0.46875 1.8125zm-4.953125 10.15625q0.6875 0 1.328125 -0.15625q0.640625 -0.171875 1.125 -0.515625q0.5 -0.359375 0.78125 -0.859375q0.296875 -0.515625 0.296875 -1.21875q0 -0.875 -0.359375 -1.40625q-0.34375 -0.546875 -0.921875 -0.84375q-0.5625 -0.296875 -1.265625 -0.40625q-0.703125 -0.109375 -1.40625 -0.109375l-1.859375 0l0 5.359375q0.15625 0.046875 0.421875 0.078125q0.28125 0.015625 0.59375 0.03125q0.328125 0.015625 0.671875 0.03125q0.34375 0.015625 0.59375 0.015625zm-1.171875 -7.0q0.375 0 0.875 -0.015625q0.515625 -0.03125 0.859375 -0.078125q0.515625 -0.15625 0.953125 -0.40625q0.453125 -0.25 0.796875 -0.578125q0.359375 -0.328125 0.5625 -0.765625q0.203125 -0.4375 0.203125 -0.953125q0 -0.703125 -0.265625 -1.15625q-0.265625 -0.46875 -0.71875 -0.734375q-0.453125 -0.28125 -1.03125 -0.390625q-0.5625 -0.125 -1.15625 -0.125q-0.703125 0 -1.296875 0.03125q-0.59375 0.03125 -0.890625 0.09375l0 5.078125l1.109375 0z" fill-rule="nonzero"/><path fill="#000000" d="m245.79453 72.01776q1.390625 1.515625 2.390625 2.296875q1.015625 0.78125 1.921875 1.171875l0 0.46875q-1.03125 0.5 -2.0 1.28125q-0.96875 0.765625 -2.3125 2.265625l-0.8125 0q0.984375 -2.09375 2.0625 -3.21875l-16.609375 0l0 -1.046875l16.609375 0q-0.796875 -1.015625 -1.109375 -1.5q-0.3125 -0.484375 -0.921875 -1.71875l0.78125 0z" fill-rule="nonzero"/><path fill="#000000" d="m261.4735 85.83026q-0.984375 -1.015625 -1.671875 -2.25q-0.671875 -1.21875 -1.09375 -2.5q-0.421875 -1.296875 -0.609375 -2.609375q-0.1875 -1.3125 -0.1875 -2.515625q0 -1.171875 0.1875 -2.46875q0.1875 -1.296875 0.609375 -2.609375q0.4375 -1.3125 1.125 -2.5625q0.703125 -1.265625 1.703125 -2.359375l1.015625 0.75q-0.84375 1.09375 -1.40625 2.25q-0.5625 1.15625 -0.90625 2.359375q-0.34375 1.1875 -0.484375 2.375q-0.140625 1.1875 -0.140625 2.265625q0 1.03125 0.15625 2.234375q0.171875 1.203125 0.515625 2.40625q0.359375 1.203125 0.921875 2.359375q0.5625 1.15625 1.34375 2.09375l-1.078125 0.78125zm6.1125183 -5.921875q0.734375 0 1.34375 -0.203125q0.625 -0.21875 1.0625 -0.640625q0.453125 -0.421875 0.703125 -0.984375q0.265625 -0.578125 0.265625 -1.265625q0 -1.5 -0.890625 -2.21875q-0.875 -0.71875 -2.4375 -0.71875l-1.578125 0l0 -0.625l3.078125 -4.734375l0.96875 -0.9375l-1.375 0.21875l-4.234375 0l0 -1.59375l7.625 0l0 0.625l-3.390625 5.09375l-0.75 0.625l0 0.046875l0.71875 -0.15625q0.859375 0.015625 1.578125 0.3125q0.734375 0.28125 1.265625 0.828125q0.53125 0.546875 0.828125 1.3125q0.296875 0.75 0.296875 1.703125q0 1.15625 -0.40625 2.0625q-0.40625 0.890625 -1.09375 1.5q-0.6875 0.59375 -1.625 0.921875q-0.9375 0.3125 -1.984375 0.3125q-0.96875 0 -1.734375 -0.15625q-0.765625 -0.140625 -1.34375 -0.375l0.453125 -1.515625q0.484375 0.234375 1.15625 0.40625q0.671875 0.15625 1.5 0.15625zm7.686371 0.3125q0 -0.5 0.34375 -0.8125q0.34375 -0.328125 0.875 -0.328125q0.65625 0 1.0625 0.46875q0.421875 0.46875 0.421875 1.359375q0 0.765625 -0.21875 1.34375q-0.203125 0.578125 -0.546875 0.984375q-0.34375 0.421875 -0.75 0.6875q-0.40625 0.265625 -0.8125 0.390625l-0.53125 -0.828125q0.765625 -0.296875 1.140625 -0.921875q0.375 -0.625 0.375 -1.265625q-0.1875 0.0625 -0.359375 0.0625q-0.421875 0 -0.71875 -0.28125q-0.28125 -0.296875 -0.28125 -0.859375zm14.564484 -10.59375q0 0.53125 -0.171875 1.09375q-0.171875 0.546875 -0.515625 1.03125q-0.328125 0.46875 -0.875 0.84375q-0.53125 0.359375 -1.25 0.546875l0 0.09375q0.640625 0.09375 1.21875 0.359375q0.59375 0.25 1.03125 0.703125q0.453125 0.4375 0.734375 1.078125q0.28125 0.640625 0.28125 1.515625q0 1.15625 -0.484375 2.0q-0.484375 0.84375 -1.265625 1.375q-0.765625 0.53125 -1.78125 0.796875q-1.0 0.25 -2.046875 0.25q-0.359375 0 -0.859375 0q-0.484375 0 -1.015625 -0.03125q-0.53125 -0.03125 -1.0625 -0.09375q-0.53125 -0.046875 -0.9375 -0.15625l0 -14.6875q0.796875 -0.140625 1.828125 -0.21875q1.046875 -0.078125 2.28125 -0.078125q0.84375 0 1.703125 0.140625q0.859375 0.125 1.5625 0.53125q0.703125 0.390625 1.15625 1.09375q0.46875 0.703125 0.46875 1.8125zm-4.953125 10.15625q0.6875 0 1.328125 -0.15625q0.640625 -0.171875 1.125 -0.515625q0.5 -0.359375 0.78125 -0.859375q0.296875 -0.515625 0.296875 -1.21875q0 -0.875 -0.359375 -1.40625q-0.34375 -0.546875 -0.921875 -0.84375q-0.5625 -0.296875 -1.265625 -0.40625q-0.703125 -0.109375 -1.40625 -0.109375l-1.859375 0l0 5.359375q0.15625 0.046875 0.421875 0.078125q0.28125 0.015625 0.59375 0.03125q0.328125 0.015625 0.671875 0.03125q0.34375 0.015625 0.59375 0.015625zm-1.171875 -7.0q0.375 0 0.875 -0.015625q0.515625 -0.03125 0.859375 -0.078125q0.515625 -0.15625 0.953125 -0.40625q0.453125 -0.25 0.796875 -0.578125q0.359375 -0.328125 0.5625 -0.765625q0.203125 -0.4375 0.203125 -0.953125q0 -0.703125 -0.265625 -1.15625q-0.265625 -0.46875 -0.71875 -0.734375q-0.453125 -0.28125 -1.03125 -0.390625q-0.5625 -0.125 -1.15625 -0.125q-0.703125 0 -1.296875 0.03125q-0.59375 0.03125 -0.890625 0.09375l0 5.078125l1.109375 0zm8.815033 7.4375q0 -0.5 0.34375 -0.8125q0.34375 -0.328125 0.875 -0.328125q0.65625 0 1.0625 0.46875q0.421875 0.46875 0.421875 1.359375q0 0.765625 -0.21875 1.34375q-0.203125 0.578125 -0.546875 0.984375q-0.34375 0.421875 -0.75 0.6875q-0.40625 0.265625 -0.8125 0.390625l-0.53125 -0.828125q0.765625 -0.296875 1.140625 -0.921875q0.375 -0.625 0.375 -1.265625q-0.1875 0.0625 -0.359375 0.0625q-0.421875 0 -0.71875 -0.28125q-0.28125 -0.296875 -0.28125 -0.859375zm15.126984 0.296875q-0.640625 0.5 -1.625 0.6875q-0.984375 0.1875 -2.09375 0.1875q-1.34375 0 -2.515625 -0.453125q-1.171875 -0.453125 -2.046875 -1.390625q-0.875 -0.9375 -1.390625 -2.390625q-0.515625 -1.46875 -0.515625 -3.484375q0 -2.09375 0.5625 -3.546875q0.578125 -1.46875 1.5 -2.390625q0.9375 -0.921875 2.078125 -1.34375q1.15625 -0.4375 2.34375 -0.4375q1.28125 0 2.09375 0.140625q0.8125 0.140625 1.390625 0.375l-0.421875 1.5625q-1.03125 -0.5 -2.921875 -0.5q-0.875 0 -1.734375 0.328125q-0.859375 0.3125 -1.53125 1.046875q-0.671875 0.71875 -1.078125 1.890625q-0.390625 1.171875 -0.390625 2.875q0 1.546875 0.375 2.703125q0.390625 1.140625 1.0625 1.90625q0.671875 0.765625 1.578125 1.15625q0.90625 0.375 1.96875 0.375q0.953125 0 1.671875 -0.1875q0.71875 -0.1875 1.203125 -0.484375l0.4375 1.375zm1.9284058 -14.5625q0.984375 1.03125 1.65625 2.265625q0.6875 1.21875 1.109375 2.515625q0.421875 1.28125 0.609375 2.59375q0.1875 1.3125 0.1875 2.5q0 1.171875 -0.1875 2.484375q-0.1875 1.296875 -0.625 2.609375q-0.421875 1.3125 -1.125 2.5625q-0.6875 1.265625 -1.6875 2.34375l-1.015625 -0.734375q0.84375 -1.09375 1.421875 -2.265625q0.578125 -1.171875 0.90625 -2.359375q0.328125 -1.203125 0.46875 -2.375q0.140625 -1.171875 0.140625 -2.265625q0 -1.015625 -0.171875 -2.203125q-0.171875 -1.203125 -0.53125 -2.421875q-0.34375 -1.21875 -0.90625 -2.359375q-0.546875 -1.15625 -1.328125 -2.09375l1.078125 -0.796875z" fill-rule="nonzero"/><path fill="#000000" d="m222.83173 109.95775q-0.640625 0.5 -1.625 0.6875q-0.984375 0.1875 -2.09375 0.1875q-1.34375 0 -2.515625 -0.453125q-1.171875 -0.453125 -2.046875 -1.390625q-0.875 -0.9375 -1.390625 -2.390625q-0.515625 -1.46875 -0.515625 -3.484375q0 -2.09375 0.5625 -3.546875q0.578125 -1.46875 1.5 -2.390625q0.9375 -0.921875 2.078125 -1.34375q1.15625 -0.4375 2.34375 -0.4375q1.28125 0 2.09375 0.140625q0.8125 0.140625 1.390625 0.375l-0.421875 1.5625q-1.03125 -0.5 -2.921875 -0.5q-0.875 0 -1.734375 0.328125q-0.859375 0.3125 -1.53125 1.046875q-0.671875 0.71875 -1.078125 1.890625q-0.390625 1.171875 -0.390625 2.875q0 1.546875 0.375 2.703125q0.390625 1.140625 1.0625 1.90625q0.671875 0.765625 1.578125 1.15625q0.90625 0.375 1.96875 0.375q0.953125 0 1.671875 -0.1875q0.71875 -0.1875 1.203125 -0.484375l0.4375 1.375z" fill-rule="nonzero"/><path fill="#000000" d="m244.66393 101.45775q1.390625 1.515625 2.390625 2.296875q1.015625 0.78125 1.921875 1.171875l0 0.46875q-1.03125 0.5 -2.0 1.28125q-0.96875 0.765625 -2.3125 2.265625l-0.8125 0q0.984375 -2.09375 2.0625 -3.21875l-16.609375 0l0 -1.046875l16.609375 0q-0.796875 -1.015625 -1.109375 -1.5q-0.3125 -0.484375 -0.921875 -1.71875l0.78125 0z" fill-rule="nonzero"/><path fill="#000000" d="m260.34293 115.27025q-0.984375 -1.015625 -1.671875 -2.25q-0.671875 -1.21875 -1.09375 -2.5q-0.421875 -1.296875 -0.609375 -2.609375q-0.1875 -1.3125 -0.1875 -2.515625q0 -1.171875 0.1875 -2.46875q0.1875 -1.296875 0.609375 -2.609375q0.4375 -1.3125 1.125 -2.5625q0.703125 -1.265625 1.703125 -2.359375l1.015625 0.75q-0.84375 1.09375 -1.40625 2.25q-0.5625 1.15625 -0.90625 2.359375q-0.34375 1.1875 -0.484375 2.375q-0.140625 1.1875 -0.140625 2.265625q0 1.03125 0.15625 2.234375q0.171875 1.203125 0.515625 2.40625q0.359375 1.203125 0.921875 2.359375q0.5625 1.15625 1.34375 2.09375l-1.078125 0.78125zm3.4718933 -4.6875l5.359375 -12.5l0.9375 -1.046875l-1.265625 0.203125l-6.078125 0l0 -1.59375l8.921875 0l0 0.578125l-6.140625 14.359375l-1.734375 0zm7.980316 -0.921875q0 -0.5 0.34375 -0.8125q0.34375 -0.328125 0.875 -0.328125q0.65625 0 1.0625 0.46875q0.421875 0.46875 0.421875 1.359375q0 0.765625 -0.21875 1.34375q-0.203125 0.578125 -0.546875 0.984375q-0.34375 0.421875 -0.75 0.6875q-0.40625 0.265625 -0.8125 0.390625l-0.53125 -0.828125q0.765625 -0.296875 1.140625 -0.921875q0.375 -0.625 0.375 -1.265625q-0.1875 0.0625 -0.359375 0.0625q-0.421875 0 -0.71875 -0.28125q-0.28125 -0.296875 -0.28125 -0.859375zm15.126984 0.296875q-0.640625 0.5 -1.625 0.6875q-0.984375 0.1875 -2.09375 0.1875q-1.34375 0 -2.515625 -0.453125q-1.171875 -0.453125 -2.046875 -1.390625q-0.875 -0.9375 -1.390625 -2.390625q-0.515625 -1.46875 -0.515625 -3.484375q0 -2.09375 0.5625 -3.546875q0.578125 -1.46875 1.5 -2.390625q0.9375 -0.921875 2.078125 -1.34375q1.15625 -0.4375 2.34375 -0.4375q1.28125 0 2.09375 0.140625q0.8125 0.140625 1.390625 0.375l-0.421875 1.5625q-1.03125 -0.5 -2.921875 -0.5q-0.875 0 -1.734375 0.328125q-0.859375 0.3125 -1.53125 1.046875q-0.671875 0.71875 -1.078125 1.890625q-0.390625 1.171875 -0.390625 2.875q0 1.546875 0.375 2.703125q0.390625 1.140625 1.0625 1.90625q0.671875 0.765625 1.578125 1.15625q0.90625 0.375 1.96875 0.375q0.953125 0 1.671875 -0.1875q0.71875 -0.1875 1.203125 -0.484375l0.4375 1.375zm1.8502808 -0.296875q0 -0.5 0.34375 -0.8125q0.34375 -0.328125 0.875 -0.328125q0.65625 0 1.0625 0.46875q0.421875 0.46875 0.421875 1.359375q0 0.765625 -0.21875 1.34375q-0.203125 0.578125 -0.546875 0.984375q-0.34375 0.421875 -0.75 0.6875q-0.40625 0.265625 -0.8125 0.390625l-0.53125 -0.828125q0.765625 -0.296875 1.140625 -0.921875q0.375 -0.625 0.375 -1.265625q-0.1875 0.0625 -0.359375 0.0625q-0.421875 0 -0.71875 -0.28125q-0.28125 -0.296875 -0.28125 -0.859375zm12.673828 -3.21875l-5.515625 0l-1.484375 4.140625l-1.75 0l5.65625 -15.171875l0.8125 0l5.671875 15.171875l-1.859375 0l-1.53125 -4.140625zm-4.9375 -1.53125l4.390625 0l-1.65625 -4.546875l-0.53125 -2.265625l-0.03125 0l-0.53125 2.3125l-1.640625 4.5zm9.617645 -9.515625q0.984375 1.03125 1.65625 2.265625q0.6875 1.21875 1.109375 2.515625q0.421875 1.28125 0.609375 2.59375q0.1875 1.3125 0.1875 2.5q0 1.171875 -0.1875 2.484375q-0.1875 1.296875 -0.625 2.609375q-0.421875 1.3125 -1.125 2.5625q-0.6875 1.265625 -1.6875 2.34375l-1.015625 -0.734375q0.84375 -1.09375 1.421875 -2.265625q0.578125 -1.171875 0.90625 -2.359375q0.328125 -1.203125 0.46875 -2.375q0.140625 -1.171875 0.140625 -2.265625q0 -1.015625 -0.171875 -2.203125q-0.171875 -1.203125 -0.53125 -2.421875q-0.34375 -1.21875 -0.90625 -2.359375q-0.546875 -1.15625 -1.328125 -2.09375l1.078125 -0.796875zm15.385254 19.875q-0.984375 -1.015625 -1.671875 -2.25q-0.671875 -1.21875 -1.09375 -2.5q-0.421875 -1.296875 -0.609375 -2.609375q-0.1875 -1.3125 -0.1875 -2.515625q0 -1.171875 0.1875 -2.46875q0.1875 -1.296875 0.609375 -2.609375q0.4375 -1.3125 1.125 -2.5625q0.703125 -1.265625 1.703125 -2.359375l1.015625 0.75q-0.84375 1.09375 -1.40625 2.25q-0.5625 1.15625 -0.90625 2.359375q-0.34375 1.1875 -0.484375 2.375q-0.140625 1.1875 -0.140625 2.265625q0 1.03125 0.15625 2.234375q0.171875 1.203125 0.515625 2.40625q0.359375 1.203125 0.921875 2.359375q0.5625 1.15625 1.34375 2.09375l-1.078125 0.78125zm11.628143 -9.1875q0 0.984375 -0.3125 1.84375q-0.296875 0.859375 -0.875 1.515625q-0.5625 0.65625 -1.421875 1.03125q-0.859375 0.359375 -1.9375 0.359375q-1.0625 0 -1.921875 -0.328125q-0.859375 -0.34375 -1.484375 -1.015625q-0.609375 -0.671875 -0.9375 -1.65625q-0.328125 -0.984375 -0.328125 -2.265625q0 -2.109375 0.546875 -3.890625q0.546875 -1.78125 1.5 -3.09375q0.953125 -1.328125 2.265625 -2.140625q1.3125 -0.828125 2.859375 -1.046875l0.359375 1.359375q-1.203125 0.21875 -2.1875 0.828125q-0.96875 0.59375 -1.703125 1.46875q-0.734375 0.859375 -1.21875 1.953125q-0.46875 1.09375 -0.625 2.234375q0.328125 -0.5625 1.140625 -1.046875q0.8125 -0.484375 1.984375 -0.484375q2.015625 0 3.15625 1.15625q1.140625 1.15625 1.140625 3.21875zm-1.78125 0.171875q0 -1.515625 -0.703125 -2.28125q-0.703125 -0.765625 -2.171875 -0.765625q-1.046875 0 -1.8125 0.515625q-0.75 0.5 -1.046875 1.140625q-0.046875 0.296875 -0.046875 0.5q0 0.1875 0 0.421875q0 0.65625 0.1875 1.296875q0.1875 0.640625 0.5625 1.140625q0.390625 0.5 0.953125 0.8125q0.5625 0.3125 1.328125 0.3125q0.625 0 1.125 -0.234375q0.5 -0.234375 0.859375 -0.640625q0.359375 -0.40625 0.5625 -0.984375q0.203125 -0.578125 0.203125 -1.234375zm3.9519958 3.40625q0 -0.5 0.34375 -0.8125q0.34375 -0.328125 0.875 -0.328125q0.65625 0 1.0625 0.46875q0.421875 0.46875 0.421875 1.359375q0 0.765625 -0.21875 1.34375q-0.203125 0.578125 -0.546875 0.984375q-0.34375 0.421875 -0.75 0.6875q-0.40625 0.265625 -0.8125 0.390625l-0.53125 -0.828125q0.765625 -0.296875 1.140625 -0.921875q0.375 -0.625 0.375 -1.265625q-0.1875 0.0625 -0.359375 0.0625q-0.421875 0 -0.71875 -0.28125q-0.28125 -0.296875 -0.28125 -0.859375zm15.126984 0.296875q-0.640625 0.5 -1.625 0.6875q-0.984375 0.1875 -2.09375 0.1875q-1.34375 0 -2.515625 -0.453125q-1.171875 -0.453125 -2.046875 -1.390625q-0.875 -0.9375 -1.390625 -2.390625q-0.515625 -1.46875 -0.515625 -3.484375q0 -2.09375 0.5625 -3.546875q0.578125 -1.46875 1.5 -2.390625q0.9375 -0.921875 2.078125 -1.34375q1.15625 -0.4375 2.34375 -0.4375q1.28125 0 2.09375 0.140625q0.8125 0.140625 1.390625 0.375l-0.421875 1.5625q-1.03125 -0.5 -2.921875 -0.5q-0.875 0 -1.734375 0.328125q-0.859375 0.3125 -1.53125 1.046875q-0.671875 0.71875 -1.078125 1.890625q-0.390625 1.171875 -0.390625 2.875q0 1.546875 0.375 2.703125q0.390625 1.140625 1.0625 1.90625q0.671875 0.765625 1.578125 1.15625q0.90625 0.375 1.96875 0.375q0.953125 0 1.671875 -0.1875q0.71875 -0.1875 1.203125 -0.484375l0.4375 1.375zm1.8502808 -0.296875q0 -0.5 0.34375 -0.8125q0.34375 -0.328125 0.875 -0.328125q0.65625 0 1.0625 0.46875q0.421875 0.46875 0.421875 1.359375q0 0.765625 -0.21875 1.34375q-0.203125 0.578125 -0.546875 0.984375q-0.34375 0.421875 -0.75 0.6875q-0.40625 0.265625 -0.8125 0.390625l-0.53125 -0.828125q0.765625 -0.296875 1.140625 -0.921875q0.375 -0.625 0.375 -1.265625q-0.1875 0.0625 -0.359375 0.0625q-0.421875 0 -0.71875 -0.28125q-0.28125 -0.296875 -0.28125 -0.859375zm5.564453 -14.015625q0.40625 -0.0625 0.90625 -0.09375q0.5 -0.03125 1.046875 -0.03125q0.546875 -0.015625 1.0625 -0.015625q0.53125 -0.015625 0.96875 -0.015625q1.796875 0 3.109375 0.5625q1.3125 0.546875 2.15625 1.546875q0.859375 0.984375 1.265625 2.375q0.421875 1.375 0.421875 3.03125q0 1.515625 -0.390625 2.921875q-0.390625 1.390625 -1.25 2.46875q-0.84375 1.078125 -2.21875 1.734375q-1.359375 0.640625 -3.296875 0.640625q-0.34375 0 -0.890625 -0.015625q-0.546875 0 -1.125 -0.03125q-0.578125 -0.03125 -1.0625 -0.0625q-0.484375 -0.015625 -0.703125 -0.0625l0 -14.953125zm4.03125 1.421875q-0.28125 0 -0.609375 0q-0.328125 0 -0.65625 0.015625q-0.3125 0.015625 -0.578125 0.046875q-0.265625 0.015625 -0.421875 0.03125l0 11.953125q0.109375 0.015625 0.40625 0.03125q0.296875 0.015625 0.609375 0.03125q0.328125 0 0.625 0.015625q0.3125 0 0.40625 0q1.5 0 2.515625 -0.5q1.015625 -0.515625 1.609375 -1.375q0.609375 -0.875 0.859375 -1.984375q0.265625 -1.125 0.265625 -2.328125q0 -1.03125 -0.234375 -2.09375q-0.234375 -1.0625 -0.8125 -1.90625q-0.578125 -0.859375 -1.546875 -1.390625q-0.96875 -0.546875 -2.4375 -0.546875zm9.229919 -1.671875q0.984375 1.03125 1.65625 2.265625q0.6875 1.21875 1.109375 2.515625q0.421875 1.28125 0.609375 2.59375q0.1875 1.3125 0.1875 2.5q0 1.171875 -0.1875 2.484375q-0.1875 1.296875 -0.625 2.609375q-0.421875 1.3125 -1.125 2.5625q-0.6875 1.265625 -1.6875 2.34375l-1.015625 -0.734375q0.84375 -1.09375 1.421875 -2.265625q0.578125 -1.171875 0.90625 -2.359375q0.328125 -1.203125 0.46875 -2.375q0.140625 -1.171875 0.140625 -2.265625q0 -1.015625 -0.171875 -2.203125q-0.171875 -1.203125 -0.53125 -2.421875q-0.34375 -1.21875 -0.90625 -2.359375q-0.546875 -1.15625 -1.328125 -2.09375l1.078125 -0.796875z" fill-rule="nonzero"/><path fill="#000000" d="m213.26923 125.08525q0.40625 -0.0625 0.90625 -0.09375q0.5 -0.03125 1.046875 -0.03125q0.546875 -0.015625 1.0625 -0.015625q0.53125 -0.015625 0.96875 -0.015625q1.796875 0 3.109375 0.5625q1.3125 0.546875 2.15625 1.546875q0.859375 0.984375 1.265625 2.375q0.421875 1.375 0.421875 3.03125q0 1.515625 -0.390625 2.921875q-0.390625 1.390625 -1.25 2.46875q-0.84375 1.078125 -2.21875 1.734375q-1.359375 0.640625 -3.296875 0.640625q-0.34375 0 -0.890625 -0.015625q-0.546875 0 -1.125 -0.03125q-0.578125 -0.03125 -1.0625 -0.0625q-0.484375 -0.015625 -0.703125 -0.0625l0 -14.953125zm4.03125 1.421875q-0.28125 0 -0.609375 0q-0.328125 0 -0.65625 0.015625q-0.3125 0.015625 -0.578125 0.046875q-0.265625 0.015625 -0.421875 0.03125l0 11.953125q0.109375 0.015625 0.40625 0.03125q0.296875 0.015625 0.609375 0.03125q0.328125 0 0.625 0.015625q0.3125 0 0.40625 0q1.5 0 2.515625 -0.5q1.015625 -0.515625 1.609375 -1.375q0.609375 -0.875 0.859375 -1.984375q0.265625 -1.125 0.265625 -2.328125q0 -1.03125 -0.234375 -2.09375q-0.234375 -1.0625 -0.8125 -1.90625q-0.578125 -0.859375 -1.546875 -1.390625q-0.96875 -0.546875 -2.4375 -0.546875z" fill-rule="nonzero"/><path fill="#000000" d="m247.2875 130.89775q1.390625 1.515625 2.390625 2.296875q1.015625 0.78125 1.921875 1.171875l0 0.46875q-1.03125 0.5 -2.0 1.28125q-0.96875 0.765625 -2.3125 2.265625l-0.8125 0q0.984375 -2.09375 2.0625 -3.21875l-16.609375 0l0 -1.046875l16.609375 0q-0.796875 -1.015625 -1.109375 -1.5q-0.3125 -0.484375 -0.921875 -1.71875l0.78125 0z" fill-rule="nonzero"/><path fill="#000000" d="m262.9665 144.71025q-0.984375 -1.015625 -1.671875 -2.25q-0.671875 -1.21875 -1.09375 -2.5q-0.421875 -1.296875 -0.609375 -2.609375q-0.1875 -1.3125 -0.1875 -2.515625q0 -1.171875 0.1875 -2.46875q0.1875 -1.296875 0.609375 -2.609375q0.4375 -1.3125 1.125 -2.5625q0.703125 -1.265625 1.703125 -2.359375l1.015625 0.75q-0.84375 1.09375 -1.40625 2.25q-0.5625 1.15625 -0.90625 2.359375q-0.34375 1.1875 -0.484375 2.375q-0.140625 1.1875 -0.140625 2.265625q0 1.03125 0.15625 2.234375q0.171875 1.203125 0.515625 2.40625q0.359375 1.203125 0.921875 2.359375q0.5625 1.15625 1.34375 2.09375l-1.078125 0.78125zm10.643768 -16.21875q0 1.125 -0.421875 2.3125q-0.40625 1.171875 -1.078125 2.375q-0.671875 1.1875 -1.515625 2.328125q-0.828125 1.140625 -1.65625 2.171875l-1.046875 0.921875l0 0.078125l1.359375 -0.234375l4.65625 0l0 1.578125l-8.484375 0l0 -0.625q0.46875 -0.484375 1.125 -1.203125q0.65625 -0.734375 1.375 -1.609375q0.71875 -0.890625 1.40625 -1.875q0.6875 -1.0 1.25 -2.015625q0.578125 -1.03125 0.90625 -2.03125q0.34375 -1.0 0.34375 -1.90625q0 -1.046875 -0.59375 -1.734375q-0.59375 -0.6875 -1.8125 -0.6875q-0.8125 0 -1.578125 0.328125q-0.765625 0.328125 -1.3125 0.75l-0.703125 -1.21875q0.734375 -0.625 1.75 -0.984375q1.03125 -0.375 2.203125 -0.375q0.921875 0 1.625 0.265625q0.703125 0.265625 1.1875 0.765625q0.5 0.484375 0.75 1.15625q0.265625 0.671875 0.265625 1.46875zm3.1551208 10.609375q0 -0.5 0.34375 -0.8125q0.34375 -0.328125 0.875 -0.328125q0.65625 0 1.0625 0.46875q0.421875 0.46875 0.421875 1.359375q0 0.765625 -0.21875 1.34375q-0.203125 0.578125 -0.546875 0.984375q-0.34375 0.421875 -0.75 0.6875q-0.40625 0.265625 -0.8125 0.390625l-0.53125 -0.828125q0.765625 -0.296875 1.140625 -0.921875q0.375 -0.625 0.375 -1.265625q-0.1875 0.0625 -0.359375 0.0625q-0.421875 0 -0.71875 -0.28125q-0.28125 -0.296875 -0.28125 -0.859375zm5.5644836 -14.015625q0.40625 -0.0625 0.90625 -0.09375q0.5 -0.03125 1.046875 -0.03125q0.546875 -0.015625 1.0625 -0.015625q0.53125 -0.015625 0.96875 -0.015625q1.796875 0 3.109375 0.5625q1.3125 0.546875 2.15625 1.546875q0.859375 0.984375 1.265625 2.375q0.421875 1.375 0.421875 3.03125q0 1.515625 -0.390625 2.921875q-0.390625 1.390625 -1.25 2.46875q-0.84375 1.078125 -2.21875 1.734375q-1.359375 0.640625 -3.296875 0.640625q-0.34375 0 -0.890625 -0.015625q-0.546875 0 -1.125 -0.03125q-0.578125 -0.03125 -1.0625 -0.0625q-0.484375 -0.015625 -0.703125 -0.0625l0 -14.953125zm4.03125 1.421875q-0.28125 0 -0.609375 0q-0.328125 0 -0.65625 0.015625q-0.3125 0.015625 -0.578125 0.046875q-0.265625 0.015625 -0.421875 0.03125l0 11.953125q0.109375 0.015625 0.40625 0.03125q0.296875 0.015625 0.609375 0.03125q0.328125 0 0.625 0.015625q0.3125 0 0.40625 0q1.5 0 2.515625 -0.5q1.015625 -0.515625 1.609375 -1.375q0.609375 -0.875 0.859375 -1.984375q0.265625 -1.125 0.265625 -2.328125q0 -1.03125 -0.234375 -2.09375q-0.234375 -1.0625 -0.8125 -1.90625q-0.578125 -0.859375 -1.546875 -1.390625q-0.96875 -0.546875 -2.4375 -0.546875zm8.51178 12.59375q0 -0.5 0.34375 -0.8125q0.34375 -0.328125 0.875 -0.328125q0.65625 0 1.0625 0.46875q0.421875 0.46875 0.421875 1.359375q0 0.765625 -0.21875 1.34375q-0.203125 0.578125 -0.546875 0.984375q-0.34375 0.421875 -0.75 0.6875q-0.40625 0.265625 -0.8125 0.390625l-0.53125 -0.828125q0.765625 -0.296875 1.140625 -0.921875q0.375 -0.625 0.375 -1.265625q-0.1875 0.0625 -0.359375 0.0625q-0.421875 0 -0.71875 -0.28125q-0.28125 -0.296875 -0.28125 -0.859375zm5.564453 -14.015625q0.40625 -0.0625 0.90625 -0.09375q0.5 -0.03125 1.046875 -0.03125q0.546875 -0.015625 1.0625 -0.015625q0.53125 -0.015625 0.96875 -0.015625q1.796875 0 3.109375 0.5625q1.3125 0.546875 2.15625 1.546875q0.859375 0.984375 1.265625 2.375q0.421875 1.375 0.421875 3.03125q0 1.515625 -0.390625 2.921875q-0.390625 1.390625 -1.25 2.46875q-0.84375 1.078125 -2.21875 1.734375q-1.359375 0.640625 -3.296875 0.640625q-0.34375 0 -0.890625 -0.015625q-0.546875 0 -1.125 -0.03125q-0.578125 -0.03125 -1.0625 -0.0625q-0.484375 -0.015625 -0.703125 -0.0625l0 -14.953125zm4.03125 1.421875q-0.28125 0 -0.609375 0q-0.328125 0 -0.65625 0.015625q-0.3125 0.015625 -0.578125 0.046875q-0.265625 0.015625 -0.421875 0.03125l0 11.953125q0.109375 0.015625 0.40625 0.03125q0.296875 0.015625 0.609375 0.03125q0.328125 0 0.625 0.015625q0.3125 0 0.40625 0q1.5 0 2.515625 -0.5q1.015625 -0.515625 1.609375 -1.375q0.609375 -0.875 0.859375 -1.984375q0.265625 -1.125 0.265625 -2.328125q0 -1.03125 -0.234375 -2.09375q-0.234375 -1.0625 -0.8125 -1.90625q-0.578125 -0.859375 -1.546875 -1.390625q-0.96875 -0.546875 -2.4375 -0.546875zm9.229919 -1.671875q0.984375 1.03125 1.65625 2.265625q0.6875 1.21875 1.109375 2.515625q0.421875 1.28125 0.609375 2.59375q0.1875 1.3125 0.1875 2.5q0 1.171875 -0.1875 2.484375q-0.1875 1.296875 -0.625 2.609375q-0.421875 1.3125 -1.125 2.5625q-0.6875 1.265625 -1.6875 2.34375l-1.015625 -0.734375q0.84375 -1.09375 1.421875 -2.265625q0.578125 -1.171875 0.90625 -2.359375q0.328125 -1.203125 0.46875 -2.375q0.140625 -1.171875 0.140625 -2.265625q0 -1.015625 -0.171875 -2.203125q-0.171875 -1.203125 -0.53125 -2.421875q-0.34375 -1.21875 -0.90625 -2.359375q-0.546875 -1.15625 -1.328125 -2.09375l1.078125 -0.796875z" fill-rule="nonzero"/><path stroke="#9e9e9e" stroke-width="1.0" stroke-linecap="butt" d="m432.93192 56.583908l0 105.82677" fill-rule="nonzero"/><path stroke="#9e9e9e" stroke-width="1.0" stroke-linecap="butt" d="m459.3886 28.628527l0 133.78215" fill-rule="nonzero"/><path stroke="#9e9e9e" stroke-width="1.0" stroke-linecap="butt" d="m485.84528 29.129839l0 133.28084" fill-rule="nonzero"/><path stroke="#9e9e9e" stroke-width="1.0" stroke-linecap="butt" d="m512.302 29.129839l0 133.28084" fill-rule="nonzero"/><path stroke="#9e9e9e" stroke-width="1.0" stroke-linecap="butt" d="m538.75867 29.129839l0 133.28084" fill-rule="nonzero"/><path stroke="#9e9e9e" stroke-width="1.0" stroke-linecap="butt" d="m565.2154 29.129839l0 133.28084" fill-rule="nonzero"/><path stroke="#9e9e9e" stroke-width="1.0" stroke-linecap="butt" d="m459.8873 29.628527l105.82675 0" fill-rule="nonzero"/><path stroke="#9e9e9e" stroke-width="1.0" stroke-linecap="butt" d="m431.93192 56.08522l133.78214 0" fill-rule="nonzero"/><path stroke="#9e9e9e" stroke-width="1.0" stroke-linecap="butt" d="m432.43323 82.54191l133.28082 0" fill-rule="nonzero"/><path stroke="#9e9e9e" stroke-width="1.0" stroke-linecap="butt" d="m432.43323 108.998604l133.28082 0" fill-rule="nonzero"/><path stroke="#9e9e9e" stroke-width="1.0" stroke-linecap="butt" d="m432.43323 135.45529l133.28082 0" fill-rule="nonzero"/><path stroke="#9e9e9e" stroke-width="1.0" stroke-linecap="butt" d="m432.43323 161.91199l133.28082 0" fill-rule="nonzero"/><path fill="#000000" d="m474.95688 45.95187l-4.8125 0l-1.3125 3.625l-1.515625 0l4.9375 -13.265625l0.703125 0l4.96875 13.265625l-1.625 0l-1.34375 -3.625zm-4.3125 -1.34375l3.84375 0l-1.453125 -3.96875l-0.46875 -1.96875l-0.015625 0l-0.46875 2.0l-1.4375 3.9375z" fill-rule="nonzero"/><path fill="#000000" d="m503.07913 39.498745q0 0.46875 -0.15625 0.953125q-0.140625 0.484375 -0.4375 0.90625q-0.296875 0.421875 -0.765625 0.75q-0.46875 0.3125 -1.09375 0.46875l0 0.078125q0.5625 0.09375 1.0625 0.328125q0.515625 0.21875 0.90625 0.609375q0.390625 0.390625 0.625 0.953125q0.25 0.546875 0.25 1.3125q0 1.015625 -0.421875 1.75q-0.40625 0.734375 -1.09375 1.203125q-0.671875 0.46875 -1.5625 0.703125q-0.875 0.21875 -1.78125 0.21875q-0.3125 0 -0.75 0q-0.421875 0 -0.890625 -0.03125q-0.46875 -0.03125 -0.9375 -0.078125q-0.46875 -0.046875 -0.828125 -0.140625l0 -12.859375q0.703125 -0.109375 1.609375 -0.171875q0.921875 -0.078125 2.0 -0.078125q0.71875 0 1.46875 0.125q0.765625 0.109375 1.375 0.453125q0.625 0.34375 1.015625 0.96875q0.40625 0.609375 0.40625 1.578125zm-4.328125 8.890625q0.609375 0 1.15625 -0.140625q0.5625 -0.140625 0.984375 -0.453125q0.4375 -0.3125 0.6875 -0.75q0.25 -0.453125 0.25 -1.0625q0 -0.765625 -0.3125 -1.234375q-0.296875 -0.46875 -0.796875 -0.734375q-0.484375 -0.265625 -1.109375 -0.34375q-0.609375 -0.09375 -1.234375 -0.09375l-1.609375 0l0 4.671875q0.125 0.046875 0.359375 0.0625q0.25 0.015625 0.53125 0.03125q0.28125 0.015625 0.578125 0.03125q0.296875 0.015625 0.515625 0.015625zm-1.015625 -6.125q0.3125 0 0.75 -0.015625q0.453125 -0.015625 0.75 -0.0625q0.453125 -0.140625 0.84375 -0.359375q0.390625 -0.21875 0.703125 -0.5q0.3125 -0.296875 0.484375 -0.671875q0.171875 -0.390625 0.171875 -0.828125q0 -0.625 -0.234375 -1.015625q-0.234375 -0.40625 -0.625 -0.640625q-0.390625 -0.25 -0.890625 -0.34375q-0.5 -0.109375 -1.03125 -0.109375q-0.609375 0 -1.125 0.03125q-0.515625 0.015625 -0.765625 0.078125l0 4.4375l0.96875 0z" fill-rule="nonzero"/><path fill="#000000" d="m530.1415 49.029995q-0.546875 0.4375 -1.40625 0.59375q-0.859375 0.171875 -1.828125 0.171875q-1.1875 0 -2.21875 -0.390625q-1.015625 -0.40625 -1.78125 -1.21875q-0.765625 -0.828125 -1.21875 -2.109375q-0.4375 -1.28125 -0.4375 -3.03125q0 -1.828125 0.484375 -3.09375q0.5 -1.28125 1.3125 -2.09375q0.8125 -0.8125 1.8125 -1.1875q1.015625 -0.375 2.0625 -0.375q1.109375 0 1.8125 0.125q0.71875 0.109375 1.21875 0.328125l-0.359375 1.359375q-0.90625 -0.4375 -2.5625 -0.4375q-0.765625 0 -1.515625 0.28125q-0.734375 0.28125 -1.328125 0.921875q-0.59375 0.625 -0.953125 1.65625q-0.34375 1.03125 -0.34375 2.515625q0 1.34375 0.328125 2.359375q0.34375 1.0 0.921875 1.671875q0.59375 0.671875 1.390625 1.015625q0.796875 0.328125 1.71875 0.328125q0.84375 0 1.46875 -0.171875q0.625 -0.171875 1.0625 -0.421875l0.359375 1.203125z" fill-rule="nonzero"/><path fill="#000000" d="m547.46454 36.51437q0.359375 -0.046875 0.796875 -0.078125q0.4375 -0.03125 0.90625 -0.03125q0.484375 -0.015625 0.9375 -0.015625q0.46875 -0.015625 0.859375 -0.015625q1.5625 0 2.703125 0.484375q1.15625 0.484375 1.890625 1.359375q0.75 0.859375 1.109375 2.078125q0.375 1.203125 0.375 2.65625q0 1.328125 -0.34375 2.546875q-0.34375 1.21875 -1.09375 2.171875q-0.75 0.9375 -1.953125 1.515625q-1.1875 0.5625 -2.875 0.5625q-0.296875 0 -0.78125 -0.015625q-0.46875 0 -0.984375 -0.03125q-0.5 -0.03125 -0.9375 -0.046875q-0.421875 -0.015625 -0.609375 -0.0625l0 -13.078125zm3.53125 1.234375q-0.234375 0 -0.53125 0q-0.28125 0 -0.5625 0.015625q-0.28125 0.015625 -0.515625 0.046875q-0.234375 0.015625 -0.359375 0.03125l0 10.453125q0.09375 0.015625 0.34375 0.03125q0.265625 0 0.546875 0.015625q0.28125 0 0.53125 0.015625q0.265625 0 0.359375 0q1.3125 0 2.1875 -0.4375q0.890625 -0.453125 1.421875 -1.203125q0.53125 -0.765625 0.75 -1.734375q0.234375 -0.984375 0.234375 -2.03125q0 -0.90625 -0.203125 -1.828125q-0.203125 -0.9375 -0.71875 -1.671875q-0.5 -0.75 -1.34375 -1.21875q-0.84375 -0.484375 -2.140625 -0.484375z" fill-rule="nonzero"/><path fill="#000000" d="m448.50018 72.40856l-4.8125 0l-1.3125 3.625l-1.515625 0l4.9375 -13.265621l0.703125 0l4.96875 13.265621l-1.625 0l-1.34375 -3.625zm-4.3125 -1.34375l3.84375 0l-1.453125 -3.96875l-0.46875 -1.96875l-0.015625 0l-0.46875 2.0l-1.4375 3.9375z" fill-rule="nonzero"/><path fill="#000000" d="m522.49335 76.03356l4.6875 -10.9375l0.828125 -0.90625l-1.109375 0.171875l-5.3125 0l0 -1.3906212l7.796875 0l0 0.5l-5.375 12.562496l-1.515625 0z" fill-rule="nonzero"/><path fill="#000000" d="m450.16574 92.41213q0 0.46875 -0.15625 0.953125q-0.140625 0.484375 -0.4375 0.90625q-0.296875 0.421875 -0.765625 0.75q-0.46875 0.3125 -1.09375 0.46875l0 0.078125q0.5625 0.09375 1.0625 0.328125q0.515625 0.21875 0.90625 0.609375q0.390625 0.390625 0.625 0.953125q0.25 0.546875 0.25 1.3125q0 1.015625 -0.421875 1.75q-0.40625 0.734375 -1.09375 1.203125q-0.671875 0.46875 -1.5625 0.703125q-0.875 0.21875 -1.78125 0.21875q-0.3125 0 -0.75 0q-0.421875 0 -0.890625 -0.03125q-0.46875 -0.03125 -0.9375 -0.078125q-0.46875 -0.046875 -0.828125 -0.140625l0 -12.859375q0.703125 -0.109375 1.609375 -0.171875q0.921875 -0.078125 2.0 -0.078125q0.71875 0 1.46875 0.125q0.765625 0.109375 1.375 0.453125q0.625 0.34375 1.015625 0.96875q0.40625 0.609375 0.40625 1.578125zm-4.328125 8.890625q0.609375 0 1.15625 -0.140625q0.5625 -0.140625 0.984375 -0.453125q0.4375 -0.3125 0.6875 -0.75q0.25 -0.453125 0.25 -1.0625q0 -0.765625 -0.3125 -1.234375q-0.296875 -0.46875 -0.796875 -0.734375q-0.484375 -0.265625 -1.109375 -0.34375q-0.609375 -0.09375 -1.234375 -0.09375l-1.609375 0l0 4.671875q0.125 0.046875 0.359375 0.0625q0.25 0.015625 0.53125 0.03125q0.28125 0.015625 0.578125 0.03125q0.296875 0.015625 0.515625 0.015625zm-1.015625 -6.125q0.3125 0 0.75 -0.015625q0.453125 -0.015625 0.75 -0.0625q0.453125 -0.140625 0.84375 -0.359375q0.390625 -0.21875 0.703125 -0.5q0.3125 -0.296875 0.484375 -0.671875q0.171875 -0.390625 0.171875 -0.828125q0 -0.625 -0.234375 -1.015625q-0.234375 -0.40625 -0.625 -0.640625q-0.390625 -0.25 -0.890625 -0.34375q-0.5 -0.109375 -1.03125 -0.109375q-0.609375 0 -1.125 0.03125q-0.515625 0.015625 -0.765625 0.078125l0 4.4375l0.96875 0z" fill-rule="nonzero"/><path fill="#000000" d="m468.79874 99.38088q0 -1.1875 0.609375 -2.046875q0.625 -0.875 1.9375 -1.578125q-0.46875 -0.28125 -0.875 -0.578125q-0.40625 -0.3125 -0.71875 -0.703125q-0.296875 -0.390625 -0.484375 -0.875q-0.171875 -0.5 -0.171875 -1.125q0 -0.734375 0.25 -1.328125q0.265625 -0.59375 0.734375 -1.015625q0.46875 -0.4375 1.125 -0.671875q0.671875 -0.25 1.515625 -0.25q0.78125 0 1.40625 0.234375q0.640625 0.21875 1.078125 0.609375q0.4375 0.390625 0.671875 0.9375q0.25 0.53125 0.25 1.1875q0 1.0625 -0.484375 1.875q-0.484375 0.8125 -1.59375 1.59375q0.484375 0.28125 0.921875 0.625q0.4375 0.328125 0.765625 0.734375q0.328125 0.40625 0.515625 0.921875q0.1875 0.515625 0.1875 1.171875q0 0.796875 -0.265625 1.46875q-0.265625 0.65625 -0.765625 1.140625q-0.5 0.46875 -1.234375 0.734375q-0.734375 0.265625 -1.65625 0.265625q-0.90625 0 -1.59375 -0.25q-0.6875 -0.265625 -1.171875 -0.703125q-0.46875 -0.453125 -0.71875 -1.0625q-0.234375 -0.609375 -0.234375 -1.3125zm6.171875 -0.1875q0 -0.5625 -0.21875 -0.984375q-0.21875 -0.421875 -0.59375 -0.765625q-0.359375 -0.34375 -0.828125 -0.625q-0.46875 -0.28125 -0.96875 -0.546875q-1.140625 0.640625 -1.625 1.421875q-0.484375 0.78125 -0.484375 1.5q0 0.4375 0.140625 0.859375q0.15625 0.40625 0.453125 0.703125q0.3125 0.296875 0.75 0.484375q0.4375 0.171875 1.015625 0.171875q0.46875 0 0.890625 -0.140625q0.4375 -0.140625 0.75 -0.40625q0.328125 -0.28125 0.515625 -0.703125q0.203125 -0.421875 0.203125 -0.96875zm-4.421875 -6.765625q0 0.53125 0.203125 0.9375q0.21875 0.390625 0.5625 0.71875q0.34375 0.3125 0.78125 0.578125q0.453125 0.265625 0.9375 0.515625q0.84375 -0.65625 1.234375 -1.28125q0.40625 -0.640625 0.40625 -1.40625q0 -0.953125 -0.59375 -1.46875q-0.578125 -0.515625 -1.390625 -0.515625q-0.515625 0 -0.90625 0.171875q-0.390625 0.171875 -0.671875 0.4375q-0.28125 0.25 -0.421875 0.609375q-0.140625 0.34375 -0.140625 0.703125z" fill-rule="nonzero"/><path fill="#000000" d="m450.7714 128.40007q-0.546875 0.4375 -1.40625 0.59375q-0.859375 0.171875 -1.828125 0.171875q-1.1875 0 -2.21875 -0.390625q-1.015625 -0.40625 -1.78125 -1.2187424q-0.765625 -0.828125 -1.21875 -2.109375q-0.4375 -1.28125 -0.4375 -3.03125q0 -1.828125 0.484375 -3.09375q0.5 -1.28125 1.3125 -2.09375q0.8125 -0.8125 1.8125 -1.1875q1.015625 -0.375 2.0625 -0.375q1.109375 0 1.8125 0.125q0.71875 0.109375 1.21875 0.328125l-0.359375 1.359375q-0.90625 -0.4375 -2.5625 -0.4375q-0.765625 0 -1.515625 0.28125q-0.734375 0.28125 -1.328125 0.921875q-0.59375 0.625 -0.953125 1.65625q-0.34375 1.03125 -0.34375 2.515625q0 1.34375 0.328125 2.359375q0.34375 1.0 0.921875 1.671875q0.59375 0.671875 1.390625 1.015625q0.796875 0.328125 1.71875 0.328125q0.84375 0 1.46875 -0.171875q0.625 -0.171875 1.0625 -0.421875l0.359375 1.2031174z" fill-rule="nonzero"/><path fill="#000000" d="m471.8925 127.86883q0.640625 0 1.171875 -0.1875q0.546875 -0.1875 0.9375 -0.546875q0.390625 -0.375 0.609375 -0.875q0.234375 -0.5 0.234375 -1.09375q0 -1.3125 -0.78125 -1.9375q-0.765625 -0.640625 -2.125 -0.640625l-1.390625 0l0 -0.546875l2.6875 -4.140625l0.859375 -0.8125l-1.203125 0.1875l-3.703125 0l0 -1.390625l6.671875 0l0 0.546875l-2.96875 4.453125l-0.65625 0.546875l0 0.03125l0.625 -0.125q0.75 0.015625 1.375 0.265625q0.640625 0.25 1.109375 0.734375q0.46875 0.46875 0.734375 1.140625q0.265625 0.65625 0.265625 1.5q0 1.0 -0.359375 1.78125q-0.359375 0.78125 -0.96875 1.3281174q-0.59375 0.53125 -1.421875 0.8125q-0.8125 0.265625 -1.734375 0.265625q-0.84375 0 -1.515625 -0.125q-0.671875 -0.125 -1.171875 -0.34375l0.390625 -1.3124924q0.4375 0.203125 1.015625 0.34375q0.59375 0.140625 1.3125 0.140625z" fill-rule="nonzero"/><path fill="#000000" d="m498.34918 127.86883q0.640625 0 1.171875 -0.1875q0.546875 -0.1875 0.9375 -0.546875q0.390625 -0.375 0.609375 -0.875q0.234375 -0.5 0.234375 -1.09375q0 -1.3125 -0.78125 -1.9375q-0.765625 -0.640625 -2.125 -0.640625l-1.390625 0l0 -0.546875l2.6875 -4.140625l0.859375 -0.8125l-1.203125 0.1875l-3.703125 0l0 -1.390625l6.671875 0l0 0.546875l-2.96875 4.453125l-0.65625 0.546875l0 0.03125l0.625 -0.125q0.75 0.015625 1.375 0.265625q0.640625 0.25 1.109375 0.734375q0.46875 0.46875 0.734375 1.140625q0.265625 0.65625 0.265625 1.5q0 1.0 -0.359375 1.78125q-0.359375 0.78125 -0.96875 1.3281174q-0.59375 0.53125 -1.421875 0.8125q-0.8125 0.265625 -1.734375 0.265625q-0.84375 0 -1.515625 -0.125q-0.671875 -0.125 -1.171875 -0.34375l0.390625 -1.3124924q0.4375 0.203125 1.015625 0.34375q0.59375 0.140625 1.3125 0.140625z" fill-rule="nonzero"/><path fill="#000000" d="m441.6378 142.34114q0.359375 -0.046875 0.796875 -0.078125q0.4375 -0.03125 0.90625 -0.03125q0.484375 -0.015625 0.9375 -0.015625q0.46875 -0.015625 0.859375 -0.015625q1.5625 0 2.703125 0.484375q1.15625 0.484375 1.890625 1.359375q0.75 0.859375 1.109375 2.078125q0.375 1.203125 0.375 2.65625q0 1.328125 -0.34375 2.546875q-0.34375 1.21875 -1.09375 2.171875q-0.75 0.9375 -1.953125 1.515625q-1.1875 0.5625 -2.875 0.5625q-0.296875 0 -0.78125 -0.015625q-0.46875 0 -0.984375 -0.03125q-0.5 -0.03125 -0.9375 -0.046875q-0.421875 -0.015625 -0.609375 -0.0625l0 -13.078125zm3.53125 1.234375q-0.234375 0 -0.53125 0q-0.28125 0 -0.5625 0.015625q-0.28125 0.015625 -0.515625 0.046875q-0.234375 0.015625 -0.359375 0.03125l0 10.453125q0.09375 0.015625 0.34375 0.03125q0.265625 0 0.546875 0.015625q0.28125 0 0.53125 0.015625q0.265625 0 0.359375 0q1.3125 0 2.1875 -0.4375q0.890625 -0.453125 1.421875 -1.203125q0.53125 -0.765625 0.75 -1.734375q0.234375 -0.984375 0.234375 -2.03125q0 -0.90625 -0.203125 -1.828125q-0.203125 -0.9375 -0.71875 -1.671875q-0.5 -0.75 -1.34375 -1.21875q-0.84375 -0.484375 -2.140625 -0.484375z" fill-rule="nonzero"/><path fill="#000000" d="m529.61835 151.46614q0 0.859375 -0.265625 1.625q-0.25 0.75 -0.75 1.328125q-0.5 0.5625 -1.25 0.890625q-0.75 0.3125 -1.703125 0.3125q-0.9375 0 -1.6875 -0.296875q-0.734375 -0.296875 -1.28125 -0.875q-0.53125 -0.59375 -0.828125 -1.453125q-0.28125 -0.859375 -0.28125 -1.984375q0 -1.84375 0.46875 -3.390625q0.484375 -1.5625 1.3125 -2.71875q0.84375 -1.15625 1.984375 -1.875q1.15625 -0.71875 2.5 -0.90625l0.3125 1.1875q-1.046875 0.1875 -1.90625 0.71875q-0.859375 0.515625 -1.5 1.28125q-0.640625 0.765625 -1.0625 1.71875q-0.40625 0.953125 -0.546875 1.953125q0.296875 -0.5 1.0 -0.921875q0.71875 -0.421875 1.734375 -0.421875q1.765625 0 2.75 1.015625q1.0 1.0 1.0 2.8125zm-1.546875 0.15625q0 -1.328125 -0.609375 -2.0q-0.609375 -0.671875 -1.90625 -0.671875q-0.90625 0 -1.578125 0.453125q-0.65625 0.4375 -0.921875 1.0q-0.03125 0.265625 -0.03125 0.4375q0 0.15625 0 0.359375q0 0.578125 0.15625 1.140625q0.15625 0.5625 0.484375 1.0q0.34375 0.4375 0.828125 0.71875q0.5 0.265625 1.171875 0.265625q0.546875 0 0.984375 -0.203125q0.4375 -0.21875 0.75 -0.5625q0.328125 -0.359375 0.5 -0.859375q0.171875 -0.5 0.171875 -1.078125z" fill-rule="nonzero"/><path fill="#000000" d="m555.2313 145.30989q0 0.984375 -0.375 2.03125q-0.359375 1.03125 -0.953125 2.078125q-0.578125 1.046875 -1.3125 2.046875q-0.71875 0.984375 -1.453125 1.890625l-0.90625 0.796875l0 0.078125l1.1875 -0.203125l4.0625 0l0 1.375l-7.421875 0l0 -0.546875q0.40625 -0.421875 0.984375 -1.046875q0.578125 -0.640625 1.203125 -1.40625q0.625 -0.78125 1.234375 -1.640625q0.609375 -0.875 1.09375 -1.765625q0.5 -0.90625 0.796875 -1.78125q0.296875 -0.875 0.296875 -1.65625q0 -0.921875 -0.515625 -1.53125q-0.515625 -0.609375 -1.578125 -0.609375q-0.71875 0 -1.390625 0.296875q-0.671875 0.28125 -1.15625 0.65625l-0.609375 -1.0625q0.65625 -0.5625 1.546875 -0.875q0.890625 -0.3125 1.921875 -0.3125q0.796875 0 1.40625 0.234375q0.625 0.234375 1.046875 0.671875q0.4375 0.421875 0.65625 1.015625q0.234375 0.578125 0.234375 1.265625z" fill-rule="nonzero"/><path fill="#000000" fill-opacity="0.0" d="m452.33347 -2.6234424l93.480316 0l0 42.01575l-93.480316 0z" fill-rule="evenodd"/><path fill="#000000" d="m462.69284 13.0934305l6.09375 0l0 1.1875l-4.765625 0l0 3.828126l4.453125 0l0 1.171875l-4.453125 0l0 5.015625l-1.328125 0l0 -11.203126zm11.928284 4.437501q-0.484375 -0.15625 -0.921875 -0.15625q-0.6875 0 -1.09375 0.375q-0.390625 0.375 -0.484375 0.953125l0 5.59375l-1.28125 0l0 -8.0l0.890625 0l0.25 0.96875l0.0625 0q0.296875 -0.53125 0.71875 -0.828125q0.421875 -0.296875 1.078125 -0.296875q0.46875 0 1.046875 0.15625l-0.265625 1.234375zm1.2056274 2.765625q0 -2.03125 0.90625 -3.109375q0.90625 -1.078125 2.59375 -1.078125q0.90625 0 1.5625 0.296875q0.671875 0.296875 1.09375 0.84375q0.4375 0.546875 0.640625 1.328125q0.21875 0.78125 0.21875 1.71875q0 2.03125 -0.90625 3.109375q-0.90625 1.078125 -2.609375 1.078125q-0.890625 0 -1.5625 -0.296875q-0.65625 -0.296875 -1.09375 -0.84375q-0.421875 -0.546875 -0.640625 -1.328125q-0.203125 -0.78125 -0.203125 -1.71875zm1.328125 0q0 0.609375 0.125 1.171875q0.125 0.5625 0.375 0.984375q0.25 0.40625 0.671875 0.671875q0.421875 0.25 1.0 0.25q2.1875 0.015625 2.1875 -3.078125q0 -0.625 -0.125 -1.1875q-0.125 -0.5625 -0.375 -0.96875q-0.25 -0.421875 -0.671875 -0.671875q-0.421875 -0.25 -1.015625 -0.25q-2.171875 -0.015625 -2.171875 3.078125zm12.388519 4.0l0 -4.53125q0 -0.640625 -0.0625 -1.109375q-0.046875 -0.46875 -0.21875 -0.78125q-0.15625 -0.328125 -0.453125 -0.484375q-0.296875 -0.171875 -0.765625 -0.171875q-0.734375 0 -1.234375 0.453125q-0.484375 0.453125 -0.671875 1.125l0 5.5l-1.28125 0l0 -8.0l0.890625 0l0.25 0.96875l0.0625 0q0.421875 -0.5 0.984375 -0.828125q0.578125 -0.328125 1.484375 -0.328125q0.78125 0 1.265625 0.296875q0.484375 0.296875 0.75 1.03125q0.375 -0.625 1.015625 -0.96875q0.65625 -0.359375 1.46875 -0.359375q0.671875 0 1.140625 0.15625q0.46875 0.140625 0.765625 0.53125q0.296875 0.375 0.4375 1.03125q0.140625 0.65625 0.140625 1.671875l0 4.796875l-1.28125 0l0 -4.8125q0 -0.578125 -0.0625 -1.0q-0.046875 -0.421875 -0.21875 -0.703125q-0.171875 -0.28125 -0.46875 -0.421875q-0.296875 -0.140625 -0.765625 -0.140625q-0.8125 0 -1.265625 0.453125q-0.4375 0.453125 -0.625 1.28125l0 5.34375l-1.28125 0z" fill-rule="nonzero"/><path fill="#000000" d="m515.05743 16.312181q1.203125 1.328125 2.078125 2.015625q0.890625 0.6875 1.671875 1.015625l0 0.421875q-0.890625 0.4375 -1.75 1.125q-0.84375 0.671875 -2.015625 1.96875l-0.703125 0q0.859375 -1.828125 1.796875 -2.8125l-14.53125 0l0 -0.921875l14.53125 0q-0.6875 -0.875 -0.96875 -1.296875q-0.265625 -0.4375 -0.8125 -1.515625l0.703125 0z" fill-rule="nonzero"/><path fill="#000000" fill-opacity="0.0" d="m413.7953 54.272964l41.826782 0l0 42.614174l-41.826782 0z" fill-rule="evenodd"/><path fill="#000000" d="m423.38904 60.61734l-3.484375 0l0 10.015625l-1.328125 0l0 -10.015625l-3.5 0l0 -1.1875l8.3125 0l0 1.1875zm-0.98046875 6.015625q0 -2.03125 0.90625 -3.109375q0.90625 -1.078125 2.59375 -1.078125q0.90625 0 1.5625 0.296875q0.671875 0.296875 1.09375 0.84375q0.4375 0.546875 0.640625 1.328125q0.21875 0.78125 0.21875 1.71875q0 2.03125 -0.90625 3.109375q-0.90625 1.078125 -2.609375 1.078125q-0.890625 0 -1.5625 -0.296875q-0.65625 -0.296875 -1.09375 -0.84375q-0.421875 -0.546875 -0.640625 -1.328125q-0.203125 -0.78125 -0.203125 -1.71875zm1.328125 0q0 0.609375 0.125 1.171875q0.125 0.5625 0.375 0.984375q0.25 0.40625 0.671875 0.671875q0.421875 0.25 1.0 0.25q2.1875 0.015625 2.1875 -3.078125q0 -0.625 -0.125 -1.1875q-0.125 -0.5625 -0.375 -0.96875q-0.25 -0.421875 -0.671875 -0.671875q-0.421875 -0.25 -1.015625 -0.25q-2.171875 -0.015625 -2.171875 3.078125z" fill-rule="nonzero"/><path fill="#000000" d="m420.27042 89.95797l0 -0.59375q0.921875 0.453125 1.28125 0.6875q0.375 0.25 1.125 0.84375l0 -11.53125l0.796875 0l0 11.53125q0.84375 -0.8125 2.40625 -1.546875l0 0.609375q-1.125 1.0 -1.703125 1.71875q-0.578125 0.734375 -0.953125 1.515625l-0.359375 0q-0.28125 -0.671875 -0.875 -1.4375q-0.59375 -0.75 -1.71875 -1.796875z" fill-rule="nonzero"/><path fill="#000000" fill-opacity="0.0" d="m12.271082 48.100983c0 -10.461185 8.481642 -18.941652 18.944277 -18.941652c5.024334 0 9.842888 1.9956322 13.395626 5.54788c3.552742 3.55225 5.5486526 8.370132 5.5486526 13.393772c0 10.461182 -8.481644 18.94165 -18.944279 18.94165c-10.462635 0 -18.944277 -8.480469 -18.944277 -18.94165z" fill-rule="evenodd"/><path stroke="#000000" stroke-width="2.1627296587926508" stroke-linejoin="round" stroke-linecap="butt" d="m12.271082 48.100983c0 -10.461185 8.481642 -18.941652 18.944277 -18.941652c5.024334 0 9.842888 1.9956322 13.395626 5.54788c3.552742 3.55225 5.5486526 8.370132 5.5486526 13.393772c0 10.461182 -8.481644 18.94165 -18.944279 18.94165c-10.462635 0 -18.944277 -8.480469 -18.944277 -18.94165z" fill-rule="evenodd"/><path fill="#000000" d="m33.50508 52.726837l-6.937502 0l-1.890625 5.21875l-2.203125 0l7.125 -19.125l1.03125 0l7.156252 19.125l-2.34375 0l-1.9375 -5.21875zm-6.218752 -1.9375l5.546877 0l-2.109377 -5.734375l-0.671875 -2.84375l-0.015625 0l-0.671875 2.90625l-2.078125 5.671875z" fill-rule="nonzero"/><path fill="#000000" fill-opacity="0.0" d="m50.159637 48.100983l18.012962 0" fill-rule="evenodd"/><path stroke="#000000" stroke-width="1.4435695538057742" stroke-linejoin="round" stroke-linecap="butt" d="m50.159637 48.100983l18.012962 0" fill-rule="evenodd"/><path fill="#000000" fill-opacity="0.0" d="m105.7971 48.100983c0 -10.461185 8.481636 -18.941652 18.944275 -18.941652c5.02433 0 9.842888 1.9956322 13.395622 5.54788c3.5527496 3.55225 5.5486603 8.370132 5.5486603 13.393772c0 10.461182 -8.481644 18.94165 -18.944283 18.94165c-10.462639 0 -18.944275 -8.480469 -18.944275 -18.94165z" fill-rule="evenodd"/><path stroke="#000000" stroke-width="2.1627296587926508" stroke-linejoin="round" stroke-linecap="butt" d="m105.7971 48.100983c0 -10.461185 8.481636 -18.941652 18.944275 -18.941652c5.02433 0 9.842888 1.9956322 13.395622 5.54788c3.5527496 3.55225 5.5486603 8.370132 5.5486603 13.393772c0 10.461182 -8.481644 18.94165 -18.944283 18.94165c-10.462639 0 -18.944275 -8.480469 -18.944275 -18.94165z" fill-rule="evenodd"/><path fill="#000000" d="m129.43517 43.414337q0 0.671875 -0.21875 1.375q-0.203125 0.703125 -0.640625 1.3125q-0.4375 0.59375 -1.109375 1.0625q-0.671875 0.453125 -1.578125 0.6875l0 0.109375q0.796875 0.140625 1.53125 0.46875q0.75 0.3125 1.3125 0.875q0.5625 0.5625 0.90625 1.375q0.359375 0.8125 0.359375 1.90625q0 1.453125 -0.609375 2.515625q-0.59375 1.0625 -1.578125 1.734375q-0.984375 0.671875 -2.25 1.0q-1.265625 0.328125 -2.578125 0.328125q-0.453125 0 -1.078125 0q-0.625 0 -1.296875 -0.046875q-0.671875 -0.03125 -1.34375 -0.109375q-0.671875 -0.0625 -1.1875 -0.203125l0 -18.53125q1.0 -0.15625 2.3125 -0.265625q1.328125 -0.109375 2.890625 -0.109375q1.046875 0 2.125 0.171875q1.09375 0.171875 1.984375 0.671875q0.890625 0.5 1.46875 1.390625q0.578125 0.890625 0.578125 2.28125zm-6.234375 12.8125q0.859375 0 1.65625 -0.203125q0.8125 -0.203125 1.421875 -0.640625q0.625 -0.453125 0.984375 -1.09375q0.375 -0.65625 0.375 -1.53125q0 -1.109375 -0.453125 -1.78125q-0.4375 -0.671875 -1.15625 -1.046875q-0.703125 -0.375 -1.59375 -0.5q-0.890625 -0.140625 -1.78125 -0.140625l-2.34375 0l0 6.75q0.1875 0.046875 0.53125 0.078125q0.359375 0.03125 0.765625 0.0625q0.40625 0.015625 0.828125 0.03125q0.4375 0.015625 0.765625 0.015625zm-1.484375 -8.828125q0.453125 0 1.09375 -0.015625q0.65625 -0.03125 1.078125 -0.09375q0.65625 -0.21875 1.21875 -0.515625q0.5625 -0.3125 1.0 -0.734375q0.453125 -0.421875 0.703125 -0.96875q0.265625 -0.546875 0.265625 -1.203125q0 -0.875 -0.34375 -1.453125q-0.34375 -0.578125 -0.90625 -0.921875q-0.5625 -0.359375 -1.296875 -0.5q-0.71875 -0.15625 -1.46875 -0.15625q-0.890625 0 -1.640625 0.046875q-0.734375 0.03125 -1.109375 0.109375l0 6.40625l1.40625 0z" fill-rule="nonzero"/><path fill="#000000" fill-opacity="0.0" d="m12.271082 128.86418c0 -10.461182 8.481642 -18.94165 18.944277 -18.94165c5.024334 0 9.842888 1.995636 13.395626 5.547882c3.552742 3.552246 5.5486526 8.370132 5.5486526 13.393768c0 10.461182 -8.481644 18.94165 -18.944279 18.94165c-10.462635 0 -18.944277 -8.480469 -18.944277 -18.94165z" fill-rule="evenodd"/><path stroke="#000000" stroke-width="2.1627296587926508" stroke-linejoin="round" stroke-linecap="butt" d="m12.271082 128.86418c0 -10.461182 8.481642 -18.94165 18.944277 -18.94165c5.024334 0 9.842888 1.995636 13.395626 5.547882c3.552742 3.552246 5.5486526 8.370132 5.5486526 13.393768c0 10.461182 -8.481644 18.94165 -18.944279 18.94165c-10.462635 0 -18.944277 -8.480469 -18.944277 -18.94165z" fill-rule="evenodd"/><path fill="#000000" d="m36.787178 137.92754q-0.8125 0.625 -2.046875 0.859375q-1.234375 0.25 -2.640625 0.25q-1.6875019 0 -3.171877 -0.578125q-1.484375 -0.578125 -2.59375 -1.765625q-1.09375 -1.1875 -1.75 -3.03125q-0.640625 -1.84375 -0.640625 -4.375q0 -2.625 0.71875 -4.46875q0.71875 -1.84375 1.890625 -3.015625q1.171875 -1.171875 2.609375 -1.703125q1.453125 -0.546875 2.968752 -0.546875q1.609375 0 2.625 0.171875q1.03125 0.171875 1.765625 0.46875l-0.546875 1.96875q-1.28125 -0.625 -3.6875 -0.625q-1.0937519 0 -2.171877 0.40625q-1.078125 0.40625 -1.9375 1.328125q-0.84375 0.90625 -1.359375 2.390625q-0.5 1.484375 -0.5 3.625q0 1.9375 0.484375 3.390625q0.484375 1.453125 1.328125 2.421875q0.84375 0.96875 1.984375 1.453125q1.15625 0.484375 2.500002 0.484375q1.203125 0 2.109375 -0.234375q0.90625 -0.25 1.515625 -0.625l0.546875 1.75z" fill-rule="nonzero"/><path fill="#000000" fill-opacity="0.0" d="m105.7971 128.86418c0 -10.461182 8.481636 -18.94165 18.944275 -18.94165c5.02433 0 9.842888 1.995636 13.395622 5.547882c3.5527496 3.552246 5.5486603 8.370132 5.5486603 13.393768c0 10.461182 -8.481644 18.94165 -18.944283 18.94165c-10.462639 0 -18.944275 -8.480469 -18.944275 -18.94165z" fill-rule="evenodd"/><path stroke="#000000" stroke-width="2.1627296587926508" stroke-linejoin="round" stroke-linecap="butt" d="m105.7971 128.86418c0 -10.461182 8.481636 -18.94165 18.944275 -18.94165c5.02433 0 9.842888 1.995636 13.395622 5.547882c3.5527496 3.552246 5.5486603 8.370132 5.5486603 13.393768c0 10.461182 -8.481644 18.94165 -18.944283 18.94165c-10.462639 0 -18.944275 -8.480469 -18.944275 -18.94165z" fill-rule="evenodd"/><path fill="#000000" d="m117.446594 119.88066q0.515625 -0.09375 1.140625 -0.125q0.640625 -0.046875 1.328125 -0.046875q0.6875 -0.015625 1.34375 -0.03125q0.65625 -0.015625 1.21875 -0.015625q2.265625 0 3.921875 0.703125q1.65625 0.6875 2.734375 1.953125q1.078125 1.25 1.59375 3.0q0.53125 1.734375 0.53125 3.84375q0 1.90625 -0.5 3.671875q-0.5 1.765625 -1.578125 3.125q-1.078125 1.34375 -2.796875 2.171875q-1.71875 0.8125 -4.171875 0.8125q-0.421875 0 -1.109375 -0.015625q-0.6875 0 -1.421875 -0.046875q-0.71875 -0.03125 -1.34375 -0.0625q-0.609375 -0.03125 -0.890625 -0.078125l0 -18.859375zm5.09375 1.765625q-0.359375 0 -0.78125 0q-0.40625 0 -0.8125 0.03125q-0.40625 0.03125 -0.75 0.0625q-0.328125 0.015625 -0.515625 0.046875l0 15.0625q0.140625 0.03125 0.515625 0.046875q0.375 0.015625 0.78125 0.03125q0.40625 0 0.78125 0.015625q0.375 0.015625 0.515625 0.015625q1.875 0 3.15625 -0.640625q1.28125 -0.65625 2.046875 -1.734375q0.765625 -1.09375 1.078125 -2.5q0.328125 -1.421875 0.328125 -2.921875q0 -1.328125 -0.296875 -2.65625q-0.296875 -1.328125 -1.03125 -2.40625q-0.71875 -1.078125 -1.9375 -1.765625q-1.21875 -0.6875 -3.078125 -0.6875z" fill-rule="nonzero"/><path fill="#000000" fill-opacity="0.0" d="m87.7917 128.86418l18.012962 0" fill-rule="evenodd"/><path stroke="#000000" stroke-width="1.4435695538057742" stroke-linejoin="round" stroke-linecap="butt" d="m87.791695 128.86418l11.516907 0" fill-rule="evenodd"/><path fill="#000000" stroke="#000000" stroke-width="1.4435695538057742" stroke-linecap="butt" d="m99.3086 130.46045l4.3857117 -1.5962677l-4.3857117 -1.5962677z" fill-rule="evenodd"/><path fill="#000000" fill-opacity="0.0" d="m68.16598 48.100983c0 -5.418743 4.393364 -9.811504 9.812859 -9.811504c2.6025314 0 5.0984726 1.0337105 6.9387436 2.873722c1.840271 1.8400154 2.8741226 4.3356094 2.8741226 6.9377823c0 5.418743 -4.3933716 9.811501 -9.812866 9.811501c-5.4194946 0 -9.812859 -4.3927574 -9.812859 -9.811501z" fill-rule="evenodd"/><path fill="#000000" d="m74.1237 51.324757q0 -1.09375 0.5625 -1.890625q0.578125 -0.8125 1.796875 -1.46875q-0.4375 -0.25 -0.8125 -0.53125q-0.359375 -0.296875 -0.65625 -0.65625q-0.28125 -0.359375 -0.453125 -0.8125q-0.15625 -0.453125 -0.15625 -1.03125q0 -0.6875 0.234375 -1.234375q0.234375 -0.546875 0.671875 -0.9375q0.4375 -0.40625 1.046875 -0.625q0.625 -0.234375 1.40625 -0.234375q0.71875 0 1.3125 0.203125q0.59375 0.203125 1.0 0.578125q0.40625 0.359375 0.625 0.859375q0.21875 0.5 0.21875 1.109375q0 0.984375 -0.453125 1.734375q-0.4375 0.75 -1.484375 1.484375q0.453125 0.25 0.859375 0.5625q0.40625 0.3125 0.703125 0.703125q0.3125 0.375 0.484375 0.859375q0.171875 0.46875 0.171875 1.078125q0 0.734375 -0.25 1.359375q-0.234375 0.609375 -0.703125 1.046875q-0.46875 0.4375 -1.140625 0.6875q-0.671875 0.25 -1.53125 0.25q-0.84375 0 -1.484375 -0.234375q-0.625 -0.25 -1.078125 -0.65625q-0.4375 -0.421875 -0.671875 -0.984375q-0.21875 -0.5625 -0.21875 -1.21875zm5.734375 -0.171875q0 -0.515625 -0.21875 -0.90625q-0.203125 -0.390625 -0.546875 -0.703125q-0.328125 -0.328125 -0.765625 -0.578125q-0.421875 -0.265625 -0.890625 -0.515625q-1.0625 0.59375 -1.515625 1.328125q-0.4375 0.71875 -0.4375 1.375q0 0.421875 0.125 0.796875q0.140625 0.375 0.421875 0.65625q0.28125 0.28125 0.6875 0.453125q0.40625 0.15625 0.9375 0.15625q0.4375 0 0.828125 -0.125q0.40625 -0.140625 0.703125 -0.390625q0.296875 -0.25 0.484375 -0.640625q0.1875 -0.390625 0.1875 -0.90625zm-4.109375 -6.265625q0 0.484375 0.1875 0.859375q0.203125 0.375 0.515625 0.671875q0.328125 0.296875 0.734375 0.546875q0.421875 0.25 0.875 0.46875q0.765625 -0.609375 1.140625 -1.1875q0.375 -0.59375 0.375 -1.296875q0 -0.890625 -0.546875 -1.359375q-0.546875 -0.484375 -1.296875 -0.484375q-0.46875 0 -0.84375 0.15625q-0.359375 0.15625 -0.625 0.40625q-0.25 0.234375 -0.390625 0.5625q-0.125 0.3125 -0.125 0.65625z" fill-rule="nonzero"/><path fill="#000000" fill-opacity="0.0" d="m87.7917 48.100983l18.012962 0" fill-rule="evenodd"/><path stroke="#000000" stroke-width="1.4435695538057742" stroke-linejoin="round" stroke-linecap="butt" d="m87.791695 48.100983l11.516907 0" fill-rule="evenodd"/><path fill="#000000" stroke="#000000" stroke-width="1.4435695538057742" stroke-linecap="butt" d="m99.3086 49.69725l4.3857117 -1.5962677l-4.3857117 -1.5962639z" fill-rule="evenodd"/><path fill="#000000" fill-opacity="0.0" d="m148.58072 106.379486c-5.2244415 0 -10.448883 4.542366 -10.448883 9.084724" fill-rule="evenodd"/><path stroke="#000000" stroke-width="1.4435695538057742" stroke-linejoin="round" stroke-linecap="butt" d="m148.58072 106.379486c-5.2244415 0 -10.448883 4.542366 -10.448883 9.084724" fill-rule="evenodd"/><path fill="#000000" fill-opacity="0.0" d="m111.34574 61.49475l-66.73656 53.985977" fill-rule="evenodd"/><path stroke="#000000" stroke-width="1.4435695538057742" stroke-linejoin="round" stroke-linecap="butt" d="m111.34574 61.49475l-61.68608 49.900436" fill-rule="evenodd"/><path fill="#000000" stroke="#000000" stroke-width="1.4435695538057742" stroke-linecap="butt" d="m48.655727 110.154144l-2.4058037 3.999321l4.413666 -1.5172348z" fill-rule="evenodd"/><path fill="#000000" fill-opacity="0.0" d="m148.58072 106.379486c0 -5.4187393 4.3933716 -9.811501 9.812866 -9.811501c2.602539 0 5.098465 1.0337067 6.938736 2.873726c1.840271 1.8400116 2.8741302 4.335602 2.8741302 6.9377747c0 5.418747 -4.3933716 9.811508 -9.812866 9.811508c-5.4194946 0 -9.812866 -4.392761 -9.812866 -9.811508z" fill-rule="evenodd"/><path fill="#000000" d="m159.72266 103.134514q0 0.921875 -0.34375 1.890625q-0.328125 0.953125 -0.875 1.921875q-0.546875 0.96875 -1.234375 1.890625q-0.671875 0.921875 -1.34375 1.75l-0.84375 0.75l0 0.0625l1.109375 -0.1875l3.765625 0l0 1.28125l-6.875 0l0 -0.5q0.375 -0.40625 0.90625 -0.984375q0.546875 -0.59375 1.125 -1.3125q0.578125 -0.71875 1.140625 -1.515625q0.5625 -0.8125 1.015625 -1.640625q0.453125 -0.828125 0.734375 -1.640625q0.28125 -0.8125 0.28125 -1.53125q0 -0.859375 -0.484375 -1.421875q-0.484375 -0.5625 -1.46875 -0.5625q-0.65625 0 -1.28125 0.28125q-0.625 0.265625 -1.078125 0.609375l-0.5625 -0.984375q0.59375 -0.53125 1.421875 -0.8125q0.84375 -0.296875 1.796875 -0.296875q0.734375 0 1.296875 0.21875q0.578125 0.203125 0.96875 0.609375q0.40625 0.390625 0.609375 0.9375q0.21875 0.546875 0.21875 1.1875z" fill-rule="nonzero"/><path fill="#000000" fill-opacity="0.0" d="m158.39359 116.190994c0 6.3365936 -7.348297 12.673187 -14.696579 12.673187" fill-rule="evenodd"/><path stroke="#000000" stroke-width="1.4435695538057742" stroke-linejoin="round" stroke-linecap="butt" d="m158.39359 116.19099c0 3.1683044 -1.8370667 6.3366013 -4.592682 8.712822c-0.6889038 0.5940552 -1.4352112 1.1386032 -2.2245789 1.6212769c-0.39468384 0.24134064 -0.8001251 0.46720123 -1.2145538 0.6760483c-0.10359192 0.052215576 -0.20776367 0.10335541 -0.31246948 0.1534195l-0.030685425 0.014282227" fill-rule="evenodd"/><path fill="#000000" stroke="#000000" stroke-width="1.4435695538057742" stroke-linecap="butt" d="m149.65117 125.815445l-3.9004822 2.5629578l4.635376 0.5438385z" fill-rule="evenodd"/><path fill="#000000" fill-opacity="0.0" d="m68.16598 128.86418c0 -5.418747 4.393364 -9.811501 9.812859 -9.811501c2.6025314 0 5.0984726 1.0337067 6.9387436 2.8737183c1.840271 1.8400192 2.8741226 4.3356094 2.8741226 6.9377823c0 5.418747 -4.3933716 9.811508 -9.812866 9.811508c-5.4194946 0 -9.812859 -4.392761 -9.812859 -9.811508z" fill-rule="evenodd"/><path fill="#000000" d="m81.46745 131.32233q0 0.796875 -0.25 1.5q-0.234375 0.703125 -0.703125 1.234375q-0.46875 0.53125 -1.171875 0.828125q-0.6875 0.296875 -1.5625 0.296875q-0.859375 0 -1.5625 -0.265625q-0.6875 -0.28125 -1.1875 -0.828125q-0.5 -0.546875 -0.78125 -1.34375q-0.265625 -0.796875 -0.265625 -1.828125q0 -1.71875 0.4375 -3.1562424q0.453125 -1.453125 1.234375 -2.515625q0.78125 -1.078125 1.84375 -1.734375q1.0625 -0.671875 2.296875 -0.84375l0.296875 1.109375q-0.96875 0.171875 -1.765625 0.65625q-0.796875 0.484375 -1.390625 1.203125q-0.59375 0.703125 -0.984375 1.578125q-0.375 0.8749924 -0.515625 1.8124924q0.28125 -0.46875 0.9375 -0.859375q0.65625 -0.39061737 1.609375 -0.39061737q1.625 0 2.546875 0.9374924q0.9375 0.9375 0.9375 2.609375zm-1.4375 0.140625q0 -1.21875 -0.578125 -1.84375q-0.5625 -0.625 -1.765625 -0.625q-0.84375 0 -1.46875 0.421875q-0.609375 0.40625 -0.84375 0.921875q-0.03125 0.25 -0.03125 0.40625q0 0.15625 0 0.34375q0 0.53125 0.140625 1.0625q0.15625 0.515625 0.453125 0.921875q0.3125 0.40625 0.765625 0.65625q0.46875 0.25 1.09375 0.25q0.5 0 0.90625 -0.1875q0.40625 -0.203125 0.703125 -0.53125q0.296875 -0.328125 0.453125 -0.78125q0.171875 -0.46875 0.171875 -1.015625z" fill-rule="nonzero"/><path fill="#000000" fill-opacity="0.0" d="m50.159637 128.86418l18.012962 0" fill-rule="evenodd"/><path stroke="#000000" stroke-width="1.4435695538057742" stroke-linejoin="round" stroke-linecap="butt" d="m50.159637 128.86418l18.012962 0" fill-rule="evenodd"/><path fill="#000000" fill-opacity="0.0" d="m11.25932 85.55181c0 -5.4187393 4.393368 -9.811501 9.812863 -9.811501c2.6025314 0 5.0984726 1.0337067 6.9387417 2.8737183c1.8402691 1.8400192 2.8741207 4.3356094 2.8741207 6.9377823c0 5.418747 -4.393368 9.811501 -9.812862 9.811501c-5.4194956 0 -9.812863 -4.3927536 -9.812863 -9.811501z" fill-rule="evenodd"/><path fill="#000000" d="m20.092049 90.666214q0.59375 0 1.09375 -0.171875q0.5 -0.171875 0.859375 -0.515625q0.359375 -0.34375 0.5625 -0.796875q0.21875 -0.46875 0.21875 -1.03125q0 -1.203125 -0.71875 -1.78125q-0.71875 -0.59375 -1.984375 -0.59375l-1.28125 0l0 -0.515625l2.5 -3.828125l0.796875 -0.765625l-1.125 0.171875l-3.421875 0l0 -1.28125l6.171875 0l0 0.5l-2.75 4.140625l-0.609375 0.5l0 0.03125l0.59375 -0.125q0.6875 0.015625 1.265625 0.25q0.59375 0.234375 1.03125 0.6875q0.4375 0.4375 0.671875 1.046875q0.25 0.609375 0.25 1.390625q0 0.9375 -0.34375 1.671875q-0.328125 0.71875 -0.890625 1.21875q-0.5625 0.484375 -1.328125 0.75q-0.75 0.25 -1.59375 0.25q-0.78125 0 -1.40625 -0.125q-0.625 -0.109375 -1.09375 -0.296875l0.375 -1.234375q0.390625 0.1875 0.9375 0.328125q0.546875 0.125 1.21875 0.125z" fill-rule="nonzero"/><path fill="#000000" fill-opacity="0.0" d="m29.752327 88.59614c0 -5.4187393 4.393368 -9.811501 9.812862 -9.811501c2.6025314 0 5.0984726 1.0337067 6.9387436 2.873726c1.8402672 1.8400116 2.8741188 4.335602 2.8741188 6.9377747c0 5.418747 -4.393368 9.811508 -9.812862 9.811508c-5.4194946 0 -9.812862 -4.392761 -9.812862 -9.811508z" fill-rule="evenodd"/><path fill="#000000" d="m36.44443 94.71054l4.34375 -10.140625l0.75 -0.84375l-1.015625 0.15625l-4.921875 0l0 -1.28125l7.21875 0l0 0.46875l-4.984375 11.640625l-1.390625 0z" fill-rule="nonzero"/><path fill="#000000" fill-opacity="0.0" d="m21.072184 64.15729l0 11.583023" fill-rule="evenodd"/><path stroke="#000000" stroke-width="1.4435695538057742" stroke-linejoin="round" stroke-linecap="butt" d="m21.072184 64.15729l0 11.583023" fill-rule="evenodd"/><path fill="#000000" fill-opacity="0.0" d="m21.072184 95.36331l-0.4088707 17.170128" fill-rule="evenodd"/><path stroke="#000000" stroke-width="1.4435695538057742" stroke-linejoin="round" stroke-linecap="butt" d="m21.072182 95.36331l-0.25422287 10.675919" fill-rule="evenodd"/><path fill="#000000" stroke="#000000" stroke-width="1.4435695538057742" stroke-linecap="butt" d="m19.222145 106.00122l1.4914074 4.4224625l1.7002201 -4.3464584z" fill-rule="evenodd"/><path fill="#000000" fill-opacity="0.0" d="m39.56519 78.78464l-0.45429993 -14.172173" fill-rule="evenodd"/><path stroke="#000000" stroke-width="1.4435695538057742" stroke-linejoin="round" stroke-linecap="butt" d="m39.56519 78.78464l-0.24617004 -7.6794434" fill-rule="evenodd"/><path fill="#000000" stroke="#000000" stroke-width="1.4435695538057742" stroke-linecap="butt" d="m40.914467 71.054054l-1.7359619 -4.3323135l-1.4549332 4.434593z" fill-rule="evenodd"/><path fill="#000000" fill-opacity="0.0" d="m39.56519 98.407646l0.11357498 14.44471" fill-rule="evenodd"/><path stroke="#000000" stroke-width="1.4435695538057742" stroke-linejoin="round" stroke-linecap="butt" d="m39.56519 98.407646l0.11357498 14.44471" fill-rule="evenodd"/><path fill="#000000" fill-opacity="0.0" d="m77.0951 91.99487c0 -5.4187393 4.393364 -9.811501 9.812859 -9.811501c2.602539 0 5.09848 1.0337067 6.9387436 2.873726c1.840271 1.8400116 2.8741226 4.335602 2.8741226 6.9377747c0 5.418747 -4.3933716 9.811508 -9.812866 9.811508c-5.4194946 0 -9.812859 -4.392761 -9.812859 -9.811508z" fill-rule="evenodd"/><path fill="#000000" d="m85.927826 97.109276q0.59375 0 1.09375 -0.171875q0.5 -0.171875 0.859375 -0.515625q0.359375 -0.34375 0.5625 -0.796875q0.21875 -0.46875 0.21875 -1.03125q0 -1.203125 -0.71875 -1.78125q-0.71875 -0.59375 -1.984375 -0.59375l-1.28125 0l0 -0.515625l2.5 -3.828125l0.796875 -0.765625l-1.125 0.171875l-3.421875 0l0 -1.28125l6.171875 0l0 0.5l-2.75 4.140625l-0.609375 0.5l0 0.03125l0.59375 -0.125q0.6875 0.015625 1.265625 0.25q0.59375 0.234375 1.03125 0.6875q0.4375 0.4375 0.671875 1.046875q0.25 0.609375 0.25 1.390625q0 0.9375 -0.34375 1.671875q-0.328125 0.71875 -0.890625 1.21875q-0.5625 0.484375 -1.328125 0.75q-0.75 0.25 -1.59375 0.25q-0.78125 0 -1.40625 -0.125q-0.625 -0.109375 -1.09375 -0.296875l0.375 -1.234375q0.390625 0.1875 0.9375 0.328125q0.546875 0.125 1.21875 0.125z" fill-rule="nonzero"/></g></svg>