<svg version="1.1" viewBox="0.0 0.0 1056.4041994750655 275.7296587926509" fill="none" stroke="none" stroke-linecap="square" stroke-miterlimit="10" xmlns:xlink="http://www.w3.org/1999/xlink" xmlns="http://www.w3.org/2000/svg"><clipPath id="p.0"><path d="m0 0l1056.4042 0l0 275.72964l-1056.4042 0l0 -275.72964z" clip-rule="nonzero"/></clipPath><g clip-path="url(#p.0)"><path fill="#000000" fill-opacity="0.0" d="m0 0l1056.4042 0l0 275.72964l-1056.4042 0z" fill-rule="evenodd"/><path fill="#000000" fill-opacity="0.0" d="m76.580215 37.6063c0 -14.507261 11.76046 -26.267717 26.267715 -26.267717c6.9666367 0 13.647934 2.7674837 18.574081 7.693636c4.926155 4.9261513 7.693634 11.607449 7.693634 18.574081c0 14.507259 -11.760452 26.267715 -26.267715 26.267715c-14.507256 0 -26.267715 -11.760456 -26.267715 -26.267715z" fill-rule="evenodd"/><path stroke="#000000" stroke-width="3.0" stroke-linejoin="round" stroke-linecap="butt" d="m76.580215 37.6063c0 -14.507261 11.76046 -26.267717 26.267715 -26.267717c6.9666367 0 13.647934 2.7674837 18.574081 7.693636c4.926155 4.9261513 7.693634 11.607449 7.693634 18.574081c0 14.507259 -11.760452 26.267715 -26.267715 26.267715c-14.507256 0 -26.267715 -11.760456 -26.267715 -26.267715z" fill-rule="evenodd"/><path fill="#000000" d="m106.027 43.71192l-9.640625 0l-2.609375 7.234375l-3.0625 0l9.890625 -26.546875l1.421875 0l9.921875 26.546875l-3.234375 0l-2.6875 -7.234375zm-8.625 -2.6875l7.6875 0l-2.90625 -7.953125l-0.9375 -3.96875l-0.046875 0l-0.921875 4.03125l-2.875 7.890625z" fill-rule="nonzero"/><path fill="#000000" fill-opacity="0.0" d="m218.28757 37.6063c0 -14.507261 11.760452 -26.267717 26.267715 -26.267717c6.966629 0 13.647934 2.7674837 18.574081 7.693636c4.9261475 4.9261513 7.693634 11.607449 7.693634 18.574081c0 14.507259 -11.760468 26.267715 -26.267715 26.267715c-14.507263 0 -26.267715 -11.760456 -26.267715 -26.267715z" fill-rule="evenodd"/><path stroke="#000000" stroke-width="3.0" stroke-linejoin="round" stroke-linecap="butt" d="m218.28757 37.6063c0 -14.507261 11.760452 -26.267717 26.267715 -26.267717c6.966629 0 13.647934 2.7674837 18.574081 7.693636c4.9261475 4.9261513 7.693634 11.607449 7.693634 18.574081c0 14.507259 -11.760468 26.267715 -26.267715 26.267715c-14.507263 0 -26.267715 -11.760456 -26.267715 -26.267715z" fill-rule="evenodd"/><path fill="#000000" d="m251.0655 30.790047q0 0.9375 -0.296875 1.90625q-0.296875 0.96875 -0.890625 1.8125q-0.59375 0.828125 -1.53125 1.46875q-0.9375 0.640625 -2.203125 0.96875l0 0.15625q1.125 0.1875 2.140625 0.640625q1.03125 0.4375 1.8125 1.21875q0.78125 0.78125 1.265625 1.90625q0.484375 1.125 0.484375 2.65625q0 2.015625 -0.84375 3.484375q-0.828125 1.46875 -2.203125 2.40625q-1.359375 0.9375 -3.109375 1.390625q-1.75 0.4375 -3.578125 0.4375q-0.640625 0 -1.5 0q-0.859375 0 -1.796875 -0.0625q-0.921875 -0.046875 -1.859375 -0.140625q-0.9375 -0.09375 -1.640625 -0.28125l0 -25.71875q1.375 -0.21875 3.203125 -0.359375q1.84375 -0.15625 4.0 -0.15625q1.453125 0 2.96875 0.25q1.515625 0.234375 2.734375 0.921875q1.234375 0.6875 2.03125 1.921875q0.8125 1.234375 0.8125 3.171875zm-8.65625 17.765625q1.1875 0 2.3125 -0.28125q1.125 -0.28125 1.984375 -0.890625q0.859375 -0.625 1.359375 -1.515625q0.5 -0.890625 0.5 -2.125q0 -1.53125 -0.625 -2.453125q-0.609375 -0.9375 -1.59375 -1.453125q-0.984375 -0.53125 -2.21875 -0.71875q-1.234375 -0.1875 -2.46875 -0.1875l-3.25 0l0 9.359375q0.265625 0.078125 0.75 0.125q0.484375 0.03125 1.046875 0.078125q0.5625 0.03125 1.15625 0.046875q0.59375 0.015625 1.046875 0.015625zm-2.046875 -12.234375q0.625 0 1.515625 -0.03125q0.90625 -0.046875 1.5 -0.125q0.890625 -0.296875 1.671875 -0.71875q0.796875 -0.4375 1.40625 -1.015625q0.625 -0.578125 0.96875 -1.34375q0.359375 -0.765625 0.359375 -1.65625q0 -1.234375 -0.46875 -2.03125q-0.46875 -0.8125 -1.25 -1.296875q-0.78125 -0.484375 -1.796875 -0.6875q-1.0 -0.203125 -2.046875 -0.203125q-1.234375 0 -2.265625 0.0625q-1.015625 0.046875 -1.546875 0.15625l0 8.890625l1.953125 0z" fill-rule="nonzero"/><path fill="#000000" fill-opacity="0.0" d="m148.21146 140.94751c0 -14.507263 11.760452 -26.267723 26.267715 -26.267723c6.966629 0 13.647919 2.7674866 18.574081 7.6936417c4.9261475 4.9261475 7.693634 11.607452 7.693634 18.574081c0 14.507263 -11.760468 26.267715 -26.267715 26.267715c-14.507263 0 -26.267715 -11.760452 -26.267715 -26.267715z" fill-rule="evenodd"/><path stroke="#000000" stroke-width="3.0" stroke-linejoin="round" stroke-linecap="butt" d="m148.21146 140.94751c0 -14.507263 11.760452 -26.267723 26.267715 -26.267723c6.966629 0 13.647919 2.7674866 18.574081 7.6936417c4.9261475 4.9261475 7.693634 11.607452 7.693634 18.574081c0 14.507263 -11.760468 26.267715 -26.267715 26.267715c-14.507263 0 -26.267715 -11.760452 -26.267715 -26.267715z" fill-rule="evenodd"/><path fill="#000000" d="m165.05336 128.1625q0.703125 -0.109375 1.578125 -0.171875q0.890625 -0.0625 1.84375 -0.078125q0.953125 -0.015625 1.859375 -0.03125q0.921875 -0.015625 1.703125 -0.015625q3.125 0 5.421875 0.96875q2.296875 0.96875 3.78125 2.703125q1.5 1.734375 2.234375 4.171875q0.734375 2.421875 0.734375 5.328125q0 2.65625 -0.703125 5.09375q-0.6875 2.4375 -2.1875 4.328125q-1.484375 1.890625 -3.875 3.03125q-2.390625 1.140625 -5.78125 1.140625q-0.59375 0 -1.546875 -0.03125q-0.953125 -0.015625 -1.96875 -0.078125q-1.0 -0.046875 -1.859375 -0.09375q-0.859375 -0.03125 -1.234375 -0.109375l0 -26.15625zm7.0625 2.453125q-0.484375 0 -1.078125 0q-0.578125 0 -1.140625 0.046875q-0.546875 0.03125 -1.015625 0.078125q-0.46875 0.03125 -0.734375 0.0625l0 20.90625q0.1875 0.046875 0.703125 0.0625q0.53125 0.015625 1.09375 0.03125q0.5625 0.015625 1.078125 0.046875q0.53125 0.015625 0.71875 0.015625q2.609375 0 4.375 -0.890625q1.78125 -0.90625 2.84375 -2.40625q1.0625 -1.515625 1.5 -3.46875q0.453125 -1.96875 0.453125 -4.0625q0 -1.828125 -0.40625 -3.671875q-0.40625 -1.859375 -1.421875 -3.34375q-1.0 -1.5 -2.703125 -2.453125q-1.703125 -0.953125 -4.265625 -0.953125z" fill-rule="nonzero"/><path fill="#000000" fill-opacity="0.0" d="m121.42201 56.180378l34.48819 66.20473" fill-rule="evenodd"/><path stroke="#000000" stroke-width="2.0" stroke-linejoin="round" stroke-linecap="butt" d="m121.42201 56.180378l34.48819 66.20473" fill-rule="evenodd"/><path fill="#000000" fill-opacity="0.0" d="m284.11435 140.94751c0 -14.507263 11.760437 -26.267723 26.2677 -26.267723c6.9666443 0 13.647919 2.7674866 18.574097 7.6936417c4.9261475 4.9261475 7.693634 11.607452 7.693634 18.574081c0 14.507263 -11.760468 26.267715 -26.26773 26.267715c-14.507263 0 -26.2677 -11.760452 -26.2677 -26.267715z" fill-rule="evenodd"/><path stroke="#000000" stroke-width="3.0" stroke-linejoin="round" stroke-linecap="butt" d="m284.11435 140.94751c0 -14.507263 11.760437 -26.267723 26.2677 -26.267723c6.9666443 0 13.647919 2.7674866 18.574097 7.6936417c4.9261475 4.9261475 7.693634 11.607452 7.693634 18.574081c0 14.507263 -11.760468 26.267715 -26.26773 26.267715c-14.507263 0 -26.2677 -11.760452 -26.2677 -26.267715z" fill-rule="evenodd"/><path fill="#000000" d="m302.03815 128.1625l14.21875 0l0 2.75l-11.125 0l0 8.5625l10.203125 0l0 2.75l-10.203125 0l0 9.296875l11.3125 0l0 2.765625l-14.40625 0l0 -26.125z" fill-rule="nonzero"/><path fill="#000000" fill-opacity="0.0" d="m76.580215 234.14961c0 -14.507263 11.76046 -26.267715 26.267715 -26.267715c6.9666367 0 13.647934 2.7674713 18.574081 7.693634c4.926155 4.9261475 7.693634 11.607437 7.693634 18.574081c0 14.507248 -11.760452 26.267715 -26.267715 26.267715c-14.507256 0 -26.267715 -11.760468 -26.267715 -26.267715z" fill-rule="evenodd"/><path stroke="#000000" stroke-width="3.0" stroke-linejoin="round" stroke-linecap="butt" d="m76.580215 234.14961c0 -14.507263 11.76046 -26.267715 26.267715 -26.267715c6.9666367 0 13.647934 2.7674713 18.574081 7.693634c4.926155 4.9261475 7.693634 11.607437 7.693634 18.574081c0 14.507248 -11.760452 26.267715 -26.267715 26.267715c-14.507256 0 -26.267715 -11.760468 -26.267715 -26.267715z" fill-rule="evenodd"/><path fill="#000000" d="m94.85866 221.36461l14.21875 0l0 2.75l-11.125 0l0 8.921875l10.375 0l0 2.765625l-10.375 0l0 11.6875l-3.09375 0l0 -26.125z" fill-rule="nonzero"/><path fill="#000000" fill-opacity="0.0" d="m2.8807418 140.94751c0 -14.507263 11.760457 -26.267723 26.267717 -26.267723c6.966631 0 13.647928 2.7674866 18.57408 7.6936417c4.926155 4.9261475 7.693638 11.607452 7.693638 18.574081c0 14.507263 -11.76046 26.267715 -26.267717 26.267715c-14.507259 0 -26.267717 -11.760452 -26.267717 -26.267715z" fill-rule="evenodd"/><path stroke="#000000" stroke-width="3.0" stroke-linejoin="round" stroke-linecap="butt" d="m2.8807418 140.94751c0 -14.507263 11.760457 -26.267723 26.267717 -26.267723c6.966631 0 13.647928 2.7674866 18.57408 7.6936417c4.926155 4.9261475 7.693638 11.607452 7.693638 18.574081c0 14.507263 -11.76046 26.267715 -26.267717 26.267715c-14.507259 0 -26.267717 -11.760452 -26.267717 -26.267715z" fill-rule="evenodd"/><path fill="#000000" d="m36.87007 153.20938q-1.109375 0.859375 -2.828125 1.1875q-1.71875 0.34375 -3.65625 0.34375q-2.359375 0 -4.421875 -0.796875q-2.046875 -0.8125 -3.578125 -2.453125q-1.53125 -1.640625 -2.421875 -4.203125q-0.890625 -2.5625 -0.890625 -6.0625q0 -3.65625 0.984375 -6.21875q0.984375 -2.5625 2.609375 -4.171875q1.625 -1.625 3.640625 -2.375q2.015625 -0.75 4.109375 -0.75q2.234375 0 3.65625 0.25q1.421875 0.234375 2.421875 0.640625l-0.734375 2.734375q-1.796875 -0.859375 -5.125 -0.859375q-1.53125 0 -3.03125 0.5625q-1.484375 0.546875 -2.65625 1.828125q-1.171875 1.265625 -1.890625 3.328125q-0.703125 2.046875 -0.703125 5.03125q0 2.6875 0.671875 4.703125q0.671875 2.015625 1.84375 3.359375q1.1875 1.34375 2.765625 2.015625q1.59375 0.671875 3.453125 0.671875q1.6875 0 2.9375 -0.328125q1.25 -0.34375 2.109375 -0.875l0.734375 2.4375z" fill-rule="nonzero"/><path fill="#000000" fill-opacity="0.0" d="m84.27385 56.180378l-36.566925 66.20473" fill-rule="evenodd"/><path stroke="#000000" stroke-width="2.0" stroke-linejoin="round" stroke-linecap="butt" d="m84.27385 56.180378l-36.566925 66.20473" fill-rule="evenodd"/><path fill="#000000" fill-opacity="0.0" d="m200.74689 140.94751l83.37009 0" fill-rule="evenodd"/><path stroke="#000000" stroke-width="2.0" stroke-linejoin="round" stroke-linecap="butt" d="m200.74689 140.94751l83.37009 0" fill-rule="evenodd"/><path fill="#000000" fill-opacity="0.0" d="m291.80798 122.37343l-28.692932 -66.20473" fill-rule="evenodd"/><path stroke="#000000" stroke-width="2.0" stroke-linejoin="round" stroke-linecap="butt" d="m291.80798 122.37343l-28.692932 -66.20473" fill-rule="evenodd"/><path fill="#000000" fill-opacity="0.0" d="m291.80798 159.52159l-36.37796 56.06299" fill-rule="evenodd"/><path stroke="#000000" stroke-width="2.0" stroke-linejoin="round" stroke-linecap="butt" d="m291.80798 159.52159l-36.37796 56.06299" fill-rule="evenodd"/><path fill="#000000" fill-opacity="0.0" d="m129.11565 37.6063l89.16536 0" fill-rule="evenodd"/><path stroke="#000000" stroke-width="2.0" stroke-linejoin="round" stroke-linecap="butt" d="m129.11565 37.6063l89.16536 0" fill-rule="evenodd"/><path fill="#000000" fill-opacity="0.0" d="m47.722538 159.52159l36.56693 56.06299" fill-rule="evenodd"/><path stroke="#000000" stroke-width="2.0" stroke-linejoin="round" stroke-linecap="butt" d="m47.722538 159.52159l36.56693 56.06299" fill-rule="evenodd"/><path fill="#000000" fill-opacity="0.0" d="m55.416176 140.94751l92.78741 0" fill-rule="evenodd"/><path stroke="#000000" stroke-width="2.0" stroke-linejoin="round" stroke-linecap="butt" d="m55.416176 140.94751l92.78741 0" fill-rule="evenodd"/><path fill="#000000" fill-opacity="0.0" d="m57.334797 70.2986l28.692913 0l0 51.716537l-28.692913 0z" fill-rule="evenodd"/><path fill="#000000" d="m78.22542 90.47672q0 1.40625 -0.53125 2.890625q-0.515625 1.484375 -1.359375 2.984375q-0.828125 1.484375 -1.875 2.90625q-1.03125 1.421875 -2.078125 2.703125l-1.296875 1.15625l0 0.109375l1.703125 -0.296875l5.8125 0l0 1.96875l-10.609375 0l0 -0.765625q0.578125 -0.625 1.40625 -1.53125q0.828125 -0.90625 1.71875 -2.0q0.890625 -1.109375 1.75 -2.34375q0.875 -1.25 1.578125 -2.53125q0.71875 -1.28125 1.140625 -2.53125q0.421875 -1.25 0.421875 -2.375q0 -1.296875 -0.75 -2.15625q-0.734375 -0.875 -2.265625 -0.875q-1.0 0 -1.96875 0.421875q-0.953125 0.40625 -1.65625 0.9375l-0.875 -1.515625q0.9375 -0.8125 2.21875 -1.265625q1.28125 -0.453125 2.75 -0.453125q1.140625 0 2.015625 0.34375q0.875 0.328125 1.484375 0.9375q0.625 0.609375 0.9375 1.453125q0.328125 0.84375 0.328125 1.828125z" fill-rule="nonzero"/><path fill="#000000" fill-opacity="0.0" d="m87.534645 128.2746l28.69291 0l0 51.716537l-28.69291 0z" fill-rule="evenodd"/><path fill="#000000" d="m108.42527 148.45273q0 1.40625 -0.53125 2.890625q-0.515625 1.484375 -1.359375 2.984375q-0.828125 1.484375 -1.875 2.90625q-1.03125 1.421875 -2.078125 2.703125l-1.296875 1.15625l0 0.109375l1.703125 -0.296875l5.8125 0l0 1.96875l-10.609375 0l0 -0.765625q0.578125 -0.625 1.40625 -1.53125q0.828125 -0.90625 1.71875 -2.0q0.890625 -1.109375 1.75 -2.34375q0.875 -1.25 1.578125 -2.53125q0.71875 -1.28125 1.140625 -2.53125q0.421875 -1.25 0.421875 -2.375q0 -1.296875 -0.75 -2.15625q-0.734375 -0.875 -2.265625 -0.875q-1.0 0 -1.96875 0.421875q-0.953125 0.40625 -1.65625 0.9375l-0.875 -1.515625q0.9375 -0.8125 2.21875 -1.265625q1.28125 -0.453125 2.75 -0.453125q1.140625 0 2.015625 0.34375q0.875 0.328125 1.484375 0.9375q0.625 0.609375 0.9375 1.453125q0.328125 0.84375 0.328125 1.828125z" fill-rule="nonzero"/><path fill="#000000" fill-opacity="0.0" d="m169.61803 23.80998l28.692902 0l0 51.71653l-28.692902 0z" fill-rule="evenodd"/><path fill="#000000" d="m192.58678 52.675602l-3.140625 0l0 5.734375l-2.078125 0l0 -5.734375l-8.21875 0l0 -0.875l8.859375 -12.34375l1.4375 0l0 11.359375l3.140625 0l0 1.859375zm-5.21875 -7.671875l0.265625 -2.1875l-0.078125 0l-0.9375 1.8125l-3.765625 5.09375l-1.28125 1.296875l1.875 -0.203125l3.921875 0l0 -5.8125z" fill-rule="nonzero"/><path fill="#000000" fill-opacity="0.0" d="m129.61931 55.609474l28.692902 0l0 51.716537l-28.692902 0z" fill-rule="evenodd"/><path fill="#000000" d="m150.50993 75.7876q0 1.40625 -0.53125 2.890625q-0.515625 1.484375 -1.359375 2.984375q-0.828125 1.484375 -1.875 2.90625q-1.03125 1.421875 -2.078125 2.703125l-1.296875 1.15625l0 0.109375l1.703125 -0.296875l5.8125 0l0 1.96875l-10.609375 0l0 -0.765625q0.578125 -0.625 1.40625 -1.53125q0.828125 -0.90625 1.71875 -2.0q0.890625 -1.109375 1.75 -2.34375q0.875 -1.25 1.578125 -2.53125q0.71875 -1.28125 1.140625 -2.53125q0.421875 -1.25 0.421875 -2.375q0 -1.296875 -0.75 -2.15625q-0.734375 -0.875 -2.265625 -0.875q-1.0 0 -1.96875 0.421875q-0.953125 0.40625 -1.65625 0.9375l-0.875 -1.515625q0.9375 -0.8125 2.21875 -1.265625q1.28125 -0.453125 2.75 -0.453125q1.140625 0 2.015625 0.34375q0.875 0.328125 1.484375 0.9375q0.625 0.609375 0.9375 1.453125q0.328125 0.84375 0.328125 1.828125z" fill-rule="nonzero"/><path fill="#000000" fill-opacity="0.0" d="m227.41666 128.67279l28.692902 0l0 51.716522l-28.692902 0z" fill-rule="evenodd"/><path fill="#000000" d="m242.65103 161.7259q0.90625 0 1.671875 -0.265625q0.78125 -0.265625 1.34375 -0.78125q0.5625 -0.53125 0.875 -1.25q0.328125 -0.71875 0.328125 -1.5625q0 -1.875 -1.109375 -2.78125q-1.109375 -0.90625 -3.046875 -0.90625l-1.984375 0l0 -0.765625l3.84375 -5.921875l1.234375 -1.171875l-1.734375 0.265625l-5.28125 0l0 -1.96875l9.515625 0l0 0.765625l-4.234375 6.375l-0.9375 0.765625l0 0.0625l0.90625 -0.1875q1.0625 0.03125 1.96875 0.390625q0.90625 0.359375 1.5625 1.046875q0.671875 0.671875 1.046875 1.625q0.375 0.9375 0.375 2.140625q0 1.4375 -0.515625 2.5625q-0.5 1.109375 -1.359375 1.875q-0.859375 0.75 -2.046875 1.15625q-1.171875 0.390625 -2.46875 0.390625q-1.203125 0 -2.171875 -0.1875q-0.953125 -0.171875 -1.671875 -0.46875l0.5625 -1.890625q0.609375 0.28125 1.453125 0.484375q0.84375 0.203125 1.875 0.203125z" fill-rule="nonzero"/><path fill="#000000" fill-opacity="0.0" d="m269.3563 54.630104l28.692902 0l0 51.716537l-28.692902 0z" fill-rule="evenodd"/><path fill="#000000" d="m284.59067 87.68323q0.90625 0 1.671875 -0.265625q0.78125 -0.265625 1.34375 -0.78125q0.5625 -0.53125 0.875 -1.25q0.328125 -0.71875 0.328125 -1.5625q0 -1.875 -1.109375 -2.78125q-1.109375 -0.90625 -3.046875 -0.90625l-1.984375 0l0 -0.765625l3.84375 -5.921875l1.234375 -1.171875l-1.734375 0.265625l-5.28125 0l0 -1.96875l9.515625 0l0 0.765625l-4.234375 6.375l-0.9375 0.765625l0 0.0625l0.90625 -0.1875q1.0625 0.03125 1.96875 0.390625q0.90625 0.359375 1.5625 1.046875q0.671875 0.671875 1.046875 1.625q0.375 0.9375 0.375 2.140625q0 1.4375 -0.515625 2.5625q-0.5 1.109375 -1.359375 1.875q-0.859375 0.75 -2.046875 1.15625q-1.171875 0.390625 -2.46875 0.390625q-1.203125 0 -2.171875 -0.1875q-0.953125 -0.171875 -1.671875 -0.46875l0.5625 -1.890625q0.609375 0.28125 1.453125 0.484375q0.84375 0.203125 1.875 0.203125z" fill-rule="nonzero"/><path fill="#000000" fill-opacity="0.0" d="m265.89514 169.58484l28.692902 0l0 51.716537l-28.692902 0z" fill-rule="evenodd"/><path fill="#000000" d="m277.83264 204.18484l6.6875 -15.625l1.171875 -1.296875l-1.578125 0.234375l-7.59375 0l0 -1.96875l11.140625 0l0 0.71875l-7.671875 17.9375l-2.15625 0z" fill-rule="nonzero"/><path fill="#000000" fill-opacity="0.0" d="m40.74339 174.85898l28.692913 0l0 51.716537l-28.692913 0z" fill-rule="evenodd"/><path fill="#000000" d="m55.977764 207.9121q0.90625 0 1.671875 -0.265625q0.78125 -0.265625 1.34375 -0.78125q0.5625 -0.53125 0.875 -1.25q0.328125 -0.71875 0.328125 -1.5625q0 -1.875 -1.109375 -2.78125q-1.109375 -0.90625 -3.046875 -0.90625l-1.984375 0l0 -0.765625l3.84375 -5.921875l1.234375 -1.171875l-1.734375 0.265625l-5.28125 0l0 -1.96875l9.515625 0l0 0.765625l-4.234375 6.375l-0.9375 0.765625l0 0.0625l0.90625 -0.1875q1.0625 0.03125 1.96875 0.390625q0.90625 0.359375 1.5625 1.046875q0.671875 0.671875 1.046875 1.625q0.375 0.9375 0.375 2.140625q0 1.4375 -0.515625 2.5625q-0.5 1.109375 -1.359375 1.875q-0.859375 0.75 -2.046875 1.15625q-1.171875 0.390625 -2.46875 0.390625q-1.203125 0 -2.171875 -0.1875q-0.953125 -0.171875 -1.671875 -0.46875l0.5625 -1.890625q0.609375 0.28125 1.453125 0.484375q0.84375 0.203125 1.875 0.203125z" fill-rule="nonzero"/><path fill="#000000" fill-opacity="0.0" d="m210.5789 234.14961c0 -14.507263 11.760452 -26.267715 26.267715 -26.267715c6.966629 0 13.647934 2.7674713 18.574081 7.693634c4.9261627 4.9261475 7.6936493 11.607437 7.6936493 18.574081c0 14.507248 -11.760468 26.267715 -26.26773 26.267715c-14.507263 0 -26.267715 -11.760468 -26.267715 -26.267715z" fill-rule="evenodd"/><path stroke="#000000" stroke-width="3.0" stroke-linejoin="round" stroke-linecap="butt" d="m210.5789 234.14961c0 -14.507263 11.760452 -26.267715 26.267715 -26.267715c6.966629 0 13.647934 2.7674713 18.574081 7.693634c4.9261627 4.9261475 7.6936493 11.607437 7.6936493 18.574081c0 14.507248 -11.760468 26.267715 -26.26773 26.267715c-14.507263 0 -26.267715 -11.760468 -26.267715 -26.267715z" fill-rule="evenodd"/><path fill="#000000" d="m236.23332 234.45836l8.765625 0l0 11.5q-0.59375 0.453125 -1.4375 0.828125q-0.828125 0.359375 -1.78125 0.625q-0.953125 0.265625 -1.984375 0.390625q-1.03125 0.140625 -2.0 0.140625q-2.5 0 -4.59375 -0.796875q-2.078125 -0.8125 -3.609375 -2.46875q-1.53125 -1.671875 -2.390625 -4.21875q-0.859375 -2.5625 -0.859375 -6.03125q0 -3.625 1.046875 -6.203125q1.046875 -2.578125 2.71875 -4.1875q1.6875 -1.625 3.765625 -2.375q2.09375 -0.75 4.1875 -0.75q2.234375 0 3.6875 0.25q1.46875 0.234375 2.46875 0.640625l-0.78125 2.734375q-1.796875 -0.859375 -5.109375 -0.859375q-1.578125 0 -3.125 0.546875q-1.546875 0.53125 -2.78125 1.8125q-1.234375 1.265625 -2.015625 3.3125q-0.78125 2.046875 -0.78125 5.078125q0 2.765625 0.625 4.78125q0.640625 2.015625 1.78125 3.34375q1.140625 1.3125 2.734375 1.96875q1.609375 0.65625 3.515625 0.65625q2.390625 0 4.078125 -0.9375l0 -7.28125l-6.125 -0.734375l0 -1.765625z" fill-rule="nonzero"/><path fill="#000000" fill-opacity="0.0" d="m121.42201 215.57553l34.48819 -56.063004" fill-rule="evenodd"/><path stroke="#000000" stroke-width="2.0" stroke-linejoin="round" stroke-linecap="butt" d="m121.42201 215.57553l34.48819 -56.063004" fill-rule="evenodd"/><path fill="#000000" fill-opacity="0.0" d="m131.24385 167.74265l28.692917 0l0 51.716522l-28.692917 0z" fill-rule="evenodd"/><path fill="#000000" d="m146.47823 200.79576q0.90625 0 1.671875 -0.265625q0.78125 -0.265625 1.34375 -0.78125q0.5625 -0.53125 0.875 -1.25q0.328125 -0.71875 0.328125 -1.5625q0 -1.875 -1.109375 -2.78125q-1.109375 -0.90625 -3.046875 -0.90625l-1.984375 0l0 -0.765625l3.84375 -5.921875l1.234375 -1.171875l-1.734375 0.265625l-5.28125 0l0 -1.96875l9.515625 0l0 0.765625l-4.234375 6.375l-0.9375 0.765625l0 0.0625l0.90625 -0.1875q1.0625 0.03125 1.96875 0.390625q0.90625 0.359375 1.5625 1.046875q0.671875 0.671875 1.046875 1.625q0.375 0.9375 0.375 2.140625q0 1.4375 -0.515625 2.5625q-0.5 1.109375 -1.359375 1.875q-0.859375 0.75 -2.046875 1.15625q-1.171875 0.390625 -2.46875 0.390625q-1.203125 0 -2.171875 -0.1875q-0.953125 -0.171875 -1.671875 -0.46875l0.5625 -1.890625q0.609375 0.28125 1.453125 0.484375q0.84375 0.203125 1.875 0.203125z" fill-rule="nonzero"/><path fill="#000000" fill-opacity="0.0" d="m430.53296 37.6063c0 -14.507261 11.760468 -26.267717 26.26773 -26.267717c6.9666443 0 13.647919 2.7674837 18.574066 7.693636c4.926178 4.9261513 7.6936646 11.607449 7.6936646 18.574081c0 14.507259 -11.760468 26.267715 -26.26773 26.267715c-14.507263 0 -26.26773 -11.760456 -26.26773 -26.267715z" fill-rule="evenodd"/><path stroke="#000000" stroke-width="3.0" stroke-linejoin="round" stroke-linecap="butt" d="m430.53296 37.6063c0 -14.507261 11.760468 -26.267717 26.26773 -26.267717c6.9666443 0 13.647919 2.7674837 18.574066 7.693636c4.926178 4.9261513 7.6936646 11.607449 7.6936646 18.574081c0 14.507259 -11.760468 26.267715 -26.26773 26.267715c-14.507263 0 -26.26773 -11.760456 -26.26773 -26.267715z" fill-rule="evenodd"/><path fill="#000000" d="m459.97977 43.71192l-9.640625 0l-2.609375 7.234375l-3.0625 0l9.890625 -26.546875l1.421875 0l9.921875 26.546875l-3.234375 0l-2.6875 -7.234375zm-8.625 -2.6875l7.6875 0l-2.90625 -7.953125l-0.9375 -3.96875l-0.046875 0l-0.921875 4.03125l-2.875 7.890625z" fill-rule="nonzero"/><path fill="#000000" fill-opacity="0.0" d="m572.2403 37.6063c0 -14.507261 11.760498 -26.267717 26.267761 -26.267717c6.966614 0 13.647888 2.7674837 18.574036 7.693636c4.9262085 4.9261513 7.6936646 11.607449 7.6936646 18.574081c0 14.507259 -11.760437 26.267715 -26.2677 26.267715c-14.507263 0 -26.267761 -11.760456 -26.267761 -26.267715z" fill-rule="evenodd"/><path stroke="#000000" stroke-width="3.0" stroke-linejoin="round" stroke-linecap="butt" d="m572.2403 37.6063c0 -14.507261 11.760498 -26.267717 26.267761 -26.267717c6.966614 0 13.647888 2.7674837 18.574036 7.693636c4.9262085 4.9261513 7.6936646 11.607449 7.6936646 18.574081c0 14.507259 -11.760437 26.267715 -26.2677 26.267715c-14.507263 0 -26.267761 -11.760456 -26.267761 -26.267715z" fill-rule="evenodd"/><path fill="#000000" d="m605.01825 30.790047q0 0.9375 -0.296875 1.90625q-0.296875 0.96875 -0.890625 1.8125q-0.59375 0.828125 -1.53125 1.46875q-0.9375 0.640625 -2.203125 0.96875l0 0.15625q1.125 0.1875 2.140625 0.640625q1.03125 0.4375 1.8125 1.21875q0.78125 0.78125 1.265625 1.90625q0.484375 1.125 0.484375 2.65625q0 2.015625 -0.84375 3.484375q-0.828125 1.46875 -2.203125 2.40625q-1.359375 0.9375 -3.109375 1.390625q-1.75 0.4375 -3.578125 0.4375q-0.640625 0 -1.5 0q-0.859375 0 -1.796875 -0.0625q-0.921875 -0.046875 -1.859375 -0.140625q-0.9375 -0.09375 -1.640625 -0.28125l0 -25.71875q1.375 -0.21875 3.203125 -0.359375q1.84375 -0.15625 4.0 -0.15625q1.453125 0 2.96875 0.25q1.515625 0.234375 2.734375 0.921875q1.234375 0.6875 2.03125 1.921875q0.8125 1.234375 0.8125 3.171875zm-8.65625 17.765625q1.1875 0 2.3125 -0.28125q1.125 -0.28125 1.984375 -0.890625q0.859375 -0.625 1.359375 -1.515625q0.5 -0.890625 0.5 -2.125q0 -1.53125 -0.625 -2.453125q-0.609375 -0.9375 -1.59375 -1.453125q-0.984375 -0.53125 -2.21875 -0.71875q-1.234375 -0.1875 -2.46875 -0.1875l-3.25 0l0 9.359375q0.265625 0.078125 0.75 0.125q0.484375 0.03125 1.046875 0.078125q0.5625 0.03125 1.15625 0.046875q0.59375 0.015625 1.046875 0.015625zm-2.046875 -12.234375q0.625 0 1.515625 -0.03125q0.90625 -0.046875 1.5 -0.125q0.890625 -0.296875 1.671875 -0.71875q0.796875 -0.4375 1.40625 -1.015625q0.625 -0.578125 0.96875 -1.34375q0.359375 -0.765625 0.359375 -1.65625q0 -1.234375 -0.46875 -2.03125q-0.46875 -0.8125 -1.25 -1.296875q-0.78125 -0.484375 -1.796875 -0.6875q-1.0 -0.203125 -2.046875 -0.203125q-1.234375 0 -2.265625 0.0625q-1.015625 0.046875 -1.546875 0.15625l0 8.890625l1.953125 0z" fill-rule="nonzero"/><path fill="#000000" fill-opacity="0.0" d="m502.1642 140.94751c0 -14.507263 11.760468 -26.267723 26.26773 -26.267723c6.966614 0 13.647888 2.7674866 18.574036 7.6936417c4.9261475 4.9261475 7.6936646 11.607452 7.6936646 18.574081c0 14.507263 -11.760437 26.267715 -26.2677 26.267715c-14.507263 0 -26.26773 -11.760452 -26.26773 -26.267715z" fill-rule="evenodd"/><path stroke="#000000" stroke-width="3.0" stroke-linejoin="round" stroke-linecap="butt" d="m502.1642 140.94751c0 -14.507263 11.760468 -26.267723 26.26773 -26.267723c6.966614 0 13.647888 2.7674866 18.574036 7.6936417c4.9261475 4.9261475 7.6936646 11.607452 7.6936646 18.574081c0 14.507263 -11.760437 26.267715 -26.2677 26.267715c-14.507263 0 -26.26773 -11.760452 -26.26773 -26.267715z" fill-rule="evenodd"/><path fill="#000000" d="m519.0061 128.1625q0.703125 -0.109375 1.578125 -0.171875q0.890625 -0.0625 1.84375 -0.078125q0.953125 -0.015625 1.859375 -0.03125q0.921875 -0.015625 1.703125 -0.015625q3.125 0 5.421875 0.96875q2.296875 0.96875 3.78125 2.703125q1.5 1.734375 2.234375 4.171875q0.734375 2.421875 0.734375 5.328125q0 2.65625 -0.703125 5.09375q-0.6875 2.4375 -2.1875 4.328125q-1.484375 1.890625 -3.875 3.03125q-2.390625 1.140625 -5.78125 1.140625q-0.59375 0 -1.546875 -0.03125q-0.953125 -0.015625 -1.96875 -0.078125q-1.0 -0.046875 -1.859375 -0.09375q-0.859375 -0.03125 -1.234375 -0.109375l0 -26.15625zm7.0625 2.453125q-0.484375 0 -1.078125 0q-0.578125 0 -1.140625 0.046875q-0.546875 0.03125 -1.015625 0.078125q-0.46875 0.03125 -0.734375 0.0625l0 20.90625q0.1875 0.046875 0.703125 0.0625q0.53125 0.015625 1.09375 0.03125q0.5625 0.015625 1.078125 0.046875q0.53125 0.015625 0.71875 0.015625q2.609375 0 4.375 -0.890625q1.78125 -0.90625 2.84375 -2.40625q1.0625 -1.515625 1.5 -3.46875q0.453125 -1.96875 0.453125 -4.0625q0 -1.828125 -0.40625 -3.671875q-0.40625 -1.859375 -1.421875 -3.34375q-1.0 -1.5 -2.703125 -2.453125q-1.703125 -0.953125 -4.265625 -0.953125z" fill-rule="nonzero"/><path fill="#000000" fill-opacity="0.0" d="m638.0671 140.94751c0 -14.507263 11.760498 -26.267723 26.267761 -26.267723c6.966614 0 13.647888 2.7674866 18.574036 7.6936417c4.9261475 4.9261475 7.6936646 11.607452 7.6936646 18.574081c0 14.507263 -11.760498 26.267715 -26.2677 26.267715c-14.507263 0 -26.267761 -11.760452 -26.267761 -26.267715z" fill-rule="evenodd"/><path stroke="#000000" stroke-width="3.0" stroke-linejoin="round" stroke-linecap="butt" d="m638.0671 140.94751c0 -14.507263 11.760498 -26.267723 26.267761 -26.267723c6.966614 0 13.647888 2.7674866 18.574036 7.6936417c4.9261475 4.9261475 7.6936646 11.607452 7.6936646 18.574081c0 14.507263 -11.760498 26.267715 -26.2677 26.267715c-14.507263 0 -26.267761 -11.760452 -26.267761 -26.267715z" fill-rule="evenodd"/><path fill="#000000" d="m655.9909 128.1625l14.21875 0l0 2.75l-11.125 0l0 8.5625l10.203125 0l0 2.75l-10.203125 0l0 9.296875l11.3125 0l0 2.765625l-14.40625 0l0 -26.125z" fill-rule="nonzero"/><path fill="#000000" fill-opacity="0.0" d="m430.53296 234.14961c0 -14.507263 11.760468 -26.267715 26.26773 -26.267715c6.9666443 0 13.647919 2.7674713 18.574066 7.693634c4.926178 4.9261475 7.6936646 11.607437 7.6936646 18.574081c0 14.507248 -11.760468 26.267715 -26.26773 26.267715c-14.507263 0 -26.26773 -11.760468 -26.26773 -26.267715z" fill-rule="evenodd"/><path stroke="#000000" stroke-width="3.0" stroke-linejoin="round" stroke-linecap="butt" d="m430.53296 234.14961c0 -14.507263 11.760468 -26.267715 26.26773 -26.267715c6.9666443 0 13.647919 2.7674713 18.574066 7.693634c4.926178 4.9261475 7.6936646 11.607437 7.6936646 18.574081c0 14.507248 -11.760468 26.267715 -26.26773 26.267715c-14.507263 0 -26.26773 -11.760468 -26.26773 -26.267715z" fill-rule="evenodd"/><path fill="#000000" d="m448.8114 221.36461l14.21875 0l0 2.75l-11.125 0l0 8.921875l10.375 0l0 2.765625l-10.375 0l0 11.6875l-3.09375 0l0 -26.125z" fill-rule="nonzero"/><path fill="#000000" fill-opacity="0.0" d="m356.8335 140.94751c0 -14.507263 11.760468 -26.267723 26.26773 -26.267723c6.966614 0 13.647919 2.7674866 18.574066 7.6936417c4.9261475 4.9261475 7.693634 11.607452 7.693634 18.574081c0 14.507263 -11.760468 26.267715 -26.2677 26.267715c-14.507263 0 -26.26773 -11.760452 -26.26773 -26.267715z" fill-rule="evenodd"/><path stroke="#000000" stroke-width="3.0" stroke-linejoin="round" stroke-linecap="butt" d="m356.8335 140.94751c0 -14.507263 11.760468 -26.267723 26.26773 -26.267723c6.966614 0 13.647919 2.7674866 18.574066 7.6936417c4.9261475 4.9261475 7.693634 11.607452 7.693634 18.574081c0 14.507263 -11.760468 26.267715 -26.2677 26.267715c-14.507263 0 -26.26773 -11.760452 -26.26773 -26.267715z" fill-rule="evenodd"/><path fill="#000000" d="m390.8228 153.20938q-1.109375 0.859375 -2.828125 1.1875q-1.71875 0.34375 -3.65625 0.34375q-2.359375 0 -4.421875 -0.796875q-2.046875 -0.8125 -3.578125 -2.453125q-1.53125 -1.640625 -2.421875 -4.203125q-0.890625 -2.5625 -0.890625 -6.0625q0 -3.65625 0.984375 -6.21875q0.984375 -2.5625 2.609375 -4.171875q1.625 -1.625 3.640625 -2.375q2.015625 -0.75 4.109375 -0.75q2.234375 0 3.65625 0.25q1.421875 0.234375 2.421875 0.640625l-0.734375 2.734375q-1.796875 -0.859375 -5.125 -0.859375q-1.53125 0 -3.03125 0.5625q-1.484375 0.546875 -2.65625 1.828125q-1.171875 1.265625 -1.890625 3.328125q-0.703125 2.046875 -0.703125 5.03125q0 2.6875 0.671875 4.703125q0.671875 2.015625 1.84375 3.359375q1.1875 1.34375 2.765625 2.015625q1.59375 0.671875 3.453125 0.671875q1.6875 0 2.9375 -0.328125q1.25 -0.34375 2.109375 -0.875l0.734375 2.4375z" fill-rule="nonzero"/><path fill="#000000" fill-opacity="0.0" d="m438.22662 56.180378l-36.566956 66.20473" fill-rule="evenodd"/><path stroke="#000000" stroke-width="2.0" stroke-linejoin="round" stroke-linecap="butt" d="m438.22662 56.180378l-36.566956 66.20473" fill-rule="evenodd"/><path fill="#000000" fill-opacity="0.0" d="m554.69965 140.94751l83.370056 0" fill-rule="evenodd"/><path stroke="#000000" stroke-width="2.0" stroke-linejoin="round" stroke-linecap="butt" d="m554.69965 140.94751l83.370056 0" fill-rule="evenodd"/><path fill="#000000" fill-opacity="0.0" d="m645.76074 122.37343l-28.692932 -66.20473" fill-rule="evenodd"/><path stroke="#000000" stroke-width="2.0" stroke-linejoin="round" stroke-linecap="butt" d="m645.76074 122.37343l-28.692932 -66.20473" fill-rule="evenodd"/><path fill="#000000" fill-opacity="0.0" d="m645.76074 159.52159l-36.37799 56.06299" fill-rule="evenodd"/><path stroke="#000000" stroke-width="2.0" stroke-linejoin="round" stroke-linecap="butt" d="m645.76074 159.52159l-36.37799 56.06299" fill-rule="evenodd"/><path fill="#000000" fill-opacity="0.0" d="m401.6753 159.52159l36.566925 56.06299" fill-rule="evenodd"/><path stroke="#000000" stroke-width="2.0" stroke-linejoin="round" stroke-linecap="butt" d="m401.6753 159.52159l36.566925 56.06299" fill-rule="evenodd"/><path fill="#000000" fill-opacity="0.0" d="m409.36893 140.94751l92.787415 0" fill-rule="evenodd"/><path stroke="#000000" stroke-width="2.0" stroke-linejoin="round" stroke-linecap="butt" d="m409.36893 140.94751l92.787415 0" fill-rule="evenodd"/><path fill="#000000" fill-opacity="0.0" d="m411.28757 70.2986l28.692902 0l0 51.716537l-28.692902 0z" fill-rule="evenodd"/><path fill="#000000" d="m432.1782 90.47672q0 1.40625 -0.53125 2.890625q-0.515625 1.484375 -1.359375 2.984375q-0.828125 1.484375 -1.875 2.90625q-1.03125 1.421875 -2.078125 2.703125l-1.296875 1.15625l0 0.109375l1.703125 -0.296875l5.8125 0l0 1.96875l-10.609375 0l0 -0.765625q0.578125 -0.625 1.40625 -1.53125q0.828125 -0.90625 1.71875 -2.0q0.890625 -1.109375 1.75 -2.34375q0.875 -1.25 1.578125 -2.53125q0.71875 -1.28125 1.140625 -2.53125q0.421875 -1.25 0.421875 -2.375q0 -1.296875 -0.75 -2.15625q-0.734375 -0.875 -2.265625 -0.875q-1.0 0 -1.96875 0.421875q-0.953125 0.40625 -1.65625 0.9375l-0.875 -1.515625q0.9375 -0.8125 2.21875 -1.265625q1.28125 -0.453125 2.75 -0.453125q1.140625 0 2.015625 0.34375q0.875 0.328125 1.484375 0.9375q0.625 0.609375 0.9375 1.453125q0.328125 0.84375 0.328125 1.828125z" fill-rule="nonzero"/><path fill="#000000" fill-opacity="0.0" d="m441.4874 128.2746l28.692932 0l0 51.716537l-28.692932 0z" fill-rule="evenodd"/><path fill="#000000" d="m462.37802 148.45273q0 1.40625 -0.53125 2.890625q-0.515625 1.484375 -1.359375 2.984375q-0.828125 1.484375 -1.875 2.90625q-1.03125 1.421875 -2.078125 2.703125l-1.296875 1.15625l0 0.109375l1.703125 -0.296875l5.8125 0l0 1.96875l-10.609375 0l0 -0.765625q0.578125 -0.625 1.40625 -1.53125q0.828125 -0.90625 1.71875 -2.0q0.890625 -1.109375 1.75 -2.34375q0.875 -1.25 1.578125 -2.53125q0.71875 -1.28125 1.140625 -2.53125q0.421875 -1.25 0.421875 -2.375q0 -1.296875 -0.75 -2.15625q-0.734375 -0.875 -2.265625 -0.875q-1.0 0 -1.96875 0.421875q-0.953125 0.40625 -1.65625 0.9375l-0.875 -1.515625q0.9375 -0.8125 2.21875 -1.265625q1.28125 -0.453125 2.75 -0.453125q1.140625 0 2.015625 0.34375q0.875 0.328125 1.484375 0.9375q0.625 0.609375 0.9375 1.453125q0.328125 0.84375 0.328125 1.828125z" fill-rule="nonzero"/><path fill="#000000" fill-opacity="0.0" d="m581.3694 128.67279l28.692932 0l0 51.716522l-28.692932 0z" fill-rule="evenodd"/><path fill="#000000" d="m596.60376 161.7259q0.90625 0 1.671875 -0.265625q0.78125 -0.265625 1.34375 -0.78125q0.5625 -0.53125 0.875 -1.25q0.328125 -0.71875 0.328125 -1.5625q0 -1.875 -1.109375 -2.78125q-1.109375 -0.90625 -3.046875 -0.90625l-1.984375 0l0 -0.765625l3.84375 -5.921875l1.234375 -1.171875l-1.734375 0.265625l-5.28125 0l0 -1.96875l9.515625 0l0 0.765625l-4.234375 6.375l-0.9375 0.765625l0 0.0625l0.90625 -0.1875q1.0625 0.03125 1.96875 0.390625q0.90625 0.359375 1.5625 1.046875q0.671875 0.671875 1.046875 1.625q0.375 0.9375 0.375 2.140625q0 1.4375 -0.515625 2.5625q-0.5 1.109375 -1.359375 1.875q-0.859375 0.75 -2.046875 1.15625q-1.171875 0.390625 -2.46875 0.390625q-1.203125 0 -2.171875 -0.1875q-0.953125 -0.171875 -1.671875 -0.46875l0.5625 -1.890625q0.609375 0.28125 1.453125 0.484375q0.84375 0.203125 1.875 0.203125z" fill-rule="nonzero"/><path fill="#000000" fill-opacity="0.0" d="m623.309 54.630104l28.692932 0l0 51.716537l-28.692932 0z" fill-rule="evenodd"/><path fill="#000000" d="m638.5434 87.68323q0.90625 0 1.671875 -0.265625q0.78125 -0.265625 1.34375 -0.78125q0.5625 -0.53125 0.875 -1.25q0.328125 -0.71875 0.328125 -1.5625q0 -1.875 -1.109375 -2.78125q-1.109375 -0.90625 -3.046875 -0.90625l-1.984375 0l0 -0.765625l3.84375 -5.921875l1.234375 -1.171875l-1.734375 0.265625l-5.28125 0l0 -1.96875l9.515625 0l0 0.765625l-4.234375 6.375l-0.9375 0.765625l0 0.0625l0.90625 -0.1875q1.0625 0.03125 1.96875 0.390625q0.90625 0.359375 1.5625 1.046875q0.671875 0.671875 1.046875 1.625q0.375 0.9375 0.375 2.140625q0 1.4375 -0.515625 2.5625q-0.5 1.109375 -1.359375 1.875q-0.859375 0.75 -2.046875 1.15625q-1.171875 0.390625 -2.46875 0.390625q-1.203125 0 -2.171875 -0.1875q-0.953125 -0.171875 -1.671875 -0.46875l0.5625 -1.890625q0.609375 0.28125 1.453125 0.484375q0.84375 0.203125 1.875 0.203125z" fill-rule="nonzero"/><path fill="#000000" fill-opacity="0.0" d="m619.8479 169.58484l28.692932 0l0 51.716537l-28.692932 0z" fill-rule="evenodd"/><path fill="#000000" d="m631.7854 204.18484l6.6875 -15.625l1.171875 -1.296875l-1.578125 0.234375l-7.59375 0l0 -1.96875l11.140625 0l0 0.71875l-7.671875 17.9375l-2.15625 0z" fill-rule="nonzero"/><path fill="#000000" fill-opacity="0.0" d="m394.69614 174.85898l28.692932 0l0 51.716537l-28.692932 0z" fill-rule="evenodd"/><path fill="#000000" d="m409.9305 207.9121q0.90625 0 1.671875 -0.265625q0.78125 -0.265625 1.34375 -0.78125q0.5625 -0.53125 0.875 -1.25q0.328125 -0.71875 0.328125 -1.5625q0 -1.875 -1.109375 -2.78125q-1.109375 -0.90625 -3.046875 -0.90625l-1.984375 0l0 -0.765625l3.84375 -5.921875l1.234375 -1.171875l-1.734375 0.265625l-5.28125 0l0 -1.96875l9.515625 0l0 0.765625l-4.234375 6.375l-0.9375 0.765625l0 0.0625l0.90625 -0.1875q1.0625 0.03125 1.96875 0.390625q0.90625 0.359375 1.5625 1.046875q0.671875 0.671875 1.046875 1.625q0.375 0.9375 0.375 2.140625q0 1.4375 -0.515625 2.5625q-0.5 1.109375 -1.359375 1.875q-0.859375 0.75 -2.046875 1.15625q-1.171875 0.390625 -2.46875 0.390625q-1.203125 0 -2.171875 -0.1875q-0.953125 -0.171875 -1.671875 -0.46875l0.5625 -1.890625q0.609375 0.28125 1.453125 0.484375q0.84375 0.203125 1.875 0.203125z" fill-rule="nonzero"/><path fill="#000000" fill-opacity="0.0" d="m564.5317 234.14961c0 -14.507263 11.760437 -26.267715 26.2677 -26.267715c6.966614 0 13.647949 2.7674713 18.574097 7.693634c4.9261475 4.9261475 7.6936035 11.607437 7.6936035 18.574081c0 14.507248 -11.760437 26.267715 -26.2677 26.267715c-14.507263 0 -26.2677 -11.760468 -26.2677 -26.267715z" fill-rule="evenodd"/><path stroke="#000000" stroke-width="3.0" stroke-linejoin="round" stroke-linecap="butt" d="m564.5317 234.14961c0 -14.507263 11.760437 -26.267715 26.2677 -26.267715c6.966614 0 13.647949 2.7674713 18.574097 7.693634c4.9261475 4.9261475 7.6936035 11.607437 7.6936035 18.574081c0 14.507248 -11.760437 26.267715 -26.2677 26.267715c-14.507263 0 -26.2677 -11.760468 -26.2677 -26.267715z" fill-rule="evenodd"/><path fill="#000000" d="m590.1861 234.45836l8.765625 0l0 11.5q-0.59375 0.453125 -1.4375 0.828125q-0.828125 0.359375 -1.78125 0.625q-0.953125 0.265625 -1.984375 0.390625q-1.03125 0.140625 -2.0 0.140625q-2.5 0 -4.59375 -0.796875q-2.078125 -0.8125 -3.609375 -2.46875q-1.53125 -1.671875 -2.390625 -4.21875q-0.859375 -2.5625 -0.859375 -6.03125q0 -3.625 1.046875 -6.203125q1.046875 -2.578125 2.71875 -4.1875q1.6875 -1.625 3.765625 -2.375q2.09375 -0.75 4.1875 -0.75q2.234375 0 3.6875 0.25q1.46875 0.234375 2.46875 0.640625l-0.78125 2.734375q-1.796875 -0.859375 -5.109375 -0.859375q-1.578125 0 -3.125 0.546875q-1.546875 0.53125 -2.78125 1.8125q-1.234375 1.265625 -2.015625 3.3125q-0.78125 2.046875 -0.78125 5.078125q0 2.765625 0.625 4.78125q0.640625 2.015625 1.78125 3.34375q1.140625 1.3125 2.734375 1.96875q1.609375 0.65625 3.515625 0.65625q2.390625 0 4.078125 -0.9375l0 -7.28125l-6.125 -0.734375l0 -1.765625z" fill-rule="nonzero"/><path fill="#000000" fill-opacity="0.0" d="m791.2925 37.6063c0 -14.507261 11.760437 -26.267717 26.2677 -26.267717c6.966614 0 13.647949 2.7674837 18.574097 7.693636c4.9261475 4.9261513 7.6936035 11.607449 7.6936035 18.574081c0 14.507259 -11.760437 26.267715 -26.2677 26.267715c-14.507263 0 -26.2677 -11.760456 -26.2677 -26.267715z" fill-rule="evenodd"/><path stroke="#000000" stroke-width="3.0" stroke-linejoin="round" stroke-linecap="butt" d="m791.2925 37.6063c0 -14.507261 11.760437 -26.267717 26.2677 -26.267717c6.966614 0 13.647949 2.7674837 18.574097 7.693636c4.9261475 4.9261513 7.6936035 11.607449 7.6936035 18.574081c0 14.507259 -11.760437 26.267715 -26.2677 26.267715c-14.507263 0 -26.2677 -11.760456 -26.2677 -26.267715z" fill-rule="evenodd"/><path fill="#000000" d="m820.73926 43.71192l-9.640625 0l-2.609375 7.234375l-3.0625 0l9.890625 -26.546875l1.421875 0l9.921875 26.546875l-3.234375 0l-2.6875 -7.234375zm-8.625 -2.6875l7.6875 0l-2.90625 -7.953125l-0.9375 -3.96875l-0.046875 0l-0.921875 4.03125l-2.875 7.890625z" fill-rule="nonzero"/><path fill="#000000" fill-opacity="0.0" d="m932.9998 37.6063c0 -14.507261 11.760437 -26.267717 26.2677 -26.267717c6.966675 0 13.647949 2.7674837 18.574097 7.693636c4.9261475 4.9261513 7.6936646 11.607449 7.6936646 18.574081c0 14.507259 -11.760498 26.267715 -26.267761 26.267715c-14.507263 0 -26.2677 -11.760456 -26.2677 -26.267715z" fill-rule="evenodd"/><path stroke="#000000" stroke-width="3.0" stroke-linejoin="round" stroke-linecap="butt" d="m932.9998 37.6063c0 -14.507261 11.760437 -26.267717 26.2677 -26.267717c6.966675 0 13.647949 2.7674837 18.574097 7.693636c4.9261475 4.9261513 7.6936646 11.607449 7.6936646 18.574081c0 14.507259 -11.760498 26.267715 -26.267761 26.267715c-14.507263 0 -26.2677 -11.760456 -26.2677 -26.267715z" fill-rule="evenodd"/><path fill="#000000" d="m965.7778 30.790047q0 0.9375 -0.296875 1.90625q-0.296875 0.96875 -0.890625 1.8125q-0.59375 0.828125 -1.53125 1.46875q-0.9375 0.640625 -2.203125 0.96875l0 0.15625q1.125 0.1875 2.140625 0.640625q1.03125 0.4375 1.8125 1.21875q0.78125 0.78125 1.265625 1.90625q0.484375 1.125 0.484375 2.65625q0 2.015625 -0.84375 3.484375q-0.828125 1.46875 -2.203125 2.40625q-1.359375 0.9375 -3.109375 1.390625q-1.75 0.4375 -3.578125 0.4375q-0.640625 0 -1.5 0q-0.859375 0 -1.796875 -0.0625q-0.921875 -0.046875 -1.859375 -0.140625q-0.9375 -0.09375 -1.640625 -0.28125l0 -25.71875q1.375 -0.21875 3.203125 -0.359375q1.84375 -0.15625 4.0 -0.15625q1.453125 0 2.96875 0.25q1.515625 0.234375 2.734375 0.921875q1.234375 0.6875 2.03125 1.921875q0.8125 1.234375 0.8125 3.171875zm-8.65625 17.765625q1.1875 0 2.3125 -0.28125q1.125 -0.28125 1.984375 -0.890625q0.859375 -0.625 1.359375 -1.515625q0.5 -0.890625 0.5 -2.125q0 -1.53125 -0.625 -2.453125q-0.609375 -0.9375 -1.59375 -1.453125q-0.984375 -0.53125 -2.21875 -0.71875q-1.234375 -0.1875 -2.46875 -0.1875l-3.25 0l0 9.359375q0.265625 0.078125 0.75 0.125q0.484375 0.03125 1.046875 0.078125q0.5625 0.03125 1.15625 0.046875q0.59375 0.015625 1.046875 0.015625zm-2.046875 -12.234375q0.625 0 1.515625 -0.03125q0.90625 -0.046875 1.5 -0.125q0.890625 -0.296875 1.671875 -0.71875q0.796875 -0.4375 1.40625 -1.015625q0.625 -0.578125 0.96875 -1.34375q0.359375 -0.765625 0.359375 -1.65625q0 -1.234375 -0.46875 -2.03125q-0.46875 -0.8125 -1.25 -1.296875q-0.78125 -0.484375 -1.796875 -0.6875q-1.0 -0.203125 -2.046875 -0.203125q-1.234375 0 -2.265625 0.0625q-1.015625 0.046875 -1.546875 0.15625l0 8.890625l1.953125 0z" fill-rule="nonzero"/><path fill="#000000" fill-opacity="0.0" d="m862.9237 140.94751c0 -14.507263 11.760437 -26.267723 26.2677 -26.267723c6.966675 0 13.647949 2.7674866 18.574097 7.6936417c4.9261475 4.9261475 7.6936646 11.607452 7.6936646 18.574081c0 14.507263 -11.760498 26.267715 -26.267761 26.267715c-14.507263 0 -26.2677 -11.760452 -26.2677 -26.267715z" fill-rule="evenodd"/><path stroke="#000000" stroke-width="3.0" stroke-linejoin="round" stroke-linecap="butt" d="m862.9237 140.94751c0 -14.507263 11.760437 -26.267723 26.2677 -26.267723c6.966675 0 13.647949 2.7674866 18.574097 7.6936417c4.9261475 4.9261475 7.6936646 11.607452 7.6936646 18.574081c0 14.507263 -11.760498 26.267715 -26.267761 26.267715c-14.507263 0 -26.2677 -11.760452 -26.2677 -26.267715z" fill-rule="evenodd"/><path fill="#000000" d="m879.7656 128.1625q0.703125 -0.109375 1.578125 -0.171875q0.890625 -0.0625 1.84375 -0.078125q0.953125 -0.015625 1.859375 -0.03125q0.921875 -0.015625 1.703125 -0.015625q3.125 0 5.421875 0.96875q2.296875 0.96875 3.78125 2.703125q1.5 1.734375 2.234375 4.171875q0.734375 2.421875 0.734375 5.328125q0 2.65625 -0.703125 5.09375q-0.6875 2.4375 -2.1875 4.328125q-1.484375 1.890625 -3.875 3.03125q-2.390625 1.140625 -5.78125 1.140625q-0.59375 0 -1.546875 -0.03125q-0.953125 -0.015625 -1.96875 -0.078125q-1.0 -0.046875 -1.859375 -0.09375q-0.859375 -0.03125 -1.234375 -0.109375l0 -26.15625zm7.0625 2.453125q-0.484375 0 -1.078125 0q-0.578125 0 -1.140625 0.046875q-0.546875 0.03125 -1.015625 0.078125q-0.46875 0.03125 -0.734375 0.0625l0 20.90625q0.1875 0.046875 0.703125 0.0625q0.53125 0.015625 1.09375 0.03125q0.5625 0.015625 1.078125 0.046875q0.53125 0.015625 0.71875 0.015625q2.609375 0 4.375 -0.890625q1.78125 -0.90625 2.84375 -2.40625q1.0625 -1.515625 1.5 -3.46875q0.453125 -1.96875 0.453125 -4.0625q0 -1.828125 -0.40625 -3.671875q-0.40625 -1.859375 -1.421875 -3.34375q-1.0 -1.5 -2.703125 -2.453125q-1.703125 -0.953125 -4.265625 -0.953125z" fill-rule="nonzero"/><path fill="#000000" fill-opacity="0.0" d="m836.1343 56.180378l34.48816 66.20473" fill-rule="evenodd"/><path stroke="#000000" stroke-width="2.0" stroke-linejoin="round" stroke-linecap="butt" d="m836.1343 56.180378l34.48816 66.20473" fill-rule="evenodd"/><path fill="#000000" fill-opacity="0.0" d="m998.8266 140.94751c0 -14.507263 11.760437 -26.267723 26.267761 -26.267723c6.9665527 0 13.647827 2.7674866 18.573975 7.6936417c4.9262695 4.9261475 7.6937256 11.607452 7.6937256 18.574081c0 14.507263 -11.760498 26.267715 -26.2677 26.267715c-14.507324 0 -26.267761 -11.760452 -26.267761 -26.267715z" fill-rule="evenodd"/><path stroke="#000000" stroke-width="3.0" stroke-linejoin="round" stroke-linecap="butt" d="m998.8266 140.94751c0 -14.507263 11.760437 -26.267723 26.267761 -26.267723c6.9665527 0 13.647827 2.7674866 18.573975 7.6936417c4.9262695 4.9261475 7.6937256 11.607452 7.6937256 18.574081c0 14.507263 -11.760498 26.267715 -26.2677 26.267715c-14.507324 0 -26.267761 -11.760452 -26.267761 -26.267715z" fill-rule="evenodd"/><path fill="#000000" d="m1016.7504 128.1625l14.218689 0l0 2.75l-11.124939 0l0 8.5625l10.203064 0l0 2.75l-10.203064 0l0 9.296875l11.312439 0l0 2.765625l-14.406189 0l0 -26.125z" fill-rule="nonzero"/><path fill="#000000" fill-opacity="0.0" d="m791.2925 234.14961c0 -14.507263 11.760437 -26.267715 26.2677 -26.267715c6.966614 0 13.647949 2.7674713 18.574097 7.693634c4.9261475 4.9261475 7.6936035 11.607437 7.6936035 18.574081c0 14.507248 -11.760437 26.267715 -26.2677 26.267715c-14.507263 0 -26.2677 -11.760468 -26.2677 -26.267715z" fill-rule="evenodd"/><path stroke="#000000" stroke-width="3.0" stroke-linejoin="round" stroke-linecap="butt" d="m791.2925 234.14961c0 -14.507263 11.760437 -26.267715 26.2677 -26.267715c6.966614 0 13.647949 2.7674713 18.574097 7.693634c4.9261475 4.9261475 7.6936035 11.607437 7.6936035 18.574081c0 14.507248 -11.760437 26.267715 -26.2677 26.267715c-14.507263 0 -26.2677 -11.760468 -26.2677 -26.267715z" fill-rule="evenodd"/><path fill="#000000" d="m809.5709 221.36461l14.21875 0l0 2.75l-11.125 0l0 8.921875l10.375 0l0 2.765625l-10.375 0l0 11.6875l-3.09375 0l0 -26.125z" fill-rule="nonzero"/><path fill="#000000" fill-opacity="0.0" d="m717.593 140.94751c0 -14.507263 11.760437 -26.267723 26.2677 -26.267723c6.966614 0 13.647949 2.7674866 18.574097 7.6936417c4.9261475 4.9261475 7.6936035 11.607452 7.6936035 18.574081c0 14.507263 -11.760437 26.267715 -26.2677 26.267715c-14.507263 0 -26.2677 -11.760452 -26.2677 -26.267715z" fill-rule="evenodd"/><path stroke="#000000" stroke-width="3.0" stroke-linejoin="round" stroke-linecap="butt" d="m717.593 140.94751c0 -14.507263 11.760437 -26.267723 26.2677 -26.267723c6.966614 0 13.647949 2.7674866 18.574097 7.6936417c4.9261475 4.9261475 7.6936035 11.607452 7.6936035 18.574081c0 14.507263 -11.760437 26.267715 -26.2677 26.267715c-14.507263 0 -26.2677 -11.760452 -26.2677 -26.267715z" fill-rule="evenodd"/><path fill="#000000" d="m751.58234 153.20938q-1.109375 0.859375 -2.828125 1.1875q-1.71875 0.34375 -3.65625 0.34375q-2.359375 0 -4.421875 -0.796875q-2.046875 -0.8125 -3.578125 -2.453125q-1.53125 -1.640625 -2.421875 -4.203125q-0.890625 -2.5625 -0.890625 -6.0625q0 -3.65625 0.984375 -6.21875q0.984375 -2.5625 2.609375 -4.171875q1.625 -1.625 3.640625 -2.375q2.015625 -0.75 4.109375 -0.75q2.234375 0 3.65625 0.25q1.421875 0.234375 2.421875 0.640625l-0.734375 2.734375q-1.796875 -0.859375 -5.125 -0.859375q-1.53125 0 -3.03125 0.5625q-1.484375 0.546875 -2.65625 1.828125q-1.171875 1.265625 -1.890625 3.328125q-0.703125 2.046875 -0.703125 5.03125q0 2.6875 0.671875 4.703125q0.671875 2.015625 1.84375 3.359375q1.1875 1.34375 2.765625 2.015625q1.59375 0.671875 3.453125 0.671875q1.6875 0 2.9375 -0.328125q1.25 -0.34375 2.109375 -0.875l0.734375 2.4375z" fill-rule="nonzero"/><path fill="#000000" fill-opacity="0.0" d="m915.45917 140.94751l83.370056 0" fill-rule="evenodd"/><path stroke="#000000" stroke-width="2.0" stroke-linejoin="round" stroke-linecap="butt" d="m915.45917 140.94751l83.370056 0" fill-rule="evenodd"/><path fill="#000000" fill-opacity="0.0" d="m1006.5202 122.37343l-28.692871 -66.20473" fill-rule="evenodd"/><path stroke="#000000" stroke-width="2.0" stroke-linejoin="round" stroke-linecap="butt" d="m1006.5202 122.37343l-28.692871 -66.20473" fill-rule="evenodd"/><path fill="#000000" fill-opacity="0.0" d="m1006.5202 159.52159l-36.37793 56.06299" fill-rule="evenodd"/><path stroke="#000000" stroke-width="2.0" stroke-linejoin="round" stroke-linecap="butt" d="m1006.5202 159.52159l-36.37793 56.06299" fill-rule="evenodd"/><path fill="#000000" fill-opacity="0.0" d="m770.1284 140.94751l92.787415 0" fill-rule="evenodd"/><path stroke="#000000" stroke-width="2.0" stroke-linejoin="round" stroke-linecap="butt" d="m770.1284 140.94751l92.787415 0" fill-rule="evenodd"/><path fill="#000000" fill-opacity="0.0" d="m802.2469 128.2746l28.692932 0l0 51.716537l-28.692932 0z" fill-rule="evenodd"/><path fill="#000000" d="m823.1375 148.45273q0 1.40625 -0.53125 2.890625q-0.515625 1.484375 -1.359375 2.984375q-0.828125 1.484375 -1.875 2.90625q-1.03125 1.421875 -2.078125 2.703125l-1.296875 1.15625l0 0.109375l1.703125 -0.296875l5.8125 0l0 1.96875l-10.609375 0l0 -0.765625q0.578125 -0.625 1.40625 -1.53125q0.828125 -0.90625 1.71875 -2.0q0.890625 -1.109375 1.75 -2.34375q0.875 -1.25 1.578125 -2.53125q0.71875 -1.28125 1.140625 -2.53125q0.421875 -1.25 0.421875 -2.375q0 -1.296875 -0.75 -2.15625q-0.734375 -0.875 -2.265625 -0.875q-1.0 0 -1.96875 0.421875q-0.953125 0.40625 -1.65625 0.9375l-0.875 -1.515625q0.9375 -0.8125 2.21875 -1.265625q1.28125 -0.453125 2.75 -0.453125q1.140625 0 2.015625 0.34375q0.875 0.328125 1.484375 0.9375q0.625 0.609375 0.9375 1.453125q0.328125 0.84375 0.328125 1.828125z" fill-rule="nonzero"/><path fill="#000000" fill-opacity="0.0" d="m884.33026 23.80998l28.692932 0l0 51.71653l-28.692932 0z" fill-rule="evenodd"/><path fill="#000000" fill-opacity="0.0" d="m844.33154 55.609474l28.692932 0l0 51.716537l-28.692932 0z" fill-rule="evenodd"/><path fill="#000000" d="m865.22217 75.7876q0 1.40625 -0.53125 2.890625q-0.515625 1.484375 -1.359375 2.984375q-0.828125 1.484375 -1.875 2.90625q-1.03125 1.421875 -2.078125 2.703125l-1.296875 1.15625l0 0.109375l1.703125 -0.296875l5.8125 0l0 1.96875l-10.609375 0l0 -0.765625q0.578125 -0.625 1.40625 -1.53125q0.828125 -0.90625 1.71875 -2.0q0.890625 -1.109375 1.75 -2.34375q0.875 -1.25 1.578125 -2.53125q0.71875 -1.28125 1.140625 -2.53125q0.421875 -1.25 0.421875 -2.375q0 -1.296875 -0.75 -2.15625q-0.734375 -0.875 -2.265625 -0.875q-1.0 0 -1.96875 0.421875q-0.953125 0.40625 -1.65625 0.9375l-0.875 -1.515625q0.9375 -0.8125 2.21875 -1.265625q1.28125 -0.453125 2.75 -0.453125q1.140625 0 2.015625 0.34375q0.875 0.328125 1.484375 0.9375q0.625 0.609375 0.9375 1.453125q0.328125 0.84375 0.328125 1.828125z" fill-rule="nonzero"/><path fill="#000000" fill-opacity="0.0" d="m942.1289 128.67279l28.692932 0l0 51.716522l-28.692932 0z" fill-rule="evenodd"/><path fill="#000000" d="m957.3633 161.7259q0.90625 0 1.671875 -0.265625q0.78125 -0.265625 1.34375 -0.78125q0.5625 -0.53125 0.875 -1.25q0.328125 -0.71875 0.328125 -1.5625q0 -1.875 -1.109375 -2.78125q-1.109375 -0.90625 -3.046875 -0.90625l-1.984375 0l0 -0.765625l3.84375 -5.921875l1.234375 -1.171875l-1.734375 0.265625l-5.28125 0l0 -1.96875l9.515625 0l0 0.765625l-4.234375 6.375l-0.9375 0.765625l0 0.0625l0.90625 -0.1875q1.0625 0.03125 1.96875 0.390625q0.90625 0.359375 1.5625 1.046875q0.671875 0.671875 1.046875 1.625q0.375 0.9375 0.375 2.140625q0 1.4375 -0.515625 2.5625q-0.5 1.109375 -1.359375 1.875q-0.859375 0.75 -2.046875 1.15625q-1.171875 0.390625 -2.46875 0.390625q-1.203125 0 -2.171875 -0.1875q-0.953125 -0.171875 -1.671875 -0.46875l0.5625 -1.890625q0.609375 0.28125 1.453125 0.484375q0.84375 0.203125 1.875 0.203125z" fill-rule="nonzero"/><path fill="#000000" fill-opacity="0.0" d="m984.06854 54.630104l28.692932 0l0 51.716537l-28.692932 0z" fill-rule="evenodd"/><path fill="#000000" d="m999.3029 87.68323q0.90625 0 1.671875 -0.265625q0.78125 -0.265625 1.34375 -0.78125q0.5625 -0.53125 0.875 -1.25q0.328125 -0.71875 0.328125 -1.5625q0 -1.875 -1.109375 -2.78125q-1.109375 -0.90625 -3.046875 -0.90625l-1.984375 0l0 -0.765625l3.84375 -5.921875l1.234375 -1.171875l-1.734375 0.265625l-5.28125 0l0 -1.96875l9.515625 0l0 0.765625l-4.234375 6.375l-0.9375 0.765625l0 0.0625l0.90625 -0.1875q1.0625 0.03125 1.96875 0.390625q0.90625 0.359375 1.5625 1.046875q0.671875 0.671875 1.046875 1.625q0.375 0.9375 0.375 2.140625q0 1.4375 -0.515625 2.5625q-0.5 1.109375 -1.359375 1.875q-0.859375 0.75 -2.046875 1.15625q-1.171875 0.390625 -2.46875 0.390625q-1.203125 0 -2.171875 -0.1875q-0.953125 -0.171875 -1.671875 -0.46875l0.5625 -1.890625q0.609375 0.28125 1.453125 0.484375q0.84375 0.203125 1.875 0.203125z" fill-rule="nonzero"/><path fill="#000000" fill-opacity="0.0" d="m980.6074 169.58484l28.692871 0l0 51.716537l-28.692871 0z" fill-rule="evenodd"/><path fill="#000000" d="m992.5449 204.18484l6.6875 -15.625l1.171875 -1.296875l-1.578125 0.234375l-7.59375 0l0 -1.96875l11.140625 0l0 0.71875l-7.671875 17.9375l-2.15625 0z" fill-rule="nonzero"/><path fill="#000000" fill-opacity="0.0" d="m925.29114 234.14961c0 -14.507263 11.760498 -26.267715 26.267761 -26.267715c6.966614 0 13.647888 2.7674713 18.574036 7.693634c4.9262085 4.9261475 7.6936646 11.607437 7.6936646 18.574081c0 14.507248 -11.760437 26.267715 -26.2677 26.267715c-14.507263 0 -26.267761 -11.760468 -26.267761 -26.267715z" fill-rule="evenodd"/><path stroke="#000000" stroke-width="3.0" stroke-linejoin="round" stroke-linecap="butt" d="m925.29114 234.14961c0 -14.507263 11.760498 -26.267715 26.267761 -26.267715c6.966614 0 13.647888 2.7674713 18.574036 7.693634c4.9262085 4.9261475 7.6936646 11.607437 7.6936646 18.574081c0 14.507248 -11.760437 26.267715 -26.2677 26.267715c-14.507263 0 -26.267761 -11.760468 -26.267761 -26.267715z" fill-rule="evenodd"/><path fill="#000000" d="m950.94556 234.45836l8.765625 0l0 11.5q-0.59375 0.453125 -1.4375 0.828125q-0.828125 0.359375 -1.78125 0.625q-0.953125 0.265625 -1.984375 0.390625q-1.03125 0.140625 -2.0 0.140625q-2.5 0 -4.59375 -0.796875q-2.078125 -0.8125 -3.609375 -2.46875q-1.53125 -1.671875 -2.390625 -4.21875q-0.859375 -2.5625 -0.859375 -6.03125q0 -3.625 1.046875 -6.203125q1.046875 -2.578125 2.71875 -4.1875q1.6875 -1.625 3.765625 -2.375q2.09375 -0.75 4.1875 -0.75q2.234375 0 3.6875 0.25q1.46875 0.234375 2.46875 0.640625l-0.78125 2.734375q-1.796875 -0.859375 -5.109375 -0.859375q-1.578125 0 -3.125 0.546875q-1.546875 0.53125 -2.78125 1.8125q-1.234375 1.265625 -2.015625 3.3125q-0.78125 2.046875 -0.78125 5.078125q0 2.765625 0.625 4.78125q0.640625 2.015625 1.78125 3.34375q1.140625 1.3125 2.734375 1.96875q1.609375 0.65625 3.515625 0.65625q2.390625 0 4.078125 -0.9375l0 -7.28125l-6.125 -0.734375l0 -1.765625z" fill-rule="nonzero"/><path fill="#000000" fill-opacity="0.0" d="m836.1343 215.57553l34.48816 -56.063004" fill-rule="evenodd"/><path stroke="#000000" stroke-width="2.0" stroke-linejoin="round" stroke-linecap="butt" d="m836.1343 215.57553l34.48816 -56.063004" fill-rule="evenodd"/><path fill="#000000" fill-opacity="0.0" d="m845.9561 167.74265l28.692932 0l0 51.716522l-28.692932 0z" fill-rule="evenodd"/><path fill="#000000" d="m861.1905 200.79576q0.90625 0 1.671875 -0.265625q0.78125 -0.265625 1.34375 -0.78125q0.5625 -0.53125 0.875 -1.25q0.328125 -0.71875 0.328125 -1.5625q0 -1.875 -1.109375 -2.78125q-1.109375 -0.90625 -3.046875 -0.90625l-1.984375 0l0 -0.765625l3.84375 -5.921875l1.234375 -1.171875l-1.734375 0.265625l-5.28125 0l0 -1.96875l9.515625 0l0 0.765625l-4.234375 6.375l-0.9375 0.765625l0 0.0625l0.90625 -0.1875q1.0625 0.03125 1.96875 0.390625q0.90625 0.359375 1.5625 1.046875q0.671875 0.671875 1.046875 1.625q0.375 0.9375 0.375 2.140625q0 1.4375 -0.515625 2.5625q-0.5 1.109375 -1.359375 1.875q-0.859375 0.75 -2.046875 1.15625q-1.171875 0.390625 -2.46875 0.390625q-1.203125 0 -2.171875 -0.1875q-0.953125 -0.171875 -1.671875 -0.46875l0.5625 -1.890625q0.609375 0.28125 1.453125 0.484375q0.84375 0.203125 1.875 0.203125z" fill-rule="nonzero"/><path fill="#000000" fill-opacity="0.0" d="m703.9539 8.833805l0 261.29135" fill-rule="evenodd"/><path stroke="#000000" stroke-width="1.0" stroke-linejoin="round" stroke-linecap="butt" d="m703.9539 8.833805l0 261.29135" fill-rule="evenodd"/><path fill="#000000" fill-opacity="0.0" d="m345.79883 7.21832l0 261.29132" fill-rule="evenodd"/><path stroke="#000000" stroke-width="1.0" stroke-linejoin="round" stroke-linecap="butt" d="m345.79883 7.21832l0 261.29132" fill-rule="evenodd"/></g></svg>