<svg version="1.1" viewBox="0.0 0.0 1758.3858267716535 552.2572178477691" fill="none" stroke="none" stroke-linecap="square" stroke-miterlimit="10" xmlns:xlink="http://www.w3.org/1999/xlink" xmlns="http://www.w3.org/2000/svg"><clipPath id="p.0"><path d="m0 0l1758.3859 0l0 552.2572l-1758.3859 0l0 -552.2572z" clip-rule="nonzero"/></clipPath><g clip-path="url(#p.0)"><path fill="#000000" fill-opacity="0.0" d="m0 0l1758.3859 0l0 552.2572l-1758.3859 0z" fill-rule="evenodd"/><path fill="#efefef" d="m1023.5549 142.82635c8.737488 28.79309 28.195496 76.97945 73.99994 94.0c45.804443 17.020569 165.40955 18.849518 200.82678 8.123367c35.41736 -10.726166 32.468994 -59.939194 11.677246 -72.480316c-20.79187 -12.541122 -102.13867 13.041122 -136.42786 -2.7664032c-34.289185 -15.807526 -47.89026 -74.472885 -69.30713 -92.07874c-21.41687 -17.605865 -45.732666 -24.42345 -59.194214 -13.556435c-13.461548 10.86702 -30.312317 49.965446 -21.574768 78.75853z" fill-rule="evenodd"/><path stroke="#000000" stroke-width="1.0" stroke-linejoin="round" stroke-linecap="butt" d="m1023.5549 142.82635c8.737488 28.79309 28.195496 76.97945 73.99994 94.0c45.804443 17.020569 165.40955 18.849518 200.82678 8.123367c35.41736 -10.726166 32.468994 -59.939194 11.677246 -72.480316c-20.79187 -12.541122 -102.13867 13.041122 -136.42786 -2.7664032c-34.289185 -15.807526 -47.89026 -74.472885 -69.30713 -92.07874c-21.41687 -17.605865 -45.732666 -24.42345 -59.194214 -13.556435c-13.461548 10.86702 -30.312317 49.965446 -21.574768 78.75853z" fill-rule="evenodd"/><path fill="#000000" fill-opacity="0.0" d="m1037.9124 107.71916c0 -14.507263 11.760376 -26.267715 26.2677 -26.267715c6.966675 0 13.647949 2.767479 18.574097 7.693634c4.9261475 4.926155 7.6936035 11.607445 7.6936035 18.574081c0 14.507256 -11.760498 26.267715 -26.2677 26.267715c-14.507324 0 -26.2677 -11.76046 -26.2677 -26.267715z" fill-rule="evenodd"/><path stroke="#000000" stroke-width="3.0" stroke-linejoin="round" stroke-linecap="butt" d="m1037.9124 107.71916c0 -14.507263 11.760376 -26.267715 26.2677 -26.267715c6.966675 0 13.647949 2.767479 18.574097 7.693634c4.9261475 4.926155 7.6936035 11.607445 7.6936035 18.574081c0 14.507256 -11.760498 26.267715 -26.2677 26.267715c-14.507324 0 -26.2677 -11.76046 -26.2677 -26.267715z" fill-rule="evenodd"/><path fill="#000000" d="m1067.3591 113.82478l-9.640625 0l-2.609375 7.234375l-3.0625 0l9.890625 -26.546875l1.421875 0l9.921875 26.546875l-3.234375 0l-2.6875 -7.234375zm-8.625 -2.6875l7.6875 0l-2.90625 -7.953125l-0.9375 -3.96875l-0.046875 0l-0.921875 4.03125l-2.875 7.890625z" fill-rule="nonzero"/><path fill="#000000" fill-opacity="0.0" d="m1179.6196 107.71916c0 -14.507263 11.760498 -26.267715 26.267822 -26.267715c6.9665527 0 13.647827 2.767479 18.573975 7.693634c4.9261475 4.926155 7.6937256 11.607445 7.6937256 18.574081c0 14.507256 -11.760498 26.267715 -26.2677 26.267715c-14.507324 0 -26.267822 -11.76046 -26.267822 -26.267715z" fill-rule="evenodd"/><path stroke="#000000" stroke-width="3.0" stroke-linejoin="round" stroke-linecap="butt" d="m1179.6196 107.71916c0 -14.507263 11.760498 -26.267715 26.267822 -26.267715c6.9665527 0 13.647827 2.767479 18.573975 7.693634c4.9261475 4.926155 7.6937256 11.607445 7.6937256 18.574081c0 14.507256 -11.760498 26.267715 -26.2677 26.267715c-14.507324 0 -26.267822 -11.76046 -26.267822 -26.267715z" fill-rule="evenodd"/><path fill="#000000" d="m1212.3976 100.90291q0 0.9375 -0.296875 1.90625q-0.296875 0.96875 -0.890625 1.8125q-0.59375 0.828125 -1.53125 1.46875q-0.9375 0.640625 -2.203125 0.96875l0 0.15625q1.125 0.1875 2.140625 0.640625q1.03125 0.4375 1.8125 1.21875q0.78125 0.78125 1.265625 1.90625q0.484375 1.125 0.484375 2.65625q0 2.015625 -0.84375 3.484375q-0.828125 1.46875 -2.203125 2.40625q-1.359375 0.9375 -3.109375 1.390625q-1.75 0.4375 -3.578125 0.4375q-0.640625 0 -1.5 0q-0.859375 0 -1.796875 -0.0625q-0.921875 -0.046875 -1.859375 -0.140625q-0.9375 -0.09375 -1.640625 -0.28125l0 -25.71875q1.375 -0.21875 3.203125 -0.359375q1.84375 -0.15625 4.0 -0.15625q1.453125 0 2.96875 0.25q1.515625 0.234375 2.734375 0.921875q1.234375 0.6875 2.03125 1.921875q0.8125 1.234375 0.8125 3.171875zm-8.65625 17.765625q1.1875 0 2.3125 -0.28125q1.125 -0.28125 1.984375 -0.890625q0.859375 -0.625 1.359375 -1.515625q0.5 -0.890625 0.5 -2.125q0 -1.53125 -0.625 -2.453125q-0.609375 -0.9375 -1.59375 -1.453125q-0.984375 -0.53125 -2.21875 -0.71875q-1.234375 -0.1875 -2.46875 -0.1875l-3.25 0l0 9.359375q0.265625 0.078125 0.75 0.125q0.484375 0.03125 1.046875 0.078125q0.5625 0.03125 1.15625 0.046875q0.59375 0.015625 1.046875 0.015625zm-2.046875 -12.234375q0.625 0 1.515625 -0.03125q0.90625 -0.046875 1.5 -0.125q0.890625 -0.296875 1.671875 -0.71875q0.796875 -0.4375 1.40625 -1.015625q0.625 -0.578125 0.96875 -1.34375q0.359375 -0.765625 0.359375 -1.65625q0 -1.234375 -0.46875 -2.03125q-0.46875 -0.8125 -1.25 -1.296875q-0.78125 -0.484375 -1.796875 -0.6875q-1.0 -0.203125 -2.046875 -0.203125q-1.234375 0 -2.265625 0.0625q-1.015625 0.046875 -1.546875 0.15625l0 8.890625l1.953125 0z" fill-rule="nonzero"/><path fill="#000000" fill-opacity="0.0" d="m1109.5436 211.06036c0 -14.507263 11.760498 -26.267715 26.2677 -26.267715c6.966675 0 13.647949 2.7674866 18.574097 7.693634c4.9261475 4.9261627 7.6936035 11.607452 7.6936035 18.574081c0 14.507263 -11.760498 26.267715 -26.2677 26.267715c-14.507202 0 -26.2677 -11.760452 -26.2677 -26.267715z" fill-rule="evenodd"/><path stroke="#000000" stroke-width="3.0" stroke-linejoin="round" stroke-linecap="butt" d="m1109.5436 211.06036c0 -14.507263 11.760498 -26.267715 26.2677 -26.267715c6.966675 0 13.647949 2.7674866 18.574097 7.693634c4.9261475 4.9261627 7.6936035 11.607452 7.6936035 18.574081c0 14.507263 -11.760498 26.267715 -26.2677 26.267715c-14.507202 0 -26.2677 -11.760452 -26.2677 -26.267715z" fill-rule="evenodd"/><path fill="#000000" d="m1127.4674 198.27536l14.21875 0l0 2.75l-11.125 0l0 8.5625l10.203125 0l0 2.75l-10.203125 0l0 9.296875l11.3125 0l0 2.765625l-14.40625 0l0 -26.125z" fill-rule="nonzero"/><path fill="#000000" fill-opacity="0.0" d="m1082.7542 126.29324l34.48816 66.20473" fill-rule="evenodd"/><path stroke="#000000" stroke-width="2.0" stroke-linejoin="round" stroke-linecap="butt" d="m1082.7542 126.29324l31.321533 60.1259" fill-rule="evenodd"/><path fill="#000000" stroke="#000000" stroke-width="2.0" stroke-linecap="butt" d="m1114.0757 186.41916l-3.0339355 -0.9556122l4.8497314 4.4413605l-0.8602295 -6.5196075z" fill-rule="evenodd"/><path fill="#000000" fill-opacity="0.0" d="m1187.3134 126.29324l-32.913452 66.20473" fill-rule="evenodd"/><path stroke="#000000" stroke-width="4.0" stroke-linejoin="round" stroke-linecap="butt" d="m1187.3134 126.29324l-32.913452 66.20473" fill-rule="evenodd"/><path fill="#000000" fill-opacity="0.0" d="m1245.4464 211.06036c0 -14.507263 11.760498 -26.267715 26.2677 -26.267715c6.966675 0 13.647949 2.7674866 18.574097 7.693634c4.9261475 4.9261627 7.6937256 11.607452 7.6937256 18.574081c0 14.507263 -11.760498 26.267715 -26.267822 26.267715c-14.507202 0 -26.2677 -11.760452 -26.2677 -26.267715z" fill-rule="evenodd"/><path stroke="#000000" stroke-width="3.0" stroke-linejoin="round" stroke-linecap="butt" d="m1245.4464 211.06036c0 -14.507263 11.760498 -26.267715 26.2677 -26.267715c6.966675 0 13.647949 2.7674866 18.574097 7.693634c4.9261475 4.9261627 7.6937256 11.607452 7.6937256 18.574081c0 14.507263 -11.760498 26.267715 -26.267822 26.267715c-14.507202 0 -26.2677 -11.760452 -26.2677 -26.267715z" fill-rule="evenodd"/><path fill="#000000" d="m1263.7249 198.27536l14.21875 0l0 2.75l-11.125 0l0 8.921875l10.375 0l0 2.765625l-10.375 0l0 11.6875l-3.09375 0l0 -26.125z" fill-rule="nonzero"/><path fill="#000000" fill-opacity="0.0" d="m1321.3257 112.784775c0 -14.507256 11.760498 -26.267715 26.2677 -26.267715c6.966675 0 13.647949 2.7674866 18.574097 7.693634c4.9261475 4.926155 7.6937256 11.607452 7.6937256 18.574081c0 14.507263 -11.760498 26.267715 -26.267822 26.267715c-14.507202 0 -26.2677 -11.760452 -26.2677 -26.267715z" fill-rule="evenodd"/><path stroke="#000000" stroke-width="3.0" stroke-linejoin="round" stroke-linecap="butt" d="m1321.3257 112.784775c0 -14.507256 11.760498 -26.267715 26.2677 -26.267715c6.966675 0 13.647949 2.7674866 18.574097 7.693634c4.9261475 4.926155 7.6937256 11.607452 7.6937256 18.574081c0 14.507263 -11.760498 26.267715 -26.267822 26.267715c-14.507202 0 -26.2677 -11.760452 -26.2677 -26.267715z" fill-rule="evenodd"/><path fill="#000000" d="m1355.3151 125.046646q-1.109375 0.859375 -2.828125 1.1875q-1.71875 0.34375 -3.65625 0.34375q-2.359375 0 -4.421875 -0.796875q-2.046875 -0.8125 -3.578125 -2.453125q-1.53125 -1.640625 -2.421875 -4.203125q-0.890625 -2.5625 -0.890625 -6.0625q0 -3.65625 0.984375 -6.21875q0.984375 -2.5625 2.609375 -4.171875q1.625 -1.625 3.640625 -2.375q2.015625 -0.75 4.109375 -0.75q2.234375 0 3.65625 0.25q1.421875 0.234375 2.421875 0.640625l-0.734375 2.734375q-1.796875 -0.859375 -5.125 -0.859375q-1.53125 0 -3.03125 0.5625q-1.484375 0.546875 -2.65625 1.828125q-1.171875 1.265625 -1.890625 3.328125q-0.703125 2.046875 -0.703125 5.03125q0 2.6875 0.671875 4.703125q0.671875 2.015625 1.84375 3.359375q1.1875 1.34375 2.765625 2.015625q1.59375 0.671875 3.453125 0.671875q1.6875 0 2.9375 -0.328125q1.25 -0.34375 2.109375 -0.875l0.734375 2.4375z" fill-rule="nonzero"/><path fill="#000000" fill-opacity="0.0" d="m964.2128 211.06036c0 -14.507263 11.760498 -26.267715 26.267761 -26.267715c6.966614 0 13.647888 2.7674866 18.574036 7.693634c4.9261475 4.9261627 7.6936646 11.607452 7.6936646 18.574081c0 14.507263 -11.760437 26.267715 -26.2677 26.267715c-14.507263 0 -26.267761 -11.760452 -26.267761 -26.267715z" fill-rule="evenodd"/><path stroke="#000000" stroke-width="3.0" stroke-linejoin="round" stroke-linecap="butt" d="m964.2128 211.06036c0 -14.507263 11.760498 -26.267715 26.267761 -26.267715c6.966614 0 13.647888 2.7674866 18.574036 7.693634c4.9261475 4.9261627 7.6936646 11.607452 7.6936646 18.574081c0 14.507263 -11.760437 26.267715 -26.2677 26.267715c-14.507263 0 -26.267761 -11.760452 -26.267761 -26.267715z" fill-rule="evenodd"/><path fill="#000000" d="m981.05475 198.27536q0.703125 -0.109375 1.578125 -0.171875q0.890625 -0.0625 1.84375 -0.078125q0.953125 -0.015625 1.859375 -0.03125q0.921875 -0.015625 1.703125 -0.015625q3.125 0 5.421875 0.96875q2.296875 0.96875 3.78125 2.703125q1.5 1.734375 2.234375 4.171875q0.734375 2.421875 0.734375 5.328125q0 2.65625 -0.703125 5.09375q-0.6875 2.4375 -2.1875 4.328125q-1.484375 1.890625 -3.875 3.03125q-2.390625 1.140625 -5.78125 1.140625q-0.59375 0 -1.546875 -0.03125q-0.953125 -0.015625 -1.96875 -0.078125q-1.0 -0.046875 -1.859375 -0.09375q-0.859375 -0.03125 -1.234375 -0.109375l0 -26.15625zm7.0625 2.453125q-0.484375 0 -1.078125 0q-0.578125 0 -1.140625 0.046875q-0.546875 0.03125 -1.015625 0.078125q-0.46875 0.03125 -0.734375 0.0625l0 20.90625q0.1875 0.046875 0.703125 0.0625q0.53125 0.015625 1.09375 0.03125q0.5625 0.015625 1.078125 0.046875q0.53125 0.015625 0.71875 0.015625q2.609375 0 4.375 -0.890625q1.78125 -0.90625 2.84375 -2.40625q1.0625 -1.515625 1.5 -3.46875q0.453125 -1.96875 0.453125 -4.0625q0 -1.828125 -0.40625 -3.671875q-0.40625 -1.859375 -1.421875 -3.34375q-1.0 -1.5 -2.703125 -2.453125q-1.703125 -0.953125 -4.265625 -0.953125z" fill-rule="nonzero"/><path fill="#000000" fill-opacity="0.0" d="m1045.606 126.29324l-36.566895 66.20473" fill-rule="evenodd"/><path stroke="#000000" stroke-width="4.0" stroke-linejoin="round" stroke-linecap="butt" d="m1045.606 126.29324l-36.566895 66.20473" fill-rule="evenodd"/><path fill="#000000" fill-opacity="0.0" d="m1162.079 211.06036l83.37012 0" fill-rule="evenodd"/><path stroke="#000000" stroke-width="2.0" stroke-linejoin="round" stroke-linecap="butt" d="m1162.079 211.06036l76.51587 0" fill-rule="evenodd"/><path fill="#000000" stroke="#000000" stroke-width="2.0" stroke-linecap="butt" d="m1238.5948 211.06036l-2.2491455 2.249176l6.1795654 -2.249176l-6.1795654 -2.2491608z" fill-rule="evenodd"/><path fill="#000000" fill-opacity="0.0" d="m1224.4614 126.29324l28.692993 66.20473" fill-rule="evenodd"/><path stroke="#000000" stroke-width="4.0" stroke-linejoin="round" stroke-linecap="butt" d="m1224.4614 126.29324l28.692993 66.20473" fill-rule="evenodd"/><path fill="#000000" fill-opacity="0.0" d="m1329.0194 131.35886l-38.740234 61.133865" fill-rule="evenodd"/><path stroke="#000000" stroke-width="4.0" stroke-linejoin="round" stroke-linecap="butt" d="m1329.0194 131.35886l-38.740234 61.133865" fill-rule="evenodd"/><path fill="#efefef" d="m79.3298 72.79531c-1.9685059 14.698166 2.1412964 44.849083 14.223099 55.078743c12.081802 10.22966 45.02144 12.5 58.267715 6.2992096c13.246277 -6.200783 18.454071 -30.90551 21.209976 -43.503937c2.7559052 -12.598427 -0.33377075 -23.592735 -4.6745453 -32.086613c-4.3407745 -8.493874 -10.871399 -15.727032 -21.370071 -18.87664c-10.498688 -3.1496048 -30.346024 -5.5358696 -41.622055 -0.020996094c-11.2760315 5.5148735 -24.065613 18.412071 -26.034119 33.110233z" fill-rule="evenodd"/><path stroke="#000000" stroke-width="1.0" stroke-linejoin="round" stroke-linecap="butt" d="m79.3298 72.79531c-1.9685059 14.698166 2.1412964 44.849083 14.223099 55.078743c12.081802 10.22966 45.02144 12.5 58.267715 6.2992096c13.246277 -6.200783 18.454071 -30.90551 21.209976 -43.503937c2.7559052 -12.598427 -0.33377075 -23.592735 -4.6745453 -32.086613c-4.3407745 -8.493874 -10.871399 -15.727032 -21.370071 -18.87664c-10.498688 -3.1496048 -30.346024 -5.5358696 -41.622055 -0.020996094c-11.2760315 5.5148735 -24.065613 18.412071 -26.034119 33.110233z" fill-rule="evenodd"/><path fill="#000000" fill-opacity="0.0" d="m98.119675 89.65879c0 -14.507256 11.76046 -26.267715 26.267715 -26.267715c6.966629 0 13.647934 2.7674866 18.574081 7.693634c4.9261475 4.926155 7.693634 11.607452 7.693634 18.574081c0 14.507263 -11.760452 26.267715 -26.267715 26.267715c-14.507256 0 -26.267715 -11.760452 -26.267715 -26.267715z" fill-rule="evenodd"/><path stroke="#000000" stroke-width="3.0" stroke-linejoin="round" stroke-linecap="butt" d="m98.119675 89.65879c0 -14.507256 11.76046 -26.267715 26.267715 -26.267715c6.966629 0 13.647934 2.7674866 18.574081 7.693634c4.9261475 4.926155 7.693634 11.607452 7.693634 18.574081c0 14.507263 -11.760452 26.267715 -26.267715 26.267715c-14.507256 0 -26.267715 -11.760452 -26.267715 -26.267715z" fill-rule="evenodd"/><path fill="#000000" d="m127.56646 95.76441l-9.640625 0l-2.609375 7.234375l-3.0625 0l9.890625 -26.546875l1.421875 0l9.921867 26.546875l-3.234375 0l-2.6874924 -7.234375zm-8.625 -2.6875l7.6875 0l-2.90625 -7.953125l-0.9375 -3.96875l-0.046875 0l-0.921875 4.03125l-2.875 7.890625z" fill-rule="nonzero"/><path fill="#000000" fill-opacity="0.0" d="m150.6551 89.65879l89.16536 0" fill-rule="evenodd"/><path stroke="#000000" stroke-width="4.0" stroke-linejoin="round" stroke-linecap="butt" d="m150.6551 89.65879l89.16536 0" fill-rule="evenodd"/><path fill="#000000" fill-opacity="0.0" d="m239.82703 89.65879c0 -14.507256 11.760452 -26.267715 26.2677 -26.267715c6.9666443 0 13.647949 2.7674866 18.574097 7.693634c4.9261475 4.926155 7.693634 11.607452 7.693634 18.574081c0 14.507263 -11.760468 26.267715 -26.26773 26.267715c-14.507248 0 -26.2677 -11.760452 -26.2677 -26.267715z" fill-rule="evenodd"/><path stroke="#000000" stroke-width="3.0" stroke-linejoin="round" stroke-linecap="butt" d="m239.82703 89.65879c0 -14.507256 11.760452 -26.267715 26.2677 -26.267715c6.9666443 0 13.647949 2.7674866 18.574097 7.693634c4.9261475 4.926155 7.693634 11.607452 7.693634 18.574081c0 14.507263 -11.760468 26.267715 -26.26773 26.267715c-14.507248 0 -26.2677 -11.760452 -26.2677 -26.267715z" fill-rule="evenodd"/><path fill="#000000" d="m272.60498 82.84254q0 0.9375 -0.296875 1.90625q-0.296875 0.96875 -0.890625 1.8125q-0.59375 0.828125 -1.53125 1.46875q-0.9375 0.640625 -2.203125 0.96875l0 0.15625q1.125 0.1875 2.140625 0.640625q1.03125 0.4375 1.8125 1.21875q0.78125 0.78125 1.265625 1.90625q0.484375 1.125 0.484375 2.65625q0 2.015625 -0.84375 3.484375q-0.828125 1.46875 -2.203125 2.40625q-1.359375 0.9375 -3.109375 1.390625q-1.75 0.4375 -3.578125 0.4375q-0.640625 0 -1.5 0q-0.859375 0 -1.796875 -0.0625q-0.921875 -0.046875 -1.859375 -0.140625q-0.9375 -0.09375 -1.640625 -0.28125l0 -25.71875q1.375 -0.21875 3.203125 -0.359375q1.84375 -0.15625 4.0 -0.15625q1.453125 0 2.96875 0.25q1.515625 0.234375 2.734375 0.921875q1.234375 0.6875 2.03125 1.921875q0.8125 1.234375 0.8125 3.171875zm-8.65625 17.765625q1.1875 0 2.3125 -0.28125q1.125 -0.28125 1.984375 -0.890625q0.859375 -0.625 1.359375 -1.515625q0.5 -0.890625 0.5 -2.125q0 -1.53125 -0.625 -2.453125q-0.609375 -0.9375 -1.59375 -1.453125q-0.984375 -0.53125 -2.21875 -0.71875q-1.234375 -0.1875 -2.46875 -0.1875l-3.25 0l0 9.359375q0.265625 0.078125 0.75 0.125q0.484375 0.03125 1.046875 0.078125q0.5625 0.03125 1.15625 0.046875q0.59375 0.015625 1.046875 0.015625zm-2.046875 -12.234375q0.625 0 1.515625 -0.03125q0.90625 -0.046875 1.5 -0.125q0.890625 -0.296875 1.671875 -0.71875q0.796875 -0.4375 1.40625 -1.015625q0.625 -0.578125 0.96875 -1.34375q0.359375 -0.765625 0.359375 -1.65625q0 -1.234375 -0.46875 -2.03125q-0.46875 -0.8125 -1.25 -1.296875q-0.78125 -0.484375 -1.796875 -0.6875q-1.0 -0.203125 -2.046875 -0.203125q-1.234375 0 -2.265625 0.0625q-1.015625 0.046875 -1.546875 0.15625l0 8.890625l1.953125 0z" fill-rule="nonzero"/><path fill="#000000" fill-opacity="0.0" d="m169.75092 193.0c0 -14.507263 11.760452 -26.267715 26.267715 -26.267715c6.966629 0 13.647919 2.7674866 18.574081 7.693634c4.9261475 4.9261475 7.693634 11.607452 7.693634 18.574081c0 14.507263 -11.760468 26.267715 -26.267715 26.267715c-14.507263 0 -26.267715 -11.760452 -26.267715 -26.267715z" fill-rule="evenodd"/><path stroke="#000000" stroke-width="3.0" stroke-linejoin="round" stroke-linecap="butt" d="m169.75092 193.0c0 -14.507263 11.760452 -26.267715 26.267715 -26.267715c6.966629 0 13.647919 2.7674866 18.574081 7.693634c4.9261475 4.9261475 7.693634 11.607452 7.693634 18.574081c0 14.507263 -11.760468 26.267715 -26.267715 26.267715c-14.507263 0 -26.267715 -11.760452 -26.267715 -26.267715z" fill-rule="evenodd"/><path fill="#000000" d="m187.67473 180.215l14.21875 0l0 2.75l-11.125 0l0 8.5625l10.203125 0l0 2.75l-10.203125 0l0 9.296875l11.3125 0l0 2.765625l-14.40625 0l0 -26.125z" fill-rule="nonzero"/><path fill="#000000" fill-opacity="0.0" d="m142.96147 108.23287l34.48819 66.20472" fill-rule="evenodd"/><path stroke="#000000" stroke-width="4.0" stroke-linejoin="round" stroke-linecap="butt" d="m142.96147 108.23287l34.48819 66.20472" fill-rule="evenodd"/><path fill="#000000" fill-opacity="0.0" d="m247.52066 108.23287l-32.91339 66.20472" fill-rule="evenodd"/><path stroke="#000000" stroke-width="2.0" stroke-linejoin="round" stroke-linecap="butt" stroke-dasharray="8.0,6.0" d="m247.52066 108.23287l-32.91339 66.20472" fill-rule="evenodd"/><path fill="#000000" fill-opacity="0.0" d="m305.6538 193.0c0 -14.507263 11.760437 -26.267715 26.2677 -26.267715c6.9666443 0 13.647919 2.7674866 18.574097 7.693634c4.9261475 4.9261475 7.693634 11.607452 7.693634 18.574081c0 14.507263 -11.760468 26.267715 -26.26773 26.267715c-14.507263 0 -26.2677 -11.760452 -26.2677 -26.267715z" fill-rule="evenodd"/><path stroke="#000000" stroke-width="3.0" stroke-linejoin="round" stroke-linecap="butt" d="m305.6538 193.0c0 -14.507263 11.760437 -26.267715 26.2677 -26.267715c6.9666443 0 13.647919 2.7674866 18.574097 7.693634c4.9261475 4.9261475 7.693634 11.607452 7.693634 18.574081c0 14.507263 -11.760468 26.267715 -26.26773 26.267715c-14.507263 0 -26.2677 -11.760452 -26.2677 -26.267715z" fill-rule="evenodd"/><path fill="#000000" d="m323.93222 180.215l14.21875 0l0 2.75l-11.125 0l0 8.921875l10.375 0l0 2.765625l-10.375 0l0 11.6875l-3.09375 0l0 -26.125z" fill-rule="nonzero"/><path fill="#000000" fill-opacity="0.0" d="m381.53305 94.72441c0 -14.507263 11.760468 -26.267715 26.26773 -26.267715c6.966614 0 13.647919 2.767479 18.574066 7.693634c4.926178 4.926155 7.693634 11.607445 7.693634 18.574081c0 14.507256 -11.760437 26.267715 -26.2677 26.267715c-14.507263 0 -26.26773 -11.76046 -26.26773 -26.267715z" fill-rule="evenodd"/><path stroke="#000000" stroke-width="3.0" stroke-linejoin="round" stroke-linecap="butt" d="m381.53305 94.72441c0 -14.507263 11.760468 -26.267715 26.26773 -26.267715c6.966614 0 13.647919 2.767479 18.574066 7.693634c4.926178 4.926155 7.693634 11.607445 7.693634 18.574081c0 14.507256 -11.760437 26.267715 -26.2677 26.267715c-14.507263 0 -26.26773 -11.76046 -26.26773 -26.267715z" fill-rule="evenodd"/><path fill="#000000" d="m415.5224 106.98628q-1.109375 0.859375 -2.828125 1.1875q-1.71875 0.34375 -3.65625 0.34375q-2.359375 0 -4.421875 -0.796875q-2.046875 -0.8125 -3.578125 -2.453125q-1.53125 -1.640625 -2.421875 -4.203125q-0.890625 -2.5625 -0.890625 -6.0625q0 -3.65625 0.984375 -6.21875q0.984375 -2.5625 2.609375 -4.171875q1.625 -1.625 3.640625 -2.375q2.015625 -0.75 4.109375 -0.75q2.234375 0 3.65625 0.25q1.421875 0.234375 2.421875 0.640625l-0.734375 2.734375q-1.796875 -0.859375 -5.125 -0.859375q-1.53125 0 -3.03125 0.5625q-1.484375 0.546875 -2.65625 1.828125q-1.171875 1.265625 -1.890625 3.328125q-0.703125 2.046875 -0.703125 5.03125q0 2.6875 0.671875 4.703125q0.671875 2.015625 1.84375 3.359375q1.1875 1.34375 2.765625 2.015625q1.59375 0.671875 3.453125 0.671875q1.6875 0 2.9375 -0.328125q1.25 -0.34375 2.109375 -0.875l0.734375 2.4375z" fill-rule="nonzero"/><path fill="#000000" fill-opacity="0.0" d="m24.4202 193.0c0 -14.507263 11.760456 -26.267715 26.267715 -26.267715c6.966633 0 13.64793 2.7674866 18.574085 7.693634c4.9261475 4.9261475 7.693634 11.607452 7.693634 18.574081c0 14.507263 -11.76046 26.267715 -26.26772 26.267715c-14.507259 0 -26.267715 -11.760452 -26.267715 -26.267715z" fill-rule="evenodd"/><path stroke="#000000" stroke-width="3.0" stroke-linejoin="round" stroke-linecap="butt" d="m24.4202 193.0c0 -14.507263 11.760456 -26.267715 26.267715 -26.267715c6.966633 0 13.64793 2.7674866 18.574085 7.693634c4.9261475 4.9261475 7.693634 11.607452 7.693634 18.574081c0 14.507263 -11.76046 26.267715 -26.26772 26.267715c-14.507259 0 -26.267715 -11.760452 -26.267715 -26.267715z" fill-rule="evenodd"/><path fill="#000000" d="m41.26211 180.215q0.703125 -0.109375 1.578125 -0.171875q0.890625 -0.0625 1.84375 -0.078125q0.953125 -0.015625 1.859375 -0.03125q0.921875 -0.015625 1.703125 -0.015625q3.125 0 5.421875 0.96875q2.296875 0.96875 3.78125 2.703125q1.5 1.734375 2.234375 4.171875q0.734375 2.421875 0.734375 5.328125q0 2.65625 -0.703125 5.09375q-0.6875 2.4375 -2.1875 4.328125q-1.484375 1.890625 -3.875 3.03125q-2.390625 1.140625 -5.78125 1.140625q-0.59375 0 -1.546875 -0.03125q-0.953125 -0.015625 -1.96875 -0.078125q-1.0 -0.046875 -1.859375 -0.09375q-0.859375 -0.03125 -1.234375 -0.109375l0 -26.15625zm7.0625 2.453125q-0.484375 0 -1.078125 0q-0.578125 0 -1.140625 0.046875q-0.546875 0.03125 -1.015625 0.078125q-0.46875 0.03125 -0.734375 0.0625l0 20.90625q0.1875 0.046875 0.703125 0.0625q0.53125 0.015625 1.09375 0.03125q0.5625 0.015625 1.078125 0.046875q0.53125 0.015625 0.71875 0.015625q2.609375 0 4.375 -0.890625q1.78125 -0.90625 2.84375 -2.40625q1.0625 -1.515625 1.5 -3.46875q0.453125 -1.96875 0.453125 -4.0625q0 -1.828125 -0.40625 -3.671875q-0.40625 -1.859375 -1.421875 -3.34375q-1.0 -1.5 -2.703125 -2.453125q-1.703125 -0.953125 -4.265625 -0.953125z" fill-rule="nonzero"/><path fill="#000000" fill-opacity="0.0" d="m105.81331 108.23287l-36.566925 66.20472" fill-rule="evenodd"/><path stroke="#000000" stroke-width="4.0" stroke-linejoin="round" stroke-linecap="butt" d="m105.81331 108.23287l-36.566925 66.20472" fill-rule="evenodd"/><path fill="#000000" fill-opacity="0.0" d="m222.28635 193.0l83.37009 0" fill-rule="evenodd"/><path stroke="#000000" stroke-width="2.0" stroke-linejoin="round" stroke-linecap="butt" stroke-dasharray="8.0,6.0" d="m222.28635 193.0l83.37009 0" fill-rule="evenodd"/><path fill="#000000" fill-opacity="0.0" d="m284.66882 108.23287l28.692902 66.20472" fill-rule="evenodd"/><path stroke="#000000" stroke-width="2.0" stroke-linejoin="round" stroke-linecap="butt" stroke-dasharray="8.0,6.0" d="m284.66882 108.23287l28.692902 66.20472" fill-rule="evenodd"/><path fill="#000000" fill-opacity="0.0" d="m389.22668 113.29849l-38.740143 61.13385" fill-rule="evenodd"/><path stroke="#000000" stroke-width="2.0" stroke-linejoin="round" stroke-linecap="butt" stroke-dasharray="8.0,6.0" d="m389.22668 113.29849l-38.740143 61.13385" fill-rule="evenodd"/><path fill="#efefef" d="m548.04926 111.74526c-1.8521729 14.814522 6.3530273 26.860023 15.871399 46.0315c9.518372 19.171478 24.419067 53.46544 41.23883 68.997375c16.819763 15.531921 43.536743 28.550735 59.67981 24.194214c16.143005 -4.3565063 42.357788 -23.161407 37.178467 -50.33333c-5.1793823 -27.17192 -47.090576 -90.74059 -68.25458 -112.698166c-21.164062 -21.957565 -44.44403 -23.015305 -58.729675 -19.047241c-14.285645 3.9680634 -25.132141 28.041122 -26.984253 42.855644z" fill-rule="evenodd"/><path stroke="#000000" stroke-width="1.0" stroke-linejoin="round" stroke-linecap="butt" d="m548.04926 111.74526c-1.8521729 14.814522 6.3530273 26.860023 15.871399 46.0315c9.518372 19.171478 24.419067 53.46544 41.23883 68.997375c16.819763 15.531921 43.536743 28.550735 59.67981 24.194214c16.143005 -4.3565063 42.357788 -23.161407 37.178467 -50.33333c-5.1793823 -27.17192 -47.090576 -90.74059 -68.25458 -112.698166c-21.164062 -21.957565 -44.44403 -23.015305 -58.729675 -19.047241c-14.285645 3.9680634 -25.132141 28.041122 -26.984253 42.855644z" fill-rule="evenodd"/><path fill="#000000" fill-opacity="0.0" d="m560.09344 105.698166c0 -14.507263 11.760437 -26.267723 26.2677 -26.267723c6.966614 0 13.647949 2.7674866 18.574097 7.6936417c4.9261475 4.9261475 7.6936035 11.607445 7.6936035 18.574081c0 14.507256 -11.760437 26.267715 -26.2677 26.267715c-14.507263 0 -26.2677 -11.76046 -26.2677 -26.267715z" fill-rule="evenodd"/><path stroke="#000000" stroke-width="3.0" stroke-linejoin="round" stroke-linecap="butt" d="m560.09344 105.698166c0 -14.507263 11.760437 -26.267723 26.2677 -26.267723c6.966614 0 13.647949 2.7674866 18.574097 7.6936417c4.9261475 4.9261475 7.6936035 11.607445 7.6936035 18.574081c0 14.507256 -11.760437 26.267715 -26.2677 26.267715c-14.507263 0 -26.2677 -11.76046 -26.2677 -26.267715z" fill-rule="evenodd"/><path fill="#000000" d="m589.5402 111.80379l-9.640625 0l-2.609375 7.234375l-3.0625 0l9.890625 -26.546875l1.421875 0l9.921875 26.546875l-3.234375 0l-2.6875 -7.234375zm-8.625 -2.6875l7.6875 0l-2.90625 -7.953125l-0.9375 -3.96875l-0.046875 0l-0.921875 4.03125l-2.875 7.890625z" fill-rule="nonzero"/><path fill="#000000" fill-opacity="0.0" d="m604.93524 124.27224l34.48816 66.204735" fill-rule="evenodd"/><path stroke="#000000" stroke-width="2.0" stroke-linejoin="round" stroke-linecap="butt" d="m604.93524 124.27225l31.321533 60.1259" fill-rule="evenodd"/><path fill="#000000" stroke="#000000" stroke-width="2.0" stroke-linecap="butt" d="m636.2568 184.39816l-3.0338745 -0.9556122l4.8497314 4.4413605l-0.8602295 -6.5196075z" fill-rule="evenodd"/><path fill="#000000" fill-opacity="0.0" d="m701.8008 105.698166c0 -14.507263 11.760437 -26.267723 26.2677 -26.267723c6.966675 0 13.647949 2.7674866 18.574097 7.6936417c4.9261475 4.9261475 7.6936035 11.607445 7.6936035 18.574081c0 14.507256 -11.760437 26.267715 -26.2677 26.267715c-14.507263 0 -26.2677 -11.76046 -26.2677 -26.267715z" fill-rule="evenodd"/><path stroke="#000000" stroke-width="3.0" stroke-linejoin="round" stroke-linecap="butt" d="m701.8008 105.698166c0 -14.507263 11.760437 -26.267723 26.2677 -26.267723c6.966675 0 13.647949 2.7674866 18.574097 7.6936417c4.9261475 4.9261475 7.6936035 11.607445 7.6936035 18.574081c0 14.507256 -11.760437 26.267715 -26.2677 26.267715c-14.507263 0 -26.2677 -11.76046 -26.2677 -26.267715z" fill-rule="evenodd"/><path fill="#000000" d="m734.57874 98.88191q0 0.9375 -0.296875 1.90625q-0.296875 0.96875 -0.890625 1.8125q-0.59375 0.828125 -1.53125 1.46875q-0.9375 0.640625 -2.203125 0.96875l0 0.15625q1.125 0.1875 2.140625 0.640625q1.03125 0.4375 1.8125 1.21875q0.78125 0.78125 1.265625 1.90625q0.484375 1.125 0.484375 2.65625q0 2.015625 -0.84375 3.484375q-0.828125 1.46875 -2.203125 2.40625q-1.359375 0.9375 -3.109375 1.390625q-1.75 0.4375 -3.578125 0.4375q-0.640625 0 -1.5 0q-0.859375 0 -1.796875 -0.0625q-0.921875 -0.046875 -1.859375 -0.140625q-0.9375 -0.09375 -1.640625 -0.28125l0 -25.71875q1.375 -0.21875 3.203125 -0.359375q1.84375 -0.15625 4.0 -0.15625q1.453125 0 2.96875 0.25q1.515625 0.234375 2.734375 0.921875q1.234375 0.6875 2.03125 1.921875q0.8125 1.234375 0.8125 3.171875zm-8.65625 17.765625q1.1875 0 2.3125 -0.28125q1.125 -0.28125 1.984375 -0.890625q0.859375 -0.625 1.359375 -1.515625q0.5 -0.890625 0.5 -2.125q0 -1.53125 -0.625 -2.453125q-0.609375 -0.9375 -1.59375 -1.453125q-0.984375 -0.53125 -2.21875 -0.71875q-1.234375 -0.1875 -2.46875 -0.1875l-3.25 0l0 9.359375q0.265625 0.078125 0.75 0.125q0.484375 0.03125 1.046875 0.078125q0.5625 0.03125 1.15625 0.046875q0.59375 0.015625 1.046875 0.015625zm-2.046875 -12.234375q0.625 0 1.515625 -0.03125q0.90625 -0.046875 1.5 -0.125q0.890625 -0.296875 1.671875 -0.71875q0.796875 -0.4375 1.40625 -1.015625q0.625 -0.578125 0.96875 -1.34375q0.359375 -0.765625 0.359375 -1.65625q0 -1.234375 -0.46875 -2.03125q-0.46875 -0.8125 -1.25 -1.296875q-0.78125 -0.484375 -1.796875 -0.6875q-1.0 -0.203125 -2.046875 -0.203125q-1.234375 0 -2.265625 0.0625q-1.015625 0.046875 -1.546875 0.15625l0 8.890625l1.953125 0z" fill-rule="nonzero"/><path fill="#000000" fill-opacity="0.0" d="m631.7247 209.03937c0 -14.507263 11.760437 -26.267715 26.2677 -26.267715c6.966614 0 13.647949 2.7674866 18.574097 7.693634c4.9261475 4.9261627 7.6936035 11.607452 7.6936035 18.574081c0 14.507263 -11.760437 26.267715 -26.2677 26.267715c-14.507263 0 -26.2677 -11.760452 -26.2677 -26.267715z" fill-rule="evenodd"/><path stroke="#000000" stroke-width="3.0" stroke-linejoin="round" stroke-linecap="butt" d="m631.7247 209.03937c0 -14.507263 11.760437 -26.267715 26.2677 -26.267715c6.966614 0 13.647949 2.7674866 18.574097 7.693634c4.9261475 4.9261627 7.6936035 11.607452 7.6936035 18.574081c0 14.507263 -11.760437 26.267715 -26.2677 26.267715c-14.507263 0 -26.2677 -11.760452 -26.2677 -26.267715z" fill-rule="evenodd"/><path fill="#000000" d="m649.6485 196.25436l14.21875 0l0 2.75l-11.125 0l0 8.5625l10.203125 0l0 2.75l-10.203125 0l0 9.296875l11.3125 0l0 2.765625l-14.40625 0l0 -26.125z" fill-rule="nonzero"/><path fill="#000000" fill-opacity="0.0" d="m612.62885 105.698166l89.165344 0" fill-rule="evenodd"/><path stroke="#000000" stroke-width="4.0" stroke-linejoin="round" stroke-linecap="butt" d="m612.62885 105.698166l89.165344 0" fill-rule="evenodd"/><path fill="#000000" fill-opacity="0.0" d="m709.4944 124.27224l-32.91333 66.204735" fill-rule="evenodd"/><path stroke="#000000" stroke-width="4.0" stroke-linejoin="round" stroke-linecap="butt" d="m709.4944 124.27224l-32.91333 66.204735" fill-rule="evenodd"/><path fill="#000000" fill-opacity="0.0" d="m767.62756 209.03937c0 -14.507263 11.760437 -26.267715 26.2677 -26.267715c6.966614 0 13.647949 2.7674866 18.574097 7.693634c4.9261475 4.9261627 7.6936035 11.607452 7.6936035 18.574081c0 14.507263 -11.760437 26.267715 -26.2677 26.267715c-14.507263 0 -26.2677 -11.760452 -26.2677 -26.267715z" fill-rule="evenodd"/><path stroke="#000000" stroke-width="3.0" stroke-linejoin="round" stroke-linecap="butt" d="m767.62756 209.03937c0 -14.507263 11.760437 -26.267715 26.2677 -26.267715c6.966614 0 13.647949 2.7674866 18.574097 7.693634c4.9261475 4.9261627 7.6936035 11.607452 7.6936035 18.574081c0 14.507263 -11.760437 26.267715 -26.2677 26.267715c-14.507263 0 -26.2677 -11.760452 -26.2677 -26.267715z" fill-rule="evenodd"/><path fill="#000000" d="m785.906 196.25436l14.21875 0l0 2.75l-11.125 0l0 8.921875l10.375 0l0 2.765625l-10.375 0l0 11.6875l-3.09375 0l0 -26.125z" fill-rule="nonzero"/><path fill="#000000" fill-opacity="0.0" d="m843.50684 110.76378c0 -14.507256 11.760437 -26.267715 26.2677 -26.267715c6.966614 0 13.647949 2.7674866 18.574097 7.693634c4.9261475 4.926155 7.6936035 11.607452 7.6936035 18.574081c0 14.507263 -11.760437 26.267715 -26.2677 26.267715c-14.507263 0 -26.2677 -11.760452 -26.2677 -26.267715z" fill-rule="evenodd"/><path stroke="#000000" stroke-width="3.0" stroke-linejoin="round" stroke-linecap="butt" d="m843.50684 110.76378c0 -14.507256 11.760437 -26.267715 26.2677 -26.267715c6.966614 0 13.647949 2.7674866 18.574097 7.693634c4.9261475 4.926155 7.6936035 11.607452 7.6936035 18.574081c0 14.507263 -11.760437 26.267715 -26.2677 26.267715c-14.507263 0 -26.2677 -11.760452 -26.2677 -26.267715z" fill-rule="evenodd"/><path fill="#000000" d="m877.49615 123.02565q-1.109375 0.859375 -2.828125 1.1875q-1.71875 0.34375 -3.65625 0.34375q-2.359375 0 -4.421875 -0.796875q-2.046875 -0.8125 -3.578125 -2.453125q-1.53125 -1.640625 -2.421875 -4.203125q-0.890625 -2.5625 -0.890625 -6.0625q0 -3.65625 0.984375 -6.21875q0.984375 -2.5625 2.609375 -4.171875q1.625 -1.625 3.640625 -2.375q2.015625 -0.75 4.109375 -0.75q2.234375 0 3.65625 0.25q1.421875 0.234375 2.421875 0.640625l-0.734375 2.734375q-1.796875 -0.859375 -5.125 -0.859375q-1.53125 0 -3.03125 0.5625q-1.484375 0.546875 -2.65625 1.828125q-1.171875 1.265625 -1.890625 3.328125q-0.703125 2.046875 -0.703125 5.03125q0 2.6875 0.671875 4.703125q0.671875 2.015625 1.84375 3.359375q1.1875 1.34375 2.765625 2.015625q1.59375 0.671875 3.453125 0.671875q1.6875 0 2.9375 -0.328125q1.25 -0.34375 2.109375 -0.875l0.734375 2.4375z" fill-rule="nonzero"/><path fill="#000000" fill-opacity="0.0" d="m486.39395 209.03937c0 -14.507263 11.760468 -26.267715 26.26773 -26.267715c6.966614 0 13.647888 2.7674866 18.574097 7.693634c4.9261475 4.9261627 7.6936035 11.607452 7.6936035 18.574081c0 14.507263 -11.760437 26.267715 -26.2677 26.267715c-14.507263 0 -26.26773 -11.760452 -26.26773 -26.267715z" fill-rule="evenodd"/><path stroke="#000000" stroke-width="3.0" stroke-linejoin="round" stroke-linecap="butt" d="m486.39395 209.03937c0 -14.507263 11.760468 -26.267715 26.26773 -26.267715c6.966614 0 13.647888 2.7674866 18.574097 7.693634c4.9261475 4.9261627 7.6936035 11.607452 7.6936035 18.574081c0 14.507263 -11.760437 26.267715 -26.2677 26.267715c-14.507263 0 -26.26773 -11.760452 -26.26773 -26.267715z" fill-rule="evenodd"/><path fill="#000000" d="m503.23587 196.25436q0.703125 -0.109375 1.578125 -0.171875q0.890625 -0.0625 1.84375 -0.078125q0.953125 -0.015625 1.859375 -0.03125q0.921875 -0.015625 1.703125 -0.015625q3.1249695 0 5.4218445 0.96875q2.296875 0.96875 3.78125 2.703125q1.5 1.734375 2.234375 4.171875q0.734375 2.421875 0.734375 5.328125q0 2.65625 -0.703125 5.09375q-0.6875 2.4375 -2.1875 4.328125q-1.484375 1.890625 -3.875 3.03125q-2.390625 1.140625 -5.7812195 1.140625q-0.59375 0 -1.546875 -0.03125q-0.953125 -0.015625 -1.96875 -0.078125q-1.0 -0.046875 -1.859375 -0.09375q-0.859375 -0.03125 -1.234375 -0.109375l0 -26.15625zm7.0625 2.453125q-0.484375 0 -1.078125 0q-0.578125 0 -1.140625 0.046875q-0.546875 0.03125 -1.015625 0.078125q-0.46875 0.03125 -0.734375 0.0625l0 20.90625q0.1875 0.046875 0.703125 0.0625q0.53125 0.015625 1.09375 0.03125q0.5625 0.015625 1.078125 0.046875q0.53125 0.015625 0.71875 0.015625q2.6093445 0 4.3749695 -0.890625q1.78125 -0.90625 2.84375 -2.40625q1.0625 -1.515625 1.5 -3.46875q0.453125 -1.96875 0.453125 -4.0625q0 -1.828125 -0.40625 -3.671875q-0.40625 -1.859375 -1.421875 -3.34375q-1.0 -1.5 -2.703125 -2.453125q-1.703125 -0.953125 -4.2655945 -0.953125z" fill-rule="nonzero"/><path fill="#000000" fill-opacity="0.0" d="m567.78705 124.27224l-36.566895 66.204735" fill-rule="evenodd"/><path stroke="#000000" stroke-width="4.0" stroke-linejoin="round" stroke-linecap="butt" d="m567.78705 124.27224l-36.566895 66.204735" fill-rule="evenodd"/><path fill="#000000" fill-opacity="0.0" d="m684.2601 209.03937l83.37012 0" fill-rule="evenodd"/><path stroke="#000000" stroke-width="4.0" stroke-linejoin="round" stroke-linecap="butt" d="m684.2601 209.03937l83.37012 0" fill-rule="evenodd"/><path fill="#000000" fill-opacity="0.0" d="m746.6426 124.27224l28.692932 66.204735" fill-rule="evenodd"/><path stroke="#000000" stroke-width="2.0" stroke-linejoin="round" stroke-linecap="butt" stroke-dasharray="8.0,6.0" d="m746.6426 124.27224l28.692932 66.204735" fill-rule="evenodd"/><path fill="#000000" fill-opacity="0.0" d="m851.20044 129.33786l-38.740173 61.133865" fill-rule="evenodd"/><path stroke="#000000" stroke-width="2.0" stroke-linejoin="round" stroke-linecap="butt" stroke-dasharray="8.0,6.0" d="m851.20044 129.33786l-38.740173 61.133865" fill-rule="evenodd"/><path fill="#000000" d="m1023.9235 157.3727c0 -2.91362 2.3619995 -5.275589 5.2755737 -5.275589c1.3991699 0 2.7410889 0.5558319 3.7304688 1.5451965c0.9893799 0.9893646 1.545166 2.3312225 1.545166 3.7303925c0 2.9136353 -2.3619385 5.2756042 -5.275635 5.2756042c-2.9135742 0 -5.2755737 -2.361969 -5.2755737 -5.2756042z" fill-rule="evenodd"/><path stroke="#000000" stroke-width="1.0" stroke-linejoin="round" stroke-linecap="butt" d="m1023.9235 157.3727c0 -2.91362 2.3619995 -5.275589 5.2755737 -5.275589c1.3991699 0 2.7410889 0.5558319 3.7304688 1.5451965c0.9893799 0.9893646 1.545166 2.3312225 1.545166 3.7303925c0 2.9136353 -2.3619385 5.2756042 -5.275635 5.2756042c-2.9135742 0 -5.2755737 -2.361969 -5.2755737 -5.2756042z" fill-rule="evenodd"/><path fill="#000000" d="m88.811455 128.92744c0 -2.9136353 2.3619614 -5.2755966 5.275589 -5.2755966c1.3991699 0 2.741043 0.55581665 3.7304077 1.5451813c0.9893646 0.98937225 1.5451813 2.3312378 1.5451813 3.7304153c0 2.91362 -2.3619614 5.275589 -5.275589 5.275589c-2.9136276 0 -5.275589 -2.361969 -5.275589 -5.275589z" fill-rule="evenodd"/><path stroke="#000000" stroke-width="1.0" stroke-linejoin="round" stroke-linecap="butt" d="m88.811455 128.92744c0 -2.9136353 2.3619614 -5.2755966 5.275589 -5.2755966c1.3991699 0 2.741043 0.55581665 3.7304077 1.5451813c0.9893646 0.98937225 1.5451813 2.3312378 1.5451813 3.7304153c0 2.91362 -2.3619614 5.275589 -5.275589 5.275589c-2.9136276 0 -5.275589 -2.361969 -5.275589 -5.275589z" fill-rule="evenodd"/><path fill="#000000" d="m150.03548 131.5095c0 -2.91362 2.361969 -5.2755814 5.275589 -5.2755814c1.3991699 0 2.741043 0.55581665 3.7304077 1.5451813c0.9893646 0.98937225 1.5451813 2.3312302 1.5451813 3.7304c0 2.9136353 -2.3619537 5.275589 -5.275589 5.275589c-2.91362 0 -5.275589 -2.3619537 -5.275589 -5.275589z" fill-rule="evenodd"/><path stroke="#000000" stroke-width="1.0" stroke-linejoin="round" stroke-linecap="butt" d="m150.03548 131.5095c0 -2.91362 2.361969 -5.2755814 5.275589 -5.2755814c1.3991699 0 2.741043 0.55581665 3.7304077 1.5451813c0.9893646 0.98937225 1.5451813 2.3312302 1.5451813 3.7304c0 2.9136353 -2.3619537 5.275589 -5.275589 5.275589c-2.91362 0 -5.275589 -2.3619537 -5.275589 -5.275589z" fill-rule="evenodd"/><path fill="#000000" d="m167.26492 89.65912c0 -2.9136276 2.3619537 -5.275589 5.275589 -5.275589c1.3991699 0 2.741043 0.55581665 3.7304077 1.5451813c0.9893646 0.9893646 1.5451813 2.3312302 1.5451813 3.7304077c0 2.9136276 -2.361969 5.275589 -5.275589 5.275589c-2.9136353 0 -5.275589 -2.3619614 -5.275589 -5.275589z" fill-rule="evenodd"/><path stroke="#000000" stroke-width="1.0" stroke-linejoin="round" stroke-linecap="butt" d="m167.26492 89.65912c0 -2.9136276 2.3619537 -5.275589 5.275589 -5.275589c1.3991699 0 2.741043 0.55581665 3.7304077 1.5451813c0.9893646 0.9893646 1.5451813 2.3312302 1.5451813 3.7304077c0 2.9136276 -2.361969 5.275589 -5.275589 5.275589c-2.9136353 0 -5.275589 -2.3619614 -5.275589 -5.275589z" fill-rule="evenodd"/><path fill="#000000" d="m1239.7074 172.0082c0 -2.91362 2.3619385 -5.275589 5.275635 -5.275589c1.3991699 0 2.7409668 0.55581665 3.7303467 1.5451813c0.9893799 0.9893799 1.545166 2.3312378 1.545166 3.7304077c0 2.9136353 -2.3619385 5.275589 -5.2755127 5.275589c-2.9136963 0 -5.275635 -2.3619537 -5.275635 -5.275589z" fill-rule="evenodd"/><path stroke="#000000" stroke-width="1.0" stroke-linejoin="round" stroke-linecap="butt" d="m1239.7074 172.0082c0 -2.91362 2.3619385 -5.275589 5.275635 -5.275589c1.3991699 0 2.7409668 0.55581665 3.7303467 1.5451813c0.9893799 0.9893799 1.545166 2.3312378 1.545166 3.7304077c0 2.9136353 -2.3619385 5.275589 -5.2755127 5.275589c-2.9136963 0 -5.275635 -2.3619537 -5.275635 -5.275589z" fill-rule="evenodd"/><path fill="#000000" d="m551.3636 143.86647c0 -2.9136353 2.3619385 -5.275589 5.2755737 -5.275589c1.3991699 0 2.7410278 0.55581665 3.7304077 1.5451813c0.9893799 0.9893646 1.545166 2.3312378 1.545166 3.7304077c0 2.91362 -2.3619385 5.275589 -5.2755737 5.275589c-2.9136353 0 -5.2755737 -2.361969 -5.2755737 -5.275589z" fill-rule="evenodd"/><path stroke="#000000" stroke-width="1.0" stroke-linejoin="round" stroke-linecap="butt" d="m551.3636 143.86647c0 -2.9136353 2.3619385 -5.275589 5.2755737 -5.275589c1.3991699 0 2.7410278 0.55581665 3.7304077 1.5451813c0.9893799 0.9893646 1.545166 2.3312378 1.545166 3.7304077c0 2.91362 -2.3619385 5.275589 -5.2755737 5.275589c-2.9136353 0 -5.2755737 -2.361969 -5.2755737 -5.275589z" fill-rule="evenodd"/><path fill="#000000" d="m642.30493 105.69849c0 -2.9136276 2.3619385 -5.275589 5.2755737 -5.275589c1.3991699 0 2.7410278 0.55581665 3.7304077 1.5451813c0.9893799 0.98937225 1.545166 2.3312378 1.545166 3.7304077c0 2.9136276 -2.3619385 5.275589 -5.2755737 5.275589c-2.9136353 0 -5.2755737 -2.3619614 -5.2755737 -5.275589z" fill-rule="evenodd"/><path stroke="#000000" stroke-width="1.0" stroke-linejoin="round" stroke-linecap="butt" d="m642.30493 105.69849c0 -2.9136276 2.3619385 -5.275589 5.2755737 -5.275589c1.3991699 0 2.7410278 0.55581665 3.7304077 1.5451813c0.9893799 0.98937225 1.545166 2.3312378 1.545166 3.7304077c0 2.9136276 -2.3619385 5.275589 -5.2755737 5.275589c-2.9136353 0 -5.2755737 -2.3619614 -5.2755737 -5.275589z" fill-rule="evenodd"/><path fill="#000000" d="m683.0683 167.92499c0 -2.9136353 2.3619385 -5.275589 5.2755737 -5.275589c1.3991699 0 2.7410278 0.55581665 3.7304077 1.5451813c0.9893799 0.9893646 1.545166 2.3312225 1.545166 3.7304077c0 2.91362 -2.3619385 5.275589 -5.2755737 5.275589c-2.9136353 0 -5.2755737 -2.361969 -5.2755737 -5.275589z" fill-rule="evenodd"/><path stroke="#000000" stroke-width="1.0" stroke-linejoin="round" stroke-linecap="butt" d="m683.0683 167.92499c0 -2.9136353 2.3619385 -5.275589 5.2755737 -5.275589c1.3991699 0 2.7410278 0.55581665 3.7304077 1.5451813c0.9893799 0.9893646 1.545166 2.3312225 1.545166 3.7304077c0 2.91362 -2.3619385 5.275589 -5.2755737 5.275589c-2.9136353 0 -5.2755737 -2.361969 -5.2755737 -5.275589z" fill-rule="evenodd"/><path fill="#000000" d="m1298.5798 171.39091c0 -2.9136353 2.3620605 -5.275589 5.275635 -5.275589c1.3991699 0 2.7410889 0.55581665 3.7303467 1.5451813c0.9893799 0.9893646 1.5452881 2.3312378 1.5452881 3.7304077c0 2.9136353 -2.3620605 5.275589 -5.275635 5.275589c-2.9135742 0 -5.275635 -2.3619537 -5.275635 -5.275589z" fill-rule="evenodd"/><path stroke="#000000" stroke-width="1.0" stroke-linejoin="round" stroke-linecap="butt" d="m1298.5798 171.39091c0 -2.9136353 2.3620605 -5.275589 5.275635 -5.275589c1.3991699 0 2.7410889 0.55581665 3.7303467 1.5451813c0.9893799 0.9893646 1.5452881 2.3312378 1.5452881 3.7304077c0 2.9136353 -2.3620605 5.275589 -5.275635 5.275589c-2.9135742 0 -5.275635 -2.3619537 -5.275635 -5.275589z" fill-rule="evenodd"/><path fill="#000000" fill-opacity="0.0" d="m466.4511 37.742783l0 500.0" fill-rule="evenodd"/><path stroke="#000000" stroke-width="1.0" stroke-linejoin="round" stroke-linecap="butt" d="m466.4511 37.742783l0 500.0" fill-rule="evenodd"/><path fill="#000000" fill-opacity="0.0" d="m21.291 258.70865l1401.6063 0" fill-rule="evenodd"/><path stroke="#000000" stroke-width="1.0" stroke-linejoin="round" stroke-linecap="butt" d="m21.291 258.70865l1401.6063 0" fill-rule="evenodd"/><path fill="#000000" fill-opacity="0.0" d="m950.1939 37.742783l0 500.0" fill-rule="evenodd"/><path stroke="#000000" stroke-width="1.0" stroke-linejoin="round" stroke-linecap="butt" d="m950.1939 37.742783l0 500.0" fill-rule="evenodd"/><path fill="#000000" fill-opacity="0.0" d="m1090.4478 107.71916l89.165405 0" fill-rule="evenodd"/><path stroke="#000000" stroke-width="4.0" stroke-linejoin="round" stroke-linecap="butt" d="m1090.4478 107.71916l89.165405 0" fill-rule="evenodd"/><path fill="#000000" d="m1119.8499 108.90516c0 -2.9136276 2.3619385 -5.275589 5.275635 -5.275589c1.3991699 0 2.7409668 0.55581665 3.7303467 1.5451813c0.9893799 0.9893646 1.545166 2.3312302 1.545166 3.7304077c0 2.9136276 -2.3619385 5.275589 -5.2755127 5.275589c-2.9136963 0 -5.275635 -2.3619614 -5.275635 -5.275589z" fill-rule="evenodd"/><path stroke="#000000" stroke-width="1.0" stroke-linejoin="round" stroke-linecap="butt" d="m1119.8499 108.90516c0 -2.9136276 2.3619385 -5.275589 5.275635 -5.275589c1.3991699 0 2.7409668 0.55581665 3.7303467 1.5451813c0.9893799 0.9893646 1.545166 2.3312302 1.545166 3.7304077c0 2.9136276 -2.3619385 5.275589 -5.2755127 5.275589c-2.9136963 0 -5.275635 -2.3619614 -5.275635 -5.275589z" fill-rule="evenodd"/><path fill="#000000" d="m1162.6667 167.30693c0 -2.9136353 2.3619385 -5.275589 5.2755127 -5.275589c1.3991699 0 2.7410889 0.55581665 3.7304688 1.5451813c0.9893799 0.9893646 1.545166 2.3312225 1.545166 3.7304077c0 2.91362 -2.3619385 5.275589 -5.275635 5.275589c-2.9135742 0 -5.2755127 -2.361969 -5.2755127 -5.275589z" fill-rule="evenodd"/><path stroke="#000000" stroke-width="1.0" stroke-linejoin="round" stroke-linecap="butt" d="m1162.6667 167.30693c0 -2.9136353 2.3619385 -5.275589 5.2755127 -5.275589c1.3991699 0 2.7410889 0.55581665 3.7304688 1.5451813c0.9893799 0.9893646 1.545166 2.3312225 1.545166 3.7304077c0 2.91362 -2.3619385 5.275589 -5.275635 5.275589c-2.9135742 0 -5.2755127 -2.361969 -5.2755127 -5.275589z" fill-rule="evenodd"/><path fill="#efefef" d="m120.84632 444.0638c26.432198 29.817566 74.3482 62.239258 126.56167 60.93698c52.21347 -1.3022461 158.20343 -36.97986 186.71918 -68.75064c28.515747 -31.770782 14.453613 -118.48862 -15.624695 -121.87402c-30.078278 -3.385376 -121.87619 103.38452 -164.84514 101.561676c-42.968933 -1.822815 -65.494736 -97.52493 -92.96849 -112.49869c-27.473755 -14.973755 -65.233604 -0.7812805 -71.87402 22.656189c-6.640419 23.437439 5.599304 88.15091 32.0315 117.968506z" fill-rule="evenodd"/><path stroke="#000000" stroke-width="1.0" stroke-linejoin="round" stroke-linecap="butt" d="m120.84632 444.0638c26.432198 29.817566 74.3482 62.239258 126.56167 60.93698c52.21347 -1.3022461 158.20343 -36.97986 186.71918 -68.75064c28.515747 -31.770782 14.453613 -118.48862 -15.624695 -121.87402c-30.078278 -3.385376 -121.87619 103.38452 -164.84514 101.561676c-42.968933 -1.822815 -65.494736 -97.52493 -92.96849 -112.49869c-27.473755 -14.973755 -65.233604 -0.7812805 -71.87402 22.656189c-6.640419 23.437439 5.599304 88.15091 32.0315 117.968506z" fill-rule="evenodd"/><path fill="#000000" fill-opacity="0.0" d="m101.544876 347.02887c0 -14.507263 11.760452 -26.2677 26.267715 -26.2677c6.966629 0 13.647919 2.767456 18.574081 7.693634c4.9261475 4.9261475 7.693634 11.607422 7.693634 18.574066c0 14.507263 -11.760452 26.26773 -26.267715 26.26773c-14.507263 0 -26.267715 -11.760468 -26.267715 -26.26773z" fill-rule="evenodd"/><path stroke="#000000" stroke-width="3.0" stroke-linejoin="round" stroke-linecap="butt" d="m101.544876 347.02887c0 -14.507263 11.760452 -26.2677 26.267715 -26.2677c6.966629 0 13.647919 2.767456 18.574081 7.693634c4.9261475 4.9261475 7.693634 11.607422 7.693634 18.574066c0 14.507263 -11.760452 26.26773 -26.267715 26.26773c-14.507263 0 -26.267715 -11.760468 -26.267715 -26.26773z" fill-rule="evenodd"/><path fill="#000000" d="m130.99165 353.1345l-9.640625 0l-2.609375 7.234375l-3.0625 0l9.890625 -26.546875l1.421875 0l9.921875 26.546875l-3.234375 0l-2.6875 -7.234375zm-8.625 -2.6875l7.6875 0l-2.90625 -7.953125l-0.9375 -3.96875l-0.046875 0l-0.921875 4.03125l-2.875 7.890625z" fill-rule="nonzero"/><path fill="#000000" fill-opacity="0.0" d="m243.25223 347.02887c0 -14.507263 11.760452 -26.2677 26.2677 -26.2677c6.9666443 0 13.647949 2.767456 18.574097 7.693634c4.9261475 4.9261475 7.693634 11.607422 7.693634 18.574066c0 14.507263 -11.760468 26.26773 -26.26773 26.26773c-14.507248 0 -26.2677 -11.760468 -26.2677 -26.26773z" fill-rule="evenodd"/><path stroke="#000000" stroke-width="3.0" stroke-linejoin="round" stroke-linecap="butt" d="m243.25223 347.02887c0 -14.507263 11.760452 -26.2677 26.2677 -26.2677c6.9666443 0 13.647949 2.767456 18.574097 7.693634c4.9261475 4.9261475 7.693634 11.607422 7.693634 18.574066c0 14.507263 -11.760468 26.26773 -26.26773 26.26773c-14.507248 0 -26.2677 -11.760468 -26.2677 -26.26773z" fill-rule="evenodd"/><path fill="#000000" d="m276.03015 340.21262q0 0.9375 -0.296875 1.90625q-0.296875 0.96875 -0.890625 1.8125q-0.59375 0.828125 -1.53125 1.46875q-0.9375 0.640625 -2.203125 0.96875l0 0.15625q1.125 0.1875 2.140625 0.640625q1.03125 0.4375 1.8125 1.21875q0.78125 0.78125 1.265625 1.90625q0.484375 1.125 0.484375 2.65625q0 2.015625 -0.84375 3.484375q-0.828125 1.46875 -2.203125 2.40625q-1.359375 0.9375 -3.109375 1.390625q-1.75 0.4375 -3.578125 0.4375q-0.640625 0 -1.5 0q-0.859375 0 -1.796875 -0.0625q-0.921875 -0.046875 -1.859375 -0.140625q-0.9375 -0.09375 -1.640625 -0.28125l0 -25.71875q1.375 -0.21875 3.203125 -0.359375q1.84375 -0.15625 4.0 -0.15625q1.453125 0 2.96875 0.25q1.515625 0.234375 2.734375 0.921875q1.234375 0.6875 2.03125 1.921875q0.8125 1.234375 0.8125 3.171875zm-8.65625 17.765625q1.1875 0 2.3125 -0.28125q1.125 -0.28125 1.984375 -0.890625q0.859375 -0.625 1.359375 -1.515625q0.5 -0.890625 0.5 -2.125q0 -1.53125 -0.625 -2.453125q-0.609375 -0.9375 -1.59375 -1.453125q-0.984375 -0.53125 -2.21875 -0.71875q-1.234375 -0.1875 -2.46875 -0.1875l-3.25 0l0 9.359375q0.265625 0.078125 0.75 0.125q0.484375 0.03125 1.046875 0.078125q0.5625 0.03125 1.15625 0.046875q0.59375 0.015625 1.046875 0.015625zm-2.046875 -12.234375q0.625 0 1.515625 -0.03125q0.90625 -0.046875 1.5 -0.125q0.890625 -0.296875 1.671875 -0.71875q0.796875 -0.4375 1.40625 -1.015625q0.625 -0.578125 0.96875 -1.34375q0.359375 -0.765625 0.359375 -1.65625q0 -1.234375 -0.46875 -2.03125q-0.46875 -0.8125 -1.25 -1.296875q-0.78125 -0.484375 -1.796875 -0.6875q-1.0 -0.203125 -2.046875 -0.203125q-1.234375 0 -2.265625 0.0625q-1.015625 0.046875 -1.546875 0.15625l0 8.890625l1.953125 0z" fill-rule="nonzero"/><path fill="#000000" fill-opacity="0.0" d="m173.1761 450.3701c0 -14.507263 11.760468 -26.26773 26.267715 -26.26773c6.9666443 0 13.647934 2.7674866 18.574081 7.693634c4.9261627 4.9261475 7.693634 11.607452 7.693634 18.574097c0 14.507263 -11.760452 26.2677 -26.267715 26.2677c-14.507248 0 -26.267715 -11.760437 -26.267715 -26.2677z" fill-rule="evenodd"/><path stroke="#000000" stroke-width="3.0" stroke-linejoin="round" stroke-linecap="butt" d="m173.1761 450.3701c0 -14.507263 11.760468 -26.26773 26.267715 -26.26773c6.9666443 0 13.647934 2.7674866 18.574081 7.693634c4.9261627 4.9261475 7.693634 11.607452 7.693634 18.574097c0 14.507263 -11.760452 26.2677 -26.267715 26.2677c-14.507248 0 -26.267715 -11.760437 -26.267715 -26.2677z" fill-rule="evenodd"/><path fill="#000000" d="m191.09993 437.58508l14.21875 0l0 2.75l-11.125 0l0 8.5625l10.203125 0l0 2.75l-10.203125 0l0 9.296875l11.3125 0l0 2.765625l-14.40625 0l0 -26.125z" fill-rule="nonzero"/><path fill="#000000" fill-opacity="0.0" d="m146.38667 365.60297l34.48819 66.20471" fill-rule="evenodd"/><path stroke="#000000" stroke-width="2.0" stroke-linejoin="round" stroke-linecap="butt" d="m146.38667 365.60294l31.321533 60.125916" fill-rule="evenodd"/><path fill="#000000" stroke="#000000" stroke-width="2.0" stroke-linecap="butt" d="m177.7082 425.72885l-3.0338593 -0.95562744l4.849701 4.4413757l-0.8602295 -6.519623z" fill-rule="evenodd"/><path fill="#000000" fill-opacity="0.0" d="m250.94586 365.60297l-32.91339 66.20471" fill-rule="evenodd"/><path stroke="#000000" stroke-width="4.0" stroke-linejoin="round" stroke-linecap="butt" d="m250.94586 365.60297l-32.91339 66.20471" fill-rule="evenodd"/><path fill="#000000" fill-opacity="0.0" d="m309.07898 450.3701c0 -14.507263 11.760468 -26.26773 26.26773 -26.26773c6.9666443 0 13.647919 2.7674866 18.574066 7.693634c4.926178 4.9261475 7.6936646 11.607452 7.6936646 18.574097c0 14.507263 -11.760468 26.2677 -26.26773 26.2677c-14.507263 0 -26.26773 -11.760437 -26.26773 -26.2677z" fill-rule="evenodd"/><path stroke="#000000" stroke-width="3.0" stroke-linejoin="round" stroke-linecap="butt" d="m309.07898 450.3701c0 -14.507263 11.760468 -26.26773 26.26773 -26.26773c6.9666443 0 13.647919 2.7674866 18.574066 7.693634c4.926178 4.9261475 7.6936646 11.607452 7.6936646 18.574097c0 14.507263 -11.760468 26.2677 -26.26773 26.2677c-14.507263 0 -26.26773 -11.760437 -26.26773 -26.2677z" fill-rule="evenodd"/><path fill="#000000" d="m327.35742 437.58508l14.21875 0l0 2.75l-11.125 0l0 8.921875l10.375 0l0 2.765625l-10.375 0l0 11.6875l-3.09375 0l0 -26.125z" fill-rule="nonzero"/><path fill="#000000" fill-opacity="0.0" d="m384.95825 352.09448c0 -14.507263 11.760468 -26.2677 26.26773 -26.2677c6.966614 0 13.647919 2.7674866 18.574066 7.693634c4.9261475 4.9261475 7.693634 11.607452 7.693634 18.574066c0 14.507263 -11.760437 26.26773 -26.2677 26.26773c-14.507263 0 -26.26773 -11.760468 -26.26773 -26.26773z" fill-rule="evenodd"/><path stroke="#000000" stroke-width="3.0" stroke-linejoin="round" stroke-linecap="butt" d="m384.95825 352.09448c0 -14.507263 11.760468 -26.2677 26.26773 -26.2677c6.966614 0 13.647919 2.7674866 18.574066 7.693634c4.9261475 4.9261475 7.693634 11.607452 7.693634 18.574066c0 14.507263 -11.760437 26.26773 -26.2677 26.26773c-14.507263 0 -26.26773 -11.760468 -26.26773 -26.26773z" fill-rule="evenodd"/><path fill="#000000" d="m418.9476 364.35635q-1.109375 0.859375 -2.828125 1.1875q-1.71875 0.34375 -3.65625 0.34375q-2.359375 0 -4.421875 -0.796875q-2.046875 -0.8125 -3.578125 -2.453125q-1.53125 -1.640625 -2.421875 -4.203125q-0.890625 -2.5625 -0.890625 -6.0625q0 -3.65625 0.984375 -6.21875q0.984375 -2.5625 2.609375 -4.171875q1.625 -1.625 3.640625 -2.375q2.015625 -0.75 4.109375 -0.75q2.234375 0 3.65625 0.25q1.421875 0.234375 2.421875 0.640625l-0.734375 2.734375q-1.796875 -0.859375 -5.125 -0.859375q-1.53125 0 -3.03125 0.5625q-1.484375 0.546875 -2.65625 1.828125q-1.171875 1.265625 -1.890625 3.328125q-0.703125 2.046875 -0.703125 5.03125q0 2.6875 0.671875 4.703125q0.671875 2.015625 1.84375 3.359375q1.1875 1.34375 2.765625 2.015625q1.59375 0.671875 3.453125 0.671875q1.6875 0 2.9375 -0.328125q1.25 -0.34375 2.109375 -0.875l0.734375 2.4375z" fill-rule="nonzero"/><path fill="#000000" fill-opacity="0.0" d="m27.845398 450.3701c0 -14.507263 11.760456 -26.26773 26.267715 -26.26773c6.966633 0 13.647926 2.7674866 18.574081 7.693634c4.926155 4.9261475 7.693634 11.607452 7.693634 18.574097c0 14.507263 -11.760452 26.2677 -26.267715 26.2677c-14.507259 0 -26.267715 -11.760437 -26.267715 -26.2677z" fill-rule="evenodd"/><path stroke="#000000" stroke-width="3.0" stroke-linejoin="round" stroke-linecap="butt" d="m27.845398 450.3701c0 -14.507263 11.760456 -26.26773 26.267715 -26.26773c6.966633 0 13.647926 2.7674866 18.574081 7.693634c4.926155 4.9261475 7.693634 11.607452 7.693634 18.574097c0 14.507263 -11.760452 26.2677 -26.267715 26.2677c-14.507259 0 -26.267715 -11.760437 -26.267715 -26.2677z" fill-rule="evenodd"/><path fill="#000000" d="m44.68731 437.58508q0.703125 -0.109375 1.578125 -0.171875q0.890625 -0.0625 1.84375 -0.078125q0.953125 -0.015625 1.859375 -0.03125q0.921875 -0.015625 1.703125 -0.015625q3.125 0 5.421875 0.96875q2.296875 0.96875 3.78125 2.703125q1.5 1.734375 2.234375 4.171875q0.734375 2.421875 0.734375 5.328125q0 2.65625 -0.703125 5.09375q-0.6875 2.4375 -2.1875 4.328125q-1.484375 1.890625 -3.875 3.03125q-2.390625 1.140625 -5.78125 1.140625q-0.59375 0 -1.546875 -0.03125q-0.953125 -0.015625 -1.96875 -0.078125q-1.0 -0.046875 -1.859375 -0.09375q-0.859375 -0.03125 -1.234375 -0.109375l0 -26.15625zm7.0625 2.453125q-0.484375 0 -1.078125 0q-0.578125 0 -1.140625 0.046875q-0.546875 0.03125 -1.015625 0.078125q-0.46875 0.03125 -0.734375 0.0625l0 20.90625q0.1875 0.046875 0.703125 0.0625q0.53125 0.015625 1.09375 0.03125q0.5625 0.015625 1.078125 0.046875q0.53125 0.015625 0.71875 0.015625q2.609375 0 4.375 -0.890625q1.78125 -0.90625 2.84375 -2.40625q1.0625 -1.515625 1.5 -3.46875q0.453125 -1.96875 0.453125 -4.0625q0 -1.828125 -0.40625 -3.671875q-0.40625 -1.859375 -1.421875 -3.34375q-1.0 -1.5 -2.703125 -2.453125q-1.703125 -0.953125 -4.265625 -0.953125z" fill-rule="nonzero"/><path fill="#000000" fill-opacity="0.0" d="m109.23851 365.60297l-36.566933 66.20471" fill-rule="evenodd"/><path stroke="#000000" stroke-width="4.0" stroke-linejoin="round" stroke-linecap="butt" d="m109.23851 365.60297l-36.566933 66.20471" fill-rule="evenodd"/><path fill="#000000" fill-opacity="0.0" d="m225.71153 450.3701l83.37007 0" fill-rule="evenodd"/><path stroke="#000000" stroke-width="2.0" stroke-linejoin="round" stroke-linecap="butt" d="m225.71153 450.3701l76.515915 0" fill-rule="evenodd"/><path fill="#000000" stroke="#000000" stroke-width="2.0" stroke-linecap="butt" d="m302.22745 450.3701l-2.249176 2.2491455l6.179535 -2.2491455l-6.179535 -2.249176z" fill-rule="evenodd"/><path fill="#000000" fill-opacity="0.0" d="m288.09402 365.60297l28.692902 66.20471" fill-rule="evenodd"/><path stroke="#000000" stroke-width="4.0" stroke-linejoin="round" stroke-linecap="butt" d="m288.09402 365.60297l28.692902 66.20471" fill-rule="evenodd"/><path fill="#000000" fill-opacity="0.0" d="m353.92078 431.796l38.740173 -61.13385" fill-rule="evenodd"/><path stroke="#000000" stroke-width="2.0" stroke-linejoin="round" stroke-linecap="butt" d="m353.9208 431.79602l35.07132 -55.3443" fill-rule="evenodd"/><path fill="#000000" stroke="#000000" stroke-width="2.0" stroke-linecap="butt" d="m388.99213 376.45175l0.69592285 3.1037292l1.407898 -6.423645l-5.20755 4.0158386z" fill-rule="evenodd"/><path fill="#000000" d="m89.52476 392.75696c0 -2.9136353 2.3619614 -5.2756042 5.275589 -5.2756042c1.3991776 0 2.741043 0.55581665 3.7304077 1.5451965c0.9893646 0.98934937 1.5451813 2.3312073 1.5451813 3.7304077c0 2.9136047 -2.3619614 5.2755737 -5.275589 5.2755737c-2.9136276 0 -5.275589 -2.361969 -5.275589 -5.2755737z" fill-rule="evenodd"/><path stroke="#000000" stroke-width="1.0" stroke-linejoin="round" stroke-linecap="butt" d="m89.52476 392.75696c0 -2.9136353 2.3619614 -5.2756042 5.275589 -5.2756042c1.3991776 0 2.741043 0.55581665 3.7304077 1.5451965c0.9893646 0.98934937 1.5451813 2.3312073 1.5451813 3.7304077c0 2.9136047 -2.3619614 5.2755737 -5.275589 5.2755737c-2.9136276 0 -5.275589 -2.361969 -5.275589 -5.2755737z" fill-rule="evenodd"/><path fill="#000000" d="m295.009 396.68274c0 -2.9136353 2.361969 -5.2756042 5.2756042 -5.2756042c1.3991699 0 2.7410278 0.55584717 3.7304077 1.5451965c0.98934937 0.9893799 1.545166 2.3312378 1.545166 3.7304077c0 2.9136353 -2.361969 5.2756042 -5.2755737 5.2756042c-2.9136353 0 -5.2756042 -2.361969 -5.2756042 -5.2756042z" fill-rule="evenodd"/><path stroke="#000000" stroke-width="1.0" stroke-linejoin="round" stroke-linecap="butt" d="m295.009 396.68274c0 -2.9136353 2.361969 -5.2756042 5.2756042 -5.2756042c1.3991699 0 2.7410278 0.55584717 3.7304077 1.5451965c0.98934937 0.9893799 1.545166 2.3312378 1.545166 3.7304077c0 2.9136353 -2.361969 5.2756042 -5.2755737 5.2756042c-2.9136353 0 -5.2756042 -2.361969 -5.2756042 -5.2756042z" fill-rule="evenodd"/><path fill="#000000" fill-opacity="0.0" d="m154.0803 347.02887l89.16536 0" fill-rule="evenodd"/><path stroke="#000000" stroke-width="4.0" stroke-linejoin="round" stroke-linecap="butt" d="m154.0803 347.02887l89.16536 0" fill-rule="evenodd"/><path fill="#000000" d="m186.40926 348.21487c0 -2.9136353 2.3619537 -5.2756042 5.275589 -5.2756042c1.3991699 0 2.741043 0.55581665 3.7304077 1.5451965c0.9893646 0.98934937 1.5451813 2.3312378 1.5451813 3.7304077c0 2.9136353 -2.361969 5.2755737 -5.275589 5.2755737c-2.9136353 0 -5.275589 -2.3619385 -5.275589 -5.2755737z" fill-rule="evenodd"/><path stroke="#000000" stroke-width="1.0" stroke-linejoin="round" stroke-linecap="butt" d="m186.40926 348.21487c0 -2.9136353 2.3619537 -5.2756042 5.275589 -5.2756042c1.3991699 0 2.741043 0.55581665 3.7304077 1.5451965c0.9893646 0.98934937 1.5451813 2.3312378 1.5451813 3.7304077c0 2.9136353 -2.361969 5.2755737 -5.275589 5.2755737c-2.9136353 0 -5.275589 -2.3619385 -5.275589 -5.2755737z" fill-rule="evenodd"/><path fill="#000000" d="m226.29926 406.61664c0 -2.9136353 2.361969 -5.2756042 5.275589 -5.2756042c1.3991699 0 2.741043 0.55584717 3.7304077 1.5451965c0.9893646 0.9893799 1.5451813 2.3312378 1.5451813 3.7304077c0 2.9136353 -2.3619537 5.2756042 -5.275589 5.2756042c-2.91362 0 -5.275589 -2.361969 -5.275589 -5.2756042z" fill-rule="evenodd"/><path stroke="#000000" stroke-width="1.0" stroke-linejoin="round" stroke-linecap="butt" d="m226.29926 406.61664c0 -2.9136353 2.361969 -5.2756042 5.275589 -5.2756042c1.3991699 0 2.741043 0.55584717 3.7304077 1.5451965c0.9893646 0.9893799 1.5451813 2.3312378 1.5451813 3.7304077c0 2.9136353 -2.3619537 5.2756042 -5.275589 5.2756042c-2.91362 0 -5.275589 -2.361969 -5.275589 -5.2756042z" fill-rule="evenodd"/><path fill="#efefef" d="m582.021 455.15894c26.485107 28.194244 74.348206 62.23932 126.56171 60.93701c52.21344 -1.3022461 155.77863 -36.76071 186.71912 -68.75064c30.940552 -31.98996 26.165833 -98.499146 -1.0761108 -123.188995c-27.241882 -24.68985 -115.67584 -20.98993 -162.3753 -24.950134c-46.699463 -3.9601746 -87.458435 -6.7650757 -117.82153 1.1889954c-30.363098 7.954071 -59.022278 20.741455 -64.35693 46.53543c-5.334656 25.793945 5.8639526 80.03412 32.34906 108.22833z" fill-rule="evenodd"/><path stroke="#000000" stroke-width="1.0" stroke-linejoin="round" stroke-linecap="butt" d="m582.021 455.15894c26.485107 28.194244 74.348206 62.23932 126.56171 60.93701c52.21344 -1.3022461 155.77863 -36.76071 186.71912 -68.75064c30.940552 -31.98996 26.165833 -98.499146 -1.0761108 -123.188995c-27.241882 -24.68985 -115.67584 -20.98993 -162.3753 -24.950134c-46.699463 -3.9601746 -87.458435 -6.7650757 -117.82153 1.1889954c-30.363098 7.954071 -59.022278 20.741455 -64.35693 46.53543c-5.334656 25.793945 5.8639526 80.03412 32.34906 108.22833z" fill-rule="evenodd"/><path fill="#000000" fill-opacity="0.0" d="m562.7194 358.12598c0 -14.507263 11.760437 -26.2677 26.2677 -26.2677c6.966614 0 13.647949 2.7674866 18.574097 7.693634c4.9261475 4.9261475 7.6936035 11.607452 7.6936035 18.574066c0 14.507263 -11.760437 26.26773 -26.2677 26.26773c-14.507263 0 -26.2677 -11.760468 -26.2677 -26.26773z" fill-rule="evenodd"/><path stroke="#000000" stroke-width="3.0" stroke-linejoin="round" stroke-linecap="butt" d="m562.7194 358.12598c0 -14.507263 11.760437 -26.2677 26.2677 -26.2677c6.966614 0 13.647949 2.7674866 18.574097 7.693634c4.9261475 4.9261475 7.6936035 11.607452 7.6936035 18.574066c0 14.507263 -11.760437 26.26773 -26.2677 26.26773c-14.507263 0 -26.2677 -11.760468 -26.2677 -26.26773z" fill-rule="evenodd"/><path fill="#000000" d="m592.1662 364.2316l-9.640625 0l-2.609375 7.234375l-3.0625 0l9.890625 -26.546875l1.421875 0l9.921875 26.546875l-3.234375 0l-2.6875 -7.234375zm-8.625 -2.6875l7.6875 0l-2.90625 -7.953125l-0.9375 -3.96875l-0.046875 0l-0.921875 4.03125l-2.875 7.890625z" fill-rule="nonzero"/><path fill="#000000" fill-opacity="0.0" d="m704.42676 358.12598c0 -14.507263 11.760437 -26.2677 26.2677 -26.2677c6.966675 0 13.647949 2.7674866 18.574097 7.693634c4.9261475 4.9261475 7.6936646 11.607452 7.6936646 18.574066c0 14.507263 -11.760498 26.26773 -26.267761 26.26773c-14.507263 0 -26.2677 -11.760468 -26.2677 -26.26773z" fill-rule="evenodd"/><path stroke="#000000" stroke-width="3.0" stroke-linejoin="round" stroke-linecap="butt" d="m704.42676 358.12598c0 -14.507263 11.760437 -26.2677 26.2677 -26.2677c6.966675 0 13.647949 2.7674866 18.574097 7.693634c4.9261475 4.9261475 7.6936646 11.607452 7.6936646 18.574066c0 14.507263 -11.760498 26.26773 -26.267761 26.26773c-14.507263 0 -26.2677 -11.760468 -26.2677 -26.26773z" fill-rule="evenodd"/><path fill="#000000" d="m737.2047 351.30972q0 0.9375 -0.296875 1.90625q-0.296875 0.96875 -0.890625 1.8125q-0.59375 0.828125 -1.53125 1.46875q-0.9375 0.640625 -2.203125 0.96875l0 0.15625q1.125 0.1875 2.140625 0.640625q1.03125 0.4375 1.8125 1.21875q0.78125 0.78125 1.265625 1.90625q0.484375 1.125 0.484375 2.65625q0 2.015625 -0.84375 3.484375q-0.828125 1.46875 -2.203125 2.40625q-1.359375 0.9375 -3.109375 1.390625q-1.75 0.4375 -3.578125 0.4375q-0.640625 0 -1.5 0q-0.859375 0 -1.796875 -0.0625q-0.921875 -0.046875 -1.859375 -0.140625q-0.9375 -0.09375 -1.640625 -0.28125l0 -25.71875q1.375 -0.21875 3.203125 -0.359375q1.84375 -0.15625 4.0 -0.15625q1.453125 0 2.96875 0.25q1.515625 0.234375 2.734375 0.921875q1.234375 0.6875 2.03125 1.921875q0.8125 1.234375 0.8125 3.171875zm-8.65625 17.765625q1.1875 0 2.3125 -0.28125q1.125 -0.28125 1.984375 -0.890625q0.859375 -0.625 1.359375 -1.515625q0.5 -0.890625 0.5 -2.125q0 -1.53125 -0.625 -2.453125q-0.609375 -0.9375 -1.59375 -1.453125q-0.984375 -0.53125 -2.21875 -0.71875q-1.234375 -0.1875 -2.46875 -0.1875l-3.25 0l0 9.359375q0.265625 0.078125 0.75 0.125q0.484375 0.03125 1.046875 0.078125q0.5625 0.03125 1.15625 0.046875q0.59375 0.015625 1.046875 0.015625zm-2.046875 -12.234375q0.625 0 1.515625 -0.03125q0.90625 -0.046875 1.5 -0.125q0.890625 -0.296875 1.671875 -0.71875q0.796875 -0.4375 1.40625 -1.015625q0.625 -0.578125 0.96875 -1.34375q0.359375 -0.765625 0.359375 -1.65625q0 -1.234375 -0.46875 -2.03125q-0.46875 -0.8125 -1.25 -1.296875q-0.78125 -0.484375 -1.796875 -0.6875q-1.0 -0.203125 -2.046875 -0.203125q-1.234375 0 -2.265625 0.0625q-1.015625 0.046875 -1.546875 0.15625l0 8.890625l1.953125 0z" fill-rule="nonzero"/><path fill="#000000" fill-opacity="0.0" d="m634.35065 461.4672c0 -14.507263 11.760437 -26.26773 26.2677 -26.26773c6.966675 0 13.647949 2.7674866 18.574097 7.693634c4.9261475 4.926178 7.6936646 11.607452 7.6936646 18.574097c0 14.507263 -11.760498 26.2677 -26.267761 26.2677c-14.507263 0 -26.2677 -11.760437 -26.2677 -26.2677z" fill-rule="evenodd"/><path stroke="#000000" stroke-width="3.0" stroke-linejoin="round" stroke-linecap="butt" d="m634.35065 461.4672c0 -14.507263 11.760437 -26.26773 26.2677 -26.26773c6.966675 0 13.647949 2.7674866 18.574097 7.693634c4.9261475 4.926178 7.6936646 11.607452 7.6936646 18.574097c0 14.507263 -11.760498 26.2677 -26.267761 26.2677c-14.507263 0 -26.2677 -11.760437 -26.2677 -26.2677z" fill-rule="evenodd"/><path fill="#000000" d="m652.2745 448.6822l14.21875 0l0 2.75l-11.125 0l0 8.5625l10.203125 0l0 2.75l-10.203125 0l0 9.296875l11.3125 0l0 2.765625l-14.40625 0l0 -26.125z" fill-rule="nonzero"/><path fill="#000000" fill-opacity="0.0" d="m607.5612 376.70007l34.48816 66.20471" fill-rule="evenodd"/><path stroke="#000000" stroke-width="2.0" stroke-linejoin="round" stroke-linecap="butt" d="m607.5612 376.70004l31.321533 60.125916" fill-rule="evenodd"/><path fill="#000000" stroke="#000000" stroke-width="2.0" stroke-linecap="butt" d="m638.88275 436.82596l-3.0338745 -0.95562744l4.8497314 4.4413757l-0.8602295 -6.519623z" fill-rule="evenodd"/><path fill="#000000" fill-opacity="0.0" d="m712.1204 376.70007l-32.91339 66.20471" fill-rule="evenodd"/><path stroke="#000000" stroke-width="2.0" stroke-linejoin="round" stroke-linecap="butt" stroke-dasharray="8.0,6.0" d="m712.1204 376.70007l-32.91339 66.20471" fill-rule="evenodd"/><path fill="#000000" fill-opacity="0.0" d="m770.25354 461.4672c0 -14.507263 11.760437 -26.26773 26.2677 -26.26773c6.966614 0 13.647949 2.7674866 18.574097 7.693634c4.9261475 4.926178 7.6936035 11.607452 7.6936035 18.574097c0 14.507263 -11.760437 26.2677 -26.2677 26.2677c-14.507263 0 -26.2677 -11.760437 -26.2677 -26.2677z" fill-rule="evenodd"/><path stroke="#000000" stroke-width="3.0" stroke-linejoin="round" stroke-linecap="butt" d="m770.25354 461.4672c0 -14.507263 11.760437 -26.26773 26.2677 -26.26773c6.966614 0 13.647949 2.7674866 18.574097 7.693634c4.9261475 4.926178 7.6936035 11.607452 7.6936035 18.574097c0 14.507263 -11.760437 26.2677 -26.2677 26.2677c-14.507263 0 -26.2677 -11.760437 -26.2677 -26.2677z" fill-rule="evenodd"/><path fill="#000000" d="m788.532 448.6822l14.21875 0l0 2.75l-11.125 0l0 8.921875l10.375 0l0 2.765625l-10.375 0l0 11.6875l-3.09375 0l0 -26.125z" fill-rule="nonzero"/><path fill="#000000" fill-opacity="0.0" d="m846.1328 363.1916c0 -14.507233 11.760437 -26.2677 26.2677 -26.2677c6.966614 0 13.647949 2.7674866 18.574097 7.693634c4.9261475 4.9261475 7.6936035 11.607452 7.6936035 18.574066c0 14.507263 -11.760437 26.26773 -26.2677 26.26773c-14.507263 0 -26.2677 -11.760468 -26.2677 -26.26773z" fill-rule="evenodd"/><path stroke="#000000" stroke-width="3.0" stroke-linejoin="round" stroke-linecap="butt" d="m846.1328 363.1916c0 -14.507233 11.760437 -26.2677 26.2677 -26.2677c6.966614 0 13.647949 2.7674866 18.574097 7.693634c4.9261475 4.9261475 7.6936035 11.607452 7.6936035 18.574066c0 14.507263 -11.760437 26.26773 -26.2677 26.26773c-14.507263 0 -26.2677 -11.760468 -26.2677 -26.26773z" fill-rule="evenodd"/><path fill="#000000" d="m880.12213 375.45346q-1.109375 0.859375 -2.828125 1.1875q-1.71875 0.34375 -3.65625 0.34375q-2.359375 0 -4.421875 -0.796875q-2.046875 -0.8125 -3.578125 -2.453125q-1.53125 -1.640625 -2.421875 -4.203125q-0.890625 -2.5625 -0.890625 -6.0625q0 -3.65625 0.984375 -6.21875q0.984375 -2.5625 2.609375 -4.171875q1.625 -1.625 3.640625 -2.375q2.015625 -0.75 4.109375 -0.75q2.234375 0 3.65625 0.25q1.421875 0.234375 2.421875 0.640625l-0.734375 2.734375q-1.796875 -0.859375 -5.125 -0.859375q-1.53125 0 -3.03125 0.5625q-1.484375 0.546875 -2.65625 1.828125q-1.171875 1.265625 -1.890625 3.328125q-0.703125 2.046875 -0.703125 5.03125q0 2.6875 0.671875 4.703125q0.671875 2.015625 1.84375 3.359375q1.1875 1.34375 2.765625 2.015625q1.59375 0.671875 3.453125 0.671875q1.6875 0 2.9375 -0.328125q1.25 -0.34375 2.109375 -0.875l0.734375 2.4375z" fill-rule="nonzero"/><path fill="#000000" fill-opacity="0.0" d="m489.01993 461.4672c0 -14.507263 11.760468 -26.26773 26.26773 -26.26773c6.966614 0 13.647949 2.7674866 18.574097 7.693634c4.9261475 4.926178 7.6936035 11.607452 7.6936035 18.574097c0 14.507263 -11.760437 26.2677 -26.2677 26.2677c-14.507263 0 -26.26773 -11.760437 -26.26773 -26.2677z" fill-rule="evenodd"/><path stroke="#000000" stroke-width="3.0" stroke-linejoin="round" stroke-linecap="butt" d="m489.01993 461.4672c0 -14.507263 11.760468 -26.26773 26.26773 -26.26773c6.966614 0 13.647949 2.7674866 18.574097 7.693634c4.9261475 4.926178 7.6936035 11.607452 7.6936035 18.574097c0 14.507263 -11.760437 26.2677 -26.2677 26.2677c-14.507263 0 -26.26773 -11.760437 -26.26773 -26.2677z" fill-rule="evenodd"/><path fill="#000000" d="m505.86185 448.6822q0.703125 -0.109375 1.578125 -0.171875q0.890625 -0.0625 1.84375 -0.078125q0.953125 -0.015625 1.859375 -0.03125q0.9219055 -0.015625 1.7031555 -0.015625q3.125 0 5.421875 0.96875q2.296875 0.96875 3.78125 2.703125q1.5 1.734375 2.234375 4.171875q0.734375 2.421875 0.734375 5.328125q0 2.65625 -0.703125 5.09375q-0.6875 2.4375 -2.1875 4.328125q-1.484375 1.890625 -3.875 3.03125q-2.390625 1.140625 -5.78125 1.140625q-0.5937805 0 -1.5469055 -0.03125q-0.953125 -0.015625 -1.96875 -0.078125q-1.0 -0.046875 -1.859375 -0.09375q-0.859375 -0.03125 -1.234375 -0.109375l0 -26.15625zm7.0625305 2.453125q-0.484375 0 -1.0781555 0q-0.578125 0 -1.140625 0.046875q-0.546875 0.03125 -1.015625 0.078125q-0.46875 0.03125 -0.734375 0.0625l0 20.90625q0.1875 0.046875 0.703125 0.0625q0.53125 0.015625 1.09375 0.03125q0.5625 0.015625 1.078125 0.046875q0.5312805 0.015625 0.7187805 0.015625q2.609375 0 4.375 -0.890625q1.78125 -0.90625 2.84375 -2.40625q1.0625 -1.515625 1.5 -3.46875q0.453125 -1.96875 0.453125 -4.0625q0 -1.828125 -0.40625 -3.671875q-0.40625 -1.859375 -1.421875 -3.34375q-1.0 -1.5 -2.703125 -2.453125q-1.703125 -0.953125 -4.265625 -0.953125z" fill-rule="nonzero"/><path fill="#000000" fill-opacity="0.0" d="m570.413 376.70007l-36.566895 66.20471" fill-rule="evenodd"/><path stroke="#000000" stroke-width="4.0" stroke-linejoin="round" stroke-linecap="butt" d="m570.413 376.70007l-36.566895 66.20471" fill-rule="evenodd"/><path fill="#000000" fill-opacity="0.0" d="m686.8861 461.4672l83.370056 0" fill-rule="evenodd"/><path stroke="#000000" stroke-width="2.0" stroke-linejoin="round" stroke-linecap="butt" d="m686.88605 461.4672l76.51593 0" fill-rule="evenodd"/><path fill="#000000" stroke="#000000" stroke-width="2.0" stroke-linecap="butt" d="m763.402 461.4672l-2.2491455 2.249176l6.1795044 -2.249176l-6.1795044 -2.249176z" fill-rule="evenodd"/><path fill="#000000" fill-opacity="0.0" d="m777.94714 442.8931l-28.692871 -66.20471" fill-rule="evenodd"/><path stroke="#000000" stroke-width="2.0" stroke-linejoin="round" stroke-linecap="butt" d="m777.9472 442.89313l-25.967285 -59.91577" fill-rule="evenodd"/><path fill="#000000" stroke="#000000" stroke-width="2.0" stroke-linecap="butt" d="m751.97986 382.97736l2.9580688 1.169281l-4.520996 -4.775543l0.39367676 6.564331z" fill-rule="evenodd"/><path fill="#000000" fill-opacity="0.0" d="m815.09534 442.8931l38.740173 -61.13385" fill-rule="evenodd"/><path stroke="#000000" stroke-width="2.0" stroke-linejoin="round" stroke-linecap="butt" d="m815.09534 442.89313l35.07135 -55.34427" fill-rule="evenodd"/><path fill="#000000" stroke="#000000" stroke-width="2.0" stroke-linecap="butt" d="m850.1666 387.54886l0.69592285 3.1037292l1.407898 -6.423645l-5.2075806 4.0158386z" fill-rule="evenodd"/><path fill="#000000" d="m548.73065 407.77954c0 -2.9136353 2.3619385 -5.2756042 5.2755737 -5.2756042c1.3991699 0 2.7410278 0.55581665 3.7304077 1.5451965c0.9893799 0.98934937 1.545166 2.3312073 1.545166 3.7304077c0 2.9136047 -2.3619385 5.2755737 -5.2755737 5.2755737c-2.9136353 0 -5.2755737 -2.361969 -5.2755737 -5.2755737z" fill-rule="evenodd"/><path stroke="#000000" stroke-width="1.0" stroke-linejoin="round" stroke-linecap="butt" d="m548.73065 407.77954c0 -2.9136353 2.3619385 -5.2756042 5.2755737 -5.2756042c1.3991699 0 2.7410278 0.55581665 3.7304077 1.5451965c0.9893799 0.98934937 1.545166 2.3312073 1.545166 3.7304077c0 2.9136047 -2.3619385 5.2755737 -5.2755737 5.2755737c-2.9136353 0 -5.2755737 -2.361969 -5.2755737 -5.2755737z" fill-rule="evenodd"/><path fill="#000000" fill-opacity="0.0" d="m615.2548 358.12598l89.165405 0" fill-rule="evenodd"/><path stroke="#000000" stroke-width="2.0" stroke-linejoin="round" stroke-linecap="butt" stroke-dasharray="8.0,6.0" d="m615.2548 358.12598l89.165405 0" fill-rule="evenodd"/><path fill="#efefef" d="m964.09766 502.99924c29.136963 29.023163 154.14697 31.574371 222.32019 24.13913c68.17322 -7.4353027 155.77869 -36.760742 186.71924 -68.75067c30.94043 -31.98996 26.165771 -98.499146 -1.0761719 -123.188995c-27.241943 -24.68985 -115.6759 -20.98993 -162.37537 -24.950134c-46.699463 -3.9601746 -84.80664 -5.9361267 -117.82153 1.1889954c-33.01477 7.1250916 -58.973267 9.634735 -80.26764 41.561676c-21.294434 31.92694 -76.63562 120.97681 -47.49872 150.0z" fill-rule="evenodd"/><path stroke="#000000" stroke-width="1.0" stroke-linejoin="round" stroke-linecap="butt" d="m964.09766 502.99924c29.136963 29.023163 154.14697 31.574371 222.32019 24.13913c68.17322 -7.4353027 155.77869 -36.760742 186.71924 -68.75067c30.94043 -31.98996 26.165771 -98.499146 -1.0761719 -123.188995c-27.241943 -24.68985 -115.6759 -20.98993 -162.37537 -24.950134c-46.699463 -3.9601746 -84.80664 -5.9361267 -117.82153 1.1889954c-33.01477 7.1250916 -58.973267 9.634735 -80.26764 41.561676c-21.294434 31.92694 -76.63562 120.97681 -47.49872 150.0z" fill-rule="evenodd"/><path fill="#000000" fill-opacity="0.0" d="m1040.5541 369.16797c0 -14.507263 11.760498 -26.2677 26.2677 -26.2677c6.966675 0 13.647949 2.7674866 18.574097 7.693634c4.9261475 4.9261475 7.6936035 11.607452 7.6936035 18.574066c0 14.507263 -11.760498 26.26773 -26.2677 26.26773c-14.507202 0 -26.2677 -11.760468 -26.2677 -26.26773z" fill-rule="evenodd"/><path stroke="#000000" stroke-width="3.0" stroke-linejoin="round" stroke-linecap="butt" d="m1040.5541 369.16797c0 -14.507263 11.760498 -26.2677 26.2677 -26.2677c6.966675 0 13.647949 2.7674866 18.574097 7.693634c4.9261475 4.9261475 7.6936035 11.607452 7.6936035 18.574066c0 14.507263 -11.760498 26.26773 -26.2677 26.26773c-14.507202 0 -26.2677 -11.760468 -26.2677 -26.26773z" fill-rule="evenodd"/><path fill="#000000" d="m1070.0009 375.2736l-9.640625 0l-2.609375 7.234375l-3.0625 0l9.890625 -26.546875l1.421875 0l9.921875 26.546875l-3.234375 0l-2.6875 -7.234375zm-8.625 -2.6875l7.6875 0l-2.90625 -7.953125l-0.9375 -3.96875l-0.046875 0l-0.921875 4.03125l-2.875 7.890625z" fill-rule="nonzero"/><path fill="#000000" fill-opacity="0.0" d="m1182.2614 369.16797c0 -14.507263 11.760498 -26.2677 26.267822 -26.2677c6.9665527 0 13.647827 2.7674866 18.573975 7.693634c4.9261475 4.9261475 7.6937256 11.607452 7.6937256 18.574066c0 14.507263 -11.760498 26.26773 -26.2677 26.26773c-14.507324 0 -26.267822 -11.760468 -26.267822 -26.26773z" fill-rule="evenodd"/><path stroke="#000000" stroke-width="3.0" stroke-linejoin="round" stroke-linecap="butt" d="m1182.2614 369.16797c0 -14.507263 11.760498 -26.2677 26.267822 -26.2677c6.9665527 0 13.647827 2.7674866 18.573975 7.693634c4.9261475 4.9261475 7.6937256 11.607452 7.6937256 18.574066c0 14.507263 -11.760498 26.26773 -26.2677 26.26773c-14.507324 0 -26.267822 -11.760468 -26.267822 -26.26773z" fill-rule="evenodd"/><path fill="#000000" d="m1215.0393 362.3517q0 0.9375 -0.296875 1.90625q-0.296875 0.96875 -0.890625 1.8125q-0.59375 0.828125 -1.53125 1.46875q-0.9375 0.640625 -2.203125 0.96875l0 0.15625q1.125 0.1875 2.140625 0.640625q1.03125 0.4375 1.8125 1.21875q0.78125 0.78125 1.265625 1.90625q0.484375 1.125 0.484375 2.65625q0 2.015625 -0.84375 3.484375q-0.828125 1.46875 -2.203125 2.40625q-1.359375 0.9375 -3.109375 1.390625q-1.75 0.4375 -3.578125 0.4375q-0.640625 0 -1.5 0q-0.859375 0 -1.796875 -0.0625q-0.921875 -0.046875 -1.859375 -0.140625q-0.9375 -0.09375 -1.640625 -0.28125l0 -25.71875q1.375 -0.21875 3.203125 -0.359375q1.84375 -0.15625 4.0 -0.15625q1.453125 0 2.96875 0.25q1.515625 0.234375 2.734375 0.921875q1.234375 0.6875 2.03125 1.921875q0.8125 1.234375 0.8125 3.171875zm-8.65625 17.765625q1.1875 0 2.3125 -0.28125q1.125 -0.28125 1.984375 -0.890625q0.859375 -0.625 1.359375 -1.515625q0.5 -0.890625 0.5 -2.125q0 -1.53125 -0.625 -2.453125q-0.609375 -0.9375 -1.59375 -1.453125q-0.984375 -0.53125 -2.21875 -0.71875q-1.234375 -0.1875 -2.46875 -0.1875l-3.25 0l0 9.359375q0.265625 0.078125 0.75 0.125q0.484375 0.03125 1.046875 0.078125q0.5625 0.03125 1.15625 0.046875q0.59375 0.015625 1.046875 0.015625zm-2.046875 -12.234375q0.625 0 1.515625 -0.03125q0.90625 -0.046875 1.5 -0.125q0.890625 -0.296875 1.671875 -0.71875q0.796875 -0.4375 1.40625 -1.015625q0.625 -0.578125 0.96875 -1.34375q0.359375 -0.765625 0.359375 -1.65625q0 -1.234375 -0.46875 -2.03125q-0.46875 -0.8125 -1.25 -1.296875q-0.78125 -0.484375 -1.796875 -0.6875q-1.0 -0.203125 -2.046875 -0.203125q-1.234375 0 -2.265625 0.0625q-1.015625 0.046875 -1.546875 0.15625l0 8.890625l1.953125 0z" fill-rule="nonzero"/><path fill="#000000" fill-opacity="0.0" d="m1112.1853 472.5092c0 -14.507263 11.760498 -26.26773 26.2677 -26.26773c6.966675 0 13.647949 2.7674866 18.574097 7.6936646c4.9261475 4.9261475 7.6936035 11.607422 7.6936035 18.574066c0 14.507263 -11.760376 26.26773 -26.2677 26.26773c-14.507202 0 -26.2677 -11.760468 -26.2677 -26.26773z" fill-rule="evenodd"/><path stroke="#000000" stroke-width="3.0" stroke-linejoin="round" stroke-linecap="butt" d="m1112.1853 472.5092c0 -14.507263 11.760498 -26.26773 26.2677 -26.26773c6.966675 0 13.647949 2.7674866 18.574097 7.6936646c4.9261475 4.9261475 7.6936035 11.607422 7.6936035 18.574066c0 14.507263 -11.760376 26.26773 -26.2677 26.26773c-14.507202 0 -26.2677 -11.760468 -26.2677 -26.26773z" fill-rule="evenodd"/><path fill="#000000" d="m1130.1091 459.72418l14.21875 0l0 2.75l-11.125 0l0 8.5625l10.203125 0l0 2.75l-10.203125 0l0 9.296875l11.3125 0l0 2.765625l-14.40625 0l0 -26.125z" fill-rule="nonzero"/><path fill="#000000" fill-opacity="0.0" d="m1085.3959 387.74207l34.48816 66.20471" fill-rule="evenodd"/><path stroke="#000000" stroke-width="2.0" stroke-linejoin="round" stroke-linecap="butt" d="m1085.3959 387.74203l31.321533 60.125916" fill-rule="evenodd"/><path fill="#000000" stroke="#000000" stroke-width="2.0" stroke-linecap="butt" d="m1116.7174 447.86795l-3.0339355 -0.9555969l4.8497314 4.441345l-0.8602295 -6.5195923z" fill-rule="evenodd"/><path fill="#000000" fill-opacity="0.0" d="m1189.9551 387.74207l-32.913452 66.20471" fill-rule="evenodd"/><path stroke="#000000" stroke-width="2.0" stroke-linejoin="round" stroke-linecap="butt" stroke-dasharray="8.0,6.0" d="m1189.9551 387.74207l-32.913452 66.20471" fill-rule="evenodd"/><path fill="#000000" fill-opacity="0.0" d="m1248.0881 472.5092c0 -14.507263 11.760498 -26.26773 26.267822 -26.26773c6.9665527 0 13.647827 2.7674866 18.573975 7.6936646c4.9261475 4.9261475 7.6937256 11.607422 7.6937256 18.574066c0 14.507263 -11.760498 26.26773 -26.2677 26.26773c-14.507324 0 -26.267822 -11.760468 -26.267822 -26.26773z" fill-rule="evenodd"/><path stroke="#000000" stroke-width="3.0" stroke-linejoin="round" stroke-linecap="butt" d="m1248.0881 472.5092c0 -14.507263 11.760498 -26.26773 26.267822 -26.26773c6.9665527 0 13.647827 2.7674866 18.573975 7.6936646c4.9261475 4.9261475 7.6937256 11.607422 7.6937256 18.574066c0 14.507263 -11.760498 26.26773 -26.2677 26.26773c-14.507324 0 -26.267822 -11.760468 -26.267822 -26.26773z" fill-rule="evenodd"/><path fill="#000000" d="m1266.3666 459.72418l14.21875 0l0 2.75l-11.125 0l0 8.921875l10.375 0l0 2.765625l-10.375 0l0 11.6875l-3.09375 0l0 -26.125z" fill-rule="nonzero"/><path fill="#000000" fill-opacity="0.0" d="m1323.9674 374.23358c0 -14.507233 11.760498 -26.2677 26.2677 -26.2677c6.966675 0 13.647949 2.7674866 18.574097 7.693634c4.9261475 4.9261475 7.6937256 11.607452 7.6937256 18.574066c0 14.507263 -11.760498 26.26773 -26.267822 26.26773c-14.507202 0 -26.2677 -11.760468 -26.2677 -26.26773z" fill-rule="evenodd"/><path stroke="#000000" stroke-width="3.0" stroke-linejoin="round" stroke-linecap="butt" d="m1323.9674 374.23358c0 -14.507233 11.760498 -26.2677 26.2677 -26.2677c6.966675 0 13.647949 2.7674866 18.574097 7.693634c4.9261475 4.9261475 7.6937256 11.607452 7.6937256 18.574066c0 14.507263 -11.760498 26.26773 -26.267822 26.26773c-14.507202 0 -26.2677 -11.760468 -26.2677 -26.26773z" fill-rule="evenodd"/><path fill="#000000" d="m1357.9568 386.49545q-1.109375 0.859375 -2.828125 1.1875q-1.71875 0.34375 -3.65625 0.34375q-2.359375 0 -4.421875 -0.796875q-2.046875 -0.8125 -3.578125 -2.453125q-1.53125 -1.640625 -2.421875 -4.203125q-0.890625 -2.5625 -0.890625 -6.0625q0 -3.65625 0.984375 -6.21875q0.984375 -2.5625 2.609375 -4.171875q1.625 -1.625 3.640625 -2.375q2.015625 -0.75 4.109375 -0.75q2.234375 0 3.65625 0.25q1.421875 0.234375 2.421875 0.640625l-0.734375 2.734375q-1.796875 -0.859375 -5.125 -0.859375q-1.53125 0 -3.03125 0.5625q-1.484375 0.546875 -2.65625 1.828125q-1.171875 1.265625 -1.890625 3.328125q-0.703125 2.046875 -0.703125 5.03125q0 2.6875 0.671875 4.703125q0.671875 2.015625 1.84375 3.359375q1.1875 1.34375 2.765625 2.015625q1.59375 0.671875 3.453125 0.671875q1.6875 0 2.9375 -0.328125q1.25 -0.34375 2.109375 -0.875l0.734375 2.4375z" fill-rule="nonzero"/><path fill="#000000" fill-opacity="0.0" d="m974.7483 461.4672c0 -14.507263 11.760437 -26.26773 26.2677 -26.26773c6.966614 0 13.647949 2.7674866 18.574097 7.693634c4.9261475 4.926178 7.6936035 11.607452 7.6936035 18.574097c0 14.507263 -11.760437 26.2677 -26.2677 26.2677c-14.507263 0 -26.2677 -11.760437 -26.2677 -26.2677z" fill-rule="evenodd"/><path stroke="#000000" stroke-width="3.0" stroke-linejoin="round" stroke-linecap="butt" d="m974.7483 461.4672c0 -14.507263 11.760437 -26.26773 26.2677 -26.26773c6.966614 0 13.647949 2.7674866 18.574097 7.693634c4.9261475 4.926178 7.6936035 11.607452 7.6936035 18.574097c0 14.507263 -11.760437 26.2677 -26.2677 26.2677c-14.507263 0 -26.2677 -11.760437 -26.2677 -26.2677z" fill-rule="evenodd"/><path fill="#000000" d="m991.5902 448.6822q0.703125 -0.109375 1.578125 -0.171875q0.890625 -0.0625 1.84375 -0.078125q0.953125 -0.015625 1.859375 -0.03125q0.921875 -0.015625 1.703125 -0.015625q3.125 0 5.421875 0.96875q2.296875 0.96875 3.78125 2.703125q1.5 1.734375 2.234375 4.171875q0.734375 2.421875 0.734375 5.328125q0 2.65625 -0.703125 5.09375q-0.6875 2.4375 -2.1875 4.328125q-1.484375 1.890625 -3.875 3.03125q-2.390625 1.140625 -5.78125 1.140625q-0.59375 0 -1.546875 -0.03125q-0.953125 -0.015625 -1.96875 -0.078125q-1.0 -0.046875 -1.859375 -0.09375q-0.859375 -0.03125 -1.234375 -0.109375l0 -26.15625zm7.0625 2.453125q-0.484375 0 -1.078125 0q-0.578125 0 -1.140625 0.046875q-0.546875 0.03125 -1.015625 0.078125q-0.46875 0.03125 -0.734375 0.0625l0 20.90625q0.1875 0.046875 0.703125 0.0625q0.53125 0.015625 1.09375 0.03125q0.5625 0.015625 1.078125 0.046875q0.53125 0.015625 0.71875 0.015625q2.609375 0 4.375 -0.890625q1.78125 -0.90625 2.84375 -2.40625q1.0625 -1.515625 1.5 -3.46875q0.453125 -1.96875 0.453125 -4.0625q0 -1.828125 -0.40625 -3.671875q-0.40625 -1.859375 -1.421875 -3.34375q-1.0 -1.5 -2.703125 -2.453125q-1.703125 -0.953125 -4.265625 -0.953125z" fill-rule="nonzero"/><path fill="#000000" fill-opacity="0.0" d="m1164.7207 472.5092l83.37012 0" fill-rule="evenodd"/><path stroke="#000000" stroke-width="2.0" stroke-linejoin="round" stroke-linecap="butt" d="m1164.7207 472.5092l76.51587 0" fill-rule="evenodd"/><path fill="#000000" stroke="#000000" stroke-width="2.0" stroke-linecap="butt" d="m1241.2366 472.5092l-2.2491455 2.249176l6.1795654 -2.249176l-6.1795654 -2.249176z" fill-rule="evenodd"/><path fill="#000000" fill-opacity="0.0" d="m1255.7819 453.93512l-28.692993 -66.20474" fill-rule="evenodd"/><path stroke="#000000" stroke-width="2.0" stroke-linejoin="round" stroke-linecap="butt" d="m1255.7819 453.93512l-25.967285 -59.91577" fill-rule="evenodd"/><path fill="#000000" stroke="#000000" stroke-width="2.0" stroke-linecap="butt" d="m1229.8146 394.01935l2.9580078 1.169281l-4.520996 -4.775543l0.39367676 6.564331z" fill-rule="evenodd"/><path fill="#000000" fill-opacity="0.0" d="m1292.9299 453.93512l38.740234 -61.13388" fill-rule="evenodd"/><path stroke="#000000" stroke-width="2.0" stroke-linejoin="round" stroke-linecap="butt" d="m1292.9299 453.93512l35.07141 -55.34427" fill-rule="evenodd"/><path fill="#000000" stroke="#000000" stroke-width="2.0" stroke-linecap="butt" d="m1328.0013 398.59085l0.6958008 3.1037598l1.407959 -6.4236755l-5.2075195 4.0158386z" fill-rule="evenodd"/><path fill="#000000" fill-opacity="0.0" d="m1093.0895 369.16797l89.165405 0" fill-rule="evenodd"/><path stroke="#000000" stroke-width="2.0" stroke-linejoin="round" stroke-linecap="butt" stroke-dasharray="8.0,6.0" d="m1093.0895 369.16797l89.165405 0" fill-rule="evenodd"/><path fill="#000000" fill-opacity="0.0" d="m1048.2477 387.74207l-28.661377 55.149597" fill-rule="evenodd"/><path stroke="#000000" stroke-width="2.0" stroke-linejoin="round" stroke-linecap="butt" d="m1048.2477 387.74203l-25.50061 49.06775" fill-rule="evenodd"/><path fill="#000000" stroke="#000000" stroke-width="2.0" stroke-linecap="butt" d="m1022.7471 436.80978l-0.9585571 -3.032959l-0.8539429 6.520447l4.845459 -4.446045z" fill-rule="evenodd"/><path fill="#000000" fill-opacity="0.0" d="m1451.6771 25.161417l0 500.00003" fill-rule="evenodd"/><path stroke="#000000" stroke-width="1.0" stroke-linejoin="round" stroke-linecap="butt" d="m1451.6771 25.161417l0 500.00003" fill-rule="evenodd"/><path fill="#000000" fill-opacity="0.0" d="m1553.3887 144.31598c0 -14.507263 11.760376 -26.267715 26.2677 -26.267715c6.9665527 0 13.647949 2.767479 18.574097 7.693634c4.9261475 4.9261475 7.6936035 11.607452 7.6936035 18.574081c0 14.507263 -11.760498 26.267715 -26.2677 26.267715c-14.507324 0 -26.2677 -11.760452 -26.2677 -26.267715z" fill-rule="evenodd"/><path stroke="#000000" stroke-width="3.0" stroke-linejoin="round" stroke-linecap="butt" d="m1553.3887 144.31598c0 -14.507263 11.760376 -26.267715 26.2677 -26.267715c6.9665527 0 13.647949 2.767479 18.574097 7.693634c4.9261475 4.9261475 7.6936035 11.607452 7.6936035 18.574081c0 14.507263 -11.760498 26.267715 -26.2677 26.267715c-14.507324 0 -26.2677 -11.760452 -26.2677 -26.267715z" fill-rule="evenodd"/><path fill="#000000" d="m1582.8354 150.4216l-9.640625 0l-2.609375 7.234375l-3.0625 0l9.890625 -26.546875l1.421875 0l9.921875 26.546875l-3.234375 0l-2.6875 -7.234375zm-8.625 -2.6875l7.6875 0l-2.90625 -7.953125l-0.9375 -3.96875l-0.046875 0l-0.921875 4.03125l-2.875 7.890625z" fill-rule="nonzero"/><path fill="#000000" fill-opacity="0.0" d="m1493.2128 252.15439c0 -14.507263 11.760498 -26.267715 26.2677 -26.267715c6.966675 0 13.647949 2.7674866 18.574097 7.693634c4.9261475 4.9261627 7.6936035 11.607452 7.6936035 18.574081c0 14.507263 -11.760376 26.26773 -26.2677 26.26773c-14.507202 0 -26.2677 -11.760468 -26.2677 -26.26773z" fill-rule="evenodd"/><path stroke="#000000" stroke-width="3.0" stroke-linejoin="round" stroke-linecap="butt" d="m1493.2128 252.15439c0 -14.507263 11.760498 -26.267715 26.2677 -26.267715c6.966675 0 13.647949 2.7674866 18.574097 7.693634c4.9261475 4.9261627 7.6936035 11.607452 7.6936035 18.574081c0 14.507263 -11.760376 26.26773 -26.2677 26.26773c-14.507202 0 -26.2677 -11.760468 -26.2677 -26.26773z" fill-rule="evenodd"/><path fill="#000000" d="m1510.0547 239.36938q0.703125 -0.109375 1.578125 -0.171875q0.890625 -0.0625 1.84375 -0.078125q0.953125 -0.015625 1.859375 -0.03125q0.921875 -0.015625 1.703125 -0.015625q3.125 0 5.421875 0.96875q2.296875 0.96875 3.78125 2.703125q1.5 1.734375 2.234375 4.171875q0.734375 2.421875 0.734375 5.328125q0 2.65625 -0.703125 5.09375q-0.6875 2.4375 -2.1875 4.328125q-1.484375 1.890625 -3.875 3.03125q-2.390625 1.140625 -5.78125 1.140625q-0.59375 0 -1.546875 -0.03125q-0.953125 -0.015625 -1.96875 -0.078125q-1.0 -0.046875 -1.859375 -0.09375q-0.859375 -0.03125 -1.234375 -0.109375l0 -26.15625zm7.0625 2.453125q-0.484375 0 -1.078125 0q-0.578125 0 -1.140625 0.046875q-0.546875 0.03125 -1.015625 0.078125q-0.46875 0.03125 -0.734375 0.0625l0 20.90625q0.1875 0.046875 0.703125 0.0625q0.53125 0.015625 1.09375 0.03125q0.5625 0.015625 1.078125 0.046875q0.53125 0.015625 0.71875 0.015625q2.609375 0 4.375 -0.890625q1.78125 -0.90625 2.84375 -2.40625q1.0625 -1.515625 1.5 -3.46875q0.453125 -1.96875 0.453125 -4.0625q0 -1.828125 -0.40625 -3.671875q-0.40625 -1.859375 -1.421875 -3.34375q-1.0 -1.5 -2.703125 -2.453125q-1.703125 -0.953125 -4.265625 -0.953125z" fill-rule="nonzero"/><path fill="#000000" fill-opacity="0.0" d="m1561.0823 162.89006l-41.606323 62.992126" fill-rule="evenodd"/><path stroke="#000000" stroke-width="2.0" stroke-linejoin="round" stroke-linecap="butt" d="m1561.0822 162.89006l-37.828735 57.272873" fill-rule="evenodd"/><path fill="#000000" stroke="#000000" stroke-width="2.0" stroke-linecap="butt" d="m1523.2534 220.16293l-0.63708496 -3.116333l-1.5290527 6.3959045l5.2824707 -3.9167175z" fill-rule="evenodd"/><path fill="#000000" fill-opacity="0.0" d="m1560.0042 440.15045c0 -14.507263 11.760376 -26.2677 26.2677 -26.2677c6.9665527 0 13.647949 2.767456 18.574097 7.693634c4.9261475 4.9261475 7.6936035 11.607422 7.6936035 18.574066c0 14.507263 -11.760498 26.26773 -26.2677 26.26773c-14.507324 0 -26.2677 -11.760468 -26.2677 -26.26773z" fill-rule="evenodd"/><path stroke="#000000" stroke-width="3.0" stroke-linejoin="round" stroke-linecap="butt" d="m1560.0042 440.15045c0 -14.507263 11.760376 -26.2677 26.2677 -26.2677c6.9665527 0 13.647949 2.767456 18.574097 7.693634c4.9261475 4.9261475 7.6936035 11.607422 7.6936035 18.574066c0 14.507263 -11.760498 26.26773 -26.2677 26.26773c-14.507324 0 -26.2677 -11.760468 -26.2677 -26.26773z" fill-rule="evenodd"/><path fill="#000000" d="m1592.7821 433.3342q0 0.9375 -0.296875 1.90625q-0.296875 0.96875 -0.890625 1.8125q-0.59375 0.828125 -1.53125 1.46875q-0.9375 0.640625 -2.203125 0.96875l0 0.15625q1.125 0.1875 2.140625 0.640625q1.03125 0.4375 1.8125 1.21875q0.78125 0.78125 1.265625 1.90625q0.484375 1.125 0.484375 2.65625q0 2.015625 -0.84375 3.484375q-0.828125 1.46875 -2.203125 2.40625q-1.359375 0.9375 -3.109375 1.390625q-1.75 0.4375 -3.578125 0.4375q-0.640625 0 -1.5 0q-0.859375 0 -1.796875 -0.0625q-0.921875 -0.046875 -1.859375 -0.140625q-0.9375 -0.09375 -1.640625 -0.28125l0 -25.71875q1.375 -0.21875 3.203125 -0.359375q1.84375 -0.15625 4.0 -0.15625q1.453125 0 2.96875 0.25q1.515625 0.234375 2.734375 0.921875q1.234375 0.6875 2.03125 1.921875q0.8125 1.234375 0.8125 3.171875zm-8.65625 17.765625q1.1875 0 2.3125 -0.28125q1.125 -0.28125 1.984375 -0.890625q0.859375 -0.625 1.359375 -1.515625q0.5 -0.890625 0.5 -2.125q0 -1.53125 -0.625 -2.453125q-0.609375 -0.9375 -1.59375 -1.453125q-0.984375 -0.53125 -2.21875 -0.71875q-1.234375 -0.1875 -2.46875 -0.1875l-3.25 0l0 9.359375q0.265625 0.078125 0.75 0.125q0.484375 0.03125 1.046875 0.078125q0.5625 0.03125 1.15625 0.046875q0.59375 0.015625 1.046875 0.015625zm-2.046875 -12.234375q0.625 0 1.515625 -0.03125q0.90625 -0.046875 1.5 -0.125q0.890625 -0.296875 1.671875 -0.71875q0.796875 -0.4375 1.40625 -1.015625q0.625 -0.578125 0.96875 -1.34375q0.359375 -0.765625 0.359375 -1.65625q0 -1.234375 -0.46875 -2.03125q-0.46875 -0.8125 -1.25 -1.296875q-0.78125 -0.484375 -1.796875 -0.6875q-1.0 -0.203125 -2.046875 -0.203125q-1.234375 0 -2.265625 0.0625q-1.015625 0.046875 -1.546875 0.15625l0 8.890625l1.953125 0z" fill-rule="nonzero"/><path fill="#000000" fill-opacity="0.0" d="m1611.2195 253.50217c0 -14.507263 11.760498 -26.26773 26.2677 -26.26773c6.966675 0 13.647949 2.7674866 18.574097 7.6936493c4.9261475 4.9261475 7.6936035 11.607437 7.6936035 18.574081c0 14.507263 -11.760376 26.2677 -26.2677 26.2677c-14.507202 0 -26.2677 -11.760437 -26.2677 -26.2677z" fill-rule="evenodd"/><path stroke="#000000" stroke-width="3.0" stroke-linejoin="round" stroke-linecap="butt" d="m1611.2195 253.50217c0 -14.507263 11.760498 -26.26773 26.2677 -26.26773c6.966675 0 13.647949 2.7674866 18.574097 7.6936493c4.9261475 4.9261475 7.6936035 11.607437 7.6936035 18.574081c0 14.507263 -11.760376 26.2677 -26.2677 26.2677c-14.507202 0 -26.2677 -11.760437 -26.2677 -26.2677z" fill-rule="evenodd"/><path fill="#000000" d="m1629.1433 240.71716l14.21875 0l0 2.75l-11.125 0l0 8.5625l10.203125 0l0 2.75l-10.203125 0l0 9.296875l11.3125 0l0 2.765625l-14.40625 0l0 -26.125z" fill-rule="nonzero"/><path fill="#000000" fill-opacity="0.0" d="m1611.2195 354.9943c0 -14.507263 11.760498 -26.26773 26.2677 -26.26773c6.966675 0 13.647949 2.7674866 18.574097 7.693634c4.9261475 4.9261475 7.6936035 11.607452 7.6936035 18.574097c0 14.507263 -11.760376 26.2677 -26.2677 26.2677c-14.507202 0 -26.2677 -11.760437 -26.2677 -26.2677z" fill-rule="evenodd"/><path stroke="#000000" stroke-width="3.0" stroke-linejoin="round" stroke-linecap="butt" d="m1611.2195 354.9943c0 -14.507263 11.760498 -26.26773 26.2677 -26.26773c6.966675 0 13.647949 2.7674866 18.574097 7.693634c4.9261475 4.9261475 7.6936035 11.607452 7.6936035 18.574097c0 14.507263 -11.760376 26.2677 -26.2677 26.2677c-14.507202 0 -26.2677 -11.760437 -26.2677 -26.2677z" fill-rule="evenodd"/><path fill="#000000" d="m1629.4979 342.2093l14.21875 0l0 2.75l-11.125 0l0 8.921875l10.375 0l0 2.765625l-10.375 0l0 11.6875l-3.09375 0l0 -26.125z" fill-rule="nonzero"/><path fill="#000000" fill-opacity="0.0" d="m1658.335 440.15045c0 -14.507263 11.760498 -26.2677 26.2677 -26.2677c6.966675 0 13.647949 2.767456 18.574097 7.693634c4.9261475 4.9261475 7.6936035 11.607422 7.6936035 18.574066c0 14.507263 -11.760376 26.26773 -26.2677 26.26773c-14.507202 0 -26.2677 -11.760468 -26.2677 -26.26773z" fill-rule="evenodd"/><path stroke="#000000" stroke-width="3.0" stroke-linejoin="round" stroke-linecap="butt" d="m1658.335 440.15045c0 -14.507263 11.760498 -26.2677 26.2677 -26.2677c6.966675 0 13.647949 2.767456 18.574097 7.693634c4.9261475 4.9261475 7.6936035 11.607422 7.6936035 18.574066c0 14.507263 -11.760376 26.26773 -26.2677 26.26773c-14.507202 0 -26.2677 -11.760468 -26.2677 -26.26773z" fill-rule="evenodd"/><path fill="#000000" d="m1692.3243 452.41232q-1.109375 0.859375 -2.828125 1.1875q-1.71875 0.34375 -3.65625 0.34375q-2.359375 0 -4.421875 -0.796875q-2.046875 -0.8125 -3.578125 -2.453125q-1.53125 -1.640625 -2.421875 -4.203125q-0.890625 -2.5625 -0.890625 -6.0625q0 -3.65625 0.984375 -6.21875q0.984375 -2.5625 2.609375 -4.171875q1.625 -1.625 3.640625 -2.375q2.015625 -0.75 4.109375 -0.75q2.234375 0 3.65625 0.25q1.421875 0.234375 2.421875 0.640625l-0.734375 2.734375q-1.796875 -0.859375 -5.125 -0.859375q-1.53125 0 -3.03125 0.5625q-1.484375 0.546875 -2.65625 1.828125q-1.171875 1.265625 -1.890625 3.328125q-0.703125 2.046875 -0.703125 5.03125q0 2.6875 0.671875 4.703125q0.671875 2.015625 1.84375 3.359375q1.1875 1.34375 2.765625 2.015625q1.59375 0.671875 3.453125 0.671875q1.6875 0 2.9375 -0.328125q1.25 -0.34375 2.109375 -0.875l0.734375 2.4375z" fill-rule="nonzero"/><path fill="#000000" fill-opacity="0.0" d="m1637.4872 279.76987l0 48.944885" fill-rule="evenodd"/><path stroke="#000000" stroke-width="2.0" stroke-linejoin="round" stroke-linecap="butt" d="m1637.4872 279.76987l0 42.09073" fill-rule="evenodd"/><path fill="#000000" stroke="#000000" stroke-width="2.0" stroke-linecap="butt" d="m1637.4872 321.86057l-2.2491455 -2.2491455l2.2491455 6.179535l2.2491455 -6.179535z" fill-rule="evenodd"/><path fill="#000000" fill-opacity="0.0" d="m1618.9131 373.56836l-32.629883 40.314972" fill-rule="evenodd"/><path stroke="#000000" stroke-width="2.0" stroke-linejoin="round" stroke-linecap="butt" d="m1618.9131 373.56836l-28.317749 34.987213" fill-rule="evenodd"/><path fill="#000000" stroke="#000000" stroke-width="2.0" stroke-linecap="butt" d="m1590.5953 408.55557l-0.33325195 -3.1632996l-2.1395264 6.218384l5.6359863 -3.3883667z" fill-rule="evenodd"/><path fill="#000000" fill-opacity="0.0" d="m1656.0613 373.56836l28.5354 40.314972" fill-rule="evenodd"/><path stroke="#000000" stroke-width="2.0" stroke-linejoin="round" stroke-linecap="butt" d="m1656.0614 373.56836l24.575562 34.72043" fill-rule="evenodd"/><path fill="#000000" stroke="#000000" stroke-width="2.0" stroke-linecap="butt" d="m1680.6368 408.2888l-3.135254 -0.5364075l5.406006 3.7444763l-1.7342529 -6.3433228z" fill-rule="evenodd"/><path fill="#000000" fill-opacity="0.0" d="m1598.2305 162.89006l39.24402 64.34645" fill-rule="evenodd"/><path stroke="#000000" stroke-width="2.0" stroke-linejoin="round" stroke-linecap="butt" d="m1598.2305 162.89006l35.67517 58.49472" fill-rule="evenodd"/><path fill="#000000" stroke="#000000" stroke-width="2.0" stroke-linecap="butt" d="m1633.9056 221.38478l-3.0913086 -0.74909973l5.1378174 4.104645l-1.2973633 -6.446884z" fill-rule="evenodd"/><path fill="#000000" d="m697.10645 209.04047c0 -2.91362 2.3619385 -5.275589 5.2755737 -5.275589c1.3991699 0 2.7410278 0.55581665 3.7304077 1.5451813c0.9893799 0.9893646 1.545166 2.3312378 1.545166 3.7304077c0 2.9136353 -2.3619385 5.275589 -5.2755737 5.275589c-2.9136353 0 -5.2755737 -2.3619537 -5.2755737 -5.275589z" fill-rule="evenodd"/><path stroke="#000000" stroke-width="1.0" stroke-linejoin="round" stroke-linecap="butt" d="m697.10645 209.04047c0 -2.91362 2.3619385 -5.275589 5.2755737 -5.275589c1.3991699 0 2.7410278 0.55581665 3.7304077 1.5451813c0.9893799 0.9893646 1.545166 2.3312378 1.545166 3.7304077c0 2.9136353 -2.3619385 5.275589 -5.2755737 5.275589c-2.9136353 0 -5.2755737 -2.3619537 -5.2755737 -5.275589z" fill-rule="evenodd"/></g></svg>