<?xml version="1.0" encoding="utf-8" standalone="no"?>
<!DOCTYPE svg PUBLIC "-//W3C//DTD SVG 1.1//EN"
  "http://www.w3.org/Graphics/SVG/1.1/DTD/svg11.dtd">
<svg xmlns:xlink="http://www.w3.org/1999/xlink" width="815.325pt" height="323.718125pt" viewBox="0 0 815.325 323.718125" xmlns="http://www.w3.org/2000/svg" version="1.1">
 <metadata>
  <rdf:RDF xmlns:dc="http://purl.org/dc/elements/1.1/" xmlns:cc="http://creativecommons.org/ns#" xmlns:rdf="http://www.w3.org/1999/02/22-rdf-syntax-ns#">
   <cc:Work>
    <dc:type rdf:resource="http://purl.org/dc/dcmitype/StillImage"/>
    <dc:date>2026-06-29T09:57:08.289958</dc:date>
    <dc:format>image/svg+xml</dc:format>
    <dc:creator>
     <cc:Agent>
      <dc:title>Matplotlib v3.11.0, https://matplotlib.org/</dc:title>
     </cc:Agent>
    </dc:creator>
   </cc:Work>
  </rdf:RDF>
 </metadata>
 <defs>
  <style type="text/css">*{stroke-linejoin: round; stroke-linecap: butt}</style>
 </defs>
 <g id="figure_1">
  <g id="patch_1">
   <path d="M 0 323.718125 
L 815.325 323.718125 
L 815.325 0 
L 0 0 
L 0 323.718125 
z
" style="fill: none"/>
  </g>
  <g id="axes_1">
   <g id="patch_2">
    <path d="M 26.925 299.518125 
L 382.015909 299.518125 
L 382.015909 22.318125 
L 26.925 22.318125 
L 26.925 299.518125 
z
" style="fill: none"/>
   </g>
   <g id="matplotlib.axis_1">
    <g id="xtick_1">
     <g id="line2d_1">
      <defs>
       <path id="m78e923ccdd" d="M 0 0 
L 0 3.5 
" style="stroke: #000000; stroke-width: 0.8"/>
      </defs>
      <g>
       <use xlink:href="#m78e923ccdd" x="26.925" y="299.518125" style="stroke: #000000; stroke-width: 0.8"/>
      </g>
     </g>
     <g id="text_1">
      <!-- 0 -->
      <g transform="translate(23.74375 314.115781) scale(0.1 -0.1)">
       <defs>
        <path id="DejaVuSans-13" d="M 2034 4250 
Q 1547 4250 1301 3770 
Q 1056 3291 1056 2328 
Q 1056 1369 1301 889 
Q 1547 409 2034 409 
Q 2525 409 2770 889 
Q 3016 1369 3016 2328 
Q 3016 3291 2770 3770 
Q 2525 4250 2034 4250 
z
M 2034 4750 
Q 2819 4750 3233 4129 
Q 3647 3509 3647 2328 
Q 3647 1150 3233 529 
Q 2819 -91 2034 -91 
Q 1250 -91 836 529 
Q 422 1150 422 2328 
Q 422 3509 836 4129 
Q 1250 4750 2034 4750 
z
" transform="scale(0.015625)"/>
       </defs>
       <use xlink:href="#DejaVuSans-13"/>
      </g>
     </g>
    </g>
    <g id="xtick_2">
     <g id="line2d_2">
      <g>
       <use xlink:href="#m78e923ccdd" x="97.943182" y="299.518125" style="stroke: #000000; stroke-width: 0.8"/>
      </g>
     </g>
     <g id="text_2">
      <!-- 10 -->
      <g transform="translate(91.580682 314.115781) scale(0.1 -0.1)">
       <defs>
        <path id="DejaVuSans-14" d="M 794 531 
L 1825 531 
L 1825 4091 
L 703 3866 
L 703 4441 
L 1819 4666 
L 2450 4666 
L 2450 531 
L 3481 531 
L 3481 0 
L 794 0 
L 794 531 
z
" transform="scale(0.015625)"/>
       </defs>
       <use xlink:href="#DejaVuSans-14"/>
       <use xlink:href="#DejaVuSans-13" transform="translate(63.625 0)"/>
      </g>
     </g>
    </g>
    <g id="xtick_3">
     <g id="line2d_3">
      <g>
       <use xlink:href="#m78e923ccdd" x="168.961364" y="299.518125" style="stroke: #000000; stroke-width: 0.8"/>
      </g>
     </g>
     <g id="text_3">
      <!-- 20 -->
      <g transform="translate(162.598864 314.115781) scale(0.1 -0.1)">
       <defs>
        <path id="DejaVuSans-15" d="M 1228 531 
L 3431 531 
L 3431 0 
L 469 0 
L 469 531 
Q 828 903 1448 1529 
Q 2069 2156 2228 2338 
Q 2531 2678 2651 2914 
Q 2772 3150 2772 3378 
Q 2772 3750 2511 3984 
Q 2250 4219 1831 4219 
Q 1534 4219 1204 4116 
Q 875 4013 500 3803 
L 500 4441 
Q 881 4594 1212 4672 
Q 1544 4750 1819 4750 
Q 2544 4750 2975 4387 
Q 3406 4025 3406 3419 
Q 3406 3131 3298 2873 
Q 3191 2616 2906 2266 
Q 2828 2175 2409 1742 
Q 1991 1309 1228 531 
z
" transform="scale(0.015625)"/>
       </defs>
       <use xlink:href="#DejaVuSans-15"/>
       <use xlink:href="#DejaVuSans-13" transform="translate(63.625 0)"/>
      </g>
     </g>
    </g>
    <g id="xtick_4">
     <g id="line2d_4">
      <g>
       <use xlink:href="#m78e923ccdd" x="239.979545" y="299.518125" style="stroke: #000000; stroke-width: 0.8"/>
      </g>
     </g>
     <g id="text_4">
      <!-- 30 -->
      <g transform="translate(233.617045 314.115781) scale(0.1 -0.1)">
       <defs>
        <path id="DejaVuSans-16" d="M 2597 2516 
Q 3050 2419 3304 2112 
Q 3559 1806 3559 1356 
Q 3559 666 3084 287 
Q 2609 -91 1734 -91 
Q 1441 -91 1130 -33 
Q 819 25 488 141 
L 488 750 
Q 750 597 1062 519 
Q 1375 441 1716 441 
Q 2309 441 2620 675 
Q 2931 909 2931 1356 
Q 2931 1769 2642 2001 
Q 2353 2234 1838 2234 
L 1294 2234 
L 1294 2753 
L 1863 2753 
Q 2328 2753 2575 2939 
Q 2822 3125 2822 3475 
Q 2822 3834 2567 4026 
Q 2313 4219 1838 4219 
Q 1578 4219 1281 4162 
Q 984 4106 628 3988 
L 628 4550 
Q 988 4650 1302 4700 
Q 1616 4750 1894 4750 
Q 2613 4750 3031 4423 
Q 3450 4097 3450 3541 
Q 3450 3153 3228 2886 
Q 3006 2619 2597 2516 
z
" transform="scale(0.015625)"/>
       </defs>
       <use xlink:href="#DejaVuSans-16"/>
       <use xlink:href="#DejaVuSans-13" transform="translate(63.625 0)"/>
      </g>
     </g>
    </g>
    <g id="xtick_5">
     <g id="line2d_5">
      <g>
       <use xlink:href="#m78e923ccdd" x="310.997727" y="299.518125" style="stroke: #000000; stroke-width: 0.8"/>
      </g>
     </g>
     <g id="text_5">
      <!-- 40 -->
      <g transform="translate(304.635227 314.115781) scale(0.1 -0.1)">
       <defs>
        <path id="DejaVuSans-17" d="M 2419 4116 
L 825 1625 
L 2419 1625 
L 2419 4116 
z
M 2253 4666 
L 3047 4666 
L 3047 1625 
L 3713 1625 
L 3713 1100 
L 3047 1100 
L 3047 0 
L 2419 0 
L 2419 1100 
L 313 1100 
L 313 1709 
L 2253 4666 
z
" transform="scale(0.015625)"/>
       </defs>
       <use xlink:href="#DejaVuSans-17"/>
       <use xlink:href="#DejaVuSans-13" transform="translate(63.625 0)"/>
      </g>
     </g>
    </g>
    <g id="xtick_6">
     <g id="line2d_6">
      <g>
       <use xlink:href="#m78e923ccdd" x="382.015909" y="299.518125" style="stroke: #000000; stroke-width: 0.8"/>
      </g>
     </g>
     <g id="text_6">
      <!-- 50 -->
      <g transform="translate(375.653409 314.115781) scale(0.1 -0.1)">
       <defs>
        <path id="DejaVuSans-18" d="M 691 4666 
L 3169 4666 
L 3169 4134 
L 1269 4134 
L 1269 2991 
Q 1406 3038 1543 3061 
Q 1681 3084 1819 3084 
Q 2600 3084 3056 2656 
Q 3513 2228 3513 1497 
Q 3513 744 3044 326 
Q 2575 -91 1722 -91 
Q 1428 -91 1123 -41 
Q 819 9 494 109 
L 494 744 
Q 775 591 1075 516 
Q 1375 441 1709 441 
Q 2250 441 2565 725 
Q 2881 1009 2881 1497 
Q 2881 1984 2565 2268 
Q 2250 2553 1709 2553 
Q 1456 2553 1204 2497 
Q 953 2441 691 2322 
L 691 4666 
z
" transform="scale(0.015625)"/>
       </defs>
       <use xlink:href="#DejaVuSans-18"/>
       <use xlink:href="#DejaVuSans-13" transform="translate(63.625 0)"/>
      </g>
     </g>
    </g>
   </g>
   <g id="matplotlib.axis_2">
    <g id="ytick_1">
     <g id="line2d_7">
      <defs>
       <path id="m4e5dea374d" d="M 0 0 
L -3.5 0 
" style="stroke: #000000; stroke-width: 0.8"/>
      </defs>
      <g>
       <use xlink:href="#m4e5dea374d" x="26.925" y="299.518125" style="stroke: #000000; stroke-width: 0.8"/>
      </g>
     </g>
     <g id="text_7">
      <!-- 0 -->
      <g transform="translate(13.5625 303.316953) scale(0.1 -0.1)">
       <use xlink:href="#DejaVuSans-13"/>
      </g>
     </g>
    </g>
    <g id="ytick_2">
     <g id="line2d_8">
      <g>
       <use xlink:href="#m4e5dea374d" x="26.925" y="259.918125" style="stroke: #000000; stroke-width: 0.8"/>
      </g>
     </g>
     <g id="text_8">
      <!-- 10 -->
      <g transform="translate(7.2 263.716953) scale(0.1 -0.1)">
       <use xlink:href="#DejaVuSans-14"/>
       <use xlink:href="#DejaVuSans-13" transform="translate(63.625 0)"/>
      </g>
     </g>
    </g>
    <g id="ytick_3">
     <g id="line2d_9">
      <g>
       <use xlink:href="#m4e5dea374d" x="26.925" y="220.318125" style="stroke: #000000; stroke-width: 0.8"/>
      </g>
     </g>
     <g id="text_9">
      <!-- 20 -->
      <g transform="translate(7.2 224.116953) scale(0.1 -0.1)">
       <use xlink:href="#DejaVuSans-15"/>
       <use xlink:href="#DejaVuSans-13" transform="translate(63.625 0)"/>
      </g>
     </g>
    </g>
    <g id="ytick_4">
     <g id="line2d_10">
      <g>
       <use xlink:href="#m4e5dea374d" x="26.925" y="180.718125" style="stroke: #000000; stroke-width: 0.8"/>
      </g>
     </g>
     <g id="text_10">
      <!-- 30 -->
      <g transform="translate(7.2 184.516953) scale(0.1 -0.1)">
       <use xlink:href="#DejaVuSans-16"/>
       <use xlink:href="#DejaVuSans-13" transform="translate(63.625 0)"/>
      </g>
     </g>
    </g>
    <g id="ytick_5">
     <g id="line2d_11">
      <g>
       <use xlink:href="#m4e5dea374d" x="26.925" y="141.118125" style="stroke: #000000; stroke-width: 0.8"/>
      </g>
     </g>
     <g id="text_11">
      <!-- 40 -->
      <g transform="translate(7.2 144.916953) scale(0.1 -0.1)">
       <use xlink:href="#DejaVuSans-17"/>
       <use xlink:href="#DejaVuSans-13" transform="translate(63.625 0)"/>
      </g>
     </g>
    </g>
    <g id="ytick_6">
     <g id="line2d_12">
      <g>
       <use xlink:href="#m4e5dea374d" x="26.925" y="101.518125" style="stroke: #000000; stroke-width: 0.8"/>
      </g>
     </g>
     <g id="text_12">
      <!-- 50 -->
      <g transform="translate(7.2 105.316953) scale(0.1 -0.1)">
       <use xlink:href="#DejaVuSans-18"/>
       <use xlink:href="#DejaVuSans-13" transform="translate(63.625 0)"/>
      </g>
     </g>
    </g>
    <g id="ytick_7">
     <g id="line2d_13">
      <g>
       <use xlink:href="#m4e5dea374d" x="26.925" y="61.918125" style="stroke: #000000; stroke-width: 0.8"/>
      </g>
     </g>
     <g id="text_13">
      <!-- 60 -->
      <g transform="translate(7.2 65.716953) scale(0.1 -0.1)">
       <defs>
        <path id="DejaVuSans-19" d="M 2113 2584 
Q 1688 2584 1439 2293 
Q 1191 2003 1191 1497 
Q 1191 994 1439 701 
Q 1688 409 2113 409 
Q 2538 409 2786 701 
Q 3034 994 3034 1497 
Q 3034 2003 2786 2293 
Q 2538 2584 2113 2584 
z
M 3366 4563 
L 3366 3988 
Q 3128 4100 2886 4159 
Q 2644 4219 2406 4219 
Q 1781 4219 1451 3797 
Q 1122 3375 1075 2522 
Q 1259 2794 1537 2939 
Q 1816 3084 2150 3084 
Q 2853 3084 3261 2657 
Q 3669 2231 3669 1497 
Q 3669 778 3244 343 
Q 2819 -91 2113 -91 
Q 1303 -91 875 529 
Q 447 1150 447 2328 
Q 447 3434 972 4092 
Q 1497 4750 2381 4750 
Q 2619 4750 2861 4703 
Q 3103 4656 3366 4563 
z
" transform="scale(0.015625)"/>
       </defs>
       <use xlink:href="#DejaVuSans-19"/>
       <use xlink:href="#DejaVuSans-13" transform="translate(63.625 0)"/>
      </g>
     </g>
    </g>
    <g id="ytick_8">
     <g id="line2d_14">
      <g>
       <use xlink:href="#m4e5dea374d" x="26.925" y="22.318125" style="stroke: #000000; stroke-width: 0.8"/>
      </g>
     </g>
     <g id="text_14">
      <!-- 70 -->
      <g transform="translate(7.2 26.116953) scale(0.1 -0.1)">
       <defs>
        <path id="DejaVuSans-1a" d="M 525 4666 
L 3525 4666 
L 3525 4397 
L 1831 0 
L 1172 0 
L 2766 4134 
L 525 4134 
L 525 4666 
z
" transform="scale(0.015625)"/>
       </defs>
       <use xlink:href="#DejaVuSans-1a"/>
       <use xlink:href="#DejaVuSans-13" transform="translate(63.625 0)"/>
      </g>
     </g>
    </g>
   </g>
   <g id="line2d_15">
    <path d="M 34.026818 299.518125 
L 35.421564 297.469291 
L 36.81631 295.732578 
L 38.908429 293.540264 
L 41.000547 291.701634 
L 43.092666 290.118264 
L 45.882158 288.299585 
L 48.67165 286.731025 
L 52.158514 285.031805 
L 56.342752 283.278746 
L 60.526989 281.759217 
L 65.4086 280.209296 
L 70.987583 278.662438 
L 77.26394 277.140842 
L 84.935042 275.52019 
L 93.303517 273.980433 
L 103.066738 272.412502 
L 114.224705 270.849971 
L 126.777418 269.314912 
L 141.422249 267.751158 
L 158.159199 266.192258 
L 177.685641 264.607338 
L 200.001575 263.030065 
L 225.107 261.482375 
L 254.396663 259.907397 
L 287.870564 258.338745 
L 326.226075 256.771784 
L 370.160569 255.20678 
L 382.015909 254.818784 
L 382.015909 254.818784 
" clip-path="url(#p3e09d16858)" style="fill: none; stroke-dasharray: 1.5,2.475; stroke-dashoffset: 0; stroke: #808080; stroke-width: 1.5"/>
   </g>
   <g id="line2d_16">
    <path d="M 34.026818 297.538125 
L 382.015909 200.518125 
L 382.015909 200.518125 
" clip-path="url(#p3e09d16858)" style="fill: none; stroke-dasharray: 1.5,2.475; stroke-dashoffset: 0; stroke: #000000; stroke-width: 1.5"/>
   </g>
   <g id="line2d_17">
    <path d="M 34.026818 295.558125 
L 382.015909 101.518125 
L 382.015909 101.518125 
" clip-path="url(#p3e09d16858)" style="fill: none; stroke-dasharray: 5.55,2.4; stroke-dashoffset: 0; stroke: #808080; stroke-width: 1.5"/>
   </g>
   <g id="line2d_18">
    <path d="M 34.026818 299.518125 
L 36.81631 298.859068 
L 40.303175 297.814286 
L 44.487412 296.32019 
L 49.369023 294.324232 
L 54.948006 291.782015 
L 61.224362 288.655245 
L 68.198092 284.910309 
L 75.869194 280.51728 
L 84.237669 275.449191 
L 93.303517 269.681503 
L 103.066738 263.191701 
L 113.527332 255.958987 
L 124.685299 247.96403 
L 136.540639 239.188773 
L 149.093351 229.616274 
L 162.343437 219.230574 
L 176.290895 208.016587 
L 190.935727 195.960012 
L 206.277931 183.047249 
L 223.014882 168.659954 
L 240.449205 153.367657 
L 258.580901 137.159953 
L 277.40997 120.026769 
L 296.936412 101.958345 
L 317.160227 82.945221 
L 338.778788 62.307676 
L 361.094721 40.688237 
L 382.015909 20.147244 
L 382.015909 20.147244 
" clip-path="url(#p3e09d16858)" style="fill: none; stroke-dasharray: 5.55,2.4; stroke-dashoffset: 0; stroke: #000000; stroke-width: 1.5"/>
   </g>
   <g id="line2d_19">
    <path d="M 34.026818 299.122125 
L 37.513683 298.637806 
L 41.000547 297.962565 
L 44.487412 297.096402 
L 48.67165 295.804989 
L 52.855887 294.238649 
L 57.040125 292.39738 
L 61.224362 290.281184 
L 65.4086 287.89006 
L 69.592837 285.224007 
L 73.777075 282.283027 
L 77.961313 279.06712 
L 82.14555 275.576284 
L 86.329788 271.81052 
L 90.514025 267.769829 
L 94.698263 263.454209 
L 99.579873 258.071842 
L 104.461484 252.315267 
L 109.343094 246.184485 
L 114.224705 239.679496 
L 119.106315 232.800299 
L 123.987926 225.546894 
L 128.869536 217.919283 
L 133.751147 209.917464 
L 139.33013 200.314315 
L 144.909114 190.222405 
L 150.488097 179.641735 
L 156.067081 168.572304 
L 161.646064 157.014112 
L 167.225047 144.96716 
L 172.804031 132.431447 
L 179.080387 117.744548 
L 185.356743 102.439061 
L 191.6331 86.514987 
L 197.909456 69.972326 
L 204.185813 52.811076 
L 210.462169 35.031239 
L 216.738525 16.632814 
L 222.564552 -1 
L 222.564552 -1 
" clip-path="url(#p3e09d16858)" style="fill: none; stroke: #808080; stroke-width: 1.5; stroke-linecap: square"/>
   </g>
   <g id="line2d_20">
    <path d="M 34.026818 299.122125 
L 41.000547 298.735965 
L 45.882158 298.258573 
L 50.066396 297.623267 
L 53.55326 296.85509 
L 56.342752 296.021757 
L 59.132244 294.927653 
L 61.224362 293.887747 
L 63.316481 292.612266 
L 65.4086 291.047843 
L 67.500719 289.129022 
L 69.592837 286.77552 
L 70.987583 284.917268 
L 72.382329 282.788028 
L 73.777075 280.348281 
L 75.171821 277.552746 
L 76.566567 274.349538 
L 77.961313 270.679208 
L 79.356058 266.473634 
L 80.750804 261.654762 
L 82.14555 256.133155 
L 83.540296 249.806332 
L 84.935042 242.556871 
L 86.329788 234.250221 
L 87.724534 224.732215 
L 89.119279 213.826199 
L 90.514025 201.329762 
L 91.908771 187.010971 
L 93.303517 170.604073 
L 94.698263 151.80456 
L 96.093009 130.263518 
L 97.487755 105.58115 
L 98.8825 77.299356 
L 100.277246 44.893234 
L 101.969316 -1 
L 101.969316 -1 
" clip-path="url(#p3e09d16858)" style="fill: none; stroke: #000000; stroke-width: 1.5; stroke-linecap: square"/>
   </g>
   <g id="line2d_21">
    <path d="M 41.128636 299.518125 
L 41.128636 236.158125 
L 119.248636 236.158125 
L 119.248636 299.518125 
" clip-path="url(#p3e09d16858)" style="fill: none; stroke-dasharray: 1.5,2.475; stroke-dashoffset: 0; stroke: #808080; stroke-width: 1.5"/>
   </g>
   <g id="patch_3">
    <path d="M 26.925 299.518125 
L 26.925 22.318125 
" style="fill: none; stroke: #000000; stroke-width: 0.8; stroke-linejoin: miter; stroke-linecap: square"/>
   </g>
   <g id="patch_4">
    <path d="M 382.015909 299.518125 
L 382.015909 22.318125 
" style="fill: none; stroke: #000000; stroke-width: 0.8; stroke-linejoin: miter; stroke-linecap: square"/>
   </g>
   <g id="patch_5">
    <path d="M 26.925 299.518125 
L 382.015909 299.518125 
" style="fill: none; stroke: #000000; stroke-width: 0.8; stroke-linejoin: miter; stroke-linecap: square"/>
   </g>
   <g id="patch_6">
    <path d="M 26.925 22.318125 
L 382.015909 22.318125 
" style="fill: none; stroke: #000000; stroke-width: 0.8; stroke-linejoin: miter; stroke-linecap: square"/>
   </g>
   <g id="text_15">
    <!-- 2·log₂(n) -->
    <g transform="translate(332.303182 246.898784) scale(0.1 -0.1)">
     <defs>
      <path id="DejaVuSans-79" d="M 684 2619 
L 1344 2619 
L 1344 1825 
L 684 1825 
L 684 2619 
z
" transform="scale(0.015625)"/>
      <path id="DejaVuSans-4f" d="M 603 4863 
L 1178 4863 
L 1178 0 
L 603 0 
L 603 4863 
z
" transform="scale(0.015625)"/>
      <path id="DejaVuSans-52" d="M 1959 3097 
Q 1497 3097 1228 2736 
Q 959 2375 959 1747 
Q 959 1119 1226 758 
Q 1494 397 1959 397 
Q 2419 397 2687 759 
Q 2956 1122 2956 1747 
Q 2956 2369 2687 2733 
Q 2419 3097 1959 3097 
z
M 1959 3584 
Q 2709 3584 3137 3096 
Q 3566 2609 3566 1747 
Q 3566 888 3137 398 
Q 2709 -91 1959 -91 
Q 1206 -91 779 398 
Q 353 888 353 1747 
Q 353 2609 779 3096 
Q 1206 3584 1959 3584 
z
" transform="scale(0.015625)"/>
      <path id="DejaVuSans-4a" d="M 2906 1791 
Q 2906 2416 2648 2759 
Q 2391 3103 1925 3103 
Q 1463 3103 1205 2759 
Q 947 2416 947 1791 
Q 947 1169 1205 825 
Q 1463 481 1925 481 
Q 2391 481 2648 825 
Q 2906 1169 2906 1791 
z
M 3481 434 
Q 3481 -459 3084 -895 
Q 2688 -1331 1869 -1331 
Q 1566 -1331 1297 -1286 
Q 1028 -1241 775 -1147 
L 775 -588 
Q 1028 -725 1275 -790 
Q 1522 -856 1778 -856 
Q 2344 -856 2625 -561 
Q 2906 -266 2906 331 
L 2906 616 
Q 2728 306 2450 153 
Q 2172 0 1784 0 
Q 1141 0 747 490 
Q 353 981 353 1791 
Q 353 2603 747 3093 
Q 1141 3584 1784 3584 
Q 2172 3584 2450 3431 
Q 2728 3278 2906 2969 
L 2906 3500 
L 3481 3500 
L 3481 434 
z
" transform="scale(0.015625)"/>
      <path id="DejaVuSans-b5d" d="M 838 356 
L 2163 356 
L 2163 0 
L 294 0 
L 294 343 
Q 400 440 597 615 
Q 1672 1568 1672 1862 
Q 1672 2068 1509 2194 
Q 1347 2321 1081 2321 
Q 919 2321 728 2266 
Q 538 2212 313 2103 
L 313 2487 
Q 553 2575 761 2618 
Q 969 2662 1147 2662 
Q 1600 2662 1872 2456 
Q 2144 2250 2144 1912 
Q 2144 1478 1109 590 
Q 934 440 838 356 
z
" transform="scale(0.015625)"/>
      <path id="DejaVuSans-b" d="M 1984 4856 
Q 1566 4138 1362 3434 
Q 1159 2731 1159 2009 
Q 1159 1288 1364 580 
Q 1569 -128 1984 -844 
L 1484 -844 
Q 1016 -109 783 600 
Q 550 1309 550 2009 
Q 550 2706 781 3412 
Q 1013 4119 1484 4856 
L 1984 4856 
z
" transform="scale(0.015625)"/>
      <path id="DejaVuSans-51" d="M 3513 2113 
L 3513 0 
L 2938 0 
L 2938 2094 
Q 2938 2591 2744 2837 
Q 2550 3084 2163 3084 
Q 1697 3084 1428 2787 
Q 1159 2491 1159 1978 
L 1159 0 
L 581 0 
L 581 3500 
L 1159 3500 
L 1159 2956 
Q 1366 3272 1645 3428 
Q 1925 3584 2291 3584 
Q 2894 3584 3203 3211 
Q 3513 2838 3513 2113 
z
" transform="scale(0.015625)"/>
      <path id="DejaVuSans-c" d="M 513 4856 
L 1013 4856 
Q 1481 4119 1714 3412 
Q 1947 2706 1947 2009 
Q 1947 1309 1714 600 
Q 1481 -109 1013 -844 
L 513 -844 
Q 928 -128 1133 580 
Q 1338 1288 1338 2009 
Q 1338 2731 1133 3434 
Q 928 4138 513 4856 
z
" transform="scale(0.015625)"/>
     </defs>
     <use xlink:href="#DejaVuSans-15"/>
     <use xlink:href="#DejaVuSans-79" transform="translate(63.625 0)"/>
     <use xlink:href="#DejaVuSans-4f" transform="translate(95.40625 0)"/>
     <use xlink:href="#DejaVuSans-52" transform="translate(123.1875 0)"/>
     <use xlink:href="#DejaVuSans-4a" transform="translate(184.375 0)"/>
     <use xlink:href="#DejaVuSans-b5d" transform="translate(247.859375 0)"/>
     <use xlink:href="#DejaVuSans-b" transform="translate(287.953125 0)"/>
     <use xlink:href="#DejaVuSans-51" transform="translate(326.96875 0)"/>
     <use xlink:href="#DejaVuSans-c" transform="translate(390.34375 0)"/>
    </g>
   </g>
   <g id="text_16">
    <!-- n/2 -->
    <g transform="translate(353.608636 192.598125) scale(0.1 -0.1)">
     <defs>
      <path id="DejaVuSans-12" d="M 1625 4666 
L 2156 4666 
L 531 -594 
L 0 -594 
L 1625 4666 
z
" transform="scale(0.015625)"/>
     </defs>
     <use xlink:href="#DejaVuSans-51"/>
     <use xlink:href="#DejaVuSans-12" transform="translate(63.375 0)"/>
     <use xlink:href="#DejaVuSans-15" transform="translate(97.0625 0)"/>
    </g>
   </g>
   <g id="text_17">
    <!-- n -->
    <g transform="translate(360.710455 101.518125) scale(0.1 -0.1)">
     <use xlink:href="#DejaVuSans-51"/>
    </g>
   </g>
   <g id="text_18">
    <!-- n·log₂(n)/4 -->
    <g transform="translate(296.794091 42.118125) scale(0.1 -0.1)">
     <use xlink:href="#DejaVuSans-51"/>
     <use xlink:href="#DejaVuSans-79" transform="translate(63.375 0)"/>
     <use xlink:href="#DejaVuSans-4f" transform="translate(95.15625 0)"/>
     <use xlink:href="#DejaVuSans-52" transform="translate(122.9375 0)"/>
     <use xlink:href="#DejaVuSans-4a" transform="translate(184.125 0)"/>
     <use xlink:href="#DejaVuSans-b5d" transform="translate(247.609375 0)"/>
     <use xlink:href="#DejaVuSans-b" transform="translate(287.703125 0)"/>
     <use xlink:href="#DejaVuSans-51" transform="translate(326.71875 0)"/>
     <use xlink:href="#DejaVuSans-c" transform="translate(390.09375 0)"/>
     <use xlink:href="#DejaVuSans-12" transform="translate(429.109375 0)"/>
     <use xlink:href="#DejaVuSans-17" transform="translate(462.796875 0)"/>
    </g>
   </g>
   <g id="text_19">
    <!-- n²/10 -->
    <g transform="translate(176.063182 42.118125) scale(0.1 -0.1)">
     <defs>
      <path id="DejaVuSans-74" d="M 838 2444 
L 2163 2444 
L 2163 2088 
L 294 2088 
L 294 2431 
Q 400 2528 597 2703 
Q 1672 3656 1672 3950 
Q 1672 4156 1509 4282 
Q 1347 4409 1081 4409 
Q 919 4409 728 4354 
Q 538 4300 313 4191 
L 313 4575 
Q 553 4663 761 4706 
Q 969 4750 1147 4750 
Q 1600 4750 1872 4544 
Q 2144 4338 2144 4000 
Q 2144 3566 1109 2678 
Q 934 2528 838 2444 
z
" transform="scale(0.015625)"/>
     </defs>
     <use xlink:href="#DejaVuSans-51"/>
     <use xlink:href="#DejaVuSans-74" transform="translate(63.375 0)"/>
     <use xlink:href="#DejaVuSans-12" transform="translate(103.46875 0)"/>
     <use xlink:href="#DejaVuSans-14" transform="translate(137.15625 0)"/>
     <use xlink:href="#DejaVuSans-13" transform="translate(200.78125 0)"/>
    </g>
   </g>
   <g id="text_20">
    <!-- 2ⁿ/20 -->
    <g transform="translate(112.146818 42.118125) scale(0.1 -0.1)">
     <defs>
      <path id="DejaVuSans-b5a" d="M 2213 3272 
L 2213 2088 
L 1850 2088 
L 1850 3259 
Q 1850 3538 1728 3677 
Q 1606 3816 1363 3816 
Q 1069 3816 900 3648 
Q 731 3481 731 3194 
L 731 2088 
L 366 2088 
L 366 4047 
L 731 4047 
L 731 3744 
Q 859 3919 1036 4006 
Q 1213 4094 1444 4094 
Q 1822 4094 2017 3884 
Q 2213 3675 2213 3272 
z
" transform="scale(0.015625)"/>
     </defs>
     <use xlink:href="#DejaVuSans-15"/>
     <use xlink:href="#DejaVuSans-b5a" transform="translate(63.625 0)"/>
     <use xlink:href="#DejaVuSans-12" transform="translate(103.46875 0)"/>
     <use xlink:href="#DejaVuSans-15" transform="translate(137.15625 0)"/>
     <use xlink:href="#DejaVuSans-13" transform="translate(200.78125 0)"/>
    </g>
   </g>
   <g id="text_21">
    <!-- Growth rates for 5 equations -->
    <g transform="translate(118.14733 16.318125) scale(0.12 -0.12)">
     <defs>
      <path id="DejaVuSans-2a" d="M 3809 666 
L 3809 1919 
L 2778 1919 
L 2778 2438 
L 4434 2438 
L 4434 434 
Q 4069 175 3628 42 
Q 3188 -91 2688 -91 
Q 1594 -91 976 548 
Q 359 1188 359 2328 
Q 359 3472 976 4111 
Q 1594 4750 2688 4750 
Q 3144 4750 3555 4637 
Q 3966 4525 4313 4306 
L 4313 3634 
Q 3963 3931 3569 4081 
Q 3175 4231 2741 4231 
Q 1884 4231 1454 3753 
Q 1025 3275 1025 2328 
Q 1025 1384 1454 906 
Q 1884 428 2741 428 
Q 3075 428 3337 486 
Q 3600 544 3809 666 
z
" transform="scale(0.015625)"/>
      <path id="DejaVuSans-55" d="M 2631 2963 
Q 2534 3019 2420 3045 
Q 2306 3072 2169 3072 
Q 1681 3072 1420 2755 
Q 1159 2438 1159 1844 
L 1159 0 
L 581 0 
L 581 3500 
L 1159 3500 
L 1159 2956 
Q 1341 3275 1631 3429 
Q 1922 3584 2338 3584 
Q 2397 3584 2469 3576 
Q 2541 3569 2628 3553 
L 2631 2963 
z
" transform="scale(0.015625)"/>
      <path id="DejaVuSans-5a" d="M 269 3500 
L 844 3500 
L 1563 769 
L 2278 3500 
L 2956 3500 
L 3675 769 
L 4391 3500 
L 4966 3500 
L 4050 0 
L 3372 0 
L 2619 2869 
L 1863 0 
L 1184 0 
L 269 3500 
z
" transform="scale(0.015625)"/>
      <path id="DejaVuSans-57" d="M 1172 4494 
L 1172 3500 
L 2356 3500 
L 2356 3053 
L 1172 3053 
L 1172 1153 
Q 1172 725 1289 603 
Q 1406 481 1766 481 
L 2356 481 
L 2356 0 
L 1766 0 
Q 1100 0 847 248 
Q 594 497 594 1153 
L 594 3053 
L 172 3053 
L 172 3500 
L 594 3500 
L 594 4494 
L 1172 4494 
z
" transform="scale(0.015625)"/>
      <path id="DejaVuSans-4b" d="M 3513 2113 
L 3513 0 
L 2938 0 
L 2938 2094 
Q 2938 2591 2744 2837 
Q 2550 3084 2163 3084 
Q 1697 3084 1428 2787 
Q 1159 2491 1159 1978 
L 1159 0 
L 581 0 
L 581 4863 
L 1159 4863 
L 1159 2956 
Q 1366 3272 1645 3428 
Q 1925 3584 2291 3584 
Q 2894 3584 3203 3211 
Q 3513 2838 3513 2113 
z
" transform="scale(0.015625)"/>
      <path id="DejaVuSans-3" transform="scale(0.015625)"/>
      <path id="DejaVuSans-44" d="M 2194 1759 
Q 1497 1759 1228 1600 
Q 959 1441 959 1056 
Q 959 750 1161 570 
Q 1363 391 1709 391 
Q 2188 391 2477 730 
Q 2766 1069 2766 1631 
L 2766 1759 
L 2194 1759 
z
M 3341 1997 
L 3341 0 
L 2766 0 
L 2766 531 
Q 2569 213 2275 61 
Q 1981 -91 1556 -91 
Q 1019 -91 701 211 
Q 384 513 384 1019 
Q 384 1609 779 1909 
Q 1175 2209 1959 2209 
L 2766 2209 
L 2766 2266 
Q 2766 2663 2505 2880 
Q 2244 3097 1772 3097 
Q 1472 3097 1187 3025 
Q 903 2953 641 2809 
L 641 3341 
Q 956 3463 1253 3523 
Q 1550 3584 1831 3584 
Q 2591 3584 2966 3190 
Q 3341 2797 3341 1997 
z
" transform="scale(0.015625)"/>
      <path id="DejaVuSans-48" d="M 3597 1894 
L 3597 1613 
L 953 1613 
Q 991 1019 1311 708 
Q 1631 397 2203 397 
Q 2534 397 2845 478 
Q 3156 559 3463 722 
L 3463 178 
Q 3153 47 2828 -22 
Q 2503 -91 2169 -91 
Q 1331 -91 842 396 
Q 353 884 353 1716 
Q 353 2575 817 3079 
Q 1281 3584 2069 3584 
Q 2775 3584 3186 3129 
Q 3597 2675 3597 1894 
z
M 3022 2063 
Q 3016 2534 2758 2815 
Q 2500 3097 2075 3097 
Q 1594 3097 1305 2825 
Q 1016 2553 972 2059 
L 3022 2063 
z
" transform="scale(0.015625)"/>
      <path id="DejaVuSans-56" d="M 2834 3397 
L 2834 2853 
Q 2591 2978 2328 3040 
Q 2066 3103 1784 3103 
Q 1356 3103 1142 2972 
Q 928 2841 928 2578 
Q 928 2378 1081 2264 
Q 1234 2150 1697 2047 
L 1894 2003 
Q 2506 1872 2764 1633 
Q 3022 1394 3022 966 
Q 3022 478 2636 193 
Q 2250 -91 1575 -91 
Q 1294 -91 989 -36 
Q 684 19 347 128 
L 347 722 
Q 666 556 975 473 
Q 1284 391 1588 391 
Q 1994 391 2212 530 
Q 2431 669 2431 922 
Q 2431 1156 2273 1281 
Q 2116 1406 1581 1522 
L 1381 1569 
Q 847 1681 609 1914 
Q 372 2147 372 2553 
Q 372 3047 722 3315 
Q 1072 3584 1716 3584 
Q 2034 3584 2315 3537 
Q 2597 3491 2834 3397 
z
" transform="scale(0.015625)"/>
      <path id="DejaVuSans-49" d="M 2375 4863 
L 2375 4384 
L 1825 4384 
Q 1516 4384 1395 4259 
Q 1275 4134 1275 3809 
L 1275 3500 
L 2222 3500 
L 2222 3053 
L 1275 3053 
L 1275 0 
L 697 0 
L 697 3053 
L 147 3053 
L 147 3500 
L 697 3500 
L 697 3744 
Q 697 4328 969 4595 
Q 1241 4863 1831 4863 
L 2375 4863 
z
" transform="scale(0.015625)"/>
      <path id="DejaVuSans-54" d="M 947 1747 
Q 947 1113 1208 752 
Q 1469 391 1925 391 
Q 2381 391 2643 752 
Q 2906 1113 2906 1747 
Q 2906 2381 2643 2742 
Q 2381 3103 1925 3103 
Q 1469 3103 1208 2742 
Q 947 2381 947 1747 
z
M 2906 525 
Q 2725 213 2448 61 
Q 2172 -91 1784 -91 
Q 1150 -91 751 415 
Q 353 922 353 1747 
Q 353 2572 751 3078 
Q 1150 3584 1784 3584 
Q 2172 3584 2448 3432 
Q 2725 3281 2906 2969 
L 2906 3500 
L 3481 3500 
L 3481 -1331 
L 2906 -1331 
L 2906 525 
z
" transform="scale(0.015625)"/>
      <path id="DejaVuSans-58" d="M 544 1381 
L 544 3500 
L 1119 3500 
L 1119 1403 
Q 1119 906 1312 657 
Q 1506 409 1894 409 
Q 2359 409 2629 706 
Q 2900 1003 2900 1516 
L 2900 3500 
L 3475 3500 
L 3475 0 
L 2900 0 
L 2900 538 
Q 2691 219 2414 64 
Q 2138 -91 1772 -91 
Q 1169 -91 856 284 
Q 544 659 544 1381 
z
M 1991 3584 
L 1991 3584 
z
" transform="scale(0.015625)"/>
      <path id="DejaVuSans-4c" d="M 603 3500 
L 1178 3500 
L 1178 0 
L 603 0 
L 603 3500 
z
M 603 4863 
L 1178 4863 
L 1178 4134 
L 603 4134 
L 603 4863 
z
" transform="scale(0.015625)"/>
     </defs>
     <use xlink:href="#DejaVuSans-2a"/>
     <use xlink:href="#DejaVuSans-55" transform="translate(77.484375 0)"/>
     <use xlink:href="#DejaVuSans-52" transform="translate(116.390625 0)"/>
     <use xlink:href="#DejaVuSans-5a" transform="translate(177.578125 0)"/>
     <use xlink:href="#DejaVuSans-57" transform="translate(259.359375 0)"/>
     <use xlink:href="#DejaVuSans-4b" transform="translate(298.5625 0)"/>
     <use xlink:href="#DejaVuSans-3" transform="translate(361.9375 0)"/>
     <use xlink:href="#DejaVuSans-55" transform="translate(393.71875 0)"/>
     <use xlink:href="#DejaVuSans-44" transform="translate(434.828125 0)"/>
     <use xlink:href="#DejaVuSans-57" transform="translate(496.109375 0)"/>
     <use xlink:href="#DejaVuSans-48" transform="translate(535.3125 0)"/>
     <use xlink:href="#DejaVuSans-56" transform="translate(596.84375 0)"/>
     <use xlink:href="#DejaVuSans-3" transform="translate(648.9375 0)"/>
     <use xlink:href="#DejaVuSans-49" transform="translate(680.71875 0)"/>
     <use xlink:href="#DejaVuSans-52" transform="translate(715.921875 0)"/>
     <use xlink:href="#DejaVuSans-55" transform="translate(777.109375 0)"/>
     <use xlink:href="#DejaVuSans-3" transform="translate(818.21875 0)"/>
     <use xlink:href="#DejaVuSans-18" transform="translate(850 0)"/>
     <use xlink:href="#DejaVuSans-3" transform="translate(913.625 0)"/>
     <use xlink:href="#DejaVuSans-48" transform="translate(945.40625 0)"/>
     <use xlink:href="#DejaVuSans-54" transform="translate(1006.9375 0)"/>
     <use xlink:href="#DejaVuSans-58" transform="translate(1070.421875 0)"/>
     <use xlink:href="#DejaVuSans-44" transform="translate(1133.796875 0)"/>
     <use xlink:href="#DejaVuSans-57" transform="translate(1195.078125 0)"/>
     <use xlink:href="#DejaVuSans-4c" transform="translate(1234.28125 0)"/>
     <use xlink:href="#DejaVuSans-52" transform="translate(1262.0625 0)"/>
     <use xlink:href="#DejaVuSans-51" transform="translate(1323.25 0)"/>
     <use xlink:href="#DejaVuSans-56" transform="translate(1386.625 0)"/>
    </g>
   </g>
  </g>
  <g id="axes_2">
   <g id="patch_7">
    <path d="M 453.034091 299.518125 
L 808.125 299.518125 
L 808.125 22.318125 
L 453.034091 22.318125 
L 453.034091 299.518125 
z
" style="fill: none"/>
   </g>
   <g id="matplotlib.axis_3">
    <g id="xtick_7">
     <g id="line2d_22">
      <g>
       <use xlink:href="#m78e923ccdd" x="453.034091" y="299.518125" style="stroke: #000000; stroke-width: 0.8"/>
      </g>
     </g>
     <g id="text_22">
      <!-- 2 -->
      <g transform="translate(449.852841 314.115781) scale(0.1 -0.1)">
       <use xlink:href="#DejaVuSans-15"/>
      </g>
     </g>
    </g>
    <g id="xtick_8">
     <g id="line2d_23">
      <g>
       <use xlink:href="#m78e923ccdd" x="517.596074" y="299.518125" style="stroke: #000000; stroke-width: 0.8"/>
      </g>
     </g>
     <g id="text_23">
      <!-- 4 -->
      <g transform="translate(514.414824 314.115781) scale(0.1 -0.1)">
       <use xlink:href="#DejaVuSans-17"/>
      </g>
     </g>
    </g>
    <g id="xtick_9">
     <g id="line2d_24">
      <g>
       <use xlink:href="#m78e923ccdd" x="582.158058" y="299.518125" style="stroke: #000000; stroke-width: 0.8"/>
      </g>
     </g>
     <g id="text_24">
      <!-- 6 -->
      <g transform="translate(578.976808 314.115781) scale(0.1 -0.1)">
       <use xlink:href="#DejaVuSans-19"/>
      </g>
     </g>
    </g>
    <g id="xtick_10">
     <g id="line2d_25">
      <g>
       <use xlink:href="#m78e923ccdd" x="646.720041" y="299.518125" style="stroke: #000000; stroke-width: 0.8"/>
      </g>
     </g>
     <g id="text_25">
      <!-- 8 -->
      <g transform="translate(643.538791 314.115781) scale(0.1 -0.1)">
       <defs>
        <path id="DejaVuSans-1b" d="M 2034 2216 
Q 1584 2216 1326 1975 
Q 1069 1734 1069 1313 
Q 1069 891 1326 650 
Q 1584 409 2034 409 
Q 2484 409 2743 651 
Q 3003 894 3003 1313 
Q 3003 1734 2745 1975 
Q 2488 2216 2034 2216 
z
M 1403 2484 
Q 997 2584 770 2862 
Q 544 3141 544 3541 
Q 544 4100 942 4425 
Q 1341 4750 2034 4750 
Q 2731 4750 3128 4425 
Q 3525 4100 3525 3541 
Q 3525 3141 3298 2862 
Q 3072 2584 2669 2484 
Q 3125 2378 3379 2068 
Q 3634 1759 3634 1313 
Q 3634 634 3220 271 
Q 2806 -91 2034 -91 
Q 1263 -91 848 271 
Q 434 634 434 1313 
Q 434 1759 690 2068 
Q 947 2378 1403 2484 
z
M 1172 3481 
Q 1172 3119 1398 2916 
Q 1625 2713 2034 2713 
Q 2441 2713 2670 2916 
Q 2900 3119 2900 3481 
Q 2900 3844 2670 4047 
Q 2441 4250 2034 4250 
Q 1625 4250 1398 4047 
Q 1172 3844 1172 3481 
z
" transform="scale(0.015625)"/>
       </defs>
       <use xlink:href="#DejaVuSans-1b"/>
      </g>
     </g>
    </g>
    <g id="xtick_11">
     <g id="line2d_26">
      <g>
       <use xlink:href="#m78e923ccdd" x="711.282025" y="299.518125" style="stroke: #000000; stroke-width: 0.8"/>
      </g>
     </g>
     <g id="text_26">
      <!-- 10 -->
      <g transform="translate(704.919525 314.115781) scale(0.1 -0.1)">
       <use xlink:href="#DejaVuSans-14"/>
       <use xlink:href="#DejaVuSans-13" transform="translate(63.625 0)"/>
      </g>
     </g>
    </g>
    <g id="xtick_12">
     <g id="line2d_27">
      <g>
       <use xlink:href="#m78e923ccdd" x="775.844008" y="299.518125" style="stroke: #000000; stroke-width: 0.8"/>
      </g>
     </g>
     <g id="text_27">
      <!-- 12 -->
      <g transform="translate(769.481508 314.115781) scale(0.1 -0.1)">
       <use xlink:href="#DejaVuSans-14"/>
       <use xlink:href="#DejaVuSans-15" transform="translate(63.625 0)"/>
      </g>
     </g>
    </g>
   </g>
   <g id="matplotlib.axis_4">
    <g id="ytick_9">
     <g id="line2d_28">
      <g>
       <use xlink:href="#m4e5dea374d" x="453.034091" y="299.518125" style="stroke: #000000; stroke-width: 0.8"/>
      </g>
     </g>
     <g id="text_28">
      <!-- 0 -->
      <g transform="translate(439.671591 303.316953) scale(0.1 -0.1)">
       <use xlink:href="#DejaVuSans-13"/>
      </g>
     </g>
    </g>
    <g id="ytick_10">
     <g id="line2d_29">
      <g>
       <use xlink:href="#m4e5dea374d" x="453.034091" y="264.868125" style="stroke: #000000; stroke-width: 0.8"/>
      </g>
     </g>
     <g id="text_29">
      <!-- 2 -->
      <g transform="translate(439.671591 268.666953) scale(0.1 -0.1)">
       <use xlink:href="#DejaVuSans-15"/>
      </g>
     </g>
    </g>
    <g id="ytick_11">
     <g id="line2d_30">
      <g>
       <use xlink:href="#m4e5dea374d" x="453.034091" y="230.218125" style="stroke: #000000; stroke-width: 0.8"/>
      </g>
     </g>
     <g id="text_30">
      <!-- 4 -->
      <g transform="translate(439.671591 234.016953) scale(0.1 -0.1)">
       <use xlink:href="#DejaVuSans-17"/>
      </g>
     </g>
    </g>
    <g id="ytick_12">
     <g id="line2d_31">
      <g>
       <use xlink:href="#m4e5dea374d" x="453.034091" y="195.568125" style="stroke: #000000; stroke-width: 0.8"/>
      </g>
     </g>
     <g id="text_31">
      <!-- 6 -->
      <g transform="translate(439.671591 199.366953) scale(0.1 -0.1)">
       <use xlink:href="#DejaVuSans-19"/>
      </g>
     </g>
    </g>
    <g id="ytick_13">
     <g id="line2d_32">
      <g>
       <use xlink:href="#m4e5dea374d" x="453.034091" y="160.918125" style="stroke: #000000; stroke-width: 0.8"/>
      </g>
     </g>
     <g id="text_32">
      <!-- 8 -->
      <g transform="translate(439.671591 164.716953) scale(0.1 -0.1)">
       <use xlink:href="#DejaVuSans-1b"/>
      </g>
     </g>
    </g>
    <g id="ytick_14">
     <g id="line2d_33">
      <g>
       <use xlink:href="#m4e5dea374d" x="453.034091" y="126.268125" style="stroke: #000000; stroke-width: 0.8"/>
      </g>
     </g>
     <g id="text_33">
      <!-- 10 -->
      <g transform="translate(433.309091 130.066953) scale(0.1 -0.1)">
       <use xlink:href="#DejaVuSans-14"/>
       <use xlink:href="#DejaVuSans-13" transform="translate(63.625 0)"/>
      </g>
     </g>
    </g>
    <g id="ytick_15">
     <g id="line2d_34">
      <g>
       <use xlink:href="#m4e5dea374d" x="453.034091" y="91.618125" style="stroke: #000000; stroke-width: 0.8"/>
      </g>
     </g>
     <g id="text_34">
      <!-- 12 -->
      <g transform="translate(433.309091 95.416953) scale(0.1 -0.1)">
       <use xlink:href="#DejaVuSans-14"/>
       <use xlink:href="#DejaVuSans-15" transform="translate(63.625 0)"/>
      </g>
     </g>
    </g>
    <g id="ytick_16">
     <g id="line2d_35">
      <g>
       <use xlink:href="#m4e5dea374d" x="453.034091" y="56.968125" style="stroke: #000000; stroke-width: 0.8"/>
      </g>
     </g>
     <g id="text_35">
      <!-- 14 -->
      <g transform="translate(433.309091 60.766953) scale(0.1 -0.1)">
       <use xlink:href="#DejaVuSans-14"/>
       <use xlink:href="#DejaVuSans-17" transform="translate(63.625 0)"/>
      </g>
     </g>
    </g>
    <g id="ytick_17">
     <g id="line2d_36">
      <g>
       <use xlink:href="#m4e5dea374d" x="453.034091" y="22.318125" style="stroke: #000000; stroke-width: 0.8"/>
      </g>
     </g>
     <g id="text_36">
      <!-- 16 -->
      <g transform="translate(433.309091 26.116953) scale(0.1 -0.1)">
       <use xlink:href="#DejaVuSans-14"/>
       <use xlink:href="#DejaVuSans-19" transform="translate(63.625 0)"/>
      </g>
     </g>
    </g>
   </g>
   <g id="line2d_37">
    <path d="M 420.753099 299.518125 
L 423.922976 294.83566 
L 427.092853 290.554478 
L 430.26273 286.611196 
L 433.432607 282.956355 
L 436.602484 279.550619 
L 439.772361 276.362187 
L 442.942238 273.364984 
L 446.112115 270.537363 
L 452.451869 265.320976 
L 458.791623 260.597851 
L 465.131376 256.28271 
L 471.47113 252.310638 
L 477.810884 248.63108 
L 484.150638 245.203892 
L 490.490392 241.996667 
L 496.830146 238.982864 
L 506.339777 234.777676 
L 515.849407 230.898949 
L 525.359038 227.299628 
L 534.868669 223.942148 
L 544.3783 220.796048 
L 557.057808 216.887391 
L 569.737316 213.262313 
L 582.416823 209.882433 
L 595.096331 206.716673 
L 610.945716 203.022123 
L 626.795101 199.581935 
L 642.644485 196.363327 
L 661.663747 192.756051 
L 680.683009 189.391652 
L 699.70227 186.239476 
L 721.891409 182.7968 
L 744.080547 179.576015 
L 769.439563 176.13256 
L 794.798579 172.911095 
L 816.325 170.330747 
L 816.325 170.330747 
" clip-path="url(#pb2cdb2e804)" style="fill: none; stroke-dasharray: 1.5,2.475; stroke-dashoffset: 0; stroke: #808080; stroke-width: 1.5"/>
   </g>
   <g id="line2d_38">
    <path d="M 420.753099 290.855625 
L 816.325 184.705181 
L 816.325 184.705181 
" clip-path="url(#pb2cdb2e804)" style="fill: none; stroke-dasharray: 1.5,2.475; stroke-dashoffset: 0; stroke: #000000; stroke-width: 1.5"/>
   </g>
   <g id="line2d_39">
    <path d="M 420.753099 282.193125 
L 816.325 69.892238 
L 816.325 69.892238 
" clip-path="url(#pb2cdb2e804)" style="fill: none; stroke-dasharray: 5.55,2.4; stroke-dashoffset: 0; stroke: #808080; stroke-width: 1.5"/>
   </g>
   <g id="line2d_40">
    <path d="M 420.753099 299.518125 
L 427.092853 298.17762 
L 433.432607 296.634751 
L 439.772361 294.91826 
L 449.281992 292.063829 
L 458.791623 288.920345 
L 468.301253 285.527158 
L 477.810884 281.914165 
L 487.320515 278.104858 
L 500.000023 272.752656 
L 512.679531 267.120812 
L 525.359038 261.23798 
L 538.038546 255.127477 
L 550.718054 248.808653 
L 566.567439 240.641793 
L 582.416823 232.201541 
L 598.266208 223.510288 
L 614.115593 214.587037 
L 633.134854 203.595725 
L 652.154116 192.317929 
L 671.173378 180.774353 
L 690.192639 168.982903 
L 709.211901 156.959227 
L 731.40104 142.656402 
L 753.590178 128.075465 
L 775.779317 113.233337 
L 797.968456 98.145001 
L 816.325 85.485868 
L 816.325 85.485868 
" clip-path="url(#pb2cdb2e804)" style="fill: none; stroke-dasharray: 5.55,2.4; stroke-dashoffset: 0; stroke: #000000; stroke-width: 1.5"/>
   </g>
   <g id="line2d_41">
    <path d="M 420.753099 297.785625 
L 430.26273 296.614522 
L 439.772361 295.142717 
L 449.281992 293.37021 
L 458.791623 291.297 
L 468.301253 288.923088 
L 477.810884 286.248474 
L 487.320515 283.273157 
L 496.830146 279.997138 
L 506.339777 276.420416 
L 515.849407 272.542993 
L 525.359038 268.364866 
L 534.868669 263.886038 
L 544.3783 259.106507 
L 553.887931 254.026274 
L 563.397562 248.645338 
L 572.907192 242.963701 
L 582.416823 236.98136 
L 591.926454 230.698318 
L 601.436085 224.114573 
L 610.945716 217.230126 
L 620.455347 210.044976 
L 629.964977 202.559124 
L 639.474608 194.77257 
L 648.984239 186.685313 
L 658.49387 178.297354 
L 668.003501 169.608693 
L 677.513132 160.619329 
L 687.022762 151.329263 
L 696.532393 141.738495 
L 706.042024 131.847024 
L 715.551655 121.654851 
L 725.061286 111.161975 
L 734.570917 100.368398 
L 744.080547 89.274118 
L 753.590178 77.879135 
L 763.099809 66.18345 
L 772.60944 54.187063 
L 782.119071 41.889974 
L 791.628702 29.292182 
L 801.138332 16.393688 
L 810.647963 3.194491 
L 813.624759 -1 
L 813.624759 -1 
" clip-path="url(#pb2cdb2e804)" style="fill: none; stroke: #808080; stroke-width: 1.5; stroke-linecap: square"/>
   </g>
   <g id="line2d_42">
    <path d="M 420.753099 297.785625 
L 436.602484 297.083268 
L 449.281992 296.321337 
L 461.961499 295.32098 
L 471.47113 294.370176 
L 480.980761 293.203983 
L 490.490392 291.773604 
L 496.830146 290.644222 
L 503.1699 289.350142 
L 509.509654 287.867347 
L 515.849407 286.168317 
L 522.189161 284.221516 
L 528.528915 281.990815 
L 534.868669 279.43481 
L 541.208423 276.506064 
L 547.548177 273.15022 
L 550.718054 271.293012 
L 553.887931 269.304993 
L 557.057808 267.176949 
L 560.227685 264.899017 
L 563.397562 262.460641 
L 566.567439 259.850519 
L 569.737316 257.056555 
L 572.907192 254.065799 
L 576.077069 250.864392 
L 579.246946 247.437495 
L 582.416823 243.769227 
L 585.5867 239.842586 
L 588.756577 235.639375 
L 591.926454 231.140114 
L 595.096331 226.323949 
L 598.266208 221.168561 
L 601.436085 215.650056 
L 604.605962 209.742858 
L 607.775839 203.41959 
L 610.945716 196.650947 
L 614.115593 189.405559 
L 617.28547 181.649845 
L 620.455347 173.347863 
L 623.625224 164.461136 
L 626.795101 154.948477 
L 629.964977 144.7658 
L 633.134854 133.865912 
L 636.304731 122.198297 
L 639.474608 109.70888 
L 642.644485 96.339778 
L 645.814362 82.029032 
L 648.984239 66.710317 
L 652.154116 50.312638 
L 655.323993 32.759997 
L 658.49387 13.971047 
L 660.853435 -1 
L 660.853435 -1 
" clip-path="url(#pb2cdb2e804)" style="fill: none; stroke: #000000; stroke-width: 1.5; stroke-linecap: square"/>
   </g>
   <g id="patch_8">
    <path d="M 453.034091 299.518125 
L 453.034091 22.318125 
" style="fill: none; stroke: #000000; stroke-width: 0.8; stroke-linejoin: miter; stroke-linecap: square"/>
   </g>
   <g id="patch_9">
    <path d="M 808.125 299.518125 
L 808.125 22.318125 
" style="fill: none; stroke: #000000; stroke-width: 0.8; stroke-linejoin: miter; stroke-linecap: square"/>
   </g>
   <g id="patch_10">
    <path d="M 453.034091 299.518125 
L 808.125 299.518125 
" style="fill: none; stroke: #000000; stroke-width: 0.8; stroke-linejoin: miter; stroke-linecap: square"/>
   </g>
   <g id="patch_11">
    <path d="M 453.034091 22.318125 
L 808.125 22.318125 
" style="fill: none; stroke: #000000; stroke-width: 0.8; stroke-linejoin: miter; stroke-linecap: square"/>
   </g>
   <g id="text_37">
    <!-- 2·log₂(n) -->
    <g transform="translate(759.703512 164.972578) scale(0.1 -0.1)">
     <use xlink:href="#DejaVuSans-15"/>
     <use xlink:href="#DejaVuSans-79" transform="translate(63.625 0)"/>
     <use xlink:href="#DejaVuSans-4f" transform="translate(95.40625 0)"/>
     <use xlink:href="#DejaVuSans-52" transform="translate(123.1875 0)"/>
     <use xlink:href="#DejaVuSans-4a" transform="translate(184.375 0)"/>
     <use xlink:href="#DejaVuSans-b5d" transform="translate(247.859375 0)"/>
     <use xlink:href="#DejaVuSans-b" transform="translate(287.953125 0)"/>
     <use xlink:href="#DejaVuSans-51" transform="translate(326.96875 0)"/>
     <use xlink:href="#DejaVuSans-c" transform="translate(390.34375 0)"/>
    </g>
   </g>
   <g id="text_38">
    <!-- n/2 -->
    <g transform="translate(782.300207 198.863) scale(0.1 -0.1)">
     <use xlink:href="#DejaVuSans-51"/>
     <use xlink:href="#DejaVuSans-12" transform="translate(63.375 0)"/>
     <use xlink:href="#DejaVuSans-15" transform="translate(97.0625 0)"/>
    </g>
   </g>
   <g id="text_39">
    <!-- n -->
    <g transform="translate(788.756405 61.030299) scale(0.1 -0.1)">
     <use xlink:href="#DejaVuSans-51"/>
    </g>
   </g>
   <g id="text_40">
    <!-- n·log₂(n)/4 -->
    <g transform="translate(753.247314 119.62523) scale(0.1 -0.1)">
     <use xlink:href="#DejaVuSans-51"/>
     <use xlink:href="#DejaVuSans-79" transform="translate(63.375 0)"/>
     <use xlink:href="#DejaVuSans-4f" transform="translate(95.15625 0)"/>
     <use xlink:href="#DejaVuSans-52" transform="translate(122.9375 0)"/>
     <use xlink:href="#DejaVuSans-4a" transform="translate(184.125 0)"/>
     <use xlink:href="#DejaVuSans-b5d" transform="translate(247.609375 0)"/>
     <use xlink:href="#DejaVuSans-b" transform="translate(287.703125 0)"/>
     <use xlink:href="#DejaVuSans-51" transform="translate(326.71875 0)"/>
     <use xlink:href="#DejaVuSans-c" transform="translate(390.09375 0)"/>
     <use xlink:href="#DejaVuSans-12" transform="translate(429.109375 0)"/>
     <use xlink:href="#DejaVuSans-17" transform="translate(462.796875 0)"/>
    </g>
   </g>
   <g id="text_41">
    <!-- n²/10 -->
    <g transform="translate(750.019215 39.643125) scale(0.1 -0.1)">
     <use xlink:href="#DejaVuSans-51"/>
     <use xlink:href="#DejaVuSans-74" transform="translate(63.375 0)"/>
     <use xlink:href="#DejaVuSans-12" transform="translate(103.46875 0)"/>
     <use xlink:href="#DejaVuSans-14" transform="translate(137.15625 0)"/>
     <use xlink:href="#DejaVuSans-13" transform="translate(200.78125 0)"/>
    </g>
   </g>
   <g id="text_42">
    <!-- 2ⁿ/20 -->
    <g transform="translate(620.895248 39.643125) scale(0.1 -0.1)">
     <use xlink:href="#DejaVuSans-15"/>
     <use xlink:href="#DejaVuSans-b5a" transform="translate(63.625 0)"/>
     <use xlink:href="#DejaVuSans-12" transform="translate(103.46875 0)"/>
     <use xlink:href="#DejaVuSans-15" transform="translate(137.15625 0)"/>
     <use xlink:href="#DejaVuSans-13" transform="translate(200.78125 0)"/>
    </g>
   </g>
   <g id="text_43">
    <!-- Zoomed in -->
    <g transform="translate(598.405483 16.318125) scale(0.12 -0.12)">
     <defs>
      <path id="DejaVuSans-3d" d="M 359 4666 
L 4025 4666 
L 4025 4184 
L 1075 531 
L 4097 531 
L 4097 0 
L 288 0 
L 288 481 
L 3238 4134 
L 359 4134 
L 359 4666 
z
" transform="scale(0.015625)"/>
      <path id="DejaVuSans-50" d="M 3328 2828 
Q 3544 3216 3844 3400 
Q 4144 3584 4550 3584 
Q 5097 3584 5394 3201 
Q 5691 2819 5691 2113 
L 5691 0 
L 5113 0 
L 5113 2094 
Q 5113 2597 4934 2840 
Q 4756 3084 4391 3084 
Q 3944 3084 3684 2787 
Q 3425 2491 3425 1978 
L 3425 0 
L 2847 0 
L 2847 2094 
Q 2847 2600 2669 2842 
Q 2491 3084 2119 3084 
Q 1678 3084 1418 2786 
Q 1159 2488 1159 1978 
L 1159 0 
L 581 0 
L 581 3500 
L 1159 3500 
L 1159 2956 
Q 1356 3278 1631 3431 
Q 1906 3584 2284 3584 
Q 2666 3584 2933 3390 
Q 3200 3197 3328 2828 
z
" transform="scale(0.015625)"/>
      <path id="DejaVuSans-47" d="M 2906 2969 
L 2906 4863 
L 3481 4863 
L 3481 0 
L 2906 0 
L 2906 525 
Q 2725 213 2448 61 
Q 2172 -91 1784 -91 
Q 1150 -91 751 415 
Q 353 922 353 1747 
Q 353 2572 751 3078 
Q 1150 3584 1784 3584 
Q 2172 3584 2448 3432 
Q 2725 3281 2906 2969 
z
M 947 1747 
Q 947 1113 1208 752 
Q 1469 391 1925 391 
Q 2381 391 2643 752 
Q 2906 1113 2906 1747 
Q 2906 2381 2643 2742 
Q 2381 3103 1925 3103 
Q 1469 3103 1208 2742 
Q 947 2381 947 1747 
z
" transform="scale(0.015625)"/>
     </defs>
     <use xlink:href="#DejaVuSans-3d"/>
     <use xlink:href="#DejaVuSans-52" transform="translate(68.5 0)"/>
     <use xlink:href="#DejaVuSans-52" transform="translate(129.6875 0)"/>
     <use xlink:href="#DejaVuSans-50" transform="translate(190.875 0)"/>
     <use xlink:href="#DejaVuSans-48" transform="translate(288.28125 0)"/>
     <use xlink:href="#DejaVuSans-47" transform="translate(349.8125 0)"/>
     <use xlink:href="#DejaVuSans-3" transform="translate(413.296875 0)"/>
     <use xlink:href="#DejaVuSans-4c" transform="translate(445.078125 0)"/>
     <use xlink:href="#DejaVuSans-51" transform="translate(472.859375 0)"/>
    </g>
   </g>
  </g>
 </g>
 <defs>
  <clipPath id="p3e09d16858">
   <rect x="26.925" y="22.318125" width="355.090909" height="277.2"/>
  </clipPath>
  <clipPath id="pb2cdb2e804">
   <rect x="453.034091" y="22.318125" width="355.090909" height="277.2"/>
  </clipPath>
 </defs>
</svg>
