<?xml version="1.0" encoding="utf-8" standalone="no"?>
<!DOCTYPE svg PUBLIC "-//W3C//DTD SVG 1.1//EN"
  "http://www.w3.org/Graphics/SVG/1.1/DTD/svg11.dtd">
<svg xmlns:xlink="http://www.w3.org/1999/xlink" width="1008pt" height="360pt" viewBox="0 0 1008 360" xmlns="http://www.w3.org/2000/svg" version="1.1">
 <metadata>
  <rdf:RDF xmlns:dc="http://purl.org/dc/elements/1.1/" xmlns:cc="http://creativecommons.org/ns#" xmlns:rdf="http://www.w3.org/1999/02/22-rdf-syntax-ns#">
   <cc:Work>
    <dc:type rdf:resource="http://purl.org/dc/dcmitype/StillImage"/>
    <dc:date>2026-06-26T13:27:35.878893</dc:date>
    <dc:format>image/svg+xml</dc:format>
    <dc:creator>
     <cc:Agent>
      <dc:title>Matplotlib v3.11.0, https://matplotlib.org/</dc:title>
     </cc:Agent>
    </dc:creator>
   </cc:Work>
  </rdf:RDF>
 </metadata>
 <defs>
  <style type="text/css">*{stroke-linejoin: round; stroke-linecap: butt}</style>
 </defs>
 <g id="figure_1">
  <g id="patch_1">
   <path d="M 0 360 
L 1008 360 
L 1008 0 
L 0 0 
L 0 360 
z
" style="fill: none"/>
  </g>
  <g id="axes_1">
   <g id="patch_2">
    <path d="M 126 320.4 
L 481.090909 320.4 
L 481.090909 43.2 
L 126 43.2 
L 126 320.4 
z
" style="fill: none"/>
   </g>
   <g id="matplotlib.axis_1">
    <g id="xtick_1">
     <g id="line2d_1">
      <defs>
       <path id="m62b4818f6e" d="M 0 0 
L 0 3.5 
" style="stroke: #000000; stroke-width: 0.8"/>
      </defs>
      <g>
       <use xlink:href="#m62b4818f6e" x="126" y="320.4" style="stroke: #000000; stroke-width: 0.8"/>
      </g>
     </g>
     <g id="text_1">
      <!-- 0 -->
      <g transform="translate(122.81875 334.997656) scale(0.1 -0.1)">
       <defs>
        <path id="DejaVuSans-13" d="M 2034 4250 
Q 1547 4250 1301 3770 
Q 1056 3291 1056 2328 
Q 1056 1369 1301 889 
Q 1547 409 2034 409 
Q 2525 409 2770 889 
Q 3016 1369 3016 2328 
Q 3016 3291 2770 3770 
Q 2525 4250 2034 4250 
z
M 2034 4750 
Q 2819 4750 3233 4129 
Q 3647 3509 3647 2328 
Q 3647 1150 3233 529 
Q 2819 -91 2034 -91 
Q 1250 -91 836 529 
Q 422 1150 422 2328 
Q 422 3509 836 4129 
Q 1250 4750 2034 4750 
z
" transform="scale(0.015625)"/>
       </defs>
       <use xlink:href="#DejaVuSans-13"/>
      </g>
     </g>
    </g>
    <g id="xtick_2">
     <g id="line2d_2">
      <g>
       <use xlink:href="#m62b4818f6e" x="197.018182" y="320.4" style="stroke: #000000; stroke-width: 0.8"/>
      </g>
     </g>
     <g id="text_2">
      <!-- 10 -->
      <g transform="translate(190.655682 334.997656) scale(0.1 -0.1)">
       <defs>
        <path id="DejaVuSans-14" d="M 794 531 
L 1825 531 
L 1825 4091 
L 703 3866 
L 703 4441 
L 1819 4666 
L 2450 4666 
L 2450 531 
L 3481 531 
L 3481 0 
L 794 0 
L 794 531 
z
" transform="scale(0.015625)"/>
       </defs>
       <use xlink:href="#DejaVuSans-14"/>
       <use xlink:href="#DejaVuSans-13" transform="translate(63.625 0)"/>
      </g>
     </g>
    </g>
    <g id="xtick_3">
     <g id="line2d_3">
      <g>
       <use xlink:href="#m62b4818f6e" x="268.036364" y="320.4" style="stroke: #000000; stroke-width: 0.8"/>
      </g>
     </g>
     <g id="text_3">
      <!-- 20 -->
      <g transform="translate(261.673864 334.997656) scale(0.1 -0.1)">
       <defs>
        <path id="DejaVuSans-15" d="M 1228 531 
L 3431 531 
L 3431 0 
L 469 0 
L 469 531 
Q 828 903 1448 1529 
Q 2069 2156 2228 2338 
Q 2531 2678 2651 2914 
Q 2772 3150 2772 3378 
Q 2772 3750 2511 3984 
Q 2250 4219 1831 4219 
Q 1534 4219 1204 4116 
Q 875 4013 500 3803 
L 500 4441 
Q 881 4594 1212 4672 
Q 1544 4750 1819 4750 
Q 2544 4750 2975 4387 
Q 3406 4025 3406 3419 
Q 3406 3131 3298 2873 
Q 3191 2616 2906 2266 
Q 2828 2175 2409 1742 
Q 1991 1309 1228 531 
z
" transform="scale(0.015625)"/>
       </defs>
       <use xlink:href="#DejaVuSans-15"/>
       <use xlink:href="#DejaVuSans-13" transform="translate(63.625 0)"/>
      </g>
     </g>
    </g>
    <g id="xtick_4">
     <g id="line2d_4">
      <g>
       <use xlink:href="#m62b4818f6e" x="339.054545" y="320.4" style="stroke: #000000; stroke-width: 0.8"/>
      </g>
     </g>
     <g id="text_4">
      <!-- 30 -->
      <g transform="translate(332.692045 334.997656) scale(0.1 -0.1)">
       <defs>
        <path id="DejaVuSans-16" d="M 2597 2516 
Q 3050 2419 3304 2112 
Q 3559 1806 3559 1356 
Q 3559 666 3084 287 
Q 2609 -91 1734 -91 
Q 1441 -91 1130 -33 
Q 819 25 488 141 
L 488 750 
Q 750 597 1062 519 
Q 1375 441 1716 441 
Q 2309 441 2620 675 
Q 2931 909 2931 1356 
Q 2931 1769 2642 2001 
Q 2353 2234 1838 2234 
L 1294 2234 
L 1294 2753 
L 1863 2753 
Q 2328 2753 2575 2939 
Q 2822 3125 2822 3475 
Q 2822 3834 2567 4026 
Q 2313 4219 1838 4219 
Q 1578 4219 1281 4162 
Q 984 4106 628 3988 
L 628 4550 
Q 988 4650 1302 4700 
Q 1616 4750 1894 4750 
Q 2613 4750 3031 4423 
Q 3450 4097 3450 3541 
Q 3450 3153 3228 2886 
Q 3006 2619 2597 2516 
z
" transform="scale(0.015625)"/>
       </defs>
       <use xlink:href="#DejaVuSans-16"/>
       <use xlink:href="#DejaVuSans-13" transform="translate(63.625 0)"/>
      </g>
     </g>
    </g>
    <g id="xtick_5">
     <g id="line2d_5">
      <g>
       <use xlink:href="#m62b4818f6e" x="410.072727" y="320.4" style="stroke: #000000; stroke-width: 0.8"/>
      </g>
     </g>
     <g id="text_5">
      <!-- 40 -->
      <g transform="translate(403.710227 334.997656) scale(0.1 -0.1)">
       <defs>
        <path id="DejaVuSans-17" d="M 2419 4116 
L 825 1625 
L 2419 1625 
L 2419 4116 
z
M 2253 4666 
L 3047 4666 
L 3047 1625 
L 3713 1625 
L 3713 1100 
L 3047 1100 
L 3047 0 
L 2419 0 
L 2419 1100 
L 313 1100 
L 313 1709 
L 2253 4666 
z
" transform="scale(0.015625)"/>
       </defs>
       <use xlink:href="#DejaVuSans-17"/>
       <use xlink:href="#DejaVuSans-13" transform="translate(63.625 0)"/>
      </g>
     </g>
    </g>
    <g id="xtick_6">
     <g id="line2d_6">
      <g>
       <use xlink:href="#m62b4818f6e" x="481.090909" y="320.4" style="stroke: #000000; stroke-width: 0.8"/>
      </g>
     </g>
     <g id="text_6">
      <!-- 50 -->
      <g transform="translate(474.728409 334.997656) scale(0.1 -0.1)">
       <defs>
        <path id="DejaVuSans-18" d="M 691 4666 
L 3169 4666 
L 3169 4134 
L 1269 4134 
L 1269 2991 
Q 1406 3038 1543 3061 
Q 1681 3084 1819 3084 
Q 2600 3084 3056 2656 
Q 3513 2228 3513 1497 
Q 3513 744 3044 326 
Q 2575 -91 1722 -91 
Q 1428 -91 1123 -41 
Q 819 9 494 109 
L 494 744 
Q 775 591 1075 516 
Q 1375 441 1709 441 
Q 2250 441 2565 725 
Q 2881 1009 2881 1497 
Q 2881 1984 2565 2268 
Q 2250 2553 1709 2553 
Q 1456 2553 1204 2497 
Q 953 2441 691 2322 
L 691 4666 
z
" transform="scale(0.015625)"/>
       </defs>
       <use xlink:href="#DejaVuSans-18"/>
       <use xlink:href="#DejaVuSans-13" transform="translate(63.625 0)"/>
      </g>
     </g>
    </g>
   </g>
   <g id="matplotlib.axis_2">
    <g id="ytick_1">
     <g id="line2d_7">
      <defs>
       <path id="m5742b5a1c3" d="M 0 0 
L -3.5 0 
" style="stroke: #000000; stroke-width: 0.8"/>
      </defs>
      <g>
       <use xlink:href="#m5742b5a1c3" x="126" y="320.4" style="stroke: #000000; stroke-width: 0.8"/>
      </g>
     </g>
     <g id="text_7">
      <!-- 0 -->
      <g transform="translate(112.6375 324.198828) scale(0.1 -0.1)">
       <use xlink:href="#DejaVuSans-13"/>
      </g>
     </g>
    </g>
    <g id="ytick_2">
     <g id="line2d_8">
      <g>
       <use xlink:href="#m5742b5a1c3" x="126" y="280.8" style="stroke: #000000; stroke-width: 0.8"/>
      </g>
     </g>
     <g id="text_8">
      <!-- 10 -->
      <g transform="translate(106.275 284.598828) scale(0.1 -0.1)">
       <use xlink:href="#DejaVuSans-14"/>
       <use xlink:href="#DejaVuSans-13" transform="translate(63.625 0)"/>
      </g>
     </g>
    </g>
    <g id="ytick_3">
     <g id="line2d_9">
      <g>
       <use xlink:href="#m5742b5a1c3" x="126" y="241.2" style="stroke: #000000; stroke-width: 0.8"/>
      </g>
     </g>
     <g id="text_9">
      <!-- 20 -->
      <g transform="translate(106.275 244.998828) scale(0.1 -0.1)">
       <use xlink:href="#DejaVuSans-15"/>
       <use xlink:href="#DejaVuSans-13" transform="translate(63.625 0)"/>
      </g>
     </g>
    </g>
    <g id="ytick_4">
     <g id="line2d_10">
      <g>
       <use xlink:href="#m5742b5a1c3" x="126" y="201.6" style="stroke: #000000; stroke-width: 0.8"/>
      </g>
     </g>
     <g id="text_10">
      <!-- 30 -->
      <g transform="translate(106.275 205.398828) scale(0.1 -0.1)">
       <use xlink:href="#DejaVuSans-16"/>
       <use xlink:href="#DejaVuSans-13" transform="translate(63.625 0)"/>
      </g>
     </g>
    </g>
    <g id="ytick_5">
     <g id="line2d_11">
      <g>
       <use xlink:href="#m5742b5a1c3" x="126" y="162" style="stroke: #000000; stroke-width: 0.8"/>
      </g>
     </g>
     <g id="text_11">
      <!-- 40 -->
      <g transform="translate(106.275 165.798828) scale(0.1 -0.1)">
       <use xlink:href="#DejaVuSans-17"/>
       <use xlink:href="#DejaVuSans-13" transform="translate(63.625 0)"/>
      </g>
     </g>
    </g>
    <g id="ytick_6">
     <g id="line2d_12">
      <g>
       <use xlink:href="#m5742b5a1c3" x="126" y="122.4" style="stroke: #000000; stroke-width: 0.8"/>
      </g>
     </g>
     <g id="text_12">
      <!-- 50 -->
      <g transform="translate(106.275 126.198828) scale(0.1 -0.1)">
       <use xlink:href="#DejaVuSans-18"/>
       <use xlink:href="#DejaVuSans-13" transform="translate(63.625 0)"/>
      </g>
     </g>
    </g>
    <g id="ytick_7">
     <g id="line2d_13">
      <g>
       <use xlink:href="#m5742b5a1c3" x="126" y="82.8" style="stroke: #000000; stroke-width: 0.8"/>
      </g>
     </g>
     <g id="text_13">
      <!-- 60 -->
      <g transform="translate(106.275 86.598828) scale(0.1 -0.1)">
       <defs>
        <path id="DejaVuSans-19" d="M 2113 2584 
Q 1688 2584 1439 2293 
Q 1191 2003 1191 1497 
Q 1191 994 1439 701 
Q 1688 409 2113 409 
Q 2538 409 2786 701 
Q 3034 994 3034 1497 
Q 3034 2003 2786 2293 
Q 2538 2584 2113 2584 
z
M 3366 4563 
L 3366 3988 
Q 3128 4100 2886 4159 
Q 2644 4219 2406 4219 
Q 1781 4219 1451 3797 
Q 1122 3375 1075 2522 
Q 1259 2794 1537 2939 
Q 1816 3084 2150 3084 
Q 2853 3084 3261 2657 
Q 3669 2231 3669 1497 
Q 3669 778 3244 343 
Q 2819 -91 2113 -91 
Q 1303 -91 875 529 
Q 447 1150 447 2328 
Q 447 3434 972 4092 
Q 1497 4750 2381 4750 
Q 2619 4750 2861 4703 
Q 3103 4656 3366 4563 
z
" transform="scale(0.015625)"/>
       </defs>
       <use xlink:href="#DejaVuSans-19"/>
       <use xlink:href="#DejaVuSans-13" transform="translate(63.625 0)"/>
      </g>
     </g>
    </g>
    <g id="ytick_8">
     <g id="line2d_14">
      <g>
       <use xlink:href="#m5742b5a1c3" x="126" y="43.2" style="stroke: #000000; stroke-width: 0.8"/>
      </g>
     </g>
     <g id="text_14">
      <!-- 70 -->
      <g transform="translate(106.275 46.998828) scale(0.1 -0.1)">
       <defs>
        <path id="DejaVuSans-1a" d="M 525 4666 
L 3525 4666 
L 3525 4397 
L 1831 0 
L 1172 0 
L 2766 4134 
L 525 4134 
L 525 4666 
z
" transform="scale(0.015625)"/>
       </defs>
       <use xlink:href="#DejaVuSans-1a"/>
       <use xlink:href="#DejaVuSans-13" transform="translate(63.625 0)"/>
      </g>
     </g>
    </g>
   </g>
   <g id="line2d_15">
    <path d="M 133.101818 320.4 
L 134.496564 318.351166 
L 135.89131 316.614453 
L 137.983429 314.422139 
L 140.075547 312.583509 
L 142.167666 311.000139 
L 144.957158 309.18146 
L 147.74665 307.6129 
L 151.233514 305.91368 
L 155.417752 304.160621 
L 159.601989 302.641092 
L 164.4836 301.091171 
L 170.062583 299.544313 
L 176.33894 298.022717 
L 184.010042 296.402065 
L 192.378517 294.862308 
L 202.141738 293.294377 
L 213.299705 291.731846 
L 225.852418 290.196787 
L 240.497249 288.633033 
L 257.234199 287.074133 
L 276.760641 285.489213 
L 299.076575 283.91194 
L 324.182 282.36425 
L 353.471663 280.789272 
L 386.945564 279.22062 
L 425.301075 277.653659 
L 469.235569 276.088655 
L 481.090909 275.700659 
L 481.090909 275.700659 
" clip-path="url(#p1ad9f6c1a6)" style="fill: none; stroke-dasharray: 1.5,2.475; stroke-dashoffset: 0; stroke: #808080; stroke-width: 1.5"/>
   </g>
   <g id="line2d_16">
    <path d="M 133.101818 318.42 
L 481.090909 221.4 
L 481.090909 221.4 
" clip-path="url(#p1ad9f6c1a6)" style="fill: none; stroke-dasharray: 1.5,2.475; stroke-dashoffset: 0; stroke: #000000; stroke-width: 1.5"/>
   </g>
   <g id="line2d_17">
    <path d="M 133.101818 316.44 
L 481.090909 122.4 
L 481.090909 122.4 
" clip-path="url(#p1ad9f6c1a6)" style="fill: none; stroke-dasharray: 5.55,2.4; stroke-dashoffset: 0; stroke: #808080; stroke-width: 1.5"/>
   </g>
   <g id="line2d_18">
    <path d="M 133.101818 320.4 
L 135.89131 319.740943 
L 139.378175 318.696161 
L 143.562412 317.202065 
L 148.444023 315.206107 
L 154.023006 312.66389 
L 160.299362 309.53712 
L 167.273092 305.792184 
L 174.944194 301.399155 
L 183.312669 296.331066 
L 192.378517 290.563378 
L 202.141738 284.073576 
L 212.602332 276.840862 
L 223.760299 268.845905 
L 235.615639 260.070648 
L 248.168351 250.498149 
L 261.418437 240.112449 
L 275.365895 228.898462 
L 290.010727 216.841887 
L 305.352931 203.929124 
L 322.089882 189.541829 
L 339.524205 174.249532 
L 357.655901 158.041828 
L 376.48497 140.908644 
L 396.011412 122.84022 
L 416.235227 103.827096 
L 437.853788 83.189551 
L 460.169721 61.570112 
L 481.090909 41.029119 
L 481.090909 41.029119 
" clip-path="url(#p1ad9f6c1a6)" style="fill: none; stroke-dasharray: 5.55,2.4; stroke-dashoffset: 0; stroke: #000000; stroke-width: 1.5"/>
   </g>
   <g id="line2d_19">
    <path d="M 133.101818 320.004 
L 136.588683 319.519681 
L 140.075547 318.84444 
L 143.562412 317.978277 
L 147.74665 316.686864 
L 151.930887 315.120524 
L 156.115125 313.279255 
L 160.299362 311.163059 
L 164.4836 308.771935 
L 168.667837 306.105882 
L 172.852075 303.164902 
L 177.036313 299.948995 
L 181.22055 296.458159 
L 185.404788 292.692395 
L 189.589025 288.651704 
L 193.773263 284.336084 
L 198.654873 278.953717 
L 203.536484 273.197142 
L 208.418094 267.06636 
L 213.299705 260.561371 
L 218.181315 253.682174 
L 223.062926 246.428769 
L 227.944536 238.801158 
L 232.826147 230.799339 
L 238.40513 221.19619 
L 243.984114 211.10428 
L 249.563097 200.52361 
L 255.142081 189.454179 
L 260.721064 177.895987 
L 266.300047 165.849035 
L 271.879031 153.313322 
L 278.155387 138.626423 
L 284.431743 123.320936 
L 290.7081 107.396862 
L 296.984456 90.854201 
L 303.260813 73.692951 
L 309.537169 55.913114 
L 315.813525 37.514689 
L 322.787255 16.346491 
L 328.32276 -1 
L 328.32276 -1 
" clip-path="url(#p1ad9f6c1a6)" style="fill: none; stroke: #808080; stroke-width: 1.5; stroke-linecap: square"/>
   </g>
   <g id="line2d_20">
    <path d="M 133.101818 320.004 
L 140.075547 319.61784 
L 144.957158 319.140448 
L 149.141396 318.505142 
L 152.62826 317.736965 
L 155.417752 316.903632 
L 158.207244 315.809528 
L 160.299362 314.769622 
L 162.391481 313.494141 
L 164.4836 311.929718 
L 166.575719 310.010897 
L 168.667837 307.657395 
L 170.062583 305.799143 
L 171.457329 303.669903 
L 172.852075 301.230156 
L 174.246821 298.434621 
L 175.641567 295.231413 
L 177.036313 291.561083 
L 178.431058 287.355509 
L 179.825804 282.536637 
L 181.22055 277.01503 
L 182.615296 270.688207 
L 184.010042 263.438746 
L 185.404788 255.132096 
L 186.799534 245.61409 
L 188.194279 234.708074 
L 189.589025 222.211637 
L 190.983771 207.892846 
L 192.378517 191.485948 
L 193.773263 172.686435 
L 195.168009 151.145393 
L 196.562755 126.463025 
L 197.9575 98.181231 
L 199.352246 65.775109 
L 200.746992 28.643207 
L 201.732655 -1 
L 201.732655 -1 
" clip-path="url(#p1ad9f6c1a6)" style="fill: none; stroke: #000000; stroke-width: 1.5; stroke-linecap: square"/>
   </g>
   <g id="line2d_21">
    <path d="M 140.203636 320.4 
L 140.203636 257.04 
L 218.323636 257.04 
L 218.323636 320.4 
" clip-path="url(#p1ad9f6c1a6)" style="fill: none; stroke-dasharray: 1.5,2.475; stroke-dashoffset: 0; stroke: #808080; stroke-width: 1.5"/>
   </g>
   <g id="patch_3">
    <path d="M 126 320.4 
L 126 43.2 
" style="fill: none; stroke: #000000; stroke-width: 0.8; stroke-linejoin: miter; stroke-linecap: square"/>
   </g>
   <g id="patch_4">
    <path d="M 481.090909 320.4 
L 481.090909 43.2 
" style="fill: none; stroke: #000000; stroke-width: 0.8; stroke-linejoin: miter; stroke-linecap: square"/>
   </g>
   <g id="patch_5">
    <path d="M 126 320.4 
L 481.090909 320.4 
" style="fill: none; stroke: #000000; stroke-width: 0.8; stroke-linejoin: miter; stroke-linecap: square"/>
   </g>
   <g id="patch_6">
    <path d="M 126 43.2 
L 481.090909 43.2 
" style="fill: none; stroke: #000000; stroke-width: 0.8; stroke-linejoin: miter; stroke-linecap: square"/>
   </g>
   <g id="text_15">
    <!-- 2·log₂(n) -->
    <g transform="translate(431.378182 267.780659) scale(0.1 -0.1)">
     <defs>
      <path id="DejaVuSans-79" d="M 684 2619 
L 1344 2619 
L 1344 1825 
L 684 1825 
L 684 2619 
z
" transform="scale(0.015625)"/>
      <path id="DejaVuSans-4f" d="M 603 4863 
L 1178 4863 
L 1178 0 
L 603 0 
L 603 4863 
z
" transform="scale(0.015625)"/>
      <path id="DejaVuSans-52" d="M 1959 3097 
Q 1497 3097 1228 2736 
Q 959 2375 959 1747 
Q 959 1119 1226 758 
Q 1494 397 1959 397 
Q 2419 397 2687 759 
Q 2956 1122 2956 1747 
Q 2956 2369 2687 2733 
Q 2419 3097 1959 3097 
z
M 1959 3584 
Q 2709 3584 3137 3096 
Q 3566 2609 3566 1747 
Q 3566 888 3137 398 
Q 2709 -91 1959 -91 
Q 1206 -91 779 398 
Q 353 888 353 1747 
Q 353 2609 779 3096 
Q 1206 3584 1959 3584 
z
" transform="scale(0.015625)"/>
      <path id="DejaVuSans-4a" d="M 2906 1791 
Q 2906 2416 2648 2759 
Q 2391 3103 1925 3103 
Q 1463 3103 1205 2759 
Q 947 2416 947 1791 
Q 947 1169 1205 825 
Q 1463 481 1925 481 
Q 2391 481 2648 825 
Q 2906 1169 2906 1791 
z
M 3481 434 
Q 3481 -459 3084 -895 
Q 2688 -1331 1869 -1331 
Q 1566 -1331 1297 -1286 
Q 1028 -1241 775 -1147 
L 775 -588 
Q 1028 -725 1275 -790 
Q 1522 -856 1778 -856 
Q 2344 -856 2625 -561 
Q 2906 -266 2906 331 
L 2906 616 
Q 2728 306 2450 153 
Q 2172 0 1784 0 
Q 1141 0 747 490 
Q 353 981 353 1791 
Q 353 2603 747 3093 
Q 1141 3584 1784 3584 
Q 2172 3584 2450 3431 
Q 2728 3278 2906 2969 
L 2906 3500 
L 3481 3500 
L 3481 434 
z
" transform="scale(0.015625)"/>
      <path id="DejaVuSans-b5d" d="M 838 356 
L 2163 356 
L 2163 0 
L 294 0 
L 294 343 
Q 400 440 597 615 
Q 1672 1568 1672 1862 
Q 1672 2068 1509 2194 
Q 1347 2321 1081 2321 
Q 919 2321 728 2266 
Q 538 2212 313 2103 
L 313 2487 
Q 553 2575 761 2618 
Q 969 2662 1147 2662 
Q 1600 2662 1872 2456 
Q 2144 2250 2144 1912 
Q 2144 1478 1109 590 
Q 934 440 838 356 
z
" transform="scale(0.015625)"/>
      <path id="DejaVuSans-b" d="M 1984 4856 
Q 1566 4138 1362 3434 
Q 1159 2731 1159 2009 
Q 1159 1288 1364 580 
Q 1569 -128 1984 -844 
L 1484 -844 
Q 1016 -109 783 600 
Q 550 1309 550 2009 
Q 550 2706 781 3412 
Q 1013 4119 1484 4856 
L 1984 4856 
z
" transform="scale(0.015625)"/>
      <path id="DejaVuSans-51" d="M 3513 2113 
L 3513 0 
L 2938 0 
L 2938 2094 
Q 2938 2591 2744 2837 
Q 2550 3084 2163 3084 
Q 1697 3084 1428 2787 
Q 1159 2491 1159 1978 
L 1159 0 
L 581 0 
L 581 3500 
L 1159 3500 
L 1159 2956 
Q 1366 3272 1645 3428 
Q 1925 3584 2291 3584 
Q 2894 3584 3203 3211 
Q 3513 2838 3513 2113 
z
" transform="scale(0.015625)"/>
      <path id="DejaVuSans-c" d="M 513 4856 
L 1013 4856 
Q 1481 4119 1714 3412 
Q 1947 2706 1947 2009 
Q 1947 1309 1714 600 
Q 1481 -109 1013 -844 
L 513 -844 
Q 928 -128 1133 580 
Q 1338 1288 1338 2009 
Q 1338 2731 1133 3434 
Q 928 4138 513 4856 
z
" transform="scale(0.015625)"/>
     </defs>
     <use xlink:href="#DejaVuSans-15"/>
     <use xlink:href="#DejaVuSans-79" transform="translate(63.625 0)"/>
     <use xlink:href="#DejaVuSans-4f" transform="translate(95.40625 0)"/>
     <use xlink:href="#DejaVuSans-52" transform="translate(123.1875 0)"/>
     <use xlink:href="#DejaVuSans-4a" transform="translate(184.375 0)"/>
     <use xlink:href="#DejaVuSans-b5d" transform="translate(247.859375 0)"/>
     <use xlink:href="#DejaVuSans-b" transform="translate(287.953125 0)"/>
     <use xlink:href="#DejaVuSans-51" transform="translate(326.96875 0)"/>
     <use xlink:href="#DejaVuSans-c" transform="translate(390.34375 0)"/>
    </g>
   </g>
   <g id="text_16">
    <!-- n/2 -->
    <g transform="translate(452.683636 213.48) scale(0.1 -0.1)">
     <defs>
      <path id="DejaVuSans-12" d="M 1625 4666 
L 2156 4666 
L 531 -594 
L 0 -594 
L 1625 4666 
z
" transform="scale(0.015625)"/>
     </defs>
     <use xlink:href="#DejaVuSans-51"/>
     <use xlink:href="#DejaVuSans-12" transform="translate(63.375 0)"/>
     <use xlink:href="#DejaVuSans-15" transform="translate(97.0625 0)"/>
    </g>
   </g>
   <g id="text_17">
    <!-- n -->
    <g transform="translate(459.785455 122.4) scale(0.1 -0.1)">
     <use xlink:href="#DejaVuSans-51"/>
    </g>
   </g>
   <g id="text_18">
    <!-- n·log₂(n)/4 -->
    <g transform="translate(395.869091 63) scale(0.1 -0.1)">
     <use xlink:href="#DejaVuSans-51"/>
     <use xlink:href="#DejaVuSans-79" transform="translate(63.375 0)"/>
     <use xlink:href="#DejaVuSans-4f" transform="translate(95.15625 0)"/>
     <use xlink:href="#DejaVuSans-52" transform="translate(122.9375 0)"/>
     <use xlink:href="#DejaVuSans-4a" transform="translate(184.125 0)"/>
     <use xlink:href="#DejaVuSans-b5d" transform="translate(247.609375 0)"/>
     <use xlink:href="#DejaVuSans-b" transform="translate(287.703125 0)"/>
     <use xlink:href="#DejaVuSans-51" transform="translate(326.71875 0)"/>
     <use xlink:href="#DejaVuSans-c" transform="translate(390.09375 0)"/>
     <use xlink:href="#DejaVuSans-12" transform="translate(429.109375 0)"/>
     <use xlink:href="#DejaVuSans-17" transform="translate(462.796875 0)"/>
    </g>
   </g>
   <g id="text_19">
    <!-- n²/10 -->
    <g transform="translate(275.138182 63) scale(0.1 -0.1)">
     <defs>
      <path id="DejaVuSans-74" d="M 838 2444 
L 2163 2444 
L 2163 2088 
L 294 2088 
L 294 2431 
Q 400 2528 597 2703 
Q 1672 3656 1672 3950 
Q 1672 4156 1509 4282 
Q 1347 4409 1081 4409 
Q 919 4409 728 4354 
Q 538 4300 313 4191 
L 313 4575 
Q 553 4663 761 4706 
Q 969 4750 1147 4750 
Q 1600 4750 1872 4544 
Q 2144 4338 2144 4000 
Q 2144 3566 1109 2678 
Q 934 2528 838 2444 
z
" transform="scale(0.015625)"/>
     </defs>
     <use xlink:href="#DejaVuSans-51"/>
     <use xlink:href="#DejaVuSans-74" transform="translate(63.375 0)"/>
     <use xlink:href="#DejaVuSans-12" transform="translate(103.46875 0)"/>
     <use xlink:href="#DejaVuSans-14" transform="translate(137.15625 0)"/>
     <use xlink:href="#DejaVuSans-13" transform="translate(200.78125 0)"/>
    </g>
   </g>
   <g id="text_20">
    <!-- 2ⁿ/20 -->
    <g transform="translate(211.221818 63) scale(0.1 -0.1)">
     <defs>
      <path id="DejaVuSans-b5a" d="M 2213 3272 
L 2213 2088 
L 1850 2088 
L 1850 3259 
Q 1850 3538 1728 3677 
Q 1606 3816 1363 3816 
Q 1069 3816 900 3648 
Q 731 3481 731 3194 
L 731 2088 
L 366 2088 
L 366 4047 
L 731 4047 
L 731 3744 
Q 859 3919 1036 4006 
Q 1213 4094 1444 4094 
Q 1822 4094 2017 3884 
Q 2213 3675 2213 3272 
z
" transform="scale(0.015625)"/>
     </defs>
     <use xlink:href="#DejaVuSans-15"/>
     <use xlink:href="#DejaVuSans-b5a" transform="translate(63.625 0)"/>
     <use xlink:href="#DejaVuSans-12" transform="translate(103.46875 0)"/>
     <use xlink:href="#DejaVuSans-15" transform="translate(137.15625 0)"/>
     <use xlink:href="#DejaVuSans-13" transform="translate(200.78125 0)"/>
    </g>
   </g>
   <g id="text_21">
    <!-- Growth rates for 5 equations -->
    <g transform="translate(217.22233 37.2) scale(0.12 -0.12)">
     <defs>
      <path id="DejaVuSans-2a" d="M 3809 666 
L 3809 1919 
L 2778 1919 
L 2778 2438 
L 4434 2438 
L 4434 434 
Q 4069 175 3628 42 
Q 3188 -91 2688 -91 
Q 1594 -91 976 548 
Q 359 1188 359 2328 
Q 359 3472 976 4111 
Q 1594 4750 2688 4750 
Q 3144 4750 3555 4637 
Q 3966 4525 4313 4306 
L 4313 3634 
Q 3963 3931 3569 4081 
Q 3175 4231 2741 4231 
Q 1884 4231 1454 3753 
Q 1025 3275 1025 2328 
Q 1025 1384 1454 906 
Q 1884 428 2741 428 
Q 3075 428 3337 486 
Q 3600 544 3809 666 
z
" transform="scale(0.015625)"/>
      <path id="DejaVuSans-55" d="M 2631 2963 
Q 2534 3019 2420 3045 
Q 2306 3072 2169 3072 
Q 1681 3072 1420 2755 
Q 1159 2438 1159 1844 
L 1159 0 
L 581 0 
L 581 3500 
L 1159 3500 
L 1159 2956 
Q 1341 3275 1631 3429 
Q 1922 3584 2338 3584 
Q 2397 3584 2469 3576 
Q 2541 3569 2628 3553 
L 2631 2963 
z
" transform="scale(0.015625)"/>
      <path id="DejaVuSans-5a" d="M 269 3500 
L 844 3500 
L 1563 769 
L 2278 3500 
L 2956 3500 
L 3675 769 
L 4391 3500 
L 4966 3500 
L 4050 0 
L 3372 0 
L 2619 2869 
L 1863 0 
L 1184 0 
L 269 3500 
z
" transform="scale(0.015625)"/>
      <path id="DejaVuSans-57" d="M 1172 4494 
L 1172 3500 
L 2356 3500 
L 2356 3053 
L 1172 3053 
L 1172 1153 
Q 1172 725 1289 603 
Q 1406 481 1766 481 
L 2356 481 
L 2356 0 
L 1766 0 
Q 1100 0 847 248 
Q 594 497 594 1153 
L 594 3053 
L 172 3053 
L 172 3500 
L 594 3500 
L 594 4494 
L 1172 4494 
z
" transform="scale(0.015625)"/>
      <path id="DejaVuSans-4b" d="M 3513 2113 
L 3513 0 
L 2938 0 
L 2938 2094 
Q 2938 2591 2744 2837 
Q 2550 3084 2163 3084 
Q 1697 3084 1428 2787 
Q 1159 2491 1159 1978 
L 1159 0 
L 581 0 
L 581 4863 
L 1159 4863 
L 1159 2956 
Q 1366 3272 1645 3428 
Q 1925 3584 2291 3584 
Q 2894 3584 3203 3211 
Q 3513 2838 3513 2113 
z
" transform="scale(0.015625)"/>
      <path id="DejaVuSans-3" transform="scale(0.015625)"/>
      <path id="DejaVuSans-44" d="M 2194 1759 
Q 1497 1759 1228 1600 
Q 959 1441 959 1056 
Q 959 750 1161 570 
Q 1363 391 1709 391 
Q 2188 391 2477 730 
Q 2766 1069 2766 1631 
L 2766 1759 
L 2194 1759 
z
M 3341 1997 
L 3341 0 
L 2766 0 
L 2766 531 
Q 2569 213 2275 61 
Q 1981 -91 1556 -91 
Q 1019 -91 701 211 
Q 384 513 384 1019 
Q 384 1609 779 1909 
Q 1175 2209 1959 2209 
L 2766 2209 
L 2766 2266 
Q 2766 2663 2505 2880 
Q 2244 3097 1772 3097 
Q 1472 3097 1187 3025 
Q 903 2953 641 2809 
L 641 3341 
Q 956 3463 1253 3523 
Q 1550 3584 1831 3584 
Q 2591 3584 2966 3190 
Q 3341 2797 3341 1997 
z
" transform="scale(0.015625)"/>
      <path id="DejaVuSans-48" d="M 3597 1894 
L 3597 1613 
L 953 1613 
Q 991 1019 1311 708 
Q 1631 397 2203 397 
Q 2534 397 2845 478 
Q 3156 559 3463 722 
L 3463 178 
Q 3153 47 2828 -22 
Q 2503 -91 2169 -91 
Q 1331 -91 842 396 
Q 353 884 353 1716 
Q 353 2575 817 3079 
Q 1281 3584 2069 3584 
Q 2775 3584 3186 3129 
Q 3597 2675 3597 1894 
z
M 3022 2063 
Q 3016 2534 2758 2815 
Q 2500 3097 2075 3097 
Q 1594 3097 1305 2825 
Q 1016 2553 972 2059 
L 3022 2063 
z
" transform="scale(0.015625)"/>
      <path id="DejaVuSans-56" d="M 2834 3397 
L 2834 2853 
Q 2591 2978 2328 3040 
Q 2066 3103 1784 3103 
Q 1356 3103 1142 2972 
Q 928 2841 928 2578 
Q 928 2378 1081 2264 
Q 1234 2150 1697 2047 
L 1894 2003 
Q 2506 1872 2764 1633 
Q 3022 1394 3022 966 
Q 3022 478 2636 193 
Q 2250 -91 1575 -91 
Q 1294 -91 989 -36 
Q 684 19 347 128 
L 347 722 
Q 666 556 975 473 
Q 1284 391 1588 391 
Q 1994 391 2212 530 
Q 2431 669 2431 922 
Q 2431 1156 2273 1281 
Q 2116 1406 1581 1522 
L 1381 1569 
Q 847 1681 609 1914 
Q 372 2147 372 2553 
Q 372 3047 722 3315 
Q 1072 3584 1716 3584 
Q 2034 3584 2315 3537 
Q 2597 3491 2834 3397 
z
" transform="scale(0.015625)"/>
      <path id="DejaVuSans-49" d="M 2375 4863 
L 2375 4384 
L 1825 4384 
Q 1516 4384 1395 4259 
Q 1275 4134 1275 3809 
L 1275 3500 
L 2222 3500 
L 2222 3053 
L 1275 3053 
L 1275 0 
L 697 0 
L 697 3053 
L 147 3053 
L 147 3500 
L 697 3500 
L 697 3744 
Q 697 4328 969 4595 
Q 1241 4863 1831 4863 
L 2375 4863 
z
" transform="scale(0.015625)"/>
      <path id="DejaVuSans-54" d="M 947 1747 
Q 947 1113 1208 752 
Q 1469 391 1925 391 
Q 2381 391 2643 752 
Q 2906 1113 2906 1747 
Q 2906 2381 2643 2742 
Q 2381 3103 1925 3103 
Q 1469 3103 1208 2742 
Q 947 2381 947 1747 
z
M 2906 525 
Q 2725 213 2448 61 
Q 2172 -91 1784 -91 
Q 1150 -91 751 415 
Q 353 922 353 1747 
Q 353 2572 751 3078 
Q 1150 3584 1784 3584 
Q 2172 3584 2448 3432 
Q 2725 3281 2906 2969 
L 2906 3500 
L 3481 3500 
L 3481 -1331 
L 2906 -1331 
L 2906 525 
z
" transform="scale(0.015625)"/>
      <path id="DejaVuSans-58" d="M 544 1381 
L 544 3500 
L 1119 3500 
L 1119 1403 
Q 1119 906 1312 657 
Q 1506 409 1894 409 
Q 2359 409 2629 706 
Q 2900 1003 2900 1516 
L 2900 3500 
L 3475 3500 
L 3475 0 
L 2900 0 
L 2900 538 
Q 2691 219 2414 64 
Q 2138 -91 1772 -91 
Q 1169 -91 856 284 
Q 544 659 544 1381 
z
M 1991 3584 
L 1991 3584 
z
" transform="scale(0.015625)"/>
      <path id="DejaVuSans-4c" d="M 603 3500 
L 1178 3500 
L 1178 0 
L 603 0 
L 603 3500 
z
M 603 4863 
L 1178 4863 
L 1178 4134 
L 603 4134 
L 603 4863 
z
" transform="scale(0.015625)"/>
     </defs>
     <use xlink:href="#DejaVuSans-2a"/>
     <use xlink:href="#DejaVuSans-55" transform="translate(77.484375 0)"/>
     <use xlink:href="#DejaVuSans-52" transform="translate(116.390625 0)"/>
     <use xlink:href="#DejaVuSans-5a" transform="translate(177.578125 0)"/>
     <use xlink:href="#DejaVuSans-57" transform="translate(259.359375 0)"/>
     <use xlink:href="#DejaVuSans-4b" transform="translate(298.5625 0)"/>
     <use xlink:href="#DejaVuSans-3" transform="translate(361.9375 0)"/>
     <use xlink:href="#DejaVuSans-55" transform="translate(393.71875 0)"/>
     <use xlink:href="#DejaVuSans-44" transform="translate(434.828125 0)"/>
     <use xlink:href="#DejaVuSans-57" transform="translate(496.109375 0)"/>
     <use xlink:href="#DejaVuSans-48" transform="translate(535.3125 0)"/>
     <use xlink:href="#DejaVuSans-56" transform="translate(596.84375 0)"/>
     <use xlink:href="#DejaVuSans-3" transform="translate(648.9375 0)"/>
     <use xlink:href="#DejaVuSans-49" transform="translate(680.71875 0)"/>
     <use xlink:href="#DejaVuSans-52" transform="translate(715.921875 0)"/>
     <use xlink:href="#DejaVuSans-55" transform="translate(777.109375 0)"/>
     <use xlink:href="#DejaVuSans-3" transform="translate(818.21875 0)"/>
     <use xlink:href="#DejaVuSans-18" transform="translate(850 0)"/>
     <use xlink:href="#DejaVuSans-3" transform="translate(913.625 0)"/>
     <use xlink:href="#DejaVuSans-48" transform="translate(945.40625 0)"/>
     <use xlink:href="#DejaVuSans-54" transform="translate(1006.9375 0)"/>
     <use xlink:href="#DejaVuSans-58" transform="translate(1070.421875 0)"/>
     <use xlink:href="#DejaVuSans-44" transform="translate(1133.796875 0)"/>
     <use xlink:href="#DejaVuSans-57" transform="translate(1195.078125 0)"/>
     <use xlink:href="#DejaVuSans-4c" transform="translate(1234.28125 0)"/>
     <use xlink:href="#DejaVuSans-52" transform="translate(1262.0625 0)"/>
     <use xlink:href="#DejaVuSans-51" transform="translate(1323.25 0)"/>
     <use xlink:href="#DejaVuSans-56" transform="translate(1386.625 0)"/>
    </g>
   </g>
  </g>
  <g id="axes_2">
   <g id="patch_7">
    <path d="M 552.109091 320.4 
L 907.2 320.4 
L 907.2 43.2 
L 552.109091 43.2 
L 552.109091 320.4 
z
" style="fill: none"/>
   </g>
   <g id="matplotlib.axis_3">
    <g id="xtick_7">
     <g id="line2d_22">
      <g>
       <use xlink:href="#m62b4818f6e" x="552.109091" y="320.4" style="stroke: #000000; stroke-width: 0.8"/>
      </g>
     </g>
     <g id="text_22">
      <!-- 2 -->
      <g transform="translate(548.927841 334.997656) scale(0.1 -0.1)">
       <use xlink:href="#DejaVuSans-15"/>
      </g>
     </g>
    </g>
    <g id="xtick_8">
     <g id="line2d_23">
      <g>
       <use xlink:href="#m62b4818f6e" x="616.671074" y="320.4" style="stroke: #000000; stroke-width: 0.8"/>
      </g>
     </g>
     <g id="text_23">
      <!-- 4 -->
      <g transform="translate(613.489824 334.997656) scale(0.1 -0.1)">
       <use xlink:href="#DejaVuSans-17"/>
      </g>
     </g>
    </g>
    <g id="xtick_9">
     <g id="line2d_24">
      <g>
       <use xlink:href="#m62b4818f6e" x="681.233058" y="320.4" style="stroke: #000000; stroke-width: 0.8"/>
      </g>
     </g>
     <g id="text_24">
      <!-- 6 -->
      <g transform="translate(678.051808 334.997656) scale(0.1 -0.1)">
       <use xlink:href="#DejaVuSans-19"/>
      </g>
     </g>
    </g>
    <g id="xtick_10">
     <g id="line2d_25">
      <g>
       <use xlink:href="#m62b4818f6e" x="745.795041" y="320.4" style="stroke: #000000; stroke-width: 0.8"/>
      </g>
     </g>
     <g id="text_25">
      <!-- 8 -->
      <g transform="translate(742.613791 334.997656) scale(0.1 -0.1)">
       <defs>
        <path id="DejaVuSans-1b" d="M 2034 2216 
Q 1584 2216 1326 1975 
Q 1069 1734 1069 1313 
Q 1069 891 1326 650 
Q 1584 409 2034 409 
Q 2484 409 2743 651 
Q 3003 894 3003 1313 
Q 3003 1734 2745 1975 
Q 2488 2216 2034 2216 
z
M 1403 2484 
Q 997 2584 770 2862 
Q 544 3141 544 3541 
Q 544 4100 942 4425 
Q 1341 4750 2034 4750 
Q 2731 4750 3128 4425 
Q 3525 4100 3525 3541 
Q 3525 3141 3298 2862 
Q 3072 2584 2669 2484 
Q 3125 2378 3379 2068 
Q 3634 1759 3634 1313 
Q 3634 634 3220 271 
Q 2806 -91 2034 -91 
Q 1263 -91 848 271 
Q 434 634 434 1313 
Q 434 1759 690 2068 
Q 947 2378 1403 2484 
z
M 1172 3481 
Q 1172 3119 1398 2916 
Q 1625 2713 2034 2713 
Q 2441 2713 2670 2916 
Q 2900 3119 2900 3481 
Q 2900 3844 2670 4047 
Q 2441 4250 2034 4250 
Q 1625 4250 1398 4047 
Q 1172 3844 1172 3481 
z
" transform="scale(0.015625)"/>
       </defs>
       <use xlink:href="#DejaVuSans-1b"/>
      </g>
     </g>
    </g>
    <g id="xtick_11">
     <g id="line2d_26">
      <g>
       <use xlink:href="#m62b4818f6e" x="810.357025" y="320.4" style="stroke: #000000; stroke-width: 0.8"/>
      </g>
     </g>
     <g id="text_26">
      <!-- 10 -->
      <g transform="translate(803.994525 334.997656) scale(0.1 -0.1)">
       <use xlink:href="#DejaVuSans-14"/>
       <use xlink:href="#DejaVuSans-13" transform="translate(63.625 0)"/>
      </g>
     </g>
    </g>
    <g id="xtick_12">
     <g id="line2d_27">
      <g>
       <use xlink:href="#m62b4818f6e" x="874.919008" y="320.4" style="stroke: #000000; stroke-width: 0.8"/>
      </g>
     </g>
     <g id="text_27">
      <!-- 12 -->
      <g transform="translate(868.556508 334.997656) scale(0.1 -0.1)">
       <use xlink:href="#DejaVuSans-14"/>
       <use xlink:href="#DejaVuSans-15" transform="translate(63.625 0)"/>
      </g>
     </g>
    </g>
   </g>
   <g id="matplotlib.axis_4">
    <g id="ytick_9">
     <g id="line2d_28">
      <g>
       <use xlink:href="#m5742b5a1c3" x="552.109091" y="320.4" style="stroke: #000000; stroke-width: 0.8"/>
      </g>
     </g>
     <g id="text_28">
      <!-- 0 -->
      <g transform="translate(538.746591 324.198828) scale(0.1 -0.1)">
       <use xlink:href="#DejaVuSans-13"/>
      </g>
     </g>
    </g>
    <g id="ytick_10">
     <g id="line2d_29">
      <g>
       <use xlink:href="#m5742b5a1c3" x="552.109091" y="285.75" style="stroke: #000000; stroke-width: 0.8"/>
      </g>
     </g>
     <g id="text_29">
      <!-- 2 -->
      <g transform="translate(538.746591 289.548828) scale(0.1 -0.1)">
       <use xlink:href="#DejaVuSans-15"/>
      </g>
     </g>
    </g>
    <g id="ytick_11">
     <g id="line2d_30">
      <g>
       <use xlink:href="#m5742b5a1c3" x="552.109091" y="251.1" style="stroke: #000000; stroke-width: 0.8"/>
      </g>
     </g>
     <g id="text_30">
      <!-- 4 -->
      <g transform="translate(538.746591 254.898828) scale(0.1 -0.1)">
       <use xlink:href="#DejaVuSans-17"/>
      </g>
     </g>
    </g>
    <g id="ytick_12">
     <g id="line2d_31">
      <g>
       <use xlink:href="#m5742b5a1c3" x="552.109091" y="216.45" style="stroke: #000000; stroke-width: 0.8"/>
      </g>
     </g>
     <g id="text_31">
      <!-- 6 -->
      <g transform="translate(538.746591 220.248828) scale(0.1 -0.1)">
       <use xlink:href="#DejaVuSans-19"/>
      </g>
     </g>
    </g>
    <g id="ytick_13">
     <g id="line2d_32">
      <g>
       <use xlink:href="#m5742b5a1c3" x="552.109091" y="181.8" style="stroke: #000000; stroke-width: 0.8"/>
      </g>
     </g>
     <g id="text_32">
      <!-- 8 -->
      <g transform="translate(538.746591 185.598828) scale(0.1 -0.1)">
       <use xlink:href="#DejaVuSans-1b"/>
      </g>
     </g>
    </g>
    <g id="ytick_14">
     <g id="line2d_33">
      <g>
       <use xlink:href="#m5742b5a1c3" x="552.109091" y="147.15" style="stroke: #000000; stroke-width: 0.8"/>
      </g>
     </g>
     <g id="text_33">
      <!-- 10 -->
      <g transform="translate(532.384091 150.948828) scale(0.1 -0.1)">
       <use xlink:href="#DejaVuSans-14"/>
       <use xlink:href="#DejaVuSans-13" transform="translate(63.625 0)"/>
      </g>
     </g>
    </g>
    <g id="ytick_15">
     <g id="line2d_34">
      <g>
       <use xlink:href="#m5742b5a1c3" x="552.109091" y="112.5" style="stroke: #000000; stroke-width: 0.8"/>
      </g>
     </g>
     <g id="text_34">
      <!-- 12 -->
      <g transform="translate(532.384091 116.298828) scale(0.1 -0.1)">
       <use xlink:href="#DejaVuSans-14"/>
       <use xlink:href="#DejaVuSans-15" transform="translate(63.625 0)"/>
      </g>
     </g>
    </g>
    <g id="ytick_16">
     <g id="line2d_35">
      <g>
       <use xlink:href="#m5742b5a1c3" x="552.109091" y="77.85" style="stroke: #000000; stroke-width: 0.8"/>
      </g>
     </g>
     <g id="text_35">
      <!-- 14 -->
      <g transform="translate(532.384091 81.648828) scale(0.1 -0.1)">
       <use xlink:href="#DejaVuSans-14"/>
       <use xlink:href="#DejaVuSans-17" transform="translate(63.625 0)"/>
      </g>
     </g>
    </g>
    <g id="ytick_17">
     <g id="line2d_36">
      <g>
       <use xlink:href="#m5742b5a1c3" x="552.109091" y="43.2" style="stroke: #000000; stroke-width: 0.8"/>
      </g>
     </g>
     <g id="text_36">
      <!-- 16 -->
      <g transform="translate(532.384091 46.998828) scale(0.1 -0.1)">
       <use xlink:href="#DejaVuSans-14"/>
       <use xlink:href="#DejaVuSans-19" transform="translate(63.625 0)"/>
      </g>
     </g>
    </g>
   </g>
   <g id="line2d_37">
    <path d="M 519.828099 320.4 
L 522.997976 315.717535 
L 526.167853 311.436353 
L 529.33773 307.493071 
L 532.507607 303.83823 
L 535.677484 300.432494 
L 538.847361 297.244062 
L 542.017238 294.246859 
L 545.187115 291.419238 
L 551.526869 286.202851 
L 557.866623 281.479726 
L 564.206376 277.164585 
L 570.54613 273.192513 
L 576.885884 269.512955 
L 583.225638 266.085767 
L 589.565392 262.878542 
L 595.905146 259.864739 
L 605.414777 255.659551 
L 614.924407 251.780824 
L 624.434038 248.181503 
L 633.943669 244.824023 
L 643.4533 241.677923 
L 656.132808 237.769266 
L 668.812316 234.144188 
L 681.491823 230.764308 
L 694.171331 227.598548 
L 710.020716 223.903998 
L 725.870101 220.46381 
L 741.719485 217.245202 
L 760.738747 213.637926 
L 779.758009 210.273527 
L 798.77727 207.121351 
L 820.966409 203.678675 
L 843.155547 200.45789 
L 868.514563 197.014435 
L 893.873579 193.79297 
L 922.402471 190.400864 
L 950.931364 187.224381 
L 982.630133 183.916641 
L 1009 181.322719 
L 1009 181.322719 
" clip-path="url(#p5807d44976)" style="fill: none; stroke-dasharray: 1.5,2.475; stroke-dashoffset: 0; stroke: #808080; stroke-width: 1.5"/>
   </g>
   <g id="line2d_38">
    <path d="M 519.828099 311.7375 
L 1009 180.469798 
L 1009 180.469798 
" clip-path="url(#p5807d44976)" style="fill: none; stroke-dasharray: 1.5,2.475; stroke-dashoffset: 0; stroke: #000000; stroke-width: 1.5"/>
   </g>
   <g id="line2d_39">
    <path d="M 519.828099 303.075 
L 1009 40.539597 
L 1009 40.539597 
" clip-path="url(#p5807d44976)" style="fill: none; stroke-dasharray: 5.55,2.4; stroke-dashoffset: 0; stroke: #808080; stroke-width: 1.5"/>
   </g>
   <g id="line2d_40">
    <path d="M 519.828099 320.4 
L 526.167853 319.059495 
L 532.507607 317.516626 
L 538.847361 315.800135 
L 548.356992 312.945704 
L 557.866623 309.80222 
L 567.376253 306.409033 
L 576.885884 302.79604 
L 586.395515 298.986733 
L 599.075023 293.634531 
L 611.754531 288.002687 
L 624.434038 282.119855 
L 637.113546 276.009352 
L 649.793054 269.690528 
L 665.642439 261.523668 
L 681.491823 253.083416 
L 697.341208 244.392163 
L 713.190593 235.468912 
L 732.209854 224.4776 
L 751.229116 213.199804 
L 770.248378 201.656228 
L 789.267639 189.864778 
L 808.286901 177.841102 
L 830.47604 163.538277 
L 852.665178 148.95734 
L 874.854317 134.115212 
L 897.043456 119.026876 
L 922.402471 101.498649 
L 947.761487 83.683999 
L 973.120502 65.598726 
L 998.479518 47.256976 
L 1009 39.575064 
L 1009 39.575064 
" clip-path="url(#p5807d44976)" style="fill: none; stroke-dasharray: 5.55,2.4; stroke-dashoffset: 0; stroke: #000000; stroke-width: 1.5"/>
   </g>
   <g id="line2d_41">
    <path d="M 519.828099 318.6675 
L 529.33773 317.496397 
L 538.847361 316.024592 
L 548.356992 314.252085 
L 557.866623 312.178875 
L 567.376253 309.804963 
L 576.885884 307.130349 
L 586.395515 304.155032 
L 595.905146 300.879013 
L 605.414777 297.302291 
L 614.924407 293.424868 
L 624.434038 289.246741 
L 633.943669 284.767913 
L 643.4533 279.988382 
L 652.962931 274.908149 
L 662.472562 269.527213 
L 671.982192 263.845576 
L 681.491823 257.863235 
L 691.001454 251.580193 
L 700.511085 244.996448 
L 710.020716 238.112001 
L 719.530347 230.926851 
L 729.039977 223.440999 
L 738.549608 215.654445 
L 748.059239 207.567188 
L 757.56887 199.179229 
L 767.078501 190.490568 
L 776.588132 181.501204 
L 786.097762 172.211138 
L 795.607393 162.62037 
L 805.117024 152.728899 
L 814.626655 142.536726 
L 824.136286 132.04385 
L 833.645917 121.250273 
L 843.155547 110.155993 
L 852.665178 98.76101 
L 862.174809 87.065325 
L 871.68444 75.068938 
L 881.194071 62.771849 
L 890.703702 50.174057 
L 900.213332 37.275563 
L 909.722963 24.076366 
L 919.232594 10.576467 
L 927.220684 -1 
L 927.220684 -1 
" clip-path="url(#p5807d44976)" style="fill: none; stroke: #808080; stroke-width: 1.5; stroke-linecap: square"/>
   </g>
   <g id="line2d_42">
    <path d="M 519.828099 318.6675 
L 535.677484 317.965143 
L 548.356992 317.203212 
L 561.036499 316.202855 
L 570.54613 315.252051 
L 580.055761 314.085858 
L 589.565392 312.655479 
L 595.905146 311.526097 
L 602.2449 310.232017 
L 608.584654 308.749222 
L 614.924407 307.050192 
L 621.264161 305.103391 
L 627.603915 302.87269 
L 633.943669 300.316685 
L 640.283423 297.387939 
L 646.623177 294.032095 
L 649.793054 292.174887 
L 652.962931 290.186868 
L 656.132808 288.058824 
L 659.302685 285.780892 
L 662.472562 283.342516 
L 665.642439 280.732394 
L 668.812316 277.93843 
L 671.982192 274.947674 
L 675.152069 271.746267 
L 678.321946 268.31937 
L 681.491823 264.651102 
L 684.6617 260.724461 
L 687.831577 256.52125 
L 691.001454 252.021989 
L 694.171331 247.205824 
L 697.341208 242.050436 
L 700.511085 236.531931 
L 703.680962 230.624733 
L 706.850839 224.301465 
L 710.020716 217.532822 
L 713.190593 210.287434 
L 716.36047 202.53172 
L 719.530347 194.229738 
L 722.700224 185.343011 
L 725.870101 175.830352 
L 729.039977 165.647675 
L 732.209854 154.747787 
L 735.379731 143.080172 
L 738.549608 130.590755 
L 741.719485 117.221653 
L 744.889362 102.910907 
L 748.059239 87.592192 
L 751.229116 71.194513 
L 754.398993 53.641872 
L 757.56887 34.852922 
L 760.738747 14.740583 
L 763.056358 -1 
L 763.056358 -1 
" clip-path="url(#p5807d44976)" style="fill: none; stroke: #000000; stroke-width: 1.5; stroke-linecap: square"/>
   </g>
   <g id="patch_8">
    <path d="M 552.109091 320.4 
L 552.109091 43.2 
" style="fill: none; stroke: #000000; stroke-width: 0.8; stroke-linejoin: miter; stroke-linecap: square"/>
   </g>
   <g id="patch_9">
    <path d="M 907.2 320.4 
L 907.2 43.2 
" style="fill: none; stroke: #000000; stroke-width: 0.8; stroke-linejoin: miter; stroke-linecap: square"/>
   </g>
   <g id="patch_10">
    <path d="M 552.109091 320.4 
L 907.2 320.4 
" style="fill: none; stroke: #000000; stroke-width: 0.8; stroke-linejoin: miter; stroke-linecap: square"/>
   </g>
   <g id="patch_11">
    <path d="M 552.109091 43.2 
L 907.2 43.2 
" style="fill: none; stroke: #000000; stroke-width: 0.8; stroke-linejoin: miter; stroke-linecap: square"/>
   </g>
   <g id="text_37">
    <!-- 2·log₂(n) -->
    <g transform="translate(858.778512 185.854453) scale(0.1 -0.1)">
     <use xlink:href="#DejaVuSans-15"/>
     <use xlink:href="#DejaVuSans-79" transform="translate(63.625 0)"/>
     <use xlink:href="#DejaVuSans-4f" transform="translate(95.40625 0)"/>
     <use xlink:href="#DejaVuSans-52" transform="translate(123.1875 0)"/>
     <use xlink:href="#DejaVuSans-4a" transform="translate(184.375 0)"/>
     <use xlink:href="#DejaVuSans-b5d" transform="translate(247.859375 0)"/>
     <use xlink:href="#DejaVuSans-b" transform="translate(287.953125 0)"/>
     <use xlink:href="#DejaVuSans-51" transform="translate(326.96875 0)"/>
     <use xlink:href="#DejaVuSans-c" transform="translate(390.34375 0)"/>
    </g>
   </g>
   <g id="text_38">
    <!-- n/2 -->
    <g transform="translate(881.375207 219.744875) scale(0.1 -0.1)">
     <use xlink:href="#DejaVuSans-51"/>
     <use xlink:href="#DejaVuSans-12" transform="translate(63.375 0)"/>
     <use xlink:href="#DejaVuSans-15" transform="translate(97.0625 0)"/>
    </g>
   </g>
   <g id="text_39">
    <!-- n -->
    <g transform="translate(887.831405 81.912174) scale(0.1 -0.1)">
     <use xlink:href="#DejaVuSans-51"/>
    </g>
   </g>
   <g id="text_40">
    <!-- n·log₂(n)/4 -->
    <g transform="translate(852.322314 140.507105) scale(0.1 -0.1)">
     <use xlink:href="#DejaVuSans-51"/>
     <use xlink:href="#DejaVuSans-79" transform="translate(63.375 0)"/>
     <use xlink:href="#DejaVuSans-4f" transform="translate(95.15625 0)"/>
     <use xlink:href="#DejaVuSans-52" transform="translate(122.9375 0)"/>
     <use xlink:href="#DejaVuSans-4a" transform="translate(184.125 0)"/>
     <use xlink:href="#DejaVuSans-b5d" transform="translate(247.609375 0)"/>
     <use xlink:href="#DejaVuSans-b" transform="translate(287.703125 0)"/>
     <use xlink:href="#DejaVuSans-51" transform="translate(326.71875 0)"/>
     <use xlink:href="#DejaVuSans-c" transform="translate(390.09375 0)"/>
     <use xlink:href="#DejaVuSans-12" transform="translate(429.109375 0)"/>
     <use xlink:href="#DejaVuSans-17" transform="translate(462.796875 0)"/>
    </g>
   </g>
   <g id="text_41">
    <!-- n²/10 -->
    <g transform="translate(849.094215 60.525) scale(0.1 -0.1)">
     <use xlink:href="#DejaVuSans-51"/>
     <use xlink:href="#DejaVuSans-74" transform="translate(63.375 0)"/>
     <use xlink:href="#DejaVuSans-12" transform="translate(103.46875 0)"/>
     <use xlink:href="#DejaVuSans-14" transform="translate(137.15625 0)"/>
     <use xlink:href="#DejaVuSans-13" transform="translate(200.78125 0)"/>
    </g>
   </g>
   <g id="text_42">
    <!-- 2ⁿ/20 -->
    <g transform="translate(719.970248 60.525) scale(0.1 -0.1)">
     <use xlink:href="#DejaVuSans-15"/>
     <use xlink:href="#DejaVuSans-b5a" transform="translate(63.625 0)"/>
     <use xlink:href="#DejaVuSans-12" transform="translate(103.46875 0)"/>
     <use xlink:href="#DejaVuSans-15" transform="translate(137.15625 0)"/>
     <use xlink:href="#DejaVuSans-13" transform="translate(200.78125 0)"/>
    </g>
   </g>
   <g id="text_43">
    <!-- Zoomed in -->
    <g transform="translate(697.480483 37.2) scale(0.12 -0.12)">
     <defs>
      <path id="DejaVuSans-3d" d="M 359 4666 
L 4025 4666 
L 4025 4184 
L 1075 531 
L 4097 531 
L 4097 0 
L 288 0 
L 288 481 
L 3238 4134 
L 359 4134 
L 359 4666 
z
" transform="scale(0.015625)"/>
      <path id="DejaVuSans-50" d="M 3328 2828 
Q 3544 3216 3844 3400 
Q 4144 3584 4550 3584 
Q 5097 3584 5394 3201 
Q 5691 2819 5691 2113 
L 5691 0 
L 5113 0 
L 5113 2094 
Q 5113 2597 4934 2840 
Q 4756 3084 4391 3084 
Q 3944 3084 3684 2787 
Q 3425 2491 3425 1978 
L 3425 0 
L 2847 0 
L 2847 2094 
Q 2847 2600 2669 2842 
Q 2491 3084 2119 3084 
Q 1678 3084 1418 2786 
Q 1159 2488 1159 1978 
L 1159 0 
L 581 0 
L 581 3500 
L 1159 3500 
L 1159 2956 
Q 1356 3278 1631 3431 
Q 1906 3584 2284 3584 
Q 2666 3584 2933 3390 
Q 3200 3197 3328 2828 
z
" transform="scale(0.015625)"/>
      <path id="DejaVuSans-47" d="M 2906 2969 
L 2906 4863 
L 3481 4863 
L 3481 0 
L 2906 0 
L 2906 525 
Q 2725 213 2448 61 
Q 2172 -91 1784 -91 
Q 1150 -91 751 415 
Q 353 922 353 1747 
Q 353 2572 751 3078 
Q 1150 3584 1784 3584 
Q 2172 3584 2448 3432 
Q 2725 3281 2906 2969 
z
M 947 1747 
Q 947 1113 1208 752 
Q 1469 391 1925 391 
Q 2381 391 2643 752 
Q 2906 1113 2906 1747 
Q 2906 2381 2643 2742 
Q 2381 3103 1925 3103 
Q 1469 3103 1208 2742 
Q 947 2381 947 1747 
z
" transform="scale(0.015625)"/>
     </defs>
     <use xlink:href="#DejaVuSans-3d"/>
     <use xlink:href="#DejaVuSans-52" transform="translate(68.5 0)"/>
     <use xlink:href="#DejaVuSans-52" transform="translate(129.6875 0)"/>
     <use xlink:href="#DejaVuSans-50" transform="translate(190.875 0)"/>
     <use xlink:href="#DejaVuSans-48" transform="translate(288.28125 0)"/>
     <use xlink:href="#DejaVuSans-47" transform="translate(349.8125 0)"/>
     <use xlink:href="#DejaVuSans-3" transform="translate(413.296875 0)"/>
     <use xlink:href="#DejaVuSans-4c" transform="translate(445.078125 0)"/>
     <use xlink:href="#DejaVuSans-51" transform="translate(472.859375 0)"/>
    </g>
   </g>
  </g>
 </g>
 <defs>
  <clipPath id="p1ad9f6c1a6">
   <rect x="126" y="43.2" width="355.090909" height="277.2"/>
  </clipPath>
  <clipPath id="p5807d44976">
   <rect x="552.109091" y="43.2" width="355.090909" height="277.2"/>
  </clipPath>
 </defs>
</svg>
