<svg version="1.1" viewBox="0.0 0.0 664.4435695538058 239.50656167979002" fill="none" stroke="none" stroke-linecap="square" stroke-miterlimit="10" xmlns:xlink="http://www.w3.org/1999/xlink" xmlns="http://www.w3.org/2000/svg"><clipPath id="p.0"><path d="m0 0l664.44354 0l0 239.50656l-664.44354 0l0 -239.50656z" clip-rule="nonzero"/></clipPath><g clip-path="url(#p.0)"><path fill="#000000" fill-opacity="0.0" d="m0 0l664.44354 0l0 239.50656l-664.44354 0z" fill-rule="evenodd"/><path stroke="#000000" stroke-width="3.0" stroke-linecap="butt" d="m5.3467846 27.09866l0 62.459316" fill-rule="nonzero"/><path stroke="#000000" stroke-width="3.0" stroke-linecap="butt" d="m70.43077 27.09866l0 62.459316" fill-rule="nonzero"/><path stroke="#000000" stroke-width="3.0" stroke-linecap="butt" d="m135.51477 27.09866l0 62.459316" fill-rule="nonzero"/><path stroke="#000000" stroke-width="3.0" stroke-linecap="butt" d="m200.59875 27.09866l0 62.459316" fill-rule="nonzero"/><path stroke="#000000" stroke-width="3.0" stroke-linecap="butt" d="m265.68274 27.09866l0 62.459316" fill-rule="nonzero"/><path stroke="#000000" stroke-width="3.0" stroke-linecap="butt" d="m330.76672 27.09866l0 62.459316" fill-rule="nonzero"/><path stroke="#000000" stroke-width="3.0" stroke-linecap="butt" d="m395.8507 27.09866l0 62.459316" fill-rule="nonzero"/><path stroke="#000000" stroke-width="3.0" stroke-linecap="butt" d="m460.93472 27.09866l0 62.459316" fill-rule="nonzero"/><path stroke="#000000" stroke-width="3.0" stroke-linecap="butt" d="m526.0187 27.09866l0 62.459316" fill-rule="nonzero"/><path stroke="#000000" stroke-width="3.0" stroke-linecap="butt" d="m591.10266 27.09866l0 62.459316" fill-rule="nonzero"/><path stroke="#000000" stroke-width="3.0" stroke-linecap="butt" d="m656.1867 27.09866l0 62.459316" fill-rule="nonzero"/><path stroke="#000000" stroke-width="3.0" stroke-linecap="butt" d="m3.848097 28.597347l653.8373 0" fill-rule="nonzero"/><path stroke="#000000" stroke-width="3.0" stroke-linecap="butt" d="m3.848097 88.05929l653.8373 0" fill-rule="nonzero"/><path fill="#000000" d="m33.298157 15.797348q0 -3.59375 1.171875 -5.40625q1.171875 -1.828125 3.40625 -1.828125q2.421875 0 3.515625 1.796875q1.09375 1.78125 1.09375 5.4375q0 3.59375 -1.171875 5.421875q-1.171875 1.8125 -3.4375 1.8125q-2.375 0 -3.484375 -1.890625q-1.09375 -1.90625 -1.09375 -5.34375zm1.65625 0q0 1.296875 0.171875 2.375q0.171875 1.0625 0.53125 1.84375q0.359375 0.765625 0.90625 1.203125q0.5625 0.421875 1.3125 0.421875q1.515625 0 2.21875 -1.40625q0.71875 -1.421875 0.71875 -4.4375q0 -1.28125 -0.15625 -2.359375q-0.140625 -1.078125 -0.5 -1.859375q-0.34375 -0.78125 -0.90625 -1.203125q-0.546875 -0.421875 -1.375 -0.421875q-1.5 0 -2.21875 1.421875q-0.703125 1.421875 -0.703125 4.421875z" fill-rule="nonzero"/><path fill="#000000" d="m99.67902 21.312973l2.7968674 0l0 -9.671875l0.203125 -1.1875l-0.7968674 0.9375l-2.203125 1.59375l-0.75 -1.03125l4.3906174 -3.390625l0.71875 0l0 12.75l2.75 0l0 1.484375l-7.1093674 0l0 -1.484375z" fill-rule="nonzero"/><path fill="#000000" d="m171.52864 11.984848q0 1.046875 -0.390625 2.15625q-0.390625 1.109375 -1.03125 2.234375q-0.625 1.125 -1.40625 2.203125q-0.78125 1.0625 -1.546875 2.015625l-0.984375 0.859375l0 0.078125l1.28125 -0.21875l4.359375 0l0 1.484375l-7.96875 0l0 -0.578125q0.453125 -0.46875 1.0625 -1.140625q0.625 -0.6875 1.296875 -1.515625q0.671875 -0.828125 1.3125 -1.75q0.65625 -0.9375 1.1875 -1.890625q0.53125 -0.96875 0.84375 -1.90625q0.328125 -0.9375 0.328125 -1.78125q0 -0.984375 -0.5625 -1.625q-0.5625 -0.65625 -1.703125 -0.65625q-0.765625 0 -1.484375 0.3125q-0.71875 0.3125 -1.234375 0.71875l-0.65625 -1.140625q0.6875 -0.609375 1.640625 -0.9375q0.96875 -0.34375 2.078125 -0.34375q0.859375 0 1.515625 0.25q0.65625 0.25 1.109375 0.71875q0.46875 0.453125 0.703125 1.078125q0.25 0.625 0.25 1.375z" fill-rule="nonzero"/><path fill="#000000" d="m232.37825 21.641098q0.671875 0 1.25 -0.203125q0.578125 -0.203125 1.0 -0.59375q0.421875 -0.390625 0.65625 -0.921875q0.25 -0.546875 0.25 -1.1875q0 -1.390625 -0.828125 -2.0625q-0.828125 -0.6875 -2.296875 -0.6875l-1.484375 0l0 -0.59375l2.890625 -4.4375l0.921875 -0.875l-1.3125 0.203125l-3.953125 0l0 -1.484375l7.140625 0l0 0.578125l-3.1875 4.78125l-0.6875 0.578125l0 0.046875l0.671875 -0.140625q0.796875 0.015625 1.46875 0.296875q0.6875 0.265625 1.1875 0.78125q0.5 0.5 0.78125 1.21875q0.28125 0.703125 0.28125 1.59375q0 1.078125 -0.375 1.921875q-0.375 0.84375 -1.03125 1.421875q-0.65625 0.5625 -1.53125 0.859375q-0.875 0.296875 -1.859375 0.296875q-0.90625 0 -1.625 -0.140625q-0.71875 -0.140625 -1.25 -0.359375l0.421875 -1.421875q0.453125 0.234375 1.078125 0.390625q0.640625 0.140625 1.421875 0.140625z" fill-rule="nonzero"/><path fill="#000000" d="m303.25912 18.500473l-2.359375 0l0 4.296875l-1.5625 0l0 -4.296875l-6.15625 0l0 -0.65625l6.640625 -9.265625l1.078125 0l0 8.515625l2.359375 0l0 1.40625zm-3.921875 -5.765625l0.203125 -1.640625l-0.0625 0l-0.703125 1.359375l-2.8125 3.828125l-0.96875 0.96875l1.40625 -0.15625l2.9375 0l0 -4.359375z" fill-rule="nonzero"/><path fill="#000000" d="m362.12436 21.641098q1.375 0 2.265625 -0.796875q0.90625 -0.8125 0.90625 -2.328125q0 -1.453125 -0.890625 -2.171875q-0.890625 -0.734375 -2.453125 -0.734375l-1.671875 0.109375l0 -6.921875l6.234375 0l0 1.484375l-4.734375 0l0 3.96875l0.859375 -0.03125q1.984375 0.015625 3.125 1.09375q1.140625 1.078125 1.140625 3.109375q0 1.109375 -0.390625 1.984375q-0.375 0.875 -1.03125 1.453125q-0.640625 0.578125 -1.53125 0.875q-0.875 0.296875 -1.875 0.296875q-0.90625 0 -1.53125 -0.09375q-0.609375 -0.09375 -1.140625 -0.296875l0.40625 -1.359375q0.46875 0.171875 1.0 0.265625q0.53125 0.09375 1.3125 0.09375z" fill-rule="nonzero"/><path fill="#000000" d="m432.78647 18.578598q0 0.921875 -0.28125 1.734375q-0.28125 0.796875 -0.828125 1.421875q-0.53125 0.609375 -1.34375 0.953125q-0.796875 0.34375 -1.8125 0.34375q-1.0 0 -1.796875 -0.3125q-0.796875 -0.328125 -1.390625 -0.953125q-0.578125 -0.625 -0.890625 -1.546875q-0.296875 -0.921875 -0.296875 -2.125q0 -1.984375 0.5 -3.640625q0.515625 -1.671875 1.40625 -2.90625q0.90625 -1.25 2.140625 -2.015625q1.234375 -0.78125 2.671875 -0.96875l0.34375 1.28125q-1.125 0.1875 -2.046875 0.75q-0.921875 0.5625 -1.609375 1.390625q-0.6875 0.8125 -1.125 1.84375q-0.4375 1.015625 -0.609375 2.09375q0.328125 -0.546875 1.078125 -0.984375q0.765625 -0.453125 1.859375 -0.453125q1.890625 0 2.953125 1.078125q1.078125 1.078125 1.078125 3.015625zm-1.65625 0.15625q0 -1.421875 -0.671875 -2.140625q-0.65625 -0.71875 -2.03125 -0.71875q-0.984375 0 -1.703125 0.484375q-0.703125 0.484375 -0.984375 1.078125q-0.03125 0.28125 -0.03125 0.46875q0 0.171875 0 0.390625q0 0.625 0.15625 1.21875q0.171875 0.59375 0.53125 1.078125q0.359375 0.46875 0.890625 0.765625q0.53125 0.28125 1.25 0.28125q0.59375 0 1.0625 -0.21875q0.46875 -0.21875 0.796875 -0.59375q0.34375 -0.390625 0.53125 -0.921875q0.203125 -0.546875 0.203125 -1.171875z" fill-rule="nonzero"/><path fill="#000000" d="m490.22983 22.797348l5.015625 -11.71875l0.875 -0.984375l-1.171875 0.1875l-5.703125 0l0 -1.484375l8.359375 0l0 0.546875l-5.765625 13.453125l-1.609375 0z" fill-rule="nonzero"/><path fill="#000000" d="m554.4701 19.453598q0 -1.25 0.65625 -2.171875q0.671875 -0.9375 2.0625 -1.703125q-0.5 -0.296875 -0.9375 -0.625q-0.421875 -0.34375 -0.75 -0.75q-0.328125 -0.421875 -0.515625 -0.9375q-0.1875 -0.53125 -0.1875 -1.203125q0 -0.78125 0.265625 -1.421875q0.265625 -0.640625 0.765625 -1.09375q0.515625 -0.46875 1.21875 -0.71875q0.71875 -0.265625 1.625 -0.265625q0.84375 0 1.515625 0.234375q0.6875 0.234375 1.15625 0.65625q0.46875 0.421875 0.71875 1.0q0.265625 0.578125 0.265625 1.28125q0 1.140625 -0.515625 2.015625q-0.515625 0.859375 -1.71875 1.703125q0.515625 0.296875 0.984375 0.671875q0.46875 0.359375 0.8125 0.796875q0.359375 0.4375 0.5625 0.984375q0.203125 0.546875 0.203125 1.25q0 0.859375 -0.28125 1.578125q-0.28125 0.703125 -0.828125 1.21875q-0.53125 0.5 -1.3125 0.796875q-0.78125 0.28125 -1.78125 0.28125q-0.96875 0 -1.703125 -0.265625q-0.734375 -0.28125 -1.25 -0.765625q-0.515625 -0.484375 -0.78125 -1.125q-0.25 -0.65625 -0.25 -1.421875zm6.625 -0.203125q0 -0.59375 -0.25 -1.046875q-0.234375 -0.453125 -0.625 -0.8125q-0.390625 -0.375 -0.890625 -0.671875q-0.5 -0.296875 -1.03125 -0.578125q-1.234375 0.671875 -1.75 1.515625q-0.515625 0.84375 -0.515625 1.59375q0 0.484375 0.15625 0.921875q0.15625 0.4375 0.46875 0.765625q0.328125 0.3125 0.796875 0.515625q0.46875 0.1875 1.09375 0.1875q0.5 0 0.953125 -0.140625q0.46875 -0.15625 0.8125 -0.453125q0.359375 -0.296875 0.5625 -0.734375q0.21875 -0.453125 0.21875 -1.0625zm-4.75 -7.234375q0 0.5625 0.21875 1.0q0.234375 0.421875 0.59375 0.765625q0.375 0.328125 0.84375 0.625q0.484375 0.296875 1.015625 0.546875q0.890625 -0.703125 1.3125 -1.375q0.4375 -0.6875 0.4375 -1.5q0 -1.015625 -0.625 -1.5625q-0.625 -0.5625 -1.515625 -0.5625q-0.53125 0 -0.953125 0.1875q-0.421875 0.171875 -0.71875 0.453125q-0.296875 0.28125 -0.453125 0.65625q-0.15625 0.359375 -0.15625 0.765625z" fill-rule="nonzero"/><path fill="#000000" d="m619.2416 13.031723q0 -0.953125 0.265625 -1.765625q0.28125 -0.828125 0.828125 -1.421875q0.546875 -0.609375 1.34375 -0.9375q0.8125 -0.34375 1.890625 -0.34375q2.046875 0 3.1875 1.328125q1.140625 1.3125 1.140625 3.703125q0 2.265625 -0.515625 3.953125q-0.5 1.6875 -1.40625 2.859375q-0.90625 1.15625 -2.140625 1.8125q-1.21875 0.640625 -2.65625 0.8125l-0.359375 -1.28125q1.15625 -0.171875 2.078125 -0.671875q0.9375 -0.5 1.609375 -1.25q0.671875 -0.765625 1.078125 -1.734375q0.421875 -0.984375 0.59375 -2.109375q-0.546875 0.625 -1.203125 0.875q-0.640625 0.25 -1.703125 0.25q-0.8125 0 -1.546875 -0.265625q-0.734375 -0.265625 -1.296875 -0.78125q-0.546875 -0.53125 -0.875 -1.28125q-0.3125 -0.765625 -0.3125 -1.75zm1.65625 -0.15625q0 1.421875 0.75 2.140625q0.75 0.703125 1.96875 0.703125q0.984375 0 1.671875 -0.3125q0.703125 -0.328125 1.0 -0.84375q0.046875 -0.265625 0.046875 -0.46875q0 -0.203125 0 -0.421875q0 -0.71875 -0.171875 -1.390625q-0.171875 -0.671875 -0.515625 -1.1875q-0.328125 -0.53125 -0.890625 -0.828125q-0.546875 -0.3125 -1.28125 -0.3125q-1.21875 0 -1.90625 0.78125q-0.671875 0.765625 -0.671875 2.140625z" fill-rule="nonzero"/><path fill="#000000" d="m34.840446 57.737972l-6.5 -11.46875l5.5 0l3.59375 6.734375l0.796875 2.359375l0.78125 -2.359375l3.765625 -6.734375l4.953125 0l-6.71875 11.234375l7.0625 12.093746l-5.4375 0l-4.09375 -7.203121l-0.90625 -2.46875l-0.859375 2.46875l-4.140625 7.203121l-4.96875 0l7.171875 -11.859371z" fill-rule="nonzero"/><path fill="#000000" d="m88.40273 67.12859l4.671875 0l0 -16.124996l0.328125 -1.96875l-1.328125 1.5625l-3.671875 2.640625l-1.265625 -1.703125l7.34375 -5.671875l1.1875 0l0 21.265621l4.578125 0l0 2.46875l-11.84375 0l0 -2.46875zm18.16378 0l4.671875 0l0 -16.124996l0.328125 -1.96875l-1.328125 1.5625l-3.671875 2.640625l-1.265625 -1.703125l7.34375 -5.671875l1.1875 0l0 21.265621l4.578125 0l0 2.46875l-11.84375 0l0 -2.46875z" fill-rule="nonzero"/><path fill="#000000" d="m218.57071 67.12859l4.671875 0l0 -16.124996l0.328125 -1.96875l-1.328125 1.5625l-3.671875 2.640625l-1.265625 -1.703125l7.34375 -5.671875l1.1875 0l0 21.265621l4.578125 0l0 2.46875l-11.84375 0l0 -2.46875zm22.366913 0.53125q1.140625 0 2.09375 -0.328125q0.96875 -0.328125 1.671875 -0.984375q0.703125 -0.65625 1.09375 -1.546875q0.40625 -0.9062462 0.40625 -1.9687462q0 -2.328125 -1.390625 -3.453125q-1.375 -1.140625 -3.8125 -1.140625l-2.453125 0l0 -0.96875l4.796875 -7.40625l1.53125 -1.46875l-2.171875 0.34375l-6.59375 0l0 -2.46875l11.890625 0l0 0.96875l-5.296875 7.96875l-1.15625 0.953125l0 0.078125l1.125 -0.234375q1.328125 0.03125 2.453125 0.484375q1.140625 0.4375 1.96875 1.296875q0.84375 0.84375 1.3125 2.03125q0.46875 1.1875 0.46875 2.6875q0 1.7968712 -0.640625 3.2031212q-0.625 1.390625 -1.71875 2.34375q-1.078125 0.953125 -2.546875 1.453125q-1.46875 0.5 -3.09375 0.5q-1.5 0 -2.703125 -0.234375q-1.203125 -0.234375 -2.09375 -0.609375l0.6875 -2.359375q0.78125 0.359375 1.828125 0.609375q1.046875 0.25 2.34375 0.25z" fill-rule="nonzero"/><path fill="#000000" d="m294.92032 51.566097q0 1.765625 -0.65625 3.625q-0.640625 1.84375 -1.6875 3.71875q-1.046875 1.859375 -2.359375 3.640625q-1.296875 1.7812462 -2.59375 3.3749962l-1.625 1.4375l0 0.140625l2.125 -0.375l7.265625 0l0 2.46875l-13.265625 0l0 -0.96875q0.734375 -0.765625 1.765625 -1.890625q1.03125 -1.140625 2.140625 -2.515625q1.125 -1.3906212 2.203125 -2.9374962q1.09375 -1.546875 1.96875 -3.140625q0.890625 -1.609375 1.421875 -3.171875q0.53125 -1.578125 0.53125 -2.96875q0 -1.640625 -0.9375 -2.71875q-0.921875 -1.078125 -2.828125 -1.078125q-1.265625 0 -2.46875 0.515625q-1.1875 0.515625 -2.0625 1.171875l-1.09375 -1.890625q1.15625 -1.0 2.75 -1.5625q1.609375 -0.578125 3.453125 -0.578125q1.421875 0 2.515625 0.421875q1.109375 0.421875 1.875 1.1875q0.765625 0.765625 1.15625 1.8125q0.40625 1.046875 0.40625 2.28125zm20.773163 10.859375l-3.9375 0l0 7.171871l-2.59375 0l0 -7.171871l-10.265625 0l0 -1.09375l11.0625 -15.4375l1.796875 0l0 14.203125l3.9375 0l0 2.328125zm-6.53125 -9.59375l0.328125 -2.734375l-0.09375 0l-1.171875 2.265625l-4.703125 6.375l-1.59375 1.625l2.328125 -0.265625l4.90625 0l0 -7.265625z" fill-rule="nonzero"/><path fill="#000000" d="m360.2604 57.737972l-6.5 -11.46875l5.5 0l3.59375 6.734375l0.796875 2.359375l0.78125 -2.359375l3.765625 -6.734375l4.953125 0l-6.71875 11.234375l7.0625 12.093746l-5.4375 0l-4.09375 -7.203121l-0.90625 -2.46875l-0.859375 2.46875l-4.140625 7.203121l-4.96875 0l7.171875 -11.859371z" fill-rule="nonzero"/><path fill="#000000" d="m425.3444 57.737972l-6.5 -11.46875l5.5 0l3.59375 6.734375l0.796875 2.359375l0.78125 -2.359375l3.765625 -6.734375l4.953125 0l-6.71875 11.234375l7.0625 12.093746l-5.4375 0l-4.09375 -7.203121l-0.90625 -2.46875l-0.859375 2.46875l-4.140625 7.203121l-4.96875 0l7.171875 -11.859371z" fill-rule="nonzero"/><path fill="#000000" d="m490.42838 57.737972l-6.5 -11.46875l5.5 0l3.59375 6.734375l0.796875 2.359375l0.78125 -2.359375l3.765625 -6.734375l4.953125 0l-6.71875 11.234375l7.0625 12.093746l-5.4375 0l-4.09375 -7.203121l-0.90625 -2.46875l-0.859375 2.46875l-4.140625 7.203121l-4.96875 0l7.171875 -11.859371z" fill-rule="nonzero"/><path fill="#000000" d="m543.99066 67.12859l4.671875 0l0 -16.124996l0.328125 -1.96875l-1.328125 1.5625l-3.671875 2.640625l-1.265625 -1.703125l7.34375 -5.671875l1.1875 0l0 21.265621l4.578125 0l0 2.46875l-11.84375 0l0 -2.46875zm32.038757 -4.703121l-3.9375 0l0 7.171871l-2.59375 0l0 -7.171871l-10.265625 0l0 -1.09375l11.0625 -15.4375l1.796875 0l0 14.203125l3.9375 0l0 2.328125zm-6.53125 -9.59375l0.328125 -2.734375l-0.09375 0l-1.171875 2.265625l-4.703125 6.375l-1.59375 1.625l2.328125 -0.265625l4.90625 0l0 -7.265625z" fill-rule="nonzero"/><path stroke="#000000" stroke-width="3.0" stroke-linecap="butt" d="m77.740486 172.72858l0 62.45932" fill-rule="nonzero"/><path stroke="#000000" stroke-width="3.0" stroke-linecap="butt" d="m142.82448 172.72858l0 62.45932" fill-rule="nonzero"/><path stroke="#000000" stroke-width="3.0" stroke-linecap="butt" d="m207.90846 172.72858l0 62.45932" fill-rule="nonzero"/><path stroke="#000000" stroke-width="3.0" stroke-linecap="butt" d="m272.99246 172.72858l0 62.45932" fill-rule="nonzero"/><path stroke="#000000" stroke-width="3.0" stroke-linecap="butt" d="m338.07645 172.72858l0 62.45932" fill-rule="nonzero"/><path stroke="#000000" stroke-width="3.0" stroke-linecap="butt" d="m403.16043 172.72858l0 62.45932" fill-rule="nonzero"/><path stroke="#000000" stroke-width="3.0" stroke-linecap="butt" d="m468.24442 172.72858l0 62.45932" fill-rule="nonzero"/><path stroke="#000000" stroke-width="3.0" stroke-linecap="butt" d="m533.3284 172.72858l0 62.45932" fill-rule="nonzero"/><path stroke="#000000" stroke-width="3.0" stroke-linecap="butt" d="m598.4124 172.72858l0 62.45932" fill-rule="nonzero"/><path stroke="#000000" stroke-width="3.0" stroke-linecap="butt" d="m76.2418 174.22726l523.66925 0" fill-rule="nonzero"/><path stroke="#000000" stroke-width="3.0" stroke-linecap="butt" d="m76.2418 233.68921l523.66925 0" fill-rule="nonzero"/><path fill="#000000" d="m105.69186 161.42728q0 -3.59375 1.171875 -5.40625q1.171875 -1.828125 3.40625 -1.828125q2.421875 0 3.515625 1.796875q1.09375 1.78125 1.09375 5.4375q0 3.59375 -1.171875 5.421875q-1.171875 1.8125 -3.4375 1.8125q-2.375 0 -3.484375 -1.890625q-1.09375 -1.90625 -1.09375 -5.34375zm1.65625 0q0 1.296875 0.171875 2.375q0.171875 1.0625 0.53125 1.84375q0.359375 0.765625 0.90625 1.203125q0.5625 0.421875 1.3125 0.421875q1.515625 0 2.21875 -1.40625q0.71875 -1.421875 0.71875 -4.4375q0 -1.28125 -0.15625 -2.359375q-0.140625 -1.078125 -0.5 -1.859375q-0.34375 -0.78125 -0.90625 -1.203125q-0.546875 -0.421875 -1.375 -0.421875q-1.5 0 -2.21875 1.421875q-0.703125 1.421875 -0.703125 4.421875z" fill-rule="nonzero"/><path fill="#000000" d="m172.07272 166.9429l2.796875 0l0 -9.671875l0.203125 -1.1875l-0.796875 0.9375l-2.203125 1.59375l-0.75 -1.03125l4.390625 -3.390625l0.71875 0l0 12.75l2.75 0l0 1.484375l-7.109375 0l0 -1.484375z" fill-rule="nonzero"/><path fill="#000000" d="m243.92233 157.61478q0 1.046875 -0.390625 2.15625q-0.390625 1.109375 -1.03125 2.234375q-0.625 1.125 -1.40625 2.203125q-0.78125 1.0625 -1.546875 2.015625l-0.984375 0.859375l0 0.078125l1.28125 -0.21875l4.359375 0l0 1.484375l-7.96875 0l0 -0.578125q0.453125 -0.46875 1.0625 -1.140625q0.625 -0.6875 1.296875 -1.515625q0.671875 -0.828125 1.3125 -1.75q0.65625 -0.9375 1.1875 -1.890625q0.53125 -0.96875 0.84375 -1.90625q0.328125 -0.9375 0.328125 -1.78125q0 -0.984375 -0.5625 -1.625q-0.5625 -0.65625 -1.703125 -0.65625q-0.765625 0 -1.484375 0.3125q-0.71875 0.3125 -1.234375 0.71875l-0.65625 -1.140625q0.6875 -0.609375 1.640625 -0.9375q0.96875 -0.34375 2.078125 -0.34375q0.859375 0 1.515625 0.25q0.65625 0.25 1.109375 0.71875q0.46875 0.453125 0.703125 1.078125q0.25 0.625 0.25 1.375z" fill-rule="nonzero"/><path fill="#000000" d="m304.77194 167.27103q0.671875 0 1.25 -0.203125q0.578125 -0.203125 1.0 -0.59375q0.421875 -0.390625 0.65625 -0.921875q0.25 -0.546875 0.25 -1.1875q0 -1.390625 -0.828125 -2.0625q-0.828125 -0.6875 -2.296875 -0.6875l-1.484375 0l0 -0.59375l2.890625 -4.4375l0.921875 -0.875l-1.3125 0.203125l-3.953125 0l0 -1.484375l7.140625 0l0 0.578125l-3.1875 4.78125l-0.6875 0.578125l0 0.046875l0.671875 -0.140625q0.796875 0.015625 1.46875 0.296875q0.6875 0.265625 1.1875 0.78125q0.5 0.5 0.78125 1.21875q0.28125 0.703125 0.28125 1.59375q0 1.078125 -0.375 1.921875q-0.375 0.84375 -1.03125 1.421875q-0.65625 0.5625 -1.53125 0.859375q-0.875 0.296875 -1.859375 0.296875q-0.90625 0 -1.625 -0.140625q-0.71875 -0.140625 -1.25 -0.359375l0.421875 -1.421875q0.453125 0.234375 1.078125 0.390625q0.640625 0.140625 1.421875 0.140625z" fill-rule="nonzero"/><path fill="#000000" d="m375.6528 164.1304l-2.359375 0l0 4.296875l-1.5625 0l0 -4.296875l-6.15625 0l0 -0.65625l6.640625 -9.265625l1.078125 0l0 8.515625l2.359375 0l0 1.40625zm-3.921875 -5.765625l0.203125 -1.640625l-0.0625 0l-0.703125 1.359375l-2.8125 3.828125l-0.96875 0.96875l1.40625 -0.15625l2.9375 0l0 -4.359375z" fill-rule="nonzero"/><path fill="#000000" d="m434.51807 167.27103q1.375 0 2.265625 -0.796875q0.90625 -0.8125 0.90625 -2.328125q0 -1.453125 -0.890625 -2.171875q-0.890625 -0.734375 -2.453125 -0.734375l-1.671875 0.109375l0 -6.921875l6.234375 0l0 1.484375l-4.734375 0l0 3.96875l0.859375 -0.03125q1.984375 0.015625 3.125 1.09375q1.140625 1.078125 1.140625 3.109375q0 1.109375 -0.390625 1.984375q-0.375 0.875 -1.03125 1.453125q-0.640625 0.578125 -1.53125 0.875q-0.875 0.296875 -1.875 0.296875q-0.90625 0 -1.53125 -0.09375q-0.609375 -0.09375 -1.140625 -0.296875l0.40625 -1.359375q0.46875 0.171875 1.0 0.265625q0.53125 0.09375 1.3125 0.09375z" fill-rule="nonzero"/><path fill="#000000" d="m505.18018 164.20853q0 0.921875 -0.28125 1.734375q-0.28125 0.796875 -0.828125 1.421875q-0.53125 0.609375 -1.34375 0.953125q-0.796875 0.34375 -1.8125 0.34375q-1.0 0 -1.796875 -0.3125q-0.796875 -0.328125 -1.390625 -0.953125q-0.578125 -0.625 -0.890625 -1.546875q-0.296875 -0.921875 -0.296875 -2.125q0 -1.984375 0.5 -3.640625q0.515625 -1.671875 1.40625 -2.90625q0.90625 -1.25 2.140625 -2.015625q1.234375 -0.78125 2.671875 -0.96875l0.34375 1.28125q-1.125 0.1875 -2.046875 0.75q-0.921875 0.5625 -1.609375 1.390625q-0.6875 0.8125 -1.125 1.84375q-0.4375 1.015625 -0.609375 2.09375q0.328125 -0.546875 1.078125 -0.984375q0.765625 -0.453125 1.859375 -0.453125q1.890625 0 2.953125 1.078125q1.078125 1.078125 1.078125 3.015625zm-1.65625 0.15625q0 -1.421875 -0.671875 -2.140625q-0.65625 -0.71875 -2.03125 -0.71875q-0.984375 0 -1.703125 0.484375q-0.703125 0.484375 -0.984375 1.078125q-0.03125 0.28125 -0.03125 0.46875q0 0.171875 0 0.390625q0 0.625 0.15625 1.21875q0.171875 0.59375 0.53125 1.078125q0.359375 0.46875 0.890625 0.765625q0.53125 0.28125 1.25 0.28125q0.59375 0 1.0625 -0.21875q0.46875 -0.21875 0.796875 -0.59375q0.34375 -0.390625 0.53125 -0.921875q0.203125 -0.546875 0.203125 -1.171875z" fill-rule="nonzero"/><path fill="#000000" d="m562.62354 168.42728l5.015625 -11.71875l0.875 -0.984375l-1.171875 0.1875l-5.703125 0l0 -1.484375l8.359375 0l0 0.546875l-5.765625 13.453125l-1.609375 0z" fill-rule="nonzero"/><path fill="#000000" d="m106.978065 197.19601q0 1.765625 -0.65625 3.625q-0.640625 1.84375 -1.6875 3.71875q-1.046875 1.859375 -2.359375 3.640625q-1.296875 1.78125 -2.59375 3.375l-1.625 1.4375l0 0.140625l2.125 -0.375l7.265625 0l0 2.46875l-13.265625 0l0 -0.96875q0.734375 -0.765625 1.765625 -1.890625q1.03125 -1.140625 2.140625 -2.515625q1.125 -1.390625 2.203125 -2.9375q1.09375 -1.546875 1.96875 -3.140625q0.890625 -1.609375 1.421875 -3.171875q0.53125 -1.578125 0.53125 -2.96875q0 -1.640625 -0.9375 -2.71875q-0.921875 -1.078125 -2.828125 -1.078125q-1.265625 0 -2.46875 0.515625q-1.1875 0.515625 -2.0625 1.171875l-1.09375 -1.890625q1.15625 -1.0 2.75 -1.5625q1.609375 -0.578125 3.453125 -0.578125q1.421875 0 2.515625 0.421875q1.109375 0.421875 1.875 1.1875q0.765625 0.765625 1.15625 1.8125q0.40625 1.046875 0.40625 2.28125zm20.773163 10.859375l-3.9375 0l0 7.171875l-2.59375 0l0 -7.171875l-10.265625 0l0 -1.09375l11.0625 -15.4375l1.796875 0l0 14.203125l3.9375 0l0 2.328125zm-6.53125 -9.59375l0.328125 -2.734375l-0.09375 0l-1.171875 2.265625l-4.703125 6.375l-1.59375 1.625l2.328125 -0.265625l4.90625 0l0 -7.265625z" fill-rule="nonzero"/><path fill="#000000" d="m290.96442 212.75851l4.671875 0l0 -16.125l0.328125 -1.96875l-1.328125 1.5625l-3.671875 2.640625l-1.265625 -1.703125l7.34375 -5.671875l1.1875 0l0 21.265625l4.578125 0l0 2.46875l-11.84375 0l0 -2.46875zm18.163788 0l4.671875 0l0 -16.125l0.328125 -1.96875l-1.328125 1.5625l-3.671875 2.640625l-1.265625 -1.703125l7.34375 -5.671875l1.1875 0l0 21.265625l4.578125 0l0 2.46875l-11.84375 0l0 -2.46875z" fill-rule="nonzero"/><path fill="#000000" d="m432.398 197.19601q0 1.765625 -0.65625 3.625q-0.640625 1.84375 -1.6875 3.71875q-1.046875 1.859375 -2.359375 3.640625q-1.296875 1.78125 -2.59375 3.375l-1.625 1.4375l0 0.140625l2.125 -0.375l7.265625 0l0 2.46875l-13.265625 0l0 -0.96875q0.734375 -0.765625 1.765625 -1.890625q1.03125 -1.140625 2.140625 -2.515625q1.125 -1.390625 2.203125 -2.9375q1.09375 -1.546875 1.96875 -3.140625q0.890625 -1.609375 1.421875 -3.171875q0.53125 -1.578125 0.53125 -2.96875q0 -1.640625 -0.9375 -2.71875q-0.921875 -1.078125 -2.828125 -1.078125q-1.265625 0 -2.46875 0.515625q-1.1875 0.515625 -2.0625 1.171875l-1.09375 -1.890625q1.15625 -1.0 2.75 -1.5625q1.609375 -0.578125 3.453125 -0.578125q1.421875 0 2.515625 0.421875q1.109375 0.421875 1.875 1.1875q0.765625 0.765625 1.15625 1.8125q0.40625 1.046875 0.40625 2.28125zm5.038788 1.765625q0 -1.59375 0.46875 -2.953125q0.46875 -1.375 1.359375 -2.375q0.90625 -1.0 2.25 -1.5625q1.359375 -0.578125 3.15625 -0.578125q3.390625 0 5.296875 2.203125q1.90625 2.203125 1.90625 6.203125q0 3.765625 -0.859375 6.578125q-0.84375 2.8125 -2.34375 4.75q-1.5 1.9375 -3.5625 3.015625q-2.046875 1.078125 -4.4375 1.390625l-0.609375 -2.140625q1.9375 -0.296875 3.484375 -1.125q1.5625 -0.84375 2.671875 -2.109375q1.109375 -1.265625 1.8125 -2.875q0.703125 -1.625 0.96875 -3.515625q-0.90625 1.0625 -1.984375 1.484375q-1.078125 0.40625 -2.84375 0.40625q-1.375 0 -2.59375 -0.4375q-1.203125 -0.453125 -2.140625 -1.3125q-0.9375 -0.875 -1.46875 -2.140625q-0.53125 -1.265625 -0.53125 -2.90625zm2.765625 -0.265625q0 2.359375 1.25 3.546875q1.25 1.1875 3.28125 1.1875q1.640625 0 2.796875 -0.53125q1.171875 -0.53125 1.671875 -1.40625q0.0625 -0.4375 0.0625 -0.765625q0 -0.328125 0 -0.703125q0 -1.1875 -0.28125 -2.296875q-0.28125 -1.125 -0.859375 -2.0q-0.5625 -0.890625 -1.484375 -1.390625q-0.90625 -0.5 -2.140625 -0.5q-2.03125 0 -3.171875 1.28125q-1.125 1.28125 -1.125 3.578125z" fill-rule="nonzero"/><path fill="#000000" d="m486.21637 212.75851l4.671875 0l0 -16.125l0.328125 -1.96875l-1.328125 1.5625l-3.671875 2.640625l-1.265625 -1.703125l7.34375 -5.671875l1.1875 0l0 21.265625l4.578125 0l0 2.46875l-11.84375 0l0 -2.46875zm22.366913 0.53125q1.140625 0 2.09375 -0.328125q0.96875 -0.328125 1.6719055 -0.984375q0.703125 -0.65625 1.09375 -1.546875q0.40625 -0.90625 0.40625 -1.96875q0 -2.328125 -1.390625 -3.453125q-1.3750305 -1.140625 -3.8125305 -1.140625l-2.453125 0l0 -0.96875l4.796875 -7.40625l1.5312805 -1.46875l-2.1719055 0.34375l-6.59375 0l0 -2.46875l11.8906555 0l0 0.96875l-5.2969055 7.96875l-1.15625 0.953125l0 0.078125l1.125 -0.234375q1.328125 0.03125 2.4531555 0.484375q1.140625 0.4375 1.96875 1.296875q0.84375 0.84375 1.3125 2.03125q0.46875 1.1875 0.46875 2.6875q0 1.796875 -0.640625 3.203125q-0.625 1.390625 -1.71875 2.34375q-1.078125 0.953125 -2.5469055 1.453125q-1.46875 0.5 -3.09375 0.5q-1.5 0 -2.703125 -0.234375q-1.203125 -0.234375 -2.09375 -0.609375l0.6875 -2.359375q0.78125 0.359375 1.828125 0.609375q1.046875 0.25 2.34375 0.25z" fill-rule="nonzero"/><path fill="#000000" fill-opacity="0.0" d="m100.769356 88.06217c0 21.542015 49.04725 32.312378 98.09449 43.084023c49.04724 10.7716675 98.0945 21.544601 98.0945 43.089203" fill-rule="evenodd"/><path stroke="#000000" stroke-width="2.0" stroke-linejoin="round" stroke-linecap="butt" d="m100.769356 88.06217c0 21.542015 49.04725 32.312378 98.09449 43.084038c24.52362 5.3858185 49.04724 10.771973 67.43996 17.504745c9.19635 3.3663788 16.859985 7.069412 22.224548 11.27739c2.682251 2.1039886 4.7897644 4.3342133 6.2266846 6.7117157c0.17962646 0.29718018 0.34875488 0.5966797 0.50723267 0.8985138l0.02545166 0.04937744" fill-rule="evenodd"/><path fill="#000000" stroke="#000000" stroke-width="2.0" stroke-linecap="butt" d="m295.28772 167.58794l-2.7295532 -1.6331177l3.6875305 5.4449615l0.6751404 -6.541382z" fill-rule="evenodd"/><path fill="#000000" fill-opacity="0.0" d="m95.00558 81.96768c0 -3.3658905 2.580536 -6.09449 5.7637787 -6.09449c1.5286484 0 2.99469 0.6420975 4.0756073 1.7850342c1.0809174 1.1429443 1.6881714 2.6931 1.6881714 4.309456c0 3.3658981 -2.5805283 6.09449 -5.7637787 6.09449c-3.1832428 0 -5.7637787 -2.728592 -5.7637787 -6.09449z" fill-rule="evenodd"/><path fill="#000000" fill-opacity="0.0" d="m291.20767 180.32465c0 -3.3659058 2.580536 -6.0944977 5.763794 -6.0944977c1.5286255 0 2.99469 0.6421051 4.075592 1.7850342c1.0809326 1.1429443 1.6881714 2.6931 1.6881714 4.3094635c0 3.3658905 -2.580536 6.0944824 -5.7637634 6.0944824c-3.183258 0 -5.763794 -2.728592 -5.763794 -6.0944824z" fill-rule="evenodd"/><path fill="#000000" fill-opacity="0.0" d="m230.06201 88.06217c0 21.542015 49.59842 32.312378 99.19684 43.084023c49.59842 10.7716675 99.19687 21.544601 99.19687 43.089203" fill-rule="evenodd"/><path stroke="#000000" stroke-width="2.0" stroke-linejoin="round" stroke-linecap="butt" d="m230.06201 88.06217c0 21.542015 49.59842 32.312378 99.19684 43.084038c24.799225 5.3858185 49.59842 10.771973 68.197845 17.504745c9.299713 3.3663788 17.049469 7.069412 22.474274 11.27739c2.7124023 2.1039886 4.8435974 4.3342133 6.296692 6.7117157c0.1816101 0.29718018 0.35269165 0.5966797 0.51290894 0.8985138l0.027923584 0.05355835" fill-rule="evenodd"/><path fill="#000000" stroke="#000000" stroke-width="2.0" stroke-linecap="butt" d="m426.7685 167.59213l-2.733612 -1.626297l3.7011108 5.43573l0.6588135 -6.543045z" fill-rule="evenodd"/><path fill="#000000" fill-opacity="0.0" d="m224.29823 81.96768c0 -3.3658905 2.5805206 -6.09449 5.7637787 -6.09449c1.5286407 0 2.99469 0.6420975 4.0756073 1.7850342c1.0809174 1.1429443 1.6881714 2.6931 1.6881714 4.309456c0 3.3658981 -2.580536 6.09449 -5.7637787 6.09449c-3.183258 0 -5.7637787 -2.728592 -5.7637787 -6.09449z" fill-rule="evenodd"/><path fill="#000000" fill-opacity="0.0" d="m422.7011 180.32465c0 -3.3659058 2.580536 -6.0944977 5.763794 -6.0944977c1.5286255 0 2.99469 0.6421051 4.075592 1.7850342c1.0809326 1.1429443 1.6881714 2.6931 1.6881714 4.3094635c0 3.3658905 -2.580536 6.0944824 -5.7637634 6.0944824c-3.183258 0 -5.763794 -2.728592 -5.763794 -6.0944824z" fill-rule="evenodd"/><path fill="#000000" fill-opacity="0.0" d="m296.97015 88.06217c0 21.542015 -44.488205 32.312378 -88.976395 43.084023c-44.488174 10.7716675 -88.97637 21.544601 -88.97637 43.089203" fill-rule="evenodd"/><path stroke="#000000" stroke-width="2.0" stroke-linejoin="round" stroke-linecap="butt" d="m296.97015 88.06217c0 21.542015 -44.488205 32.312378 -88.976395 43.084038c-22.244095 5.3858185 -44.488174 10.771973 -61.17125 17.504745c-8.341537 3.3663788 -15.292816 7.069412 -20.158714 11.27739c-2.4329453 2.1039886 -4.344551 4.3342133 -5.647911 6.7117157c-0.16292572 0.29718018 -0.3163376 0.5966797 -0.460083 0.8985138l-0.0072784424 0.015853882" fill-rule="evenodd"/><path fill="#000000" stroke="#000000" stroke-width="2.0" stroke-linecap="butt" d="m120.54853 167.55443l-1.6898956 -2.6947632l0.8118973 6.525818l3.5727615 -5.520935z" fill-rule="evenodd"/><path fill="#000000" fill-opacity="0.0" d="m291.20636 81.96768c0 -3.3658905 2.580536 -6.09449 5.763794 -6.09449c1.5286255 0 2.99469 0.6420975 4.075592 1.7850342c1.0809326 1.1429443 1.6881714 2.6931 1.6881714 4.309456c0 3.3658981 -2.580536 6.09449 -5.7637634 6.09449c-3.183258 0 -5.763794 -2.728592 -5.763794 -6.09449z" fill-rule="evenodd"/><path fill="#000000" fill-opacity="0.0" d="m113.24442 180.32465c0 -3.3659058 2.5805283 -6.0944977 5.7637787 -6.0944977c1.5286484 0 2.99469 0.6421051 4.0756073 1.7850342c1.0809174 1.1429443 1.6881714 2.6931 1.6881714 4.3094635c0 3.3658905 -2.5805283 6.0944824 -5.7637787 6.0944824c-3.1832504 0 -5.7637787 -2.728592 -5.7637787 -6.0944824z" fill-rule="evenodd"/><path fill="#000000" fill-opacity="0.0" d="m557.78906 88.06217c0 21.542015 -11.763794 32.312378 -23.527588 43.084023c-11.763794 10.7716675 -23.527557 21.544601 -23.527557 43.089203" fill-rule="evenodd"/><path stroke="#000000" stroke-width="2.0" stroke-linejoin="round" stroke-linecap="butt" d="m557.78906 88.06217c0 21.542015 -11.763794 32.312378 -23.527588 43.084038c-5.881897 5.3858185 -11.763794 10.771973 -16.17517 17.504745c-2.2057495 3.3663788 -4.0438232 7.069412 -5.3305054 11.27739c-0.64331055 2.1039886 -1.1487732 4.3342133 -1.4934082 6.7117157c-0.02154541 0.14859009 -0.04244995 0.29777527 -0.06274414 0.44750977l-0.040100098 0.30688477" fill-rule="evenodd"/><path fill="#000000" stroke="#000000" stroke-width="2.0" stroke-linecap="butt" d="m511.15955 167.39445l-2.1051636 -2.384491l1.8611145 6.3072815l2.6285706 -6.027954z" fill-rule="evenodd"/><path fill="#000000" fill-opacity="0.0" d="m552.02527 81.96768c0 -3.3658905 2.5805054 -6.09449 5.763794 -6.09449c1.5286255 0 2.99469 0.6420975 4.0755615 1.7850342c1.0809326 1.1429443 1.6881714 2.6931 1.6881714 4.309456c0 3.3658981 -2.5805054 6.09449 -5.763733 6.09449c-3.1832886 0 -5.763794 -2.728592 -5.763794 -6.09449z" fill-rule="evenodd"/><path fill="#000000" fill-opacity="0.0" d="m504.97147 180.32465c0 -3.3659058 2.580536 -6.0944977 5.7637634 -6.0944977c1.5286865 0 2.99469 0.6421051 4.0756226 1.7850342c1.0809326 1.1429443 1.6881714 2.6931 1.6881714 4.3094635c0 3.3658905 -2.5805664 6.0944824 -5.763794 6.0944824c-3.1832275 0 -5.7637634 -2.728592 -5.7637634 -6.0944824z" fill-rule="evenodd"/></g></svg>