<svg version="1.1" viewBox="0.0 0.0 862.7086614173228 103.54068241469817" fill="none" stroke="none" stroke-linecap="square" stroke-miterlimit="10" xmlns:xlink="http://www.w3.org/1999/xlink" xmlns="http://www.w3.org/2000/svg"><clipPath id="p.0"><path d="m0 0l862.7087 0l0 103.54068l-862.7087 0l0 -103.54068z" clip-rule="nonzero"/></clipPath><g clip-path="url(#p.0)"><path fill="#000000" fill-opacity="0.0" d="m0 0l862.7087 0l0 103.54068l-862.7087 0z" fill-rule="evenodd"/><path stroke="#000000" stroke-width="3.0" stroke-linecap="butt" d="m9.818897 33.538605l0 62.45932" fill-rule="nonzero"/><path stroke="#000000" stroke-width="3.0" stroke-linecap="butt" d="m74.93438 33.538605l0 62.45932" fill-rule="nonzero"/><path stroke="#000000" stroke-width="3.0" stroke-linecap="butt" d="m140.04987 33.538605l0 62.45932" fill-rule="nonzero"/><path stroke="#000000" stroke-width="3.0" stroke-linecap="butt" d="m205.16536 33.538605l0 62.45932" fill-rule="nonzero"/><path stroke="#000000" stroke-width="3.0" stroke-linecap="butt" d="m270.28085 33.538605l0 62.45932" fill-rule="nonzero"/><path stroke="#000000" stroke-width="3.0" stroke-linecap="butt" d="m335.39633 33.538605l0 62.45932" fill-rule="nonzero"/><path stroke="#000000" stroke-width="3.0" stroke-linecap="butt" d="m400.5118 33.538605l0 62.45932" fill-rule="nonzero"/><path stroke="#000000" stroke-width="3.0" stroke-linecap="butt" d="m465.6273 33.538605l0 62.45932" fill-rule="nonzero"/><path stroke="#000000" stroke-width="3.0" stroke-linecap="butt" d="m530.7428 33.538605l0 62.45932" fill-rule="nonzero"/><path stroke="#000000" stroke-width="3.0" stroke-linecap="butt" d="m595.8583 33.538605l0 62.45932" fill-rule="nonzero"/><path stroke="#000000" stroke-width="3.0" stroke-linecap="butt" d="m660.97375 33.538605l0 62.45932" fill-rule="nonzero"/><path stroke="#000000" stroke-width="3.0" stroke-linecap="butt" d="m726.08923 33.538605l0 62.45932" fill-rule="nonzero"/><path stroke="#000000" stroke-width="3.0" stroke-linecap="butt" d="m791.2047 33.538605l0 62.45932" fill-rule="nonzero"/><path stroke="#000000" stroke-width="3.0" stroke-linecap="butt" d="m856.3202 33.538605l0 62.45932" fill-rule="nonzero"/><path stroke="#000000" stroke-width="3.0" stroke-linecap="butt" d="m8.3202095 35.037292l849.4987 0" fill-rule="nonzero"/><path stroke="#000000" stroke-width="3.0" stroke-linecap="butt" d="m8.3202095 94.49924l849.4987 0" fill-rule="nonzero"/><path fill="#000000" d="m37.78602 22.237295q0 -3.59375 1.171875 -5.40625q1.171875 -1.828125 3.40625 -1.828125q2.421875 0 3.515625 1.796875q1.09375 1.78125 1.09375 5.4375q0 3.59375 -1.171875 5.421875q-1.171875 1.8125 -3.4375 1.8125q-2.375 0 -3.484375 -1.890625q-1.09375 -1.90625 -1.09375 -5.34375zm1.65625 0q0 1.296875 0.171875 2.375q0.171875 1.0625 0.53125 1.84375q0.359375 0.765625 0.90625 1.203125q0.5625 0.421875 1.3125 0.421875q1.515625 0 2.21875 -1.40625q0.71875 -1.421875 0.71875 -4.4375q0 -1.28125 -0.15625 -2.359375q-0.140625 -1.078125 -0.5 -1.859375q-0.34375 -0.78125 -0.90625 -1.203125q-0.546875 -0.421875 -1.375 -0.421875q-1.5 0 -2.21875 1.421875q-0.703125 1.421875 -0.703125 4.421875z" fill-rule="nonzero"/><path fill="#000000" d="m104.19838 27.75292l2.796875 0l0 -9.671875l0.203125 -1.1875l-0.796875 0.9375l-2.203125 1.59375l-0.75 -1.03125l4.390625 -3.390625l0.71875 0l0 12.75l2.75 0l0 1.484375l-7.109375 0l0 -1.484375z" fill-rule="nonzero"/><path fill="#000000" d="m176.07948 18.424795q0 1.046875 -0.390625 2.15625q-0.390625 1.109375 -1.03125 2.234375q-0.625 1.125 -1.40625 2.203125q-0.78125 1.0625 -1.546875 2.015625l-0.984375 0.859375l0 0.078125l1.28125 -0.21875l4.359375 0l0 1.484375l-7.96875 0l0 -0.578125q0.453125 -0.46875 1.0625 -1.140625q0.625 -0.6875 1.296875 -1.515625q0.671875 -0.828125 1.3125 -1.75q0.65625 -0.9375 1.1875 -1.890625q0.53125 -0.96875 0.84375 -1.90625q0.328125 -0.9375 0.328125 -1.78125q0 -0.984375 -0.5625 -1.625q-0.5625 -0.65625 -1.703125 -0.65625q-0.765625 0 -1.484375 0.3125q-0.71875 0.3125 -1.234375 0.71875l-0.65625 -1.140625q0.6875 -0.609375 1.640625 -0.9375q0.96875 -0.34375 2.078125 -0.34375q0.859375 0 1.515625 0.25q0.65625 0.25 1.109375 0.71875q0.46875 0.453125 0.703125 1.078125q0.25 0.625 0.25 1.375z" fill-rule="nonzero"/><path fill="#000000" d="m236.9606 28.081045q0.671875 0 1.25 -0.203125q0.578125 -0.203125 1.0 -0.59375q0.421875 -0.390625 0.65625 -0.921875q0.25 -0.546875 0.25 -1.1875q0 -1.390625 -0.828125 -2.0625q-0.828125 -0.6875 -2.296875 -0.6875l-1.484375 0l0 -0.59375l2.890625 -4.4375l0.921875 -0.875l-1.3125 0.203125l-3.953125 0l0 -1.484375l7.140625 0l0 0.578125l-3.1875 4.78125l-0.6875 0.578125l0 0.046875l0.671875 -0.140625q0.796875 0.015625 1.46875 0.296875q0.6875 0.265625 1.1875 0.78125q0.5 0.5 0.78125 1.21875q0.28125 0.703125 0.28125 1.59375q0 1.078125 -0.375 1.921875q-0.375 0.84375 -1.03125 1.421875q-0.65625 0.5625 -1.53125 0.859375q-0.875 0.296875 -1.859375 0.296875q-0.90625 0 -1.625 -0.140625q-0.71875 -0.140625 -1.25 -0.359375l0.421875 -1.421875q0.453125 0.234375 1.078125 0.390625q0.640625 0.140625 1.421875 0.140625z" fill-rule="nonzero"/><path fill="#000000" d="m307.87296 24.94042l-2.359375 0l0 4.296875l-1.5625 0l0 -4.296875l-6.15625 0l0 -0.65625l6.640625 -9.265625l1.078125 0l0 8.515625l2.359375 0l0 1.40625zm-3.921875 -5.765625l0.203125 -1.640625l-0.0625 0l-0.703125 1.359375l-2.8125 3.828125l-0.96875 0.96875l1.40625 -0.15625l2.9375 0l0 -4.359375z" fill-rule="nonzero"/><path fill="#000000" d="m366.76968 28.081045q1.375 0 2.265625 -0.796875q0.90625 -0.8125 0.90625 -2.328125q0 -1.453125 -0.890625 -2.171875q-0.890625 -0.734375 -2.453125 -0.734375l-1.671875 0.109375l0 -6.921875l6.234375 0l0 1.484375l-4.734375 0l0 3.96875l0.859375 -0.03125q1.984375 0.015625 3.125 1.09375q1.140625 1.078125 1.140625 3.109375q0 1.109375 -0.390625 1.984375q-0.375 0.875 -1.03125 1.453125q-0.640625 0.578125 -1.53125 0.875q-0.875 0.296875 -1.875 0.296875q-0.90625 0 -1.53125 -0.09375q-0.609375 -0.09375 -1.140625 -0.296875l0.40625 -1.359375q0.46875 0.171875 1.0 0.265625q0.53125 0.09375 1.3125 0.09375z" fill-rule="nonzero"/><path fill="#000000" d="m437.46332 25.018545q0 0.921875 -0.28125 1.734375q-0.28125 0.796875 -0.828125 1.421875q-0.53125 0.609375 -1.34375 0.953125q-0.796875 0.34375 -1.8125 0.34375q-1.0 0 -1.796875 -0.3125q-0.796875 -0.328125 -1.390625 -0.953125q-0.578125 -0.625 -0.890625 -1.546875q-0.296875 -0.921875 -0.296875 -2.125q0 -1.984375 0.5 -3.640625q0.515625 -1.671875 1.40625 -2.90625q0.90625 -1.25 2.140625 -2.015625q1.234375 -0.78125 2.671875 -0.96875l0.34375 1.28125q-1.125 0.1875 -2.046875 0.75q-0.921875 0.5625 -1.609375 1.390625q-0.6875 0.8125 -1.125 1.84375q-0.4375 1.015625 -0.609375 2.09375q0.328125 -0.546875 1.078125 -0.984375q0.765625 -0.453125 1.859375 -0.453125q1.890625 0 2.953125 1.078125q1.078125 1.078125 1.078125 3.015625zm-1.65625 0.15625q0 -1.421875 -0.671875 -2.140625q-0.65625 -0.71875 -2.03125 -0.71875q-0.984375 0 -1.703125 0.484375q-0.703125 0.484375 -0.984375 1.078125q-0.03125 0.28125 -0.03125 0.46875q0 0.171875 0 0.390625q0 0.625 0.15625 1.21875q0.171875 0.59375 0.53125 1.078125q0.359375 0.46875 0.890625 0.765625q0.53125 0.28125 1.25 0.28125q0.59375 0 1.0625 -0.21875q0.46875 -0.21875 0.796875 -0.59375q0.34375 -0.390625 0.53125 -0.921875q0.203125 -0.546875 0.203125 -1.171875z" fill-rule="nonzero"/><path fill="#000000" d="m494.93817 29.237295l5.015625 -11.71875l0.875 -0.984375l-1.171875 0.1875l-5.703125 0l0 -1.484375l8.359375 0l0 0.546875l-5.765625 13.453125l-1.609375 0z" fill-rule="nonzero"/><path fill="#000000" d="m559.2099 25.893545q0 -1.25 0.65625 -2.171875q0.671875 -0.9375 2.0625 -1.703125q-0.5 -0.296875 -0.9375 -0.625q-0.421875 -0.34375 -0.75 -0.75q-0.328125 -0.421875 -0.515625 -0.9375q-0.1875 -0.53125 -0.1875 -1.203125q0 -0.78125 0.265625 -1.421875q0.265625 -0.640625 0.765625 -1.09375q0.515625 -0.46875 1.21875 -0.71875q0.71875 -0.265625 1.625 -0.265625q0.84375 0 1.515625 0.234375q0.6875 0.234375 1.15625 0.65625q0.46875 0.421875 0.71875 1.0q0.265625 0.578125 0.265625 1.28125q0 1.140625 -0.515625 2.015625q-0.515625 0.859375 -1.71875 1.703125q0.515625 0.296875 0.984375 0.671875q0.46875 0.359375 0.8125 0.796875q0.359375 0.4375 0.5625 0.984375q0.203125 0.546875 0.203125 1.25q0 0.859375 -0.28125 1.578125q-0.28125 0.703125 -0.828125 1.21875q-0.53125 0.5 -1.3125 0.796875q-0.78125 0.28125 -1.78125 0.28125q-0.96875 0 -1.703125 -0.265625q-0.734375 -0.28125 -1.25 -0.765625q-0.515625 -0.484375 -0.78125 -1.125q-0.25 -0.65625 -0.25 -1.421875zm6.625 -0.203125q0 -0.59375 -0.25 -1.046875q-0.234375 -0.453125 -0.625 -0.8125q-0.390625 -0.375 -0.890625 -0.671875q-0.5 -0.296875 -1.03125 -0.578125q-1.234375 0.671875 -1.75 1.515625q-0.515625 0.84375 -0.515625 1.59375q0 0.484375 0.15625 0.921875q0.15625 0.4375 0.46875 0.765625q0.328125 0.3125 0.796875 0.515625q0.46875 0.1875 1.09375 0.1875q0.5 0 0.953125 -0.140625q0.46875 -0.15625 0.8125 -0.453125q0.359375 -0.296875 0.5625 -0.734375q0.21875 -0.453125 0.21875 -1.0625zm-4.75 -7.234375q0 0.5625 0.21875 1.0q0.234375 0.421875 0.59375 0.765625q0.375 0.328125 0.84375 0.625q0.484375 0.296875 1.015625 0.546875q0.890625 -0.703125 1.3125 -1.375q0.4375 -0.6875 0.4375 -1.5q0 -1.015625 -0.625 -1.5625q-0.625 -0.5625 -1.515625 -0.5625q-0.53125 0 -0.953125 0.1875q-0.421875 0.171875 -0.71875 0.453125q-0.296875 0.28125 -0.453125 0.65625q-0.15625 0.359375 -0.15625 0.765625z" fill-rule="nonzero"/><path fill="#000000" d="m624.0129 19.47167q0 -0.953125 0.265625 -1.765625q0.28125 -0.828125 0.828125 -1.421875q0.546875 -0.609375 1.34375 -0.9375q0.8125 -0.34375 1.890625 -0.34375q2.046875 0 3.1875 1.328125q1.140625 1.3125 1.140625 3.703125q0 2.265625 -0.515625 3.953125q-0.5 1.6875 -1.40625 2.859375q-0.90625 1.15625 -2.140625 1.8125q-1.21875 0.640625 -2.65625 0.8125l-0.359375 -1.28125q1.15625 -0.171875 2.078125 -0.671875q0.9375 -0.5 1.609375 -1.25q0.671875 -0.765625 1.078125 -1.734375q0.421875 -0.984375 0.59375 -2.109375q-0.546875 0.625 -1.203125 0.875q-0.640625 0.25 -1.703125 0.25q-0.8125 0 -1.546875 -0.265625q-0.734375 -0.265625 -1.296875 -0.78125q-0.546875 -0.53125 -0.875 -1.28125q-0.3125 -0.765625 -0.3125 -1.75zm1.65625 -0.15625q0 1.421875 0.75 2.140625q0.75 0.703125 1.96875 0.703125q0.984375 0 1.671875 -0.3125q0.703125 -0.328125 1.0 -0.84375q0.046875 -0.265625 0.046875 -0.46875q0 -0.203125 0 -0.421875q0 -0.71875 -0.171875 -1.390625q-0.171875 -0.671875 -0.515625 -1.1875q-0.328125 -0.53125 -0.890625 -0.828125q-0.546875 -0.3125 -1.28125 -0.3125q-1.21875 0 -1.90625 0.78125q-0.671875 0.765625 -0.671875 2.140625z" fill-rule="nonzero"/><path fill="#000000" d="m684.7878 27.75292l2.796875 0l0 -9.671875l0.203125 -1.1875l-0.796875 0.9375l-2.203125 1.59375l-0.75 -1.03125l4.390625 -3.390625l0.71875 0l0 12.75l2.75 0l0 1.484375l-7.109375 0l0 -1.484375zm9.603088 -5.515625q0 -3.59375 1.171875 -5.40625q1.171875 -1.828125 3.40625 -1.828125q2.421875 0 3.515625 1.796875q1.09375 1.78125 1.09375 5.4375q0 3.59375 -1.171875 5.421875q-1.171875 1.8125 -3.4375 1.8125q-2.375 0 -3.484375 -1.890625q-1.09375 -1.90625 -1.09375 -5.34375zm1.65625 0q0 1.296875 0.171875 2.375q0.171875 1.0625 0.53125 1.84375q0.359375 0.765625 0.90625 1.203125q0.5625 0.421875 1.3125 0.421875q1.515625 0 2.21875 -1.40625q0.71875 -1.421875 0.71875 -4.4375q0 -1.28125 -0.15625 -2.359375q-0.140625 -1.078125 -0.5 -1.859375q-0.34375 -0.78125 -0.90625 -1.203125q-0.546875 -0.421875 -1.375 -0.421875q-1.5 0 -2.21875 1.421875q-0.703125 1.421875 -0.703125 4.421875z" fill-rule="nonzero"/><path fill="#000000" d="m749.90326 27.75292l2.796875 0l0 -9.671875l0.203125 -1.1875l-0.796875 0.9375l-2.203125 1.59375l-0.75 -1.03125l4.390625 -3.390625l0.71875 0l0 12.75l2.75 0l0 1.484375l-7.109375 0l0 -1.484375zm10.899963 0l2.796875 0l0 -9.671875l0.203125 -1.1875l-0.796875 0.9375l-2.203125 1.59375l-0.75 -1.03125l4.390625 -3.390625l0.71875 0l0 12.75l2.75 0l0 1.484375l-7.109375 0l0 -1.484375z" fill-rule="nonzero"/><path fill="#000000" d="m815.01874 27.75292l2.796875 0l0 -9.671875l0.203125 -1.1875l-0.796875 0.9375l-2.203125 1.59375l-0.75 -1.03125l4.390625 -3.390625l0.71875 0l0 12.75l2.75 0l0 1.484375l-7.109375 0l0 -1.484375zm17.665588 -9.328125q0 1.046875 -0.390625 2.15625q-0.390625 1.109375 -1.03125 2.234375q-0.625 1.125 -1.40625 2.203125q-0.78125 1.0625 -1.546875 2.015625l-0.984375 0.859375l0 0.078125l1.28125 -0.21875l4.359375 0l0 1.484375l-7.96875 0l0 -0.578125q0.453125 -0.46875 1.0625 -1.140625q0.625 -0.6875 1.296875 -1.515625q0.671875 -0.828125 1.3125 -1.75q0.65625 -0.9375 1.1875 -1.890625q0.53125 -0.96875 0.84375 -1.90625q0.328125 -0.9375 0.328125 -1.78125q0 -0.984375 -0.5625 -1.625q-0.5625 -0.65625 -1.703125 -0.65625q-0.765625 0 -1.484375 0.3125q-0.71875 0.3125 -1.234375 0.71875l-0.65625 -1.140625q0.6875 -0.609375 1.640625 -0.9375q0.96875 -0.34375 2.078125 -0.34375q0.859375 0 1.515625 0.25q0.65625 0.25 1.109375 0.71875q0.46875 0.453125 0.703125 1.078125q0.25 0.625 0.25 1.375z" fill-rule="nonzero"/><path fill="#000000" d="m49.53547 58.037292q0 0.84375 -0.265625 1.703125q-0.265625 0.859375 -0.796875 1.609375q-0.53125 0.75 -1.375 1.328125q-0.828125 0.5625 -1.953125 0.859375l0 0.140625q1.0 0.15625 1.90625 0.5625q0.921875 0.40625 1.625 1.109375q0.703125 0.6875 1.125 1.6875q0.4375 1.0 0.4375 2.375q0 1.796875 -0.75 3.109375q-0.75 1.3125 -1.96875 2.15625q-1.203125 0.828125 -2.78125 1.234375q-1.5625 0.390625 -3.1875 0.390625q-0.578125 0 -1.34375 0q-0.765625 0 -1.609375 -0.046875q-0.828125 -0.046875 -1.65625 -0.140625q-0.828125 -0.078125 -1.46875 -0.25l0 -22.953125q1.234375 -0.203125 2.859375 -0.328125q1.640625 -0.140625 3.578125 -0.140625q1.296875 0 2.640625 0.21875q1.359375 0.21875 2.453125 0.828125q1.109375 0.609375 1.8125 1.71875q0.71875 1.09375 0.71875 2.828125zm-7.71875 15.859375q1.0625 0 2.0625 -0.25q1.0 -0.25 1.765625 -0.796875q0.765625 -0.546875 1.21875 -1.34375q0.453125 -0.796875 0.453125 -1.90625q0 -1.359375 -0.5625 -2.1875q-0.546875 -0.84375 -1.4375 -1.296875q-0.875 -0.46875 -1.984375 -0.640625q-1.09375 -0.171875 -2.1875 -0.171875l-2.90625 0l0 8.375q0.234375 0.0625 0.671875 0.09375q0.4375 0.03125 0.9375 0.0625q0.5 0.03125 1.03125 0.046875q0.53125 0.015625 0.9375 0.015625zm-1.84375 -10.921875q0.578125 0 1.375 -0.03125q0.796875 -0.03125 1.328125 -0.109375q0.796875 -0.265625 1.5 -0.640625q0.703125 -0.390625 1.25 -0.90625q0.546875 -0.515625 0.859375 -1.1875q0.328125 -0.6875 0.328125 -1.5q0 -1.09375 -0.421875 -1.8125q-0.421875 -0.71875 -1.125 -1.140625q-0.6875 -0.4375 -1.59375 -0.625q-0.890625 -0.1875 -1.828125 -0.1875q-1.09375 0 -2.015625 0.0625q-0.921875 0.046875 -1.390625 0.140625l0 7.9375l1.734375 0z" fill-rule="nonzero"/><path fill="#000000" d="m115.74259 75.06854q-1.0 0.765625 -2.53125 1.0625q-1.53125 0.3125 -3.265625 0.3125q-2.109375 0 -3.9375 -0.71875q-1.828125 -0.71875 -3.203125 -2.1875q-1.359375 -1.46875 -2.171875 -3.75q-0.796875 -2.28125 -0.796875 -5.421875q0 -3.265625 0.875 -5.546875q0.890625 -2.28125 2.34375 -3.71875q1.453125 -1.453125 3.25 -2.125q1.796875 -0.671875 3.671875 -0.671875q2.0 0 3.265625 0.21875q1.265625 0.21875 2.171875 0.578125l-0.671875 2.4375q-1.59375 -0.765625 -4.5625 -0.765625q-1.375 0 -2.703125 0.5q-1.328125 0.5 -2.390625 1.640625q-1.046875 1.125 -1.6875 2.96875q-0.625 1.828125 -0.625 4.484375q0 2.40625 0.59375 4.203125q0.609375 1.796875 1.65625 3.0q1.046875 1.203125 2.46875 1.8125q1.421875 0.59375 3.078125 0.59375q1.5 0 2.609375 -0.296875q1.125 -0.3125 1.890625 -0.78125l0.671875 2.171875z" fill-rule="nonzero"/><path fill="#000000" d="m294.76843 52.709167q0.640625 -0.09375 1.421875 -0.140625q0.78125 -0.0625 1.625 -0.078125q0.859375 -0.015625 1.671875 -0.03125q0.8125 -0.015625 1.515625 -0.015625q2.796875 0 4.84375 0.875q2.0625 0.859375 3.390625 2.40625q1.328125 1.546875 1.984375 3.71875q0.65625 2.15625 0.65625 4.765625q0 2.359375 -0.625 4.546875q-0.609375 2.1875 -1.953125 3.875q-1.328125 1.671875 -3.46875 2.6875q-2.125 1.015625 -5.15625 1.015625q-0.53125 0 -1.390625 -0.015625q-0.84375 -0.015625 -1.75 -0.0625q-0.890625 -0.046875 -1.65625 -0.09375q-0.765625 -0.03125 -1.109375 -0.09375l0 -23.359375zm6.296875 2.203125q-0.421875 0 -0.9375 0q-0.515625 0 -1.015625 0.03125q-0.5 0.03125 -0.921875 0.0625q-0.421875 0.03125 -0.65625 0.0625l0 18.671875q0.171875 0.03125 0.640625 0.046875q0.46875 0.015625 0.96875 0.03125q0.5 0.015625 0.953125 0.03125q0.46875 0.015625 0.640625 0.015625q2.328125 0 3.90625 -0.796875q1.59375 -0.796875 2.546875 -2.140625q0.953125 -1.359375 1.34375 -3.109375q0.40625 -1.75 0.40625 -3.609375q0 -1.640625 -0.375 -3.28125q-0.359375 -1.65625 -1.265625 -2.984375q-0.890625 -1.34375 -2.40625 -2.1875q-1.515625 -0.84375 -3.828125 -0.84375z" fill-rule="nonzero"/><path fill="#000000" d="m361.85028 52.709167l12.703125 0l0 2.46875l-9.9375 0l0 7.625l9.109375 0l0 2.46875l-9.109375 0l0 8.296875l10.109375 0l0 2.46875l-12.875 0l0 -23.328125z" fill-rule="nonzero"/><path fill="#000000" d="m492.39786 52.709167l12.703125 0l0 2.46875l-9.9375 0l0 7.96875l9.265625 0l0 2.453125l-9.265625 0l0 10.4375l-2.765625 0l0 -23.328125z" fill-rule="nonzero"/><path fill="#000000" d="m827.95154 69.56854l-8.609375 0l-2.328125 6.46875l-2.734375 0l8.828125 -23.703125l1.265625 0l8.875 23.703125l-2.90625 0l-2.390625 -6.46875zm-7.703125 -2.390625l6.859375 0l-2.59375 -7.109375l-0.828125 -3.53125l-0.046875 0l-0.828125 3.609375l-2.5625 7.03125z" fill-rule="nonzero"/></g></svg>