<svg version="1.1" viewBox="0.0 0.0 1398.8451443569554 275.7690288713911" fill="none" stroke="none" stroke-linecap="square" stroke-miterlimit="10" xmlns:xlink="http://www.w3.org/1999/xlink" xmlns="http://www.w3.org/2000/svg"><clipPath id="p.0"><path d="m0 0l1398.8451 0l0 275.76904l-1398.8451 0l0 -275.76904z" clip-rule="nonzero"/></clipPath><g clip-path="url(#p.0)"><path fill="#000000" fill-opacity="0.0" d="m0 0l1398.8451 0l0 275.76904l-1398.8451 0z" fill-rule="evenodd"/><path stroke="#000000" stroke-width="3.0" stroke-linecap="butt" d="m9.818897 33.538605l0 62.45932" fill-rule="nonzero"/><path stroke="#000000" stroke-width="3.0" stroke-linecap="butt" d="m74.93438 33.538605l0 62.45932" fill-rule="nonzero"/><path stroke="#000000" stroke-width="3.0" stroke-linecap="butt" d="m140.04987 33.538605l0 62.45932" fill-rule="nonzero"/><path stroke="#000000" stroke-width="3.0" stroke-linecap="butt" d="m205.16536 33.538605l0 62.45932" fill-rule="nonzero"/><path stroke="#000000" stroke-width="3.0" stroke-linecap="butt" d="m270.28085 33.538605l0 62.45932" fill-rule="nonzero"/><path stroke="#000000" stroke-width="3.0" stroke-linecap="butt" d="m335.39633 33.538605l0 62.45932" fill-rule="nonzero"/><path stroke="#000000" stroke-width="3.0" stroke-linecap="butt" d="m8.3202095 35.037292l328.5748 0" fill-rule="nonzero"/><path stroke="#000000" stroke-width="3.0" stroke-linecap="butt" d="m8.3202095 94.49924l328.5748 0" fill-rule="nonzero"/><path fill="#000000" d="m37.78602 22.237295q0 -3.59375 1.171875 -5.40625q1.171875 -1.828125 3.40625 -1.828125q2.421875 0 3.515625 1.796875q1.09375 1.78125 1.09375 5.4375q0 3.59375 -1.171875 5.421875q-1.171875 1.8125 -3.4375 1.8125q-2.375 0 -3.484375 -1.890625q-1.09375 -1.90625 -1.09375 -5.34375zm1.65625 0q0 1.296875 0.171875 2.375q0.171875 1.0625 0.53125 1.84375q0.359375 0.765625 0.90625 1.203125q0.5625 0.421875 1.3125 0.421875q1.515625 0 2.21875 -1.40625q0.71875 -1.421875 0.71875 -4.4375q0 -1.28125 -0.15625 -2.359375q-0.140625 -1.078125 -0.5 -1.859375q-0.34375 -0.78125 -0.90625 -1.203125q-0.546875 -0.421875 -1.375 -0.421875q-1.5 0 -2.21875 1.421875q-0.703125 1.421875 -0.703125 4.421875z" fill-rule="nonzero"/><path fill="#000000" d="m104.19838 27.75292l2.796875 0l0 -9.671875l0.203125 -1.1875l-0.796875 0.9375l-2.203125 1.59375l-0.75 -1.03125l4.390625 -3.390625l0.71875 0l0 12.75l2.75 0l0 1.484375l-7.109375 0l0 -1.484375z" fill-rule="nonzero"/><path fill="#000000" d="m176.07948 18.424795q0 1.046875 -0.390625 2.15625q-0.390625 1.109375 -1.03125 2.234375q-0.625 1.125 -1.40625 2.203125q-0.78125 1.0625 -1.546875 2.015625l-0.984375 0.859375l0 0.078125l1.28125 -0.21875l4.359375 0l0 1.484375l-7.96875 0l0 -0.578125q0.453125 -0.46875 1.0625 -1.140625q0.625 -0.6875 1.296875 -1.515625q0.671875 -0.828125 1.3125 -1.75q0.65625 -0.9375 1.1875 -1.890625q0.53125 -0.96875 0.84375 -1.90625q0.328125 -0.9375 0.328125 -1.78125q0 -0.984375 -0.5625 -1.625q-0.5625 -0.65625 -1.703125 -0.65625q-0.765625 0 -1.484375 0.3125q-0.71875 0.3125 -1.234375 0.71875l-0.65625 -1.140625q0.6875 -0.609375 1.640625 -0.9375q0.96875 -0.34375 2.078125 -0.34375q0.859375 0 1.515625 0.25q0.65625 0.25 1.109375 0.71875q0.46875 0.453125 0.703125 1.078125q0.25 0.625 0.25 1.375z" fill-rule="nonzero"/><path fill="#000000" d="m236.9606 28.081045q0.671875 0 1.25 -0.203125q0.578125 -0.203125 1.0 -0.59375q0.421875 -0.390625 0.65625 -0.921875q0.25 -0.546875 0.25 -1.1875q0 -1.390625 -0.828125 -2.0625q-0.828125 -0.6875 -2.296875 -0.6875l-1.484375 0l0 -0.59375l2.890625 -4.4375l0.921875 -0.875l-1.3125 0.203125l-3.953125 0l0 -1.484375l7.140625 0l0 0.578125l-3.1875 4.78125l-0.6875 0.578125l0 0.046875l0.671875 -0.140625q0.796875 0.015625 1.46875 0.296875q0.6875 0.265625 1.1875 0.78125q0.5 0.5 0.78125 1.21875q0.28125 0.703125 0.28125 1.59375q0 1.078125 -0.375 1.921875q-0.375 0.84375 -1.03125 1.421875q-0.65625 0.5625 -1.53125 0.859375q-0.875 0.296875 -1.859375 0.296875q-0.90625 0 -1.625 -0.140625q-0.71875 -0.140625 -1.25 -0.359375l0.421875 -1.421875q0.453125 0.234375 1.078125 0.390625q0.640625 0.140625 1.421875 0.140625z" fill-rule="nonzero"/><path fill="#000000" d="m307.87296 24.94042l-2.359375 0l0 4.296875l-1.5625 0l0 -4.296875l-6.15625 0l0 -0.65625l6.640625 -9.265625l1.078125 0l0 8.515625l2.359375 0l0 1.40625zm-3.921875 -5.765625l0.203125 -1.640625l-0.0625 0l-0.703125 1.359375l-2.8125 3.828125l-0.96875 0.96875l1.40625 -0.15625l2.9375 0l0 -4.359375z" fill-rule="nonzero"/><path fill="#000000" d="m287.30096 72.36542l4.640625 0l0 -13.15625l0.5 -2.265625l-1.59375 1.96875l-2.96875 2.03125l-1.84375 -2.5l7.609375 -6.140625l2.421875 0l0 20.0625l4.53125 0l0 3.671875l-13.296875 0l0 -3.671875zm33.97513 -2.828125l-3.671875 0l0 6.5l-4.03125 0l0 -6.5l-10.09375 0l0 -2.46875l10.5625 -14.53125l3.5625 0l0 13.53125l3.671875 0l0 3.46875zm-7.703125 -8.5625l0.296875 -2.796875l-0.140625 0l-1.125 2.390625l-3.46875 4.5l-1.671875 1.265625l2.140625 -0.265625l3.96875 0l0 -5.09375z" fill-rule="nonzero"/><path stroke="#000000" stroke-width="3.0" stroke-linecap="butt" d="m530.4908 33.538605l0 62.45932" fill-rule="nonzero"/><path stroke="#000000" stroke-width="3.0" stroke-linecap="butt" d="m595.6063 33.538605l0 62.45932" fill-rule="nonzero"/><path stroke="#000000" stroke-width="3.0" stroke-linecap="butt" d="m660.7218 33.538605l0 62.45932" fill-rule="nonzero"/><path stroke="#000000" stroke-width="3.0" stroke-linecap="butt" d="m725.8373 33.538605l0 62.45932" fill-rule="nonzero"/><path stroke="#000000" stroke-width="3.0" stroke-linecap="butt" d="m790.95276 33.538605l0 62.45932" fill-rule="nonzero"/><path stroke="#000000" stroke-width="3.0" stroke-linecap="butt" d="m856.06824 33.538605l0 62.45932" fill-rule="nonzero"/><path stroke="#000000" stroke-width="3.0" stroke-linecap="butt" d="m528.9921 35.037292l328.57483 0" fill-rule="nonzero"/><path stroke="#000000" stroke-width="3.0" stroke-linecap="butt" d="m528.9921 94.49924l328.57483 0" fill-rule="nonzero"/><path fill="#000000" d="m558.45795 22.237295q0 -3.59375 1.171875 -5.40625q1.171875 -1.828125 3.40625 -1.828125q2.421875 0 3.515625 1.796875q1.09375 1.78125 1.09375 5.4375q0 3.59375 -1.171875 5.421875q-1.171875 1.8125 -3.4375 1.8125q-2.375 0 -3.484375 -1.890625q-1.09375 -1.90625 -1.09375 -5.34375zm1.65625 0q0 1.296875 0.171875 2.375q0.171875 1.0625 0.53125 1.84375q0.359375 0.765625 0.90625 1.203125q0.5625 0.421875 1.3125 0.421875q1.515625 0 2.21875 -1.40625q0.71875 -1.421875 0.71875 -4.4375q0 -1.28125 -0.15625 -2.359375q-0.140625 -1.078125 -0.5 -1.859375q-0.34375 -0.78125 -0.90625 -1.203125q-0.546875 -0.421875 -1.375 -0.421875q-1.5 0 -2.21875 1.421875q-0.703125 1.421875 -0.703125 4.421875z" fill-rule="nonzero"/><path fill="#000000" d="m624.8703 27.75292l2.796875 0l0 -9.671875l0.203125 -1.1875l-0.796875 0.9375l-2.203125 1.59375l-0.75 -1.03125l4.390625 -3.390625l0.71875 0l0 12.75l2.75 0l0 1.484375l-7.109375 0l0 -1.484375z" fill-rule="nonzero"/><path fill="#000000" d="m696.7514 18.424795q0 1.046875 -0.390625 2.15625q-0.390625 1.109375 -1.03125 2.234375q-0.625 1.125 -1.40625 2.203125q-0.78125 1.0625 -1.546875 2.015625l-0.984375 0.859375l0 0.078125l1.28125 -0.21875l4.359375 0l0 1.484375l-7.96875 0l0 -0.578125q0.453125 -0.46875 1.0625 -1.140625q0.625 -0.6875 1.296875 -1.515625q0.671875 -0.828125 1.3125 -1.75q0.65625 -0.9375 1.1875 -1.890625q0.53125 -0.96875 0.84375 -1.90625q0.328125 -0.9375 0.328125 -1.78125q0 -0.984375 -0.5625 -1.625q-0.5625 -0.65625 -1.703125 -0.65625q-0.765625 0 -1.484375 0.3125q-0.71875 0.3125 -1.234375 0.71875l-0.65625 -1.140625q0.6875 -0.609375 1.640625 -0.9375q0.96875 -0.34375 2.078125 -0.34375q0.859375 0 1.515625 0.25q0.65625 0.25 1.109375 0.71875q0.46875 0.453125 0.703125 1.078125q0.25 0.625 0.25 1.375z" fill-rule="nonzero"/><path fill="#000000" d="m757.6325 28.081045q0.671875 0 1.25 -0.203125q0.578125 -0.203125 1.0 -0.59375q0.421875 -0.390625 0.65625 -0.921875q0.25 -0.546875 0.25 -1.1875q0 -1.390625 -0.828125 -2.0625q-0.828125 -0.6875 -2.296875 -0.6875l-1.484375 0l0 -0.59375l2.890625 -4.4375l0.921875 -0.875l-1.3125 0.203125l-3.953125 0l0 -1.484375l7.140625 0l0 0.578125l-3.1875 4.78125l-0.6875 0.578125l0 0.046875l0.671875 -0.140625q0.796875 0.015625 1.46875 0.296875q0.6875 0.265625 1.1875 0.78125q0.5 0.5 0.78125 1.21875q0.28125 0.703125 0.28125 1.59375q0 1.078125 -0.375 1.921875q-0.375 0.84375 -1.03125 1.421875q-0.65625 0.5625 -1.53125 0.859375q-0.875 0.296875 -1.859375 0.296875q-0.90625 0 -1.625 -0.140625q-0.71875 -0.140625 -1.25 -0.359375l0.421875 -1.421875q0.453125 0.234375 1.078125 0.390625q0.640625 0.140625 1.421875 0.140625z" fill-rule="nonzero"/><path fill="#000000" d="m828.54486 24.94042l-2.359375 0l0 4.296875l-1.5625 0l0 -4.296875l-6.15625 0l0 -0.65625l6.640625 -9.265625l1.078125 0l0 8.515625l2.359375 0l0 1.40625zm-3.921875 -5.765625l0.203125 -1.640625l-0.0625 0l-0.703125 1.359375l-2.8125 3.828125l-0.96875 0.96875l1.40625 -0.15625l2.9375 0l0 -4.359375z" fill-rule="nonzero"/><path fill="#000000" d="m750.9778 70.33417q0 -1.15625 0.296875 -2.078125q0.3125 -0.921875 0.859375 -1.671875q0.546875 -0.75 1.296875 -1.34375q0.75 -0.59375 1.609375 -1.09375q-1.625 -1.046875 -2.5625 -2.390625q-0.9375 -1.34375 -0.9375 -3.34375q0 -1.3125 0.484375 -2.4375q0.484375 -1.140625 1.40625 -1.96875q0.921875 -0.828125 2.21875 -1.296875q1.296875 -0.46875 2.921875 -0.46875q1.5 0 2.734375 0.40625q1.234375 0.390625 2.109375 1.125q0.890625 0.734375 1.375 1.78125q0.484375 1.046875 0.484375 2.328125q0 1.953125 -0.890625 3.328125q-0.875 1.359375 -2.578125 2.5q2.0 1.15625 3.015625 2.5625q1.015625 1.40625 1.015625 3.59375q0 1.5 -0.546875 2.71875q-0.546875 1.21875 -1.546875 2.09375q-1.0 0.859375 -2.40625 1.34375q-1.390625 0.484375 -3.0625 0.484375q-1.65625 0 -3.015625 -0.453125q-1.34375 -0.453125 -2.296875 -1.25q-0.953125 -0.796875 -1.46875 -1.921875q-0.515625 -1.140625 -0.515625 -2.546875zm10.734375 -0.421875q0 -0.78125 -0.375 -1.40625q-0.359375 -0.640625 -0.953125 -1.15625q-0.578125 -0.515625 -1.296875 -0.9375q-0.703125 -0.4375 -1.4375 -0.84375q-1.578125 0.90625 -2.15625 1.953125q-0.578125 1.046875 -0.578125 2.078125q0 1.34375 0.90625 2.296875q0.921875 0.9375 2.5625 0.9375q1.5 0 2.40625 -0.734375q0.921875 -0.734375 0.921875 -2.1875zm-6.03125 -11.4375q0 0.796875 0.296875 1.40625q0.296875 0.59375 0.8125 1.046875q0.515625 0.4375 1.171875 0.828125q0.65625 0.390625 1.34375 0.71875q2.0 -1.703125 2.0 -3.734375q0 -1.40625 -0.8125 -2.109375q-0.8125 -0.71875 -1.984375 -0.71875q-1.46875 0 -2.15625 0.765625q-0.671875 0.765625 -0.671875 1.796875z" fill-rule="nonzero"/><path fill="#000000" d="m808.9405 73.56854l4.671875 0l0 -16.125l0.328125 -1.96875l-1.328125 1.5625l-3.671875 2.640625l-1.265625 -1.703125l7.34375 -5.671875l1.1875 0l0 21.265625l4.578125 0l0 2.46875l-11.84375 0l0 -2.46875zm32.038757 -4.703125l-3.9375 0l0 7.171875l-2.59375 0l0 -7.171875l-10.265625 0l0 -1.09375l11.0625 -15.4375l1.796875 0l0 14.203125l3.9375 0l0 2.328125zm-6.53125 -9.59375l0.328125 -2.734375l-0.09375 0l-1.171875 2.265625l-4.703125 6.375l-1.59375 1.625l2.328125 -0.265625l4.90625 0l0 -7.265625z" fill-rule="nonzero"/><path stroke="#000000" stroke-width="3.0" stroke-linecap="butt" d="m1063.3544 33.538605l0 62.45932" fill-rule="nonzero"/><path stroke="#000000" stroke-width="3.0" stroke-linecap="butt" d="m1128.4698 33.538605l0 62.45932" fill-rule="nonzero"/><path stroke="#000000" stroke-width="3.0" stroke-linecap="butt" d="m1193.5853 33.538605l0 62.45932" fill-rule="nonzero"/><path stroke="#000000" stroke-width="3.0" stroke-linecap="butt" d="m1258.7008 33.538605l0 62.45932" fill-rule="nonzero"/><path stroke="#000000" stroke-width="3.0" stroke-linecap="butt" d="m1323.8163 33.538605l0 62.45932" fill-rule="nonzero"/><path stroke="#000000" stroke-width="3.0" stroke-linecap="butt" d="m1388.9318 33.538605l0 62.45932" fill-rule="nonzero"/><path stroke="#000000" stroke-width="3.0" stroke-linecap="butt" d="m1061.8556 35.037292l328.57483 0" fill-rule="nonzero"/><path stroke="#000000" stroke-width="3.0" stroke-linecap="butt" d="m1061.8556 94.49924l328.57483 0" fill-rule="nonzero"/><path fill="#000000" d="m1091.3214 22.237295q0 -3.59375 1.171875 -5.40625q1.171875 -1.828125 3.40625 -1.828125q2.421875 0 3.515625 1.796875q1.09375 1.78125 1.09375 5.4375q0 3.59375 -1.171875 5.421875q-1.171875 1.8125 -3.4375 1.8125q-2.375 0 -3.484375 -1.890625q-1.09375 -1.90625 -1.09375 -5.34375zm1.65625 0q0 1.296875 0.171875 2.375q0.171875 1.0625 0.53125 1.84375q0.359375 0.765625 0.90625 1.203125q0.5625 0.421875 1.3125 0.421875q1.515625 0 2.21875 -1.40625q0.71875 -1.421875 0.71875 -4.4375q0 -1.28125 -0.15625 -2.359375q-0.140625 -1.078125 -0.5 -1.859375q-0.34375 -0.78125 -0.90625 -1.203125q-0.546875 -0.421875 -1.375 -0.421875q-1.5 0 -2.21875 1.421875q-0.703125 1.421875 -0.703125 4.421875z" fill-rule="nonzero"/><path fill="#000000" d="m1157.7338 27.75292l2.796875 0l0 -9.671875l0.203125 -1.1875l-0.796875 0.9375l-2.203125 1.59375l-0.75 -1.03125l4.390625 -3.390625l0.71875 0l0 12.75l2.75 0l0 1.484375l-7.109375 0l0 -1.484375z" fill-rule="nonzero"/><path fill="#000000" d="m1229.6149 18.424795q0 1.046875 -0.390625 2.15625q-0.390625 1.109375 -1.03125 2.234375q-0.625 1.125 -1.40625 2.203125q-0.78125 1.0625 -1.546875 2.015625l-0.984375 0.859375l0 0.078125l1.28125 -0.21875l4.359375 0l0 1.484375l-7.96875 0l0 -0.578125q0.453125 -0.46875 1.0625 -1.140625q0.625 -0.6875 1.296875 -1.515625q0.671875 -0.828125 1.3125 -1.75q0.65625 -0.9375 1.1875 -1.890625q0.53125 -0.96875 0.84375 -1.90625q0.328125 -0.9375 0.328125 -1.78125q0 -0.984375 -0.5625 -1.625q-0.5625 -0.65625 -1.703125 -0.65625q-0.765625 0 -1.484375 0.3125q-0.71875 0.3125 -1.234375 0.71875l-0.65625 -1.140625q0.6875 -0.609375 1.640625 -0.9375q0.96875 -0.34375 2.078125 -0.34375q0.859375 0 1.515625 0.25q0.65625 0.25 1.109375 0.71875q0.46875 0.453125 0.703125 1.078125q0.25 0.625 0.25 1.375z" fill-rule="nonzero"/><path fill="#000000" d="m1290.4961 28.081045q0.671875 0 1.25 -0.203125q0.578125 -0.203125 1.0 -0.59375q0.421875 -0.390625 0.65625 -0.921875q0.25 -0.546875 0.25 -1.1875q0 -1.390625 -0.828125 -2.0625q-0.828125 -0.6875 -2.296875 -0.6875l-1.484375 0l0 -0.59375l2.890625 -4.4375l0.921875 -0.875l-1.3125 0.203125l-3.953125 0l0 -1.484375l7.140625 0l0 0.578125l-3.1875 4.78125l-0.6875 0.578125l0 0.046875l0.671875 -0.140625q0.796875 0.015625 1.46875 0.296875q0.6875 0.265625 1.1875 0.78125q0.5 0.5 0.78125 1.21875q0.28125 0.703125 0.28125 1.59375q0 1.078125 -0.375 1.921875q-0.375 0.84375 -1.03125 1.421875q-0.65625 0.5625 -1.53125 0.859375q-0.875 0.296875 -1.859375 0.296875q-0.90625 0 -1.625 -0.140625q-0.71875 -0.140625 -1.25 -0.359375l0.421875 -1.421875q0.453125 0.234375 1.078125 0.390625q0.640625 0.140625 1.421875 0.140625z" fill-rule="nonzero"/><path fill="#000000" d="m1361.4084 24.94042l-2.359375 0l0 4.296875l-1.5625 0l0 -4.296875l-6.15625 0l0 -0.65625l6.640625 -9.265625l1.078125 0l0 8.515625l2.359375 0l0 1.40625zm-3.921875 -5.765625l0.203125 -1.640625l-0.0625 0l-0.703125 1.359375l-2.8125 3.828125l-0.96875 0.96875l1.40625 -0.15625l2.9375 0l0 -4.359375z" fill-rule="nonzero"/><path fill="#000000" d="m1092.8431 58.412292q0 1.6875 -0.625 3.421875q-0.609375 1.734375 -1.5625 3.40625q-0.9375 1.671875 -2.09375 3.21875q-1.15625 1.546875 -2.25 2.84375l-1.765625 1.375l0 0.15625l2.40625 -0.46875l6.390625 0l0 3.671875l-14.03125 0l0 -2.234375q0.796875 -0.828125 1.796875 -1.9375q1.0 -1.125 2.015625 -2.375q1.015625 -1.25 1.984375 -2.578125q0.96875 -1.34375 1.734375 -2.6875q0.765625 -1.359375 1.21875 -2.625q0.453125 -1.265625 0.453125 -2.390625q0 -1.375 -0.78125 -2.25q-0.78125 -0.890625 -2.484375 -0.890625q-1.0625 0 -2.1875 0.453125q-1.109375 0.453125 -1.875 1.15625l-1.734375 -3.078125q1.296875 -1.0625 2.9375 -1.703125q1.65625 -0.65625 3.890625 -0.65625q1.4375 0 2.625 0.40625q1.203125 0.390625 2.0625 1.15625q0.875 0.765625 1.375 1.921875q0.5 1.15625 0.5 2.6875zm11.10022 14.421875q2.0625 0 3.140625 -1.09375q1.09375 -1.109375 1.09375 -2.671875q0 -1.890625 -1.140625 -2.796875q-1.125 -0.90625 -3.5625 -0.90625l-2.390625 0l0 -2.296875l4.03125 -5.5l1.890625 -1.5l-2.625 0.3125l-5.609375 0l0 -3.671875l12.734375 0l0 2.359375l-4.703125 6.296875l-1.453125 0.90625l0 0.171875l1.390625 -0.203125q1.171875 0.09375 2.21875 0.53125q1.046875 0.4375 1.828125 1.25q0.796875 0.8125 1.25 2.015625q0.46875 1.203125 0.46875 2.765625q0 1.96875 -0.65625 3.40625q-0.640625 1.421875 -1.796875 2.390625q-1.140625 0.96875 -2.671875 1.4375q-1.53125 0.46875 -3.296875 0.46875q-1.46875 0 -3.046875 -0.265625q-1.5625 -0.265625 -2.53125 -0.765625l1.171875 -3.609375q0.859375 0.4375 1.90625 0.703125q1.0625 0.265625 2.359375 0.265625z" fill-rule="nonzero"/><path fill="#000000" d="m1284.4423 70.47479q0 -2.109375 1.09375 -3.65625q1.109375 -1.546875 3.4375 -2.8125q-0.828125 -0.5 -1.546875 -1.046875q-0.71875 -0.546875 -1.265625 -1.25q-0.546875 -0.703125 -0.875 -1.5625q-0.3125 -0.875 -0.3125 -2.0q0 -1.3125 0.453125 -2.375q0.453125 -1.0625 1.296875 -1.828125q0.859375 -0.765625 2.03125 -1.203125q1.1875 -0.4375 2.6875 -0.4375q1.40625 0 2.53125 0.40625q1.140625 0.390625 1.921875 1.09375q0.78125 0.703125 1.203125 1.671875q0.4375 0.96875 0.4375 2.125q0 1.90625 -0.875 3.359375q-0.859375 1.453125 -2.859375 2.84375q0.875 0.5 1.65625 1.109375q0.78125 0.59375 1.359375 1.328125q0.59375 0.734375 0.921875 1.65625q0.328125 0.90625 0.328125 2.078125q0 1.4375 -0.46875 2.625q-0.453125 1.171875 -1.359375 2.03125q-0.890625 0.84375 -2.203125 1.328125q-1.296875 0.484375 -2.953125 0.484375q-1.609375 0 -2.84375 -0.46875q-1.234375 -0.46875 -2.078125 -1.265625q-0.84375 -0.8125 -1.28125 -1.890625q-0.4375 -1.078125 -0.4375 -2.34375zm11.03125 -0.34375q0 -1.0 -0.40625 -1.75q-0.390625 -0.75 -1.046875 -1.359375q-0.640625 -0.609375 -1.484375 -1.109375q-0.828125 -0.5 -1.734375 -0.96875q-2.03125 1.125 -2.90625 2.53125q-0.859375 1.390625 -0.859375 2.65625q0 0.8125 0.265625 1.546875q0.28125 0.734375 0.8125 1.265625q0.53125 0.53125 1.3125 0.84375q0.78125 0.3125 1.8125 0.3125q0.828125 0 1.59375 -0.25q0.78125 -0.25 1.359375 -0.734375q0.578125 -0.484375 0.921875 -1.234375q0.359375 -0.75 0.359375 -1.75zm-7.890625 -12.0625q0 0.9375 0.359375 1.65625q0.359375 0.71875 0.96875 1.28125q0.625 0.5625 1.421875 1.046875q0.8125 0.484375 1.671875 0.921875q1.5 -1.171875 2.21875 -2.296875q0.71875 -1.140625 0.71875 -2.5q0 -1.703125 -1.046875 -2.609375q-1.046875 -0.921875 -2.515625 -0.921875q-0.90625 0 -1.609375 0.296875q-0.6875 0.296875 -1.1875 0.765625q-0.5 0.46875 -0.75 1.09375q-0.25 0.609375 -0.25 1.265625z" fill-rule="nonzero"/><path fill="#000000" d="m1341.804 73.56854l4.671875 0l0 -16.125l0.328125 -1.96875l-1.328125 1.5625l-3.671875 2.640625l-1.265625 -1.703125l7.34375 -5.671875l1.1875 0l0 21.265625l4.578125 0l0 2.46875l-11.84375 0l0 -2.46875zm32.03882 -4.703125l-3.9375 0l0 7.171875l-2.59375 0l0 -7.171875l-10.265625 0l0 -1.09375l11.0625 -15.4375l1.796875 0l0 14.203125l3.9375 0l0 2.328125zm-6.53125 -9.59375l0.328125 -2.734375l-0.09375 0l-1.171875 2.265625l-4.703125 6.375l-1.59375 1.625l2.328125 -0.265625l4.90625 0l0 -7.265625z" fill-rule="nonzero"/><path stroke="#000000" stroke-width="3.0" stroke-linecap="butt" d="m9.818897 180.30905l0 62.45932" fill-rule="nonzero"/><path stroke="#000000" stroke-width="3.0" stroke-linecap="butt" d="m74.902885 180.30905l0 62.45932" fill-rule="nonzero"/><path stroke="#000000" stroke-width="3.0" stroke-linecap="butt" d="m139.98688 180.30905l0 62.45932" fill-rule="nonzero"/><path stroke="#000000" stroke-width="3.0" stroke-linecap="butt" d="m205.07086 180.30905l0 62.45932" fill-rule="nonzero"/><path stroke="#000000" stroke-width="3.0" stroke-linecap="butt" d="m270.15485 180.30905l0 62.45932" fill-rule="nonzero"/><path stroke="#000000" stroke-width="3.0" stroke-linecap="butt" d="m335.23883 180.30905l0 62.45932" fill-rule="nonzero"/><path stroke="#000000" stroke-width="3.0" stroke-linecap="butt" d="m400.32285 180.30905l0 62.45932" fill-rule="nonzero"/><path stroke="#000000" stroke-width="3.0" stroke-linecap="butt" d="m465.40683 180.30905l0 62.45932" fill-rule="nonzero"/><path stroke="#000000" stroke-width="3.0" stroke-linecap="butt" d="m530.4908 180.30905l0 62.45932" fill-rule="nonzero"/><path stroke="#000000" stroke-width="3.0" stroke-linecap="butt" d="m595.5748 180.30905l0 62.45932" fill-rule="nonzero"/><path stroke="#000000" stroke-width="3.0" stroke-linecap="butt" d="m660.6588 180.30905l0 62.45932" fill-rule="nonzero"/><path stroke="#000000" stroke-width="3.0" stroke-linecap="butt" d="m8.3202095 181.80774l653.8373 0" fill-rule="nonzero"/><path stroke="#000000" stroke-width="3.0" stroke-linecap="butt" d="m8.3202095 241.26968l653.8373 0" fill-rule="nonzero"/><path fill="#000000" d="m37.77027 169.00774q0 -3.59375 1.171875 -5.40625q1.171875 -1.828125 3.4062462 -1.828125q2.421875 0 3.515625 1.796875q1.09375 1.78125 1.09375 5.4375q0 3.59375 -1.171875 5.421875q-1.171875 1.8125 -3.4375 1.8125q-2.3749962 0 -3.4843712 -1.890625q-1.09375 -1.90625 -1.09375 -5.34375zm1.65625 0q0 1.296875 0.171875 2.375q0.171875 1.0625 0.53125 1.84375q0.359375 0.765625 0.90625 1.203125q0.5625 0.421875 1.3124962 0.421875q1.515625 0 2.21875 -1.40625q0.71875 -1.421875 0.71875 -4.4375q0 -1.28125 -0.15625 -2.359375q-0.140625 -1.078125 -0.5 -1.859375q-0.34375 -0.78125 -0.90625 -1.203125q-0.546875 -0.421875 -1.375 -0.421875q-1.4999962 0 -2.2187462 1.421875q-0.703125 1.421875 -0.703125 4.421875z" fill-rule="nonzero"/><path fill="#000000" d="m104.15113 174.52336l2.796875 0l0 -9.671875l0.203125 -1.1875l-0.796875 0.9375l-2.203125 1.59375l-0.75 -1.03125l4.390625 -3.390625l0.71875 0l0 12.75l2.75 0l0 1.484375l-7.109375 0l0 -1.484375z" fill-rule="nonzero"/><path fill="#000000" d="m176.00075 165.19524q0 1.046875 -0.390625 2.15625q-0.390625 1.109375 -1.03125 2.234375q-0.625 1.125 -1.40625 2.203125q-0.78125 1.0625 -1.546875 2.015625l-0.984375 0.859375l0 0.078125l1.28125 -0.21875l4.359375 0l0 1.484375l-7.96875 0l0 -0.578125q0.453125 -0.46875 1.0625 -1.140625q0.625 -0.6875 1.296875 -1.515625q0.671875 -0.828125 1.3125 -1.75q0.65625 -0.9375 1.1875 -1.890625q0.53125 -0.96875 0.84375 -1.90625q0.328125 -0.9375 0.328125 -1.78125q0 -0.984375 -0.5625 -1.625q-0.5625 -0.65625 -1.703125 -0.65625q-0.765625 0 -1.484375 0.3125q-0.71875 0.3125 -1.234375 0.71875l-0.65625 -1.140625q0.6875 -0.609375 1.640625 -0.9375q0.96875 -0.34375 2.078125 -0.34375q0.859375 0 1.515625 0.25q0.65625 0.25 1.109375 0.71875q0.46875 0.453125 0.703125 1.078125q0.25 0.625 0.25 1.375z" fill-rule="nonzero"/><path fill="#000000" d="m236.85036 174.85149q0.671875 0 1.25 -0.203125q0.578125 -0.203125 1.0 -0.59375q0.421875 -0.390625 0.65625 -0.921875q0.25 -0.546875 0.25 -1.1875q0 -1.390625 -0.828125 -2.0625q-0.828125 -0.6875 -2.296875 -0.6875l-1.484375 0l0 -0.59375l2.890625 -4.4375l0.921875 -0.875l-1.3125 0.203125l-3.953125 0l0 -1.484375l7.140625 0l0 0.578125l-3.1875 4.78125l-0.6875 0.578125l0 0.046875l0.671875 -0.140625q0.796875 0.015625 1.46875 0.296875q0.6875 0.265625 1.1875 0.78125q0.5 0.5 0.78125 1.21875q0.28125 0.703125 0.28125 1.59375q0 1.078125 -0.375 1.921875q-0.375 0.84375 -1.03125 1.421875q-0.65625 0.5625 -1.53125 0.859375q-0.875 0.296875 -1.859375 0.296875q-0.90625 0 -1.625 -0.140625q-0.71875 -0.140625 -1.25 -0.359375l0.421875 -1.421875q0.453125 0.234375 1.078125 0.390625q0.640625 0.140625 1.421875 0.140625z" fill-rule="nonzero"/><path fill="#000000" d="m307.73123 171.71086l-2.359375 0l0 4.296875l-1.5625 0l0 -4.296875l-6.15625 0l0 -0.65625l6.640625 -9.265625l1.078125 0l0 8.515625l2.359375 0l0 1.40625zm-3.921875 -5.765625l0.203125 -1.640625l-0.0625 0l-0.703125 1.359375l-2.8125 3.828125l-0.96875 0.96875l1.40625 -0.15625l2.9375 0l0 -4.359375z" fill-rule="nonzero"/><path fill="#000000" d="m366.59647 174.85149q1.375 0 2.265625 -0.796875q0.90625 -0.8125 0.90625 -2.328125q0 -1.453125 -0.890625 -2.171875q-0.890625 -0.734375 -2.453125 -0.734375l-1.671875 0.109375l0 -6.921875l6.234375 0l0 1.484375l-4.734375 0l0 3.96875l0.859375 -0.03125q1.984375 0.015625 3.125 1.09375q1.140625 1.078125 1.140625 3.109375q0 1.109375 -0.390625 1.984375q-0.375 0.875 -1.03125 1.453125q-0.640625 0.578125 -1.53125 0.875q-0.875 0.296875 -1.875 0.296875q-0.90625 0 -1.53125 -0.09375q-0.609375 -0.09375 -1.140625 -0.296875l0.40625 -1.359375q0.46875 0.171875 1.0 0.265625q0.53125 0.09375 1.3125 0.09375z" fill-rule="nonzero"/><path fill="#000000" d="m437.25858 171.78899q0 0.921875 -0.28125 1.734375q-0.28125 0.796875 -0.828125 1.421875q-0.53125 0.609375 -1.34375 0.953125q-0.796875 0.34375 -1.8125 0.34375q-1.0 0 -1.796875 -0.3125q-0.796875 -0.328125 -1.390625 -0.953125q-0.578125 -0.625 -0.890625 -1.546875q-0.296875 -0.921875 -0.296875 -2.125q0 -1.984375 0.5 -3.640625q0.515625 -1.671875 1.40625 -2.90625q0.90625 -1.25 2.140625 -2.015625q1.234375 -0.78125 2.671875 -0.96875l0.34375 1.28125q-1.125 0.1875 -2.046875 0.75q-0.921875 0.5625 -1.609375 1.390625q-0.6875 0.8125 -1.125 1.84375q-0.4375 1.015625 -0.609375 2.09375q0.328125 -0.546875 1.078125 -0.984375q0.765625 -0.453125 1.859375 -0.453125q1.890625 0 2.953125 1.078125q1.078125 1.078125 1.078125 3.015625zm-1.65625 0.15625q0 -1.421875 -0.671875 -2.140625q-0.65625 -0.71875 -2.03125 -0.71875q-0.984375 0 -1.703125 0.484375q-0.703125 0.484375 -0.984375 1.078125q-0.03125 0.28125 -0.03125 0.46875q0 0.171875 0 0.390625q0 0.625 0.15625 1.21875q0.171875 0.59375 0.53125 1.078125q0.359375 0.46875 0.890625 0.765625q0.53125 0.28125 1.25 0.28125q0.59375 0 1.0625 -0.21875q0.46875 -0.21875 0.796875 -0.59375q0.34375 -0.390625 0.53125 -0.921875q0.203125 -0.546875 0.203125 -1.171875z" fill-rule="nonzero"/><path fill="#000000" d="m494.70193 176.00774l5.015625 -11.71875l0.875 -0.984375l-1.171875 0.1875l-5.703125 0l0 -1.484375l8.359375 0l0 0.546875l-5.765625 13.453125l-1.609375 0z" fill-rule="nonzero"/><path fill="#000000" d="m558.9422 172.66399q0 -1.25 0.65625 -2.171875q0.671875 -0.9375 2.0625 -1.703125q-0.5 -0.296875 -0.9375 -0.625q-0.421875 -0.34375 -0.75 -0.75q-0.328125 -0.421875 -0.515625 -0.9375q-0.1875 -0.53125 -0.1875 -1.203125q0 -0.78125 0.265625 -1.421875q0.265625 -0.640625 0.765625 -1.09375q0.515625 -0.46875 1.21875 -0.71875q0.71875 -0.265625 1.625 -0.265625q0.84375 0 1.515625 0.234375q0.6875 0.234375 1.15625 0.65625q0.46875 0.421875 0.71875 1.0q0.265625 0.578125 0.265625 1.28125q0 1.140625 -0.515625 2.015625q-0.515625 0.859375 -1.71875 1.703125q0.515625 0.296875 0.984375 0.671875q0.46875 0.359375 0.8125 0.796875q0.359375 0.4375 0.5625 0.984375q0.203125 0.546875 0.203125 1.25q0 0.859375 -0.28125 1.578125q-0.28125 0.703125 -0.828125 1.21875q-0.53125 0.5 -1.3125 0.796875q-0.78125 0.28125 -1.78125 0.28125q-0.96875 0 -1.703125 -0.265625q-0.734375 -0.28125 -1.25 -0.765625q-0.515625 -0.484375 -0.78125 -1.125q-0.25 -0.65625 -0.25 -1.421875zm6.625 -0.203125q0 -0.59375 -0.25 -1.046875q-0.234375 -0.453125 -0.625 -0.8125q-0.390625 -0.375 -0.890625 -0.671875q-0.5 -0.296875 -1.03125 -0.578125q-1.234375 0.671875 -1.75 1.515625q-0.515625 0.84375 -0.515625 1.59375q0 0.484375 0.15625 0.921875q0.15625 0.4375 0.46875 0.765625q0.328125 0.3125 0.796875 0.515625q0.46875 0.1875 1.09375 0.1875q0.5 0 0.953125 -0.140625q0.46875 -0.15625 0.8125 -0.453125q0.359375 -0.296875 0.5625 -0.734375q0.21875 -0.453125 0.21875 -1.0625zm-4.75 -7.234375q0 0.5625 0.21875 1.0q0.234375 0.421875 0.59375 0.765625q0.375 0.328125 0.84375 0.625q0.484375 0.296875 1.015625 0.546875q0.890625 -0.703125 1.3125 -1.375q0.4375 -0.6875 0.4375 -1.5q0 -1.015625 -0.625 -1.5625q-0.625 -0.5625 -1.515625 -0.5625q-0.53125 0 -0.953125 0.1875q-0.421875 0.171875 -0.71875 0.453125q-0.296875 0.28125 -0.453125 0.65625q-0.15625 0.359375 -0.15625 0.765625z" fill-rule="nonzero"/><path fill="#000000" d="m623.7137 166.24211q0 -0.953125 0.265625 -1.765625q0.28125 -0.828125 0.828125 -1.421875q0.546875 -0.609375 1.34375 -0.9375q0.8125 -0.34375 1.890625 -0.34375q2.046875 0 3.1875 1.328125q1.140625 1.3125 1.140625 3.703125q0 2.265625 -0.515625 3.953125q-0.5 1.6875 -1.40625 2.859375q-0.90625 1.15625 -2.140625 1.8125q-1.21875 0.640625 -2.65625 0.8125l-0.359375 -1.28125q1.15625 -0.171875 2.078125 -0.671875q0.9375 -0.5 1.609375 -1.25q0.671875 -0.765625 1.078125 -1.734375q0.421875 -0.984375 0.59375 -2.109375q-0.546875 0.625 -1.203125 0.875q-0.640625 0.25 -1.703125 0.25q-0.8125 0 -1.546875 -0.265625q-0.734375 -0.265625 -1.296875 -0.78125q-0.546875 -0.53125 -0.875 -1.28125q-0.3125 -0.765625 -0.3125 -1.75zm1.65625 -0.15625q0 1.421875 0.75 2.140625q0.75 0.703125 1.96875 0.703125q0.984375 0 1.671875 -0.3125q0.703125 -0.328125 1.0 -0.84375q0.046875 -0.265625 0.046875 -0.46875q0 -0.203125 0 -0.421875q0 -0.71875 -0.171875 -1.390625q-0.171875 -0.671875 -0.515625 -1.1875q-0.328125 -0.53125 -0.890625 -0.828125q-0.546875 -0.3125 -1.28125 -0.3125q-1.21875 0 -1.90625 0.78125q-0.671875 0.765625 -0.671875 2.140625z" fill-rule="nonzero"/><path fill="#000000" d="m234.30844 204.77649q0 1.765625 -0.65625 3.625q-0.640625 1.84375 -1.6875 3.71875q-1.046875 1.859375 -2.359375 3.640625q-1.296875 1.78125 -2.59375 3.375l-1.625 1.4375l0 0.140625l2.125 -0.375l7.265625 0l0 2.46875l-13.265625 0l0 -0.96875q0.734375 -0.765625 1.765625 -1.890625q1.03125 -1.140625 2.140625 -2.515625q1.125 -1.390625 2.203125 -2.9375q1.09375 -1.546875 1.96875 -3.140625q0.890625 -1.609375 1.421875 -3.171875q0.53125 -1.578125 0.53125 -2.96875q0 -1.640625 -0.9375 -2.71875q-0.921875 -1.078125 -2.828125 -1.078125q-1.265625 0 -2.46875 0.515625q-1.1875 0.515625 -2.0625 1.171875l-1.09375 -1.890625q1.15625 -1.0 2.75 -1.5625q1.609375 -0.578125 3.453125 -0.578125q1.421875 0 2.515625 0.421875q1.109375 0.421875 1.875 1.1875q0.765625 0.765625 1.15625 1.8125q0.40625 1.046875 0.40625 2.28125zm11.101288 16.09375q1.140625 0 2.09375 -0.328125q0.96875 -0.328125 1.671875 -0.984375q0.703125 -0.65625 1.09375 -1.546875q0.40625 -0.90625 0.40625 -1.96875q0 -2.328125 -1.390625 -3.453125q-1.375 -1.140625 -3.8125 -1.140625l-2.453125 0l0 -0.96875l4.796875 -7.40625l1.53125 -1.46875l-2.171875 0.34375l-6.59375 0l0 -2.46875l11.890625 0l0 0.96875l-5.296875 7.96875l-1.15625 0.953125l0 0.078125l1.125 -0.234375q1.328125 0.03125 2.453125 0.484375q1.140625 0.4375 1.96875 1.296875q0.84375 0.84375 1.3125 2.03125q0.46875 1.1875 0.46875 2.6875q0 1.796875 -0.640625 3.203125q-0.625 1.390625 -1.71875 2.34375q-1.078125 0.953125 -2.546875 1.453125q-1.46875 0.5 -3.09375 0.5q-1.5 0 -2.703125 -0.234375q-1.203125 -0.234375 -2.09375 -0.609375l0.6875 -2.359375q0.78125 0.359375 1.828125 0.609375q1.046875 0.25 2.34375 0.25z" fill-rule="nonzero"/><path fill="#000000" d="m288.1268 220.33899l4.671875 0l0 -16.125l0.328125 -1.96875l-1.328125 1.5625l-3.671875 2.640625l-1.265625 -1.703125l7.34375 -5.671875l1.1875 0l0 21.265625l4.578125 0l0 2.46875l-11.84375 0l0 -2.46875zm32.038788 -4.703125l-3.9375 0l0 7.171875l-2.59375 0l0 -7.171875l-10.265625 0l0 -1.09375l11.0625 -15.4375l1.796875 0l0 14.203125l3.9375 0l0 2.328125zm-6.53125 -9.59375l0.328125 -2.734375l-0.09375 0l-1.171875 2.265625l-4.703125 6.375l-1.59375 1.625l2.328125 -0.265625l4.90625 0l0 -7.265625z" fill-rule="nonzero"/><path fill="#000000" d="m432.40533 216.30774l-3.671875 0l0 6.5l-4.03125 0l0 -6.5l-10.09375 0l0 -2.46875l10.5625 -14.53125l3.5625 0l0 13.53125l3.671875 0l0 3.46875zm-7.703125 -8.5625l0.296875 -2.796875l-0.140625 0l-1.125 2.390625l-3.46875 4.5l-1.671875 1.265625l2.140625 -0.265625l3.96875 0l0 -5.09375zm25.490753 7.828125q0 1.640625 -0.546875 3.046875q-0.546875 1.390625 -1.546875 2.421875q-1.0 1.03125 -2.421875 1.640625q-1.421875 0.59375 -3.109375 0.59375q-1.734375 0 -3.1875 -0.546875q-1.453125 -0.5625 -2.515625 -1.65625q-1.0625 -1.09375 -1.671875 -2.765625q-0.59375 -1.671875 -0.59375 -3.859375q0 -3.3125 0.9375 -5.96875q0.953125 -2.671875 2.5625 -4.65625q1.625 -1.984375 3.78125 -3.1875q2.15625 -1.21875 4.546875 -1.625l0.96875 3.4375q-1.671875 0.265625 -3.078125 1.03125q-1.390625 0.765625 -2.46875 1.828125q-1.078125 1.0625 -1.828125 2.390625q-0.75 1.3125 -1.0625 2.71875q0.671875 -0.84375 1.734375 -1.421875q1.078125 -0.578125 2.671875 -0.578125q1.5 0 2.765625 0.46875q1.265625 0.453125 2.15625 1.375q0.90625 0.921875 1.40625 2.25q0.5 1.328125 0.5 3.0625zm-4.203125 0.234375q0 -3.734375 -3.65625 -3.734375q-1.34375 0 -2.265625 0.609375q-0.90625 0.59375 -1.265625 1.390625q-0.078125 0.375 -0.078125 0.640625q0 0.265625 0 0.53125q0 0.796875 0.234375 1.578125q0.234375 0.78125 0.6875 1.40625q0.453125 0.609375 1.140625 1.0q0.703125 0.375 1.671875 0.375q1.578125 0 2.546875 -1.0625q0.984375 -1.0625 0.984375 -2.734375z" fill-rule="nonzero"/><path fill="#000000" d="m556.21655 217.24524q0 -2.109375 1.09375 -3.65625q1.109375 -1.546875 3.4375 -2.8125q-0.828125 -0.5 -1.546875 -1.046875q-0.71875 -0.546875 -1.265625 -1.25q-0.546875 -0.703125 -0.875 -1.5625q-0.3125 -0.875 -0.3125 -2.0q0 -1.3125 0.453125 -2.375q0.453125 -1.0625 1.296875 -1.828125q0.859375 -0.765625 2.03125 -1.203125q1.1875 -0.4375 2.6875 -0.4375q1.40625 0 2.53125 0.40625q1.140625 0.390625 1.921875 1.09375q0.78125 0.703125 1.203125 1.671875q0.4375 0.96875 0.4375 2.125q0 1.90625 -0.875 3.359375q-0.859375 1.453125 -2.859375 2.84375q0.875 0.5 1.65625 1.109375q0.78125 0.59375 1.359375 1.328125q0.59375 0.734375 0.921875 1.65625q0.328125 0.90625 0.328125 2.078125q0 1.4375 -0.46875 2.625q-0.453125 1.171875 -1.359375 2.03125q-0.890625 0.84375 -2.203125 1.328125q-1.296875 0.484375 -2.953125 0.484375q-1.609375 0 -2.84375 -0.46875q-1.234375 -0.46875 -2.078125 -1.265625q-0.84375 -0.8125 -1.28125 -1.890625q-0.4375 -1.078125 -0.4375 -2.34375zm11.03125 -0.34375q0 -1.0 -0.40625 -1.75q-0.390625 -0.75 -1.046875 -1.359375q-0.640625 -0.609375 -1.484375 -1.109375q-0.828125 -0.5 -1.734375 -0.96875q-2.03125 1.125 -2.90625 2.53125q-0.859375 1.390625 -0.859375 2.65625q0 0.8125 0.265625 1.546875q0.28125 0.734375 0.8125 1.265625q0.53125 0.53125 1.3125 0.84375q0.78125 0.3125 1.8125 0.3125q0.828125 0 1.59375 -0.25q0.78125 -0.25 1.359375 -0.734375q0.578125 -0.484375 0.921875 -1.234375q0.359375 -0.75 0.359375 -1.75zm-7.890625 -12.0625q0 0.9375 0.359375 1.65625q0.359375 0.71875 0.96875 1.28125q0.625 0.5625 1.421875 1.046875q0.8125 0.484375 1.671875 0.921875q1.5 -1.171875 2.21875 -2.296875q0.71875 -1.140625 0.71875 -2.5q0 -1.703125 -1.046875 -2.609375q-1.046875 -0.921875 -2.515625 -0.921875q-0.90625 0 -1.609375 0.296875q-0.6875 0.296875 -1.1875 0.765625q-0.5 0.46875 -0.75 1.09375q-0.25 0.609375 -0.25 1.265625z" fill-rule="nonzero"/><path stroke="#000000" stroke-width="3.0" stroke-linecap="butt" d="m737.9344 180.30945l0 62.45932" fill-rule="nonzero"/><path stroke="#000000" stroke-width="3.0" stroke-linecap="butt" d="m803.0184 180.30945l0 62.45932" fill-rule="nonzero"/><path stroke="#000000" stroke-width="3.0" stroke-linecap="butt" d="m868.10236 180.30945l0 62.45932" fill-rule="nonzero"/><path stroke="#000000" stroke-width="3.0" stroke-linecap="butt" d="m933.18634 180.30945l0 62.45932" fill-rule="nonzero"/><path stroke="#000000" stroke-width="3.0" stroke-linecap="butt" d="m998.2703 180.30945l0 62.45932" fill-rule="nonzero"/><path stroke="#000000" stroke-width="3.0" stroke-linecap="butt" d="m1063.3544 180.30945l0 62.45932" fill-rule="nonzero"/><path stroke="#000000" stroke-width="3.0" stroke-linecap="butt" d="m1128.4384 180.30945l0 62.45932" fill-rule="nonzero"/><path stroke="#000000" stroke-width="3.0" stroke-linecap="butt" d="m1193.5223 180.30945l0 62.45932" fill-rule="nonzero"/><path stroke="#000000" stroke-width="3.0" stroke-linecap="butt" d="m1258.6063 180.30945l0 62.45932" fill-rule="nonzero"/><path stroke="#000000" stroke-width="3.0" stroke-linecap="butt" d="m1323.6903 180.30945l0 62.45932" fill-rule="nonzero"/><path stroke="#000000" stroke-width="3.0" stroke-linecap="butt" d="m1388.7743 180.30945l0 62.45932" fill-rule="nonzero"/><path stroke="#000000" stroke-width="3.0" stroke-linecap="butt" d="m736.43567 181.80814l653.8373 0" fill-rule="nonzero"/><path stroke="#000000" stroke-width="3.0" stroke-linecap="butt" d="m736.43567 241.27008l653.8373 0" fill-rule="nonzero"/><path fill="#000000" d="m765.88574 169.00815q0 -3.59375 1.171875 -5.40625q1.171875 -1.828125 3.40625 -1.828125q2.421875 0 3.515625 1.796875q1.09375 1.78125 1.09375 5.4375q0 3.59375 -1.171875 5.421875q-1.171875 1.8125 -3.4375 1.8125q-2.375 0 -3.484375 -1.890625q-1.09375 -1.90625 -1.09375 -5.34375zm1.65625 0q0 1.296875 0.171875 2.375q0.171875 1.0625 0.53125 1.84375q0.359375 0.765625 0.90625 1.203125q0.5625 0.421875 1.3125 0.421875q1.515625 0 2.21875 -1.40625q0.71875 -1.421875 0.71875 -4.4375q0 -1.28125 -0.15625 -2.359375q-0.140625 -1.078125 -0.5 -1.859375q-0.34375 -0.78125 -0.90625 -1.203125q-0.546875 -0.421875 -1.375 -0.421875q-1.5 0 -2.21875 1.421875q-0.703125 1.421875 -0.703125 4.421875z" fill-rule="nonzero"/><path fill="#000000" d="m832.2666 174.52377l2.796875 0l0 -9.671875l0.203125 -1.1875l-0.796875 0.9375l-2.203125 1.59375l-0.75 -1.03125l4.390625 -3.390625l0.71875 0l0 12.75l2.75 0l0 1.484375l-7.109375 0l0 -1.484375z" fill-rule="nonzero"/><path fill="#000000" d="m904.1162 165.19565q0 1.046875 -0.390625 2.15625q-0.390625 1.109375 -1.03125 2.234375q-0.625 1.125 -1.40625 2.203125q-0.78125 1.0625 -1.546875 2.015625l-0.984375 0.859375l0 0.078125l1.28125 -0.21875l4.359375 0l0 1.484375l-7.96875 0l0 -0.578125q0.453125 -0.46875 1.0625 -1.140625q0.625 -0.6875 1.296875 -1.515625q0.671875 -0.828125 1.3125 -1.75q0.65625 -0.9375 1.1875 -1.890625q0.53125 -0.96875 0.84375 -1.90625q0.328125 -0.9375 0.328125 -1.78125q0 -0.984375 -0.5625 -1.625q-0.5625 -0.65625 -1.703125 -0.65625q-0.765625 0 -1.484375 0.3125q-0.71875 0.3125 -1.234375 0.71875l-0.65625 -1.140625q0.6875 -0.609375 1.640625 -0.9375q0.96875 -0.34375 2.078125 -0.34375q0.859375 0 1.515625 0.25q0.65625 0.25 1.109375 0.71875q0.46875 0.453125 0.703125 1.078125q0.25 0.625 0.25 1.375z" fill-rule="nonzero"/><path fill="#000000" d="m964.9658 174.8519q0.671875 0 1.25 -0.203125q0.578125 -0.203125 1.0 -0.59375q0.421875 -0.390625 0.65625 -0.921875q0.25 -0.546875 0.25 -1.1875q0 -1.390625 -0.828125 -2.0625q-0.828125 -0.6875 -2.296875 -0.6875l-1.484375 0l0 -0.59375l2.890625 -4.4375l0.921875 -0.875l-1.3125 0.203125l-3.953125 0l0 -1.484375l7.140625 0l0 0.578125l-3.1875 4.78125l-0.6875 0.578125l0 0.046875l0.671875 -0.140625q0.796875 0.015625 1.46875 0.296875q0.6875 0.265625 1.1875 0.78125q0.5 0.5 0.78125 1.21875q0.28125 0.703125 0.28125 1.59375q0 1.078125 -0.375 1.921875q-0.375 0.84375 -1.03125 1.421875q-0.65625 0.5625 -1.53125 0.859375q-0.875 0.296875 -1.859375 0.296875q-0.90625 0 -1.625 -0.140625q-0.71875 -0.140625 -1.25 -0.359375l0.421875 -1.421875q0.453125 0.234375 1.078125 0.390625q0.640625 0.140625 1.421875 0.140625z" fill-rule="nonzero"/><path fill="#000000" d="m1035.8467 171.71127l-2.359375 0l0 4.296875l-1.5625 0l0 -4.296875l-6.15625 0l0 -0.65625l6.640625 -9.265625l1.078125 0l0 8.515625l2.359375 0l0 1.40625zm-3.921875 -5.765625l0.203125 -1.640625l-0.0625 0l-0.703125 1.359375l-2.8125 3.828125l-0.96875 0.96875l1.40625 -0.15625l2.9375 0l0 -4.359375z" fill-rule="nonzero"/><path fill="#000000" d="m1094.7119 174.8519q1.375 0 2.265625 -0.796875q0.90625 -0.8125 0.90625 -2.328125q0 -1.453125 -0.890625 -2.171875q-0.890625 -0.734375 -2.453125 -0.734375l-1.671875 0.109375l0 -6.921875l6.234375 0l0 1.484375l-4.734375 0l0 3.96875l0.859375 -0.03125q1.984375 0.015625 3.125 1.09375q1.140625 1.078125 1.140625 3.109375q0 1.109375 -0.390625 1.984375q-0.375 0.875 -1.03125 1.453125q-0.640625 0.578125 -1.53125 0.875q-0.875 0.296875 -1.875 0.296875q-0.90625 0 -1.53125 -0.09375q-0.609375 -0.09375 -1.140625 -0.296875l0.40625 -1.359375q0.46875 0.171875 1.0 0.265625q0.53125 0.09375 1.3125 0.09375z" fill-rule="nonzero"/><path fill="#000000" d="m1165.374 171.7894q0 0.921875 -0.28125 1.734375q-0.28125 0.796875 -0.828125 1.421875q-0.53125 0.609375 -1.34375 0.953125q-0.796875 0.34375 -1.8125 0.34375q-1.0 0 -1.796875 -0.3125q-0.796875 -0.328125 -1.390625 -0.953125q-0.578125 -0.625 -0.890625 -1.546875q-0.296875 -0.921875 -0.296875 -2.125q0 -1.984375 0.5 -3.640625q0.515625 -1.671875 1.40625 -2.90625q0.90625 -1.25 2.140625 -2.015625q1.234375 -0.78125 2.671875 -0.96875l0.34375 1.28125q-1.125 0.1875 -2.046875 0.75q-0.921875 0.5625 -1.609375 1.390625q-0.6875 0.8125 -1.125 1.84375q-0.4375 1.015625 -0.609375 2.09375q0.328125 -0.546875 1.078125 -0.984375q0.765625 -0.453125 1.859375 -0.453125q1.890625 0 2.953125 1.078125q1.078125 1.078125 1.078125 3.015625zm-1.65625 0.15625q0 -1.421875 -0.671875 -2.140625q-0.65625 -0.71875 -2.03125 -0.71875q-0.984375 0 -1.703125 0.484375q-0.703125 0.484375 -0.984375 1.078125q-0.03125 0.28125 -0.03125 0.46875q0 0.171875 0 0.390625q0 0.625 0.15625 1.21875q0.171875 0.59375 0.53125 1.078125q0.359375 0.46875 0.890625 0.765625q0.53125 0.28125 1.25 0.28125q0.59375 0 1.0625 -0.21875q0.46875 -0.21875 0.796875 -0.59375q0.34375 -0.390625 0.53125 -0.921875q0.203125 -0.546875 0.203125 -1.171875z" fill-rule="nonzero"/><path fill="#000000" d="m1222.8174 176.00815l5.015625 -11.71875l0.875 -0.984375l-1.171875 0.1875l-5.703125 0l0 -1.484375l8.359375 0l0 0.546875l-5.765625 13.453125l-1.609375 0z" fill-rule="nonzero"/><path fill="#000000" d="m1287.0576 172.6644q0 -1.25 0.65625 -2.171875q0.671875 -0.9375 2.0625 -1.703125q-0.5 -0.296875 -0.9375 -0.625q-0.421875 -0.34375 -0.75 -0.75q-0.328125 -0.421875 -0.515625 -0.9375q-0.1875 -0.53125 -0.1875 -1.203125q0 -0.78125 0.265625 -1.421875q0.265625 -0.640625 0.765625 -1.09375q0.515625 -0.46875 1.21875 -0.71875q0.71875 -0.265625 1.625 -0.265625q0.84375 0 1.515625 0.234375q0.6875 0.234375 1.15625 0.65625q0.46875 0.421875 0.71875 1.0q0.265625 0.578125 0.265625 1.28125q0 1.140625 -0.515625 2.015625q-0.515625 0.859375 -1.71875 1.703125q0.515625 0.296875 0.984375 0.671875q0.46875 0.359375 0.8125 0.796875q0.359375 0.4375 0.5625 0.984375q0.203125 0.546875 0.203125 1.25q0 0.859375 -0.28125 1.578125q-0.28125 0.703125 -0.828125 1.21875q-0.53125 0.5 -1.3125 0.796875q-0.78125 0.28125 -1.78125 0.28125q-0.96875 0 -1.703125 -0.265625q-0.734375 -0.28125 -1.25 -0.765625q-0.515625 -0.484375 -0.78125 -1.125q-0.25 -0.65625 -0.25 -1.421875zm6.625 -0.203125q0 -0.59375 -0.25 -1.046875q-0.234375 -0.453125 -0.625 -0.8125q-0.390625 -0.375 -0.890625 -0.671875q-0.5 -0.296875 -1.03125 -0.578125q-1.234375 0.671875 -1.75 1.515625q-0.515625 0.84375 -0.515625 1.59375q0 0.484375 0.15625 0.921875q0.15625 0.4375 0.46875 0.765625q0.328125 0.3125 0.796875 0.515625q0.46875 0.1875 1.09375 0.1875q0.5 0 0.953125 -0.140625q0.46875 -0.15625 0.8125 -0.453125q0.359375 -0.296875 0.5625 -0.734375q0.21875 -0.453125 0.21875 -1.0625zm-4.75 -7.234375q0 0.5625 0.21875 1.0q0.234375 0.421875 0.59375 0.765625q0.375 0.328125 0.84375 0.625q0.484375 0.296875 1.015625 0.546875q0.890625 -0.703125 1.3125 -1.375q0.4375 -0.6875 0.4375 -1.5q0 -1.015625 -0.625 -1.5625q-0.625 -0.5625 -1.515625 -0.5625q-0.53125 0 -0.953125 0.1875q-0.421875 0.171875 -0.71875 0.453125q-0.296875 0.28125 -0.453125 0.65625q-0.15625 0.359375 -0.15625 0.765625z" fill-rule="nonzero"/><path fill="#000000" d="m1351.8291 166.24252q0 -0.953125 0.265625 -1.765625q0.28125 -0.828125 0.828125 -1.421875q0.546875 -0.609375 1.34375 -0.9375q0.8125 -0.34375 1.890625 -0.34375q2.046875 0 3.1875 1.328125q1.140625 1.3125 1.140625 3.703125q0 2.265625 -0.515625 3.953125q-0.5 1.6875 -1.40625 2.859375q-0.90625 1.15625 -2.140625 1.8125q-1.21875 0.640625 -2.65625 0.8125l-0.359375 -1.28125q1.15625 -0.171875 2.078125 -0.671875q0.9375 -0.5 1.609375 -1.25q0.671875 -0.765625 1.078125 -1.734375q0.421875 -0.984375 0.59375 -2.109375q-0.546875 0.625 -1.203125 0.875q-0.640625 0.25 -1.703125 0.25q-0.8125 0 -1.546875 -0.265625q-0.734375 -0.265625 -1.296875 -0.78125q-0.546875 -0.53125 -0.875 -1.28125q-0.3125 -0.765625 -0.3125 -1.75zm1.65625 -0.15625q0 1.421875 0.75 2.140625q0.75 0.703125 1.96875 0.703125q0.984375 0 1.671875 -0.3125q0.703125 -0.328125 1.0 -0.84375q0.046875 -0.265625 0.046875 -0.46875q0 -0.203125 0 -0.421875q0 -0.71875 -0.171875 -1.390625q-0.171875 -0.671875 -0.515625 -1.1875q-0.328125 -0.53125 -0.890625 -0.828125q-0.546875 -0.3125 -1.28125 -0.3125q-1.21875 0 -1.90625 0.78125q-0.671875 0.765625 -0.671875 2.140625z" fill-rule="nonzero"/><path fill="#000000" d="m962.42395 204.77689q0 1.765625 -0.65625 3.625q-0.640625 1.84375 -1.6875 3.71875q-1.046875 1.859375 -2.359375 3.640625q-1.296875 1.78125 -2.59375 3.375l-1.625 1.4375l0 0.140625l2.125 -0.375l7.265625 0l0 2.46875l-13.265625 0l0 -0.96875q0.734375 -0.765625 1.765625 -1.890625q1.03125 -1.140625 2.140625 -2.515625q1.125 -1.390625 2.203125 -2.9375q1.09375 -1.546875 1.96875 -3.140625q0.890625 -1.609375 1.421875 -3.171875q0.53125 -1.578125 0.53125 -2.96875q0 -1.640625 -0.9375 -2.71875q-0.921875 -1.078125 -2.828125 -1.078125q-1.265625 0 -2.46875 0.515625q-1.1875 0.515625 -2.0625 1.171875l-1.09375 -1.890625q1.15625 -1.0 2.75 -1.5625q1.609375 -0.578125 3.453125 -0.578125q1.421875 0 2.515625 0.421875q1.109375 0.421875 1.875 1.1875q0.765625 0.765625 1.15625 1.8125q0.40625 1.046875 0.40625 2.28125zm11.101257 16.09375q1.140625 0 2.09375 -0.328125q0.96875 -0.328125 1.671875 -0.984375q0.703125 -0.65625 1.09375 -1.546875q0.40625 -0.90625 0.40625 -1.96875q0 -2.328125 -1.390625 -3.453125q-1.375 -1.140625 -3.8125 -1.140625l-2.453125 0l0 -0.96875l4.796875 -7.40625l1.53125 -1.46875l-2.171875 0.34375l-6.59375 0l0 -2.46875l11.890625 0l0 0.96875l-5.296875 7.96875l-1.15625 0.953125l0 0.078125l1.125 -0.234375q1.328125 0.03125 2.453125 0.484375q1.140625 0.4375 1.96875 1.296875q0.84375 0.84375 1.3125 2.03125q0.46875 1.1875 0.46875 2.6875q0 1.796875 -0.640625 3.203125q-0.625 1.390625 -1.71875 2.34375q-1.078125 0.953125 -2.546875 1.453125q-1.46875 0.5 -3.09375 0.5q-1.5 0 -2.703125 -0.234375q-1.203125 -0.234375 -2.09375 -0.609375l0.6875 -2.359375q0.78125 0.359375 1.828125 0.609375q1.046875 0.25 2.34375 0.25z" fill-rule="nonzero"/><path fill="#000000" d="m1016.2423 220.33939l4.671875 0l0 -16.125l0.328125 -1.96875l-1.328125 1.5625l-3.671875 2.640625l-1.265625 -1.703125l7.34375 -5.671875l1.1875 0l0 21.265625l4.578125 0l0 2.46875l-11.84375 0l0 -2.46875zm32.03882 -4.703125l-3.9375 0l0 7.171875l-2.59375 0l0 -7.171875l-10.265625 0l0 -1.09375l11.0625 -15.4375l1.796875 0l0 14.203125l3.9375 0l0 2.328125zm-6.53125 -9.59375l0.328125 -2.734375l-0.09375 0l-1.171875 2.265625l-4.703125 6.375l-1.59375 1.625l2.328125 -0.265625l4.90625 0l0 -7.265625z" fill-rule="nonzero"/><path fill="#000000" d="m1160.2853 215.63626l-3.9375 0l0 7.171875l-2.59375 0l0 -7.171875l-10.265625 0l0 -1.09375l11.0625 -15.4375l1.796875 0l0 14.203125l3.9375 0l0 2.328125zm-6.53125 -9.59375l0.328125 -2.734375l-0.09375 0l-1.171875 2.265625l-4.703125 6.375l-1.59375 1.625l2.328125 -0.265625l4.90625 0l0 -7.265625zm23.616943 9.734375q0 1.53125 -0.46875 2.890625q-0.453125 1.34375 -1.359375 2.359375q-0.890625 1.015625 -2.234375 1.609375q-1.328125 0.578125 -3.03125 0.578125q-1.671875 0 -3.0 -0.53125q-1.328125 -0.546875 -2.296875 -1.59375q-0.96875 -1.046875 -1.484375 -2.578125q-0.515625 -1.53125 -0.515625 -3.53125q0 -3.296875 0.84375 -6.078125q0.859375 -2.796875 2.359375 -4.859375q1.5 -2.0625 3.546875 -3.34375q2.046875 -1.28125 4.453125 -1.625l0.5625 2.140625q-1.875 0.328125 -3.40625 1.265625q-1.53125 0.9375 -2.6875 2.3125q-1.140625 1.359375 -1.875 3.0625q-0.734375 1.6875 -1.0 3.484375q0.53125 -0.890625 1.796875 -1.640625q1.265625 -0.75 3.109375 -0.75q3.125 0 4.90625 1.796875q1.78125 1.796875 1.78125 5.03125zm-2.765625 0.265625q0 -2.359375 -1.09375 -3.5625q-1.09375 -1.203125 -3.40625 -1.203125q-1.625 0 -2.8125 0.796875q-1.1875 0.796875 -1.640625 1.796875q-0.078125 0.46875 -0.078125 0.78125q0 0.296875 0 0.65625q0 1.03125 0.28125 2.03125q0.296875 1.0 0.890625 1.78125q0.59375 0.78125 1.46875 1.265625q0.890625 0.484375 2.09375 0.484375q0.96875 0 1.75 -0.359375q0.78125 -0.375 1.34375 -1.0q0.578125 -0.640625 0.890625 -1.53125q0.3125 -0.90625 0.3125 -1.9375z" fill-rule="nonzero"/><path fill="#000000" d="m1233.944 215.57376q0 1.640625 -0.546875 3.046875q-0.546875 1.390625 -1.546875 2.421875q-1.0 1.03125 -2.421875 1.640625q-1.421875 0.59375 -3.109375 0.59375q-1.734375 0 -3.1875 -0.546875q-1.453125 -0.5625 -2.515625 -1.65625q-1.0625 -1.09375 -1.671875 -2.765625q-0.59375 -1.671875 -0.59375 -3.859375q0 -3.3125 0.9375 -5.96875q0.953125 -2.671875 2.5625 -4.65625q1.625 -1.984375 3.78125 -3.1875q2.15625 -1.21875 4.546875 -1.625l0.96875 3.4375q-1.671875 0.265625 -3.078125 1.03125q-1.390625 0.765625 -2.46875 1.828125q-1.078125 1.0625 -1.828125 2.390625q-0.75 1.3125 -1.0625 2.71875q0.671875 -0.84375 1.734375 -1.421875q1.078125 -0.578125 2.671875 -0.578125q1.5 0 2.765625 0.46875q1.265625 0.453125 2.15625 1.375q0.90625 0.921875 1.40625 2.25q0.5 1.328125 0.5 3.0625zm-4.203125 0.234375q0 -3.734375 -3.65625 -3.734375q-1.34375 0 -2.265625 0.609375q-0.90625 0.59375 -1.265625 1.390625q-0.078125 0.375 -0.078125 0.640625q0 0.265625 0 0.53125q0 0.796875 0.234375 1.578125q0.234375 0.78125 0.6875 1.40625q0.453125 0.609375 1.140625 1.0q0.703125 0.375 1.671875 0.375q1.578125 0 2.546875 -1.0625q0.984375 -1.0625 0.984375 -2.734375z" fill-rule="nonzero"/><path fill="#000000" d="m1284.332 217.24564q0 -2.109375 1.09375 -3.65625q1.109375 -1.546875 3.4375 -2.8125q-0.828125 -0.5 -1.546875 -1.046875q-0.71875 -0.546875 -1.265625 -1.25q-0.546875 -0.703125 -0.875 -1.5625q-0.3125 -0.875 -0.3125 -2.0q0 -1.3125 0.453125 -2.375q0.453125 -1.0625 1.296875 -1.828125q0.859375 -0.765625 2.03125 -1.203125q1.1875 -0.4375 2.6875 -0.4375q1.40625 0 2.53125 0.40625q1.140625 0.390625 1.921875 1.09375q0.78125 0.703125 1.203125 1.671875q0.4375 0.96875 0.4375 2.125q0 1.90625 -0.875 3.359375q-0.859375 1.453125 -2.859375 2.84375q0.875 0.5 1.65625 1.109375q0.78125 0.59375 1.359375 1.328125q0.59375 0.734375 0.921875 1.65625q0.328125 0.90625 0.328125 2.078125q0 1.4375 -0.46875 2.625q-0.453125 1.171875 -1.359375 2.03125q-0.890625 0.84375 -2.203125 1.328125q-1.296875 0.484375 -2.953125 0.484375q-1.609375 0 -2.84375 -0.46875q-1.234375 -0.46875 -2.078125 -1.265625q-0.84375 -0.8125 -1.28125 -1.890625q-0.4375 -1.078125 -0.4375 -2.34375zm11.03125 -0.34375q0 -1.0 -0.40625 -1.75q-0.390625 -0.75 -1.046875 -1.359375q-0.640625 -0.609375 -1.484375 -1.109375q-0.828125 -0.5 -1.734375 -0.96875q-2.03125 1.125 -2.90625 2.53125q-0.859375 1.390625 -0.859375 2.65625q0 0.8125 0.265625 1.546875q0.28125 0.734375 0.8125 1.265625q0.53125 0.53125 1.3125 0.84375q0.78125 0.3125 1.8125 0.3125q0.828125 0 1.59375 -0.25q0.78125 -0.25 1.359375 -0.734375q0.578125 -0.484375 0.921875 -1.234375q0.359375 -0.75 0.359375 -1.75zm-7.890625 -12.0625q0 0.9375 0.359375 1.65625q0.359375 0.71875 0.96875 1.28125q0.625 0.5625 1.421875 1.046875q0.8125 0.484375 1.671875 0.921875q1.5 -1.171875 2.21875 -2.296875q0.71875 -1.140625 0.71875 -2.5q0 -1.703125 -1.046875 -2.609375q-1.046875 -0.921875 -2.515625 -0.921875q-0.90625 0 -1.609375 0.296875q-0.6875 0.296875 -1.1875 0.765625q-0.5 0.46875 -0.75 1.09375q-0.25 0.609375 -0.25 1.265625z" fill-rule="nonzero"/><path fill="#000000" fill-opacity="0.0" d="m290.53806 123.35171l0 -28.850395" fill-rule="evenodd"/><path stroke="#000000" stroke-width="2.0" stroke-linejoin="round" stroke-linecap="butt" stroke-dasharray="2.0,6.0" d="m290.53806 123.35171l0 -21.996216" fill-rule="evenodd"/><path fill="#000000" stroke="#000000" stroke-width="2.0" stroke-linecap="butt" d="m290.53806 101.355484l2.249176 2.2491684l-2.249176 -6.179535l-2.249176 6.179535z" fill-rule="evenodd"/><path fill="#000000" fill-opacity="0.0" d="m312.5056 123.35171l0 -28.850395" fill-rule="evenodd"/><path stroke="#000000" stroke-width="3.0" stroke-linejoin="round" stroke-linecap="butt" d="m312.5056 123.35171l0 -18.569138" fill-rule="evenodd"/><path fill="#000000" stroke="#000000" stroke-width="3.0" stroke-linecap="butt" d="m312.5056 104.78257l3.3737488 3.3737564l-3.3737488 -9.26931l-3.3737488 9.26931z" fill-rule="evenodd"/><path fill="#000000" fill-opacity="0.0" d="m1292.1326 123.35171l0 -28.850395" fill-rule="evenodd"/><path stroke="#000000" stroke-width="2.0" stroke-linejoin="round" stroke-linecap="butt" stroke-dasharray="2.0,6.0" d="m1292.1326 123.35171l0 -21.996216" fill-rule="evenodd"/><path fill="#000000" stroke="#000000" stroke-width="2.0" stroke-linecap="butt" d="m1292.1326 101.355484l2.2491455 2.2491684l-2.2491455 -6.179535l-2.2491455 6.179535z" fill-rule="evenodd"/><path fill="#000000" fill-opacity="0.0" d="m1097.3268 123.35171l0 -28.850395" fill-rule="evenodd"/><path stroke="#000000" stroke-width="2.0" stroke-linejoin="round" stroke-linecap="butt" d="m1097.3268 123.35171l0 -21.996216" fill-rule="evenodd"/><path fill="#000000" stroke="#000000" stroke-width="2.0" stroke-linecap="butt" d="m1097.3268 101.355484l2.2491455 2.2491684l-2.2491455 -6.179535l-2.2491455 6.179535z" fill-rule="evenodd"/><path fill="#000000" fill-opacity="0.0" d="m745.6158 123.35171l0 -28.850395" fill-rule="evenodd"/><path stroke="#000000" stroke-width="2.0" stroke-linejoin="round" stroke-linecap="butt" stroke-dasharray="2.0,6.0" d="m745.6158 123.35171l0 -21.996216" fill-rule="evenodd"/><path fill="#000000" stroke="#000000" stroke-width="2.0" stroke-linecap="butt" d="m745.6158 101.355484l2.2492065 2.2491684l-2.2492065 -6.179535l-2.2491455 6.179535z" fill-rule="evenodd"/><path fill="#000000" fill-opacity="0.0" d="m767.5834 123.35171l0 -28.850395" fill-rule="evenodd"/><path stroke="#000000" stroke-width="2.0" stroke-linejoin="round" stroke-linecap="butt" d="m767.5833 123.35171l0 -21.996216" fill-rule="evenodd"/><path fill="#000000" stroke="#000000" stroke-width="2.0" stroke-linecap="butt" d="m767.5833 101.355484l2.2492065 2.2491684l-2.2492065 -6.179535l-2.2491455 6.179535z" fill-rule="evenodd"/><path fill="#000000" fill-opacity="0.0" d="m1160.8662 270.12335l0 -28.850388" fill-rule="evenodd"/><path stroke="#000000" stroke-width="2.0" stroke-linejoin="round" stroke-linecap="butt" stroke-dasharray="2.0,6.0" d="m1160.8661 270.12335l0 -21.996216" fill-rule="evenodd"/><path fill="#000000" stroke="#000000" stroke-width="2.0" stroke-linecap="butt" d="m1160.8661 248.12714l2.2492676 2.249176l-2.2492676 -6.179535l-2.2491455 6.179535z" fill-rule="evenodd"/><path fill="#000000" fill-opacity="0.0" d="m1226.1443 270.12335l0 -28.850388" fill-rule="evenodd"/><path stroke="#000000" stroke-width="2.0" stroke-linejoin="round" stroke-linecap="butt" d="m1226.1444 270.12335l0 -21.996216" fill-rule="evenodd"/><path fill="#000000" stroke="#000000" stroke-width="2.0" stroke-linecap="butt" d="m1226.1444 248.12714l2.2491455 2.249176l-2.2491455 -6.179535l-2.2492676 6.179535z" fill-rule="evenodd"/><path fill="#000000" fill-opacity="0.0" d="m420.8249 270.12335l0 -28.850388" fill-rule="evenodd"/><path stroke="#000000" stroke-width="2.0" stroke-linejoin="round" stroke-linecap="butt" stroke-dasharray="2.0,6.0" d="m420.8249 270.12335l0 -21.996216" fill-rule="evenodd"/><path fill="#000000" stroke="#000000" stroke-width="2.0" stroke-linecap="butt" d="m420.8249 248.12714l2.249176 2.249176l-2.249176 -6.179535l-2.249176 6.179535z" fill-rule="evenodd"/><path fill="#000000" fill-opacity="0.0" d="m442.79245 270.12335l0 -28.850388" fill-rule="evenodd"/><path stroke="#000000" stroke-width="2.0" stroke-linejoin="round" stroke-linecap="butt" d="m442.79245 270.12335l0 -21.996216" fill-rule="evenodd"/><path fill="#000000" stroke="#000000" stroke-width="2.0" stroke-linecap="butt" d="m442.79245 248.12714l2.249176 2.249176l-2.249176 -6.179535l-2.249176 6.179535z" fill-rule="evenodd"/></g></svg>