<svg version="1.1" viewBox="0.0 0.0 613.2703412073491 229.81364829396327" fill="none" stroke="none" stroke-linecap="square" stroke-miterlimit="10" xmlns:xlink="http://www.w3.org/1999/xlink" xmlns="http://www.w3.org/2000/svg"><clipPath id="p.0"><path d="m0 0l613.2703 0l0 229.81364l-613.2703 0l0 -229.81364z" clip-rule="nonzero"/></clipPath><g clip-path="url(#p.0)"><path fill="#000000" fill-opacity="0.0" d="m0 0l613.2703 0l0 229.81364l-613.2703 0z" fill-rule="evenodd"/><path stroke="#000000" stroke-width="3.0" stroke-linecap="butt" d="m9.818897 27.497976l0 44.59317" fill-rule="nonzero"/><path stroke="#000000" stroke-width="3.0" stroke-linecap="butt" d="m55.37008 27.497976l0 44.59317" fill-rule="nonzero"/><path stroke="#000000" stroke-width="3.0" stroke-linecap="butt" d="m100.92126 27.497976l0 44.59317" fill-rule="nonzero"/><path stroke="#000000" stroke-width="3.0" stroke-linecap="butt" d="m146.47244 27.497976l0 44.59317" fill-rule="nonzero"/><path stroke="#000000" stroke-width="3.0" stroke-linecap="butt" d="m192.02362 27.497976l0 44.59317" fill-rule="nonzero"/><path stroke="#000000" stroke-width="3.0" stroke-linecap="butt" d="m237.5748 27.497976l0 44.59317" fill-rule="nonzero"/><path stroke="#000000" stroke-width="3.0" stroke-linecap="butt" d="m283.12598 27.497976l0 44.59317" fill-rule="nonzero"/><path stroke="#000000" stroke-width="3.0" stroke-linecap="butt" d="m328.67715 27.497976l0 44.59317" fill-rule="nonzero"/><path stroke="#000000" stroke-width="3.0" stroke-linecap="butt" d="m374.22833 27.497976l0 44.59317" fill-rule="nonzero"/><path stroke="#000000" stroke-width="3.0" stroke-linecap="butt" d="m419.77954 27.497976l0 44.59317" fill-rule="nonzero"/><path stroke="#000000" stroke-width="3.0" stroke-linecap="butt" d="m465.33072 27.497976l0 44.59317" fill-rule="nonzero"/><path stroke="#000000" stroke-width="3.0" stroke-linecap="butt" d="m510.8819 27.497976l0 44.59317" fill-rule="nonzero"/><path stroke="#000000" stroke-width="3.0" stroke-linecap="butt" d="m556.43304 27.497976l0 44.59317" fill-rule="nonzero"/><path stroke="#000000" stroke-width="3.0" stroke-linecap="butt" d="m601.98425 27.497976l0 44.59317" fill-rule="nonzero"/><path stroke="#000000" stroke-width="3.0" stroke-linecap="butt" d="m8.3202095 28.996664l595.1627 0" fill-rule="nonzero"/><path stroke="#000000" stroke-width="3.0" stroke-linecap="butt" d="m8.3202095 70.59246l595.1627 0" fill-rule="nonzero"/><path fill="#000000" d="m29.840094 20.913538q0 -2.15625 0.703125 -3.25q0.703125 -1.09375 2.046877 -1.09375q1.453125 0 2.109375 1.078125q0.65625 1.078125 0.65625 3.265625q0 2.15625 -0.703125 3.25q-0.703125 1.09375 -2.0625 1.09375q-1.4218769 0 -2.093752 -1.140625q-0.65625 -1.140625 -0.65625 -3.203125zm1.0 0q0 0.78125 0.09375 1.421875q0.109375 0.640625 0.3125 1.109375q0.21875 0.453125 0.546875 0.71875q0.3437519 0.25 0.7968769 0.25q0.90625 0 1.328125 -0.84375q0.4375 -0.84375 0.4375 -2.65625q0 -0.765625 -0.09375 -1.40625q-0.09375 -0.65625 -0.3125 -1.125q-0.203125 -0.46875 -0.546875 -0.71875q-0.328125 -0.25 -0.8125 -0.25q-0.9062519 0 -1.3281269 0.859375q-0.421875 0.84375 -0.421875 2.640625z" fill-rule="nonzero"/><path fill="#000000" d="m76.17252 24.226038l1.671875 0l0 -5.8125l0.125 -0.703125l-0.484375 0.5625l-1.3125 0.953125l-0.453125 -0.609375l2.640625 -2.046875l0.421875 0l0 7.65625l1.65625 0l0 0.890625l-4.265625 0l0 -0.890625z" fill-rule="nonzero"/><path fill="#000000" d="m125.78621 18.632288q0 0.625 -0.234375 1.296875q-0.234375 0.65625 -0.625 1.328125q-0.375 0.671875 -0.84375 1.328125q-0.46875 0.640625 -0.9375 1.21875l-0.578125 0.515625l0 0.046875l0.765625 -0.140625l2.609375 0l0 0.890625l-4.765625 0l0 -0.34375q0.265625 -0.28125 0.625 -0.6875q0.375 -0.40625 0.78125 -0.90625q0.40625 -0.5 0.796875 -1.046875q0.390625 -0.5625 0.703125 -1.140625q0.3125 -0.578125 0.5 -1.140625q0.203125 -0.5625 0.203125 -1.078125q0 -0.578125 -0.34375 -0.96875q-0.328125 -0.390625 -1.015625 -0.390625q-0.453125 0 -0.890625 0.1875q-0.421875 0.1875 -0.734375 0.421875l-0.40625 -0.6875q0.421875 -0.359375 1.0 -0.5625q0.578125 -0.203125 1.234375 -0.203125q0.515625 0 0.90625 0.15625q0.40625 0.140625 0.671875 0.421875q0.28125 0.28125 0.421875 0.65625q0.15625 0.375 0.15625 0.828125z" fill-rule="nonzero"/><path fill="#000000" d="m168.79051 24.413538q0.40625 0 0.75 -0.109375q0.34375 -0.125 0.59375 -0.359375q0.265625 -0.234375 0.40625 -0.546875q0.140625 -0.328125 0.140625 -0.71875q0 -0.84375 -0.5 -1.25q-0.5 -0.40625 -1.375 -0.40625l-0.890625 0l0 -0.34375l1.734375 -2.671875l0.546875 -0.515625l-0.78125 0.109375l-2.375 0l0 -0.890625l4.296875 0l0 0.359375l-1.921875 2.859375l-0.40625 0.34375l0 0.03125l0.40625 -0.078125q0.46875 0 0.875 0.171875q0.421875 0.15625 0.71875 0.46875q0.296875 0.296875 0.453125 0.734375q0.171875 0.421875 0.171875 0.953125q0 0.65625 -0.234375 1.15625q-0.21875 0.5 -0.609375 0.84375q-0.390625 0.34375 -0.921875 0.53125q-0.515625 0.171875 -1.109375 0.171875q-0.53125 0 -0.96875 -0.09375q-0.4375 -0.078125 -0.75 -0.203125l0.25 -0.859375q0.265625 0.140625 0.640625 0.234375q0.390625 0.078125 0.859375 0.078125z" fill-rule="nonzero"/><path fill="#000000" d="m217.81044 22.538538l-1.40625 0l0 2.578125l-0.9375 0l0 -2.578125l-3.703125 0l0 -0.390625l3.984375 -5.5625l0.65625 0l0 5.109375l1.40625 0l0 0.84375zm-2.34375 -3.453125l0.125 -0.984375l-0.046875 0l-0.421875 0.8125l-1.6875 2.296875l-0.578125 0.578125l0.84375 -0.09375l1.765625 0l0 -2.609375z" fill-rule="nonzero"/><path fill="#000000" d="m259.64288 24.413538q0.828125 0 1.359375 -0.46875q0.546875 -0.484375 0.546875 -1.390625q0 -0.875 -0.546875 -1.3125q-0.53125 -0.4375 -1.46875 -0.4375l-1.0 0.0625l0 -4.15625l3.75 0l0 0.890625l-2.84375 0l0 2.390625l0.515625 -0.015625q1.1875 0 1.859375 0.65625q0.6875 0.640625 0.6875 1.859375q0 0.671875 -0.234375 1.203125q-0.21875 0.515625 -0.609375 0.859375q-0.390625 0.34375 -0.921875 0.53125q-0.53125 0.171875 -1.125 0.171875q-0.546875 0 -0.921875 -0.0625q-0.359375 -0.046875 -0.6875 -0.171875l0.25 -0.8125q0.28125 0.109375 0.59375 0.15625q0.328125 0.046875 0.796875 0.046875z" fill-rule="nonzero"/><path fill="#000000" d="m308.5378 22.585413q0 0.546875 -0.171875 1.03125q-0.171875 0.484375 -0.5 0.859375q-0.3125 0.359375 -0.796875 0.578125q-0.484375 0.203125 -1.09375 0.203125q-0.59375 0 -1.078125 -0.1875q-0.484375 -0.1875 -0.828125 -0.5625q-0.34375 -0.390625 -0.53125 -0.9375q-0.1875 -0.546875 -0.1875 -1.265625q0 -1.203125 0.296875 -2.203125q0.3125 -1.0 0.84375 -1.734375q0.546875 -0.75 1.28125 -1.203125q0.75 -0.46875 1.609375 -0.59375l0.203125 0.765625q-0.671875 0.125 -1.21875 0.46875q-0.546875 0.328125 -0.96875 0.828125q-0.40625 0.484375 -0.671875 1.09375q-0.265625 0.609375 -0.359375 1.265625q0.1875 -0.328125 0.640625 -0.59375q0.453125 -0.265625 1.109375 -0.265625q1.140625 0 1.78125 0.640625q0.640625 0.640625 0.640625 1.8125zm-1.0 0.09375q0 -0.84375 -0.40625 -1.28125q-0.390625 -0.4375 -1.21875 -0.4375q-0.578125 0 -1.015625 0.296875q-0.421875 0.28125 -0.578125 0.640625q-0.03125 0.171875 -0.03125 0.28125q0 0.109375 0 0.234375q0 0.375 0.09375 0.734375q0.109375 0.359375 0.328125 0.640625q0.21875 0.28125 0.53125 0.453125q0.3125 0.171875 0.75 0.171875q0.34375 0 0.625 -0.125q0.28125 -0.125 0.484375 -0.359375q0.21875 -0.234375 0.328125 -0.546875q0.109375 -0.328125 0.109375 -0.703125z" fill-rule="nonzero"/><path fill="#000000" d="m349.49524 25.116663l3.015625 -7.03125l0.53125 -0.59375l-0.703125 0.109375l-3.421875 0l0 -0.890625l5.015625 0l0 0.328125l-3.453125 8.078125l-0.984375 0z" fill-rule="nonzero"/><path fill="#000000" d="m394.54642 23.116663q0 -0.765625 0.390625 -1.3125q0.40625 -0.5625 1.25 -1.015625q-0.3125 -0.1875 -0.578125 -0.375q-0.25 -0.203125 -0.453125 -0.453125q-0.1875 -0.25 -0.296875 -0.5625q-0.109375 -0.3125 -0.109375 -0.71875q0 -0.46875 0.15625 -0.859375q0.15625 -0.390625 0.453125 -0.65625q0.3125 -0.28125 0.734375 -0.4375q0.4375 -0.15625 0.984375 -0.15625q0.5 0 0.90625 0.15625q0.40625 0.140625 0.6875 0.390625q0.28125 0.25 0.4375 0.59375q0.15625 0.34375 0.15625 0.765625q0 0.6875 -0.3125 1.21875q-0.3125 0.515625 -1.03125 1.015625q0.3125 0.1875 0.59375 0.40625q0.28125 0.203125 0.484375 0.46875q0.21875 0.265625 0.328125 0.59375q0.125 0.328125 0.125 0.75q0 0.515625 -0.171875 0.953125q-0.15625 0.421875 -0.484375 0.734375q-0.328125 0.296875 -0.796875 0.46875q-0.46875 0.171875 -1.0625 0.171875q-0.578125 0 -1.03125 -0.15625q-0.4375 -0.171875 -0.75 -0.453125q-0.296875 -0.296875 -0.453125 -0.6875q-0.15625 -0.390625 -0.15625 -0.84375zm3.96875 -0.125q0 -0.359375 -0.140625 -0.625q-0.140625 -0.28125 -0.375 -0.5q-0.234375 -0.21875 -0.53125 -0.390625q-0.296875 -0.1875 -0.625 -0.359375q-0.734375 0.40625 -1.046875 0.921875q-0.3125 0.5 -0.3125 0.953125q0 0.28125 0.09375 0.546875q0.09375 0.265625 0.28125 0.46875q0.203125 0.1875 0.484375 0.296875q0.28125 0.109375 0.65625 0.109375q0.296875 0 0.5625 -0.078125q0.28125 -0.09375 0.484375 -0.265625q0.21875 -0.171875 0.34375 -0.4375q0.125 -0.28125 0.125 -0.640625zm-2.84375 -4.34375q0 0.34375 0.125 0.609375q0.140625 0.25 0.359375 0.453125q0.234375 0.203125 0.515625 0.375q0.296875 0.171875 0.609375 0.328125q0.53125 -0.421875 0.78125 -0.828125q0.265625 -0.40625 0.265625 -0.90625q0 -0.609375 -0.375 -0.9375q-0.375 -0.328125 -0.90625 -0.328125q-0.328125 0 -0.578125 0.109375q-0.25 0.109375 -0.4375 0.28125q-0.171875 0.15625 -0.265625 0.390625q-0.09375 0.21875 -0.09375 0.453125z" fill-rule="nonzero"/><path fill="#000000" d="m439.9101 19.257288q0 -0.578125 0.15625 -1.0625q0.171875 -0.5 0.5 -0.859375q0.328125 -0.359375 0.8125 -0.5625q0.484375 -0.203125 1.140625 -0.203125q1.21875 0 1.890625 0.796875q0.6875 0.796875 0.6875 2.234375q0 1.359375 -0.3125 2.375q-0.296875 1.0 -0.84375 1.703125q-0.53125 0.6875 -1.265625 1.078125q-0.734375 0.390625 -1.609375 0.5l-0.203125 -0.765625q0.6875 -0.109375 1.25 -0.40625q0.5625 -0.296875 0.953125 -0.75q0.40625 -0.46875 0.65625 -1.046875q0.25 -0.578125 0.34375 -1.265625q-0.3125 0.390625 -0.703125 0.546875q-0.390625 0.140625 -1.03125 0.140625q-0.484375 0 -0.921875 -0.15625q-0.4375 -0.171875 -0.78125 -0.484375q-0.328125 -0.3125 -0.53125 -0.765625q-0.1875 -0.453125 -0.1875 -1.046875zm1.0 -0.09375q0 0.859375 0.4375 1.28125q0.453125 0.421875 1.1875 0.421875q0.59375 0 1.015625 -0.1875q0.421875 -0.1875 0.59375 -0.5q0.03125 -0.15625 0.03125 -0.28125q0 -0.125 0 -0.25q0 -0.4375 -0.109375 -0.828125q-0.09375 -0.40625 -0.3125 -0.71875q-0.203125 -0.328125 -0.53125 -0.5q-0.328125 -0.1875 -0.765625 -0.1875q-0.734375 0 -1.140625 0.46875q-0.40625 0.453125 -0.40625 1.28125z" fill-rule="nonzero"/><path fill="#000000" d="m482.86313 24.226038l1.671875 0l0 -5.8125l0.125 -0.703125l-0.484375 0.5625l-1.3125 0.953125l-0.453125 -0.609375l2.640625 -2.046875l0.421875 0l0 7.65625l1.65625 0l0 0.890625l-4.265625 0l0 -0.890625zm5.758789 -3.3125q0 -2.15625 0.703125 -3.25q0.703125 -1.09375 2.046875 -1.09375q1.453125 0 2.109375 1.078125q0.65625 1.078125 0.65625 3.265625q0 2.15625 -0.703125 3.25q-0.703125 1.09375 -2.0625 1.09375q-1.421875 0 -2.09375 -1.140625q-0.65625 -1.140625 -0.65625 -3.203125zm1.0 0q0 0.78125 0.09375 1.421875q0.109375 0.640625 0.3125 1.109375q0.21875 0.453125 0.546875 0.71875q0.34375 0.25 0.796875 0.25q0.90625 0 1.328125 -0.84375q0.4375 -0.84375 0.4375 -2.65625q0 -0.765625 -0.09375 -1.40625q-0.09375 -0.65625 -0.3125 -1.125q-0.203125 -0.46875 -0.546875 -0.71875q-0.328125 -0.25 -0.8125 -0.25q-0.90625 0 -1.328125 0.859375q-0.421875 0.84375 -0.421875 2.640625z" fill-rule="nonzero"/><path fill="#000000" d="m528.4143 24.226038l1.671875 0l0 -5.8125l0.125 -0.703125l-0.484375 0.5625l-1.3125 0.953125l-0.453125 -0.609375l2.640625 -2.046875l0.421875 0l0 7.65625l1.65625 0l0 0.890625l-4.265625 0l0 -0.890625zm6.540039 0l1.671875 0l0 -5.8125l0.125 -0.703125l-0.484375 0.5625l-1.3125 0.953125l-0.453125 -0.609375l2.640625 -2.046875l0.421875 0l0 7.65625l1.65625 0l0 0.890625l-4.265625 0l0 -0.890625z" fill-rule="nonzero"/><path fill="#000000" d="m573.9655 24.226038l1.671875 0l0 -5.8125l0.125 -0.703125l-0.484375 0.5625l-1.3125 0.953125l-0.453125 -0.609375l2.640625 -2.046875l0.421875 0l0 7.65625l1.65625 0l0 0.890625l-4.265625 0l0 -0.890625zm10.602539 -5.59375q0 0.625 -0.234375 1.296875q-0.234375 0.65625 -0.625 1.328125q-0.375 0.671875 -0.84375 1.328125q-0.46875 0.640625 -0.9375 1.21875l-0.578125 0.515625l0 0.046875l0.765625 -0.140625l2.609375 0l0 0.890625l-4.765625 0l0 -0.34375q0.265625 -0.28125 0.625 -0.6875q0.375 -0.40625 0.78125 -0.90625q0.40625 -0.5 0.796875 -1.046875q0.390625 -0.5625 0.703125 -1.140625q0.3125 -0.578125 0.5 -1.140625q0.203125 -0.5625 0.203125 -1.078125q0 -0.578125 -0.34375 -0.96875q-0.328125 -0.390625 -1.015625 -0.390625q-0.453125 0 -0.890625 0.1875q-0.421875 0.1875 -0.734375 0.421875l-0.40625 -0.6875q0.421875 -0.359375 1.0 -0.5625q0.578125 -0.203125 1.234375 -0.203125q0.515625 0 0.90625 0.15625q0.40625 0.140625 0.671875 0.421875q0.28125 0.28125 0.421875 0.65625q0.15625 0.375 0.15625 0.828125z" fill-rule="nonzero"/><path fill="#ffffff" d="m241.06752 33.758595l38.866135 0l0 12.566929l-38.866135 0z" fill-rule="evenodd"/><path fill="#000000" fill-opacity="0.0" d="m111.42519 145.41995l80.503944 3.464569" fill-rule="evenodd"/><path stroke="#000000" stroke-width="2.0" stroke-linejoin="round" stroke-linecap="butt" d="m118.998184 145.74586l60.942047 2.622696" fill-rule="evenodd"/><path fill="#000000" stroke="#000000" stroke-width="2.0" stroke-linecap="butt" d="m112.42427 145.46294c0.078125 -1.8153229 1.6130829 -3.2236176 3.4284134 -3.1454926c1.8153381 0.078125 3.2236252 1.6130829 3.1455002 3.428421c-0.078125 1.8153229 -1.6130753 3.2236176 -3.4284134 3.1454926c-1.8153381 -0.078125 -3.2236252 -1.6130829 -3.1455002 -3.428421z" fill-rule="nonzero"/><path fill="#000000" stroke="#000000" stroke-width="2.0" stroke-linecap="butt" d="m179.7982 151.66898l9.209824 -2.9101715l-8.925751 -3.6906586z" fill-rule="evenodd"/><path fill="#000000" fill-opacity="0.0" d="m260.50058 46.325523c0 43.1811 -25.370071 86.362206 -50.740143 86.362206" fill-rule="evenodd"/><path stroke="#000000" stroke-width="2.0" stroke-linejoin="round" stroke-linecap="butt" d="m260.2437 53.901165l-0.034240723 0.510273c-0.1920166 2.6882744 -0.4769287 5.3660088 -0.84854126 8.022659c-0.74328613 5.313301 -1.8334045 10.542259 -3.2208252 15.602547c-2.7748413 10.120567 -6.738922 19.566437 -11.495804 27.662895c-4.756897 8.096451 -10.306595 14.843498 -16.252716 19.566437c-1.4865265 1.1807327 -2.997818 2.2349548 -4.527725 3.1521301c-0.7649231 0.4586029 -1.5345306 0.8829193 -2.3079834 1.2716522l-0.1564331 0.07673645" fill-rule="evenodd"/><path fill="#000000" stroke="#000000" stroke-width="2.0" stroke-linecap="butt" d="m260.4667 47.324947c1.815979 0.061580658 3.2381897 1.5836372 3.1766052 3.3996086c-0.061584473 1.8159752 -1.5836487 3.2381897 -3.3995972 3.176609c-1.815979 -0.061580658 -3.2381897 -1.5836372 -3.1766052 -3.3996086c0.061553955 -1.8159752 1.5836182 -3.2381897 3.3995972 -3.176609z" fill-rule="nonzero"/><path fill="#000000" stroke="#000000" stroke-width="2.0" stroke-linecap="butt" d="m220.59526 126.56241l-7.9989777 5.413559l9.607346 0.99461365z" fill-rule="evenodd"/><path fill="#ffffff" d="m395.45145 149.98448c0 -6.334732 5.135315 -11.470047 11.470032 -11.470047l169.0914 0c3.0420532 0 5.9595337 1.2084503 8.110535 3.359497c2.151062 2.1510468 3.359497 5.0684967 3.359497 8.11055l0 45.8788c0 6.334732 -5.135315 11.470047 -11.470032 11.470047l-169.0914 0c-6.334717 0 -11.470032 -5.135315 -11.470032 -11.470047z" fill-rule="evenodd"/><path stroke="#000000" stroke-width="2.0" stroke-linejoin="round" stroke-linecap="butt" d="m395.45145 149.98448c0 -6.334732 5.135315 -11.470047 11.470032 -11.470047l169.0914 0c3.0420532 0 5.9595337 1.2084503 8.110535 3.359497c2.151062 2.1510468 3.359497 5.0684967 3.359497 8.11055l0 45.8788c0 6.334732 -5.135315 11.470047 -11.470032 11.470047l-169.0914 0c-6.334717 0 -11.470032 -5.135315 -11.470032 -11.470047z" fill-rule="evenodd"/><path fill="#000000" d="m410.46716 156.4595l-0.40625 0l0 2.484375l-1.5625 0l0 -8.40625l1.5625 0l0 4.96875l0.359375 -0.171875l1.359375 -2.390625l1.71875 0l-1.4375 2.28125l-0.609375 0.453125l0.65625 0.46875l1.625 2.796875l-1.796875 0l-1.46875 -2.484375zm8.576172 1.96875q-0.359375 0.28125 -0.984375 0.484375q-0.609375 0.203125 -1.3125 0.203125q-1.453125 0 -2.125 -0.84375q-0.671875 -0.859375 -0.671875 -2.328125q0 -1.578125 0.75 -2.375q0.765625 -0.796875 2.140625 -0.796875q0.453125 0 0.875 0.125q0.4375 0.125 0.765625 0.40625q0.34375 0.265625 0.546875 0.734375q0.203125 0.46875 0.203125 1.15625q0 0.265625 -0.03125 0.546875q-0.03125 0.28125 -0.078125 0.59375l-3.609375 0q0.03125 0.765625 0.390625 1.15625q0.359375 0.375 1.140625 0.375q0.5 0 0.890625 -0.140625q0.390625 -0.15625 0.59375 -0.3125l0.515625 1.015625zm-2.234375 -4.40625q-0.609375 0 -0.90625 0.375q-0.296875 0.359375 -0.359375 0.96875l2.234375 0q0.046875 -0.640625 -0.203125 -0.984375q-0.234375 -0.359375 -0.765625 -0.359375zm5.5530396 2.296875l0.203125 0.9375l0.078125 0l0.15625 -0.953125l0.90625 -3.359375l1.609375 0l-1.8125 5.40625q-0.234375 0.671875 -0.453125 1.234375q-0.203125 0.5625 -0.453125 0.96875q-0.25 0.40625 -0.5625 0.625q-0.296875 0.21875 -0.71875 0.21875q-0.625 0 -1.0 -0.203125l0.28125 -1.234375q0.1875 0.0625 0.359375 0.0625q0.28125 0 0.53125 -0.234375q0.265625 -0.234375 0.40625 -0.84375l-2.515625 -6.0l1.875 0l1.109375 3.375z" fill-rule="nonzero"/><path fill="#000000" d="m460.82654 158.55325q-0.359375 0.265625 -0.859375 0.390625q-0.484375 0.140625 -1.03125 0.140625q-0.6875 0 -1.171875 -0.21875q-0.484375 -0.21875 -0.796875 -0.625q-0.296875 -0.421875 -0.4375 -1.0q-0.125 -0.59375 -0.125 -1.296875q0 -1.53125 0.671875 -2.328125q0.671875 -0.8125 1.921875 -0.8125q0.578125 0 0.984375 0.09375q0.40625 0.078125 0.71875 0.25l-0.265625 0.828125q-0.28125 -0.15625 -0.625 -0.234375q-0.328125 -0.09375 -0.71875 -0.09375q-1.703125 0 -1.703125 2.296875q0 0.453125 0.09375 0.875q0.09375 0.40625 0.296875 0.734375q0.21875 0.3125 0.5625 0.5q0.34375 0.1875 0.84375 0.1875q0.421875 0 0.765625 -0.125q0.34375 -0.125 0.5625 -0.296875l0.3125 0.734375zm5.177643 0.390625l0 -3.421875q0 -0.46875 -0.0625 -0.8125q-0.046875 -0.359375 -0.203125 -0.59375q-0.140625 -0.234375 -0.390625 -0.34375q-0.234375 -0.125 -0.640625 -0.125q-0.5625 0 -1.015625 0.359375q-0.453125 0.359375 -0.578125 0.9375l0 4.0l-0.96875 0l0 -8.40625l0.96875 0l0 3.078125l0.046875 0q0.3125 -0.375 0.75 -0.59375q0.4375 -0.21875 1.078125 -0.21875q0.5 0 0.875 0.109375q0.375 0.109375 0.625 0.40625q0.25 0.28125 0.359375 0.765625q0.109375 0.484375 0.109375 1.234375l0 3.625l-0.953125 0zm2.6109314 -5.5625q0.453125 -0.265625 1.0625 -0.390625q0.609375 -0.140625 1.265625 -0.140625q0.625 0 1.0 0.171875q0.375 0.15625 0.578125 0.4375q0.203125 0.265625 0.265625 0.59375q0.0625 0.3125 0.0625 0.640625q0 0.71875 -0.046875 1.40625q-0.03125 0.6875 -0.03125 1.296875q0 0.4375 0.03125 0.84375q0.046875 0.390625 0.140625 0.734375l-0.703125 0l-0.25 -0.84375l-0.0625 0q-0.109375 0.171875 -0.28125 0.328125q-0.15625 0.15625 -0.390625 0.28125q-0.21875 0.125 -0.515625 0.203125q-0.296875 0.09375 -0.6875 0.09375q-0.375 0 -0.71875 -0.109375q-0.328125 -0.125 -0.5625 -0.34375q-0.234375 -0.234375 -0.375 -0.546875q-0.140625 -0.3125 -0.140625 -0.703125q0 -0.53125 0.21875 -0.875q0.21875 -0.359375 0.609375 -0.5625q0.390625 -0.21875 0.921875 -0.296875q0.546875 -0.09375 1.21875 -0.09375q0.15625 0 0.3125 0q0.171875 0 0.34375 0.015625q0.03125 -0.359375 0.03125 -0.640625q0 -0.671875 -0.265625 -0.921875q-0.265625 -0.265625 -0.953125 -0.265625q-0.203125 0 -0.4375 0.03125q-0.234375 0.015625 -0.484375 0.078125q-0.25 0.046875 -0.46875 0.125q-0.21875 0.078125 -0.390625 0.171875l-0.296875 -0.71875zm1.703125 4.8125q0.34375 0 0.59375 -0.078125q0.265625 -0.09375 0.453125 -0.234375q0.203125 -0.140625 0.328125 -0.296875q0.125 -0.171875 0.1875 -0.328125l0 -1.0q-0.171875 -0.015625 -0.34375 -0.015625q-0.171875 -0.015625 -0.34375 -0.015625q-0.375 0 -0.734375 0.046875q-0.34375 0.046875 -0.625 0.15625q-0.265625 0.109375 -0.421875 0.3125q-0.15625 0.203125 -0.15625 0.5q0 0.421875 0.296875 0.6875q0.296875 0.265625 0.765625 0.265625zm7.1707764 -4.328125q-0.359375 -0.125 -0.671875 -0.125q-0.515625 0 -0.828125 0.296875q-0.296875 0.28125 -0.359375 0.703125l0 4.203125l-0.96875 0l0 -6.0l0.671875 0l0.1875 0.734375l0.046875 0q0.21875 -0.40625 0.53125 -0.625q0.328125 -0.234375 0.828125 -0.234375q0.34375 0 0.765625 0.125l-0.203125 0.921875zm2.3144226 3.609375q0 0.40625 0.140625 0.59375q0.15625 0.171875 0.421875 0.171875q0.15625 0 0.328125 -0.015625q0.1875 -0.03125 0.40625 -0.109375l0.109375 0.75q-0.1875 0.109375 -0.53125 0.15625q-0.34375 0.0625 -0.59375 0.0625q-0.53125 0 -0.890625 -0.296875q-0.34375 -0.3125 -0.34375 -1.046875l0 -7.203125l0.953125 0l0 6.9375zm2.6446533 -4.53125l0.96875 0l0 6.0l-0.96875 0l0 -6.0zm-0.203125 -1.828125q0 -0.265625 0.1875 -0.46875q0.1875 -0.203125 0.46875 -0.203125q0.296875 0 0.5 0.203125q0.203125 0.203125 0.203125 0.46875q0 0.28125 -0.203125 0.46875q-0.203125 0.171875 -0.5 0.171875q-0.28125 0 -0.46875 -0.171875q-0.1875 -0.1875 -0.1875 -0.46875zm7.5910034 7.34375q-0.359375 0.296875 -0.90625 0.46875q-0.53125 0.15625 -1.15625 0.15625q-0.671875 0 -1.1875 -0.21875q-0.5 -0.21875 -0.828125 -0.625q-0.3125 -0.421875 -0.46875 -1.0q-0.15625 -0.578125 -0.15625 -1.296875q0 -1.53125 0.671875 -2.328125q0.6875 -0.8125 1.96875 -0.8125q0.40625 0 0.8125 0.09375q0.40625 0.078125 0.71875 0.34375q0.328125 0.25 0.53125 0.71875q0.21875 0.453125 0.21875 1.203125q0 0.390625 -0.078125 0.875l-3.859375 0q0 0.53125 0.109375 0.9375q0.109375 0.40625 0.328125 0.6875q0.234375 0.28125 0.59375 0.4375q0.375 0.140625 0.90625 0.140625q0.40625 0 0.8125 -0.140625q0.40625 -0.140625 0.609375 -0.328125l0.359375 0.6875zm-2.0625 -4.8125q-0.703125 0 -1.125 0.375q-0.421875 0.359375 -0.515625 1.265625l2.984375 0q0 -0.921875 -0.359375 -1.28125q-0.34375 -0.359375 -0.984375 -0.359375zm11.346039 -0.59375l0.40625 0l-0.609375 3.4375q-0.0625 0.3125 -0.09375 0.5625q-0.03125 0.25 -0.03125 0.4375q0 0.296875 0.09375 0.4375q0.109375 0.140625 0.359375 0.140625q0.421875 0 0.8125 -0.21875q0.40625 -0.21875 0.71875 -0.609375q0.3125 -0.390625 0.5 -0.953125q0.203125 -0.5625 0.203125 -1.25q0 -0.9375 -0.3125 -1.640625q-0.3125 -0.703125 -0.875 -1.1875q-0.5625 -0.484375 -1.34375 -0.734375q-0.78125 -0.265625 -1.71875 -0.265625q-0.96875 0 -1.828125 0.359375q-0.859375 0.359375 -1.484375 1.0q-0.625 0.640625 -1.0 1.53125q-0.359375 0.890625 -0.359375 1.921875q0 1.078125 0.328125 1.921875q0.328125 0.828125 0.9375 1.40625q0.609375 0.578125 1.46875 0.875q0.859375 0.296875 1.890625 0.296875q0.359375 0 0.796875 -0.078125q0.4375 -0.078125 0.796875 -0.25l0.25 0.765625q-0.546875 0.234375 -1.0 0.3125q-0.453125 0.078125 -0.984375 0.078125q-1.109375 0 -2.09375 -0.34375q-0.96875 -0.328125 -1.703125 -1.0q-0.71875 -0.65625 -1.140625 -1.625q-0.421875 -0.984375 -0.421875 -2.265625q0 -1.3125 0.4375 -2.359375q0.453125 -1.0625 1.21875 -1.796875q0.78125 -0.75 1.796875 -1.15625q1.015625 -0.40625 2.15625 -0.40625q1.078125 0 2.0 0.328125q0.9375 0.3125 1.609375 0.90625q0.671875 0.59375 1.0625 1.453125q0.390625 0.859375 0.390625 1.953125q0 0.765625 -0.265625 1.46875q-0.25 0.703125 -0.703125 1.234375q-0.453125 0.515625 -1.0625 0.84375q-0.59375 0.3125 -1.265625 0.3125q-0.5 0 -0.8125 -0.21875q-0.296875 -0.21875 -0.296875 -0.796875q0 -0.109375 0.015625 -0.234375q0.015625 -0.125 0.046875 -0.28125l-0.0625 0q-0.15625 0.28125 -0.390625 0.5625q-0.21875 0.265625 -0.515625 0.484375q-0.28125 0.203125 -0.59375 0.34375q-0.3125 0.140625 -0.671875 0.140625q-0.28125 0 -0.546875 -0.125q-0.265625 -0.125 -0.453125 -0.359375q-0.1875 -0.25 -0.3125 -0.578125q-0.109375 -0.328125 -0.109375 -0.75q0 -0.765625 0.25 -1.5q0.25 -0.75 0.671875 -1.328125q0.4375 -0.578125 1.0 -0.921875q0.578125 -0.359375 1.21875 -0.359375q0.4375 0 0.703125 0.125q0.265625 0.125 0.515625 0.328125l0.40625 -0.375zm-0.6875 1.171875q-0.203125 -0.234375 -0.40625 -0.328125q-0.203125 -0.09375 -0.515625 -0.09375q-0.46875 0 -0.875 0.28125q-0.40625 0.28125 -0.703125 0.734375q-0.296875 0.453125 -0.46875 1.015625q-0.171875 0.546875 -0.171875 1.09375q0 0.46875 0.1875 0.796875q0.203125 0.328125 0.703125 0.328125q0.234375 0 0.484375 -0.15625q0.265625 -0.15625 0.515625 -0.421875q0.25 -0.265625 0.484375 -0.59375q0.234375 -0.34375 0.40625 -0.703125l0.359375 -1.953125zm10.268097 4.234375q-0.359375 0.296875 -0.90625 0.46875q-0.53125 0.15625 -1.15625 0.15625q-0.671875 0 -1.1875 -0.21875q-0.5 -0.21875 -0.828125 -0.625q-0.3125 -0.421875 -0.46875 -1.0q-0.15625 -0.578125 -0.15625 -1.296875q0 -1.53125 0.671875 -2.328125q0.6875 -0.8125 1.96875 -0.8125q0.40625 0 0.8125 0.09375q0.40625 0.078125 0.71875 0.34375q0.328125 0.25 0.53125 0.71875q0.21875 0.453125 0.21875 1.203125q0 0.390625 -0.078125 0.875l-3.859375 0q0 0.53125 0.109375 0.9375q0.109375 0.40625 0.328125 0.6875q0.234375 0.28125 0.59375 0.4375q0.375 0.140625 0.90625 0.140625q0.40625 0 0.8125 -0.140625q0.40625 -0.140625 0.609375 -0.328125l0.359375 0.6875zm-2.0625 -4.8125q-0.703125 0 -1.125 0.375q-0.421875 0.359375 -0.515625 1.265625l2.984375 0q0 -0.921875 -0.359375 -1.28125q-0.34375 -0.359375 -0.984375 -0.359375zm5.085663 2.21875l-2.015625 -2.921875l1.171875 0l1.140625 1.65625l0.328125 0.6875l0.359375 -0.6875l1.15625 -1.65625l1.078125 0l-2.015625 2.875l2.140625 3.125l-1.140625 0l-1.265625 -1.828125l-0.359375 -0.71875l-0.375 0.71875l-1.296875 1.828125l-1.0625 0l2.15625 -3.078125zm4.5081787 -2.484375q0.453125 -0.265625 1.0625 -0.390625q0.609375 -0.140625 1.265625 -0.140625q0.625 0 1.0 0.171875q0.375 0.15625 0.578125 0.4375q0.203125 0.265625 0.265625 0.59375q0.0625 0.3125 0.0625 0.640625q0 0.71875 -0.046875 1.40625q-0.03125 0.6875 -0.03125 1.296875q0 0.4375 0.03125 0.84375q0.046875 0.390625 0.140625 0.734375l-0.703125 0l-0.25 -0.84375l-0.0625 0q-0.109375 0.171875 -0.28125 0.328125q-0.15625 0.15625 -0.390625 0.28125q-0.21875 0.125 -0.515625 0.203125q-0.296875 0.09375 -0.6875 0.09375q-0.375 0 -0.71875 -0.109375q-0.328125 -0.125 -0.5625 -0.34375q-0.234375 -0.234375 -0.375 -0.546875q-0.140625 -0.3125 -0.140625 -0.703125q0 -0.53125 0.21875 -0.875q0.21875 -0.359375 0.609375 -0.5625q0.390625 -0.21875 0.921875 -0.296875q0.546875 -0.09375 1.21875 -0.09375q0.15625 0 0.3125 0q0.171875 0 0.34375 0.015625q0.03125 -0.359375 0.03125 -0.640625q0 -0.671875 -0.265625 -0.921875q-0.265625 -0.265625 -0.953125 -0.265625q-0.203125 0 -0.4375 0.03125q-0.234375 0.015625 -0.484375 0.078125q-0.25 0.046875 -0.46875 0.125q-0.21875 0.078125 -0.390625 0.171875l-0.296875 -0.71875zm1.703125 4.8125q0.34375 0 0.59375 -0.078125q0.265625 -0.09375 0.453125 -0.234375q0.203125 -0.140625 0.328125 -0.296875q0.125 -0.171875 0.1875 -0.328125l0 -1.0q-0.171875 -0.015625 -0.34375 -0.015625q-0.171875 -0.015625 -0.34375 -0.015625q-0.375 0 -0.734375 0.046875q-0.34375 0.046875 -0.625 0.15625q-0.265625 0.109375 -0.421875 0.3125q-0.15625 0.203125 -0.15625 0.5q0 0.421875 0.296875 0.6875q0.296875 0.265625 0.765625 0.265625zm7.8582764 0.75l0 -3.390625q0 -0.484375 -0.046875 -0.828125q-0.03125 -0.359375 -0.15625 -0.59375q-0.125 -0.25 -0.34375 -0.359375q-0.21875 -0.125 -0.578125 -0.125q-0.546875 0 -0.921875 0.34375q-0.359375 0.328125 -0.5 0.828125l0 4.125l-0.96875 0l0 -6.0l0.671875 0l0.1875 0.734375l0.046875 0q0.3125 -0.390625 0.734375 -0.625q0.4375 -0.25 1.125 -0.25q0.578125 0 0.9375 0.21875q0.359375 0.21875 0.578125 0.78125q0.265625 -0.46875 0.75 -0.734375q0.484375 -0.265625 1.109375 -0.265625q0.5 0 0.84375 0.109375q0.34375 0.109375 0.578125 0.40625q0.234375 0.28125 0.328125 0.78125q0.109375 0.484375 0.109375 1.25l0 3.59375l-0.96875 0l0 -3.609375q0 -0.4375 -0.046875 -0.75q-0.03125 -0.328125 -0.15625 -0.53125q-0.125 -0.203125 -0.359375 -0.296875q-0.21875 -0.109375 -0.578125 -0.109375q-0.59375 0 -0.9375 0.34375q-0.328125 0.328125 -0.46875 0.9375l0 4.015625l-0.96875 0zm6.2284546 -6.0l0.65625 0l0.1875 0.71875l0.046875 0q0.28125 -0.421875 0.71875 -0.640625q0.4375 -0.21875 1.0 -0.21875q1.203125 0 1.78125 0.703125q0.59375 0.703125 0.59375 2.3125q0 0.765625 -0.203125 1.375q-0.1875 0.59375 -0.5625 1.015625q-0.359375 0.421875 -0.875 0.65625q-0.5 0.21875 -1.125 0.21875q-0.4375 0 -0.703125 -0.0625q-0.25 -0.046875 -0.546875 -0.171875l0 2.5l-0.96875 0l0 -8.40625zm2.421875 0.703125q-0.609375 0 -0.96875 0.3125q-0.34375 0.3125 -0.484375 0.96875l0 2.96875q0.203125 0.171875 0.484375 0.265625q0.28125 0.078125 0.734375 0.078125q0.828125 0 1.3125 -0.609375q0.484375 -0.625 0.484375 -1.8125q0 -0.5 -0.09375 -0.890625q-0.078125 -0.40625 -0.265625 -0.6875q-0.171875 -0.28125 -0.46875 -0.4375q-0.296875 -0.15625 -0.734375 -0.15625zm5.1326904 3.828125q0 0.40625 0.140625 0.59375q0.15625 0.171875 0.421875 0.171875q0.15625 0 0.328125 -0.015625q0.1875 -0.03125 0.40625 -0.109375l0.109375 0.75q-0.1875 0.109375 -0.53125 0.15625q-0.34375 0.0625 -0.59375 0.0625q-0.53125 0 -0.890625 -0.296875q-0.34375 -0.3125 -0.34375 -1.046875l0 -7.203125l0.953125 0l0 6.9375zm6.8165283 0.984375q-0.359375 0.296875 -0.90625 0.46875q-0.53125 0.15625 -1.15625 0.15625q-0.671875 0 -1.1875 -0.21875q-0.5 -0.21875 -0.828125 -0.625q-0.3125 -0.421875 -0.46875 -1.0q-0.15625 -0.578125 -0.15625 -1.296875q0 -1.53125 0.671875 -2.328125q0.6875 -0.8125 1.96875 -0.8125q0.40625 0 0.8125 0.09375q0.40625 0.078125 0.71875 0.34375q0.328125 0.25 0.53125 0.71875q0.21875 0.453125 0.21875 1.203125q0 0.390625 -0.078125 0.875l-3.859375 0q0 0.53125 0.109375 0.9375q0.109375 0.40625 0.328125 0.6875q0.234375 0.28125 0.59375 0.4375q0.375 0.140625 0.90625 0.140625q0.40625 0 0.8125 -0.140625q0.40625 -0.140625 0.609375 -0.328125l0.359375 0.6875zm-2.0625 -4.8125q-0.703125 0 -1.125 0.375q-0.421875 0.359375 -0.515625 1.265625l2.984375 0q0 -0.921875 -0.359375 -1.28125q-0.34375 -0.359375 -0.984375 -0.359375zm3.4553833 4.75q0 -0.328125 0.171875 -0.515625q0.1875 -0.1875 0.5 -0.1875q0.328125 0 0.515625 0.1875q0.203125 0.1875 0.203125 0.515625q0 0.3125 -0.203125 0.5q-0.1875 0.1875 -0.515625 0.1875q-0.3125 0 -0.5 -0.1875q-0.171875 -0.1875 -0.171875 -0.5zm6.989929 0.15625q-0.359375 0.265625 -0.859375 0.390625q-0.484375 0.140625 -1.03125 0.140625q-0.6875 0 -1.171875 -0.21875q-0.484375 -0.21875 -0.796875 -0.625q-0.296875 -0.421875 -0.4375 -1.0q-0.125 -0.59375 -0.125 -1.296875q0 -1.53125 0.671875 -2.328125q0.671875 -0.8125 1.921875 -0.8125q0.578125 0 0.984375 0.09375q0.40625 0.078125 0.71875 0.25l-0.265625 0.828125q-0.28125 -0.15625 -0.625 -0.234375q-0.328125 -0.09375 -0.71875 -0.09375q-1.703125 0 -1.703125 2.296875q0 0.453125 0.09375 0.875q0.09375 0.40625 0.296875 0.734375q0.21875 0.3125 0.5625 0.5q0.34375 0.1875 0.84375 0.1875q0.421875 0 0.765625 -0.125q0.34375 -0.125 0.5625 -0.296875l0.3125 0.734375zm0.7141113 -2.609375q0 -1.53125 0.671875 -2.328125q0.671875 -0.8125 1.953125 -0.8125q0.671875 0 1.171875 0.21875q0.5 0.21875 0.8125 0.640625q0.328125 0.40625 0.484375 1.0q0.15625 0.578125 0.15625 1.28125q0 1.53125 -0.6875 2.34375q-0.671875 0.796875 -1.9375 0.796875q-0.671875 0 -1.171875 -0.21875q-0.5 -0.21875 -0.828125 -0.625q-0.3125 -0.421875 -0.46875 -1.0q-0.15625 -0.59375 -0.15625 -1.296875zm0.984375 0q0 0.453125 0.09375 0.875q0.09375 0.421875 0.28125 0.734375q0.1875 0.3125 0.5 0.5q0.3125 0.1875 0.765625 0.1875q1.625 0.015625 1.625 -2.296875q0 -0.46875 -0.09375 -0.890625q-0.078125 -0.421875 -0.28125 -0.734375q-0.1875 -0.3125 -0.5 -0.484375q-0.3125 -0.1875 -0.75 -0.1875q-1.640625 -0.015625 -1.640625 2.296875zm9.291443 3.0l0 -3.390625q0 -0.484375 -0.046875 -0.828125q-0.03125 -0.359375 -0.15625 -0.59375q-0.125 -0.25 -0.34375 -0.359375q-0.21875 -0.125 -0.578125 -0.125q-0.546875 0 -0.921875 0.34375q-0.359375 0.328125 -0.5 0.828125l0 4.125l-0.96875 0l0 -6.0l0.671875 0l0.1875 0.734375l0.046875 0q0.3125 -0.390625 0.734375 -0.625q0.4375 -0.25 1.125 -0.25q0.578125 0 0.9375 0.21875q0.359375 0.21875 0.578125 0.78125q0.265625 -0.46875 0.75 -0.734375q0.484375 -0.265625 1.109375 -0.265625q0.5 0 0.84375 0.109375q0.34375 0.109375 0.578125 0.40625q0.234375 0.28125 0.328125 0.78125q0.109375 0.484375 0.109375 1.25l0 3.59375l-0.96875 0l0 -3.609375q0 -0.4375 -0.046875 -0.75q-0.03125 -0.328125 -0.15625 -0.53125q-0.125 -0.203125 -0.359375 -0.296875q-0.21875 -0.109375 -0.578125 -0.109375q-0.59375 0 -0.9375 0.34375q-0.328125 0.328125 -0.46875 0.9375l0 4.015625l-0.96875 0z" fill-rule="nonzero"/><path fill="#000000" d="m410.57654 173.0845l0.203125 0.921875l0.0625 0l0.15625 -0.9375l1.03125 -3.125l1.671875 0l-2.5 6.0625l-0.953125 0l-2.609375 -6.0625l1.8125 0l1.125 3.140625zm3.5990295 -2.796875q0.484375 -0.21875 1.140625 -0.34375q0.671875 -0.125 1.390625 -0.125q0.625 0 1.03125 0.15625q0.421875 0.15625 0.671875 0.4375q0.25 0.265625 0.34375 0.65625q0.109375 0.375 0.109375 0.859375q0 0.53125 -0.046875 1.0625q-0.03125 0.53125 -0.03125 1.046875q0 0.515625 0.03125 1.0q0.03125 0.484375 0.171875 0.921875l-1.265625 0l-0.25 -0.828125l-0.0625 0q-0.234375 0.375 -0.671875 0.640625q-0.421875 0.265625 -1.09375 0.265625q-0.421875 0 -0.765625 -0.125q-0.328125 -0.125 -0.5625 -0.359375q-0.234375 -0.234375 -0.375 -0.546875q-0.125 -0.328125 -0.125 -0.71875q0 -0.546875 0.234375 -0.921875q0.25 -0.390625 0.703125 -0.625q0.46875 -0.234375 1.109375 -0.3125q0.640625 -0.09375 1.4375 -0.0625q0.09375 -0.671875 -0.09375 -0.96875q-0.1875 -0.296875 -0.796875 -0.296875q-0.46875 0 -1.0 0.109375q-0.515625 0.09375 -0.859375 0.25l-0.375 -1.171875zm1.984375 4.46875q0.46875 0 0.734375 -0.203125q0.28125 -0.21875 0.421875 -0.453125l0 -0.78125q-0.375 -0.03125 -0.71875 0q-0.34375 0.015625 -0.609375 0.09375q-0.25 0.078125 -0.40625 0.234375q-0.15625 0.15625 -0.15625 0.40625q0 0.328125 0.1875 0.515625q0.203125 0.1875 0.546875 0.1875zm5.623932 -0.828125q0 0.421875 0.109375 0.609375q0.109375 0.1875 0.34375 0.1875q0.140625 0 0.28125 -0.015625q0.140625 -0.03125 0.34375 -0.109375l0.171875 1.21875q-0.203125 0.09375 -0.59375 0.1875q-0.390625 0.109375 -0.8125 0.109375q-0.6875 0 -1.046875 -0.3125q-0.359375 -0.328125 -0.359375 -1.0625l0 -7.203125l1.5625 0l0 6.390625zm3.4186401 -3.984375l0 3.40625q0 0.734375 0.171875 1.0625q0.171875 0.3125 0.671875 0.3125q0.453125 0 0.734375 -0.25q0.296875 -0.265625 0.453125 -0.65625l0 -3.875l1.546875 0l0 4.171875q0 0.5 0.046875 0.96875q0.0625 0.46875 0.15625 0.859375l-1.1875 0l-0.265625 -0.890625l-0.046875 0q-0.28125 0.453125 -0.78125 0.765625q-0.484375 0.296875 -1.15625 0.296875q-0.453125 0 -0.8125 -0.125q-0.359375 -0.125 -0.609375 -0.390625q-0.234375 -0.28125 -0.359375 -0.75q-0.125 -0.46875 -0.125 -1.171875l0 -3.734375l1.5625 0zm9.75293 5.484375q-0.359375 0.28125 -0.984375 0.484375q-0.609375 0.203125 -1.3125 0.203125q-1.453125 0 -2.125 -0.84375q-0.671875 -0.859375 -0.671875 -2.328125q0 -1.578125 0.75 -2.375q0.765625 -0.796875 2.140625 -0.796875q0.453125 0 0.875 0.125q0.4375 0.125 0.765625 0.40625q0.34375 0.265625 0.546875 0.734375q0.203125 0.46875 0.203125 1.15625q0 0.265625 -0.03125 0.546875q-0.03125 0.28125 -0.078125 0.59375l-3.609375 0q0.03125 0.765625 0.390625 1.15625q0.359375 0.375 1.140625 0.375q0.5 0 0.890625 -0.140625q0.390625 -0.15625 0.59375 -0.3125l0.515625 1.015625zm-2.234375 -4.40625q-0.609375 0 -0.90625 0.375q-0.296875 0.359375 -0.359375 0.96875l2.234375 0q0.046875 -0.640625 -0.203125 -0.984375q-0.234375 -0.359375 -0.765625 -0.359375z" fill-rule="nonzero"/><path fill="#000000" d="m462.20154 175.60013q-0.359375 0.265625 -0.90625 0.375q-0.546875 0.109375 -1.171875 0.109375q-0.765625 0 -1.421875 -0.25q-0.65625 -0.265625 -1.15625 -0.78125q-0.484375 -0.53125 -0.78125 -1.359375q-0.28125 -0.828125 -0.28125 -1.953125q0 -1.171875 0.3125 -1.984375q0.328125 -0.828125 0.84375 -1.34375q0.53125 -0.53125 1.171875 -0.765625q0.640625 -0.25 1.3125 -0.25q0.734375 0 1.1875 0.078125q0.453125 0.078125 0.78125 0.21875l-0.25 0.875q-0.578125 -0.28125 -1.640625 -0.28125q-0.484375 0 -0.96875 0.1875q-0.484375 0.171875 -0.859375 0.578125q-0.375 0.40625 -0.609375 1.078125q-0.21875 0.65625 -0.21875 1.609375q0 0.859375 0.203125 1.515625q0.21875 0.640625 0.59375 1.078125q0.390625 0.4375 0.890625 0.65625q0.515625 0.203125 1.109375 0.203125q0.546875 0 0.9375 -0.09375q0.40625 -0.109375 0.6875 -0.28125l0.234375 0.78125zm5.242676 0.34375l0 -3.421875q0 -0.46875 -0.0625 -0.8125q-0.046875 -0.359375 -0.203125 -0.59375q-0.140625 -0.234375 -0.390625 -0.34375q-0.234375 -0.125 -0.640625 -0.125q-0.5625 0 -1.015625 0.359375q-0.453125 0.359375 -0.578125 0.9375l0 4.0l-0.96875 0l0 -8.40625l0.96875 0l0 3.078125l0.046875 0q0.3125 -0.375 0.75 -0.59375q0.4375 -0.21875 1.078125 -0.21875q0.5 0 0.875 0.109375q0.375 0.109375 0.625 0.40625q0.25 0.28125 0.359375 0.765625q0.109375 0.484375 0.109375 1.234375l0 3.625l-0.953125 0zm2.6109009 -5.5625q0.453125 -0.265625 1.0625 -0.390625q0.609375 -0.140625 1.265625 -0.140625q0.625 0 1.0 0.171875q0.375 0.15625 0.578125 0.4375q0.203125 0.265625 0.265625 0.59375q0.0625 0.3125 0.0625 0.640625q0 0.71875 -0.046875 1.40625q-0.03125 0.6875 -0.03125 1.296875q0 0.4375 0.03125 0.84375q0.046875 0.390625 0.140625 0.734375l-0.703125 0l-0.25 -0.84375l-0.0625 0q-0.109375 0.171875 -0.28125 0.328125q-0.15625 0.15625 -0.390625 0.28125q-0.21875 0.125 -0.515625 0.203125q-0.296875 0.09375 -0.6875 0.09375q-0.375 0 -0.71875 -0.109375q-0.328125 -0.125 -0.5625 -0.34375q-0.234375 -0.234375 -0.375 -0.546875q-0.140625 -0.3125 -0.140625 -0.703125q0 -0.53125 0.21875 -0.875q0.21875 -0.359375 0.609375 -0.5625q0.390625 -0.21875 0.921875 -0.296875q0.546875 -0.09375 1.21875 -0.09375q0.15625 0 0.3125 0q0.171875 0 0.34375 0.015625q0.03125 -0.359375 0.03125 -0.640625q0 -0.671875 -0.265625 -0.921875q-0.265625 -0.265625 -0.953125 -0.265625q-0.203125 0 -0.4375 0.03125q-0.234375 0.015625 -0.484375 0.078125q-0.25 0.046875 -0.46875 0.125q-0.21875 0.078125 -0.390625 0.171875l-0.296875 -0.71875zm1.703125 4.8125q0.34375 0 0.59375 -0.078125q0.265625 -0.09375 0.453125 -0.234375q0.203125 -0.140625 0.328125 -0.296875q0.125 -0.171875 0.1875 -0.328125l0 -1.0q-0.171875 -0.015625 -0.34375 -0.015625q-0.171875 -0.015625 -0.34375 -0.015625q-0.375 0 -0.734375 0.046875q-0.34375 0.046875 -0.625 0.15625q-0.265625 0.109375 -0.421875 0.3125q-0.15625 0.203125 -0.15625 0.5q0 0.421875 0.296875 0.6875q0.296875 0.265625 0.765625 0.265625zm7.170807 -4.328125q-0.359375 -0.125 -0.671875 -0.125q-0.515625 0 -0.828125 0.296875q-0.296875 0.28125 -0.359375 0.703125l0 4.203125l-0.96875 0l0 -6.0l0.671875 0l0.1875 0.734375l0.046875 0q0.21875 -0.40625 0.53125 -0.625q0.328125 -0.234375 0.828125 -0.234375q0.34375 0 0.765625 0.125l-0.203125 0.921875zm2.314392 3.609375q0 0.40625 0.140625 0.59375q0.15625 0.171875 0.421875 0.171875q0.15625 0 0.328125 -0.015625q0.1875 -0.03125 0.40625 -0.109375l0.109375 0.75q-0.1875 0.109375 -0.53125 0.15625q-0.34375 0.0625 -0.59375 0.0625q-0.53125 0 -0.890625 -0.296875q-0.34375 -0.3125 -0.34375 -1.046875l0 -7.203125l0.953125 0l0 6.9375zm2.6446533 -4.53125l0.96875 0l0 6.0l-0.96875 0l0 -6.0zm-0.203125 -1.828125q0 -0.265625 0.1875 -0.46875q0.1875 -0.203125 0.46875 -0.203125q0.296875 0 0.5 0.203125q0.203125 0.203125 0.203125 0.46875q0 0.28125 -0.203125 0.46875q-0.203125 0.171875 -0.5 0.171875q-0.28125 0 -0.46875 -0.171875q-0.1875 -0.1875 -0.1875 -0.46875zm7.591034 7.34375q-0.359375 0.296875 -0.90625 0.46875q-0.53125 0.15625 -1.15625 0.15625q-0.671875 0 -1.1875 -0.21875q-0.5 -0.21875 -0.828125 -0.625q-0.3125 -0.421875 -0.46875 -1.0q-0.15625 -0.578125 -0.15625 -1.296875q0 -1.53125 0.671875 -2.328125q0.6875 -0.8125 1.96875 -0.8125q0.40625 0 0.8125 0.09375q0.40625 0.078125 0.71875 0.34375q0.328125 0.25 0.53125 0.71875q0.21875 0.453125 0.21875 1.203125q0 0.390625 -0.078125 0.875l-3.859375 0q0 0.53125 0.109375 0.9375q0.109375 0.40625 0.328125 0.6875q0.234375 0.28125 0.59375 0.4375q0.375 0.140625 0.90625 0.140625q0.40625 0 0.8125 -0.140625q0.40625 -0.140625 0.609375 -0.328125l0.359375 0.6875zm-2.0625 -4.8125q-0.703125 0 -1.125 0.375q-0.421875 0.359375 -0.515625 1.265625l2.984375 0q0 -0.921875 -0.359375 -1.28125q-0.34375 -0.359375 -0.984375 -0.359375z" fill-rule="nonzero"/><path fill="#000000" d="m412.1703 192.94388l0 -3.40625q0 -0.734375 -0.21875 -1.046875q-0.203125 -0.328125 -0.703125 -0.328125q-0.453125 0 -0.765625 0.265625q-0.296875 0.25 -0.421875 0.625l0 3.890625l-1.5625 0l0 -6.0l1.234375 0l0.171875 0.796875l0.046875 0q0.28125 -0.390625 0.734375 -0.671875q0.46875 -0.296875 1.1875 -0.296875q0.4375 0 0.78125 0.125q0.359375 0.125 0.59375 0.40625q0.234375 0.265625 0.359375 0.75q0.125 0.46875 0.125 1.15625l0 3.734375l-1.5625 0zm7.665039 -0.515625q-0.359375 0.28125 -0.984375 0.484375q-0.609375 0.203125 -1.3125 0.203125q-1.453125 0 -2.125 -0.84375q-0.671875 -0.859375 -0.671875 -2.328125q0 -1.578125 0.75 -2.375q0.765625 -0.796875 2.140625 -0.796875q0.453125 0 0.875 0.125q0.4375 0.125 0.765625 0.40625q0.34375 0.265625 0.546875 0.734375q0.203125 0.46875 0.203125 1.15625q0 0.265625 -0.03125 0.546875q-0.03125 0.28125 -0.078125 0.59375l-3.609375 0q0.03125 0.765625 0.390625 1.15625q0.359375 0.375 1.140625 0.375q0.5 0 0.890625 -0.140625q0.390625 -0.15625 0.59375 -0.3125l0.515625 1.015625zm-2.234375 -4.40625q-0.609375 0 -0.90625 0.375q-0.296875 0.359375 -0.359375 0.96875l2.234375 0q0.046875 -0.640625 -0.203125 -0.984375q-0.234375 -0.359375 -0.765625 -0.359375zm4.6408997 1.84375l-1.8125 -2.921875l1.859375 0l0.78125 1.28125l0.34375 0.84375l0.359375 -0.84375l0.8125 -1.28125l1.6875 0l-1.8125 2.875l1.9375 3.125l-1.8125 0l-0.921875 -1.4375l-0.359375 -0.890625l-0.390625 0.890625l-0.921875 1.4375l-1.703125 0l1.953125 -3.078125zm4.315674 -2.921875l0.828125 0l0 -1.125l1.5625 -0.453125l0 1.578125l1.453125 0l0 1.3125l-1.453125 0l0 2.3125q0 0.625 0.125 0.890625q0.125 0.265625 0.46875 0.265625q0.234375 0 0.40625 -0.046875q0.1875 -0.046875 0.40625 -0.140625l0.265625 1.203125q-0.328125 0.15625 -0.765625 0.265625q-0.421875 0.109375 -0.859375 0.109375q-0.828125 0 -1.21875 -0.421875q-0.390625 -0.4375 -0.390625 -1.40625l0 -3.03125l-0.828125 0l0 -1.3125z" fill-rule="nonzero"/><path fill="#000000" d="m460.59216 192.94388l0 -3.421875q0 -0.9375 -0.28125 -1.40625q-0.265625 -0.46875 -0.984375 -0.46875q-0.640625 0 -1.0625 0.34375q-0.40625 0.328125 -0.5625 0.84375l0 4.109375l-0.96875 0l0 -6.0l0.671875 0l0.1875 0.734375l0.046875 0q0.28125 -0.390625 0.765625 -0.625q0.484375 -0.25 1.15625 -0.25q0.5 0 0.859375 0.109375q0.375 0.109375 0.625 0.40625q0.25 0.28125 0.375 0.765625q0.125 0.484375 0.125 1.234375l0 3.625l-0.953125 0zm3.5640259 -6.0l0 3.421875q0 0.46875 0.046875 0.828125q0.0625 0.34375 0.1875 0.578125q0.140625 0.234375 0.359375 0.359375q0.234375 0.109375 0.59375 0.109375q0.3125 0 0.5625 -0.09375q0.265625 -0.109375 0.453125 -0.28125q0.203125 -0.1875 0.34375 -0.421875q0.15625 -0.234375 0.25 -0.484375l0 -4.015625l0.96875 0l0 4.296875q0 0.4375 0.03125 0.90625q0.03125 0.453125 0.09375 0.796875l-0.65625 0l-0.234375 -0.953125l-0.0625 0q-0.28125 0.46875 -0.75 0.78125q-0.46875 0.3125 -1.1875 0.3125q-0.484375 0 -0.84375 -0.109375q-0.359375 -0.109375 -0.609375 -0.390625q-0.25 -0.296875 -0.375 -0.78125q-0.125 -0.484375 -0.125 -1.234375l0 -3.625l0.953125 0zm6.671173 4.53125q0 0.40625 0.140625 0.59375q0.15625 0.171875 0.421875 0.171875q0.15625 0 0.328125 -0.015625q0.1875 -0.03125 0.40625 -0.109375l0.109375 0.75q-0.1875 0.109375 -0.53125 0.15625q-0.34375 0.0625 -0.59375 0.0625q-0.53125 0 -0.890625 -0.296875q-0.34375 -0.3125 -0.34375 -1.046875l0 -7.203125l0.953125 0l0 6.9375zm3.5040283 0q0 0.40625 0.140625 0.59375q0.15625 0.171875 0.421875 0.171875q0.15625 0 0.328125 -0.015625q0.1875 -0.03125 0.40625 -0.109375l0.109375 0.75q-0.1875 0.109375 -0.53125 0.15625q-0.34375 0.0625 -0.59375 0.0625q-0.53125 0 -0.890625 -0.296875q-0.34375 -0.3125 -0.34375 -1.046875l0 -7.203125l0.953125 0l0 6.9375z" fill-rule="nonzero"/><path fill="#000000" fill-opacity="0.0" d="m579.8882 46.325523c0 27.041794 -22.102356 42.55996 -44.204712 54.083588c-22.102356 11.523621 -44.204712 19.052696 -44.204712 38.105385" fill-rule="evenodd"/><path stroke="#000000" stroke-width="2.0" stroke-linejoin="round" stroke-linecap="butt" d="m579.2827 53.881294l-0.05529785 0.33481598c-0.033325195 0.19358444 -0.06781006 0.38650894 -0.103515625 0.5787811c-0.07141113 0.3845482 -0.14764404 0.7664871 -0.22857666 1.1458397c-0.647522 3.0348167 -1.59729 5.9042816 -2.8059692 8.623096c-2.4174194 5.4376373 -5.8709106 10.272697 -10.015137 14.622803c-8.288391 8.700218 -19.339539 15.46067 -30.390747 21.22248c-11.051147 5.7618103 -22.102356 10.524986 -30.390747 16.229286c-4.1441956 2.8521576 -7.597687 5.939598 -10.015137 9.504784c-0.15106201 0.2228241 -0.29812622 0.4475174 -0.44100952 0.67414093l-0.092803955 0.14990234" fill-rule="evenodd"/><path fill="#000000" stroke="#000000" stroke-width="2.0" stroke-linecap="butt" d="m579.80835 47.322327c1.8111572 0.14514542 3.1618042 1.7310867 3.0166626 3.5422974c-0.1451416 1.8112106 -1.7310791 3.1618195 -3.5422974 3.016674c-1.8112183 -0.14514923 -3.1618652 -1.7310905 -3.0166626 -3.5422974c0.1451416 -1.8112106 1.7310791 -3.1618233 3.5422974 -3.016674z" fill-rule="nonzero"/><path fill="#000000" stroke="#000000" stroke-width="2.0" stroke-linecap="butt" d="m491.56494 126.0684l0.7093506 9.6326065l5.6483154 -7.8349533z" fill-rule="evenodd"/><path fill="#ffffff" d="m560.45514 33.758595l38.86615 0l0 12.566929l-38.86615 0z" fill-rule="evenodd"/><path fill="#ffffff" d="m25.099737 109.74039c0 -6.334732 5.135315 -11.470047 11.470045 -11.470047l161.72133 0c3.0420532 0 5.959503 1.2084503 8.11055 3.359497c2.1510468 2.1510544 3.359497 5.0685043 3.359497 8.11055l0 45.8788c0 6.334732 -5.135315 11.470047 -11.470047 11.470047l-161.72133 0c-6.33473 0 -11.470045 -5.135315 -11.470045 -11.470047z" fill-rule="evenodd"/><path stroke="#000000" stroke-width="2.0" stroke-linejoin="round" stroke-linecap="butt" d="m25.099737 109.74039c0 -6.334732 5.135315 -11.470047 11.470045 -11.470047l161.72133 0c3.0420532 0 5.959503 1.2084503 8.11055 3.359497c2.1510468 2.1510544 3.359497 5.0685043 3.359497 8.11055l0 45.8788c0 6.334732 -5.135315 11.470047 -11.470047 11.470047l-161.72133 0c-6.33473 0 -11.470045 -5.135315 -11.470045 -11.470047z" fill-rule="evenodd"/><path fill="#000000" d="m40.115448 116.215416l-0.40625 0l0 2.484375l-1.5625 0l0 -8.40625l1.5625 0l0 4.96875l0.359375 -0.171875l1.359375 -2.390625l1.71875 0l-1.4375 2.28125l-0.609375 0.453125l0.65625 0.46875l1.625 2.796875l-1.796875 0l-1.46875 -2.484375zm8.576172 1.96875q-0.359375 0.28125 -0.984375 0.484375q-0.609375 0.203125 -1.3125 0.203125q-1.453125 0 -2.125 -0.84375q-0.671875 -0.859375 -0.671875 -2.328125q0 -1.578125 0.75 -2.375q0.765625 -0.796875 2.140625 -0.796875q0.453125 0 0.875 0.125q0.4375 0.125 0.765625 0.40625q0.34375 0.265625 0.546875 0.734375q0.203125 0.46875 0.203125 1.15625q0 0.265625 -0.03125 0.546875q-0.03125 0.28125 -0.078125 0.59375l-3.609375 0q0.03125 0.765625 0.390625 1.15625q0.359375 0.375 1.140625 0.375q0.5 0 0.890625 -0.140625q0.390625 -0.15625 0.59375 -0.3125l0.515625 1.015625zm-2.234375 -4.40625q-0.609375 0 -0.90625 0.375q-0.296875 0.359375 -0.359375 0.96875l2.234375 0q0.046875 -0.640625 -0.203125 -0.984375q-0.234375 -0.359375 -0.765625 -0.359375zm5.5530396 2.296875l0.203125 0.9375l0.078125 0l0.15625 -0.953125l0.90625 -3.359375l1.609375 0l-1.8125 5.40625q-0.234375 0.671875 -0.453125 1.234375q-0.203125 0.5625 -0.453125 0.96875q-0.25 0.40625 -0.5625 0.625q-0.296875 0.21875 -0.71875 0.21875q-0.625 0 -1.0 -0.203125l0.28125 -1.234375q0.1875 0.0625 0.359375 0.0625q0.28125 0 0.53125 -0.234375q0.265625 -0.234375 0.40625 -0.84375l-2.515625 -6.0l1.875 0l1.109375 3.375z" fill-rule="nonzero"/><path fill="#000000" d="m86.28732 113.13729q0.453125 -0.265625 1.0625 -0.390625q0.609375 -0.140625 1.265625 -0.140625q0.625 0 1.0 0.171875q0.375 0.15625 0.578125 0.4375q0.203125 0.265625 0.265625 0.59375q0.0625 0.3125 0.0625 0.640625q0 0.71875 -0.046875 1.40625q-0.03125 0.6875 -0.03125 1.296875q0 0.4375 0.03125 0.84375q0.046875 0.390625 0.140625 0.734375l-0.703125 0l-0.25 -0.84375l-0.0625 0q-0.109375 0.171875 -0.28125 0.328125q-0.15625 0.15625 -0.390625 0.28125q-0.21875 0.125 -0.515625 0.203125q-0.296875 0.09375 -0.6875 0.09375q-0.375 0 -0.71875 -0.109375q-0.328125 -0.125 -0.5625 -0.34375q-0.234375 -0.234375 -0.375 -0.546875q-0.140625 -0.3125 -0.140625 -0.703125q0 -0.53125 0.21875 -0.875q0.21875 -0.359375 0.609375 -0.5625q0.390625 -0.21875 0.921875 -0.296875q0.546875 -0.09375 1.21875 -0.09375q0.15625 0 0.3125 0q0.171875 0 0.34375 0.015625q0.03125 -0.359375 0.03125 -0.640625q0 -0.671875 -0.265625 -0.921875q-0.265625 -0.265625 -0.953125 -0.265625q-0.203125 0 -0.4375 0.03125q-0.234375 0.015625 -0.484375 0.078125q-0.25 0.046875 -0.46875 0.125q-0.21875 0.078125 -0.390625 0.171875l-0.296875 -0.71875zm1.703125 4.8125q0.34375 0 0.59375 -0.078125q0.265625 -0.09375 0.453125 -0.234375q0.203125 -0.140625 0.328125 -0.296875q0.125 -0.171875 0.1875 -0.328125l0 -1.0q-0.171875 -0.015625 -0.34375 -0.015625q-0.171875 -0.015625 -0.34375 -0.015625q-0.375 0 -0.734375 0.046875q-0.34375 0.046875 -0.625 0.15625q-0.265625 0.109375 -0.421875 0.3125q-0.15625 0.203125 -0.15625 0.5q0 0.421875 0.296875 0.6875q0.296875 0.265625 0.765625 0.265625zm5.4051666 -0.71875q0 0.40625 0.140625 0.59375q0.15625 0.171875 0.421875 0.171875q0.15625 0 0.328125 -0.015625q0.1875 -0.03125 0.40625 -0.109375l0.109375 0.75q-0.1875 0.109375 -0.53125 0.15625q-0.34375 0.0625 -0.59375 0.0625q-0.53125 0 -0.890625 -0.296875q-0.34375 -0.3125 -0.34375 -1.046875l0 -7.203125l0.953125 0l0 6.9375zm2.6446533 -4.53125l0.96875 0l0 6.0l-0.96875 0l0 -6.0zm-0.203125 -1.828125q0 -0.265625 0.1875 -0.46875q0.1875 -0.203125 0.46875 -0.203125q0.296875 0 0.5 0.203125q0.203125 0.203125 0.203125 0.46875q0 0.28125 -0.203125 0.46875q-0.203125 0.171875 -0.5 0.171875q-0.28125 0 -0.46875 -0.171875q-0.1875 -0.1875 -0.1875 -0.46875zm7.3097687 7.4375q-0.359375 0.265625 -0.859375 0.390625q-0.484375 0.140625 -1.03125 0.140625q-0.6875 0 -1.171875 -0.21875q-0.484375 -0.21875 -0.796875 -0.625q-0.296875 -0.421875 -0.4375 -1.0q-0.125 -0.59375 -0.125 -1.296875q0 -1.53125 0.671875 -2.328125q0.671875 -0.8125 1.921875 -0.8125q0.578125 0 0.984375 0.09375q0.40625 0.078125 0.71875 0.25l-0.265625 0.828125q-0.28125 -0.15625 -0.625 -0.234375q-0.328125 -0.09375 -0.71875 -0.09375q-1.703125 0 -1.703125 2.296875q0 0.453125 0.09375 0.875q0.09375 0.40625 0.296875 0.734375q0.21875 0.3125 0.5625 0.5q0.34375 0.1875 0.84375 0.1875q0.421875 0 0.765625 -0.125q0.34375 -0.125 0.5625 -0.296875l0.3125 0.734375zm5.417282 -0.09375q-0.359375 0.296875 -0.90625 0.46875q-0.53125 0.15625 -1.15625 0.15625q-0.671875 0 -1.1875 -0.21875q-0.5 -0.21875 -0.828125 -0.625q-0.3125 -0.421875 -0.46875 -1.0q-0.15625 -0.578125 -0.15625 -1.296875q0 -1.53125 0.671875 -2.328125q0.6875 -0.8125 1.96875 -0.8125q0.40625 0 0.8125 0.09375q0.40625 0.078125 0.71875 0.34375q0.328125 0.25 0.53125 0.71875q0.21875 0.453125 0.21875 1.203125q0 0.390625 -0.078125 0.875l-3.859375 0q0 0.53125 0.109375 0.9375q0.109375 0.40625 0.328125 0.6875q0.234375 0.28125 0.59375 0.4375q0.375 0.140625 0.90625 0.140625q0.40625 0 0.8125 -0.140625q0.40625 -0.140625 0.609375 -0.328125l0.359375 0.6875zm-2.0625 -4.8125q-0.703125 0 -1.125 0.375q-0.421875 0.359375 -0.515625 1.265625l2.984375 0q0 -0.921875 -0.359375 -1.28125q-0.34375 -0.359375 -0.984375 -0.359375zm11.346039 -0.59375l0.40625 0l-0.609375 3.4375q-0.0625 0.3125 -0.09375 0.5625q-0.03125 0.25 -0.03125 0.4375q0 0.296875 0.09375 0.4375q0.109375 0.140625 0.359375 0.140625q0.421875 0 0.8125 -0.21875q0.40625 -0.21875 0.71875 -0.609375q0.3125 -0.390625 0.5 -0.953125q0.203125 -0.5625 0.203125 -1.25q0 -0.9375 -0.3125 -1.640625q-0.3125 -0.703125 -0.875 -1.1875q-0.5625 -0.484375 -1.34375 -0.734375q-0.78125 -0.265625 -1.71875 -0.265625q-0.96875 0 -1.828125 0.359375q-0.859375 0.359375 -1.484375 1.0q-0.625 0.640625 -1.0 1.53125q-0.359375 0.890625 -0.359375 1.921875q0 1.078125 0.328125 1.921875q0.328125 0.828125 0.9375 1.40625q0.609375 0.578125 1.46875 0.875q0.859375 0.296875 1.890625 0.296875q0.359375 0 0.796875 -0.078125q0.4375 -0.078125 0.796875 -0.25l0.25 0.765625q-0.546875 0.234375 -1.0 0.3125q-0.453125 0.078125 -0.984375 0.078125q-1.109375 0 -2.09375 -0.34375q-0.96875 -0.328125 -1.703125 -1.0q-0.71875 -0.65625 -1.140625 -1.625q-0.421875 -0.984375 -0.421875 -2.265625q0 -1.3125 0.4375 -2.359375q0.453125 -1.0625 1.21875 -1.796875q0.78125 -0.75 1.796875 -1.15625q1.015625 -0.40625 2.15625 -0.40625q1.078125 0 2.0 0.328125q0.9375 0.3125 1.609375 0.90625q0.671875 0.59375 1.0625 1.453125q0.390625 0.859375 0.390625 1.953125q0 0.765625 -0.265625 1.46875q-0.25 0.703125 -0.703125 1.234375q-0.453125 0.515625 -1.0625 0.84375q-0.59375 0.3125 -1.265625 0.3125q-0.5 0 -0.8125 -0.21875q-0.296875 -0.21875 -0.296875 -0.796875q0 -0.109375 0.015625 -0.234375q0.015625 -0.125 0.046875 -0.28125l-0.0625 0q-0.15625 0.28125 -0.390625 0.5625q-0.21875 0.265625 -0.515625 0.484375q-0.28125 0.203125 -0.59375 0.34375q-0.3125 0.140625 -0.671875 0.140625q-0.28125 0 -0.546875 -0.125q-0.265625 -0.125 -0.453125 -0.359375q-0.1875 -0.25 -0.3125 -0.578125q-0.109375 -0.328125 -0.109375 -0.75q0 -0.765625 0.25 -1.5q0.25 -0.75 0.671875 -1.328125q0.4375 -0.578125 1.0 -0.921875q0.578125 -0.359375 1.21875 -0.359375q0.4375 0 0.703125 0.125q0.265625 0.125 0.515625 0.328125l0.40625 -0.375zm-0.6875 1.171875q-0.203125 -0.234375 -0.40625 -0.328125q-0.203125 -0.09375 -0.515625 -0.09375q-0.46875 0 -0.875 0.28125q-0.40625 0.28125 -0.703125 0.734375q-0.296875 0.453125 -0.46875 1.015625q-0.171875 0.546875 -0.171875 1.09375q0 0.46875 0.1875 0.796875q0.203125 0.328125 0.703125 0.328125q0.234375 0 0.484375 -0.15625q0.265625 -0.15625 0.515625 -0.421875q0.25 -0.265625 0.484375 -0.59375q0.234375 -0.34375 0.40625 -0.703125l0.359375 -1.953125zm10.268097 4.234375q-0.359375 0.296875 -0.90625 0.46875q-0.53125 0.15625 -1.15625 0.15625q-0.671875 0 -1.1875 -0.21875q-0.5 -0.21875 -0.828125 -0.625q-0.3125 -0.421875 -0.46875 -1.0q-0.15625 -0.578125 -0.15625 -1.296875q0 -1.53125 0.671875 -2.328125q0.6875 -0.8125 1.96875 -0.8125q0.40625 0 0.8125 0.09375q0.40625 0.078125 0.71875 0.34375q0.328125 0.25 0.53125 0.71875q0.21875 0.453125 0.21875 1.203125q0 0.390625 -0.078125 0.875l-3.859375 0q0 0.53125 0.109375 0.9375q0.109375 0.40625 0.328125 0.6875q0.234375 0.28125 0.59375 0.4375q0.375 0.140625 0.90625 0.140625q0.40625 0 0.8125 -0.140625q0.40625 -0.140625 0.609375 -0.328125l0.359375 0.6875zm-2.0625 -4.8125q-0.703125 0 -1.125 0.375q-0.421875 0.359375 -0.515625 1.265625l2.984375 0q0 -0.921875 -0.359375 -1.28125q-0.34375 -0.359375 -0.984375 -0.359375zm5.085663 2.21875l-2.015625 -2.921875l1.171875 0l1.140625 1.65625l0.328125 0.6875l0.359375 -0.6875l1.15625 -1.65625l1.078125 0l-2.015625 2.875l2.140625 3.125l-1.140625 0l-1.265625 -1.828125l-0.359375 -0.71875l-0.375 0.71875l-1.296875 1.828125l-1.0625 0l2.15625 -3.078125zm4.5081635 -2.484375q0.453125 -0.265625 1.0625 -0.390625q0.609375 -0.140625 1.265625 -0.140625q0.625 0 1.0 0.171875q0.375 0.15625 0.578125 0.4375q0.203125 0.265625 0.265625 0.59375q0.0625 0.3125 0.0625 0.640625q0 0.71875 -0.046875 1.40625q-0.03125 0.6875 -0.03125 1.296875q0 0.4375 0.03125 0.84375q0.046875 0.390625 0.140625 0.734375l-0.703125 0l-0.25 -0.84375l-0.0625 0q-0.109375 0.171875 -0.28125 0.328125q-0.15625 0.15625 -0.390625 0.28125q-0.21875 0.125 -0.515625 0.203125q-0.296875 0.09375 -0.6875 0.09375q-0.375 0 -0.71875 -0.109375q-0.328125 -0.125 -0.5625 -0.34375q-0.234375 -0.234375 -0.375 -0.546875q-0.140625 -0.3125 -0.140625 -0.703125q0 -0.53125 0.21875 -0.875q0.21875 -0.359375 0.609375 -0.5625q0.390625 -0.21875 0.921875 -0.296875q0.546875 -0.09375 1.21875 -0.09375q0.15625 0 0.3125 0q0.171875 0 0.34375 0.015625q0.03125 -0.359375 0.03125 -0.640625q0 -0.671875 -0.265625 -0.921875q-0.265625 -0.265625 -0.953125 -0.265625q-0.203125 0 -0.4375 0.03125q-0.234375 0.015625 -0.484375 0.078125q-0.25 0.046875 -0.46875 0.125q-0.21875 0.078125 -0.390625 0.171875l-0.296875 -0.71875zm1.703125 4.8125q0.34375 0 0.59375 -0.078125q0.265625 -0.09375 0.453125 -0.234375q0.203125 -0.140625 0.328125 -0.296875q0.125 -0.171875 0.1875 -0.328125l0 -1.0q-0.171875 -0.015625 -0.34375 -0.015625q-0.171875 -0.015625 -0.34375 -0.015625q-0.375 0 -0.734375 0.046875q-0.34375 0.046875 -0.625 0.15625q-0.265625 0.109375 -0.421875 0.3125q-0.15625 0.203125 -0.15625 0.5q0 0.421875 0.296875 0.6875q0.296875 0.265625 0.765625 0.265625zm7.8582916 0.75l0 -3.390625q0 -0.484375 -0.046875 -0.828125q-0.03125 -0.359375 -0.15625 -0.59375q-0.125 -0.25 -0.34375 -0.359375q-0.21875 -0.125 -0.578125 -0.125q-0.546875 0 -0.921875 0.34375q-0.359375 0.328125 -0.5 0.828125l0 4.125l-0.96875 0l0 -6.0l0.671875 0l0.1875 0.734375l0.046875 0q0.3125 -0.390625 0.734375 -0.625q0.4375 -0.25 1.125 -0.25q0.578125 0 0.9375 0.21875q0.359375 0.21875 0.578125 0.78125q0.265625 -0.46875 0.75 -0.734375q0.484375 -0.265625 1.109375 -0.265625q0.5 0 0.84375 0.109375q0.34375 0.109375 0.578125 0.40625q0.234375 0.28125 0.328125 0.78125q0.109375 0.484375 0.109375 1.25l0 3.59375l-0.96875 0l0 -3.609375q0 -0.4375 -0.046875 -0.75q-0.03125 -0.328125 -0.15625 -0.53125q-0.125 -0.203125 -0.359375 -0.296875q-0.21875 -0.109375 -0.578125 -0.109375q-0.59375 0 -0.9375 0.34375q-0.328125 0.328125 -0.46875 0.9375l0 4.015625l-0.96875 0zm6.2284393 -6.0l0.65625 0l0.1875 0.71875l0.046875 0q0.28125 -0.421875 0.71875 -0.640625q0.4375 -0.21875 1.0 -0.21875q1.203125 0 1.78125 0.703125q0.59375 0.703125 0.59375 2.3125q0 0.765625 -0.203125 1.375q-0.1875 0.59375 -0.5625 1.015625q-0.359375 0.421875 -0.875 0.65625q-0.5 0.21875 -1.125 0.21875q-0.4375 0 -0.703125 -0.0625q-0.25 -0.046875 -0.546875 -0.171875l0 2.5l-0.96875 0l0 -8.40625zm2.421875 0.703125q-0.609375 0 -0.96875 0.3125q-0.34375 0.3125 -0.484375 0.96875l0 2.96875q0.203125 0.171875 0.484375 0.265625q0.28125 0.078125 0.734375 0.078125q0.828125 0 1.3125 -0.609375q0.484375 -0.625 0.484375 -1.8125q0 -0.5 -0.09375 -0.890625q-0.078125 -0.40625 -0.265625 -0.6875q-0.171875 -0.28125 -0.46875 -0.4375q-0.296875 -0.15625 -0.734375 -0.15625zm5.132675 3.828125q0 0.40625 0.140625 0.59375q0.15625 0.171875 0.421875 0.171875q0.15625 0 0.328125 -0.015625q0.1875 -0.03125 0.40625 -0.109375l0.109375 0.75q-0.1875 0.109375 -0.53125 0.15625q-0.34375 0.0625 -0.59375 0.0625q-0.53125 0 -0.890625 -0.296875q-0.34375 -0.3125 -0.34375 -1.046875l0 -7.203125l0.953125 0l0 6.9375zm6.8165283 0.984375q-0.359375 0.296875 -0.90625 0.46875q-0.53125 0.15625 -1.15625 0.15625q-0.671875 0 -1.1875 -0.21875q-0.5 -0.21875 -0.828125 -0.625q-0.3125 -0.421875 -0.46875 -1.0q-0.15625 -0.578125 -0.15625 -1.296875q0 -1.53125 0.671875 -2.328125q0.6875 -0.8125 1.96875 -0.8125q0.40625 0 0.8125 0.09375q0.40625 0.078125 0.71875 0.34375q0.328125 0.25 0.53125 0.71875q0.21875 0.453125 0.21875 1.203125q0 0.390625 -0.078125 0.875l-3.859375 0q0 0.53125 0.109375 0.9375q0.109375 0.40625 0.328125 0.6875q0.234375 0.28125 0.59375 0.4375q0.375 0.140625 0.90625 0.140625q0.40625 0 0.8125 -0.140625q0.40625 -0.140625 0.609375 -0.328125l0.359375 0.6875zm-2.0625 -4.8125q-0.703125 0 -1.125 0.375q-0.421875 0.359375 -0.515625 1.265625l2.984375 0q0 -0.921875 -0.359375 -1.28125q-0.34375 -0.359375 -0.984375 -0.359375zm3.4554138 4.75q0 -0.328125 0.171875 -0.515625q0.1875 -0.1875 0.5 -0.1875q0.328125 0 0.515625 0.1875q0.203125 0.1875 0.203125 0.515625q0 0.3125 -0.203125 0.5q-0.1875 0.1875 -0.515625 0.1875q-0.3125 0 -0.5 -0.1875q-0.171875 -0.1875 -0.171875 -0.5zm6.9898987 0.15625q-0.359375 0.265625 -0.859375 0.390625q-0.484375 0.140625 -1.03125 0.140625q-0.6875 0 -1.171875 -0.21875q-0.484375 -0.21875 -0.796875 -0.625q-0.296875 -0.421875 -0.4375 -1.0q-0.125 -0.59375 -0.125 -1.296875q0 -1.53125 0.671875 -2.328125q0.671875 -0.8125 1.921875 -0.8125q0.578125 0 0.984375 0.09375q0.40625 0.078125 0.71875 0.25l-0.265625 0.828125q-0.28125 -0.15625 -0.625 -0.234375q-0.328125 -0.09375 -0.71875 -0.09375q-1.703125 0 -1.703125 2.296875q0 0.453125 0.09375 0.875q0.09375 0.40625 0.296875 0.734375q0.21875 0.3125 0.5625 0.5q0.34375 0.1875 0.84375 0.1875q0.421875 0 0.765625 -0.125q0.34375 -0.125 0.5625 -0.296875l0.3125 0.734375zm0.7141571 -2.609375q0 -1.53125 0.671875 -2.328125q0.671875 -0.8125 1.953125 -0.8125q0.671875 0 1.171875 0.21875q0.5 0.21875 0.8125 0.640625q0.328125 0.40625 0.484375 1.0q0.15625 0.578125 0.15625 1.28125q0 1.53125 -0.6875 2.34375q-0.671875 0.796875 -1.9375 0.796875q-0.671875 0 -1.171875 -0.21875q-0.5 -0.21875 -0.828125 -0.625q-0.3125 -0.421875 -0.46875 -1.0q-0.15625 -0.59375 -0.15625 -1.296875zm0.984375 0q0 0.453125 0.09375 0.875q0.09375 0.421875 0.28125 0.734375q0.1875 0.3125 0.5 0.5q0.3125 0.1875 0.765625 0.1875q1.625 0.015625 1.625 -2.296875q0 -0.46875 -0.09375 -0.890625q-0.078125 -0.421875 -0.28125 -0.734375q-0.1875 -0.3125 -0.5 -0.484375q-0.3125 -0.1875 -0.75 -0.1875q-1.640625 -0.015625 -1.640625 2.296875zm9.291428 3.0l0 -3.390625q0 -0.484375 -0.046875 -0.828125q-0.03125 -0.359375 -0.15625 -0.59375q-0.125 -0.25 -0.34375 -0.359375q-0.21875 -0.125 -0.578125 -0.125q-0.546875 0 -0.921875 0.34375q-0.359375 0.328125 -0.5 0.828125l0 4.125l-0.96875 0l0 -6.0l0.671875 0l0.1875 0.734375l0.046875 0q0.3125 -0.390625 0.734375 -0.625q0.4375 -0.25 1.125 -0.25q0.578125 0 0.9375 0.21875q0.359375 0.21875 0.578125 0.78125q0.265625 -0.46875 0.75 -0.734375q0.484375 -0.265625 1.109375 -0.265625q0.5 0 0.84375 0.109375q0.34375 0.109375 0.578125 0.40625q0.234375 0.28125 0.328125 0.78125q0.109375 0.484375 0.109375 1.25l0 3.59375l-0.96875 0l0 -3.609375q0 -0.4375 -0.046875 -0.75q-0.03125 -0.328125 -0.15625 -0.53125q-0.125 -0.203125 -0.359375 -0.296875q-0.21875 -0.109375 -0.578125 -0.109375q-0.59375 0 -0.9375 0.34375q-0.328125 0.328125 -0.46875 0.9375l0 4.015625l-0.96875 0z" fill-rule="nonzero"/><path fill="#000000" d="m40.224823 132.84042l0.203125 0.921875l0.0625 0l0.15625 -0.9375l1.03125 -3.125l1.671875 0l-2.5 6.0625l-0.953125 0l-2.609375 -6.0625l1.8125 0l1.125 3.140625zm3.5990448 -2.796875q0.484375 -0.21875 1.140625 -0.34375q0.671875 -0.125 1.390625 -0.125q0.625 0 1.03125 0.15625q0.421875 0.15625 0.671875 0.4375q0.25 0.265625 0.34375 0.65625q0.109375 0.375 0.109375 0.859375q0 0.53125 -0.046875 1.0625q-0.03125 0.53125 -0.03125 1.046875q0 0.515625 0.03125 1.0q0.03125 0.484375 0.171875 0.921875l-1.265625 0l-0.25 -0.828125l-0.0625 0q-0.234375 0.375 -0.671875 0.640625q-0.421875 0.265625 -1.09375 0.265625q-0.421875 0 -0.765625 -0.125q-0.328125 -0.125 -0.5625 -0.359375q-0.234375 -0.234375 -0.375 -0.546875q-0.125 -0.328125 -0.125 -0.71875q0 -0.546875 0.234375 -0.921875q0.25 -0.390625 0.703125 -0.625q0.46875 -0.234375 1.109375 -0.3125q0.640625 -0.09375 1.4375 -0.0625q0.09375 -0.671875 -0.09375 -0.96875q-0.1875 -0.296875 -0.796875 -0.296875q-0.46875 0 -1.0 0.109375q-0.515625 0.09375 -0.859375 0.25l-0.375 -1.171875zm1.984375 4.46875q0.46875 0 0.734375 -0.203125q0.28125 -0.21875 0.421875 -0.453125l0 -0.78125q-0.375 -0.03125 -0.71875 0q-0.34375 0.015625 -0.609375 0.09375q-0.25 0.078125 -0.40625 0.234375q-0.15625 0.15625 -0.15625 0.40625q0 0.328125 0.1875 0.515625q0.203125 0.1875 0.546875 0.1875zm5.6239166 -0.828125q0 0.421875 0.109375 0.609375q0.109375 0.1875 0.34375 0.1875q0.140625 0 0.28125 -0.015625q0.140625 -0.03125 0.34375 -0.109375l0.171875 1.21875q-0.203125 0.09375 -0.59375 0.1875q-0.390625 0.109375 -0.8125 0.109375q-0.6875 0 -1.046875 -0.3125q-0.359375 -0.328125 -0.359375 -1.0625l0 -7.2031326l1.5625 0l0 6.3906326zm3.4186554 -3.984375l0 3.40625q0 0.734375 0.171875 1.0625q0.171875 0.3125 0.671875 0.3125q0.453125 0 0.734375 -0.25q0.296875 -0.265625 0.453125 -0.65625l0 -3.875l1.546875 0l0 4.171875q0 0.5 0.046875 0.96875q0.0625 0.46875 0.15625 0.859375l-1.1875 0l-0.265625 -0.890625l-0.046875 0q-0.28125 0.453125 -0.78125 0.765625q-0.484375 0.296875 -1.15625 0.296875q-0.453125 0 -0.8125 -0.125q-0.359375 -0.125 -0.609375 -0.390625q-0.234375 -0.28125 -0.359375 -0.75q-0.125 -0.46875 -0.125 -1.171875l0 -3.734375l1.5625 0zm9.752914 5.484375q-0.359375 0.28125 -0.984375 0.484375q-0.609375 0.203125 -1.3125 0.203125q-1.453125 0 -2.125 -0.84375q-0.671875 -0.859375 -0.671875 -2.328125q0 -1.578125 0.75 -2.375q0.765625 -0.796875 2.140625 -0.796875q0.453125 0 0.875 0.125q0.4375 0.125 0.765625 0.40625q0.34375 0.265625 0.546875 0.734375q0.203125 0.46875 0.203125 1.15625q0 0.265625 -0.03125 0.546875q-0.03125 0.28125 -0.078125 0.59375l-3.609375 0q0.03125 0.765625 0.390625 1.15625q0.359375 0.375 1.140625 0.375q0.5 0 0.890625 -0.140625q0.390625 -0.15625 0.59375 -0.3125l0.515625 1.015625zm-2.234375 -4.40625q-0.609375 0 -0.90625 0.375q-0.296875 0.359375 -0.359375 0.96875l2.234375 0q0.046875 -0.640625 -0.203125 -0.984375q-0.234375 -0.359375 -0.765625 -0.359375z" fill-rule="nonzero"/><path fill="#000000" d="m90.47482 133.37167l-3.09375 0l-0.84375 2.328125l-0.984375 0l3.1875 -8.531258l0.453125 0l3.1875 8.531258l-1.046875 0l-0.859375 -2.328125zm-2.765625 -0.859375l2.46875 0l-0.9375 -2.5625l-0.296875 -1.265625l-0.015625 0l-0.296875 1.296875l-0.921875 2.53125zm6.754425 1.71875q0 0.40625 0.140625 0.59375q0.15625 0.171875 0.421875 0.171875q0.15625 0 0.328125 -0.015625q0.1875 -0.03125 0.40625 -0.109375l0.109375 0.75q-0.1875 0.109375 -0.53125 0.15625q-0.34375 0.0625 -0.59375 0.0625q-0.53125 0 -0.890625 -0.296875q-0.34375 -0.3125 -0.34375 -1.046875l0 -7.2031326l0.953125 0l0 6.9375076zm2.6446533 -4.53125l0.96875 0l0 6.0l-0.96875 0l0 -6.0zm-0.203125 -1.8281326q0 -0.265625 0.1875 -0.46875q0.1875 -0.203125 0.46875 -0.203125q0.296875 0 0.5 0.203125q0.203125 0.203125 0.203125 0.46875q0 0.28125763 -0.203125 0.46875763q-0.203125 0.171875 -0.5 0.171875q-0.28125 0 -0.46875 -0.171875q-0.1875 -0.1875 -0.1875 -0.46875763zm7.3097687 7.4375076q-0.359375 0.265625 -0.859375 0.390625q-0.484375 0.140625 -1.03125 0.140625q-0.6875 0 -1.171875 -0.21875q-0.484375 -0.21875 -0.796875 -0.625q-0.296875 -0.421875 -0.4375 -1.0q-0.125 -0.59375 -0.125 -1.296875q0 -1.53125 0.671875 -2.328125q0.671875 -0.8125 1.921875 -0.8125q0.578125 0 0.984375 0.09375q0.40625 0.078125 0.71875 0.25l-0.265625 0.828125q-0.28125 -0.15625 -0.625 -0.234375q-0.328125 -0.09375 -0.71875 -0.09375q-1.703125 0 -1.703125 2.296875q0 0.453125 0.09375 0.875q0.09375 0.40625 0.296875 0.734375q0.21875 0.3125 0.5625 0.5q0.34375 0.1875 0.84375 0.1875q0.421875 0 0.765625 -0.125q0.34375 -0.125 0.5625 -0.296875l0.3125 0.734375zm5.417282 -0.09375q-0.359375 0.296875 -0.90625 0.46875q-0.53125 0.15625 -1.15625 0.15625q-0.671875 0 -1.1875 -0.21875q-0.5 -0.21875 -0.828125 -0.625q-0.3125 -0.421875 -0.46875 -1.0q-0.15625 -0.578125 -0.15625 -1.296875q0 -1.53125 0.671875 -2.328125q0.6875 -0.8125 1.96875 -0.8125q0.40625 0 0.8125 0.09375q0.40625 0.078125 0.71875 0.34375q0.328125 0.25 0.53125 0.71875q0.21875 0.453125 0.21875 1.203125q0 0.390625 -0.078125 0.875l-3.859375 0q0 0.53125 0.109375 0.9375q0.109375 0.40625 0.328125 0.6875q0.234375 0.28125 0.59375 0.4375q0.375 0.140625 0.90625 0.140625q0.40625 0 0.8125 -0.140625q0.40625 -0.140625 0.609375 -0.328125l0.359375 0.6875zm-2.0625 -4.8125q-0.703125 0 -1.125 0.375q-0.421875 0.359375 -0.515625 1.265625l2.984375 0q0 -0.921875 -0.359375 -1.28125q-0.34375 -0.359375 -0.984375 -0.359375z" fill-rule="nonzero"/><path fill="#000000" d="m41.818573 152.6998l0 -3.40625q0 -0.734375 -0.21875 -1.046875q-0.203125 -0.328125 -0.703125 -0.328125q-0.453125 0 -0.765625 0.265625q-0.296875 0.25 -0.421875 0.625l0 3.890625l-1.5625 0l0 -6.0l1.234375 0l0.171875 0.796875l0.046875 0q0.28125 -0.390625 0.734375 -0.671875q0.46875 -0.296875 1.1875 -0.296875q0.4375 0 0.78125 0.125q0.359375 0.125 0.59375 0.40625q0.234375 0.265625 0.359375 0.75q0.125 0.46875 0.125 1.15625l0 3.734375l-1.5625 0zm7.665039 -0.515625q-0.359375 0.28125 -0.984375 0.484375q-0.609375 0.203125 -1.3125 0.203125q-1.453125 0 -2.125 -0.84375q-0.671875 -0.859375 -0.671875 -2.328125q0 -1.578125 0.75 -2.375q0.765625 -0.796875 2.140625 -0.796875q0.453125 0 0.875 0.125q0.4375 0.125 0.765625 0.40625q0.34375 0.265625 0.546875 0.734375q0.203125 0.46875 0.203125 1.15625q0 0.265625 -0.03125 0.546875q-0.03125 0.28125 -0.078125 0.59375l-3.609375 0q0.03125 0.765625 0.390625 1.15625q0.359375 0.375 1.140625 0.375q0.5 0 0.890625 -0.140625q0.390625 -0.15625 0.59375 -0.3125l0.515625 1.015625zm-2.234375 -4.40625q-0.609375 0 -0.90625 0.375q-0.296875 0.359375 -0.359375 0.96875l2.234375 0q0.046875 -0.640625 -0.203125 -0.984375q-0.234375 -0.359375 -0.765625 -0.359375zm4.640915 1.84375l-1.8125 -2.921875l1.859375 0l0.78125 1.28125l0.34375 0.84375l0.359375 -0.84375l0.8125 -1.28125l1.6875 0l-1.8125 2.875l1.9375 3.125l-1.8125 0l-0.921875 -1.4375l-0.359375 -0.890625l-0.390625 0.890625l-0.921875 1.4375l-1.703125 0l1.953125 -3.078125zm4.315674 -2.921875l0.828125 0l0 -1.125l1.5625 -0.453125l0 1.578125l1.453125 0l0 1.3125l-1.453125 0l0 2.3125q0 0.625 0.125 0.890625q0.125 0.265625 0.46875 0.265625q0.234375 0 0.40625 -0.046875q0.1875 -0.046875 0.40625 -0.140625l0.265625 1.203125q-0.328125 0.15625 -0.765625 0.265625q-0.421875 0.109375 -0.859375 0.109375q-0.828125 0 -1.21875 -0.421875q-0.390625 -0.4375 -0.390625 -1.40625l0 -3.03125l-0.828125 0l0 -1.3125z" fill-rule="nonzero"/><path fill="#ffffff" d="m76.60471 139.78146l15.874016 0l0 19.496063l-15.874016 0z" fill-rule="evenodd"/><path fill="#ffffff" d="m171.68242 154.95561c0 -6.334732 5.135315 -11.470047 11.470047 -11.470047l161.72131 0c3.0420532 0 5.959503 1.2084503 8.110565 3.359497c2.1510315 2.1510468 3.359497 5.0684967 3.359497 8.11055l0 45.8788c0 6.334732 -5.135315 11.470047 -11.470062 11.470047l-161.72131 0c-6.334732 0 -11.470047 -5.135315 -11.470047 -11.470047z" fill-rule="evenodd"/><path stroke="#000000" stroke-width="2.0" stroke-linejoin="round" stroke-linecap="butt" d="m171.68242 154.95561c0 -6.334732 5.135315 -11.470047 11.470047 -11.470047l161.72131 0c3.0420532 0 5.959503 1.2084503 8.110565 3.359497c2.1510315 2.1510468 3.359497 5.0684967 3.359497 8.11055l0 45.8788c0 6.334732 -5.135315 11.470047 -11.470062 11.470047l-161.72131 0c-6.334732 0 -11.470047 -5.135315 -11.470047 -11.470047z" fill-rule="evenodd"/><path fill="#000000" d="m186.69812 161.43063l-0.40625 0l0 2.484375l-1.5625 0l0 -8.40625l1.5625 0l0 4.96875l0.359375 -0.171875l1.359375 -2.390625l1.71875 0l-1.4375 2.28125l-0.609375 0.453125l0.65625 0.46875l1.625 2.796875l-1.796875 0l-1.46875 -2.484375zm8.576172 1.96875q-0.359375 0.28125 -0.984375 0.484375q-0.609375 0.203125 -1.3125 0.203125q-1.453125 0 -2.125 -0.84375q-0.671875 -0.859375 -0.671875 -2.328125q0 -1.578125 0.75 -2.375q0.765625 -0.796875 2.140625 -0.796875q0.453125 0 0.875 0.125q0.4375 0.125 0.765625 0.40625q0.34375 0.265625 0.546875 0.734375q0.203125 0.46875 0.203125 1.15625q0 0.265625 -0.03125 0.546875q-0.03125 0.28125 -0.078125 0.59375l-3.609375 0q0.03125 0.765625 0.390625 1.15625q0.359375 0.375 1.140625 0.375q0.5 0 0.890625 -0.140625q0.390625 -0.15625 0.59375 -0.3125l0.515625 1.015625zm-2.234375 -4.40625q-0.609375 0 -0.90625 0.375q-0.296875 0.359375 -0.359375 0.96875l2.234375 0q0.046875 -0.640625 -0.203125 -0.984375q-0.234375 -0.359375 -0.765625 -0.359375zm5.5530396 2.296875l0.203125 0.9375l0.078125 0l0.15625 -0.953125l0.90625 -3.359375l1.609375 0l-1.8125 5.40625q-0.234375 0.671875 -0.453125 1.234375q-0.203125 0.5625 -0.453125 0.96875q-0.25 0.40625 -0.5625 0.625q-0.296875 0.21875 -0.71875 0.21875q-0.625 0 -1.0 -0.203125l0.28125 -1.234375q0.1875 0.0625 0.359375 0.0625q0.28125 0 0.53125 -0.234375q0.265625 -0.234375 0.40625 -0.84375l-2.515625 -6.0l1.875 0l1.109375 3.375z" fill-rule="nonzero"/><path fill="#000000" d="m232.96375 155.50876l0.96875 0l0 3.0l0.046875 0q0.265625 -0.359375 0.6875 -0.546875q0.4375 -0.1875 0.9375 -0.1875q1.171875 0 1.75 0.75q0.578125 0.734375 0.578125 2.296875q0 1.5625 -0.765625 2.390625q-0.765625 0.8125 -2.15625 0.8125q-0.671875 0 -1.21875 -0.140625q-0.546875 -0.15625 -0.828125 -0.3125l0 -8.0625zm2.46875 3.109375q-0.59375 0 -0.96875 0.34375q-0.375 0.328125 -0.53125 0.9375l0 3.015625q0.21875 0.140625 0.546875 0.203125q0.328125 0.0625 0.671875 0.0625q0.8125 0 1.296875 -0.578125q0.484375 -0.578125 0.484375 -1.796875q0 -0.46875 -0.078125 -0.875q-0.078125 -0.40625 -0.265625 -0.6875q-0.171875 -0.296875 -0.46875 -0.453125q-0.28125 -0.171875 -0.6875 -0.171875zm3.6831665 2.296875q0 -1.53125 0.671875 -2.328125q0.671875 -0.8125 1.953125 -0.8125q0.671875 0 1.171875 0.21875q0.5 0.21875 0.8125 0.640625q0.328125 0.40625 0.484375 1.0q0.15625 0.578125 0.15625 1.28125q0 1.53125 -0.6875 2.34375q-0.671875 0.796875 -1.9375 0.796875q-0.671875 0 -1.171875 -0.21875q-0.5 -0.21875 -0.828125 -0.625q-0.3125 -0.421875 -0.46875 -1.0q-0.15625 -0.59375 -0.15625 -1.296875zm0.984375 0q0 0.453125 0.09375 0.875q0.09375 0.421875 0.28125 0.734375q0.1875 0.3125 0.5 0.5q0.3125 0.1875 0.765625 0.1875q1.625 0.015625 1.625 -2.296875q0 -0.46875 -0.09375 -0.890625q-0.078125 -0.421875 -0.28125 -0.734375q-0.1875 -0.3125 -0.5 -0.484375q-0.3125 -0.1875 -0.75 -0.1875q-1.640625 -0.015625 -1.640625 2.296875zm5.7758026 -5.40625l0.96875 0l0 3.0l0.046875 0q0.265625 -0.359375 0.6875 -0.546875q0.4375 -0.1875 0.9375 -0.1875q1.171875 0 1.75 0.75q0.578125 0.734375 0.578125 2.296875q0 1.5625 -0.765625 2.390625q-0.765625 0.8125 -2.15625 0.8125q-0.671875 0 -1.21875 -0.140625q-0.546875 -0.15625 -0.828125 -0.3125l0 -8.0625zm2.46875 3.109375q-0.59375 0 -0.96875 0.34375q-0.375 0.328125 -0.53125 0.9375l0 3.015625q0.21875 0.140625 0.546875 0.203125q0.328125 0.0625 0.671875 0.0625q0.8125 0 1.296875 -0.578125q0.484375 -0.578125 0.484375 -1.796875q0 -0.46875 -0.078125 -0.875q-0.078125 -0.40625 -0.265625 -0.6875q-0.171875 -0.296875 -0.46875 -0.453125q-0.28125 -0.171875 -0.6875 -0.171875zm11.573807 -0.59375l0.40625 0l-0.609375 3.4375q-0.0625 0.3125 -0.09375 0.5625q-0.03125 0.25 -0.03125 0.4375q0 0.296875 0.09375 0.4375q0.109375 0.140625 0.359375 0.140625q0.421875 0 0.8125 -0.21875q0.40625 -0.21875 0.71875 -0.609375q0.3125 -0.390625 0.5 -0.953125q0.203125 -0.5625 0.203125 -1.25q0 -0.9375 -0.3125 -1.640625q-0.3125 -0.703125 -0.875 -1.1875q-0.5625 -0.484375 -1.34375 -0.734375q-0.78125 -0.265625 -1.71875 -0.265625q-0.96875 0 -1.828125 0.359375q-0.85939026 0.359375 -1.4843903 1.0q-0.625 0.640625 -1.0 1.53125q-0.359375 0.890625 -0.359375 1.921875q0 1.078125 0.328125 1.921875q0.328125 0.828125 0.9375 1.40625q0.609375 0.578125 1.4687653 0.875q0.859375 0.296875 1.890625 0.296875q0.359375 0 0.796875 -0.078125q0.4375 -0.078125 0.796875 -0.25l0.25 0.765625q-0.546875 0.234375 -1.0 0.3125q-0.453125 0.078125 -0.984375 0.078125q-1.109375 0 -2.0937653 -0.34375q-0.96875 -0.328125 -1.703125 -1.0q-0.71875 -0.65625 -1.140625 -1.625q-0.421875 -0.984375 -0.421875 -2.265625q0 -1.3125 0.4375 -2.359375q0.453125 -1.0625 1.21875 -1.796875q0.78125 -0.75 1.796875 -1.15625q1.0156403 -0.40625 2.1562653 -0.40625q1.078125 0 2.0 0.328125q0.9375 0.3125 1.609375 0.90625q0.671875 0.59375 1.0625 1.453125q0.390625 0.859375 0.390625 1.953125q0 0.765625 -0.265625 1.46875q-0.25 0.703125 -0.703125 1.234375q-0.453125 0.515625 -1.0625 0.84375q-0.59375 0.3125 -1.265625 0.3125q-0.5 0 -0.8125 -0.21875q-0.296875 -0.21875 -0.296875 -0.796875q0 -0.109375 0.015625 -0.234375q0.015625 -0.125 0.046875 -0.28125l-0.0625 0q-0.15625 0.28125 -0.390625 0.5625q-0.21875 0.265625 -0.515625 0.484375q-0.28125 0.203125 -0.59375 0.34375q-0.3125 0.140625 -0.671875 0.140625q-0.28125 0 -0.546875 -0.125q-0.26564026 -0.125 -0.45314026 -0.359375q-0.1875 -0.25 -0.3125 -0.578125q-0.109375 -0.328125 -0.109375 -0.75q0 -0.765625 0.25 -1.5q0.25 -0.75 0.67189026 -1.328125q0.4375 -0.578125 1.0 -0.921875q0.578125 -0.359375 1.21875 -0.359375q0.4375 0 0.703125 0.125q0.265625 0.125 0.515625 0.328125l0.40625 -0.375zm-0.6875 1.171875q-0.203125 -0.234375 -0.40625 -0.328125q-0.203125 -0.09375 -0.515625 -0.09375q-0.46875 0 -0.875 0.28125q-0.40625 0.28125 -0.703125 0.734375q-0.296875 0.453125 -0.46875 1.015625q-0.171875 0.546875 -0.171875 1.09375q0 0.46875 0.1875 0.796875q0.203125 0.328125 0.703125 0.328125q0.234375 0 0.484375 -0.15625q0.265625 -0.15625 0.515625 -0.421875q0.25 -0.265625 0.484375 -0.59375q0.234375 -0.34375 0.40625 -0.703125l0.359375 -1.953125zm10.268097 4.234375q-0.359375 0.296875 -0.90625 0.46875q-0.53125 0.15625 -1.15625 0.15625q-0.671875 0 -1.1875 -0.21875q-0.5 -0.21875 -0.828125 -0.625q-0.3125 -0.421875 -0.46875 -1.0q-0.15625 -0.578125 -0.15625 -1.296875q0 -1.53125 0.671875 -2.328125q0.6875 -0.8125 1.96875 -0.8125q0.40625 0 0.8125 0.09375q0.40625 0.078125 0.71875 0.34375q0.328125 0.25 0.53125 0.71875q0.21875 0.453125 0.21875 1.203125q0 0.390625 -0.078125 0.875l-3.859375 0q0 0.53125 0.109375 0.9375q0.109375 0.40625 0.328125 0.6875q0.234375 0.28125 0.59375 0.4375q0.375 0.140625 0.90625 0.140625q0.40625 0 0.8125 -0.140625q0.40625 -0.140625 0.609375 -0.328125l0.359375 0.6875zm-2.0625 -4.8125q-0.703125 0 -1.125 0.375q-0.421875 0.359375 -0.515625 1.265625l2.984375 0q0 -0.921875 -0.359375 -1.28125q-0.34375 -0.359375 -0.984375 -0.359375zm5.085663 2.21875l-2.015625 -2.921875l1.171875 0l1.140625 1.65625l0.328125 0.6875l0.359375 -0.6875l1.15625 -1.65625l1.078125 0l-2.015625 2.875l2.140625 3.125l-1.140625 0l-1.265625 -1.828125l-0.359375 -0.71875l-0.375 0.71875l-1.296875 1.828125l-1.0625 0l2.15625 -3.078125zm4.508148 -2.484375q0.453125 -0.265625 1.0625 -0.390625q0.609375 -0.140625 1.265625 -0.140625q0.625 0 1.0 0.171875q0.375 0.15625 0.578125 0.4375q0.203125 0.265625 0.265625 0.59375q0.0625 0.3125 0.0625 0.640625q0 0.71875 -0.046875 1.40625q-0.03125 0.6875 -0.03125 1.296875q0 0.4375 0.03125 0.84375q0.046875 0.390625 0.140625 0.734375l-0.703125 0l-0.25 -0.84375l-0.0625 0q-0.109375 0.171875 -0.28125 0.328125q-0.15625 0.15625 -0.390625 0.28125q-0.21875 0.125 -0.515625 0.203125q-0.296875 0.09375 -0.6875 0.09375q-0.375 0 -0.71875 -0.109375q-0.328125 -0.125 -0.5625 -0.34375q-0.234375 -0.234375 -0.375 -0.546875q-0.140625 -0.3125 -0.140625 -0.703125q0 -0.53125 0.21875 -0.875q0.21875 -0.359375 0.609375 -0.5625q0.390625 -0.21875 0.921875 -0.296875q0.546875 -0.09375 1.21875 -0.09375q0.15625 0 0.3125 0q0.171875 0 0.34375 0.015625q0.03125 -0.359375 0.03125 -0.640625q0 -0.671875 -0.265625 -0.921875q-0.265625 -0.265625 -0.953125 -0.265625q-0.203125 0 -0.4375 0.03125q-0.234375 0.015625 -0.484375 0.078125q-0.25 0.046875 -0.46875 0.125q-0.21875 0.078125 -0.390625 0.171875l-0.296875 -0.71875zm1.703125 4.8125q0.34375 0 0.59375 -0.078125q0.265625 -0.09375 0.453125 -0.234375q0.203125 -0.140625 0.328125 -0.296875q0.125 -0.171875 0.1875 -0.328125l0 -1.0q-0.171875 -0.015625 -0.34375 -0.015625q-0.171875 -0.015625 -0.34375 -0.015625q-0.375 0 -0.734375 0.046875q-0.34375 0.046875 -0.625 0.15625q-0.265625 0.109375 -0.421875 0.3125q-0.15625 0.203125 -0.15625 0.5q0 0.421875 0.296875 0.6875q0.296875 0.265625 0.765625 0.265625zm7.858307 0.75l0 -3.390625q0 -0.484375 -0.046875 -0.828125q-0.03125 -0.359375 -0.15625 -0.59375q-0.125 -0.25 -0.34375 -0.359375q-0.21875 -0.125 -0.578125 -0.125q-0.546875 0 -0.921875 0.34375q-0.359375 0.328125 -0.5 0.828125l0 4.125l-0.96875 0l0 -6.0l0.671875 0l0.1875 0.734375l0.046875 0q0.3125 -0.390625 0.734375 -0.625q0.4375 -0.25 1.125 -0.25q0.578125 0 0.9375 0.21875q0.359375 0.21875 0.578125 0.78125q0.265625 -0.46875 0.75 -0.734375q0.484375 -0.265625 1.109375 -0.265625q0.5 0 0.84375 0.109375q0.34375 0.109375 0.578125 0.40625q0.234375 0.28125 0.328125 0.78125q0.109375 0.484375 0.109375 1.25l0 3.59375l-0.96875 0l0 -3.609375q0 -0.4375 -0.046875 -0.75q-0.03125 -0.328125 -0.15625 -0.53125q-0.125 -0.203125 -0.359375 -0.296875q-0.21875 -0.109375 -0.578125 -0.109375q-0.59375 0 -0.9375 0.34375q-0.328125 0.328125 -0.46875 0.9375l0 4.015625l-0.96875 0zm6.228424 -6.0l0.65625 0l0.1875 0.71875l0.046875 0q0.28125 -0.421875 0.71875 -0.640625q0.4375 -0.21875 1.0 -0.21875q1.203125 0 1.78125 0.703125q0.59375 0.703125 0.59375 2.3125q0 0.765625 -0.203125 1.375q-0.1875 0.59375 -0.5625 1.015625q-0.359375 0.421875 -0.875 0.65625q-0.5 0.21875 -1.125 0.21875q-0.4375 0 -0.703125 -0.0625q-0.25 -0.046875 -0.546875 -0.171875l0 2.5l-0.96875 0l0 -8.40625zm2.421875 0.703125q-0.609375 0 -0.96875 0.3125q-0.34375 0.3125 -0.484375 0.96875l0 2.96875q0.203125 0.171875 0.484375 0.265625q0.28125 0.078125 0.734375 0.078125q0.828125 0 1.3125 -0.609375q0.484375 -0.625 0.484375 -1.8125q0 -0.5 -0.09375 -0.890625q-0.078125 -0.40625 -0.265625 -0.6875q-0.171875 -0.28125 -0.46875 -0.4375q-0.296875 -0.15625 -0.734375 -0.15625zm5.1326904 3.828125q0 0.40625 0.140625 0.59375q0.15625 0.171875 0.421875 0.171875q0.15625 0 0.328125 -0.015625q0.1875 -0.03125 0.40625 -0.109375l0.109375 0.75q-0.1875 0.109375 -0.53125 0.15625q-0.34375 0.0625 -0.59375 0.0625q-0.53125 0 -0.890625 -0.296875q-0.34375 -0.3125 -0.34375 -1.046875l0 -7.203125l0.953125 0l0 6.9375zm6.8165283 0.984375q-0.359375 0.296875 -0.90625 0.46875q-0.53125 0.15625 -1.15625 0.15625q-0.671875 0 -1.1875 -0.21875q-0.5 -0.21875 -0.828125 -0.625q-0.3125 -0.421875 -0.46875 -1.0q-0.15625 -0.578125 -0.15625 -1.296875q0 -1.53125 0.671875 -2.328125q0.6875 -0.8125 1.96875 -0.8125q0.40625 0 0.8125 0.09375q0.40625 0.078125 0.71875 0.34375q0.328125 0.25 0.53125 0.71875q0.21875 0.453125 0.21875 1.203125q0 0.390625 -0.078125 0.875l-3.859375 0q0 0.53125 0.109375 0.9375q0.109375 0.40625 0.328125 0.6875q0.234375 0.28125 0.59375 0.4375q0.375 0.140625 0.90625 0.140625q0.40625 0 0.8125 -0.140625q0.40625 -0.140625 0.609375 -0.328125l0.359375 0.6875zm-2.0625 -4.8125q-0.703125 0 -1.125 0.375q-0.421875 0.359375 -0.515625 1.265625l2.984375 0q0 -0.921875 -0.359375 -1.28125q-0.34375 -0.359375 -0.984375 -0.359375zm3.4554138 4.75q0 -0.328125 0.171875 -0.515625q0.1875 -0.1875 0.5 -0.1875q0.328125 0 0.515625 0.1875q0.203125 0.1875 0.203125 0.515625q0 0.3125 -0.203125 0.5q-0.1875 0.1875 -0.515625 0.1875q-0.3125 0 -0.5 -0.1875q-0.171875 -0.1875 -0.171875 -0.5zm6.9898987 0.15625q-0.359375 0.265625 -0.859375 0.390625q-0.484375 0.140625 -1.03125 0.140625q-0.6875 0 -1.171875 -0.21875q-0.484375 -0.21875 -0.796875 -0.625q-0.296875 -0.421875 -0.4375 -1.0q-0.125 -0.59375 -0.125 -1.296875q0 -1.53125 0.671875 -2.328125q0.671875 -0.8125 1.921875 -0.8125q0.578125 0 0.984375 0.09375q0.40625 0.078125 0.71875 0.25l-0.265625 0.828125q-0.28125 -0.15625 -0.625 -0.234375q-0.328125 -0.09375 -0.71875 -0.09375q-1.703125 0 -1.703125 2.296875q0 0.453125 0.09375 0.875q0.09375 0.40625 0.296875 0.734375q0.21875 0.3125 0.5625 0.5q0.34375 0.1875 0.84375 0.1875q0.421875 0 0.765625 -0.125q0.34375 -0.125 0.5625 -0.296875l0.3125 0.734375zm0.71414185 -2.609375q0 -1.53125 0.671875 -2.328125q0.671875 -0.8125 1.953125 -0.8125q0.671875 0 1.171875 0.21875q0.5 0.21875 0.8125 0.640625q0.328125 0.40625 0.484375 1.0q0.15625 0.578125 0.15625 1.28125q0 1.53125 -0.6875 2.34375q-0.671875 0.796875 -1.9375 0.796875q-0.671875 0 -1.171875 -0.21875q-0.5 -0.21875 -0.828125 -0.625q-0.3125 -0.421875 -0.46875 -1.0q-0.15625 -0.59375 -0.15625 -1.296875zm0.984375 0q0 0.453125 0.09375 0.875q0.09375 0.421875 0.28125 0.734375q0.1875 0.3125 0.5 0.5q0.3125 0.1875 0.765625 0.1875q1.625 0.015625 1.625 -2.296875q0 -0.46875 -0.09375 -0.890625q-0.078125 -0.421875 -0.28125 -0.734375q-0.1875 -0.3125 -0.5 -0.484375q-0.3125 -0.1875 -0.75 -0.1875q-1.640625 -0.015625 -1.640625 2.296875zm9.291443 3.0l0 -3.390625q0 -0.484375 -0.046875 -0.828125q-0.03125 -0.359375 -0.15625 -0.59375q-0.125 -0.25 -0.34375 -0.359375q-0.21875 -0.125 -0.578125 -0.125q-0.546875 0 -0.921875 0.34375q-0.359375 0.328125 -0.5 0.828125l0 4.125l-0.96875 0l0 -6.0l0.671875 0l0.1875 0.734375l0.046875 0q0.3125 -0.390625 0.734375 -0.625q0.4375 -0.25 1.125 -0.25q0.578125 0 0.9375 0.21875q0.359375 0.21875 0.578125 0.78125q0.265625 -0.46875 0.75 -0.734375q0.484375 -0.265625 1.109375 -0.265625q0.5 0 0.84375 0.109375q0.34375 0.109375 0.578125 0.40625q0.234375 0.28125 0.328125 0.78125q0.109375 0.484375 0.109375 1.25l0 3.59375l-0.96875 0l0 -3.609375q0 -0.4375 -0.046875 -0.75q-0.03125 -0.328125 -0.15625 -0.53125q-0.125 -0.203125 -0.359375 -0.296875q-0.21875 -0.109375 -0.578125 -0.109375q-0.59375 0 -0.9375 0.34375q-0.328125 0.328125 -0.46875 0.9375l0 4.015625l-0.96875 0z" fill-rule="nonzero"/><path fill="#000000" d="m186.8075 178.05563l0.203125 0.921875l0.0625 0l0.15625 -0.9375l1.03125 -3.125l1.671875 0l-2.5 6.0625l-0.953125 0l-2.609375 -6.0625l1.8125 0l1.125 3.140625zm3.5990448 -2.796875q0.484375 -0.21875 1.140625 -0.34375q0.671875 -0.125 1.390625 -0.125q0.625 0 1.03125 0.15625q0.421875 0.15625 0.671875 0.4375q0.25 0.265625 0.34375 0.65625q0.109375 0.375 0.109375 0.859375q0 0.53125 -0.046875 1.0625q-0.03125 0.53125 -0.03125 1.046875q0 0.515625 0.03125 1.0q0.03125 0.484375 0.171875 0.921875l-1.265625 0l-0.25 -0.828125l-0.0625 0q-0.234375 0.375 -0.671875 0.640625q-0.421875 0.265625 -1.09375 0.265625q-0.421875 0 -0.765625 -0.125q-0.328125 -0.125 -0.5625 -0.359375q-0.234375 -0.234375 -0.375 -0.546875q-0.125 -0.328125 -0.125 -0.71875q0 -0.546875 0.234375 -0.921875q0.25 -0.390625 0.703125 -0.625q0.46875 -0.234375 1.109375 -0.3125q0.640625 -0.09375 1.4375 -0.0625q0.09375 -0.671875 -0.09375 -0.96875q-0.1875 -0.296875 -0.796875 -0.296875q-0.46875 0 -1.0 0.109375q-0.515625 0.09375 -0.859375 0.25l-0.375 -1.171875zm1.984375 4.46875q0.46875 0 0.734375 -0.203125q0.28125 -0.21875 0.421875 -0.453125l0 -0.78125q-0.375 -0.03125 -0.71875 0q-0.34375 0.015625 -0.609375 0.09375q-0.25 0.078125 -0.40625 0.234375q-0.15625 0.15625 -0.15625 0.40625q0 0.328125 0.1875 0.515625q0.203125 0.1875 0.546875 0.1875zm5.6239166 -0.828125q0 0.421875 0.109375 0.609375q0.109375 0.1875 0.34375 0.1875q0.140625 0 0.28125 -0.015625q0.140625 -0.03125 0.34375 -0.109375l0.171875 1.21875q-0.203125 0.09375 -0.59375 0.1875q-0.390625 0.109375 -0.8125 0.109375q-0.6875 0 -1.046875 -0.3125q-0.359375 -0.328125 -0.359375 -1.0625l0 -7.203125l1.5625 0l0 6.390625zm3.4186554 -3.984375l0 3.40625q0 0.734375 0.171875 1.0625q0.171875 0.3125 0.671875 0.3125q0.453125 0 0.734375 -0.25q0.296875 -0.265625 0.453125 -0.65625l0 -3.875l1.546875 0l0 4.171875q0 0.5 0.046875 0.96875q0.0625 0.46875 0.15625 0.859375l-1.1875 0l-0.265625 -0.890625l-0.046875 0q-0.28125 0.453125 -0.78125 0.765625q-0.484375 0.296875 -1.15625 0.296875q-0.453125 0 -0.8125 -0.125q-0.359375 -0.125 -0.609375 -0.390625q-0.234375 -0.28125 -0.359375 -0.75q-0.125 -0.46875 -0.125 -1.171875l0 -3.734375l1.5625 0zm9.752914 5.484375q-0.359375 0.28125 -0.984375 0.484375q-0.609375 0.203125 -1.3125 0.203125q-1.453125 0 -2.125 -0.84375q-0.671875 -0.859375 -0.671875 -2.328125q0 -1.578125 0.75 -2.375q0.765625 -0.796875 2.140625 -0.796875q0.453125 0 0.875 0.125q0.4375 0.125 0.765625 0.40625q0.34375 0.265625 0.546875 0.734375q0.203125 0.46875 0.203125 1.15625q0 0.265625 -0.03125 0.546875q-0.03125 0.28125 -0.078125 0.59375l-3.609375 0q0.03125 0.765625 0.390625 1.15625q0.359375 0.375 1.140625 0.375q0.5 0 0.890625 -0.140625q0.390625 -0.15625 0.59375 -0.3125l0.515625 1.015625zm-2.234375 -4.40625q-0.609375 0 -0.90625 0.375q-0.296875 0.359375 -0.359375 0.96875l2.234375 0q0.046875 -0.640625 -0.203125 -0.984375q-0.234375 -0.359375 -0.765625 -0.359375z" fill-rule="nonzero"/><path fill="#000000" d="m233.0575 172.60251q0.453125 -0.09375 1.046875 -0.140625q0.59375 -0.046875 1.09375 -0.046875q0.546875 0 1.046875 0.125q0.5 0.125 0.875 0.40625q0.375 0.265625 0.609375 0.71875q0.234375 0.4375 0.234375 1.0625q0 0.984375 -0.546875 1.609375q-0.53125 0.609375 -1.359375 0.8125l0.5625 0.4375l2.09375 3.328125l-1.15625 0l-2.328125 -3.625l-1.171875 -0.171875l0 3.796875l-1.0 0l0 -8.3125zm2.171875 0.6875q-0.15625 0 -0.328125 0q-0.171875 0 -0.328125 0.015625q-0.15625 0 -0.296875 0.015625q-0.140625 0.015625 -0.21875 0.03125l0 3.09375l0.9375 0q0.828125 0 1.359375 -0.40625q0.546875 -0.40625 0.546875 -1.265625q0 -0.65625 -0.453125 -1.0625q-0.4375 -0.421875 -1.21875 -0.421875zm3.9702911 4.625q0 -1.53125 0.671875 -2.328125q0.671875 -0.8125 1.953125 -0.8125q0.671875 0 1.171875 0.21875q0.5 0.21875 0.8125 0.640625q0.328125 0.40625 0.484375 1.0q0.15625 0.578125 0.15625 1.28125q0 1.53125 -0.6875 2.34375q-0.671875 0.796875 -1.9375 0.796875q-0.671875 0 -1.171875 -0.21875q-0.5 -0.21875 -0.828125 -0.625q-0.3125 -0.421875 -0.46875 -1.0q-0.15625 -0.59375 -0.15625 -1.296875zm0.984375 0q0 0.453125 0.09375 0.875q0.09375 0.421875 0.28125 0.734375q0.1875 0.3125 0.5 0.5q0.3125 0.1875 0.765625 0.1875q1.625 0.015625 1.625 -2.296875q0 -0.46875 -0.09375 -0.890625q-0.078125 -0.421875 -0.28125 -0.734375q-0.1875 -0.3125 -0.5 -0.484375q-0.3125 -0.1875 -0.75 -0.1875q-1.640625 -0.015625 -1.640625 2.296875zm5.7758026 -5.40625l0.96875 0l0 3.0l0.046875 0q0.265625 -0.359375 0.6875 -0.546875q0.4375 -0.1875 0.9375 -0.1875q1.171875 0 1.75 0.75q0.578125 0.734375 0.578125 2.296875q0 1.5625 -0.765625 2.390625q-0.765625 0.8125 -2.15625 0.8125q-0.671875 0 -1.21875 -0.140625q-0.546875 -0.15625 -0.828125 -0.3125l0 -8.0625zm2.46875 3.109375q-0.59375 0 -0.96875 0.34375q-0.375 0.328125 -0.53125 0.9375l0 3.015625q0.21875 0.140625 0.546875 0.203125q0.328125 0.0625 0.671875 0.0625q0.8125 0 1.296875 -0.578125q0.484375 -0.578125 0.484375 -1.796875q0 -0.46875 -0.078125 -0.875q-0.078125 -0.40625 -0.265625 -0.6875q-0.171875 -0.296875 -0.46875 -0.453125q-0.28125 -0.171875 -0.6875 -0.171875zm8.3862915 4.8125q-0.359375 0.296875 -0.90625 0.46875q-0.53125 0.15625 -1.15625 0.15625q-0.671875 0 -1.1875 -0.21875q-0.5 -0.21875 -0.828125 -0.625q-0.3125 -0.421875 -0.46875 -1.0q-0.15625 -0.578125 -0.15625 -1.296875q0 -1.53125 0.671875 -2.328125q0.6875 -0.8125 1.96875 -0.8125q0.40625 0 0.8125 0.09375q0.40625 0.078125 0.71875 0.34375q0.328125 0.25 0.53125 0.71875q0.21875 0.453125 0.21875 1.203125q0 0.390625 -0.078125 0.875l-3.859375 0q0 0.53125 0.109375 0.9375q0.109375 0.40625 0.328125 0.6875q0.234375 0.28125 0.59375 0.4375q0.375 0.140625 0.90625 0.140625q0.40625 0 0.8125 -0.140625q0.40625 -0.140625 0.609375 -0.328125l0.359375 0.6875zm-2.0625 -4.8125q-0.703125 0 -1.125 0.375q-0.421875 0.359375 -0.515625 1.265625l2.984375 0q0 -0.921875 -0.359375 -1.28125q-0.34375 -0.359375 -0.984375 -0.359375zm6.611664 0.21875q-0.359375 -0.125 -0.671875 -0.125q-0.515625 0 -0.828125 0.296875q-0.296875 0.28125 -0.359375 0.703125l0 4.203125l-0.96875 0l0 -6.0l0.671875 0l0.1875 0.734375l0.046875 0q0.21875 -0.40625 0.53125 -0.625q0.328125 -0.234375 0.828125 -0.234375q0.34375 0 0.765625 0.125l-0.203125 0.921875zm0.81503296 -0.921875l0.9375 0l0 -1.1875l0.96875 -0.28125l0 1.46875l1.625 0l0 0.84375l-1.625 0l0 3.3125q0 0.625 0.15625 0.890625q0.15625 0.25 0.53125 0.25q0.3125 0 0.515625 -0.0625q0.21875 -0.0625 0.484375 -0.171875l0.21875 0.734375q-0.328125 0.15625 -0.71875 0.25q-0.375 0.09375 -0.8125 0.09375q-0.734375 0 -1.046875 -0.40625q-0.296875 -0.421875 -0.296875 -1.390625l0 -3.5l-0.9375 0l0 -0.84375z" fill-rule="nonzero"/><path fill="#000000" d="m188.40125 197.91501l0 -3.40625q0 -0.734375 -0.21875 -1.046875q-0.203125 -0.328125 -0.703125 -0.328125q-0.453125 0 -0.765625 0.265625q-0.296875 0.25 -0.421875 0.625l0 3.890625l-1.5625 0l0 -6.0l1.234375 0l0.171875 0.796875l0.046875 0q0.28125 -0.390625 0.734375 -0.671875q0.46875 -0.296875 1.1875 -0.296875q0.4375 0 0.78125 0.125q0.359375 0.125 0.59375 0.40625q0.234375 0.265625 0.359375 0.75q0.125 0.46875 0.125 1.15625l0 3.734375l-1.5625 0zm7.665039 -0.515625q-0.359375 0.28125 -0.984375 0.484375q-0.609375 0.203125 -1.3125 0.203125q-1.453125 0 -2.125 -0.84375q-0.671875 -0.859375 -0.671875 -2.328125q0 -1.578125 0.75 -2.375q0.765625 -0.796875 2.140625 -0.796875q0.453125 0 0.875 0.125q0.4375 0.125 0.765625 0.40625q0.34375 0.265625 0.546875 0.734375q0.203125 0.46875 0.203125 1.15625q0 0.265625 -0.03125 0.546875q-0.03125 0.28125 -0.078125 0.59375l-3.609375 0q0.03125 0.765625 0.390625 1.15625q0.359375 0.375 1.140625 0.375q0.5 0 0.890625 -0.140625q0.390625 -0.15625 0.59375 -0.3125l0.515625 1.015625zm-2.234375 -4.40625q-0.609375 0 -0.90625 0.375q-0.296875 0.359375 -0.359375 0.96875l2.234375 0q0.046875 -0.640625 -0.203125 -0.984375q-0.234375 -0.359375 -0.765625 -0.359375zm4.640915 1.84375l-1.8125 -2.921875l1.859375 0l0.78125 1.28125l0.34375 0.84375l0.359375 -0.84375l0.8125 -1.28125l1.6875 0l-1.8125 2.875l1.9375 3.125l-1.8125 0l-0.921875 -1.4375l-0.359375 -0.890625l-0.390625 0.890625l-0.921875 1.4375l-1.703125 0l1.953125 -3.078125zm4.315674 -2.921875l0.828125 0l0 -1.125l1.5625 -0.453125l0 1.578125l1.453125 0l0 1.3125l-1.453125 0l0 2.3125q0 0.625 0.125 0.890625q0.125 0.265625 0.46875 0.265625q0.234375 0 0.40625 -0.046875q0.1875 -0.046875 0.40625 -0.140625l0.265625 1.203125q-0.328125 0.15625 -0.765625 0.265625q-0.421875 0.109375 -0.859375 0.109375q-0.828125 0 -1.21875 -0.421875q-0.390625 -0.4375 -0.390625 -1.40625l0 -3.03125l-0.828125 0l0 -1.3125z" fill-rule="nonzero"/><path fill="#000000" d="m236.82312 197.91501l0 -3.421875q0 -0.9375 -0.28125 -1.40625q-0.265625 -0.46875 -0.984375 -0.46875q-0.640625 0 -1.0625 0.34375q-0.40625 0.328125 -0.5625 0.84375l0 4.109375l-0.96875 0l0 -6.0l0.671875 0l0.1875 0.734375l0.046875 0q0.28125 -0.390625 0.765625 -0.625q0.484375 -0.25 1.15625 -0.25q0.5 0 0.859375 0.109375q0.375 0.109375 0.625 0.40625q0.25 0.28125 0.375 0.765625q0.125 0.484375 0.125 1.234375l0 3.625l-0.953125 0zm3.5640411 -6.0l0 3.421875q0 0.46875 0.046875 0.828125q0.0625 0.34375 0.1875 0.578125q0.140625 0.234375 0.359375 0.359375q0.234375 0.109375 0.59375 0.109375q0.3125 0 0.5625 -0.09375q0.265625 -0.109375 0.453125 -0.28125q0.203125 -0.1875 0.34375 -0.421875q0.15625 -0.234375 0.25 -0.484375l0 -4.015625l0.96875 0l0 4.296875q0 0.4375 0.03125 0.90625q0.03125 0.453125 0.09375 0.796875l-0.65625 0l-0.234375 -0.953125l-0.0625 0q-0.28125 0.46875 -0.75 0.78125q-0.46875 0.3125 -1.1875 0.3125q-0.484375 0 -0.84375 -0.109375q-0.359375 -0.109375 -0.609375 -0.390625q-0.25 -0.296875 -0.375 -0.78125q-0.125 -0.484375 -0.125 -1.234375l0 -3.625l0.953125 0zm6.671173 4.53125q0 0.40625 0.140625 0.59375q0.15625 0.171875 0.421875 0.171875q0.15625 0 0.328125 -0.015625q0.1875 -0.03125 0.40625 -0.109375l0.109375 0.75q-0.1875 0.109375 -0.53125 0.15625q-0.34375 0.0625 -0.59375 0.0625q-0.53125 0 -0.890625 -0.296875q-0.34375 -0.3125 -0.34375 -1.046875l0 -7.203125l0.953125 0l0 6.9375zm3.5040283 0q0 0.40625 0.140625 0.59375q0.15625 0.171875 0.421875 0.171875q0.15625 0 0.328125 -0.015625q0.1875 -0.03125 0.40625 -0.109375l0.109375 0.75q-0.1875 0.109375 -0.53125 0.15625q-0.34375 0.0625 -0.59375 0.0625q-0.53125 0 -0.890625 -0.296875q-0.34375 -0.3125 -0.34375 -1.046875l0 -7.203125l0.953125 0l0 6.9375z" fill-rule="nonzero"/><path fill="#000000" fill-opacity="0.0" d="m92.47873 149.5295c19.800766 0 29.699966 7.0944824 39.601547 14.18898c9.901566 7.0944824 19.805527 14.188965 39.611053 14.188965" fill-rule="evenodd"/><path stroke="#000000" stroke-width="2.0" stroke-linejoin="round" stroke-linecap="butt" d="m100.04926 149.90804l0.22303772 0.022628784c0.26892853 0.02897644 0.5357895 0.059448242 0.8006058 0.09138489c0.52963257 0.06387329 1.0511093 0.1335907 1.5647354 0.2089386c1.0272446 0.15068054 2.023056 0.32388306 2.9898682 0.51786804c3.867241 0.77597046 7.2703934 1.8844757 10.3641815 3.2146912c6.187599 2.660431 11.137787 6.2076874 16.08857 9.754929c4.9507904 3.5472412 9.902176 7.0944824 16.091553 9.754913c3.094696 1.3302155 6.498871 2.4387207 10.367233 3.2146912c0.24177551 0.04849243 0.48536682 0.095687866 0.7307892 0.14155579l0.46276855 0.083343506" fill-rule="evenodd"/><path fill="#000000" stroke="#000000" stroke-width="2.0" stroke-linecap="butt" d="m93.47748 149.57944c0.09074402 -1.8147583 1.6354446 -3.2123413 3.4501953 -3.1215973c1.8147507 0.09074402 3.2123337 1.6354523 3.1215973 3.4501953c-0.09074402 1.8147583 -1.6354523 3.2123413 -3.4501953 3.1215973c-1.8147507 -0.09074402 -3.2123413 -1.6354523 -3.1215973 -3.4501953z" fill-rule="nonzero"/><path fill="#000000" stroke="#000000" stroke-width="2.0" stroke-linecap="butt" d="m159.45883 180.20508l9.318741 -2.5399323l-8.77121 -4.0442657z" fill-rule="evenodd"/></g></svg>