<svg version="1.1" viewBox="0.0 0.0 869.7952755905512 303.6745406824147" fill="none" stroke="none" stroke-linecap="square" stroke-miterlimit="10" xmlns:xlink="http://www.w3.org/1999/xlink" xmlns="http://www.w3.org/2000/svg"><clipPath id="p.0"><path d="m0 0l869.7953 0l0 303.67453l-869.7953 0l0 -303.67453z" clip-rule="nonzero"/></clipPath><g clip-path="url(#p.0)"><path fill="#000000" fill-opacity="0.0" d="m0 0l869.7953 0l0 303.67453l-869.7953 0z" fill-rule="evenodd"/><path stroke="#000000" stroke-width="3.0" stroke-linecap="butt" d="m11.338583 37.6168l0 62.45932" fill-rule="nonzero"/><path stroke="#000000" stroke-width="3.0" stroke-linecap="butt" d="m68.46719 37.6168l0 62.45932" fill-rule="nonzero"/><path stroke="#000000" stroke-width="3.0" stroke-linecap="butt" d="m125.5958 37.6168l0 62.45932" fill-rule="nonzero"/><path stroke="#000000" stroke-width="3.0" stroke-linecap="butt" d="m182.72441 37.6168l0 62.45932" fill-rule="nonzero"/><path stroke="#000000" stroke-width="3.0" stroke-linecap="butt" d="m239.85301 37.6168l0 62.45932" fill-rule="nonzero"/><path stroke="#000000" stroke-width="3.0" stroke-linecap="butt" d="m296.98163 37.6168l0 62.45932" fill-rule="nonzero"/><path stroke="#000000" stroke-width="3.0" stroke-linecap="butt" d="m354.11023 37.6168l0 62.45932" fill-rule="nonzero"/><path stroke="#000000" stroke-width="3.0" stroke-linecap="butt" d="m411.23883 37.6168l0 62.45932" fill-rule="nonzero"/><path stroke="#000000" stroke-width="3.0" stroke-linecap="butt" d="m9.839895 39.115486l285.64304 0" fill-rule="nonzero"/><path stroke="#000000" stroke-width="3.0" stroke-linecap="butt" stroke-dasharray="12.0,9.0" d="m295.48294 39.115486l57.1286 0" fill-rule="nonzero"/><path stroke="#000000" stroke-width="3.0" stroke-linecap="butt" d="m352.61154 39.115486l60.125977 0" fill-rule="nonzero"/><path stroke="#000000" stroke-width="3.0" stroke-linecap="butt" d="m9.839895 98.57743l285.64304 0" fill-rule="nonzero"/><path stroke="#000000" stroke-width="3.0" stroke-linecap="butt" stroke-dasharray="12.0,9.0" d="m295.48294 98.57743l57.1286 0" fill-rule="nonzero"/><path stroke="#000000" stroke-width="3.0" stroke-linecap="butt" d="m352.61154 98.57743l60.125977 0" fill-rule="nonzero"/><path fill="#000000" d="m35.312263 26.315487q0 -3.59375 1.171875 -5.40625q1.171875 -1.828125 3.40625 -1.828125q2.421875 0 3.515625 1.796875q1.09375 1.78125 1.09375 5.4375q0 3.59375 -1.171875 5.421875q-1.171875 1.8125 -3.4375 1.8125q-2.375 0 -3.484375 -1.890625q-1.09375 -1.90625 -1.09375 -5.34375zm1.65625 0q0 1.296875 0.171875 2.375q0.171875 1.0625 0.53125 1.84375q0.359375 0.765625 0.90625 1.203125q0.5625 0.421875 1.3125 0.421875q1.515625 0 2.21875 -1.40625q0.71875 -1.421875 0.71875 -4.4375q0 -1.28125 -0.15625 -2.359375q-0.140625 -1.078125 -0.5 -1.859375q-0.34375 -0.78125 -0.90625 -1.203125q-0.546875 -0.421875 -1.375 -0.421875q-1.5 0 -2.21875 1.421875q-0.703125 1.421875 -0.703125 4.421875z" fill-rule="nonzero"/><path fill="#000000" d="m93.73775 31.831112l2.796875 0l0 -9.671875l0.203125 -1.1875l-0.796875 0.9375l-2.203125 1.59375l-0.75 -1.03125l4.390625 -3.390625l0.71875 0l0 12.75l2.75 0l0 1.484375l-7.109375 0l0 -1.484375z" fill-rule="nonzero"/><path fill="#000000" d="m157.63199 22.502987q0 1.046875 -0.390625 2.15625q-0.390625 1.109375 -1.03125 2.234375q-0.625 1.125 -1.40625 2.203125q-0.78125 1.0625 -1.546875 2.015625l-0.984375 0.859375l0 0.078125l1.28125 -0.21875l4.359375 0l0 1.484375l-7.96875 0l0 -0.578125q0.453125 -0.46875 1.0625 -1.140625q0.625 -0.6875 1.296875 -1.515625q0.671875 -0.828125 1.3125 -1.75q0.65625 -0.9375 1.1875 -1.890625q0.53125 -0.96875 0.84375 -1.90625q0.328125 -0.9375 0.328125 -1.78125q0 -0.984375 -0.5625 -1.625q-0.5625 -0.65625 -1.703125 -0.65625q-0.765625 0 -1.484375 0.3125q-0.71875 0.3125 -1.234375 0.71875l-0.65625 -1.140625q0.6875 -0.609375 1.640625 -0.9375q0.96875 -0.34375 2.078125 -0.34375q0.859375 0 1.515625 0.25q0.65625 0.25 1.109375 0.71875q0.46875 0.453125 0.703125 1.078125q0.25 0.625 0.25 1.375z" fill-rule="nonzero"/><path fill="#000000" d="m210.52621 32.159237q0.671875 0 1.25 -0.203125q0.578125 -0.203125 1.0 -0.59375q0.421875 -0.390625 0.65625 -0.921875q0.25 -0.546875 0.25 -1.1875q0 -1.390625 -0.828125 -2.0625q-0.828125 -0.6875 -2.296875 -0.6875l-1.484375 0l0 -0.59375l2.890625 -4.4375l0.921875 -0.875l-1.3125 0.203125l-3.953125 0l0 -1.484375l7.140625 0l0 0.578125l-3.1875 4.78125l-0.6875 0.578125l0 0.046875l0.671875 -0.140625q0.796875 0.015625 1.46875 0.296875q0.6875 0.265625 1.1875 0.78125q0.5 0.5 0.78125 1.21875q0.28125 0.703125 0.28125 1.59375q0 1.078125 -0.375 1.921875q-0.375 0.84375 -1.03125 1.421875q-0.65625 0.5625 -1.53125 0.859375q-0.875 0.296875 -1.859375 0.296875q-0.90625 0 -1.625 -0.140625q-0.71875 -0.140625 -1.25 -0.359375l0.421875 -1.421875q0.453125 0.234375 1.078125 0.390625q0.640625 0.140625 1.421875 0.140625z" fill-rule="nonzero"/><path fill="#000000" d="m273.4517 29.018612l-2.359375 0l0 4.296875l-1.5625 0l0 -4.296875l-6.15625 0l0 -0.65625l6.640625 -9.265625l1.078125 0l0 8.515625l2.359375 0l0 1.40625zm-3.921875 -5.765625l0.203125 -1.640625l-0.0625 0l-0.703125 1.359375l-2.8125 3.828125l-0.96875 0.96875l1.40625 -0.15625l2.9375 0l0 -4.359375z" fill-rule="nonzero"/><path fill="#000000" d="m378.58392 29.971737q0 -1.25 0.65625 -2.171875q0.671875 -0.9375 2.0625 -1.703125q-0.5 -0.296875 -0.9375 -0.625q-0.421875 -0.34375 -0.75 -0.75q-0.328125 -0.421875 -0.515625 -0.9375q-0.1875 -0.53125 -0.1875 -1.203125q0 -0.78125 0.265625 -1.421875q0.265625 -0.640625 0.765625 -1.09375q0.515625 -0.46875 1.21875 -0.71875q0.71875 -0.265625 1.625 -0.265625q0.84375 0 1.515625 0.234375q0.6875 0.234375 1.15625 0.65625q0.46875 0.421875 0.71875 1.0q0.265625 0.578125 0.265625 1.28125q0 1.140625 -0.515625 2.015625q-0.515625 0.859375 -1.71875 1.703125q0.515625 0.296875 0.984375 0.671875q0.46875 0.359375 0.8125 0.796875q0.359375 0.4375 0.5625 0.984375q0.203125 0.546875 0.203125 1.25q0 0.859375 -0.28125 1.578125q-0.28125 0.703125 -0.828125 1.21875q-0.53125 0.5 -1.3125 0.796875q-0.78125 0.28125 -1.78125 0.28125q-0.96875 0 -1.703125 -0.265625q-0.734375 -0.28125 -1.25 -0.765625q-0.515625 -0.484375 -0.78125 -1.125q-0.25 -0.65625 -0.25 -1.421875zm6.625 -0.203125q0 -0.59375 -0.25 -1.046875q-0.234375 -0.453125 -0.625 -0.8125q-0.390625 -0.375 -0.890625 -0.671875q-0.5 -0.296875 -1.03125 -0.578125q-1.234375 0.671875 -1.75 1.515625q-0.515625 0.84375 -0.515625 1.59375q0 0.484375 0.15625 0.921875q0.15625 0.4375 0.46875 0.765625q0.328125 0.3125 0.796875 0.515625q0.46875 0.1875 1.09375 0.1875q0.5 0 0.953125 -0.140625q0.46875 -0.15625 0.8125 -0.453125q0.359375 -0.296875 0.5625 -0.734375q0.21875 -0.453125 0.21875 -1.0625zm-4.75 -7.234375q0 0.5625 0.21875 1.0q0.234375 0.421875 0.59375 0.765625q0.375 0.328125 0.84375 0.625q0.484375 0.296875 1.015625 0.546875q0.890625 -0.703125 1.3125 -1.375q0.4375 -0.6875 0.4375 -1.5q0 -1.015625 -0.625 -1.5625q-0.625 -0.5625 -1.515625 -0.5625q-0.53125 0 -0.953125 0.1875q-0.421875 0.171875 -0.71875 0.453125q-0.296875 0.28125 -0.453125 0.65625q-0.15625 0.359375 -0.15625 0.765625z" fill-rule="nonzero"/><path fill="#000000" d="m38.542892 72.49958q-0.015625 -0.09375 -0.015625 -0.203125q0 -0.125 0 -0.234375q0 -0.828125 0.25 -1.46875q0.25 -0.640625 0.609375 -1.171875q0.375 -0.53125 0.796875 -0.984375q0.4375 -0.46875 0.796875 -0.9375q0.375 -0.46875 0.625 -1.0q0.25 -0.53125 0.25 -1.21875q0 -0.921875 -0.53125 -1.5q-0.515625 -0.578125 -1.765625 -0.578125q-0.71875 0 -1.46875 0.25q-0.734375 0.25 -1.265625 0.59375l-0.546875 -1.234375q0.765625 -0.46875 1.609375 -0.734375q0.84375 -0.265625 2.078125 -0.265625q0.875 0 1.546875 0.25q0.671875 0.25 1.125 0.6875q0.453125 0.4375 0.671875 1.046875q0.21875 0.59375 0.21875 1.265625q0 0.90625 -0.28125 1.578125q-0.265625 0.671875 -0.671875 1.21875q-0.40625 0.546875 -0.875 1.03125q-0.46875 0.46875 -0.890625 1.0q-0.40625 0.53125 -0.6875 1.15625q-0.265625 0.625 -0.265625 1.453125l-1.3125 0zm-0.40625 2.625q0 -0.53125 0.3125 -0.84375q0.3125 -0.3125 0.828125 -0.3125q0.546875 0 0.859375 0.3125q0.328125 0.3125 0.328125 0.84375q0 0.515625 -0.328125 0.84375q-0.3125 0.3125 -0.859375 0.3125q-0.515625 0 -0.828125 -0.3125q-0.3125 -0.328125 -0.3125 -0.84375z" fill-rule="nonzero"/><path fill="#000000" d="m95.6715 72.49958q-0.015625 -0.09375 -0.015625 -0.203125q0 -0.125 0 -0.234375q0 -0.828125 0.25 -1.46875q0.25 -0.640625 0.609375 -1.171875q0.375 -0.53125 0.796875 -0.984375q0.4375 -0.46875 0.796875 -0.9375q0.375 -0.46875 0.625 -1.0q0.25 -0.53125 0.25 -1.21875q0 -0.921875 -0.53125 -1.5q-0.515625 -0.578125 -1.765625 -0.578125q-0.71875 0 -1.46875 0.25q-0.734375 0.25 -1.265625 0.59375l-0.546875 -1.234375q0.765625 -0.46875 1.609375 -0.734375q0.84375 -0.265625 2.078125 -0.265625q0.875 0 1.546875 0.25q0.671875 0.25 1.125 0.6875q0.453125 0.4375 0.671875 1.046875q0.21875 0.59375 0.21875 1.265625q0 0.90625 -0.28125 1.578125q-0.265625 0.671875 -0.671875 1.21875q-0.40625 0.546875 -0.875 1.03125q-0.46875 0.46875 -0.890625 1.0q-0.40625 0.53125 -0.6875 1.15625q-0.265625 0.625 -0.265625 1.453125l-1.3125 0zm-0.40625 2.625q0 -0.53125 0.3125 -0.84375q0.3125 -0.3125 0.828125 -0.3125q0.546875 0 0.859375 0.3125q0.328125 0.3125 0.328125 0.84375q0 0.515625 -0.328125 0.84375q-0.3125 0.3125 -0.859375 0.3125q-0.515625 0 -0.828125 -0.3125q-0.3125 -0.328125 -0.3125 -0.84375z" fill-rule="nonzero"/><path fill="#000000" d="m152.80011 72.49958q-0.015625 -0.09375 -0.015625 -0.203125q0 -0.125 0 -0.234375q0 -0.828125 0.25 -1.46875q0.25 -0.640625 0.609375 -1.171875q0.375 -0.53125 0.796875 -0.984375q0.4375 -0.46875 0.796875 -0.9375q0.375 -0.46875 0.625 -1.0q0.25 -0.53125 0.25 -1.21875q0 -0.921875 -0.53125 -1.5q-0.515625 -0.578125 -1.765625 -0.578125q-0.71875 0 -1.46875 0.25q-0.734375 0.25 -1.265625 0.59375l-0.546875 -1.234375q0.765625 -0.46875 1.609375 -0.734375q0.84375 -0.265625 2.078125 -0.265625q0.875 0 1.546875 0.25q0.671875 0.25 1.125 0.6875q0.453125 0.4375 0.671875 1.046875q0.21875 0.59375 0.21875 1.265625q0 0.90625 -0.28125 1.578125q-0.265625 0.671875 -0.671875 1.21875q-0.40625 0.546875 -0.875 1.03125q-0.46875 0.46875 -0.890625 1.0q-0.40625 0.53125 -0.6875 1.15625q-0.265625 0.625 -0.265625 1.453125l-1.3125 0zm-0.40625 2.625q0 -0.53125 0.3125 -0.84375q0.3125 -0.3125 0.828125 -0.3125q0.546875 0 0.859375 0.3125q0.328125 0.3125 0.328125 0.84375q0 0.515625 -0.328125 0.84375q-0.3125 0.3125 -0.859375 0.3125q-0.515625 0 -0.828125 -0.3125q-0.3125 -0.328125 -0.3125 -0.84375z" fill-rule="nonzero"/><path fill="#000000" d="m209.92873 72.49958q-0.015625 -0.09375 -0.015625 -0.203125q0 -0.125 0 -0.234375q0 -0.828125 0.25 -1.46875q0.25 -0.640625 0.609375 -1.171875q0.375 -0.53125 0.796875 -0.984375q0.4375 -0.46875 0.796875 -0.9375q0.375 -0.46875 0.625 -1.0q0.25 -0.53125 0.25 -1.21875q0 -0.921875 -0.53125 -1.5q-0.515625 -0.578125 -1.765625 -0.578125q-0.71875 0 -1.46875 0.25q-0.734375 0.25 -1.265625 0.59375l-0.546875 -1.234375q0.765625 -0.46875 1.609375 -0.734375q0.84375 -0.265625 2.078125 -0.265625q0.875 0 1.546875 0.25q0.671875 0.25 1.125 0.6875q0.453125 0.4375 0.671875 1.046875q0.21875 0.59375 0.21875 1.265625q0 0.90625 -0.28125 1.578125q-0.265625 0.671875 -0.671875 1.21875q-0.40625 0.546875 -0.875 1.03125q-0.46875 0.46875 -0.890625 1.0q-0.40625 0.53125 -0.6875 1.15625q-0.265625 0.625 -0.265625 1.453125l-1.3125 0zm-0.40625 2.625q0 -0.53125 0.3125 -0.84375q0.3125 -0.3125 0.828125 -0.3125q0.546875 0 0.859375 0.3125q0.328125 0.3125 0.328125 0.84375q0 0.515625 -0.328125 0.84375q-0.3125 0.3125 -0.859375 0.3125q-0.515625 0 -0.828125 -0.3125q-0.3125 -0.328125 -0.3125 -0.84375z" fill-rule="nonzero"/><path fill="#000000" d="m274.01596 69.41236l-11.203125 0l0 10.703125l-2.765625 0l0 -23.328125l2.765625 0l0 10.15625l11.203125 0l0 -10.15625l2.765625 0l0 23.328125l-2.765625 0l0 -10.703125z" fill-rule="nonzero"/><path fill="#000000" d="m332.19482 78.584236q0 -0.90625 0.515625 -1.421875q0.515625 -0.515625 1.390625 -0.515625q0.890625 0 1.421875 0.515625q0.53125 0.515625 0.53125 1.421875q0 0.859375 -0.53125 1.40625q-0.53125 0.53125 -1.421875 0.53125q-0.875 0 -1.390625 -0.53125q-0.515625 -0.546875 -0.515625 -1.40625zm-8.46875 0q0 -0.90625 0.515625 -1.421875q0.515625 -0.515625 1.390625 -0.515625q0.890625 0 1.421875 0.515625q0.546875 0.515625 0.546875 1.421875q0 0.859375 -0.546875 1.40625q-0.53125 0.53125 -1.421875 0.53125q-0.875 0 -1.390625 -0.53125q-0.515625 -0.546875 -0.515625 -1.40625zm-8.46875 0q0 -0.90625 0.515625 -1.421875q0.53125 -0.515625 1.390625 -0.515625q0.90625 0 1.4375 0.515625q0.53125 0.515625 0.53125 1.421875q0 0.859375 -0.53125 1.40625q-0.53125 0.53125 -1.4375 0.53125q-0.859375 0 -1.390625 -0.53125q-0.515625 -0.546875 -0.515625 -1.40625z" fill-rule="nonzero"/><path fill="#000000" d="m381.22812 72.74521q-0.03125 -0.09375 -0.03125 -0.21875q0 -0.140625 0 -0.25q0 -0.890625 0.265625 -1.5625q0.28125 -0.6875 0.671875 -1.25q0.390625 -0.578125 0.84375 -1.0625q0.46875 -0.484375 0.859375 -0.984375q0.390625 -0.515625 0.65625 -1.078125q0.265625 -0.5625 0.265625 -1.28125q0 -0.984375 -0.5625 -1.59375q-0.5625 -0.625 -1.890625 -0.625q-0.765625 0 -1.5625 0.265625q-0.78125 0.265625 -1.359375 0.625l-0.5625 -1.328125q0.796875 -0.484375 1.6875 -0.765625q0.90625 -0.296875 2.234375 -0.296875q0.9375 0 1.640625 0.265625q0.71875 0.265625 1.203125 0.734375q0.484375 0.46875 0.71875 1.109375q0.234375 0.640625 0.234375 1.375q0 0.953125 -0.296875 1.671875q-0.28125 0.703125 -0.71875 1.296875q-0.4375 0.59375 -0.9375 1.109375q-0.5 0.5 -0.9375 1.0625q-0.4375 0.5625 -0.734375 1.234375q-0.28125 0.65625 -0.28125 1.546875l-1.40625 0zm-0.4375 2.796875q0 -0.578125 0.328125 -0.90625q0.34375 -0.328125 0.890625 -0.328125q0.578125 0 0.921875 0.328125q0.34375 0.328125 0.34375 0.90625q0 0.5625 -0.34375 0.90625q-0.34375 0.328125 -0.921875 0.328125q-0.546875 0 -0.890625 -0.328125q-0.328125 -0.34375 -0.328125 -0.90625z" fill-rule="nonzero"/><path fill="#000000" fill-opacity="0.0" d="m246.88977 120.15827l43.8425 0l0 29.385826l-43.8425 0z" fill-rule="evenodd"/><path fill="#000000" d="m256.26477 141.91827l0 -6.40625q0 -0.90625 -0.078125 -1.578125q-0.078125 -0.671875 -0.3125 -1.125q-0.21875 -0.453125 -0.640625 -0.671875q-0.40625 -0.234375 -1.09375 -0.234375q-1.046875 0 -1.734375 0.640625q-0.6875 0.625 -0.953125 1.578125l0 7.796875l-1.8125 0l0 -11.328125l1.265625 0l0.34375 1.375l0.078125 0q0.625 -0.71875 1.421875 -1.171875q0.796875 -0.46875 2.09375 -0.46875q1.09375 0 1.78125 0.421875q0.6875 0.40625 1.078125 1.453125q0.515625 -0.890625 1.4375 -1.375q0.921875 -0.5 2.078125 -0.5q0.9375 0 1.59375 0.21875q0.671875 0.203125 1.09375 0.75q0.4375 0.546875 0.625 1.484375q0.1875 0.921875 0.1875 2.34375l0 6.796875l-1.8125 0l0 -6.8125q0 -0.828125 -0.078125 -1.421875q-0.078125 -0.59375 -0.3125 -0.984375q-0.234375 -0.40625 -0.65625 -0.59375q-0.421875 -0.203125 -1.09375 -0.203125q-1.140625 0 -1.78125 0.640625q-0.625 0.625 -0.90625 1.8125l0 7.5625l-1.8125 0zm12.14682 -11.328125l1.8125 0l0 11.328125l-1.8125 0l0 -11.328125zm-0.375 -3.4375076q0 -0.53125 0.34375 -0.90625q0.359375 -0.375 0.890625 -0.375q0.546875 0 0.921875 0.375q0.390625 0.375 0.390625 0.90625q0 0.515625 -0.390625 0.8593826q-0.375 0.328125 -0.921875 0.328125q-0.53125 0 -0.890625 -0.328125q-0.34375 -0.34375763 -0.34375 -0.8593826zm14.759369 10.875008q0 1.15625 0.015625 2.09375q0.03125 0.9375 0.21875 1.84375l-1.21875 0l-0.453125 -1.609375l-0.09375 0q-0.453125 0.796875 -1.3125 1.3125q-0.859375 0.515625 -2.015625 0.515625q-2.265625 0 -3.375 -1.421875q-1.09375 -1.421875 -1.09375 -4.46875q0 -2.890625 1.359375 -4.390625q1.375 -1.515625 3.78125 -1.515625q0.84375 0 1.328125 0.09375q0.484375 0.09375 1.046875 0.296875l0 -4.7187576l1.8125 0l0 11.968758zm-4.5625 2.578125q1.140625 0 1.8125 -0.59375q0.6875 -0.609375 0.9375 -1.828125l0 -5.625q-0.40625 -0.3125 -0.921875 -0.453125q-0.515625 -0.140625 -1.375 -0.140625q-1.578125 0 -2.46875 1.03125q-0.875 1.03125 -0.875 3.296875q0 0.9375 0.140625 1.734375q0.15625 0.78125 0.5 1.359375q0.34375 0.5625 0.890625 0.890625q0.5625 0.328125 1.359375 0.328125z" fill-rule="nonzero"/><path fill="#000000" fill-opacity="0.0" d="m268.81104 120.15827l0 -21.51181" fill-rule="evenodd"/><path stroke="#000000" stroke-width="1.0" stroke-linejoin="round" stroke-linecap="butt" stroke-dasharray="1.0,3.0" d="m268.81104 120.15827l0 -15.51181" fill-rule="evenodd"/><path fill="#000000" stroke="#000000" stroke-width="1.0" stroke-linecap="butt" d="m270.46277 104.64646l-1.6517334 -4.538101l-1.6517334 4.538101z" fill-rule="evenodd"/><path shape-rendering="crispEdges" fill="#d9d9d9" d="m693.3517 39.125435l57.1286 0l0 59.461945l-57.1286 0l0 -59.461945z" fill-rule="nonzero"/><path shape-rendering="crispEdges" fill="#d9d9d9" d="m750.4803 39.125435l57.128662 0l0 59.461945l-57.128662 0l0 -59.461945z" fill-rule="nonzero"/><path shape-rendering="crispEdges" fill="#d9d9d9" d="m807.60895 39.125435l57.1286 0l0 59.461945l-57.1286 0l0 -59.461945z" fill-rule="nonzero"/><path stroke="#000000" stroke-width="3.0" stroke-linecap="butt" d="m464.83728 37.626747l0 62.45932" fill-rule="nonzero"/><path stroke="#000000" stroke-width="3.0" stroke-linecap="butt" d="m521.9659 37.626747l0 62.45932" fill-rule="nonzero"/><path stroke="#000000" stroke-width="3.0" stroke-linecap="butt" d="m579.0945 37.626747l0 62.45932" fill-rule="nonzero"/><path stroke="#000000" stroke-width="3.0" stroke-linecap="butt" d="m636.2231 37.626747l0 62.45932" fill-rule="nonzero"/><path stroke="#000000" stroke-width="3.0" stroke-linecap="butt" d="m693.3517 37.626747l0 62.45932" fill-rule="nonzero"/><path stroke="#000000" stroke-width="3.0" stroke-linecap="butt" d="m750.4803 37.626747l0 62.45932" fill-rule="nonzero"/><path stroke="#000000" stroke-width="3.0" stroke-linecap="butt" d="m807.60895 37.626747l0 62.45932" fill-rule="nonzero"/><path stroke="#000000" stroke-width="3.0" stroke-linecap="butt" d="m864.73755 37.626747l0 62.45932" fill-rule="nonzero"/><path stroke="#000000" stroke-width="3.0" stroke-linecap="butt" d="m463.3386 39.125435l285.64304 0" fill-rule="nonzero"/><path stroke="#000000" stroke-width="3.0" stroke-linecap="butt" stroke-dasharray="12.0,9.0" d="m748.9816 39.125435l57.1286 0" fill-rule="nonzero"/><path stroke="#000000" stroke-width="3.0" stroke-linecap="butt" d="m806.1102 39.125435l60.125977 0" fill-rule="nonzero"/><path stroke="#000000" stroke-width="3.0" stroke-linecap="butt" d="m463.3386 98.58738l285.64304 0" fill-rule="nonzero"/><path stroke="#000000" stroke-width="3.0" stroke-linecap="butt" stroke-dasharray="12.0,9.0" d="m748.9816 98.58738l57.1286 0" fill-rule="nonzero"/><path stroke="#000000" stroke-width="3.0" stroke-linecap="butt" d="m806.1102 98.58738l60.125977 0" fill-rule="nonzero"/><path fill="#000000" d="m488.81094 26.325438q0 -3.59375 1.171875 -5.40625q1.171875 -1.828125 3.40625 -1.828125q2.421875 0 3.515625 1.796875q1.09375 1.78125 1.09375 5.4375q0 3.59375 -1.171875 5.421875q-1.171875 1.8124981 -3.4375 1.8124981q-2.375 0 -3.484375 -1.8906231q-1.09375 -1.90625 -1.09375 -5.34375zm1.65625 0q0 1.296875 0.171875 2.375q0.171875 1.0625 0.53125 1.84375q0.359375 0.765625 0.90625 1.203125q0.5625 0.4218731 1.3125 0.4218731q1.515625 0 2.21875 -1.4062481q0.71875 -1.421875 0.71875 -4.4375q0 -1.28125 -0.15625 -2.359375q-0.140625 -1.078125 -0.5 -1.859375q-0.34375 -0.78125 -0.90625 -1.203125q-0.546875 -0.421875 -1.375 -0.421875q-1.5 0 -2.21875 1.421875q-0.703125 1.421875 -0.703125 4.421875z" fill-rule="nonzero"/><path fill="#000000" d="m547.23645 31.841063l2.796875 0l0 -9.671875l0.203125 -1.1875l-0.796875 0.9375l-2.203125 1.59375l-0.75 -1.03125l4.390625 -3.390625l0.71875 0l0 12.75l2.75 0l0 1.4843731l-7.109375 0l0 -1.4843731z" fill-rule="nonzero"/><path fill="#000000" d="m611.1307 22.512938q0 1.046875 -0.390625 2.15625q-0.390625 1.109375 -1.03125 2.234375q-0.625 1.125 -1.40625 2.203125q-0.78125 1.0625 -1.546875 2.015625l-0.984375 0.859375l0 0.07812309l1.28125 -0.2187481l4.359375 0l0 1.4843731l-7.96875 0l0 -0.578125q0.453125 -0.46875 1.0625 -1.1406231q0.625 -0.6875 1.296875 -1.515625q0.671875 -0.828125 1.3125 -1.75q0.65625 -0.9375 1.1875 -1.890625q0.53125 -0.96875 0.84375 -1.90625q0.328125 -0.9375 0.328125 -1.78125q0 -0.984375 -0.5625 -1.625q-0.5625 -0.65625 -1.703125 -0.65625q-0.765625 0 -1.484375 0.3125q-0.71875 0.3125 -1.234375 0.71875l-0.65625 -1.140625q0.6875 -0.609375 1.640625 -0.9375q0.96875 -0.34375 2.078125 -0.34375q0.859375 0 1.515625 0.25q0.65625 0.25 1.109375 0.71875q0.46875 0.453125 0.703125 1.078125q0.25 0.625 0.25 1.375z" fill-rule="nonzero"/><path fill="#000000" d="m664.0249 32.169186q0.671875 0 1.25 -0.2031231q0.578125 -0.203125 1.0 -0.59375q0.421875 -0.390625 0.65625 -0.921875q0.25 -0.546875 0.25 -1.1875q0 -1.390625 -0.828125 -2.0625q-0.828125 -0.6875 -2.296875 -0.6875l-1.484375 0l0 -0.59375l2.890625 -4.4375l0.921875 -0.875l-1.3125 0.203125l-3.953125 0l0 -1.484375l7.140625 0l0 0.578125l-3.1875 4.78125l-0.6875 0.578125l0 0.046875l0.671875 -0.140625q0.796875 0.015625 1.46875 0.296875q0.6875 0.265625 1.1875 0.78125q0.5 0.5 0.78125 1.21875q0.28125 0.703125 0.28125 1.59375q0 1.078125 -0.375 1.921875q-0.375 0.84375 -1.03125 1.4218731q-0.65625 0.5625 -1.53125 0.859375q-0.875 0.296875 -1.859375 0.296875q-0.90625 0 -1.625 -0.140625q-0.71875 -0.140625 -1.25 -0.359375l0.421875 -1.4218731q0.453125 0.234375 1.078125 0.3906231q0.640625 0.140625 1.421875 0.140625z" fill-rule="nonzero"/><path fill="#999999" d="m726.9504 29.028563l-2.359375 0l0 4.296873l-1.5625 0l0 -4.296873l-6.15625 0l0 -0.65625l6.640625 -9.265625l1.078125 0l0 8.515625l2.359375 0l0 1.40625zm-3.921875 -5.765625l0.203125 -1.640625l-0.0625 0l-0.703125 1.359375l-2.8125 3.828125l-0.96875 0.96875l1.40625 -0.15625l2.9375 0l0 -4.359375z" fill-rule="nonzero"/><path fill="#999999" d="m832.0826 29.981688q0 -1.25 0.65625 -2.171875q0.671875 -0.9375 2.0625 -1.703125q-0.5 -0.296875 -0.9375 -0.625q-0.421875 -0.34375 -0.75 -0.75q-0.328125 -0.421875 -0.515625 -0.9375q-0.1875 -0.53125 -0.1875 -1.203125q0 -0.78125 0.265625 -1.421875q0.265625 -0.640625 0.765625 -1.09375q0.515625 -0.46875 1.21875 -0.71875q0.71875 -0.265625 1.625 -0.265625q0.84375 0 1.515625 0.234375q0.6875 0.234375 1.15625 0.65625q0.46875 0.421875 0.71875 1.0q0.265625 0.578125 0.265625 1.28125q0 1.140625 -0.515625 2.015625q-0.515625 0.859375 -1.71875 1.703125q0.515625 0.296875 0.984375 0.671875q0.46875 0.359375 0.8125 0.796875q0.359375 0.4375 0.5625 0.984375q0.203125 0.546875 0.203125 1.25q0 0.859375 -0.28125 1.578125q-0.28125 0.703125 -0.828125 1.2187481q-0.53125 0.5 -1.3125 0.796875q-0.78125 0.28125 -1.78125 0.28125q-0.96875 0 -1.703125 -0.265625q-0.734375 -0.28125 -1.25 -0.765625q-0.515625 -0.484375 -0.78125 -1.1249981q-0.25 -0.65625 -0.25 -1.421875zm6.625 -0.203125q0 -0.59375 -0.25 -1.046875q-0.234375 -0.453125 -0.625 -0.8125q-0.390625 -0.375 -0.890625 -0.671875q-0.5 -0.296875 -1.03125 -0.578125q-1.234375 0.671875 -1.75 1.515625q-0.515625 0.84375 -0.515625 1.59375q0 0.484375 0.15625 0.921875q0.15625 0.4375 0.46875 0.765625q0.328125 0.3125 0.796875 0.515625q0.46875 0.1874981 1.09375 0.1874981q0.5 0 0.953125 -0.140625q0.46875 -0.1562481 0.8125 -0.4531231q0.359375 -0.296875 0.5625 -0.734375q0.21875 -0.453125 0.21875 -1.0625zm-4.75 -7.234375q0 0.5625 0.21875 1.0q0.234375 0.421875 0.59375 0.765625q0.375 0.328125 0.84375 0.625q0.484375 0.296875 1.015625 0.546875q0.890625 -0.703125 1.3125 -1.375q0.4375 -0.6875 0.4375 -1.5q0 -1.015625 -0.625 -1.5625q-0.625 -0.5625 -1.515625 -0.5625q-0.53125 0 -0.953125 0.1875q-0.421875 0.171875 -0.71875 0.453125q-0.296875 0.28125 -0.453125 0.65625q-0.15625 0.359375 -0.15625 0.765625z" fill-rule="nonzero"/><path fill="#000000" d="m491.95514 72.75516q-0.03125 -0.09375 -0.03125 -0.21875q0 -0.140625 0 -0.25q0 -0.890625 0.265625 -1.5625q0.28125 -0.6875 0.671875 -1.25q0.390625 -0.578125 0.84375 -1.0625q0.46875 -0.484375 0.859375 -0.984375q0.390625 -0.515625 0.65625 -1.078125q0.265625 -0.5625 0.265625 -1.28125q0 -0.984375 -0.5625 -1.59375q-0.5625 -0.625 -1.890625 -0.625q-0.765625 0 -1.5625 0.265625q-0.78125 0.265625 -1.359375 0.625l-0.5625 -1.328125q0.796875 -0.484375 1.6875 -0.765625q0.90625 -0.296875 2.234375 -0.296875q0.9375 0 1.640625 0.265625q0.71875 0.265625 1.203125 0.734375q0.484375 0.46875 0.71875 1.109375q0.234375 0.640625 0.234375 1.375q0 0.953125 -0.296875 1.671875q-0.28125 0.703125 -0.71875 1.296875q-0.4375 0.59375 -0.9375 1.109375q-0.5 0.5 -0.9375 1.0625q-0.4375 0.5625 -0.734375 1.234375q-0.28125 0.65625 -0.28125 1.546875l-1.40625 0zm-0.4375 2.796875q0 -0.578125 0.328125 -0.90625q0.34375 -0.328125 0.890625 -0.328125q0.578125 0 0.921875 0.328125q0.34375 0.328125 0.34375 0.90625q0 0.5625 -0.34375 0.90625q-0.34375 0.328125 -0.921875 0.328125q-0.546875 0 -0.890625 -0.328125q-0.328125 -0.34375 -0.328125 -0.90625z" fill-rule="nonzero"/><path fill="#000000" d="m558.78064 79.88766q-1.0 0.765625 -2.53125 1.0625q-1.53125 0.3125 -3.265625 0.3125q-2.109375 0 -3.9375 -0.71875q-1.828125 -0.71875 -3.203125 -2.1875q-1.359375 -1.46875 -2.171875 -3.75q-0.796875 -2.28125 -0.796875 -5.421875q0 -3.265625 0.875 -5.546875q0.890625 -2.28125 2.34375 -3.71875q1.453125 -1.453125 3.25 -2.125q1.796875 -0.671875 3.671875 -0.671875q2.0 0 3.265625 0.21875q1.265625 0.21875 2.171875 0.578125l-0.671875 2.4375q-1.59375 -0.765625 -4.5625 -0.765625q-1.375 0 -2.703125 0.5q-1.328125 0.5 -2.390625 1.640625q-1.046875 1.125 -1.6875 2.96875q-0.625 1.828125 -0.625 4.484375q0 2.40625 0.59375 4.203125q0.609375 1.796875 1.65625 3.0q1.046875 1.203125 2.46875 1.8125q1.421875 0.59375 3.078125 0.59375q1.5 0 2.609375 -0.296875q1.125 -0.3125 1.890625 -0.78125l0.671875 2.171875z" fill-rule="nonzero"/><path fill="#000000" d="m606.2988 72.50953q-0.015625 -0.09375 -0.015625 -0.203125q0 -0.125 0 -0.234375q0 -0.828125 0.25 -1.46875q0.25 -0.640625 0.609375 -1.171875q0.375 -0.53125 0.796875 -0.984375q0.4375 -0.46875 0.796875 -0.9375q0.375 -0.46875 0.625 -1.0q0.25 -0.53125 0.25 -1.21875q0 -0.921875 -0.53125 -1.5q-0.515625 -0.578125 -1.765625 -0.578125q-0.71875 0 -1.46875 0.25q-0.734375 0.25 -1.265625 0.59375l-0.546875 -1.234375q0.765625 -0.46875 1.609375 -0.734375q0.84375 -0.265625 2.078125 -0.265625q0.875 0 1.546875 0.25q0.671875 0.25 1.125 0.6875q0.453125 0.4375 0.671875 1.046875q0.21875 0.59375 0.21875 1.265625q0 0.90625 -0.28125 1.578125q-0.265625 0.671875 -0.671875 1.21875q-0.40625 0.546875 -0.875 1.03125q-0.46875 0.46875 -0.890625 1.0q-0.40625 0.53125 -0.6875 1.15625q-0.265625 0.625 -0.265625 1.453125l-1.3125 0zm-0.40625 2.625q0 -0.53125 0.3125 -0.84375q0.3125 -0.3125 0.828125 -0.3125q0.546875 0 0.859375 0.3125q0.328125 0.3125 0.328125 0.84375q0 0.515625 -0.328125 0.84375q-0.3125 0.3125 -0.859375 0.3125q-0.515625 0 -0.828125 -0.3125q-0.3125 -0.328125 -0.3125 -0.84375z" fill-rule="nonzero"/><path fill="#000000" d="m663.4274 72.50953q-0.015625 -0.09375 -0.015625 -0.203125q0 -0.125 0 -0.234375q0 -0.828125 0.25 -1.46875q0.25 -0.640625 0.609375 -1.171875q0.375 -0.53125 0.796875 -0.984375q0.4375 -0.46875 0.796875 -0.9375q0.375 -0.46875 0.625 -1.0q0.25 -0.53125 0.25 -1.21875q0 -0.921875 -0.53125 -1.5q-0.515625 -0.578125 -1.765625 -0.578125q-0.71875 0 -1.46875 0.25q-0.734375 0.25 -1.265625 0.59375l-0.546875 -1.234375q0.765625 -0.46875 1.609375 -0.734375q0.84375 -0.265625 2.078125 -0.265625q0.875 0 1.546875 0.25q0.671875 0.25 1.125 0.6875q0.453125 0.4375 0.671875 1.046875q0.21875 0.59375 0.21875 1.265625q0 0.90625 -0.28125 1.578125q-0.265625 0.671875 -0.671875 1.21875q-0.40625 0.546875 -0.875 1.03125q-0.46875 0.46875 -0.890625 1.0q-0.40625 0.53125 -0.6875 1.15625q-0.265625 0.625 -0.265625 1.453125l-1.3125 0zm-0.40625 2.625q0 -0.53125 0.3125 -0.84375q0.3125 -0.3125 0.828125 -0.3125q0.546875 0 0.859375 0.3125q0.328125 0.3125 0.328125 0.84375q0 0.515625 -0.328125 0.84375q-0.3125 0.3125 -0.859375 0.3125q-0.515625 0 -0.828125 -0.3125q-0.3125 -0.328125 -0.3125 -0.84375z" fill-rule="nonzero"/><path fill="#666666" d="m727.51465 70.15328l-11.203125 0l0 10.703125l-2.765625 0l0 -23.328125l2.765625 0l0 10.15625l11.203125 0l0 -10.15625l2.765625 0l0 23.328125l-2.765625 0l0 -10.703125z" fill-rule="nonzero"/><path fill="#666666" d="m785.6935 79.32516q0 -0.90625 0.515625 -1.421875q0.515625 -0.515625 1.390625 -0.515625q0.890625 0 1.421875 0.515625q0.53125 0.515625 0.53125 1.421875q0 0.859375 -0.53125 1.40625q-0.53125 0.53125 -1.421875 0.53125q-0.875 0 -1.390625 -0.53125q-0.515625 -0.546875 -0.515625 -1.40625zm-8.46875 0q0 -0.90625 0.515625 -1.421875q0.515625 -0.515625 1.390625 -0.515625q0.890625 0 1.421875 0.515625q0.546875 0.515625 0.546875 1.421875q0 0.859375 -0.546875 1.40625q-0.53125 0.53125 -1.421875 0.53125q-0.875 0 -1.390625 -0.53125q-0.515625 -0.546875 -0.515625 -1.40625zm-8.46875 0q0 -0.90625 0.515625 -1.421875q0.53125 -0.515625 1.390625 -0.515625q0.90625 0 1.4375 0.515625q0.53125 0.515625 0.53125 1.421875q0 0.859375 -0.53125 1.40625q-0.53125 0.53125 -1.4375 0.53125q-0.859375 0 -1.390625 -0.53125q-0.515625 -0.546875 -0.515625 -1.40625z" fill-rule="nonzero"/><path fill="#666666" d="m834.81323 72.50953q-0.015625 -0.09375 -0.015625 -0.203125q0 -0.125 0 -0.234375q0 -0.828125 0.25 -1.46875q0.25 -0.640625 0.609375 -1.171875q0.375 -0.53125 0.796875 -0.984375q0.4375 -0.46875 0.796875 -0.9375q0.375 -0.46875 0.625 -1.0q0.25 -0.53125 0.25 -1.21875q0 -0.921875 -0.53125 -1.5q-0.515625 -0.578125 -1.765625 -0.578125q-0.71875 0 -1.46875 0.25q-0.734375 0.25 -1.265625 0.59375l-0.546875 -1.234375q0.765625 -0.46875 1.609375 -0.734375q0.84375 -0.265625 2.078125 -0.265625q0.875 0 1.546875 0.25q0.671875 0.25 1.125 0.6875q0.453125 0.4375 0.671875 1.046875q0.21875 0.59375 0.21875 1.265625q0 0.90625 -0.28125 1.578125q-0.265625 0.671875 -0.671875 1.21875q-0.40625 0.546875 -0.875 1.03125q-0.46875 0.46875 -0.890625 1.0q-0.40625 0.53125 -0.6875 1.15625q-0.265625 0.625 -0.265625 1.453125l-1.3125 0zm-0.40625 2.625q0 -0.53125 0.3125 -0.84375q0.3125 -0.3125 0.828125 -0.3125q0.546875 0 0.859375 0.3125q0.328125 0.3125 0.328125 0.84375q0 0.515625 -0.328125 0.84375q-0.3125 0.3125 -0.859375 0.3125q-0.515625 0 -0.828125 -0.3125q-0.3125 -0.328125 -0.3125 -0.84375z" fill-rule="nonzero"/><path fill="#000000" fill-opacity="0.0" d="m529.0465 120.101265l43.84253 0l0 29.385826l-43.84253 0z" fill-rule="evenodd"/><path fill="#000000" d="m538.4215 141.86127l0 -6.40625q0 -0.90625 -0.078125 -1.578125q-0.078125 -0.671875 -0.3125 -1.125q-0.21875 -0.453125 -0.640625 -0.671875q-0.40625 -0.234375 -1.09375 -0.234375q-1.046875 0 -1.734375 0.640625q-0.6875 0.625 -0.953125 1.578125l0 7.796875l-1.8125 0l0 -11.328125l1.265625 0l0.34375 1.375l0.078125 0q0.625 -0.71875 1.421875 -1.171875q0.796875 -0.46875 2.09375 -0.46875q1.09375 0 1.78125 0.421875q0.6875 0.40625 1.078125 1.453125q0.515625 -0.890625 1.4375 -1.375q0.921875 -0.5 2.078125 -0.5q0.9375 0 1.59375 0.21875q0.671875 0.203125 1.09375 0.75q0.4375 0.546875 0.625 1.484375q0.1875 0.921875 0.1875 2.34375l0 6.796875l-1.8125 0l0 -6.8125q0 -0.828125 -0.078125 -1.421875q-0.078125 -0.59375 -0.3125 -0.984375q-0.234375 -0.40625 -0.65625 -0.59375q-0.421875 -0.203125 -1.09375 -0.203125q-1.140625 0 -1.78125 0.640625q-0.625 0.625 -0.90625 1.8125l0 7.5625l-1.8125 0zm12.146851 -11.328125l1.8125 0l0 11.328125l-1.8125 0l0 -11.328125zm-0.375 -3.4375q0 -0.53125 0.34375 -0.90625q0.359375 -0.375 0.890625 -0.375q0.546875 0 0.921875 0.375q0.390625 0.375 0.390625 0.90625q0 0.515625 -0.390625 0.859375q-0.375 0.328125 -0.921875 0.328125q-0.53125 0 -0.890625 -0.328125q-0.34375 -0.34375 -0.34375 -0.859375zm14.759338 10.875q0 1.15625 0.015625 2.09375q0.03125 0.9375 0.21875 1.84375l-1.21875 0l-0.453125 -1.609375l-0.09375 0q-0.453125 0.796875 -1.3125 1.3125q-0.859375 0.515625 -2.015625 0.515625q-2.265625 0 -3.375 -1.421875q-1.09375 -1.421875 -1.09375 -4.46875q0 -2.890625 1.359375 -4.390625q1.375 -1.515625 3.78125 -1.515625q0.84375 0 1.328125 0.09375q0.484375 0.09375 1.046875 0.296875l0 -4.71875l1.8125 0l0 11.96875zm-4.5625 2.578125q1.140625 0 1.8125 -0.59375q0.6875 -0.609375 0.9375 -1.828125l0 -5.625q-0.40625 -0.3125 -0.921875 -0.453125q-0.515625 -0.140625 -1.375 -0.140625q-1.578125 0 -2.46875 1.03125q-0.875 1.03125 -0.875 3.296875q0 0.9375 0.140625 1.734375q0.15625 0.78125 0.5 1.359375q0.34375 0.5625 0.890625 0.890625q0.5625 0.328125 1.359375 0.328125z" fill-rule="nonzero"/><path fill="#000000" fill-opacity="0.0" d="m550.9678 120.101265l0 -21.51181" fill-rule="evenodd"/><path stroke="#000000" stroke-width="1.0" stroke-linejoin="round" stroke-linecap="butt" stroke-dasharray="1.0,3.0" d="m550.9678 120.101265l0 -15.51181" fill-rule="evenodd"/><path fill="#000000" stroke="#000000" stroke-width="1.0" stroke-linecap="butt" d="m552.6195 104.589455l-1.6517334 -4.538101l-1.6517334 4.538101z" fill-rule="evenodd"/><path fill="#000000" fill-opacity="0.0" d="m359.20984 120.15827l43.84253 0l0 29.385826l-43.84253 0z" fill-rule="evenodd"/><path fill="#000000" d="m370.22546 141.01202q-0.6875 0.546875 -1.71875 0.859375q-1.03125 0.3125 -2.1875 0.3125q-1.28125 0 -2.234375 -0.40625q-0.953125 -0.421875 -1.5625 -1.203125q-0.609375 -0.78125 -0.90625 -1.859375q-0.296875 -1.09375 -0.296875 -2.453125q0 -2.90625 1.28125 -4.421875q1.296875 -1.515625 3.703125 -1.515625q0.765625 0 1.53125 0.171875q0.78125 0.15625 1.390625 0.640625q0.609375 0.46875 1.0 1.34375q0.390625 0.875 0.390625 2.296875q0 0.75 -0.140625 1.65625l-7.28125 0q0 1.0 0.203125 1.78125q0.203125 0.765625 0.640625 1.296875q0.4375 0.53125 1.125 0.8125q0.6875 0.28125 1.6875 0.28125q0.765625 0 1.53125 -0.265625q0.78125 -0.28125 1.15625 -0.640625l0.6875 1.3125zm-3.90625 -9.109375q-1.328125 0 -2.140625 0.703125q-0.796875 0.703125 -0.953125 2.40625l5.609375 0q0 -1.71875 -0.65625 -2.40625q-0.65625 -0.703125 -1.859375 -0.703125zm14.415619 10.015625l0 -6.453125q0 -1.765625 -0.515625 -2.65625q-0.5 -0.90625 -1.859375 -0.90625q-1.203125 0 -1.984375 0.65625q-0.78125 0.640625 -1.09375 1.609375l0 7.75l-1.8125 0l0 -11.328125l1.265625 0l0.34375 1.375l0.078125 0q0.546875 -0.71875 1.46875 -1.171875q0.921875 -0.46875 2.1875 -0.46875q0.921875 0 1.625 0.21875q0.703125 0.203125 1.171875 0.75q0.46875 0.546875 0.703125 1.46875q0.234375 0.90625 0.234375 2.3125l0 6.84375l-1.8125 0zm13.814819 -3.890625q0 1.15625 0.015625 2.09375q0.03125 0.9375 0.21875 1.84375l-1.21875 0l-0.453125 -1.609375l-0.09375 0q-0.453125 0.796875 -1.3125 1.3125q-0.859375 0.515625 -2.015625 0.515625q-2.265625 0 -3.375 -1.421875q-1.09375 -1.421875 -1.09375 -4.46875q0 -2.890625 1.359375 -4.390625q1.375 -1.515625 3.78125 -1.515625q0.84375 0 1.328125 0.09375q0.484375 0.09375 1.046875 0.296875l0 -4.7187576l1.8125 0l0 11.968758zm-4.5625 2.578125q1.140625 0 1.8125 -0.59375q0.6875 -0.609375 0.9375 -1.828125l0 -5.625q-0.40625 -0.3125 -0.921875 -0.453125q-0.515625 -0.140625 -1.375 -0.140625q-1.578125 0 -2.46875 1.03125q-0.875 1.03125 -0.875 3.296875q0 0.9375 0.140625 1.734375q0.15625 0.78125 0.5 1.359375q0.34375 0.5625 0.890625 0.890625q0.5625 0.328125 1.359375 0.328125z" fill-rule="nonzero"/><path fill="#000000" fill-opacity="0.0" d="m381.1311 120.15827l0 -21.51181" fill-rule="evenodd"/><path stroke="#000000" stroke-width="1.0" stroke-linejoin="round" stroke-linecap="butt" d="m381.1311 120.15827l0 -15.51181" fill-rule="evenodd"/><path fill="#000000" stroke="#000000" stroke-width="1.0" stroke-linecap="butt" d="m382.78284 104.64646l-1.6517334 -4.538101l-1.6517334 4.538101z" fill-rule="evenodd"/><path fill="#000000" fill-opacity="0.0" d="m13.869515 120.15748l50.047245 0l0 29.385826l-50.047245 0z" fill-rule="evenodd"/><path fill="#000000" d="m21.603891 138.83936q0 -0.6875 -0.421875 -1.0625q-0.40625 -0.390625 -1.0 -0.640625q-0.59375 -0.265625 -1.3125 -0.5q-0.71875 -0.25 -1.328125 -0.625q-0.59375 -0.375 -1.0 -0.953125q-0.40625 -0.59375 -0.40625 -1.59375q0 -1.625 0.921875 -2.375q0.9375 -0.765625 2.59375 -0.765625q1.21875 0 2.046875 0.21875q0.828125 0.203125 1.4375 0.5l-0.421875 1.5q-0.53125 -0.25 -1.265625 -0.4375q-0.734375 -0.203125 -1.578125 -0.203125q-0.984375 0 -1.453125 0.34375q-0.46875 0.34375 -0.46875 1.171875q0 0.59375 0.40625 0.921875q0.40625 0.328125 1.0 0.59375q0.609375 0.25 1.328125 0.5q0.71875 0.25 1.3125 0.65625q0.59375 0.40625 1.0 1.03125q0.421875 0.625 0.421875 1.640625q0 0.734375 -0.25 1.375q-0.234375 0.625 -0.734375 1.078125q-0.5 0.453125 -1.234375 0.703125q-0.734375 0.265625 -1.734375 0.265625q-1.28125 0 -2.1875 -0.25q-0.90625 -0.234375 -1.515626 -0.578125l0.53125095 -1.546875q0.53125 0.296875 1.359375 0.546875q0.84375 0.25 1.703125 0.25q0.96875 0 1.609375 -0.375q0.640625 -0.390625 0.640625 -1.390625zm3.0538788 -8.25l1.765625 0l0 -2.25l1.8125 -0.515625l0 2.765625l3.078125 0l0 1.59375l-3.078125 0l0 6.265625q0 1.1875 0.296875 1.671875q0.296875 0.484375 1.0 0.484375q0.578125 0 0.984375 -0.125q0.421875 -0.125 0.90625 -0.328125l0.421875 1.375q-0.625 0.296875 -1.34375 0.46875q-0.71875 0.1875 -1.5625 0.1875q-1.375 0 -1.953125 -0.78125q-0.5625 -0.78125 -0.5625 -2.609375l0 -6.609375l-1.765625 0l0 -1.59375zm8.992949 0.84375q0.859375 -0.53125 2.0 -0.78125q1.15625 -0.25 2.390625 -0.25q1.1875 0 1.890625 0.328125q0.71875 0.3125 1.09375 0.828125q0.375 0.5 0.5 1.125q0.125 0.609375 0.125 1.21875q0 1.359375 -0.078125 2.65625q-0.0625 1.28125 -0.0625 2.4375q0 0.84375 0.0625 1.59375q0.078125 0.734375 0.25 1.375l-1.328125 0l-0.484375 -1.59375l-0.109375 0q-0.203125 0.328125 -0.515625 0.640625q-0.296875 0.296875 -0.734375 0.53125q-0.421875 0.234375 -1.0 0.390625q-0.5625 0.171875 -1.28125 0.171875q-0.71875 0 -1.34375 -0.21875q-0.625 -0.234375 -1.078125 -0.65625q-0.453125 -0.421875 -0.71875 -1.0q-0.25 -0.59375 -0.25 -1.34375q0 -1.0 0.40625 -1.671875q0.40625 -0.671875 1.140625 -1.0625q0.734375 -0.390625 1.765625 -0.5625q1.03125 -0.171875 2.28125 -0.171875q0.3125 0 0.609375 0q0.3125 0 0.625 0.046875q0.078125 -0.6875 0.078125 -1.234375q0 -1.234375 -0.5 -1.734375q-0.5 -0.5 -1.8125 -0.5q-0.390625 0 -0.828125 0.0625q-0.4375 0.046875 -0.90625 0.15625q-0.46875 0.09375 -0.890625 0.25q-0.40625 0.140625 -0.734375 0.328125l-0.5625 -1.359375zm3.21875 9.078125q0.640625 0 1.125 -0.171875q0.5 -0.171875 0.859375 -0.421875q0.375 -0.265625 0.609375 -0.578125q0.234375 -0.328125 0.34375 -0.609375l0 -1.890625q-0.3125 -0.015625 -0.640625 -0.03125q-0.328125 -0.015625 -0.640625 -0.015625q-0.703125 0 -1.375 0.078125q-0.671875 0.078125 -1.1875 0.296875q-0.5 0.21875 -0.8125 0.59375q-0.296875 0.375 -0.296875 0.9375q0 0.796875 0.5625 1.3125q0.5625 0.5 1.453125 0.5zm13.549973 -8.171875q-0.6875 -0.234375 -1.296875 -0.234375q-0.96875 0 -1.546875 0.53125q-0.5625 0.53125 -0.6875 1.359375l0 7.921875l-1.8125 0l0 -11.328125l1.265625 0l0.34375 1.375l0.078125 0q0.4375 -0.765625 1.03125 -1.171875q0.609375 -0.421875 1.53125 -0.421875q0.65625 0 1.46875 0.21875l-0.375 1.75zm1.5393524 -1.75l1.765625 0l0 -2.25l1.8125 -0.515625l0 2.765625l3.078125 0l0 1.59375l-3.078125 0l0 6.265625q0 1.1875 0.296875 1.671875q0.296875 0.484375 1.0 0.484375q0.578125 0 0.984375 -0.125q0.421875 -0.125 0.90625 -0.328125l0.421875 1.375q-0.625 0.296875 -1.34375 0.46875q-0.71875 0.1875 -1.5625 0.1875q-1.375 0 -1.953125 -0.78125q-0.5625 -0.78125 -0.5625 -2.609375l0 -6.609375l-1.765625 0l0 -1.59375z" fill-rule="nonzero"/><path fill="#000000" fill-opacity="0.0" d="m38.89314 120.15748l0 -21.51181" fill-rule="evenodd"/><path stroke="#000000" stroke-width="1.0" stroke-linejoin="round" stroke-linecap="butt" d="m38.893135 120.15748l0 -15.51181" fill-rule="evenodd"/><path fill="#000000" stroke="#000000" stroke-width="1.0" stroke-linecap="butt" d="m40.54487 104.64567l-1.6517334 -4.5380936l-1.6517296 4.5380936z" fill-rule="evenodd"/><path fill="#000000" fill-opacity="0.0" d="m469.4907 120.10047l50.04721 0l0 29.385826l-50.04721 0z" fill-rule="evenodd"/><path fill="#000000" d="m477.22507 138.78235q0 -0.6875 -0.421875 -1.0625q-0.40625 -0.390625 -1.0 -0.640625q-0.59375 -0.265625 -1.3125 -0.5q-0.71875 -0.25 -1.328125 -0.625q-0.59375 -0.375 -1.0 -0.953125q-0.40625 -0.59375 -0.40625 -1.59375q0 -1.625 0.921875 -2.375q0.9375 -0.765625 2.59375 -0.765625q1.21875 0 2.046875 0.21875q0.828125 0.203125 1.4375 0.5l-0.421875 1.5q-0.53125 -0.25 -1.265625 -0.4375q-0.734375 -0.203125 -1.578125 -0.203125q-0.984375 0 -1.453125 0.34375q-0.46875 0.34375 -0.46875 1.171875q0 0.59375 0.40625 0.921875q0.40625 0.328125 1.0 0.59375q0.609375 0.25 1.328125 0.5q0.71875 0.25 1.3125 0.65625q0.59375 0.40625 1.0 1.03125q0.421875 0.625 0.421875 1.640625q0 0.734375 -0.25 1.375q-0.234375 0.625 -0.734375 1.078125q-0.5 0.453125 -1.234375 0.703125q-0.734375 0.265625 -1.734375 0.265625q-1.28125 0 -2.1875 -0.25q-0.90625 -0.234375 -1.515625 -0.578125l0.53125 -1.546875q0.53125 0.296875 1.359375 0.546875q0.84375 0.25 1.703125 0.25q0.96875 0 1.609375 -0.375q0.640625 -0.390625 0.640625 -1.390625zm3.0538635 -8.25l1.765625 0l0 -2.25l1.8125 -0.515625l0 2.765625l3.078125 0l0 1.59375l-3.078125 0l0 6.265625q0 1.1875 0.296875 1.671875q0.296875 0.484375 1.0 0.484375q0.578125 0 0.984375 -0.125q0.421875 -0.125 0.90625 -0.328125l0.421875 1.375q-0.625 0.296875 -1.34375 0.46875q-0.71875 0.1875 -1.5625 0.1875q-1.375 0 -1.953125 -0.78125q-0.5625 -0.78125 -0.5625 -2.609375l0 -6.609375l-1.765625 0l0 -1.59375zm8.99295 0.84375q0.859375 -0.53125 2.0 -0.78125q1.15625 -0.25 2.390625 -0.25q1.1875 0 1.890625 0.328125q0.71875 0.3125 1.09375 0.828125q0.375 0.5 0.5 1.125q0.125 0.609375 0.125 1.21875q0 1.359375 -0.078125 2.65625q-0.0625 1.28125 -0.0625 2.4375q0 0.84375 0.0625 1.59375q0.078125 0.734375 0.25 1.375l-1.328125 0l-0.484375 -1.59375l-0.109375 0q-0.203125 0.328125 -0.515625 0.640625q-0.296875 0.296875 -0.734375 0.53125q-0.421875 0.234375 -1.0 0.390625q-0.5625 0.171875 -1.28125 0.171875q-0.71875 0 -1.34375 -0.21875q-0.625 -0.234375 -1.078125 -0.65625q-0.453125 -0.421875 -0.71875 -1.0q-0.25 -0.59375 -0.25 -1.34375q0 -1.0 0.40625 -1.671875q0.40625 -0.671875 1.140625 -1.0625q0.734375 -0.390625 1.765625 -0.5625q1.03125 -0.171875 2.28125 -0.171875q0.3125 0 0.609375 0q0.3125 0 0.625 0.046875q0.078125 -0.6875 0.078125 -1.234375q0 -1.234375 -0.5 -1.734375q-0.5 -0.5 -1.8125 -0.5q-0.390625 0 -0.828125 0.0625q-0.4375 0.046875 -0.90625 0.15625q-0.46875 0.09375 -0.890625 0.25q-0.40625 0.140625 -0.734375 0.328125l-0.5625 -1.359375zm3.21875 9.078125q0.640625 0 1.125 -0.171875q0.5 -0.171875 0.859375 -0.421875q0.375 -0.265625 0.609375 -0.578125q0.234375 -0.328125 0.34375 -0.609375l0 -1.890625q-0.3125 -0.015625 -0.640625 -0.03125q-0.328125 -0.015625 -0.640625 -0.015625q-0.703125 0 -1.375 0.078125q-0.671875 0.078125 -1.1875 0.296875q-0.5 0.21875 -0.8125 0.59375q-0.296875 0.375 -0.296875 0.9375q0 0.796875 0.5625 1.3125q0.5625 0.5 1.453125 0.5zm13.549988 -8.171875q-0.6875 -0.234375 -1.296875 -0.234375q-0.96875 0 -1.546875 0.53125q-0.5625 0.53125 -0.6875 1.359375l0 7.921875l-1.8125 0l0 -11.328125l1.265625 0l0.34375 1.375l0.078125 0q0.4375 -0.765625 1.03125 -1.171875q0.609375 -0.421875 1.53125 -0.421875q0.65625 0 1.46875 0.21875l-0.375 1.75zm1.5393372 -1.75l1.765625 0l0 -2.25l1.8125 -0.515625l0 2.765625l3.078125 0l0 1.59375l-3.078125 0l0 6.265625q0 1.1875 0.296875 1.671875q0.296875 0.484375 1.0 0.484375q0.578125 0 0.984375 -0.125q0.421875 -0.125 0.90625 -0.328125l0.421875 1.375q-0.625 0.296875 -1.34375 0.46875q-0.71875 0.1875 -1.5625 0.1875q-1.375 0 -1.953125 -0.78125q-0.5625 -0.78125 -0.5625 -2.609375l0 -6.609375l-1.765625 0l0 -1.59375z" fill-rule="nonzero"/><path fill="#000000" fill-opacity="0.0" d="m494.5143 120.10047l0 -21.51181" fill-rule="evenodd"/><path stroke="#000000" stroke-width="1.0" stroke-linejoin="round" stroke-linecap="butt" d="m494.5143 120.10048l0 -15.511818" fill-rule="evenodd"/><path fill="#000000" stroke="#000000" stroke-width="1.0" stroke-linecap="butt" d="m496.16605 104.58866l-1.6517334 -4.5380936l-1.6517334 4.5380936z" fill-rule="evenodd"/><path fill="#000000" fill-opacity="0.0" d="m642.8651 120.101265l43.84253 0l0 29.385826l-43.84253 0z" fill-rule="evenodd"/><path fill="#000000" d="m653.88074 140.95502q-0.6875 0.546875 -1.71875 0.859375q-1.03125 0.3125 -2.1875 0.3125q-1.28125 0 -2.234375 -0.40625q-0.953125 -0.421875 -1.5625 -1.203125q-0.609375 -0.78125 -0.90625 -1.859375q-0.296875 -1.09375 -0.296875 -2.453125q0 -2.90625 1.28125 -4.421875q1.296875 -1.515625 3.703125 -1.515625q0.765625 0 1.53125 0.171875q0.78125 0.15625 1.390625 0.640625q0.609375 0.46875 1.0 1.34375q0.390625 0.875 0.390625 2.296875q0 0.75 -0.140625 1.65625l-7.28125 0q0 1.0 0.203125 1.78125q0.203125 0.765625 0.640625 1.296875q0.4375 0.53125 1.125 0.8125q0.6875 0.28125 1.6875 0.28125q0.765625 0 1.53125 -0.265625q0.78125 -0.28125 1.15625 -0.640625l0.6875 1.3125zm-3.90625 -9.109375q-1.328125 0 -2.140625 0.703125q-0.796875 0.703125 -0.953125 2.40625l5.609375 0q0 -1.71875 -0.65625 -2.40625q-0.65625 -0.703125 -1.859375 -0.703125zm14.415649 10.015625l0 -6.453125q0 -1.765625 -0.515625 -2.65625q-0.5 -0.90625 -1.859375 -0.90625q-1.203125 0 -1.984375 0.65625q-0.78125 0.640625 -1.09375 1.609375l0 7.75l-1.8125 0l0 -11.328125l1.265625 0l0.34375 1.375l0.078125 0q0.546875 -0.71875 1.46875 -1.171875q0.921875 -0.46875 2.1875 -0.46875q0.921875 0 1.625 0.21875q0.703125 0.203125 1.171875 0.75q0.46875 0.546875 0.703125 1.46875q0.234375 0.90625 0.234375 2.3125l0 6.84375l-1.8125 0zm13.814819 -3.890625q0 1.15625 0.015625 2.09375q0.03125 0.9375 0.21875 1.84375l-1.21875 0l-0.453125 -1.609375l-0.09375 0q-0.453125 0.796875 -1.3125 1.3125q-0.859375 0.515625 -2.015625 0.515625q-2.265625 0 -3.375 -1.421875q-1.09375 -1.421875 -1.09375 -4.46875q0 -2.890625 1.359375 -4.390625q1.375 -1.515625 3.78125 -1.515625q0.84375 0 1.328125 0.09375q0.484375 0.09375 1.046875 0.296875l0 -4.71875l1.8125 0l0 11.96875zm-4.5625 2.578125q1.140625 0 1.8125 -0.59375q0.6875 -0.609375 0.9375 -1.828125l0 -5.625q-0.40625 -0.3125 -0.921875 -0.453125q-0.515625 -0.140625 -1.375 -0.140625q-1.578125 0 -2.46875 1.03125q-0.875 1.03125 -0.875 3.296875q0 0.9375 0.140625 1.734375q0.15625 0.78125 0.5 1.359375q0.34375 0.5625 0.890625 0.890625q0.5625 0.328125 1.359375 0.328125z" fill-rule="nonzero"/><path fill="#000000" fill-opacity="0.0" d="m664.7864 120.101265l0 -21.51181" fill-rule="evenodd"/><path stroke="#000000" stroke-width="1.0" stroke-linejoin="round" stroke-linecap="butt" d="m664.7864 120.101265l0 -15.51181" fill-rule="evenodd"/><path fill="#000000" stroke="#000000" stroke-width="1.0" stroke-linecap="butt" d="m666.4381 104.589455l-1.6517334 -4.538101l-1.6517334 4.538101z" fill-rule="evenodd"/><path shape-rendering="crispEdges" fill="#d9d9d9" d="m11.339459 194.53018l57.128613 0l0 59.461945l-57.128613 0l0 -59.461945z" fill-rule="nonzero"/><path shape-rendering="crispEdges" fill="#d9d9d9" d="m68.46807 194.53018l57.12861 0l0 59.461945l-57.12861 0l0 -59.461945z" fill-rule="nonzero"/><path shape-rendering="crispEdges" fill="#d9d9d9" d="m239.8539 194.53018l57.128616 0l0 59.461945l-57.128616 0l0 -59.461945z" fill-rule="nonzero"/><path shape-rendering="crispEdges" fill="#d9d9d9" d="m296.9825 194.53018l57.1286 0l0 59.461945l-57.1286 0l0 -59.461945z" fill-rule="nonzero"/><path shape-rendering="crispEdges" fill="#d9d9d9" d="m354.1111 194.53018l57.1286 0l0 59.461945l-57.1286 0l0 -59.461945z" fill-rule="nonzero"/><path stroke="#000000" stroke-width="3.0" stroke-linecap="butt" d="m11.339459 193.0315l0 62.45932" fill-rule="nonzero"/><path stroke="#000000" stroke-width="3.0" stroke-linecap="butt" d="m68.46807 193.0315l0 62.45932" fill-rule="nonzero"/><path stroke="#000000" stroke-width="3.0" stroke-linecap="butt" d="m125.59668 193.0315l0 62.45932" fill-rule="nonzero"/><path stroke="#000000" stroke-width="3.0" stroke-linecap="butt" d="m182.72528 193.0315l0 62.45932" fill-rule="nonzero"/><path stroke="#000000" stroke-width="3.0" stroke-linecap="butt" d="m239.8539 193.0315l0 62.45932" fill-rule="nonzero"/><path stroke="#000000" stroke-width="3.0" stroke-linecap="butt" d="m296.9825 193.0315l0 62.45932" fill-rule="nonzero"/><path stroke="#000000" stroke-width="3.0" stroke-linecap="butt" d="m354.1111 193.0315l0 62.45932" fill-rule="nonzero"/><path stroke="#000000" stroke-width="3.0" stroke-linecap="butt" d="m411.23972 193.0315l0 62.45932" fill-rule="nonzero"/><path stroke="#000000" stroke-width="3.0" stroke-linecap="butt" d="m9.840772 194.53018l285.64307 0" fill-rule="nonzero"/><path stroke="#000000" stroke-width="3.0" stroke-linecap="butt" stroke-dasharray="12.0,9.0" d="m295.48383 194.53018l57.1286 0" fill-rule="nonzero"/><path stroke="#000000" stroke-width="3.0" stroke-linecap="butt" d="m352.61243 194.53018l60.125977 0" fill-rule="nonzero"/><path stroke="#000000" stroke-width="3.0" stroke-linecap="butt" d="m9.840772 253.99213l285.64307 0" fill-rule="nonzero"/><path stroke="#000000" stroke-width="3.0" stroke-linecap="butt" stroke-dasharray="12.0,9.0" d="m295.48383 253.99213l57.1286 0" fill-rule="nonzero"/><path stroke="#000000" stroke-width="3.0" stroke-linecap="butt" d="m352.61243 253.99213l60.125977 0" fill-rule="nonzero"/><path fill="#666666" d="m35.31314 181.73018q0 -3.59375 1.171875 -5.40625q1.171875 -1.828125 3.40625 -1.828125q2.421875 0 3.515625 1.796875q1.09375 1.78125 1.09375 5.4375q0 3.59375 -1.171875 5.421875q-1.171875 1.8125 -3.4375 1.8125q-2.375 0 -3.484375 -1.890625q-1.09375 -1.90625 -1.09375 -5.34375zm1.65625 0q0 1.296875 0.171875 2.375q0.171875 1.0625 0.53125 1.84375q0.359375 0.765625 0.90625 1.203125q0.5625 0.421875 1.3125 0.421875q1.515625 0 2.21875 -1.40625q0.71875 -1.421875 0.71875 -4.4375q0 -1.28125 -0.15625 -2.359375q-0.140625 -1.078125 -0.5 -1.859375q-0.34375 -0.78125 -0.90625 -1.203125q-0.546875 -0.421875 -1.375 -0.421875q-1.5 0 -2.21875 1.421875q-0.703125 1.421875 -0.703125 4.421875z" fill-rule="nonzero"/><path fill="#666666" d="m93.738625 187.2458l2.796875 0l0 -9.671875l0.203125 -1.1875l-0.796875 0.9375l-2.203125 1.59375l-0.75 -1.03125l4.390625 -3.390625l0.71875 0l0 12.75l2.75 0l0 1.484375l-7.109375 0l0 -1.484375z" fill-rule="nonzero"/><path fill="#000000" d="m157.63286 177.91768q0 1.046875 -0.390625 2.15625q-0.390625 1.109375 -1.03125 2.234375q-0.625 1.125 -1.40625 2.203125q-0.78125 1.0625 -1.546875 2.015625l-0.984375 0.859375l0 0.078125l1.28125 -0.21875l4.359375 0l0 1.484375l-7.96875 0l0 -0.578125q0.453125 -0.46875 1.0625 -1.140625q0.625 -0.6875 1.296875 -1.515625q0.671875 -0.828125 1.3125 -1.75q0.65625 -0.9375 1.1875 -1.890625q0.53125 -0.96875 0.84375 -1.90625q0.328125 -0.9375 0.328125 -1.78125q0 -0.984375 -0.5625 -1.625q-0.5625 -0.65625 -1.703125 -0.65625q-0.765625 0 -1.484375 0.3125q-0.71875 0.3125 -1.234375 0.71875l-0.65625 -1.140625q0.6875 -0.609375 1.640625 -0.9375q0.96875 -0.34375 2.078125 -0.34375q0.859375 0 1.515625 0.25q0.65625 0.25 1.109375 0.71875q0.46875 0.453125 0.703125 1.078125q0.25 0.625 0.25 1.375z" fill-rule="nonzero"/><path fill="#000000" d="m210.5271 187.57393q0.671875 0 1.25 -0.203125q0.578125 -0.203125 1.0 -0.59375q0.421875 -0.390625 0.65625 -0.921875q0.25 -0.546875 0.25 -1.1875q0 -1.390625 -0.828125 -2.0625q-0.828125 -0.6875 -2.296875 -0.6875l-1.484375 0l0 -0.59375l2.890625 -4.4375l0.921875 -0.875l-1.3125 0.203125l-3.953125 0l0 -1.484375l7.140625 0l0 0.578125l-3.1875 4.78125l-0.6875 0.578125l0 0.046875l0.671875 -0.140625q0.796875 0.015625 1.46875 0.296875q0.6875 0.265625 1.1875 0.78125q0.5 0.5 0.78125 1.21875q0.28125 0.703125 0.28125 1.59375q0 1.078125 -0.375 1.921875q-0.375 0.84375 -1.03125 1.421875q-0.65625 0.5625 -1.53125 0.859375q-0.875 0.296875 -1.859375 0.296875q-0.90625 0 -1.625 -0.140625q-0.71875 -0.140625 -1.25 -0.359375l0.421875 -1.421875q0.453125 0.234375 1.078125 0.390625q0.640625 0.140625 1.421875 0.140625z" fill-rule="nonzero"/><path fill="#999999" d="m273.45258 184.4333l-2.359375 0l0 4.296875l-1.5625 0l0 -4.296875l-6.15625 0l0 -0.65625l6.640625 -9.265625l1.078125 0l0 8.515625l2.359375 0l0 1.40625zm-3.921875 -5.765625l0.203125 -1.640625l-0.0625 0l-0.703125 1.359375l-2.8125 3.828125l-0.96875 0.96875l1.40625 -0.15625l2.9375 0l0 -4.359375z" fill-rule="nonzero"/><path fill="#999999" d="m378.5848 185.38643q0 -1.25 0.65625 -2.171875q0.671875 -0.9375 2.0625 -1.703125q-0.5 -0.296875 -0.9375 -0.625q-0.421875 -0.34375 -0.75 -0.75q-0.328125 -0.421875 -0.515625 -0.9375q-0.1875 -0.53125 -0.1875 -1.203125q0 -0.78125 0.265625 -1.421875q0.265625 -0.640625 0.765625 -1.09375q0.515625 -0.46875 1.21875 -0.71875q0.71875 -0.265625 1.625 -0.265625q0.84375 0 1.515625 0.234375q0.6875 0.234375 1.15625 0.65625q0.46875 0.421875 0.71875 1.0q0.265625 0.578125 0.265625 1.28125q0 1.140625 -0.515625 2.015625q-0.515625 0.859375 -1.71875 1.703125q0.515625 0.296875 0.984375 0.671875q0.46875 0.359375 0.8125 0.796875q0.359375 0.4375 0.5625 0.984375q0.203125 0.546875 0.203125 1.25q0 0.859375 -0.28125 1.578125q-0.28125 0.703125 -0.828125 1.21875q-0.53125 0.5 -1.3125 0.796875q-0.78125 0.28125 -1.78125 0.28125q-0.96875 0 -1.703125 -0.265625q-0.734375 -0.28125 -1.25 -0.765625q-0.515625 -0.484375 -0.78125 -1.125q-0.25 -0.65625 -0.25 -1.421875zm6.625 -0.203125q0 -0.59375 -0.25 -1.046875q-0.234375 -0.453125 -0.625 -0.8125q-0.390625 -0.375 -0.890625 -0.671875q-0.5 -0.296875 -1.03125 -0.578125q-1.234375 0.671875 -1.75 1.515625q-0.515625 0.84375 -0.515625 1.59375q0 0.484375 0.15625 0.921875q0.15625 0.4375 0.46875 0.765625q0.328125 0.3125 0.796875 0.515625q0.46875 0.1875 1.09375 0.1875q0.5 0 0.953125 -0.140625q0.46875 -0.15625 0.8125 -0.453125q0.359375 -0.296875 0.5625 -0.734375q0.21875 -0.453125 0.21875 -1.0625zm-4.75 -7.234375q0 0.5625 0.21875 1.0q0.234375 0.421875 0.59375 0.765625q0.375 0.328125 0.84375 0.625q0.484375 0.296875 1.015625 0.546875q0.890625 -0.703125 1.3125 -1.375q0.4375 -0.6875 0.4375 -1.5q0 -1.015625 -0.625 -1.5625q-0.625 -0.5625 -1.515625 -0.5625q-0.53125 0 -0.953125 0.1875q-0.421875 0.171875 -0.71875 0.453125q-0.296875 0.28125 -0.453125 0.65625q-0.15625 0.359375 -0.15625 0.765625z" fill-rule="nonzero"/><path fill="#666666" d="m38.457336 228.15991q-0.03125 -0.09375 -0.03125 -0.21875q0 -0.140625 0 -0.25q0 -0.890625 0.265625 -1.5625q0.28125 -0.6875 0.671875 -1.25q0.390625 -0.578125 0.84375 -1.0625q0.46875 -0.484375 0.859375 -0.984375q0.390625 -0.515625 0.65625 -1.078125q0.265625 -0.5625 0.265625 -1.28125q0 -0.984375 -0.5625 -1.59375q-0.5625 -0.625 -1.890625 -0.625q-0.765625 0 -1.5625 0.265625q-0.78125 0.265625 -1.359375 0.625l-0.5625 -1.328125q0.796875 -0.484375 1.6875 -0.765625q0.90625 -0.296875 2.234375 -0.296875q0.9375 0 1.640625 0.265625q0.71875 0.265625 1.203125 0.734375q0.484375 0.46875 0.71875 1.109375q0.234375 0.640625 0.234375 1.375q0 0.953125 -0.296875 1.671875q-0.28125 0.703125 -0.71875 1.296875q-0.4375 0.59375 -0.9375 1.109375q-0.5 0.5 -0.9375 1.0625q-0.4375 0.5625 -0.734375 1.234375q-0.28125 0.65625 -0.28125 1.546875l-1.40625 0zm-0.4375 2.796875q0 -0.578125 0.328125 -0.90625q0.34375 -0.328125 0.890625 -0.328125q0.578125 0 0.921875 0.328125q0.34375 0.328125 0.34375 0.90625q0 0.5625 -0.34375 0.90625q-0.34375 0.328125 -0.921875 0.328125q-0.546875 0 -0.890625 -0.328125q-0.328125 -0.34375 -0.328125 -0.90625z" fill-rule="nonzero"/><path fill="#666666" d="m105.28284 235.2924q-1.0 0.765625 -2.53125 1.0625q-1.53125 0.3125 -3.265625 0.3125q-2.109375 0 -3.9375 -0.71875q-1.828125 -0.71875 -3.203125 -2.1875q-1.359375 -1.46875 -2.171875 -3.75q-0.796875 -2.28125 -0.796875 -5.421875q0 -3.265625 0.875 -5.546875q0.890625 -2.28125 2.34375 -3.71875q1.453125 -1.453125 3.25 -2.125q1.796875 -0.671875 3.671875 -0.671875q2.0 0 3.265625 0.21875q1.265625 0.21875 2.171875 0.578125l-0.671875 2.4375q-1.59375 -0.765625 -4.5625 -0.765625q-1.375 0 -2.703125 0.5q-1.328125 0.5 -2.390625 1.640625q-1.046875 1.125 -1.6875 2.96875q-0.625 1.828125 -0.625 4.484375q0 2.40625 0.59375 4.203125q0.609375 1.796875 1.65625 3.0q1.046875 1.203125 2.46875 1.8125q1.421875 0.59375 3.078125 0.59375q1.5 0 2.609375 -0.296875q1.125 -0.3125 1.890625 -0.78125l0.671875 2.171875z" fill-rule="nonzero"/><path fill="#000000" d="m148.05719 212.93303l12.703125 0l0 2.46875l-9.9375 0l0 7.625l9.109375 0l0 2.46875l-9.109375 0l0 8.296875l10.109375 0l0 2.46875l-12.875 0l0 -23.328125z" fill-rule="nonzero"/><path fill="#000000" d="m209.9296 227.91428q-0.015625 -0.09375 -0.015625 -0.203125q0 -0.125 0 -0.234375q0 -0.828125 0.25 -1.46875q0.25 -0.640625 0.609375 -1.171875q0.375 -0.53125 0.796875 -0.984375q0.4375 -0.46875 0.796875 -0.9375q0.375 -0.46875 0.625 -1.0q0.25 -0.53125 0.25 -1.21875q0 -0.921875 -0.53125 -1.5q-0.515625 -0.578125 -1.765625 -0.578125q-0.71875 0 -1.46875 0.25q-0.734375 0.25 -1.265625 0.59375l-0.546875 -1.234375q0.765625 -0.46875 1.609375 -0.734375q0.84375 -0.265625 2.078125 -0.265625q0.875 0 1.546875 0.25q0.671875 0.25 1.125 0.6875q0.453125 0.4375 0.671875 1.046875q0.21875 0.59375 0.21875 1.265625q0 0.90625 -0.28125 1.578125q-0.265625 0.671875 -0.671875 1.21875q-0.40625 0.546875 -0.875 1.03125q-0.46875 0.46875 -0.890625 1.0q-0.40625 0.53125 -0.6875 1.15625q-0.265625 0.625 -0.265625 1.453125l-1.3125 0zm-0.40625 2.625q0 -0.53125 0.3125 -0.84375q0.3125 -0.3125 0.828125 -0.3125q0.546875 0 0.859375 0.3125q0.328125 0.3125 0.328125 0.84375q0 0.515625 -0.328125 0.84375q-0.3125 0.3125 -0.859375 0.3125q-0.515625 0 -0.828125 -0.3125q-0.3125 -0.328125 -0.3125 -0.84375z" fill-rule="nonzero"/><path fill="#666666" d="m274.01685 225.55803l-11.203125 0l0 10.703125l-2.765625 0l0 -23.328125l2.765625 0l0 10.15625l11.203125 0l0 -10.15625l2.765625 0l0 23.328125l-2.765625 0l0 -10.703125z" fill-rule="nonzero"/><path fill="#666666" d="m332.19568 234.7299q0 -0.90625 0.515625 -1.421875q0.515625 -0.515625 1.390625 -0.515625q0.890625 0 1.421875 0.515625q0.53125 0.515625 0.53125 1.421875q0 0.859375 -0.53125 1.40625q-0.53125 0.53125 -1.421875 0.53125q-0.875 0 -1.390625 -0.53125q-0.515625 -0.546875 -0.515625 -1.40625zm-8.46875 0q0 -0.90625 0.515625 -1.421875q0.515625 -0.515625 1.390625 -0.515625q0.890625 0 1.421875 0.515625q0.546875 0.515625 0.546875 1.421875q0 0.859375 -0.546875 1.40625q-0.53125 0.53125 -1.421875 0.53125q-0.875 0 -1.390625 -0.53125q-0.515625 -0.546875 -0.515625 -1.40625zm-8.46875 0q0 -0.90625 0.515625 -1.421875q0.53125 -0.515625 1.390625 -0.515625q0.90625 0 1.4375 0.515625q0.53125 0.515625 0.53125 1.421875q0 0.859375 -0.53125 1.40625q-0.53125 0.53125 -1.4375 0.53125q-0.859375 0 -1.390625 -0.53125q-0.515625 -0.546875 -0.515625 -1.40625z" fill-rule="nonzero"/><path fill="#666666" d="m381.31543 227.91428q-0.015625 -0.09375 -0.015625 -0.203125q0 -0.125 0 -0.234375q0 -0.828125 0.25 -1.46875q0.25 -0.640625 0.609375 -1.171875q0.375 -0.53125 0.796875 -0.984375q0.4375 -0.46875 0.796875 -0.9375q0.375 -0.46875 0.625 -1.0q0.25 -0.53125 0.25 -1.21875q0 -0.921875 -0.53125 -1.5q-0.515625 -0.578125 -1.765625 -0.578125q-0.71875 0 -1.46875 0.25q-0.734375 0.25 -1.265625 0.59375l-0.546875 -1.234375q0.765625 -0.46875 1.609375 -0.734375q0.84375 -0.265625 2.078125 -0.265625q0.875 0 1.546875 0.25q0.671875 0.25 1.125 0.6875q0.453125 0.4375 0.671875 1.046875q0.21875 0.59375 0.21875 1.265625q0 0.90625 -0.28125 1.578125q-0.265625 0.671875 -0.671875 1.21875q-0.40625 0.546875 -0.875 1.03125q-0.46875 0.46875 -0.890625 1.0q-0.40625 0.53125 -0.6875 1.15625q-0.265625 0.625 -0.265625 1.453125l-1.3125 0zm-0.40625 2.625q0 -0.53125 0.3125 -0.84375q0.3125 -0.3125 0.828125 -0.3125q0.546875 0 0.859375 0.3125q0.328125 0.3125 0.328125 0.84375q0 0.515625 -0.328125 0.84375q-0.3125 0.3125 -0.859375 0.3125q-0.515625 0 -0.828125 -0.3125q-0.3125 -0.328125 -0.3125 -0.84375z" fill-rule="nonzero"/><path fill="#000000" fill-opacity="0.0" d="m133.54869 275.506l43.842514 0l0 29.385834l-43.842514 0z" fill-rule="evenodd"/><path fill="#000000" d="m142.92369 297.26602l0 -6.40625q0 -0.90625 -0.078125 -1.578125q-0.078125 -0.671875 -0.3125 -1.125q-0.21875 -0.453125 -0.640625 -0.671875q-0.40625 -0.234375 -1.09375 -0.234375q-1.046875 0 -1.734375 0.640625q-0.6875 0.625 -0.953125 1.578125l0 7.796875l-1.8125 0l0 -11.328125l1.265625 0l0.34375 1.375l0.078125 0q0.625 -0.71875 1.421875 -1.171875q0.796875 -0.46875 2.09375 -0.46875q1.09375 0 1.78125 0.421875q0.6875 0.40625 1.078125 1.453125q0.515625 -0.890625 1.4375 -1.375q0.921875 -0.5 2.078125 -0.5q0.9375 0 1.59375 0.21875q0.671875 0.203125 1.09375 0.75q0.4375 0.546875 0.625 1.484375q0.1875 0.921875 0.1875 2.34375l0 6.796875l-1.8125 0l0 -6.8125q0 -0.828125 -0.078125 -1.421875q-0.078125 -0.59375 -0.3125 -0.984375q-0.234375 -0.40625 -0.65625 -0.59375q-0.421875 -0.203125 -1.09375 -0.203125q-1.140625 0 -1.78125 0.640625q-0.625 0.625 -0.90625 1.8125l0 7.5625l-1.8125 0zm12.146835 -11.328125l1.8125 0l0 11.328125l-1.8125 0l0 -11.328125zm-0.375 -3.4375q0 -0.53125 0.34375 -0.90625q0.359375 -0.375 0.890625 -0.375q0.546875 0 0.921875 0.375q0.390625 0.375 0.390625 0.90625q0 0.515625 -0.390625 0.859375q-0.375 0.328125 -0.921875 0.328125q-0.53125 0 -0.890625 -0.328125q-0.34375 -0.34375 -0.34375 -0.859375zm14.759369 10.875q0 1.15625 0.015625 2.09375q0.03125 0.9375 0.21875 1.84375l-1.21875 0l-0.453125 -1.609375l-0.09375 0q-0.453125 0.796875 -1.3125 1.3125q-0.859375 0.515625 -2.015625 0.515625q-2.265625 0 -3.375 -1.421875q-1.09375 -1.421875 -1.09375 -4.46875q0 -2.890625 1.359375 -4.390625q1.375 -1.515625 3.78125 -1.515625q0.84375 0 1.328125 0.09375q0.484375 0.09375 1.046875 0.296875l0 -4.71875l1.8125 0l0 11.96875zm-4.5625 2.578125q1.140625 0 1.8125 -0.59375q0.6875 -0.609375 0.9375 -1.828125l0 -5.625q-0.40625 -0.3125 -0.921875 -0.453125q-0.515625 -0.140625 -1.375 -0.140625q-1.578125 0 -2.46875 1.03125q-0.875 1.03125 -0.875 3.296875q0 0.9375 0.140625 1.734375q0.15625 0.78125 0.5 1.359375q0.34375 0.5625 0.890625 0.890625q0.5625 0.328125 1.359375 0.328125z" fill-rule="nonzero"/><path fill="#000000" fill-opacity="0.0" d="m155.46994 275.506l0 -21.51181" fill-rule="evenodd"/><path stroke="#000000" stroke-width="1.0" stroke-linejoin="round" stroke-linecap="butt" stroke-dasharray="1.0,3.0" d="m155.46996 275.506l0 -15.51181" fill-rule="evenodd"/><path fill="#000000" stroke="#000000" stroke-width="1.0" stroke-linecap="butt" d="m157.12169 259.9942l-1.6517334 -4.538101l-1.6517334 4.538101z" fill-rule="evenodd"/><path fill="#000000" fill-opacity="0.0" d="m75.54931 275.50522l50.04724 0l0 29.385834l-50.04724 0z" fill-rule="evenodd"/><path fill="#000000" d="m83.28368 294.1871q0 -0.6875 -0.421875 -1.0625q-0.40625 -0.390625 -1.0 -0.640625q-0.59375 -0.265625 -1.3125 -0.5q-0.71875 -0.25 -1.328125 -0.625q-0.59375 -0.375 -1.0 -0.953125q-0.40625 -0.59375 -0.40625 -1.59375q0 -1.625 0.921875 -2.375q0.9375 -0.765625 2.59375 -0.765625q1.21875 0 2.046875 0.21875q0.828125 0.203125 1.4375 0.5l-0.421875 1.5q-0.53125 -0.25 -1.265625 -0.4375q-0.734375 -0.203125 -1.578125 -0.203125q-0.984375 0 -1.453125 0.34375q-0.46875 0.34375 -0.46875 1.171875q0 0.59375 0.40625 0.921875q0.40625 0.328125 1.0 0.59375q0.609375 0.25 1.328125 0.5q0.71875 0.25 1.3125 0.65625q0.59375 0.40625 1.0 1.03125q0.421875 0.625 0.421875 1.640625q0 0.734375 -0.25 1.375q-0.234375 0.625 -0.734375 1.078125q-0.5 0.453125 -1.234375 0.703125q-0.734375 0.265625 -1.734375 0.265625q-1.28125 0 -2.1875 -0.25q-0.90625 -0.234375 -1.515625 -0.578125l0.53125 -1.546875q0.53125 0.296875 1.359375 0.546875q0.84375 0.25 1.703125 0.25q0.96875 0 1.609375 -0.375q0.640625 -0.390625 0.640625 -1.390625zm3.0538788 -8.25l1.765625 0l0 -2.25l1.8125 -0.515625l0 2.765625l3.078125 0l0 1.59375l-3.078125 0l0 6.265625q0 1.1875 0.296875 1.671875q0.296875 0.484375 1.0 0.484375q0.578125 0 0.984375 -0.125q0.421875 -0.125 0.90625 -0.328125l0.421875 1.375q-0.625 0.296875 -1.34375 0.46875q-0.71875 0.1875 -1.5625 0.1875q-1.375 0 -1.953125 -0.78125q-0.5625 -0.78125 -0.5625 -2.609375l0 -6.609375l-1.765625 0l0 -1.59375zm8.99295 0.84375q0.859375 -0.53125 2.0 -0.78125q1.15625 -0.25 2.390625 -0.25q1.1875 0 1.890625 0.328125q0.71875 0.3125 1.09375 0.828125q0.375 0.5 0.5 1.125q0.125 0.609375 0.125 1.21875q0 1.359375 -0.078125 2.65625q-0.0625 1.28125 -0.0625 2.4375q0 0.84375 0.0625 1.59375q0.078125 0.734375 0.25 1.375l-1.328125 0l-0.484375 -1.59375l-0.109375 0q-0.203125 0.328125 -0.515625 0.640625q-0.296875 0.296875 -0.734375 0.53125q-0.421875 0.234375 -1.0 0.390625q-0.5625 0.171875 -1.28125 0.171875q-0.71875 0 -1.34375 -0.21875q-0.625 -0.234375 -1.078125 -0.65625q-0.453125 -0.421875 -0.71875 -1.0q-0.25 -0.59375 -0.25 -1.34375q0 -1.0 0.40625 -1.671875q0.40625 -0.671875 1.140625 -1.0625q0.734375 -0.390625 1.765625 -0.5625q1.03125 -0.171875 2.28125 -0.171875q0.3125 0 0.609375 0q0.3125 0 0.625 0.046875q0.078125 -0.6875 0.078125 -1.234375q0 -1.234375 -0.5 -1.734375q-0.5 -0.5 -1.8125 -0.5q-0.390625 0 -0.828125 0.0625q-0.4375 0.046875 -0.90625 0.15625q-0.46875 0.09375 -0.890625 0.25q-0.40625 0.140625 -0.734375 0.328125l-0.5625 -1.359375zm3.21875 9.078125q0.640625 0 1.125 -0.171875q0.5 -0.171875 0.859375 -0.421875q0.375 -0.265625 0.609375 -0.578125q0.234375 -0.328125 0.34375 -0.609375l0 -1.890625q-0.3125 -0.015625 -0.640625 -0.03125q-0.328125 -0.015625 -0.640625 -0.015625q-0.703125 0 -1.375 0.078125q-0.671875 0.078125 -1.1875 0.296875q-0.5 0.21875 -0.8125 0.59375q-0.296875 0.375 -0.296875 0.9375q0 0.796875 0.5625 1.3125q0.5625 0.5 1.453125 0.5zm13.549973 -8.171875q-0.6875 -0.234375 -1.296875 -0.234375q-0.96875 0 -1.546875 0.53125q-0.5625 0.53125 -0.6875 1.359375l0 7.921875l-1.8125 0l0 -11.328125l1.265625 0l0.34375 1.375l0.078125 0q0.4375 -0.765625 1.03125 -1.171875q0.609375 -0.421875 1.53125 -0.421875q0.65625 0 1.46875 0.21875l-0.375 1.75zm1.5393524 -1.75l1.765625 0l0 -2.25l1.8125 -0.515625l0 2.765625l3.078125 0l0 1.59375l-3.078125 0l0 6.265625q0 1.1875 0.296875 1.671875q0.296875 0.484375 1.0 0.484375q0.578125 0 0.984375 -0.125q0.421875 -0.125 0.90625 -0.328125l0.421875 1.375q-0.625 0.296875 -1.34375 0.46875q-0.71875 0.1875 -1.5625 0.1875q-1.375 0 -1.953125 -0.78125q-0.5625 -0.78125 -0.5625 -2.609375l0 -6.609375l-1.765625 0l0 -1.59375z" fill-rule="nonzero"/><path fill="#000000" fill-opacity="0.0" d="m100.57293 275.50522l40.062996 -22.267715" fill-rule="evenodd"/><path stroke="#000000" stroke-width="1.0" stroke-linejoin="round" stroke-linecap="butt" d="m100.57293 275.50522l34.818626 -19.352814" fill-rule="evenodd"/><path fill="#000000" stroke="#000000" stroke-width="1.0" stroke-linecap="butt" d="m136.194 257.59613l3.1641235 -3.648407l-4.7690125 0.7609863z" fill-rule="evenodd"/><path fill="#000000" fill-opacity="0.0" d="m189.36732 275.506l43.842514 0l0 29.385834l-43.842514 0z" fill-rule="evenodd"/><path fill="#000000" d="m200.38295 296.35977q-0.6875 0.546875 -1.71875 0.859375q-1.03125 0.3125 -2.1875 0.3125q-1.28125 0 -2.234375 -0.40625q-0.953125 -0.421875 -1.5625 -1.203125q-0.609375 -0.78125 -0.90625 -1.859375q-0.296875 -1.09375 -0.296875 -2.453125q0 -2.90625 1.28125 -4.421875q1.296875 -1.515625 3.703125 -1.515625q0.765625 0 1.53125 0.171875q0.78125 0.15625 1.390625 0.640625q0.609375 0.46875 1.0 1.34375q0.390625 0.875 0.390625 2.296875q0 0.75 -0.140625 1.65625l-7.28125 0q0 1.0 0.203125 1.78125q0.203125 0.765625 0.640625 1.296875q0.4375 0.53125 1.125 0.8125q0.6875 0.28125 1.6875 0.28125q0.765625 0 1.53125 -0.265625q0.78125 -0.28125 1.15625 -0.640625l0.6875 1.3125zm-3.90625 -9.109375q-1.328125 0 -2.140625 0.703125q-0.796875 0.703125 -0.953125 2.40625l5.609375 0q0 -1.71875 -0.65625 -2.40625q-0.65625 -0.703125 -1.859375 -0.703125zm14.415604 10.015625l0 -6.453125q0 -1.765625 -0.515625 -2.65625q-0.5 -0.90625 -1.859375 -0.90625q-1.203125 0 -1.984375 0.65625q-0.78125 0.640625 -1.09375 1.609375l0 7.75l-1.8125 0l0 -11.328125l1.265625 0l0.34375 1.375l0.078125 0q0.546875 -0.71875 1.46875 -1.171875q0.921875 -0.46875 2.1875 -0.46875q0.921875 0 1.625 0.21875q0.703125 0.203125 1.171875 0.75q0.46875 0.546875 0.703125 1.46875q0.234375 0.90625 0.234375 2.3125l0 6.84375l-1.8125 0zm13.814819 -3.890625q0 1.15625 0.015625 2.09375q0.03125 0.9375 0.21875 1.84375l-1.21875 0l-0.453125 -1.609375l-0.09375 0q-0.453125 0.796875 -1.3125 1.3125q-0.859375 0.515625 -2.015625 0.515625q-2.265625 0 -3.375 -1.421875q-1.09375 -1.421875 -1.09375 -4.46875q0 -2.890625 1.359375 -4.390625q1.375 -1.515625 3.78125 -1.515625q0.84375 0 1.328125 0.09375q0.484375 0.09375 1.046875 0.296875l0 -4.71875l1.8125 0l0 11.96875zm-4.5625 2.578125q1.140625 0 1.8125 -0.59375q0.6875 -0.609375 0.9375 -1.828125l0 -5.625q-0.40625 -0.3125 -0.921875 -0.453125q-0.515625 -0.140625 -1.375 -0.140625q-1.578125 0 -2.46875 1.03125q-0.875 1.03125 -0.875 3.296875q0 0.9375 0.140625 1.734375q0.15625 0.78125 0.5 1.359375q0.34375 0.5625 0.890625 0.890625q0.5625 0.328125 1.359375 0.328125z" fill-rule="nonzero"/><path fill="#000000" fill-opacity="0.0" d="m211.28857 275.506l0 -21.51181" fill-rule="evenodd"/><path stroke="#000000" stroke-width="1.0" stroke-linejoin="round" stroke-linecap="butt" d="m211.28859 275.506l0 -15.51181" fill-rule="evenodd"/><path fill="#000000" stroke="#000000" stroke-width="1.0" stroke-linecap="butt" d="m212.94032 259.9942l-1.6517334 -4.538101l-1.6517334 4.538101z" fill-rule="evenodd"/><path shape-rendering="crispEdges" fill="#d9d9d9" d="m464.83728 194.46402l57.1286 0l0 59.461945l-57.1286 0l0 -59.461945z" fill-rule="nonzero"/><path shape-rendering="crispEdges" fill="#d9d9d9" d="m521.9659 194.46402l57.1286 0l0 59.461945l-57.1286 0l0 -59.461945z" fill-rule="nonzero"/><path shape-rendering="crispEdges" fill="#d9d9d9" d="m579.0945 194.46402l57.1286 0l0 59.461945l-57.1286 0l0 -59.461945z" fill-rule="nonzero"/><path shape-rendering="crispEdges" fill="#d9d9d9" d="m636.2231 194.46402l57.1286 0l0 59.461945l-57.1286 0l0 -59.461945z" fill-rule="nonzero"/><path shape-rendering="crispEdges" fill="#d9d9d9" d="m693.3517 194.46402l57.1286 0l0 59.461945l-57.1286 0l0 -59.461945z" fill-rule="nonzero"/><path shape-rendering="crispEdges" fill="#d9d9d9" d="m750.4803 194.46402l57.128662 0l0 59.461945l-57.128662 0l0 -59.461945z" fill-rule="nonzero"/><path shape-rendering="crispEdges" fill="#d9d9d9" d="m807.60895 194.46402l57.1286 0l0 59.461945l-57.1286 0l0 -59.461945z" fill-rule="nonzero"/><path stroke="#000000" stroke-width="3.0" stroke-linecap="butt" d="m464.83728 192.96533l0 62.45932" fill-rule="nonzero"/><path stroke="#000000" stroke-width="3.0" stroke-linecap="butt" d="m521.9659 192.96533l0 62.45932" fill-rule="nonzero"/><path stroke="#000000" stroke-width="3.0" stroke-linecap="butt" d="m579.0945 192.96533l0 62.45932" fill-rule="nonzero"/><path stroke="#000000" stroke-width="3.0" stroke-linecap="butt" d="m636.2231 192.96533l0 62.45932" fill-rule="nonzero"/><path stroke="#000000" stroke-width="3.0" stroke-linecap="butt" d="m693.3517 192.96533l0 62.45932" fill-rule="nonzero"/><path stroke="#000000" stroke-width="3.0" stroke-linecap="butt" d="m750.4803 192.96533l0 62.45932" fill-rule="nonzero"/><path stroke="#000000" stroke-width="3.0" stroke-linecap="butt" d="m807.60895 192.96533l0 62.45932" fill-rule="nonzero"/><path stroke="#000000" stroke-width="3.0" stroke-linecap="butt" d="m864.73755 192.96533l0 62.45932" fill-rule="nonzero"/><path stroke="#000000" stroke-width="3.0" stroke-linecap="butt" d="m463.3386 194.46402l285.64304 0" fill-rule="nonzero"/><path stroke="#000000" stroke-width="3.0" stroke-linecap="butt" stroke-dasharray="12.0,9.0" d="m748.9816 194.46402l57.1286 0" fill-rule="nonzero"/><path stroke="#000000" stroke-width="3.0" stroke-linecap="butt" d="m806.1102 194.46402l60.125977 0" fill-rule="nonzero"/><path stroke="#000000" stroke-width="3.0" stroke-linecap="butt" d="m463.3386 253.92596l285.64304 0" fill-rule="nonzero"/><path stroke="#000000" stroke-width="3.0" stroke-linecap="butt" stroke-dasharray="12.0,9.0" d="m748.9816 253.92596l57.1286 0" fill-rule="nonzero"/><path stroke="#000000" stroke-width="3.0" stroke-linecap="butt" d="m806.1102 253.92596l60.125977 0" fill-rule="nonzero"/><path fill="#666666" d="m488.81094 181.66402q0 -3.59375 1.171875 -5.40625q1.171875 -1.828125 3.40625 -1.828125q2.421875 0 3.515625 1.796875q1.09375 1.78125 1.09375 5.4375q0 3.59375 -1.171875 5.421875q-1.171875 1.8125 -3.4375 1.8125q-2.375 0 -3.484375 -1.890625q-1.09375 -1.90625 -1.09375 -5.34375zm1.65625 0q0 1.296875 0.171875 2.375q0.171875 1.0625 0.53125 1.84375q0.359375 0.765625 0.90625 1.203125q0.5625 0.421875 1.3125 0.421875q1.515625 0 2.21875 -1.40625q0.71875 -1.421875 0.71875 -4.4375q0 -1.28125 -0.15625 -2.359375q-0.140625 -1.078125 -0.5 -1.859375q-0.34375 -0.78125 -0.90625 -1.203125q-0.546875 -0.421875 -1.375 -0.421875q-1.5 0 -2.21875 1.421875q-0.703125 1.421875 -0.703125 4.421875z" fill-rule="nonzero"/><path fill="#666666" d="m547.23645 187.17964l2.796875 0l0 -9.671875l0.203125 -1.1875l-0.796875 0.9375l-2.203125 1.59375l-0.75 -1.03125l4.390625 -3.390625l0.71875 0l0 12.75l2.75 0l0 1.484375l-7.109375 0l0 -1.484375z" fill-rule="nonzero"/><path fill="#000000" d="m611.1307 177.85152q0 1.046875 -0.390625 2.15625q-0.390625 1.109375 -1.03125 2.234375q-0.625 1.125 -1.40625 2.203125q-0.78125 1.0625 -1.546875 2.015625l-0.984375 0.859375l0 0.078125l1.28125 -0.21875l4.359375 0l0 1.484375l-7.96875 0l0 -0.578125q0.453125 -0.46875 1.0625 -1.140625q0.625 -0.6875 1.296875 -1.515625q0.671875 -0.828125 1.3125 -1.75q0.65625 -0.9375 1.1875 -1.890625q0.53125 -0.96875 0.84375 -1.90625q0.328125 -0.9375 0.328125 -1.78125q0 -0.984375 -0.5625 -1.625q-0.5625 -0.65625 -1.703125 -0.65625q-0.765625 0 -1.484375 0.3125q-0.71875 0.3125 -1.234375 0.71875l-0.65625 -1.140625q0.6875 -0.609375 1.640625 -0.9375q0.96875 -0.34375 2.078125 -0.34375q0.859375 0 1.515625 0.25q0.65625 0.25 1.109375 0.71875q0.46875 0.453125 0.703125 1.078125q0.25 0.625 0.25 1.375z" fill-rule="nonzero"/><path fill="#000000" d="m664.0249 187.50777q0.671875 0 1.25 -0.203125q0.578125 -0.203125 1.0 -0.59375q0.421875 -0.390625 0.65625 -0.921875q0.25 -0.546875 0.25 -1.1875q0 -1.390625 -0.828125 -2.0625q-0.828125 -0.6875 -2.296875 -0.6875l-1.484375 0l0 -0.59375l2.890625 -4.4375l0.921875 -0.875l-1.3125 0.203125l-3.953125 0l0 -1.484375l7.140625 0l0 0.578125l-3.1875 4.78125l-0.6875 0.578125l0 0.046875l0.671875 -0.140625q0.796875 0.015625 1.46875 0.296875q0.6875 0.265625 1.1875 0.78125q0.5 0.5 0.78125 1.21875q0.28125 0.703125 0.28125 1.59375q0 1.078125 -0.375 1.921875q-0.375 0.84375 -1.03125 1.421875q-0.65625 0.5625 -1.53125 0.859375q-0.875 0.296875 -1.859375 0.296875q-0.90625 0 -1.625 -0.140625q-0.71875 -0.140625 -1.25 -0.359375l0.421875 -1.421875q0.453125 0.234375 1.078125 0.390625q0.640625 0.140625 1.421875 0.140625z" fill-rule="nonzero"/><path fill="#999999" d="m726.9504 184.36714l-2.359375 0l0 4.296875l-1.5625 0l0 -4.296875l-6.15625 0l0 -0.65625l6.640625 -9.265625l1.078125 0l0 8.515625l2.359375 0l0 1.40625zm-3.921875 -5.765625l0.203125 -1.640625l-0.0625 0l-0.703125 1.359375l-2.8125 3.828125l-0.96875 0.96875l1.40625 -0.15625l2.9375 0l0 -4.359375z" fill-rule="nonzero"/><path fill="#999999" d="m832.0826 185.32027q0 -1.25 0.65625 -2.171875q0.671875 -0.9375 2.0625 -1.703125q-0.5 -0.296875 -0.9375 -0.625q-0.421875 -0.34375 -0.75 -0.75q-0.328125 -0.421875 -0.515625 -0.9375q-0.1875 -0.53125 -0.1875 -1.203125q0 -0.78125 0.265625 -1.421875q0.265625 -0.640625 0.765625 -1.09375q0.515625 -0.46875 1.21875 -0.71875q0.71875 -0.265625 1.625 -0.265625q0.84375 0 1.515625 0.234375q0.6875 0.234375 1.15625 0.65625q0.46875 0.421875 0.71875 1.0q0.265625 0.578125 0.265625 1.28125q0 1.140625 -0.515625 2.015625q-0.515625 0.859375 -1.71875 1.703125q0.515625 0.296875 0.984375 0.671875q0.46875 0.359375 0.8125 0.796875q0.359375 0.4375 0.5625 0.984375q0.203125 0.546875 0.203125 1.25q0 0.859375 -0.28125 1.578125q-0.28125 0.703125 -0.828125 1.21875q-0.53125 0.5 -1.3125 0.796875q-0.78125 0.28125 -1.78125 0.28125q-0.96875 0 -1.703125 -0.265625q-0.734375 -0.28125 -1.25 -0.765625q-0.515625 -0.484375 -0.78125 -1.125q-0.25 -0.65625 -0.25 -1.421875zm6.625 -0.203125q0 -0.59375 -0.25 -1.046875q-0.234375 -0.453125 -0.625 -0.8125q-0.390625 -0.375 -0.890625 -0.671875q-0.5 -0.296875 -1.03125 -0.578125q-1.234375 0.671875 -1.75 1.515625q-0.515625 0.84375 -0.515625 1.59375q0 0.484375 0.15625 0.921875q0.15625 0.4375 0.46875 0.765625q0.328125 0.3125 0.796875 0.515625q0.46875 0.1875 1.09375 0.1875q0.5 0 0.953125 -0.140625q0.46875 -0.15625 0.8125 -0.453125q0.359375 -0.296875 0.5625 -0.734375q0.21875 -0.453125 0.21875 -1.0625zm-4.75 -7.234375q0 0.5625 0.21875 1.0q0.234375 0.421875 0.59375 0.765625q0.375 0.328125 0.84375 0.625q0.484375 0.296875 1.015625 0.546875q0.890625 -0.703125 1.3125 -1.375q0.4375 -0.6875 0.4375 -1.5q0 -1.015625 -0.625 -1.5625q-0.625 -0.5625 -1.515625 -0.5625q-0.53125 0 -0.953125 0.1875q-0.421875 0.171875 -0.71875 0.453125q-0.296875 0.28125 -0.453125 0.65625q-0.15625 0.359375 -0.15625 0.765625z" fill-rule="nonzero"/><path fill="#666666" d="m491.95514 228.09373q-0.03125 -0.09375 -0.03125 -0.21875q0 -0.140625 0 -0.25q0 -0.890625 0.265625 -1.5625q0.28125 -0.6875 0.671875 -1.25q0.390625 -0.578125 0.84375 -1.0625q0.46875 -0.484375 0.859375 -0.984375q0.390625 -0.515625 0.65625 -1.078125q0.265625 -0.5625 0.265625 -1.28125q0 -0.984375 -0.5625 -1.59375q-0.5625 -0.625 -1.890625 -0.625q-0.765625 0 -1.5625 0.265625q-0.78125 0.265625 -1.359375 0.625l-0.5625 -1.328125q0.796875 -0.484375 1.6875 -0.765625q0.90625 -0.296875 2.234375 -0.296875q0.9375 0 1.640625 0.265625q0.71875 0.265625 1.203125 0.734375q0.484375 0.46875 0.71875 1.109375q0.234375 0.640625 0.234375 1.375q0 0.953125 -0.296875 1.671875q-0.28125 0.703125 -0.71875 1.296875q-0.4375 0.59375 -0.9375 1.109375q-0.5 0.5 -0.9375 1.0625q-0.4375 0.5625 -0.734375 1.234375q-0.28125 0.65625 -0.28125 1.546875l-1.40625 0zm-0.4375 2.796875q0 -0.578125 0.328125 -0.90625q0.34375 -0.328125 0.890625 -0.328125q0.578125 0 0.921875 0.328125q0.34375 0.328125 0.34375 0.90625q0 0.5625 -0.34375 0.90625q-0.34375 0.328125 -0.921875 0.328125q-0.546875 0 -0.890625 -0.328125q-0.328125 -0.34375 -0.328125 -0.90625z" fill-rule="nonzero"/><path fill="#666666" d="m558.78064 235.22624q-1.0 0.765625 -2.53125 1.0625q-1.53125 0.3125 -3.265625 0.3125q-2.109375 0 -3.9375 -0.71875q-1.828125 -0.71875 -3.203125 -2.1875q-1.359375 -1.46875 -2.171875 -3.75q-0.796875 -2.28125 -0.796875 -5.421875q0 -3.265625 0.875 -5.546875q0.890625 -2.28125 2.34375 -3.71875q1.453125 -1.453125 3.25 -2.125q1.796875 -0.671875 3.671875 -0.671875q2.0 0 3.265625 0.21875q1.265625 0.21875 2.171875 0.578125l-0.671875 2.4375q-1.59375 -0.765625 -4.5625 -0.765625q-1.375 0 -2.703125 0.5q-1.328125 0.5 -2.390625 1.640625q-1.046875 1.125 -1.6875 2.96875q-0.625 1.828125 -0.625 4.484375q0 2.40625 0.59375 4.203125q0.609375 1.796875 1.65625 3.0q1.046875 1.203125 2.46875 1.8125q1.421875 0.59375 3.078125 0.59375q1.5 0 2.609375 -0.296875q1.125 -0.3125 1.890625 -0.78125l0.671875 2.171875z" fill-rule="nonzero"/><path fill="#666666" d="m601.555 212.86687l12.703125 0l0 2.46875l-9.9375 0l0 7.625l9.109375 0l0 2.46875l-9.109375 0l0 8.296875l10.109375 0l0 2.46875l-12.875 0l0 -23.328125z" fill-rule="nonzero"/><path fill="#666666" d="m663.4274 227.84811q-0.015625 -0.09375 -0.015625 -0.203125q0 -0.125 0 -0.234375q0 -0.828125 0.25 -1.46875q0.25 -0.640625 0.609375 -1.171875q0.375 -0.53125 0.796875 -0.984375q0.4375 -0.46875 0.796875 -0.9375q0.375 -0.46875 0.625 -1.0q0.25 -0.53125 0.25 -1.21875q0 -0.921875 -0.53125 -1.5q-0.515625 -0.578125 -1.765625 -0.578125q-0.71875 0 -1.46875 0.25q-0.734375 0.25 -1.265625 0.59375l-0.546875 -1.234375q0.765625 -0.46875 1.609375 -0.734375q0.84375 -0.265625 2.078125 -0.265625q0.875 0 1.546875 0.25q0.671875 0.25 1.125 0.6875q0.453125 0.4375 0.671875 1.046875q0.21875 0.59375 0.21875 1.265625q0 0.90625 -0.28125 1.578125q-0.265625 0.671875 -0.671875 1.21875q-0.40625 0.546875 -0.875 1.03125q-0.46875 0.46875 -0.890625 1.0q-0.40625 0.53125 -0.6875 1.15625q-0.265625 0.625 -0.265625 1.453125l-1.3125 0zm-0.40625 2.625q0 -0.53125 0.3125 -0.84375q0.3125 -0.3125 0.828125 -0.3125q0.546875 0 0.859375 0.3125q0.328125 0.3125 0.328125 0.84375q0 0.515625 -0.328125 0.84375q-0.3125 0.3125 -0.859375 0.3125q-0.515625 0 -0.828125 -0.3125q-0.3125 -0.328125 -0.3125 -0.84375z" fill-rule="nonzero"/><path fill="#666666" d="m727.51465 225.49187l-11.203125 0l0 10.703125l-2.765625 0l0 -23.328125l2.765625 0l0 10.15625l11.203125 0l0 -10.15625l2.765625 0l0 23.328125l-2.765625 0l0 -10.703125z" fill-rule="nonzero"/><path fill="#666666" d="m785.6935 234.66374q0 -0.90625 0.515625 -1.421875q0.515625 -0.515625 1.390625 -0.515625q0.890625 0 1.421875 0.515625q0.53125 0.515625 0.53125 1.421875q0 0.859375 -0.53125 1.40625q-0.53125 0.53125 -1.421875 0.53125q-0.875 0 -1.390625 -0.53125q-0.515625 -0.546875 -0.515625 -1.40625zm-8.46875 0q0 -0.90625 0.515625 -1.421875q0.515625 -0.515625 1.390625 -0.515625q0.890625 0 1.421875 0.515625q0.546875 0.515625 0.546875 1.421875q0 0.859375 -0.546875 1.40625q-0.53125 0.53125 -1.421875 0.53125q-0.875 0 -1.390625 -0.53125q-0.515625 -0.546875 -0.515625 -1.40625zm-8.46875 0q0 -0.90625 0.515625 -1.421875q0.53125 -0.515625 1.390625 -0.515625q0.90625 0 1.4375 0.515625q0.53125 0.515625 0.53125 1.421875q0 0.859375 -0.53125 1.40625q-0.53125 0.53125 -1.4375 0.53125q-0.859375 0 -1.390625 -0.53125q-0.515625 -0.546875 -0.515625 -1.40625z" fill-rule="nonzero"/><path fill="#666666" d="m834.81323 227.84811q-0.015625 -0.09375 -0.015625 -0.203125q0 -0.125 0 -0.234375q0 -0.828125 0.25 -1.46875q0.25 -0.640625 0.609375 -1.171875q0.375 -0.53125 0.796875 -0.984375q0.4375 -0.46875 0.796875 -0.9375q0.375 -0.46875 0.625 -1.0q0.25 -0.53125 0.25 -1.21875q0 -0.921875 -0.53125 -1.5q-0.515625 -0.578125 -1.765625 -0.578125q-0.71875 0 -1.46875 0.25q-0.734375 0.25 -1.265625 0.59375l-0.546875 -1.234375q0.765625 -0.46875 1.609375 -0.734375q0.84375 -0.265625 2.078125 -0.265625q0.875 0 1.546875 0.25q0.671875 0.25 1.125 0.6875q0.453125 0.4375 0.671875 1.046875q0.21875 0.59375 0.21875 1.265625q0 0.90625 -0.28125 1.578125q-0.265625 0.671875 -0.671875 1.21875q-0.40625 0.546875 -0.875 1.03125q-0.46875 0.46875 -0.890625 1.0q-0.40625 0.53125 -0.6875 1.15625q-0.265625 0.625 -0.265625 1.453125l-1.3125 0zm-0.40625 2.625q0 -0.53125 0.3125 -0.84375q0.3125 -0.3125 0.828125 -0.3125q0.546875 0 0.859375 0.3125q0.328125 0.3125 0.328125 0.84375q0 0.515625 -0.328125 0.84375q-0.3125 0.3125 -0.859375 0.3125q-0.515625 0 -0.828125 -0.3125q-0.3125 -0.328125 -0.3125 -0.84375z" fill-rule="nonzero"/><path fill="#000000" fill-opacity="0.0" d="m580.4513 274.20285l50.04724 0l0 29.385803l-50.04724 0z" fill-rule="evenodd"/><path fill="#000000" d="m588.18567 292.8847q0 -0.6875 -0.421875 -1.0625q-0.40625 -0.390625 -1.0 -0.640625q-0.59375 -0.265625 -1.3125 -0.5q-0.71875 -0.25 -1.328125 -0.625q-0.59375 -0.375 -1.0 -0.953125q-0.40625 -0.59375 -0.40625 -1.59375q0 -1.625 0.921875 -2.375q0.9375 -0.765625 2.59375 -0.765625q1.21875 0 2.046875 0.21875q0.828125 0.203125 1.4375 0.5l-0.421875 1.5q-0.53125 -0.25 -1.265625 -0.4375q-0.734375 -0.203125 -1.578125 -0.203125q-0.984375 0 -1.453125 0.34375q-0.46875 0.34375 -0.46875 1.171875q0 0.59375 0.40625 0.921875q0.40625 0.328125 1.0 0.59375q0.609375 0.25 1.328125 0.5q0.71875 0.25 1.3125 0.65625q0.59375 0.40625 1.0 1.03125q0.421875 0.625 0.421875 1.640625q0 0.734375 -0.25 1.375q-0.234375 0.625 -0.734375 1.078125q-0.5 0.453125 -1.234375 0.703125q-0.734375 0.265625 -1.734375 0.265625q-1.28125 0 -2.1875 -0.25q-0.90625 -0.234375 -1.515625 -0.578125l0.53125 -1.546875q0.53125 0.296875 1.359375 0.546875q0.84375 0.25 1.703125 0.25q0.96875 0 1.609375 -0.375q0.640625 -0.390625 0.640625 -1.390625zm3.053894 -8.25l1.765625 0l0 -2.25l1.8125 -0.515625l0 2.765625l3.078125 0l0 1.59375l-3.078125 0l0 6.265625q0 1.1875 0.296875 1.671875q0.296875 0.484375 1.0 0.484375q0.578125 0 0.984375 -0.125q0.421875 -0.125 0.90625 -0.328125l0.421875 1.375q-0.625 0.296875 -1.34375 0.46875q-0.71875 0.1875 -1.5625 0.1875q-1.375 0 -1.953125 -0.78125q-0.5625 -0.78125 -0.5625 -2.609375l0 -6.609375l-1.765625 0l0 -1.59375zm8.992981 0.84375q0.859375 -0.53125 2.0 -0.78125q1.15625 -0.25 2.390625 -0.25q1.1875 0 1.890625 0.328125q0.71875 0.3125 1.09375 0.828125q0.375 0.5 0.5 1.125q0.125 0.609375 0.125 1.21875q0 1.359375 -0.078125 2.65625q-0.0625 1.28125 -0.0625 2.4375q0 0.84375 0.0625 1.59375q0.078125 0.734375 0.25 1.375l-1.328125 0l-0.484375 -1.59375l-0.109375 0q-0.203125 0.328125 -0.515625 0.640625q-0.296875 0.296875 -0.734375 0.53125q-0.421875 0.234375 -1.0 0.390625q-0.5625 0.171875 -1.28125 0.171875q-0.71875 0 -1.34375 -0.21875q-0.625 -0.234375 -1.078125 -0.65625q-0.453125 -0.421875 -0.71875 -1.0q-0.25 -0.59375 -0.25 -1.34375q0 -1.0 0.40625 -1.671875q0.40625 -0.671875 1.140625 -1.0625q0.734375 -0.390625 1.765625 -0.5625q1.03125 -0.171875 2.28125 -0.171875q0.3125 0 0.609375 0q0.3125 0 0.625 0.046875q0.078125 -0.6875 0.078125 -1.234375q0 -1.234375 -0.5 -1.734375q-0.5 -0.5 -1.8125 -0.5q-0.390625 0 -0.828125 0.0625q-0.4375 0.046875 -0.90625 0.15625q-0.46875 0.09375 -0.890625 0.25q-0.40625 0.140625 -0.734375 0.328125l-0.5625 -1.359375zm3.21875 9.078125q0.640625 0 1.125 -0.171875q0.5 -0.171875 0.859375 -0.421875q0.375 -0.265625 0.609375 -0.578125q0.234375 -0.328125 0.34375 -0.609375l0 -1.890625q-0.3125 -0.015625 -0.640625 -0.03125q-0.328125 -0.015625 -0.640625 -0.015625q-0.703125 0 -1.375 0.078125q-0.671875 0.078125 -1.1875 0.296875q-0.5 0.21875 -0.8125 0.59375q-0.296875 0.375 -0.296875 0.9375q0 0.796875 0.5625 1.3125q0.5625 0.5 1.453125 0.5zm13.549927 -8.171875q-0.6875 -0.234375 -1.296875 -0.234375q-0.96875 0 -1.546875 0.53125q-0.5625 0.53125 -0.6875 1.359375l0 7.921875l-1.8125 0l0 -11.328125l1.265625 0l0.34375 1.375l0.078125 0q0.4375 -0.765625 1.03125 -1.171875q0.609375 -0.421875 1.53125 -0.421875q0.65625 0 1.46875 0.21875l-0.375 1.75zm1.5393677 -1.75l1.765625 0l0 -2.25l1.8125 -0.515625l0 2.765625l3.078125 0l0 1.59375l-3.078125 0l0 6.265625q0 1.1875 0.296875 1.671875q0.296875 0.484375 1.0 0.484375q0.578125 0 0.984375 -0.125q0.421875 -0.125 0.90625 -0.328125l0.421875 1.375q-0.625 0.296875 -1.34375 0.46875q-0.71875 0.1875 -1.5625 0.1875q-1.375 0 -1.953125 -0.78125q-0.5625 -0.78125 -0.5625 -2.609375l0 -6.609375l-1.765625 0l0 -1.59375z" fill-rule="nonzero"/><path fill="#000000" fill-opacity="0.0" d="m605.4749 274.20285l0 -21.511826" fill-rule="evenodd"/><path stroke="#000000" stroke-width="1.0" stroke-linejoin="round" stroke-linecap="butt" d="m605.4749 274.20285l0 -15.51181" fill-rule="evenodd"/><path fill="#000000" stroke="#000000" stroke-width="1.0" stroke-linecap="butt" d="m607.12665 258.69104l-1.6517334 -4.5381165l-1.6517334 4.5381165z" fill-rule="evenodd"/><path fill="#000000" fill-opacity="0.0" d="m527.49506 274.2036l43.84253 0l0 29.385834l-43.84253 0z" fill-rule="evenodd"/><path fill="#000000" d="m538.5107 295.05737q-0.6875 0.546875 -1.71875 0.859375q-1.03125 0.3125 -2.1875 0.3125q-1.28125 0 -2.234375 -0.40625q-0.953125 -0.421875 -1.5625 -1.203125q-0.609375 -0.78125 -0.90625 -1.859375q-0.296875 -1.09375 -0.296875 -2.453125q0 -2.90625 1.28125 -4.421875q1.296875 -1.515625 3.703125 -1.515625q0.765625 0 1.53125 0.171875q0.78125 0.15625 1.390625 0.640625q0.609375 0.46875 1.0 1.34375q0.390625 0.875 0.390625 2.296875q0 0.75 -0.140625 1.65625l-7.28125 0q0 1.0 0.203125 1.78125q0.203125 0.765625 0.640625 1.296875q0.4375 0.53125 1.125 0.8125q0.6875 0.28125 1.6875 0.28125q0.765625 0 1.53125 -0.265625q0.78125 -0.28125 1.15625 -0.640625l0.6875 1.3125zm-3.90625 -9.109375q-1.328125 0 -2.140625 0.703125q-0.796875 0.703125 -0.953125 2.40625l5.609375 0q0 -1.71875 -0.65625 -2.40625q-0.65625 -0.703125 -1.859375 -0.703125zm14.415588 10.015625l0 -6.453125q0 -1.765625 -0.515625 -2.65625q-0.5 -0.90625 -1.859375 -0.90625q-1.203125 0 -1.984375 0.65625q-0.78125 0.640625 -1.09375 1.609375l0 7.75l-1.8125 0l0 -11.328125l1.265625 0l0.34375 1.375l0.078125 0q0.546875 -0.71875 1.46875 -1.171875q0.921875 -0.46875 2.1875 -0.46875q0.921875 0 1.625 0.21875q0.703125 0.203125 1.171875 0.75q0.46875 0.546875 0.703125 1.46875q0.234375 0.90625 0.234375 2.3125l0 6.84375l-1.8125 0zm13.814819 -3.890625q0 1.15625 0.015625 2.09375q0.03125 0.9375 0.21875 1.84375l-1.21875 0l-0.453125 -1.609375l-0.09375 0q-0.453125 0.796875 -1.3125 1.3125q-0.859375 0.515625 -2.015625 0.515625q-2.265625 0 -3.375 -1.421875q-1.09375 -1.421875 -1.09375 -4.46875q0 -2.890625 1.359375 -4.390625q1.375 -1.515625 3.78125 -1.515625q0.84375 0 1.328125 0.09375q0.484375 0.09375 1.046875 0.296875l0 -4.71875l1.8125 0l0 11.96875zm-4.5625 2.578125q1.140625 0 1.8125 -0.59375q0.6875 -0.609375 0.9375 -1.828125l0 -5.625q-0.40625 -0.3125 -0.921875 -0.453125q-0.515625 -0.140625 -1.375 -0.140625q-1.578125 0 -2.46875 1.03125q-0.875 1.03125 -0.875 3.296875q0 0.9375 0.140625 1.734375q0.15625 0.78125 0.5 1.359375q0.34375 0.5625 0.890625 0.890625q0.5625 0.328125 1.359375 0.328125z" fill-rule="nonzero"/><path fill="#000000" fill-opacity="0.0" d="m549.4163 274.2036l0 -21.511795" fill-rule="evenodd"/><path stroke="#000000" stroke-width="1.0" stroke-linejoin="round" stroke-linecap="butt" d="m549.4163 274.2036l0 -15.51181" fill-rule="evenodd"/><path fill="#000000" stroke="#000000" stroke-width="1.0" stroke-linecap="butt" d="m551.06805 258.6918l-1.6517334 -4.538101l-1.6517334 4.538101z" fill-rule="evenodd"/></g></svg>