<svg version="1.1" viewBox="0.0 0.0 806.6377952755905 161.82677165354332" fill="none" stroke="none" stroke-linecap="square" stroke-miterlimit="10" xmlns:xlink="http://www.w3.org/1999/xlink" xmlns="http://www.w3.org/2000/svg"><clipPath id="p.0"><path d="m0 0l806.6378 0l0 161.82677l-806.6378 0l0 -161.82677z" clip-rule="nonzero"/></clipPath><g clip-path="url(#p.0)"><path fill="#000000" fill-opacity="0.0" d="m0 0l806.6378 0l0 161.82677l-806.6378 0z" fill-rule="evenodd"/><path fill="#000000" d="m92.14304 70.555595c0 -2.0873718 1.6921539 -3.7795258 3.7795258 -3.7795258c1.0023956 0 1.9637299 0.398201 2.6725311 1.1070023c0.70880127 0.70879364 1.1070023 1.6701355 1.1070023 2.6725235c0 2.0873795 -1.6921539 3.7795334 -3.7795334 3.7795334c-2.0873718 0 -3.7795258 -1.6921539 -3.7795258 -3.7795334z" fill-rule="evenodd"/><path stroke="#000000" stroke-width="1.0" stroke-linejoin="round" stroke-linecap="butt" d="m92.14304 70.555595c0 -2.0873718 1.6921539 -3.7795258 3.7795258 -3.7795258c1.0023956 0 1.9637299 0.398201 2.6725311 1.1070023c0.70880127 0.70879364 1.1070023 1.6701355 1.1070023 2.6725235c0 2.0873795 -1.6921539 3.7795334 -3.7795334 3.7795334c-2.0873718 0 -3.7795258 -1.6921539 -3.7795258 -3.7795334z" fill-rule="evenodd"/><path fill="#000000" d="m58.127296 70.555595c0 -2.0873718 1.6921539 -3.7795258 3.7795296 -3.7795258c1.0023918 0 1.9637299 0.398201 2.6725273 1.1070023c0.70880127 0.70879364 1.1069946 1.6701355 1.1069946 2.6725235c0 2.0873795 -1.6921501 3.7795334 -3.779522 3.7795334c-2.0873756 0 -3.7795296 -1.6921539 -3.7795296 -3.7795334z" fill-rule="evenodd"/><path stroke="#000000" stroke-width="1.0" stroke-linejoin="round" stroke-linecap="butt" d="m58.127296 70.555595c0 -2.0873718 1.6921539 -3.7795258 3.7795296 -3.7795258c1.0023918 0 1.9637299 0.398201 2.6725273 1.1070023c0.70880127 0.70879364 1.1069946 1.6701355 1.1069946 2.6725235c0 2.0873795 -1.6921501 3.7795334 -3.779522 3.7795334c-2.0873756 0 -3.7795296 -1.6921539 -3.7795296 -3.7795334z" fill-rule="evenodd"/><path fill="#000000" d="m126.15879 70.555595c0 -2.0873718 1.6921539 -3.7795258 3.7795334 -3.7795258c1.0023956 0 1.9637299 0.398201 2.6725311 1.1070023c0.708786 0.70879364 1.1069946 1.6701355 1.1069946 2.6725235c0 2.0873795 -1.6921539 3.7795334 -3.7795258 3.7795334c-2.0873795 0 -3.7795334 -1.6921539 -3.7795334 -3.7795334z" fill-rule="evenodd"/><path stroke="#000000" stroke-width="1.0" stroke-linejoin="round" stroke-linecap="butt" d="m126.15879 70.555595c0 -2.0873718 1.6921539 -3.7795258 3.7795334 -3.7795258c1.0023956 0 1.9637299 0.398201 2.6725311 1.1070023c0.708786 0.70879364 1.1069946 1.6701355 1.1069946 2.6725235c0 2.0873795 -1.6921539 3.7795334 -3.7795258 3.7795334c-2.0873795 0 -3.7795334 -1.6921539 -3.7795334 -3.7795334z" fill-rule="evenodd"/><path fill="#000000" fill-opacity="0.0" d="m58.127296 43.820057c0 -5.4895897 4.4501915 -9.939781 9.939781 -9.939781l55.71099 0c2.6361923 0 5.164421 1.047226 7.0284805 2.911293c1.8640747 1.8640709 2.9113007 4.392292 2.9113007 7.028488l0 17.915714c0 5.4895935 -4.4501953 9.939781 -9.939781 9.939781l-55.71099 0c-5.4895897 0 -9.939781 -4.4501877 -9.939781 -9.939781z" fill-rule="evenodd"/><path stroke="#000000" stroke-width="2.0" stroke-linejoin="round" stroke-linecap="butt" d="m58.127296 43.820057c0 -5.4895897 4.4501915 -9.939781 9.939781 -9.939781l55.71099 0c2.6361923 0 5.164421 1.047226 7.0284805 2.911293c1.8640747 1.8640709 2.9113007 4.392292 2.9113007 7.028488l0 17.915714c0 5.4895935 -4.4501953 9.939781 -9.939781 9.939781l-55.71099 0c-5.4895897 0 -9.939781 -4.4501877 -9.939781 -9.939781z" fill-rule="evenodd"/><path fill="#000000" d="m75.464134 44.942913l-1.6875 -0.203125l0 -0.5625q0.390625 -0.140625 0.84375 -0.28125q0.453125 -0.140625 0.921875 -0.265625q0.46875 -0.140625 0.921875 -0.21875q0.46875 -0.09375 0.84375 -0.140625l0.5 0.265625l-2.109375 10.0l0.125 0q0.4375 -0.859375 0.953125 -1.671875q0.515625 -0.8125 1.09375 -1.4375q0.59375 -0.625 1.234375 -1.0q0.65625 -0.390625 1.375 -0.390625q1.265625 0 2.015625 0.890625q0.75 0.875 0.75 2.75q0 1.84375 -0.515625 3.46875q-0.515625 1.625 -1.453125 2.84375q-0.9375 1.203125 -2.265625 1.90625q-1.3125 0.703125 -2.921875 0.703125q-1.171875 0 -2.203125 -0.296875q-1.015625 -0.296875 -1.5 -0.703125l3.078125 -15.65625zm4.0 5.578125q-0.625 0 -1.21875 0.546875q-0.59375 0.546875 -1.109375 1.328125q-0.515625 0.78125 -0.9375 1.640625q-0.421875 0.84375 -0.71875 1.421875l-0.90625 4.609375q0.359375 0.234375 0.890625 0.375q0.546875 0.125 1.078125 0.125q0.9375 0 1.765625 -0.640625q0.828125 -0.65625 1.453125 -1.703125q0.625 -1.0625 0.984375 -2.390625q0.359375 -1.328125 0.328125 -2.703125q0.03125 -1.15625 -0.359375 -1.875q-0.375 -0.734375 -1.25 -0.734375zm32.59253 9.59375q0.65625 0 1.296875 -0.609375q0.65625 -0.609375 1.234375 -1.46875q0.578125 -0.875 1.03125 -1.8125q0.453125 -0.9375 0.71875 -1.546875l0.765625 -4.109375q-0.359375 -0.234375 -0.671875 -0.3125q-0.296875 -0.09375 -0.84375 -0.125q-1.15625 0.03125 -2.0625 0.71875q-0.90625 0.671875 -1.53125 1.75q-0.625 1.0625 -0.953125 2.390625q-0.328125 1.3125 -0.328125 2.578125q0 1.234375 0.296875 1.890625q0.3125 0.65625 1.046875 0.65625zm3.796875 -3.5q-0.3125 0.859375 -0.796875 1.75q-0.46875 0.890625 -1.09375 1.609375q-0.609375 0.71875 -1.34375 1.171875q-0.71875 0.453125 -1.5625 0.453125q-2.5 0 -2.5 -3.640625q0 -1.703125 0.484375 -3.296875q0.484375 -1.59375 1.390625 -2.828125q0.90625 -1.25 2.203125 -1.984375q1.296875 -0.75 2.953125 -0.75q0.625 0 0.9375 0.09375q0.3125 0.078125 0.796875 0.296875l0.90625 -4.546875l-1.671875 -0.203125l0 -0.609375q0.359375 -0.140625 0.78125 -0.265625q0.4375 -0.140625 0.90625 -0.25q0.46875 -0.109375 0.9375 -0.203125q0.484375 -0.09375 0.890625 -0.140625l0.515625 0.1875l-3.296875 16.546875l1.75 0l0 0.59375q-0.46875 0.375 -1.140625 0.625q-0.671875 0.234375 -1.328125 0.234375q-0.6875 0 -1.0 -0.296875q-0.296875 -0.296875 -0.296875 -0.640625q0 -0.421875 0.171875 -1.40625q0.171875 -0.984375 0.5 -2.5l-0.09375 0z" fill-rule="nonzero"/><path fill="#000000" fill-opacity="0.0" d="m95.92257 33.880276l0 37.795277" fill-rule="evenodd"/><path stroke="#000000" stroke-width="2.0" stroke-linejoin="round" stroke-linecap="butt" d="m95.92257 33.880276l0 37.795277" fill-rule="evenodd"/><path fill="#000000" fill-opacity="0.0" d="m95.92257 74.33513l0.75590515 39.90551" fill-rule="evenodd"/><path stroke="#000000" stroke-width="1.9763779527559056" stroke-linejoin="round" stroke-linecap="butt" d="m95.92257 74.33513l0.5313263 28.049362" fill-rule="evenodd"/><path fill="#000000" stroke="#000000" stroke-width="1.9763779527559056" stroke-linecap="butt" d="m93.19003 102.44633l3.4337234 8.905556l3.0940018 -9.029213z" fill-rule="evenodd"/><path fill="#efefef" d="m209.53937 81.79837l71.86386 0l0 -7.541832l23.978668 20.220467l-23.978668 20.220474l0 -7.541832l-71.86386 0z" fill-rule="evenodd"/><path stroke="#000000" stroke-width="1.0" stroke-linejoin="round" stroke-linecap="butt" d="m209.53937 81.79837l71.86386 0l0 -7.541832l23.978668 20.220467l-23.978668 20.220474l0 -7.541832l-71.86386 0z" fill-rule="evenodd"/><path fill="#000000" d="m226.26158 98.19388q0 0.953125 0.015625 1.734375q0.03125 0.765625 0.171875 1.5l-1.0 0l-0.375 -1.3125l-0.078125 0q-0.375 0.640625 -1.078125 1.078125q-0.703125 0.421875 -1.65625 0.421875q-1.875 0 -2.78125 -1.171875q-0.890625 -1.171875 -0.890625 -3.671875q0 -2.390625 1.125 -3.625q1.125 -1.25 3.109375 -1.25q0.6875 0 1.078125 0.078125q0.40625 0.078125 0.875 0.25l0 -3.890625l1.484375 0l0 9.859375zm-3.765625 2.125q0.953125 0 1.515625 -0.5q0.5625 -0.5 0.765625 -1.5l0 -4.625q-0.34375 -0.265625 -0.78125 -0.375q-0.421875 -0.109375 -1.125 -0.109375q-1.28125 0 -2.015625 0.84375q-0.71875 0.84375 -0.71875 2.71875q0 0.765625 0.109375 1.421875q0.125 0.640625 0.40625 1.109375q0.28125 0.46875 0.734375 0.75q0.453125 0.265625 1.109375 0.265625zm13.458939 0.328125q-0.5625 0.453125 -1.421875 0.71875q-0.84375 0.25 -1.796875 0.25q-1.0625 0 -1.84375 -0.34375q-0.78125 -0.34375 -1.28125 -0.984375q-0.5 -0.640625 -0.75 -1.53125q-0.234375 -0.90625 -0.234375 -2.03125q0 -2.375 1.0625 -3.625q1.0625 -1.25 3.03125 -1.25q0.640625 0 1.265625 0.140625q0.640625 0.140625 1.140625 0.53125q0.5 0.390625 0.8125 1.109375q0.328125 0.71875 0.328125 1.890625q0 0.609375 -0.109375 1.359375l-5.984375 0q0 0.828125 0.15625 1.46875q0.171875 0.625 0.515625 1.0625q0.359375 0.4375 0.921875 0.671875q0.578125 0.234375 1.40625 0.234375q0.625 0 1.265625 -0.21875q0.640625 -0.234375 0.953125 -0.53125l0.5625 1.078125zm-3.21875 -7.5q-1.09375 0 -1.765625 0.578125q-0.65625 0.578125 -0.78125 1.984375l4.625 0q0 -1.421875 -0.546875 -1.984375q-0.53125 -0.578125 -1.53125 -0.578125zm7.539871 5.953125q0 0.65625 0.21875 0.9375q0.234375 0.28125 0.640625 0.28125q0.25 0 0.515625 -0.03125q0.28125 -0.046875 0.640625 -0.171875l0.171875 1.171875q-0.296875 0.140625 -0.828125 0.234375q-0.53125 0.09375 -0.921875 0.09375q-0.84375 0 -1.390625 -0.46875q-0.53125 -0.484375 -0.53125 -1.609375l0 -11.203125l1.484375 0l0 10.765625zm10.603882 1.546875q-0.5625 0.453125 -1.421875 0.71875q-0.84375 0.25 -1.796875 0.25q-1.0625 0 -1.84375 -0.34375q-0.78125 -0.34375 -1.28125 -0.984375q-0.5 -0.640625 -0.75 -1.53125q-0.234375 -0.90625 -0.234375 -2.03125q0 -2.375 1.0625 -3.625q1.0625 -1.25 3.03125 -1.25q0.640625 0 1.265625 0.140625q0.640625 0.140625 1.140625 0.53125q0.5 0.390625 0.8125 1.109375q0.328125 0.71875 0.328125 1.890625q0 0.609375 -0.109375 1.359375l-5.984375 0q0 0.828125 0.15625 1.46875q0.171875 0.625 0.515625 1.0625q0.359375 0.4375 0.921875 0.671875q0.578125 0.234375 1.40625 0.234375q0.625 0 1.265625 -0.21875q0.640625 -0.234375 0.953125 -0.53125l0.5625 1.078125zm-3.21875 -7.5q-1.09375 0 -1.765625 0.578125q-0.65625 0.578125 -0.78125 1.984375l4.625 0q0 -1.421875 -0.546875 -1.984375q-0.53125 -0.578125 -1.53125 -0.578125zm4.649246 -1.078125l1.453125 0l0 -1.84375l1.5 -0.4375l0 2.28125l2.53125 0l0 1.3125l-2.53125 0l0 5.15625q0 0.96875 0.234375 1.375q0.25 0.40625 0.828125 0.40625q0.484375 0 0.8125 -0.09375q0.34375 -0.109375 0.75 -0.28125l0.34375 1.140625q-0.515625 0.234375 -1.109375 0.375q-0.59375 0.15625 -1.28125 0.15625q-1.140625 0 -1.609375 -0.640625q-0.46875 -0.640625 -0.46875 -2.15625l0 -5.4375l-1.453125 0l0 -1.3125zm14.166016 8.578125q-0.5625 0.453125 -1.421875 0.71875q-0.84375 0.25 -1.796875 0.25q-1.0625 0 -1.84375 -0.34375q-0.78125 -0.34375 -1.28125 -0.984375q-0.5 -0.640625 -0.75 -1.53125q-0.234375 -0.90625 -0.234375 -2.03125q0 -2.375 1.0625 -3.625q1.0625 -1.25 3.03125 -1.25q0.640625 0 1.265625 0.140625q0.640625 0.140625 1.140625 0.53125q0.5 0.390625 0.8125 1.109375q0.328125 0.71875 0.328125 1.890625q0 0.609375 -0.109375 1.359375l-5.984375 0q0 0.828125 0.15625 1.46875q0.171875 0.625 0.515625 1.0625q0.359375 0.4375 0.921875 0.671875q0.578125 0.234375 1.40625 0.234375q0.625 0 1.265625 -0.21875q0.640625 -0.234375 0.953125 -0.53125l0.5625 1.078125zm-3.21875 -7.5q-1.09375 0 -1.765625 0.578125q-0.65625 0.578125 -0.78125 1.984375l4.625 0q0 -1.421875 -0.546875 -1.984375q-0.53125 -0.578125 -1.53125 -0.578125z" fill-rule="nonzero"/><path fill="#000000" d="m275.7685 100.4595q0.5 0 1.0 -0.46875q0.5 -0.484375 0.953125 -1.15625q0.453125 -0.671875 0.796875 -1.390625q0.359375 -0.734375 0.5625 -1.21875l0.59375 -3.1875q-0.25 -0.1875 -0.5 -0.25q-0.234375 -0.078125 -0.671875 -0.078125q-0.859375 0 -1.5625 0.53125q-0.6875 0.53125 -1.1875 1.375q-0.5 0.828125 -0.765625 1.859375q-0.265625 1.015625 -0.265625 2.015625q0 0.953125 0.234375 1.46875q0.234375 0.5 0.8125 0.5zm2.9375 -2.71875q-0.234375 0.671875 -0.609375 1.359375q-0.359375 0.6875 -0.84375 1.25q-0.46875 0.5625 -1.046875 0.921875q-0.578125 0.34375 -1.21875 0.34375q-1.953125 0 -1.953125 -2.8125q0 -1.3125 0.375 -2.546875q0.375 -1.234375 1.078125 -2.203125q0.71875 -0.984375 1.734375 -1.5625q1.015625 -0.59375 2.296875 -0.59375q0.46875 0 0.75 0.09375q0.28125 0.078125 0.671875 0.25q0.75 -0.390625 1.5625 -0.390625l-1.671875 8.515625l1.359375 0l0 0.46875q-0.375 0.296875 -0.90625 0.484375q-0.515625 0.1875 -1.015625 0.1875q-0.53125 0 -0.765625 -0.234375q-0.234375 -0.234375 -0.234375 -0.484375q0 -0.34375 0.125 -1.109375q0.125 -0.765625 0.390625 -1.9375l-0.078125 0z" fill-rule="nonzero"/><path fill="#000000" fill-opacity="0.0" d="m712.2651 74.33513l-32.346436 39.55905" fill-rule="evenodd"/><path stroke="#000000" stroke-width="1.9763779527559056" stroke-linejoin="round" stroke-linecap="butt" d="m712.2651 74.33513l-24.840149 30.37899" fill-rule="evenodd"/><path fill="#000000" stroke="#000000" stroke-width="1.9763779527559056" stroke-linecap="butt" d="m684.89777 102.647705l-3.1502075 9.00975l8.20459 -4.876938z" fill-rule="evenodd"/><path fill="#000000" fill-opacity="0.0" d="m745.1738 73.22813l34.204712 40.472443" fill-rule="evenodd"/><path stroke="#000000" stroke-width="1.9763779527559056" stroke-linejoin="round" stroke-linecap="butt" d="m745.1738 73.228134l26.550354 31.415451" fill-rule="evenodd"/><path fill="#000000" stroke="#000000" stroke-width="1.9763779527559056" stroke-linecap="butt" d="m769.23083 106.750755l8.282715 4.74308l-3.2961426 -8.957413z" fill-rule="evenodd"/><path fill="#efefef" d="m521.53937 81.7988l81.407166 0l0 -7.541832l23.978638 20.220474l-23.978638 20.220474l0 -7.541832l-81.407166 0z" fill-rule="evenodd"/><path stroke="#000000" stroke-width="1.0" stroke-linejoin="round" stroke-linecap="butt" d="m521.53937 81.7988l81.407166 0l0 -7.541832l23.978638 20.220474l-23.978638 20.220474l0 -7.541832l-81.407166 0z" fill-rule="evenodd"/><path fill="#000000" d="m534.3589 101.39744l0 -5.28125q0 -0.75 -0.078125 -1.296875q-0.0625 -0.546875 -0.25 -0.921875q-0.171875 -0.375 -0.53125 -0.5625q-0.34375 -0.1875 -0.890625 -0.1875q-0.859375 0 -1.4375 0.53125q-0.5625 0.515625 -0.796875 1.296875l0 6.421875l-1.484375 0l0 -9.328125l1.046875 0l0.28125 1.140625l0.0625 0q0.515625 -0.59375 1.171875 -0.96875q0.671875 -0.390625 1.734375 -0.390625q0.890625 0 1.453125 0.34375q0.578125 0.34375 0.890625 1.203125q0.421875 -0.734375 1.171875 -1.140625q0.765625 -0.40625 1.71875 -0.40625q0.78125 0 1.3125 0.171875q0.546875 0.171875 0.90625 0.625q0.359375 0.453125 0.515625 1.21875q0.15625 0.765625 0.15625 1.9375l0 5.59375l-1.484375 0l0 -5.609375q0 -0.671875 -0.078125 -1.171875q-0.0625 -0.5 -0.265625 -0.8125q-0.1875 -0.328125 -0.53125 -0.484375q-0.34375 -0.171875 -0.90625 -0.171875q-0.9375 0 -1.453125 0.53125q-0.515625 0.515625 -0.75 1.484375l0 6.234375l-1.484375 0zm16.492676 -0.75q-0.5625 0.453125 -1.421875 0.71875q-0.84375 0.25 -1.796875 0.25q-1.0625 0 -1.84375 -0.34375q-0.78125 -0.34375 -1.28125 -0.984375q-0.5 -0.640625 -0.75 -1.53125q-0.234375 -0.90625 -0.234375 -2.03125q0 -2.375 1.0625 -3.625q1.0625 -1.25 3.03125 -1.25q0.640625 0 1.265625 0.140625q0.640625 0.140625 1.140625 0.53125q0.5 0.390625 0.8125 1.109375q0.328125 0.71875 0.328125 1.890625q0 0.609375 -0.109375 1.359375l-5.984375 0q0 0.828125 0.15625 1.46875q0.171875 0.625 0.515625 1.0625q0.359375 0.4375 0.921875 0.671875q0.578125 0.234375 1.40625 0.234375q0.625 0 1.265625 -0.21875q0.640625 -0.234375 0.953125 -0.53125l0.5625 1.078125zm-3.21875 -7.5q-1.09375 0 -1.765625 0.578125q-0.65625 0.578125 -0.78125 1.984375l4.625 0q0 -1.421875 -0.546875 -1.984375q-0.53125 -0.578125 -1.53125 -0.578125zm10.289856 0.359375q-0.5625 -0.1875 -1.0625 -0.1875q-0.8125 0 -1.28125 0.4375q-0.453125 0.4375 -0.578125 1.109375l0 6.53125l-1.484375 0l0 -9.328125l1.046875 0l0.28125 1.140625l0.0625 0q0.359375 -0.640625 0.84375 -0.984375q0.5 -0.34375 1.265625 -0.34375q0.546875 0 1.21875 0.1875l-0.3125 1.4375zm9.077515 8.3125q0 1.8125 -0.96875 2.671875q-0.953125 0.859375 -2.828125 0.859375q-1.125 0 -1.8125 -0.140625q-0.671875 -0.140625 -1.15625 -0.359375l0.390625 -1.265625q0.421875 0.15625 0.9375 0.3125q0.53125 0.15625 1.375 0.15625q0.78125 0 1.265625 -0.140625q0.5 -0.140625 0.796875 -0.46875q0.3125 -0.328125 0.421875 -0.84375q0.109375 -0.515625 0.109375 -1.21875l0 -0.90625l-0.078125 0q-0.375 0.546875 -0.953125 0.84375q-0.578125 0.28125 -1.5 0.28125q-1.890625 0 -2.78125 -1.171875q-0.875 -1.171875 -0.875 -3.65625q0 -2.390625 1.125 -3.625q1.140625 -1.25 3.359375 -1.25q1.0625 0 1.8125 0.171875q0.765625 0.171875 1.359375 0.390625l0 9.359375zm-3.75 -1.515625q0.953125 0 1.484375 -0.46875q0.546875 -0.484375 0.78125 -1.5l0 -4.765625q-0.75 -0.359375 -1.90625 -0.359375q-1.265625 0 -2.0 0.859375q-0.71875 0.859375 -0.71875 2.6875q0 0.78125 0.125 1.4375q0.125 0.640625 0.40625 1.109375q0.28125 0.46875 0.71875 0.734375q0.453125 0.265625 1.109375 0.265625zm13.440247 0.34375q-0.5625 0.453125 -1.421875 0.71875q-0.84375 0.25 -1.796875 0.25q-1.0625 0 -1.84375 -0.34375q-0.78125 -0.34375 -1.28125 -0.984375q-0.5 -0.640625 -0.75 -1.53125q-0.234375 -0.90625 -0.234375 -2.03125q0 -2.375 1.0625 -3.625q1.0625 -1.25 3.03125 -1.25q0.640625 0 1.265625 0.140625q0.640625 0.140625 1.140625 0.53125q0.5 0.390625 0.8125 1.109375q0.328125 0.71875 0.328125 1.890625q0 0.609375 -0.109375 1.359375l-5.984375 0q0 0.828125 0.15625 1.46875q0.171875 0.625 0.515625 1.0625q0.359375 0.4375 0.921875 0.671875q0.578125 0.234375 1.40625 0.234375q0.625 0 1.265625 -0.21875q0.640625 -0.234375 0.953125 -0.53125l0.5625 1.078125zm-3.21875 -7.5q-1.09375 0 -1.765625 0.578125q-0.65625 0.578125 -0.78125 1.984375l4.625 0q0 -1.421875 -0.546875 -1.984375q-0.53125 -0.578125 -1.53125 -0.578125z" fill-rule="nonzero"/><path fill="#000000" d="m585.96155 88.67869l-1.3125 -0.171875l0 -0.4375q0.296875 -0.109375 0.65625 -0.21875q0.359375 -0.109375 0.71875 -0.203125q0.359375 -0.109375 0.71875 -0.171875q0.359375 -0.078125 0.65625 -0.109375l0.390625 0.203125l-1.640625 7.78125l0.09375 0q0.328125 -0.671875 0.734375 -1.296875q0.40625 -0.640625 0.859375 -1.125q0.453125 -0.484375 0.953125 -0.78125q0.515625 -0.296875 1.0625 -0.296875q1.0 0 1.578125 0.6875q0.578125 0.6875 0.578125 2.140625q0 1.4375 -0.40625 2.703125q-0.40625 1.25 -1.140625 2.203125q-0.71875 0.9375 -1.75 1.484375q-1.015625 0.546875 -2.265625 0.546875q-0.921875 0 -1.71875 -0.234375q-0.78125 -0.234375 -1.15625 -0.546875l2.390625 -12.15625zm3.109375 4.328125q-0.484375 0 -0.953125 0.4375q-0.46875 0.421875 -0.875 1.03125q-0.390625 0.59375 -0.71875 1.265625q-0.328125 0.65625 -0.546875 1.109375l-0.703125 3.578125q0.28125 0.1875 0.6875 0.296875q0.421875 0.09375 0.84375 0.09375q0.71875 0 1.359375 -0.5q0.640625 -0.5 1.125 -1.328125q0.5 -0.828125 0.765625 -1.859375q0.28125 -1.03125 0.265625 -2.09375q0.015625 -0.890625 -0.28125 -1.453125q-0.296875 -0.578125 -0.96875 -0.578125zm2.9694214 11.171875q0.390625 -0.125 0.765625 -0.40625q0.375 -0.265625 0.671875 -0.609375q0.3125 -0.328125 0.5 -0.734375q0.203125 -0.390625 0.265625 -0.78125q-0.1875 -0.21875 -0.515625 -0.421875q-0.328125 -0.203125 -0.59375 -0.296875q-0.015625 -0.359375 0.125 -0.6875q0.15625 -0.34375 0.375 -0.59375q0.234375 -0.265625 0.484375 -0.421875q0.25 -0.15625 0.453125 -0.171875q0.640625 0.09375 0.953125 0.453125q0.328125 0.34375 0.328125 1.046875q0 0.71875 -0.3125 1.390625q-0.3125 0.671875 -0.8125 1.21875q-0.484375 0.5625 -1.125 0.96875q-0.640625 0.421875 -1.3125 0.609375l-0.25 -0.5625zm13.076599 -4.4375q-0.203125 0.34375 -0.53125 0.6875q-0.3125 0.328125 -0.75 0.609375q-0.421875 0.265625 -0.953125 0.421875q-0.53125 0.15625 -1.15625 0.15625q-1.390625 0 -2.1875 -0.875q-0.796875 -0.875 -0.796875 -2.390625q0 -1.34375 0.421875 -2.515625q0.4375 -1.1875 1.171875 -2.078125q0.734375 -0.890625 1.734375 -1.390625q1.0 -0.515625 2.140625 -0.515625q0.703125 0 1.140625 0.109375q0.453125 0.109375 0.6875 0.3125q0.015625 0.203125 -0.03125 0.46875q-0.046875 0.25 -0.15625 0.5q-0.09375 0.234375 -0.265625 0.4375q-0.15625 0.203125 -0.3125 0.28125l-1.28125 -1.3125q-0.625 0.015625 -1.25 0.390625q-0.625 0.375 -1.125 1.0625q-0.484375 0.6875 -0.796875 1.671875q-0.3125 0.984375 -0.296875 2.203125q-0.015625 1.296875 0.515625 1.890625q0.53125 0.59375 1.453125 0.59375q0.390625 0 0.734375 -0.109375q0.34375 -0.109375 0.640625 -0.28125q0.296875 -0.171875 0.53125 -0.34375q0.25 -0.1875 0.4375 -0.34375l0.28125 0.359375z" fill-rule="nonzero"/><path fill="#000000" fill-opacity="0.0" d="m760.48553 123.628456c0 -5.4895935 4.4501953 -9.939781 9.939819 -9.939781l17.91571 0c2.6361694 0 5.1644287 1.047226 7.0285034 2.911293c1.8640747 1.8640747 2.911255 4.392296 2.911255 7.028488l0 17.915718c0 5.4895782 -4.4501953 9.939774 -9.939758 9.939774l-17.91571 0c-5.489624 0 -9.939819 -4.4501953 -9.939819 -9.939774z" fill-rule="evenodd"/><path stroke="#000000" stroke-width="2.0" stroke-linejoin="round" stroke-linecap="butt" d="m760.48553 123.628456c0 -5.4895935 4.4501953 -9.939781 9.939819 -9.939781l17.91571 0c2.6361694 0 5.1644287 1.047226 7.0285034 2.911293c1.8640747 1.8640747 2.911255 4.392296 2.911255 7.028488l0 17.915718c0 5.4895782 -4.4501953 9.939774 -9.939758 9.939774l-17.91571 0c-5.489624 0 -9.939819 -4.4501953 -9.939819 -9.939774z" fill-rule="evenodd"/><path fill="#000000" d="m783.3415 138.98569q-0.21875 0.453125 -0.625 0.890625q-0.40625 0.4375 -0.96875 0.78125q-0.546875 0.34375 -1.25 0.546875q-0.6875 0.203125 -1.46875 0.203125q-2.0 0 -3.078125 -1.125q-1.0625 -1.140625 -1.0625 -3.171875q0 -1.703125 0.484375 -3.203125q0.484375 -1.515625 1.34375 -2.640625q0.859375 -1.125 2.09375 -1.765625q1.25 -0.65625 2.75 -0.65625q1.15625 0 1.984375 0.59375q0.828125 0.578125 0.828125 1.734375q0 1.703125 -1.6875 2.6875q-1.6875 0.984375 -5.46875 1.265625q-0.09375 0.40625 -0.125 0.796875q-0.03125 0.375 -0.03125 0.734375q0 1.4375 0.71875 2.359375q0.734375 0.90625 2.15625 0.90625q0.453125 0 0.890625 -0.140625q0.453125 -0.140625 0.84375 -0.359375q0.40625 -0.21875 0.71875 -0.453125q0.328125 -0.25 0.578125 -0.4375l0.375 0.453125zm-2.515625 -9.109375q-1.03125 0.015625 -1.921875 0.96875q-0.890625 0.9375 -1.515625 3.25q2.328125 -0.078125 3.625 -0.796875q1.296875 -0.734375 1.296875 -2.03125q0 -0.515625 -0.296875 -0.9375q-0.296875 -0.4375 -1.1875 -0.453125z" fill-rule="nonzero"/><path fill="#000000" d="m790.7218 150.364c0 -2.0873718 1.6921387 -3.7795258 3.779541 -3.7795258c1.0023804 0 1.9636841 0.39819336 2.6724854 1.1069946c0.70880127 0.70880127 1.1069946 1.6701355 1.1069946 2.6725311c0 2.0873718 -1.6921387 3.7795258 -3.77948 3.7795258c-2.0874023 0 -3.779541 -1.6921539 -3.779541 -3.7795258z" fill-rule="evenodd"/><path stroke="#000000" stroke-width="1.0" stroke-linejoin="round" stroke-linecap="butt" d="m790.7218 150.364c0 -2.0873718 1.6921387 -3.7795258 3.779541 -3.7795258c1.0023804 0 1.9636841 0.39819336 2.6724854 1.1069946c0.70880127 0.70880127 1.1069946 1.6701355 1.1069946 2.6725311c0 2.0873718 -1.6921387 3.7795258 -3.77948 3.7795258c-2.0874023 0 -3.779541 -1.6921539 -3.779541 -3.7795258z" fill-rule="evenodd"/><path fill="#000000" d="m760.48553 150.364c0 -2.0873718 1.6921997 -3.7795258 3.779541 -3.7795258c1.0023804 0 1.9637451 0.39819336 2.6725464 1.1069946c0.70880127 0.70880127 1.1069946 1.6701355 1.1069946 2.6725311c0 2.0873718 -1.6921387 3.7795258 -3.779541 3.7795258c-2.0873413 0 -3.779541 -1.6921539 -3.779541 -3.7795258z" fill-rule="evenodd"/><path stroke="#000000" stroke-width="1.0" stroke-linejoin="round" stroke-linecap="butt" d="m760.48553 150.364c0 -2.0873718 1.6921997 -3.7795258 3.779541 -3.7795258c1.0023804 0 1.9637451 0.39819336 2.6725464 1.1069946c0.70880127 0.70880127 1.1069946 1.6701355 1.1069946 2.6725311c0 2.0873718 -1.6921387 3.7795258 -3.779541 3.7795258c-2.0873413 0 -3.779541 -1.6921539 -3.779541 -3.7795258z" fill-rule="evenodd"/><path fill="#000000" fill-opacity="0.0" d="m77.778336 124.19013c0 -5.489586 4.4501877 -9.939774 9.939781 -9.939774l17.91571 0c2.6362 0 5.164421 1.0472183 7.028488 2.911293c1.8640747 1.8640671 2.911293 4.392288 2.911293 7.0284805l0 17.915718c0 5.4895935 -4.4501877 9.939774 -9.939781 9.939774l-17.91571 0c-5.4895935 0 -9.939781 -4.45018 -9.939781 -9.939774z" fill-rule="evenodd"/><path stroke="#000000" stroke-width="2.0" stroke-linejoin="round" stroke-linecap="butt" d="m77.778336 124.19013c0 -5.489586 4.4501877 -9.939774 9.939781 -9.939774l17.91571 0c2.6362 0 5.164421 1.0472183 7.028488 2.911293c1.8640747 1.8640671 2.911293 4.392288 2.911293 7.0284805l0 17.915718c0 5.4895935 -4.4501877 9.939774 -9.939781 9.939774l-17.91571 0c-5.4895935 0 -9.939781 -4.45018 -9.939781 -9.939774z" fill-rule="evenodd"/><path fill="#000000" d="m100.71186 139.54736q-0.265625 0.453125 -0.671875 0.890625q-0.40625 0.4375 -0.96875 0.78125q-0.546875 0.34375 -1.234375 0.546875q-0.6875 0.203125 -1.5 0.203125q-1.765625 0 -2.8125 -1.125q-1.03125 -1.125 -1.03125 -3.0625q0 -1.734375 0.546875 -3.25q0.5625 -1.53125 1.5 -2.671875q0.953125 -1.140625 2.234375 -1.796875q1.296875 -0.65625 2.75 -0.65625q0.921875 0 1.5 0.140625q0.578125 0.140625 0.859375 0.40625q0.03125 0.265625 -0.03125 0.59375q-0.0625 0.3125 -0.203125 0.625q-0.125 0.3125 -0.328125 0.578125q-0.203125 0.265625 -0.421875 0.359375l-1.625 -1.671875q-0.828125 0.015625 -1.640625 0.5q-0.796875 0.484375 -1.4375 1.375q-0.625 0.875 -1.03125 2.140625q-0.390625 1.265625 -0.359375 2.84375q-0.03125 1.65625 0.65625 2.421875q0.6875 0.765625 1.859375 0.765625q0.5 0 0.9375 -0.140625q0.453125 -0.140625 0.828125 -0.359375q0.390625 -0.21875 0.703125 -0.453125q0.3125 -0.25 0.5625 -0.4375l0.359375 0.453125z" fill-rule="nonzero"/><path fill="#000000" d="m108.01456 150.92567c0 -2.0873718 1.6921539 -3.7795258 3.7795258 -3.7795258c1.0023956 0 1.9637299 0.39819336 2.6725311 1.1069946c0.70879364 0.70880127 1.1069946 1.6701355 1.1069946 2.6725311c0 2.0873718 -1.6921539 3.7795258 -3.7795258 3.7795258c-2.0873718 0 -3.7795258 -1.6921539 -3.7795258 -3.7795258z" fill-rule="evenodd"/><path stroke="#000000" stroke-width="1.0" stroke-linejoin="round" stroke-linecap="butt" d="m108.01456 150.92567c0 -2.0873718 1.6921539 -3.7795258 3.7795258 -3.7795258c1.0023956 0 1.9637299 0.39819336 2.6725311 1.1069946c0.70879364 0.70880127 1.1069946 1.6701355 1.1069946 2.6725311c0 2.0873718 -1.6921539 3.7795258 -3.7795258 3.7795258c-2.0873718 0 -3.7795258 -1.6921539 -3.7795258 -3.7795258z" fill-rule="evenodd"/><path fill="#000000" d="m77.778336 150.92567c0 -2.0873718 1.6921539 -3.7795258 3.7795258 -3.7795258c1.0023956 0 1.9637299 0.39819336 2.6725311 1.1069946c0.70880127 0.70880127 1.1069946 1.6701355 1.1069946 2.6725311c0 2.0873718 -1.6921463 3.7795258 -3.7795258 3.7795258c-2.0873718 0 -3.7795258 -1.6921539 -3.7795258 -3.7795258z" fill-rule="evenodd"/><path stroke="#000000" stroke-width="1.0" stroke-linejoin="round" stroke-linecap="butt" d="m77.778336 150.92567c0 -2.0873718 1.6921539 -3.7795258 3.7795258 -3.7795258c1.0023956 0 1.9637299 0.39819336 2.6725311 1.1069946c0.70880127 0.70880127 1.1069946 1.6701355 1.1069946 2.6725311c0 2.0873718 -1.6921463 3.7795258 -3.7795258 3.7795258c-2.0873718 0 -3.7795258 -1.6921539 -3.7795258 -3.7795258z" fill-rule="evenodd"/><path fill="#000000" fill-opacity="0.0" d="m8.557743 124.19013c0 -5.489586 4.4501905 -9.939774 9.939779 -9.939774l17.915716 0c2.6361923 0 5.1644173 1.0472183 7.0284843 2.911293c1.8640709 1.8640671 2.9112968 4.392288 2.9112968 7.0284805l0 17.915718c0 5.4895935 -4.4501915 9.939774 -9.939781 9.939774l-17.915716 0c-5.4895887 0 -9.939779 -4.45018 -9.939779 -9.939774z" fill-rule="evenodd"/><path stroke="#000000" stroke-width="2.0" stroke-linejoin="round" stroke-linecap="butt" d="m8.557743 124.19013c0 -5.489586 4.4501905 -9.939774 9.939779 -9.939774l17.915716 0c2.6361923 0 5.1644173 1.0472183 7.0284843 2.911293c1.8640709 1.8640671 2.9112968 4.392288 2.9112968 7.0284805l0 17.915718c0 5.4895935 -4.4501915 9.939774 -9.939781 9.939774l-17.915716 0c-5.4895887 0 -9.939779 -4.45018 -9.939779 -9.939774z" fill-rule="evenodd"/><path fill="#000000" d="m25.566648 140.48486q0.65625 0 1.296875 -0.609375q0.65625 -0.609375 1.21875 -1.46875q0.578125 -0.875 1.03125 -1.8125q0.46875 -0.9375 0.734375 -1.546875l0.765625 -4.109375q-0.34375 -0.234375 -0.65625 -0.328125q-0.3125 -0.109375 -0.859375 -0.109375q-1.109375 0 -2.015625 0.6875q-0.890625 0.6875 -1.53125 1.765625q-0.625 1.078125 -0.984375 2.40625q-0.34375 1.3125 -0.34375 2.578125q0 1.234375 0.296875 1.890625q0.3125 0.65625 1.046875 0.65625zm3.796875 -3.5q-0.3125 0.859375 -0.78125 1.75q-0.46875 0.890625 -1.078125 1.609375q-0.609375 0.71875 -1.359375 1.171875q-0.734375 0.453125 -1.578125 0.453125q-2.5 0 -2.5 -3.625q0 -1.671875 0.46875 -3.265625q0.484375 -1.59375 1.390625 -2.84375q0.921875 -1.25 2.234375 -2.0q1.3125 -0.765625 2.96875 -0.765625q0.59375 0 0.953125 0.109375q0.359375 0.109375 0.859375 0.328125q0.96875 -0.5 2.015623 -0.5l-2.156248 10.96875l1.7499981 0l0 0.59375q-0.46875 0.375 -1.1406231 0.625q-0.671875 0.234375 -1.328125 0.234375q-0.6875 0 -1.0 -0.296875q-0.296875 -0.296875 -0.296875 -0.640625q0 -0.421875 0.171875 -1.40625q0.171875 -0.984375 0.5 -2.5l-0.09375 0z" fill-rule="nonzero"/><path fill="#000000" d="m38.793964 150.92567c0 -2.0873718 1.6921501 -3.7795258 3.7795258 -3.7795258c1.0023918 0 1.9637299 0.39819336 2.6725311 1.1069946c0.70879745 0.70880127 1.1069984 1.6701355 1.1069984 2.6725311c0 2.0873718 -1.6921539 3.7795258 -3.7795296 3.7795258c-2.0873756 0 -3.7795258 -1.6921539 -3.7795258 -3.7795258z" fill-rule="evenodd"/><path stroke="#000000" stroke-width="1.0" stroke-linejoin="round" stroke-linecap="butt" d="m38.793964 150.92567c0 -2.0873718 1.6921501 -3.7795258 3.7795258 -3.7795258c1.0023918 0 1.9637299 0.39819336 2.6725311 1.1069946c0.70879745 0.70880127 1.1069984 1.6701355 1.1069984 2.6725311c0 2.0873718 -1.6921539 3.7795258 -3.7795296 3.7795258c-2.0873756 0 -3.7795258 -1.6921539 -3.7795258 -3.7795258z" fill-rule="evenodd"/><path fill="#000000" d="m8.557743 150.92567c0 -2.0873718 1.692152 -3.7795258 3.7795277 -3.7795258c1.0023928 0 1.9637299 0.39819336 2.6725292 1.1069946c0.7087984 0.70880127 1.1069984 1.6701355 1.1069984 2.6725311c0 2.0873718 -1.692153 3.7795258 -3.7795277 3.7795258c-2.0873756 0 -3.7795277 -1.6921539 -3.7795277 -3.7795258z" fill-rule="evenodd"/><path stroke="#000000" stroke-width="1.0" stroke-linejoin="round" stroke-linecap="butt" d="m8.557743 150.92567c0 -2.0873718 1.692152 -3.7795258 3.7795277 -3.7795258c1.0023928 0 1.9637299 0.39819336 2.6725292 1.1069946c0.7087984 0.70880127 1.1069984 1.6701355 1.1069984 2.6725311c0 2.0873718 -1.692153 3.7795258 -3.7795277 3.7795258c-2.0873756 0 -3.7795277 -1.6921539 -3.7795277 -3.7795258z" fill-rule="evenodd"/><path fill="#000000" fill-opacity="0.0" d="m59.234295 73.22813l-31.779528 41.007874" fill-rule="evenodd"/><path stroke="#000000" stroke-width="1.9763779527559056" stroke-linejoin="round" stroke-linecap="butt" d="m59.23429 73.228134l-24.515709 31.63475" fill-rule="evenodd"/><path fill="#000000" stroke="#000000" stroke-width="1.9763779527559056" stroke-linecap="butt" d="m32.138264 102.86323l-2.9136658 9.089012l8.074299 -5.089714z" fill-rule="evenodd"/><path fill="#000000" fill-opacity="0.0" d="m333.7152 119.99712c0 -3.174553 2.5734863 -5.7480316 5.748047 -5.7480316l0 0c1.5244751 0 2.9865112 0.60559845 4.0644836 1.6835632c1.0779419 1.0779648 1.6835327 2.5399933 1.6835327 4.0644684l0 26.299217c0 3.1745453 -2.5734558 5.7480316 -5.7480164 5.7480316l0 0c-3.1745605 0 -5.748047 -2.5734863 -5.748047 -5.7480316z" fill-rule="evenodd"/><path stroke="#000000" stroke-width="2.0" stroke-linejoin="round" stroke-linecap="butt" d="m333.7152 119.99712c0 -3.174553 2.5734863 -5.7480316 5.748047 -5.7480316l0 0c1.5244751 0 2.9865112 0.60559845 4.0644836 1.6835632c1.0779419 1.0779648 1.6835327 2.5399933 1.6835327 4.0644684l0 26.299217c0 3.1745453 -2.5734558 5.7480316 -5.7480164 5.7480316l0 0c-3.1745605 0 -5.748047 -2.5734863 -5.748047 -5.7480316z" fill-rule="evenodd"/><path fill="#000000" fill-opacity="0.0" d="m371.23428 73.22813l-31.77951 41.007874" fill-rule="evenodd"/><path stroke="#000000" stroke-width="1.9763779527559056" stroke-linejoin="round" stroke-linecap="butt" d="m371.23428 73.228134l-24.515686 31.63475" fill-rule="evenodd"/><path fill="#000000" stroke="#000000" stroke-width="1.9763779527559056" stroke-linecap="butt" d="m344.13828 102.863235l-2.9136658 9.0890045l8.07428 -5.089714z" fill-rule="evenodd"/><path fill="#000000" fill-opacity="0.0" d="m708.48553 43.820057c0 -5.4895897 4.4501953 -9.939781 9.939819 -9.939781l17.91571 0c2.6361694 0 5.1644287 1.047226 7.0285034 2.911293c1.8640747 1.8640709 2.911255 4.392292 2.911255 7.028488l0 17.915714c0 5.4895935 -4.4501953 9.939781 -9.939758 9.939781l-17.91571 0c-5.489624 0 -9.939819 -4.4501877 -9.939819 -9.939781z" fill-rule="evenodd"/><path stroke="#000000" stroke-width="2.0" stroke-linejoin="round" stroke-linecap="butt" d="m708.48553 43.820057c0 -5.4895897 4.4501953 -9.939781 9.939819 -9.939781l17.91571 0c2.6361694 0 5.1644287 1.047226 7.0285034 2.911293c1.8640747 1.8640709 2.911255 4.392292 2.911255 7.028488l0 17.915714c0 5.4895935 -4.4501953 9.939781 -9.939758 9.939781l-17.91571 0c-5.489624 0 -9.939819 -4.4501877 -9.939819 -9.939781z" fill-rule="evenodd"/><path fill="#000000" d="m725.5413 60.114788q0.65625 0 1.296875 -0.609375q0.65625 -0.609375 1.234375 -1.46875q0.578125 -0.875 1.03125 -1.8125q0.453125 -0.9375 0.71875 -1.546875l0.765625 -4.109375q-0.359375 -0.234375 -0.671875 -0.3125q-0.296875 -0.09375 -0.84375 -0.125q-1.15625 0.03125 -2.0625 0.71875q-0.90625 0.671875 -1.53125 1.75q-0.625 1.0625 -0.953125 2.390625q-0.328125 1.3125 -0.328125 2.578125q0 1.234375 0.296875 1.890625q0.3125 0.65625 1.046875 0.65625zm3.796875 -3.5q-0.3125 0.859375 -0.796875 1.75q-0.46875 0.890625 -1.09375 1.609375q-0.609375 0.71875 -1.34375 1.171875q-0.71875 0.453125 -1.5625 0.453125q-2.5 0 -2.5 -3.640625q0 -1.703125 0.484375 -3.296875q0.484375 -1.59375 1.390625 -2.828125q0.90625 -1.25 2.203125 -1.984375q1.296875 -0.75 2.953125 -0.75q0.625 0 0.9375 0.09375q0.3125 0.078125 0.796875 0.296875l0.90625 -4.546875l-1.671875 -0.203125l0 -0.609375q0.359375 -0.140625 0.78125 -0.265625q0.4375 -0.140625 0.90625 -0.25q0.46875 -0.109375 0.9375 -0.203125q0.484375 -0.09375 0.890625 -0.140625l0.515625 0.1875l-3.296875 16.546875l1.75 0l0 0.59375q-0.46875 0.375 -1.140625 0.625q-0.671875 0.234375 -1.328125 0.234375q-0.6875 0 -1.0 -0.296875q-0.296875 -0.296875 -0.296875 -0.640625q0 -0.421875 0.171875 -1.40625q0.171875 -0.984375 0.5 -2.5l-0.09375 0z" fill-rule="nonzero"/><path fill="#000000" d="m738.7218 70.555595c0 -2.0873718 1.6921387 -3.7795258 3.779541 -3.7795258c1.0023804 0 1.9636841 0.398201 2.6724854 1.1070023c0.70880127 0.70879364 1.1069946 1.6701355 1.1069946 2.6725235c0 2.0873795 -1.6921387 3.7795334 -3.77948 3.7795334c-2.0874023 0 -3.779541 -1.6921539 -3.779541 -3.7795334z" fill-rule="evenodd"/><path stroke="#000000" stroke-width="1.0" stroke-linejoin="round" stroke-linecap="butt" d="m738.7218 70.555595c0 -2.0873718 1.6921387 -3.7795258 3.779541 -3.7795258c1.0023804 0 1.9636841 0.398201 2.6724854 1.1070023c0.70880127 0.70879364 1.1069946 1.6701355 1.1069946 2.6725235c0 2.0873795 -1.6921387 3.7795334 -3.77948 3.7795334c-2.0874023 0 -3.779541 -1.6921539 -3.779541 -3.7795334z" fill-rule="evenodd"/><path fill="#000000" d="m708.48553 70.555595c0 -2.0873718 1.6921997 -3.7795258 3.779541 -3.7795258c1.0023804 0 1.9637451 0.398201 2.6725464 1.1070023c0.70880127 0.70879364 1.1069946 1.6701355 1.1069946 2.6725235c0 2.0873795 -1.6921387 3.7795334 -3.779541 3.7795334c-2.0873413 0 -3.779541 -1.6921539 -3.779541 -3.7795334z" fill-rule="evenodd"/><path stroke="#000000" stroke-width="1.0" stroke-linejoin="round" stroke-linecap="butt" d="m708.48553 70.555595c0 -2.0873718 1.6921997 -3.7795258 3.779541 -3.7795258c1.0023804 0 1.9637451 0.398201 2.6725464 1.1070023c0.70880127 0.70879364 1.1069946 1.6701355 1.1069946 2.6725235c0 2.0873795 -1.6921387 3.7795334 -3.779541 3.7795334c-2.0873413 0 -3.779541 -1.6921539 -3.779541 -3.7795334z" fill-rule="evenodd"/><path fill="#000000" fill-opacity="0.0" d="m141.77834 124.19013c0 -5.489586 4.4501953 -9.939774 9.939774 -9.939774l17.915726 0c2.6361847 0 5.1644135 1.0472183 7.028488 2.911293c1.8640594 1.8640671 2.9112854 4.392288 2.9112854 7.0284805l0 17.915718c0 5.4895935 -4.4501953 9.939774 -9.939774 9.939774l-17.915726 0c-5.4895782 0 -9.939774 -4.45018 -9.939774 -9.939774z" fill-rule="evenodd"/><path stroke="#000000" stroke-width="2.0" stroke-linejoin="round" stroke-linecap="butt" d="m141.77834 124.19013c0 -5.489586 4.4501953 -9.939774 9.939774 -9.939774l17.915726 0c2.6361847 0 5.1644135 1.0472183 7.028488 2.911293c1.8640594 1.8640671 2.9112854 4.392288 2.9112854 7.0284805l0 17.915718c0 5.4895935 -4.4501953 9.939774 -9.939774 9.939774l-17.915726 0c-5.4895782 0 -9.939774 -4.45018 -9.939774 -9.939774z" fill-rule="evenodd"/><path fill="#000000" d="m164.63425 139.54736q-0.21875 0.453125 -0.625 0.890625q-0.40625 0.4375 -0.96875 0.78125q-0.546875 0.34375 -1.25 0.546875q-0.6875 0.203125 -1.46875 0.203125q-2.0 0 -3.078125 -1.125q-1.0625 -1.140625 -1.0625 -3.171875q0 -1.703125 0.484375 -3.203125q0.484375 -1.515625 1.34375 -2.640625q0.859375 -1.125 2.09375 -1.765625q1.25 -0.65625 2.75 -0.65625q1.15625 0 1.984375 0.59375q0.828125 0.578125 0.828125 1.734375q0 1.703125 -1.6875 2.6875q-1.6875 0.984375 -5.46875 1.265625q-0.09375 0.40625 -0.125 0.796875q-0.03125 0.375 -0.03125 0.734375q0 1.4375 0.71875 2.359375q0.734375 0.90625 2.15625 0.90625q0.453125 0 0.890625 -0.140625q0.453125 -0.140625 0.84375 -0.359375q0.40625 -0.21875 0.71875 -0.453125q0.328125 -0.25 0.578125 -0.4375l0.375 0.453125zm-2.515625 -9.109375q-1.03125 0.015625 -1.921875 0.96875q-0.890625 0.9375 -1.515625 3.25q2.328125 -0.078125 3.625 -0.796875q1.296875 -0.734375 1.296875 -2.03125q0 -0.515625 -0.296875 -0.9375q-0.296875 -0.4375 -1.1875 -0.453125z" fill-rule="nonzero"/><path fill="#000000" d="m172.01456 150.92567c0 -2.0873718 1.6921539 -3.7795258 3.7795258 -3.7795258c1.0023956 0 1.9637299 0.39819336 2.6725311 1.1069946c0.70880127 0.70880127 1.1069946 1.6701355 1.1069946 2.6725311c0 2.0873718 -1.6921539 3.7795258 -3.7795258 3.7795258c-2.0873718 0 -3.7795258 -1.6921539 -3.7795258 -3.7795258z" fill-rule="evenodd"/><path stroke="#000000" stroke-width="1.0" stroke-linejoin="round" stroke-linecap="butt" d="m172.01456 150.92567c0 -2.0873718 1.6921539 -3.7795258 3.7795258 -3.7795258c1.0023956 0 1.9637299 0.39819336 2.6725311 1.1069946c0.70880127 0.70880127 1.1069946 1.6701355 1.1069946 2.6725311c0 2.0873718 -1.6921539 3.7795258 -3.7795258 3.7795258c-2.0873718 0 -3.7795258 -1.6921539 -3.7795258 -3.7795258z" fill-rule="evenodd"/><path fill="#000000" d="m141.77834 150.92567c0 -2.0873718 1.6921539 -3.7795258 3.7795258 -3.7795258c1.0023956 0 1.9637299 0.39819336 2.6725311 1.1069946c0.70880127 0.70880127 1.1069946 1.6701355 1.1069946 2.6725311c0 2.0873718 -1.6921539 3.7795258 -3.7795258 3.7795258c-2.0873718 0 -3.7795258 -1.6921539 -3.7795258 -3.7795258z" fill-rule="evenodd"/><path stroke="#000000" stroke-width="1.0" stroke-linejoin="round" stroke-linecap="butt" d="m141.77834 150.92567c0 -2.0873718 1.6921539 -3.7795258 3.7795258 -3.7795258c1.0023956 0 1.9637299 0.39819336 2.6725311 1.1069946c0.70880127 0.70880127 1.1069946 1.6701355 1.1069946 2.6725311c0 2.0873718 -1.6921539 3.7795258 -3.7795258 3.7795258c-2.0873718 0 -3.7795258 -1.6921539 -3.7795258 -3.7795258z" fill-rule="evenodd"/><path fill="#000000" fill-opacity="0.0" d="m132.61086 73.22813l28.062988 41.007874" fill-rule="evenodd"/><path stroke="#000000" stroke-width="1.9763779527559056" stroke-linejoin="round" stroke-linecap="butt" d="m132.61086 73.228134l21.365997 31.22171" fill-rule="evenodd"/><path fill="#000000" stroke="#000000" stroke-width="1.9763779527559056" stroke-linecap="butt" d="m151.28284 106.29345l7.7592773 5.5581512l-2.371231 -9.245361z" fill-rule="evenodd"/><path fill="#000000" d="m404.14304 70.555595c0 -2.0873718 1.6921692 -3.7795258 3.779541 -3.7795258c1.0023804 0 1.9637146 0.398201 2.6725159 1.1070023c0.70880127 0.70879364 1.1069946 1.6701355 1.1069946 2.6725235c0 2.0873795 -1.6921387 3.7795334 -3.7795105 3.7795334c-2.0873718 0 -3.779541 -1.6921539 -3.779541 -3.7795334z" fill-rule="evenodd"/><path stroke="#000000" stroke-width="1.0" stroke-linejoin="round" stroke-linecap="butt" d="m404.14304 70.555595c0 -2.0873718 1.6921692 -3.7795258 3.779541 -3.7795258c1.0023804 0 1.9637146 0.398201 2.6725159 1.1070023c0.70880127 0.70879364 1.1069946 1.6701355 1.1069946 2.6725235c0 2.0873795 -1.6921387 3.7795334 -3.7795105 3.7795334c-2.0873718 0 -3.779541 -1.6921539 -3.779541 -3.7795334z" fill-rule="evenodd"/><path fill="#000000" d="m370.1273 70.555595c0 -2.0873718 1.6921692 -3.7795258 3.779541 -3.7795258c1.0023804 0 1.9637146 0.398201 2.6725159 1.1070023c0.70880127 0.70879364 1.1069946 1.6701355 1.1069946 2.6725235c0 2.0873795 -1.6921387 3.7795334 -3.7795105 3.7795334c-2.0873718 0 -3.779541 -1.6921539 -3.779541 -3.7795334z" fill-rule="evenodd"/><path stroke="#000000" stroke-width="1.0" stroke-linejoin="round" stroke-linecap="butt" d="m370.1273 70.555595c0 -2.0873718 1.6921692 -3.7795258 3.779541 -3.7795258c1.0023804 0 1.9637146 0.398201 2.6725159 1.1070023c0.70880127 0.70879364 1.1069946 1.6701355 1.1069946 2.6725235c0 2.0873795 -1.6921387 3.7795334 -3.7795105 3.7795334c-2.0873718 0 -3.779541 -1.6921539 -3.779541 -3.7795334z" fill-rule="evenodd"/><path fill="#000000" d="m438.15878 70.555595c0 -2.0873718 1.6921692 -3.7795258 3.779541 -3.7795258c1.0023804 0 1.9637146 0.398201 2.6725159 1.1070023c0.70880127 0.70879364 1.1069946 1.6701355 1.1069946 2.6725235c0 2.0873795 -1.6921387 3.7795334 -3.7795105 3.7795334c-2.0873718 0 -3.779541 -1.6921539 -3.779541 -3.7795334z" fill-rule="evenodd"/><path stroke="#000000" stroke-width="1.0" stroke-linejoin="round" stroke-linecap="butt" d="m438.15878 70.555595c0 -2.0873718 1.6921692 -3.7795258 3.779541 -3.7795258c1.0023804 0 1.9637146 0.398201 2.6725159 1.1070023c0.70880127 0.70879364 1.1069946 1.6701355 1.1069946 2.6725235c0 2.0873795 -1.6921387 3.7795334 -3.7795105 3.7795334c-2.0873718 0 -3.779541 -1.6921539 -3.779541 -3.7795334z" fill-rule="evenodd"/><path fill="#000000" fill-opacity="0.0" d="m370.1273 43.820057c0 -5.4895897 4.4501953 -9.939781 9.939789 -9.939781l55.711 0c2.6362 0 5.164398 1.047226 7.028473 2.911293c1.8640747 1.8640709 2.9112854 4.392292 2.9112854 7.028488l0 17.915714c0 5.4895935 -4.450165 9.939781 -9.939758 9.939781l-55.711 0c-5.4895935 0 -9.939789 -4.4501877 -9.939789 -9.939781z" fill-rule="evenodd"/><path stroke="#000000" stroke-width="2.0" stroke-linejoin="round" stroke-linecap="butt" d="m370.1273 43.820057c0 -5.4895897 4.4501953 -9.939781 9.939789 -9.939781l55.711 0c2.6362 0 5.164398 1.047226 7.028473 2.911293c1.8640747 1.8640709 2.9112854 4.392292 2.9112854 7.028488l0 17.915714c0 5.4895935 -4.450165 9.939781 -9.939758 9.939781l-55.711 0c-5.4895935 0 -9.939789 -4.4501877 -9.939789 -9.939781z" fill-rule="evenodd"/><path fill="#000000" d="m387.46414 44.942913l-1.6875 -0.203125l0 -0.5625q0.390625 -0.140625 0.84375 -0.28125q0.453125 -0.140625 0.921875 -0.265625q0.46875 -0.140625 0.921875 -0.21875q0.46875 -0.09375 0.84375 -0.140625l0.5 0.265625l-2.109375 10.0l0.125 0q0.4375 -0.859375 0.953125 -1.671875q0.515625 -0.8125 1.09375 -1.4375q0.59375 -0.625 1.234375 -1.0q0.65625 -0.390625 1.375 -0.390625q1.265625 0 2.015625 0.890625q0.75 0.875 0.75 2.75q0 1.84375 -0.515625 3.46875q-0.515625 1.625 -1.453125 2.84375q-0.9375 1.203125 -2.265625 1.90625q-1.3125 0.703125 -2.921875 0.703125q-1.171875 0 -2.203125 -0.296875q-1.015625 -0.296875 -1.5 -0.703125l3.078125 -15.65625zm4.0 5.578125q-0.625 0 -1.21875 0.546875q-0.59375 0.546875 -1.109375 1.328125q-0.515625 0.78125 -0.9375 1.640625q-0.421875 0.84375 -0.71875 1.421875l-0.90625 4.609375q0.359375 0.234375 0.890625 0.375q0.546875 0.125 1.078125 0.125q0.9375 0 1.765625 -0.640625q0.828125 -0.65625 1.453125 -1.703125q0.625 -1.0625 0.984375 -2.390625q0.359375 -1.328125 0.328125 -2.703125q0.03125 -1.15625 -0.359375 -1.875q-0.375 -0.734375 -1.25 -0.734375zm32.59253 9.59375q0.65625 0 1.296875 -0.609375q0.65625 -0.609375 1.234375 -1.46875q0.578125 -0.875 1.03125 -1.8125q0.453125 -0.9375 0.71875 -1.546875l0.765625 -4.109375q-0.359375 -0.234375 -0.671875 -0.3125q-0.296875 -0.09375 -0.84375 -0.125q-1.15625 0.03125 -2.0625 0.71875q-0.90625 0.671875 -1.53125 1.75q-0.625 1.0625 -0.953125 2.390625q-0.328125 1.3125 -0.328125 2.578125q0 1.234375 0.296875 1.890625q0.3125 0.65625 1.046875 0.65625zm3.796875 -3.5q-0.3125 0.859375 -0.796875 1.75q-0.46875 0.890625 -1.09375 1.609375q-0.609375 0.71875 -1.34375 1.171875q-0.71875 0.453125 -1.5625 0.453125q-2.5 0 -2.5 -3.640625q0 -1.703125 0.484375 -3.296875q0.484375 -1.59375 1.390625 -2.828125q0.90625 -1.25 2.203125 -1.984375q1.296875 -0.75 2.953125 -0.75q0.625 0 0.9375 0.09375q0.3125 0.078125 0.796875 0.296875l0.90625 -4.546875l-1.671875 -0.203125l0 -0.609375q0.359375 -0.140625 0.78125 -0.265625q0.4375 -0.140625 0.90625 -0.25q0.46875 -0.109375 0.9375 -0.203125q0.484375 -0.09375 0.890625 -0.140625l0.515625 0.1875l-3.296875 16.546875l1.75 0l0 0.59375q-0.46875 0.375 -1.140625 0.625q-0.671875 0.234375 -1.328125 0.234375q-0.6875 0 -1.0 -0.296875q-0.296875 -0.296875 -0.296875 -0.640625q0 -0.421875 0.171875 -1.40625q0.171875 -0.984375 0.5 -2.5l-0.09375 0z" fill-rule="nonzero"/><path fill="#000000" fill-opacity="0.0" d="m407.92258 33.880276l0 37.795277" fill-rule="evenodd"/><path stroke="#000000" stroke-width="2.0" stroke-linejoin="round" stroke-linecap="butt" d="m407.92258 33.880276l0 37.795277" fill-rule="evenodd"/><path fill="#000000" fill-opacity="0.0" d="m407.92258 71.67555l0.7558899 42.58268" fill-rule="evenodd"/><path stroke="#000000" stroke-width="1.9763779527559056" stroke-linejoin="round" stroke-linecap="butt" d="m407.92258 71.67555l0.5454407 30.72628" fill-rule="evenodd"/><path fill="#000000" stroke="#000000" stroke-width="1.9763779527559056" stroke-linecap="butt" d="m405.20407 102.45977l3.4231262 8.909645l3.1047363 -9.02552z" fill-rule="evenodd"/><path fill="#000000" fill-opacity="0.0" d="m389.77832 124.19013c0 -5.489586 4.4501953 -9.939774 9.939789 -9.939774l17.91571 0c2.6362 0 5.1644287 1.0472183 7.0285034 2.911293c1.8640747 1.8640671 2.9112854 4.392288 2.9112854 7.0284805l0 17.915718c0 5.4895935 -4.4501953 9.939774 -9.939789 9.939774l-17.91571 0c-5.4895935 0 -9.939789 -4.45018 -9.939789 -9.939774z" fill-rule="evenodd"/><path stroke="#000000" stroke-width="2.0" stroke-linejoin="round" stroke-linecap="butt" d="m389.77832 124.19013c0 -5.489586 4.4501953 -9.939774 9.939789 -9.939774l17.91571 0c2.6362 0 5.1644287 1.0472183 7.0285034 2.911293c1.8640747 1.8640671 2.9112854 4.392288 2.9112854 7.0284805l0 17.915718c0 5.4895935 -4.4501953 9.939774 -9.939789 9.939774l-17.91571 0c-5.4895935 0 -9.939789 -4.45018 -9.939789 -9.939774z" fill-rule="evenodd"/><path fill="#000000" d="m412.71185 139.54736q-0.265625 0.453125 -0.671875 0.890625q-0.40625 0.4375 -0.96875 0.78125q-0.546875 0.34375 -1.234375 0.546875q-0.6875 0.203125 -1.5 0.203125q-1.765625 0 -2.8125 -1.125q-1.03125 -1.125 -1.03125 -3.0625q0 -1.734375 0.546875 -3.25q0.5625 -1.53125 1.5 -2.671875q0.953125 -1.140625 2.234375 -1.796875q1.296875 -0.65625 2.75 -0.65625q0.921875 0 1.5 0.140625q0.578125 0.140625 0.859375 0.40625q0.03125 0.265625 -0.03125 0.59375q-0.0625 0.3125 -0.203125 0.625q-0.125 0.3125 -0.328125 0.578125q-0.203125 0.265625 -0.421875 0.359375l-1.625 -1.671875q-0.828125 0.015625 -1.640625 0.5q-0.796875 0.484375 -1.4375 1.375q-0.625 0.875 -1.03125 2.140625q-0.390625 1.265625 -0.359375 2.84375q-0.03125 1.65625 0.65625 2.421875q0.6875 0.765625 1.859375 0.765625q0.5 0 0.9375 -0.140625q0.453125 -0.140625 0.828125 -0.359375q0.390625 -0.21875 0.703125 -0.453125q0.3125 -0.25 0.5625 -0.4375l0.359375 0.453125z" fill-rule="nonzero"/><path fill="#000000" d="m420.01456 150.92567c0 -2.0873718 1.6921387 -3.7795258 3.779541 -3.7795258c1.0023804 0 1.9637146 0.39819336 2.6725159 1.1069946c0.70880127 0.70880127 1.1069946 1.6701355 1.1069946 2.6725311c0 2.0873718 -1.6921387 3.7795258 -3.7795105 3.7795258c-2.0874023 0 -3.779541 -1.6921539 -3.779541 -3.7795258z" fill-rule="evenodd"/><path stroke="#000000" stroke-width="1.0" stroke-linejoin="round" stroke-linecap="butt" d="m420.01456 150.92567c0 -2.0873718 1.6921387 -3.7795258 3.779541 -3.7795258c1.0023804 0 1.9637146 0.39819336 2.6725159 1.1069946c0.70880127 0.70880127 1.1069946 1.6701355 1.1069946 2.6725311c0 2.0873718 -1.6921387 3.7795258 -3.7795105 3.7795258c-2.0874023 0 -3.779541 -1.6921539 -3.779541 -3.7795258z" fill-rule="evenodd"/><path fill="#000000" d="m389.77832 150.92567c0 -2.0873718 1.6921692 -3.7795258 3.779541 -3.7795258c1.0023804 0 1.9637451 0.39819336 2.6725159 1.1069946c0.70880127 0.70880127 1.1070251 1.6701355 1.1070251 2.6725311c0 2.0873718 -1.6921692 3.7795258 -3.779541 3.7795258c-2.0873718 0 -3.779541 -1.6921539 -3.779541 -3.7795258z" fill-rule="evenodd"/><path stroke="#000000" stroke-width="1.0" stroke-linejoin="round" stroke-linecap="butt" d="m389.77832 150.92567c0 -2.0873718 1.6921692 -3.7795258 3.779541 -3.7795258c1.0023804 0 1.9637451 0.39819336 2.6725159 1.1069946c0.70880127 0.70880127 1.1070251 1.6701355 1.1070251 2.6725311c0 2.0873718 -1.6921692 3.7795258 -3.779541 3.7795258c-2.0873718 0 -3.779541 -1.6921539 -3.779541 -3.7795258z" fill-rule="evenodd"/><path fill="#000000" fill-opacity="0.0" d="m453.77832 124.19013c0 -5.489586 4.4501953 -9.939774 9.939789 -9.939774l17.91571 0c2.6362 0 5.1644287 1.0472183 7.0285034 2.911293c1.8640747 1.8640671 2.9112854 4.392288 2.9112854 7.0284805l0 17.915718c0 5.4895935 -4.4501953 9.939774 -9.939789 9.939774l-17.91571 0c-5.4895935 0 -9.939789 -4.45018 -9.939789 -9.939774z" fill-rule="evenodd"/><path stroke="#000000" stroke-width="2.0" stroke-linejoin="round" stroke-linecap="butt" d="m453.77832 124.19013c0 -5.489586 4.4501953 -9.939774 9.939789 -9.939774l17.91571 0c2.6362 0 5.1644287 1.0472183 7.0285034 2.911293c1.8640747 1.8640671 2.9112854 4.392288 2.9112854 7.0284805l0 17.915718c0 5.4895935 -4.4501953 9.939774 -9.939789 9.939774l-17.91571 0c-5.4895935 0 -9.939789 -4.45018 -9.939789 -9.939774z" fill-rule="evenodd"/><path fill="#000000" d="m476.63425 139.54736q-0.21875 0.453125 -0.625 0.890625q-0.40625 0.4375 -0.96875 0.78125q-0.546875 0.34375 -1.25 0.546875q-0.6875 0.203125 -1.46875 0.203125q-2.0 0 -3.078125 -1.125q-1.0625 -1.140625 -1.0625 -3.171875q0 -1.703125 0.484375 -3.203125q0.484375 -1.515625 1.34375 -2.640625q0.859375 -1.125 2.09375 -1.765625q1.25 -0.65625 2.75 -0.65625q1.15625 0 1.984375 0.59375q0.828125 0.578125 0.828125 1.734375q0 1.703125 -1.6875 2.6875q-1.6875 0.984375 -5.46875 1.265625q-0.09375 0.40625 -0.125 0.796875q-0.03125 0.375 -0.03125 0.734375q0 1.4375 0.71875 2.359375q0.734375 0.90625 2.15625 0.90625q0.453125 0 0.890625 -0.140625q0.453125 -0.140625 0.84375 -0.359375q0.40625 -0.21875 0.71875 -0.453125q0.328125 -0.25 0.578125 -0.4375l0.375 0.453125zm-2.515625 -9.109375q-1.03125 0.015625 -1.921875 0.96875q-0.890625 0.9375 -1.515625 3.25q2.328125 -0.078125 3.625 -0.796875q1.296875 -0.734375 1.296875 -2.03125q0 -0.515625 -0.296875 -0.9375q-0.296875 -0.4375 -1.1875 -0.453125z" fill-rule="nonzero"/><path fill="#000000" d="m484.01456 150.92567c0 -2.0873718 1.6921387 -3.7795258 3.779541 -3.7795258c1.0023804 0 1.9637146 0.39819336 2.6725159 1.1069946c0.70880127 0.70880127 1.1069946 1.6701355 1.1069946 2.6725311c0 2.0873718 -1.6921387 3.7795258 -3.7795105 3.7795258c-2.0874023 0 -3.779541 -1.6921539 -3.779541 -3.7795258z" fill-rule="evenodd"/><path stroke="#000000" stroke-width="1.0" stroke-linejoin="round" stroke-linecap="butt" d="m484.01456 150.92567c0 -2.0873718 1.6921387 -3.7795258 3.779541 -3.7795258c1.0023804 0 1.9637146 0.39819336 2.6725159 1.1069946c0.70880127 0.70880127 1.1069946 1.6701355 1.1069946 2.6725311c0 2.0873718 -1.6921387 3.7795258 -3.7795105 3.7795258c-2.0874023 0 -3.779541 -1.6921539 -3.779541 -3.7795258z" fill-rule="evenodd"/><path fill="#000000" d="m453.77832 150.92567c0 -2.0873718 1.6921692 -3.7795258 3.779541 -3.7795258c1.0023804 0 1.9637451 0.39819336 2.6725159 1.1069946c0.70880127 0.70880127 1.1070251 1.6701355 1.1070251 2.6725311c0 2.0873718 -1.6921692 3.7795258 -3.779541 3.7795258c-2.0873718 0 -3.779541 -1.6921539 -3.779541 -3.7795258z" fill-rule="evenodd"/><path stroke="#000000" stroke-width="1.0" stroke-linejoin="round" stroke-linecap="butt" d="m453.77832 150.92567c0 -2.0873718 1.6921692 -3.7795258 3.779541 -3.7795258c1.0023804 0 1.9637451 0.39819336 2.6725159 1.1069946c0.70880127 0.70880127 1.1070251 1.6701355 1.1070251 2.6725311c0 2.0873718 -1.6921692 3.7795258 -3.779541 3.7795258c-2.0873718 0 -3.779541 -1.6921539 -3.779541 -3.7795258z" fill-rule="evenodd"/><path fill="#000000" fill-opacity="0.0" d="m441.93832 74.33513l30.740143 39.90551" fill-rule="evenodd"/><path stroke="#000000" stroke-width="1.9763779527559056" stroke-linejoin="round" stroke-linecap="butt" d="m441.93832 74.33513l23.503601 30.51133" fill-rule="evenodd"/><path fill="#000000" stroke="#000000" stroke-width="1.9763779527559056" stroke-linecap="butt" d="m462.8558 106.8386l8.059479 5.113144l-2.887268 -9.097435z" fill-rule="evenodd"/><path fill="#efefef" d="m366.56165 119.417915l4.226074 0.90991974l11.387909 -52.793503l4.713196 1.014801l-11.387909 52.793503l4.2261047 0.90992737l-8.517639 7.552948z" fill-rule="evenodd"/><path stroke="#000000" stroke-width="1.0" stroke-linejoin="round" stroke-linecap="butt" d="m366.56165 119.417915l4.226074 0.90991974l11.387909 -52.793503l4.713196 1.014801l-11.387909 52.793503l4.2261047 0.90992737l-8.517639 7.552948z" fill-rule="evenodd"/><path fill="#000000" d="m676.14307 150.5556c0 -2.0873718 1.6921387 -3.7795258 3.77948 -3.7795258c1.0024414 0 1.9637451 0.39819336 2.6725464 1.1069946c0.70880127 0.70880127 1.1069946 1.6701355 1.1069946 2.6725311c0 2.0873718 -1.6921387 3.7795258 -3.779541 3.7795258c-2.0873413 0 -3.77948 -1.6921539 -3.77948 -3.7795258z" fill-rule="evenodd"/><path stroke="#000000" stroke-width="1.0" stroke-linejoin="round" stroke-linecap="butt" d="m676.14307 150.5556c0 -2.0873718 1.6921387 -3.7795258 3.77948 -3.7795258c1.0024414 0 1.9637451 0.39819336 2.6725464 1.1069946c0.70880127 0.70880127 1.1069946 1.6701355 1.1069946 2.6725311c0 2.0873718 -1.6921387 3.7795258 -3.779541 3.7795258c-2.0873413 0 -3.77948 -1.6921539 -3.77948 -3.7795258z" fill-rule="evenodd"/><path fill="#000000" d="m642.1273 150.5556c0 -2.0873718 1.6921387 -3.7795258 3.77948 -3.7795258c1.0024414 0 1.9637451 0.39819336 2.6725464 1.1069946c0.70880127 0.70880127 1.1069946 1.6701355 1.1069946 2.6725311c0 2.0873718 -1.6921387 3.7795258 -3.779541 3.7795258c-2.0873413 0 -3.77948 -1.6921539 -3.77948 -3.7795258z" fill-rule="evenodd"/><path stroke="#000000" stroke-width="1.0" stroke-linejoin="round" stroke-linecap="butt" d="m642.1273 150.5556c0 -2.0873718 1.6921387 -3.7795258 3.77948 -3.7795258c1.0024414 0 1.9637451 0.39819336 2.6725464 1.1069946c0.70880127 0.70880127 1.1069946 1.6701355 1.1069946 2.6725311c0 2.0873718 -1.6921387 3.7795258 -3.779541 3.7795258c-2.0873413 0 -3.77948 -1.6921539 -3.77948 -3.7795258z" fill-rule="evenodd"/><path fill="#000000" d="m710.1588 150.5556c0 -2.0873718 1.6921387 -3.7795258 3.77948 -3.7795258c1.0024414 0 1.9637451 0.39819336 2.6725464 1.1069946c0.70880127 0.70880127 1.1069946 1.6701355 1.1069946 2.6725311c0 2.0873718 -1.6921387 3.7795258 -3.779541 3.7795258c-2.0873413 0 -3.77948 -1.6921539 -3.77948 -3.7795258z" fill-rule="evenodd"/><path stroke="#000000" stroke-width="1.0" stroke-linejoin="round" stroke-linecap="butt" d="m710.1588 150.5556c0 -2.0873718 1.6921387 -3.7795258 3.77948 -3.7795258c1.0024414 0 1.9637451 0.39819336 2.6725464 1.1069946c0.70880127 0.70880127 1.1069946 1.6701355 1.1069946 2.6725311c0 2.0873718 -1.6921387 3.7795258 -3.779541 3.7795258c-2.0873413 0 -3.77948 -1.6921539 -3.77948 -3.7795258z" fill-rule="evenodd"/><path fill="#000000" fill-opacity="0.0" d="m642.1273 123.82005c0 -5.489586 4.4501953 -9.939774 9.939758 -9.939774l55.711 0c2.6361694 0 5.1644287 1.0472183 7.0285034 2.911293c1.8640747 1.8640671 2.911255 4.392288 2.911255 7.0284805l0 17.915726c0 5.4895782 -4.4501953 9.939774 -9.939758 9.939774l-55.711 0c-5.489563 0 -9.939758 -4.4501953 -9.939758 -9.939774z" fill-rule="evenodd"/><path stroke="#000000" stroke-width="2.0" stroke-linejoin="round" stroke-linecap="butt" d="m642.1273 123.82005c0 -5.489586 4.4501953 -9.939774 9.939758 -9.939774l55.711 0c2.6361694 0 5.1644287 1.0472183 7.0285034 2.911293c1.8640747 1.8640671 2.911255 4.392288 2.911255 7.0284805l0 17.915726c0 5.4895782 -4.4501953 9.939774 -9.939758 9.939774l-55.711 0c-5.489563 0 -9.939758 -4.4501953 -9.939758 -9.939774z" fill-rule="evenodd"/><path fill="#000000" d="m660.7481 124.94292l-1.6875 -0.203125l0 -0.5625q0.390625 -0.140625 0.84375 -0.28125q0.453125 -0.140625 0.921875 -0.265625q0.46875 -0.140625 0.921875 -0.21875q0.46875 -0.09375 0.84375 -0.140625l0.5 0.265625l-2.109375 10.0l0.125 0q0.4375 -0.859375 0.953125 -1.671875q0.515625 -0.8125 1.09375 -1.4375q0.59375 -0.625 1.234375 -1.0q0.65625 -0.390625 1.375 -0.390625q1.265625 0 2.015625 0.890625q0.75 0.875 0.75 2.75q0 1.84375 -0.515625 3.46875q-0.515625 1.625 -1.453125 2.84375q-0.9375 1.203125 -2.265625 1.90625q-1.3125 0.703125 -2.921875 0.703125q-1.171875 0 -2.203125 -0.296875q-1.015625 -0.296875 -1.5 -0.703125l3.078125 -15.65625zm4.0 5.578125q-0.625 0 -1.21875 0.546875q-0.59375 0.546875 -1.109375 1.328125q-0.515625 0.78125 -0.9375 1.640625q-0.421875 0.84375 -0.71875 1.421875l-0.90625 4.609375q0.359375 0.234375 0.890625 0.375q0.546875 0.125 1.078125 0.125q0.9375 0 1.765625 -0.640625q0.828125 -0.65625 1.453125 -1.703125q0.625 -1.0625 0.984375 -2.390625q0.359375 -1.328125 0.328125 -2.703125q0.03125 -1.15625 -0.359375 -1.875q-0.375 -0.734375 -1.25 -0.734375zm37.18628 8.65625q-0.265625 0.453125 -0.671875 0.890625q-0.40625 0.4375 -0.96875 0.78125q-0.546875 0.34375 -1.234375 0.546875q-0.6875 0.203125 -1.5 0.203125q-1.765625 0 -2.8125 -1.125q-1.03125 -1.125 -1.03125 -3.0625q0 -1.734375 0.546875 -3.25q0.5625 -1.53125 1.5 -2.671875q0.953125 -1.140625 2.234375 -1.796875q1.296875 -0.65625 2.75 -0.65625q0.921875 0 1.5 0.140625q0.578125 0.140625 0.859375 0.40625q0.03125 0.265625 -0.03125 0.59375q-0.0625 0.3125 -0.203125 0.625q-0.125 0.3125 -0.328125 0.578125q-0.203125 0.265625 -0.421875 0.359375l-1.625 -1.671875q-0.828125 0.015625 -1.640625 0.5q-0.796875 0.484375 -1.4375 1.375q-0.625 0.875 -1.03125 2.140625q-0.390625 1.265625 -0.359375 2.84375q-0.03125 1.65625 0.65625 2.421875q0.6875 0.765625 1.859375 0.765625q0.5 0 0.9375 -0.140625q0.453125 -0.140625 0.828125 -0.359375q0.390625 -0.21875 0.703125 -0.453125q0.3125 -0.25 0.5625 -0.4375l0.359375 0.453125z" fill-rule="nonzero"/><path fill="#000000" fill-opacity="0.0" d="m679.92255 113.88028l0 37.795273" fill-rule="evenodd"/><path stroke="#000000" stroke-width="2.0" stroke-linejoin="round" stroke-linecap="butt" d="m679.92255 113.88028l0 37.795273" fill-rule="evenodd"/><path fill="#000000" fill-opacity="0.0" d="m333.11276 2.5541472l84.8819 0l0 30.519686l-84.8819 0z" fill-rule="evenodd"/><path fill="#000000" d="m346.62048 21.330864q0 0.953125 0.015625 1.734375q0.03125 0.765625 0.171875 1.5l-1.0 0l-0.375 -1.3125l-0.078125 0q-0.375 0.640625 -1.078125 1.078125q-0.703125 0.421875 -1.65625 0.421875q-1.875 0 -2.78125 -1.171875q-0.890625 -1.171875 -0.890625 -3.671875q0 -2.390625 1.125 -3.625q1.125 -1.25 3.109375 -1.25q0.6875 0 1.078125 0.078125q0.40625 0.078125 0.875 0.25l0 -3.890625l1.484375 0l0 9.859375zm-3.765625 2.125q0.953125 0 1.515625 -0.5q0.5625 -0.5 0.765625 -1.5l0 -4.625q-0.34375 -0.265625 -0.78125 -0.375q-0.421875 -0.109375 -1.125 -0.109375q-1.28125 0 -2.015625 0.84375q-0.71875 0.84375 -0.71875 2.71875q0 0.765625 0.109375 1.421875q0.125 0.640625 0.40625 1.109375q0.28125 0.46875 0.734375 0.75q0.453125 0.265625 1.109375 0.265625zm13.458954 0.328125q-0.5625 0.453125 -1.421875 0.71875q-0.84375 0.25 -1.796875 0.25q-1.0625 0 -1.84375 -0.34375q-0.78125 -0.34375 -1.28125 -0.984375q-0.5 -0.640625 -0.75 -1.53125q-0.234375 -0.90625 -0.234375 -2.03125q0 -2.375 1.0625 -3.625q1.0625 -1.25 3.03125 -1.25q0.640625 0 1.265625 0.140625q0.640625 0.140625 1.140625 0.53125q0.5 0.390625 0.8125 1.109375q0.328125 0.71875 0.328125 1.890625q0 0.609375 -0.109375 1.359375l-5.984375 0q0 0.828125 0.15625 1.46875q0.171875 0.625 0.515625 1.0625q0.359375 0.4375 0.921875 0.671875q0.578125 0.234375 1.40625 0.234375q0.625 0 1.265625 -0.21875q0.640625 -0.234375 0.953125 -0.53125l0.5625 1.078125zm-3.21875 -7.5q-1.09375 0 -1.765625 0.578125q-0.65625 0.578125 -0.78125 1.984375l4.625 0q0 -1.421875 -0.546875 -1.984375q-0.53125 -0.578125 -1.53125 -0.578125zm11.352356 8.25l0 -5.28125q0 -0.75 -0.078125 -1.296875q-0.0625 -0.546875 -0.25 -0.921875q-0.171875 -0.375 -0.53125 -0.5625q-0.34375 -0.1875 -0.890625 -0.1875q-0.859375 0 -1.4375 0.53125q-0.5625 0.515625 -0.796875 1.296875l0 6.421875l-1.484375 0l0 -9.328125l1.046875 0l0.28125 1.140625l0.0625 0q0.515625 -0.59375 1.171875 -0.96875q0.671875 -0.390625 1.734375 -0.390625q0.890625 0 1.453125 0.34375q0.578125 0.34375 0.890625 1.203125q0.421875 -0.734375 1.171875 -1.140625q0.765625 -0.40625 1.71875 -0.40625q0.78125 0 1.3125 0.171875q0.546875 0.171875 0.90625 0.625q0.359375 0.453125 0.515625 1.21875q0.15625 0.765625 0.15625 1.9375l0 5.59375l-1.484375 0l0 -5.609375q0 -0.671875 -0.078125 -1.171875q-0.0625 -0.5 -0.265625 -0.8125q-0.1875 -0.328125 -0.53125 -0.484375q-0.34375 -0.171875 -0.90625 -0.171875q-0.9375 0 -1.453125 0.53125q-0.515625 0.515625 -0.75 1.484375l0 6.234375l-1.484375 0zm9.16452 -4.671875q0 -2.359375 1.046875 -3.609375q1.046875 -1.265625 3.03125 -1.265625q1.046875 0 1.8125 0.34375q0.78125 0.34375 1.28125 0.984375q0.5 0.640625 0.734375 1.546875q0.25 0.90625 0.25 2.0q0 2.375 -1.046875 3.640625q-1.046875 1.25 -3.03125 1.25q-1.046875 0 -1.828125 -0.34375q-0.765625 -0.34375 -1.265625 -0.984375q-0.5 -0.640625 -0.75 -1.546875q-0.234375 -0.90625 -0.234375 -2.015625zm1.546875 0q0 0.71875 0.140625 1.375q0.140625 0.640625 0.4375 1.140625q0.296875 0.484375 0.78125 0.78125q0.484375 0.296875 1.171875 0.296875q2.53125 0.015625 2.53125 -3.59375q0 -0.71875 -0.140625 -1.375q-0.140625 -0.65625 -0.4375 -1.140625q-0.296875 -0.484375 -0.78125 -0.765625q-0.484375 -0.296875 -1.171875 -0.296875q-2.53125 -0.015625 -2.53125 3.578125zm7.734131 -4.65625l1.453125 0l0 -1.84375l1.5 -0.4375l0 2.28125l2.53125 0l0 1.3125l-2.53125 0l0 5.15625q0 0.96875 0.234375 1.375q0.25 0.40625 0.828125 0.40625q0.484375 0 0.8125 -0.09375q0.34375 -0.109375 0.75 -0.28125l0.34375 1.140625q-0.515625 0.234375 -1.109375 0.375q-0.59375 0.15625 -1.28125 0.15625q-1.140625 0 -1.609375 -0.640625q-0.46875 -0.640625 -0.46875 -2.15625l0 -5.4375l-1.453125 0l0 -1.3125zm14.165985 8.578125q-0.5625 0.453125 -1.421875 0.71875q-0.84375 0.25 -1.796875 0.25q-1.0625 0 -1.84375 -0.34375q-0.78125 -0.34375 -1.28125 -0.984375q-0.5 -0.640625 -0.75 -1.53125q-0.234375 -0.90625 -0.234375 -2.03125q0 -2.375 1.0625 -3.625q1.0625 -1.25 3.03125 -1.25q0.640625 0 1.265625 0.140625q0.640625 0.140625 1.140625 0.53125q0.5 0.390625 0.8125 1.109375q0.328125 0.71875 0.328125 1.890625q0 0.609375 -0.109375 1.359375l-5.984375 0q0 0.828125 0.15625 1.46875q0.171875 0.625 0.515625 1.0625q0.359375 0.4375 0.921875 0.671875q0.578125 0.234375 1.40625 0.234375q0.625 0 1.265625 -0.21875q0.640625 -0.234375 0.953125 -0.53125l0.5625 1.078125zm-3.21875 -7.5q-1.09375 0 -1.765625 0.578125q-0.65625 0.578125 -0.78125 1.984375l4.625 0q0 -1.421875 -0.546875 -1.984375q-0.53125 -0.578125 -1.53125 -0.578125z" fill-rule="nonzero"/><path fill="#000000" d="m406.33002 11.815239l-1.3125 -0.171875l0 -0.4375q0.296875 -0.109375 0.65625 -0.21875q0.359375 -0.109375 0.71875 -0.203125q0.359375 -0.109375 0.71875 -0.171875q0.359375 -0.078125 0.65625 -0.109375l0.390625 0.203125l-1.640625 7.78125l0.09375 0q0.328125 -0.671875 0.734375 -1.296875q0.40625 -0.640625 0.859375 -1.125q0.453125 -0.484375 0.953125 -0.78125q0.515625 -0.296875 1.0625 -0.296875q1.0 0 1.578125 0.6875q0.578125 0.6875 0.578125 2.140625q0 1.4375 -0.40625 2.703125q-0.40625 1.25 -1.140625 2.203125q-0.71875 0.9375 -1.75 1.484375q-1.015625 0.546875 -2.265625 0.546875q-0.921875 0 -1.71875 -0.234375q-0.78125 -0.234375 -1.15625 -0.546875l2.390625 -12.15625zm3.109375 4.328125q-0.484375 0 -0.953125 0.4375q-0.46875 0.421875 -0.875 1.03125q-0.390625 0.59375 -0.71875 1.265625q-0.328125 0.65625 -0.546875 1.109375l-0.703125 3.578125q0.28125 0.1875 0.6875 0.296875q0.421875 0.09375 0.84375 0.09375q0.71875 0 1.359375 -0.5q0.640625 -0.5 1.125 -1.328125q0.5 -0.828125 0.765625 -1.859375q0.28125 -1.03125 0.265625 -2.09375q0.015625 -0.890625 -0.28125 -1.453125q-0.296875 -0.578125 -0.96875 -0.578125z" fill-rule="nonzero"/></g></svg>