<svg version="1.1" viewBox="0.0 0.0 907.6010498687664 225.73228346456693" fill="none" stroke="none" stroke-linecap="square" stroke-miterlimit="10" xmlns:xlink="http://www.w3.org/1999/xlink" xmlns="http://www.w3.org/2000/svg"><clipPath id="p.0"><path d="m0 0l907.6011 0l0 225.73228l-907.6011 0l0 -225.73228z" clip-rule="nonzero"/></clipPath><g clip-path="url(#p.0)"><path fill="#000000" fill-opacity="0.0" d="m0 0l907.6011 0l0 225.73228l-907.6011 0z" fill-rule="evenodd"/><path fill="#000000" fill-opacity="0.0" d="m97.81365 29.616108c0 -11.028301 8.940201 -19.968504 19.968498 -19.968504c5.2959747 0 10.375046 2.103818 14.119873 5.8486395c3.744812 3.7448206 5.848633 8.823888 5.848633 14.119864c0 11.028301 -8.940201 19.968502 -19.968506 19.968502c-11.028297 0 -19.968498 -8.940201 -19.968498 -19.968502z" fill-rule="evenodd"/><path stroke="#000000" stroke-width="2.0" stroke-linejoin="round" stroke-linecap="butt" d="m97.81365 29.616108c0 -11.028301 8.940201 -19.968504 19.968498 -19.968504c5.2959747 0 10.375046 2.103818 14.119873 5.8486395c3.744812 3.7448206 5.848633 8.823888 5.848633 14.119864c0 11.028301 -8.940201 19.968502 -19.968506 19.968502c-11.028297 0 -19.968498 -8.940201 -19.968498 -19.968502z" fill-rule="evenodd"/><path fill="#000000" d="m119.8427 22.702982q-1.25 0 -2.28125 0.46875q-1.015625 0.46875 -1.734375 1.359375q-0.71875 0.890625 -1.109375 2.171875q-0.390625 1.28125 -0.390625 2.890625q0 1.640625 0.34375 2.937502q0.34375 1.28125 1.03125 2.15625q0.6875 0.875 1.71875 1.34375q1.03125 0.453125 2.421875 0.453125q1.046875 0 1.984375 -0.203125q0.9375 -0.21875 1.84375 -0.484375l0 1.90625q-0.453125 0.171875 -0.921875 0.3125q-0.453125 0.125 -0.953125 0.203125q-0.484375 0.09375 -1.0625 0.125q-0.5625 0.046875 -1.25 0.046875q-1.921875 0 -3.328125 -0.625q-1.40625 -0.640625 -2.328125 -1.796875q-0.921875 -1.171875 -1.375 -2.796875q-0.4375 -1.6250019 -0.4375 -3.609377q0 -1.9375 0.5 -3.546875q0.515625 -1.625 1.5 -2.78125q1.0 -1.171875 2.453125 -1.8125q1.46875 -0.640625 3.375 -0.640625q1.265625 0 2.40625 0.265625q1.15625 0.25 2.078125 0.734375l-0.90625 1.828125q-0.75 -0.375 -1.625 -0.640625q-0.859375 -0.265625 -1.953125 -0.265625z" fill-rule="nonzero"/><path fill="#000000" fill-opacity="0.0" d="m41.81365 85.616104c0 -11.028297 8.940205 -19.968498 19.968506 -19.968498c5.295971 0 10.375042 2.1038132 14.119862 5.8486404c3.7448196 3.7448196 5.8486404 8.823883 5.8486404 14.119858c0 11.028305 -8.940201 19.968506 -19.968502 19.968506c-11.028301 0 -19.968506 -8.940201 -19.968506 -19.968506z" fill-rule="evenodd"/><path stroke="#000000" stroke-width="2.0" stroke-linejoin="round" stroke-linecap="butt" d="m41.81365 85.616104c0 -11.028297 8.940205 -19.968498 19.968506 -19.968498c5.295971 0 10.375042 2.1038132 14.119862 5.8486404c3.7448196 3.7448196 5.8486404 8.823883 5.8486404 14.119858c0 11.028305 -8.940201 19.968506 -19.968502 19.968506c-11.028301 0 -19.968506 -8.940201 -19.968506 -19.968506z" fill-rule="evenodd"/><path fill="#000000" d="m56.65715 77.01548l4.6875 0q1.5 0 2.6406288 0.234375q1.1406212 0.234375 1.9062462 0.75q0.765625 0.5 1.15625 1.328125q0.390625 0.828125 0.390625 2.03125q0 0.71875 -0.234375 1.359375q-0.234375 0.625 -0.671875 1.109375q-0.421875 0.484375 -1.0625 0.8125q-0.640625 0.3125 -1.453125 0.421875l0 0.109375q0.8125 0.140625 1.515625 0.40625q0.71875 0.265625 1.234375 0.734375q0.53125 0.453125 0.828125 1.15625q0.3125 0.703125 0.3125 1.71875q0 1.171875 -0.375 2.09375q-0.375 0.921875 -1.109375 1.5625q-0.71875 0.625 -1.75 0.96875q-1.03125 0.34375 -2.328125 0.34375l-5.6875 0l0 -17.140625zm2.1875 7.265625l2.859375 0q0.984375 0 1.640625 -0.171875q0.671875 -0.171875 1.078125 -0.515625q0.421875 -0.34375 0.59375 -0.859375q0.1875 -0.53125 0.1875 -1.21875q0 -1.40625 -0.90625 -2.015625q-0.890625 -0.609375 -2.84375 -0.609375l-2.609375 0l0 5.390625zm0 1.828125l0 6.1875l3.109375 0q1.03125 0 1.7343788 -0.234375q0.7031212 -0.234375 1.1249962 -0.65625q0.421875 -0.421875 0.609375 -1.0q0.1875 -0.59375 0.1875 -1.3125q0 -0.65625 -0.1875 -1.203125q-0.1875 -0.5625 -0.640625 -0.953125q-0.4375 -0.390625 -1.171875 -0.609375q-0.71875 -0.21875 -1.796875 -0.21875l-2.96875 0z" fill-rule="nonzero"/><path fill="#000000" fill-opacity="0.0" d="m89.81365 197.6161c0 -11.02829 8.940201 -19.968506 19.968498 -19.968506c5.2959747 0 10.375046 2.1038208 14.119865 5.848648c3.7448196 3.744812 5.8486404 8.823883 5.8486404 14.119858c0 11.028305 -8.940201 19.968506 -19.968506 19.968506c-11.028297 0 -19.968498 -8.940201 -19.968498 -19.968506z" fill-rule="evenodd"/><path stroke="#000000" stroke-width="2.0" stroke-linejoin="round" stroke-linecap="butt" d="m89.81365 197.6161c0 -11.02829 8.940201 -19.968506 19.968498 -19.968506c5.2959747 0 10.375046 2.1038208 14.119865 5.848648c3.7448196 3.744812 5.8486404 8.823883 5.8486404 14.119858c0 11.028305 -8.940201 19.968506 -19.968506 19.968506c-11.028297 0 -19.968498 -8.940201 -19.968498 -19.968506z" fill-rule="evenodd"/><path fill="#000000" d="m116.52629 197.42174q0 2.171875 -0.5625 3.8125q-0.5625 1.625 -1.625 2.71875q-1.0625 1.09375 -2.625 1.65625q-1.546875 0.546875 -3.515625 0.546875l-4.296875 0l0 -17.140625l4.78125 0q1.78125 0 3.234375 0.546875q1.453125 0.53125 2.46875 1.59375q1.03125 1.0625 1.578125 2.640625q0.5625 1.5625 0.5625 3.625zm-2.3125 0.078125q0 -1.71875 -0.390625 -2.96875q-0.375 -1.25 -1.125 -2.046875q-0.734375 -0.8125 -1.8125 -1.203125q-1.078125 -0.390625 -2.4375 -0.390625l-2.359375 0l0 13.390625l1.890625 0q3.09375 0 4.65625 -1.703125q1.578125 -1.71875 1.578125 -5.078125z" fill-rule="nonzero"/><path fill="#000000" fill-opacity="0.0" d="m153.81364 85.616104c0 -11.028297 8.940201 -19.968498 19.968506 -19.968498c5.2959747 0 10.375046 2.1038132 14.119873 5.8486404c3.744812 3.7448196 5.848633 8.823883 5.848633 14.119858c0 11.028305 -8.940201 19.968506 -19.968506 19.968506c-11.028305 0 -19.968506 -8.940201 -19.968506 -19.968506z" fill-rule="evenodd"/><path stroke="#000000" stroke-width="2.0" stroke-linejoin="round" stroke-linecap="butt" d="m153.81364 85.616104c0 -11.028297 8.940201 -19.968498 19.968506 -19.968498c5.2959747 0 10.375046 2.1038132 14.119873 5.8486404c3.744812 3.7448196 5.848633 8.823883 5.848633 14.119858c0 11.028305 -8.940201 19.968506 -19.968506 19.968506c-11.028305 0 -19.968506 -8.940201 -19.968506 -19.968506z" fill-rule="evenodd"/><path fill="#000000" d="m172.40324 94.156105l-2.1875 0l0 -17.140625l8.90625 0l0 1.921875l-6.71875 0l0 6.046875l6.265625 0l0 1.921875l-6.265625 0l0 7.25z" fill-rule="nonzero"/><path fill="#000000" fill-opacity="0.0" d="m121.81365 141.6161c0 -11.02829 8.940193 -19.968498 19.968498 -19.968498c5.2959747 0 10.375046 2.1038132 14.119873 5.8486404c3.744812 3.744812 5.848633 8.823883 5.848633 14.119858c0 11.028305 -8.940201 19.968506 -19.968506 19.968506c-11.028305 0 -19.968498 -8.940201 -19.968498 -19.968506z" fill-rule="evenodd"/><path stroke="#000000" stroke-width="2.0" stroke-linejoin="round" stroke-linecap="butt" d="m121.81365 141.6161c0 -11.02829 8.940193 -19.968498 19.968498 -19.968498c5.2959747 0 10.375046 2.1038132 14.119873 5.8486404c3.744812 3.744812 5.848633 8.823883 5.848633 14.119858c0 11.028305 -8.940201 19.968506 -19.968506 19.968506c-11.028305 0 -19.968498 -8.940201 -19.968498 -19.968506z" fill-rule="evenodd"/><path fill="#000000" d="m146.68254 150.15611l-8.90625 0l0 -17.140625l8.90625 0l0 1.921875l-6.71875 0l0 5.296875l6.265625 0l0 1.90625l-6.265625 0l0 6.09375l6.71875 0l0 1.921875z" fill-rule="nonzero"/><path fill="#000000" fill-opacity="0.0" d="m185.81364 141.6161c0 -11.02829 8.940201 -19.968498 19.968506 -19.968498c5.2959747 0 10.375046 2.1038132 14.119873 5.8486404c3.744812 3.744812 5.848633 8.823883 5.848633 14.119858c0 11.028305 -8.940201 19.968506 -19.968506 19.968506c-11.028305 0 -19.968506 -8.940201 -19.968506 -19.968506z" fill-rule="evenodd"/><path stroke="#000000" stroke-width="2.0" stroke-linejoin="round" stroke-linecap="butt" d="m185.81364 141.6161c0 -11.02829 8.940201 -19.968498 19.968506 -19.968498c5.2959747 0 10.375046 2.1038132 14.119873 5.8486404c3.744812 3.744812 5.848633 8.823883 5.848633 14.119858c0 11.028305 -8.940201 19.968506 -19.968506 19.968506c-11.028305 0 -19.968506 -8.940201 -19.968506 -19.968506z" fill-rule="evenodd"/><path fill="#000000" d="m206.67473 141.10924l5.671875 0l0 8.40625q-0.65625 0.203125 -1.3125 0.375q-0.65625 0.15625 -1.34375 0.265625q-0.6875 0.125 -1.453125 0.171875q-0.765625 0.0625 -1.640625 0.0625q-1.84375 0 -3.265625 -0.609375q-1.40625 -0.625 -2.390625 -1.765625q-0.96875 -1.140625 -1.46875 -2.765625q-0.5 -1.640625 -0.5 -3.6875q0 -2.015625 0.546875 -3.640625q0.5625 -1.625 1.625 -2.765625q1.078125 -1.15625 2.640625 -1.765625q1.5625 -0.609375 3.5625 -0.609375q1.296875 0 2.484375 0.265625q1.203125 0.25 2.234375 0.734375l-0.84375 1.90625q-0.421875 -0.203125 -0.90625 -0.375q-0.484375 -0.1875 -1.0 -0.3125q-0.515625 -0.140625 -1.0625 -0.21875q-0.546875 -0.078125 -1.078125 -0.078125q-1.4375 0 -2.546875 0.46875q-1.09375 0.46875 -1.84375 1.359375q-0.734375 0.890625 -1.125 2.171875q-0.375 1.28125 -0.375 2.890625q0 1.515625 0.3125 2.78125q0.328125 1.265625 1.03125 2.1875q0.703125 0.90625 1.8125 1.421875q1.109375 0.5 2.6875 0.5q0.515625 0 0.9375 -0.03125q0.4375 -0.03125 0.796875 -0.078125q0.359375 -0.046875 0.671875 -0.109375q0.328125 -0.0625 0.640625 -0.125l0 -5.109375l-3.5 0l0 -1.921875z" fill-rule="nonzero"/><path fill="#000000" fill-opacity="0.0" d="m9.813648 141.6161c0 -11.02829 8.940205 -19.968498 19.968504 -19.968498c5.2959766 0 10.375044 2.1038132 14.1198635 5.8486404c3.7448235 3.744812 5.8486404 8.823883 5.8486404 14.119858c0 11.028305 -8.940205 19.968506 -19.968504 19.968506c-11.028299 0 -19.968504 -8.940201 -19.968504 -19.968506z" fill-rule="evenodd"/><path stroke="#000000" stroke-width="2.0" stroke-linejoin="round" stroke-linecap="butt" d="m9.813648 141.6161c0 -11.02829 8.940205 -19.968498 19.968504 -19.968498c5.2959766 0 10.375044 2.1038132 14.1198635 5.8486404c3.7448235 3.744812 5.8486404 8.823883 5.8486404 14.119858c0 11.028305 -8.940205 19.968506 -19.968504 19.968506c-11.028299 0 -19.968504 -8.940201 -19.968504 -19.968506z" fill-rule="evenodd"/><path fill="#000000" d="m34.846607 150.15611l-1.875 -5.3125l-6.375002 0l-1.90625 5.3125l-2.203125 0l6.296875 -17.203125l1.984375 0l6.312502 17.203125l-2.234375 0zm-2.5625 -7.25l-1.7343769 -4.96875q-0.0625 -0.203125 -0.171875 -0.5q-0.09375 -0.3125 -0.203125 -0.65625q-0.109375 -0.359375 -0.21875 -0.734375q-0.09375 -0.390625 -0.1875 -0.75q-0.078125 0.359375 -0.1875 0.75q-0.109375 0.390625 -0.21875 0.75q-0.09375 0.34375 -0.203125 0.65625q-0.09375 0.296875 -0.171875 0.484375l-1.6875 4.96875l4.984377 0z" fill-rule="nonzero"/><path fill="#000000" fill-opacity="0.0" d="m103.662285 43.735973l-27.748032 27.748028" fill-rule="evenodd"/><path stroke="#000000" stroke-width="2.0" stroke-linejoin="round" stroke-linecap="butt" d="m103.66229 43.735973l-19.262756 19.262749" fill-rule="evenodd"/><path fill="#000000" stroke="#000000" stroke-width="2.0" stroke-linecap="butt" d="m82.06364 60.662823l-4.0819397 8.753742l8.753746 -4.0819397z" fill-rule="evenodd"/><path fill="#000000" fill-opacity="0.0" d="m127.662285 155.73598l-17.889763 21.92125" fill-rule="evenodd"/><path stroke="#000000" stroke-width="2.0" stroke-linejoin="round" stroke-linecap="butt" d="m127.66229 155.73598l-10.302559 12.624252" fill-rule="evenodd"/><path fill="#000000" stroke="#000000" stroke-width="2.0" stroke-linecap="butt" d="m114.80038 166.27156l-3.179222 9.120453l8.2979355 -4.943115z" fill-rule="evenodd"/><path fill="#000000" fill-opacity="0.0" d="m131.90202 43.735973l27.748032 27.748028" fill-rule="evenodd"/><path stroke="#000000" stroke-width="2.0" stroke-linejoin="round" stroke-linecap="butt" d="m131.90201 43.735973l19.262756 19.262749" fill-rule="evenodd"/><path fill="#000000" stroke="#000000" stroke-width="2.0" stroke-linecap="butt" d="m148.82886 65.334625l8.753754 4.0819397l-4.0819397 -8.753742z" fill-rule="evenodd"/><path fill="#000000" fill-opacity="0.0" d="m159.6623 99.73597l-17.88977 21.921265" fill-rule="evenodd"/><path stroke="#000000" stroke-width="2.0" stroke-linejoin="round" stroke-linecap="butt" d="m159.6623 99.73598l-10.302551 12.62426" fill-rule="evenodd"/><path fill="#000000" stroke="#000000" stroke-width="2.0" stroke-linecap="butt" d="m146.80037 110.27156l-3.1792145 9.120453l8.297943 -4.9431076z" fill-rule="evenodd"/><path fill="#000000" fill-opacity="0.0" d="m187.90202 99.73597l17.889755 21.921265" fill-rule="evenodd"/><path stroke="#000000" stroke-width="2.0" stroke-linejoin="round" stroke-linecap="butt" d="m187.90202 99.73598l10.302551 12.62426" fill-rule="evenodd"/><path fill="#000000" stroke="#000000" stroke-width="2.0" stroke-linecap="butt" d="m195.64522 114.448906l8.297943 4.9431076l-3.1792145 -9.120453z" fill-rule="evenodd"/><path fill="#000000" fill-opacity="0.0" d="m47.66229 99.73597l-17.889765 21.921265" fill-rule="evenodd"/><path stroke="#000000" stroke-width="2.0" stroke-linejoin="round" stroke-linecap="butt" d="m47.66229 99.73598l-10.302555 12.62426" fill-rule="evenodd"/><path fill="#000000" stroke="#000000" stroke-width="2.0" stroke-linecap="butt" d="m34.800373 110.27156l-3.179222 9.120453l8.297943 -4.9431076z" fill-rule="evenodd"/><path fill="#000000" fill-opacity="0.0" d="m488.72177 29.616108c0 -11.028301 8.940216 -19.968504 19.968506 -19.968504c5.29599 0 10.3750305 2.103818 14.119904 5.8486395c3.744812 3.7448206 5.848633 8.823888 5.848633 14.119864c0 11.028301 -8.940247 19.968502 -19.968536 19.968502c-11.02829 0 -19.968506 -8.940201 -19.968506 -19.968502z" fill-rule="evenodd"/><path stroke="#000000" stroke-width="2.0" stroke-linejoin="round" stroke-linecap="butt" d="m488.72177 29.616108c0 -11.028301 8.940216 -19.968504 19.968506 -19.968504c5.29599 0 10.3750305 2.103818 14.119904 5.8486395c3.744812 3.7448206 5.848633 8.823888 5.848633 14.119864c0 11.028301 -8.940247 19.968502 -19.968536 19.968502c-11.02829 0 -19.968506 -8.940201 -19.968506 -19.968502z" fill-rule="evenodd"/><path fill="#000000" d="m503.56528 21.015482l4.6875 0q1.5 0 2.640625 0.234375q1.1406555 0.234375 1.9062805 0.75q0.765625 0.5 1.15625 1.328125q0.390625 0.828125 0.390625 2.03125q0 0.71875 -0.234375 1.359375q-0.234375 0.625 -0.671875 1.109375q-0.421875 0.484375 -1.0625 0.8125q-0.6406555 0.3125 -1.4531555 0.421875l0 0.109375q0.8125 0.140625 1.5156555 0.40625q0.71875 0.265625 1.234375 0.734375q0.53125 0.453125 0.828125 1.15625q0.3125 0.7031269 0.3125 1.7187519q0 1.171875 -0.375 2.09375q-0.375 0.921875 -1.109375 1.5625q-0.71875 0.625 -1.7500305 0.96875q-1.03125 0.34375 -2.328125 0.34375l-5.6875 0l0 -17.140627zm2.1875 7.265625l2.859375 0q0.984375 0 1.640625 -0.171875q0.671875 -0.171875 1.078125 -0.515625q0.421875 -0.34375 0.59375 -0.859375q0.18753052 -0.53125 0.18753052 -1.21875q0 -1.40625 -0.9062805 -2.015625q-0.890625 -0.609375 -2.84375 -0.609375l-2.609375 0l0 5.390625zm0 1.828125l0 6.187502l3.109375 0q1.03125 0 1.734375 -0.234375q0.703125 -0.234375 1.125 -0.65625q0.42190552 -0.421875 0.6094055 -1.0q0.1875 -0.59375 0.1875 -1.3125q0 -0.65625 -0.1875 -1.2031269q-0.1875 -0.5625 -0.6406555 -0.953125q-0.4375 -0.390625 -1.171875 -0.609375q-0.71875 -0.21875 -1.796875 -0.21875l-2.96875 0z" fill-rule="nonzero"/><path fill="#000000" fill-opacity="0.0" d="m432.72177 85.616104c0 -11.028297 8.940216 -19.968498 19.968506 -19.968498c5.29599 0 10.375061 2.1038132 14.119873 5.8486404c3.744812 3.7448196 5.848633 8.823883 5.848633 14.119858c0 11.028305 -8.940186 19.968506 -19.968506 19.968506c-11.02829 0 -19.968506 -8.940201 -19.968506 -19.968506z" fill-rule="evenodd"/><path stroke="#000000" stroke-width="2.0" stroke-linejoin="round" stroke-linecap="butt" d="m432.72177 85.616104c0 -11.028297 8.940216 -19.968498 19.968506 -19.968498c5.29599 0 10.375061 2.1038132 14.119873 5.8486404c3.744812 3.7448196 5.848633 8.823883 5.848633 14.119858c0 11.028305 -8.940186 19.968506 -19.968506 19.968506c-11.02829 0 -19.968506 -8.940201 -19.968506 -19.968506z" fill-rule="evenodd"/><path fill="#000000" d="m457.75473 94.156105l-1.875 -5.3125l-6.375 0l-1.90625 5.3125l-2.203125 0l6.296875 -17.203125l1.984375 0l6.3125 17.203125l-2.234375 0zm-2.5625 -7.25l-1.734375 -4.96875q-0.0625 -0.203125 -0.171875 -0.5q-0.09375 -0.3125 -0.203125 -0.65625q-0.109375 -0.359375 -0.21875 -0.734375q-0.09375 -0.390625 -0.1875 -0.75q-0.078125 0.359375 -0.1875 0.75q-0.109375 0.390625 -0.21875 0.75q-0.09375 0.34375 -0.203125 0.65625q-0.09375 0.296875 -0.171875 0.484375l-1.6875 4.96875l4.984375 0z" fill-rule="nonzero"/><path fill="#000000" fill-opacity="0.0" d="m480.72177 197.6161c0 -11.02829 8.940216 -19.968506 19.968506 -19.968506c5.29599 0 10.375061 2.1038208 14.119904 5.848648c3.744812 3.744812 5.848633 8.823883 5.848633 14.119858c0 11.028305 -8.940216 19.968506 -19.968536 19.968506c-11.02829 0 -19.968506 -8.940201 -19.968506 -19.968506z" fill-rule="evenodd"/><path stroke="#000000" stroke-width="2.0" stroke-linejoin="round" stroke-linecap="butt" d="m480.72177 197.6161c0 -11.02829 8.940216 -19.968506 19.968506 -19.968506c5.29599 0 10.375061 2.1038208 14.119904 5.848648c3.744812 3.744812 5.848633 8.823883 5.848633 14.119858c0 11.028305 -8.940216 19.968506 -19.968536 19.968506c-11.02829 0 -19.968506 -8.940201 -19.968506 -19.968506z" fill-rule="evenodd"/><path fill="#000000" d="m507.43442 197.42174q0 2.171875 -0.5625 3.8125q-0.5625 1.625 -1.625 2.71875q-1.0625 1.09375 -2.625 1.65625q-1.546875 0.546875 -3.515625 0.546875l-4.296875 0l0 -17.140625l4.78125 0q1.78125 0 3.234375 0.546875q1.453125 0.53125 2.46875 1.59375q1.03125 1.0625 1.578125 2.640625q0.5625 1.5625 0.5625 3.625zm-2.3125 0.078125q0 -1.71875 -0.390625 -2.96875q-0.375 -1.25 -1.125 -2.046875q-0.734375 -0.8125 -1.8125 -1.203125q-1.078125 -0.390625 -2.4375 -0.390625l-2.359375 0l0 13.390625l1.890625 0q3.09375 0 4.65625 -1.703125q1.578125 -1.71875 1.578125 -5.078125z" fill-rule="nonzero"/><path fill="#000000" fill-opacity="0.0" d="m544.7218 85.616104c0 -11.028297 8.940186 -19.968498 19.968506 -19.968498c5.2959595 0 10.375 2.1038132 14.119873 5.8486404c3.744812 3.7448196 5.848633 8.823883 5.848633 14.119858c0 11.028305 -8.940247 19.968506 -19.968506 19.968506c-11.02832 0 -19.968506 -8.940201 -19.968506 -19.968506z" fill-rule="evenodd"/><path stroke="#000000" stroke-width="2.0" stroke-linejoin="round" stroke-linecap="butt" d="m544.7218 85.616104c0 -11.028297 8.940186 -19.968498 19.968506 -19.968498c5.2959595 0 10.375 2.1038132 14.119873 5.8486404c3.744812 3.7448196 5.848633 8.823883 5.848633 14.119858c0 11.028305 -8.940247 19.968506 -19.968506 19.968506c-11.02832 0 -19.968506 -8.940201 -19.968506 -19.968506z" fill-rule="evenodd"/><path fill="#000000" d="m563.3114 94.156105l-2.1875 0l0 -17.140625l8.90625 0l0 1.921875l-6.71875 0l0 6.046875l6.265625 0l0 1.921875l-6.265625 0l0 7.25z" fill-rule="nonzero"/><path fill="#000000" fill-opacity="0.0" d="m512.7218 141.6161c0 -11.02829 8.940186 -19.968498 19.968506 -19.968498c5.2959595 0 10.375 2.1038132 14.119873 5.8486404c3.744812 3.744812 5.848633 8.823883 5.848633 14.119858c0 11.028305 -8.940247 19.968506 -19.968506 19.968506c-11.02832 0 -19.968506 -8.940201 -19.968506 -19.968506z" fill-rule="evenodd"/><path stroke="#000000" stroke-width="2.0" stroke-linejoin="round" stroke-linecap="butt" d="m512.7218 141.6161c0 -11.02829 8.940186 -19.968498 19.968506 -19.968498c5.2959595 0 10.375 2.1038132 14.119873 5.8486404c3.744812 3.744812 5.848633 8.823883 5.848633 14.119858c0 11.028305 -8.940247 19.968506 -19.968506 19.968506c-11.02832 0 -19.968506 -8.940201 -19.968506 -19.968506z" fill-rule="evenodd"/><path fill="#000000" d="m537.5907 150.15611l-8.90625 0l0 -17.140625l8.90625 0l0 1.921875l-6.71875 0l0 5.296875l6.265625 0l0 1.90625l-6.265625 0l0 6.09375l6.71875 0l0 1.921875z" fill-rule="nonzero"/><path fill="#000000" fill-opacity="0.0" d="m576.7218 141.6161c0 -11.02829 8.940186 -19.968498 19.968506 -19.968498c5.2959595 0 10.375 2.1038132 14.119873 5.8486404c3.744812 3.744812 5.848633 8.823883 5.848633 14.119858c0 11.028305 -8.940247 19.968506 -19.968506 19.968506c-11.02832 0 -19.968506 -8.940201 -19.968506 -19.968506z" fill-rule="evenodd"/><path stroke="#000000" stroke-width="2.0" stroke-linejoin="round" stroke-linecap="butt" d="m576.7218 141.6161c0 -11.02829 8.940186 -19.968498 19.968506 -19.968498c5.2959595 0 10.375 2.1038132 14.119873 5.8486404c3.744812 3.744812 5.848633 8.823883 5.848633 14.119858c0 11.028305 -8.940247 19.968506 -19.968506 19.968506c-11.02832 0 -19.968506 -8.940201 -19.968506 -19.968506z" fill-rule="evenodd"/><path fill="#000000" d="m597.5829 141.10924l5.671875 0l0 8.40625q-0.65625 0.203125 -1.3125 0.375q-0.65625 0.15625 -1.34375 0.265625q-0.6875 0.125 -1.453125 0.171875q-0.765625 0.0625 -1.640625 0.0625q-1.84375 0 -3.265625 -0.609375q-1.40625 -0.625 -2.390625 -1.765625q-0.96875 -1.140625 -1.46875 -2.765625q-0.5 -1.640625 -0.5 -3.6875q0 -2.015625 0.546875 -3.640625q0.5625 -1.625 1.625 -2.765625q1.078125 -1.15625 2.640625 -1.765625q1.5625 -0.609375 3.5625 -0.609375q1.296875 0 2.484375 0.265625q1.203125 0.25 2.234375 0.734375l-0.84375 1.90625q-0.421875 -0.203125 -0.90625 -0.375q-0.484375 -0.1875 -1.0 -0.3125q-0.515625 -0.140625 -1.0625 -0.21875q-0.546875 -0.078125 -1.078125 -0.078125q-1.4375 0 -2.546875 0.46875q-1.09375 0.46875 -1.84375 1.359375q-0.734375 0.890625 -1.125 2.171875q-0.375 1.28125 -0.375 2.890625q0 1.515625 0.3125 2.78125q0.328125 1.265625 1.03125 2.1875q0.703125 0.90625 1.8125 1.421875q1.109375 0.5 2.6875 0.5q0.515625 0 0.9375 -0.03125q0.4375 -0.03125 0.796875 -0.078125q0.359375 -0.046875 0.671875 -0.109375q0.328125 -0.0625 0.640625 -0.125l0 -5.109375l-3.5 0l0 -1.921875z" fill-rule="nonzero"/><path fill="#000000" fill-opacity="0.0" d="m494.57043 43.735973l-27.748047 27.748028" fill-rule="evenodd"/><path stroke="#000000" stroke-width="2.0" stroke-linejoin="round" stroke-linecap="butt" d="m494.5704 43.735973l-19.262756 19.262749" fill-rule="evenodd"/><path fill="#000000" stroke="#000000" stroke-width="2.0" stroke-linecap="butt" d="m472.97177 60.662823l-4.0819397 8.753742l8.753723 -4.0819397z" fill-rule="evenodd"/><path fill="#000000" fill-opacity="0.0" d="m518.57043 155.73598l-17.88977 21.92125" fill-rule="evenodd"/><path stroke="#000000" stroke-width="2.0" stroke-linejoin="round" stroke-linecap="butt" d="m518.57043 155.73598l-10.302582 12.624252" fill-rule="evenodd"/><path fill="#000000" stroke="#000000" stroke-width="2.0" stroke-linecap="butt" d="m505.7085 166.27156l-3.1792297 9.120453l8.297943 -4.943115z" fill-rule="evenodd"/><path fill="#000000" fill-opacity="0.0" d="m522.8102 43.735973l27.747986 27.748028" fill-rule="evenodd"/><path stroke="#000000" stroke-width="2.0" stroke-linejoin="round" stroke-linecap="butt" d="m522.8102 43.735973l19.262756 19.262749" fill-rule="evenodd"/><path fill="#000000" stroke="#000000" stroke-width="2.0" stroke-linecap="butt" d="m539.737 65.334625l8.753723 4.0819397l-4.081909 -8.753742z" fill-rule="evenodd"/><path fill="#000000" fill-opacity="0.0" d="m550.57043 99.73597l-17.88977 21.921265" fill-rule="evenodd"/><path stroke="#000000" stroke-width="2.0" stroke-linejoin="round" stroke-linecap="butt" d="m550.57043 99.73598l-10.302612 12.62426" fill-rule="evenodd"/><path fill="#000000" stroke="#000000" stroke-width="2.0" stroke-linecap="butt" d="m537.7085 110.27156l-3.1791992 9.120453l8.297913 -4.9431076z" fill-rule="evenodd"/><path fill="#000000" fill-opacity="0.0" d="m578.8102 99.73597l17.88971 21.921265" fill-rule="evenodd"/><path stroke="#000000" stroke-width="2.0" stroke-linejoin="round" stroke-linecap="butt" d="m578.8102 99.73598l10.302551 12.62426" fill-rule="evenodd"/><path fill="#000000" stroke="#000000" stroke-width="2.0" stroke-linecap="butt" d="m586.55334 114.448906l8.297974 4.9431076l-3.1792603 -9.120453z" fill-rule="evenodd"/><path fill="#000000" fill-opacity="0.0" d="m768.7218 29.616108c0 -11.028301 8.940186 -19.968504 19.968506 -19.968504c5.2959595 0 10.375 2.103818 14.119873 5.8486395c3.744812 3.7448206 5.848633 8.823888 5.848633 14.119864c0 11.028301 -8.940247 19.968502 -19.968506 19.968502c-11.02832 0 -19.968506 -8.940201 -19.968506 -19.968502z" fill-rule="evenodd"/><path stroke="#000000" stroke-width="2.0" stroke-linejoin="round" stroke-linecap="butt" d="m768.7218 29.616108c0 -11.028301 8.940186 -19.968504 19.968506 -19.968504c5.2959595 0 10.375 2.103818 14.119873 5.8486395c3.744812 3.7448206 5.848633 8.823888 5.848633 14.119864c0 11.028301 -8.940247 19.968502 -19.968506 19.968502c-11.02832 0 -19.968506 -8.940201 -19.968506 -19.968502z" fill-rule="evenodd"/><path fill="#000000" d="m795.43445 29.421732q0 2.171875 -0.5625 3.812502q-0.5625 1.625 -1.625 2.71875q-1.0625 1.09375 -2.625 1.65625q-1.546875 0.546875 -3.515625 0.546875l-4.296875 0l0 -17.140627l4.78125 0q1.78125 0 3.234375 0.546875q1.453125 0.53125 2.46875 1.59375q1.03125 1.0625 1.578125 2.640625q0.5625 1.5625 0.5625 3.625zm-2.3125 0.078125q0 -1.71875 -0.390625 -2.96875q-0.375 -1.25 -1.125 -2.046875q-0.734375 -0.8125 -1.8125 -1.203125q-1.078125 -0.390625 -2.4375 -0.390625l-2.359375 0l0 13.390627l1.890625 0q3.09375 0 4.65625 -1.703125q1.578125 -1.71875 1.578125 -5.078127z" fill-rule="nonzero"/><path fill="#000000" fill-opacity="0.0" d="m712.7218 85.616104c0 -11.028297 8.940186 -19.968498 19.968506 -19.968498c5.2959595 0 10.375 2.1038132 14.119873 5.8486404c3.744812 3.7448196 5.848633 8.823883 5.848633 14.119858c0 11.028305 -8.940247 19.968506 -19.968506 19.968506c-11.02832 0 -19.968506 -8.940201 -19.968506 -19.968506z" fill-rule="evenodd"/><path stroke="#000000" stroke-width="2.0" stroke-linejoin="round" stroke-linecap="butt" d="m712.7218 85.616104c0 -11.028297 8.940186 -19.968498 19.968506 -19.968498c5.2959595 0 10.375 2.1038132 14.119873 5.8486404c3.744812 3.7448196 5.848633 8.823883 5.848633 14.119858c0 11.028305 -8.940247 19.968506 -19.968506 19.968506c-11.02832 0 -19.968506 -8.940201 -19.968506 -19.968506z" fill-rule="evenodd"/><path fill="#000000" d="m727.5653 77.01548l4.6875 0q1.5 0 2.640625 0.234375q1.140625 0.234375 1.90625 0.75q0.765625 0.5 1.15625 1.328125q0.390625 0.828125 0.390625 2.03125q0 0.71875 -0.234375 1.359375q-0.234375 0.625 -0.671875 1.109375q-0.421875 0.484375 -1.0625 0.8125q-0.640625 0.3125 -1.453125 0.421875l0 0.109375q0.8125 0.140625 1.515625 0.40625q0.71875 0.265625 1.234375 0.734375q0.53125 0.453125 0.828125 1.15625q0.3125 0.703125 0.3125 1.71875q0 1.171875 -0.375 2.09375q-0.375 0.921875 -1.109375 1.5625q-0.71875 0.625 -1.75 0.96875q-1.03125 0.34375 -2.328125 0.34375l-5.6875 0l0 -17.140625zm2.1875 7.265625l2.859375 0q0.984375 0 1.640625 -0.171875q0.671875 -0.171875 1.078125 -0.515625q0.421875 -0.34375 0.59375 -0.859375q0.1875 -0.53125 0.1875 -1.21875q0 -1.40625 -0.90625 -2.015625q-0.890625 -0.609375 -2.84375 -0.609375l-2.609375 0l0 5.390625zm0 1.828125l0 6.1875l3.109375 0q1.03125 0 1.734375 -0.234375q0.703125 -0.234375 1.125 -0.65625q0.421875 -0.421875 0.609375 -1.0q0.1875 -0.59375 0.1875 -1.3125q0 -0.65625 -0.1875 -1.203125q-0.1875 -0.5625 -0.640625 -0.953125q-0.4375 -0.390625 -1.171875 -0.609375q-0.71875 -0.21875 -1.796875 -0.21875l-2.96875 0z" fill-rule="nonzero"/><path fill="#000000" fill-opacity="0.0" d="m824.7218 85.616104c0 -11.028297 8.940186 -19.968498 19.968506 -19.968498c5.2959595 0 10.375 2.1038132 14.119873 5.8486404c3.744812 3.7448196 5.848633 8.823883 5.848633 14.119858c0 11.028305 -8.940247 19.968506 -19.968506 19.968506c-11.02832 0 -19.968506 -8.940201 -19.968506 -19.968506z" fill-rule="evenodd"/><path stroke="#000000" stroke-width="2.0" stroke-linejoin="round" stroke-linecap="butt" d="m824.7218 85.616104c0 -11.028297 8.940186 -19.968498 19.968506 -19.968498c5.2959595 0 10.375 2.1038132 14.119873 5.8486404c3.744812 3.7448196 5.848633 8.823883 5.848633 14.119858c0 11.028305 -8.940247 19.968506 -19.968506 19.968506c-11.02832 0 -19.968506 -8.940201 -19.968506 -19.968506z" fill-rule="evenodd"/><path fill="#000000" d="m843.3114 94.156105l-2.1875 0l0 -17.140625l8.90625 0l0 1.921875l-6.71875 0l0 6.046875l6.265625 0l0 1.921875l-6.265625 0l0 7.25z" fill-rule="nonzero"/><path fill="#000000" fill-opacity="0.0" d="m792.7218 141.6161c0 -11.02829 8.940186 -19.968498 19.968506 -19.968498c5.2959595 0 10.375 2.1038132 14.119873 5.8486404c3.744812 3.744812 5.848633 8.823883 5.848633 14.119858c0 11.028305 -8.940247 19.968506 -19.968506 19.968506c-11.02832 0 -19.968506 -8.940201 -19.968506 -19.968506z" fill-rule="evenodd"/><path stroke="#000000" stroke-width="2.0" stroke-linejoin="round" stroke-linecap="butt" d="m792.7218 141.6161c0 -11.02829 8.940186 -19.968498 19.968506 -19.968498c5.2959595 0 10.375 2.1038132 14.119873 5.8486404c3.744812 3.744812 5.848633 8.823883 5.848633 14.119858c0 11.028305 -8.940247 19.968506 -19.968506 19.968506c-11.02832 0 -19.968506 -8.940201 -19.968506 -19.968506z" fill-rule="evenodd"/><path fill="#000000" d="m817.5907 150.15611l-8.90625 0l0 -17.140625l8.90625 0l0 1.921875l-6.71875 0l0 5.296875l6.265625 0l0 1.90625l-6.265625 0l0 6.09375l6.71875 0l0 1.921875z" fill-rule="nonzero"/><path fill="#000000" fill-opacity="0.0" d="m856.7218 141.6161c0 -11.02829 8.940186 -19.968498 19.968506 -19.968498c5.2959595 0 10.375 2.1038132 14.119873 5.8486404c3.744812 3.744812 5.848633 8.823883 5.848633 14.119858c0 11.028305 -8.940247 19.968506 -19.968506 19.968506c-11.02832 0 -19.968506 -8.940201 -19.968506 -19.968506z" fill-rule="evenodd"/><path stroke="#000000" stroke-width="2.0" stroke-linejoin="round" stroke-linecap="butt" d="m856.7218 141.6161c0 -11.02829 8.940186 -19.968498 19.968506 -19.968498c5.2959595 0 10.375 2.1038132 14.119873 5.8486404c3.744812 3.744812 5.848633 8.823883 5.848633 14.119858c0 11.028305 -8.940247 19.968506 -19.968506 19.968506c-11.02832 0 -19.968506 -8.940201 -19.968506 -19.968506z" fill-rule="evenodd"/><path fill="#000000" d="m877.5829 141.10924l5.671875 0l0 8.40625q-0.65625 0.203125 -1.3125 0.375q-0.65625 0.15625 -1.34375 0.265625q-0.6875 0.125 -1.453125 0.171875q-0.765625 0.0625 -1.640625 0.0625q-1.84375 0 -3.265625 -0.609375q-1.40625 -0.625 -2.390625 -1.765625q-0.96875 -1.140625 -1.46875 -2.765625q-0.5 -1.640625 -0.5 -3.6875q0 -2.015625 0.546875 -3.640625q0.5625 -1.625 1.625 -2.765625q1.078125 -1.15625 2.640625 -1.765625q1.5625 -0.609375 3.5625 -0.609375q1.296875 0 2.484375 0.265625q1.203125 0.25 2.234375 0.734375l-0.84375 1.90625q-0.421875 -0.203125 -0.90625 -0.375q-0.484375 -0.1875 -1.0 -0.3125q-0.515625 -0.140625 -1.0625 -0.21875q-0.546875 -0.078125 -1.078125 -0.078125q-1.4375 0 -2.546875 0.46875q-1.09375 0.46875 -1.84375 1.359375q-0.734375 0.890625 -1.125 2.171875q-0.375 1.28125 -0.375 2.890625q0 1.515625 0.3125 2.78125q0.328125 1.265625 1.03125 2.1875q0.703125 0.90625 1.8125 1.421875q1.109375 0.5 2.6875 0.5q0.515625 0 0.9375 -0.03125q0.4375 -0.03125 0.796875 -0.078125q0.359375 -0.046875 0.671875 -0.109375q0.328125 -0.0625 0.640625 -0.125l0 -5.109375l-3.5 0l0 -1.921875z" fill-rule="nonzero"/><path fill="#000000" fill-opacity="0.0" d="m680.7218 141.6161c0 -11.02829 8.940186 -19.968498 19.968506 -19.968498c5.2959595 0 10.375 2.1038132 14.119873 5.8486404c3.744812 3.744812 5.848633 8.823883 5.848633 14.119858c0 11.028305 -8.940247 19.968506 -19.968506 19.968506c-11.02832 0 -19.968506 -8.940201 -19.968506 -19.968506z" fill-rule="evenodd"/><path stroke="#000000" stroke-width="2.0" stroke-linejoin="round" stroke-linecap="butt" d="m680.7218 141.6161c0 -11.02829 8.940186 -19.968498 19.968506 -19.968498c5.2959595 0 10.375 2.1038132 14.119873 5.8486404c3.744812 3.744812 5.848633 8.823883 5.848633 14.119858c0 11.028305 -8.940247 19.968506 -19.968506 19.968506c-11.02832 0 -19.968506 -8.940201 -19.968506 -19.968506z" fill-rule="evenodd"/><path fill="#000000" d="m705.75476 150.15611l-1.875 -5.3125l-6.375 0l-1.90625 5.3125l-2.203125 0l6.296875 -17.203125l1.984375 0l6.3125 17.203125l-2.234375 0zm-2.5625 -7.25l-1.734375 -4.96875q-0.0625 -0.203125 -0.171875 -0.5q-0.09375 -0.3125 -0.203125 -0.65625q-0.109375 -0.359375 -0.21875 -0.734375q-0.09375 -0.390625 -0.1875 -0.75q-0.078125 0.359375 -0.1875 0.75q-0.109375 0.390625 -0.21875 0.75q-0.09375 0.34375 -0.203125 0.65625q-0.09375 0.296875 -0.171875 0.484375l-1.6875 4.96875l4.984375 0z" fill-rule="nonzero"/><path fill="#000000" fill-opacity="0.0" d="m774.57043 43.735973l-27.748047 27.748028" fill-rule="evenodd"/><path stroke="#000000" stroke-width="2.0" stroke-linejoin="round" stroke-linecap="butt" d="m774.57043 43.735973l-19.262695 19.262749" fill-rule="evenodd"/><path fill="#000000" stroke="#000000" stroke-width="2.0" stroke-linecap="butt" d="m752.9718 60.662823l-4.081909 8.753742l8.753723 -4.0819397z" fill-rule="evenodd"/><path fill="#000000" fill-opacity="0.0" d="m802.8102 43.735973l27.747986 27.748028" fill-rule="evenodd"/><path stroke="#000000" stroke-width="2.0" stroke-linejoin="round" stroke-linecap="butt" d="m802.8101 43.735973l19.262695 19.262749" fill-rule="evenodd"/><path fill="#000000" stroke="#000000" stroke-width="2.0" stroke-linecap="butt" d="m819.737 65.334625l8.753723 4.0819397l-4.08197 -8.753742z" fill-rule="evenodd"/><path fill="#000000" fill-opacity="0.0" d="m830.57043 99.73597l-17.88977 21.921265" fill-rule="evenodd"/><path stroke="#000000" stroke-width="2.0" stroke-linejoin="round" stroke-linecap="butt" d="m830.57043 99.73598l-10.302551 12.62426" fill-rule="evenodd"/><path fill="#000000" stroke="#000000" stroke-width="2.0" stroke-linecap="butt" d="m817.70856 110.27156l-3.1792603 9.120453l8.297974 -4.9431076z" fill-rule="evenodd"/><path fill="#000000" fill-opacity="0.0" d="m858.8102 99.73597l17.88971 21.921265" fill-rule="evenodd"/><path stroke="#000000" stroke-width="2.0" stroke-linejoin="round" stroke-linecap="butt" d="m858.8101 99.73598l10.302551 12.62426" fill-rule="evenodd"/><path fill="#000000" stroke="#000000" stroke-width="2.0" stroke-linecap="butt" d="m866.55334 114.448906l8.297913 4.9431076l-3.1791992 -9.120453z" fill-rule="evenodd"/><path fill="#000000" fill-opacity="0.0" d="m718.57043 99.73597l-17.88977 21.921265" fill-rule="evenodd"/><path stroke="#000000" stroke-width="2.0" stroke-linejoin="round" stroke-linecap="butt" d="m718.57043 99.73598l-10.302551 12.62426" fill-rule="evenodd"/><path fill="#000000" stroke="#000000" stroke-width="2.0" stroke-linecap="butt" d="m705.70856 110.27156l-3.1792603 9.120453l8.297974 -4.9431076z" fill-rule="evenodd"/><path fill="#efefef" d="m269.8692 75.63973l76.14172 0l0 -10.653542l21.307098 21.307083l-21.307098 21.307083l0 -10.653542l-76.14172 0z" fill-rule="evenodd"/><path stroke="#000000" stroke-width="1.0" stroke-linejoin="round" stroke-linecap="butt" d="m269.8692 75.63973l76.14172 0l0 -10.653542l21.307098 21.307083l-21.307098 21.307083l0 -10.653542l-76.14172 0z" fill-rule="evenodd"/><path fill="#000000" d="m280.92798 80.15077q0.359375 -0.046875 0.796875 -0.078125q0.4375 -0.03125 0.90625 -0.03125q0.484375 -0.015625 0.9375 -0.015625q0.46875 -0.015625 0.859375 -0.015625q1.5625 0 2.703125 0.484375q1.15625 0.484375 1.890625 1.359375q0.75 0.859375 1.109375 2.078125q0.375 1.203125 0.375 2.65625q0 1.328125 -0.34375 2.546875q-0.34375 1.21875 -1.09375 2.171875q-0.75 0.9375 -1.953125 1.515625q-1.1875 0.5625 -2.875 0.5625q-0.296875 0 -0.78125 -0.015625q-0.46875 0 -0.984375 -0.03125q-0.5 -0.03125 -0.9375 -0.046875q-0.421875 -0.015625 -0.609375 -0.0625l0 -13.078125zm3.53125 1.234375q-0.234375 0 -0.53125 0q-0.28125 0 -0.5625 0.015625q-0.28125 0.015625 -0.515625 0.046875q-0.234375 0.015625 -0.359375 0.03125l0 10.453125q0.09375 0.015625 0.34375 0.03125q0.265625 0 0.546875 0.015625q0.28125 0 0.53125 0.015625q0.265625 0 0.359375 0q1.3125 0 2.1875 -0.4375q0.890625 -0.453125 1.421875 -1.203125q0.53125 -0.765625 0.75 -1.734375q0.234375 -0.984375 0.234375 -2.03125q0 -0.90625 -0.203125 -1.828125q-0.203125 -0.9375 -0.71875 -1.671875q-0.5 -0.75 -1.34375 -1.21875q-0.84375 -0.484375 -2.140625 -0.484375zm15.341797 11.078125q-0.5625 0.453125 -1.421875 0.71875q-0.84375 0.25 -1.796875 0.25q-1.0625 0 -1.84375 -0.34375q-0.78125 -0.34375 -1.28125 -0.984375q-0.5 -0.640625 -0.75 -1.53125q-0.234375 -0.90625 -0.234375 -2.03125q0 -2.375 1.0625 -3.625q1.0625 -1.25 3.03125 -1.25q0.640625 0 1.265625 0.140625q0.640625 0.140625 1.140625 0.53125q0.5 0.390625 0.8125 1.109375q0.328125 0.71875 0.328125 1.890625q0 0.609375 -0.109375 1.359375l-5.984375 0q0 0.828125 0.15625 1.46875q0.171875 0.625 0.515625 1.0625q0.359375 0.4375 0.921875 0.671875q0.578125 0.234375 1.40625 0.234375q0.625 0 1.265625 -0.21875q0.640625 -0.234375 0.953125 -0.53125l0.5625 1.078125zm-3.21875 -7.5q-1.09375 0 -1.765625 0.578125q-0.65625 0.578125 -0.78125 1.984375l4.625 0q0 -1.421875 -0.546875 -1.984375q-0.53125 -0.578125 -1.53125 -0.578125zm7.5398865 5.953125q0 0.65625 0.21875 0.9375q0.234375 0.28125 0.640625 0.28125q0.25 0 0.515625 -0.03125q0.28125 -0.046875 0.640625 -0.171875l0.171875 1.171875q-0.296875 0.140625 -0.828125 0.234375q-0.53125 0.09375 -0.921875 0.09375q-0.84375 0 -1.390625 -0.46875q-0.53125 -0.484375 -0.53125 -1.609375l0 -11.203125l1.484375 0l0 10.765625zm10.603882 1.546875q-0.5625 0.453125 -1.421875 0.71875q-0.84375 0.25 -1.796875 0.25q-1.0625 0 -1.84375 -0.34375q-0.78125 -0.34375 -1.28125 -0.984375q-0.5 -0.640625 -0.75 -1.53125q-0.234375 -0.90625 -0.234375 -2.03125q0 -2.375 1.0625 -3.625q1.0625 -1.25 3.03125 -1.25q0.640625 0 1.265625 0.140625q0.640625 0.140625 1.140625 0.53125q0.5 0.390625 0.8125 1.109375q0.328125 0.71875 0.328125 1.890625q0 0.609375 -0.109375 1.359375l-5.984375 0q0 0.828125 0.15625 1.46875q0.171875 0.625 0.515625 1.0625q0.359375 0.4375 0.921875 0.671875q0.578125 0.234375 1.40625 0.234375q0.625 0 1.265625 -0.21875q0.640625 -0.234375 0.953125 -0.53125l0.5625 1.078125zm-3.21875 -7.5q-1.09375 0 -1.765625 0.578125q-0.65625 0.578125 -0.78125 1.984375l4.625 0q0 -1.421875 -0.546875 -1.984375q-0.53125 -0.578125 -1.53125 -0.578125zm4.649231 -1.078125l1.453125 0l0 -1.84375l1.5 -0.4375l0 2.28125l2.53125 0l0 1.3125l-2.53125 0l0 5.15625q0 0.96875 0.234375 1.375q0.25 0.40625 0.828125 0.40625q0.484375 0 0.8125 -0.09375q0.34375 -0.109375 0.75 -0.28125l0.34375 1.140625q-0.515625 0.234375 -1.109375 0.375q-0.59375 0.15625 -1.28125 0.15625q-1.140625 0 -1.609375 -0.640625q-0.46875 -0.640625 -0.46875 -2.15625l0 -5.4375l-1.453125 0l0 -1.3125zm14.166016 8.578125q-0.5625 0.453125 -1.421875 0.71875q-0.84375 0.25 -1.796875 0.25q-1.0625 0 -1.84375 -0.34375q-0.78125 -0.34375 -1.28125 -0.984375q-0.5 -0.640625 -0.75 -1.53125q-0.234375 -0.90625 -0.234375 -2.03125q0 -2.375 1.0625 -3.625q1.0625 -1.25 3.03125 -1.25q0.640625 0 1.265625 0.140625q0.640625 0.140625 1.140625 0.53125q0.5 0.390625 0.8125 1.109375q0.328125 0.71875 0.328125 1.890625q0 0.609375 -0.109375 1.359375l-5.984375 0q0 0.828125 0.15625 1.46875q0.171875 0.625 0.515625 1.0625q0.359375 0.4375 0.921875 0.671875q0.578125 0.234375 1.40625 0.234375q0.625 0 1.265625 -0.21875q0.640625 -0.234375 0.953125 -0.53125l0.5625 1.078125zm-3.21875 -7.5q-1.09375 0 -1.765625 0.578125q-0.65625 0.578125 -0.78125 1.984375l4.625 0q0 -1.421875 -0.546875 -1.984375q-0.53125 -0.578125 -1.53125 -0.578125zm19.364838 7.703125q-0.546875 0.4375 -1.40625 0.59375q-0.859375 0.171875 -1.828125 0.171875q-1.1875 0 -2.21875 -0.390625q-1.015625 -0.40625 -1.78125 -1.21875q-0.765625 -0.828125 -1.21875 -2.109375q-0.4375 -1.28125 -0.4375 -3.03125q0 -1.828125 0.484375 -3.09375q0.5 -1.28125 1.3125 -2.09375q0.8125 -0.8125 1.8125 -1.1875q1.015625 -0.375 2.0625 -0.375q1.109375 0 1.8125 0.125q0.71875 0.109375 1.21875 0.328125l-0.359375 1.359375q-0.90625 -0.4375 -2.5625 -0.4375q-0.765625 0 -1.515625 0.28125q-0.734375 0.28125 -1.328125 0.921875q-0.59375 0.625 -0.953125 1.65625q-0.34375 1.03125 -0.34375 2.515625q0 1.34375 0.328125 2.359375q0.34375 1.0 0.921875 1.671875q0.59375 0.671875 1.390625 1.015625q0.796875 0.328125 1.71875 0.328125q0.84375 0 1.46875 -0.171875q0.625 -0.171875 1.0625 -0.421875l0.359375 1.203125z" fill-rule="nonzero"/></g></svg>