<svg version="1.1" viewBox="0.0 0.0 710.9527559055118 244.51706036745406" fill="none" stroke="none" stroke-linecap="square" stroke-miterlimit="10" xmlns:xlink="http://www.w3.org/1999/xlink" xmlns="http://www.w3.org/2000/svg"><clipPath id="p.0"><path d="m0 0l710.95276 0l0 244.51706l-710.95276 0l0 -244.51706z" clip-rule="nonzero"/></clipPath><g clip-path="url(#p.0)"><path fill="#000000" fill-opacity="0.0" d="m0 0l710.95276 0l0 244.51706l-710.95276 0z" fill-rule="evenodd"/><path fill="#000000" fill-opacity="0.0" d="m49.4147 152.37955l648.09454 0" fill-rule="evenodd"/><path stroke="#000000" stroke-width="1.0" stroke-linejoin="round" stroke-linecap="butt" stroke-dasharray="1.0,3.0" d="m49.4147 152.37955l648.09454 0" fill-rule="evenodd"/><path fill="#000000" fill-opacity="0.0" d="m47.588215 191.95403l652.59845 0" fill-rule="evenodd"/><path stroke="#000000" stroke-width="1.0" stroke-linejoin="round" stroke-linecap="butt" stroke-dasharray="1.0,3.0" d="m47.588215 191.95403l652.59845 0" fill-rule="evenodd"/><path fill="#000000" fill-opacity="0.0" d="m47.588215 231.10295l654.5827 0" fill-rule="evenodd"/><path stroke="#000000" stroke-width="1.0" stroke-linejoin="round" stroke-linecap="butt" stroke-dasharray="1.0,3.0" d="m47.588215 231.10295l654.5827 0" fill-rule="evenodd"/><path fill="#f3f3f3" d="m523.6642 231.62605l34.228394 -105.06299l34.228333 105.06299z" fill-rule="evenodd"/><path stroke="#000000" stroke-width="1.0" stroke-linejoin="round" stroke-linecap="butt" stroke-dasharray="4.0,3.0" d="m523.6642 231.62605l34.228394 -105.06299l34.228333 105.06299z" fill-rule="evenodd"/><path fill="#f3f3f3" d="m132.97507 231.62605l34.228348 -105.06299l34.228348 105.06299z" fill-rule="evenodd"/><path stroke="#000000" stroke-width="1.0" stroke-linejoin="round" stroke-linecap="butt" stroke-dasharray="4.0,3.0" d="m132.97507 231.62605l34.228348 -105.06299l34.228348 105.06299z" fill-rule="evenodd"/><path fill="#000000" fill-opacity="0.0" d="m150.1358 28.351776l34.992126 0l0 25.007874l-34.992126 0z" fill-rule="evenodd"/><path fill="#000000" d="m163.10959 40.73134l1.640625 0l0 -1.6875l0.671875 0l0 1.6875l1.640625 0l0 0.671875l-1.640625 0l0 1.671875l-0.671875 0l0 -1.671875l-1.640625 0l0 -0.671875zm8.491959 -1.5625q0 0.5 -0.1875 1.015625q-0.171875 0.515625 -0.46875 1.046875q-0.296875 0.515625 -0.65625 1.015625q-0.359375 0.5 -0.71875 0.9375l-0.46875 0.40625l0 0.03125l0.59375 -0.09375l2.046875 0l0 0.6875l-3.71875 0l0 -0.265625q0.203125 -0.21875 0.484375 -0.53125q0.296875 -0.328125 0.609375 -0.703125q0.3125 -0.390625 0.609375 -0.828125q0.3125 -0.4375 0.5625 -0.875q0.25 -0.453125 0.390625 -0.890625q0.15625 -0.4375 0.15625 -0.828125q0 -0.453125 -0.265625 -0.75q-0.265625 -0.3125 -0.796875 -0.3125q-0.34375 0 -0.6875 0.140625q-0.328125 0.140625 -0.578125 0.328125l-0.3125 -0.53125q0.328125 -0.28125 0.78125 -0.4375q0.453125 -0.15625 0.953125 -0.15625q0.40625 0 0.703125 0.125q0.3125 0.109375 0.53125 0.328125q0.21875 0.203125 0.328125 0.5q0.109375 0.296875 0.109375 0.640625z" fill-rule="nonzero"/><path fill="#000000" fill-opacity="0.0" d="m210.5725 68.351776l34.992126 0l0 25.007874l-34.992126 0z" fill-rule="evenodd"/><path fill="#000000" d="m214.42802 80.73134l1.640625 0l0 -1.6875l0.671875 0l0 1.6875l1.640625 0l0 0.671875l-1.640625 0l0 1.671875l-0.671875 0l0 -1.671875l-1.640625 0l0 -0.671875zm5.3357086 2.796875l1.3125 0l0 -4.515625l0.09375 -0.546875l-0.375 0.4375l-1.03125 0.734375l-0.34375 -0.484375l2.046875 -1.578125l0.34375 0l0 5.953125l1.265625 0l0 0.6875l-3.3125 0l0 -0.6875zm7.0275726 -1.640625q0 -1.1875 0.53125 -1.8125q0.53125 -0.640625 1.515625 -0.640625q0.515625 0 0.90625 0.171875q0.390625 0.171875 0.640625 0.5q0.25 0.328125 0.375 0.78125q0.125 0.453125 0.125 1.0q0 1.1875 -0.53125 1.8125q-0.53125 0.625 -1.515625 0.625q-0.515625 0 -0.90625 -0.171875q-0.390625 -0.171875 -0.640625 -0.484375q-0.25 -0.328125 -0.375 -0.78125q-0.125 -0.453125 -0.125 -1.0zm0.78125 0q0 0.34375 0.0625 0.671875q0.078125 0.328125 0.21875 0.578125q0.15625 0.234375 0.390625 0.390625q0.25 0.140625 0.59375 0.140625q1.265625 0.015625 1.265625 -1.78125q0 -0.375 -0.078125 -0.6875q-0.0625 -0.328125 -0.21875 -0.5625q-0.140625 -0.25 -0.390625 -0.390625q-0.234375 -0.15625 -0.578125 -0.15625q-1.265625 0 -1.265625 1.796875zm6.687378 -1.625q-0.28125 -0.09375 -0.53125 -0.09375q-0.40625 0 -0.640625 0.234375q-0.234375 0.21875 -0.28125 0.546875l0 3.265625l-0.75 0l0 -4.671875l0.515625 0l0.140625 0.578125l0.046875 0q0.171875 -0.3125 0.421875 -0.484375q0.25 -0.171875 0.625 -0.171875q0.28125 0 0.609375 0.078125l-0.15625 0.71875zm3.1465607 0.6875q0 -1.671875 0.546875 -2.515625q0.546875 -0.859375 1.578125 -0.859375q1.140625 0 1.640625 0.84375q0.515625 0.828125 0.515625 2.53125q0 1.6875 -0.546875 2.53125q-0.546875 0.84375 -1.609375 0.84375q-1.109375 0 -1.625 -0.875q-0.5 -0.890625 -0.5 -2.5zm0.765625 0q0 0.609375 0.078125 1.109375q0.078125 0.5 0.25 0.859375q0.171875 0.359375 0.421875 0.5625q0.265625 0.1875 0.609375 0.1875q0.71875 0 1.046875 -0.65625q0.328125 -0.65625 0.328125 -2.0625q0 -0.59375 -0.078125 -1.09375q-0.0625 -0.515625 -0.234375 -0.875q-0.15625 -0.359375 -0.421875 -0.546875q-0.25 -0.203125 -0.640625 -0.203125q-0.6875 0 -1.03125 0.65625q-0.328125 0.65625 -0.328125 2.0625z" fill-rule="nonzero"/><path fill="#000000" fill-opacity="0.0" d="m591.31433 28.351776l34.992126 0l0 25.007874l-34.992126 0z" fill-rule="evenodd"/><path fill="#000000" d="m594.85156 40.95009q0 -1.671875 0.546875 -2.515625q0.546875 -0.859375 1.578125 -0.859375q1.140625 0 1.640625 0.84375q0.515625 0.828125 0.515625 2.53125q0 1.6875 -0.546875 2.53125q-0.546875 0.84375 -1.609375 0.84375q-1.109375 0 -1.625 -0.875q-0.5 -0.890625 -0.5 -2.5zm0.765625 0q0 0.609375 0.078125 1.109375q0.078125 0.5 0.25 0.859375q0.171875 0.359375 0.421875 0.5625q0.265625 0.1875 0.609375 0.1875q0.71875 0 1.046875 -0.65625q0.328125 -0.65625 0.328125 -2.0625q0 -0.59375 -0.078125 -1.09375q-0.0625 -0.515625 -0.234375 -0.875q-0.15625 -0.359375 -0.421875 -0.546875q-0.25 -0.203125 -0.640625 -0.203125q-0.6875 0 -1.03125 0.65625q-0.328125 0.65625 -0.328125 2.0625zm6.855652 0.9375q0 -1.1875 0.53125 -1.8125q0.53125 -0.640625 1.515625 -0.640625q0.515625 0 0.90625 0.171875q0.390625 0.171875 0.640625 0.5q0.25 0.328125 0.375 0.78125q0.125 0.453125 0.125 1.0q0 1.1875 -0.53125 1.8125q-0.53125 0.625 -1.515625 0.625q-0.515625 0 -0.90625 -0.171875q-0.390625 -0.171875 -0.640625 -0.484375q-0.25 -0.328125 -0.375 -0.78125q-0.125 -0.453125 -0.125 -1.0zm0.78125 0q0 0.34375 0.0625 0.671875q0.078125 0.328125 0.21875 0.578125q0.15625 0.234375 0.390625 0.390625q0.25 0.140625 0.59375 0.140625q1.265625 0.015625 1.265625 -1.78125q0 -0.375 -0.078125 -0.6875q-0.0625 -0.328125 -0.21875 -0.5625q-0.140625 -0.25 -0.390625 -0.390625q-0.234375 -0.15625 -0.578125 -0.15625q-1.265625 0 -1.265625 1.796875zm6.687378 -1.625q-0.28125 -0.09375 -0.53125 -0.09375q-0.40625 0 -0.640625 0.234375q-0.234375 0.21875 -0.28125 0.546875l0 3.265625l-0.75 0l0 -4.671875l0.515625 0l0.140625 0.578125l0.046875 0q0.171875 -0.3125 0.421875 -0.484375q0.25 -0.171875 0.625 -0.171875q0.28125 0 0.609375 0.078125l-0.15625 0.71875zm3.0874023 0.921875l3.96875 0l0 0.6875l-3.96875 0l0 -0.6875zm6.062805 2.34375l1.3125 0l0 -4.515625l0.09375 -0.546875l-0.375 0.4375l-1.03125 0.734375l-0.34375 -0.484375l2.046875 -1.578125l0.34375 0l0 5.953125l1.265625 0l0 0.6875l-3.3125 0l0 -0.6875z" fill-rule="nonzero"/><path fill="#000000" fill-opacity="0.0" d="m478.09555 74.20211l34.992157 0l0 25.007881l-34.992157 0z" fill-rule="evenodd"/><path fill="#000000" d="m481.98236 86.80042q0 -1.671875 0.546875 -2.515625q0.546875 -0.859375 1.578125 -0.859375q1.140625 0 1.640625 0.84375q0.515625 0.828125 0.515625 2.53125q0 1.6875 -0.546875 2.53125q-0.546875 0.84375 -1.609375 0.84375q-1.109375 0 -1.625 -0.875q-0.5 -0.890625 -0.5 -2.5zm0.765625 0q0 0.609375 0.078125 1.109375q0.078125 0.5 0.25 0.859375q0.171875 0.359375 0.421875 0.5625q0.265625 0.1875 0.609375 0.1875q0.71875 0 1.046875 -0.65625q0.328125 -0.65625 0.328125 -2.0625q0 -0.59375 -0.078125 -1.09375q-0.0625 -0.515625 -0.234375 -0.875q-0.15625 -0.359375 -0.421875 -0.546875q-0.25 -0.203125 -0.640625 -0.203125q-0.6875 0 -1.03125 0.65625q-0.328125 0.65625 -0.328125 2.0625zm6.8556824 0.9375q0 -1.1875 0.53125 -1.8125q0.53125 -0.640625 1.515625 -0.640625q0.515625 0 0.90625 0.171875q0.390625 0.171875 0.640625 0.5q0.25 0.328125 0.375 0.78125q0.125 0.453125 0.125 1.0q0 1.1875 -0.53125 1.8125q-0.53125 0.625 -1.515625 0.625q-0.515625 0 -0.90625 -0.171875q-0.390625 -0.171875 -0.640625 -0.484375q-0.25 -0.328125 -0.375 -0.78125q-0.125 -0.453125 -0.125 -1.0zm0.78125 0q0 0.34375 0.0625 0.671875q0.078125 0.328125 0.21875 0.578125q0.15625 0.234375 0.390625 0.390625q0.25 0.140625 0.59375 0.140625q1.265625 0.015625 1.265625 -1.78125q0 -0.375 -0.078125 -0.6875q-0.0625 -0.328125 -0.21875 -0.5625q-0.140625 -0.25 -0.390625 -0.390625q-0.234375 -0.15625 -0.578125 -0.15625q-1.265625 0 -1.265625 1.796875zm6.687378 -1.625q-0.28125 -0.09375 -0.53125 -0.09375q-0.40625 0 -0.640625 0.234375q-0.234375 0.21875 -0.28125 0.546875l0 3.265625l-0.75 0l0 -4.671875l0.515625 0l0.140625 0.578125l0.046875 0q0.171875 -0.3125 0.421875 -0.484375q0.25 -0.171875 0.625 -0.171875q0.28125 0 0.609375 0.078125l-0.15625 0.71875zm3.115326 0.46875l1.640625 0l0 -1.6875l0.671875 0l0 1.6875l1.640625 0l0 0.671875l-1.640625 0l0 1.671875l-0.671875 0l0 -1.671875l-1.640625 0l0 -0.671875zm5.3356934 2.796875l1.3125 0l0 -4.515625l0.09375 -0.546875l-0.375 0.4375l-1.03125 0.734375l-0.34375 -0.484375l2.046875 -1.578125l0.34375 0l0 5.953125l1.265625 0l0 0.6875l-3.3125 0l0 -0.6875z" fill-rule="nonzero"/><path fill="#ffffff" d="m134.70706 54.70109c0 -8.175552 6.627594 -14.80315 14.803146 -14.80315c3.9260406 0 7.691269 1.5596161 10.467407 4.335743c2.776123 2.7761307 4.335739 6.5413666 4.335739 10.467407c0 8.175556 -6.627594 14.80315 -14.803146 14.80315c-8.175552 0 -14.803146 -6.627594 -14.803146 -14.80315z" fill-rule="evenodd"/><path stroke="#000000" stroke-width="0.7427821522309711" stroke-linejoin="round" stroke-linecap="butt" d="m134.70706 54.70109c0 -8.175552 6.627594 -14.80315 14.803146 -14.80315c3.9260406 0 7.691269 1.5596161 10.467407 4.335743c2.776123 2.7761307 4.335739 6.5413666 4.335739 10.467407c0 8.175556 -6.627594 14.80315 -14.803146 14.80315c-8.175552 0 -14.803146 -6.627594 -14.803146 -14.80315z" fill-rule="evenodd"/><path fill="#000000" d="m148.81546 54.56805l-2.9375 -4.75l1.375 0l1.96875 3.265625l0.34375 0.796875l0.328125 -0.796875l2.078125 -3.265625l1.265625 0l-3.03125 4.65625l3.171875 5.015625l-1.34375 0l-2.171875 -3.46875l-0.375 -0.828125l-0.359375 0.828125l-2.25 3.46875l-1.28125 0l3.21875 -4.921875z" fill-rule="nonzero"/><path fill="#ffffff" d="m188.0342 96.23069c0 -8.175552 6.627594 -14.803146 14.803146 -14.803146c3.9260406 0 7.691284 1.5596085 10.467407 4.335739c2.7761383 2.7761307 4.335739 6.5413666 4.335739 10.467407c0 8.175552 -6.627594 14.803154 -14.803146 14.803154c-8.175552 0 -14.803146 -6.6276016 -14.803146 -14.803154z" fill-rule="evenodd"/><path stroke="#000000" stroke-width="0.7427821522309711" stroke-linejoin="round" stroke-linecap="butt" d="m188.0342 96.23069c0 -8.175552 6.627594 -14.803146 14.803146 -14.803146c3.9260406 0 7.691284 1.5596085 10.467407 4.335739c2.7761383 2.7761307 4.335739 6.5413666 4.335739 10.467407c0 8.175552 -6.627594 14.803154 -14.803146 14.803154c-8.175552 0 -14.803146 -6.6276016 -14.803146 -14.803154z" fill-rule="evenodd"/><path fill="#000000" d="m202.29182 97.17577l-3.203125 -5.828125l1.34375 0l2.265625 4.21875l0.234375 0.84375l0.015625 0l0.25 -0.859375l2.171875 -4.203125l1.234375 0l-3.171875 5.8125l0 3.859375l-1.140625 0l0 -3.84375z" fill-rule="nonzero"/><path fill="#000000" fill-opacity="0.0" d="m139.0428 65.1685l-36.755905 21.858261" fill-rule="evenodd"/><path stroke="#000000" stroke-width="0.7427821522309711" stroke-linejoin="round" stroke-linecap="butt" d="m139.0428 65.1685l-32.925377 19.5803" fill-rule="evenodd"/><path fill="#000000" stroke="#000000" stroke-width="0.7427821522309711" stroke-linecap="butt" d="m105.49032 83.6943l-2.2701187 2.777443l3.5243225 -0.66843414z" fill-rule="evenodd"/><path fill="#000000" fill-opacity="0.0" d="m159.97762 65.1685l32.377945 20.59842" fill-rule="evenodd"/><path stroke="#000000" stroke-width="0.7427821522309711" stroke-linejoin="round" stroke-linecap="butt" d="m159.97762 65.1685l28.617706 18.206207" fill-rule="evenodd"/><path fill="#000000" stroke="#000000" stroke-width="0.7427821522309711" stroke-linecap="butt" d="m187.93677 84.40987l3.5026093 0.7741928l-2.185501 -2.8444977z" fill-rule="evenodd"/><path fill="#000000" fill-opacity="0.0" d="m213.30475 106.6981l27.275589 19.874016" fill-rule="evenodd"/><path stroke="#000000" stroke-width="0.7427821522309711" stroke-linejoin="round" stroke-linecap="butt" d="m213.30475 106.698105l23.673645 17.249496" fill-rule="evenodd"/><path fill="#000000" stroke="#000000" stroke-width="0.7427821522309711" stroke-linecap="butt" d="m236.25589 124.93918l3.4468384 0.99347687l-2.001831 -2.9766312z" fill-rule="evenodd"/><path fill="#000000" fill-opacity="0.0" d="m149.50919 20.2481l0 19.653545" fill-rule="evenodd"/><path stroke="#000000" stroke-width="0.7427821522309711" stroke-linejoin="round" stroke-linecap="butt" d="m149.50919 20.2481l0 15.19685" fill-rule="evenodd"/><path fill="#000000" stroke="#000000" stroke-width="0.7427821522309711" stroke-linecap="butt" d="m148.2823 35.44495l1.2268829 3.370819l1.2268829 -3.370819z" fill-rule="evenodd"/><path fill="#ffffff" d="m72.95801 152.55388l29.333328 -65.53544l29.333328 65.53544z" fill-rule="evenodd"/><path stroke="#000000" stroke-width="1.0" stroke-linejoin="round" stroke-linecap="butt" d="m72.95801 152.55388l29.333328 -65.53544l29.333328 65.53544z" fill-rule="evenodd"/><path fill="#000000" d="m97.75444 134.31377l1.046875 0l0 -1.328125l1.0625 -0.3125l0 1.640625l1.8125 0l0 0.921875l-1.8125 0l0 3.6875q0 0.703125 0.171875 1.0q0.171875 0.28125 0.59375 0.28125q0.34375 0 0.578125 -0.078125q0.25 -0.078125 0.53125 -0.203125l0.25 0.8125q-0.359375 0.1875 -0.796875 0.28125q-0.421875 0.109375 -0.90625 0.109375q-0.8125 0 -1.15625 -0.453125q-0.328125 -0.46875 -0.328125 -1.546875l0 -3.890625l-1.046875 0l0 -0.921875z" fill-rule="nonzero"/><path fill="#000000" d="m103.08516 145.31377l1.25 0l0 -4.296875l0.09375 -0.515625l-0.359375 0.40625l-0.984375 0.703125l-0.328125 -0.453125l1.953125 -1.5l0.3125 0l0 5.65625l1.21875 0l0 0.65625l-3.15625 0l0 -0.65625z" fill-rule="nonzero"/><path fill="#000000" fill-opacity="0.0" d="m192.36993 106.6981l-25.16536 19.874016" fill-rule="evenodd"/><path stroke="#000000" stroke-width="0.7427821522309711" stroke-linejoin="round" stroke-linecap="butt" d="m192.36993 106.698105l-21.667831 17.111885" fill-rule="evenodd"/><path fill="#000000" stroke="#000000" stroke-width="0.7427821522309711" stroke-linecap="butt" d="m169.94173 122.84715l-1.884964 3.0519714l3.4057312 -1.1263046z" fill-rule="evenodd"/><path fill="#ffffff" d="m137.87125 192.09726l29.333328 -65.53544l29.333344 65.53544z" fill-rule="evenodd"/><path stroke="#000000" stroke-width="1.0" stroke-linejoin="round" stroke-linecap="butt" d="m137.87125 192.09726l29.333328 -65.53544l29.333344 65.53544z" fill-rule="evenodd"/><path fill="#000000" d="m162.66768 173.85715l1.046875 0l0 -1.328125l1.0625 -0.3125l0 1.640625l1.8125 0l0 0.921875l-1.8125 0l0 3.6875q0 0.703125 0.171875 1.0q0.171875 0.28125 0.59375 0.28125q0.34375 0 0.578125 -0.078125q0.25 -0.078125 0.53125 -0.203125l0.25 0.8125q-0.359375 0.1875 -0.796875 0.28125q-0.421875 0.109375 -0.90625 0.109375q-0.8125 0 -1.15625 -0.453125q-0.328125 -0.46875 -0.328125 -1.546875l0 -3.890625l-1.046875 0l0 -0.921875z" fill-rule="nonzero"/><path fill="#000000" d="m170.9984 180.71652q0 0.46875 -0.171875 0.96875q-0.171875 0.484375 -0.453125 0.984375q-0.28125 0.484375 -0.625 0.96875q-0.34375 0.46875 -0.6875 0.90625l-0.4375 0.375l0 0.03125l0.5625 -0.09375l1.9375 0l0 0.65625l-3.53125 0l0 -0.25q0.203125 -0.21875 0.46875 -0.515625q0.28125 -0.296875 0.578125 -0.65625q0.296875 -0.375 0.578125 -0.78125q0.296875 -0.421875 0.53125 -0.84375q0.234375 -0.4375 0.375 -0.84375q0.140625 -0.421875 0.140625 -0.796875q0 -0.4375 -0.25 -0.71875q-0.25 -0.296875 -0.75 -0.296875q-0.34375 0 -0.65625 0.140625q-0.3125 0.140625 -0.546875 0.3125l-0.296875 -0.5q0.3125 -0.265625 0.734375 -0.40625q0.421875 -0.15625 0.921875 -0.15625q0.375 0 0.671875 0.109375q0.296875 0.109375 0.5 0.3125q0.203125 0.203125 0.296875 0.484375q0.109375 0.28125 0.109375 0.609375z" fill-rule="nonzero"/><path fill="#ffffff" d="m206.34645 231.62474l34.228348 -105.06299l34.228363 105.06299z" fill-rule="evenodd"/><path stroke="#000000" stroke-width="1.0" stroke-linejoin="round" stroke-linecap="butt" d="m206.34645 231.62474l34.228348 -105.06299l34.228363 105.06299z" fill-rule="evenodd"/><path fill="#000000" d="m236.0379 203.50275l1.046875 0l0 -1.328125l1.0625 -0.3125l0 1.640625l1.8125 0l0 0.921875l-1.8125 0l0 3.6875q0 0.703125 0.171875 1.0q0.171875 0.28125 0.59375 0.28125q0.34375 0 0.578125 -0.078125q0.25 -0.078125 0.53125 -0.203125l0.25 0.8125q-0.359375 0.1875 -0.796875 0.28125q-0.421875 0.109375 -0.90625 0.109375q-0.8125 0 -1.15625 -0.453125q-0.328125 -0.46875 -0.328125 -1.546875l0 -3.890625l-1.046875 0l0 -0.921875z" fill-rule="nonzero"/><path fill="#000000" d="m242.49362 214.64337q0.296875 0 0.546875 -0.078125q0.265625 -0.09375 0.453125 -0.265625q0.1875 -0.171875 0.296875 -0.40625q0.109375 -0.25 0.109375 -0.53125q0 -0.625 -0.375 -0.921875q-0.359375 -0.3125 -1.015625 -0.3125l-0.65625 0l0 -0.25l1.28125 -1.96875l0.40625 -0.390625l-0.578125 0.078125l-1.75 0l0 -0.65625l3.15625 0l0 0.265625l-1.40625 2.125l-0.3125 0.25l0 0.015625l0.296875 -0.0625q0.359375 0.015625 0.65625 0.140625q0.3125 0.109375 0.53125 0.34375q0.21875 0.21875 0.34375 0.53125q0.125 0.3125 0.125 0.71875q0 0.484375 -0.171875 0.859375q-0.15625 0.359375 -0.453125 0.625q-0.28125 0.25 -0.671875 0.390625q-0.390625 0.125 -0.828125 0.125q-0.40625 0 -0.734375 -0.0625q-0.3125 -0.0625 -0.546875 -0.15625l0.1875 -0.640625q0.203125 0.109375 0.484375 0.171875q0.28125 0.0625 0.625 0.0625z" fill-rule="nonzero"/><path fill="#000000" fill-opacity="0.0" d="m7.9028873 139.87561l41.51181 0l0 25.007874l-41.51181 0z" fill-rule="evenodd"/><path fill="#000000" d="m26.415216 147.97643l0 -0.3125q0.203125 -0.078125 0.4375 -0.15625q0.25 -0.09375 0.515625 -0.171875q0.265625 -0.078125 0.515625 -0.125q0.265625 -0.046875 0.484375 -0.046875l0.28125 0.109375l-1.203125 5.59375l0.078125 0q0.25 -0.53125 0.5625 -0.984375q0.328125 -0.453125 0.671875 -0.796875q0.359375 -0.34375 0.734375 -0.53125q0.390625 -0.203125 0.796875 -0.203125q0.609375 0 0.875 0.359375q0.28125 0.34375 0.28125 0.875q0 0.359375 -0.0625 0.78125q-0.0625 0.40625 -0.15625 0.78125l-0.765625 3.28125l0.984375 0l0 0.34375q-0.265625 0.21875 -0.640625 0.359375q-0.375 0.125 -0.734375 0.125q-0.390625 0 -0.546875 -0.15625q-0.140625 -0.15625 -0.140625 -0.34375q0 -0.25 0.0625 -0.546875q0.078125 -0.296875 0.140625 -0.609375l0.484375 -2.21875q0.09375 -0.421875 0.15625 -0.78125q0.078125 -0.359375 0.078125 -0.6875q0 -0.3125 -0.140625 -0.515625q-0.125 -0.21875 -0.359375 -0.21875q-0.40625 0 -0.796875 0.296875q-0.390625 0.296875 -0.71875 0.71875q-0.328125 0.40625 -0.59375 0.859375q-0.25 0.4375 -0.375 0.71875l-0.703125 3.40625l-1.125 0l1.828125 -9.09375l-0.90625 -0.109375z" fill-rule="nonzero"/><path fill="#000000" fill-opacity="0.0" d="m6.076403 179.45009l41.51181 0l0 25.007874l-41.51181 0z" fill-rule="evenodd"/><path fill="#000000" d="m17.484865 187.5509l0 -0.3125q0.203125 -0.078125 0.4375 -0.15625q0.25 -0.09375 0.515625 -0.171875q0.265625 -0.078125 0.515625 -0.125q0.265625 -0.046875 0.484375 -0.046875l0.28125 0.109375l-1.203125 5.59375l0.078125 0q0.25 -0.53125 0.5625 -0.984375q0.328125 -0.453125 0.671875 -0.796875q0.359375 -0.34375 0.734375 -0.53125q0.390625 -0.203125 0.796875 -0.203125q0.609375 0 0.875 0.359375q0.28125 0.34375 0.28125 0.875q0 0.359375 -0.0625 0.78125q-0.0625 0.40625 -0.15625 0.78125l-0.765625 3.28125l0.984375 0l0 0.34375q-0.265625 0.21875 -0.640625 0.359375q-0.375 0.125 -0.734375 0.125q-0.390625 0 -0.546875 -0.15625q-0.140625 -0.15625 -0.140625 -0.34375q0 -0.25 0.0625 -0.546875q0.078125 -0.296875 0.140625 -0.609375l0.484375 -2.21875q0.09375 -0.421875 0.15625 -0.78125q0.078125 -0.359375 0.078125 -0.6875q0 -0.3125 -0.140625 -0.515625q-0.125 -0.21875 -0.359375 -0.21875q-0.40625 0 -0.796875 0.296875q-0.390625 0.296875 -0.71875 0.71875q-0.328125 0.40625 -0.59375 0.859375q-0.25 0.4375 -0.375 0.71875l-0.703125 3.40625l-1.125 0l1.828125 -9.09375l-0.90625 -0.109375z" fill-rule="nonzero"/><path fill="#000000" d="m23.909517 191.81653l2.640625 0l0 -2.796875l0.703125 0l0 2.796875l2.640625 0l0 0.71875l-2.640625 0l0 2.859375l-0.703125 0l0 -2.859375l-2.640625 0l0 -0.71875zm12.2132435 4.9375l-3.90625 0l0 -0.390625q0.34375 -0.140625 0.671875 -0.25q0.34375 -0.125 0.6875 -0.203125l0 -6.546875l0.0625 -0.78125q-0.375 0.140625 -0.78125 0.203125q-0.390625 0.0625 -0.8125 0.046875l-0.07812691 -0.3125q0.6093769 -0.203125 1.2656269 -0.5q0.65625 -0.296875 1.21875 -0.75l0.328125 0l0 8.640625q0.34375 0.078125 0.671875 0.203125q0.328125 0.109375 0.671875 0.25l0 0.390625z" fill-rule="nonzero"/><path fill="#000000" fill-opacity="0.0" d="m6.076403 218.59901l41.51181 0l0 25.007874l-41.51181 0z" fill-rule="evenodd"/><path fill="#000000" d="m17.484865 226.69983l0 -0.3125q0.203125 -0.078125 0.4375 -0.15625q0.25 -0.09375 0.515625 -0.171875q0.265625 -0.078125 0.515625 -0.125q0.265625 -0.046875 0.484375 -0.046875l0.28125 0.109375l-1.203125 5.59375l0.078125 0q0.25 -0.53125 0.5625 -0.984375q0.328125 -0.453125 0.671875 -0.796875q0.359375 -0.34375 0.734375 -0.53125q0.390625 -0.203125 0.796875 -0.203125q0.609375 0 0.875 0.359375q0.28125 0.34375 0.28125 0.875q0 0.359375 -0.0625 0.78125q-0.0625 0.40625 -0.15625 0.78125l-0.765625 3.28125l0.984375 0l0 0.34375q-0.265625 0.21875 -0.640625 0.359375q-0.375 0.125 -0.734375 0.125q-0.390625 0 -0.546875 -0.15625q-0.140625 -0.15625 -0.140625 -0.34375q0 -0.25 0.0625 -0.546875q0.078125 -0.296875 0.140625 -0.609375l0.484375 -2.21875q0.09375 -0.421875 0.15625 -0.78125q0.078125 -0.359375 0.078125 -0.6875q0 -0.3125 -0.140625 -0.515625q-0.125 -0.21875 -0.359375 -0.21875q-0.40625 0 -0.796875 0.296875q-0.390625 0.296875 -0.71875 0.71875q-0.328125 0.40625 -0.59375 0.859375q-0.25 0.4375 -0.375 0.71875l-0.703125 3.40625l-1.125 0l1.828125 -9.09375l-0.90625 -0.109375z" fill-rule="nonzero"/><path fill="#000000" d="m23.909517 230.96545l2.640625 0l0 -2.796875l0.703125 0l0 2.796875l2.640625 0l0 0.71875l-2.640625 0l0 2.859375l-0.703125 0l0 -2.859375l-2.640625 0l0 -0.71875zm8.3069935 -1.796875l-0.3281269 0q-0.140625 -0.390625 -0.296875 -0.90625q-0.15625 -0.515625 -0.265625 -0.984375q0.46875 -0.390625 1.1250019 -0.625q0.65625 -0.234375 1.40625 -0.234375q0.671875 0 1.140625 0.1875q0.484375 0.1875 0.796875 0.5q0.328125 0.3125 0.46875 0.734375q0.140625 0.421875 0.140625 0.875q0 0.75 -0.34375 1.546875q-0.34375 0.78125 -0.859375 1.515625q-0.515625 0.734375 -1.125 1.390625q-0.59375 0.65625 -1.09375 1.140625l-0.5625 0.53125l0 0.046875l0.75 -0.078125l2.296875 0l0.65625 -1.484375l0.328125 0q0.03125 0.28125 0.046875 0.640625q0.03125 0.34375 0.046875 0.703125q0.03125 0.34375 0.03125 0.671875q0.015625 0.328125 0.015625 0.5625l-5.500002 0l0 -0.421875q0.296875 -0.3125 0.703125 -0.75q0.4218769 -0.4375 0.8750019 -0.96875q0.453125 -0.53125 0.90625 -1.125q0.453125 -0.609375 0.796875 -1.234375q0.34375 -0.625 0.5625 -1.234375q0.21875 -0.609375 0.21875 -1.171875q0 -0.390625 -0.109375 -0.734375q-0.09375 -0.34375 -0.296875 -0.59375q-0.1875 -0.265625 -0.484375 -0.40625q-0.28125 -0.15625 -0.65625 -0.15625q-0.28125 0 -0.5 0.046875q-0.203125 0.03125 -0.453125 0.109375l-0.4375 1.90625z" fill-rule="nonzero"/><path fill="#000000" fill-opacity="0.0" d="m565.16925 54.70109c0 -8.175552 6.6276245 -14.80315 14.803162 -14.80315c3.9260254 0 7.691284 1.5596161 10.467407 4.335743c2.776123 2.7761307 4.3357544 6.5413666 4.3357544 10.467407c0 8.175556 -6.6276245 14.80315 -14.803162 14.80315c-8.175537 0 -14.803162 -6.627594 -14.803162 -14.80315z" fill-rule="evenodd"/><path stroke="#000000" stroke-width="0.7427821522309711" stroke-linejoin="round" stroke-linecap="butt" d="m565.16925 54.70109c0 -8.175552 6.6276245 -14.80315 14.803162 -14.80315c3.9260254 0 7.691284 1.5596161 10.467407 4.335743c2.776123 2.7761307 4.3357544 6.5413666 4.3357544 10.467407c0 8.175556 -6.6276245 14.80315 -14.803162 14.80315c-8.175537 0 -14.803162 -6.627594 -14.803162 -14.80315z" fill-rule="evenodd"/><path fill="#000000" d="m579.4269 55.646175l-3.203125 -5.828125l1.34375 0l2.265625 4.21875l0.234375 0.84375l0.015625 0l0.25 -0.859375l2.171875 -4.203125l1.234375 0l-3.171875 5.8125l0 3.859375l-1.140625 0l0 -3.84375z" fill-rule="nonzero"/><path fill="#ffffff" d="m507.06555 103.52203c0 -8.17556 6.6275635 -14.803154 14.803162 -14.803154c3.9260254 0 7.691284 1.5596161 10.467407 4.335747c2.776123 2.776123 4.3356934 6.5413666 4.3356934 10.467407c0 8.175552 -6.6275635 14.803146 -14.803101 14.803146c-8.175598 0 -14.803162 -6.627594 -14.803162 -14.803146z" fill-rule="evenodd"/><path stroke="#000000" stroke-width="0.7427821522309711" stroke-linejoin="round" stroke-linecap="butt" d="m507.06555 103.52203c0 -8.17556 6.6275635 -14.803154 14.803162 -14.803154c3.9260254 0 7.691284 1.5596161 10.467407 4.335747c2.776123 2.776123 4.3356934 6.5413666 4.3356934 10.467407c0 8.175552 -6.6275635 14.803146 -14.803101 14.803146c-8.175598 0 -14.803162 -6.627594 -14.803162 -14.803146z" fill-rule="evenodd"/><path fill="#000000" d="m521.17395 103.388985l-2.9375 -4.75l1.375 0l1.96875 3.265625l0.34375 0.796875l0.328125 -0.796875l2.078125 -3.265625l1.265625 0l-3.03125 4.65625l3.171875 5.015625l-1.34375 0l-2.171875 -3.46875l-0.375 -0.828125l-0.359375 0.828125l-2.25 3.46875l-1.28125 0l3.21875 -4.921875z" fill-rule="nonzero"/><path fill="#000000" fill-opacity="0.0" d="m569.505 65.1685l-47.62207 23.559052" fill-rule="evenodd"/><path stroke="#000000" stroke-width="0.7427821522309711" stroke-linejoin="round" stroke-linecap="butt" d="m569.505 65.1685l-43.62744 21.582893" fill-rule="evenodd"/><path fill="#000000" stroke="#000000" stroke-width="0.7427821522309711" stroke-linecap="butt" d="m525.33356 85.65172l-2.477295 2.594345l3.5653076 -0.39500427z" fill-rule="evenodd"/><path fill="#000000" fill-opacity="0.0" d="m590.4398 65.1685l52.409424 21.858261" fill-rule="evenodd"/><path stroke="#000000" stroke-width="0.7427821522309711" stroke-linejoin="round" stroke-linecap="butt" d="m590.4398 65.1685l48.296143 20.142754" fill-rule="evenodd"/><path fill="#000000" stroke="#000000" stroke-width="0.7427821522309711" stroke-linecap="butt" d="m638.2637 86.443596l3.583374 0.16518402l-2.638794 -2.4298706z" fill-rule="evenodd"/><path fill="#000000" fill-opacity="0.0" d="m532.3361 113.98944l25.543274 12.566925" fill-rule="evenodd"/><path stroke="#000000" stroke-width="0.7427821522309711" stroke-linejoin="round" stroke-linecap="butt" d="m532.3361 113.98944l21.544373 10.599518" fill-rule="evenodd"/><path fill="#000000" stroke="#000000" stroke-width="0.7427821522309711" stroke-linecap="butt" d="m553.3389 125.68982l3.566162 0.38719177l-2.4829712 -2.588913z" fill-rule="evenodd"/><path fill="#000000" fill-opacity="0.0" d="m579.9711 20.2481l0 19.653545" fill-rule="evenodd"/><path stroke="#000000" stroke-width="0.7427821522309711" stroke-linejoin="round" stroke-linecap="butt" d="m579.9711 20.2481l0 15.19685" fill-rule="evenodd"/><path fill="#000000" stroke="#000000" stroke-width="0.7427821522309711" stroke-linecap="butt" d="m578.74426 35.44495l1.2268677 3.370819l1.2268677 -3.370819z" fill-rule="evenodd"/><path fill="#ffffff" d="m456.5118 192.09726l29.333344 -65.53544l29.333313 65.53544z" fill-rule="evenodd"/><path stroke="#000000" stroke-width="1.0" stroke-linejoin="round" stroke-linecap="butt" d="m456.5118 192.09726l29.333344 -65.53544l29.333313 65.53544z" fill-rule="evenodd"/><path fill="#000000" d="m481.30826 173.85715l1.046875 0l0 -1.328125l1.0625 -0.3125l0 1.640625l1.8125 0l0 0.921875l-1.8125 0l0 3.6875q0 0.703125 0.171875 1.0q0.171875 0.28125 0.59375 0.28125q0.34375 0 0.578125 -0.078125q0.25 -0.078125 0.53125 -0.203125l0.25 0.8125q-0.359375 0.1875 -0.796875 0.28125q-0.421875 0.109375 -0.90625 0.109375q-0.8125 0 -1.15625 -0.453125q-0.328125 -0.46875 -0.328125 -1.546875l0 -3.890625l-1.046875 0l0 -0.921875z" fill-rule="nonzero"/><path fill="#000000" d="m486.63898 184.85715l1.25 0l0 -4.296875l0.09375 -0.515625l-0.359375 0.40625l-0.984375 0.703125l-0.328125 -0.453125l1.953125 -1.5l0.3125 0l0 5.65625l1.21875 0l0 0.65625l-3.15625 0l0 -0.65625z" fill-rule="nonzero"/><path fill="#000000" fill-opacity="0.0" d="m511.40128 113.98944l-25.543304 12.566925" fill-rule="evenodd"/><path stroke="#000000" stroke-width="0.7427821522309711" stroke-linejoin="round" stroke-linecap="butt" d="m511.40128 113.98944l-21.544373 10.599518" fill-rule="evenodd"/><path fill="#000000" stroke="#000000" stroke-width="0.7427821522309711" stroke-linecap="butt" d="m489.3153 123.4881l-2.4830017 2.588913l3.5661926 -0.38719177z" fill-rule="evenodd"/><path fill="#ffffff" d="m608.6063 192.09726l34.228333 -105.062996l34.228333 105.062996z" fill-rule="evenodd"/><path stroke="#000000" stroke-width="1.0" stroke-linejoin="round" stroke-linecap="butt" d="m608.6063 192.09726l34.228333 -105.062996l34.228333 105.062996z" fill-rule="evenodd"/><path fill="#000000" d="m638.2977 163.97525l1.046875 0l0 -1.328125l1.0625 -0.3125l0 1.640625l1.8125 0l0 0.921875l-1.8125 0l0 3.6875q0 0.703125 0.171875 1.0q0.171875 0.28125 0.59375 0.28125q0.34375 0 0.578125 -0.078125q0.25 -0.078125 0.53125 -0.203125l0.25 0.8125q-0.359375 0.1875 -0.796875 0.28125q-0.421875 0.109375 -0.90625 0.109375q-0.8125 0 -1.15625 -0.453125q-0.328125 -0.46875 -0.328125 -1.546875l0 -3.890625l-1.046875 0l0 -0.921875z" fill-rule="nonzero"/><path fill="#000000" d="m644.7535 175.11589q0.296875 0 0.546875 -0.078125q0.265625 -0.09375 0.453125 -0.265625q0.1875 -0.171875 0.296875 -0.40625q0.109375 -0.25 0.109375 -0.53125q0 -0.625 -0.375 -0.921875q-0.359375 -0.3125 -1.015625 -0.3125l-0.65625 0l0 -0.25l1.28125 -1.96875l0.40625 -0.390625l-0.578125 0.078125l-1.75 0l0 -0.65625l3.15625 0l0 0.265625l-1.40625 2.125l-0.3125 0.25l0 0.015625l0.296875 -0.0625q0.359375 0.015625 0.65625 0.140625q0.3125 0.109375 0.53125 0.34375q0.21875 0.21875 0.34375 0.53125q0.125 0.3125 0.125 0.71875q0 0.484375 -0.171875 0.859375q-0.15625 0.359375 -0.453125 0.625q-0.28125 0.25 -0.671875 0.390625q-0.390625 0.125 -0.828125 0.125q-0.40625 0 -0.734375 -0.0625q-0.3125 -0.0625 -0.546875 -0.15625l0.1875 -0.640625q0.203125 0.109375 0.484375 0.171875q0.28125 0.0625 0.625 0.0625z" fill-rule="nonzero"/><path fill="#efefef" d="m323.00262 101.54731l69.968506 0l0 -9.976372l19.952759 19.952751l-19.952759 19.952751l0 -9.976372l-69.968506 0z" fill-rule="evenodd"/><path stroke="#000000" stroke-width="1.0" stroke-linejoin="round" stroke-linecap="butt" d="m323.00262 101.54731l69.968506 0l0 -9.976372l19.952759 19.952751l-19.952759 19.952751l0 -9.976372l-69.968506 0z" fill-rule="evenodd"/><path fill="#000000" d="m336.9312 116.04369l-4.96875 0l0 -8.40625l1.0 0l0 7.515625l3.96875 0l0 0.890625zm4.808563 -0.484375q-0.359375 0.296875 -0.90625 0.46875q-0.53125 0.15625 -1.15625 0.15625q-0.671875 0 -1.1875 -0.21875q-0.5 -0.21875 -0.828125 -0.625q-0.3125 -0.421875 -0.46875 -1.0q-0.15625 -0.578125 -0.15625 -1.296875q0 -1.53125 0.671875 -2.328125q0.6875 -0.8125 1.96875 -0.8125q0.40625 0 0.8125 0.09375q0.40625 0.078125 0.71875 0.34375q0.328125 0.25 0.53125 0.71875q0.21875 0.453125 0.21875 1.203125q0 0.390625 -0.078125 0.875l-3.859375 0q0 0.53125 0.109375 0.9375q0.109375 0.40625 0.328125 0.6875q0.234375 0.28125 0.59375 0.4375q0.375 0.140625 0.90625 0.140625q0.40625 0 0.8125 -0.140625q0.40625 -0.140625 0.609375 -0.328125l0.359375 0.6875zm-2.0625 -4.8125q-0.703125 0 -1.125 0.375q-0.421875 0.359375 -0.515625 1.265625l2.984375 0q0 -0.921875 -0.359375 -1.28125q-0.34375 -0.359375 -0.984375 -0.359375zm3.1272888 -0.703125l0.9375 0l0 -0.34375q0 -0.546875 0.078125 -0.953125q0.09375 -0.40625 0.296875 -0.65625q0.203125 -0.265625 0.53125 -0.390625q0.328125 -0.125 0.8125 -0.125q0.375 0 0.671875 0.046875q0.296875 0.046875 0.625 0.171875l-0.21875 0.8125q-0.28125 -0.125 -0.53125 -0.15625q-0.234375 -0.03125 -0.453125 -0.03125q-0.3125 0 -0.484375 0.09375q-0.171875 0.09375 -0.25 0.28125q-0.078125 0.1875 -0.109375 0.453125q-0.015625 0.265625 -0.015625 0.625l0 0.171875l1.59375 0l0 0.84375l-1.59375 0l0 5.15625l-0.953125 0l0 -5.15625l-0.9375 0l0 -0.84375zm3.4953918 0l0.9375 0l0 -1.1875l0.96875 -0.28125l0 1.46875l1.625 0l0 0.84375l-1.625 0l0 3.3125q0 0.625 0.15625 0.890625q0.15625 0.25 0.53125 0.25q0.3125 0 0.515625 -0.0625q0.21875 -0.0625 0.484375 -0.171875l0.21875 0.734375q-0.328125 0.15625 -0.71875 0.25q-0.375 0.09375 -0.8125 0.09375q-0.734375 0 -1.046875 -0.40625q-0.296875 -0.421875 -0.296875 -1.390625l0 -3.5l-0.9375 0l0 -0.84375zm4.262146 2.09375l2.90625 0l0 0.890625l-2.90625 0l0 -0.890625zm7.366913 -1.171875q-0.359375 -0.125 -0.671875 -0.125q-0.515625 0 -0.828125 0.296875q-0.296875 0.28125 -0.359375 0.703125l0 4.203125l-0.96875 0l0 -6.0l0.671875 0l0.1875 0.734375l0.046875 0q0.21875 -0.40625 0.53125 -0.625q0.328125 -0.234375 0.828125 -0.234375q0.34375 0 0.765625 0.125l-0.203125 0.921875zm0.9237976 2.078125q0 -1.53125 0.671875 -2.328125q0.671875 -0.8125 1.953125 -0.8125q0.671875 0 1.171875 0.21875q0.5 0.21875 0.8125 0.640625q0.328125 0.40625 0.484375 1.0q0.15625 0.578125 0.15625 1.28125q0 1.53125 -0.6875 2.34375q-0.671875 0.796875 -1.9375 0.796875q-0.671875 0 -1.171875 -0.21875q-0.5 -0.21875 -0.828125 -0.625q-0.3125 -0.421875 -0.46875 -1.0q-0.15625 -0.59375 -0.15625 -1.296875zm0.984375 0q0 0.453125 0.09375 0.875q0.09375 0.421875 0.28125 0.734375q0.1875 0.3125 0.5 0.5q0.3125 0.1875 0.765625 0.1875q1.625 0.015625 1.625 -2.296875q0 -0.46875 -0.09375 -0.890625q-0.078125 -0.421875 -0.28125 -0.734375q-0.1875 -0.3125 -0.5 -0.484375q-0.3125 -0.1875 -0.75 -0.1875q-1.640625 -0.015625 -1.640625 2.296875zm4.9789124 -3.0l0.9375 0l0 -1.1875l0.96875 -0.28125l0 1.46875l1.625 0l0 0.84375l-1.625 0l0 3.3125q0 0.625 0.15625 0.890625q0.15625 0.25 0.53125 0.25q0.3125 0 0.515625 -0.0625q0.21875 -0.0625 0.484375 -0.171875l0.21875 0.734375q-0.328125 0.15625 -0.71875 0.25q-0.375 0.09375 -0.8125 0.09375q-0.734375 0 -1.046875 -0.40625q-0.296875 -0.421875 -0.296875 -1.390625l0 -3.5l-0.9375 0l0 -0.84375zm4.7711487 0.4375q0.453125 -0.265625 1.0625 -0.390625q0.609375 -0.140625 1.265625 -0.140625q0.625 0 1.0 0.171875q0.375 0.15625 0.578125 0.4375q0.203125 0.265625 0.265625 0.59375q0.0625 0.3125 0.0625 0.640625q0 0.71875 -0.046875 1.40625q-0.03125 0.6875 -0.03125 1.296875q0 0.4375 0.03125 0.84375q0.046875 0.390625 0.140625 0.734375l-0.703125 0l-0.25 -0.84375l-0.0625 0q-0.109375 0.171875 -0.28125 0.328125q-0.15625 0.15625 -0.390625 0.28125q-0.21875 0.125 -0.515625 0.203125q-0.296875 0.09375 -0.6875 0.09375q-0.375 0 -0.71875 -0.109375q-0.328125 -0.125 -0.5625 -0.34375q-0.234375 -0.234375 -0.375 -0.546875q-0.140625 -0.3125 -0.140625 -0.703125q0 -0.53125 0.21875 -0.875q0.21875 -0.359375 0.609375 -0.5625q0.390625 -0.21875 0.921875 -0.296875q0.546875 -0.09375 1.21875 -0.09375q0.15625 0 0.3125 0q0.171875 0 0.34375 0.015625q0.03125 -0.359375 0.03125 -0.640625q0 -0.671875 -0.265625 -0.921875q-0.265625 -0.265625 -0.953125 -0.265625q-0.203125 0 -0.4375 0.03125q-0.234375 0.015625 -0.484375 0.078125q-0.25 0.046875 -0.46875 0.125q-0.21875 0.078125 -0.390625 0.171875l-0.296875 -0.71875zm1.703125 4.8125q0.34375 0 0.59375 -0.078125q0.265625 -0.09375 0.453125 -0.234375q0.203125 -0.140625 0.328125 -0.296875q0.125 -0.171875 0.1875 -0.328125l0 -1.0q-0.171875 -0.015625 -0.34375 -0.015625q-0.171875 -0.015625 -0.34375 -0.015625q-0.375 0 -0.734375 0.046875q-0.34375 0.046875 -0.625 0.15625q-0.265625 0.109375 -0.421875 0.3125q-0.15625 0.203125 -0.15625 0.5q0 0.421875 0.296875 0.6875q0.296875 0.265625 0.765625 0.265625zm3.545807 -5.25l0.9375 0l0 -1.1875l0.96875 -0.28125l0 1.46875l1.625 0l0 0.84375l-1.625 0l0 3.3125q0 0.625 0.15625 0.890625q0.15625 0.25 0.53125 0.25q0.3125 0 0.515625 -0.0625q0.21875 -0.0625 0.484375 -0.171875l0.21875 0.734375q-0.328125 0.15625 -0.71875 0.25q-0.375 0.09375 -0.8125 0.09375q-0.734375 0 -1.046875 -0.40625q-0.296875 -0.421875 -0.296875 -1.390625l0 -3.5l-0.9375 0l0 -0.84375zm9.10788 5.515625q-0.359375 0.296875 -0.90625 0.46875q-0.53125 0.15625 -1.15625 0.15625q-0.671875 0 -1.1875 -0.21875q-0.5 -0.21875 -0.828125 -0.625q-0.3125 -0.421875 -0.46875 -1.0q-0.15625 -0.578125 -0.15625 -1.296875q0 -1.53125 0.671875 -2.328125q0.6875 -0.8125 1.96875 -0.8125q0.40625 0 0.8125 0.09375q0.40625 0.078125 0.71875 0.34375q0.328125 0.25 0.53125 0.71875q0.21875 0.453125 0.21875 1.203125q0 0.390625 -0.078125 0.875l-3.859375 0q0 0.53125 0.109375 0.9375q0.109375 0.40625 0.328125 0.6875q0.234375 0.28125 0.59375 0.4375q0.375 0.140625 0.90625 0.140625q0.40625 0 0.8125 -0.140625q0.40625 -0.140625 0.609375 -0.328125l0.359375 0.6875zm-2.0625 -4.8125q-0.703125 0 -1.125 0.375q-0.421875 0.359375 -0.515625 1.265625l2.984375 0q0 -0.921875 -0.359375 -1.28125q-0.34375 -0.359375 -0.984375 -0.359375zm8.815063 1.03125l-2.5625 -4.140625l1.203125 0l1.703125 2.84375l0.296875 0.6875l0.296875 -0.6875l1.796875 -2.84375l1.109375 0l-2.640625 4.046875l2.75 4.359375l-1.15625 0l-1.890625 -3.015625l-0.328125 -0.71875l-0.3125 0.71875l-1.953125 3.015625l-1.109375 0l2.796875 -4.265625z" fill-rule="nonzero"/><path fill="#ffffff" d="m528.5589 192.09726l29.333374 -65.53544l29.333313 65.53544z" fill-rule="evenodd"/><path stroke="#000000" stroke-width="1.0" stroke-linejoin="round" stroke-linecap="butt" d="m528.5589 192.09726l29.333374 -65.53544l29.333313 65.53544z" fill-rule="evenodd"/><path fill="#000000" d="m553.35535 173.85715l1.046875 0l0 -1.328125l1.0625 -0.3125l0 1.640625l1.8125 0l0 0.921875l-1.8125 0l0 3.6875q0 0.703125 0.171875 1.0q0.171875 0.28125 0.59375 0.28125q0.34375 0 0.578125 -0.078125q0.25 -0.078125 0.53125 -0.203125l0.25 0.8125q-0.359375 0.1875 -0.796875 0.28125q-0.421875 0.109375 -0.90625 0.109375q-0.8125 0 -1.15625 -0.453125q-0.328125 -0.46875 -0.328125 -1.546875l0 -3.890625l-1.046875 0l0 -0.921875z" fill-rule="nonzero"/><path fill="#000000" d="m561.6861 180.71652q0 0.46875 -0.171875 0.96875q-0.171875 0.484375 -0.453125 0.984375q-0.28125 0.484375 -0.625 0.96875q-0.34375 0.46875 -0.6875 0.90625l-0.4375 0.375l0 0.03125l0.5625 -0.09375l1.9375 0l0 0.65625l-3.53125 0l0 -0.25q0.203125 -0.21875 0.46875 -0.515625q0.28125 -0.296875 0.578125 -0.65625q0.296875 -0.375 0.578125 -0.78125q0.296875 -0.421875 0.53125 -0.84375q0.234375 -0.4375 0.375 -0.84375q0.140625 -0.421875 0.140625 -0.796875q0 -0.4375 -0.25 -0.71875q-0.25 -0.296875 -0.75 -0.296875q-0.34375 0 -0.65625 0.140625q-0.3125 0.140625 -0.546875 0.3125l-0.296875 -0.5q0.3125 -0.265625 0.734375 -0.40625q0.421875 -0.15625 0.921875 -0.15625q0.375 0 0.671875 0.109375q0.296875 0.109375 0.5 0.3125q0.203125 0.203125 0.296875 0.484375q0.109375 0.28125 0.109375 0.609375z" fill-rule="nonzero"/><path fill="#efefef" d="m176.0537 91.32839l-1.3777313 -1.772232c-9.210876 -11.8482895 -26.296036 -14.003517 -38.160767 -4.81382l-3.9482727 3.0580826l-3.6138 -4.6485443l-1.5608444 12.373367l12.3955 1.5636368l-3.6137848 -4.6485443l3.9482727 -3.0580902c9.29863 -7.2021484 22.688599 -5.513054 29.907349 3.7726898l1.3777313 1.772232z" fill-rule="evenodd"/><path stroke="#000000" stroke-width="1.0" stroke-linejoin="round" stroke-linecap="butt" d="m176.0537 91.32839l-1.3777313 -1.772232c-9.210876 -11.8482895 -26.296036 -14.003517 -38.160767 -4.81382l-3.9482727 3.0580826l-3.6138 -4.6485443l-1.5608444 12.373367l12.3955 1.5636368l-3.6137848 -4.6485443l3.9482727 -3.0580902c9.29863 -7.2021484 22.688599 -5.513054 29.907349 3.7726898l1.3777313 1.772232z" fill-rule="evenodd"/><path fill="#000000" fill-opacity="0.0" d="m137.98163 6.0118804l23.055115 0l0 14.236219l-23.055115 0z" fill-rule="evenodd"/><path fill="#000000" d="m153.22601 14.908727q0 -0.5 0.28125 -0.78125q0.296875 -0.296875 0.78125 -0.296875q0.515625 0 0.8125 0.296875q0.296875 0.28125 0.296875 0.78125q0 0.484375 -0.296875 0.78125q-0.296875 0.296875 -0.8125 0.296875q-0.484375 0 -0.78125 -0.296875q-0.28125 -0.296875 -0.28125 -0.78125zm-4.734375 0q0 -0.5 0.28125 -0.78125q0.296875 -0.296875 0.78125 -0.296875q0.5 0 0.796875 0.296875q0.3125 0.28125 0.3125 0.78125q0 0.484375 -0.3125 0.78125q-0.296875 0.296875 -0.796875 0.296875q-0.484375 0 -0.78125 -0.296875q-0.28125 -0.296875 -0.28125 -0.78125zm-4.734375 0q0 -0.5 0.28125 -0.78125q0.296875 -0.296875 0.78125 -0.296875q0.5 0 0.796875 0.296875q0.296875 0.28125 0.296875 0.78125q0 0.484375 -0.296875 0.78125q-0.296875 0.296875 -0.796875 0.296875q-0.484375 0 -0.78125 -0.296875q-0.28125 -0.296875 -0.28125 -0.78125z" fill-rule="nonzero"/><path fill="#000000" fill-opacity="0.0" d="m568.44354 6.0118804l23.055115 0l0 14.236219l-23.055115 0z" fill-rule="evenodd"/><path fill="#000000" d="m583.6879 14.908727q0 -0.5 0.28125 -0.78125q0.296875 -0.296875 0.78125 -0.296875q0.515625 0 0.8125 0.296875q0.296875 0.28125 0.296875 0.78125q0 0.484375 -0.296875 0.78125q-0.296875 0.296875 -0.8125 0.296875q-0.484375 0 -0.78125 -0.296875q-0.28125 -0.296875 -0.28125 -0.78125zm-4.734375 0q0 -0.5 0.28125 -0.78125q0.296875 -0.296875 0.78125 -0.296875q0.5 0 0.796875 0.296875q0.3125 0.28125 0.3125 0.78125q0 0.484375 -0.3125 0.78125q-0.296875 0.296875 -0.796875 0.296875q-0.484375 0 -0.78125 -0.296875q-0.28125 -0.296875 -0.28125 -0.78125zm-4.734375 0q0 -0.5 0.28125 -0.78125q0.296875 -0.296875 0.78125 -0.296875q0.5 0 0.796875 0.296875q0.296875 0.28125 0.296875 0.78125q0 0.484375 -0.296875 0.78125q-0.296875 0.296875 -0.796875 0.296875q-0.484375 0 -0.78125 -0.296875q-0.28125 -0.296875 -0.28125 -0.78125z" fill-rule="nonzero"/></g></svg>