<svg version="1.1" viewBox="0.0 0.0 988.4383202099738 213.8740157480315" fill="none" stroke="none" stroke-linecap="square" stroke-miterlimit="10" xmlns:xlink="http://www.w3.org/1999/xlink" xmlns="http://www.w3.org/2000/svg"><clipPath id="p.0"><path d="m0 0l988.4383 0l0 213.87401l-988.4383 0l0 -213.87401z" clip-rule="nonzero"/></clipPath><g clip-path="url(#p.0)"><path fill="#000000" fill-opacity="0.0" d="m0 0l988.4383 0l0 213.87401l-988.4383 0z" fill-rule="evenodd"/><path fill="#000000" fill-opacity="0.0" d="m105.93115 26.415207c0 -11.028301 8.940201 -19.968504 19.968506 -19.968504c5.2959747 0 10.375046 2.1038184 14.119858 5.848639c3.7448273 3.7448215 5.848648 8.823889 5.848648 14.119865c0 11.028301 -8.940201 19.968502 -19.968506 19.968502c-11.028305 0 -19.968506 -8.940201 -19.968506 -19.968502z" fill-rule="evenodd"/><path stroke="#000000" stroke-width="2.0" stroke-linejoin="round" stroke-linecap="butt" d="m105.93115 26.415207c0 -11.028301 8.940201 -19.968504 19.968506 -19.968504c5.2959747 0 10.375046 2.1038184 14.119858 5.848639c3.7448273 3.7448215 5.848648 8.823889 5.848648 14.119865c0 11.028301 -8.940201 19.968502 -19.968506 19.968502c-11.028305 0 -19.968506 -8.940201 -19.968506 -19.968502z" fill-rule="evenodd"/><path fill="#000000" d="m130.80005 34.955208l-8.90625 0l0 -17.140627l8.90625 0l0 1.921875l-6.71875 0l0 5.296875l6.265625 0l0 1.90625l-6.265625 0l0 6.093752l6.71875 0l0 1.921875z" fill-rule="nonzero"/><path fill="#000000" fill-opacity="0.0" d="m41.931152 82.41521c0 -11.028297 8.940205 -19.968506 19.968502 -19.968506c5.2959785 0 10.375042 2.1038208 14.119869 5.8486404c3.7448196 3.7448196 5.848633 8.823891 5.848633 14.119865c0 11.028297 -8.940201 19.968506 -19.968502 19.968506c-11.028297 0 -19.968502 -8.940208 -19.968502 -19.968506z" fill-rule="evenodd"/><path stroke="#000000" stroke-width="2.0" stroke-linejoin="round" stroke-linecap="butt" d="m41.931152 82.41521c0 -11.028297 8.940205 -19.968506 19.968502 -19.968506c5.2959785 0 10.375042 2.1038208 14.119869 5.8486404c3.7448196 3.7448196 5.848633 8.823891 5.848633 14.119865c0 11.028297 -8.940201 19.968506 -19.968502 19.968506c-11.028297 0 -19.968502 -8.940208 -19.968502 -19.968506z" fill-rule="evenodd"/><path fill="#000000" d="m63.960205 75.50208q-1.2500038 0 -2.2812538 0.46875q-1.015625 0.46875 -1.734375 1.359375q-0.71875 0.890625 -1.109375 2.171875q-0.390625 1.28125 -0.390625 2.890625q0 1.640625 0.34375 2.9375q0.34375 1.28125 1.03125 2.15625q0.6875 0.875 1.71875 1.34375q1.03125 0.453125 2.4218788 0.453125q1.046875 0 1.984375 -0.203125q0.9375 -0.21875 1.84375 -0.484375l0 1.90625q-0.453125 0.171875 -0.921875 0.3125q-0.453125 0.125 -0.953125 0.203125q-0.484375 0.09375 -1.0625 0.125q-0.5625 0.046875 -1.2500038 0.046875q-1.921875 0 -3.328125 -0.625q-1.40625 -0.640625 -2.328125 -1.796875q-0.921875 -1.171875 -1.375 -2.796875q-0.4375 -1.625 -0.4375 -3.609375q0 -1.9375 0.5 -3.546875q0.515625 -1.625 1.5 -2.78125q1.0 -1.171875 2.453125 -1.8125q1.46875 -0.640625 3.3750038 -0.640625q1.265625 0 2.40625 0.265625q1.15625 0.25 2.078125 0.734375l-0.90625 1.828125q-0.75 -0.375 -1.625 -0.640625q-0.859375 -0.265625 -1.953125 -0.265625z" fill-rule="nonzero"/><path fill="#000000" fill-opacity="0.0" d="m169.93115 82.41521c0 -11.028297 8.940201 -19.968506 19.968506 -19.968506c5.2959747 0 10.375046 2.1038208 14.119858 5.8486404c3.7448273 3.7448196 5.848648 8.823891 5.848648 14.119865c0 11.028297 -8.940201 19.968506 -19.968506 19.968506c-11.028305 0 -19.968506 -8.940208 -19.968506 -19.968506z" fill-rule="evenodd"/><path stroke="#000000" stroke-width="2.0" stroke-linejoin="round" stroke-linecap="butt" d="m169.93115 82.41521c0 -11.028297 8.940201 -19.968506 19.968506 -19.968506c5.2959747 0 10.375046 2.1038208 14.119858 5.8486404c3.7448273 3.7448196 5.848648 8.823891 5.848648 14.119865c0 11.028297 -8.940201 19.968506 -19.968506 19.968506c-11.028305 0 -19.968506 -8.940208 -19.968506 -19.968506z" fill-rule="evenodd"/><path fill="#000000" d="m190.79224 81.90833l5.671875 0l0 8.40625q-0.65625 0.203125 -1.3125 0.375q-0.65625 0.15625 -1.34375 0.265625q-0.6875 0.125 -1.453125 0.171875q-0.765625 0.0625 -1.640625 0.0625q-1.84375 0 -3.265625 -0.609375q-1.40625 -0.625 -2.390625 -1.765625q-0.96875 -1.140625 -1.46875 -2.765625q-0.5 -1.640625 -0.5 -3.6875q0 -2.015625 0.546875 -3.640625q0.5625 -1.625 1.625 -2.765625q1.078125 -1.15625 2.640625 -1.765625q1.5625 -0.609375 3.5625 -0.609375q1.296875 0 2.484375 0.265625q1.203125 0.25 2.234375 0.734375l-0.84375 1.90625q-0.421875 -0.203125 -0.90625 -0.375q-0.484375 -0.1875 -1.0 -0.3125q-0.515625 -0.140625 -1.0625 -0.21875q-0.546875 -0.078125 -1.078125 -0.078125q-1.4375 0 -2.546875 0.46875q-1.09375 0.46875 -1.84375 1.359375q-0.734375 0.890625 -1.125 2.171875q-0.375 1.28125 -0.375 2.890625q0 1.515625 0.3125 2.78125q0.328125 1.265625 1.03125 2.1875q0.703125 0.90625 1.8125 1.421875q1.109375 0.5 2.6875 0.5q0.515625 0 0.9375 -0.03125q0.4375 -0.03125 0.796875 -0.078125q0.359375 -0.046875 0.671875 -0.109375q0.328125 -0.0625 0.640625 -0.125l0 -5.109375l-3.5 0l0 -1.921875z" fill-rule="nonzero"/><path fill="#000000" fill-opacity="0.0" d="m137.93115 138.4152c0 -11.028297 8.940201 -19.968506 19.968506 -19.968506c5.2959747 0 10.375046 2.1038208 14.119858 5.8486404c3.7448273 3.7448196 5.848648 8.823891 5.848648 14.119865c0 11.028305 -8.940201 19.968506 -19.968506 19.968506c-11.028305 0 -19.968506 -8.940201 -19.968506 -19.968506z" fill-rule="evenodd"/><path stroke="#000000" stroke-width="2.0" stroke-linejoin="round" stroke-linecap="butt" d="m137.93115 138.4152c0 -11.028297 8.940201 -19.968506 19.968506 -19.968506c5.2959747 0 10.375046 2.1038208 14.119858 5.8486404c3.7448273 3.7448196 5.848648 8.823891 5.848648 14.119865c0 11.028305 -8.940201 19.968506 -19.968506 19.968506c-11.028305 0 -19.968506 -8.940201 -19.968506 -19.968506z" fill-rule="evenodd"/><path fill="#000000" d="m156.52075 146.9552l-2.1875 0l0 -17.140625l8.90625 0l0 1.921875l-6.71875 0l0 6.046875l6.265625 0l0 1.921875l-6.265625 0l0 7.25z" fill-rule="nonzero"/><path fill="#000000" fill-opacity="0.0" d="m9.931151 138.4152c0 -11.028297 8.940204 -19.968506 19.968506 -19.968506c5.2959766 0 10.375044 2.1038208 14.1198635 5.8486404c3.7448196 3.7448196 5.8486404 8.823891 5.8486404 14.119865c0 11.028305 -8.940205 19.968506 -19.968504 19.968506c-11.028301 0 -19.968506 -8.940201 -19.968506 -19.968506z" fill-rule="evenodd"/><path stroke="#000000" stroke-width="2.0" stroke-linejoin="round" stroke-linecap="butt" d="m9.931151 138.4152c0 -11.028297 8.940204 -19.968506 19.968506 -19.968506c5.2959766 0 10.375044 2.1038208 14.1198635 5.8486404c3.7448196 3.7448196 5.8486404 8.823891 5.8486404 14.119865c0 11.028305 -8.940205 19.968506 -19.968504 19.968506c-11.028301 0 -19.968506 -8.940201 -19.968506 -19.968506z" fill-rule="evenodd"/><path fill="#000000" d="m24.774656 129.81458l4.6875 0q1.5 0 2.640627 0.234375q1.140625 0.234375 1.90625 0.75q0.765625 0.5 1.15625 1.328125q0.390625 0.828125 0.390625 2.03125q0 0.71875 -0.234375 1.359375q-0.234375 0.625 -0.671875 1.109375q-0.421875 0.484375 -1.0625 0.8125q-0.640625 0.3125 -1.453125 0.421875l0 0.109375q0.8125 0.140625 1.515625 0.40625q0.71875 0.265625 1.234375 0.734375q0.53125 0.453125 0.828125 1.15625q0.3125 0.703125 0.3125 1.71875q0 1.171875 -0.375 2.09375q-0.375 0.921875 -1.109375 1.5625q-0.71875 0.625 -1.75 0.96875q-1.0312519 0.34375 -2.328127 0.34375l-5.6875 0l0 -17.140625zm2.1875 7.265625l2.859375 0q0.984375 0 1.640625 -0.171875q0.6718769 -0.171875 1.0781269 -0.515625q0.421875 -0.34375 0.59375 -0.859375q0.1875 -0.53125 0.1875 -1.21875q0 -1.40625 -0.90625 -2.015625q-0.8906269 -0.609375 -2.843752 -0.609375l-2.609375 0l0 5.390625zm0 1.828125l0 6.1875l3.109375 0q1.03125 0 1.734375 -0.234375q0.7031269 -0.234375 1.1250019 -0.65625q0.421875 -0.421875 0.609375 -1.0q0.1875 -0.59375 0.1875 -1.3125q0 -0.65625 -0.1875 -1.203125q-0.1875 -0.5625 -0.640625 -0.953125q-0.4375 -0.390625 -1.1718769 -0.609375q-0.71875 -0.21875 -1.796875 -0.21875l-2.96875 0z" fill-rule="nonzero"/><path fill="#000000" fill-opacity="0.0" d="m111.77979 40.535072l-35.74803 27.748032" fill-rule="evenodd"/><path stroke="#000000" stroke-width="2.0" stroke-linejoin="round" stroke-linecap="butt" d="m111.77979 40.535072l-26.268616 20.389996" fill-rule="evenodd"/><path fill="#000000" stroke="#000000" stroke-width="2.0" stroke-linecap="butt" d="m83.485596 58.31549l-5.1441727 8.17482l9.195335 -2.9556656z" fill-rule="evenodd"/><path fill="#000000" fill-opacity="0.0" d="m76.01952 96.53507l17.889763 21.921257" fill-rule="evenodd"/><path stroke="#000000" stroke-width="2.0" stroke-linejoin="round" stroke-linecap="butt" d="m76.01952 96.53507l10.302551 12.62426" fill-rule="evenodd"/><path fill="#000000" stroke="#000000" stroke-width="2.0" stroke-linecap="butt" d="m83.76272 111.24801l8.297943 4.9431076l-3.179222 -9.1204605z" fill-rule="evenodd"/><path fill="#000000" fill-opacity="0.0" d="m140.01952 40.535072l35.74803 27.748032" fill-rule="evenodd"/><path stroke="#000000" stroke-width="2.0" stroke-linejoin="round" stroke-linecap="butt" d="m140.01952 40.535072l26.268631 20.389996" fill-rule="evenodd"/><path fill="#000000" stroke="#000000" stroke-width="2.0" stroke-linecap="butt" d="m164.26256 63.534645l9.195328 2.9556656l-5.144165 -8.17482z" fill-rule="evenodd"/><path fill="#000000" fill-opacity="0.0" d="m175.77979 96.53507l-17.889755 21.921257" fill-rule="evenodd"/><path stroke="#000000" stroke-width="2.0" stroke-linejoin="round" stroke-linecap="butt" d="m175.7798 96.53507l-10.302567 12.62426" fill-rule="evenodd"/><path fill="#000000" stroke="#000000" stroke-width="2.0" stroke-linecap="butt" d="m162.91788 107.070656l-3.1792145 9.1204605l8.297943 -4.9431076z" fill-rule="evenodd"/><path fill="#000000" fill-opacity="0.0" d="m47.779793 96.53507l-17.889765 21.921257" fill-rule="evenodd"/><path stroke="#000000" stroke-width="2.0" stroke-linejoin="round" stroke-linecap="butt" d="m47.77979 96.53507l-10.302551 12.62426" fill-rule="evenodd"/><path fill="#000000" stroke="#000000" stroke-width="2.0" stroke-linecap="butt" d="m34.917877 107.070656l-3.179224 9.1204605l8.297941 -4.943115z" fill-rule="evenodd"/><path fill="#000000" fill-opacity="0.0" d="m73.93115 138.4152c0 -11.028297 8.940201 -19.968506 19.968506 -19.968506c5.2959747 0 10.375038 2.1038208 14.119865 5.8486404c3.7448196 3.7448196 5.848633 8.823891 5.848633 14.119865c0 11.028305 -8.940201 19.968506 -19.968498 19.968506c-11.028305 0 -19.968506 -8.940201 -19.968506 -19.968506z" fill-rule="evenodd"/><path stroke="#000000" stroke-width="2.0" stroke-linejoin="round" stroke-linecap="butt" d="m73.93115 138.4152c0 -11.028297 8.940201 -19.968506 19.968506 -19.968506c5.2959747 0 10.375038 2.1038208 14.119865 5.8486404c3.7448196 3.7448196 5.848633 8.823891 5.848633 14.119865c0 11.028305 -8.940201 19.968506 -19.968498 19.968506c-11.028305 0 -19.968506 -8.940201 -19.968506 -19.968506z" fill-rule="evenodd"/><path fill="#000000" d="m100.6438 138.22083q0 2.171875 -0.5625 3.8125q-0.5625 1.625 -1.625 2.71875q-1.0625 1.09375 -2.625 1.65625q-1.546875 0.546875 -3.515625 0.546875l-4.296875 0l0 -17.140625l4.78125 0q1.78125 0 3.234375 0.546875q1.453125 0.53125 2.46875 1.59375q1.03125 1.0625 1.578125 2.640625q0.5625 1.5625 0.5625 3.625zm-2.3125 0.078125q0 -1.71875 -0.390625 -2.96875q-0.375 -1.25 -1.125 -2.046875q-0.734375 -0.8125 -1.8125 -1.203125q-1.078125 -0.390625 -2.4375 -0.390625l-2.359375 0l0 13.390625l1.890625 0q3.09375 0 4.65625 -1.703125q1.578125 -1.71875 1.578125 -5.078125z" fill-rule="nonzero"/><path fill="#000000" fill-opacity="0.0" d="m841.93115 26.415207c0 -11.028301 8.940186 -19.968504 19.968506 -19.968504c5.2959595 0 10.375061 2.1038184 14.119873 5.848639c3.744812 3.7448215 5.848633 8.823889 5.848633 14.119865c0 11.028301 -8.940186 19.968502 -19.968506 19.968502c-11.02832 0 -19.968506 -8.940201 -19.968506 -19.968502z" fill-rule="evenodd"/><path stroke="#000000" stroke-width="2.0" stroke-linejoin="round" stroke-linecap="butt" d="m841.93115 26.415207c0 -11.028301 8.940186 -19.968504 19.968506 -19.968504c5.2959595 0 10.375061 2.1038184 14.119873 5.848639c3.744812 3.7448215 5.848633 8.823889 5.848633 14.119865c0 11.028301 -8.940186 19.968502 -19.968506 19.968502c-11.02832 0 -19.968506 -8.940201 -19.968506 -19.968502z" fill-rule="evenodd"/><path fill="#000000" d="m868.6438 26.22083q0 2.171875 -0.5625 3.8125q-0.5625 1.625 -1.625 2.718752q-1.0625 1.09375 -2.625 1.65625q-1.546875 0.546875 -3.515625 0.546875l-4.296875 0l0 -17.140627l4.78125 0q1.78125 0 3.234375 0.546875q1.453125 0.53125 2.46875 1.59375q1.03125 1.0625 1.578125 2.640625q0.5625 1.5625 0.5625 3.625zm-2.3125 0.078125q0 -1.71875 -0.390625 -2.96875q-0.375 -1.25 -1.125 -2.046875q-0.734375 -0.8125 -1.8125 -1.203125q-1.078125 -0.390625 -2.4375 -0.390625l-2.359375 0l0 13.390627l1.890625 0q3.09375 0 4.65625 -1.7031269q1.578125 -1.71875 1.578125 -5.078125z" fill-rule="nonzero"/><path fill="#000000" fill-opacity="0.0" d="m777.93115 82.41521c0 -11.028297 8.940186 -19.968506 19.968506 -19.968506c5.2959595 0 10.375061 2.1038208 14.119873 5.8486404c3.744812 3.7448196 5.848633 8.823891 5.848633 14.119865c0 11.028297 -8.940186 19.968506 -19.968506 19.968506c-11.02832 0 -19.968506 -8.940208 -19.968506 -19.968506z" fill-rule="evenodd"/><path stroke="#000000" stroke-width="2.0" stroke-linejoin="round" stroke-linecap="butt" d="m777.93115 82.41521c0 -11.028297 8.940186 -19.968506 19.968506 -19.968506c5.2959595 0 10.375061 2.1038208 14.119873 5.8486404c3.744812 3.7448196 5.848633 8.823891 5.848633 14.119865c0 11.028297 -8.940186 19.968506 -19.968506 19.968506c-11.02832 0 -19.968506 -8.940208 -19.968506 -19.968506z" fill-rule="evenodd"/><path fill="#000000" d="m792.77466 73.81458l4.6875 0q1.5 0 2.640625 0.234375q1.140625 0.234375 1.90625 0.75q0.765625 0.5 1.15625 1.328125q0.390625 0.828125 0.390625 2.03125q0 0.71875 -0.234375 1.359375q-0.234375 0.625 -0.671875 1.109375q-0.421875 0.484375 -1.0625 0.8125q-0.640625 0.3125 -1.453125 0.421875l0 0.109375q0.8125 0.140625 1.515625 0.40625q0.71875 0.265625 1.234375 0.734375q0.53125 0.453125 0.828125 1.15625q0.3125 0.703125 0.3125 1.71875q0 1.171875 -0.375 2.09375q-0.375 0.921875 -1.109375 1.5625q-0.71875 0.625 -1.75 0.96875q-1.03125 0.34375 -2.328125 0.34375l-5.6875 0l0 -17.140625zm2.1875 7.265625l2.859375 0q0.984375 0 1.640625 -0.171875q0.671875 -0.171875 1.078125 -0.515625q0.421875 -0.34375 0.59375 -0.859375q0.1875 -0.53125 0.1875 -1.21875q0 -1.40625 -0.90625 -2.015625q-0.890625 -0.609375 -2.84375 -0.609375l-2.609375 0l0 5.390625zm0 1.828125l0 6.1875l3.109375 0q1.03125 0 1.734375 -0.234375q0.703125 -0.234375 1.125 -0.65625q0.421875 -0.421875 0.609375 -1.0q0.1875 -0.59375 0.1875 -1.3125q0 -0.65625 -0.1875 -1.203125q-0.1875 -0.5625 -0.640625 -0.953125q-0.4375 -0.390625 -1.171875 -0.609375q-0.71875 -0.21875 -1.796875 -0.21875l-2.96875 0z" fill-rule="nonzero"/><path fill="#000000" fill-opacity="0.0" d="m905.93115 82.41521c0 -11.028297 8.940186 -19.968506 19.968506 -19.968506c5.2959595 0 10.375061 2.1038208 14.119873 5.8486404c3.744812 3.7448196 5.848633 8.823891 5.848633 14.119865c0 11.028297 -8.940186 19.968506 -19.968506 19.968506c-11.02832 0 -19.968506 -8.940208 -19.968506 -19.968506z" fill-rule="evenodd"/><path stroke="#000000" stroke-width="2.0" stroke-linejoin="round" stroke-linecap="butt" d="m905.93115 82.41521c0 -11.028297 8.940186 -19.968506 19.968506 -19.968506c5.2959595 0 10.375061 2.1038208 14.119873 5.8486404c3.744812 3.7448196 5.848633 8.823891 5.848633 14.119865c0 11.028297 -8.940186 19.968506 -19.968506 19.968506c-11.02832 0 -19.968506 -8.940208 -19.968506 -19.968506z" fill-rule="evenodd"/><path fill="#000000" d="m924.52075 90.95521l-2.1875 0l0 -17.140625l8.90625 0l0 1.921875l-6.71875 0l0 6.046875l6.265625 0l0 1.921875l-6.265625 0l0 7.25z" fill-rule="nonzero"/><path fill="#000000" fill-opacity="0.0" d="m873.93115 138.4152c0 -11.028297 8.940186 -19.968506 19.968506 -19.968506c5.2959595 0 10.375061 2.1038208 14.119873 5.8486404c3.744812 3.7448196 5.848633 8.823891 5.848633 14.119865c0 11.028305 -8.940186 19.968506 -19.968506 19.968506c-11.02832 0 -19.968506 -8.940201 -19.968506 -19.968506z" fill-rule="evenodd"/><path stroke="#000000" stroke-width="2.0" stroke-linejoin="round" stroke-linecap="butt" d="m873.93115 138.4152c0 -11.028297 8.940186 -19.968506 19.968506 -19.968506c5.2959595 0 10.375061 2.1038208 14.119873 5.8486404c3.744812 3.7448196 5.848633 8.823891 5.848633 14.119865c0 11.028305 -8.940186 19.968506 -19.968506 19.968506c-11.02832 0 -19.968506 -8.940201 -19.968506 -19.968506z" fill-rule="evenodd"/><path fill="#000000" d="m898.80005 146.9552l-8.90625 0l0 -17.140625l8.90625 0l0 1.921875l-6.71875 0l0 5.296875l6.265625 0l0 1.90625l-6.265625 0l0 6.09375l6.71875 0l0 1.921875z" fill-rule="nonzero"/><path fill="#000000" fill-opacity="0.0" d="m937.93115 138.4152c0 -11.028297 8.940186 -19.968506 19.968506 -19.968506c5.2959595 0 10.375061 2.1038208 14.119873 5.8486404c3.744812 3.7448196 5.848633 8.823891 5.848633 14.119865c0 11.028305 -8.940186 19.968506 -19.968506 19.968506c-11.02832 0 -19.968506 -8.940201 -19.968506 -19.968506z" fill-rule="evenodd"/><path stroke="#000000" stroke-width="2.0" stroke-linejoin="round" stroke-linecap="butt" d="m937.93115 138.4152c0 -11.028297 8.940186 -19.968506 19.968506 -19.968506c5.2959595 0 10.375061 2.1038208 14.119873 5.8486404c3.744812 3.7448196 5.848633 8.823891 5.848633 14.119865c0 11.028305 -8.940186 19.968506 -19.968506 19.968506c-11.02832 0 -19.968506 -8.940201 -19.968506 -19.968506z" fill-rule="evenodd"/><path fill="#000000" d="m958.79224 137.90833l5.671875 0l0 8.40625q-0.65625 0.203125 -1.3125 0.375q-0.65625 0.15625 -1.34375 0.265625q-0.6875 0.125 -1.453125 0.171875q-0.765625 0.0625 -1.640625 0.0625q-1.84375 0 -3.265625 -0.609375q-1.40625 -0.625 -2.390625 -1.765625q-0.96875 -1.140625 -1.46875 -2.765625q-0.5 -1.640625 -0.5 -3.6875q0 -2.015625 0.546875 -3.640625q0.5625 -1.625 1.625 -2.765625q1.078125 -1.15625 2.640625 -1.765625q1.5625 -0.609375 3.5625 -0.609375q1.296875 0 2.484375 0.265625q1.203125 0.25 2.234375 0.734375l-0.84375 1.90625q-0.421875 -0.203125 -0.90625 -0.375q-0.484375 -0.1875 -1.0 -0.3125q-0.515625 -0.140625 -1.0625 -0.21875q-0.546875 -0.078125 -1.078125 -0.078125q-1.4375 0 -2.546875 0.46875q-1.09375 0.46875 -1.84375 1.359375q-0.734375 0.890625 -1.125 2.171875q-0.375 1.28125 -0.375 2.890625q0 1.515625 0.3125 2.78125q0.328125 1.265625 1.03125 2.1875q0.703125 0.90625 1.8125 1.421875q1.109375 0.5 2.6875 0.5q0.515625 0 0.9375 -0.03125q0.4375 -0.03125 0.796875 -0.078125q0.359375 -0.046875 0.671875 -0.109375q0.328125 -0.0625 0.640625 -0.125l0 -5.109375l-3.5 0l0 -1.921875z" fill-rule="nonzero"/><path fill="#000000" fill-opacity="0.0" d="m745.93115 138.4152c0 -11.028297 8.940186 -19.968506 19.968506 -19.968506c5.2959595 0 10.375061 2.1038208 14.119873 5.8486404c3.744812 3.7448196 5.848633 8.823891 5.848633 14.119865c0 11.028305 -8.940186 19.968506 -19.968506 19.968506c-11.02832 0 -19.968506 -8.940201 -19.968506 -19.968506z" fill-rule="evenodd"/><path stroke="#000000" stroke-width="2.0" stroke-linejoin="round" stroke-linecap="butt" d="m745.93115 138.4152c0 -11.028297 8.940186 -19.968506 19.968506 -19.968506c5.2959595 0 10.375061 2.1038208 14.119873 5.8486404c3.744812 3.7448196 5.848633 8.823891 5.848633 14.119865c0 11.028305 -8.940186 19.968506 -19.968506 19.968506c-11.02832 0 -19.968506 -8.940201 -19.968506 -19.968506z" fill-rule="evenodd"/><path fill="#000000" d="m770.9641 146.9552l-1.875 -5.3125l-6.375 0l-1.90625 5.3125l-2.203125 0l6.296875 -17.203125l1.984375 0l6.3125 17.203125l-2.234375 0zm-2.5625 -7.25l-1.734375 -4.96875q-0.0625 -0.203125 -0.171875 -0.5q-0.09375 -0.3125 -0.203125 -0.65625q-0.109375 -0.359375 -0.21875 -0.734375q-0.09375 -0.390625 -0.1875 -0.75q-0.078125 0.359375 -0.1875 0.75q-0.109375 0.390625 -0.21875 0.75q-0.09375 0.34375 -0.203125 0.65625q-0.09375 0.296875 -0.171875 0.484375l-1.6875 4.96875l4.984375 0z" fill-rule="nonzero"/><path fill="#000000" fill-opacity="0.0" d="m847.7798 40.535072l-35.748047 27.748032" fill-rule="evenodd"/><path stroke="#000000" stroke-width="2.0" stroke-linejoin="round" stroke-linecap="butt" d="m847.7798 40.535072l-26.268616 20.389996" fill-rule="evenodd"/><path fill="#000000" stroke="#000000" stroke-width="2.0" stroke-linecap="butt" d="m819.4856 58.31549l-5.144165 8.17482l9.1953125 -2.9556656z" fill-rule="evenodd"/><path fill="#000000" fill-opacity="0.0" d="m812.01953 96.53507l17.88977 21.921257" fill-rule="evenodd"/><path stroke="#000000" stroke-width="2.0" stroke-linejoin="round" stroke-linecap="butt" d="m812.01953 96.53507l10.302551 12.62426" fill-rule="evenodd"/><path fill="#000000" stroke="#000000" stroke-width="2.0" stroke-linecap="butt" d="m819.7627 111.24801l8.297974 4.9431076l-3.1792603 -9.1204605z" fill-rule="evenodd"/><path fill="#000000" fill-opacity="0.0" d="m876.01953 40.535072l35.748047 27.748032" fill-rule="evenodd"/><path stroke="#000000" stroke-width="2.0" stroke-linejoin="round" stroke-linecap="butt" d="m876.01953 40.535072l26.268616 20.389996" fill-rule="evenodd"/><path fill="#000000" stroke="#000000" stroke-width="2.0" stroke-linecap="butt" d="m900.2626 63.534645l9.1953125 2.9556656l-5.144165 -8.17482z" fill-rule="evenodd"/><path fill="#000000" fill-opacity="0.0" d="m911.7798 96.53507l-17.88977 21.921257" fill-rule="evenodd"/><path stroke="#000000" stroke-width="2.0" stroke-linejoin="round" stroke-linecap="butt" d="m911.7798 96.53507l-10.302612 12.62426" fill-rule="evenodd"/><path fill="#000000" stroke="#000000" stroke-width="2.0" stroke-linecap="butt" d="m898.91785 107.070656l-3.1791992 9.1204605l8.297913 -4.9431076z" fill-rule="evenodd"/><path fill="#000000" fill-opacity="0.0" d="m940.01953 96.53507l17.88977 21.921257" fill-rule="evenodd"/><path stroke="#000000" stroke-width="2.0" stroke-linejoin="round" stroke-linecap="butt" d="m940.01953 96.53507l10.302551 12.62426" fill-rule="evenodd"/><path fill="#000000" stroke="#000000" stroke-width="2.0" stroke-linecap="butt" d="m947.7627 111.24801l8.297974 4.9431076l-3.1792603 -9.1204605z" fill-rule="evenodd"/><path fill="#000000" fill-opacity="0.0" d="m783.7798 96.53507l-17.88977 21.921257" fill-rule="evenodd"/><path stroke="#000000" stroke-width="2.0" stroke-linejoin="round" stroke-linecap="butt" d="m783.7798 96.53507l-10.302612 12.62426" fill-rule="evenodd"/><path fill="#000000" stroke="#000000" stroke-width="2.0" stroke-linecap="butt" d="m770.91785 107.070656l-3.1791992 9.1204605l8.297913 -4.9431076z" fill-rule="evenodd"/><path fill="#000000" fill-opacity="0.0" d="m809.93115 138.4152c0 -11.028297 8.940186 -19.968506 19.968506 -19.968506c5.2959595 0 10.375061 2.1038208 14.119873 5.8486404c3.744812 3.7448196 5.848633 8.823891 5.848633 14.119865c0 11.028305 -8.940186 19.968506 -19.968506 19.968506c-11.02832 0 -19.968506 -8.940201 -19.968506 -19.968506z" fill-rule="evenodd"/><path stroke="#000000" stroke-width="2.0" stroke-linejoin="round" stroke-linecap="butt" d="m809.93115 138.4152c0 -11.028297 8.940186 -19.968506 19.968506 -19.968506c5.2959595 0 10.375061 2.1038208 14.119873 5.8486404c3.744812 3.7448196 5.848633 8.823891 5.848633 14.119865c0 11.028305 -8.940186 19.968506 -19.968506 19.968506c-11.02832 0 -19.968506 -8.940201 -19.968506 -19.968506z" fill-rule="evenodd"/><path fill="#000000" d="m831.9602 131.50208q-1.25 0 -2.28125 0.46875q-1.015625 0.46875 -1.734375 1.359375q-0.71875 0.890625 -1.109375 2.171875q-0.390625 1.28125 -0.390625 2.890625q0 1.640625 0.34375 2.9375q0.34375 1.28125 1.03125 2.15625q0.6875 0.875 1.71875 1.34375q1.03125 0.453125 2.421875 0.453125q1.046875 0 1.984375 -0.203125q0.9375 -0.21875 1.84375 -0.484375l0 1.90625q-0.453125 0.171875 -0.921875 0.3125q-0.453125 0.125 -0.953125 0.203125q-0.484375 0.09375 -1.0625 0.125q-0.5625 0.046875 -1.25 0.046875q-1.921875 0 -3.328125 -0.625q-1.40625 -0.640625 -2.328125 -1.796875q-0.921875 -1.171875 -1.375 -2.796875q-0.4375 -1.625 -0.4375 -3.609375q0 -1.9375 0.5 -3.546875q0.515625 -1.625 1.5 -2.78125q1.0 -1.171875 2.453125 -1.8125q1.46875 -0.640625 3.375 -0.640625q1.265625 0 2.40625 0.265625q1.15625 0.25 2.078125 0.734375l-0.90625 1.828125q-0.75 -0.375 -1.625 -0.640625q-0.859375 -0.265625 -1.953125 -0.265625z" fill-rule="nonzero"/><path fill="#000000" fill-opacity="0.0" d="m473.93115 26.415207c0 -11.028301 8.940216 -19.968504 19.968506 -19.968504c5.2959595 0 10.3750305 2.1038184 14.119873 5.848639c3.744812 3.7448215 5.848633 8.823889 5.848633 14.119865c0 11.028301 -8.940216 19.968502 -19.968506 19.968502c-11.02829 0 -19.968506 -8.940201 -19.968506 -19.968502z" fill-rule="evenodd"/><path stroke="#000000" stroke-width="2.0" stroke-linejoin="round" stroke-linecap="butt" d="m473.93115 26.415207c0 -11.028301 8.940216 -19.968504 19.968506 -19.968504c5.2959595 0 10.3750305 2.1038184 14.119873 5.848639c3.744812 3.7448215 5.848633 8.823889 5.848633 14.119865c0 11.028301 -8.940216 19.968502 -19.968506 19.968502c-11.02829 0 -19.968506 -8.940201 -19.968506 -19.968502z" fill-rule="evenodd"/><path fill="#000000" d="m498.80005 34.955208l-8.90625 0l0 -17.140627l8.90625 0l0 1.921875l-6.71875 0l0 5.296875l6.265625 0l0 1.90625l-6.265625 0l0 6.093752l6.71875 0l0 1.921875z" fill-rule="nonzero"/><path fill="#000000" fill-opacity="0.0" d="m409.93115 82.41521c0 -11.028297 8.940216 -19.968506 19.968506 -19.968506c5.2959595 0 10.3750305 2.1038208 14.119873 5.8486404c3.744812 3.7448196 5.848633 8.823891 5.848633 14.119865c0 11.028297 -8.940216 19.968506 -19.968506 19.968506c-11.02829 0 -19.968506 -8.940208 -19.968506 -19.968506z" fill-rule="evenodd"/><path stroke="#000000" stroke-width="2.0" stroke-linejoin="round" stroke-linecap="butt" d="m409.93115 82.41521c0 -11.028297 8.940216 -19.968506 19.968506 -19.968506c5.2959595 0 10.3750305 2.1038208 14.119873 5.8486404c3.744812 3.7448196 5.848633 8.823891 5.848633 14.119865c0 11.028297 -8.940216 19.968506 -19.968506 19.968506c-11.02829 0 -19.968506 -8.940208 -19.968506 -19.968506z" fill-rule="evenodd"/><path fill="#000000" d="m431.9602 75.50208q-1.25 0 -2.28125 0.46875q-1.015625 0.46875 -1.734375 1.359375q-0.71875 0.890625 -1.109375 2.171875q-0.390625 1.28125 -0.390625 2.890625q0 1.640625 0.34375 2.9375q0.34375 1.28125 1.03125 2.15625q0.6875 0.875 1.71875 1.34375q1.03125 0.453125 2.421875 0.453125q1.046875 0 1.984375 -0.203125q0.9375 -0.21875 1.84375 -0.484375l0 1.90625q-0.453125 0.171875 -0.921875 0.3125q-0.453125 0.125 -0.953125 0.203125q-0.484375 0.09375 -1.0625 0.125q-0.5625 0.046875 -1.25 0.046875q-1.921875 0 -3.328125 -0.625q-1.40625 -0.640625 -2.328125 -1.796875q-0.921875 -1.171875 -1.375 -2.796875q-0.4375 -1.625 -0.4375 -3.609375q0 -1.9375 0.5 -3.546875q0.515625 -1.625 1.5 -2.78125q1.0 -1.171875 2.453125 -1.8125q1.46875 -0.640625 3.375 -0.640625q1.265625 0 2.40625 0.265625q1.15625 0.25 2.078125 0.734375l-0.90625 1.828125q-0.75 -0.375 -1.625 -0.640625q-0.859375 -0.265625 -1.953125 -0.265625z" fill-rule="nonzero"/><path fill="#000000" fill-opacity="0.0" d="m537.93115 82.41521c0 -11.028297 8.940186 -19.968506 19.968506 -19.968506c5.2959595 0 10.375061 2.1038208 14.119873 5.8486404c3.744812 3.7448196 5.848633 8.823891 5.848633 14.119865c0 11.028297 -8.940186 19.968506 -19.968506 19.968506c-11.02832 0 -19.968506 -8.940208 -19.968506 -19.968506z" fill-rule="evenodd"/><path stroke="#000000" stroke-width="2.0" stroke-linejoin="round" stroke-linecap="butt" d="m537.93115 82.41521c0 -11.028297 8.940186 -19.968506 19.968506 -19.968506c5.2959595 0 10.375061 2.1038208 14.119873 5.8486404c3.744812 3.7448196 5.848633 8.823891 5.848633 14.119865c0 11.028297 -8.940186 19.968506 -19.968506 19.968506c-11.02832 0 -19.968506 -8.940208 -19.968506 -19.968506z" fill-rule="evenodd"/><path fill="#000000" d="m558.79224 81.90833l5.671875 0l0 8.40625q-0.65625 0.203125 -1.3125 0.375q-0.65625 0.15625 -1.34375 0.265625q-0.6875 0.125 -1.453125 0.171875q-0.765625 0.0625 -1.640625 0.0625q-1.84375 0 -3.265625 -0.609375q-1.40625 -0.625 -2.390625 -1.765625q-0.96875 -1.140625 -1.46875 -2.765625q-0.5 -1.640625 -0.5 -3.6875q0 -2.015625 0.546875 -3.640625q0.5625 -1.625 1.625 -2.765625q1.078125 -1.15625 2.640625 -1.765625q1.5625 -0.609375 3.5625 -0.609375q1.296875 0 2.484375 0.265625q1.203125 0.25 2.234375 0.734375l-0.84375 1.90625q-0.421875 -0.203125 -0.90625 -0.375q-0.484375 -0.1875 -1.0 -0.3125q-0.515625 -0.140625 -1.0625 -0.21875q-0.546875 -0.078125 -1.078125 -0.078125q-1.4375 0 -2.546875 0.46875q-1.09375 0.46875 -1.84375 1.359375q-0.734375 0.890625 -1.125 2.171875q-0.375 1.28125 -0.375 2.890625q0 1.515625 0.3125 2.78125q0.328125 1.265625 1.03125 2.1875q0.703125 0.90625 1.8125 1.421875q1.109375 0.5 2.6875 0.5q0.515625 0 0.9375 -0.03125q0.4375 -0.03125 0.796875 -0.078125q0.359375 -0.046875 0.671875 -0.109375q0.328125 -0.0625 0.640625 -0.125l0 -5.109375l-3.5 0l0 -1.921875z" fill-rule="nonzero"/><path fill="#000000" fill-opacity="0.0" d="m505.93115 138.4152c0 -11.028297 8.940186 -19.968506 19.968506 -19.968506c5.2959595 0 10.375061 2.1038208 14.119873 5.8486404c3.744812 3.7448196 5.848633 8.823891 5.848633 14.119865c0 11.028305 -8.940186 19.968506 -19.968506 19.968506c-11.02832 0 -19.968506 -8.940201 -19.968506 -19.968506z" fill-rule="evenodd"/><path stroke="#000000" stroke-width="2.0" stroke-linejoin="round" stroke-linecap="butt" d="m505.93115 138.4152c0 -11.028297 8.940186 -19.968506 19.968506 -19.968506c5.2959595 0 10.375061 2.1038208 14.119873 5.8486404c3.744812 3.7448196 5.848633 8.823891 5.848633 14.119865c0 11.028305 -8.940186 19.968506 -19.968506 19.968506c-11.02832 0 -19.968506 -8.940201 -19.968506 -19.968506z" fill-rule="evenodd"/><path fill="#000000" d="m524.52075 146.9552l-2.1875 0l0 -17.140625l8.90625 0l0 1.921875l-6.71875 0l0 6.046875l6.265625 0l0 1.921875l-6.265625 0l0 7.25z" fill-rule="nonzero"/><path fill="#000000" fill-opacity="0.0" d="m377.93115 138.4152c0 -11.028297 8.940216 -19.968506 19.968506 -19.968506c5.2959595 0 10.3750305 2.1038208 14.119873 5.8486404c3.744812 3.7448196 5.848633 8.823891 5.848633 14.119865c0 11.028305 -8.940216 19.968506 -19.968506 19.968506c-11.02829 0 -19.968506 -8.940201 -19.968506 -19.968506z" fill-rule="evenodd"/><path stroke="#000000" stroke-width="2.0" stroke-linejoin="round" stroke-linecap="butt" d="m377.93115 138.4152c0 -11.028297 8.940216 -19.968506 19.968506 -19.968506c5.2959595 0 10.3750305 2.1038208 14.119873 5.8486404c3.744812 3.7448196 5.848633 8.823891 5.848633 14.119865c0 11.028305 -8.940216 19.968506 -19.968506 19.968506c-11.02829 0 -19.968506 -8.940201 -19.968506 -19.968506z" fill-rule="evenodd"/><path fill="#000000" d="m392.77466 129.81458l4.6875 0q1.5 0 2.640625 0.234375q1.140625 0.234375 1.90625 0.75q0.765625 0.5 1.15625 1.328125q0.390625 0.828125 0.390625 2.03125q0 0.71875 -0.234375 1.359375q-0.234375 0.625 -0.671875 1.109375q-0.421875 0.484375 -1.0625 0.8125q-0.640625 0.3125 -1.453125 0.421875l0 0.109375q0.8125 0.140625 1.515625 0.40625q0.71875 0.265625 1.234375 0.734375q0.53125 0.453125 0.828125 1.15625q0.3125 0.703125 0.3125 1.71875q0 1.171875 -0.375 2.09375q-0.375 0.921875 -1.109375 1.5625q-0.71875 0.625 -1.75 0.96875q-1.03125 0.34375 -2.328125 0.34375l-5.6875 0l0 -17.140625zm2.1875 7.265625l2.859375 0q0.984375 0 1.640625 -0.171875q0.671875 -0.171875 1.078125 -0.515625q0.421875 -0.34375 0.59375 -0.859375q0.1875 -0.53125 0.1875 -1.21875q0 -1.40625 -0.90625 -2.015625q-0.890625 -0.609375 -2.84375 -0.609375l-2.609375 0l0 5.390625zm0 1.828125l0 6.1875l3.109375 0q1.03125 0 1.734375 -0.234375q0.703125 -0.234375 1.125 -0.65625q0.421875 -0.421875 0.609375 -1.0q0.1875 -0.59375 0.1875 -1.3125q0 -0.65625 -0.1875 -1.203125q-0.1875 -0.5625 -0.640625 -0.953125q-0.4375 -0.390625 -1.171875 -0.609375q-0.71875 -0.21875 -1.796875 -0.21875l-2.96875 0z" fill-rule="nonzero"/><path fill="#000000" fill-opacity="0.0" d="m479.7798 40.535072l-35.748016 27.748032" fill-rule="evenodd"/><path stroke="#000000" stroke-width="2.0" stroke-linejoin="round" stroke-linecap="butt" d="m479.7798 40.535072l-26.268616 20.389996" fill-rule="evenodd"/><path fill="#000000" stroke="#000000" stroke-width="2.0" stroke-linecap="butt" d="m451.48557 58.31549l-5.144165 8.17482l9.195343 -2.9556656z" fill-rule="evenodd"/><path fill="#000000" fill-opacity="0.0" d="m444.01953 96.53507l17.88974 21.921257" fill-rule="evenodd"/><path stroke="#000000" stroke-width="2.0" stroke-linejoin="round" stroke-linecap="butt" d="m444.01953 96.53507l10.302551 12.62426" fill-rule="evenodd"/><path fill="#000000" stroke="#000000" stroke-width="2.0" stroke-linecap="butt" d="m451.76273 111.24801l8.297943 4.9431076l-3.1792297 -9.1204605z" fill-rule="evenodd"/><path fill="#000000" fill-opacity="0.0" d="m508.01953 40.535072l35.748047 27.748032" fill-rule="evenodd"/><path stroke="#000000" stroke-width="2.0" stroke-linejoin="round" stroke-linecap="butt" d="m508.01953 40.535072l26.268616 20.389996" fill-rule="evenodd"/><path fill="#000000" stroke="#000000" stroke-width="2.0" stroke-linecap="butt" d="m532.2626 63.534645l9.1953125 2.9556656l-5.144165 -8.17482z" fill-rule="evenodd"/><path fill="#000000" fill-opacity="0.0" d="m543.7798 96.53507l-17.88977 21.921257" fill-rule="evenodd"/><path stroke="#000000" stroke-width="2.0" stroke-linejoin="round" stroke-linecap="butt" d="m543.7798 96.53507l-10.302612 12.62426" fill-rule="evenodd"/><path fill="#000000" stroke="#000000" stroke-width="2.0" stroke-linecap="butt" d="m530.91785 107.070656l-3.1791992 9.1204605l8.297913 -4.9431076z" fill-rule="evenodd"/><path fill="#000000" fill-opacity="0.0" d="m415.7798 96.53507l-17.88977 21.921257" fill-rule="evenodd"/><path stroke="#000000" stroke-width="2.0" stroke-linejoin="round" stroke-linecap="butt" d="m415.7798 96.53507l-10.302582 12.62426" fill-rule="evenodd"/><path fill="#000000" stroke="#000000" stroke-width="2.0" stroke-linecap="butt" d="m402.91785 107.070656l-3.1791992 9.1204605l8.297943 -4.9431076z" fill-rule="evenodd"/><path fill="#000000" fill-opacity="0.0" d="m441.93115 138.4152c0 -11.028297 8.940216 -19.968506 19.968506 -19.968506c5.2959595 0 10.3750305 2.1038208 14.119873 5.8486404c3.744812 3.7448196 5.848633 8.823891 5.848633 14.119865c0 11.028305 -8.940216 19.968506 -19.968506 19.968506c-11.02829 0 -19.968506 -8.940201 -19.968506 -19.968506z" fill-rule="evenodd"/><path stroke="#000000" stroke-width="2.0" stroke-linejoin="round" stroke-linecap="butt" d="m441.93115 138.4152c0 -11.028297 8.940216 -19.968506 19.968506 -19.968506c5.2959595 0 10.3750305 2.1038208 14.119873 5.8486404c3.744812 3.7448196 5.848633 8.823891 5.848633 14.119865c0 11.028305 -8.940216 19.968506 -19.968506 19.968506c-11.02829 0 -19.968506 -8.940201 -19.968506 -19.968506z" fill-rule="evenodd"/><path fill="#000000" d="m468.6438 138.22083q0 2.171875 -0.5625 3.8125q-0.5625 1.625 -1.625 2.71875q-1.0625 1.09375 -2.625 1.65625q-1.546875 0.546875 -3.515625 0.546875l-4.296875 0l0 -17.140625l4.78125 0q1.78125 0 3.234375 0.546875q1.453125 0.53125 2.46875 1.59375q1.03125 1.0625 1.578125 2.640625q0.5625 1.5625 0.5625 3.625zm-2.3125 0.078125q0 -1.71875 -0.390625 -2.96875q-0.375 -1.25 -1.125 -2.046875q-0.734375 -0.8125 -1.8125 -1.203125q-1.078125 -0.390625 -2.4375 -0.390625l-2.359375 0l0 13.390625l1.890625 0q3.09375 0 4.65625 -1.703125q1.578125 -1.71875 1.578125 -5.078125z" fill-rule="nonzero"/><path fill="#000000" fill-opacity="0.0" d="m349.65787 190.68849c0 -11.02829 8.940186 -19.96849 19.968506 -19.96849c5.2959595 0 10.3750305 2.1038055 14.119843 5.848633c3.7448425 3.7448273 5.8486633 8.823883 5.8486633 14.119858c0 11.028305 -8.940216 19.968506 -19.968506 19.968506c-11.02832 0 -19.968506 -8.940201 -19.968506 -19.968506z" fill-rule="evenodd"/><path stroke="#000000" stroke-width="2.0" stroke-linejoin="round" stroke-linecap="butt" d="m349.65787 190.68849c0 -11.02829 8.940186 -19.96849 19.968506 -19.96849c5.2959595 0 10.3750305 2.1038055 14.119843 5.848633c3.7448425 3.7448273 5.8486633 8.823883 5.8486633 14.119858c0 11.028305 -8.940216 19.968506 -19.968506 19.968506c-11.02832 0 -19.968506 -8.940201 -19.968506 -19.968506z" fill-rule="evenodd"/><path fill="#000000" d="m374.69083 199.2285l-1.875 -5.3125l-6.375 0l-1.90625 5.3125l-2.203125 0l6.296875 -17.203125l1.984375 0l6.3125 17.203125l-2.234375 0zm-2.5625 -7.25l-1.734375 -4.96875q-0.0625 -0.203125 -0.171875 -0.5q-0.09375 -0.3125 -0.203125 -0.65625q-0.109375 -0.359375 -0.21875 -0.734375q-0.09375 -0.390625 -0.1875 -0.75q-0.078125 0.359375 -0.1875 0.75q-0.109375 0.390625 -0.21875 0.75q-0.09375 0.34375 -0.203125 0.65625q-0.09375 0.296875 -0.171875 0.484375l-1.6875 4.96875l4.984375 0z" fill-rule="nonzero"/><path fill="#000000" fill-opacity="0.0" d="m383.7798 152.53506l-14.141724 18.173233" fill-rule="evenodd"/><path stroke="#000000" stroke-width="2.0" stroke-linejoin="round" stroke-linecap="butt" d="m383.7798 152.53508l-6.7721863 8.702759" fill-rule="evenodd"/><path fill="#000000" stroke="#000000" stroke-width="2.0" stroke-linecap="butt" d="m374.40048 159.20909l-2.966858 9.191727l8.181091 -5.1342163z" fill-rule="evenodd"/><path fill="#efefef" d="m246.9679 70.43358l85.24411 0l0 -10.653542l21.307068 21.307083l-21.307068 21.30709l0 -10.653542l-85.24411 0z" fill-rule="evenodd"/><path stroke="#000000" stroke-width="1.0" stroke-linejoin="round" stroke-linecap="butt" d="m246.9679 70.43358l85.24411 0l0 -10.653542l21.307068 21.307083l-21.307068 21.30709l0 -10.653542l-85.24411 0z" fill-rule="evenodd"/><path fill="#000000" d="m266.10873 74.94462l1.546875 0l0 13.0625l-1.546875 0l0 -13.0625zm10.91333 13.0625l0 -5.3125q0 -1.453125 -0.421875 -2.1875q-0.421875 -0.75 -1.53125 -0.75q-0.984375 0 -1.640625 0.53125q-0.640625 0.53125 -0.90625 1.34375l0 6.375l-1.484375 0l0 -9.328125l1.046875 0l0.28125 1.140625l0.0625 0q0.453125 -0.59375 1.203125 -0.96875q0.765625 -0.390625 1.8125 -0.390625q0.765625 0 1.34375 0.171875q0.578125 0.171875 0.953125 0.625q0.390625 0.453125 0.578125 1.203125q0.203125 0.75 0.203125 1.90625l0 5.640625l-1.5 0zm8.329987 -2.53125q0 -0.5625 -0.34375 -0.875q-0.328125 -0.328125 -0.828125 -0.53125q-0.5 -0.21875 -1.09375 -0.40625q-0.578125 -0.203125 -1.078125 -0.515625q-0.484375 -0.3125 -0.828125 -0.796875q-0.328125 -0.484375 -0.328125 -1.296875q0 -1.34375 0.765625 -1.96875q0.765625 -0.625 2.125 -0.625q1.0 0 1.6875 0.171875q0.6875 0.171875 1.1875 0.421875l-0.359375 1.234375q-0.421875 -0.203125 -1.03125 -0.359375q-0.609375 -0.171875 -1.296875 -0.171875q-0.828125 0 -1.21875 0.28125q-0.375 0.28125 -0.375 0.96875q0 0.484375 0.328125 0.765625q0.34375 0.265625 0.84375 0.484375q0.5 0.203125 1.078125 0.421875q0.59375 0.203125 1.078125 0.546875q0.5 0.328125 0.828125 0.84375q0.34375 0.5 0.34375 1.34375q0 0.59375 -0.203125 1.125q-0.1875 0.515625 -0.59375 0.890625q-0.40625 0.375 -1.015625 0.578125q-0.609375 0.21875 -1.4375 0.21875q-1.0625 0 -1.8125 -0.203125q-0.734375 -0.203125 -1.234375 -0.484375l0.4375 -1.265625q0.4375 0.234375 1.125 0.453125q0.6875 0.203125 1.390625 0.203125q0.8125 0 1.328125 -0.3125q0.53125 -0.328125 0.53125 -1.140625zm10.557404 1.78125q-0.5625 0.453125 -1.421875 0.71875q-0.84375 0.25 -1.796875 0.25q-1.0625 0 -1.84375 -0.34375q-0.78125 -0.34375 -1.28125 -0.984375q-0.5 -0.640625 -0.75 -1.53125q-0.234375 -0.90625 -0.234375 -2.03125q0 -2.375 1.0625 -3.625q1.0625 -1.25 3.03125 -1.25q0.640625 0 1.265625 0.140625q0.640625 0.140625 1.140625 0.53125q0.5 0.390625 0.8125 1.109375q0.328125 0.71875 0.328125 1.890625q0 0.609375 -0.109375 1.359375l-5.984375 0q0 0.828125 0.15625 1.46875q0.171875 0.625 0.515625 1.0625q0.359375 0.4375 0.921875 0.671875q0.578125 0.234375 1.40625 0.234375q0.625 0 1.265625 -0.21875q0.640625 -0.234375 0.953125 -0.53125l0.5625 1.078125zm-3.21875 -7.5q-1.09375 0 -1.765625 0.578125q-0.65625 0.578125 -0.78125 1.984375l4.625 0q0 -1.421875 -0.546875 -1.984375q-0.53125 -0.578125 -1.53125 -0.578125zm10.289856 0.359375q-0.5625 -0.1875 -1.0625 -0.1875q-0.8125 0 -1.28125 0.4375q-0.453125 0.4375 -0.578125 1.109375l0 6.53125l-1.484375 0l0 -9.328125l1.046875 0l0.28125 1.140625l0.0625 0q0.359375 -0.640625 0.84375 -0.984375q0.5 -0.34375 1.265625 -0.34375q0.546875 0 1.21875 0.1875l-0.3125 1.4375zm1.2625122 -1.4375l1.453125 0l0 -1.84375l1.5 -0.4375l0 2.28125l2.53125 0l0 1.3125l-2.53125 0l0 5.15625q0 0.96875 0.234375 1.375q0.25 0.40625 0.828125 0.40625q0.484375 0 0.8125 -0.09375q0.34375 -0.109375 0.75 -0.28125l0.34375 1.140625q-0.515625 0.234375 -1.109375 0.375q-0.59375 0.15625 -1.28125 0.15625q-1.140625 0 -1.609375 -0.640625q-0.46875 -0.640625 -0.46875 -2.15625l0 -5.4375l-1.453125 0l0 -1.3125zm18.302094 5.703125l-4.8125 0l-1.3125 3.625l-1.515625 0l4.9375 -13.265625l0.703125 0l4.96875 13.265625l-1.625 0l-1.34375 -3.625zm-4.3125 -1.34375l3.84375 0l-1.453125 -3.96875l-0.46875 -1.96875l-0.015625 0l-0.46875 2.0l-1.4375 3.9375z" fill-rule="nonzero"/><path fill="#efefef" d="m614.9745 70.43358l85.24408 0l0 -10.653542l21.307068 21.307083l-21.307068 21.30709l0 -10.653542l-85.24408 0z" fill-rule="evenodd"/><path stroke="#000000" stroke-width="1.0" stroke-linejoin="round" stroke-linecap="butt" d="m614.9745 70.43358l85.24408 0l0 -10.653542l21.307068 21.307083l-21.307068 21.30709l0 -10.653542l-85.24408 0z" fill-rule="evenodd"/><path fill="#000000" d="m623.8125 75.08524q0.71875 -0.140625 1.640625 -0.203125q0.921875 -0.078125 1.6875 -0.078125q0.859375 0 1.625 0.1875q0.78125 0.1875 1.359375 0.609375q0.59375 0.421875 0.953125 1.125q0.359375 0.6875 0.359375 1.671875q0 1.53125 -0.84375 2.484375q-0.84375 0.953125 -2.125 1.265625l0.890625 0.6875l3.25 5.171875l-1.8125 0l-3.59375 -5.640625l-1.828125 -0.265625l0 5.90625l-1.5625 0l0 -12.921875zm3.359375 1.0625q-0.234375 0 -0.5 0q-0.265625 0 -0.515625 0.015625q-0.234375 0.015625 -0.453125 0.03125q-0.203125 0.015625 -0.328125 0.0625l0 4.8125l1.453125 0q1.28125 0 2.125 -0.625q0.84375 -0.640625 0.84375 -1.984375q0 -1.015625 -0.703125 -1.65625q-0.6875 -0.65625 -1.921875 -0.65625zm13.516968 11.109375q-0.5625 0.453125 -1.421875 0.71875q-0.84375 0.25 -1.796875 0.25q-1.0625 0 -1.84375 -0.34375q-0.78125 -0.34375 -1.28125 -0.984375q-0.5 -0.640625 -0.75 -1.53125q-0.234375 -0.90625 -0.234375 -2.03125q0 -2.375 1.0625 -3.625q1.0625 -1.25 3.03125 -1.25q0.640625 0 1.265625 0.140625q0.640625 0.140625 1.140625 0.53125q0.5 0.390625 0.8125 1.109375q0.328125 0.71875 0.328125 1.890625q0 0.609375 -0.109375 1.359375l-5.984375 0q0 0.828125 0.15625 1.46875q0.171875 0.625 0.515625 1.0625q0.359375 0.4375 0.921875 0.671875q0.578125 0.234375 1.40625 0.234375q0.625 0 1.265625 -0.21875q0.640625 -0.234375 0.953125 -0.53125l0.5625 1.078125zm-3.21875 -7.5q-1.09375 0 -1.765625 0.578125q-0.65625 0.578125 -0.78125 1.984375l4.625 0q0 -1.421875 -0.546875 -1.984375q-0.53125 -0.578125 -1.53125 -0.578125zm5.883606 -4.8125l1.484375 0l0 4.65625l0.078125 0q0.4375 -0.546875 1.09375 -0.84375q0.65625 -0.296875 1.453125 -0.296875q1.796875 0 2.703125 1.15625q0.90625 1.15625 0.90625 3.578125q0 2.4375 -1.203125 3.71875q-1.1875 1.265625 -3.34375 1.265625q-1.046875 0 -1.90625 -0.21875q-0.84375 -0.234375 -1.265625 -0.5l0 -12.515625zm3.84375 4.8125q-0.9375 0 -1.515625 0.53125q-0.578125 0.515625 -0.84375 1.46875l0 4.703125q0.359375 0.203125 0.859375 0.3125q0.515625 0.09375 1.046875 0.09375q1.265625 0 2.015625 -0.890625q0.765625 -0.890625 0.765625 -2.796875q0 -0.734375 -0.140625 -1.359375q-0.125 -0.640625 -0.40625 -1.078125q-0.265625 -0.453125 -0.71875 -0.71875q-0.4375 -0.265625 -1.0625 -0.265625zm6.074341 -0.390625q0.71875 -0.421875 1.65625 -0.625q0.9375 -0.21875 1.96875 -0.21875q0.96875 0 1.546875 0.265625q0.59375 0.265625 0.90625 0.6875q0.3125 0.421875 0.40625 0.921875q0.109375 0.5 0.109375 1.0q0 1.125 -0.0625 2.1875q-0.046875 1.0625 -0.046875 2.015625q0 0.6875 0.046875 1.3125q0.0625 0.609375 0.203125 1.125l-1.09375 0l-0.390625 -1.296875l-0.09375 0q-0.171875 0.265625 -0.421875 0.515625q-0.25 0.25 -0.609375 0.453125q-0.34375 0.1875 -0.8125 0.3125q-0.46875 0.140625 -1.0625 0.140625q-0.609375 0 -1.125 -0.1875q-0.5 -0.1875 -0.875 -0.53125q-0.375 -0.359375 -0.59375 -0.84375q-0.203125 -0.484375 -0.203125 -1.09375q0 -0.828125 0.328125 -1.375q0.34375 -0.546875 0.9375 -0.875q0.609375 -0.328125 1.453125 -0.46875q0.859375 -0.140625 1.875 -0.140625q0.265625 0 0.515625 0q0.25 0 0.515625 0.046875q0.0625 -0.5625 0.0625 -1.015625q0 -1.015625 -0.421875 -1.421875q-0.40625 -0.421875 -1.484375 -0.421875q-0.3125 0 -0.6875 0.046875q-0.359375 0.046875 -0.75 0.140625q-0.375 0.078125 -0.71875 0.203125q-0.34375 0.109375 -0.609375 0.265625l-0.46875 -1.125zm2.65625 7.484375q0.515625 0 0.921875 -0.140625q0.421875 -0.140625 0.71875 -0.34375q0.296875 -0.21875 0.484375 -0.484375q0.203125 -0.265625 0.296875 -0.5l0 -1.546875q-0.265625 -0.03125 -0.53125 -0.03125q-0.265625 -0.015625 -0.53125 -0.015625q-0.578125 0 -1.125 0.078125q-0.546875 0.0625 -0.96875 0.234375q-0.421875 0.171875 -0.671875 0.484375q-0.25 0.3125 -0.25 0.765625q0 0.65625 0.453125 1.078125q0.46875 0.421875 1.203125 0.421875zm8.40979 -1.140625q0 0.65625 0.21875 0.9375q0.234375 0.28125 0.640625 0.28125q0.25 0 0.515625 -0.03125q0.28125 -0.046875 0.640625 -0.171875l0.171875 1.171875q-0.296875 0.140625 -0.828125 0.234375q-0.53125 0.09375 -0.921875 0.09375q-0.84375 0 -1.390625 -0.46875q-0.53125 -0.484375 -0.53125 -1.609375l0 -11.203125l1.484375 0l0 10.765625zm3.6351318 -6.34375q0.71875 -0.421875 1.65625 -0.625q0.9375 -0.21875 1.96875 -0.21875q0.96875 0 1.546875 0.265625q0.59375 0.265625 0.90625 0.6875q0.3125 0.421875 0.40625 0.921875q0.109375 0.5 0.109375 1.0q0 1.125 -0.0625 2.1875q-0.046875 1.0625 -0.046875 2.015625q0 0.6875 0.046875 1.3125q0.0625 0.609375 0.203125 1.125l-1.09375 0l-0.390625 -1.296875l-0.09375 0q-0.171875 0.265625 -0.421875 0.515625q-0.25 0.25 -0.609375 0.453125q-0.34375 0.1875 -0.8125 0.3125q-0.46875 0.140625 -1.0625 0.140625q-0.609375 0 -1.125 -0.1875q-0.5 -0.1875 -0.875 -0.53125q-0.375 -0.359375 -0.59375 -0.84375q-0.203125 -0.484375 -0.203125 -1.09375q0 -0.828125 0.328125 -1.375q0.34375 -0.546875 0.9375 -0.875q0.609375 -0.328125 1.453125 -0.46875q0.859375 -0.140625 1.875 -0.140625q0.265625 0 0.515625 0q0.25 0 0.515625 0.046875q0.0625 -0.5625 0.0625 -1.015625q0 -1.015625 -0.421875 -1.421875q-0.40625 -0.421875 -1.484375 -0.421875q-0.3125 0 -0.6875 0.046875q-0.359375 0.046875 -0.75 0.140625q-0.375 0.078125 -0.71875 0.203125q-0.34375 0.109375 -0.609375 0.265625l-0.46875 -1.125zm2.65625 7.484375q0.515625 0 0.921875 -0.140625q0.421875 -0.140625 0.71875 -0.34375q0.296875 -0.21875 0.484375 -0.484375q0.203125 -0.265625 0.296875 -0.5l0 -1.546875q-0.265625 -0.03125 -0.53125 -0.03125q-0.265625 -0.015625 -0.53125 -0.015625q-0.578125 0 -1.125 0.078125q-0.546875 0.0625 -0.96875 0.234375q-0.421875 0.171875 -0.671875 0.484375q-0.25 0.3125 -0.25 0.765625q0 0.65625 0.453125 1.078125q0.46875 0.421875 1.203125 0.421875zm12.737915 1.15625l0 -5.3125q0 -1.453125 -0.421875 -2.1875q-0.421875 -0.75 -1.53125 -0.75q-0.984375 0 -1.640625 0.53125q-0.640625 0.53125 -0.90631104 1.34375l0 6.375l-1.484375 0l0 -9.328125l1.046875 0l0.28125 1.140625l0.0625 0q0.45318604 -0.59375 1.203186 -0.96875q0.765625 -0.390625 1.8125 -0.390625q0.765625 0 1.34375 0.171875q0.578125 0.171875 0.953125 0.625q0.390625 0.453125 0.578125 1.203125q0.203125 0.75 0.203125 1.90625l0 5.640625l-1.5 0zm10.579956 -0.609375q-0.5625 0.40625 -1.328125 0.609375q-0.765625 0.21875 -1.59375 0.21875q-1.09375 0 -1.84375 -0.34375q-0.734375 -0.34375 -1.21875 -0.984375q-0.46875 -0.640625 -0.6875 -1.546875q-0.203125 -0.90625 -0.203125 -2.015625q0 -2.359375 1.03125 -3.609375q1.046875 -1.265625 3.015625 -1.265625q0.890625 0 1.515625 0.140625q0.625 0.140625 1.125 0.390625l-0.421875 1.296875q-0.4375 -0.25 -0.96875 -0.390625q-0.515625 -0.140625 -1.109375 -0.140625q-2.640625 0 -2.640625 3.578125q0 0.71875 0.140625 1.359375q0.140625 0.640625 0.453125 1.140625q0.328125 0.5 0.859375 0.796875q0.53125 0.296875 1.328125 0.296875q0.65625 0 1.1875 -0.203125q0.546875 -0.21875 0.875 -0.46875l0.484375 1.140625zm8.437744 -0.140625q-0.5625 0.453125 -1.421875 0.71875q-0.84375 0.25 -1.796875 0.25q-1.0625 0 -1.84375 -0.34375q-0.78125 -0.34375 -1.28125 -0.984375q-0.5 -0.640625 -0.75 -1.53125q-0.234375 -0.90625 -0.234375 -2.03125q0 -2.375 1.0625 -3.625q1.0625 -1.25 3.03125 -1.25q0.640625 0 1.265625 0.140625q0.640625 0.140625 1.140625 0.53125q0.5 0.390625 0.8125 1.109375q0.328125 0.71875 0.328125 1.890625q0 0.609375 -0.109375 1.359375l-5.984375 0q0 0.828125 0.15625 1.46875q0.171875 0.625 0.515625 1.0625q0.359375 0.4375 0.921875 0.671875q0.578125 0.234375 1.40625 0.234375q0.625 0 1.265625 -0.21875q0.640625 -0.234375 0.953125 -0.53125l0.5625 1.078125zm-3.21875 -7.5q-1.09375 0 -1.765625 0.578125q-0.65625 0.578125 -0.78125 1.984375l4.625 0q0 -1.421875 -0.546875 -1.984375q-0.53125 -0.578125 -1.53125 -0.578125z" fill-rule="nonzero"/></g></svg>