<svg version="1.1" viewBox="0.0 0.0 862.6876640419947 184.68766404199476" fill="none" stroke="none" stroke-linecap="square" stroke-miterlimit="10" xmlns:xlink="http://www.w3.org/1999/xlink" xmlns="http://www.w3.org/2000/svg"><clipPath id="p.0"><path d="m0 0l862.6877 0l0 184.68767l-862.6877 0l0 -184.68767z" clip-rule="nonzero"/></clipPath><g clip-path="url(#p.0)"><path fill="#000000" fill-opacity="0.0" d="m0 0l862.6877 0l0 184.68767l-862.6877 0z" fill-rule="evenodd"/><path fill="#000000" fill-opacity="0.0" d="m89.84102 30.711775c0 -8.175552 6.627594 -14.803149 14.803146 -14.803149c3.9260406 0 7.691284 1.5596132 10.467415 4.335742c2.776123 2.7761288 4.335739 6.5413685 4.335739 10.467407c0 8.175554 -6.627594 14.803152 -14.803154 14.803152c-8.175552 0 -14.803146 -6.627598 -14.803146 -14.803152z" fill-rule="evenodd"/><path stroke="#000000" stroke-width="1.0" stroke-linejoin="round" stroke-linecap="butt" d="m89.84102 30.711775c0 -8.175552 6.627594 -14.803149 14.803146 -14.803149c3.9260406 0 7.691284 1.5596132 10.467415 4.335742c2.776123 2.7761288 4.335739 6.5413685 4.335739 10.467407c0 8.175554 -6.627594 14.803152 -14.803154 14.803152c-8.175552 0 -14.803146 -6.627598 -14.803146 -14.803152z" fill-rule="evenodd"/><path fill="#000000" d="m108.07126 35.094357q-0.421875 0.328125 -1.0625 0.453125q-0.625 0.125 -1.34375 0.125q-0.875 0 -1.640625 -0.296875q-0.75 -0.296875 -1.328125 -0.90625q-0.5625 -0.609375 -0.890625 -1.5625q-0.328125 -0.953125 -0.328125 -2.25q0 -1.34375 0.359375 -2.296875q0.359375 -0.953125 0.953125 -1.546875q0.609375 -0.609375 1.359375 -0.875q0.75 -0.28125 1.53125 -0.28125q0.828125 0 1.34375 0.09375q0.53125 0.078125 0.90625 0.234375l-0.28125 1.015625q-0.65625 -0.328125 -1.890625 -0.328125q-0.5625 0 -1.125 0.21875q-0.546875 0.203125 -0.984375 0.671875q-0.4375 0.46875 -0.703125 1.234375q-0.265625 0.75 -0.265625 1.859375q0 1.0 0.25 1.75q0.25 0.75 0.6875 1.25q0.4375 0.484375 1.015625 0.734375q0.59375 0.25 1.296875 0.25q0.609375 0 1.078125 -0.125q0.46875 -0.125 0.78125 -0.3125l0.28125 0.890625z" fill-rule="nonzero"/><path fill="#000000" fill-opacity="0.0" d="m48.31142 72.24138c0 -8.17556 6.627594 -14.803154 14.80315 -14.803154c3.9260406 0 7.6912766 1.5596161 10.467407 4.335743c2.7761307 2.7761269 4.335739 6.5413704 4.335739 10.467411c0 8.175552 -6.627594 14.803146 -14.803146 14.803146c-8.175556 0 -14.80315 -6.627594 -14.80315 -14.803146z" fill-rule="evenodd"/><path stroke="#000000" stroke-width="1.0" stroke-linejoin="round" stroke-linecap="butt" d="m48.31142 72.24138c0 -8.17556 6.627594 -14.803154 14.80315 -14.803154c3.9260406 0 7.6912766 1.5596161 10.467407 4.335743c2.7761307 2.7761269 4.335739 6.5413704 4.335739 10.467411c0 8.175552 -6.627594 14.803146 -14.803146 14.803146c-8.175556 0 -14.80315 -6.627594 -14.80315 -14.803146z" fill-rule="evenodd"/><path fill="#000000" d="m66.09241 69.561455q0 0.34375 -0.109375 0.703125q-0.109375 0.359375 -0.34375 0.671875q-0.21875 0.3125 -0.5625 0.546875q-0.34375 0.234375 -0.8125 0.359375l0 0.0625q0.40625 0.0625 0.78125 0.234375q0.390625 0.15625 0.671875 0.453125q0.296875 0.296875 0.46875 0.71875q0.1875 0.40625 0.1875 0.96875q0 0.75 -0.3125 1.296875q-0.3125 0.546875 -0.8125 0.890625q-0.5 0.34375 -1.15625 0.515625q-0.6406288 0.15625 -1.3281288 0.15625q-0.234375 0 -0.546875 0q-0.3125 0 -0.671875 -0.03125q-0.34375 -0.015625 -0.6875 -0.046875q-0.34375 -0.03125 -0.609375 -0.09375l0 -9.53125q0.515625 -0.078125 1.1875 -0.140625q0.6875 -0.0625 1.484375 -0.0625q0.546875 0 1.0937538 0.09375q0.5625 0.09375 1.015625 0.359375q0.46875 0.25 0.765625 0.703125q0.296875 0.453125 0.296875 1.171875zm-3.2187538 6.578125q0.453125 0 0.859375 -0.09375q0.4218788 -0.109375 0.7343788 -0.328125q0.328125 -0.234375 0.5 -0.5625q0.1875 -0.34375 0.1875 -0.796875q0 -0.5625 -0.234375 -0.90625q-0.21875 -0.34375 -0.59375 -0.53125q-0.3593788 -0.203125 -0.8125038 -0.265625q-0.453125 -0.078125 -0.90625 -0.078125l-1.203125 0l0 3.46875q0.09375 0.03125 0.265625 0.046875q0.1875 0.015625 0.390625 0.03125q0.203125 0 0.421875 0.015625q0.234375 0 0.390625 0zm-0.75 -4.53125q0.234375 0 0.5625 -0.015625q0.328125 -0.015625 0.546875 -0.03125q0.34375 -0.125 0.625 -0.28125q0.2968788 -0.15625 0.5156288 -0.359375q0.234375 -0.21875 0.359375 -0.5q0.140625 -0.296875 0.140625 -0.625q0 -0.453125 -0.171875 -0.75q-0.171875 -0.296875 -0.46875 -0.46875q-0.2812538 -0.1875 -0.6562538 -0.265625q-0.375 -0.078125 -0.765625 -0.078125q-0.453125 0 -0.84375 0.03125q-0.375 0.015625 -0.5625 0.046875l0 3.296875l0.71875 0z" fill-rule="nonzero"/><path fill="#000000" fill-opacity="0.0" d="m83.90822 155.30058c0 -8.175568 6.627594 -14.803162 14.803154 -14.803162c3.926033 0 7.6912766 1.5596161 10.467407 4.3357544c2.776123 2.776123 4.335739 6.5413666 4.335739 10.467407c0 8.175552 -6.627594 14.803146 -14.803146 14.803146c-8.17556 0 -14.803154 -6.627594 -14.803154 -14.803146z" fill-rule="evenodd"/><path stroke="#000000" stroke-width="1.0" stroke-linejoin="round" stroke-linecap="butt" d="m83.90822 155.30058c0 -8.175568 6.627594 -14.803162 14.803154 -14.803162c3.926033 0 7.6912766 1.5596161 10.467407 4.3357544c2.776123 2.776123 4.335739 6.5413666 4.335739 10.467407c0 8.175552 -6.627594 14.803146 -14.803146 14.803146c-8.17556 0 -14.803154 -6.627594 -14.803154 -14.803146z" fill-rule="evenodd"/><path fill="#000000" d="m95.36147 150.41753q0.265625 -0.046875 0.59375 -0.0625q0.328125 -0.03125 0.671875 -0.03125q0.359375 -0.015625 0.6875 -0.015625q0.34375 -0.015625 0.640625 -0.015625q1.15625 0 2.0 0.359375q0.859375 0.359375 1.40625 1.015625q0.5625 0.640625 0.828125 1.546875q0.265625 0.890625 0.265625 1.96875q0 0.984375 -0.265625 1.890625q-0.25 0.90625 -0.796875 1.609375q-0.546875 0.6875 -1.4375 1.109375q-0.890625 0.421875 -2.140625 0.421875q-0.21875 0 -0.578125 -0.015625q-0.34375 0 -0.71875 -0.03125q-0.375 -0.015625 -0.703125 -0.03125q-0.3125 0 -0.453125 -0.03125l0 -9.6875zm2.609375 0.90625q-0.171875 0 -0.390625 0q-0.203125 0 -0.421875 0.015625q-0.203125 0.015625 -0.375 0.03125q-0.171875 0 -0.265625 0.015625l0 7.75q0.0625 0.015625 0.25 0.03125q0.203125 0 0.40625 0.015625q0.203125 0 0.390625 0q0.203125 0 0.28125 0q0.96875 0 1.625 -0.328125q0.65625 -0.328125 1.046875 -0.890625q0.390625 -0.5625 0.546875 -1.28125q0.171875 -0.734375 0.171875 -1.5q0 -0.6875 -0.15625 -1.359375q-0.140625 -0.6875 -0.515625 -1.234375q-0.375 -0.5625 -1.0 -0.90625q-0.625 -0.359375 -1.59375 -0.359375z" fill-rule="nonzero"/><path fill="#000000" fill-opacity="0.0" d="m131.37062 72.24138c0 -8.17556 6.627594 -14.803154 14.803146 -14.803154c3.9260406 0 7.691284 1.5596161 10.467407 4.335743c2.7761383 2.7761269 4.335739 6.5413704 4.335739 10.467411c0 8.175552 -6.627594 14.803146 -14.803146 14.803146c-8.175552 0 -14.803146 -6.627594 -14.803146 -14.803146z" fill-rule="evenodd"/><path stroke="#000000" stroke-width="3.0" stroke-linejoin="round" stroke-linecap="butt" d="m131.37062 72.24138c0 -8.17556 6.627594 -14.803154 14.803146 -14.803154c3.9260406 0 7.691284 1.5596161 10.467407 4.335743c2.7761383 2.7761269 4.335739 6.5413704 4.335739 10.467411c0 8.175552 -6.627594 14.803146 -14.803146 14.803146c-8.175552 0 -14.803146 -6.627594 -14.803146 -14.803146z" fill-rule="evenodd"/><path fill="#000000" d="m143.48958 67.35833l5.734375 0l0 1.671875l-3.84375 0l0 2.40625l3.546875 0l0 1.6875l-3.546875 0l0 3.90625l-1.890625 0l0 -9.671875z" fill-rule="nonzero"/><path fill="#000000" fill-opacity="0.0" d="m107.63942 113.77097c0 -8.175552 6.627594 -14.803146 14.803146 -14.803146c3.9260406 0 7.691284 1.5596085 10.467407 4.335739c2.7761383 2.7761307 4.335739 6.5413666 4.335739 10.467407c0 8.175552 -6.627594 14.803154 -14.803146 14.803154c-8.175552 0 -14.803146 -6.6276016 -14.803146 -14.803154z" fill-rule="evenodd"/><path stroke="#000000" stroke-width="1.0" stroke-linejoin="round" stroke-linecap="butt" d="m107.63942 113.77097c0 -8.175552 6.627594 -14.803146 14.803146 -14.803146c3.9260406 0 7.691284 1.5596085 10.467407 4.335739c2.7761383 2.7761307 4.335739 6.5413666 4.335739 10.467407c0 8.175552 -6.627594 14.803154 -14.803146 14.803154c-8.175552 0 -14.803146 -6.6276016 -14.803146 -14.803154z" fill-rule="evenodd"/><path fill="#000000" d="m119.90852 108.88793l5.265625 0l0 1.015625l-4.109375 0l0 3.171875l3.765625 0l0 1.015625l-3.765625 0l0 3.453125l4.1875 0l0 1.015625l-5.34375 0l0 -9.671875z" fill-rule="nonzero"/><path fill="#000000" fill-opacity="0.0" d="m155.10182 113.77097c0 -8.175552 6.627594 -14.803146 14.803146 -14.803146c3.9260406 0 7.691284 1.5596085 10.467407 4.335739c2.776123 2.7761307 4.335739 6.5413666 4.335739 10.467407c0 8.175552 -6.627594 14.803154 -14.803146 14.803154c-8.175552 0 -14.803146 -6.6276016 -14.803146 -14.803154z" fill-rule="evenodd"/><path stroke="#000000" stroke-width="3.0" stroke-linejoin="round" stroke-linecap="butt" d="m155.10182 113.77097c0 -8.175552 6.627594 -14.803146 14.803146 -14.803146c3.9260406 0 7.691284 1.5596085 10.467407 4.335739c2.776123 2.7761307 4.335739 6.5413666 4.335739 10.467407c0 8.175552 -6.627594 14.803154 -14.803146 14.803154c-8.175552 0 -14.803146 -6.6276016 -14.803146 -14.803154z" fill-rule="evenodd"/><path fill="#000000" d="m169.94434 113.51293l3.609375 0l0 4.3125q-0.578125 0.484375 -1.390625 0.703125q-0.8125 0.21875 -1.59375 0.21875q-0.9375 0 -1.734375 -0.28125q-0.796875 -0.296875 -1.375 -0.90625q-0.578125 -0.625 -0.90625 -1.578125q-0.328125 -0.953125 -0.328125 -2.265625q0 -1.359375 0.390625 -2.3125q0.390625 -0.96875 1.03125 -1.5625q0.640625 -0.609375 1.4375 -0.875q0.8125 -0.28125 1.640625 -0.28125q0.828125 0 1.453125 0.125q0.640625 0.125 1.015625 0.265625l-0.390625 1.59375q-0.34375 -0.140625 -0.78125 -0.21875q-0.421875 -0.078125 -1.09375 -0.078125q-0.59375 0 -1.09375 0.1875q-0.484375 0.171875 -0.859375 0.578125q-0.359375 0.40625 -0.5625 1.046875q-0.203125 0.640625 -0.203125 1.546875q0 0.875 0.1875 1.5q0.203125 0.625 0.546875 1.046875q0.34375 0.40625 0.796875 0.59375q0.46875 0.1875 1.0 0.1875q0.359375 0 0.703125 -0.078125q0.34375 -0.09375 0.578125 -0.28125l0 -1.8125l-2.078125 -0.234375l0 -1.140625z" fill-rule="nonzero"/><path fill="#000000" fill-opacity="0.0" d="m24.58022 113.77097c0 -8.175552 6.627596 -14.803146 14.80315 -14.803146c3.9260368 0 7.6912766 1.5596085 10.467407 4.335739c2.7761269 2.7761307 4.335743 6.5413666 4.335743 10.467407c0 8.175552 -6.627598 14.803154 -14.80315 14.803154c-8.175554 0 -14.80315 -6.6276016 -14.80315 -14.803154z" fill-rule="evenodd"/><path stroke="#000000" stroke-width="1.0" stroke-linejoin="round" stroke-linecap="butt" d="m24.58022 113.77097c0 -8.175552 6.627596 -14.803146 14.80315 -14.803146c3.9260368 0 7.6912766 1.5596085 10.467407 4.335739c2.7761269 2.7761307 4.335743 6.5413666 4.335743 10.467407c0 8.175552 -6.627598 14.803154 -14.80315 14.803154c-8.175554 0 -14.80315 -6.6276016 -14.80315 -14.803154z" fill-rule="evenodd"/><path fill="#000000" d="m41.11992 115.87231l-3.5625 0l-0.96875 2.6875l-1.140625 0l3.671875 -9.828125l0.515625 0l3.6875 9.828125l-1.203125 0l-1.0 -2.6875zm-3.203125 -0.984375l2.859375 0l-1.078125 -2.953125l-0.34375 -1.46875l-0.015625 0l-0.34375 1.5l-1.078125 2.921875z" fill-rule="nonzero"/><path fill="#000000" fill-opacity="0.0" d="m94.17676 41.179184l-20.59842 20.598423" fill-rule="evenodd"/><path stroke="#000000" stroke-width="1.0" stroke-linejoin="round" stroke-linecap="butt" d="m94.176765 41.179184l-16.35579 16.35579" fill-rule="evenodd"/><path fill="#000000" stroke="#000000" stroke-width="1.0" stroke-linecap="butt" d="m76.65302 56.36702l-2.0409698 4.376869l4.376877 -2.040966z" fill-rule="evenodd"/><path fill="#000000" fill-opacity="0.0" d="m111.97516 124.23838l-13.259842 16.251976" fill-rule="evenodd"/><path stroke="#000000" stroke-width="1.0" stroke-linejoin="round" stroke-linecap="butt" d="m111.97516 124.23838l-9.4668045 11.603004" fill-rule="evenodd"/><path fill="#000000" stroke="#000000" stroke-width="1.0" stroke-linecap="butt" d="m101.22855 134.79721l-1.5890579 4.560425l4.1486664 -2.4720612z" fill-rule="evenodd"/><path fill="#000000" fill-opacity="0.0" d="m115.11158 41.179184l20.598427 20.598423" fill-rule="evenodd"/><path stroke="#000000" stroke-width="1.0" stroke-linejoin="round" stroke-linecap="butt" d="m115.11158 41.179184l16.355782 16.35579" fill-rule="evenodd"/><path fill="#000000" stroke="#000000" stroke-width="1.0" stroke-linecap="butt" d="m130.29941 58.70292l4.376877 2.0409698l-2.0409698 -4.376869z" fill-rule="evenodd"/><path fill="#000000" fill-opacity="0.0" d="m135.70636 82.708786l-13.259842 16.251968" fill-rule="evenodd"/><path stroke="#000000" stroke-width="1.0" stroke-linejoin="round" stroke-linecap="butt" d="m135.70636 82.708786l-9.466797 11.603004" fill-rule="evenodd"/><path fill="#000000" stroke="#000000" stroke-width="1.0" stroke-linecap="butt" d="m124.95976 93.26762l-1.5890656 4.560417l4.148674 -2.4720535z" fill-rule="evenodd"/><path fill="#000000" fill-opacity="0.0" d="m156.64117 82.708786l13.259842 16.251968" fill-rule="evenodd"/><path stroke="#000000" stroke-width="1.0" stroke-linejoin="round" stroke-linecap="butt" d="m156.64117 82.708786l9.466812 11.603004" fill-rule="evenodd"/><path fill="#000000" stroke="#000000" stroke-width="1.0" stroke-linecap="butt" d="m164.82817 95.35598l4.1486664 2.4720535l-1.5890503 -4.560417z" fill-rule="evenodd"/><path fill="#000000" fill-opacity="0.0" d="m52.64716 82.708786l-13.259842 16.251968" fill-rule="evenodd"/><path stroke="#000000" stroke-width="1.0" stroke-linejoin="round" stroke-linecap="butt" d="m52.64716 82.708786l-9.466797 11.603004" fill-rule="evenodd"/><path fill="#000000" stroke="#000000" stroke-width="1.0" stroke-linecap="butt" d="m41.90056 93.26762l-1.5890617 4.560417l4.148674 -2.4720535z" fill-rule="evenodd"/><path fill="#000000" fill-opacity="0.0" d="m410.48672 30.711775c0 -8.175552 6.627594 -14.803149 14.803131 -14.803149c3.926056 0 7.691284 1.5596132 10.467407 4.335742c2.776123 2.7761288 4.3357544 6.5413685 4.3357544 10.467407c0 8.175554 -6.627594 14.803152 -14.803162 14.803152c-8.175537 0 -14.803131 -6.627598 -14.803131 -14.803152z" fill-rule="evenodd"/><path stroke="#000000" stroke-width="3.0" stroke-linejoin="round" stroke-linecap="butt" d="m410.48672 30.711775c0 -8.175552 6.627594 -14.803149 14.803131 -14.803149c3.926056 0 7.691284 1.5596132 10.467407 4.335742c2.776123 2.7761288 4.3357544 6.5413685 4.3357544 10.467407c0 8.175554 -6.627594 14.803152 -14.803162 14.803152c-8.175537 0 -14.803131 -6.627598 -14.803131 -14.803152z" fill-rule="evenodd"/><path fill="#000000" d="m422.50888 25.828732l5.734375 0l0 1.671875l-3.84375 0l0 2.265625l3.5 0l0 1.6875l-3.5 0l0 2.359375l3.921875 0l0 1.6875l-5.8125 0l0 -9.671875z" fill-rule="nonzero"/><path fill="#000000" fill-opacity="0.0" d="m376.31143 72.24138c0 -8.17556 6.627594 -14.803154 14.803131 -14.803154c3.926056 0 7.691284 1.5596161 10.467407 4.335743c2.776123 2.7761269 4.3357544 6.5413704 4.3357544 10.467411c0 8.175552 -6.627594 14.803146 -14.803162 14.803146c-8.175537 0 -14.803131 -6.627594 -14.803131 -14.803146z" fill-rule="evenodd"/><path stroke="#000000" stroke-width="1.0" stroke-linejoin="round" stroke-linecap="butt" d="m376.31143 72.24138c0 -8.17556 6.627594 -14.803154 14.803131 -14.803154c3.926056 0 7.691284 1.5596161 10.467407 4.335743c2.776123 2.7761269 4.3357544 6.5413704 4.3357544 10.467411c0 8.175552 -6.627594 14.803146 -14.803162 14.803146c-8.175537 0 -14.803131 -6.627594 -14.803131 -14.803146z" fill-rule="evenodd"/><path fill="#000000" d="m394.0924 69.561455q0 0.34375 -0.109375 0.703125q-0.109375 0.359375 -0.34375 0.671875q-0.21875 0.3125 -0.5625 0.546875q-0.34375 0.234375 -0.8125 0.359375l0 0.0625q0.40625 0.0625 0.78125 0.234375q0.390625 0.15625 0.671875 0.453125q0.296875 0.296875 0.46875 0.71875q0.1875 0.40625 0.1875 0.96875q0 0.75 -0.3125 1.296875q-0.3125 0.546875 -0.8125 0.890625q-0.5 0.34375 -1.15625 0.515625q-0.640625 0.15625 -1.328125 0.15625q-0.234375 0 -0.546875 0q-0.3125 0 -0.671875 -0.03125q-0.34375 -0.015625 -0.6875 -0.046875q-0.34375 -0.03125 -0.609375 -0.09375l0 -9.53125q0.515625 -0.078125 1.1875 -0.140625q0.6875 -0.0625 1.484375 -0.0625q0.546875 0 1.09375 0.09375q0.5625 0.09375 1.015625 0.359375q0.46875 0.25 0.765625 0.703125q0.296875 0.453125 0.296875 1.171875zm-3.21875 6.578125q0.453125 0 0.859375 -0.09375q0.421875 -0.109375 0.734375 -0.328125q0.328125 -0.234375 0.5 -0.5625q0.1875 -0.34375 0.1875 -0.796875q0 -0.5625 -0.234375 -0.90625q-0.21875 -0.34375 -0.59375 -0.53125q-0.359375 -0.203125 -0.8125 -0.265625q-0.453125 -0.078125 -0.90625 -0.078125l-1.203125 0l0 3.46875q0.09375 0.03125 0.265625 0.046875q0.1875 0.015625 0.390625 0.03125q0.203125 0 0.421875 0.015625q0.234375 0 0.390625 0zm-0.75 -4.53125q0.234375 0 0.5625 -0.015625q0.328125 -0.015625 0.546875 -0.03125q0.34375 -0.125 0.625 -0.28125q0.296875 -0.15625 0.515625 -0.359375q0.234375 -0.21875 0.359375 -0.5q0.140625 -0.296875 0.140625 -0.625q0 -0.453125 -0.171875 -0.75q-0.171875 -0.296875 -0.46875 -0.46875q-0.28125 -0.1875 -0.65625 -0.265625q-0.375 -0.078125 -0.765625 -0.078125q-0.453125 0 -0.84375 0.03125q-0.375 0.015625 -0.5625 0.046875l0 3.296875l0.71875 0z" fill-rule="nonzero"/><path fill="#000000" fill-opacity="0.0" d="m381.60452 155.30058c0 -8.175568 6.627594 -14.803162 14.803162 -14.803162c3.9260254 0 7.691284 1.5596161 10.467407 4.3357544c2.776123 2.776123 4.335724 6.5413666 4.335724 10.467407c0 8.175552 -6.627594 14.803146 -14.803131 14.803146c-8.175568 0 -14.803162 -6.627594 -14.803162 -14.803146z" fill-rule="evenodd"/><path stroke="#000000" stroke-width="1.0" stroke-linejoin="round" stroke-linecap="butt" d="m381.60452 155.30058c0 -8.175568 6.627594 -14.803162 14.803162 -14.803162c3.9260254 0 7.691284 1.5596161 10.467407 4.3357544c2.776123 2.776123 4.335724 6.5413666 4.335724 10.467407c0 8.175552 -6.627594 14.803146 -14.803131 14.803146c-8.175568 0 -14.803162 -6.627594 -14.803162 -14.803146z" fill-rule="evenodd"/><path fill="#000000" d="m399.83478 159.68315q-0.421875 0.328125 -1.0625 0.453125q-0.625 0.125 -1.34375 0.125q-0.875 0 -1.640625 -0.296875q-0.75 -0.296875 -1.328125 -0.90625q-0.5625 -0.609375 -0.890625 -1.5625q-0.328125 -0.953125 -0.328125 -2.25q0 -1.34375 0.359375 -2.296875q0.359375 -0.953125 0.953125 -1.546875q0.609375 -0.609375 1.359375 -0.875q0.75 -0.28125 1.53125 -0.28125q0.828125 0 1.34375 0.09375q0.53125 0.078125 0.90625 0.234375l-0.28125 1.015625q-0.65625 -0.328125 -1.890625 -0.328125q-0.5625 0 -1.125 0.21875q-0.546875 0.203125 -0.984375 0.671875q-0.4375 0.46875 -0.703125 1.234375q-0.265625 0.75 -0.265625 1.859375q0 1.0 0.25 1.75q0.25 0.75 0.6875 1.25q0.4375 0.484375 1.015625 0.734375q0.59375 0.25 1.296875 0.25q0.609375 0 1.078125 -0.125q0.46875 -0.125 0.78125 -0.3125l0.28125 0.890625z" fill-rule="nonzero"/><path fill="#000000" fill-opacity="0.0" d="m447.81384 72.24138c0 -8.17556 6.627594 -14.803154 14.803162 -14.803154c3.9260254 0 7.691284 1.5596161 10.467407 4.335743c2.776123 2.7761269 4.335724 6.5413704 4.335724 10.467411c0 8.175552 -6.627594 14.803146 -14.803131 14.803146c-8.175568 0 -14.803162 -6.627594 -14.803162 -14.803146z" fill-rule="evenodd"/><path stroke="#000000" stroke-width="3.0" stroke-linejoin="round" stroke-linecap="butt" d="m447.81384 72.24138c0 -8.17556 6.627594 -14.803154 14.803162 -14.803154c3.9260254 0 7.691284 1.5596161 10.467407 4.335743c2.776123 2.7761269 4.335724 6.5413704 4.335724 10.467411c0 8.175552 -6.627594 14.803146 -14.803131 14.803146c-8.175568 0 -14.803162 -6.627594 -14.803162 -14.803146z" fill-rule="evenodd"/><path fill="#000000" d="m459.9328 67.35833l5.734375 0l0 1.671875l-3.84375 0l0 2.40625l3.546875 0l0 1.6875l-3.546875 0l0 3.90625l-1.890625 0l0 -9.671875z" fill-rule="nonzero"/><path fill="#000000" fill-opacity="0.0" d="m400.08264 113.77097c0 -8.175552 6.627594 -14.803146 14.803162 -14.803146c3.9260254 0 7.691284 1.5596085 10.467407 4.335739c2.776123 2.7761307 4.335724 6.5413666 4.335724 10.467407c0 8.175552 -6.627594 14.803154 -14.803131 14.803154c-8.175568 0 -14.803162 -6.6276016 -14.803162 -14.803154z" fill-rule="evenodd"/><path stroke="#000000" stroke-width="1.0" stroke-linejoin="round" stroke-linecap="butt" d="m400.08264 113.77097c0 -8.175552 6.627594 -14.803146 14.803162 -14.803146c3.9260254 0 7.691284 1.5596085 10.467407 4.335739c2.776123 2.7761307 4.335724 6.5413666 4.335724 10.467407c0 8.175552 -6.627594 14.803154 -14.803131 14.803154c-8.175568 0 -14.803162 -6.6276016 -14.803162 -14.803154z" fill-rule="evenodd"/><path fill="#000000" d="m411.53592 108.88793q0.265625 -0.046875 0.59375 -0.0625q0.328125 -0.03125 0.671875 -0.03125q0.359375 -0.015625 0.6875 -0.015625q0.34375 -0.015625 0.640625 -0.015625q1.15625 0 2.0 0.359375q0.859375 0.359375 1.40625 1.015625q0.5625 0.640625 0.828125 1.546875q0.265625 0.890625 0.265625 1.96875q0 0.984375 -0.265625 1.890625q-0.25 0.90625 -0.796875 1.609375q-0.546875 0.6875 -1.4375 1.109375q-0.890625 0.421875 -2.140625 0.421875q-0.21875 0 -0.578125 -0.015625q-0.34375 0 -0.71875 -0.03125q-0.375 -0.015625 -0.703125 -0.03125q-0.3125 0 -0.453125 -0.03125l0 -9.6875zm2.609375 0.90625q-0.171875 0 -0.390625 0q-0.203125 0 -0.421875 0.015625q-0.203125 0.015625 -0.375 0.03125q-0.171875 0 -0.265625 0.015625l0 7.75q0.0625 0.015625 0.25 0.03125q0.203125 0 0.40625 0.015625q0.203125 0 0.390625 0q0.203125 0 0.28125 0q0.96875 0 1.625 -0.328125q0.65625 -0.328125 1.046875 -0.890625q0.390625 -0.5625 0.546875 -1.28125q0.171875 -0.734375 0.171875 -1.5q0 -0.6875 -0.15625 -1.359375q-0.140625 -0.6875 -0.515625 -1.234375q-0.375 -0.5625 -1.0 -0.90625q-0.625 -0.359375 -1.59375 -0.359375z" fill-rule="nonzero"/><path fill="#000000" fill-opacity="0.0" d="m469.44382 113.77097c0 -8.175552 6.627594 -14.803146 14.803162 -14.803146c3.9260254 0 7.6912537 1.5596085 10.467407 4.335739c2.776123 2.7761307 4.335724 6.5413666 4.335724 10.467407c0 8.175552 -6.627594 14.803154 -14.803131 14.803154c-8.175568 0 -14.803162 -6.6276016 -14.803162 -14.803154z" fill-rule="evenodd"/><path stroke="#000000" stroke-width="3.0" stroke-linejoin="round" stroke-linecap="butt" d="m469.44382 113.77097c0 -8.175552 6.627594 -14.803146 14.803162 -14.803146c3.9260254 0 7.6912537 1.5596085 10.467407 4.335739c2.776123 2.7761307 4.335724 6.5413666 4.335724 10.467407c0 8.175552 -6.627594 14.803154 -14.803131 14.803154c-8.175568 0 -14.803162 -6.6276016 -14.803162 -14.803154z" fill-rule="evenodd"/><path fill="#000000" d="m484.28632 113.51293l3.609375 0l0 4.3125q-0.578125 0.484375 -1.390625 0.703125q-0.8125 0.21875 -1.59375 0.21875q-0.9375 0 -1.734375 -0.28125q-0.796875 -0.296875 -1.375 -0.90625q-0.578125 -0.625 -0.90625 -1.578125q-0.328125 -0.953125 -0.328125 -2.265625q0 -1.359375 0.390625 -2.3125q0.390625 -0.96875 1.03125 -1.5625q0.640625 -0.609375 1.4375 -0.875q0.8125 -0.28125 1.640625 -0.28125q0.828125 0 1.453125 0.125q0.640625 0.125 1.015625 0.265625l-0.390625 1.59375q-0.34375 -0.140625 -0.78125 -0.21875q-0.421875 -0.078125 -1.09375 -0.078125q-0.59375 0 -1.09375 0.1875q-0.484375 0.171875 -0.859375 0.578125q-0.359375 0.40625 -0.5625 1.046875q-0.203125 0.640625 -0.203125 1.546875q0 0.875 0.1875 1.5q0.203125 0.625 0.546875 1.046875q0.34375 0.40625 0.796875 0.59375q0.46875 0.1875 1.0 0.1875q0.359375 0 0.703125 -0.078125q0.34375 -0.09375 0.578125 -0.28125l0 -1.8125l-2.078125 -0.234375l0 -1.140625z" fill-rule="nonzero"/><path fill="#000000" fill-opacity="0.0" d="m352.58023 113.77097c0 -8.175552 6.627594 -14.803146 14.803131 -14.803146c3.926056 0 7.691284 1.5596085 10.467407 4.335739c2.776123 2.7761307 4.3357544 6.5413666 4.3357544 10.467407c0 8.175552 -6.627594 14.803154 -14.803162 14.803154c-8.175537 0 -14.803131 -6.6276016 -14.803131 -14.803154z" fill-rule="evenodd"/><path stroke="#000000" stroke-width="1.0" stroke-linejoin="round" stroke-linecap="butt" d="m352.58023 113.77097c0 -8.175552 6.627594 -14.803146 14.803131 -14.803146c3.926056 0 7.691284 1.5596085 10.467407 4.335739c2.776123 2.7761307 4.3357544 6.5413666 4.3357544 10.467407c0 8.175552 -6.627594 14.803154 -14.803162 14.803154c-8.175537 0 -14.803131 -6.6276016 -14.803131 -14.803154z" fill-rule="evenodd"/><path fill="#000000" d="m369.1199 115.87231l-3.5625 0l-0.96875 2.6875l-1.140625 0l3.671875 -9.828125l0.515625 0l3.6875 9.828125l-1.203125 0l-1.0 -2.6875zm-3.203125 -0.984375l2.859375 0l-1.078125 -2.953125l-0.34375 -1.46875l-0.015625 0l-0.34375 1.5l-1.078125 2.921875z" fill-rule="nonzero"/><path fill="#000000" fill-opacity="0.0" d="m414.82245 41.179184l-13.2283325 20.598423" fill-rule="evenodd"/><path stroke="#000000" stroke-width="1.0" stroke-linejoin="round" stroke-linecap="butt" d="m414.82248 41.179184l-9.986145 15.54985" fill-rule="evenodd"/><path fill="#000000" stroke="#000000" stroke-width="1.0" stroke-linecap="butt" d="m403.4465 55.836494l-1.0624084 4.711029l3.842041 -2.9259453z" fill-rule="evenodd"/><path fill="#000000" fill-opacity="0.0" d="m404.4184 124.23838l-8.0 16.251976" fill-rule="evenodd"/><path stroke="#000000" stroke-width="1.0" stroke-linejoin="round" stroke-linecap="butt" d="m404.4184 124.23838l-5.3501587 10.868828" fill-rule="evenodd"/><path fill="#000000" stroke="#000000" stroke-width="1.0" stroke-linecap="butt" d="m397.5863 134.37773l-0.52227783 4.80101l3.486145 -3.3420715z" fill-rule="evenodd"/><path fill="#000000" fill-opacity="0.0" d="m435.75726 41.179184l16.37796 20.598423" fill-rule="evenodd"/><path stroke="#000000" stroke-width="1.0" stroke-linejoin="round" stroke-linecap="butt" d="m435.75726 41.179184l12.643829 15.902027" fill-rule="evenodd"/><path fill="#000000" stroke="#000000" stroke-width="1.0" stroke-linecap="butt" d="m447.10822 58.109177l4.117157 2.5241547l-1.5314331 -4.5800896z" fill-rule="evenodd"/><path fill="#000000" fill-opacity="0.0" d="m401.58197 82.708786l13.291351 16.251968" fill-rule="evenodd"/><path stroke="#000000" stroke-width="1.0" stroke-linejoin="round" stroke-linecap="butt" d="m401.58197 82.708786l9.49292 11.607422" fill-rule="evenodd"/><path fill="#000000" stroke="#000000" stroke-width="1.0" stroke-linecap="butt" d="m409.7963 95.36188l4.15152 2.4672318l-1.5943604 -4.558571z" fill-rule="evenodd"/><path fill="#000000" fill-opacity="0.0" d="m473.0844 82.708786l11.149597 16.251968" fill-rule="evenodd"/><path stroke="#000000" stroke-width="1.0" stroke-linejoin="round" stroke-linecap="butt" d="m473.0844 82.708786l7.75531 11.304359" fill-rule="evenodd"/><path fill="#000000" stroke="#000000" stroke-width="1.0" stroke-linecap="butt" d="m479.4777 94.947556l3.9292908 2.8077087l-1.2052307 -4.676529z" fill-rule="evenodd"/><path fill="#000000" fill-opacity="0.0" d="m380.64716 82.708786l-13.259827 16.251968" fill-rule="evenodd"/><path stroke="#000000" stroke-width="1.0" stroke-linejoin="round" stroke-linecap="butt" d="m380.64716 82.708786l-9.466797 11.603004" fill-rule="evenodd"/><path fill="#000000" stroke="#000000" stroke-width="1.0" stroke-linecap="butt" d="m369.90054 93.26762l-1.5890503 4.560417l4.148651 -2.4720535z" fill-rule="evenodd"/><path fill="#000000" fill-opacity="0.0" d="m106.15761 4.3624587l34.992126 0l0 25.007874l-34.992126 0z" fill-rule="evenodd"/><path fill="#000000" d="m119.1314 16.742022l1.640625 0l0 -1.6875l0.671875 0l0 1.6875l1.640625 0l0 0.671875l-1.640625 0l0 1.671875l-0.671875 0l0 -1.671875l-1.640625 0l0 -0.671875zm5.3357086 2.796875l1.3125 0l0 -4.515625l0.09375 -0.546875l-0.375 0.4375l-1.03125 0.734375l-0.34375 -0.484375l2.046875 -1.578125l0.34375 0l0 5.953125l1.265625 0l0 0.6875l-3.3125 0l0 -0.6875z" fill-rule="nonzero"/><path fill="#000000" fill-opacity="0.0" d="m147.15761 46.362457l34.992126 0l0 25.007874l-34.992126 0z" fill-rule="evenodd"/><path fill="#000000" d="m162.38414 58.945145q0 -1.703125 0.578125 -2.53125q0.59375 -0.84375 1.703125 -0.84375q1.171875 0 1.71875 0.828125q0.546875 0.8125 0.546875 2.546875q0 1.734375 -0.59375 2.578125q-0.59375 0.828125 -1.6875 0.828125q-1.171875 0 -1.71875 -0.875q-0.546875 -0.875 -0.546875 -2.53125zm1.203125 0q0 1.140625 0.25 1.765625q0.25 0.625 0.828125 0.625q0.546875 0 0.796875 -0.5625q0.265625 -0.578125 0.265625 -1.828125q0 -1.125 -0.25 -1.734375q-0.234375 -0.625 -0.828125 -0.625q-0.5625 0 -0.8125 0.578125q-0.25 0.578125 -0.25 1.78125z" fill-rule="nonzero"/><path fill="#000000" fill-opacity="0.0" d="m169.15761 86.36246l34.992126 0l0 25.007874l-34.992126 0z" fill-rule="evenodd"/><path fill="#000000" d="m181.95743 98.55452l1.5 0l0 -1.578125l1.09375 0l0 1.578125l1.53125 0l0 1.046875l-1.53125 0l0 1.59375l-1.09375 0l0 -1.59375l-1.5 0l0 -1.046875zm5.447174 2.640625l1.296875 0l0 -3.671875l0.140625 -0.640625l-0.4375 0.546875l-0.84375 0.578125l-0.5 -0.703125l2.125 -1.71875l0.671875 0l0 5.609375l1.28125 0l0 1.03125l-3.734375 0l0 -1.03125z" fill-rule="nonzero"/><path fill="#000000" fill-opacity="0.0" d="m85.15761 87.36246l34.992126 0l0 25.007874l-34.992126 0z" fill-rule="evenodd"/><path fill="#000000" d="m98.12722 100.195145l3.96875 0l0 0.6875l-3.96875 0l0 -0.6875zm6.0628204 2.34375l1.3125 0l0 -4.515625l0.09375 -0.546875l-0.375 0.4375l-1.03125 0.734375l-0.34375 -0.484375l2.046875 -1.578125l0.34375 0l0 5.953125l1.265625 0l0 0.6875l-3.3125 0l0 -0.6875z" fill-rule="nonzero"/><path fill="#000000" fill-opacity="0.0" d="m3.1576073 86.36246l34.992126 0l0 25.007874l-34.992126 0z" fill-rule="evenodd"/><path fill="#000000" d="m18.518005 98.96077q0 -1.671875 0.546875 -2.515625q0.546875 -0.859375 1.578125 -0.859375q1.140625 0 1.640625 0.84375q0.515625 0.828125 0.515625 2.53125q0 1.6875 -0.546875 2.53125q-0.546875 0.84375 -1.609375 0.84375q-1.109375 0 -1.625 -0.875q-0.5 -0.890625 -0.5 -2.5zm0.765625 0q0 0.609375 0.078125 1.109375q0.078125 0.5 0.25 0.859375q0.171875 0.359375 0.421875 0.5625q0.265625 0.1875 0.609375 0.1875q0.71875 0 1.046875 -0.65625q0.328125 -0.65625 0.328125 -2.0625q0 -0.59375 -0.078125 -1.09375q-0.0625 -0.515625 -0.234375 -0.875q-0.15625 -0.359375 -0.421875 -0.546875q-0.25 -0.203125 -0.640625 -0.203125q-0.6875 0 -1.03125 0.65625q-0.328125 0.65625 -0.328125 2.0625z" fill-rule="nonzero"/><path fill="#000000" fill-opacity="0.0" d="m26.157608 46.362457l34.992126 0l0 25.007874l-34.992126 0z" fill-rule="evenodd"/><path fill="#000000" d="m39.12722 59.195145l3.96875 0l0 0.6875l-3.96875 0l0 -0.6875zm6.0628204 2.34375l1.3125 0l0 -4.515625l0.09375 -0.546875l-0.375 0.4375l-1.03125 0.734375l-0.34375 -0.484375l2.046875 -1.578125l0.34375 0l0 5.953125l1.265625 0l0 0.6875l-3.3125 0l0 -0.6875z" fill-rule="nonzero"/><path fill="#000000" fill-opacity="0.0" d="m66.15761 126.36246l34.992126 0l0 25.007874l-34.992126 0z" fill-rule="evenodd"/><path fill="#000000" d="m81.518005 138.96077q0 -1.671875 0.546875 -2.515625q0.546875 -0.859375 1.578125 -0.859375q1.140625 0 1.640625 0.84375q0.515625 0.828125 0.515625 2.53125q0 1.6875 -0.546875 2.53125q-0.546875 0.84375 -1.609375 0.84375q-1.109375 0 -1.625 -0.875q-0.5 -0.890625 -0.5 -2.5zm0.765625 0q0 0.609375 0.078125 1.109375q0.078125 0.5 0.25 0.859375q0.171875 0.359375 0.421875 0.5625q0.265625 0.1875 0.609375 0.1875q0.71875 0 1.046875 -0.65625q0.328125 -0.65625 0.328125 -2.0625q0 -0.59375 -0.078125 -1.09375q-0.0625 -0.515625 -0.234375 -0.875q-0.15625 -0.359375 -0.421875 -0.546875q-0.25 -0.203125 -0.640625 -0.203125q-0.6875 0 -1.03125 0.65625q-0.328125 0.65625 -0.328125 2.0625z" fill-rule="nonzero"/><path fill="#000000" fill-opacity="0.0" d="m426.82428 4.3624587l34.992126 0l0 25.007874l-34.992126 0z" fill-rule="evenodd"/><path fill="#000000" d="m442.0508 16.945147q0 -1.703125 0.578125 -2.53125q0.59375 -0.84375 1.703125 -0.84375q1.171875 0 1.71875 0.828125q0.546875 0.8125 0.546875 2.546875q0 1.734375 -0.59375 2.578125q-0.59375 0.828125 -1.6875 0.828125q-1.171875 0 -1.71875 -0.875q-0.546875 -0.875 -0.546875 -2.53125zm1.203125 0q0 1.140625 0.25 1.765625q0.25 0.625 0.828125 0.625q0.546875 0 0.796875 -0.5625q0.265625 -0.578125 0.265625 -1.828125q0 -1.125 -0.25 -1.734375q-0.234375 -0.625 -0.828125 -0.625q-0.5625 0 -0.8125 0.578125q-0.25 0.578125 -0.25 1.78125z" fill-rule="nonzero"/><path fill="#000000" fill-opacity="0.0" d="m462.1576 44.362457l34.992126 0l0 25.007874l-34.992126 0z" fill-rule="evenodd"/><path fill="#000000" d="m474.95743 56.55452l1.5 0l0 -1.578125l1.09375 0l0 1.578125l1.53125 0l0 1.046875l-1.53125 0l0 1.59375l-1.09375 0l0 -1.59375l-1.5 0l0 -1.046875zm8.947174 -1.265625q0 0.484375 -0.1875 0.96875q-0.171875 0.484375 -0.4375 0.953125q-0.265625 0.453125 -0.59375 0.890625q-0.3125 0.4375 -0.609375 0.796875l-0.5 0.390625l0 0.046875l0.671875 -0.140625l1.796875 0l0 1.03125l-3.9375 0l0 -0.625q0.234375 -0.234375 0.5 -0.546875q0.28125 -0.3125 0.5625 -0.65625q0.296875 -0.359375 0.5625 -0.71875q0.265625 -0.375 0.484375 -0.75q0.21875 -0.390625 0.34375 -0.734375q0.125 -0.359375 0.125 -0.671875q0 -0.390625 -0.21875 -0.640625q-0.21875 -0.25 -0.703125 -0.25q-0.296875 0 -0.609375 0.140625q-0.3125 0.125 -0.515625 0.3125l-0.484375 -0.859375q0.359375 -0.296875 0.8125 -0.46875q0.46875 -0.1875 1.09375 -0.1875q0.40625 0 0.734375 0.109375q0.34375 0.109375 0.578125 0.328125q0.25 0.21875 0.390625 0.546875q0.140625 0.3125 0.140625 0.734375z" fill-rule="nonzero"/><path fill="#000000" fill-opacity="0.0" d="m482.1576 84.36246l34.992126 0l0 25.007874l-34.992126 0z" fill-rule="evenodd"/><path fill="#000000" d="m494.95743 96.55452l1.5 0l0 -1.578125l1.09375 0l0 1.578125l1.53125 0l0 1.046875l-1.53125 0l0 1.59375l-1.09375 0l0 -1.59375l-1.5 0l0 -1.046875zm5.447174 2.640625l1.296875 0l0 -3.671875l0.140625 -0.640625l-0.4375 0.546875l-0.84375 0.578125l-0.5 -0.703125l2.125 -1.71875l0.671875 0l0 5.609375l1.28125 0l0 1.03125l-3.734375 0l0 -1.03125z" fill-rule="nonzero"/><path fill="#000000" fill-opacity="0.0" d="m413.1576 84.36246l34.992126 0l0 25.007874l-34.992126 0z" fill-rule="evenodd"/><path fill="#000000" d="m426.12723 97.195145l3.96875 0l0 0.6875l-3.96875 0l0 -0.6875zm6.062805 2.34375l1.3125 0l0 -4.515625l0.09375 -0.546875l-0.375 0.4375l-1.03125 0.734375l-0.34375 -0.484375l2.046875 -1.578125l0.34375 0l0 5.953125l1.265625 0l0 0.6875l-3.3125 0l0 -0.6875z" fill-rule="nonzero"/><path fill="#000000" fill-opacity="0.0" d="m358.1576 132.36246l34.992126 0l0 25.007874l-34.992126 0z" fill-rule="evenodd"/><path fill="#000000" d="m373.518 144.96077q0 -1.671875 0.546875 -2.515625q0.546875 -0.859375 1.578125 -0.859375q1.140625 0 1.640625 0.84375q0.515625 0.828125 0.515625 2.53125q0 1.6875 -0.546875 2.53125q-0.546875 0.84375 -1.609375 0.84375q-1.109375 0 -1.625 -0.875q-0.5 -0.890625 -0.5 -2.5zm0.765625 0q0 0.609375 0.078125 1.109375q0.078125 0.5 0.25 0.859375q0.171875 0.359375 0.421875 0.5625q0.265625 0.1875 0.609375 0.1875q0.71875 0 1.046875 -0.65625q0.328125 -0.65625 0.328125 -2.0625q0 -0.59375 -0.078125 -1.09375q-0.0625 -0.515625 -0.234375 -0.875q-0.15625 -0.359375 -0.421875 -0.546875q-0.25 -0.203125 -0.640625 -0.203125q-0.6875 0 -1.03125 0.65625q-0.328125 0.65625 -0.328125 2.0625z" fill-rule="nonzero"/><path fill="#000000" fill-opacity="0.0" d="m332.1576 84.36246l34.992126 0l0 25.007874l-34.992126 0z" fill-rule="evenodd"/><path fill="#000000" d="m347.518 96.96077q0 -1.671875 0.546875 -2.515625q0.546875 -0.859375 1.578125 -0.859375q1.140625 0 1.640625 0.84375q0.515625 0.828125 0.515625 2.53125q0 1.6875 -0.546875 2.53125q-0.546875 0.84375 -1.609375 0.84375q-1.109375 0 -1.625 -0.875q-0.5 -0.890625 -0.5 -2.5zm0.765625 0q0 0.609375 0.078125 1.109375q0.078125 0.5 0.25 0.859375q0.171875 0.359375 0.421875 0.5625q0.265625 0.1875 0.609375 0.1875q0.71875 0 1.046875 -0.65625q0.328125 -0.65625 0.328125 -2.0625q0 -0.59375 -0.078125 -1.09375q-0.0625 -0.515625 -0.234375 -0.875q-0.15625 -0.359375 -0.421875 -0.546875q-0.25 -0.203125 -0.640625 -0.203125q-0.6875 0 -1.03125 0.65625q-0.328125 0.65625 -0.328125 2.0625z" fill-rule="nonzero"/><path fill="#000000" fill-opacity="0.0" d="m355.1576 44.362457l34.992126 0l0 25.007874l-34.992126 0z" fill-rule="evenodd"/><path fill="#000000" d="m368.1314 56.74202l1.640625 0l0 -1.6875l0.671875 0l0 1.6875l1.640625 0l0 0.671875l-1.640625 0l0 1.671875l-0.671875 0l0 -1.671875l-1.640625 0l0 -0.671875zm5.3356934 2.796875l1.3125 0l0 -4.515625l0.09375 -0.546875l-0.375 0.4375l-1.03125 0.734375l-0.34375 -0.484375l2.046875 -1.578125l0.34375 0l0 5.953125l1.265625 0l0 0.6875l-3.3125 0l0 -0.6875z" fill-rule="nonzero"/><path fill="#000000" fill-opacity="0.0" d="m177.34743 153.77098c0 -8.175552 6.6276093 -14.803162 14.803162 -14.803162c3.9260406 0 7.691269 1.5596161 10.467407 4.3357544c2.776123 2.776123 4.335739 6.5413666 4.335739 10.467407c0 8.175552 -6.627594 14.803146 -14.803146 14.803146c-8.175552 0 -14.803162 -6.627594 -14.803162 -14.803146z" fill-rule="evenodd"/><path stroke="#000000" stroke-width="1.0" stroke-linejoin="round" stroke-linecap="butt" d="m177.34743 153.77098c0 -8.175552 6.6276093 -14.803162 14.803162 -14.803162c3.9260406 0 7.691269 1.5596161 10.467407 4.3357544c2.776123 2.776123 4.335739 6.5413666 4.335739 10.467407c0 8.175552 -6.627594 14.803146 -14.803146 14.803146c-8.175552 0 -14.803162 -6.627594 -14.803162 -14.803146z" fill-rule="evenodd"/><path fill="#000000" d="m194.47311 154.12231l-4.640625 0l0 4.4375l-1.15625 0l0 -9.671875l1.15625 0l0 4.203125l4.640625 0l0 -4.203125l1.140625 0l0 9.671875l-1.140625 0l0 -4.4375z" fill-rule="nonzero"/><path fill="#000000" fill-opacity="0.0" d="m180.37238 124.23838l11.779526 14.740166" fill-rule="evenodd"/><path stroke="#000000" stroke-width="1.0" stroke-linejoin="round" stroke-linecap="butt" d="m180.37238 124.23838l8.033798 10.053001" fill-rule="evenodd"/><path fill="#000000" stroke="#000000" stroke-width="1.0" stroke-linecap="butt" d="m187.11584 135.32253l4.123413 2.5139923l-1.5427551 -4.576294z" fill-rule="evenodd"/><path fill="#000000" fill-opacity="0.0" d="m191.40323 126.36246l34.99211 0l0 25.007874l-34.99211 0z" fill-rule="evenodd"/><path fill="#000000" d="m206.62976 138.94514q0 -1.703125 0.578125 -2.53125q0.59375 -0.84375 1.703125 -0.84375q1.171875 0 1.71875 0.828125q0.546875 0.8125 0.546875 2.546875q0 1.734375 -0.59375 2.578125q-0.59375 0.828125 -1.6875 0.828125q-1.171875 0 -1.71875 -0.875q-0.546875 -0.875 -0.546875 -2.53125zm1.203125 0q0 1.140625 0.25 1.765625q0.25 0.625 0.828125 0.625q0.546875 0 0.796875 -0.5625q0.265625 -0.578125 0.265625 -1.828125q0 -1.125 -0.25 -1.734375q-0.234375 -0.625 -0.828125 -0.625q-0.5625 0 -0.8125 0.578125q-0.25 0.578125 -0.25 1.78125z" fill-rule="nonzero"/><path fill="#000000" fill-opacity="0.0" d="m489.34744 153.77098c0 -8.175552 6.627594 -14.803162 14.803131 -14.803162c3.926056 0 7.691284 1.5596161 10.467407 4.3357544c2.776123 2.776123 4.3357544 6.5413666 4.3357544 10.467407c0 8.175552 -6.6276245 14.803146 -14.803162 14.803146c-8.175537 0 -14.803131 -6.627594 -14.803131 -14.803146z" fill-rule="evenodd"/><path stroke="#000000" stroke-width="1.0" stroke-linejoin="round" stroke-linecap="butt" d="m489.34744 153.77098c0 -8.175552 6.627594 -14.803162 14.803131 -14.803162c3.926056 0 7.691284 1.5596161 10.467407 4.3357544c2.776123 2.776123 4.3357544 6.5413666 4.3357544 10.467407c0 8.175552 -6.6276245 14.803146 -14.803162 14.803146c-8.175537 0 -14.803131 -6.627594 -14.803131 -14.803146z" fill-rule="evenodd"/><path fill="#000000" d="m506.4731 154.12231l-4.640625 0l0 4.4375l-1.15625 0l0 -9.671875l1.15625 0l0 4.203125l4.640625 0l0 -4.203125l1.140625 0l0 9.671875l-1.140625 0l0 -4.4375z" fill-rule="nonzero"/><path fill="#000000" fill-opacity="0.0" d="m494.7144 124.23838l9.4487915 14.740166" fill-rule="evenodd"/><path stroke="#000000" stroke-width="1.0" stroke-linejoin="round" stroke-linecap="butt" d="m494.71436 124.23838l6.210846 9.688881" fill-rule="evenodd"/><path fill="#000000" stroke="#000000" stroke-width="1.0" stroke-linecap="butt" d="m499.53464 134.81865l3.8395996 2.9291534l-1.0585022 -4.711914z" fill-rule="evenodd"/><path fill="#000000" fill-opacity="0.0" d="m503.40323 126.36246l34.992096 0l0 25.007874l-34.992096 0z" fill-rule="evenodd"/><path fill="#000000" d="m518.62976 138.94514q0 -1.703125 0.578125 -2.53125q0.59375 -0.84375 1.703125 -0.84375q1.171875 0 1.71875 0.828125q0.546875 0.8125 0.546875 2.546875q0 1.734375 -0.59375 2.578125q-0.59375 0.828125 -1.6875 0.828125q-1.171875 0 -1.71875 -0.875q-0.546875 -0.875 -0.546875 -2.53125zm1.203125 0q0 1.140625 0.25 1.765625q0.25 0.625 0.828125 0.625q0.546875 0 0.796875 -0.5625q0.265625 -0.578125 0.265625 -1.828125q0 -1.125 -0.25 -1.734375q-0.234375 -0.625 -0.828125 -0.625q-0.5625 0 -0.8125 0.578125q-0.25 0.578125 -0.25 1.78125z" fill-rule="nonzero"/><path fill="#000000" fill-opacity="0.0" d="m279.76697 14.131488l0 150.67717" fill-rule="evenodd"/><path stroke="#000000" stroke-width="1.0" stroke-linejoin="round" stroke-linecap="butt" d="m279.76697 14.131488l0 150.67717" fill-rule="evenodd"/><path fill="#000000" fill-opacity="0.0" d="m740.0626 30.711775c0 -8.175552 6.6276245 -14.803149 14.803162 -14.803149c3.9260254 0 7.691284 1.5596132 10.467407 4.335742c2.776123 2.7761288 4.3357544 6.5413685 4.3357544 10.467407c0 8.175554 -6.6276245 14.803152 -14.803162 14.803152c-8.175537 0 -14.803162 -6.627598 -14.803162 -14.803152z" fill-rule="evenodd"/><path stroke="#000000" stroke-width="3.0" stroke-linejoin="round" stroke-linecap="butt" d="m740.0626 30.711775c0 -8.175552 6.6276245 -14.803149 14.803162 -14.803149c3.9260254 0 7.691284 1.5596132 10.467407 4.335742c2.776123 2.7761288 4.3357544 6.5413685 4.3357544 10.467407c0 8.175554 -6.6276245 14.803152 -14.803162 14.803152c-8.175537 0 -14.803162 -6.627598 -14.803162 -14.803152z" fill-rule="evenodd"/><path fill="#000000" d="m752.0848 25.828732l5.734375 0l0 1.671875l-3.84375 0l0 2.265625l3.5 0l0 1.6875l-3.5 0l0 2.359375l3.921875 0l0 1.6875l-5.8125 0l0 -9.671875z" fill-rule="nonzero"/><path fill="#000000" fill-opacity="0.0" d="m688.3114 72.24138c0 -8.17556 6.6276245 -14.803154 14.803162 -14.803154c3.9260254 0 7.691284 1.5596161 10.467407 4.335743c2.776123 2.7761269 4.3357544 6.5413704 4.3357544 10.467411c0 8.175552 -6.6276245 14.803146 -14.803162 14.803146c-8.175537 0 -14.803162 -6.627594 -14.803162 -14.803146z" fill-rule="evenodd"/><path stroke="#000000" stroke-width="1.0" stroke-linejoin="round" stroke-linecap="butt" d="m688.3114 72.24138c0 -8.17556 6.6276245 -14.803154 14.803162 -14.803154c3.9260254 0 7.691284 1.5596161 10.467407 4.335743c2.776123 2.7761269 4.3357544 6.5413704 4.3357544 10.467411c0 8.175552 -6.6276245 14.803146 -14.803162 14.803146c-8.175537 0 -14.803162 -6.627594 -14.803162 -14.803146z" fill-rule="evenodd"/><path fill="#000000" d="m706.0924 69.561455q0 0.34375 -0.109375 0.703125q-0.109375 0.359375 -0.34375 0.671875q-0.21875 0.3125 -0.5625 0.546875q-0.34375 0.234375 -0.8125 0.359375l0 0.0625q0.40625 0.0625 0.78125 0.234375q0.390625 0.15625 0.671875 0.453125q0.296875 0.296875 0.46875 0.71875q0.1875 0.40625 0.1875 0.96875q0 0.75 -0.3125 1.296875q-0.3125 0.546875 -0.8125 0.890625q-0.5 0.34375 -1.15625 0.515625q-0.640625 0.15625 -1.328125 0.15625q-0.234375 0 -0.546875 0q-0.3125 0 -0.671875 -0.03125q-0.34375 -0.015625 -0.6875 -0.046875q-0.34375 -0.03125 -0.609375 -0.09375l0 -9.53125q0.515625 -0.078125 1.1875 -0.140625q0.6875 -0.0625 1.484375 -0.0625q0.546875 0 1.09375 0.09375q0.5625 0.09375 1.015625 0.359375q0.46875 0.25 0.765625 0.703125q0.296875 0.453125 0.296875 1.171875zm-3.21875 6.578125q0.453125 0 0.859375 -0.09375q0.421875 -0.109375 0.734375 -0.328125q0.328125 -0.234375 0.5 -0.5625q0.1875 -0.34375 0.1875 -0.796875q0 -0.5625 -0.234375 -0.90625q-0.21875 -0.34375 -0.59375 -0.53125q-0.359375 -0.203125 -0.8125 -0.265625q-0.453125 -0.078125 -0.90625 -0.078125l-1.203125 0l0 3.46875q0.09375 0.03125 0.265625 0.046875q0.1875 0.015625 0.390625 0.03125q0.203125 0 0.421875 0.015625q0.234375 0 0.390625 0zm-0.75 -4.53125q0.234375 0 0.5625 -0.015625q0.328125 -0.015625 0.546875 -0.03125q0.34375 -0.125 0.625 -0.28125q0.296875 -0.15625 0.515625 -0.359375q0.234375 -0.21875 0.359375 -0.5q0.140625 -0.296875 0.140625 -0.625q0 -0.453125 -0.171875 -0.75q-0.171875 -0.296875 -0.46875 -0.46875q-0.28125 -0.1875 -0.65625 -0.265625q-0.375 -0.078125 -0.765625 -0.078125q-0.453125 0 -0.84375 0.03125q-0.375 0.015625 -0.5625 0.046875l0 3.296875l0.71875 0z" fill-rule="nonzero"/><path fill="#000000" fill-opacity="0.0" d="m693.60455 155.30058c0 -8.175568 6.6275635 -14.803162 14.803101 -14.803162c3.9260864 0 7.691284 1.5596161 10.467407 4.3357544c2.776123 2.776123 4.3357544 6.5413666 4.3357544 10.467407c0 8.175552 -6.6275635 14.803146 -14.803162 14.803146c-8.175537 0 -14.803101 -6.627594 -14.803101 -14.803146z" fill-rule="evenodd"/><path stroke="#000000" stroke-width="1.0" stroke-linejoin="round" stroke-linecap="butt" d="m693.60455 155.30058c0 -8.175568 6.6275635 -14.803162 14.803101 -14.803162c3.9260864 0 7.691284 1.5596161 10.467407 4.3357544c2.776123 2.776123 4.3357544 6.5413666 4.3357544 10.467407c0 8.175552 -6.6275635 14.803146 -14.803162 14.803146c-8.175537 0 -14.803101 -6.627594 -14.803101 -14.803146z" fill-rule="evenodd"/><path fill="#000000" d="m711.8348 159.68315q-0.421875 0.328125 -1.0625 0.453125q-0.625 0.125 -1.34375 0.125q-0.875 0 -1.640625 -0.296875q-0.75 -0.296875 -1.328125 -0.90625q-0.5625 -0.609375 -0.890625 -1.5625q-0.328125 -0.953125 -0.328125 -2.25q0 -1.34375 0.359375 -2.296875q0.359375 -0.953125 0.953125 -1.546875q0.609375 -0.609375 1.359375 -0.875q0.75 -0.28125 1.53125 -0.28125q0.828125 0 1.34375 0.09375q0.53125 0.078125 0.90625 0.234375l-0.28125 1.015625q-0.65625 -0.328125 -1.890625 -0.328125q-0.5625 0 -1.125 0.21875q-0.546875 0.203125 -0.984375 0.671875q-0.4375 0.46875 -0.703125 1.234375q-0.265625 0.75 -0.265625 1.859375q0 1.0 0.25 1.75q0.25 0.75 0.6875 1.25q0.4375 0.484375 1.015625 0.734375q0.59375 0.25 1.296875 0.25q0.609375 0 1.078125 -0.125q0.46875 -0.125 0.78125 -0.3125l0.28125 0.890625z" fill-rule="nonzero"/><path fill="#000000" fill-opacity="0.0" d="m791.81384 72.24138c0 -8.17556 6.6276245 -14.803154 14.803162 -14.803154c3.9260254 0 7.691284 1.5596161 10.467407 4.335743c2.776123 2.7761269 4.3357544 6.5413704 4.3357544 10.467411c0 8.175552 -6.6276245 14.803146 -14.803162 14.803146c-8.175537 0 -14.803162 -6.627594 -14.803162 -14.803146z" fill-rule="evenodd"/><path stroke="#000000" stroke-width="3.0" stroke-linejoin="round" stroke-linecap="butt" d="m791.81384 72.24138c0 -8.17556 6.6276245 -14.803154 14.803162 -14.803154c3.9260254 0 7.691284 1.5596161 10.467407 4.335743c2.776123 2.7761269 4.3357544 6.5413704 4.3357544 10.467411c0 8.175552 -6.6276245 14.803146 -14.803162 14.803146c-8.175537 0 -14.803162 -6.627594 -14.803162 -14.803146z" fill-rule="evenodd"/><path fill="#000000" d="m806.6564 71.98333l3.609375 0l0 4.3125q-0.578125 0.484375 -1.390625 0.703125q-0.8125 0.21875 -1.59375 0.21875q-0.9375 0 -1.734375 -0.28125q-0.796875 -0.296875 -1.375 -0.90625q-0.578125 -0.625 -0.90625 -1.578125q-0.328125 -0.953125 -0.328125 -2.265625q0 -1.359375 0.390625 -2.3125q0.390625 -0.96875 1.03125 -1.5625q0.640625 -0.609375 1.4375 -0.875q0.8125 -0.28125 1.640625 -0.28125q0.828125 0 1.453125 0.125q0.640625 0.125 1.015625 0.265625l-0.390625 1.59375q-0.34375 -0.140625 -0.78125 -0.21875q-0.421875 -0.078125 -1.09375 -0.078125q-0.59375 0 -1.09375 0.1875q-0.484375 0.171875 -0.859375 0.578125q-0.359375 0.40625 -0.5625 1.046875q-0.203125 0.640625 -0.203125 1.546875q0 0.875 0.1875 1.5q0.203125 0.625 0.546875 1.046875q0.34375 0.40625 0.796875 0.59375q0.46875 0.1875 1.0 0.1875q0.359375 0 0.703125 -0.078125q0.34375 -0.09375 0.578125 -0.28125l0 -1.8125l-2.078125 -0.234375l0 -1.140625z" fill-rule="nonzero"/><path fill="#000000" fill-opacity="0.0" d="m712.08264 113.77097c0 -8.175552 6.6276245 -14.803146 14.803162 -14.803146c3.9260254 0 7.691284 1.5596085 10.467407 4.335739c2.776123 2.7761307 4.3357544 6.5413666 4.3357544 10.467407c0 8.175552 -6.6276245 14.803154 -14.803162 14.803154c-8.175537 0 -14.803162 -6.6276016 -14.803162 -14.803154z" fill-rule="evenodd"/><path stroke="#000000" stroke-width="1.0" stroke-linejoin="round" stroke-linecap="butt" d="m712.08264 113.77097c0 -8.175552 6.6276245 -14.803146 14.803162 -14.803146c3.9260254 0 7.691284 1.5596085 10.467407 4.335739c2.776123 2.7761307 4.3357544 6.5413666 4.3357544 10.467407c0 8.175552 -6.6276245 14.803154 -14.803162 14.803154c-8.175537 0 -14.803162 -6.6276016 -14.803162 -14.803154z" fill-rule="evenodd"/><path fill="#000000" d="m723.5359 108.88793q0.265625 -0.046875 0.59375 -0.0625q0.328125 -0.03125 0.671875 -0.03125q0.359375 -0.015625 0.6875 -0.015625q0.34375 -0.015625 0.640625 -0.015625q1.15625 0 2.0 0.359375q0.859375 0.359375 1.40625 1.015625q0.5625 0.640625 0.828125 1.546875q0.265625 0.890625 0.265625 1.96875q0 0.984375 -0.265625 1.890625q-0.25 0.90625 -0.796875 1.609375q-0.546875 0.6875 -1.4375 1.109375q-0.890625 0.421875 -2.140625 0.421875q-0.21875 0 -0.578125 -0.015625q-0.34375 0 -0.71875 -0.03125q-0.375 -0.015625 -0.703125 -0.03125q-0.3125 0 -0.453125 -0.03125l0 -9.6875zm2.609375 0.90625q-0.171875 0 -0.390625 0q-0.203125 0 -0.421875 0.015625q-0.203125 0.015625 -0.375 0.03125q-0.171875 0 -0.265625 0.015625l0 7.75q0.0625 0.015625 0.25 0.03125q0.203125 0 0.40625 0.015625q0.203125 0 0.390625 0q0.203125 0 0.28125 0q0.96875 0 1.625 -0.328125q0.65625 -0.328125 1.046875 -0.890625q0.390625 -0.5625 0.546875 -1.28125q0.171875 -0.734375 0.171875 -1.5q0 -0.6875 -0.15625 -1.359375q-0.140625 -0.6875 -0.515625 -1.234375q-0.375 -0.5625 -1.0 -0.90625q-0.625 -0.359375 -1.59375 -0.359375z" fill-rule="nonzero"/><path fill="#000000" fill-opacity="0.0" d="m813.4438 113.77097c0 -8.175552 6.6276245 -14.803146 14.803162 -14.803146c3.9260864 0 7.691284 1.5596085 10.467407 4.335739c2.776123 2.7761307 4.3357544 6.5413666 4.3357544 10.467407c0 8.175552 -6.6275635 14.803154 -14.803162 14.803154c-8.175537 0 -14.803162 -6.6276016 -14.803162 -14.803154z" fill-rule="evenodd"/><path stroke="#000000" stroke-width="3.0" stroke-linejoin="round" stroke-linecap="butt" d="m813.4438 113.77097c0 -8.175552 6.6276245 -14.803146 14.803162 -14.803146c3.9260864 0 7.691284 1.5596085 10.467407 4.335739c2.776123 2.7761307 4.3357544 6.5413666 4.3357544 10.467407c0 8.175552 -6.6275635 14.803154 -14.803162 14.803154c-8.175537 0 -14.803162 -6.6276016 -14.803162 -14.803154z" fill-rule="evenodd"/><path fill="#000000" d="m830.01154 114.51293l-3.546875 0l0 4.046875l-1.890625 0l0 -9.671875l1.890625 0l0 3.9375l3.546875 0l0 -3.9375l1.890625 0l0 9.671875l-1.890625 0l0 -4.046875z" fill-rule="nonzero"/><path fill="#000000" fill-opacity="0.0" d="m664.5802 113.77097c0 -8.175552 6.6276245 -14.803146 14.803162 -14.803146c3.9260254 0 7.691284 1.5596085 10.467407 4.335739c2.776123 2.7761307 4.3357544 6.5413666 4.3357544 10.467407c0 8.175552 -6.6276245 14.803154 -14.803162 14.803154c-8.175537 0 -14.803162 -6.6276016 -14.803162 -14.803154z" fill-rule="evenodd"/><path stroke="#000000" stroke-width="1.0" stroke-linejoin="round" stroke-linecap="butt" d="m664.5802 113.77097c0 -8.175552 6.6276245 -14.803146 14.803162 -14.803146c3.9260254 0 7.691284 1.5596085 10.467407 4.335739c2.776123 2.7761307 4.3357544 6.5413666 4.3357544 10.467407c0 8.175552 -6.6276245 14.803154 -14.803162 14.803154c-8.175537 0 -14.803162 -6.6276016 -14.803162 -14.803154z" fill-rule="evenodd"/><path fill="#000000" d="m681.11993 115.87231l-3.5625 0l-0.96875 2.6875l-1.140625 0l3.671875 -9.828125l0.515625 0l3.6875 9.828125l-1.203125 0l-1.0 -2.6875zm-3.203125 -0.984375l2.859375 0l-1.078125 -2.953125l-0.34375 -1.46875l-0.015625 0l-0.34375 1.5l-1.078125 2.921875z" fill-rule="nonzero"/><path fill="#000000" fill-opacity="0.0" d="m744.3984 41.179184l-30.803162 20.598423" fill-rule="evenodd"/><path stroke="#000000" stroke-width="1.0" stroke-linejoin="round" stroke-linecap="butt" d="m744.3984 41.179184l-25.815552 17.263165" fill-rule="evenodd"/><path fill="#000000" stroke="#000000" stroke-width="1.0" stroke-linecap="butt" d="m717.6647 57.069324l-2.854248 3.895649l4.6905518 -1.1495972z" fill-rule="evenodd"/><path fill="#000000" fill-opacity="0.0" d="m716.4184 124.23838l-8.0 16.251976" fill-rule="evenodd"/><path stroke="#000000" stroke-width="1.0" stroke-linejoin="round" stroke-linecap="butt" d="m716.4184 124.23838l-5.3501587 10.868828" fill-rule="evenodd"/><path fill="#000000" stroke="#000000" stroke-width="1.0" stroke-linecap="butt" d="m709.5863 134.37773l-0.52227783 4.80101l3.486145 -3.3420715z" fill-rule="evenodd"/><path fill="#000000" fill-opacity="0.0" d="m765.3332 41.179184l30.803162 20.598423" fill-rule="evenodd"/><path stroke="#000000" stroke-width="1.0" stroke-linejoin="round" stroke-linecap="butt" d="m765.3332 41.179184l25.81549 17.263165" fill-rule="evenodd"/><path fill="#000000" stroke="#000000" stroke-width="1.0" stroke-linecap="butt" d="m790.2306 59.815376l4.6904907 1.1495972l-2.854187 -3.895649z" fill-rule="evenodd"/><path fill="#000000" fill-opacity="0.0" d="m713.582 82.708786l13.291321 16.251968" fill-rule="evenodd"/><path stroke="#000000" stroke-width="1.0" stroke-linejoin="round" stroke-linecap="butt" d="m713.5819 82.708786l9.49292 11.607422" fill-rule="evenodd"/><path fill="#000000" stroke="#000000" stroke-width="1.0" stroke-linecap="butt" d="m721.79626 95.36188l4.1515503 2.4672318l-1.5944214 -4.558571z" fill-rule="evenodd"/><path fill="#000000" fill-opacity="0.0" d="m817.0844 82.708786l11.149597 16.251968" fill-rule="evenodd"/><path stroke="#000000" stroke-width="1.0" stroke-linejoin="round" stroke-linecap="butt" d="m817.0844 82.708786l7.75531 11.304359" fill-rule="evenodd"/><path fill="#000000" stroke="#000000" stroke-width="1.0" stroke-linecap="butt" d="m823.4777 94.947556l3.9292603 2.8077087l-1.2052612 -4.676529z" fill-rule="evenodd"/><path fill="#000000" fill-opacity="0.0" d="m692.64716 82.708786l-13.259827 16.251968" fill-rule="evenodd"/><path stroke="#000000" stroke-width="1.0" stroke-linejoin="round" stroke-linecap="butt" d="m692.64716 82.708786l-9.466797 11.603004" fill-rule="evenodd"/><path fill="#000000" stroke="#000000" stroke-width="1.0" stroke-linecap="butt" d="m681.9005 93.26762l-1.5890503 4.560417l4.1486816 -2.4720535z" fill-rule="evenodd"/><path fill="#000000" fill-opacity="0.0" d="m755.77216 4.3624587l34.992126 0l0 25.007874l-34.992126 0z" fill-rule="evenodd"/><path fill="#000000" d="m768.56104 16.992022l4.125 0l0 1.078125l-4.125 0l0 -1.078125zm6.07843 2.203125l1.296875 0l0 -3.671875l0.140625 -0.640625l-0.4375 0.546875l-0.84375 0.578125l-0.5 -0.703125l2.125 -1.71875l0.671875 0l0 5.609375l1.28125 0l0 1.03125l-3.734375 0l0 -1.03125z" fill-rule="nonzero"/><path fill="#000000" fill-opacity="0.0" d="m806.1576 44.362457l34.992126 0l0 25.007874l-34.992126 0z" fill-rule="evenodd"/><path fill="#000000" d="m821.38416 56.945145q0 -1.703125 0.578125 -2.53125q0.59375 -0.84375 1.703125 -0.84375q1.171875 0 1.71875 0.828125q0.546875 0.8125 0.546875 2.546875q0 1.734375 -0.59375 2.578125q-0.59375 0.828125 -1.6875 0.828125q-1.171875 0 -1.71875 -0.875q-0.546875 -0.875 -0.546875 -2.53125zm1.203125 0q0 1.140625 0.25 1.765625q0.25 0.625 0.828125 0.625q0.546875 0 0.796875 -0.5625q0.265625 -0.578125 0.265625 -1.828125q0 -1.125 -0.25 -1.734375q-0.234375 -0.625 -0.828125 -0.625q-0.5625 0 -0.8125 0.578125q-0.25 0.578125 -0.25 1.78125z" fill-rule="nonzero"/><path fill="#000000" fill-opacity="0.0" d="m826.1576 84.36246l34.992126 0l0 25.007874l-34.992126 0z" fill-rule="evenodd"/><path fill="#000000" d="m841.38416 96.945145q0 -1.703125 0.578125 -2.53125q0.59375 -0.84375 1.703125 -0.84375q1.171875 0 1.71875 0.828125q0.546875 0.8125 0.546875 2.546875q0 1.734375 -0.59375 2.578125q-0.59375 0.828125 -1.6875 0.828125q-1.171875 0 -1.71875 -0.875q-0.546875 -0.875 -0.546875 -2.53125zm1.203125 0q0 1.140625 0.25 1.765625q0.25 0.625 0.828125 0.625q0.546875 0 0.796875 -0.5625q0.265625 -0.578125 0.265625 -1.828125q0 -1.125 -0.25 -1.734375q-0.234375 -0.625 -0.828125 -0.625q-0.5625 0 -0.8125 0.578125q-0.25 0.578125 -0.25 1.78125z" fill-rule="nonzero"/><path fill="#000000" fill-opacity="0.0" d="m725.1576 84.36246l34.992126 0l0 25.007874l-34.992126 0z" fill-rule="evenodd"/><path fill="#000000" d="m738.1272 97.195145l3.96875 0l0 0.6875l-3.96875 0l0 -0.6875zm6.062866 2.34375l1.3125 0l0 -4.515625l0.09375 -0.546875l-0.375 0.4375l-1.03125 0.734375l-0.34375 -0.484375l2.046875 -1.578125l0.34375 0l0 5.953125l1.265625 0l0 0.6875l-3.3125 0l0 -0.6875z" fill-rule="nonzero"/><path fill="#000000" fill-opacity="0.0" d="m670.1576 132.36246l34.992126 0l0 25.007874l-34.992126 0z" fill-rule="evenodd"/><path fill="#000000" d="m685.518 144.96077q0 -1.671875 0.546875 -2.515625q0.546875 -0.859375 1.578125 -0.859375q1.140625 0 1.640625 0.84375q0.515625 0.828125 0.515625 2.53125q0 1.6875 -0.546875 2.53125q-0.546875 0.84375 -1.609375 0.84375q-1.109375 0 -1.625 -0.875q-0.5 -0.890625 -0.5 -2.5zm0.765625 0q0 0.609375 0.078125 1.109375q0.078125 0.5 0.25 0.859375q0.171875 0.359375 0.421875 0.5625q0.265625 0.1875 0.609375 0.1875q0.71875 0 1.046875 -0.65625q0.328125 -0.65625 0.328125 -2.0625q0 -0.59375 -0.078125 -1.09375q-0.0625 -0.515625 -0.234375 -0.875q-0.15625 -0.359375 -0.421875 -0.546875q-0.25 -0.203125 -0.640625 -0.203125q-0.6875 0 -1.03125 0.65625q-0.328125 0.65625 -0.328125 2.0625z" fill-rule="nonzero"/><path fill="#000000" fill-opacity="0.0" d="m644.1576 84.36246l34.992126 0l0 25.007874l-34.992126 0z" fill-rule="evenodd"/><path fill="#000000" d="m659.518 96.96077q0 -1.671875 0.546875 -2.515625q0.546875 -0.859375 1.578125 -0.859375q1.140625 0 1.640625 0.84375q0.515625 0.828125 0.515625 2.53125q0 1.6875 -0.546875 2.53125q-0.546875 0.84375 -1.609375 0.84375q-1.109375 0 -1.625 -0.875q-0.5 -0.890625 -0.5 -2.5zm0.765625 0q0 0.609375 0.078125 1.109375q0.078125 0.5 0.25 0.859375q0.171875 0.359375 0.421875 0.5625q0.265625 0.1875 0.609375 0.1875q0.71875 0 1.046875 -0.65625q0.328125 -0.65625 0.328125 -2.0625q0 -0.59375 -0.078125 -1.09375q-0.0625 -0.515625 -0.234375 -0.875q-0.15625 -0.359375 -0.421875 -0.546875q-0.25 -0.203125 -0.640625 -0.203125q-0.6875 0 -1.03125 0.65625q-0.328125 0.65625 -0.328125 2.0625z" fill-rule="nonzero"/><path fill="#000000" fill-opacity="0.0" d="m667.1576 44.362457l34.992126 0l0 25.007874l-34.992126 0z" fill-rule="evenodd"/><path fill="#000000" d="m680.1314 56.74202l1.640625 0l0 -1.6875l0.671875 0l0 1.6875l1.640625 0l0 0.671875l-1.640625 0l0 1.671875l-0.671875 0l0 -1.671875l-1.640625 0l0 -0.671875zm5.3356934 2.796875l1.3125 0l0 -4.515625l0.09375 -0.546875l-0.375 0.4375l-1.03125 0.734375l-0.34375 -0.484375l2.046875 -1.578125l0.34375 0l0 5.953125l1.265625 0l0 0.6875l-3.3125 0l0 -0.6875z" fill-rule="nonzero"/><path fill="#000000" fill-opacity="0.0" d="m768.5802 113.77097c0 -8.175552 6.6276245 -14.803146 14.803162 -14.803146c3.9260254 0 7.691284 1.5596085 10.467407 4.335739c2.776123 2.7761307 4.3357544 6.5413666 4.3357544 10.467407c0 8.175552 -6.6276245 14.803154 -14.803162 14.803154c-8.175537 0 -14.803162 -6.6276016 -14.803162 -14.803154z" fill-rule="evenodd"/><path stroke="#000000" stroke-width="3.0" stroke-linejoin="round" stroke-linecap="butt" d="m768.5802 113.77097c0 -8.175552 6.6276245 -14.803146 14.803162 -14.803146c3.9260254 0 7.691284 1.5596085 10.467407 4.335739c2.776123 2.7761307 4.3357544 6.5413666 4.3357544 10.467407c0 8.175552 -6.6276245 14.803154 -14.803162 14.803154c-8.175537 0 -14.803162 -6.6276016 -14.803162 -14.803154z" fill-rule="evenodd"/><path fill="#000000" d="m780.69916 108.88793l5.734375 0l0 1.671875l-3.84375 0l0 2.40625l3.546875 0l0 1.6875l-3.546875 0l0 3.90625l-1.890625 0l0 -9.671875z" fill-rule="nonzero"/><path fill="#000000" fill-opacity="0.0" d="m796.1496 82.708786l-12.75592 16.251968" fill-rule="evenodd"/><path stroke="#000000" stroke-width="1.0" stroke-linejoin="round" stroke-linecap="butt" d="m796.1496 82.708786l-9.051392 11.53215" fill-rule="evenodd"/><path fill="#000000" stroke="#000000" stroke-width="1.0" stroke-linecap="butt" d="m785.7989 93.22113l-1.5025635 4.5896378l4.1011963 -2.5500183z" fill-rule="evenodd"/><path fill="#000000" fill-opacity="0.0" d="m751.4183 84.836395l34.992126 0l0 25.007874l-34.992126 0z" fill-rule="evenodd"/><path fill="#000000" d="m766.64484 97.41908q0 -1.703125 0.578125 -2.53125q0.59375 -0.84375 1.703125 -0.84375q1.171875 0 1.71875 0.828125q0.546875 0.8125 0.546875 2.546875q0 1.734375 -0.59375 2.578125q-0.59375 0.828125 -1.6875 0.828125q-1.171875 0 -1.71875 -0.875q-0.546875 -0.875 -0.546875 -2.53125zm1.203125 0q0 1.140625 0.25 1.765625q0.25 0.625 0.828125 0.625q0.546875 0 0.796875 -0.5625q0.265625 -0.578125 0.265625 -1.828125q0 -1.125 -0.25 -1.734375q-0.234375 -0.625 -0.828125 -0.625q-0.5625 0 -0.8125 0.578125q-0.25 0.578125 -0.25 1.78125z" fill-rule="nonzero"/><path fill="#efefef" d="m544.4307 59.27847l71.543274 0l0 -9.188976l18.37793 18.377953l-18.37793 18.377953l0 -9.188972l-71.543274 0z" fill-rule="evenodd"/><path stroke="#000000" stroke-width="1.0" stroke-linejoin="round" stroke-linecap="butt" d="m544.4307 59.27847l71.543274 0l0 -9.188976l18.37793 18.377953l-18.37793 18.377953l0 -9.188972l-71.543274 0z" fill-rule="evenodd"/><path fill="#000000" d="m559.179 72.98744l-4.96875 0l0 -8.40625l1.0 0l0 7.515625l3.96875 0l0 0.890625zm4.8085327 -0.484375q-0.359375 0.296875 -0.90625 0.46875q-0.53125 0.15625 -1.15625 0.15625q-0.671875 0 -1.1875 -0.21875q-0.5 -0.21875 -0.828125 -0.625q-0.3125 -0.421875 -0.46875 -1.0q-0.15625 -0.578125 -0.15625 -1.296875q0 -1.53125 0.671875 -2.328125q0.6875 -0.8125 1.96875 -0.8125q0.40625 0 0.8125 0.09375q0.40625 0.078125 0.71875 0.34375q0.328125 0.25 0.53125 0.71875q0.21875 0.453125 0.21875 1.203125q0 0.390625 -0.078125 0.875l-3.859375 0q0 0.53125 0.109375 0.9375q0.109375 0.40625 0.328125 0.6875q0.234375 0.28125 0.59375 0.4375q0.375 0.140625 0.90625 0.140625q0.40625 0 0.8125 -0.140625q0.40625 -0.140625 0.609375 -0.328125l0.359375 0.6875zm-2.0625 -4.8125q-0.703125 0 -1.125 0.375q-0.421875 0.359375 -0.515625 1.265625l2.984375 0q0 -0.921875 -0.359375 -1.28125q-0.34375 -0.359375 -0.984375 -0.359375zm3.1272583 -0.703125l0.9375 0l0 -0.34375q0 -0.546875 0.078125 -0.953125q0.09375 -0.40625 0.296875 -0.65625q0.203125 -0.265625 0.53125 -0.390625q0.328125 -0.125 0.8125 -0.125q0.375 0 0.671875 0.046875q0.296875 0.046875 0.625 0.171875l-0.21875 0.8125q-0.28125 -0.125 -0.53125 -0.15625q-0.234375 -0.03125 -0.453125 -0.03125q-0.3125 0 -0.484375 0.09375q-0.171875 0.09375 -0.25 0.28125q-0.078125 0.1875 -0.109375 0.453125q-0.015625 0.265625 -0.015625 0.625l0 0.171875l1.59375 0l0 0.84375l-1.59375 0l0 5.15625l-0.953125 0l0 -5.15625l-0.9375 0l0 -0.84375zm3.4954224 0l0.9375 0l0 -1.1875l0.96875 -0.28125l0 1.46875l1.625 0l0 0.84375l-1.625 0l0 3.3125q0 0.625 0.15625 0.890625q0.15625 0.25 0.53125 0.25q0.3125 0 0.515625 -0.0625q0.21875 -0.0625 0.484375 -0.171875l0.21875 0.734375q-0.328125 0.15625 -0.71875 0.25q-0.375 0.09375 -0.8125 0.09375q-0.734375 0 -1.046875 -0.40625q-0.296875 -0.421875 -0.296875 -1.390625l0 -3.5l-0.9375 0l0 -0.84375zm4.262146 2.09375l2.90625 0l0 0.890625l-2.90625 0l0 -0.890625zm7.3669434 -1.171875q-0.359375 -0.125 -0.671875 -0.125q-0.515625 0 -0.828125 0.296875q-0.296875 0.28125 -0.359375 0.703125l0 4.203125l-0.96875 0l0 -6.0l0.671875 0l0.1875 0.734375l0.046875 0q0.21875 -0.40625 0.53125 -0.625q0.328125 -0.234375 0.828125 -0.234375q0.34375 0 0.765625 0.125l-0.203125 0.921875zm0.9237671 2.078125q0 -1.53125 0.671875 -2.328125q0.671875 -0.8125 1.953125 -0.8125q0.671875 0 1.171875 0.21875q0.5 0.21875 0.8125 0.640625q0.328125 0.40625 0.484375 1.0q0.15625 0.578125 0.15625 1.28125q0 1.53125 -0.6875 2.34375q-0.671875 0.796875 -1.9375 0.796875q-0.671875 0 -1.171875 -0.21875q-0.5 -0.21875 -0.828125 -0.625q-0.3125 -0.421875 -0.46875 -1.0q-0.15625 -0.59375 -0.15625 -1.296875zm0.984375 0q0 0.453125 0.09375 0.875q0.09375 0.421875 0.28125 0.734375q0.1875 0.3125 0.5 0.5q0.3125 0.1875 0.765625 0.1875q1.625 0.015625 1.625 -2.296875q0 -0.46875 -0.09375 -0.890625q-0.078125 -0.421875 -0.28125 -0.734375q-0.1875 -0.3125 -0.5 -0.484375q-0.3125 -0.1875 -0.75 -0.1875q-1.640625 -0.015625 -1.640625 2.296875zm4.978943 -3.0l0.9375 0l0 -1.1875l0.96875 -0.28125l0 1.46875l1.625 0l0 0.84375l-1.625 0l0 3.3125q0 0.625 0.15625 0.890625q0.15625 0.25 0.53125 0.25q0.3125 0 0.515625 -0.0625q0.21875 -0.0625 0.484375 -0.171875l0.21875 0.734375q-0.328125 0.15625 -0.71875 0.25q-0.375 0.09375 -0.8125 0.09375q-0.734375 0 -1.046875 -0.40625q-0.296875 -0.421875 -0.296875 -1.390625l0 -3.5l-0.9375 0l0 -0.84375zm4.771118 0.4375q0.453125 -0.265625 1.0625 -0.390625q0.609375 -0.140625 1.265625 -0.140625q0.625 0 1.0 0.171875q0.375 0.15625 0.578125 0.4375q0.203125 0.265625 0.265625 0.59375q0.0625 0.3125 0.0625 0.640625q0 0.71875 -0.046875 1.40625q-0.03125 0.6875 -0.03125 1.296875q0 0.4375 0.03125 0.84375q0.046875 0.390625 0.140625 0.734375l-0.703125 0l-0.25 -0.84375l-0.0625 0q-0.109375 0.171875 -0.28125 0.328125q-0.15625 0.15625 -0.390625 0.28125q-0.21875 0.125 -0.515625 0.203125q-0.296875 0.09375 -0.6875 0.09375q-0.375 0 -0.71875 -0.109375q-0.328125 -0.125 -0.5625 -0.34375q-0.234375 -0.234375 -0.375 -0.546875q-0.140625 -0.3125 -0.140625 -0.703125q0 -0.53125 0.21875 -0.875q0.21875 -0.359375 0.609375 -0.5625q0.390625 -0.21875 0.921875 -0.296875q0.546875 -0.09375 1.21875 -0.09375q0.15625 0 0.3125 0q0.171875 0 0.34375 0.015625q0.03125 -0.359375 0.03125 -0.640625q0 -0.671875 -0.265625 -0.921875q-0.265625 -0.265625 -0.953125 -0.265625q-0.203125 0 -0.4375 0.03125q-0.234375 0.015625 -0.484375 0.078125q-0.25 0.046875 -0.46875 0.125q-0.21875 0.078125 -0.390625 0.171875l-0.296875 -0.71875zm1.703125 4.8125q0.34375 0 0.59375 -0.078125q0.265625 -0.09375 0.453125 -0.234375q0.203125 -0.140625 0.328125 -0.296875q0.125 -0.171875 0.1875 -0.328125l0 -1.0q-0.171875 -0.015625 -0.34375 -0.015625q-0.171875 -0.015625 -0.34375 -0.015625q-0.375 0 -0.734375 0.046875q-0.34375 0.046875 -0.625 0.15625q-0.265625 0.109375 -0.421875 0.3125q-0.15625 0.203125 -0.15625 0.5q0 0.421875 0.296875 0.6875q0.296875 0.265625 0.765625 0.265625zm3.5457764 -5.25l0.9375 0l0 -1.1875l0.96875 -0.28125l0 1.46875l1.625 0l0 0.84375l-1.625 0l0 3.3125q0 0.625 0.15625 0.890625q0.15625 0.25 0.53125 0.25q0.3125 0 0.515625 -0.0625q0.21875 -0.0625 0.484375 -0.171875l0.21875 0.734375q-0.328125 0.15625 -0.71875 0.25q-0.375 0.09375 -0.8125 0.09375q-0.734375 0 -1.046875 -0.40625q-0.296875 -0.421875 -0.296875 -1.390625l0 -3.5l-0.9375 0l0 -0.84375zm9.10791 5.515625q-0.359375 0.296875 -0.90625 0.46875q-0.53125 0.15625 -1.15625 0.15625q-0.671875 0 -1.1875 -0.21875q-0.5 -0.21875 -0.828125 -0.625q-0.3125 -0.421875 -0.46875 -1.0q-0.15625 -0.578125 -0.15625 -1.296875q0 -1.53125 0.671875 -2.328125q0.6875 -0.8125 1.96875 -0.8125q0.40625 0 0.8125 0.09375q0.40625 0.078125 0.71875 0.34375q0.328125 0.25 0.53125 0.71875q0.21875 0.453125 0.21875 1.203125q0 0.390625 -0.078125 0.875l-3.859375 0q0 0.53125 0.109375 0.9375q0.109375 0.40625 0.328125 0.6875q0.234375 0.28125 0.59375 0.4375q0.375 0.140625 0.90625 0.140625q0.40625 0 0.8125 -0.140625q0.40625 -0.140625 0.609375 -0.328125l0.359375 0.6875zm-2.0625 -4.8125q-0.703125 0 -1.125 0.375q-0.421875 0.359375 -0.515625 1.265625l2.984375 0q0 -0.921875 -0.359375 -1.28125q-0.34375 -0.359375 -0.984375 -0.359375zm7.081299 -3.109375l4.578125 0l0 0.890625l-3.578125 0l0 2.875l3.34375 0l0 0.890625l-3.34375 0l0 3.75l-1.0 0l0 -8.40625z" fill-rule="nonzero"/></g></svg>