<svg version="1.1" viewBox="0.0 0.0 557.7874015748032 189.86351706036746" fill="none" stroke="none" stroke-linecap="square" stroke-miterlimit="10" xmlns:xlink="http://www.w3.org/1999/xlink" xmlns="http://www.w3.org/2000/svg"><clipPath id="p.0"><path d="m0 0l557.7874 0l0 189.86351l-557.7874 0l0 -189.86351z" clip-rule="nonzero"/></clipPath><g clip-path="url(#p.0)"><path fill="#000000" fill-opacity="0.0" d="m0 0l557.7874 0l0 189.86351l-557.7874 0z" fill-rule="evenodd"/><path fill="#efefef" d="m126.97457 94.27447l-1.9917145 -1.9917145c-12.263351 -12.263351 -32.1621 -12.2793045 -44.4451 -0.035629272l0 0l-4.8428955 -4.8428955l-0.011627197 14.508034l14.531311 0.011650085l-4.8428955 -4.8428955l0 0c9.609039 -9.57827 25.175903 -9.565796 34.76957 0.027870178l1.9917145 1.9917145z" fill-rule="evenodd"/><path stroke="#000000" stroke-width="1.0" stroke-linejoin="round" stroke-linecap="butt" d="m126.97457 94.27447l-1.9917145 -1.9917145c-12.263351 -12.263351 -32.1621 -12.2793045 -44.4451 -0.035629272l0 0l-4.8428955 -4.8428955l-0.011627197 14.508034l14.531311 0.011650085l-4.8428955 -4.8428955l0 0c9.609039 -9.57827 25.175903 -9.565796 34.76957 0.027870178l1.9917145 1.9917145z" fill-rule="evenodd"/><path fill="#efefef" d="m84.14222 58.29458c0 -8.175552 6.627594 -14.803146 14.803146 -14.803146c3.9260406 0 7.6912766 1.5596123 10.467407 4.335739c2.7761307 2.7761307 4.335747 6.5413704 4.335747 10.467407c0 8.175552 -6.6276016 14.803154 -14.803154 14.803154c-8.175552 0 -14.803146 -6.6276016 -14.803146 -14.803154z" fill-rule="evenodd"/><path stroke="#000000" stroke-width="1.0" stroke-linejoin="round" stroke-linecap="butt" d="m84.14222 58.29458c0 -8.175552 6.627594 -14.803146 14.803146 -14.803146c3.9260406 0 7.6912766 1.5596123 10.467407 4.335739c2.7761307 2.7761307 4.335747 6.5413704 4.335747 10.467407c0 8.175552 -6.6276016 14.803154 -14.803154 14.803154c-8.175552 0 -14.803146 -6.6276016 -14.803146 -14.803154z" fill-rule="evenodd"/><path fill="#000000" d="m98.250626 58.161537l-2.9375 -4.75l1.375 0l1.96875 3.265625l0.34375 0.796875l0.328125 -0.796875l2.078125 -3.265625l1.265625 0l-3.03125 4.65625l3.171875 5.015625l-1.34375 0l-2.171875 -3.46875l-0.375 -0.828125l-0.359375 0.828125l-2.25 3.46875l-1.28125 0l3.21875 -4.921875z" fill-rule="nonzero"/><path fill="#efefef" d="m142.19041 99.82418c0 -8.175552 6.627594 -14.803146 14.803146 -14.803146c3.9260406 0 7.691269 1.5596085 10.467407 4.335739c2.776123 2.7761307 4.335739 6.5413666 4.335739 10.467407c0 8.175552 -6.627594 14.803146 -14.803146 14.803146c-8.175552 0 -14.803146 -6.627594 -14.803146 -14.803146z" fill-rule="evenodd"/><path stroke="#000000" stroke-width="1.0" stroke-linejoin="round" stroke-linecap="butt" d="m142.19041 99.82418c0 -8.175552 6.627594 -14.803146 14.803146 -14.803146c3.9260406 0 7.691269 1.5596085 10.467407 4.335739c2.776123 2.7761307 4.335739 6.5413666 4.335739 10.467407c0 8.175552 -6.627594 14.803146 -14.803146 14.803146c-8.175552 0 -14.803146 -6.627594 -14.803146 -14.803146z" fill-rule="evenodd"/><path fill="#000000" d="m156.44803 100.769264l-3.203125 -5.828125l1.34375 0l2.265625 4.21875l0.234375 0.84375l0.015625 0l0.25 -0.859375l2.171875 -4.203125l1.234375 0l-3.171875 5.8125l0 3.859375l-1.140625 0l0 -3.84375z" fill-rule="nonzero"/><path fill="#000000" fill-opacity="0.0" d="m109.41277 68.761986l47.590553 16.251968" fill-rule="evenodd"/><path stroke="#000000" stroke-width="1.0" stroke-linejoin="round" stroke-linecap="butt" d="m109.41277 68.761986l41.9125 14.3129425" fill-rule="evenodd"/><path fill="#000000" stroke="#000000" stroke-width="1.0" stroke-linecap="butt" d="m150.79149 84.63803l4.828369 -0.09651947l-3.760788 -3.029686z" fill-rule="evenodd"/><path fill="#ffffff" d="m178.09402 139.82417c0 -8.175552 6.627594 -14.803139 14.803146 -14.803139c3.9260406 0 7.691284 1.5596085 10.467407 4.3357315c2.7761383 2.7761383 4.335739 6.541382 4.335739 10.467407c0 8.175568 -6.627594 14.803162 -14.803146 14.803162c-8.175552 0 -14.803146 -6.627594 -14.803146 -14.803162z" fill-rule="evenodd"/><path stroke="#000000" stroke-width="1.0" stroke-linejoin="round" stroke-linecap="butt" d="m178.09402 139.82417c0 -8.175552 6.627594 -14.803139 14.803146 -14.803139c3.9260406 0 7.691284 1.5596085 10.467407 4.3357315c2.7761383 2.7761383 4.335739 6.541382 4.335739 10.467407c0 8.175568 -6.627594 14.803162 -14.803146 14.803162c-8.175552 0 -14.803146 -6.627594 -14.803146 -14.803162z" fill-rule="evenodd"/><path fill="#000000" d="m190.23486 141.4255l0.234375 1.59375l0.015625 0l0.234375 -1.625l1.984375 -6.453125l0.546875 0l2.015625 6.484375l0.234375 1.59375l0.015625 0l0.25 -1.625l1.625 -6.453125l1.125 0l-2.703125 9.828125l-0.640625 0l-1.953125 -6.484375l-0.25 -1.46875l-0.078125 0l-0.25 1.484375l-1.953125 6.46875l-0.640625 0l-2.765625 -9.828125l1.21875 0l1.734375 6.484375z" fill-rule="nonzero"/><path fill="#000000" fill-opacity="0.0" d="m167.46097 110.29159l25.448822 14.740158" fill-rule="evenodd"/><path stroke="#000000" stroke-width="1.0" stroke-linejoin="round" stroke-linecap="butt" d="m167.46097 110.29159l20.256836 11.732925" fill-rule="evenodd"/><path fill="#000000" stroke="#000000" stroke-width="1.0" stroke-linecap="butt" d="m186.88995 123.453804l4.7547913 0.8452225l-3.0990753 -3.703804z" fill-rule="evenodd"/><path fill="#efefef" d="m226.99344 52.68338l71.543304 0l0 -9.188976l18.37796 18.377953l-18.37796 18.377956l0 -9.18898l-71.543304 0z" fill-rule="evenodd"/><path stroke="#000000" stroke-width="1.0" stroke-linejoin="round" stroke-linecap="butt" d="m226.99344 52.68338l71.543304 0l0 -9.188976l18.37796 18.377953l-18.37796 18.377956l0 -9.18898l-71.543304 0z" fill-rule="evenodd"/><path fill="#000000" d="m241.31572 66.39236l-4.96875 0l0 -8.40625l1.0 0l0 7.515625l3.96875 0l0 0.890625zm4.808548 -0.484375q-0.359375 0.296875 -0.90625 0.46875q-0.53125 0.15625 -1.15625 0.15625q-0.671875 0 -1.1875 -0.21875q-0.5 -0.21875 -0.828125 -0.625q-0.3125 -0.421875 -0.46875 -1.0q-0.15625 -0.578125 -0.15625 -1.296875q0 -1.53125 0.671875 -2.328125q0.6875 -0.8125 1.96875 -0.8125q0.40625 0 0.8125 0.09375q0.40625 0.078125 0.71875 0.34375q0.328125 0.25 0.53125 0.71875q0.21875 0.453125 0.21875 1.203125q0 0.390625 -0.078125 0.875l-3.859375 0q0 0.53125 0.109375 0.9375q0.109375 0.40625 0.328125 0.6875q0.234375 0.28125 0.59375 0.4375q0.375 0.140625 0.90625 0.140625q0.40625 0 0.8125 -0.140625q0.40625 -0.140625 0.609375 -0.328125l0.359375 0.6875zm-2.0625 -4.8125q-0.703125 0 -1.125 0.375q-0.421875 0.359375 -0.515625 1.265625l2.984375 0q0 -0.921875 -0.359375 -1.28125q-0.34375 -0.359375 -0.984375 -0.359375zm3.1272888 -0.703125l0.9375 0l0 -0.34375q0 -0.546875 0.078125 -0.953125q0.09375 -0.40625 0.296875 -0.65625q0.203125 -0.265625 0.53125 -0.390625q0.328125 -0.125 0.8125 -0.125q0.375 0 0.671875 0.046875q0.296875 0.046875 0.625 0.171875l-0.21875 0.8125q-0.28125 -0.125 -0.53125 -0.15625q-0.234375 -0.03125 -0.453125 -0.03125q-0.3125 0 -0.484375 0.09375q-0.171875 0.09375 -0.25 0.28125q-0.078125 0.1875 -0.109375 0.453125q-0.015625 0.265625 -0.015625 0.625l0 0.171875l1.59375 0l0 0.84375l-1.59375 0l0 5.15625l-0.953125 0l0 -5.15625l-0.9375 0l0 -0.84375zm3.495407 0l0.9375 0l0 -1.1875l0.96875 -0.28125l0 1.46875l1.625 0l0 0.84375l-1.625 0l0 3.3125q0 0.625 0.15625 0.890625q0.15625 0.25 0.53125 0.25q0.3125 0 0.515625 -0.0625q0.21875 -0.0625 0.484375 -0.171875l0.21875 0.734375q-0.328125 0.15625 -0.71875 0.25q-0.375 0.09375 -0.8125 0.09375q-0.734375 0 -1.046875 -0.40625q-0.296875 -0.421875 -0.296875 -1.390625l0 -3.5l-0.9375 0l0 -0.84375zm4.262146 2.09375l2.9062653 0l0 0.890625l-2.9062653 0l0 -0.890625zm7.366928 -1.171875q-0.359375 -0.125 -0.671875 -0.125q-0.515625 0 -0.828125 0.296875q-0.296875 0.28125 -0.359375 0.703125l0 4.203125l-0.96875 0l0 -6.0l0.671875 0l0.1875 0.734375l0.046875 0q0.21875 -0.40625 0.53125 -0.625q0.328125 -0.234375 0.828125 -0.234375q0.34375 0 0.765625 0.125l-0.203125 0.921875zm0.9237671 2.078125q0 -1.53125 0.671875 -2.328125q0.671875 -0.8125 1.953125 -0.8125q0.671875 0 1.171875 0.21875q0.5 0.21875 0.8125 0.640625q0.328125 0.40625 0.484375 1.0q0.15625 0.578125 0.15625 1.28125q0 1.53125 -0.6875 2.34375q-0.671875 0.796875 -1.9375 0.796875q-0.671875 0 -1.171875 -0.21875q-0.5 -0.21875 -0.828125 -0.625q-0.3125 -0.421875 -0.46875 -1.0q-0.15625 -0.59375 -0.15625 -1.296875zm0.984375 0q0 0.453125 0.09375 0.875q0.09375 0.421875 0.28125 0.734375q0.1875 0.3125 0.5 0.5q0.3125 0.1875 0.765625 0.1875q1.625 0.015625 1.625 -2.296875q0 -0.46875 -0.09375 -0.890625q-0.078125 -0.421875 -0.28125 -0.734375q-0.1875 -0.3125 -0.5 -0.484375q-0.3125 -0.1875 -0.75 -0.1875q-1.640625 -0.015625 -1.640625 2.296875zm4.978943 -3.0l0.9375 0l0 -1.1875l0.96875 -0.28125l0 1.46875l1.625 0l0 0.84375l-1.625 0l0 3.3125q0 0.625 0.15625 0.890625q0.15625 0.25 0.53125 0.25q0.3125 0 0.515625 -0.0625q0.21875 -0.0625 0.484375 -0.171875l0.21875 0.734375q-0.328125 0.15625 -0.71875 0.25q-0.375 0.09375 -0.8125 0.09375q-0.734375 0 -1.046875 -0.40625q-0.296875 -0.421875 -0.296875 -1.390625l0 -3.5l-0.9375 0l0 -0.84375zm4.7711487 0.4375q0.453125 -0.265625 1.0625 -0.390625q0.609375 -0.140625 1.265625 -0.140625q0.625 0 1.0 0.171875q0.375 0.15625 0.578125 0.4375q0.203125 0.265625 0.265625 0.59375q0.0625 0.3125 0.0625 0.640625q0 0.71875 -0.046875 1.40625q-0.03125 0.6875 -0.03125 1.296875q0 0.4375 0.03125 0.84375q0.046875 0.390625 0.140625 0.734375l-0.703125 0l-0.25 -0.84375l-0.0625 0q-0.109375 0.171875 -0.28125 0.328125q-0.15625 0.15625 -0.390625 0.28125q-0.21875 0.125 -0.515625 0.203125q-0.296875 0.09375 -0.6875 0.09375q-0.375 0 -0.71875 -0.109375q-0.328125 -0.125 -0.5625 -0.34375q-0.234375 -0.234375 -0.375 -0.546875q-0.140625 -0.3125 -0.140625 -0.703125q0 -0.53125 0.21875 -0.875q0.21875 -0.359375 0.609375 -0.5625q0.390625 -0.21875 0.921875 -0.296875q0.546875 -0.09375 1.21875 -0.09375q0.15625 0 0.3125 0q0.171875 0 0.34375 0.015625q0.03125 -0.359375 0.03125 -0.640625q0 -0.671875 -0.265625 -0.921875q-0.265625 -0.265625 -0.953125 -0.265625q-0.203125 0 -0.4375 0.03125q-0.234375 0.015625 -0.484375 0.078125q-0.25 0.046875 -0.46875 0.125q-0.21875 0.078125 -0.390625 0.171875l-0.296875 -0.71875zm1.703125 4.8125q0.34375 0 0.59375 -0.078125q0.265625 -0.09375 0.453125 -0.234375q0.203125 -0.140625 0.328125 -0.296875q0.125 -0.171875 0.1875 -0.328125l0 -1.0q-0.171875 -0.015625 -0.34375 -0.015625q-0.171875 -0.015625 -0.34375 -0.015625q-0.375 0 -0.734375 0.046875q-0.34375 0.046875 -0.625 0.15625q-0.265625 0.109375 -0.421875 0.3125q-0.15625 0.203125 -0.15625 0.5q0 0.421875 0.296875 0.6875q0.296875 0.265625 0.765625 0.265625zm3.5457764 -5.25l0.9375 0l0 -1.1875l0.96875 -0.28125l0 1.46875l1.625 0l0 0.84375l-1.625 0l0 3.3125q0 0.625 0.15625 0.890625q0.15625 0.25 0.53125 0.25q0.3125 0 0.515625 -0.0625q0.21875 -0.0625 0.484375 -0.171875l0.21875 0.734375q-0.328125 0.15625 -0.71875 0.25q-0.375 0.09375 -0.8125 0.09375q-0.734375 0 -1.046875 -0.40625q-0.296875 -0.421875 -0.296875 -1.390625l0 -3.5l-0.9375 0l0 -0.84375zm9.10791 5.515625q-0.359375 0.296875 -0.90625 0.46875q-0.53125 0.15625 -1.15625 0.15625q-0.671875 0 -1.1875 -0.21875q-0.5 -0.21875 -0.828125 -0.625q-0.3125 -0.421875 -0.46875 -1.0q-0.15625 -0.578125 -0.15625 -1.296875q0 -1.53125 0.671875 -2.328125q0.6875 -0.8125 1.96875 -0.8125q0.40625 0 0.8125 0.09375q0.40625 0.078125 0.71875 0.34375q0.328125 0.25 0.53125 0.71875q0.21875 0.453125 0.21875 1.203125q0 0.390625 -0.078125 0.875l-3.859375 0q0 0.53125 0.109375 0.9375q0.109375 0.40625 0.328125 0.6875q0.234375 0.28125 0.59375 0.4375q0.375 0.140625 0.90625 0.140625q0.40625 0 0.8125 -0.140625q0.40625 -0.140625 0.609375 -0.328125l0.359375 0.6875zm-2.0625 -4.8125q-0.703125 0 -1.125 0.375q-0.421875 0.359375 -0.515625 1.265625l2.984375 0q0 -0.921875 -0.359375 -1.28125q-0.34375 -0.359375 -0.984375 -0.359375zm8.815063 1.03125l-2.5625 -4.140625l1.203125 0l1.703125 2.84375l0.296875 0.6875l0.296875 -0.6875l1.796875 -2.84375l1.109375 0l-2.640625 4.046875l2.75 4.359375l-1.15625 0l-1.890625 -3.015625l-0.328125 -0.71875l-0.3125 0.71875l-1.953125 3.015625l-1.109375 0l2.796875 -4.265625z" fill-rule="nonzero"/><path fill="#000000" fill-opacity="0.0" d="m30.429768 110.29159l-8.409449 16.566933" fill-rule="evenodd"/><path stroke="#000000" stroke-width="1.0" stroke-linejoin="round" stroke-linecap="butt" d="m30.429768 110.29159l-5.6936684 11.216736" fill-rule="evenodd"/><path fill="#000000" stroke="#000000" stroke-width="1.0" stroke-linecap="butt" d="m23.263252 120.7607l-0.581234 4.794243l3.526928 -3.2989883z" fill-rule="evenodd"/><path fill="#000000" fill-opacity="0.0" d="m7.2320943 126.84639l29.6063 0l0 14.236221l-29.6063 0z" fill-rule="evenodd"/><path fill="#000000" d="m25.752071 135.74324q0 -0.5 0.28125 -0.78125q0.296875 -0.296875 0.78125 -0.296875q0.515625 0 0.8125 0.296875q0.296875 0.28125 0.296875 0.78125q0 0.484375 -0.296875 0.78125q-0.296875 0.296875 -0.8125 0.296875q-0.484375 0 -0.78125 -0.296875q-0.28125 -0.296875 -0.28125 -0.78125zm-4.734375 0q0 -0.5 0.28125 -0.78125q0.296875 -0.296875 0.78125 -0.296875q0.5 0 0.796875 0.296875q0.3125 0.28125 0.3125 0.78125q0 0.484375 -0.3125 0.78125q-0.296875 0.296875 -0.796875 0.296875q-0.484375 0 -0.78125 -0.296875q-0.28125 -0.296875 -0.28125 -0.78125zm-4.734375 0q0 -0.5 0.28125 -0.78125q0.296875 -0.296875 0.78125 -0.296875q0.5 0 0.796875 0.296875q0.296875 0.28125 0.296875 0.78125q0 0.484375 -0.296875 0.78125q-0.296875 0.296875 -0.796875 0.296875q-0.484375 0 -0.78125 -0.296875q-0.28125 -0.296875 -0.28125 -0.78125z" fill-rule="nonzero"/><path fill="#000000" fill-opacity="0.0" d="m98.945366 21.979967l0 21.511812" fill-rule="evenodd"/><path stroke="#000000" stroke-width="1.0" stroke-linejoin="round" stroke-linecap="butt" d="m98.945366 21.979969l0 15.5118065" fill-rule="evenodd"/><path fill="#000000" stroke="#000000" stroke-width="1.0" stroke-linecap="butt" d="m97.29363 37.49178l1.6517334 4.5380974l1.6517334 -4.5380974z" fill-rule="evenodd"/><path fill="#000000" fill-opacity="0.0" d="m88.6619 7.7437477l20.566925 0l0 14.236219l-20.566925 0z" fill-rule="evenodd"/><path fill="#000000" d="m102.66219 16.640593q0 -0.5 0.28125 -0.78124905q0.296875 -0.296875 0.78125 -0.296875q0.515625 0 0.8125 0.296875q0.296875 0.28124905 0.296875 0.78124905q0 0.484375 -0.296875 0.78125q-0.296875 0.296875 -0.8125 0.296875q-0.484375 0 -0.78125 -0.296875q-0.28125 -0.296875 -0.28125 -0.78125zm-4.734375 0q0 -0.5 0.28125 -0.78124905q0.296875 -0.296875 0.78125 -0.296875q0.5 0 0.796875 0.296875q0.3125 0.28124905 0.3125 0.78124905q0 0.484375 -0.3125 0.78125q-0.296875 0.296875 -0.796875 0.296875q-0.484375 0 -0.78125 -0.296875q-0.28125 -0.296875 -0.28125 -0.78125zm-4.734375 0q0 -0.5 0.28125 -0.78124905q0.296875 -0.296875 0.78125 -0.296875q0.5 0 0.796875 0.296875q0.296875 0.28124905 0.296875 0.78124905q0 0.484375 -0.296875 0.78125q-0.296875 0.296875 -0.796875 0.296875q-0.484375 0 -0.78125 -0.296875q-0.28125 -0.296875 -0.28125 -0.78125z" fill-rule="nonzero"/><path fill="#ffffff" d="m26.094025 99.82418c0 -8.175552 6.627598 -14.803146 14.80315 -14.803146c3.9260406 0 7.6912804 1.5596085 10.467407 4.335739c2.7761307 2.7761307 4.335743 6.5413666 4.335743 10.467407c0 8.175552 -6.627598 14.803146 -14.80315 14.803146c-8.175552 0 -14.80315 -6.627594 -14.80315 -14.803146z" fill-rule="evenodd"/><path stroke="#000000" stroke-width="1.0" stroke-linejoin="round" stroke-linecap="butt" d="m26.094025 99.82418c0 -8.175552 6.627598 -14.803146 14.80315 -14.803146c3.9260406 0 7.6912804 1.5596085 10.467407 4.335739c2.7761307 2.7761307 4.335743 6.5413666 4.335743 10.467407c0 8.175552 -6.627598 14.803146 -14.80315 14.803146c-8.175552 0 -14.80315 -6.627594 -14.80315 -14.803146z" fill-rule="evenodd"/><path fill="#000000" d="m43.123608 94.94114l1.109375 0l0 6.453125q0 0.875 -0.234375 1.515625q-0.21875 0.625 -0.640625 1.03125q-0.421875 0.40625 -1.03125 0.609375q-0.59375 0.1875 -1.3125 0.1875q-1.703125 0 -2.578125 -0.765625q-0.875 -0.78125 -0.875 -2.359375l0 -6.671875l1.15625 0l0 6.125q0 0.734375 0.140625 1.25q0.140625 0.5 0.421875 0.8125q0.296875 0.3125 0.734375 0.453125q0.4375 0.125 1.015625 0.125q1.125 0 1.609375 -0.609375q0.484375 -0.609375 0.484375 -2.03125l0 -6.125z" fill-rule="nonzero"/><path fill="#000000" fill-opacity="0.0" d="m45.886803 126.84639l29.6063 0l0 14.236221l-29.6063 0z" fill-rule="evenodd"/><path fill="#000000" d="m64.406784 135.74324q0 -0.5 0.28125 -0.78125q0.296875 -0.296875 0.78125 -0.296875q0.515625 0 0.8125 0.296875q0.296875 0.28125 0.296875 0.78125q0 0.484375 -0.296875 0.78125q-0.296875 0.296875 -0.8125 0.296875q-0.484375 0 -0.78125 -0.296875q-0.28125 -0.296875 -0.28125 -0.78125zm-4.734379 0q0 -0.5 0.28125 -0.78125q0.296875 -0.296875 0.78125 -0.296875q0.5 0 0.796875 0.296875q0.3125 0.28125 0.3125 0.78125q0 0.484375 -0.3125 0.78125q-0.296875 0.296875 -0.796875 0.296875q-0.484375 0 -0.78125 -0.296875q-0.28125 -0.296875 -0.28125 -0.78125zm-4.734375 0q0 -0.5 0.28125 -0.78125q0.296875 -0.296875 0.78125 -0.296875q0.5 0 0.796875 0.296875q0.296875 0.28125 0.296875 0.78125q0 0.484375 -0.296875 0.78125q-0.296875 0.296875 -0.796875 0.296875q-0.484375 0 -0.78125 -0.296875q-0.28125 -0.296875 -0.28125 -0.78125z" fill-rule="nonzero"/><path fill="#000000" fill-opacity="0.0" d="m51.364582 110.29159l9.322834 16.566933" fill-rule="evenodd"/><path stroke="#000000" stroke-width="1.0" stroke-linejoin="round" stroke-linecap="butt" d="m51.364582 110.29159l6.3803215 11.338005" fill-rule="evenodd"/><path fill="#000000" stroke="#000000" stroke-width="1.0" stroke-linecap="butt" d="m56.305443 122.43963l3.6650314 3.1448593l-0.7861023 -4.7649384z" fill-rule="evenodd"/><path fill="#000000" fill-opacity="0.0" d="m182.42976 150.29158l-8.409439 16.56694" fill-rule="evenodd"/><path stroke="#000000" stroke-width="1.0" stroke-linejoin="round" stroke-linecap="butt" d="m182.42976 150.29158l-5.6936646 11.216751" fill-rule="evenodd"/><path fill="#000000" stroke="#000000" stroke-width="1.0" stroke-linecap="butt" d="m175.26326 160.7607l-0.5812378 4.794235l3.5269318 -3.2989807z" fill-rule="evenodd"/><path fill="#000000" fill-opacity="0.0" d="m159.2321 166.84639l29.606293 0l0 14.236221l-29.606293 0z" fill-rule="evenodd"/><path fill="#000000" d="m177.75208 175.74324q0 -0.5 0.28125 -0.78125q0.296875 -0.296875 0.78125 -0.296875q0.515625 0 0.8125 0.296875q0.296875 0.28125 0.296875 0.78125q0 0.484375 -0.296875 0.78125q-0.296875 0.296875 -0.8125 0.296875q-0.484375 0 -0.78125 -0.296875q-0.28125 -0.296875 -0.28125 -0.78125zm-4.734375 0q0 -0.5 0.28125 -0.78125q0.296875 -0.296875 0.78125 -0.296875q0.5 0 0.796875 0.296875q0.3125 0.28125 0.3125 0.78125q0 0.484375 -0.3125 0.78125q-0.296875 0.296875 -0.796875 0.296875q-0.484375 0 -0.78125 -0.296875q-0.28125 -0.296875 -0.28125 -0.78125zm-4.734375 0q0 -0.5 0.28125 -0.78125q0.296875 -0.296875 0.78125 -0.296875q0.5 0 0.796875 0.296875q0.296875 0.28125 0.296875 0.78125q0 0.484375 -0.296875 0.78125q-0.296875 0.296875 -0.796875 0.296875q-0.484375 0 -0.78125 -0.296875q-0.28125 -0.296875 -0.28125 -0.78125z" fill-rule="nonzero"/><path fill="#000000" fill-opacity="0.0" d="m197.88681 166.84639l29.606293 0l0 14.236221l-29.606293 0z" fill-rule="evenodd"/><path fill="#000000" d="m216.40678 175.74324q0 -0.5 0.28125 -0.78125q0.296875 -0.296875 0.78125 -0.296875q0.515625 0 0.8125 0.296875q0.296875 0.28125 0.296875 0.78125q0 0.484375 -0.296875 0.78125q-0.296875 0.296875 -0.8125 0.296875q-0.484375 0 -0.78125 -0.296875q-0.28125 -0.296875 -0.28125 -0.78125zm-4.734375 0q0 -0.5 0.28125 -0.78125q0.296875 -0.296875 0.78125 -0.296875q0.5 0 0.796875 0.296875q0.3125 0.28125 0.3125 0.78125q0 0.484375 -0.3125 0.78125q-0.296875 0.296875 -0.796875 0.296875q-0.484375 0 -0.78125 -0.296875q-0.28125 -0.296875 -0.28125 -0.78125zm-4.734375 0q0 -0.5 0.28125 -0.78125q0.296875 -0.296875 0.78125 -0.296875q0.5 0 0.796875 0.296875q0.296875 0.28125 0.296875 0.78125q0 0.484375 -0.296875 0.78125q-0.296875 0.296875 -0.796875 0.296875q-0.484375 0 -0.78125 -0.296875q-0.28125 -0.296875 -0.28125 -0.78125z" fill-rule="nonzero"/><path fill="#000000" fill-opacity="0.0" d="m203.36458 150.29158l9.322845 16.56694" fill-rule="evenodd"/><path stroke="#000000" stroke-width="1.0" stroke-linejoin="round" stroke-linecap="butt" d="m203.36458 150.29158l6.3803406 11.338013" fill-rule="evenodd"/><path fill="#000000" stroke="#000000" stroke-width="1.0" stroke-linecap="butt" d="m208.30545 162.43964l3.6650238 3.1448517l-0.7861023 -4.7649384z" fill-rule="evenodd"/><path fill="#000000" fill-opacity="0.0" d="m146.52615 110.29159l-23.149612 19.055122" fill-rule="evenodd"/><path stroke="#000000" stroke-width="1.0" stroke-linejoin="round" stroke-linecap="butt" d="m146.52615 110.29159l-18.517105 15.2419815" fill-rule="evenodd"/><path fill="#000000" stroke="#000000" stroke-width="1.0" stroke-linecap="butt" d="m126.95933 124.25829l-2.454071 4.15934l4.5534897 -1.6087952z" fill-rule="evenodd"/><path fill="#f3f3f3" d="m432.56042 58.29458c0 -8.175552 6.6276245 -14.803146 14.803162 -14.803146c3.926056 0 7.691284 1.5596123 10.467407 4.335739c2.776123 2.7761307 4.3357544 6.5413704 4.3357544 10.467407c0 8.175552 -6.627594 14.803154 -14.803162 14.803154c-8.175537 0 -14.803162 -6.6276016 -14.803162 -14.803154z" fill-rule="evenodd"/><path stroke="#000000" stroke-width="1.0" stroke-linejoin="round" stroke-linecap="butt" d="m432.56042 58.29458c0 -8.175552 6.6276245 -14.803146 14.803162 -14.803146c3.926056 0 7.691284 1.5596123 10.467407 4.335739c2.776123 2.7761307 4.3357544 6.5413704 4.3357544 10.467407c0 8.175552 -6.627594 14.803154 -14.803162 14.803154c-8.175537 0 -14.803162 -6.6276016 -14.803162 -14.803154z" fill-rule="evenodd"/><path fill="#000000" d="m446.81805 59.239662l-3.203125 -5.828125l1.34375 0l2.265625 4.21875l0.234375 0.84375l0.015625 0l0.25 -0.859375l2.171875 -4.203125l1.234375 0l-3.171875 5.8125l0 3.859375l-1.140625 0l0 -3.84375z" fill-rule="nonzero"/><path fill="#ffffff" d="m502.1904 99.82418c0 -8.175552 6.627594 -14.803146 14.803131 -14.803146c3.9260864 0 7.691284 1.5596085 10.467407 4.335739c2.776184 2.7761307 4.3357544 6.5413666 4.3357544 10.467407c0 8.175552 -6.6275635 14.803146 -14.803162 14.803146c-8.175537 0 -14.803131 -6.627594 -14.803131 -14.803146z" fill-rule="evenodd"/><path stroke="#000000" stroke-width="1.0" stroke-linejoin="round" stroke-linecap="butt" d="m502.1904 99.82418c0 -8.175552 6.627594 -14.803146 14.803131 -14.803146c3.9260864 0 7.691284 1.5596085 10.467407 4.335739c2.776184 2.7761307 4.3357544 6.5413666 4.3357544 10.467407c0 8.175552 -6.6275635 14.803146 -14.803162 14.803146c-8.175537 0 -14.803131 -6.627594 -14.803131 -14.803146z" fill-rule="evenodd"/><path fill="#000000" d="m514.33124 101.425514l0.234375 1.59375l0.015625 0l0.234375 -1.625l1.984375 -6.453125l0.546875 0l2.015625 6.484375l0.234375 1.59375l0.015625 0l0.25 -1.625l1.625 -6.453125l1.125 0l-2.703125 9.828125l-0.640625 0l-1.953125 -6.484375l-0.25 -1.46875l-0.078125 0l-0.25 1.484375l-1.953125 6.46875l-0.640625 0l-2.765625 -9.828125l1.21875 0l1.734375 6.484375z" fill-rule="nonzero"/><path fill="#000000" fill-opacity="0.0" d="m457.831 68.761986l59.149597 16.251968" fill-rule="evenodd"/><path stroke="#000000" stroke-width="1.0" stroke-linejoin="round" stroke-linecap="butt" d="m457.831 68.761986l53.364014 14.662315" fill-rule="evenodd"/><path fill="#000000" stroke="#000000" stroke-width="1.0" stroke-linecap="butt" d="m510.75742 85.01701l4.813507 -0.39038086l-3.9382935 -2.7950363z" fill-rule="evenodd"/><path fill="#ffffff" d="m333.68146 141.16946c0 -8.175552 6.627594 -14.803139 14.803162 -14.803139c3.9260254 0 7.691284 1.5596085 10.467407 4.3357315c2.776123 2.7761383 4.3357544 6.541382 4.3357544 10.467407c0 8.175568 -6.627594 14.803162 -14.803162 14.803162c-8.175568 0 -14.803162 -6.627594 -14.803162 -14.803162z" fill-rule="evenodd"/><path stroke="#000000" stroke-width="1.0" stroke-linejoin="round" stroke-linecap="butt" d="m333.68146 141.16946c0 -8.175552 6.627594 -14.803139 14.803162 -14.803139c3.9260254 0 7.691284 1.5596085 10.467407 4.3357315c2.776123 2.7761383 4.3357544 6.541382 4.3357544 10.467407c0 8.175568 -6.627594 14.803162 -14.803162 14.803162c-8.175568 0 -14.803162 -6.627594 -14.803162 -14.803162z" fill-rule="evenodd"/><path fill="#000000" d="m350.71106 136.28642l1.109375 0l0 6.453125q0 0.875 -0.234375 1.515625q-0.21875 0.625 -0.640625 1.03125q-0.421875 0.40625 -1.03125 0.609375q-0.59375 0.1875 -1.3125 0.1875q-1.703125 0 -2.578125 -0.765625q-0.875 -0.78125 -0.875 -2.359375l0 -6.671875l1.15625 0l0 6.125q0 0.734375 0.140625 1.25q0.140625 0.5 0.421875 0.8125q0.296875 0.3125 0.734375 0.453125q0.4375 0.125 1.015625 0.125q1.125 0 1.609375 -0.609375q0.484375 -0.609375 0.484375 -2.03125l0 -6.125z" fill-rule="nonzero"/><path fill="#000000" fill-opacity="0.0" d="m374.42978 110.29159l-25.952759 16.062988" fill-rule="evenodd"/><path stroke="#000000" stroke-width="1.0" stroke-linejoin="round" stroke-linecap="butt" d="m374.42975 110.29159l-20.850891 12.905281" fill-rule="evenodd"/><path fill="#000000" stroke="#000000" stroke-width="1.0" stroke-linecap="butt" d="m352.70956 121.79239l-2.989502 3.7928162l4.728058 -0.9838486z" fill-rule="evenodd"/><path fill="#000000" fill-opacity="0.0" d="m447.3636 22.877605l0 20.598427" fill-rule="evenodd"/><path stroke="#000000" stroke-width="1.0" stroke-linejoin="round" stroke-linecap="butt" d="m447.3636 22.877607l0 14.598421" fill-rule="evenodd"/><path fill="#000000" stroke="#000000" stroke-width="1.0" stroke-linecap="butt" d="m445.71185 37.47603l1.6517334 4.5380974l1.6517334 -4.5380974z" fill-rule="evenodd"/><path fill="#000000" fill-opacity="0.0" d="m436.8754 8.641385l20.97638 0l0 14.23622l-20.97638 0z" fill-rule="evenodd"/><path fill="#000000" d="m451.0804 17.53823q0 -0.5 0.28125 -0.78125q0.296875 -0.296875 0.78125 -0.296875q0.515625 0 0.8125 0.296875q0.296875 0.28125 0.296875 0.78125q0 0.484375 -0.296875 0.78125q-0.296875 0.296875 -0.8125 0.296875q-0.484375 0 -0.78125 -0.296875q-0.28125 -0.296875 -0.28125 -0.78125zm-4.734375 0q0 -0.5 0.28125 -0.78125q0.296875 -0.296875 0.78125 -0.296875q0.5 0 0.796875 0.296875q0.3125 0.28125 0.3125 0.78125q0 0.484375 -0.3125 0.78125q-0.296875 0.296875 -0.796875 0.296875q-0.484375 0 -0.78125 -0.296875q-0.28125 -0.296875 -0.28125 -0.78125zm-4.734375 0q0 -0.5 0.28125 -0.78125q0.296875 -0.296875 0.78125 -0.296875q0.5 0 0.796875 0.296875q0.296875 0.28125 0.296875 0.78125q0 0.484375 -0.296875 0.78125q-0.296875 0.296875 -0.796875 0.296875q-0.484375 0 -0.78125 -0.296875q-0.28125 -0.296875 -0.28125 -0.78125z" fill-rule="nonzero"/><path fill="#f3f3f3" d="m370.09402 99.82418c0 -8.175552 6.627594 -14.803146 14.803162 -14.803146c3.9260254 0 7.6912537 1.5596085 10.467407 4.335739c2.776123 2.7761307 4.335724 6.5413666 4.335724 10.467407c0 8.175552 -6.627594 14.803146 -14.803131 14.803146c-8.175568 0 -14.803162 -6.627594 -14.803162 -14.803146z" fill-rule="evenodd"/><path stroke="#000000" stroke-width="1.0" stroke-linejoin="round" stroke-linecap="butt" d="m370.09402 99.82418c0 -8.175552 6.627594 -14.803146 14.803162 -14.803146c3.9260254 0 7.6912537 1.5596085 10.467407 4.335739c2.776123 2.7761307 4.335724 6.5413666 4.335724 10.467407c0 8.175552 -6.627594 14.803146 -14.803131 14.803146c-8.175568 0 -14.803162 -6.627594 -14.803162 -14.803146z" fill-rule="evenodd"/><path fill="#000000" d="m384.20242 99.69114l-2.9375 -4.75l1.375 0l1.96875 3.265625l0.34375 0.796875l0.328125 -0.796875l2.078125 -3.265625l1.265625 0l-3.03125 4.65625l3.171875 5.015625l-1.34375 0l-2.171875 -3.46875l-0.375 -0.828125l-0.359375 0.828125l-2.25 3.46875l-1.28125 0l3.21875 -4.921875z" fill-rule="nonzero"/><path fill="#000000" fill-opacity="0.0" d="m436.89618 68.761986l-52.0 16.251968" fill-rule="evenodd"/><path stroke="#000000" stroke-width="1.0" stroke-linejoin="round" stroke-linecap="butt" d="m436.8962 68.761986l-46.273193 14.46212" fill-rule="evenodd"/><path fill="#000000" stroke="#000000" stroke-width="1.0" stroke-linecap="butt" d="m390.1303 81.647575l-3.8387756 2.9302826l4.8242188 0.22277832z" fill-rule="evenodd"/><path fill="#000000" fill-opacity="0.0" d="m395.3646 110.29159l29.543304 14.740158" fill-rule="evenodd"/><path stroke="#000000" stroke-width="1.0" stroke-linejoin="round" stroke-linecap="butt" d="m395.3646 110.29159l24.174438 12.061455" fill-rule="evenodd"/><path fill="#000000" stroke="#000000" stroke-width="1.0" stroke-linecap="butt" d="m418.80164 123.831024l4.798126 0.5480499l-3.3233032 -3.5040207z" fill-rule="evenodd"/><path fill="#000000" fill-opacity="0.0" d="m338.0172 151.63689l-8.409454 16.566925" fill-rule="evenodd"/><path stroke="#000000" stroke-width="1.0" stroke-linejoin="round" stroke-linecap="butt" d="m338.0172 151.63689l-5.693695 11.216736" fill-rule="evenodd"/><path fill="#000000" stroke="#000000" stroke-width="1.0" stroke-linecap="butt" d="m330.85068 162.106l-0.5812073 4.794235l3.5269165 -3.298996z" fill-rule="evenodd"/><path fill="#000000" fill-opacity="0.0" d="m314.81955 168.19168l29.606293 0l0 14.236221l-29.606293 0z" fill-rule="evenodd"/><path fill="#000000" d="m333.3395 177.08853q0 -0.5 0.28125 -0.78125q0.296875 -0.296875 0.78125 -0.296875q0.515625 0 0.8125 0.296875q0.296875 0.28125 0.296875 0.78125q0 0.484375 -0.296875 0.78125q-0.296875 0.296875 -0.8125 0.296875q-0.484375 0 -0.78125 -0.296875q-0.28125 -0.296875 -0.28125 -0.78125zm-4.734375 0q0 -0.5 0.28125 -0.78125q0.296875 -0.296875 0.78125 -0.296875q0.5 0 0.796875 0.296875q0.3125 0.28125 0.3125 0.78125q0 0.484375 -0.3125 0.78125q-0.296875 0.296875 -0.796875 0.296875q-0.484375 0 -0.78125 -0.296875q-0.28125 -0.296875 -0.28125 -0.78125zm-4.734375 0q0 -0.5 0.28125 -0.78125q0.296875 -0.296875 0.78125 -0.296875q0.5 0 0.796875 0.296875q0.296875 0.28125 0.296875 0.78125q0 0.484375 -0.296875 0.78125q-0.296875 0.296875 -0.796875 0.296875q-0.484375 0 -0.78125 -0.296875q-0.28125 -0.296875 -0.28125 -0.78125z" fill-rule="nonzero"/><path fill="#000000" fill-opacity="0.0" d="m353.47424 168.19168l29.606293 0l0 14.236221l-29.606293 0z" fill-rule="evenodd"/><path fill="#000000" d="m371.99423 177.08853q0 -0.5 0.28125 -0.78125q0.296875 -0.296875 0.78125 -0.296875q0.515625 0 0.8125 0.296875q0.296875 0.28125 0.296875 0.78125q0 0.484375 -0.296875 0.78125q-0.296875 0.296875 -0.8125 0.296875q-0.484375 0 -0.78125 -0.296875q-0.28125 -0.296875 -0.28125 -0.78125zm-4.734375 0q0 -0.5 0.28125 -0.78125q0.296875 -0.296875 0.78125 -0.296875q0.5 0 0.796875 0.296875q0.3125 0.28125 0.3125 0.78125q0 0.484375 -0.3125 0.78125q-0.296875 0.296875 -0.796875 0.296875q-0.484375 0 -0.78125 -0.296875q-0.28125 -0.296875 -0.28125 -0.78125zm-4.734375 0q0 -0.5 0.28125 -0.78125q0.296875 -0.296875 0.78125 -0.296875q0.5 0 0.796875 0.296875q0.296875 0.28125 0.296875 0.78125q0 0.484375 -0.296875 0.78125q-0.296875 0.296875 -0.796875 0.296875q-0.484375 0 -0.78125 -0.296875q-0.28125 -0.296875 -0.28125 -0.78125z" fill-rule="nonzero"/><path fill="#000000" fill-opacity="0.0" d="m358.95203 151.63689l9.322845 16.566925" fill-rule="evenodd"/><path stroke="#000000" stroke-width="1.0" stroke-linejoin="round" stroke-linecap="butt" d="m358.95203 151.63689l6.38031 11.337997" fill-rule="evenodd"/><path fill="#000000" stroke="#000000" stroke-width="1.0" stroke-linecap="butt" d="m363.89288 163.78493l3.665039 3.1448517l-0.7861328 -4.764923z" fill-rule="evenodd"/><path fill="#000000" fill-opacity="0.0" d="m506.52615 110.29159l-8.976379 16.566933" fill-rule="evenodd"/><path stroke="#000000" stroke-width="1.0" stroke-linejoin="round" stroke-linecap="butt" d="m506.52615 110.29159l-6.1180115 11.291519" fill-rule="evenodd"/><path fill="#000000" stroke="#000000" stroke-width="1.0" stroke-linecap="butt" d="m498.95587 120.79624l-0.70965576 4.7769165l3.6141663 -3.2031784z" fill-rule="evenodd"/><path fill="#000000" fill-opacity="0.0" d="m482.7478 126.84639l29.606262 0l0 14.236221l-29.606262 0z" fill-rule="evenodd"/><path fill="#000000" d="m501.26776 135.74324q0 -0.5 0.28125 -0.78125q0.296875 -0.296875 0.78125 -0.296875q0.515625 0 0.8125 0.296875q0.296875 0.28125 0.296875 0.78125q0 0.484375 -0.296875 0.78125q-0.296875 0.296875 -0.8125 0.296875q-0.484375 0 -0.78125 -0.296875q-0.28125 -0.296875 -0.28125 -0.78125zm-4.734375 0q0 -0.5 0.28125 -0.78125q0.296875 -0.296875 0.78125 -0.296875q0.5 0 0.796875 0.296875q0.3125 0.28125 0.3125 0.78125q0 0.484375 -0.3125 0.78125q-0.296875 0.296875 -0.796875 0.296875q-0.484375 0 -0.78125 -0.296875q-0.28125 -0.296875 -0.28125 -0.78125zm-4.734375 0q0 -0.5 0.28125 -0.78125q0.296875 -0.296875 0.78125 -0.296875q0.5 0 0.796875 0.296875q0.296875 0.28125 0.296875 0.78125q0 0.484375 -0.296875 0.78125q-0.296875 0.296875 -0.796875 0.296875q-0.484375 0 -0.78125 -0.296875q-0.28125 -0.296875 -0.28125 -0.78125z" fill-rule="nonzero"/><path fill="#000000" fill-opacity="0.0" d="m521.85095 126.84639l29.606262 0l0 14.236221l-29.606262 0z" fill-rule="evenodd"/><path fill="#000000" d="m540.3709 135.74324q0 -0.5 0.28125 -0.78125q0.296875 -0.296875 0.78125 -0.296875q0.515625 0 0.8125 0.296875q0.296875 0.28125 0.296875 0.78125q0 0.484375 -0.296875 0.78125q-0.296875 0.296875 -0.8125 0.296875q-0.484375 0 -0.78125 -0.296875q-0.28125 -0.296875 -0.28125 -0.78125zm-4.734375 0q0 -0.5 0.28125 -0.78125q0.296875 -0.296875 0.78125 -0.296875q0.5 0 0.796875 0.296875q0.3125 0.28125 0.3125 0.78125q0 0.484375 -0.3125 0.78125q-0.296875 0.296875 -0.796875 0.296875q-0.484375 0 -0.78125 -0.296875q-0.28125 -0.296875 -0.28125 -0.78125zm-4.734375 0q0 -0.5 0.28125 -0.78125q0.296875 -0.296875 0.78125 -0.296875q0.5 0 0.796875 0.296875q0.296875 0.28125 0.296875 0.78125q0 0.484375 -0.296875 0.78125q-0.296875 0.296875 -0.796875 0.296875q-0.484375 0 -0.78125 -0.296875q-0.28125 -0.296875 -0.28125 -0.78125z" fill-rule="nonzero"/><path fill="#000000" fill-opacity="0.0" d="m527.46094 110.29159l9.196899 16.566933" fill-rule="evenodd"/><path stroke="#000000" stroke-width="1.0" stroke-linejoin="round" stroke-linecap="butt" d="m527.46094 110.29159l6.284729 11.321037" fill-rule="evenodd"/><path fill="#000000" stroke="#000000" stroke-width="1.0" stroke-linecap="butt" d="m532.3015 122.414314l3.6467285 3.1660385l-0.7584839 -4.769409z" fill-rule="evenodd"/><path fill="#efefef" d="m98.094025 139.82417c0 -8.175552 6.627594 -14.803139 14.803154 -14.803139c3.926033 0 7.6912766 1.5596085 10.467407 4.3357315c2.776123 2.7761383 4.335739 6.541382 4.335739 10.467407c0 8.175568 -6.627594 14.803162 -14.803146 14.803162c-8.17556 0 -14.803154 -6.627594 -14.803154 -14.803162z" fill-rule="evenodd"/><path stroke="#000000" stroke-width="1.0" stroke-linejoin="round" stroke-linecap="butt" d="m98.094025 139.82417c0 -8.175552 6.627594 -14.803139 14.803154 -14.803139c3.926033 0 7.6912766 1.5596085 10.467407 4.3357315c2.776123 2.7761383 4.335739 6.541382 4.335739 10.467407c0 8.175568 -6.627594 14.803162 -14.803146 14.803162c-8.17556 0 -14.803154 -6.627594 -14.803154 -14.803162z" fill-rule="evenodd"/><path fill="#000000" d="m109.66028 143.58176l4.875 -7.078125l0.578125 -0.546875l-5.453125 0l0 -1.015625l6.5 0l0 1.03125l-4.921875 7.109375l-0.578125 0.515625l5.5 0l0 1.015625l-6.5 0l0 -1.03125z" fill-rule="nonzero"/><path fill="#000000" fill-opacity="0.0" d="m102.42977 150.29158l-8.409454 16.56694" fill-rule="evenodd"/><path stroke="#000000" stroke-width="1.0" stroke-linejoin="round" stroke-linecap="butt" d="m102.42977 150.29158l-5.693672 11.216751" fill-rule="evenodd"/><path fill="#000000" stroke="#000000" stroke-width="1.0" stroke-linecap="butt" d="m95.26325 160.7607l-0.58123016 4.794235l3.5269241 -3.2989807z" fill-rule="evenodd"/><path fill="#000000" fill-opacity="0.0" d="m79.23209 166.84639l29.6063 0l0 14.236221l-29.6063 0z" fill-rule="evenodd"/><path fill="#000000" d="m97.752075 175.74324q0 -0.5 0.28125 -0.78125q0.296875 -0.296875 0.78125 -0.296875q0.515625 0 0.8125 0.296875q0.296875 0.28125 0.296875 0.78125q0 0.484375 -0.296875 0.78125q-0.296875 0.296875 -0.8125 0.296875q-0.484375 0 -0.78125 -0.296875q-0.28125 -0.296875 -0.28125 -0.78125zm-4.7343826 0q0 -0.5 0.28125 -0.78125q0.296875 -0.296875 0.78125 -0.296875q0.5 0 0.796875 0.296875q0.3125 0.28125 0.3125 0.78125q0 0.484375 -0.3125 0.78125q-0.296875 0.296875 -0.796875 0.296875q-0.484375 0 -0.78125 -0.296875q-0.28125 -0.296875 -0.28125 -0.78125zm-4.734375 0q0 -0.5 0.28125 -0.78125q0.296875 -0.296875 0.78125 -0.296875q0.5 0 0.796875 0.296875q0.296875 0.28125 0.296875 0.78125q0 0.484375 -0.296875 0.78125q-0.296875 0.296875 -0.796875 0.296875q-0.484375 0 -0.78125 -0.296875q-0.28125 -0.296875 -0.28125 -0.78125z" fill-rule="nonzero"/><path fill="#000000" fill-opacity="0.0" d="m117.8868 166.84639l29.6063 0l0 14.236221l-29.6063 0z" fill-rule="evenodd"/><path fill="#000000" d="m136.40678 175.74324q0 -0.5 0.28125 -0.78125q0.296875 -0.296875 0.78125 -0.296875q0.515625 0 0.8125 0.296875q0.296875 0.28125 0.296875 0.78125q0 0.484375 -0.296875 0.78125q-0.296875 0.296875 -0.8125 0.296875q-0.484375 0 -0.78125 -0.296875q-0.28125 -0.296875 -0.28125 -0.78125zm-4.734375 0q0 -0.5 0.28125 -0.78125q0.296875 -0.296875 0.78125 -0.296875q0.5 0 0.796875 0.296875q0.3125 0.28125 0.3125 0.78125q0 0.484375 -0.3125 0.78125q-0.296875 0.296875 -0.796875 0.296875q-0.484375 0 -0.78125 -0.296875q-0.28125 -0.296875 -0.28125 -0.78125zm-4.7343826 0q0 -0.5 0.28125 -0.78125q0.296875 -0.296875 0.7812576 -0.296875q0.5 0 0.796875 0.296875q0.296875 0.28125 0.296875 0.78125q0 0.484375 -0.296875 0.78125q-0.296875 0.296875 -0.796875 0.296875q-0.48438263 0 -0.7812576 -0.296875q-0.28125 -0.296875 -0.28125 -0.78125z" fill-rule="nonzero"/><path fill="#000000" fill-opacity="0.0" d="m123.364586 150.29158l9.322838 16.56694" fill-rule="evenodd"/><path stroke="#000000" stroke-width="1.0" stroke-linejoin="round" stroke-linecap="butt" d="m123.364586 150.29158l6.3803177 11.338013" fill-rule="evenodd"/><path fill="#000000" stroke="#000000" stroke-width="1.0" stroke-linecap="butt" d="m128.30545 162.43964l3.6650238 3.1448517l-0.7861023 -4.7649384z" fill-rule="evenodd"/><path fill="#000000" fill-opacity="0.0" d="m88.47796 68.761986l-47.59055 16.251968" fill-rule="evenodd"/><path stroke="#000000" stroke-width="1.0" stroke-linejoin="round" stroke-linecap="butt" d="m88.47796 68.761986l-41.912506 14.3129425" fill-rule="evenodd"/><path fill="#000000" stroke="#000000" stroke-width="1.0" stroke-linecap="butt" d="m46.03166 81.511826l-3.7607918 3.029686l4.828377 0.09651947z" fill-rule="evenodd"/><path fill="#f3f3f3" d="m410.09402 139.82417c0 -8.175552 6.627594 -14.803139 14.803162 -14.803139c3.9260254 0 7.6912537 1.5596085 10.467407 4.3357315c2.776123 2.7761383 4.335724 6.541382 4.335724 10.467407c0 8.175568 -6.627594 14.803162 -14.803131 14.803162c-8.175568 0 -14.803162 -6.627594 -14.803162 -14.803162z" fill-rule="evenodd"/><path stroke="#000000" stroke-width="1.0" stroke-linejoin="round" stroke-linecap="butt" d="m410.09402 139.82417c0 -8.175552 6.627594 -14.803139 14.803162 -14.803139c3.9260254 0 7.6912537 1.5596085 10.467407 4.3357315c2.776123 2.7761383 4.335724 6.541382 4.335724 10.467407c0 8.175568 -6.627594 14.803162 -14.803131 14.803162c-8.175568 0 -14.803162 -6.627594 -14.803162 -14.803162z" fill-rule="evenodd"/><path fill="#000000" d="m421.66028 143.58176l4.875 -7.078125l0.578125 -0.546875l-5.453125 0l0 -1.015625l6.5 0l0 1.03125l-4.921875 7.109375l-0.578125 0.515625l5.5 0l0 1.015625l-6.5 0l0 -1.03125z" fill-rule="nonzero"/><path fill="#000000" fill-opacity="0.0" d="m414.42978 150.29158l-8.409454 16.56694" fill-rule="evenodd"/><path stroke="#000000" stroke-width="1.0" stroke-linejoin="round" stroke-linecap="butt" d="m414.42975 150.29158l-5.6936646 11.216751" fill-rule="evenodd"/><path fill="#000000" stroke="#000000" stroke-width="1.0" stroke-linecap="butt" d="m407.26324 160.7607l-0.5812378 4.794235l3.5269165 -3.2989807z" fill-rule="evenodd"/><path fill="#000000" fill-opacity="0.0" d="m391.2321 166.84639l29.606293 0l0 14.236221l-29.606293 0z" fill-rule="evenodd"/><path fill="#000000" d="m409.75208 175.74324q0 -0.5 0.28125 -0.78125q0.296875 -0.296875 0.78125 -0.296875q0.515625 0 0.8125 0.296875q0.296875 0.28125 0.296875 0.78125q0 0.484375 -0.296875 0.78125q-0.296875 0.296875 -0.8125 0.296875q-0.484375 0 -0.78125 -0.296875q-0.28125 -0.296875 -0.28125 -0.78125zm-4.734375 0q0 -0.5 0.28125 -0.78125q0.296875 -0.296875 0.78125 -0.296875q0.5 0 0.796875 0.296875q0.3125 0.28125 0.3125 0.78125q0 0.484375 -0.3125 0.78125q-0.296875 0.296875 -0.796875 0.296875q-0.484375 0 -0.78125 -0.296875q-0.28125 -0.296875 -0.28125 -0.78125zm-4.734375 0q0 -0.5 0.28125 -0.78125q0.296875 -0.296875 0.78125 -0.296875q0.5 0 0.796875 0.296875q0.296875 0.28125 0.296875 0.78125q0 0.484375 -0.296875 0.78125q-0.296875 0.296875 -0.796875 0.296875q-0.484375 0 -0.78125 -0.296875q-0.28125 -0.296875 -0.28125 -0.78125z" fill-rule="nonzero"/><path fill="#000000" fill-opacity="0.0" d="m429.8868 166.84639l29.606293 0l0 14.236221l-29.606293 0z" fill-rule="evenodd"/><path fill="#000000" d="m448.40677 175.74324q0 -0.5 0.28125 -0.78125q0.296875 -0.296875 0.78125 -0.296875q0.515625 0 0.8125 0.296875q0.296875 0.28125 0.296875 0.78125q0 0.484375 -0.296875 0.78125q-0.296875 0.296875 -0.8125 0.296875q-0.484375 0 -0.78125 -0.296875q-0.28125 -0.296875 -0.28125 -0.78125zm-4.734375 0q0 -0.5 0.28125 -0.78125q0.296875 -0.296875 0.78125 -0.296875q0.5 0 0.796875 0.296875q0.3125 0.28125 0.3125 0.78125q0 0.484375 -0.3125 0.78125q-0.296875 0.296875 -0.796875 0.296875q-0.484375 0 -0.78125 -0.296875q-0.28125 -0.296875 -0.28125 -0.78125zm-4.734375 0q0 -0.5 0.28125 -0.78125q0.296875 -0.296875 0.78125 -0.296875q0.5 0 0.796875 0.296875q0.296875 0.28125 0.296875 0.78125q0 0.484375 -0.296875 0.78125q-0.296875 0.296875 -0.796875 0.296875q-0.484375 0 -0.78125 -0.296875q-0.28125 -0.296875 -0.28125 -0.78125z" fill-rule="nonzero"/><path fill="#000000" fill-opacity="0.0" d="m435.3646 150.29158l9.322815 16.56694" fill-rule="evenodd"/><path stroke="#000000" stroke-width="1.0" stroke-linejoin="round" stroke-linecap="butt" d="m435.3646 150.29158l6.38031 11.338013" fill-rule="evenodd"/><path fill="#000000" stroke="#000000" stroke-width="1.0" stroke-linecap="butt" d="m440.30545 162.43964l3.6650085 3.1448517l-0.7861023 -4.7649384z" fill-rule="evenodd"/></g></svg>