<svg version="1.1" viewBox="0.0 0.0 1020.3123359580053 232.28346456692913" fill="none" stroke="none" stroke-linecap="square" stroke-miterlimit="10" xmlns:xlink="http://www.w3.org/1999/xlink" xmlns="http://www.w3.org/2000/svg"><clipPath id="p.0"><path d="m0 0l1020.3123 0l0 232.28346l-1020.3123 0l0 -232.28346z" clip-rule="nonzero"/></clipPath><g clip-path="url(#p.0)"><path fill="#000000" fill-opacity="0.0" d="m0 0l1020.3123 0l0 232.28346l-1020.3123 0z" fill-rule="evenodd"/><path fill="#efefef" d="m139.38097 133.4209l2.6404114 -2.6404114c10.476028 -10.476028 27.471588 -10.48661 37.960648 -0.023635864l0 0l4.2178345 -4.2178497l0.007873535 12.637802l-12.653549 0.007873535l4.2178497 -4.2178345l0 0c-8.1610565 -8.140747 -21.384506 -8.132515 -29.535416 0.01838684l-2.6404114 2.6404114z" fill-rule="evenodd"/><path stroke="#000000" stroke-width="1.0" stroke-linejoin="round" stroke-linecap="butt" d="m139.38097 133.4209l2.6404114 -2.6404114c10.476028 -10.476028 27.471588 -10.48661 37.960648 -0.023635864l0 0l4.2178345 -4.2178497l0.007873535 12.637802l-12.653549 0.007873535l4.2178497 -4.2178345l0 0c-8.1610565 -8.140747 -21.384506 -8.132515 -29.535416 0.01838684l-2.6404114 2.6404114z" fill-rule="evenodd"/><path fill="#efefef" d="m82.785515 58.605656c0 -8.175552 6.627594 -14.80315 14.803146 -14.80315c3.9260406 0 7.6912766 1.5596123 10.467407 4.335743c2.7761307 2.7761269 4.335739 6.5413666 4.335739 10.467407c0 8.175556 -6.627594 14.80315 -14.803146 14.80315c-8.175552 0 -14.803146 -6.627594 -14.803146 -14.80315z" fill-rule="evenodd"/><path stroke="#000000" stroke-width="1.0" stroke-linejoin="round" stroke-linecap="butt" d="m82.785515 58.605656c0 -8.175552 6.627594 -14.80315 14.803146 -14.80315c3.9260406 0 7.6912766 1.5596123 10.467407 4.335743c2.7761307 2.7761269 4.335739 6.5413666 4.335739 10.467407c0 8.175556 -6.627594 14.80315 -14.803146 14.80315c-8.175552 0 -14.803146 -6.627594 -14.803146 -14.80315z" fill-rule="evenodd"/><path fill="#000000" d="m96.89392 58.47261l-2.9375 -4.75l1.375 0l1.96875 3.265625l0.34375 0.796875l0.328125 -0.796875l2.078125 -3.265625l1.265625 0l-3.03125 4.65625l3.171875 5.015625l-1.34375 0l-2.171875 -3.46875l-0.375 -0.828125l-0.359375 0.828125l-2.25 3.46875l-1.28125 0l3.21875 -4.921875z" fill-rule="nonzero"/><path fill="#efefef" d="m147.7855 100.135254c0 -8.175552 6.627594 -14.803146 14.803146 -14.803146c3.9260406 0 7.691284 1.5596085 10.467407 4.335739c2.7761383 2.7761307 4.3357544 6.5413666 4.3357544 10.467407c0 8.175552 -6.627594 14.803154 -14.803162 14.803154c-8.175552 0 -14.803146 -6.6276016 -14.803146 -14.803154z" fill-rule="evenodd"/><path stroke="#000000" stroke-width="1.0" stroke-linejoin="round" stroke-linecap="butt" d="m147.7855 100.135254c0 -8.175552 6.627594 -14.803146 14.803146 -14.803146c3.9260406 0 7.691284 1.5596085 10.467407 4.335739c2.7761383 2.7761307 4.3357544 6.5413666 4.3357544 10.467407c0 8.175552 -6.627594 14.803154 -14.803162 14.803154c-8.175552 0 -14.803146 -6.6276016 -14.803146 -14.803154z" fill-rule="evenodd"/><path fill="#000000" d="m162.04314 101.08034l-3.203125 -5.828125l1.34375 0l2.265625 4.21875l0.234375 0.84375l0.015625 0l0.25 -0.859375l2.171875 -4.203125l1.234375 0l-3.171875 5.8125l0 3.859375l-1.140625 0l0 -3.84375z" fill-rule="nonzero"/><path fill="#000000" fill-opacity="0.0" d="m108.05607 69.07306l54.51969 16.251968" fill-rule="evenodd"/><path stroke="#000000" stroke-width="1.0" stroke-linejoin="round" stroke-linecap="butt" d="m108.05607 69.07306l48.769722 14.537941" fill-rule="evenodd"/><path fill="#000000" stroke="#000000" stroke-width="1.0" stroke-linecap="butt" d="m156.35394 85.1939l4.8208313 -0.28649902l-3.8771362 -2.879303z" fill-rule="evenodd"/><path fill="#ffffff" d="m193.7855 140.13525c0 -8.175552 6.627594 -14.803146 14.803146 -14.803146c3.9260406 0 7.691284 1.5596085 10.467407 4.335739c2.7761383 2.776123 4.3357544 6.5413666 4.3357544 10.467407c0 8.175552 -6.627594 14.803146 -14.803162 14.803146c-8.175552 0 -14.803146 -6.627594 -14.803146 -14.803146z" fill-rule="evenodd"/><path stroke="#000000" stroke-width="1.0" stroke-linejoin="round" stroke-linecap="butt" d="m193.7855 140.13525c0 -8.175552 6.627594 -14.803146 14.803146 -14.803146c3.9260406 0 7.691284 1.5596085 10.467407 4.335739c2.7761383 2.776123 4.3357544 6.5413666 4.3357544 10.467407c0 8.175552 -6.627594 14.803146 -14.803162 14.803146c-8.175552 0 -14.803146 -6.627594 -14.803146 -14.803146z" fill-rule="evenodd"/><path fill="#000000" d="m205.92635 141.73659l0.234375 1.59375l0.015625 0l0.234375 -1.625l1.984375 -6.453125l0.546875 0l2.015625 6.484375l0.234375 1.59375l0.015625 0l0.25 -1.625l1.625 -6.453125l1.125 0l-2.703125 9.828125l-0.640625 0l-1.953125 -6.484375l-0.25 -1.46875l-0.078125 0l-0.25 1.484375l-1.953125 6.46875l-0.640625 0l-2.765625 -9.828125l1.21875 0l1.734375 6.484375z" fill-rule="nonzero"/><path fill="#000000" fill-opacity="0.0" d="m173.05606 110.60266l35.527573 14.740158" fill-rule="evenodd"/><path stroke="#000000" stroke-width="1.0" stroke-linejoin="round" stroke-linecap="butt" d="m173.05606 110.60266l29.985611 12.440842" fill-rule="evenodd"/><path fill="#000000" stroke="#000000" stroke-width="1.0" stroke-linecap="butt" d="m202.4087 124.56914l4.8246155 0.21344757l-3.55867 -3.264717z" fill-rule="evenodd"/><path fill="#efefef" d="m243.13736 68.99314l71.543304 0l0 -9.188976l18.37796 18.377956l-18.37796 18.377953l0 -9.18898l-71.543304 0z" fill-rule="evenodd"/><path stroke="#000000" stroke-width="1.0" stroke-linejoin="round" stroke-linecap="butt" d="m243.13736 68.99314l71.543304 0l0 -9.188976l18.37796 18.377956l-18.37796 18.377953l0 -9.18898l-71.543304 0z" fill-rule="evenodd"/><path fill="#000000" d="m248.78288 74.38962q0.453125 -0.09375 1.046875 -0.140625q0.59375 -0.046875 1.09375 -0.046875q0.546875 0 1.046875 0.125q0.5 0.125 0.875 0.40625q0.375 0.265625 0.609375 0.71875q0.234375 0.4375 0.234375 1.0625q0 0.984375 -0.546875 1.609375q-0.53125 0.609375 -1.359375 0.8125l0.5625 0.4375l2.09375 3.328125l-1.15625 0l-2.328125 -3.625l-1.171875 -0.171875l0 3.796875l-1.0 0l0 -8.3125zm2.171875 0.6875q-0.15625 0 -0.328125 0q-0.171875 0 -0.328125 0.015625q-0.15625 0 -0.296875 0.015625q-0.140625 0.015625 -0.21875 0.03125l0 3.09375l0.9375 0q0.828125 0 1.359375 -0.40625q0.546875 -0.40625 0.546875 -1.265625q0 -0.65625 -0.453125 -1.0625q-0.4375 -0.421875 -1.21875 -0.421875zm5.0775604 1.625l0.96875 0l0 6.0l-0.96875 0l0 -6.0zm-0.20314026 -1.828125q0 -0.265625 0.18751526 -0.46875q0.1875 -0.203125 0.46875 -0.203125q0.296875 0 0.5 0.203125q0.203125 0.203125 0.203125 0.46875q0 0.28125 -0.203125 0.46875q-0.203125 0.171875 -0.5 0.171875q-0.28125 0 -0.46875 -0.171875q-0.18751526 -0.1875 -0.18751526 -0.46875zm7.8097687 8.109375q0 1.15625 -0.625 1.703125q-0.609375 0.5625 -1.8125 0.5625q-0.71875 0 -1.171875 -0.09375q-0.4375 -0.09375 -0.75 -0.234375l0.265625 -0.8125q0.265625 0.109375 0.59375 0.203125q0.34375 0.09375 0.890625 0.09375q0.5 0 0.8125 -0.09375q0.328125 -0.078125 0.515625 -0.296875q0.1875 -0.203125 0.265625 -0.546875q0.078125 -0.328125 0.078125 -0.78125l0 -0.578125l-0.046875 0q-0.25 0.359375 -0.625 0.546875q-0.359375 0.171875 -0.96875 0.171875q-1.203125 0 -1.78125 -0.75q-0.5625 -0.75 -0.5625 -2.34375q0 -1.546875 0.71875 -2.34375q0.734375 -0.796875 2.171875 -0.796875q0.671875 0 1.15625 0.109375q0.5 0.109375 0.875 0.25l0 6.03125zm-2.40625 -0.984375q0.609375 0 0.953125 -0.296875q0.359375 -0.3125 0.5 -0.96875l0 -3.078125q-0.484375 -0.21875 -1.21875 -0.21875q-0.828125 0 -1.296875 0.5625q-0.46875 0.546875 -0.46875 1.71875q0 0.5 0.078125 0.921875q0.09375 0.421875 0.265625 0.71875q0.1875 0.296875 0.46875 0.46875q0.296875 0.171875 0.71875 0.171875zm8.115936 0.703125l0 -3.421875q0 -0.46875 -0.0625 -0.8125q-0.046875 -0.359375 -0.203125 -0.59375q-0.140625 -0.234375 -0.390625 -0.34375q-0.234375 -0.125 -0.640625 -0.125q-0.5625 0 -1.015625 0.359375q-0.453125 0.359375 -0.578125 0.9375l0 4.0l-0.96875 0l0 -8.40625l0.96875 0l0 3.078125l0.046875 0q0.3125 -0.375 0.75 -0.59375q0.4375 -0.21875 1.078125 -0.21875q0.5 0 0.875 0.109375q0.375 0.109375 0.625 0.40625q0.25 0.28125 0.359375 0.765625q0.109375 0.484375 0.109375 1.234375l0 3.625l-0.953125 0zm1.9077759 -6.0l0.9375 0l0 -1.1875l0.96875 -0.28125l0 1.46875l1.625 0l0 0.84375l-1.625 0l0 3.3125q0 0.625 0.15625 0.890625q0.15625 0.25 0.53125 0.25q0.3125 0 0.515625 -0.0625q0.21875 -0.0625 0.484375 -0.171875l0.21875 0.734375q-0.328125 0.15625 -0.71875 0.25q-0.375 0.09375 -0.8125 0.09375q-0.734375 0 -1.046875 -0.40625q-0.296875 -0.421875 -0.296875 -1.390625l0 -3.5l-0.9375 0l0 -0.84375zm4.262146 2.09375l2.90625 0l0 0.890625l-2.90625 0l0 -0.890625zm7.366913 -1.171875q-0.359375 -0.125 -0.671875 -0.125q-0.515625 0 -0.828125 0.296875q-0.296875 0.28125 -0.359375 0.703125l0 4.203125l-0.96875 0l0 -6.0l0.671875 0l0.1875 0.734375l0.046875 0q0.21875 -0.40625 0.53125 -0.625q0.328125 -0.234375 0.828125 -0.234375q0.34375 0 0.765625 0.125l-0.203125 0.921875zm0.9237976 2.078125q0 -1.53125 0.671875 -2.328125q0.671875 -0.8125 1.953125 -0.8125q0.671875 0 1.171875 0.21875q0.5 0.21875 0.8125 0.640625q0.328125 0.40625 0.484375 1.0q0.15625 0.578125 0.15625 1.28125q0 1.53125 -0.6875 2.34375q-0.671875 0.796875 -1.9375 0.796875q-0.671875 0 -1.171875 -0.21875q-0.5 -0.21875 -0.828125 -0.625q-0.3125 -0.421875 -0.46875 -1.0q-0.15625 -0.59375 -0.15625 -1.296875zm0.984375 0q0 0.453125 0.09375 0.875q0.09375 0.421875 0.28125 0.734375q0.1875 0.3125 0.5 0.5q0.3125 0.1875 0.765625 0.1875q1.625 0.015625 1.625 -2.296875q0 -0.46875 -0.09375 -0.890625q-0.078125 -0.421875 -0.28125 -0.734375q-0.1875 -0.3125 -0.5 -0.484375q-0.3125 -0.1875 -0.75 -0.1875q-1.640625 -0.015625 -1.640625 2.296875zm4.9789124 -3.0l0.9375 0l0 -1.1875l0.96875 -0.28125l0 1.46875l1.625 0l0 0.84375l-1.625 0l0 3.3125q0 0.625 0.15625 0.890625q0.15625 0.25 0.53125 0.25q0.3125 0 0.515625 -0.0625q0.21875 -0.0625 0.484375 -0.171875l0.21875 0.734375q-0.328125 0.15625 -0.71875 0.25q-0.375 0.09375 -0.8125 0.09375q-0.734375 0 -1.046875 -0.40625q-0.296875 -0.421875 -0.296875 -1.390625l0 -3.5l-0.9375 0l0 -0.84375zm4.7711487 0.4375q0.453125 -0.265625 1.0625 -0.390625q0.609375 -0.140625 1.265625 -0.140625q0.625 0 1.0 0.171875q0.375 0.15625 0.578125 0.4375q0.203125 0.265625 0.265625 0.59375q0.0625 0.3125 0.0625 0.640625q0 0.71875 -0.046875 1.40625q-0.03125 0.6875 -0.03125 1.296875q0 0.4375 0.03125 0.84375q0.046875 0.390625 0.140625 0.734375l-0.703125 0l-0.25 -0.84375l-0.0625 0q-0.109375 0.171875 -0.28125 0.328125q-0.15625 0.15625 -0.390625 0.28125q-0.21875 0.125 -0.515625 0.203125q-0.296875 0.09375 -0.6875 0.09375q-0.375 0 -0.71875 -0.109375q-0.328125 -0.125 -0.5625 -0.34375q-0.234375 -0.234375 -0.375 -0.546875q-0.140625 -0.3125 -0.140625 -0.703125q0 -0.53125 0.21875 -0.875q0.21875 -0.359375 0.609375 -0.5625q0.390625 -0.21875 0.921875 -0.296875q0.546875 -0.09375 1.21875 -0.09375q0.15625 0 0.3125 0q0.171875 0 0.34375 0.015625q0.03125 -0.359375 0.03125 -0.640625q0 -0.671875 -0.265625 -0.921875q-0.265625 -0.265625 -0.953125 -0.265625q-0.203125 0 -0.4375 0.03125q-0.234375 0.015625 -0.484375 0.078125q-0.25 0.046875 -0.46875 0.125q-0.21875 0.078125 -0.390625 0.171875l-0.296875 -0.71875zm1.703125 4.8125q0.34375 0 0.59375 -0.078125q0.265625 -0.09375 0.453125 -0.234375q0.203125 -0.140625 0.328125 -0.296875q0.125 -0.171875 0.1875 -0.328125l0 -1.0q-0.171875 -0.015625 -0.34375 -0.015625q-0.171875 -0.015625 -0.34375 -0.015625q-0.375 0 -0.734375 0.046875q-0.34375 0.046875 -0.625 0.15625q-0.265625 0.109375 -0.421875 0.3125q-0.15625 0.203125 -0.15625 0.5q0 0.421875 0.296875 0.6875q0.296875 0.265625 0.765625 0.265625zm3.545807 -5.25l0.9375 0l0 -1.1875l0.96875 -0.28125l0 1.46875l1.625 0l0 0.84375l-1.625 0l0 3.3125q0 0.625 0.15625 0.890625q0.15625 0.25 0.53125 0.25q0.3125 0 0.515625 -0.0625q0.21875 -0.0625 0.484375 -0.171875l0.21875 0.734375q-0.328125 0.15625 -0.71875 0.25q-0.375 0.09375 -0.8125 0.09375q-0.734375 0 -1.046875 -0.40625q-0.296875 -0.421875 -0.296875 -1.390625l0 -3.5l-0.9375 0l0 -0.84375zm9.10788 5.515625q-0.359375 0.296875 -0.90625 0.46875q-0.53125 0.15625 -1.15625 0.15625q-0.671875 0 -1.1875 -0.21875q-0.5 -0.21875 -0.828125 -0.625q-0.3125 -0.421875 -0.46875 -1.0q-0.15625 -0.578125 -0.15625 -1.296875q0 -1.53125 0.671875 -2.328125q0.6875 -0.8125 1.96875 -0.8125q0.40625 0 0.8125 0.09375q0.40625 0.078125 0.71875 0.34375q0.328125 0.25 0.53125 0.71875q0.21875 0.453125 0.21875 1.203125q0 0.390625 -0.078125 0.875l-3.859375 0q0 0.53125 0.109375 0.9375q0.109375 0.40625 0.328125 0.6875q0.234375 0.28125 0.59375 0.4375q0.375 0.140625 0.90625 0.140625q0.40625 0 0.8125 -0.140625q0.40625 -0.140625 0.609375 -0.328125l0.359375 0.6875zm-2.0625 -4.8125q-0.703125 0 -1.125 0.375q-0.421875 0.359375 -0.515625 1.265625l2.984375 0q0 -0.921875 -0.359375 -1.28125q-0.34375 -0.359375 -0.984375 -0.359375zm8.580688 1.953125l-2.78125 -5.0625l1.171875 0l1.96875 3.671875l0.203125 0.734375l0 0l0.21875 -0.75l1.890625 -3.65625l1.0625 0l-2.75 5.0625l0 3.34375l-0.984375 0l0 -3.34375z" fill-rule="nonzero"/><path fill="#000000" fill-opacity="0.0" d="m30.121254 110.60266l-8.409449 16.566933" fill-rule="evenodd"/><path stroke="#000000" stroke-width="1.0" stroke-linejoin="round" stroke-linecap="butt" d="m30.121252 110.60266l-5.6936665 11.216736" fill-rule="evenodd"/><path fill="#000000" stroke="#000000" stroke-width="1.0" stroke-linecap="butt" d="m22.954737 121.07178l-0.5812321 4.794235l3.526928 -3.2989883z" fill-rule="evenodd"/><path fill="#000000" fill-opacity="0.0" d="m6.92358 127.15746l29.6063 0l0 14.236229l-29.6063 0z" fill-rule="evenodd"/><path fill="#000000" d="m25.443558 136.0543q0 -0.5 0.28125 -0.78125q0.296875 -0.296875 0.78125 -0.296875q0.515625 0 0.8125 0.296875q0.296875 0.28125 0.296875 0.78125q0 0.484375 -0.296875 0.78125q-0.296875 0.296875 -0.8125 0.296875q-0.484375 0 -0.78125 -0.296875q-0.28125 -0.296875 -0.28125 -0.78125zm-4.734377 0q0 -0.5 0.28125 -0.78125q0.296875 -0.296875 0.78125 -0.296875q0.5 0 0.796875 0.296875q0.3125 0.28125 0.3125 0.78125q0 0.484375 -0.3125 0.78125q-0.296875 0.296875 -0.796875 0.296875q-0.484375 0 -0.78125 -0.296875q-0.28125 -0.296875 -0.28125 -0.78125zm-4.734374 0q0 -0.5 0.28124905 -0.78125q0.296875 -0.296875 0.78125 -0.296875q0.5 0 0.796875 0.296875q0.296875 0.28125 0.296875 0.78125q0 0.484375 -0.296875 0.78125q-0.296875 0.296875 -0.796875 0.296875q-0.484375 0 -0.78125 -0.296875q-0.28124905 -0.296875 -0.28124905 -0.78125z" fill-rule="nonzero"/><path fill="#000000" fill-opacity="0.0" d="m97.58866 22.28973l0 21.51181" fill-rule="evenodd"/><path stroke="#000000" stroke-width="1.0" stroke-linejoin="round" stroke-linecap="butt" d="m97.58866 22.289732l0 15.511808" fill-rule="evenodd"/><path fill="#000000" stroke="#000000" stroke-width="1.0" stroke-linecap="butt" d="m95.936935 37.80154l1.6517258 4.5380974l1.6517334 -4.5380974z" fill-rule="evenodd"/><path fill="#000000" fill-opacity="0.0" d="m442.81702 8.053511l21.543304 0l0 14.236219l-21.543304 0z" fill-rule="evenodd"/><path fill="#000000" d="m457.30548 16.950356q0 -0.5 0.28125 -0.78125q0.296875 -0.29687405 0.78125 -0.29687405q0.515625 0 0.8125 0.29687405q0.296875 0.28125 0.296875 0.78125q0 0.484375 -0.296875 0.78125q-0.296875 0.296875 -0.8125 0.296875q-0.484375 0 -0.78125 -0.296875q-0.28125 -0.296875 -0.28125 -0.78125zm-4.734375 0q0 -0.5 0.28125 -0.78125q0.296875 -0.29687405 0.78125 -0.29687405q0.5 0 0.796875 0.29687405q0.3125 0.28125 0.3125 0.78125q0 0.484375 -0.3125 0.78125q-0.296875 0.296875 -0.796875 0.296875q-0.484375 0 -0.78125 -0.296875q-0.28125 -0.296875 -0.28125 -0.78125zm-4.734375 0q0 -0.5 0.28125 -0.78125q0.296875 -0.29687405 0.78125 -0.29687405q0.5 0 0.796875 0.29687405q0.296875 0.28125 0.296875 0.78125q0 0.484375 -0.296875 0.78125q-0.296875 0.296875 -0.796875 0.296875q-0.484375 0 -0.78125 -0.296875q-0.28125 -0.296875 -0.28125 -0.78125z" fill-rule="nonzero"/><path fill="#ffffff" d="m25.785511 100.135254c0 -8.175552 6.627594 -14.803146 14.80315 -14.803146c3.9260406 0 7.6912766 1.5596085 10.467407 4.335739c2.7761269 2.7761307 4.335743 6.5413666 4.335743 10.467407c0 8.175552 -6.627598 14.803154 -14.80315 14.803154c-8.175556 0 -14.80315 -6.6276016 -14.80315 -14.803154z" fill-rule="evenodd"/><path stroke="#000000" stroke-width="1.0" stroke-linejoin="round" stroke-linecap="butt" d="m25.785511 100.135254c0 -8.175552 6.627594 -14.803146 14.80315 -14.803146c3.9260406 0 7.6912766 1.5596085 10.467407 4.335739c2.7761269 2.7761307 4.335743 6.5413666 4.335743 10.467407c0 8.175552 -6.627598 14.803154 -14.80315 14.803154c-8.175556 0 -14.80315 -6.6276016 -14.80315 -14.803154z" fill-rule="evenodd"/><path fill="#000000" d="m42.815094 95.25221l1.109375 0l0 6.453125q0 0.875 -0.234375 1.515625q-0.21875 0.625 -0.640625 1.03125q-0.421875 0.40625 -1.03125 0.609375q-0.59375 0.1875 -1.3125 0.1875q-1.703125 0 -2.578125 -0.765625q-0.875 -0.78125 -0.875 -2.359375l0 -6.671875l1.15625 0l0 6.125q0 0.734375 0.140625 1.25q0.140625 0.5 0.421875 0.8125q0.296875 0.3125 0.734375 0.453125q0.4375 0.125 1.015625 0.125q1.125 0 1.609375 -0.609375q0.484375 -0.609375 0.484375 -2.03125l0 -6.125z" fill-rule="nonzero"/><path fill="#000000" fill-opacity="0.0" d="m45.57829 127.15746l29.606297 0l0 14.236229l-29.606297 0z" fill-rule="evenodd"/><path fill="#000000" d="m64.09827 136.0543q0 -0.5 0.28125 -0.78125q0.296875 -0.296875 0.78125 -0.296875q0.515625 0 0.8125 0.296875q0.296875 0.28125 0.296875 0.78125q0 0.484375 -0.296875 0.78125q-0.296875 0.296875 -0.8125 0.296875q-0.484375 0 -0.78125 -0.296875q-0.28125 -0.296875 -0.28125 -0.78125zm-4.734375 0q0 -0.5 0.28125 -0.78125q0.296875 -0.296875 0.78125 -0.296875q0.5 0 0.796875 0.296875q0.3125 0.28125 0.3125 0.78125q0 0.484375 -0.3125 0.78125q-0.296875 0.296875 -0.796875 0.296875q-0.484375 0 -0.78125 -0.296875q-0.28125 -0.296875 -0.28125 -0.78125zm-4.734375 0q0 -0.5 0.28125 -0.78125q0.296875 -0.296875 0.78125 -0.296875q0.5 0 0.796875 0.296875q0.296875 0.28125 0.296875 0.78125q0 0.484375 -0.296875 0.78125q-0.296875 0.296875 -0.796875 0.296875q-0.484375 0 -0.78125 -0.296875q-0.28125 -0.296875 -0.28125 -0.78125z" fill-rule="nonzero"/><path fill="#000000" fill-opacity="0.0" d="m51.05607 110.60266l9.322834 16.566933" fill-rule="evenodd"/><path stroke="#000000" stroke-width="1.0" stroke-linejoin="round" stroke-linecap="butt" d="m51.056065 110.60266l6.3803215 11.338005" fill-rule="evenodd"/><path fill="#000000" stroke="#000000" stroke-width="1.0" stroke-linecap="butt" d="m55.996925 122.75071l3.6650314 3.1448517l-0.7861023 -4.7649384z" fill-rule="evenodd"/><path fill="#000000" fill-opacity="0.0" d="m198.12125 150.60266l-8.409439 16.566925" fill-rule="evenodd"/><path stroke="#000000" stroke-width="1.0" stroke-linejoin="round" stroke-linecap="butt" d="m198.12125 150.60266l-5.6936646 11.216736" fill-rule="evenodd"/><path fill="#000000" stroke="#000000" stroke-width="1.0" stroke-linecap="butt" d="m190.95473 161.07178l-0.58122253 4.794235l3.5269165 -3.298996z" fill-rule="evenodd"/><path fill="#000000" fill-opacity="0.0" d="m174.92358 167.15747l29.606293 0l0 14.236221l-29.606293 0z" fill-rule="evenodd"/><path fill="#000000" d="m193.44356 176.0543q0 -0.5 0.28125 -0.78125q0.296875 -0.296875 0.78125 -0.296875q0.515625 0 0.8125 0.296875q0.296875 0.28125 0.296875 0.78125q0 0.484375 -0.296875 0.78125q-0.296875 0.296875 -0.8125 0.296875q-0.484375 0 -0.78125 -0.296875q-0.28125 -0.296875 -0.28125 -0.78125zm-4.734375 0q0 -0.5 0.28125 -0.78125q0.296875 -0.296875 0.78125 -0.296875q0.5 0 0.796875 0.296875q0.3125 0.28125 0.3125 0.78125q0 0.484375 -0.3125 0.78125q-0.296875 0.296875 -0.796875 0.296875q-0.484375 0 -0.78125 -0.296875q-0.28125 -0.296875 -0.28125 -0.78125zm-4.734375 0q0 -0.5 0.28125 -0.78125q0.296875 -0.296875 0.78125 -0.296875q0.5 0 0.796875 0.296875q0.296875 0.28125 0.296875 0.78125q0 0.484375 -0.296875 0.78125q-0.296875 0.296875 -0.796875 0.296875q-0.484375 0 -0.78125 -0.296875q-0.28125 -0.296875 -0.28125 -0.78125z" fill-rule="nonzero"/><path fill="#000000" fill-opacity="0.0" d="m213.5783 167.15747l29.606293 0l0 14.236221l-29.606293 0z" fill-rule="evenodd"/><path fill="#000000" d="m232.09827 176.0543q0 -0.5 0.28125 -0.78125q0.296875 -0.296875 0.78125 -0.296875q0.515625 0 0.8125 0.296875q0.296875 0.28125 0.296875 0.78125q0 0.484375 -0.296875 0.78125q-0.296875 0.296875 -0.8125 0.296875q-0.484375 0 -0.78125 -0.296875q-0.28125 -0.296875 -0.28125 -0.78125zm-4.734375 0q0 -0.5 0.28125 -0.78125q0.296875 -0.296875 0.78125 -0.296875q0.5 0 0.796875 0.296875q0.3125 0.28125 0.3125 0.78125q0 0.484375 -0.3125 0.78125q-0.296875 0.296875 -0.796875 0.296875q-0.484375 0 -0.78125 -0.296875q-0.28125 -0.296875 -0.28125 -0.78125zm-4.734375 0q0 -0.5 0.28125 -0.78125q0.296875 -0.296875 0.78125 -0.296875q0.5 0 0.796875 0.296875q0.296875 0.28125 0.296875 0.78125q0 0.484375 -0.296875 0.78125q-0.296875 0.296875 -0.796875 0.296875q-0.484375 0 -0.78125 -0.296875q-0.28125 -0.296875 -0.28125 -0.78125z" fill-rule="nonzero"/><path fill="#000000" fill-opacity="0.0" d="m219.05606 150.60266l9.322845 16.566925" fill-rule="evenodd"/><path stroke="#000000" stroke-width="1.0" stroke-linejoin="round" stroke-linecap="butt" d="m219.05606 150.60266l6.3803253 11.338013" fill-rule="evenodd"/><path fill="#000000" stroke="#000000" stroke-width="1.0" stroke-linecap="butt" d="m223.99692 162.7507l3.665039 3.1448517l-0.7861023 -4.764923z" fill-rule="evenodd"/><path fill="#000000" fill-opacity="0.0" d="m152.12125 110.60266l-33.07086 19.055115" fill-rule="evenodd"/><path stroke="#000000" stroke-width="1.0" stroke-linejoin="round" stroke-linecap="butt" d="m152.12126 110.60266l-27.872116 16.059639" fill-rule="evenodd"/><path fill="#000000" stroke="#000000" stroke-width="1.0" stroke-linecap="butt" d="m123.42453 125.23114l-3.10746 3.6967926l4.756706 -0.83447266z" fill-rule="evenodd"/><path fill="#efefef" d="m93.785515 140.13525c0 -8.175552 6.627594 -14.803146 14.803146 -14.803146c3.9260406 0 7.6912766 1.5596085 10.467407 4.335739c2.7761307 2.776123 4.335739 6.5413666 4.335739 10.467407c0 8.175552 -6.627594 14.803146 -14.803146 14.803146c-8.175552 0 -14.803146 -6.627594 -14.803146 -14.803146z" fill-rule="evenodd"/><path stroke="#000000" stroke-width="1.0" stroke-linejoin="round" stroke-linecap="butt" d="m93.785515 140.13525c0 -8.175552 6.627594 -14.803146 14.803146 -14.803146c3.9260406 0 7.6912766 1.5596085 10.467407 4.335739c2.7761307 2.776123 4.335739 6.5413666 4.335739 10.467407c0 8.175552 -6.627594 14.803146 -14.803146 14.803146c-8.175552 0 -14.803146 -6.627594 -14.803146 -14.803146z" fill-rule="evenodd"/><path fill="#000000" d="m105.35177 143.89284l4.875 -7.078125l0.578125 -0.546875l-5.453125 0l0 -1.015625l6.5 0l0 1.03125l-4.921875 7.109375l-0.578125 0.515625l5.5 0l0 1.015625l-6.5 0l0 -1.03125z" fill-rule="nonzero"/><path fill="#000000" fill-opacity="0.0" d="m98.121254 150.60266l-25.543304 14.740158" fill-rule="evenodd"/><path stroke="#000000" stroke-width="1.0" stroke-linejoin="round" stroke-linecap="butt" d="m98.12126 150.60266l-20.34652 11.741257" fill-rule="evenodd"/><path fill="#000000" stroke="#000000" stroke-width="1.0" stroke-linecap="butt" d="m76.94918 160.91331l-3.1050339 3.698822l4.7561493 -0.83758545z" fill-rule="evenodd"/><path fill="#000000" fill-opacity="0.0" d="m119.05607 150.60266l25.543312 14.740158" fill-rule="evenodd"/><path stroke="#000000" stroke-width="1.0" stroke-linejoin="round" stroke-linecap="butt" d="m119.05607 150.60266l20.34652 11.741257" fill-rule="evenodd"/><path fill="#000000" stroke="#000000" stroke-width="1.0" stroke-linecap="butt" d="m138.57703 163.77455l4.7561493 0.83758545l-3.1050262 -3.698822z" fill-rule="evenodd"/><path fill="#000000" fill-opacity="0.0" d="m87.121254 69.07306l-46.519684 16.251968" fill-rule="evenodd"/><path stroke="#000000" stroke-width="1.0" stroke-linejoin="round" stroke-linecap="butt" d="m87.12126 69.07306l-40.85541 14.273117" fill-rule="evenodd"/><path fill="#000000" stroke="#000000" stroke-width="1.0" stroke-linecap="butt" d="m45.721096 81.78686l-3.7394218 3.0560226l4.8289337 0.06260681z" fill-rule="evenodd"/><path fill="#efefef" d="m627.1373 68.99314l71.543335 0l0 -9.188976l18.37793 18.377956l-18.37793 18.377953l0 -9.18898l-71.543335 0z" fill-rule="evenodd"/><path stroke="#000000" stroke-width="1.0" stroke-linejoin="round" stroke-linecap="butt" d="m627.1373 68.99314l71.543335 0l0 -9.188976l18.37793 18.377956l-18.37793 18.377953l0 -9.18898l-71.543335 0z" fill-rule="evenodd"/><path fill="#000000" d="m641.4596 82.70212l-4.96875 0l0 -8.40625l1.0 0l0 7.515625l3.96875 0l0 0.890625zm4.8085938 -0.484375q-0.359375 0.296875 -0.90625 0.46875q-0.53125 0.15625 -1.15625 0.15625q-0.671875 0 -1.1875 -0.21875q-0.5 -0.21875 -0.828125 -0.625q-0.3125 -0.421875 -0.46875 -1.0q-0.15625 -0.578125 -0.15625 -1.296875q0 -1.53125 0.671875 -2.328125q0.6875 -0.8125 1.96875 -0.8125q0.40625 0 0.8125 0.09375q0.40625 0.078125 0.71875 0.34375q0.328125 0.25 0.53125 0.71875q0.21875 0.453125 0.21875 1.203125q0 0.390625 -0.078125 0.875l-3.859375 0q0 0.53125 0.109375 0.9375q0.109375 0.40625 0.328125 0.6875q0.234375 0.28125 0.59375 0.4375q0.375 0.140625 0.90625 0.140625q0.40625 0 0.8125 -0.140625q0.40625 -0.140625 0.609375 -0.328125l0.359375 0.6875zm-2.0625 -4.8125q-0.703125 0 -1.125 0.375q-0.421875 0.359375 -0.515625 1.265625l2.984375 0q0 -0.921875 -0.359375 -1.28125q-0.34375 -0.359375 -0.984375 -0.359375zm3.1272583 -0.703125l0.9375 0l0 -0.34375q0 -0.546875 0.078125 -0.953125q0.09375 -0.40625 0.296875 -0.65625q0.203125 -0.265625 0.53125 -0.390625q0.328125 -0.125 0.8125 -0.125q0.375 0 0.671875 0.046875q0.296875 0.046875 0.625 0.171875l-0.21875 0.8125q-0.28125 -0.125 -0.53125 -0.15625q-0.234375 -0.03125 -0.453125 -0.03125q-0.3125 0 -0.484375 0.09375q-0.171875 0.09375 -0.25 0.28125q-0.078125 0.1875 -0.109375 0.453125q-0.015625 0.265625 -0.015625 0.625l0 0.171875l1.59375 0l0 0.84375l-1.59375 0l0 5.15625l-0.953125 0l0 -5.15625l-0.9375 0l0 -0.84375zm3.4954224 0l0.9375 0l0 -1.1875l0.96875 -0.28125l0 1.46875l1.625 0l0 0.84375l-1.625 0l0 3.3125q0 0.625 0.15625 0.890625q0.15625 0.25 0.53125 0.25q0.3125 0 0.515625 -0.0625q0.21875 -0.0625 0.484375 -0.171875l0.21875 0.734375q-0.328125 0.15625 -0.71875 0.25q-0.375 0.09375 -0.8125 0.09375q-0.734375 0 -1.046875 -0.40625q-0.296875 -0.421875 -0.296875 -1.390625l0 -3.5l-0.9375 0l0 -0.84375zm4.262146 2.09375l2.90625 0l0 0.890625l-2.90625 0l0 -0.890625zm7.3668823 -1.171875q-0.359375 -0.125 -0.671875 -0.125q-0.515625 0 -0.828125 0.296875q-0.296875 0.28125 -0.359375 0.703125l0 4.203125l-0.96875 0l0 -6.0l0.671875 0l0.1875 0.734375l0.046875 0q0.21875 -0.40625 0.53125 -0.625q0.328125 -0.234375 0.828125 -0.234375q0.34375 0 0.765625 0.125l-0.203125 0.921875zm0.9238281 2.078125q0 -1.53125 0.671875 -2.328125q0.671875 -0.8125 1.953125 -0.8125q0.671875 0 1.171875 0.21875q0.5 0.21875 0.8125 0.640625q0.328125 0.40625 0.484375 1.0q0.15625 0.578125 0.15625 1.28125q0 1.53125 -0.6875 2.34375q-0.671875 0.796875 -1.9375 0.796875q-0.671875 0 -1.171875 -0.21875q-0.5 -0.21875 -0.828125 -0.625q-0.3125 -0.421875 -0.46875 -1.0q-0.15625 -0.59375 -0.15625 -1.296875zm0.984375 0q0 0.453125 0.09375 0.875q0.09375 0.421875 0.28125 0.734375q0.1875 0.3125 0.5 0.5q0.3125 0.1875 0.765625 0.1875q1.625 0.015625 1.625 -2.296875q0 -0.46875 -0.09375 -0.890625q-0.078125 -0.421875 -0.28125 -0.734375q-0.1875 -0.3125 -0.5 -0.484375q-0.3125 -0.1875 -0.75 -0.1875q-1.640625 -0.015625 -1.640625 2.296875zm4.978882 -3.0l0.9375 0l0 -1.1875l0.96875 -0.28125l0 1.46875l1.625 0l0 0.84375l-1.625 0l0 3.3125q0 0.625 0.15625 0.890625q0.15625 0.25 0.53125 0.25q0.3125 0 0.515625 -0.0625q0.21875 -0.0625 0.484375 -0.171875l0.21875 0.734375q-0.328125 0.15625 -0.71875 0.25q-0.375 0.09375 -0.8125 0.09375q-0.734375 0 -1.046875 -0.40625q-0.296875 -0.421875 -0.296875 -1.390625l0 -3.5l-0.9375 0l0 -0.84375zm4.771179 0.4375q0.453125 -0.265625 1.0625 -0.390625q0.609375 -0.140625 1.265625 -0.140625q0.625 0 1.0 0.171875q0.375 0.15625 0.578125 0.4375q0.203125 0.265625 0.265625 0.59375q0.0625 0.3125 0.0625 0.640625q0 0.71875 -0.046875 1.40625q-0.03125 0.6875 -0.03125 1.296875q0 0.4375 0.03125 0.84375q0.046875 0.390625 0.140625 0.734375l-0.703125 0l-0.25 -0.84375l-0.0625 0q-0.109375 0.171875 -0.28125 0.328125q-0.15625 0.15625 -0.390625 0.28125q-0.21875 0.125 -0.515625 0.203125q-0.296875 0.09375 -0.6875 0.09375q-0.375 0 -0.71875 -0.109375q-0.328125 -0.125 -0.5625 -0.34375q-0.234375 -0.234375 -0.375 -0.546875q-0.140625 -0.3125 -0.140625 -0.703125q0 -0.53125 0.21875 -0.875q0.21875 -0.359375 0.609375 -0.5625q0.390625 -0.21875 0.921875 -0.296875q0.546875 -0.09375 1.21875 -0.09375q0.15625 0 0.3125 0q0.171875 0 0.34375 0.015625q0.03125 -0.359375 0.03125 -0.640625q0 -0.671875 -0.265625 -0.921875q-0.265625 -0.265625 -0.953125 -0.265625q-0.203125 0 -0.4375 0.03125q-0.234375 0.015625 -0.484375 0.078125q-0.25 0.046875 -0.46875 0.125q-0.21875 0.078125 -0.390625 0.171875l-0.296875 -0.71875zm1.703125 4.8125q0.34375 0 0.59375 -0.078125q0.265625 -0.09375 0.453125 -0.234375q0.203125 -0.140625 0.328125 -0.296875q0.125 -0.171875 0.1875 -0.328125l0 -1.0q-0.171875 -0.015625 -0.34375 -0.015625q-0.171875 -0.015625 -0.34375 -0.015625q-0.375 0 -0.734375 0.046875q-0.34375 0.046875 -0.625 0.15625q-0.265625 0.109375 -0.421875 0.3125q-0.15625 0.203125 -0.15625 0.5q0 0.421875 0.296875 0.6875q0.296875 0.265625 0.765625 0.265625zm3.5457764 -5.25l0.9375 0l0 -1.1875l0.96875 -0.28125l0 1.46875l1.625 0l0 0.84375l-1.625 0l0 3.3125q0 0.625 0.15625 0.890625q0.15625 0.25 0.53125 0.25q0.3125 0 0.515625 -0.0625q0.21875 -0.0625 0.484375 -0.171875l0.21875 0.734375q-0.328125 0.15625 -0.71875 0.25q-0.375 0.09375 -0.8125 0.09375q-0.734375 0 -1.046875 -0.40625q-0.296875 -0.421875 -0.296875 -1.390625l0 -3.5l-0.9375 0l0 -0.84375zm9.10791 5.515625q-0.359375 0.296875 -0.90625 0.46875q-0.53125 0.15625 -1.15625 0.15625q-0.671875 0 -1.1875 -0.21875q-0.5 -0.21875 -0.828125 -0.625q-0.3125 -0.421875 -0.46875 -1.0q-0.15625 -0.578125 -0.15625 -1.296875q0 -1.53125 0.671875 -2.328125q0.6875 -0.8125 1.96875 -0.8125q0.40625 0 0.8125 0.09375q0.40625 0.078125 0.71875 0.34375q0.328125 0.25 0.53125 0.71875q0.21875 0.453125 0.21875 1.203125q0 0.390625 -0.078125 0.875l-3.859375 0q0 0.53125 0.109375 0.9375q0.109375 0.40625 0.328125 0.6875q0.234375 0.28125 0.59375 0.4375q0.375 0.140625 0.90625 0.140625q0.40625 0 0.8125 -0.140625q0.40625 -0.140625 0.609375 -0.328125l0.359375 0.6875zm-2.0625 -4.8125q-0.703125 0 -1.125 0.375q-0.421875 0.359375 -0.515625 1.265625l2.984375 0q0 -0.921875 -0.359375 -1.28125q-0.34375 -0.359375 -0.984375 -0.359375zm8.815063 1.03125l-2.5625 -4.140625l1.203125 0l1.703125 2.84375l0.296875 0.6875l0.296875 -0.6875l1.796875 -2.84375l1.109375 0l-2.640625 4.046875l2.75 4.359375l-1.15625 0l-1.890625 -3.015625l-0.328125 -0.71875l-0.3125 0.71875l-1.953125 3.015625l-1.109375 0l2.796875 -4.265625z" fill-rule="nonzero"/><path fill="#ffffff" d="m57.78551 180.13525c0 -8.175552 6.627598 -14.803146 14.80315 -14.803146c3.9260406 0 7.6912766 1.5596161 10.467407 4.335739c2.7761307 2.776123 4.335739 6.5413666 4.335739 10.467407c0 8.175552 -6.627594 14.803146 -14.803146 14.803146c-8.175552 0 -14.80315 -6.627594 -14.80315 -14.803146z" fill-rule="evenodd"/><path stroke="#000000" stroke-width="1.0" stroke-linejoin="round" stroke-linecap="butt" d="m57.78551 180.13525c0 -8.175552 6.627598 -14.803146 14.80315 -14.803146c3.9260406 0 7.6912766 1.5596161 10.467407 4.335739c2.7761307 2.776123 4.335739 6.5413666 4.335739 10.467407c0 8.175552 -6.627594 14.803146 -14.803146 14.803146c-8.175552 0 -14.80315 -6.627594 -14.80315 -14.803146z" fill-rule="evenodd"/><path fill="#000000" d="m74.464195 182.45534q0 -0.578125 -0.34375 -0.9375q-0.34375 -0.375 -0.875 -0.65625q-0.515625 -0.28125 -1.125 -0.53125q-0.609375 -0.25 -1.125 -0.59375q-0.515625 -0.359375 -0.859375 -0.875q-0.34375 -0.515625 -0.34375 -1.328125q0 -1.125 0.78125 -1.78125q0.796875 -0.671875 2.25 -0.671875q0.84375 0 1.53125 0.125q0.6875 0.125 1.078125 0.3125l-0.34375 1.015625q-0.328125 -0.15625 -0.9375 -0.296875q-0.609375 -0.140625 -1.390625 -0.140625q-0.90625 0 -1.375 0.421875q-0.453125 0.40625 -0.453125 0.953125q0 0.546875 0.34375 0.90625q0.34375 0.359375 0.859375 0.640625q0.53125 0.28125 1.140625 0.5625q0.609375 0.265625 1.125 0.640625q0.515625 0.359375 0.859375 0.875q0.34375 0.515625 0.34375 1.265625q0 0.625 -0.21875 1.125q-0.21875 0.5 -0.65625 0.859375q-0.421875 0.359375 -1.03125 0.5625q-0.609375 0.1875 -1.375 0.1875q-1.046875 0 -1.71875 -0.171875q-0.671875 -0.15625 -1.046875 -0.34375l0.375 -1.03125q0.328125 0.171875 0.9375 0.34375q0.625 0.171875 1.40625 0.171875q0.453125 0 0.859375 -0.078125q0.40625 -0.09375 0.6875 -0.296875q0.296875 -0.203125 0.46875 -0.5q0.171875 -0.3125 0.171875 -0.734375z" fill-rule="nonzero"/><path fill="#000000" fill-opacity="0.0" d="m62.121254 190.60266l-8.409451 16.566925" fill-rule="evenodd"/><path stroke="#000000" stroke-width="1.0" stroke-linejoin="round" stroke-linecap="butt" d="m62.121254 190.60268l-5.6936684 11.216736" fill-rule="evenodd"/><path fill="#000000" stroke="#000000" stroke-width="1.0" stroke-linecap="butt" d="m54.95474 201.0718l-0.581234 4.794235l3.526928 -3.298996z" fill-rule="evenodd"/><path fill="#000000" fill-opacity="0.0" d="m38.92358 207.15747l29.606297 0l0 14.236221l-29.606297 0z" fill-rule="evenodd"/><path fill="#000000" d="m57.443558 216.0543q0 -0.5 0.28125 -0.78125q0.296875 -0.296875 0.78125 -0.296875q0.515625 0 0.8125 0.296875q0.296875 0.28125 0.296875 0.78125q0 0.484375 -0.296875 0.78125q-0.296875 0.296875 -0.8125 0.296875q-0.484375 0 -0.78125 -0.296875q-0.28125 -0.296875 -0.28125 -0.78125zm-4.734375 0q0 -0.5 0.28125 -0.78125q0.296875 -0.296875 0.78125 -0.296875q0.5 0 0.796875 0.296875q0.3125 0.28125 0.3125 0.78125q0 0.484375 -0.3125 0.78125q-0.296875 0.296875 -0.796875 0.296875q-0.484375 0 -0.78125 -0.296875q-0.28125 -0.296875 -0.28125 -0.78125zm-4.734375 0q0 -0.5 0.28125 -0.78125q0.296875 -0.296875 0.78125 -0.296875q0.5 0 0.796875 0.296875q0.296875 0.28125 0.296875 0.78125q0 0.484375 -0.296875 0.78125q-0.296875 0.296875 -0.796875 0.296875q-0.484375 0 -0.78125 -0.296875q-0.28125 -0.296875 -0.28125 -0.78125z" fill-rule="nonzero"/><path fill="#000000" fill-opacity="0.0" d="m77.578285 207.15747l29.6063 0l0 14.236221l-29.6063 0z" fill-rule="evenodd"/><path fill="#000000" d="m96.09827 216.0543q0 -0.5 0.28125 -0.78125q0.296875 -0.296875 0.78125 -0.296875q0.515625 0 0.8125 0.296875q0.296875 0.28125 0.296875 0.78125q0 0.484375 -0.296875 0.78125q-0.296875 0.296875 -0.8125 0.296875q-0.484375 0 -0.78125 -0.296875q-0.28125 -0.296875 -0.28125 -0.78125zm-4.734375 0q0 -0.5 0.28125 -0.78125q0.296875 -0.296875 0.78125 -0.296875q0.5 0 0.796875 0.296875q0.3125 0.28125 0.3125 0.78125q0 0.484375 -0.3125 0.78125q-0.296875 0.296875 -0.796875 0.296875q-0.484375 0 -0.78125 -0.296875q-0.28125 -0.296875 -0.28125 -0.78125zm-4.734375 0q0 -0.5 0.28125 -0.78125q0.296875 -0.296875 0.78125 -0.296875q0.5 0 0.796875 0.296875q0.296875 0.28125 0.296875 0.78125q0 0.484375 -0.296875 0.78125q-0.296875 0.296875 -0.796875 0.296875q-0.484375 0 -0.78125 -0.296875q-0.28125 -0.296875 -0.28125 -0.78125z" fill-rule="nonzero"/><path fill="#000000" fill-opacity="0.0" d="m83.05607 190.60266l9.322838 16.566925" fill-rule="evenodd"/><path stroke="#000000" stroke-width="1.0" stroke-linejoin="round" stroke-linecap="butt" d="m83.05607 190.60268l6.3803253 11.337997" fill-rule="evenodd"/><path fill="#000000" stroke="#000000" stroke-width="1.0" stroke-linecap="butt" d="m87.99693 202.75072l3.6650314 3.1448517l-0.7861099 -4.7649384z" fill-rule="evenodd"/><path fill="#ffffff" d="m129.7855 180.13525c0 -8.175552 6.627594 -14.803146 14.803146 -14.803146c3.9260406 0 7.691284 1.5596161 10.467407 4.335739c2.7761383 2.776123 4.3357544 6.5413666 4.3357544 10.467407c0 8.175552 -6.627594 14.803146 -14.803162 14.803146c-8.175552 0 -14.803146 -6.627594 -14.803146 -14.803146z" fill-rule="evenodd"/><path stroke="#000000" stroke-width="1.0" stroke-linejoin="round" stroke-linecap="butt" d="m129.7855 180.13525c0 -8.175552 6.627594 -14.803146 14.803146 -14.803146c3.9260406 0 7.691284 1.5596161 10.467407 4.335739c2.7761383 2.776123 4.3357544 6.5413666 4.3357544 10.467407c0 8.175552 -6.627594 14.803146 -14.803162 14.803146c-8.175552 0 -14.803146 -6.627594 -14.803146 -14.803146z" fill-rule="evenodd"/><path fill="#000000" d="m148.17325 176.26784l-3.015625 0l0 8.65625l-1.140625 0l0 -8.65625l-3.015625 0l0 -1.015625l7.171875 0l0 1.015625z" fill-rule="nonzero"/><path fill="#000000" fill-opacity="0.0" d="m134.12125 190.60266l-8.409439 16.566925" fill-rule="evenodd"/><path stroke="#000000" stroke-width="1.0" stroke-linejoin="round" stroke-linecap="butt" d="m134.12126 190.60268l-5.69368 11.216736" fill-rule="evenodd"/><path fill="#000000" stroke="#000000" stroke-width="1.0" stroke-linecap="butt" d="m126.95474 201.0718l-0.58123016 4.794235l3.5269241 -3.298996z" fill-rule="evenodd"/><path fill="#000000" fill-opacity="0.0" d="m110.92358 207.15747l29.6063 0l0 14.236221l-29.6063 0z" fill-rule="evenodd"/><path fill="#000000" d="m129.44356 216.0543q0 -0.5 0.28125 -0.78125q0.296875 -0.296875 0.78125 -0.296875q0.515625 0 0.8125 0.296875q0.296875 0.28125 0.296875 0.78125q0 0.484375 -0.296875 0.78125q-0.296875 0.296875 -0.8125 0.296875q-0.484375 0 -0.78125 -0.296875q-0.28125 -0.296875 -0.28125 -0.78125zm-4.734375 0q0 -0.5 0.28125 -0.78125q0.296875 -0.296875 0.78125 -0.296875q0.5 0 0.796875 0.296875q0.3125 0.28125 0.3125 0.78125q0 0.484375 -0.3125 0.78125q-0.296875 0.296875 -0.796875 0.296875q-0.484375 0 -0.78125 -0.296875q-0.28125 -0.296875 -0.28125 -0.78125zm-4.734375 0q0 -0.5 0.28125 -0.78125q0.296875 -0.296875 0.78125 -0.296875q0.5 0 0.796875 0.296875q0.296875 0.28125 0.296875 0.78125q0 0.484375 -0.296875 0.78125q-0.296875 0.296875 -0.796875 0.296875q-0.484375 0 -0.78125 -0.296875q-0.28125 -0.296875 -0.28125 -0.78125z" fill-rule="nonzero"/><path fill="#000000" fill-opacity="0.0" d="m149.5783 207.15747l29.606293 0l0 14.236221l-29.606293 0z" fill-rule="evenodd"/><path fill="#000000" d="m168.09827 216.0543q0 -0.5 0.28125 -0.78125q0.296875 -0.296875 0.78125 -0.296875q0.515625 0 0.8125 0.296875q0.296875 0.28125 0.296875 0.78125q0 0.484375 -0.296875 0.78125q-0.296875 0.296875 -0.8125 0.296875q-0.484375 0 -0.78125 -0.296875q-0.28125 -0.296875 -0.28125 -0.78125zm-4.734375 0q0 -0.5 0.28125 -0.78125q0.296875 -0.296875 0.78125 -0.296875q0.5 0 0.796875 0.296875q0.3125 0.28125 0.3125 0.78125q0 0.484375 -0.3125 0.78125q-0.296875 0.296875 -0.796875 0.296875q-0.484375 0 -0.78125 -0.296875q-0.28125 -0.296875 -0.28125 -0.78125zm-4.734375 0q0 -0.5 0.28125 -0.78125q0.296875 -0.296875 0.78125 -0.296875q0.5 0 0.796875 0.296875q0.296875 0.28125 0.296875 0.78125q0 0.484375 -0.296875 0.78125q-0.296875 0.296875 -0.796875 0.296875q-0.484375 0 -0.78125 -0.296875q-0.28125 -0.296875 -0.28125 -0.78125z" fill-rule="nonzero"/><path fill="#000000" fill-opacity="0.0" d="m155.05606 190.60266l9.322845 16.566925" fill-rule="evenodd"/><path stroke="#000000" stroke-width="1.0" stroke-linejoin="round" stroke-linecap="butt" d="m155.05608 190.60268l6.38031 11.337997" fill-rule="evenodd"/><path fill="#000000" stroke="#000000" stroke-width="1.0" stroke-linecap="butt" d="m159.99693 202.75072l3.6650238 3.1448517l-0.7861023 -4.7649384z" fill-rule="evenodd"/><path fill="#efefef" d="m479.293 96.19575l-5.08374 -5.083725c-11.506653 -11.50666 -30.173218 -11.517242 -41.692932 -0.023635864l0 0l-4.632782 -4.6327896l-0.007873535 13.881889l13.897644 0.007881165l-4.6328125 -4.6327972l0 0c8.962952 -8.942642 23.486542 -8.93441 32.43933 0.01839447l5.08374 5.083725z" fill-rule="evenodd"/><path stroke="#000000" stroke-width="1.0" stroke-linejoin="round" stroke-linecap="butt" d="m479.293 96.19575l-5.08374 -5.083725c-11.506653 -11.50666 -30.173218 -11.517242 -41.692932 -0.023635864l0 0l-4.632782 -4.6327896l-0.007873535 13.881889l13.897644 0.007881165l-4.6328125 -4.6327972l0 0c8.962952 -8.942642 23.486542 -8.93441 32.43933 0.01839447l5.08374 5.083725z" fill-rule="evenodd"/><path fill="#efefef" d="m438.78552 58.605656c0 -8.175552 6.627594 -14.80315 14.803131 -14.80315c3.926056 0 7.691284 1.5596123 10.467407 4.335743c2.776123 2.7761269 4.3357544 6.5413666 4.3357544 10.467407c0 8.175556 -6.627594 14.80315 -14.803162 14.80315c-8.175537 0 -14.803131 -6.627594 -14.803131 -14.80315z" fill-rule="evenodd"/><path stroke="#000000" stroke-width="1.0" stroke-linejoin="round" stroke-linecap="butt" d="m438.78552 58.605656c0 -8.175552 6.627594 -14.80315 14.803131 -14.80315c3.926056 0 7.691284 1.5596123 10.467407 4.335743c2.776123 2.7761269 4.3357544 6.5413666 4.3357544 10.467407c0 8.175556 -6.627594 14.80315 -14.803162 14.80315c-8.175537 0 -14.803131 -6.627594 -14.803131 -14.80315z" fill-rule="evenodd"/><path fill="#000000" d="m452.89392 58.47261l-2.9375 -4.75l1.375 0l1.96875 3.265625l0.34375 0.796875l0.328125 -0.796875l2.078125 -3.265625l1.265625 0l-3.03125 4.65625l3.171875 5.015625l-1.34375 0l-2.171875 -3.46875l-0.375 -0.828125l-0.359375 0.828125l-2.25 3.46875l-1.28125 0l3.21875 -4.921875z" fill-rule="nonzero"/><path fill="#efefef" d="m499.78552 100.135254c0 -8.175552 6.627594 -14.803146 14.803162 -14.803146c3.9260254 0 7.691284 1.5596085 10.467407 4.335739c2.776123 2.7761307 4.3356934 6.5413666 4.3356934 10.467407c0 8.175552 -6.6275635 14.803154 -14.803101 14.803154c-8.175568 0 -14.803162 -6.6276016 -14.803162 -14.803154z" fill-rule="evenodd"/><path stroke="#000000" stroke-width="1.0" stroke-linejoin="round" stroke-linecap="butt" d="m499.78552 100.135254c0 -8.175552 6.627594 -14.803146 14.803162 -14.803146c3.9260254 0 7.691284 1.5596085 10.467407 4.335739c2.776123 2.7761307 4.3356934 6.5413666 4.3356934 10.467407c0 8.175552 -6.6275635 14.803154 -14.803101 14.803154c-8.175568 0 -14.803162 -6.6276016 -14.803162 -14.803154z" fill-rule="evenodd"/><path fill="#000000" d="m511.35178 103.89284l4.8749695 -7.078125l0.578125 -0.546875l-5.4530945 0l0 -1.015625l6.4999695 0l0 1.03125l-4.921875 7.109375l-0.578125 0.515625l5.5 0l0 1.015625l-6.4999695 0l0 -1.03125z" fill-rule="nonzero"/><path fill="#000000" fill-opacity="0.0" d="m464.05606 69.07306l50.519684 16.251968" fill-rule="evenodd"/><path stroke="#000000" stroke-width="1.0" stroke-linejoin="round" stroke-linecap="butt" d="m464.05606 69.07306l44.807953 14.414528" fill-rule="evenodd"/><path fill="#000000" stroke="#000000" stroke-width="1.0" stroke-linecap="butt" d="m508.3582 85.05997l4.825897 -0.18263245l-3.8142395 -2.96212z" fill-rule="evenodd"/><path fill="#efefef" d="m545.7855 140.13525c0 -8.175552 6.6275635 -14.803146 14.803162 -14.803146c3.9260254 0 7.691284 1.5596085 10.467407 4.335739c2.776123 2.776123 4.3356934 6.5413666 4.3356934 10.467407c0 8.175552 -6.6275635 14.803146 -14.803101 14.803146c-8.175598 0 -14.803162 -6.627594 -14.803162 -14.803146z" fill-rule="evenodd"/><path stroke="#000000" stroke-width="1.0" stroke-linejoin="round" stroke-linecap="butt" d="m545.7855 140.13525c0 -8.175552 6.6275635 -14.803146 14.803162 -14.803146c3.9260254 0 7.691284 1.5596085 10.467407 4.335739c2.776123 2.776123 4.3356934 6.5413666 4.3356934 10.467407c0 8.175552 -6.6275635 14.803146 -14.803101 14.803146c-8.175598 0 -14.803162 -6.627594 -14.803162 -14.803146z" fill-rule="evenodd"/><path fill="#000000" d="m560.04315 141.08034l-3.203125 -5.828125l1.34375 0l2.265625 4.21875l0.234375 0.84375l0.015625 0l0.25 -0.859375l2.171875 -4.203125l1.234375 0l-3.171875 5.8125l0 3.859375l-1.140625 0l0 -3.84375z" fill-rule="nonzero"/><path fill="#000000" fill-opacity="0.0" d="m525.0561 110.60266l35.527527 14.740158" fill-rule="evenodd"/><path stroke="#000000" stroke-width="1.0" stroke-linejoin="round" stroke-linecap="butt" d="m525.0561 110.60266l29.985596 12.440842" fill-rule="evenodd"/><path fill="#000000" stroke="#000000" stroke-width="1.0" stroke-linecap="butt" d="m554.4087 124.56914l4.824646 0.21344757l-3.5586548 -3.264717z" fill-rule="evenodd"/><path fill="#000000" fill-opacity="0.0" d="m382.12125 110.60266l-8.409454 16.566933" fill-rule="evenodd"/><path stroke="#000000" stroke-width="1.0" stroke-linejoin="round" stroke-linecap="butt" d="m382.12128 110.60266l-5.6936646 11.216736" fill-rule="evenodd"/><path fill="#000000" stroke="#000000" stroke-width="1.0" stroke-linecap="butt" d="m374.95474 121.07178l-0.5812073 4.794235l3.5269165 -3.2989883z" fill-rule="evenodd"/><path fill="#000000" fill-opacity="0.0" d="m358.92358 127.15746l29.606293 0l0 14.236229l-29.606293 0z" fill-rule="evenodd"/><path fill="#000000" d="m377.44354 136.0543q0 -0.5 0.28125 -0.78125q0.296875 -0.296875 0.78125 -0.296875q0.515625 0 0.8125 0.296875q0.296875 0.28125 0.296875 0.78125q0 0.484375 -0.296875 0.78125q-0.296875 0.296875 -0.8125 0.296875q-0.484375 0 -0.78125 -0.296875q-0.28125 -0.296875 -0.28125 -0.78125zm-4.734375 0q0 -0.5 0.28125 -0.78125q0.296875 -0.296875 0.78125 -0.296875q0.5 0 0.796875 0.296875q0.3125 0.28125 0.3125 0.78125q0 0.484375 -0.3125 0.78125q-0.296875 0.296875 -0.796875 0.296875q-0.484375 0 -0.78125 -0.296875q-0.28125 -0.296875 -0.28125 -0.78125zm-4.734375 0q0 -0.5 0.28125 -0.78125q0.296875 -0.296875 0.78125 -0.296875q0.5 0 0.796875 0.296875q0.296875 0.28125 0.296875 0.78125q0 0.484375 -0.296875 0.78125q-0.296875 0.296875 -0.796875 0.296875q-0.484375 0 -0.78125 -0.296875q-0.28125 -0.296875 -0.28125 -0.78125z" fill-rule="nonzero"/><path fill="#000000" fill-opacity="0.0" d="m453.58865 22.28973l0 21.51181" fill-rule="evenodd"/><path stroke="#000000" stroke-width="1.0" stroke-linejoin="round" stroke-linecap="butt" d="m453.58865 22.289732l0 15.511808" fill-rule="evenodd"/><path fill="#000000" stroke="#000000" stroke-width="1.0" stroke-linecap="butt" d="m451.93692 37.80154l1.6517334 4.5380974l1.6517334 -4.5380974z" fill-rule="evenodd"/><path fill="#ffffff" d="m377.78552 100.135254c0 -8.175552 6.627594 -14.803146 14.803131 -14.803146c3.926056 0 7.691284 1.5596085 10.467407 4.335739c2.776123 2.7761307 4.3357544 6.5413666 4.3357544 10.467407c0 8.175552 -6.627594 14.803154 -14.803162 14.803154c-8.175537 0 -14.803131 -6.6276016 -14.803131 -14.803154z" fill-rule="evenodd"/><path stroke="#000000" stroke-width="1.0" stroke-linejoin="round" stroke-linecap="butt" d="m377.78552 100.135254c0 -8.175552 6.627594 -14.803146 14.803131 -14.803146c3.926056 0 7.691284 1.5596085 10.467407 4.335739c2.776123 2.7761307 4.3357544 6.5413666 4.3357544 10.467407c0 8.175552 -6.627594 14.803154 -14.803162 14.803154c-8.175537 0 -14.803131 -6.6276016 -14.803131 -14.803154z" fill-rule="evenodd"/><path fill="#000000" d="m394.8151 95.25221l1.109375 0l0 6.453125q0 0.875 -0.234375 1.515625q-0.21875 0.625 -0.640625 1.03125q-0.421875 0.40625 -1.03125 0.609375q-0.59375 0.1875 -1.3125 0.1875q-1.703125 0 -2.578125 -0.765625q-0.875 -0.78125 -0.875 -2.359375l0 -6.671875l1.15625 0l0 6.125q0 0.734375 0.140625 1.25q0.140625 0.5 0.421875 0.8125q0.296875 0.3125 0.734375 0.453125q0.4375 0.125 1.015625 0.125q1.125 0 1.609375 -0.609375q0.484375 -0.609375 0.484375 -2.03125l0 -6.125z" fill-rule="nonzero"/><path fill="#000000" fill-opacity="0.0" d="m397.57828 127.15746l29.606323 0l0 14.236229l-29.606323 0z" fill-rule="evenodd"/><path fill="#000000" d="m416.09827 136.0543q0 -0.5 0.28125 -0.78125q0.296875 -0.296875 0.78125 -0.296875q0.515625 0 0.8125 0.296875q0.296875 0.28125 0.296875 0.78125q0 0.484375 -0.296875 0.78125q-0.296875 0.296875 -0.8125 0.296875q-0.484375 0 -0.78125 -0.296875q-0.28125 -0.296875 -0.28125 -0.78125zm-4.734375 0q0 -0.5 0.28125 -0.78125q0.296875 -0.296875 0.78125 -0.296875q0.5 0 0.796875 0.296875q0.3125 0.28125 0.3125 0.78125q0 0.484375 -0.3125 0.78125q-0.296875 0.296875 -0.796875 0.296875q-0.484375 0 -0.78125 -0.296875q-0.28125 -0.296875 -0.28125 -0.78125zm-4.734375 0q0 -0.5 0.28125 -0.78125q0.296875 -0.296875 0.78125 -0.296875q0.5 0 0.796875 0.296875q0.296875 0.28125 0.296875 0.78125q0 0.484375 -0.296875 0.78125q-0.296875 0.296875 -0.796875 0.296875q-0.484375 0 -0.78125 -0.296875q-0.28125 -0.296875 -0.28125 -0.78125z" fill-rule="nonzero"/><path fill="#000000" fill-opacity="0.0" d="m403.05606 110.60266l9.322845 16.566933" fill-rule="evenodd"/><path stroke="#000000" stroke-width="1.0" stroke-linejoin="round" stroke-linecap="butt" d="m403.05606 110.60266l6.3803406 11.338005" fill-rule="evenodd"/><path fill="#000000" stroke="#000000" stroke-width="1.0" stroke-linecap="butt" d="m407.99692 122.75071l3.665039 3.1448517l-0.7861023 -4.7649384z" fill-rule="evenodd"/><path fill="#000000" fill-opacity="0.0" d="m571.0561 150.60266l21.543274 14.740158" fill-rule="evenodd"/><path stroke="#000000" stroke-width="1.0" stroke-linejoin="round" stroke-linecap="butt" d="m571.0561 150.60266l16.59143 11.352051" fill-rule="evenodd"/><path fill="#000000" stroke="#000000" stroke-width="1.0" stroke-linecap="butt" d="m586.71484 163.3179l4.6779785 1.1994019l-2.812561 -3.9257812z" fill-rule="evenodd"/><path fill="#000000" fill-opacity="0.0" d="m504.12125 110.60266l-33.07086 19.055115" fill-rule="evenodd"/><path stroke="#000000" stroke-width="1.0" stroke-linejoin="round" stroke-linecap="butt" d="m504.12128 110.60266l-27.8721 16.059639" fill-rule="evenodd"/><path fill="#000000" stroke="#000000" stroke-width="1.0" stroke-linecap="butt" d="m475.42453 125.23114l-3.1074524 3.6967926l4.756714 -0.83447266z" fill-rule="evenodd"/><path fill="#000000" fill-opacity="0.0" d="m550.1213 150.60266l-21.543335 14.740158" fill-rule="evenodd"/><path stroke="#000000" stroke-width="1.0" stroke-linejoin="round" stroke-linecap="butt" d="m550.1213 150.60266l-16.591492 11.352051" fill-rule="evenodd"/><path fill="#000000" stroke="#000000" stroke-width="1.0" stroke-linecap="butt" d="m532.5971 160.59152l-2.812622 3.9257812l4.6780396 -1.1994019z" fill-rule="evenodd"/><path fill="#000000" fill-opacity="0.0" d="m443.12125 69.07306l-50.519684 16.251968" fill-rule="evenodd"/><path stroke="#000000" stroke-width="1.0" stroke-linejoin="round" stroke-linecap="butt" d="m443.12128 69.07306l-44.807953 14.414528" fill-rule="evenodd"/><path fill="#000000" stroke="#000000" stroke-width="1.0" stroke-linecap="butt" d="m397.8075 81.915215l-3.8142395 2.96212l4.8258667 0.18263245z" fill-rule="evenodd"/><path fill="#ffffff" d="m441.78552 140.13525c0 -8.175552 6.627594 -14.803146 14.803131 -14.803146c3.926056 0 7.691284 1.5596085 10.467407 4.335739c2.776123 2.776123 4.3357544 6.5413666 4.3357544 10.467407c0 8.175552 -6.627594 14.803146 -14.803162 14.803146c-8.175537 0 -14.803131 -6.627594 -14.803131 -14.803146z" fill-rule="evenodd"/><path stroke="#000000" stroke-width="1.0" stroke-linejoin="round" stroke-linecap="butt" d="m441.78552 140.13525c0 -8.175552 6.627594 -14.803146 14.803131 -14.803146c3.926056 0 7.691284 1.5596085 10.467407 4.335739c2.776123 2.776123 4.3357544 6.5413666 4.3357544 10.467407c0 8.175552 -6.627594 14.803146 -14.803162 14.803146c-8.175537 0 -14.803131 -6.627594 -14.803131 -14.803146z" fill-rule="evenodd"/><path fill="#000000" d="m458.4642 142.45534q0 -0.578125 -0.34375 -0.9375q-0.34375 -0.375 -0.875 -0.65625q-0.515625 -0.28125 -1.125 -0.53125q-0.609375 -0.25 -1.125 -0.59375q-0.515625 -0.359375 -0.859375 -0.875q-0.34375 -0.515625 -0.34375 -1.328125q0 -1.125 0.78125 -1.78125q0.796875 -0.671875 2.25 -0.671875q0.84375 0 1.53125 0.125q0.6875 0.125 1.078125 0.3125l-0.34375 1.015625q-0.328125 -0.15625 -0.9375 -0.296875q-0.609375 -0.140625 -1.390625 -0.140625q-0.90625 0 -1.375 0.421875q-0.453125 0.40625 -0.453125 0.953125q0 0.546875 0.34375 0.90625q0.34375 0.359375 0.859375 0.640625q0.53125 0.28125 1.140625 0.5625q0.609375 0.265625 1.125 0.640625q0.515625 0.359375 0.859375 0.875q0.34375 0.515625 0.34375 1.265625q0 0.625 -0.21875 1.125q-0.21875 0.5 -0.65625 0.859375q-0.421875 0.359375 -1.03125 0.5625q-0.609375 0.1875 -1.375 0.1875q-1.046875 0 -1.71875 -0.171875q-0.671875 -0.15625 -1.046875 -0.34375l0.375 -1.03125q0.328125 0.171875 0.9375 0.34375q0.625 0.171875 1.40625 0.171875q0.453125 0 0.859375 -0.078125q0.40625 -0.09375 0.6875 -0.296875q0.296875 -0.203125 0.46875 -0.5q0.171875 -0.3125 0.171875 -0.734375z" fill-rule="nonzero"/><path fill="#000000" fill-opacity="0.0" d="m446.12125 150.60266l-8.409454 16.566925" fill-rule="evenodd"/><path stroke="#000000" stroke-width="1.0" stroke-linejoin="round" stroke-linecap="butt" d="m446.12128 150.60266l-5.6936646 11.216736" fill-rule="evenodd"/><path fill="#000000" stroke="#000000" stroke-width="1.0" stroke-linecap="butt" d="m438.95474 161.07178l-0.5812073 4.794235l3.5269165 -3.298996z" fill-rule="evenodd"/><path fill="#000000" fill-opacity="0.0" d="m422.92358 167.15747l29.606293 0l0 14.236221l-29.606293 0z" fill-rule="evenodd"/><path fill="#000000" d="m441.44354 176.0543q0 -0.5 0.28125 -0.78125q0.296875 -0.296875 0.78125 -0.296875q0.515625 0 0.8125 0.296875q0.296875 0.28125 0.296875 0.78125q0 0.484375 -0.296875 0.78125q-0.296875 0.296875 -0.8125 0.296875q-0.484375 0 -0.78125 -0.296875q-0.28125 -0.296875 -0.28125 -0.78125zm-4.734375 0q0 -0.5 0.28125 -0.78125q0.296875 -0.296875 0.78125 -0.296875q0.5 0 0.796875 0.296875q0.3125 0.28125 0.3125 0.78125q0 0.484375 -0.3125 0.78125q-0.296875 0.296875 -0.796875 0.296875q-0.484375 0 -0.78125 -0.296875q-0.28125 -0.296875 -0.28125 -0.78125zm-4.734375 0q0 -0.5 0.28125 -0.78125q0.296875 -0.296875 0.78125 -0.296875q0.5 0 0.796875 0.296875q0.296875 0.28125 0.296875 0.78125q0 0.484375 -0.296875 0.78125q-0.296875 0.296875 -0.796875 0.296875q-0.484375 0 -0.78125 -0.296875q-0.28125 -0.296875 -0.28125 -0.78125z" fill-rule="nonzero"/><path fill="#000000" fill-opacity="0.0" d="m461.57828 167.15747l29.606323 0l0 14.236221l-29.606323 0z" fill-rule="evenodd"/><path fill="#000000" d="m480.09827 176.0543q0 -0.5 0.28125 -0.78125q0.296875 -0.296875 0.78125 -0.296875q0.515625 0 0.8125 0.296875q0.296875 0.28125 0.296875 0.78125q0 0.484375 -0.296875 0.78125q-0.296875 0.296875 -0.8125 0.296875q-0.484375 0 -0.78125 -0.296875q-0.28125 -0.296875 -0.28125 -0.78125zm-4.734375 0q0 -0.5 0.28125 -0.78125q0.296875 -0.296875 0.78125 -0.296875q0.5 0 0.796875 0.296875q0.3125 0.28125 0.3125 0.78125q0 0.484375 -0.3125 0.78125q-0.296875 0.296875 -0.796875 0.296875q-0.484375 0 -0.78125 -0.296875q-0.28125 -0.296875 -0.28125 -0.78125zm-4.734375 0q0 -0.5 0.28125 -0.78125q0.296875 -0.296875 0.78125 -0.296875q0.5 0 0.796875 0.296875q0.296875 0.28125 0.296875 0.78125q0 0.484375 -0.296875 0.78125q-0.296875 0.296875 -0.796875 0.296875q-0.484375 0 -0.78125 -0.296875q-0.28125 -0.296875 -0.28125 -0.78125z" fill-rule="nonzero"/><path fill="#000000" fill-opacity="0.0" d="m467.05606 150.60266l9.322845 16.566925" fill-rule="evenodd"/><path stroke="#000000" stroke-width="1.0" stroke-linejoin="round" stroke-linecap="butt" d="m467.05606 150.60266l6.3803406 11.338013" fill-rule="evenodd"/><path fill="#000000" stroke="#000000" stroke-width="1.0" stroke-linecap="butt" d="m471.99692 162.7507l3.665039 3.1448517l-0.7861023 -4.764923z" fill-rule="evenodd"/><path fill="#ffffff" d="m513.7855 180.13525c0 -8.175552 6.6275635 -14.803146 14.803162 -14.803146c3.9260254 0 7.691284 1.5596161 10.467407 4.335739c2.776123 2.776123 4.3356934 6.5413666 4.3356934 10.467407c0 8.175552 -6.6275635 14.803146 -14.803101 14.803146c-8.175598 0 -14.803162 -6.627594 -14.803162 -14.803146z" fill-rule="evenodd"/><path stroke="#000000" stroke-width="1.0" stroke-linejoin="round" stroke-linecap="butt" d="m513.7855 180.13525c0 -8.175552 6.6275635 -14.803146 14.803162 -14.803146c3.9260254 0 7.691284 1.5596161 10.467407 4.335739c2.776123 2.776123 4.3356934 6.5413666 4.3356934 10.467407c0 8.175552 -6.6275635 14.803146 -14.803101 14.803146c-8.175598 0 -14.803162 -6.627594 -14.803162 -14.803146z" fill-rule="evenodd"/><path fill="#000000" d="m532.1733 176.26784l-3.015625 0l0 8.65625l-1.140625 0l0 -8.65625l-3.015625 0l0 -1.015625l7.171875 0l0 1.015625z" fill-rule="nonzero"/><path fill="#000000" fill-opacity="0.0" d="m518.1213 190.60266l-8.409485 16.566925" fill-rule="evenodd"/><path stroke="#000000" stroke-width="1.0" stroke-linejoin="round" stroke-linecap="butt" d="m518.1213 190.60268l-5.6936646 11.216736" fill-rule="evenodd"/><path fill="#000000" stroke="#000000" stroke-width="1.0" stroke-linecap="butt" d="m510.95474 201.0718l-0.5812073 4.794235l3.5269165 -3.298996z" fill-rule="evenodd"/><path fill="#000000" fill-opacity="0.0" d="m494.92358 207.15747l29.606323 0l0 14.236221l-29.606323 0z" fill-rule="evenodd"/><path fill="#000000" d="m513.44354 216.0543q0 -0.5 0.28125 -0.78125q0.296875 -0.296875 0.78125 -0.296875q0.515625 0 0.8125 0.296875q0.296875 0.28125 0.296875 0.78125q0 0.484375 -0.296875 0.78125q-0.296875 0.296875 -0.8125 0.296875q-0.484375 0 -0.78125 -0.296875q-0.28125 -0.296875 -0.28125 -0.78125zm-4.734375 0q0 -0.5 0.28125 -0.78125q0.296875 -0.296875 0.78125 -0.296875q0.5 0 0.796875 0.296875q0.3125 0.28125 0.3125 0.78125q0 0.484375 -0.3125 0.78125q-0.296875 0.296875 -0.796875 0.296875q-0.484375 0 -0.78125 -0.296875q-0.28125 -0.296875 -0.28125 -0.78125zm-4.734375 0q0 -0.5 0.28125 -0.78125q0.296875 -0.296875 0.78125 -0.296875q0.5 0 0.796875 0.296875q0.296875 0.28125 0.296875 0.78125q0 0.484375 -0.296875 0.78125q-0.296875 0.296875 -0.796875 0.296875q-0.484375 0 -0.78125 -0.296875q-0.28125 -0.296875 -0.28125 -0.78125z" fill-rule="nonzero"/><path fill="#000000" fill-opacity="0.0" d="m533.5783 207.15747l29.606262 0l0 14.236221l-29.606262 0z" fill-rule="evenodd"/><path fill="#000000" d="m552.09827 216.0543q0 -0.5 0.28125 -0.78125q0.296875 -0.296875 0.78125 -0.296875q0.515625 0 0.8125 0.296875q0.296875 0.28125 0.296875 0.78125q0 0.484375 -0.296875 0.78125q-0.296875 0.296875 -0.8125 0.296875q-0.484375 0 -0.78125 -0.296875q-0.28125 -0.296875 -0.28125 -0.78125zm-4.734375 0q0 -0.5 0.28125 -0.78125q0.296875 -0.296875 0.78125 -0.296875q0.5 0 0.796875 0.296875q0.3125 0.28125 0.3125 0.78125q0 0.484375 -0.3125 0.78125q-0.296875 0.296875 -0.796875 0.296875q-0.484375 0 -0.78125 -0.296875q-0.28125 -0.296875 -0.28125 -0.78125zm-4.734375 0q0 -0.5 0.28125 -0.78125q0.296875 -0.296875 0.78125 -0.296875q0.5 0 0.796875 0.296875q0.296875 0.28125 0.296875 0.78125q0 0.484375 -0.296875 0.78125q-0.296875 0.296875 -0.796875 0.296875q-0.484375 0 -0.78125 -0.296875q-0.28125 -0.296875 -0.28125 -0.78125z" fill-rule="nonzero"/><path fill="#000000" fill-opacity="0.0" d="m539.0561 190.60266l9.322815 16.566925" fill-rule="evenodd"/><path stroke="#000000" stroke-width="1.0" stroke-linejoin="round" stroke-linecap="butt" d="m539.0561 190.60268l6.38031 11.337997" fill-rule="evenodd"/><path fill="#000000" stroke="#000000" stroke-width="1.0" stroke-linecap="butt" d="m543.99695 202.75072l3.664978 3.1448517l-0.7860718 -4.7649384z" fill-rule="evenodd"/><path fill="#ffffff" d="m577.7855 180.13525c0 -8.175552 6.6275635 -14.803146 14.803162 -14.803146c3.9260254 0 7.691284 1.5596161 10.467407 4.335739c2.776123 2.776123 4.3356934 6.5413666 4.3356934 10.467407c0 8.175552 -6.6275635 14.803146 -14.803101 14.803146c-8.175598 0 -14.803162 -6.627594 -14.803162 -14.803146z" fill-rule="evenodd"/><path stroke="#000000" stroke-width="1.0" stroke-linejoin="round" stroke-linecap="butt" d="m577.7855 180.13525c0 -8.175552 6.6275635 -14.803146 14.803162 -14.803146c3.9260254 0 7.691284 1.5596161 10.467407 4.335739c2.776123 2.776123 4.3356934 6.5413666 4.3356934 10.467407c0 8.175552 -6.6275635 14.803146 -14.803101 14.803146c-8.175598 0 -14.803162 -6.627594 -14.803162 -14.803146z" fill-rule="evenodd"/><path fill="#000000" d="m589.92633 181.73659l0.234375 1.59375l0.015625 0l0.234375 -1.625l1.984375 -6.453125l0.546875 0l2.015625 6.484375l0.234375 1.59375l0.015625 0l0.25 -1.625l1.625 -6.453125l1.125 0l-2.703125 9.828125l-0.640625 0l-1.953125 -6.484375l-0.25 -1.46875l-0.078125 0l-0.25 1.484375l-1.953125 6.46875l-0.640625 0l-2.765625 -9.828125l1.21875 0l1.734375 6.484375z" fill-rule="nonzero"/><path fill="#000000" fill-opacity="0.0" d="m582.1213 190.60266l-8.409485 16.566925" fill-rule="evenodd"/><path stroke="#000000" stroke-width="1.0" stroke-linejoin="round" stroke-linecap="butt" d="m582.1213 190.60268l-5.6936646 11.216736" fill-rule="evenodd"/><path fill="#000000" stroke="#000000" stroke-width="1.0" stroke-linecap="butt" d="m574.9548 201.0718l-0.5812378 4.794235l3.5269165 -3.298996z" fill-rule="evenodd"/><path fill="#000000" fill-opacity="0.0" d="m558.9236 207.15747l29.606323 0l0 14.236221l-29.606323 0z" fill-rule="evenodd"/><path fill="#000000" d="m577.44354 216.0543q0 -0.5 0.28125 -0.78125q0.296875 -0.296875 0.78125 -0.296875q0.515625 0 0.8125 0.296875q0.296875 0.28125 0.296875 0.78125q0 0.484375 -0.296875 0.78125q-0.296875 0.296875 -0.8125 0.296875q-0.484375 0 -0.78125 -0.296875q-0.28125 -0.296875 -0.28125 -0.78125zm-4.734375 0q0 -0.5 0.28125 -0.78125q0.296875 -0.296875 0.78125 -0.296875q0.5 0 0.796875 0.296875q0.3125 0.28125 0.3125 0.78125q0 0.484375 -0.3125 0.78125q-0.296875 0.296875 -0.796875 0.296875q-0.484375 0 -0.78125 -0.296875q-0.28125 -0.296875 -0.28125 -0.78125zm-4.734375 0q0 -0.5 0.28125 -0.78125q0.296875 -0.296875 0.78125 -0.296875q0.5 0 0.796875 0.296875q0.296875 0.28125 0.296875 0.78125q0 0.484375 -0.296875 0.78125q-0.296875 0.296875 -0.796875 0.296875q-0.484375 0 -0.78125 -0.296875q-0.28125 -0.296875 -0.28125 -0.78125z" fill-rule="nonzero"/><path fill="#000000" fill-opacity="0.0" d="m597.5783 207.15747l29.606262 0l0 14.236221l-29.606262 0z" fill-rule="evenodd"/><path fill="#000000" d="m616.09827 216.0543q0 -0.5 0.28125 -0.78125q0.296875 -0.296875 0.78125 -0.296875q0.515625 0 0.8125 0.296875q0.296875 0.28125 0.296875 0.78125q0 0.484375 -0.296875 0.78125q-0.296875 0.296875 -0.8125 0.296875q-0.484375 0 -0.78125 -0.296875q-0.28125 -0.296875 -0.28125 -0.78125zm-4.734375 0q0 -0.5 0.28125 -0.78125q0.296875 -0.296875 0.78125 -0.296875q0.5 0 0.796875 0.296875q0.3125 0.28125 0.3125 0.78125q0 0.484375 -0.3125 0.78125q-0.296875 0.296875 -0.796875 0.296875q-0.484375 0 -0.78125 -0.296875q-0.28125 -0.296875 -0.28125 -0.78125zm-4.734375 0q0 -0.5 0.28125 -0.78125q0.296875 -0.296875 0.78125 -0.296875q0.5 0 0.796875 0.296875q0.296875 0.28125 0.296875 0.78125q0 0.484375 -0.296875 0.78125q-0.296875 0.296875 -0.796875 0.296875q-0.484375 0 -0.78125 -0.296875q-0.28125 -0.296875 -0.28125 -0.78125z" fill-rule="nonzero"/><path fill="#000000" fill-opacity="0.0" d="m603.0561 190.60266l9.322815 16.566925" fill-rule="evenodd"/><path stroke="#000000" stroke-width="1.0" stroke-linejoin="round" stroke-linecap="butt" d="m603.0561 190.60268l6.38031 11.337997" fill-rule="evenodd"/><path fill="#000000" stroke="#000000" stroke-width="1.0" stroke-linecap="butt" d="m607.99695 202.75072l3.664978 3.1448517l-0.7860718 -4.7649384z" fill-rule="evenodd"/><path fill="#000000" fill-opacity="0.0" d="m86.81701 8.053511l21.543304 0l0 14.236219l-21.543304 0z" fill-rule="evenodd"/><path fill="#000000" d="m101.30549 16.950356q0 -0.5 0.28125 -0.78125q0.296875 -0.29687405 0.78125 -0.29687405q0.515625 0 0.8125 0.29687405q0.296875 0.28125 0.296875 0.78125q0 0.484375 -0.296875 0.78125q-0.296875 0.296875 -0.8125 0.296875q-0.484375 0 -0.78125 -0.296875q-0.28125 -0.296875 -0.28125 -0.78125zm-4.734375 0q0 -0.5 0.28125 -0.78125q0.296875 -0.29687405 0.78125 -0.29687405q0.5 0 0.796875 0.29687405q0.3125 0.28125 0.3125 0.78125q0 0.484375 -0.3125 0.78125q-0.296875 0.296875 -0.796875 0.296875q-0.484375 0 -0.78125 -0.296875q-0.28125 -0.296875 -0.28125 -0.78125zm-4.734375 0q0 -0.5 0.28125 -0.78125q0.296875 -0.29687405 0.78125 -0.29687405q0.5 0 0.796875 0.29687405q0.296875 0.28125 0.296875 0.78125q0 0.484375 -0.296875 0.78125q-0.296875 0.296875 -0.796875 0.296875q-0.484375 0 -0.78125 -0.296875q-0.28125 -0.296875 -0.28125 -0.78125z" fill-rule="nonzero"/><path fill="#000000" fill-opacity="0.0" d="m863.6674 8.053511l19.84253 0l0 14.236219l-19.84253 0z" fill-rule="evenodd"/><path fill="#000000" d="m877.3055 16.950356q0 -0.5 0.28125 -0.78125q0.296875 -0.29687405 0.78125 -0.29687405q0.515625 0 0.8125 0.29687405q0.296875 0.28125 0.296875 0.78125q0 0.484375 -0.296875 0.78125q-0.296875 0.296875 -0.8125 0.296875q-0.484375 0 -0.78125 -0.296875q-0.28125 -0.296875 -0.28125 -0.78125zm-4.734375 0q0 -0.5 0.28125 -0.78125q0.296875 -0.29687405 0.78125 -0.29687405q0.5 0 0.796875 0.29687405q0.3125 0.28125 0.3125 0.78125q0 0.484375 -0.3125 0.78125q-0.296875 0.296875 -0.796875 0.296875q-0.484375 0 -0.78125 -0.296875q-0.28125 -0.296875 -0.28125 -0.78125zm-4.734375 0q0 -0.5 0.28125 -0.78125q0.296875 -0.29687405 0.78125 -0.29687405q0.5 0 0.796875 0.29687405q0.296875 0.28125 0.296875 0.78125q0 0.484375 -0.296875 0.78125q-0.296875 0.296875 -0.796875 0.296875q-0.484375 0 -0.78125 -0.296875q-0.28125 -0.296875 -0.28125 -0.78125z" fill-rule="nonzero"/><path fill="#efefef" d="m858.7855 58.605656c0 -8.175552 6.6275635 -14.80315 14.803162 -14.80315c3.9260254 0 7.691284 1.5596123 10.467407 4.335743c2.776123 2.7761269 4.3356934 6.5413666 4.3356934 10.467407c0 8.175556 -6.6275635 14.80315 -14.803101 14.80315c-8.175598 0 -14.803162 -6.627594 -14.803162 -14.80315z" fill-rule="evenodd"/><path stroke="#000000" stroke-width="1.0" stroke-linejoin="round" stroke-linecap="butt" d="m858.7855 58.605656c0 -8.175552 6.6275635 -14.80315 14.803162 -14.80315c3.9260254 0 7.691284 1.5596123 10.467407 4.335743c2.776123 2.7761269 4.3356934 6.5413666 4.3356934 10.467407c0 8.175556 -6.6275635 14.80315 -14.803101 14.80315c-8.175598 0 -14.803162 -6.627594 -14.803162 -14.80315z" fill-rule="evenodd"/><path fill="#000000" d="m870.35175 62.363235l4.875 -7.078125l0.578125 -0.546875l-5.453125 0l0 -1.015625l6.5 0l0 1.03125l-4.921875 7.109375l-0.578125 0.515625l5.5 0l0 1.015625l-6.5 0l0 -1.03125z" fill-rule="nonzero"/><path fill="#efefef" d="m931.7855 100.135254c0 -8.175552 6.6275635 -14.803146 14.803162 -14.803146c3.9260254 0 7.691284 1.5596085 10.467407 4.335739c2.776123 2.7761307 4.3356934 6.5413666 4.3356934 10.467407c0 8.175552 -6.6275635 14.803154 -14.803101 14.803154c-8.175598 0 -14.803162 -6.6276016 -14.803162 -14.803154z" fill-rule="evenodd"/><path stroke="#000000" stroke-width="1.0" stroke-linejoin="round" stroke-linecap="butt" d="m931.7855 100.135254c0 -8.175552 6.6275635 -14.803146 14.803162 -14.803146c3.9260254 0 7.691284 1.5596085 10.467407 4.335739c2.776123 2.7761307 4.3356934 6.5413666 4.3356934 10.467407c0 8.175552 -6.6275635 14.803154 -14.803101 14.803154c-8.175598 0 -14.803162 -6.6276016 -14.803162 -14.803154z" fill-rule="evenodd"/><path fill="#000000" d="m946.04315 101.08034l-3.203125 -5.828125l1.34375 0l2.265625 4.21875l0.234375 0.84375l0.015625 0l0.25 -0.859375l2.171875 -4.203125l1.234375 0l-3.171875 5.8125l0 3.859375l-1.140625 0l0 -3.84375z" fill-rule="nonzero"/><path fill="#000000" fill-opacity="0.0" d="m884.0561 69.07306l62.519653 16.251968" fill-rule="evenodd"/><path stroke="#000000" stroke-width="1.0" stroke-linejoin="round" stroke-linecap="butt" d="m884.0561 69.07306l56.712708 14.742439" fill-rule="evenodd"/><path fill="#000000" stroke="#000000" stroke-width="1.0" stroke-linecap="butt" d="m940.3532 85.4141l4.807678 -0.45687103l-3.9765625 -2.7403336z" fill-rule="evenodd"/><path fill="#000000" fill-opacity="0.0" d="m790.1213 110.60266l-21.543335 14.740158" fill-rule="evenodd"/><path stroke="#000000" stroke-width="1.0" stroke-linejoin="round" stroke-linecap="butt" d="m790.1212 110.60266l-16.59143 11.352051" fill-rule="evenodd"/><path fill="#000000" stroke="#000000" stroke-width="1.0" stroke-linecap="butt" d="m772.59705 120.59153l-2.812622 3.9257736l4.6780396 -1.1994019z" fill-rule="evenodd"/><path fill="#000000" fill-opacity="0.0" d="m873.5887 22.28973l0 21.51181" fill-rule="evenodd"/><path stroke="#000000" stroke-width="1.0" stroke-linejoin="round" stroke-linecap="butt" d="m873.5887 22.289732l0 15.511808" fill-rule="evenodd"/><path fill="#000000" stroke="#000000" stroke-width="1.0" stroke-linecap="butt" d="m871.93695 37.80154l1.6517334 4.5380974l1.6517334 -4.5380974z" fill-rule="evenodd"/><path fill="#efefef" d="m785.7855 100.135254c0 -8.175552 6.6275635 -14.803146 14.803162 -14.803146c3.9260254 0 7.691284 1.5596085 10.467407 4.335739c2.776123 2.7761307 4.3356934 6.5413666 4.3356934 10.467407c0 8.175552 -6.6275635 14.803154 -14.803101 14.803154c-8.175598 0 -14.803162 -6.6276016 -14.803162 -14.803154z" fill-rule="evenodd"/><path stroke="#000000" stroke-width="1.0" stroke-linejoin="round" stroke-linecap="butt" d="m785.7855 100.135254c0 -8.175552 6.6275635 -14.803146 14.803162 -14.803146c3.9260254 0 7.691284 1.5596085 10.467407 4.335739c2.776123 2.7761307 4.3356934 6.5413666 4.3356934 10.467407c0 8.175552 -6.6275635 14.803154 -14.803101 14.803154c-8.175598 0 -14.803162 -6.6276016 -14.803162 -14.803154z" fill-rule="evenodd"/><path fill="#000000" d="m799.8939 100.00221l-2.9375 -4.75l1.375 0l1.96875 3.265625l0.34375 0.796875l0.328125 -0.796875l2.078125 -3.265625l1.265625 0l-3.03125 4.65625l3.171875 5.015625l-1.34375 0l-2.171875 -3.46875l-0.375 -0.828125l-0.359375 0.828125l-2.25 3.46875l-1.28125 0l3.21875 -4.921875z" fill-rule="nonzero"/><path fill="#000000" fill-opacity="0.0" d="m811.0561 110.60266l21.543274 14.740158" fill-rule="evenodd"/><path stroke="#000000" stroke-width="1.0" stroke-linejoin="round" stroke-linecap="butt" d="m811.0561 110.60266l16.591492 11.352051" fill-rule="evenodd"/><path fill="#000000" stroke="#000000" stroke-width="1.0" stroke-linecap="butt" d="m826.71484 123.3179l4.6780396 1.1994019l-2.812622 -3.9257736z" fill-rule="evenodd"/><path fill="#000000" fill-opacity="0.0" d="m957.0561 110.60266l19.527527 14.740158" fill-rule="evenodd"/><path stroke="#000000" stroke-width="1.0" stroke-linejoin="round" stroke-linecap="butt" d="m957.0561 110.60266l14.7387085 11.125343" fill-rule="evenodd"/><path fill="#000000" stroke="#000000" stroke-width="1.0" stroke-linecap="butt" d="m970.7997 123.046326l4.6171875 1.415741l-2.6269531 -4.0523834z" fill-rule="evenodd"/><path fill="#000000" fill-opacity="0.0" d="m936.1213 110.60266l-23.527588 14.740158" fill-rule="evenodd"/><path stroke="#000000" stroke-width="1.0" stroke-linejoin="round" stroke-linecap="butt" d="m936.1212 110.60266l-18.442993 11.554657" fill-rule="evenodd"/><path fill="#000000" stroke="#000000" stroke-width="1.0" stroke-linecap="butt" d="m916.8013 120.7576l-2.96875 3.8090668l4.722595 -1.0096283z" fill-rule="evenodd"/><path fill="#000000" fill-opacity="0.0" d="m863.1213 69.07306l-62.519714 16.251968" fill-rule="evenodd"/><path stroke="#000000" stroke-width="1.0" stroke-linejoin="round" stroke-linecap="butt" d="m863.1212 69.07306l-56.712646 14.742439" fill-rule="evenodd"/><path fill="#000000" stroke="#000000" stroke-width="1.0" stroke-linecap="butt" d="m805.993 82.216896l-3.9765625 2.7403336l4.807678 0.45687103z" fill-rule="evenodd"/><path fill="#ffffff" d="m817.7855 140.13525c0 -8.175552 6.6275635 -14.803146 14.803162 -14.803146c3.9260254 0 7.691284 1.5596085 10.467407 4.335739c2.776123 2.776123 4.3356934 6.5413666 4.3356934 10.467407c0 8.175552 -6.6275635 14.803146 -14.803101 14.803146c-8.175598 0 -14.803162 -6.627594 -14.803162 -14.803146z" fill-rule="evenodd"/><path stroke="#000000" stroke-width="1.0" stroke-linejoin="round" stroke-linecap="butt" d="m817.7855 140.13525c0 -8.175552 6.6275635 -14.803146 14.803162 -14.803146c3.9260254 0 7.691284 1.5596085 10.467407 4.335739c2.776123 2.776123 4.3356934 6.5413666 4.3356934 10.467407c0 8.175552 -6.6275635 14.803146 -14.803101 14.803146c-8.175598 0 -14.803162 -6.627594 -14.803162 -14.803146z" fill-rule="evenodd"/><path fill="#000000" d="m834.4642 142.45534q0 -0.578125 -0.34375 -0.9375q-0.34375 -0.375 -0.875 -0.65625q-0.515625 -0.28125 -1.125 -0.53125q-0.609375 -0.25 -1.125 -0.59375q-0.515625 -0.359375 -0.859375 -0.875q-0.34375 -0.515625 -0.34375 -1.328125q0 -1.125 0.78125 -1.78125q0.796875 -0.671875 2.25 -0.671875q0.84375 0 1.53125 0.125q0.6875 0.125 1.078125 0.3125l-0.34375 1.015625q-0.328125 -0.15625 -0.9375 -0.296875q-0.609375 -0.140625 -1.390625 -0.140625q-0.90625 0 -1.375 0.421875q-0.453125 0.40625 -0.453125 0.953125q0 0.546875 0.34375 0.90625q0.34375 0.359375 0.859375 0.640625q0.53125 0.28125 1.140625 0.5625q0.609375 0.265625 1.125 0.640625q0.515625 0.359375 0.859375 0.875q0.34375 0.515625 0.34375 1.265625q0 0.625 -0.21875 1.125q-0.21875 0.5 -0.65625 0.859375q-0.421875 0.359375 -1.03125 0.5625q-0.609375 0.1875 -1.375 0.1875q-1.046875 0 -1.71875 -0.171875q-0.671875 -0.15625 -1.046875 -0.34375l0.375 -1.03125q0.328125 0.171875 0.9375 0.34375q0.625 0.171875 1.40625 0.171875q0.453125 0 0.859375 -0.078125q0.40625 -0.09375 0.6875 -0.296875q0.296875 -0.203125 0.46875 -0.5q0.171875 -0.3125 0.171875 -0.734375z" fill-rule="nonzero"/><path fill="#000000" fill-opacity="0.0" d="m822.1213 150.60266l-8.409485 16.566925" fill-rule="evenodd"/><path stroke="#000000" stroke-width="1.0" stroke-linejoin="round" stroke-linecap="butt" d="m822.1212 150.60266l-5.6936646 11.216736" fill-rule="evenodd"/><path fill="#000000" stroke="#000000" stroke-width="1.0" stroke-linecap="butt" d="m814.9547 161.07178l-0.5812378 4.794235l3.5269165 -3.298996z" fill-rule="evenodd"/><path fill="#000000" fill-opacity="0.0" d="m798.9236 167.15747l29.606323 0l0 14.236221l-29.606323 0z" fill-rule="evenodd"/><path fill="#000000" d="m817.44354 176.0543q0 -0.5 0.28125 -0.78125q0.296875 -0.296875 0.78125 -0.296875q0.515625 0 0.8125 0.296875q0.296875 0.28125 0.296875 0.78125q0 0.484375 -0.296875 0.78125q-0.296875 0.296875 -0.8125 0.296875q-0.484375 0 -0.78125 -0.296875q-0.28125 -0.296875 -0.28125 -0.78125zm-4.734375 0q0 -0.5 0.28125 -0.78125q0.296875 -0.296875 0.78125 -0.296875q0.5 0 0.796875 0.296875q0.3125 0.28125 0.3125 0.78125q0 0.484375 -0.3125 0.78125q-0.296875 0.296875 -0.796875 0.296875q-0.484375 0 -0.78125 -0.296875q-0.28125 -0.296875 -0.28125 -0.78125zm-4.734375 0q0 -0.5 0.28125 -0.78125q0.296875 -0.296875 0.78125 -0.296875q0.5 0 0.796875 0.296875q0.296875 0.28125 0.296875 0.78125q0 0.484375 -0.296875 0.78125q-0.296875 0.296875 -0.796875 0.296875q-0.484375 0 -0.78125 -0.296875q-0.28125 -0.296875 -0.28125 -0.78125z" fill-rule="nonzero"/><path fill="#000000" fill-opacity="0.0" d="m837.5783 167.15747l29.606262 0l0 14.236221l-29.606262 0z" fill-rule="evenodd"/><path fill="#000000" d="m856.09827 176.0543q0 -0.5 0.28125 -0.78125q0.296875 -0.296875 0.78125 -0.296875q0.515625 0 0.8125 0.296875q0.296875 0.28125 0.296875 0.78125q0 0.484375 -0.296875 0.78125q-0.296875 0.296875 -0.8125 0.296875q-0.484375 0 -0.78125 -0.296875q-0.28125 -0.296875 -0.28125 -0.78125zm-4.734375 0q0 -0.5 0.28125 -0.78125q0.296875 -0.296875 0.78125 -0.296875q0.5 0 0.796875 0.296875q0.3125 0.28125 0.3125 0.78125q0 0.484375 -0.3125 0.78125q-0.296875 0.296875 -0.796875 0.296875q-0.484375 0 -0.78125 -0.296875q-0.28125 -0.296875 -0.28125 -0.78125zm-4.734375 0q0 -0.5 0.28125 -0.78125q0.296875 -0.296875 0.78125 -0.296875q0.5 0 0.796875 0.296875q0.296875 0.28125 0.296875 0.78125q0 0.484375 -0.296875 0.78125q-0.296875 0.296875 -0.796875 0.296875q-0.484375 0 -0.78125 -0.296875q-0.28125 -0.296875 -0.28125 -0.78125z" fill-rule="nonzero"/><path fill="#000000" fill-opacity="0.0" d="m843.0561 150.60266l9.322815 16.566925" fill-rule="evenodd"/><path stroke="#000000" stroke-width="1.0" stroke-linejoin="round" stroke-linecap="butt" d="m843.0561 150.60266l6.380371 11.338013" fill-rule="evenodd"/><path fill="#000000" stroke="#000000" stroke-width="1.0" stroke-linecap="butt" d="m847.99695 162.7507l3.665039 3.1448517l-0.7860718 -4.764923z" fill-rule="evenodd"/><path fill="#ffffff" d="m897.7855 140.13525c0 -8.175552 6.6275635 -14.803146 14.803162 -14.803146c3.9260254 0 7.691284 1.5596085 10.467407 4.335739c2.776123 2.776123 4.3356934 6.5413666 4.3356934 10.467407c0 8.175552 -6.6275635 14.803146 -14.803101 14.803146c-8.175598 0 -14.803162 -6.627594 -14.803162 -14.803146z" fill-rule="evenodd"/><path stroke="#000000" stroke-width="1.0" stroke-linejoin="round" stroke-linecap="butt" d="m897.7855 140.13525c0 -8.175552 6.6275635 -14.803146 14.803162 -14.803146c3.9260254 0 7.691284 1.5596085 10.467407 4.335739c2.776123 2.776123 4.3356934 6.5413666 4.3356934 10.467407c0 8.175552 -6.6275635 14.803146 -14.803101 14.803146c-8.175598 0 -14.803162 -6.627594 -14.803162 -14.803146z" fill-rule="evenodd"/><path fill="#000000" d="m916.1733 136.26784l-3.015625 0l0 8.65625l-1.140625 0l0 -8.65625l-3.015625 0l0 -1.015625l7.171875 0l0 1.015625z" fill-rule="nonzero"/><path fill="#000000" fill-opacity="0.0" d="m902.1213 150.60266l-8.409485 16.566925" fill-rule="evenodd"/><path stroke="#000000" stroke-width="1.0" stroke-linejoin="round" stroke-linecap="butt" d="m902.1212 150.60266l-5.6936646 11.216736" fill-rule="evenodd"/><path fill="#000000" stroke="#000000" stroke-width="1.0" stroke-linecap="butt" d="m894.9547 161.07178l-0.5812378 4.794235l3.5269165 -3.298996z" fill-rule="evenodd"/><path fill="#000000" fill-opacity="0.0" d="m878.9236 167.15747l29.606323 0l0 14.236221l-29.606323 0z" fill-rule="evenodd"/><path fill="#000000" d="m897.44354 176.0543q0 -0.5 0.28125 -0.78125q0.296875 -0.296875 0.78125 -0.296875q0.515625 0 0.8125 0.296875q0.296875 0.28125 0.296875 0.78125q0 0.484375 -0.296875 0.78125q-0.296875 0.296875 -0.8125 0.296875q-0.484375 0 -0.78125 -0.296875q-0.28125 -0.296875 -0.28125 -0.78125zm-4.734375 0q0 -0.5 0.28125 -0.78125q0.296875 -0.296875 0.78125 -0.296875q0.5 0 0.796875 0.296875q0.3125 0.28125 0.3125 0.78125q0 0.484375 -0.3125 0.78125q-0.296875 0.296875 -0.796875 0.296875q-0.484375 0 -0.78125 -0.296875q-0.28125 -0.296875 -0.28125 -0.78125zm-4.734375 0q0 -0.5 0.28125 -0.78125q0.296875 -0.296875 0.78125 -0.296875q0.5 0 0.796875 0.296875q0.296875 0.28125 0.296875 0.78125q0 0.484375 -0.296875 0.78125q-0.296875 0.296875 -0.796875 0.296875q-0.484375 0 -0.78125 -0.296875q-0.28125 -0.296875 -0.28125 -0.78125z" fill-rule="nonzero"/><path fill="#000000" fill-opacity="0.0" d="m917.5783 167.15747l29.606262 0l0 14.236221l-29.606262 0z" fill-rule="evenodd"/><path fill="#000000" d="m936.09827 176.0543q0 -0.5 0.28125 -0.78125q0.296875 -0.296875 0.78125 -0.296875q0.515625 0 0.8125 0.296875q0.296875 0.28125 0.296875 0.78125q0 0.484375 -0.296875 0.78125q-0.296875 0.296875 -0.8125 0.296875q-0.484375 0 -0.78125 -0.296875q-0.28125 -0.296875 -0.28125 -0.78125zm-4.734375 0q0 -0.5 0.28125 -0.78125q0.296875 -0.296875 0.78125 -0.296875q0.5 0 0.796875 0.296875q0.3125 0.28125 0.3125 0.78125q0 0.484375 -0.3125 0.78125q-0.296875 0.296875 -0.796875 0.296875q-0.484375 0 -0.78125 -0.296875q-0.28125 -0.296875 -0.28125 -0.78125zm-4.734375 0q0 -0.5 0.28125 -0.78125q0.296875 -0.296875 0.78125 -0.296875q0.5 0 0.796875 0.296875q0.296875 0.28125 0.296875 0.78125q0 0.484375 -0.296875 0.78125q-0.296875 0.296875 -0.796875 0.296875q-0.484375 0 -0.78125 -0.296875q-0.28125 -0.296875 -0.28125 -0.78125z" fill-rule="nonzero"/><path fill="#000000" fill-opacity="0.0" d="m923.0561 150.60266l9.322815 16.566925" fill-rule="evenodd"/><path stroke="#000000" stroke-width="1.0" stroke-linejoin="round" stroke-linecap="butt" d="m923.0561 150.60266l6.380371 11.338013" fill-rule="evenodd"/><path fill="#000000" stroke="#000000" stroke-width="1.0" stroke-linecap="butt" d="m927.99695 162.7507l3.665039 3.1448517l-0.7860718 -4.764923z" fill-rule="evenodd"/><path fill="#ffffff" d="m961.7855 140.13525c0 -8.175552 6.6275635 -14.803146 14.803162 -14.803146c3.9260254 0 7.691284 1.5596085 10.467407 4.335739c2.776123 2.776123 4.3356934 6.5413666 4.3356934 10.467407c0 8.175552 -6.6275635 14.803146 -14.803101 14.803146c-8.175598 0 -14.803162 -6.627594 -14.803162 -14.803146z" fill-rule="evenodd"/><path stroke="#000000" stroke-width="1.0" stroke-linejoin="round" stroke-linecap="butt" d="m961.7855 140.13525c0 -8.175552 6.6275635 -14.803146 14.803162 -14.803146c3.9260254 0 7.691284 1.5596085 10.467407 4.335739c2.776123 2.776123 4.3356934 6.5413666 4.3356934 10.467407c0 8.175552 -6.6275635 14.803146 -14.803101 14.803146c-8.175598 0 -14.803162 -6.627594 -14.803162 -14.803146z" fill-rule="evenodd"/><path fill="#000000" d="m973.92633 141.73659l0.234375 1.59375l0.015625 0l0.234375 -1.625l1.984375 -6.453125l0.546875 0l2.015625 6.484375l0.234375 1.59375l0.015625 0l0.25 -1.625l1.625 -6.453125l1.125 0l-2.703125 9.828125l-0.640625 0l-1.953125 -6.484375l-0.25 -1.46875l-0.078125 0l-0.25 1.484375l-1.953125 6.46875l-0.640625 0l-2.765625 -9.828125l1.21875 0l1.734375 6.484375z" fill-rule="nonzero"/><path fill="#000000" fill-opacity="0.0" d="m966.1213 150.60266l-8.409485 16.566925" fill-rule="evenodd"/><path stroke="#000000" stroke-width="1.0" stroke-linejoin="round" stroke-linecap="butt" d="m966.1212 150.60266l-5.6936646 11.216736" fill-rule="evenodd"/><path fill="#000000" stroke="#000000" stroke-width="1.0" stroke-linecap="butt" d="m958.9547 161.07178l-0.5812378 4.794235l3.5269165 -3.298996z" fill-rule="evenodd"/><path fill="#000000" fill-opacity="0.0" d="m942.9236 167.15747l29.606323 0l0 14.236221l-29.606323 0z" fill-rule="evenodd"/><path fill="#000000" d="m961.44354 176.0543q0 -0.5 0.28125 -0.78125q0.296875 -0.296875 0.78125 -0.296875q0.515625 0 0.8125 0.296875q0.296875 0.28125 0.296875 0.78125q0 0.484375 -0.296875 0.78125q-0.296875 0.296875 -0.8125 0.296875q-0.484375 0 -0.78125 -0.296875q-0.28125 -0.296875 -0.28125 -0.78125zm-4.734375 0q0 -0.5 0.28125 -0.78125q0.296875 -0.296875 0.78125 -0.296875q0.5 0 0.796875 0.296875q0.3125 0.28125 0.3125 0.78125q0 0.484375 -0.3125 0.78125q-0.296875 0.296875 -0.796875 0.296875q-0.484375 0 -0.78125 -0.296875q-0.28125 -0.296875 -0.28125 -0.78125zm-4.734375 0q0 -0.5 0.28125 -0.78125q0.296875 -0.296875 0.78125 -0.296875q0.5 0 0.796875 0.296875q0.296875 0.28125 0.296875 0.78125q0 0.484375 -0.296875 0.78125q-0.296875 0.296875 -0.796875 0.296875q-0.484375 0 -0.78125 -0.296875q-0.28125 -0.296875 -0.28125 -0.78125z" fill-rule="nonzero"/><path fill="#000000" fill-opacity="0.0" d="m981.5783 167.15747l29.606262 0l0 14.236221l-29.606262 0z" fill-rule="evenodd"/><path fill="#000000" d="m1000.09827 176.0543q0 -0.5 0.28125 -0.78125q0.296875 -0.296875 0.78125 -0.296875q0.515625 0 0.8125 0.296875q0.296875 0.28125 0.296875 0.78125q0 0.484375 -0.296875 0.78125q-0.296875 0.296875 -0.8125 0.296875q-0.484375 0 -0.78125 -0.296875q-0.28125 -0.296875 -0.28125 -0.78125zm-4.734375 0q0 -0.5 0.28125 -0.78125q0.296875 -0.296875 0.78125 -0.296875q0.5 0 0.796875 0.296875q0.3125 0.28125 0.3125 0.78125q0 0.484375 -0.3125 0.78125q-0.296875 0.296875 -0.796875 0.296875q-0.484375 0 -0.78125 -0.296875q-0.28125 -0.296875 -0.28125 -0.78125zm-4.734375 0q0 -0.5 0.28125 -0.78125q0.296875 -0.296875 0.78125 -0.296875q0.5 0 0.796875 0.296875q0.296875 0.28125 0.296875 0.78125q0 0.484375 -0.296875 0.78125q-0.296875 0.296875 -0.796875 0.296875q-0.484375 0 -0.78125 -0.296875q-0.28125 -0.296875 -0.28125 -0.78125z" fill-rule="nonzero"/><path fill="#000000" fill-opacity="0.0" d="m987.0561 150.60266l9.322815 16.566925" fill-rule="evenodd"/><path stroke="#000000" stroke-width="1.0" stroke-linejoin="round" stroke-linecap="butt" d="m987.0561 150.60266l6.380371 11.338013" fill-rule="evenodd"/><path fill="#000000" stroke="#000000" stroke-width="1.0" stroke-linecap="butt" d="m991.99695 162.7507l3.665039 3.1448517l-0.7860718 -4.764923z" fill-rule="evenodd"/><path fill="#000000" fill-opacity="0.0" d="m734.9236 167.15747l29.606323 0l0 14.236221l-29.606323 0z" fill-rule="evenodd"/><path fill="#000000" d="m753.44354 176.0543q0 -0.5 0.28125 -0.78125q0.296875 -0.296875 0.78125 -0.296875q0.515625 0 0.8125 0.296875q0.296875 0.28125 0.296875 0.78125q0 0.484375 -0.296875 0.78125q-0.296875 0.296875 -0.8125 0.296875q-0.484375 0 -0.78125 -0.296875q-0.28125 -0.296875 -0.28125 -0.78125zm-4.734375 0q0 -0.5 0.28125 -0.78125q0.296875 -0.296875 0.78125 -0.296875q0.5 0 0.796875 0.296875q0.3125 0.28125 0.3125 0.78125q0 0.484375 -0.3125 0.78125q-0.296875 0.296875 -0.796875 0.296875q-0.484375 0 -0.78125 -0.296875q-0.28125 -0.296875 -0.28125 -0.78125zm-4.734375 0q0 -0.5 0.28125 -0.78125q0.296875 -0.296875 0.78125 -0.296875q0.5 0 0.796875 0.296875q0.296875 0.28125 0.296875 0.78125q0 0.484375 -0.296875 0.78125q-0.296875 0.296875 -0.796875 0.296875q-0.484375 0 -0.78125 -0.296875q-0.28125 -0.296875 -0.28125 -0.78125z" fill-rule="nonzero"/><path fill="#ffffff" d="m753.7855 140.13525c0 -8.175552 6.6275635 -14.803146 14.803162 -14.803146c3.9260254 0 7.691284 1.5596085 10.467407 4.335739c2.776123 2.776123 4.3356934 6.5413666 4.3356934 10.467407c0 8.175552 -6.6275635 14.803146 -14.803101 14.803146c-8.175598 0 -14.803162 -6.627594 -14.803162 -14.803146z" fill-rule="evenodd"/><path stroke="#000000" stroke-width="1.0" stroke-linejoin="round" stroke-linecap="butt" d="m753.7855 140.13525c0 -8.175552 6.6275635 -14.803146 14.803162 -14.803146c3.9260254 0 7.691284 1.5596085 10.467407 4.335739c2.776123 2.776123 4.3356934 6.5413666 4.3356934 10.467407c0 8.175552 -6.6275635 14.803146 -14.803101 14.803146c-8.175598 0 -14.803162 -6.627594 -14.803162 -14.803146z" fill-rule="evenodd"/><path fill="#000000" d="m770.81506 135.25221l1.109375 0l0 6.453125q0 0.875 -0.234375 1.515625q-0.21875 0.625 -0.640625 1.03125q-0.421875 0.40625 -1.03125 0.609375q-0.59375 0.1875 -1.3125 0.1875q-1.703125 0 -2.578125 -0.765625q-0.875 -0.78125 -0.875 -2.359375l0 -6.671875l1.15625 0l0 6.125q0 0.734375 0.140625 1.25q0.140625 0.5 0.421875 0.8125q0.296875 0.3125 0.734375 0.453125q0.4375 0.125 1.015625 0.125q1.125 0 1.609375 -0.609375q0.484375 -0.609375 0.484375 -2.03125l0 -6.125z" fill-rule="nonzero"/><path fill="#000000" fill-opacity="0.0" d="m773.5783 167.15747l29.606262 0l0 14.236221l-29.606262 0z" fill-rule="evenodd"/><path fill="#000000" d="m792.09827 176.0543q0 -0.5 0.28125 -0.78125q0.296875 -0.296875 0.78125 -0.296875q0.515625 0 0.8125 0.296875q0.296875 0.28125 0.296875 0.78125q0 0.484375 -0.296875 0.78125q-0.296875 0.296875 -0.8125 0.296875q-0.484375 0 -0.78125 -0.296875q-0.28125 -0.296875 -0.28125 -0.78125zm-4.734375 0q0 -0.5 0.28125 -0.78125q0.296875 -0.296875 0.78125 -0.296875q0.5 0 0.796875 0.296875q0.3125 0.28125 0.3125 0.78125q0 0.484375 -0.3125 0.78125q-0.296875 0.296875 -0.796875 0.296875q-0.484375 0 -0.78125 -0.296875q-0.28125 -0.296875 -0.28125 -0.78125zm-4.734375 0q0 -0.5 0.28125 -0.78125q0.296875 -0.296875 0.78125 -0.296875q0.5 0 0.796875 0.296875q0.296875 0.28125 0.296875 0.78125q0 0.484375 -0.296875 0.78125q-0.296875 0.296875 -0.796875 0.296875q-0.484375 0 -0.78125 -0.296875q-0.28125 -0.296875 -0.28125 -0.78125z" fill-rule="nonzero"/><path fill="#000000" fill-opacity="0.0" d="m758.1213 150.60266l-8.409485 16.566925" fill-rule="evenodd"/><path stroke="#000000" stroke-width="1.0" stroke-linejoin="round" stroke-linecap="butt" d="m758.1212 150.60266l-5.6936646 11.216736" fill-rule="evenodd"/><path fill="#000000" stroke="#000000" stroke-width="1.0" stroke-linecap="butt" d="m750.9547 161.07178l-0.5812378 4.794235l3.5269165 -3.298996z" fill-rule="evenodd"/><path fill="#000000" fill-opacity="0.0" d="m779.0561 150.60266l9.322815 16.566925" fill-rule="evenodd"/><path stroke="#000000" stroke-width="1.0" stroke-linejoin="round" stroke-linecap="butt" d="m779.0561 150.60266l6.380371 11.338013" fill-rule="evenodd"/><path fill="#000000" stroke="#000000" stroke-width="1.0" stroke-linecap="butt" d="m783.99695 162.7507l3.665039 3.1448517l-0.7860718 -4.764923z" fill-rule="evenodd"/></g></svg>