<svg version="1.1" viewBox="0.0 0.0 1017.4435695538058 290.3910761154856" fill="none" stroke="none" stroke-linecap="square" stroke-miterlimit="10" xmlns:xlink="http://www.w3.org/1999/xlink" xmlns="http://www.w3.org/2000/svg"><clipPath id="p.0"><path d="m0 0l1017.44354 0l0 290.39108l-1017.44354 0l0 -290.39108z" clip-rule="nonzero"/></clipPath><g clip-path="url(#p.0)"><path fill="#000000" fill-opacity="0.0" d="m0 0l1017.44354 0l0 290.39108l-1017.44354 0z" fill-rule="evenodd"/><path fill="#000000" d="m202.39633 113.973175c0 -2.0873795 1.6921387 -3.7795334 3.7795258 -3.7795334c1.0023956 0 1.9637299 0.398201 2.6725311 1.1070023c0.708786 0.70880127 1.1069946 1.6701355 1.1069946 2.6725311c0 2.0873718 -1.6921539 3.7795258 -3.7795258 3.7795258c-2.087387 0 -3.7795258 -1.6921539 -3.7795258 -3.7795258z" fill-rule="evenodd"/><path stroke="#000000" stroke-width="1.0" stroke-linejoin="round" stroke-linecap="butt" d="m202.39633 113.973175c0 -2.0873795 1.6921387 -3.7795334 3.7795258 -3.7795334c1.0023956 0 1.9637299 0.398201 2.6725311 1.1070023c0.708786 0.70880127 1.1069946 1.6701355 1.1069946 2.6725311c0 2.0873718 -1.6921539 3.7795258 -3.7795258 3.7795258c-2.087387 0 -3.7795258 -1.6921539 -3.7795258 -3.7795258z" fill-rule="evenodd"/><path fill="#000000" d="m168.38058 113.973175c0 -2.0873795 1.6921387 -3.7795334 3.7795258 -3.7795334c1.0023804 0 1.9637299 0.398201 2.6725311 1.1070023c0.708786 0.70880127 1.1069946 1.6701355 1.1069946 2.6725311c0 2.0873718 -1.6921539 3.7795258 -3.7795258 3.7795258c-2.087387 0 -3.7795258 -1.6921539 -3.7795258 -3.7795258z" fill-rule="evenodd"/><path stroke="#000000" stroke-width="1.0" stroke-linejoin="round" stroke-linecap="butt" d="m168.38058 113.973175c0 -2.0873795 1.6921387 -3.7795334 3.7795258 -3.7795334c1.0023804 0 1.9637299 0.398201 2.6725311 1.1070023c0.708786 0.70880127 1.1069946 1.6701355 1.1069946 2.6725311c0 2.0873718 -1.6921539 3.7795258 -3.7795258 3.7795258c-2.087387 0 -3.7795258 -1.6921539 -3.7795258 -3.7795258z" fill-rule="evenodd"/><path fill="#000000" d="m236.41208 113.973175c0 -2.0873795 1.6921539 -3.7795334 3.7795258 -3.7795334c1.0023956 0 1.9637299 0.398201 2.6725311 1.1070023c0.70880127 0.70880127 1.1069946 1.6701355 1.1069946 2.6725311c0 2.0873718 -1.6921539 3.7795258 -3.7795258 3.7795258c-2.0873718 0 -3.7795258 -1.6921539 -3.7795258 -3.7795258z" fill-rule="evenodd"/><path stroke="#000000" stroke-width="1.0" stroke-linejoin="round" stroke-linecap="butt" d="m236.41208 113.973175c0 -2.0873795 1.6921539 -3.7795334 3.7795258 -3.7795334c1.0023956 0 1.9637299 0.398201 2.6725311 1.1070023c0.70880127 0.70880127 1.1069946 1.6701355 1.1069946 2.6725311c0 2.0873718 -1.6921539 3.7795258 -3.7795258 3.7795258c-2.0873718 0 -3.7795258 -1.6921539 -3.7795258 -3.7795258z" fill-rule="evenodd"/><path fill="#000000" fill-opacity="0.0" d="m168.38058 87.23763c0 -5.4895935 4.45018 -9.939781 9.939774 -9.939781l55.710983 0c2.6362 0 5.1644287 1.047226 7.028488 2.911293c1.8640747 1.8640671 2.9113007 4.392288 2.9113007 7.028488l0 17.91571c0 5.4895935 -4.4501953 9.939781 -9.939789 9.939781l-55.710983 0c-5.4895935 0 -9.939774 -4.4501877 -9.939774 -9.939781z" fill-rule="evenodd"/><path stroke="#000000" stroke-width="2.0" stroke-linejoin="round" stroke-linecap="butt" d="m168.38058 87.23763c0 -5.4895935 4.45018 -9.939781 9.939774 -9.939781l55.710983 0c2.6362 0 5.1644287 1.047226 7.028488 2.911293c1.8640747 1.8640671 2.9113007 4.392288 2.9113007 7.028488l0 17.91571c0 5.4895935 -4.4501953 9.939781 -9.939789 9.939781l-55.710983 0c-5.4895935 0 -9.939774 -4.4501877 -9.939774 -9.939781z" fill-rule="evenodd"/><path fill="#000000" d="m189.10603 103.532364q0.65625 0 1.296875 -0.609375q0.65625 -0.609375 1.234375 -1.46875q0.578125 -0.875 1.03125 -1.8125q0.453125 -0.9375 0.71875 -1.546875l0.765625 -4.109375q-0.359375 -0.234375 -0.671875 -0.3125q-0.296875 -0.09375 -0.84375 -0.125q-1.15625 0.03125 -2.0625 0.71875q-0.90625 0.671875 -1.53125 1.75q-0.625 1.0625 -0.953125 2.390625q-0.328125 1.3125 -0.328125 2.578125q0 1.234375 0.296875 1.890625q0.3125 0.65625 1.046875 0.65625zm3.796875 -3.5q-0.3125 0.859375 -0.796875 1.75q-0.46875 0.890625 -1.09375 1.609375q-0.609375 0.71875 -1.34375 1.171875q-0.71875 0.453125 -1.5625 0.453125q-2.5 0 -2.5 -3.640625q0 -1.703125 0.484375 -3.296875q0.484375 -1.59375 1.390625 -2.828125q0.90625 -1.25 2.203125 -1.984375q1.296875 -0.75 2.953125 -0.75q0.625 0 0.9375 0.09375q0.3125 0.078125 0.796875 0.296875l0.90625 -4.546875l-1.671875 -0.203125l0 -0.609375q0.359375 -0.140625 0.78125 -0.265625q0.4375 -0.140625 0.90625 -0.25q0.46875 -0.109375 0.9375 -0.203125q0.484375 -0.09375 0.890625 -0.140625l0.515625 0.1875l-3.296875 16.546875l1.75 0l0 0.59375q-0.46875 0.375 -1.140625 0.625q-0.671875 0.234375 -1.328125 0.234375q-0.6875 0 -1.0 -0.296875q-0.296875 -0.296875 -0.296875 -0.640625q0 -0.421875 0.171875 -1.40625q0.171875 -0.984375 0.5 -2.5l-0.09375 0zm30.886658 -6.09375l-1.75 0l0 -0.625q0.484375 -0.265625 1.015625 -0.46875q0.546875 -0.203125 1.03125 -0.328125l0.15625 -0.84375q0.3125 -1.484375 0.84375 -2.453125q0.546875 -0.96875 1.265625 -1.53125q0.734375 -0.5625 1.59375 -0.78125q0.859375 -0.21875 1.84375 -0.21875q0.40625 0 0.96875 0.09375q0.5625 0.09375 0.953125 0.296875q-0.046875 0.515625 -0.25 1.078125q-0.203125 0.5625 -0.6875 0.984375l-1.828125 -1.5q-0.421875 0.125 -0.78125 0.265625q-0.359375 0.140625 -0.6875 0.546875q-0.328125 0.390625 -0.625 1.109375q-0.28125 0.71875 -0.546875 1.96875l-0.234375 1.203125l2.671875 0q0.109375 0.59375 -0.25 1.203125l-2.65625 0l-1.546875 9.765625q-0.25 1.703125 -0.875 2.828125q-0.625 1.125 -1.34375 1.8125q-0.703125 0.703125 -1.375 1.03125q-0.671875 0.34375 -1.03125 0.453125l-0.21875 -0.53125q0.296875 -0.140625 0.703125 -0.515625q0.40625 -0.375 0.796875 -1.0q0.390625 -0.625 0.734375 -1.53125q0.359375 -0.890625 0.546875 -2.09375l1.5625 -10.21875z" fill-rule="nonzero"/><path fill="#000000" fill-opacity="0.0" d="m206.17586 77.29785l0 37.795273" fill-rule="evenodd"/><path stroke="#000000" stroke-width="2.0" stroke-linejoin="round" stroke-linecap="butt" d="m206.17586 77.29785l0 37.795273" fill-rule="evenodd"/><path fill="#000000" fill-opacity="0.0" d="m760.81494 87.04603c0 -5.489586 4.4501953 -9.939781 9.939819 -9.939781l17.91571 0c2.6361694 0 5.1644287 1.047226 7.0284424 2.911293c1.8640747 1.8640747 2.911316 4.392296 2.911316 7.028488l0 17.915718c0 5.489586 -4.4501953 9.939781 -9.939758 9.939781l-17.91571 0c-5.489624 0 -9.939819 -4.4501953 -9.939819 -9.939781z" fill-rule="evenodd"/><path stroke="#000000" stroke-width="2.0" stroke-linejoin="round" stroke-linecap="butt" d="m760.81494 87.04603c0 -5.489586 4.4501953 -9.939781 9.939819 -9.939781l17.91571 0c2.6361694 0 5.1644287 1.047226 7.0284424 2.911293c1.8640747 1.8640747 2.911316 4.392296 2.911316 7.028488l0 17.915718c0 5.489586 -4.4501953 9.939781 -9.939758 9.939781l-17.91571 0c-5.489624 0 -9.939819 -4.4501953 -9.939819 -9.939781z" fill-rule="evenodd"/><path fill="#000000" d="m777.33813 88.168884l-1.6875 -0.203125l0 -0.5625q0.390625 -0.140625 0.84375 -0.28125q0.453125 -0.140625 0.921875 -0.265625q0.46875 -0.140625 0.921875 -0.21875q0.46875 -0.09375 0.84375 -0.140625l0.5 0.265625l-2.109375 10.0l0.125 0q0.4375 -0.859375 0.953125 -1.671875q0.515625 -0.8125 1.09375 -1.4375q0.59375 -0.625 1.234375 -1.0q0.65625 -0.390625 1.375 -0.390625q1.265625 0 2.015625 0.890625q0.75 0.875 0.75 2.75q0 1.84375 -0.515625 3.46875q-0.515625 1.625 -1.453125 2.84375q-0.9375 1.203125 -2.265625 1.90625q-1.3125 0.703125 -2.921875 0.703125q-1.171875 0 -2.203125 -0.296875q-1.015625 -0.296875 -1.5 -0.703125l3.078125 -15.65625zm4.0 5.578125q-0.625 0 -1.21875 0.546875q-0.59375 0.546875 -1.109375 1.328125q-0.515625 0.78125 -0.9375 1.640625q-0.421875 0.84375 -0.71875 1.421875l-0.90625 4.609375q0.359375 0.234375 0.890625 0.375q0.546875 0.125 1.078125 0.125q0.9375 0 1.765625 -0.640625q0.828125 -0.65625 1.453125 -1.703125q0.625 -1.0625 0.984375 -2.390625q0.359375 -1.328125 0.328125 -2.703125q0.03125 -1.15625 -0.359375 -1.875q-0.375 -0.734375 -1.25 -0.734375z" fill-rule="nonzero"/><path fill="#000000" d="m791.0512 113.78157c0 -2.0873718 1.6921387 -3.7795258 3.77948 -3.7795258c1.0024414 0 1.9637451 0.398201 2.6725464 1.1069946c0.70880127 0.70880127 1.1069946 1.6701431 1.1069946 2.6725311c0 2.0873795 -1.6921387 3.7795258 -3.779541 3.7795258c-2.0873413 0 -3.77948 -1.6921463 -3.77948 -3.7795258z" fill-rule="evenodd"/><path stroke="#000000" stroke-width="1.0" stroke-linejoin="round" stroke-linecap="butt" d="m791.0512 113.78157c0 -2.0873718 1.6921387 -3.7795258 3.77948 -3.7795258c1.0024414 0 1.9637451 0.398201 2.6725464 1.1069946c0.70880127 0.70880127 1.1069946 1.6701431 1.1069946 2.6725311c0 2.0873795 -1.6921387 3.7795258 -3.779541 3.7795258c-2.0873413 0 -3.77948 -1.6921463 -3.77948 -3.7795258z" fill-rule="evenodd"/><path fill="#000000" d="m760.81494 113.78157c0 -2.0873718 1.6921997 -3.7795258 3.779541 -3.7795258c1.0023804 0 1.9637451 0.398201 2.6725464 1.1069946c0.70880127 0.70880127 1.1069946 1.6701431 1.1069946 2.6725311c0 2.0873795 -1.6921387 3.7795258 -3.779541 3.7795258c-2.0873413 0 -3.779541 -1.6921463 -3.779541 -3.7795258z" fill-rule="evenodd"/><path stroke="#000000" stroke-width="1.0" stroke-linejoin="round" stroke-linecap="butt" d="m760.81494 113.78157c0 -2.0873718 1.6921997 -3.7795258 3.779541 -3.7795258c1.0023804 0 1.9637451 0.398201 2.6725464 1.1069946c0.70880127 0.70880127 1.1069946 1.6701431 1.1069946 2.6725311c0 2.0873795 -1.6921387 3.7795258 -3.779541 3.7795258c-2.0873413 0 -3.779541 -1.6921463 -3.779541 -3.7795258z" fill-rule="evenodd"/><path fill="#000000" fill-opacity="0.0" d="m206.17586 23.223312l0 54.078743" fill-rule="evenodd"/><path stroke="#000000" stroke-width="1.9763779527559056" stroke-linejoin="round" stroke-linecap="butt" d="m206.17586 23.223312l0 42.220474" fill-rule="evenodd"/><path fill="#000000" stroke="#000000" stroke-width="1.9763779527559056" stroke-linecap="butt" d="m202.9114 65.44379l3.26445 8.968994l3.26445 -8.968994z" fill-rule="evenodd"/><path fill="#000000" fill-opacity="0.0" d="m194.6483 8.987092l23.055115 0l0 14.23622l-23.055115 0z" fill-rule="evenodd"/><path fill="#000000" d="m210.95851 16.353937q0 -0.640625 0.375 -1.015625q0.375 -0.375 1.0 -0.375q0.640625 0 1.03125 0.375q0.390625 0.375 0.390625 1.015625q0 0.625 -0.390625 1.015625q-0.390625 0.375 -1.03125 0.375q-0.625 0 -1.0 -0.375q-0.375 -0.390625 -0.375 -1.015625zm-6.09375 0q0 -0.640625 0.375 -1.015625q0.375 -0.375 1.0 -0.375q0.640625 0 1.015625 0.375q0.390625 0.375 0.390625 1.015625q0 0.625 -0.390625 1.015625q-0.375 0.375 -1.015625 0.375q-0.625 0 -1.0 -0.375q-0.375 -0.390625 -0.375 -1.015625zm-6.09375 0q0 -0.640625 0.375 -1.015625q0.375 -0.375 1.0 -0.375q0.640625 0 1.015625 0.375q0.390625 0.375 0.390625 1.015625q0 0.625 -0.390625 1.015625q-0.375 0.375 -1.015625 0.375q-0.625 0 -1.0 -0.375q-0.375 -0.390625 -0.375 -1.015625z" fill-rule="nonzero"/><path fill="#efefef" d="m319.79266 85.21594l71.86386 0l0 -7.541832l23.978638 20.220474l-23.978638 20.220467l0 -7.541832l-71.86386 0z" fill-rule="evenodd"/><path stroke="#000000" stroke-width="1.0" stroke-linejoin="round" stroke-linecap="butt" d="m319.79266 85.21594l71.86386 0l0 -7.541832l23.978638 20.220474l-23.978638 20.220467l0 -7.541832l-71.86386 0z" fill-rule="evenodd"/><path fill="#000000" d="m331.891 95.48646l1.5 0l0 9.328125l-1.5 0l0 -9.328125zm-0.3125 -2.828125q0 -0.4375 0.28125 -0.734375q0.296875 -0.3125 0.75 -0.3125q0.4375 0 0.75 0.3125q0.328125 0.296875 0.328125 0.734375q0 0.421875 -0.328125 0.703125q-0.3125 0.28125 -0.75 0.28125q-0.453125 0 -0.75 -0.28125q-0.28125 -0.28125 -0.28125 -0.703125zm10.984253 12.15625l0 -5.3125q0 -1.453125 -0.421875 -2.1875q-0.421875 -0.75 -1.53125 -0.75q-0.984375 0 -1.640625 0.53125q-0.640625 0.53125 -0.90625 1.34375l0 6.375l-1.484375 0l0 -9.328125l1.046875 0l0.28125 1.140625l0.0625 0q0.453125 -0.59375 1.203125 -0.96875q0.765625 -0.390625 1.8125 -0.390625q0.765625 0 1.34375 0.171875q0.578125 0.171875 0.953125 0.625q0.390625 0.453125 0.578125 1.203125q0.203125 0.75 0.203125 1.90625l0 5.640625l-1.5 0zm8.329987 -2.53125q0 -0.5625 -0.34375 -0.875q-0.328125 -0.328125 -0.828125 -0.53125q-0.5 -0.21875 -1.09375 -0.40625q-0.578125 -0.203125 -1.078125 -0.515625q-0.484375 -0.3125 -0.828125 -0.796875q-0.328125 -0.484375 -0.328125 -1.296875q0 -1.34375 0.765625 -1.96875q0.765625 -0.625 2.125 -0.625q1.0 0 1.6875 0.171875q0.6875 0.171875 1.1875 0.421875l-0.359375 1.234375q-0.421875 -0.203125 -1.03125 -0.359375q-0.609375 -0.171875 -1.296875 -0.171875q-0.828125 0 -1.21875 0.28125q-0.375 0.28125 -0.375 0.96875q0 0.484375 0.328125 0.765625q0.34375 0.265625 0.84375 0.484375q0.5 0.203125 1.078125 0.421875q0.59375 0.203125 1.078125 0.546875q0.5 0.328125 0.828125 0.84375q0.34375 0.5 0.34375 1.34375q0 0.59375 -0.203125 1.125q-0.1875 0.515625 -0.59375 0.890625q-0.40625 0.375 -1.015625 0.578125q-0.609375 0.21875 -1.4375 0.21875q-1.0625 0 -1.8125 -0.203125q-0.734375 -0.203125 -1.234375 -0.484375l0.4375 -1.265625q0.4375 0.234375 1.125 0.453125q0.6875 0.203125 1.390625 0.203125q0.8125 0 1.328125 -0.3125q0.53125 -0.328125 0.53125 -1.140625zm10.557404 1.78125q-0.5625 0.453125 -1.421875 0.71875q-0.84375 0.25 -1.796875 0.25q-1.0625 0 -1.84375 -0.34375q-0.78125 -0.34375 -1.28125 -0.984375q-0.5 -0.640625 -0.75 -1.53125q-0.234375 -0.90625 -0.234375 -2.03125q0 -2.375 1.0625 -3.625q1.0625 -1.25 3.03125 -1.25q0.640625 0 1.265625 0.140625q0.640625 0.140625 1.140625 0.53125q0.5 0.390625 0.8125 1.109375q0.328125 0.71875 0.328125 1.890625q0 0.609375 -0.109375 1.359375l-5.984375 0q0 0.828125 0.15625 1.46875q0.171875 0.625 0.515625 1.0625q0.359375 0.4375 0.921875 0.671875q0.578125 0.234375 1.40625 0.234375q0.625 0 1.265625 -0.21875q0.640625 -0.234375 0.953125 -0.53125l0.5625 1.078125zm-3.21875 -7.5q-1.09375 0 -1.765625 0.578125q-0.65625 0.578125 -0.78125 1.984375l4.625 0q0 -1.421875 -0.546875 -1.984375q-0.53125 -0.578125 -1.53125 -0.578125zm10.289856 0.359375q-0.5625 -0.1875 -1.0625 -0.1875q-0.8125 0 -1.28125 0.4375q-0.453125 0.4375 -0.578125 1.109375l0 6.53125l-1.484375 0l0 -9.328125l1.046875 0l0.28125 1.140625l0.0625 0q0.359375 -0.640625 0.84375 -0.984375q0.5 -0.34375 1.265625 -0.34375q0.546875 0 1.21875 0.1875l-0.3125 1.4375zm1.2625122 -1.4375l1.453125 0l0 -1.84375l1.5 -0.4375l0 2.28125l2.53125 0l0 1.3125l-2.53125 0l0 5.15625q0 0.96875 0.234375 1.375q0.25 0.40625 0.828125 0.40625q0.484375 0 0.8125 -0.09375q0.34375 -0.109375 0.75 -0.28125l0.34375 1.140625q-0.515625 0.234375 -1.109375 0.375q-0.59375 0.15625 -1.28125 0.15625q-1.140625 0 -1.609375 -0.640625q-0.46875 -0.640625 -0.46875 -2.15625l0 -5.4375l-1.453125 0l0 -1.3125z" fill-rule="nonzero"/><path fill="#000000" d="m383.50104 92.09583l-1.3125 -0.171875l0 -0.4375q0.296875 -0.109375 0.65625 -0.21875q0.359375 -0.109375 0.71875 -0.203125q0.359375 -0.109375 0.71875 -0.171875q0.359375 -0.078125 0.65625 -0.109375l0.390625 0.203125l-1.640625 7.78125l0.09375 0q0.328125 -0.671875 0.734375 -1.296875q0.40625 -0.640625 0.859375 -1.125q0.453125 -0.484375 0.953125 -0.78125q0.515625 -0.296875 1.0625 -0.296875q1.0 0 1.578125 0.6875q0.578125 0.6875 0.578125 2.140625q0 1.4375 -0.40625 2.703125q-0.40625 1.25 -1.140625 2.203125q-0.71875 0.9375 -1.75 1.484375q-1.015625 0.546875 -2.265625 0.546875q-0.921875 0 -1.71875 -0.234375q-0.78125 -0.234375 -1.15625 -0.546875l2.390625 -12.15625zm3.109375 4.328125q-0.484375 0 -0.953125 0.4375q-0.46875 0.421875 -0.875 1.03125q-0.390625 0.59375 -0.71875 1.265625q-0.328125 0.65625 -0.546875 1.109375l-0.703125 3.578125q0.28125 0.1875 0.6875 0.296875q0.421875 0.09375 0.84375 0.09375q0.71875 0 1.359375 -0.5q0.640625 -0.5 1.125 -1.328125q0.5 -0.828125 0.765625 -1.859375q0.28125 -1.03125 0.265625 -2.09375q0.015625 -0.890625 -0.28125 -1.453125q-0.296875 -0.578125 -0.96875 -0.578125z" fill-rule="nonzero"/><path fill="#000000" d="m509.03543 113.973175c0 -2.0873795 1.6921692 -3.7795334 3.7795105 -3.7795334c1.0024414 0 1.9637451 0.398201 2.6725464 1.1070023c0.70880127 0.70880127 1.1069946 1.6701355 1.1069946 2.6725311c0 2.0873718 -1.6921387 3.7795258 -3.779541 3.7795258c-2.0873413 0 -3.7795105 -1.6921539 -3.7795105 -3.7795258z" fill-rule="evenodd"/><path stroke="#000000" stroke-width="1.0" stroke-linejoin="round" stroke-linecap="butt" d="m509.03543 113.973175c0 -2.0873795 1.6921692 -3.7795334 3.7795105 -3.7795334c1.0024414 0 1.9637451 0.398201 2.6725464 1.1070023c0.70880127 0.70880127 1.1069946 1.6701355 1.1069946 2.6725311c0 2.0873718 -1.6921387 3.7795258 -3.779541 3.7795258c-2.0873413 0 -3.7795105 -1.6921539 -3.7795105 -3.7795258z" fill-rule="evenodd"/><path fill="#000000" d="m475.01968 113.973175c0 -2.0873795 1.6921387 -3.7795334 3.779541 -3.7795334c1.0023804 0 1.9637146 0.398201 2.6725159 1.1070023c0.70880127 0.70880127 1.1069946 1.6701355 1.1069946 2.6725311c0 2.0873718 -1.6921387 3.7795258 -3.7795105 3.7795258c-2.0874023 0 -3.779541 -1.6921539 -3.779541 -3.7795258z" fill-rule="evenodd"/><path stroke="#000000" stroke-width="1.0" stroke-linejoin="round" stroke-linecap="butt" d="m475.01968 113.973175c0 -2.0873795 1.6921387 -3.7795334 3.779541 -3.7795334c1.0023804 0 1.9637146 0.398201 2.6725159 1.1070023c0.70880127 0.70880127 1.1069946 1.6701355 1.1069946 2.6725311c0 2.0873718 -1.6921387 3.7795258 -3.7795105 3.7795258c-2.0874023 0 -3.779541 -1.6921539 -3.779541 -3.7795258z" fill-rule="evenodd"/><path fill="#000000" d="m546.6377 113.973175c0 -2.0873795 1.6921387 -3.7795334 3.77948 -3.7795334c1.0024414 0 1.9637451 0.398201 2.6725464 1.1070023c0.70880127 0.70880127 1.1069946 1.6701355 1.1069946 2.6725311c0 2.0873718 -1.6921387 3.7795258 -3.779541 3.7795258c-2.0873413 0 -3.77948 -1.6921539 -3.77948 -3.7795258z" fill-rule="evenodd"/><path stroke="#000000" stroke-width="1.0" stroke-linejoin="round" stroke-linecap="butt" d="m546.6377 113.973175c0 -2.0873795 1.6921387 -3.7795334 3.77948 -3.7795334c1.0024414 0 1.9637451 0.398201 2.6725464 1.1070023c0.70880127 0.70880127 1.1069946 1.6701355 1.1069946 2.6725311c0 2.0873718 -1.6921387 3.7795258 -3.779541 3.7795258c-2.0873413 0 -3.77948 -1.6921539 -3.77948 -3.7795258z" fill-rule="evenodd"/><path fill="#000000" fill-opacity="0.0" d="m475.01968 87.23763c0 -5.4895935 4.4501953 -9.939781 9.939789 -9.939781l93.50629 0c2.6361694 0 5.1643677 1.047226 7.0284424 2.911293c1.8640747 1.8640671 2.911316 4.392288 2.911316 7.028488l0 17.91571c0 5.4895935 -4.4501953 9.939781 -9.939758 9.939781l-93.50629 0c-5.4895935 0 -9.939789 -4.4501877 -9.939789 -9.939781z" fill-rule="evenodd"/><path stroke="#000000" stroke-width="2.0" stroke-linejoin="round" stroke-linecap="butt" d="m475.01968 87.23763c0 -5.4895935 4.4501953 -9.939781 9.939789 -9.939781l93.50629 0c2.6361694 0 5.1643677 1.047226 7.0284424 2.911293c1.8640747 1.8640671 2.911316 4.392288 2.911316 7.028488l0 17.91571c0 5.4895935 -4.4501953 9.939781 -9.939758 9.939781l-93.50629 0c-5.4895935 0 -9.939789 -4.4501877 -9.939789 -9.939781z" fill-rule="evenodd"/><path fill="#000000" d="m496.0262 88.36049l-1.6875 -0.203125l0 -0.5625q0.390625 -0.140625 0.84375 -0.28125q0.453125 -0.140625 0.921875 -0.265625q0.46875 -0.140625 0.921875 -0.21875q0.46875 -0.09375 0.84375 -0.140625l0.5 0.265625l-2.109375 10.0l0.125 0q0.4375 -0.859375 0.953125 -1.671875q0.515625 -0.8125 1.09375 -1.4375q0.59375 -0.625 1.234375 -1.0q0.65625 -0.390625 1.375 -0.390625q1.265625 0 2.015625 0.890625q0.75 0.875 0.75 2.75q0 1.84375 -0.515625 3.46875q-0.515625 1.625 -1.453125 2.84375q-0.9375 1.203125 -2.265625 1.90625q-1.3125 0.703125 -2.921875 0.703125q-1.171875 0 -2.203125 -0.296875q-1.015625 -0.296875 -1.5 -0.703125l3.078125 -15.65625zm4.0 5.578125q-0.625 0 -1.21875 0.546875q-0.59375 0.546875 -1.109375 1.328125q-0.515625 0.78125 -0.9375 1.640625q-0.421875 0.84375 -0.71875 1.421875l-0.90625 4.609375q0.359375 0.234375 0.890625 0.375q0.546875 0.125 1.078125 0.125q0.9375 0 1.765625 -0.640625q0.828125 -0.65625 1.453125 -1.703125q0.625 -1.0625 0.984375 -2.390625q0.359375 -1.328125 0.328125 -2.703125q0.03125 -1.15625 -0.359375 -1.875q-0.375 -0.734375 -1.25 -0.734375zm32.5925 9.59375q0.65625 0 1.296875 -0.609375q0.65625 -0.609375 1.234375 -1.46875q0.578125 -0.875 1.03125 -1.8125q0.453125 -0.9375 0.71875 -1.546875l0.765625 -4.109375q-0.359375 -0.234375 -0.671875 -0.3125q-0.296875 -0.09375 -0.84375 -0.125q-1.15625 0.03125 -2.0625 0.71875q-0.90625 0.671875 -1.53125 1.75q-0.625 1.0625 -0.953125 2.390625q-0.328125 1.3125 -0.328125 2.578125q0 1.234375 0.296875 1.890625q0.3125 0.65625 1.046875 0.65625zm3.796875 -3.5q-0.3125 0.859375 -0.796875 1.75q-0.46875 0.890625 -1.09375 1.609375q-0.609375 0.71875 -1.34375 1.171875q-0.71875 0.453125 -1.5625 0.453125q-2.5 0 -2.5 -3.640625q0 -1.703125 0.484375 -3.296875q0.484375 -1.59375 1.390625 -2.828125q0.90625 -1.25 2.203125 -1.984375q1.296875 -0.75 2.953125 -0.75q0.625 0 0.9375 0.09375q0.3125 0.078125 0.796875 0.296875l0.90625 -4.546875l-1.671875 -0.203125l0 -0.609375q0.359375 -0.140625 0.78125 -0.265625q0.4375 -0.140625 0.90625 -0.25q0.46875 -0.109375 0.9375 -0.203125q0.484375 -0.09375 0.890625 -0.140625l0.515625 0.1875l-3.296875 16.546875l1.75 0l0 0.59375q-0.46875 0.375 -1.140625 0.625q-0.671875 0.234375 -1.328125 0.234375q-0.6875 0 -1.0 -0.296875q-0.296875 -0.296875 -0.296875 -0.640625q0 -0.421875 0.171875 -1.40625q0.171875 -0.984375 0.5 -2.5l-0.09375 0zm30.886658 -6.09375l-1.75 0l0 -0.625q0.484375 -0.265625 1.015625 -0.46875q0.546875 -0.203125 1.03125 -0.328125l0.15625 -0.84375q0.3125 -1.484375 0.84375 -2.453125q0.546875 -0.96875 1.265625 -1.53125q0.734375 -0.5625 1.59375 -0.78125q0.859375 -0.21875 1.84375 -0.21875q0.40625 0 0.96875 0.09375q0.5625 0.09375 0.953125 0.296875q-0.046875 0.515625 -0.25 1.078125q-0.203125 0.5625 -0.6875 0.984375l-1.828125 -1.5q-0.421875 0.125 -0.78125 0.265625q-0.359375 0.140625 -0.6875 0.546875q-0.328125 0.390625 -0.625 1.109375q-0.28125 0.71875 -0.546875 1.96875l-0.234375 1.203125l2.671875 0q0.109375 0.59375 -0.25 1.203125l-2.65625 0l-1.546875 9.765625q-0.25 1.703125 -0.875 2.828125q-0.625 1.125 -1.34375 1.8125q-0.703125 0.703125 -1.375 1.03125q-0.671875 0.34375 -1.03125 0.453125l-0.21875 -0.53125q0.296875 -0.140625 0.703125 -0.515625q0.40625 -0.375 0.796875 -1.0q0.390625 -0.625 0.734375 -1.53125q0.359375 -0.890625 0.546875 -2.09375l1.5625 -10.21875z" fill-rule="nonzero"/><path fill="#000000" fill-opacity="0.0" d="m512.81494 77.29785l0 37.795273" fill-rule="evenodd"/><path stroke="#000000" stroke-width="2.0" stroke-linejoin="round" stroke-linecap="butt" d="m512.81494 77.29785l0 37.795273" fill-rule="evenodd"/><path fill="#000000" fill-opacity="0.0" d="m550.6102 77.29785l0 37.795273" fill-rule="evenodd"/><path stroke="#000000" stroke-width="2.0" stroke-linejoin="round" stroke-linecap="butt" d="m550.6102 77.29785l0 37.795273" fill-rule="evenodd"/><path fill="#000000" d="m580.84644 113.973175c0 -2.0873795 1.6921997 -3.7795334 3.779541 -3.7795334c1.0023804 0 1.9637451 0.398201 2.6725464 1.1070023c0.70880127 0.70880127 1.1069946 1.6701355 1.1069946 2.6725311c0 2.0873718 -1.6921387 3.7795258 -3.779541 3.7795258c-2.0873413 0 -3.779541 -1.6921539 -3.779541 -3.7795258z" fill-rule="evenodd"/><path stroke="#000000" stroke-width="1.0" stroke-linejoin="round" stroke-linecap="butt" d="m580.84644 113.973175c0 -2.0873795 1.6921997 -3.7795334 3.779541 -3.7795334c1.0023804 0 1.9637451 0.398201 2.6725464 1.1070023c0.70880127 0.70880127 1.1069946 1.6701355 1.1069946 2.6725311c0 2.0873718 -1.6921387 3.7795258 -3.779541 3.7795258c-2.0873413 0 -3.779541 -1.6921539 -3.779541 -3.7795258z" fill-rule="evenodd"/><path fill="#000000" fill-opacity="0.0" d="m531.7126 23.223312l0 54.078743" fill-rule="evenodd"/><path stroke="#000000" stroke-width="1.9763779527559056" stroke-linejoin="round" stroke-linecap="butt" d="m531.7126 23.223312l0 42.220474" fill-rule="evenodd"/><path fill="#000000" stroke="#000000" stroke-width="1.9763779527559056" stroke-linecap="butt" d="m528.4482 65.44379l3.2644043 8.968994l3.2644653 -8.968994z" fill-rule="evenodd"/><path fill="#000000" fill-opacity="0.0" d="m520.18506 8.987092l23.055115 0l0 14.23622l-23.055115 0z" fill-rule="evenodd"/><path fill="#000000" d="m536.49524 16.353937q0 -0.640625 0.375 -1.015625q0.375 -0.375 1.0 -0.375q0.640625 0 1.03125 0.375q0.390625 0.375 0.390625 1.015625q0 0.625 -0.390625 1.015625q-0.390625 0.375 -1.03125 0.375q-0.625 0 -1.0 -0.375q-0.375 -0.390625 -0.375 -1.015625zm-6.09375 0q0 -0.640625 0.375 -1.015625q0.375 -0.375 1.0 -0.375q0.640625 0 1.015625 0.375q0.390625 0.375 0.390625 1.015625q0 0.625 -0.390625 1.015625q-0.375 0.375 -1.015625 0.375q-0.625 0 -1.0 -0.375q-0.375 -0.390625 -0.375 -1.015625zm-6.09375 0q0 -0.640625 0.375 -1.015625q0.375 -0.375 1.0 -0.375q0.640625 0 1.015625 0.375q0.390625 0.375 0.390625 1.015625q0 0.625 -0.390625 1.015625q-0.375 0.375 -1.015625 0.375q-0.625 0 -1.0 -0.375q-0.375 -0.390625 -0.375 -1.015625z" fill-rule="nonzero"/><path fill="#000000" fill-opacity="0.0" d="m920.81494 87.04603c0 -5.489586 4.4501953 -9.939781 9.939819 -9.939781l17.91571 0c2.6361694 0 5.1644287 1.047226 7.0284424 2.911293c1.8640747 1.8640747 2.911316 4.392296 2.911316 7.028488l0 17.915718c0 5.489586 -4.4501953 9.939781 -9.939758 9.939781l-17.91571 0c-5.489624 0 -9.939819 -4.4501953 -9.939819 -9.939781z" fill-rule="evenodd"/><path stroke="#000000" stroke-width="2.0" stroke-linejoin="round" stroke-linecap="butt" d="m920.81494 87.04603c0 -5.489586 4.4501953 -9.939781 9.939819 -9.939781l17.91571 0c2.6361694 0 5.1644287 1.047226 7.0284424 2.911293c1.8640747 1.8640747 2.911316 4.392296 2.911316 7.028488l0 17.915718c0 5.489586 -4.4501953 9.939781 -9.939758 9.939781l-17.91571 0c-5.489624 0 -9.939819 -4.4501953 -9.939819 -9.939781z" fill-rule="evenodd"/><path fill="#000000" d="m939.2424 93.74701l-1.75 0l0 -0.625q0.484375 -0.265625 1.015625 -0.46875q0.546875 -0.203125 1.03125 -0.328125l0.15625 -0.84375q0.3125 -1.484375 0.84375 -2.453125q0.546875 -0.96875 1.265625 -1.53125q0.734375 -0.5625 1.59375 -0.78125q0.859375 -0.21875 1.84375 -0.21875q0.40625 0 0.96875 0.09375q0.5625 0.09375 0.953125 0.296875q-0.046875 0.515625 -0.25 1.078125q-0.203125 0.5625 -0.6875 0.984375l-1.828125 -1.5q-0.421875 0.125 -0.78125 0.265625q-0.359375 0.140625 -0.6875 0.546875q-0.328125 0.390625 -0.625 1.109375q-0.28125 0.71875 -0.546875 1.96875l-0.234375 1.203125l2.671875 0q0.109375 0.59375 -0.25 1.203125l-2.65625 0l-1.546875 9.765625q-0.25 1.703125 -0.875 2.828125q-0.625 1.125 -1.34375 1.8125q-0.703125 0.703125 -1.375 1.03125q-0.671875 0.34375 -1.03125 0.453125l-0.21875 -0.53125q0.296875 -0.140625 0.703125 -0.515625q0.40625 -0.375 0.796875 -1.0q0.390625 -0.625 0.734375 -1.53125q0.359375 -0.890625 0.546875 -2.09375l1.5625 -10.21875z" fill-rule="nonzero"/><path fill="#000000" d="m951.0512 113.78157c0 -2.0873718 1.6921387 -3.7795258 3.77948 -3.7795258c1.0024414 0 1.9637451 0.398201 2.6725464 1.1069946c0.70880127 0.70880127 1.1069946 1.6701431 1.1069946 2.6725311c0 2.0873795 -1.6921387 3.7795258 -3.779541 3.7795258c-2.0873413 0 -3.77948 -1.6921463 -3.77948 -3.7795258z" fill-rule="evenodd"/><path stroke="#000000" stroke-width="1.0" stroke-linejoin="round" stroke-linecap="butt" d="m951.0512 113.78157c0 -2.0873718 1.6921387 -3.7795258 3.77948 -3.7795258c1.0024414 0 1.9637451 0.398201 2.6725464 1.1069946c0.70880127 0.70880127 1.1069946 1.6701431 1.1069946 2.6725311c0 2.0873795 -1.6921387 3.7795258 -3.779541 3.7795258c-2.0873413 0 -3.77948 -1.6921463 -3.77948 -3.7795258z" fill-rule="evenodd"/><path fill="#000000" d="m920.81494 113.78157c0 -2.0873718 1.6921997 -3.7795258 3.779541 -3.7795258c1.0023804 0 1.9637451 0.398201 2.6725464 1.1069946c0.70880127 0.70880127 1.1069946 1.6701431 1.1069946 2.6725311c0 2.0873795 -1.6921387 3.7795258 -3.779541 3.7795258c-2.0873413 0 -3.779541 -1.6921463 -3.779541 -3.7795258z" fill-rule="evenodd"/><path stroke="#000000" stroke-width="1.0" stroke-linejoin="round" stroke-linecap="butt" d="m920.81494 113.78157c0 -2.0873718 1.6921997 -3.7795258 3.779541 -3.7795258c1.0023804 0 1.9637451 0.398201 2.6725464 1.1069946c0.70880127 0.70880127 1.1069946 1.6701431 1.1069946 2.6725311c0 2.0873795 -1.6921387 3.7795258 -3.779541 3.7795258c-2.0873413 0 -3.779541 -1.6921463 -3.779541 -3.7795258z" fill-rule="evenodd"/><path fill="#000000" fill-opacity="0.0" d="m842.46454 26.078741l-62.740112 51.02362" fill-rule="evenodd"/><path stroke="#000000" stroke-width="1.9763779527559056" stroke-linejoin="round" stroke-linecap="butt" d="m842.46454 26.078741l-53.54016 43.54171" fill-rule="evenodd"/><path fill="#000000" stroke="#000000" stroke-width="1.9763779527559056" stroke-linecap="butt" d="m786.8647 67.08781l-4.8986816 8.191589l9.018066 -3.1262894z" fill-rule="evenodd"/><path fill="#000000" fill-opacity="0.0" d="m876.95276 26.078741l62.771667 51.02362" fill-rule="evenodd"/><path stroke="#000000" stroke-width="1.9763779527559056" stroke-linejoin="round" stroke-linecap="butt" d="m876.95276 26.078741l53.569824 43.54397" fill-rule="evenodd"/><path fill="#000000" stroke="#000000" stroke-width="1.9763779527559056" stroke-linecap="butt" d="m928.46356 72.15587l9.018799 3.1240768l-4.900696 -8.190384z" fill-rule="evenodd"/><path fill="#000000" fill-opacity="0.0" d="m840.81104 45.155777c0 -5.7554245 4.6657104 -10.421116 10.421082 -10.421116l16.953064 0c2.763855 0 5.4144897 1.0979347 7.3688354 3.0522728c1.9543457 1.9543381 3.0523071 4.604988 3.0523071 7.368843l0 14.433357c0 5.7554245 -4.6657104 10.42112 -10.421143 10.42112l-16.953064 0c-5.755371 0 -10.421082 -4.665695 -10.421082 -10.42112z" fill-rule="evenodd"/><path fill="#000000" d="m857.8668 59.709328q0.65625 0 1.296875 -0.609375q0.65625 -0.609375 1.234375 -1.46875q0.578125 -0.875 1.03125 -1.8125q0.453125 -0.9375 0.71875 -1.546875l0.765625 -4.109375q-0.359375 -0.234375 -0.671875 -0.3125q-0.296875 -0.09375 -0.84375 -0.125q-1.15625 0.03125 -2.0625 0.71875q-0.90625 0.671875 -1.53125 1.75q-0.625 1.0625 -0.953125 2.390625q-0.328125 1.3125 -0.328125 2.578125q0 1.234375 0.296875 1.890625q0.3125 0.65625 1.046875 0.65625zm3.796875 -3.5q-0.3125 0.859375 -0.796875 1.75q-0.46875 0.890625 -1.09375 1.609375q-0.609375 0.71875 -1.34375 1.171875q-0.71875 0.453125 -1.5625 0.453125q-2.5 0 -2.5 -3.640625q0 -1.703125 0.484375 -3.296875q0.484375 -1.59375 1.390625 -2.828125q0.90625 -1.25 2.203125 -1.984375q1.296875 -0.75 2.953125 -0.75q0.625 0 0.9375 0.09375q0.3125 0.078125 0.796875 0.296875l0.90625 -4.546875l-1.671875 -0.203125l0 -0.609375q0.359375 -0.140625 0.78125 -0.265625q0.4375 -0.140625 0.90625 -0.25q0.46875 -0.109375 0.9375 -0.203125q0.484375 -0.09375 0.890625 -0.140625l0.515625 0.1875l-3.296875 16.546875l1.75 0l0 0.59375q-0.46875 0.375 -1.140625 0.625q-0.671875 0.234375 -1.328125 0.234375q-0.6875 0 -1.0 -0.296875q-0.296875 -0.296875 -0.296875 -0.640625q0 -0.421875 0.171875 -1.40625q0.171875 -0.984375 0.5 -2.5l-0.09375 0z" fill-rule="nonzero"/><path fill="#000000" fill-opacity="0.0" d="m859.7126 112.57743l0 -42.58268" fill-rule="evenodd"/><path stroke="#000000" stroke-width="1.9763779527559056" stroke-linejoin="round" stroke-linecap="butt" stroke-dasharray="1.9763779527559056,5.929133858267717" d="m859.7126 112.57743l0 -30.724411" fill-rule="evenodd"/><path fill="#000000" stroke="#000000" stroke-width="1.9763779527559056" stroke-linecap="butt" d="m862.97705 81.85302l-3.2644653 -8.968994l-3.2644043 8.968994z" fill-rule="evenodd"/><path fill="#000000" fill-opacity="0.0" d="m817.27167 112.57743l84.8819 0l0 30.519676l-84.8819 0z" fill-rule="evenodd"/><path fill="#000000" d="m827.5596 125.22914l1.03125 0l0.28125 1.125l0.0625 0q0.4375 -0.65625 1.109375 -1.0q0.6875 -0.34375 1.5625 -0.34375q1.859375 0 2.765625 1.109375q0.921875 1.09375 0.921875 3.59375q0 1.171875 -0.3125 2.109375q-0.296875 0.9375 -0.859375 1.59375q-0.5625 0.65625 -1.359375 1.015625q-0.78125 0.34375 -1.75 0.34375q-0.6875 0 -1.09375 -0.078125q-0.40625 -0.078125 -0.875 -0.296875l0 3.890625l-1.484375 0l0 -13.0625zm3.765625 1.078125q-0.953125 0 -1.5 0.5q-0.546875 0.5 -0.78125 1.5l0 4.625q0.34375 0.265625 0.765625 0.40625q0.4375 0.140625 1.140625 0.140625q1.296875 0 2.046875 -0.953125q0.75 -0.96875 0.75 -2.84375q0 -0.765625 -0.125 -1.390625q-0.125 -0.625 -0.421875 -1.0625q-0.28125 -0.4375 -0.75 -0.671875q-0.453125 -0.25 -1.125 -0.25zm10.733643 0.359375q-0.5625 -0.1875 -1.0625 -0.1875q-0.8125 0 -1.28125 0.4375q-0.453125 0.4375 -0.578125 1.109375l0 6.53125l-1.484375 0l0 -9.328125l1.046875 0l0.28125 1.140625l0.0625 0q0.359375 -0.640625 0.84375 -0.984375q0.5 -0.34375 1.265625 -0.34375q0.546875 0 1.21875 0.1875l-0.3125 1.4375zm1.4212646 3.21875q0 -2.359375 1.046875 -3.609375q1.046875 -1.265625 3.03125 -1.265625q1.046875 0 1.8125 0.34375q0.78125 0.34375 1.28125 0.984375q0.5 0.640625 0.734375 1.546875q0.25 0.90625 0.25 2.0q0 2.375 -1.046875 3.640625q-1.046875 1.25 -3.03125 1.25q-1.046875 0 -1.828125 -0.34375q-0.765625 -0.34375 -1.265625 -0.984375q-0.5 -0.640625 -0.75 -1.546875q-0.234375 -0.90625 -0.234375 -2.015625zm1.546875 0q0 0.71875 0.140625 1.375q0.140625 0.640625 0.4375 1.140625q0.296875 0.484375 0.78125 0.78125q0.484375 0.296875 1.171875 0.296875q2.53125 0.015625 2.53125 -3.59375q0 -0.71875 -0.140625 -1.375q-0.140625 -0.65625 -0.4375 -1.140625q-0.296875 -0.484375 -0.78125 -0.765625q-0.484375 -0.296875 -1.171875 -0.296875q-2.53125 -0.015625 -2.53125 3.578125zm14.437256 4.671875l0 -5.28125q0 -0.75 -0.078125 -1.296875q-0.0625 -0.546875 -0.25 -0.921875q-0.171875 -0.375 -0.53125 -0.5625q-0.34375 -0.1875 -0.890625 -0.1875q-0.859375 0 -1.4375 0.53125q-0.5625 0.515625 -0.796875 1.296875l0 6.421875l-1.484375 0l0 -9.328125l1.046875 0l0.28125 1.140625l0.0625 0q0.515625 -0.59375 1.171875 -0.96875q0.671875 -0.390625 1.734375 -0.390625q0.890625 0 1.453125 0.34375q0.578125 0.34375 0.890625 1.203125q0.421875 -0.734375 1.171875 -1.140625q0.765625 -0.40625 1.71875 -0.40625q0.78125 0 1.3125 0.171875q0.546875 0.171875 0.90625 0.625q0.359375 0.453125 0.515625 1.21875q0.15625 0.765625 0.15625 1.9375l0 5.59375l-1.484375 0l0 -5.609375q0 -0.671875 -0.078125 -1.171875q-0.0625 -0.5 -0.265625 -0.8125q-0.1875 -0.328125 -0.53125 -0.484375q-0.34375 -0.171875 -0.90625 -0.171875q-0.9375 0 -1.453125 0.53125q-0.515625 0.515625 -0.75 1.484375l0 6.234375l-1.484375 0zm9.16449 -4.671875q0 -2.359375 1.046875 -3.609375q1.046875 -1.265625 3.03125 -1.265625q1.046875 0 1.8125 0.34375q0.78125 0.34375 1.28125 0.984375q0.5 0.640625 0.734375 1.546875q0.25 0.90625 0.25 2.0q0 2.375 -1.046875 3.640625q-1.046875 1.25 -3.03125 1.25q-1.046875 0 -1.828125 -0.34375q-0.765625 -0.34375 -1.265625 -0.984375q-0.5 -0.640625 -0.75 -1.546875q-0.234375 -0.90625 -0.234375 -2.015625zm1.546875 0q0 0.71875 0.140625 1.375q0.140625 0.640625 0.4375 1.140625q0.296875 0.484375 0.78125 0.78125q0.484375 0.296875 1.171875 0.296875q2.53125 0.015625 2.53125 -3.59375q0 -0.71875 -0.140625 -1.375q-0.140625 -0.65625 -0.4375 -1.140625q-0.296875 -0.484375 -0.78125 -0.765625q-0.484375 -0.296875 -1.171875 -0.296875q-2.53125 -0.015625 -2.53125 3.578125zm7.734131 -4.65625l1.453125 0l0 -1.84375l1.5 -0.4375l0 2.28125l2.53125 0l0 1.3125l-2.53125 0l0 5.15625q0 0.96875 0.234375 1.375q0.25 0.40625 0.828125 0.40625q0.484375 0 0.8125 -0.09375q0.34375 -0.109375 0.75 -0.28125l0.34375 1.140625q-0.515625 0.234375 -1.109375 0.375q-0.59375 0.15625 -1.28125 0.15625q-1.140625 0 -1.609375 -0.640625q-0.46875 -0.640625 -0.46875 -2.15625l0 -5.4375l-1.453125 0l0 -1.3125zm14.166016 8.578125q-0.5625 0.453125 -1.421875 0.71875q-0.84375 0.25 -1.796875 0.25q-1.0625 0 -1.84375 -0.34375q-0.78125 -0.34375 -1.28125 -0.984375q-0.5 -0.640625 -0.75 -1.53125q-0.234375 -0.90625 -0.234375 -2.03125q0 -2.375 1.0625 -3.625q1.0625 -1.25 3.03125 -1.25q0.640625 0 1.265625 0.140625q0.640625 0.140625 1.140625 0.53125q0.5 0.390625 0.8125 1.109375q0.328125 0.71875 0.328125 1.890625q0 0.609375 -0.109375 1.359375l-5.984375 0q0 0.828125 0.15625 1.46875q0.171875 0.625 0.515625 1.0625q0.359375 0.4375 0.921875 0.671875q0.578125 0.234375 1.40625 0.234375q0.625 0 1.265625 -0.21875q0.640625 -0.234375 0.953125 -0.53125l0.5625 1.078125zm-3.21875 -7.5q-1.09375 0 -1.765625 0.578125q-0.65625 0.578125 -0.78125 1.984375l4.625 0q0 -1.421875 -0.546875 -1.984375q-0.53125 -0.578125 -1.53125 -0.578125z" fill-rule="nonzero"/><path fill="#000000" fill-opacity="0.0" d="m848.1811 8.987092l23.055115 0l0 14.23622l-23.055115 0z" fill-rule="evenodd"/><path fill="#000000" d="m864.49133 16.353937q0 -0.640625 0.375 -1.015625q0.375 -0.375 1.0 -0.375q0.640625 0 1.03125 0.375q0.390625 0.375 0.390625 1.015625q0 0.625 -0.390625 1.015625q-0.390625 0.375 -1.03125 0.375q-0.625 0 -1.0 -0.375q-0.375 -0.390625 -0.375 -1.015625zm-6.09375 0q0 -0.640625 0.375 -1.015625q0.375 -0.375 1.0 -0.375q0.640625 0 1.015625 0.375q0.390625 0.375 0.390625 1.015625q0 0.625 -0.390625 1.015625q-0.375 0.375 -1.015625 0.375q-0.625 0 -1.0 -0.375q-0.375 -0.390625 -0.375 -1.015625zm-6.09375 0q0 -0.640625 0.375 -1.015625q0.375 -0.375 1.0 -0.375q0.640625 0 1.015625 0.375q0.390625 0.375 0.390625 1.015625q0 0.625 -0.390625 1.015625q-0.375 0.375 -1.015625 0.375q-0.625 0 -1.0 -0.375q-0.375 -0.390625 -0.375 -1.015625z" fill-rule="nonzero"/><path fill="#000000" fill-opacity="0.0" d="m842.46454 18.96063l34.48822 0l0 14.236219l-34.48822 0z" fill-rule="evenodd"/><path fill="#efefef" d="m639.79266 85.21594l71.86383 0l0 -7.541832l23.978699 20.220474l-23.978699 20.220467l0 -7.541832l-71.86383 0z" fill-rule="evenodd"/><path stroke="#000000" stroke-width="1.0" stroke-linejoin="round" stroke-linecap="butt" d="m639.79266 85.21594l71.86383 0l0 -7.541832l23.978699 20.220474l-23.978699 20.220467l0 -7.541832l-71.86383 0z" fill-rule="evenodd"/><path fill="#000000" d="m668.3836 102.28333q0 -0.5625 -0.34375 -0.875q-0.328125 -0.328125 -0.828125 -0.53125q-0.5 -0.21875 -1.09375 -0.40625q-0.578125 -0.203125 -1.078125 -0.515625q-0.484375 -0.3125 -0.828125 -0.796875q-0.328125 -0.484375 -0.328125 -1.296875q0 -1.34375 0.765625 -1.96875q0.765625 -0.625 2.125 -0.625q1.0 0 1.6875 0.171875q0.6875 0.171875 1.1875 0.421875l-0.359375 1.234375q-0.421875 -0.203125 -1.03125 -0.359375q-0.609375 -0.171875 -1.296875 -0.171875q-0.828125 0 -1.21875 0.28125q-0.375 0.28125 -0.375 0.96875q0 0.484375 0.328125 0.765625q0.34375 0.265625 0.84375 0.484375q0.5 0.203125 1.078125 0.421875q0.59375 0.203125 1.078125 0.546875q0.5 0.328125 0.828125 0.84375q0.34375 0.5 0.34375 1.34375q0 0.59375 -0.203125 1.125q-0.1875 0.515625 -0.59375 0.890625q-0.40625 0.375 -1.015625 0.578125q-0.609375 0.21875 -1.4375 0.21875q-1.0625 0 -1.8125 -0.203125q-0.734375 -0.203125 -1.234375 -0.484375l0.4375 -1.265625q0.4375 0.234375 1.125 0.453125q0.6875 0.203125 1.390625 0.203125q0.8125 0 1.328125 -0.3125q0.53125 -0.328125 0.53125 -1.140625zm3.744873 -6.796875l1.03125 0l0.28125 1.125l0.0625 0q0.4375 -0.65625 1.109375 -1.0q0.6875 -0.34375 1.5625 -0.34375q1.859375 0 2.765625 1.109375q0.921875 1.09375 0.921875 3.59375q0 1.171875 -0.3125 2.109375q-0.296875 0.9375 -0.859375 1.59375q-0.5625 0.65625 -1.359375 1.015625q-0.78125 0.34375 -1.75 0.34375q-0.6875 0 -1.09375 -0.078125q-0.40625 -0.078125 -0.875 -0.296875l0 3.890625l-1.484375 0l0 -13.0625zm3.765625 1.078125q-0.953125 0 -1.5 0.5q-0.546875 0.5 -0.78125 1.5l0 4.625q0.34375 0.265625 0.765625 0.40625q0.4375 0.140625 1.140625 0.140625q1.296875 0 2.046875 -0.953125q0.75 -0.96875 0.75 -2.84375q0 -0.765625 -0.125 -1.390625q-0.125 -0.625 -0.421875 -1.0625q-0.28125 -0.4375 -0.75 -0.671875q-0.453125 -0.25 -1.125 -0.25zm7.9837036 5.953125q0 0.65625 0.21875 0.9375q0.234375 0.28125 0.640625 0.28125q0.25 0 0.515625 -0.03125q0.28125 -0.046875 0.640625 -0.171875l0.171875 1.171875q-0.296875 0.140625 -0.828125 0.234375q-0.53125 0.09375 -0.921875 0.09375q-0.84375 0 -1.390625 -0.46875q-0.53125 -0.484375 -0.53125 -1.609375l0 -11.203125l1.484375 0l0 10.765625zm4.103882 -7.03125l1.5 0l0 9.328125l-1.5 0l0 -9.328125zm-0.3125 -2.828125q0 -0.4375 0.28125 -0.734375q0.296875 -0.3125 0.75 -0.3125q0.4375 0 0.75 0.3125q0.328125 0.296875 0.328125 0.734375q0 0.421875 -0.328125 0.703125q-0.3125 0.28125 -0.75 0.28125q-0.453125 0 -0.75 -0.28125q-0.28125 -0.28125 -0.28125 -0.703125zm3.765503 2.828125l1.453125 0l0 -1.84375l1.5 -0.4375l0 2.28125l2.53125 0l0 1.3125l-2.53125 0l0 5.15625q0 0.96875 0.234375 1.375q0.25 0.40625 0.828125 0.40625q0.484375 0 0.8125 -0.09375q0.34375 -0.109375 0.75 -0.28125l0.34375 1.140625q-0.515625 0.234375 -1.109375 0.375q-0.59375 0.15625 -1.28125 0.15625q-1.140625 0 -1.609375 -0.640625q-0.46875 -0.640625 -0.46875 -2.15625l0 -5.4375l-1.453125 0l0 -1.3125z" fill-rule="nonzero"/><path fill="#000000" fill-opacity="0.0" d="m82.826775 171.266c0 -5.755417 4.6656876 -10.421112 10.421112 -10.421112l16.953049 0c2.7638474 0 5.4144974 1.0979309 7.3688354 3.0522766c1.9543381 1.9543304 3.0522766 4.6049957 3.0522766 7.3688354l0 14.433365c0 5.755417 -4.665695 10.421112 -10.421112 10.421112l-16.953049 0c-5.7554245 0 -10.421112 -4.665695 -10.421112 -10.421112z" fill-rule="evenodd"/><path fill="#000000" d="m99.34993 170.64769l-1.6875 -0.203125l0 -0.5625q0.390625 -0.140625 0.84375 -0.28125q0.453125 -0.140625 0.921875 -0.265625q0.46875 -0.140625 0.921875 -0.21875q0.46875 -0.09375 0.84375 -0.140625l0.5 0.265625l-2.109375 10.0l0.125 0q0.4375 -0.859375 0.953125 -1.671875q0.515625 -0.8125 1.09375 -1.4375q0.59375 -0.625 1.234375 -1.0q0.65625 -0.390625 1.375 -0.390625q1.265625 0 2.015625 0.890625q0.75 0.875 0.75 2.75q0 1.84375 -0.515625 3.46875q-0.515625 1.625 -1.453125 2.84375q-0.9375 1.203125 -2.265625 1.90625q-1.3125 0.703125 -2.921875 0.703125q-1.171875 0 -2.203125 -0.296875q-1.015625 -0.296875 -1.5 -0.703125l3.078125 -15.65625zm4.0 5.578125q-0.625 0 -1.21875 0.546875q-0.59375 0.546875 -1.109375 1.328125q-0.515625 0.78125 -0.9375 1.640625q-0.421875 0.84375 -0.71875 1.421875l-0.90625 4.609375q0.359375 0.234375 0.890625 0.375q0.546875 0.125 1.078125 0.125q0.9375 0 1.765625 -0.640625q0.828125 -0.65625 1.453125 -1.703125q0.625 -1.0625 0.984375 -2.390625q0.359375 -1.328125 0.328125 -2.703125q0.03125 -1.15625 -0.359375 -1.875q-0.375 -0.734375 -1.25 -0.734375z" fill-rule="nonzero"/><path fill="#000000" fill-opacity="0.0" d="m101.72835 230.62315l0 -34.48819" fill-rule="evenodd"/><path stroke="#000000" stroke-width="1.9763779527559056" stroke-linejoin="round" stroke-linecap="butt" stroke-dasharray="1.9763779527559056,5.929133858267717" d="m101.72835 230.62315l0 -22.629913" fill-rule="evenodd"/><path fill="#000000" stroke="#000000" stroke-width="1.9763779527559056" stroke-linecap="butt" d="m104.99279 207.99324l-3.2644424 -8.969009l-3.26445 8.969009z" fill-rule="evenodd"/><path fill="#000000" fill-opacity="0.0" d="m59.287403 230.62315l84.8819 0l0 30.519669l-84.8819 0z" fill-rule="evenodd"/><path fill="#000000" d="m69.575325 243.27486l1.03125 0l0.28125 1.125l0.0625 0q0.4375 -0.65625 1.109375 -1.0q0.6875 -0.34375 1.5625 -0.34375q1.859375 0 2.765625 1.109375q0.921875 1.09375 0.921875 3.59375q0 1.171875 -0.3125 2.109375q-0.296875 0.9375 -0.859375 1.59375q-0.5625 0.65625 -1.359375 1.015625q-0.78125 0.34375 -1.75 0.34375q-0.6875 0 -1.09375 -0.078125q-0.40625 -0.078125 -0.875 -0.296875l0 3.8906403l-1.484375 0l0 -13.062515zm3.765625 1.078125q-0.953125 0 -1.5 0.5q-0.546875 0.5 -0.78125 1.5l0 4.625q0.34375 0.265625 0.765625 0.40625q0.4375 0.140625 1.140625 0.140625q1.296875 0 2.046875 -0.953125q0.75 -0.96875 0.75 -2.84375q0 -0.765625 -0.125 -1.390625q-0.125 -0.625 -0.421875 -1.0625q-0.28125 -0.4375 -0.75 -0.671875q-0.453125 -0.25 -1.125 -0.25zm10.733658 0.359375q-0.5625 -0.1875 -1.0625 -0.1875q-0.8125 0 -1.28125 0.4375q-0.453125 0.4375 -0.578125 1.109375l0 6.53125l-1.484375 0l0 -9.328125l1.046875 0l0.28125 1.140625l0.0625 0q0.359375 -0.640625 0.84375 -0.984375q0.5 -0.34375 1.265625 -0.34375q0.546875 0 1.21875 0.1875l-0.3125 1.4375zm1.4212494 3.21875q0 -2.359375 1.046875 -3.609375q1.046875 -1.265625 3.03125 -1.265625q1.046875 0 1.8125 0.34375q0.78125 0.34375 1.28125 0.984375q0.5 0.640625 0.734375 1.546875q0.25 0.90625 0.25 2.0q0 2.375 -1.046875 3.640625q-1.046875 1.25 -3.03125 1.25q-1.046875 0 -1.828125 -0.34375q-0.765625 -0.34375 -1.265625 -0.984375q-0.5 -0.640625 -0.75 -1.546875q-0.234375 -0.90625 -0.234375 -2.015625zm1.546875 0q0 0.71875 0.140625 1.375q0.140625 0.640625 0.4375 1.140625q0.296875 0.484375 0.78125 0.78125q0.484375 0.296875 1.171875 0.296875q2.53125 0.015625 2.53125 -3.59375q0 -0.71875 -0.140625 -1.375q-0.140625 -0.65625 -0.4375 -1.140625q-0.296875 -0.484375 -0.78125 -0.765625q-0.484375 -0.296875 -1.171875 -0.296875q-2.53125 -0.015625 -2.53125 3.578125zm14.437256 4.671875l0 -5.28125q0 -0.75 -0.078125 -1.296875q-0.0625 -0.546875 -0.25 -0.921875q-0.171875 -0.375 -0.53125 -0.5625q-0.34375 -0.1875 -0.890625 -0.1875q-0.859375 0 -1.4375 0.53125q-0.5625 0.515625 -0.796875 1.296875l0 6.421875l-1.484375 0l0 -9.328125l1.046875 0l0.28125 1.140625l0.0625 0q0.515625 -0.59375 1.171875 -0.96875q0.671875 -0.390625 1.734375 -0.390625q0.890625 0 1.453125 0.34375q0.578125 0.34375 0.890625 1.203125q0.421875 -0.734375 1.171875 -1.140625q0.765625 -0.40625 1.71875 -0.40625q0.78125 0 1.3125 0.171875q0.546875 0.171875 0.90625 0.625q0.359375 0.453125 0.515625 1.21875q0.15625 0.765625 0.15625 1.9375l0 5.59375l-1.484375 0l0 -5.609375q0 -0.671875 -0.078125 -1.171875q-0.0625 -0.5 -0.265625 -0.8125q-0.1875 -0.328125 -0.53125 -0.484375q-0.34375 -0.171875 -0.90625 -0.171875q-0.9375 0 -1.453125 0.53125q-0.515625 0.515625 -0.75 1.484375l0 6.234375l-1.484375 0zm9.164505 -4.671875q0 -2.359375 1.046875 -3.609375q1.046875 -1.265625 3.03125 -1.265625q1.046875 0 1.8125 0.34375q0.78125 0.34375 1.28125 0.984375q0.5 0.640625 0.734375 1.546875q0.25 0.90625 0.25 2.0q0 2.375 -1.046875 3.640625q-1.046875 1.25 -3.03125 1.25q-1.046875 0 -1.828125 -0.34375q-0.765625 -0.34375 -1.265625 -0.984375q-0.5 -0.640625 -0.75 -1.546875q-0.234375 -0.90625 -0.234375 -2.015625zm1.546875 0q0 0.71875 0.140625 1.375q0.140625 0.640625 0.4375 1.140625q0.296875 0.484375 0.78125 0.78125q0.484375 0.296875 1.171875 0.296875q2.53125 0.015625 2.53125 -3.59375q0 -0.71875 -0.140625 -1.375q-0.140625 -0.65625 -0.4375 -1.140625q-0.296875 -0.484375 -0.78125 -0.765625q-0.484375 -0.296875 -1.171875 -0.296875q-2.53125 -0.015625 -2.53125 3.578125zm7.734131 -4.65625l1.453125 0l0 -1.84375l1.5 -0.4375l0 2.28125l2.5312424 0l0 1.3125l-2.5312424 0l0 5.15625q0 0.96875 0.234375 1.375q0.24999237 0.40625 0.8281174 0.40625q0.484375 0 0.8125 -0.09375q0.34375 -0.109375 0.75 -0.28125l0.34375 1.140625q-0.515625 0.234375 -1.109375 0.375q-0.59375 0.15625 -1.28125 0.15625q-1.1406174 0 -1.6093674 -0.640625q-0.46875 -0.640625 -0.46875 -2.15625l0 -5.4375l-1.453125 0l0 -1.3125zm14.165993 8.578125q-0.5625 0.453125 -1.421875 0.71875q-0.84375 0.25 -1.796875 0.25q-1.0625 0 -1.84375 -0.34375q-0.78125 -0.34375 -1.28125 -0.984375q-0.5 -0.640625 -0.75 -1.53125q-0.234375 -0.90625 -0.234375 -2.03125q0 -2.375 1.0625 -3.625q1.0625 -1.25 3.03125 -1.25q0.640625 0 1.265625 0.140625q0.640625 0.140625 1.140625 0.53125q0.5 0.390625 0.8125 1.109375q0.328125 0.71875 0.328125 1.890625q0 0.609375 -0.109375 1.359375l-5.984375 0q0 0.828125 0.15625 1.46875q0.171875 0.625 0.515625 1.0625q0.359375 0.4375 0.921875 0.671875q0.578125 0.234375 1.40625 0.234375q0.625 0 1.265625 -0.21875q0.640625 -0.234375 0.953125 -0.53125l0.5625 1.078125zm-3.21875 -7.5q-1.09375 0 -1.765625 0.578125q-0.65625 0.578125 -0.78125 1.984375l4.625 0q0 -1.421875 -0.546875 -1.984375q-0.53125 -0.578125 -1.53125 -0.578125z" fill-rule="nonzero"/><path fill="#000000" fill-opacity="0.0" d="m82.826775 178.4827l-41.102364 44.220474" fill-rule="evenodd"/><path stroke="#000000" stroke-width="1.9763779527559056" stroke-linejoin="round" stroke-linecap="butt" d="m82.826775 178.4827l-33.029125 35.534775" fill-rule="evenodd"/><path fill="#000000" stroke="#000000" stroke-width="1.9763779527559056" stroke-linecap="butt" d="m47.406578 211.795l-3.7151222 8.791901l8.497269 -4.3469543z" fill-rule="evenodd"/><path fill="#000000" fill-opacity="0.0" d="m120.62205 178.4827l41.102364 44.220474" fill-rule="evenodd"/><path stroke="#000000" stroke-width="1.9763779527559056" stroke-linejoin="round" stroke-linecap="butt" d="m120.62205 178.4827l33.02912 35.534775" fill-rule="evenodd"/><path fill="#000000" stroke="#000000" stroke-width="1.9763779527559056" stroke-linecap="butt" d="m151.2601 216.23994l8.497253 4.3469543l-3.7151184 -8.791901z" fill-rule="evenodd"/><path fill="#000000" fill-opacity="0.0" d="m172.16011 117.7527l-70.4252 43.08661" fill-rule="evenodd"/><path stroke="#000000" stroke-width="1.9763779527559056" stroke-linejoin="round" stroke-linecap="butt" d="m172.16011 117.75269l-60.30989 36.898003" fill-rule="evenodd"/><path fill="#000000" stroke="#000000" stroke-width="1.9763779527559056" stroke-linecap="butt" d="m110.14656 151.86606l-5.947052 7.465393l9.35437 -1.8961182z" fill-rule="evenodd"/><path fill="#ffffff" d="m184.16798 213.92651l31.545929 -56.692917l31.545929 56.692917z" fill-rule="evenodd"/><path stroke="#000000" stroke-width="2.0" stroke-linejoin="round" stroke-linecap="butt" d="m184.16798 213.92651l31.545929 -56.692917l31.545929 56.692917z" fill-rule="evenodd"/><path fill="#000000" d="m211.3288 191.4964l9.140625 0l0 1.765625l-7.15625 0l0 5.5l6.546875 0l0 1.78125l-6.546875 0l0 5.96875l7.265625 0l0 1.78125l-9.25 0l0 -16.796875z" fill-rule="nonzero"/><path fill="#ffffff" d="m10.182415 279.38058l31.545933 -56.692917l31.545929 56.692917z" fill-rule="evenodd"/><path stroke="#000000" stroke-width="2.0" stroke-linejoin="round" stroke-linecap="butt" d="m10.182415 279.38058l31.545933 -56.692917l31.545929 56.692917z" fill-rule="evenodd"/><path fill="#000000" d="m44.739613 269.0911l-6.187496 0l-1.6875 4.65625l-1.96875 0l6.359375 -17.0625l0.9218712 0l6.375 17.0625l-2.078125 0l-1.734375 -4.65625zm-5.546871 -1.734375l4.953121 0l-1.875 -5.109375l-0.6093712 -2.546875l-0.015625 0l-0.59375 2.59375l-1.859375 5.0625z" fill-rule="nonzero"/><path fill="#ffffff" d="m130.18242 279.38058l31.545929 -56.692917l31.545929 56.692917z" fill-rule="evenodd"/><path stroke="#000000" stroke-width="2.0" stroke-linejoin="round" stroke-linecap="butt" d="m130.18242 279.38058l31.545929 -56.692917l31.545929 56.692917z" fill-rule="evenodd"/><path fill="#000000" d="m167.67323 273.04422q-0.71875 0.5625 -1.828125 0.765625q-1.109375 0.21875 -2.359375 0.21875q-1.5 0 -2.828125 -0.515625q-1.3125 -0.515625 -2.296875 -1.5625q-0.984375 -1.0625 -1.5625 -2.703125q-0.578125 -1.640625 -0.578125 -3.90625q0 -2.34375 0.625 -3.984375q0.640625 -1.65625 1.6875 -2.6875q1.046875 -1.046875 2.34375 -1.53125q1.296875 -0.484375 2.640625 -0.484375q1.4375 0 2.34375 0.15625q0.921875 0.15625 1.5625 0.421875l-0.46875 1.75q-1.15625 -0.546875 -3.296875 -0.546875q-0.984375 0 -1.953125 0.359375q-0.953125 0.359375 -1.703125 1.1875q-0.75 0.8125 -1.21875 2.140625q-0.453125 1.3125 -0.453125 3.21875q0 1.734375 0.421875 3.03125q0.4375 1.296875 1.1875 2.15625q0.765625 0.859375 1.78125 1.296875q1.03125 0.4375 2.234375 0.4375q1.078125 0 1.875 -0.21875q0.8125 -0.21875 1.359375 -0.546875l0.484375 1.546875z" fill-rule="nonzero"/><path fill="#000000" fill-opacity="0.0" d="m206.17586 115.093124l9.543304 42.14174" fill-rule="evenodd"/><path stroke="#000000" stroke-width="1.9763779527559056" stroke-linejoin="round" stroke-linecap="butt" d="m206.17586 115.093124l6.924225 30.57631" fill-rule="evenodd"/><path fill="#000000" stroke="#000000" stroke-width="1.9763779527559056" stroke-linecap="butt" d="m209.91626 146.39044l5.1647644 8.026489l1.2028961 -9.468491z" fill-rule="evenodd"/><path fill="#ffffff" d="m264.16797 213.92651l31.545929 -56.692917l31.54596 56.692917z" fill-rule="evenodd"/><path stroke="#000000" stroke-width="2.0" stroke-linejoin="round" stroke-linecap="butt" d="m264.16797 213.92651l31.545929 -56.692917l31.54596 56.692917z" fill-rule="evenodd"/><path fill="#000000" d="m296.07306 199.91827l5.640625 0l0 7.390625q-0.390625 0.28125 -0.9375 0.53125q-0.53125 0.234375 -1.140625 0.40625q-0.609375 0.171875 -1.265625 0.25q-0.65625 0.078125 -1.28125 0.078125q-1.609375 0 -2.953125 -0.515625q-1.34375 -0.515625 -2.328125 -1.578125q-0.984375 -1.0625 -1.546875 -2.703125q-0.546875 -1.65625 -0.546875 -3.890625q0 -2.328125 0.671875 -3.984375q0.671875 -1.65625 1.75 -2.6875q1.078125 -1.046875 2.421875 -1.53125q1.34375 -0.484375 2.6875 -0.484375q1.4375 0 2.375 0.15625q0.9375 0.15625 1.59375 0.421875l-0.5 1.75q-1.15625 -0.546875 -3.296875 -0.546875q-1.0 0 -2.0 0.359375q-1.0 0.34375 -1.796875 1.15625q-0.78125 0.8125 -1.296875 2.140625q-0.5 1.3125 -0.5 3.25q0 1.78125 0.40625 3.078125q0.40625 1.296875 1.140625 2.15625q0.734375 0.84375 1.765625 1.265625q1.03125 0.421875 2.265625 0.421875q1.53125 0 2.609375 -0.609375l0 -4.671875l-3.9375 -0.484375l0 -1.125z" fill-rule="nonzero"/><path fill="#000000" fill-opacity="0.0" d="m242.86414 116.645706l52.850403 40.59842" fill-rule="evenodd"/><path stroke="#000000" stroke-width="1.9763779527559056" stroke-linejoin="round" stroke-linecap="butt" d="m242.86414 116.6457l43.446472 33.374535" fill-rule="evenodd"/><path fill="#000000" stroke="#000000" stroke-width="1.9763779527559056" stroke-linecap="butt" d="m284.32193 152.60904l9.101318 2.8749847l-5.123993 -8.052582z" fill-rule="evenodd"/><path fill="#ffffff" d="m392.16797 213.92651l31.545929 -56.692917l31.54596 56.692917z" fill-rule="evenodd"/><path stroke="#000000" stroke-width="2.0" stroke-linejoin="round" stroke-linecap="butt" d="m392.16797 213.92651l31.545929 -56.692917l31.54596 56.692917z" fill-rule="evenodd"/><path fill="#000000" d="m426.7252 203.63702l-6.1875 0l-1.6875 4.65625l-1.96875 0l6.359375 -17.0625l0.921875 0l6.375 17.0625l-2.078125 0l-1.734375 -4.65625zm-5.546875 -1.734375l4.953125 0l-1.875 -5.109375l-0.609375 -2.546875l-0.015625 0l-0.59375 2.59375l-1.859375 5.0625z" fill-rule="nonzero"/><path fill="#ffffff" d="m464.16797 213.92651l31.545929 -56.692917l31.545929 56.692917z" fill-rule="evenodd"/><path stroke="#000000" stroke-width="2.0" stroke-linejoin="round" stroke-linecap="butt" d="m464.16797 213.92651l31.545929 -56.692917l31.545929 56.692917z" fill-rule="evenodd"/><path fill="#000000" d="m501.6588 207.59015q-0.71875 0.5625 -1.828125 0.765625q-1.109375 0.21875 -2.359375 0.21875q-1.5 0 -2.828125 -0.515625q-1.3125 -0.515625 -2.296875 -1.5625q-0.984375 -1.0625 -1.5625 -2.703125q-0.578125 -1.640625 -0.578125 -3.90625q0 -2.34375 0.625 -3.984375q0.640625 -1.65625 1.6875 -2.6875q1.046875 -1.046875 2.34375 -1.53125q1.296875 -0.484375 2.640625 -0.484375q1.4375 0 2.34375 0.15625q0.921875 0.15625 1.5625 0.421875l-0.46875 1.75q-1.15625 -0.546875 -3.296875 -0.546875q-0.984375 0 -1.953125 0.359375q-0.953125 0.359375 -1.703125 1.1875q-0.75 0.8125 -1.21875 2.140625q-0.453125 1.3125 -0.453125 3.21875q0 1.734375 0.421875 3.03125q0.4375 1.296875 1.1875 2.15625q0.765625 0.859375 1.78125 1.296875q1.03125 0.4375 2.234375 0.4375q1.078125 0 1.875 -0.21875q0.8125 -0.21875 1.359375 -0.546875l0.484375 1.546875z" fill-rule="nonzero"/><path fill="#ffffff" d="m536.16797 213.92651l31.54596 -56.692917l31.545898 56.692917z" fill-rule="evenodd"/><path stroke="#000000" stroke-width="2.0" stroke-linejoin="round" stroke-linecap="butt" d="m536.16797 213.92651l31.54596 -56.692917l31.545898 56.692917z" fill-rule="evenodd"/><path fill="#000000" d="m563.3288 191.4964l9.140625 0l0 1.765625l-7.15625 0l0 5.5l6.546875 0l0 1.78125l-6.546875 0l0 5.96875l7.265625 0l0 1.78125l-9.25 0l0 -16.796875z" fill-rule="nonzero"/><path fill="#ffffff" d="m608.16797 213.92651l31.54596 -56.692917l31.545898 56.692917z" fill-rule="evenodd"/><path stroke="#000000" stroke-width="2.0" stroke-linejoin="round" stroke-linecap="butt" d="m608.16797 213.92651l31.54596 -56.692917l31.545898 56.692917z" fill-rule="evenodd"/><path fill="#000000" d="m640.07306 199.91827l5.640625 0l0 7.390625q-0.390625 0.28125 -0.9375 0.53125q-0.53125 0.234375 -1.140625 0.40625q-0.609375 0.171875 -1.265625 0.25q-0.65625 0.078125 -1.28125 0.078125q-1.609375 0 -2.953125 -0.515625q-1.34375 -0.515625 -2.328125 -1.578125q-0.984375 -1.0625 -1.546875 -2.703125q-0.546875 -1.65625 -0.546875 -3.890625q0 -2.328125 0.671875 -3.984375q0.671875 -1.65625 1.75 -2.6875q1.078125 -1.046875 2.421875 -1.53125q1.34375 -0.484375 2.6875 -0.484375q1.4375 0 2.375 0.15625q0.9375 0.15625 1.59375 0.421875l-0.5 1.75q-1.15625 -0.546875 -3.296875 -0.546875q-1.0 0 -2.0 0.359375q-1.0 0.34375 -1.796875 1.15625q-0.78125 0.8125 -1.296875 2.140625q-0.5 1.3125 -0.5 3.25q0 1.78125 0.40625 3.078125q0.40625 1.296875 1.140625 2.15625q0.734375 0.84375 1.765625 1.265625q1.03125 0.421875 2.265625 0.421875q1.53125 0 2.609375 -0.609375l0 -4.671875l-3.9375 -0.484375l0 -1.125z" fill-rule="nonzero"/><path fill="#000000" fill-opacity="0.0" d="m476.12668 116.645706l-52.409454 40.59842" fill-rule="evenodd"/><path stroke="#000000" stroke-width="1.9763779527559056" stroke-linejoin="round" stroke-linecap="butt" d="m476.12668 116.6457l-43.03485 33.33651" fill-rule="evenodd"/><path fill="#000000" stroke="#000000" stroke-width="1.9763779527559056" stroke-linecap="butt" d="m431.09268 147.40147l-5.091339 8.073273l9.0896 -2.9118347z" fill-rule="evenodd"/><path fill="#000000" fill-opacity="0.0" d="m512.81494 117.7527l-17.102356 39.496063" fill-rule="evenodd"/><path stroke="#000000" stroke-width="1.9763779527559056" stroke-linejoin="round" stroke-linecap="butt" d="m512.81494 117.75269l-12.39032 28.614174" fill-rule="evenodd"/><path fill="#000000" stroke="#000000" stroke-width="1.9763779527559056" stroke-linecap="butt" d="m497.42896 145.0697l-0.5682678 9.527679l6.5595703 -6.9333496z" fill-rule="evenodd"/><path fill="#000000" fill-opacity="0.0" d="m550.4172 117.7527l17.291382 39.496063" fill-rule="evenodd"/><path stroke="#000000" stroke-width="1.9763779527559056" stroke-linejoin="round" stroke-linecap="butt" d="m550.4172 117.75269l12.535645 28.633232" fill-rule="evenodd"/><path fill="#000000" stroke="#000000" stroke-width="1.9763779527559056" stroke-linecap="butt" d="m559.9624 147.69511l6.5874023 6.906906l-0.6065674 -9.525314z" fill-rule="evenodd"/><path fill="#000000" fill-opacity="0.0" d="m584.626 117.7527l55.08661 39.496063" fill-rule="evenodd"/><path stroke="#000000" stroke-width="1.9763779527559056" stroke-linejoin="round" stroke-linecap="butt" d="m584.626 117.75269l45.449463 32.586403" fill-rule="evenodd"/><path fill="#000000" stroke="#000000" stroke-width="1.9763779527559056" stroke-linecap="butt" d="m628.1733 152.9921l9.191223 2.57312l-5.386902 -7.879135z" fill-rule="evenodd"/><path fill="#ffffff" d="m712.16797 213.92651l31.54596 -56.692917l31.545898 56.692917z" fill-rule="evenodd"/><path stroke="#000000" stroke-width="2.0" stroke-linejoin="round" stroke-linecap="butt" d="m712.16797 213.92651l31.54596 -56.692917l31.545898 56.692917z" fill-rule="evenodd"/><path fill="#000000" d="m746.72516 203.63702l-6.1875 0l-1.6875 4.65625l-1.96875 0l6.359375 -17.0625l0.921875 0l6.375 17.0625l-2.078125 0l-1.734375 -4.65625zm-5.546875 -1.734375l4.953125 0l-1.875 -5.109375l-0.609375 -2.546875l-0.015625 0l-0.59375 2.59375l-1.859375 5.0625z" fill-rule="nonzero"/><path fill="#ffffff" d="m784.16797 213.92651l31.54596 -56.692917l31.545898 56.692917z" fill-rule="evenodd"/><path stroke="#000000" stroke-width="2.0" stroke-linejoin="round" stroke-linecap="butt" d="m784.16797 213.92651l31.54596 -56.692917l31.545898 56.692917z" fill-rule="evenodd"/><path fill="#000000" d="m821.6588 207.59015q-0.71875 0.5625 -1.828125 0.765625q-1.109375 0.21875 -2.359375 0.21875q-1.5 0 -2.828125 -0.515625q-1.3125 -0.515625 -2.296875 -1.5625q-0.984375 -1.0625 -1.5625 -2.703125q-0.578125 -1.640625 -0.578125 -3.90625q0 -2.34375 0.625 -3.984375q0.640625 -1.65625 1.6875 -2.6875q1.046875 -1.046875 2.34375 -1.53125q1.296875 -0.484375 2.640625 -0.484375q1.4375 0 2.34375 0.15625q0.921875 0.15625 1.5625 0.421875l-0.46875 1.75q-1.15625 -0.546875 -3.296875 -0.546875q-0.984375 0 -1.953125 0.359375q-0.953125 0.359375 -1.703125 1.1875q-0.75 0.8125 -1.21875 2.140625q-0.453125 1.3125 -0.453125 3.21875q0 1.734375 0.421875 3.03125q0.4375 1.296875 1.1875 2.15625q0.765625 0.859375 1.78125 1.296875q1.03125 0.4375 2.234375 0.4375q1.078125 0 1.875 -0.21875q0.8125 -0.21875 1.359375 -0.546875l0.484375 1.546875z" fill-rule="nonzero"/><path fill="#ffffff" d="m872.16797 213.92651l31.54596 -56.692917l31.545898 56.692917z" fill-rule="evenodd"/><path stroke="#000000" stroke-width="2.0" stroke-linejoin="round" stroke-linecap="butt" d="m872.16797 213.92651l31.54596 -56.692917l31.545898 56.692917z" fill-rule="evenodd"/><path fill="#000000" d="m899.3288 191.4964l9.140625 0l0 1.765625l-7.15625 0l0 5.5l6.546875 0l0 1.78125l-6.546875 0l0 5.96875l7.265625 0l0 1.78125l-9.25 0l0 -16.796875z" fill-rule="nonzero"/><path fill="#ffffff" d="m944.16797 213.92651l31.54596 -56.692917l31.545898 56.692917z" fill-rule="evenodd"/><path stroke="#000000" stroke-width="2.0" stroke-linejoin="round" stroke-linecap="butt" d="m944.16797 213.92651l31.54596 -56.692917l31.545898 56.692917z" fill-rule="evenodd"/><path fill="#000000" d="m976.07306 199.91827l5.640625 0l0 7.390625q-0.390625 0.28125 -0.9375 0.53125q-0.53125 0.234375 -1.140625 0.40625q-0.609375 0.171875 -1.265625 0.25q-0.65625 0.078125 -1.28125 0.078125q-1.609375 0 -2.953125 -0.515625q-1.34375 -0.515625 -2.328125 -1.578125q-0.984375 -1.0625 -1.546875 -2.703125q-0.546875 -1.65625 -0.546875 -3.890625q0 -2.328125 0.671875 -3.984375q0.671875 -1.65625 1.75 -2.6875q1.078125 -1.046875 2.421875 -1.53125q1.34375 -0.484375 2.6875 -0.484375q1.4375 0 2.375 0.15625q0.9375 0.15625 1.59375 0.421875l-0.5 1.75q-1.15625 -0.546875 -3.296875 -0.546875q-1.0 0 -2.0 0.359375q-1.0 0.34375 -1.796875 1.15625q-0.78125 0.8125 -1.296875 2.140625q-0.5 1.3125 -0.5 3.25q0 1.78125 0.40625 3.078125q0.40625 1.296875 1.140625 2.15625q0.734375 0.84375 1.765625 1.265625q1.03125 0.421875 2.265625 0.421875q1.53125 0 2.609375 -0.609375l0 -4.671875l-3.9375 -0.484375l0 -1.125z" fill-rule="nonzero"/><path fill="#000000" fill-opacity="0.0" d="m764.5945 117.5611l-20.881897 39.685043" fill-rule="evenodd"/><path stroke="#000000" stroke-width="1.9763779527559056" stroke-linejoin="round" stroke-linecap="butt" d="m764.5945 117.5611l-15.359985 29.190903" fill-rule="evenodd"/><path fill="#000000" stroke="#000000" stroke-width="1.9763779527559056" stroke-linecap="butt" d="m746.3456 145.23187l-1.2875366 9.457367l7.0653687 -6.4171295z" fill-rule="evenodd"/><path fill="#000000" fill-opacity="0.0" d="m794.8307 117.5611l20.881897 39.685043" fill-rule="evenodd"/><path stroke="#000000" stroke-width="1.9763779527559056" stroke-linejoin="round" stroke-linecap="butt" d="m794.8307 117.5611l15.359985 29.190903" fill-rule="evenodd"/><path fill="#000000" stroke="#000000" stroke-width="1.9763779527559056" stroke-linecap="butt" d="m807.30176 148.27211l7.0654297 6.4171295l-1.2875977 -9.457367z" fill-rule="evenodd"/><path fill="#000000" fill-opacity="0.0" d="m924.5945 117.5611l-20.881897 39.685043" fill-rule="evenodd"/><path stroke="#000000" stroke-width="1.9763779527559056" stroke-linejoin="round" stroke-linecap="butt" d="m924.5945 117.5611l-15.359985 29.190903" fill-rule="evenodd"/><path fill="#000000" stroke="#000000" stroke-width="1.9763779527559056" stroke-linecap="butt" d="m906.3456 145.23187l-1.2875366 9.457367l7.0653687 -6.4171295z" fill-rule="evenodd"/><path fill="#000000" fill-opacity="0.0" d="m954.8307 117.5611l20.881897 39.685043" fill-rule="evenodd"/><path stroke="#000000" stroke-width="1.9763779527559056" stroke-linejoin="round" stroke-linecap="butt" d="m954.8307 117.5611l15.359985 29.190903" fill-rule="evenodd"/><path fill="#000000" stroke="#000000" stroke-width="1.9763779527559056" stroke-linecap="butt" d="m967.30176 148.27211l7.0654297 6.4171295l-1.2875977 -9.457367z" fill-rule="evenodd"/></g></svg>