<svg version="1.1" viewBox="0.0 0.0 783.8162729658793 134.44094488188978" fill="none" stroke="none" stroke-linecap="square" stroke-miterlimit="10" xmlns:xlink="http://www.w3.org/1999/xlink" xmlns="http://www.w3.org/2000/svg"><clipPath id="p.0"><path d="m0 0l783.8163 0l0 134.44095l-783.8163 0l0 -134.44095z" clip-rule="nonzero"/></clipPath><g clip-path="url(#p.0)"><path fill="#000000" fill-opacity="0.0" d="m0 0l783.8163 0l0 134.44095l-783.8163 0z" fill-rule="evenodd"/><path fill="#000000" d="m124.614174 123.366875c0 -2.0873795 1.6921539 -3.7795258 3.7795334 -3.7795258c1.0023804 0 1.9637299 0.39819336 2.6725159 1.1069946c0.70880127 0.70880127 1.1070099 1.6701355 1.1070099 2.6725311c0 2.0873718 -1.6921539 3.7795258 -3.7795258 3.7795258c-2.0873795 0 -3.7795334 -1.6921539 -3.7795334 -3.7795258z" fill-rule="evenodd"/><path stroke="#000000" stroke-width="1.0" stroke-linejoin="round" stroke-linecap="butt" d="m124.614174 123.366875c0 -2.0873795 1.6921539 -3.7795258 3.7795334 -3.7795258c1.0023804 0 1.9637299 0.39819336 2.6725159 1.1069946c0.70880127 0.70880127 1.1070099 1.6701355 1.1070099 2.6725311c0 2.0873718 -1.6921539 3.7795258 -3.7795258 3.7795258c-2.0873795 0 -3.7795334 -1.6921539 -3.7795334 -3.7795258z" fill-rule="evenodd"/><path fill="#000000" d="m90.59843 123.366875c0 -2.0873795 1.6921539 -3.7795258 3.7795258 -3.7795258c1.0023956 0 1.9637299 0.39819336 2.6725311 1.1069946c0.70880127 0.70880127 1.1069946 1.6701355 1.1069946 2.6725311c0 2.0873718 -1.6921539 3.7795258 -3.7795258 3.7795258c-2.0873718 0 -3.7795258 -1.6921539 -3.7795258 -3.7795258z" fill-rule="evenodd"/><path stroke="#000000" stroke-width="1.0" stroke-linejoin="round" stroke-linecap="butt" d="m90.59843 123.366875c0 -2.0873795 1.6921539 -3.7795258 3.7795258 -3.7795258c1.0023956 0 1.9637299 0.39819336 2.6725311 1.1069946c0.70880127 0.70880127 1.1069946 1.6701355 1.1069946 2.6725311c0 2.0873718 -1.6921539 3.7795258 -3.7795258 3.7795258c-2.0873718 0 -3.7795258 -1.6921539 -3.7795258 -3.7795258z" fill-rule="evenodd"/><path fill="#000000" d="m158.62993 123.366875c0 -2.0873795 1.6921387 -3.7795258 3.7795258 -3.7795258c1.0023804 0 1.9637299 0.39819336 2.6725311 1.1069946c0.708786 0.70880127 1.1069946 1.6701355 1.1069946 2.6725311c0 2.0873718 -1.6921539 3.7795258 -3.7795258 3.7795258c-2.087387 0 -3.7795258 -1.6921539 -3.7795258 -3.7795258z" fill-rule="evenodd"/><path stroke="#000000" stroke-width="1.0" stroke-linejoin="round" stroke-linecap="butt" d="m158.62993 123.366875c0 -2.0873795 1.6921387 -3.7795258 3.7795258 -3.7795258c1.0023804 0 1.9637299 0.39819336 2.6725311 1.1069946c0.708786 0.70880127 1.1069946 1.6701355 1.1069946 2.6725311c0 2.0873718 -1.6921539 3.7795258 -3.7795258 3.7795258c-2.087387 0 -3.7795258 -1.6921539 -3.7795258 -3.7795258z" fill-rule="evenodd"/><path fill="#000000" fill-opacity="0.0" d="m90.59843 96.63133c0 -5.4895935 4.4501877 -9.939781 9.939781 -9.939781l55.710983 0c2.6362 0 5.1644135 1.047226 7.028488 2.911293c1.8640747 1.8640747 2.9113007 4.392296 2.9113007 7.028488l0 17.915718c0 5.489586 -4.4501953 9.939774 -9.939789 9.939774l-55.710983 0c-5.4895935 0 -9.939781 -4.4501877 -9.939781 -9.939774z" fill-rule="evenodd"/><path stroke="#000000" stroke-width="2.0" stroke-linejoin="round" stroke-linecap="butt" d="m90.59843 96.63133c0 -5.4895935 4.4501877 -9.939781 9.939781 -9.939781l55.710983 0c2.6362 0 5.1644135 1.047226 7.028488 2.911293c1.8640747 1.8640747 2.9113007 4.392296 2.9113007 7.028488l0 17.915718c0 5.489586 -4.4501953 9.939774 -9.939789 9.939774l-55.710983 0c-5.4895935 0 -9.939781 -4.4501877 -9.939781 -9.939774z" fill-rule="evenodd"/><path fill="#000000" d="m114.54964 111.98856q-0.265625 0.453125 -0.671875 0.890625q-0.40625 0.4375 -0.96875 0.78125q-0.546875 0.34375 -1.234375 0.546875q-0.6875 0.203125 -1.5 0.203125q-1.765625 0 -2.8125 -1.125q-1.03125 -1.125 -1.03125 -3.0625q0 -1.734375 0.546875 -3.25q0.5625 -1.53125 1.5 -2.671875q0.953125 -1.140625 2.234375 -1.796875q1.296875 -0.65625 2.75 -0.65625q0.921875 0 1.5 0.140625q0.578125 0.140625 0.859375 0.40625q0.03125 0.265625 -0.03125 0.59375q-0.0625 0.3125 -0.203125 0.625q-0.125 0.3125 -0.328125 0.578125q-0.203125 0.265625 -0.421875 0.359375l-1.625 -1.671875q-0.828125 0.015625 -1.640625 0.5q-0.796875 0.484375 -1.4375 1.375q-0.625 0.875 -1.03125 2.140625q-0.390625 1.265625 -0.359375 2.84375q-0.03125 1.65625 0.65625 2.421875q0.6875 0.765625 1.859375 0.765625q0.5 0 0.9375 -0.140625q0.453125 -0.140625 0.828125 -0.359375q0.390625 -0.21875 0.703125 -0.453125q0.3125 -0.25 0.5625 -0.4375l0.359375 0.453125zm28.59816 0.9375q0.65625 0 1.296875 -0.609375q0.65625 -0.609375 1.234375 -1.46875q0.578125 -0.875 1.03125 -1.8125q0.453125 -0.9375 0.71875 -1.546875l0.765625 -4.109375q-0.359375 -0.234375 -0.671875 -0.3125q-0.296875 -0.09375 -0.84375 -0.125q-1.15625 0.03125 -2.0625 0.71875q-0.90625 0.671875 -1.53125 1.75q-0.625 1.0625 -0.953125 2.390625q-0.328125 1.3125 -0.328125 2.578125q0 1.234375 0.296875 1.890625q0.3125 0.65625 1.046875 0.65625zm3.796875 -3.5q-0.3125 0.859375 -0.796875 1.75q-0.46875 0.890625 -1.09375 1.609375q-0.609375 0.71875 -1.34375 1.171875q-0.71875 0.453125 -1.5625 0.453125q-2.5 0 -2.5 -3.640625q0 -1.703125 0.484375 -3.296875q0.484375 -1.59375 1.390625 -2.828125q0.90625 -1.25 2.203125 -1.984375q1.296875 -0.75 2.953125 -0.75q0.625 0 0.9375 0.09375q0.3125 0.078125 0.796875 0.296875l0.90625 -4.546875l-1.671875 -0.203125l0 -0.609375q0.359375 -0.140625 0.78125 -0.265625q0.4375 -0.140625 0.90625 -0.25q0.46875 -0.109375 0.9375 -0.203125q0.484375 -0.09375 0.890625 -0.140625l0.515625 0.1875l-3.296875 16.546875l1.75 0l0 0.59375q-0.46875 0.375 -1.140625 0.625q-0.671875 0.234375 -1.328125 0.234375q-0.6875 0 -1.0 -0.296875q-0.296875 -0.296875 -0.296875 -0.640625q0 -0.421875 0.171875 -1.40625q0.171875 -0.984375 0.5 -2.5l-0.09375 0z" fill-rule="nonzero"/><path fill="#000000" fill-opacity="0.0" d="m128.3937 86.69155l0 37.795273" fill-rule="evenodd"/><path stroke="#000000" stroke-width="2.0" stroke-linejoin="round" stroke-linecap="butt" d="m128.3937 86.69155l0 37.795273" fill-rule="evenodd"/><path fill="#000000" fill-opacity="0.0" d="m632.95667 96.43973c0 -5.489586 4.4501953 -9.939781 9.939819 -9.939781l17.91571 0c2.6361694 0 5.1644287 1.047226 7.0285034 2.9113007c1.8640747 1.8640671 2.911255 4.392288 2.911255 7.0284805l0 17.915718c0 5.489586 -4.4501953 9.939781 -9.939758 9.939781l-17.91571 0c-5.489624 0 -9.939819 -4.4501953 -9.939819 -9.939781z" fill-rule="evenodd"/><path stroke="#000000" stroke-width="2.0" stroke-linejoin="round" stroke-linecap="butt" d="m632.95667 96.43973c0 -5.489586 4.4501953 -9.939781 9.939819 -9.939781l17.91571 0c2.6361694 0 5.1644287 1.047226 7.0285034 2.9113007c1.8640747 1.8640671 2.911255 4.392288 2.911255 7.0284805l0 17.915718c0 5.489586 -4.4501953 9.939781 -9.939758 9.939781l-17.91571 0c-5.489624 0 -9.939819 -4.4501953 -9.939819 -9.939781z" fill-rule="evenodd"/><path fill="#000000" d="m649.47986 97.562584l-1.6875 -0.203125l0 -0.5625q0.390625 -0.140625 0.84375 -0.28125q0.453125 -0.140625 0.921875 -0.265625q0.46875 -0.140625 0.921875 -0.21875q0.46875 -0.09375 0.84375 -0.140625l0.5 0.265625l-2.109375 10.0l0.125 0q0.4375 -0.859375 0.953125 -1.671875q0.515625 -0.8125 1.09375 -1.4375q0.59375 -0.625 1.234375 -1.0q0.65625 -0.390625 1.375 -0.390625q1.265625 0 2.015625 0.890625q0.75 0.875 0.75 2.75q0 1.84375 -0.515625 3.46875q-0.515625 1.625 -1.453125 2.84375q-0.9375 1.203125 -2.265625 1.90625q-1.3125 0.703125 -2.921875 0.703125q-1.171875 0 -2.203125 -0.296875q-1.015625 -0.296875 -1.5 -0.703125l3.078125 -15.65625zm4.0 5.578125q-0.625 0 -1.21875 0.546875q-0.59375 0.546875 -1.109375 1.328125q-0.515625 0.78125 -0.9375 1.640625q-0.421875 0.84375 -0.71875 1.421875l-0.90625 4.609375q0.359375 0.234375 0.890625 0.375q0.546875 0.125 1.078125 0.125q0.9375 0 1.765625 -0.640625q0.828125 -0.65625 1.453125 -1.703125q0.625 -1.0625 0.984375 -2.390625q0.359375 -1.328125 0.328125 -2.703125q0.03125 -1.15625 -0.359375 -1.875q-0.375 -0.734375 -1.25 -0.734375z" fill-rule="nonzero"/><path fill="#000000" d="m663.19293 123.17527c0 -2.0873718 1.6921387 -3.7795258 3.77948 -3.7795258c1.0024414 0 1.9637451 0.398201 2.6725464 1.1070023c0.70880127 0.70879364 1.1069946 1.6701355 1.1069946 2.6725235c0 2.0873795 -1.6921387 3.7795334 -3.779541 3.7795334c-2.0873413 0 -3.77948 -1.6921539 -3.77948 -3.7795334z" fill-rule="evenodd"/><path stroke="#000000" stroke-width="1.0" stroke-linejoin="round" stroke-linecap="butt" d="m663.19293 123.17527c0 -2.0873718 1.6921387 -3.7795258 3.77948 -3.7795258c1.0024414 0 1.9637451 0.398201 2.6725464 1.1070023c0.70880127 0.70879364 1.1069946 1.6701355 1.1069946 2.6725235c0 2.0873795 -1.6921387 3.7795334 -3.779541 3.7795334c-2.0873413 0 -3.77948 -1.6921539 -3.77948 -3.7795334z" fill-rule="evenodd"/><path fill="#000000" d="m632.95667 123.17527c0 -2.0873718 1.6921997 -3.7795258 3.779541 -3.7795258c1.0023804 0 1.9637451 0.398201 2.6725464 1.1070023c0.70880127 0.70879364 1.1069946 1.6701355 1.1069946 2.6725235c0 2.0873795 -1.6921387 3.7795334 -3.779541 3.7795334c-2.0873413 0 -3.779541 -1.6921539 -3.779541 -3.7795334z" fill-rule="evenodd"/><path stroke="#000000" stroke-width="1.0" stroke-linejoin="round" stroke-linecap="butt" d="m632.95667 123.17527c0 -2.0873718 1.6921997 -3.7795258 3.779541 -3.7795258c1.0023804 0 1.9637451 0.398201 2.6725464 1.1070023c0.70880127 0.70879364 1.1069946 1.6701355 1.1069946 2.6725235c0 2.0873795 -1.6921387 3.7795334 -3.779541 3.7795334c-2.0873413 0 -3.779541 -1.6921539 -3.779541 -3.7795334z" fill-rule="evenodd"/><path fill="#000000" fill-opacity="0.0" d="m88.26521 47.51648l40.125977 39.181107" fill-rule="evenodd"/><path stroke="#000000" stroke-width="1.9763779527559056" stroke-linejoin="round" stroke-linecap="butt" d="m88.26521 47.51648l31.641624 30.89653" fill-rule="evenodd"/><path fill="#000000" stroke="#000000" stroke-width="1.9763779527559056" stroke-linecap="butt" d="m117.62619 80.74866l8.697792 3.9303818l-4.1364975 -8.601685z" fill-rule="evenodd"/><path fill="#efefef" d="m186.0105 54.609642l71.86386 0l0 -7.541832l23.978668 20.220474l-23.978668 20.220467l0 -7.5418243l-71.86386 0z" fill-rule="evenodd"/><path stroke="#000000" stroke-width="1.0" stroke-linejoin="round" stroke-linecap="butt" d="m186.0105 54.609642l71.86386 0l0 -7.541832l23.978668 20.220474l-23.978668 20.220467l0 -7.5418243l-71.86386 0z" fill-rule="evenodd"/><path fill="#000000" d="m202.73271 71.00516q0 0.953125 0.015625 1.734375q0.03125 0.765625 0.171875 1.5l-1.0 0l-0.375 -1.3125l-0.078125 0q-0.375 0.640625 -1.078125 1.078125q-0.703125 0.421875 -1.65625 0.421875q-1.875 0 -2.78125 -1.171875q-0.890625 -1.171875 -0.890625 -3.671875q0 -2.390625 1.125 -3.625q1.125 -1.25 3.109375 -1.25q0.6875 0 1.078125 0.078125q0.40625 0.078125 0.875 0.25l0 -3.8906288l1.484375 0l0 9.859379zm-3.765625 2.125q0.953125 0 1.515625 -0.5q0.5625 -0.5 0.765625 -1.5l0 -4.625q-0.34375 -0.265625 -0.78125 -0.375q-0.421875 -0.109375 -1.125 -0.109375q-1.28125 0 -2.015625 0.84375q-0.71875 0.84375 -0.71875 2.71875q0 0.765625 0.109375 1.421875q0.125 0.640625 0.40625 1.109375q0.28125 0.46875 0.734375 0.75q0.453125 0.265625 1.109375 0.265625zm13.458939 0.328125q-0.5625 0.453125 -1.421875 0.71875q-0.84375 0.25 -1.796875 0.25q-1.0625 0 -1.84375 -0.34375q-0.78125 -0.34375 -1.28125 -0.984375q-0.5 -0.640625 -0.75 -1.53125q-0.234375 -0.90625 -0.234375 -2.03125q0 -2.375 1.0625 -3.625q1.0625 -1.25 3.03125 -1.25q0.640625 0 1.265625 0.140625q0.640625 0.140625 1.140625 0.53125q0.5 0.390625 0.8125 1.109375q0.328125 0.71875 0.328125 1.890625q0 0.609375 -0.109375 1.359375l-5.984375 0q0 0.828125 0.15625 1.46875q0.171875 0.625 0.515625 1.0625q0.359375 0.4375 0.921875 0.671875q0.578125 0.234375 1.40625 0.234375q0.625 0 1.265625 -0.21875q0.640625 -0.234375 0.953125 -0.53125l0.5625 1.078125zm-3.21875 -7.5q-1.09375 0 -1.765625 0.578125q-0.65625 0.578125 -0.78125 1.984375l4.625 0q0 -1.421875 -0.546875 -1.984375q-0.53125 -0.578125 -1.53125 -0.578125zm7.539871 5.953125q0 0.65625 0.21875 0.9375q0.234375 0.28125 0.640625 0.28125q0.25 0 0.515625 -0.03125q0.28125 -0.046875 0.640625 -0.171875l0.171875 1.171875q-0.296875 0.140625 -0.828125 0.234375q-0.53125 0.09375 -0.921875 0.09375q-0.84375 0 -1.390625 -0.46875q-0.53125 -0.484375 -0.53125 -1.609375l0 -11.203129l1.484375 0l0 10.765629zm10.603882 1.546875q-0.5625 0.453125 -1.421875 0.71875q-0.84375 0.25 -1.796875 0.25q-1.0625 0 -1.84375 -0.34375q-0.78125 -0.34375 -1.28125 -0.984375q-0.5 -0.640625 -0.75 -1.53125q-0.234375 -0.90625 -0.234375 -2.03125q0 -2.375 1.0625 -3.625q1.0625 -1.25 3.03125 -1.25q0.640625 0 1.265625 0.140625q0.640625 0.140625 1.140625 0.53125q0.5 0.390625 0.8125 1.109375q0.328125 0.71875 0.328125 1.890625q0 0.609375 -0.109375 1.359375l-5.984375 0q0 0.828125 0.15625 1.46875q0.171875 0.625 0.515625 1.0625q0.359375 0.4375 0.921875 0.671875q0.578125 0.234375 1.40625 0.234375q0.625 0 1.265625 -0.21875q0.640625 -0.234375 0.953125 -0.53125l0.5625 1.078125zm-3.21875 -7.5q-1.09375 0 -1.765625 0.578125q-0.65625 0.578125 -0.78125 1.984375l4.625 0q0 -1.421875 -0.546875 -1.984375q-0.53125 -0.578125 -1.53125 -0.578125zm4.649246 -1.078125l1.453125 0l0 -1.8437538l1.5 -0.4375l0 2.2812538l2.53125 0l0 1.3125l-2.53125 0l0 5.15625q0 0.96875 0.234375 1.375q0.25 0.40625 0.828125 0.40625q0.484375 0 0.8125 -0.09375q0.34375 -0.109375 0.75 -0.28125l0.34375 1.140625q-0.515625 0.234375 -1.109375 0.375q-0.59375 0.15625 -1.28125 0.15625q-1.140625 0 -1.609375 -0.640625q-0.46875 -0.640625 -0.46875 -2.15625l0 -5.4375l-1.453125 0l0 -1.3125zm14.166 8.578125q-0.5625 0.453125 -1.421875 0.71875q-0.84375 0.25 -1.796875 0.25q-1.0625 0 -1.84375 -0.34375q-0.78125 -0.34375 -1.28125 -0.984375q-0.5 -0.640625 -0.75 -1.53125q-0.234375 -0.90625 -0.234375 -2.03125q0 -2.375 1.0625 -3.625q1.0625 -1.25 3.03125 -1.25q0.640625 0 1.265625 0.140625q0.640625 0.140625 1.140625 0.53125q0.5 0.390625 0.8125 1.109375q0.328125 0.71875 0.328125 1.890625q0 0.609375 -0.109375 1.359375l-5.984375 0q0 0.828125 0.15625 1.46875q0.171875 0.625 0.515625 1.0625q0.359375 0.4375 0.921875 0.671875q0.578125 0.234375 1.40625 0.234375q0.625 0 1.265625 -0.21875q0.640625 -0.234375 0.953125 -0.53125l0.5625 1.078125zm-3.21875 -7.5q-1.09375 0 -1.765625 0.578125q-0.65625 0.578125 -0.78125 1.984375l4.625 0q0 -1.421875 -0.546875 -1.984375q-0.53125 -0.578125 -1.53125 -0.578125z" fill-rule="nonzero"/><path fill="#000000" d="m252.23961 73.27078q0.5 0 1.0 -0.46875q0.5 -0.484375 0.953125 -1.15625q0.453125 -0.671875 0.796875 -1.390625q0.359375 -0.734375 0.5625 -1.21875l0.59376526 -3.1875q-0.25001526 -0.1875 -0.50001526 -0.25q-0.234375 -0.078125 -0.671875 -0.078125q-0.859375 0 -1.5625 0.53125q-0.6875 0.53125 -1.1875 1.375q-0.5 0.828125 -0.765625 1.859375q-0.265625 1.015625 -0.265625 2.015625q0 0.953125 0.234375 1.46875q0.234375 0.5 0.8125 0.5zm2.9375 -2.71875q-0.234375 0.671875 -0.609375 1.359375q-0.359375 0.6875 -0.84375 1.25q-0.46875 0.5625 -1.046875 0.921875q-0.578125 0.34375 -1.21875 0.34375q-1.953125 0 -1.953125 -2.8125q0 -1.3125 0.375 -2.546875q0.375 -1.234375 1.078125 -2.203125q0.71875 -0.984375 1.734375 -1.5625q1.015625 -0.59375 2.296875 -0.59375q0.46875 0 0.75 0.09375q0.28126526 0.078125 0.67189026 0.25q0.75 -0.390625 1.5625 -0.390625l-1.671875 8.515625l1.359375 0l0 0.46875q-0.375 0.296875 -0.90625 0.484375q-0.515625 0.1875 -1.0156403 0.1875q-0.53125 0 -0.765625 -0.234375q-0.234375 -0.234375 -0.234375 -0.484375q0 -0.34375 0.125 -1.109375q0.125 -0.765625 0.390625 -1.9375l-0.078125 0z" fill-rule="nonzero"/><path fill="#000000" fill-opacity="0.0" d="m736.95667 96.43973c0 -5.489586 4.4501953 -9.939781 9.939819 -9.939781l17.91571 0c2.6361694 0 5.1644287 1.047226 7.0285034 2.9113007c1.8640747 1.8640671 2.911255 4.392288 2.911255 7.0284805l0 17.915718c0 5.489586 -4.4501953 9.939781 -9.939758 9.939781l-17.91571 0c-5.489624 0 -9.939819 -4.4501953 -9.939819 -9.939781z" fill-rule="evenodd"/><path stroke="#000000" stroke-width="2.0" stroke-linejoin="round" stroke-linecap="butt" d="m736.95667 96.43973c0 -5.489586 4.4501953 -9.939781 9.939819 -9.939781l17.91571 0c2.6361694 0 5.1644287 1.047226 7.0285034 2.9113007c1.8640747 1.8640671 2.911255 4.392288 2.911255 7.0284805l0 17.915718c0 5.489586 -4.4501953 9.939781 -9.939758 9.939781l-17.91571 0c-5.489624 0 -9.939819 -4.4501953 -9.939819 -9.939781z" fill-rule="evenodd"/><path fill="#000000" d="m754.01245 112.73446q0.65625 0 1.296875 -0.609375q0.65625 -0.609375 1.234375 -1.46875q0.578125 -0.875 1.03125 -1.8125q0.453125 -0.9375 0.71875 -1.546875l0.765625 -4.109375q-0.359375 -0.234375 -0.671875 -0.3125q-0.296875 -0.09375 -0.84375 -0.125q-1.15625 0.03125 -2.0625 0.71875q-0.90625 0.671875 -1.53125 1.75q-0.625 1.0625 -0.953125 2.390625q-0.328125 1.3125 -0.328125 2.578125q0 1.234375 0.296875 1.890625q0.3125 0.65625 1.046875 0.65625zm3.796875 -3.5q-0.3125 0.859375 -0.796875 1.75q-0.46875 0.890625 -1.09375 1.609375q-0.609375 0.71875 -1.34375 1.171875q-0.71875 0.453125 -1.5625 0.453125q-2.5 0 -2.5 -3.640625q0 -1.703125 0.484375 -3.296875q0.484375 -1.59375 1.390625 -2.828125q0.90625 -1.25 2.203125 -1.984375q1.296875 -0.75 2.953125 -0.75q0.625 0 0.9375 0.09375q0.3125 0.078125 0.796875 0.296875l0.90625 -4.546875l-1.671875 -0.203125l0 -0.609375q0.359375 -0.140625 0.78125 -0.265625q0.4375 -0.140625 0.90625 -0.25q0.46875 -0.109375 0.9375 -0.203125q0.484375 -0.09375 0.890625 -0.140625l0.515625 0.1875l-3.296875 16.546875l1.75 0l0 0.59375q-0.46875 0.375 -1.140625 0.625q-0.671875 0.234375 -1.328125 0.234375q-0.6875 0 -1.0 -0.296875q-0.296875 -0.296875 -0.296875 -0.640625q0 -0.421875 0.171875 -1.40625q0.171875 -0.984375 0.5 -2.5l-0.09375 0z" fill-rule="nonzero"/><path fill="#000000" d="m767.19293 123.17527c0 -2.0873718 1.6921387 -3.7795258 3.77948 -3.7795258c1.0024414 0 1.9637451 0.398201 2.6725464 1.1070023c0.70880127 0.70879364 1.1069946 1.6701355 1.1069946 2.6725235c0 2.0873795 -1.6921387 3.7795334 -3.779541 3.7795334c-2.0873413 0 -3.77948 -1.6921539 -3.77948 -3.7795334z" fill-rule="evenodd"/><path stroke="#000000" stroke-width="1.0" stroke-linejoin="round" stroke-linecap="butt" d="m767.19293 123.17527c0 -2.0873718 1.6921387 -3.7795258 3.77948 -3.7795258c1.0024414 0 1.9637451 0.398201 2.6725464 1.1070023c0.70880127 0.70879364 1.1069946 1.6701355 1.1069946 2.6725235c0 2.0873795 -1.6921387 3.7795334 -3.779541 3.7795334c-2.0873413 0 -3.77948 -1.6921539 -3.77948 -3.7795334z" fill-rule="evenodd"/><path fill="#000000" d="m736.95667 123.17527c0 -2.0873718 1.6921997 -3.7795258 3.779541 -3.7795258c1.0023804 0 1.9637451 0.398201 2.6725464 1.1070023c0.70880127 0.70879364 1.1069946 1.6701355 1.1069946 2.6725235c0 2.0873795 -1.6921387 3.7795334 -3.779541 3.7795334c-2.0873413 0 -3.779541 -1.6921539 -3.779541 -3.7795334z" fill-rule="evenodd"/><path stroke="#000000" stroke-width="1.0" stroke-linejoin="round" stroke-linecap="butt" d="m736.95667 123.17527c0 -2.0873718 1.6921997 -3.7795258 3.779541 -3.7795258c1.0023804 0 1.9637451 0.398201 2.6725464 1.1070023c0.70880127 0.70879364 1.1069946 1.6701355 1.1069946 2.6725235c0 2.0873795 -1.6921387 3.7795334 -3.779541 3.7795334c-2.0873413 0 -3.779541 -1.6921539 -3.779541 -3.7795334z" fill-rule="evenodd"/><path fill="#000000" fill-opacity="0.0" d="m688.7362 47.51648l-36.881897 38.992126" fill-rule="evenodd"/><path stroke="#000000" stroke-width="1.9763779527559056" stroke-linejoin="round" stroke-linecap="butt" d="m688.7362 47.51648l-28.733154 30.377182" fill-rule="evenodd"/><path fill="#000000" stroke="#000000" stroke-width="1.9763779527559056" stroke-linecap="butt" d="m657.6314 75.65042l-3.791626 8.759148l8.534851 -4.2726593z" fill-rule="evenodd"/><path fill="#000000" fill-opacity="0.0" d="m721.64496 46.40948l34.204712 40.094486" fill-rule="evenodd"/><path stroke="#000000" stroke-width="1.9763779527559056" stroke-linejoin="round" stroke-linecap="butt" d="m721.64496 46.409485l26.508484 31.073029" fill-rule="evenodd"/><path fill="#000000" stroke="#000000" stroke-width="1.9763779527559056" stroke-linecap="butt" d="m745.6699 79.601204l8.304565 4.7046814l-3.3375854 -8.942055z" fill-rule="evenodd"/><path fill="#efefef" d="m514.0105 54.609642l71.86389 0l0 -7.541832l23.978638 20.220474l-23.978638 20.220467l0 -7.5418243l-71.86389 0z" fill-rule="evenodd"/><path stroke="#000000" stroke-width="1.0" stroke-linejoin="round" stroke-linecap="butt" d="m514.0105 54.609642l71.86389 0l0 -7.541832l23.978638 20.220474l-23.978638 20.220467l0 -7.5418243l-71.86389 0z" fill-rule="evenodd"/><path fill="#000000" d="m533.4879 71.67703q0 -0.5625 -0.34375 -0.875q-0.328125 -0.328125 -0.828125 -0.53125q-0.5 -0.21875 -1.09375 -0.40625q-0.578125 -0.203125 -1.078125 -0.515625q-0.484375 -0.3125 -0.828125 -0.796875q-0.328125 -0.484375 -0.328125 -1.296875q0 -1.34375 0.765625 -1.96875q0.765625 -0.625 2.125 -0.625q1.0 0 1.6875 0.171875q0.6875 0.171875 1.1875 0.421875l-0.359375 1.234375q-0.421875 -0.203125 -1.03125 -0.359375q-0.609375 -0.171875 -1.296875 -0.171875q-0.828125 0 -1.21875 0.28125q-0.375 0.28125 -0.375 0.96875q0 0.484375 0.328125 0.765625q0.34375 0.265625 0.84375 0.484375q0.5 0.203125 1.078125 0.421875q0.59375 0.203125 1.078125 0.546875q0.5 0.328125 0.828125 0.84375q0.34375 0.5 0.34375 1.34375q0 0.59375 -0.203125 1.125q-0.1875 0.515625 -0.59375 0.890625q-0.40625 0.375 -1.015625 0.578125q-0.609375 0.21875 -1.4375 0.21875q-1.0625 0 -1.8125 -0.203125q-0.734375 -0.203125 -1.234375 -0.484375l0.4375 -1.265625q0.4375 0.234375 1.125 0.453125q0.6875 0.203125 1.390625 0.203125q0.8125 0 1.328125 -0.3125q0.53125 -0.328125 0.53125 -1.140625zm2.510559 -6.796875l1.453125 0l0 -1.8437538l1.5 -0.4375l0 2.2812538l2.53125 0l0 1.3125l-2.53125 0l0 5.15625q0 0.96875 0.234375 1.375q0.25 0.40625 0.828125 0.40625q0.484375 0 0.8125 -0.09375q0.34375 -0.109375 0.75 -0.28125l0.34375 1.140625q-0.515625 0.234375 -1.109375 0.375q-0.59375 0.15625 -1.28125 0.15625q-1.140625 0 -1.609375 -0.640625q-0.46875 -0.640625 -0.46875 -2.15625l0 -5.4375l-1.453125 0l0 -1.3125zm14.165955 8.578125q-0.5625 0.453125 -1.421875 0.71875q-0.84375 0.25 -1.796875 0.25q-1.0625 0 -1.84375 -0.34375q-0.78125 -0.34375 -1.28125 -0.984375q-0.5 -0.640625 -0.75 -1.53125q-0.234375 -0.90625 -0.234375 -2.03125q0 -2.375 1.0625 -3.625q1.0625 -1.25 3.03125 -1.25q0.640625 0 1.265625 0.140625q0.640625 0.140625 1.140625 0.53125q0.5 0.390625 0.8125 1.109375q0.328125 0.71875 0.328125 1.890625q0 0.609375 -0.109375 1.359375l-5.984375 0q0 0.828125 0.15625 1.46875q0.171875 0.625 0.515625 1.0625q0.359375 0.4375 0.921875 0.671875q0.578125 0.234375 1.40625 0.234375q0.625 0 1.265625 -0.21875q0.640625 -0.234375 0.953125 -0.53125l0.5625 1.078125zm-3.21875 -7.5q-1.09375 0 -1.765625 0.578125q-0.65625 0.578125 -0.78125 1.984375l4.625 0q0 -1.421875 -0.546875 -1.984375q-0.53125 -0.578125 -1.53125 -0.578125zm5.727417 -0.390625q0.71875 -0.421875 1.65625 -0.625q0.9375 -0.21875 1.96875 -0.21875q0.96875 0 1.546875 0.265625q0.59375 0.265625 0.90625 0.6875q0.3125 0.421875 0.40625 0.921875q0.109375 0.5 0.109375 1.0q0 1.125 -0.0625 2.1875q-0.046875 1.0625 -0.046875 2.015625q0 0.6875 0.046875 1.3125q0.0625 0.609375 0.203125 1.125l-1.09375 0l-0.390625 -1.296875l-0.09375 0q-0.171875 0.265625 -0.421875 0.515625q-0.25 0.25 -0.609375 0.453125q-0.34375 0.1875 -0.8125 0.3125q-0.46875 0.140625 -1.0625 0.140625q-0.609375 0 -1.125 -0.1875q-0.5 -0.1875 -0.875 -0.53125q-0.375 -0.359375 -0.59375 -0.84375q-0.203125 -0.484375 -0.203125 -1.09375q0 -0.828125 0.328125 -1.375q0.34375 -0.546875 0.9375 -0.875q0.609375 -0.328125 1.453125 -0.46875q0.859375 -0.140625 1.875 -0.140625q0.265625 0 0.515625 0q0.25 0 0.515625 0.046875q0.0625 -0.5625 0.0625 -1.015625q0 -1.015625 -0.421875 -1.421875q-0.40625 -0.421875 -1.484375 -0.421875q-0.3125 0 -0.6875 0.046875q-0.359375 0.046875 -0.75 0.140625q-0.375 0.078125 -0.71875 0.203125q-0.34375 0.109375 -0.609375 0.265625l-0.46875 -1.125zm2.65625 7.484375q0.515625 0 0.921875 -0.140625q0.421875 -0.140625 0.71875 -0.34375q0.296875 -0.21875 0.484375 -0.484375q0.203125 -0.265625 0.296875 -0.5l0 -1.546875q-0.265625 -0.03125 -0.53125 -0.03125q-0.265625 -0.015625 -0.53125 -0.015625q-0.578125 0 -1.125 0.078125q-0.546875 0.0625 -0.96875 0.234375q-0.421875 0.171875 -0.671875 0.484375q-0.25 0.3125 -0.25 0.765625q0 0.65625 0.453125 1.078125q0.46875 0.421875 1.203125 0.421875zm8.409729 -1.140625q0 0.65625 0.21875 0.9375q0.234375 0.28125 0.640625 0.28125q0.25 0 0.515625 -0.03125q0.28125 -0.046875 0.640625 -0.171875l0.171875 1.171875q-0.296875 0.140625 -0.828125 0.234375q-0.53125 0.09375 -0.921875 0.09375q-0.84375 0 -1.390625 -0.46875q-0.53125 -0.484375 -0.53125 -1.609375l0 -11.203129l1.484375 0l0 10.765629z" fill-rule="nonzero"/><path fill="#000000" d="m574.13666 61.48953l-1.3125 -0.171875l0 -0.4375q0.296875 -0.109375 0.65625 -0.21875q0.359375 -0.109375 0.71875 -0.203125q0.359375 -0.109375 0.71875 -0.171875q0.359375 -0.078125 0.65625 -0.109375l0.390625 0.203125l-1.640625 7.781254l0.09375 0q0.328125 -0.671875 0.734375 -1.296875q0.40625 -0.640625 0.859375 -1.125q0.453125 -0.484375 0.953125 -0.78125q0.515625 -0.296875 1.062561 -0.296875q1.0 0 1.578125 0.6875q0.578125 0.6875 0.578125 2.140625q0 1.4375 -0.40625 2.703125q-0.40625 1.25 -1.140625 2.203125q-0.71881104 0.9375 -1.750061 1.484375q-1.015625 0.546875 -2.265625 0.546875q-0.921875 0 -1.71875 -0.234375q-0.78125 -0.234375 -1.15625 -0.546875l2.390625 -12.156254zm3.109375 4.328129q-0.484375 0 -0.953125 0.4375q-0.46875 0.421875 -0.875 1.03125q-0.390625 0.59375 -0.71875 1.265625q-0.328125 0.65625 -0.546875 1.109375l-0.703125 3.578125q0.28125 0.1875 0.6875 0.296875q0.421875 0.09375 0.84375 0.09375q0.71875 0 1.359375 -0.5q0.640625 -0.5 1.125 -1.328125q0.5 -0.828125 0.76568604 -1.859375q0.28125 -1.03125 0.265625 -2.09375q0.015625 -0.890625 -0.28125 -1.453125q-0.29693604 -0.578125 -0.96881104 -0.578125z" fill-rule="nonzero"/><path fill="#000000" fill-opacity="0.0" d="m54.249462 17.00141c0 -5.4895887 4.4501915 -9.939779 9.939777 -9.939779l17.915718 0c2.6361923 0 5.1644135 1.0472236 7.028488 2.9112935c1.8640671 1.8640709 2.911293 4.392292 2.911293 7.0284863l0 17.915716c0 5.4895897 -4.4501877 9.939781 -9.939781 9.939781l-17.915718 0c-5.489586 0 -9.939777 -4.4501915 -9.939777 -9.939781z" fill-rule="evenodd"/><path stroke="#000000" stroke-width="2.0" stroke-linejoin="round" stroke-linecap="butt" d="m54.249462 17.00141c0 -5.4895887 4.4501915 -9.939779 9.939777 -9.939779l17.915718 0c2.6361923 0 5.1644135 1.0472236 7.028488 2.9112935c1.8640671 1.8640709 2.911293 4.392292 2.911293 7.0284863l0 17.915716c0 5.4895897 -4.4501877 9.939781 -9.939781 9.939781l-17.915718 0c-5.489586 0 -9.939777 -4.4501915 -9.939777 -9.939781z" fill-rule="evenodd"/><path fill="#000000" d="m70.77262 18.124266l-1.6875 -0.203125l0 -0.5625q0.390625 -0.140625 0.84375 -0.28125q0.453125 -0.140625 0.921875 -0.265625q0.46875 -0.140625 0.921875 -0.21875q0.46875 -0.09375 0.84375 -0.140625l0.5 0.265625l-2.109375 10.0l0.125 0q0.4375 -0.859375 0.953125 -1.671875q0.515625 -0.8125 1.09375 -1.4375q0.59375 -0.625 1.234375 -1.0q0.65625 -0.390625 1.375 -0.390625q1.265625 0 2.015625 0.890625q0.75 0.875 0.75 2.75q0 1.84375 -0.515625 3.46875q-0.515625 1.625 -1.453125 2.843752q-0.9375 1.203125 -2.265625 1.90625q-1.3125 0.703125 -2.921875 0.703125q-1.171875 0 -2.203125 -0.296875q-1.015625 -0.296875 -1.5 -0.703125l3.078125 -15.656252zm4.0 5.578125q-0.625 0 -1.21875 0.546875q-0.59375 0.546875 -1.109375 1.328125q-0.515625 0.78125 -0.9375 1.640625q-0.421875 0.84375 -0.71875 1.421875l-0.90625 4.609377q0.359375 0.234375 0.890625 0.375q0.546875 0.125 1.078125 0.125q0.9375 0 1.765625 -0.640625q0.828125 -0.65625 1.453125 -1.7031269q0.625 -1.0625 0.984375 -2.390625q0.359375 -1.328125 0.328125 -2.703125q0.03125 -1.15625 -0.359375 -1.875q-0.375 -0.734375 -1.25 -0.734375z" fill-rule="nonzero"/><path fill="#000000" d="m84.48569 43.736954c0 -2.0873756 1.6921463 -3.7795296 3.7795258 -3.7795296c1.002388 0 1.9637299 0.398201 2.6725311 1.1069984c0.70879364 0.70879745 1.1069946 1.6701355 1.1069946 2.6725311c0 2.0873756 -1.6921539 3.7795258 -3.7795258 3.7795258c-2.0873795 0 -3.7795258 -1.6921501 -3.7795258 -3.7795258z" fill-rule="evenodd"/><path stroke="#000000" stroke-width="1.0" stroke-linejoin="round" stroke-linecap="butt" d="m84.48569 43.736954c0 -2.0873756 1.6921463 -3.7795296 3.7795258 -3.7795296c1.002388 0 1.9637299 0.398201 2.6725311 1.1069984c0.70879364 0.70879745 1.1069946 1.6701355 1.1069946 2.6725311c0 2.0873756 -1.6921539 3.7795258 -3.7795258 3.7795258c-2.0873795 0 -3.7795258 -1.6921501 -3.7795258 -3.7795258z" fill-rule="evenodd"/><path fill="#000000" d="m54.249462 43.736954c0 -2.0873756 1.6921539 -3.7795296 3.7795296 -3.7795296c1.0023918 0 1.9637299 0.398201 2.6725273 1.1069984c0.70880127 0.70879745 1.1069984 1.6701355 1.1069984 2.6725311c0 2.0873756 -1.6921501 3.7795258 -3.7795258 3.7795258c-2.0873756 0 -3.7795296 -1.6921501 -3.7795296 -3.7795258z" fill-rule="evenodd"/><path stroke="#000000" stroke-width="1.0" stroke-linejoin="round" stroke-linecap="butt" d="m54.249462 43.736954c0 -2.0873756 1.6921539 -3.7795296 3.7795296 -3.7795296c1.0023918 0 1.9637299 0.398201 2.6725273 1.1069984c0.70880127 0.70879745 1.1069984 1.6701355 1.1069984 2.6725311c0 2.0873756 -1.6921501 3.7795258 -3.7795258 3.7795258c-2.0873756 0 -3.7795296 -1.6921501 -3.7795296 -3.7795258z" fill-rule="evenodd"/><path fill="#000000" fill-opacity="0.0" d="m9.028872 97.00141c0 -5.4895935 4.4501905 -9.939781 9.939779 -9.939781l17.915718 0c2.6361923 0 5.1644135 1.047226 7.0284843 2.911293c1.8640709 1.8640671 2.911293 4.392296 2.911293 7.028488l0 17.915718c0 5.489586 -4.4501915 9.939774 -9.939777 9.939774l-17.915718 0c-5.4895887 0 -9.939779 -4.4501877 -9.939779 -9.939774z" fill-rule="evenodd"/><path stroke="#000000" stroke-width="2.0" stroke-linejoin="round" stroke-linecap="butt" d="m9.028872 97.00141c0 -5.4895935 4.4501905 -9.939781 9.939779 -9.939781l17.915718 0c2.6361923 0 5.1644135 1.047226 7.0284843 2.911293c1.8640709 1.8640671 2.911293 4.392296 2.911293 7.028488l0 17.915718c0 5.489586 -4.4501915 9.939774 -9.939777 9.939774l-17.915718 0c-5.4895887 0 -9.939779 -4.4501877 -9.939779 -9.939774z" fill-rule="evenodd"/><path fill="#000000" d="m26.037777 113.29614q0.65625 0 1.296875 -0.609375q0.65625 -0.609375 1.21875 -1.46875q0.578125 -0.875 1.03125 -1.8125q0.46875 -0.9375 0.734375 -1.546875l0.765625 -4.109375q-0.34375 -0.234375 -0.65625 -0.328125q-0.3125 -0.109375 -0.859375 -0.109375q-1.109375 0 -2.015625 0.6875q-0.890625 0.6875 -1.53125 1.765625q-0.625 1.078125 -0.984375 2.40625q-0.34375 1.3125 -0.34375 2.578125q0 1.234375 0.296875 1.890625q0.3125 0.65625 1.046875 0.65625zm3.796875 -3.5q-0.3125 0.859375 -0.78125 1.75q-0.46875 0.890625 -1.078125 1.609375q-0.609375 0.71875 -1.359375 1.171875q-0.734375 0.453125 -1.578125 0.453125q-2.5 0 -2.5 -3.625q0 -1.671875 0.46875 -3.265625q0.484375 -1.59375 1.390625 -2.84375q0.921875 -1.25 2.234375 -2.0q1.3125 -0.765625 2.96875 -0.765625q0.59375 0 0.953125 0.109375q0.359375 0.109375 0.859375 0.328125q0.96875 -0.5 2.015625 -0.5l-2.15625 10.96875l1.75 0l0 0.59375q-0.46875 0.375 -1.140625 0.625q-0.671875 0.234375 -1.328125 0.234375q-0.6875 0 -1.0 -0.296875q-0.296875 -0.296875 -0.296875 -0.640625q0 -0.421875 0.171875 -1.40625q0.171875 -0.984375 0.5 -2.5l-0.09375 0z" fill-rule="nonzero"/><path fill="#000000" d="m39.26509 123.73695c0 -2.0873795 1.6921539 -3.7795258 3.7795296 -3.7795258c1.0023918 0 1.9637299 0.39819336 2.6725273 1.1069946c0.70880127 0.70880127 1.1069984 1.6701355 1.1069984 2.6725311c0 2.0873718 -1.6921501 3.7795258 -3.7795258 3.7795258c-2.0873756 0 -3.7795296 -1.6921539 -3.7795296 -3.7795258z" fill-rule="evenodd"/><path stroke="#000000" stroke-width="1.0" stroke-linejoin="round" stroke-linecap="butt" d="m39.26509 123.73695c0 -2.0873795 1.6921539 -3.7795258 3.7795296 -3.7795258c1.0023918 0 1.9637299 0.39819336 2.6725273 1.1069946c0.70880127 0.70880127 1.1069984 1.6701355 1.1069984 2.6725311c0 2.0873718 -1.6921501 3.7795258 -3.7795258 3.7795258c-2.0873756 0 -3.7795296 -1.6921539 -3.7795296 -3.7795258z" fill-rule="evenodd"/><path fill="#000000" d="m9.028872 123.73695c0 -2.0873795 1.692152 -3.7795258 3.7795277 -3.7795258c1.0023928 0 1.9637308 0.39819336 2.6725292 1.1069946c0.70879936 0.70880127 1.1069984 1.6701355 1.1069984 2.6725311c0 2.0873718 -1.692152 3.7795258 -3.7795277 3.7795258c-2.0873756 0 -3.7795277 -1.6921539 -3.7795277 -3.7795258z" fill-rule="evenodd"/><path stroke="#000000" stroke-width="1.0" stroke-linejoin="round" stroke-linecap="butt" d="m9.028872 123.73695c0 -2.0873795 1.692152 -3.7795258 3.7795277 -3.7795258c1.0023928 0 1.9637308 0.39819336 2.6725292 1.1069946c0.70879936 0.70880127 1.1069984 1.6701355 1.1069984 2.6725311c0 2.0873718 -1.692152 3.7795258 -3.7795277 3.7795258c-2.0873756 0 -3.7795277 -1.6921539 -3.7795277 -3.7795258z" fill-rule="evenodd"/><path fill="#000000" fill-opacity="0.0" d="m58.02899 47.51648l-30.110237 39.55906" fill-rule="evenodd"/><path stroke="#000000" stroke-width="1.9763779527559056" stroke-linejoin="round" stroke-linecap="butt" d="m58.028988 47.51648l-22.928139 30.123161" fill-rule="evenodd"/><path fill="#000000" stroke="#000000" stroke-width="1.9763779527559056" stroke-linecap="butt" d="m32.503258 75.66249l-2.8345814 9.113983l8.029768 -5.159683z" fill-rule="evenodd"/><path fill="#000000" d="m436.61417 123.366875c0 -2.0873795 1.6921692 -3.7795258 3.779541 -3.7795258c1.0023804 0 1.9637146 0.39819336 2.6725159 1.1069946c0.70880127 0.70880127 1.1069946 1.6701355 1.1069946 2.6725311c0 2.0873718 -1.6921387 3.7795258 -3.7795105 3.7795258c-2.0873718 0 -3.779541 -1.6921539 -3.779541 -3.7795258z" fill-rule="evenodd"/><path stroke="#000000" stroke-width="1.0" stroke-linejoin="round" stroke-linecap="butt" d="m436.61417 123.366875c0 -2.0873795 1.6921692 -3.7795258 3.779541 -3.7795258c1.0023804 0 1.9637146 0.39819336 2.6725159 1.1069946c0.70880127 0.70880127 1.1069946 1.6701355 1.1069946 2.6725311c0 2.0873718 -1.6921387 3.7795258 -3.7795105 3.7795258c-2.0873718 0 -3.779541 -1.6921539 -3.779541 -3.7795258z" fill-rule="evenodd"/><path fill="#000000" d="m402.59842 123.366875c0 -2.0873795 1.6921692 -3.7795258 3.779541 -3.7795258c1.0023804 0 1.9637146 0.39819336 2.6725159 1.1069946c0.70880127 0.70880127 1.1069946 1.6701355 1.1069946 2.6725311c0 2.0873718 -1.6921387 3.7795258 -3.7795105 3.7795258c-2.0873718 0 -3.779541 -1.6921539 -3.779541 -3.7795258z" fill-rule="evenodd"/><path stroke="#000000" stroke-width="1.0" stroke-linejoin="round" stroke-linecap="butt" d="m402.59842 123.366875c0 -2.0873795 1.6921692 -3.7795258 3.779541 -3.7795258c1.0023804 0 1.9637146 0.39819336 2.6725159 1.1069946c0.70880127 0.70880127 1.1069946 1.6701355 1.1069946 2.6725311c0 2.0873718 -1.6921387 3.7795258 -3.7795105 3.7795258c-2.0873718 0 -3.779541 -1.6921539 -3.779541 -3.7795258z" fill-rule="evenodd"/><path fill="#000000" d="m470.6299 123.366875c0 -2.0873795 1.6921692 -3.7795258 3.779541 -3.7795258c1.0023804 0 1.9637146 0.39819336 2.6725159 1.1069946c0.70880127 0.70880127 1.1069946 1.6701355 1.1069946 2.6725311c0 2.0873718 -1.6921387 3.7795258 -3.7795105 3.7795258c-2.0873718 0 -3.779541 -1.6921539 -3.779541 -3.7795258z" fill-rule="evenodd"/><path stroke="#000000" stroke-width="1.0" stroke-linejoin="round" stroke-linecap="butt" d="m470.6299 123.366875c0 -2.0873795 1.6921692 -3.7795258 3.779541 -3.7795258c1.0023804 0 1.9637146 0.39819336 2.6725159 1.1069946c0.70880127 0.70880127 1.1069946 1.6701355 1.1069946 2.6725311c0 2.0873718 -1.6921387 3.7795258 -3.7795105 3.7795258c-2.0873718 0 -3.779541 -1.6921539 -3.779541 -3.7795258z" fill-rule="evenodd"/><path fill="#000000" fill-opacity="0.0" d="m402.59842 96.63133c0 -5.4895935 4.4501953 -9.939781 9.939789 -9.939781l55.711 0c2.6361694 0 5.164398 1.047226 7.028473 2.911293c1.8640747 1.8640747 2.9112854 4.392296 2.9112854 7.028488l0 17.915718c0 5.489586 -4.450165 9.939774 -9.939758 9.939774l-55.711 0c-5.4895935 0 -9.939789 -4.4501877 -9.939789 -9.939774z" fill-rule="evenodd"/><path stroke="#000000" stroke-width="2.0" stroke-linejoin="round" stroke-linecap="butt" d="m402.59842 96.63133c0 -5.4895935 4.4501953 -9.939781 9.939789 -9.939781l55.711 0c2.6361694 0 5.164398 1.047226 7.028473 2.911293c1.8640747 1.8640747 2.9112854 4.392296 2.9112854 7.028488l0 17.915718c0 5.489586 -4.450165 9.939774 -9.939758 9.939774l-55.711 0c-5.4895935 0 -9.939789 -4.4501877 -9.939789 -9.939774z" fill-rule="evenodd"/><path fill="#000000" d="m426.54965 111.98856q-0.265625 0.453125 -0.671875 0.890625q-0.40625 0.4375 -0.96875 0.78125q-0.546875 0.34375 -1.234375 0.546875q-0.6875 0.203125 -1.5 0.203125q-1.765625 0 -2.8125 -1.125q-1.03125 -1.125 -1.03125 -3.0625q0 -1.734375 0.546875 -3.25q0.5625 -1.53125 1.5 -2.671875q0.953125 -1.140625 2.234375 -1.796875q1.296875 -0.65625 2.75 -0.65625q0.921875 0 1.5 0.140625q0.578125 0.140625 0.859375 0.40625q0.03125 0.265625 -0.03125 0.59375q-0.0625 0.3125 -0.203125 0.625q-0.125 0.3125 -0.328125 0.578125q-0.203125 0.265625 -0.421875 0.359375l-1.625 -1.671875q-0.828125 0.015625 -1.640625 0.5q-0.796875 0.484375 -1.4375 1.375q-0.625 0.875 -1.03125 2.140625q-0.390625 1.265625 -0.359375 2.84375q-0.03125 1.65625 0.65625 2.421875q0.6875 0.765625 1.859375 0.765625q0.5 0 0.9375 -0.140625q0.453125 -0.140625 0.828125 -0.359375q0.390625 -0.21875 0.703125 -0.453125q0.3125 -0.25 0.5625 -0.4375l0.359375 0.453125zm28.598145 0.9375q0.65625 0 1.296875 -0.609375q0.65625 -0.609375 1.234375 -1.46875q0.578125 -0.875 1.03125 -1.8125q0.453125 -0.9375 0.71875 -1.546875l0.765625 -4.109375q-0.359375 -0.234375 -0.671875 -0.3125q-0.296875 -0.09375 -0.84375 -0.125q-1.15625 0.03125 -2.0625 0.71875q-0.90625 0.671875 -1.53125 1.75q-0.625 1.0625 -0.953125 2.390625q-0.328125 1.3125 -0.328125 2.578125q0 1.234375 0.296875 1.890625q0.3125 0.65625 1.046875 0.65625zm3.796875 -3.5q-0.3125 0.859375 -0.796875 1.75q-0.46875 0.890625 -1.09375 1.609375q-0.609375 0.71875 -1.34375 1.171875q-0.71875 0.453125 -1.5625 0.453125q-2.5 0 -2.5 -3.640625q0 -1.703125 0.484375 -3.296875q0.484375 -1.59375 1.390625 -2.828125q0.90625 -1.25 2.203125 -1.984375q1.296875 -0.75 2.953125 -0.75q0.625 0 0.9375 0.09375q0.3125 0.078125 0.796875 0.296875l0.90625 -4.546875l-1.671875 -0.203125l0 -0.609375q0.359375 -0.140625 0.78125 -0.265625q0.4375 -0.140625 0.90625 -0.25q0.46875 -0.109375 0.9375 -0.203125q0.484375 -0.09375 0.890625 -0.140625l0.515625 0.1875l-3.296875 16.546875l1.75 0l0 0.59375q-0.46875 0.375 -1.140625 0.625q-0.671875 0.234375 -1.328125 0.234375q-0.6875 0 -1.0 -0.296875q-0.296875 -0.296875 -0.296875 -0.640625q0 -0.421875 0.171875 -1.40625q0.171875 -0.984375 0.5 -2.5l-0.09375 0z" fill-rule="nonzero"/><path fill="#000000" fill-opacity="0.0" d="m440.3937 86.69155l0 37.795273" fill-rule="evenodd"/><path stroke="#000000" stroke-width="2.0" stroke-linejoin="round" stroke-linecap="butt" d="m440.3937 86.69155l0 37.795273" fill-rule="evenodd"/><path fill="#000000" fill-opacity="0.0" d="m400.2652 47.51648l40.126007 39.181107" fill-rule="evenodd"/><path stroke="#000000" stroke-width="1.9763779527559056" stroke-linejoin="round" stroke-linecap="butt" d="m400.26523 47.51648l31.641602 30.89653" fill-rule="evenodd"/><path fill="#000000" stroke="#000000" stroke-width="1.9763779527559056" stroke-linecap="butt" d="m429.6262 80.74866l8.697784 3.9303818l-4.1364746 -8.601685z" fill-rule="evenodd"/><path fill="#000000" fill-opacity="0.0" d="m366.24945 17.00141c0 -5.4895887 4.4501953 -9.939779 9.939789 -9.939779l17.91571 0c2.6362 0 5.1644287 1.0472236 7.0285034 2.9112935c1.8640747 1.8640709 2.9112854 4.392292 2.9112854 7.0284863l0 17.915716c0 5.4895897 -4.4501953 9.939781 -9.939789 9.939781l-17.91571 0c-5.4895935 0 -9.939789 -4.4501915 -9.939789 -9.939781z" fill-rule="evenodd"/><path stroke="#000000" stroke-width="2.0" stroke-linejoin="round" stroke-linecap="butt" d="m366.24945 17.00141c0 -5.4895887 4.4501953 -9.939779 9.939789 -9.939779l17.91571 0c2.6362 0 5.1644287 1.0472236 7.0285034 2.9112935c1.8640747 1.8640709 2.9112854 4.392292 2.9112854 7.0284863l0 17.915716c0 5.4895897 -4.4501953 9.939781 -9.939789 9.939781l-17.91571 0c-5.4895935 0 -9.939789 -4.4501915 -9.939789 -9.939781z" fill-rule="evenodd"/><path fill="#000000" d="m382.7726 18.124266l-1.6875 -0.203125l0 -0.5625q0.390625 -0.140625 0.84375 -0.28125q0.453125 -0.140625 0.921875 -0.265625q0.46875 -0.140625 0.921875 -0.21875q0.46875 -0.09375 0.84375 -0.140625l0.5 0.265625l-2.109375 10.0l0.125 0q0.4375 -0.859375 0.953125 -1.671875q0.515625 -0.8125 1.09375 -1.4375q0.59375 -0.625 1.234375 -1.0q0.65625 -0.390625 1.375 -0.390625q1.265625 0 2.015625 0.890625q0.75 0.875 0.75 2.75q0 1.84375 -0.515625 3.46875q-0.515625 1.625 -1.453125 2.843752q-0.9375 1.203125 -2.265625 1.90625q-1.3125 0.703125 -2.921875 0.703125q-1.171875 0 -2.203125 -0.296875q-1.015625 -0.296875 -1.5 -0.703125l3.078125 -15.656252zm4.0 5.578125q-0.625 0 -1.21875 0.546875q-0.59375 0.546875 -1.109375 1.328125q-0.515625 0.78125 -0.9375 1.640625q-0.421875 0.84375 -0.71875 1.421875l-0.90625 4.609377q0.359375 0.234375 0.890625 0.375q0.546875 0.125 1.078125 0.125q0.9375 0 1.765625 -0.640625q0.828125 -0.65625 1.453125 -1.7031269q0.625 -1.0625 0.984375 -2.390625q0.359375 -1.328125 0.328125 -2.703125q0.03125 -1.15625 -0.359375 -1.875q-0.375 -0.734375 -1.25 -0.734375z" fill-rule="nonzero"/><path fill="#000000" d="m396.4857 43.736954c0 -2.0873756 1.6921387 -3.7795296 3.7795105 -3.7795296c1.0024109 0 1.9637451 0.398201 2.6725464 1.1069984c0.70880127 0.70879745 1.1069946 1.6701355 1.1069946 2.6725311c0 2.0873756 -1.6921387 3.7795258 -3.779541 3.7795258c-2.0873718 0 -3.7795105 -1.6921501 -3.7795105 -3.7795258z" fill-rule="evenodd"/><path stroke="#000000" stroke-width="1.0" stroke-linejoin="round" stroke-linecap="butt" d="m396.4857 43.736954c0 -2.0873756 1.6921387 -3.7795296 3.7795105 -3.7795296c1.0024109 0 1.9637451 0.398201 2.6725464 1.1069984c0.70880127 0.70879745 1.1069946 1.6701355 1.1069946 2.6725311c0 2.0873756 -1.6921387 3.7795258 -3.779541 3.7795258c-2.0873718 0 -3.7795105 -1.6921501 -3.7795105 -3.7795258z" fill-rule="evenodd"/><path fill="#000000" d="m366.24945 43.736954c0 -2.0873756 1.6921692 -3.7795296 3.779541 -3.7795296c1.0023804 0 1.9637146 0.398201 2.6725159 1.1069984c0.70880127 0.70879745 1.1070251 1.6701355 1.1070251 2.6725311c0 2.0873756 -1.6921692 3.7795258 -3.779541 3.7795258c-2.0873718 0 -3.779541 -1.6921501 -3.779541 -3.7795258z" fill-rule="evenodd"/><path stroke="#000000" stroke-width="1.0" stroke-linejoin="round" stroke-linecap="butt" d="m366.24945 43.736954c0 -2.0873756 1.6921692 -3.7795296 3.779541 -3.7795296c1.0023804 0 1.9637146 0.398201 2.6725159 1.1069984c0.70880127 0.70879745 1.1070251 1.6701355 1.1070251 2.6725311c0 2.0873756 -1.6921692 3.7795258 -3.779541 3.7795258c-2.0873718 0 -3.779541 -1.6921501 -3.779541 -3.7795258z" fill-rule="evenodd"/><path fill="#000000" fill-opacity="0.0" d="m334.18634 92.808395c0 -3.1745453 2.5734863 -5.7480316 5.748047 -5.7480316l0 0c1.5244751 0 2.9865112 0.60559845 4.064453 1.6835632c1.0779724 1.0779648 1.6835632 2.540001 1.6835632 4.0644684l0 26.299217c0 3.1745453 -2.5734558 5.7480316 -5.7480164 5.7480316l0 0c-3.1745605 0 -5.748047 -2.5734863 -5.748047 -5.7480316z" fill-rule="evenodd"/><path stroke="#000000" stroke-width="2.0" stroke-linejoin="round" stroke-linecap="butt" d="m334.18634 92.808395c0 -3.1745453 2.5734863 -5.7480316 5.748047 -5.7480316l0 0c1.5244751 0 2.9865112 0.60559845 4.064453 1.6835632c1.0779724 1.0779648 1.6835632 2.540001 1.6835632 4.0644684l0 26.299217c0 3.1745453 -2.5734558 5.7480316 -5.7480164 5.7480316l0 0c-3.1745605 0 -5.748047 -2.5734863 -5.748047 -5.7480316z" fill-rule="evenodd"/><path fill="#000000" fill-opacity="0.0" d="m370.029 47.51648l-30.11023 39.55906" fill-rule="evenodd"/><path stroke="#000000" stroke-width="1.9763779527559056" stroke-linejoin="round" stroke-linecap="butt" d="m370.029 47.51648l-22.928162 30.123161" fill-rule="evenodd"/><path fill="#000000" stroke="#000000" stroke-width="1.9763779527559056" stroke-linecap="butt" d="m344.50327 75.66249l-2.8345947 9.113983l8.029785 -5.159683z" fill-rule="evenodd"/><path fill="#efefef" d="m423.93436 96.37124l2.9744263 -4.528473c12.612183 -19.201729 7.264099 -44.982533 -11.9453125 -57.583035l-7.2900085 -4.7819176l2.2206726 -3.3808842l-11.144012 -0.27043343l4.681061 10.110081l2.220642 -3.380886l7.2900085 4.7819176c17.50888 11.4850235 22.383514 34.983536 10.887817 52.485405l-2.9743958 4.528473z" fill-rule="evenodd"/><path stroke="#000000" stroke-width="1.0" stroke-linejoin="round" stroke-linecap="butt" d="m423.93436 96.37124l2.9744263 -4.528473c12.612183 -19.201729 7.264099 -44.982533 -11.9453125 -57.583035l-7.2900085 -4.7819176l2.2206726 -3.3808842l-11.144012 -0.27043343l4.681061 10.110081l2.220642 -3.380886l7.2900085 4.7819176c17.50888 11.4850235 22.383514 34.983536 10.887817 52.485405l-2.9743958 4.528473z" fill-rule="evenodd"/><path fill="#000000" fill-opacity="0.0" d="m684.95667 17.00141c0 -5.4895887 4.4501953 -9.939779 9.939819 -9.939779l17.91571 0c2.6361694 0 5.1644287 1.0472236 7.0285034 2.9112935c1.8640747 1.8640709 2.911255 4.392292 2.911255 7.0284863l0 17.915716c0 5.4895897 -4.4501953 9.939781 -9.939758 9.939781l-17.91571 0c-5.489624 0 -9.939819 -4.4501915 -9.939819 -9.939781z" fill-rule="evenodd"/><path stroke="#000000" stroke-width="2.0" stroke-linejoin="round" stroke-linecap="butt" d="m684.95667 17.00141c0 -5.4895887 4.4501953 -9.939779 9.939819 -9.939779l17.91571 0c2.6361694 0 5.1644287 1.0472236 7.0285034 2.9112935c1.8640747 1.8640709 2.911255 4.392292 2.911255 7.0284863l0 17.915716c0 5.4895897 -4.4501953 9.939781 -9.939758 9.939781l-17.91571 0c-5.489624 0 -9.939819 -4.4501915 -9.939819 -9.939781z" fill-rule="evenodd"/><path fill="#000000" d="m707.8902 32.358643q-0.265625 0.453125 -0.671875 0.890625q-0.40625 0.4375 -0.96875 0.78125q-0.546875 0.34375 -1.234375 0.546875q-0.6875 0.203125 -1.5 0.203125q-1.765625 0 -2.8125 -1.125q-1.03125 -1.125 -1.03125 -3.062502q0 -1.734375 0.546875 -3.25q0.5625 -1.53125 1.5 -2.671875q0.953125 -1.140625 2.234375 -1.796875q1.296875 -0.65625 2.75 -0.65625q0.921875 0 1.5 0.140625q0.578125 0.140625 0.859375 0.40625q0.03125 0.265625 -0.03125 0.59375q-0.0625 0.3125 -0.203125 0.625q-0.125 0.3125 -0.328125 0.578125q-0.203125 0.265625 -0.421875 0.359375l-1.625 -1.671875q-0.828125 0.015625 -1.640625 0.5q-0.796875 0.484375 -1.4375 1.375q-0.625 0.875 -1.03125 2.140625q-0.390625 1.265625 -0.359375 2.84375q-0.03125 1.65625 0.65625 2.421877q0.6875 0.765625 1.859375 0.765625q0.5 0 0.9375 -0.140625q0.453125 -0.140625 0.828125 -0.359375q0.390625 -0.21875 0.703125 -0.453125q0.3125 -0.25 0.5625 -0.4375019l0.359375 0.4531269z" fill-rule="nonzero"/><path fill="#000000" d="m715.19293 43.736954c0 -2.0873756 1.6921387 -3.7795296 3.77948 -3.7795296c1.0024414 0 1.9637451 0.398201 2.6725464 1.1069984c0.70880127 0.70879745 1.1069946 1.6701355 1.1069946 2.6725311c0 2.0873756 -1.6921387 3.7795258 -3.779541 3.7795258c-2.0873413 0 -3.77948 -1.6921501 -3.77948 -3.7795258z" fill-rule="evenodd"/><path stroke="#000000" stroke-width="1.0" stroke-linejoin="round" stroke-linecap="butt" d="m715.19293 43.736954c0 -2.0873756 1.6921387 -3.7795296 3.77948 -3.7795296c1.0024414 0 1.9637451 0.398201 2.6725464 1.1069984c0.70880127 0.70879745 1.1069946 1.6701355 1.1069946 2.6725311c0 2.0873756 -1.6921387 3.7795258 -3.779541 3.7795258c-2.0873413 0 -3.77948 -1.6921501 -3.77948 -3.7795258z" fill-rule="evenodd"/><path fill="#000000" d="m684.95667 43.736954c0 -2.0873756 1.6921997 -3.7795296 3.779541 -3.7795296c1.0023804 0 1.9637451 0.398201 2.6725464 1.1069984c0.70880127 0.70879745 1.1069946 1.6701355 1.1069946 2.6725311c0 2.0873756 -1.6921387 3.7795258 -3.779541 3.7795258c-2.0873413 0 -3.779541 -1.6921501 -3.779541 -3.7795258z" fill-rule="evenodd"/><path stroke="#000000" stroke-width="1.0" stroke-linejoin="round" stroke-linecap="butt" d="m684.95667 43.736954c0 -2.0873756 1.6921997 -3.7795296 3.779541 -3.7795296c1.0023804 0 1.9637451 0.398201 2.6725464 1.1069984c0.70880127 0.70879745 1.1069946 1.6701355 1.1069946 2.6725311c0 2.0873756 -1.6921387 3.7795258 -3.779541 3.7795258c-2.0873413 0 -3.779541 -1.6921501 -3.779541 -3.7795258z" fill-rule="evenodd"/><path fill="#efefef" d="m371.02365 23.497942l-5.8051453 1.6910763c-24.615051 7.170536 -38.766235 32.940647 -31.607574 57.55916l0.08935547 0.30728912l-4.334015 1.2625275l9.255524 8.30336l3.3580933 -11.977798l-4.334015 1.2625351l-0.08935547 -0.30728912c-6.524933 -22.439117 6.3735046 -45.927887 28.809479 -52.46364l5.8051453 -1.6910763z" fill-rule="evenodd"/><path stroke="#000000" stroke-width="1.0" stroke-linejoin="round" stroke-linecap="butt" d="m371.02365 23.497942l-5.8051453 1.6910763c-24.615051 7.170536 -38.766235 32.940647 -31.607574 57.55916l0.08935547 0.30728912l-4.334015 1.2625275l9.255524 8.30336l3.3580933 -11.977798l-4.334015 1.2625351l-0.08935547 -0.30728912c-6.524933 -22.439117 6.3735046 -45.927887 28.809479 -52.46364l5.8051453 -1.6910763z" fill-rule="evenodd"/><path fill="#000000" fill-opacity="0.0" d="m415.17038 11.710889l66.70865 0l0 55.181103l-66.70865 0z" fill-rule="evenodd"/><path fill="#000000" d="m430.60977 27.826815q-0.5625 -0.1875 -1.0625 -0.1875q-0.8125 0 -1.28125 0.4375q-0.453125 0.4375 -0.578125 1.109375l0 6.531252l-1.484375 0l0 -9.328127l1.046875 0l0.28125 1.140625l0.0625 0q0.359375 -0.640625 0.84375 -0.984375q0.5 -0.34375 1.265625 -0.34375q0.546875 0 1.21875 0.1875l-0.3125 1.4375zm1.4212646 3.21875q0 -2.359375 1.046875 -3.609375q1.046875 -1.265625 3.03125 -1.265625q1.046875 0 1.8125 0.34375q0.78125 0.34375 1.28125 0.984375q0.5 0.640625 0.734375 1.546875q0.25 0.90625 0.25 2.0q0 2.375002 -1.046875 3.640627q-1.046875 1.25 -3.03125 1.25q-1.046875 0 -1.828125 -0.34375q-0.765625 -0.34375 -1.265625 -0.984375q-0.5 -0.640625 -0.75 -1.546875q-0.234375 -0.90625 -0.234375 -2.015627zm1.546875 0q0 0.71875 0.140625 1.3750019q0.140625 0.640625 0.4375 1.140625q0.296875 0.484375 0.78125 0.78125q0.484375 0.296875 1.171875 0.296875q2.53125 0.015625 2.53125 -3.593752q0 -0.71875 -0.140625 -1.375q-0.140625 -0.65625 -0.4375 -1.140625q-0.296875 -0.484375 -0.78125 -0.765625q-0.484375 -0.296875 -1.171875 -0.296875q-2.53125 -0.015625 -2.53125 3.578125zm7.734131 -4.65625l1.453125 0l0 -1.84375l1.5 -0.4375l0 2.28125l2.53125 0l0 1.3125l-2.53125 0l0 5.156252q0 0.96875 0.234375 1.375q0.25 0.40625 0.828125 0.40625q0.484375 0 0.8125 -0.09375q0.34375 -0.109375 0.75 -0.28125l0.34375 1.140625q-0.515625 0.234375 -1.109375 0.375q-0.59375 0.15625 -1.28125 0.15625q-1.140625 0 -1.609375 -0.640625q-0.46875 -0.640625 -0.46875 -2.15625l0 -5.437502l-1.453125 0l0 -1.3125zm7.402588 0.6875q0.71875 -0.421875 1.65625 -0.625q0.9375 -0.21875 1.96875 -0.21875q0.96875 0 1.546875 0.265625q0.59375 0.265625 0.90625 0.6875q0.3125 0.421875 0.40625 0.921875q0.109375 0.5 0.109375 1.0q0 1.125 -0.0625 2.1875q-0.046875 1.0625019 -0.046875 2.015627q0 0.6875 0.046875 1.3125q0.0625 0.609375 0.203125 1.125l-1.09375 0l-0.390625 -1.296875l-0.09375 0q-0.171875 0.265625 -0.421875 0.515625q-0.25 0.25 -0.609375 0.453125q-0.34375 0.1875 -0.8125 0.3125q-0.46875 0.140625 -1.0625 0.140625q-0.609375 0 -1.125 -0.1875q-0.5 -0.1875 -0.875 -0.53125q-0.375 -0.359375 -0.59375 -0.84375q-0.203125 -0.484375 -0.203125 -1.09375q0 -0.828125 0.328125 -1.3750019q0.34375 -0.546875 0.9375 -0.875q0.609375 -0.328125 1.453125 -0.46875q0.859375 -0.140625 1.875 -0.140625q0.265625 0 0.515625 0q0.25 0 0.515625 0.046875q0.0625 -0.5625 0.0625 -1.015625q0 -1.015625 -0.421875 -1.421875q-0.40625 -0.421875 -1.484375 -0.421875q-0.3125 0 -0.6875 0.046875q-0.359375 0.046875 -0.75 0.140625q-0.375 0.078125 -0.71875 0.203125q-0.34375 0.109375 -0.609375 0.265625l-0.46875 -1.125zm2.65625 7.484377q0.515625 0 0.921875 -0.140625q0.421875 -0.140625 0.71875 -0.34375q0.296875 -0.21875 0.484375 -0.484375q0.203125 -0.265625 0.296875 -0.5l0 -1.5468769q-0.265625 -0.03125 -0.53125 -0.03125q-0.265625 -0.015625 -0.53125 -0.015625q-0.578125 0 -1.125 0.078125q-0.546875 0.0625 -0.96875 0.234375q-0.421875 0.171875 -0.671875 0.4843769q-0.25 0.3125 -0.25 0.765625q0 0.65625 0.453125 1.078125q0.46875 0.421875 1.203125 0.421875zm5.5191345 -8.171877l1.453125 0l0 -1.84375l1.5 -0.4375l0 2.28125l2.53125 0l0 1.3125l-2.53125 0l0 5.156252q0 0.96875 0.234375 1.375q0.25 0.40625 0.828125 0.40625q0.484375 0 0.8125 -0.09375q0.34375 -0.109375 0.75 -0.28125l0.34375 1.140625q-0.515625 0.234375 -1.109375 0.375q-0.59375 0.15625 -1.28125 0.15625q-1.140625 0 -1.609375 -0.640625q-0.46875 -0.640625 -0.46875 -2.15625l0 -5.437502l-1.453125 0l0 -1.3125zm14.165985 8.578127q-0.5625 0.453125 -1.421875 0.71875q-0.84375 0.25 -1.796875 0.25q-1.0625 0 -1.84375 -0.34375q-0.78125 -0.34375 -1.28125 -0.984375q-0.5 -0.640625 -0.75 -1.53125q-0.234375 -0.90625 -0.234375 -2.031252q0 -2.375 1.0625 -3.625q1.0625 -1.25 3.03125 -1.25q0.640625 0 1.265625 0.140625q0.640625 0.140625 1.140625 0.53125q0.5 0.390625 0.8125 1.109375q0.328125 0.71875 0.328125 1.890625q0 0.609375 -0.109375 1.359375l-5.984375 0q0 0.8281269 0.15625 1.4687519q0.171875 0.625 0.515625 1.0625q0.359375 0.4375 0.921875 0.671875q0.578125 0.234375 1.40625 0.234375q0.625 0 1.265625 -0.21875q0.640625 -0.234375 0.953125 -0.53125l0.5625 1.078125zm-3.21875 -7.500002q-1.09375 0 -1.765625 0.578125q-0.65625 0.578125 -0.78125 1.984375l4.625 0q0 -1.421875 -0.546875 -1.984375q-0.53125 -0.578125 -1.53125 -0.578125z" fill-rule="nonzero"/><path fill="#000000" d="m438.1674 51.340565q0 0.65625 0.21875 0.9375q0.234375 0.28125 0.640625 0.28125q0.25 0 0.515625 -0.03125q0.28125 -0.046875 0.640625 -0.171875l0.171875 1.171875q-0.296875 0.140625 -0.828125 0.234375q-0.53125 0.09375 -0.921875 0.09375q-0.84375 0 -1.390625 -0.46875q-0.53125 -0.484375 -0.53125 -1.609375l0 -11.203125l1.484375 0l0 10.765625zm10.603882 1.546875q-0.5625 0.453125 -1.421875 0.71875q-0.84375 0.25 -1.796875 0.25q-1.0625 0 -1.84375 -0.34375q-0.78125 -0.34375 -1.28125 -0.984375q-0.5 -0.640625 -0.75 -1.53125q-0.234375 -0.90625 -0.234375 -2.03125q0 -2.375 1.0625 -3.625q1.0625 -1.25 3.03125 -1.25q0.640625 0 1.265625 0.140625q0.640625 0.140625 1.140625 0.53125q0.5 0.390625 0.8125 1.109375q0.328125 0.71875 0.328125 1.890625q0 0.609375 -0.109375 1.359375l-5.984375 0q0 0.828125 0.15625 1.46875q0.171875 0.625 0.515625 1.0625q0.359375 0.4375 0.921875 0.671875q0.578125 0.234375 1.40625 0.234375q0.625 0 1.265625 -0.21875q0.640625 -0.234375 0.953125 -0.53125l0.5625 1.078125zm-3.21875 -7.5q-1.09375 0 -1.765625 0.578125q-0.65625 0.578125 -0.78125 1.984375l4.625 0q0 -1.421875 -0.546875 -1.984375q-0.53125 -0.578125 -1.53125 -0.578125zm4.852356 -1.078125l1.453125 0l0 -0.515625q0 -0.859375 0.140625 -1.5q0.140625 -0.640625 0.453125 -1.03125q0.328125 -0.40625 0.828125 -0.59375q0.5 -0.203125 1.25 -0.203125q0.59375 0 1.046875 0.078125q0.46875 0.078125 0.96875 0.28125l-0.328125 1.25q-0.4375 -0.1875 -0.828125 -0.234375q-0.375 -0.0625 -0.703125 -0.0625q-0.484375 0 -0.765625 0.15625q-0.265625 0.140625 -0.390625 0.4375q-0.109375 0.28125 -0.140625 0.703125q-0.03125 0.40625 -0.03125 0.96875l0 0.265625l2.484375 0l0 1.3125l-2.484375 0l0 8.015625l-1.5 0l0 -8.015625l-1.453125 0l0 -1.3125zm5.4495544 0l1.453125 0l0 -1.84375l1.5 -0.4375l0 2.28125l2.53125 0l0 1.3125l-2.53125 0l0 5.15625q0 0.96875 0.234375 1.375q0.25 0.40625 0.828125 0.40625q0.484375 0 0.8125 -0.09375q0.34375 -0.109375 0.75 -0.28125l0.34375 1.140625q-0.515625 0.234375 -1.109375 0.375q-0.59375 0.15625 -1.28125 0.15625q-1.140625 0 -1.609375 -0.640625q-0.46875 -0.640625 -0.46875 -2.15625l0 -5.4375l-1.453125 0l0 -1.3125z" fill-rule="nonzero"/></g></svg>