<svg version="1.1" viewBox="0.0 0.0 558.3333333333334 218.51968503937007" fill="none" stroke="none" stroke-linecap="square" stroke-miterlimit="10" xmlns:xlink="http://www.w3.org/1999/xlink" xmlns="http://www.w3.org/2000/svg"><clipPath id="p.0"><path d="m0 0l558.3333 0l0 218.51968l-558.3333 0l0 -218.51968z" clip-rule="nonzero"/></clipPath><g clip-path="url(#p.0)"><path fill="#000000" fill-opacity="0.0" d="m0 0l558.3333 0l0 218.51968l-558.3333 0z" fill-rule="evenodd"/><path fill="#000000" d="m241.9252 45.625404c0 -2.0873756 1.6921539 -3.7795296 3.7795258 -3.7795296c1.0023956 0 1.9637299 0.398201 2.6725311 1.1069984c0.70880127 0.70880127 1.1069946 1.6701393 1.1069946 2.6725311c0 2.0873756 -1.6921539 3.7795258 -3.7795258 3.7795258c-2.0873718 0 -3.7795258 -1.6921501 -3.7795258 -3.7795258z" fill-rule="evenodd"/><path stroke="#000000" stroke-width="1.0" stroke-linejoin="round" stroke-linecap="butt" d="m241.9252 45.625404c0 -2.0873756 1.6921539 -3.7795296 3.7795258 -3.7795296c1.0023956 0 1.9637299 0.398201 2.6725311 1.1069984c0.70880127 0.70880127 1.1069946 1.6701393 1.1069946 2.6725311c0 2.0873756 -1.6921539 3.7795258 -3.7795258 3.7795258c-2.0873718 0 -3.7795258 -1.6921501 -3.7795258 -3.7795258z" fill-rule="evenodd"/><path fill="#000000" d="m207.90945 45.625404c0 -2.0873756 1.6921539 -3.7795296 3.7795258 -3.7795296c1.0023956 0 1.9637299 0.398201 2.6725311 1.1069984c0.708786 0.70880127 1.1069946 1.6701393 1.1069946 2.6725311c0 2.0873756 -1.6921539 3.7795258 -3.7795258 3.7795258c-2.0873718 0 -3.7795258 -1.6921501 -3.7795258 -3.7795258z" fill-rule="evenodd"/><path stroke="#000000" stroke-width="1.0" stroke-linejoin="round" stroke-linecap="butt" d="m207.90945 45.625404c0 -2.0873756 1.6921539 -3.7795296 3.7795258 -3.7795296c1.0023956 0 1.9637299 0.398201 2.6725311 1.1069984c0.708786 0.70880127 1.1069946 1.6701393 1.1069946 2.6725311c0 2.0873756 -1.6921539 3.7795258 -3.7795258 3.7795258c-2.0873718 0 -3.7795258 -1.6921501 -3.7795258 -3.7795258z" fill-rule="evenodd"/><path fill="#000000" d="m275.94095 45.625404c0 -2.0873756 1.6921387 -3.7795296 3.7795105 -3.7795296c1.0024109 0 1.9637451 0.398201 2.6725464 1.1069984c0.70880127 0.70880127 1.1069946 1.6701393 1.1069946 2.6725311c0 2.0873756 -1.6921387 3.7795258 -3.779541 3.7795258c-2.0873718 0 -3.7795105 -1.6921501 -3.7795105 -3.7795258z" fill-rule="evenodd"/><path stroke="#000000" stroke-width="1.0" stroke-linejoin="round" stroke-linecap="butt" d="m275.94095 45.625404c0 -2.0873756 1.6921387 -3.7795296 3.7795105 -3.7795296c1.0024109 0 1.9637451 0.398201 2.6725464 1.1069984c0.70880127 0.70880127 1.1069946 1.6701393 1.1069946 2.6725311c0 2.0873756 -1.6921387 3.7795258 -3.779541 3.7795258c-2.0873718 0 -3.7795105 -1.6921501 -3.7795105 -3.7795258z" fill-rule="evenodd"/><path fill="#000000" fill-opacity="0.0" d="m207.90945 18.88986c0 -5.489588 4.45018 -9.939779 9.939774 -9.939779l55.710983 0c2.6362 0 5.1644287 1.047224 7.0285034 2.911294c1.8640747 1.8640709 2.9112854 4.392293 2.9112854 7.0284853l0 17.915716c0 5.4895897 -4.4501953 9.939781 -9.939789 9.939781l-55.710983 0c-5.4895935 0 -9.939774 -4.4501915 -9.939774 -9.939781z" fill-rule="evenodd"/><path stroke="#000000" stroke-width="2.0" stroke-linejoin="round" stroke-linecap="butt" d="m207.90945 18.88986c0 -5.489588 4.45018 -9.939779 9.939774 -9.939779l55.710983 0c2.6362 0 5.1644287 1.047224 7.0285034 2.911294c1.8640747 1.8640709 2.9112854 4.392293 2.9112854 7.0284853l0 17.915716c0 5.4895897 -4.4501953 9.939781 -9.939789 9.939781l-55.710983 0c-5.4895935 0 -9.939774 -4.4501915 -9.939774 -9.939781z" fill-rule="evenodd"/><path fill="#000000" d="m219.05923 33.74959l3.0 0l0 -10.328123l0.203125 -1.25l-0.84375 1.0l-2.359375 1.6875l-0.796875 -1.09375l4.6875 -3.625l0.765625 0l0 13.609373l2.921875 0l0 1.578125l-7.578125 0l0 -1.578125zm10.780121 -1.9843731q0 -1.34375 0.703125 -2.328125q0.703125 -1.0 2.1875 -1.8125q-0.53125 -0.3125 -0.984375 -0.65625q-0.453125 -0.359375 -0.8125 -0.8125q-0.34375 -0.453125 -0.546875 -1.0q-0.203125 -0.5625 -0.203125 -1.28125q0 -0.828125 0.28125 -1.515625q0.296875 -0.6875 0.828125 -1.171875q0.546875 -0.484375 1.296875 -0.765625q0.765625 -0.28125 1.71875 -0.28125q0.90625 0 1.625 0.265625q0.734375 0.25 1.234375 0.703125q0.5 0.4375 0.765625 1.0625q0.28125 0.609375 0.28125 1.359375q0 1.21875 -0.5625 2.15625q-0.546875 0.921875 -1.828125 1.8125q0.5625 0.328125 1.0625 0.71875q0.5 0.375 0.875 0.84375q0.375 0.46875 0.578125 1.0625q0.21875 0.578125 0.21875 1.328125q0 0.9062481 -0.296875 1.6718731q-0.296875 0.75 -0.875 1.296875q-0.578125 0.546875 -1.40625 0.859375q-0.828125 0.296875 -1.90625 0.296875q-1.015625 0 -1.8125 -0.296875q-0.78125 -0.296875 -1.328125 -0.796875q-0.546875 -0.515625 -0.828125 -1.203125q-0.265625 -0.703125 -0.265625 -1.5156231zm7.0625 -0.21875q0 -0.640625 -0.265625 -1.109375q-0.25 -0.484375 -0.671875 -0.875q-0.40625 -0.390625 -0.953125 -0.703125q-0.53125 -0.328125 -1.09375 -0.640625q-1.3125 0.734375 -1.875 1.640625q-0.546875 0.890625 -0.546875 1.6875q0 0.5156231 0.171875 0.9843731q0.171875 0.46875 0.515625 0.8125q0.34375 0.34375 0.84375 0.546875q0.5 0.203125 1.15625 0.203125q0.53125 0 1.015625 -0.15625q0.5 -0.171875 0.875 -0.46875q0.375 -0.3125 0.59375 -0.796875q0.234375 -0.484375 0.234375 -1.1249981zm-5.0625 -7.71875q0 0.59375 0.234375 1.0625q0.234375 0.453125 0.625 0.828125q0.40625 0.359375 0.90625 0.671875q0.515625 0.296875 1.078125 0.578125q0.953125 -0.75 1.40625 -1.46875q0.46875 -0.734375 0.46875 -1.609375q0 -1.078125 -0.671875 -1.65625q-0.671875 -0.59375 -1.609375 -0.59375q-0.578125 0 -1.03125 0.1875q-0.4375 0.1875 -0.765625 0.484375q-0.3125 0.296875 -0.484375 0.703125q-0.15625 0.390625 -0.15625 0.8125zm24.544373 10.265623q0.734375 0 1.34375 -0.203125q0.625 -0.21875 1.0625 -0.640625q0.453125 -0.421875 0.703125 -0.984375q0.265625 -0.5781231 0.265625 -1.2656231q0 -1.5 -0.890625 -2.21875q-0.875 -0.71875 -2.4375 -0.71875l-1.578125 0l0 -0.625l3.078125 -4.734375l0.96875 -0.9375l-1.375 0.21875l-4.234375 0l0 -1.59375l7.625 0l0 0.625l-3.390625 5.09375l-0.75 0.625l0 0.046875l0.71875 -0.15625q0.859375 0.015625 1.578125 0.3125q0.734375 0.28125 1.265625 0.828125q0.53125 0.546875 0.828125 1.3125q0.296875 0.75 0.296875 1.703125q0 1.15625 -0.40625 2.062498q-0.40625 0.890625 -1.09375 1.5q-0.6875 0.59375 -1.625 0.921875q-0.9375 0.3125 -1.984375 0.3125q-0.96875 0 -1.734375 -0.15625q-0.765625 -0.140625 -1.34375 -0.375l0.453125 -1.515625q0.484375 0.234375 1.15625 0.40625q0.671875 0.15625 1.5 0.15625zm16.15512 -10.296873q0 1.125 -0.421875 2.3125q-0.40625 1.171875 -1.078125 2.375q-0.671875 1.1875 -1.515625 2.328125q-0.828125 1.140625 -1.65625 2.171873l-1.046875 0.921875l0 0.078125l1.359375 -0.234375l4.65625 0l0 1.578125l-8.484375 0l0 -0.625q0.46875 -0.484375 1.125 -1.203125q0.65625 -0.734375 1.375 -1.6093731q0.71875 -0.890625 1.40625 -1.875q0.6875 -1.0 1.25 -2.015625q0.578125 -1.03125 0.90625 -2.03125q0.34375 -1.0 0.34375 -1.90625q0 -1.046875 -0.59375 -1.734375q-0.59375 -0.6875 -1.8125 -0.6875q-0.8125 0 -1.578125 0.328125q-0.765625 0.328125 -1.3125 0.75l-0.703125 -1.21875q0.734375 -0.625 1.75 -0.984375q1.03125 -0.375 2.203125 -0.375q0.921875 0 1.625 0.265625q0.703125 0.265625 1.1875 0.765625q0.5 0.484375 0.75 1.15625q0.265625 0.671875 0.265625 1.46875z" fill-rule="nonzero"/><path fill="#000000" fill-opacity="0.0" d="m245.70473 8.950081l0 37.795277" fill-rule="evenodd"/><path stroke="#000000" stroke-width="2.0" stroke-linejoin="round" stroke-linecap="butt" d="m245.70473 8.950081l0 37.795277" fill-rule="evenodd"/><path fill="#000000" fill-opacity="0.0" d="m426.8071 106.88986c0 -5.4895935 4.450165 -9.939781 9.939758 -9.939781l17.915741 0c2.6361694 0 5.164398 1.047226 7.028473 2.911293c1.8640747 1.8640747 2.9112854 4.392296 2.9112854 7.028488l0 17.915718c0 5.489586 -4.4501953 9.939781 -9.939758 9.939781l-17.915741 0c-5.4895935 0 -9.939758 -4.4501953 -9.939758 -9.939781z" fill-rule="evenodd"/><path stroke="#000000" stroke-width="2.0" stroke-linejoin="round" stroke-linecap="butt" d="m426.8071 106.88986c0 -5.4895935 4.450165 -9.939781 9.939758 -9.939781l17.915741 0c2.6361694 0 5.164398 1.047226 7.028473 2.911293c1.8640747 1.8640747 2.9112854 4.392296 2.9112854 7.028488l0 17.915718c0 5.489586 -4.4501953 9.939781 -9.939758 9.939781l-17.915741 0c-5.4895935 0 -9.939758 -4.4501953 -9.939758 -9.939781z" fill-rule="evenodd"/><path fill="#000000" d="m445.25272 118.749596l-2.515625 0l0 4.578125l-1.65625 0l0 -4.578125l-6.578125 0l0 -0.71875l7.078125 -9.875l1.15625 0l0 9.09375l2.515625 0l0 1.5zm-4.171875 -6.15625l0.203125 -1.75l-0.0625 0l-0.734375 1.453125l-3.015625 4.078125l-1.015625 1.046875l1.484375 -0.171875l3.140625 0l0 -4.65625zm6.076996 7.171875q0 -1.34375 0.703125 -2.328125q0.703125 -1.0 2.1875 -1.8125q-0.53125 -0.3125 -0.984375 -0.65625q-0.453125 -0.359375 -0.8125 -0.8125q-0.34375 -0.453125 -0.546875 -1.0q-0.203125 -0.5625 -0.203125 -1.28125q0 -0.828125 0.28125 -1.515625q0.296875 -0.6875 0.828125 -1.171875q0.546875 -0.484375 1.296875 -0.765625q0.765625 -0.28125 1.71875 -0.28125q0.90625 0 1.625 0.265625q0.734375 0.25 1.234375 0.703125q0.5 0.4375 0.765625 1.0625q0.28125 0.609375 0.28125 1.359375q0 1.21875 -0.5625 2.15625q-0.546875 0.921875 -1.828125 1.8125q0.5625 0.328125 1.0625 0.71875q0.5 0.375 0.875 0.84375q0.375 0.46875 0.578125 1.0625q0.21875 0.578125 0.21875 1.328125q0 0.90625 -0.296875 1.671875q-0.296875 0.75 -0.875 1.296875q-0.578125 0.546875 -1.40625 0.859375q-0.828125 0.296875 -1.90625 0.296875q-1.015625 0 -1.8125 -0.296875q-0.78125 -0.296875 -1.328125 -0.796875q-0.546875 -0.515625 -0.828125 -1.203125q-0.265625 -0.703125 -0.265625 -1.515625zm7.0625 -0.21875q0 -0.640625 -0.265625 -1.109375q-0.25 -0.484375 -0.671875 -0.875q-0.40625 -0.390625 -0.953125 -0.703125q-0.53125 -0.328125 -1.09375 -0.640625q-1.3125 0.734375 -1.875 1.640625q-0.546875 0.890625 -0.546875 1.6875q0 0.515625 0.171875 0.984375q0.171875 0.46875 0.515625 0.8125q0.34375 0.34375 0.84375 0.546875q0.5 0.203125 1.15625 0.203125q0.53125 0 1.015625 -0.15625q0.5 -0.171875 0.875 -0.46875q0.375 -0.3125 0.59375 -0.796875q0.234375 -0.484375 0.234375 -1.125zm-5.0625 -7.71875q0 0.59375 0.234375 1.0625q0.234375 0.453125 0.625 0.828125q0.40625 0.359375 0.90625 0.671875q0.515625 0.296875 1.078125 0.578125q0.953125 -0.75 1.40625 -1.46875q0.46875 -0.734375 0.46875 -1.609375q0 -1.078125 -0.671875 -1.65625q-0.671875 -0.59375 -1.609375 -0.59375q-0.578125 0 -1.03125 0.1875q-0.4375 0.1875 -0.765625 0.484375q-0.3125 0.296875 -0.484375 0.703125q-0.15625 0.390625 -0.15625 0.8125z" fill-rule="nonzero"/><path fill="#000000" d="m457.0433 133.6254c0 -2.0873718 1.6921692 -3.7795258 3.779541 -3.7795258c1.0023804 0 1.9637146 0.39820862 2.6725159 1.1070099c0.70880127 0.708786 1.1069946 1.6701355 1.1069946 2.6725159c0 2.087387 -1.6921387 3.779541 -3.7795105 3.779541c-2.0873718 0 -3.779541 -1.6921539 -3.779541 -3.779541z" fill-rule="evenodd"/><path stroke="#000000" stroke-width="1.0" stroke-linejoin="round" stroke-linecap="butt" d="m457.0433 133.6254c0 -2.0873718 1.6921692 -3.7795258 3.779541 -3.7795258c1.0023804 0 1.9637146 0.39820862 2.6725159 1.1070099c0.70880127 0.708786 1.1069946 1.6701355 1.1069946 2.6725159c0 2.087387 -1.6921387 3.779541 -3.7795105 3.779541c-2.0873718 0 -3.779541 -1.6921539 -3.779541 -3.779541z" fill-rule="evenodd"/><path fill="#000000" d="m427.01538 134.84782c-0.67840576 -1.9743195 0.37216187 -4.124756 2.346466 -4.8031616c0.9480896 -0.32577515 1.9867859 -0.26158142 2.8875427 0.1784668c0.90075684 0.44004822 1.5898132 1.2198944 1.9155884 2.1679993c0.67840576 1.9743042 -0.37213135 4.1247406 -2.3464355 4.8031464c-1.9743042 0.6783905 -4.124756 -0.3721466 -4.8031616 -2.3464508z" fill-rule="evenodd"/><path stroke="#000000" stroke-width="1.0" stroke-linejoin="round" stroke-linecap="butt" d="m427.01538 134.84782c-0.67840576 -1.9743195 0.37216187 -4.124756 2.346466 -4.8031616c0.9480896 -0.32577515 1.9867859 -0.26158142 2.8875427 0.1784668c0.90075684 0.44004822 1.5898132 1.2198944 1.9155884 2.1679993c0.67840576 1.9743042 -0.37213135 4.1247406 -2.3464355 4.8031464c-1.9743042 0.6783905 -4.124756 -0.3721466 -4.8031616 -2.3464508z" fill-rule="evenodd"/><path fill="#000000" d="m248.52782 133.6254c0 -2.0873718 1.6921539 -3.7795258 3.7795258 -3.7795258c1.0023956 0 1.9637299 0.39820862 2.6725311 1.1070099c0.70880127 0.708786 1.1070099 1.6701355 1.1070099 2.6725159c0 2.087387 -1.6921692 3.779541 -3.779541 3.779541c-2.0873718 0 -3.7795258 -1.6921539 -3.7795258 -3.779541z" fill-rule="evenodd"/><path stroke="#000000" stroke-width="1.0" stroke-linejoin="round" stroke-linecap="butt" d="m248.52782 133.6254c0 -2.0873718 1.6921539 -3.7795258 3.7795258 -3.7795258c1.0023956 0 1.9637299 0.39820862 2.6725311 1.1070099c0.70880127 0.708786 1.1070099 1.6701355 1.1070099 2.6725159c0 2.087387 -1.6921692 3.779541 -3.779541 3.779541c-2.0873718 0 -3.7795258 -1.6921539 -3.7795258 -3.779541z" fill-rule="evenodd"/><path fill="#000000" d="m214.71953 132.38873c0.6871033 -1.9743042 2.8445892 -3.0177917 4.8189087 -2.3307037c0.9480896 0.32995605 1.7262878 1.0230255 2.1633759 1.9267426c0.437088 0.90371704 0.49728394 1.9440613 0.16732788 2.8921509c-0.6871033 1.9743195 -2.8445892 3.017807 -4.8188934 2.330719c-1.9743195 -0.6871033 -3.017807 -2.8445892 -2.330719 -4.8189087z" fill-rule="evenodd"/><path stroke="#000000" stroke-width="1.0" stroke-linejoin="round" stroke-linecap="butt" d="m214.71953 132.38873c0.6871033 -1.9743042 2.8445892 -3.0177917 4.8189087 -2.3307037c0.9480896 0.32995605 1.7262878 1.0230255 2.1633759 1.9267426c0.437088 0.90371704 0.49728394 1.9440613 0.16732788 2.8921509c-0.6871033 1.9743195 -2.8445892 3.017807 -4.8188934 2.330719c-1.9743195 -0.6871033 -3.017807 -2.8445892 -2.330719 -4.8189087z" fill-rule="evenodd"/><path fill="#000000" d="m282.94415 135.33235c-0.93933105 -1.8612518 -0.19195557 -4.131546 1.669281 -5.070877c0.8937988 -0.45106506 1.9301758 -0.5286102 2.8811646 -0.21556091c0.95095825 0.31304932 1.738617 0.99105835 2.1896973 1.8848572c0.93933105 1.8612518 0.19195557 4.131546 -1.669281 5.070862c-1.8612366 0.93933105 -4.131531 0.19195557 -5.070862 -1.669281z" fill-rule="evenodd"/><path stroke="#000000" stroke-width="1.0" stroke-linejoin="round" stroke-linecap="butt" d="m282.94415 135.33235c-0.93933105 -1.8612518 -0.19195557 -4.131546 1.669281 -5.070877c0.8937988 -0.45106506 1.9301758 -0.5286102 2.8811646 -0.21556091c0.95095825 0.31304932 1.738617 0.99105835 2.1896973 1.8848572c0.93933105 1.8612518 0.19195557 4.131546 -1.669281 5.070862c-1.8612366 0.93933105 -4.131531 0.19195557 -5.070862 -1.669281z" fill-rule="evenodd"/><path fill="#000000" fill-opacity="0.0" d="m214.51207 106.88986c0 -5.4895935 4.4501953 -9.939781 9.939774 -9.939781l55.711 0c2.6362 0 5.164398 1.047226 7.028473 2.911293c1.8640747 1.8640747 2.911316 4.392296 2.911316 7.028488l0 17.915718c0 5.489586 -4.4501953 9.939781 -9.939789 9.939781l-55.711 0c-5.4895782 0 -9.939774 -4.4501953 -9.939774 -9.939781z" fill-rule="evenodd"/><path stroke="#000000" stroke-width="2.0" stroke-linejoin="round" stroke-linecap="butt" d="m214.51207 106.88986c0 -5.4895935 4.4501953 -9.939781 9.939774 -9.939781l55.711 0c2.6362 0 5.164398 1.047226 7.028473 2.911293c1.8640747 1.8640747 2.911316 4.392296 2.911316 7.028488l0 17.915718c0 5.489586 -4.4501953 9.939781 -9.939789 9.939781l-55.711 0c-5.4895782 0 -9.939774 -4.4501953 -9.939774 -9.939781z" fill-rule="evenodd"/><path fill="#000000" d="m232.8806 111.79647q0 1.125 -0.421875 2.3125q-0.40625 1.171875 -1.078125 2.375q-0.671875 1.1875 -1.515625 2.328125q-0.828125 1.140625 -1.65625 2.171875l-1.046875 0.921875l0 0.078125l1.359375 -0.234375l4.65625 0l0 1.578125l-8.484375 0l0 -0.625q0.46875 -0.484375 1.125 -1.203125q0.65625 -0.734375 1.375 -1.609375q0.71875 -0.890625 1.40625 -1.875q0.6875 -1.0 1.25 -2.015625q0.578125 -1.03125 0.90625 -2.03125q0.34375 -1.0 0.34375 -1.90625q0 -1.046875 -0.59375 -1.734375q-0.59375 -0.6875 -1.8125 -0.6875q-0.8125 0 -1.578125 0.328125q-0.765625 0.328125 -1.3125 0.75l-0.703125 -1.21875q0.734375 -0.625 1.75 -0.984375q1.03125 -0.375 2.203125 -0.375q0.921875 0 1.625 0.265625q0.703125 0.265625 1.1875 0.765625q0.5 0.484375 0.75 1.15625q0.265625 0.671875 0.265625 1.46875zm7.092621 10.296875q0.734375 0 1.34375 -0.203125q0.625 -0.21875 1.0625 -0.640625q0.453125 -0.421875 0.703125 -0.984375q0.265625 -0.578125 0.265625 -1.265625q0 -1.5 -0.890625 -2.21875q-0.875 -0.71875 -2.4375 -0.71875l-1.578125 0l0 -0.625l3.078125 -4.734375l0.96875 -0.9375l-1.375 0.21875l-4.234375 0l0 -1.59375l7.625 0l0 0.625l-3.390625 5.09375l-0.75 0.625l0 0.046875l0.71875 -0.15625q0.859375 0.015625 1.578125 0.3125q0.734375 0.28125 1.265625 0.828125q0.53125 0.546875 0.828125 1.3125q0.296875 0.75 0.296875 1.703125q0 1.15625 -0.40625 2.0625q-0.40625 0.890625 -1.09375 1.5q-0.6875 0.59375 -1.625 0.921875q-0.9375 0.3125 -1.984375 0.3125q-0.96875 0 -1.734375 -0.15625q-0.765625 -0.140625 -1.34375 -0.375l0.453125 -1.515625q0.484375 0.234375 1.15625 0.40625q0.671875 0.15625 1.5 0.15625zm23.013138 0q0.734375 0 1.34375 -0.203125q0.625 -0.21875 1.0625 -0.640625q0.453125 -0.421875 0.703125 -0.984375q0.265625 -0.578125 0.265625 -1.265625q0 -1.5 -0.890625 -2.21875q-0.875 -0.71875 -2.4375 -0.71875l-1.578125 0l0 -0.625l3.078125 -4.734375l0.96875 -0.9375l-1.375 0.21875l-4.234375 0l0 -1.59375l7.625 0l0 0.625l-3.390625 5.09375l-0.75 0.625l0 0.046875l0.71875 -0.15625q0.859375 0.015625 1.578125 0.3125q0.734375 0.28125 1.265625 0.828125q0.53125 0.546875 0.828125 1.3125q0.296875 0.75 0.296875 1.703125q0 1.15625 -0.40625 2.0625q-0.40625 0.890625 -1.09375 1.5q-0.6875 0.59375 -1.625 0.921875q-0.9375 0.3125 -1.984375 0.3125q-0.96875 0 -1.734375 -0.15625q-0.765625 -0.140625 -1.34375 -0.375l0.453125 -1.515625q0.484375 0.234375 1.15625 0.40625q0.671875 0.15625 1.5 0.15625zm7.561371 -6.234375q0 -3.828125 1.234375 -5.765625q1.25 -1.953125 3.640625 -1.953125q2.578125 0 3.734375 1.90625q1.171875 1.90625 1.171875 5.8125q0 3.84375 -1.25 5.78125q-1.234375 1.9375 -3.65625 1.9375q-2.53125 0 -3.703125 -2.015625q-1.171875 -2.03125 -1.171875 -5.703125zm1.765625 0q0 1.390625 0.171875 2.53125q0.1875 1.140625 0.5625 1.96875q0.390625 0.8125 0.96875 1.28125q0.59375 0.453125 1.40625 0.453125q1.625 0 2.375 -1.5q0.765625 -1.515625 0.765625 -4.734375q0 -1.359375 -0.171875 -2.515625q-0.15625 -1.15625 -0.53125 -1.984375q-0.359375 -0.828125 -0.96875 -1.265625q-0.59375 -0.453125 -1.46875 -0.453125q-1.59375 0 -2.359375 1.515625q-0.75 1.5 -0.75 4.703125z" fill-rule="nonzero"/><path fill="#000000" fill-opacity="0.0" d="m252.30734 96.95008l0 37.79528" fill-rule="evenodd"/><path stroke="#000000" stroke-width="2.0" stroke-linejoin="round" stroke-linecap="butt" d="m252.30734 96.95008l0 37.79528" fill-rule="evenodd"/><path fill="#000000" d="m173.32677 205.6254c0 -2.0873718 1.6921539 -3.7795258 3.7795258 -3.7795258c1.0023956 0 1.9637299 0.39820862 2.6725311 1.1070099c0.70880127 0.708786 1.1070099 1.6701355 1.1070099 2.6725159c0 2.087387 -1.6921539 3.779541 -3.779541 3.779541c-2.0873718 0 -3.7795258 -1.6921539 -3.7795258 -3.779541z" fill-rule="evenodd"/><path stroke="#000000" stroke-width="1.0" stroke-linejoin="round" stroke-linecap="butt" d="m173.32677 205.6254c0 -2.0873718 1.6921539 -3.7795258 3.7795258 -3.7795258c1.0023956 0 1.9637299 0.39820862 2.6725311 1.1070099c0.70880127 0.708786 1.1070099 1.6701355 1.1070099 2.6725159c0 2.087387 -1.6921539 3.779541 -3.779541 3.779541c-2.0873718 0 -3.7795258 -1.6921539 -3.7795258 -3.779541z" fill-rule="evenodd"/><path fill="#000000" d="m139.31102 205.6254c0 -2.0873718 1.6921539 -3.7795258 3.7795258 -3.7795258c1.0023956 0 1.9637299 0.39820862 2.6725311 1.1070099c0.70880127 0.708786 1.1069946 1.6701355 1.1069946 2.6725159c0 2.087387 -1.6921387 3.779541 -3.7795258 3.779541c-2.0873718 0 -3.7795258 -1.6921539 -3.7795258 -3.779541z" fill-rule="evenodd"/><path stroke="#000000" stroke-width="1.0" stroke-linejoin="round" stroke-linecap="butt" d="m139.31102 205.6254c0 -2.0873718 1.6921539 -3.7795258 3.7795258 -3.7795258c1.0023956 0 1.9637299 0.39820862 2.6725311 1.1070099c0.70880127 0.708786 1.1069946 1.6701355 1.1069946 2.6725159c0 2.087387 -1.6921387 3.779541 -3.7795258 3.779541c-2.0873718 0 -3.7795258 -1.6921539 -3.7795258 -3.779541z" fill-rule="evenodd"/><path fill="#000000" d="m207.34251 205.6254c0 -2.0873718 1.6921539 -3.7795258 3.7795258 -3.7795258c1.0023956 0 1.9637451 0.39820862 2.6725311 1.1070099c0.70880127 0.708786 1.1070099 1.6701355 1.1070099 2.6725159c0 2.087387 -1.6921539 3.779541 -3.779541 3.779541c-2.0873718 0 -3.7795258 -1.6921539 -3.7795258 -3.779541z" fill-rule="evenodd"/><path stroke="#000000" stroke-width="1.0" stroke-linejoin="round" stroke-linecap="butt" d="m207.34251 205.6254c0 -2.0873718 1.6921539 -3.7795258 3.7795258 -3.7795258c1.0023956 0 1.9637451 0.39820862 2.6725311 1.1070099c0.70880127 0.708786 1.1070099 1.6701355 1.1070099 2.6725159c0 2.087387 -1.6921539 3.779541 -3.779541 3.779541c-2.0873718 0 -3.7795258 -1.6921539 -3.7795258 -3.779541z" fill-rule="evenodd"/><path fill="#000000" fill-opacity="0.0" d="m139.31102 178.88986c0 -5.4895935 4.4501953 -9.939774 9.939789 -9.939774l55.710983 0c2.6362 0 5.1644135 1.0472107 7.028488 2.9112854c1.8640747 1.8640747 2.9113007 4.392288 2.9113007 7.028488l0 17.91571c0 5.4895935 -4.4501953 9.939789 -9.939789 9.939789l-55.710983 0c-5.4895935 0 -9.939789 -4.4501953 -9.939789 -9.939789z" fill-rule="evenodd"/><path stroke="#000000" stroke-width="2.0" stroke-linejoin="round" stroke-linecap="butt" d="m139.31102 178.88986c0 -5.4895935 4.4501953 -9.939774 9.939789 -9.939774l55.710983 0c2.6362 0 5.1644135 1.0472107 7.028488 2.9112854c1.8640747 1.8640747 2.9113007 4.392288 2.9113007 7.028488l0 17.91571c0 5.4895935 -4.4501953 9.939789 -9.939789 9.939789l-55.710983 0c-5.4895935 0 -9.939789 -4.4501953 -9.939789 -9.939789z" fill-rule="evenodd"/><path fill="#000000" d="m157.67955 183.79646q0 1.125 -0.421875 2.3125q-0.40625 1.171875 -1.078125 2.375q-0.671875 1.1875 -1.515625 2.328125q-0.828125 1.140625 -1.65625 2.171875l-1.046875 0.921875l0 0.078125l1.359375 -0.234375l4.65625 0l0 1.578125l-8.484375 0l0 -0.625q0.46875 -0.484375 1.125 -1.203125q0.65625 -0.734375 1.375 -1.609375q0.71875 -0.890625 1.40625 -1.875q0.6875 -1.0 1.25 -2.015625q0.578125 -1.03125 0.90625 -2.03125q0.34375 -1.0 0.34375 -1.90625q0 -1.046875 -0.59375 -1.734375q-0.59375 -0.6875 -1.8125 -0.6875q-0.8125 0 -1.578125 0.328125q-0.765625 0.328125 -1.3125 0.75l-0.703125 -1.21875q0.734375 -0.625 1.75 -0.984375q1.03125 -0.375 2.203125 -0.375q0.921875 0 1.625 0.265625q0.703125 0.265625 1.1875 0.765625q0.5 0.484375 0.75 1.15625q0.265625 0.671875 0.265625 1.46875zm3.0301208 4.0625q0 -3.828125 1.234375 -5.765625q1.25 -1.953125 3.640625 -1.953125q2.578125 0 3.734375 1.90625q1.171875 1.90625 1.171875 5.8125q0 3.84375 -1.25 5.78125q-1.234375 1.9375 -3.65625 1.9375q-2.53125 0 -3.703125 -2.015625q-1.171875 -2.03125 -1.171875 -5.703125zm1.765625 0q0 1.390625 0.171875 2.53125q0.1875 1.140625 0.5625 1.96875q0.390625 0.8125 0.96875 1.28125q0.59375 0.453125 1.40625 0.453125q1.625 0 2.375 -1.5q0.765625 -1.515625 0.765625 -4.734375q0 -1.359375 -0.171875 -2.515625q-0.15625 -1.15625 -0.53125 -1.984375q-0.359375 -0.828125 -0.96875 -1.265625q-0.59375 -0.453125 -1.46875 -0.453125q-1.59375 0 -2.359375 1.515625q-0.75 1.5 -0.75 4.703125zm29.841248 -4.0625q0 1.125 -0.421875 2.3125q-0.40625 1.171875 -1.078125 2.375q-0.671875 1.1875 -1.515625 2.328125q-0.828125 1.140625 -1.65625 2.171875l-1.046875 0.921875l0 0.078125l1.359375 -0.234375l4.65625 0l0 1.578125l-8.484375 0l0 -0.625q0.46875 -0.484375 1.125 -1.203125q0.65625 -0.734375 1.375 -1.609375q0.71875 -0.890625 1.40625 -1.875q0.6875 -1.0 1.25 -2.015625q0.578125 -1.03125 0.90625 -2.03125q0.34375 -1.0 0.34375 -1.90625q0 -1.046875 -0.59375 -1.734375q-0.59375 -0.6875 -1.8125 -0.6875q-0.8125 0 -1.578125 0.328125q-0.765625 0.328125 -1.3125 0.75l-0.703125 -1.21875q0.734375 -0.625 1.75 -0.984375q1.03125 -0.375 2.203125 -0.375q0.921875 0 1.625 0.265625q0.703125 0.265625 1.1875 0.765625q0.5 0.484375 0.75 1.15625q0.265625 0.671875 0.265625 1.46875zm4.405121 9.953125l3.0 0l0 -10.328125l0.203125 -1.25l-0.84375 1.0l-2.359375 1.6875l-0.796875 -1.09375l4.6875 -3.625l0.765625 0l0 13.609375l2.921875 0l0 1.578125l-7.578125 0l0 -1.578125z" fill-rule="nonzero"/><path fill="#000000" fill-opacity="0.0" d="m177.1063 168.95009l0 37.795273" fill-rule="evenodd"/><path stroke="#000000" stroke-width="2.0" stroke-linejoin="round" stroke-linecap="butt" d="m177.1063 168.95009l0 37.795273" fill-rule="evenodd"/><path fill="#000000" fill-opacity="0.0" d="m50.807087 106.88986c0 -5.4895935 4.4501915 -9.939781 9.939777 -9.939781l17.915718 0c2.6361923 0 5.1644135 1.047226 7.028488 2.911293c1.8640671 1.8640747 2.911293 4.392296 2.911293 7.028488l0 17.915718c0 5.489586 -4.4501953 9.939781 -9.939781 9.939781l-17.915718 0c-5.489586 0 -9.939777 -4.4501953 -9.939777 -9.939781z" fill-rule="evenodd"/><path stroke="#000000" stroke-width="2.0" stroke-linejoin="round" stroke-linecap="butt" d="m50.807087 106.88986c0 -5.4895935 4.4501915 -9.939781 9.939777 -9.939781l17.915718 0c2.6361923 0 5.1644135 1.047226 7.028488 2.911293c1.8640671 1.8640747 2.911293 4.392296 2.911293 7.028488l0 17.915718c0 5.489586 -4.4501953 9.939781 -9.939781 9.939781l-17.915718 0c-5.489586 0 -9.939777 -4.4501953 -9.939777 -9.939781z" fill-rule="evenodd"/><path fill="#000000" d="m60.377728 121.749596l3.0 0l0 -10.328125l0.203125 -1.25l-0.84375 1.0l-2.359375 1.6875l-0.796875 -1.09375l4.687504 -3.625l0.765625 0l0 13.609375l2.921875 0l0 1.578125l-7.578129 0l0 -1.578125zm18.842625 -9.953125q0 1.125 -0.421875 2.3125q-0.40625 1.171875 -1.078125 2.375q-0.671875 1.1875 -1.515625 2.328125q-0.828125 1.140625 -1.65625 2.171875l-1.046875 0.921875l0 0.078125l1.359375 -0.234375l4.65625 0l0 1.578125l-8.484375 0l0 -0.625q0.46875 -0.484375 1.125 -1.203125q0.65625 -0.734375 1.375 -1.609375q0.71875 -0.890625 1.40625 -1.875q0.6875 -1.0 1.25 -2.015625q0.578125 -1.03125 0.90625 -2.03125q0.34375 -1.0 0.34375 -1.90625q0 -1.046875 -0.59375 -1.734375q-0.59375 -0.6875 -1.8125 -0.6875q-0.8125 0 -1.578125 0.328125q-0.765625 0.328125 -1.3125 0.75l-0.703125 -1.21875q0.734375 -0.625 1.75 -0.984375q1.03125 -0.375 2.203125 -0.375q0.921875 0 1.625 0.265625q0.703125 0.265625 1.1875 0.765625q0.5 0.484375 0.75 1.15625q0.265625 0.671875 0.265625 1.46875z" fill-rule="nonzero"/><path fill="#000000" d="m81.095764 134.27155c-0.35659027 -2.0525818 1.01828 -4.0056 3.0708694 -4.362198c0.9856796 -0.17124939 1.9990234 0.05609131 2.817093 0.6319885c0.8180771 0.5758972 1.3738632 1.453186 1.545105 2.4388733c0.3565979 2.0525818 -1.01828 4.005615 -3.0708618 4.362213c-2.0525894 0.35658264 -4.005615 -1.01828 -4.3622055 -3.070877z" fill-rule="evenodd"/><path stroke="#000000" stroke-width="1.0" stroke-linejoin="round" stroke-linecap="butt" d="m81.095764 134.27155c-0.35659027 -2.0525818 1.01828 -4.0056 3.0708694 -4.362198c0.9856796 -0.17124939 1.9990234 0.05609131 2.817093 0.6319885c0.8180771 0.5758972 1.3738632 1.453186 1.545105 2.4388733c0.3565979 2.0525818 -1.01828 4.005615 -3.0708618 4.362213c-2.0525894 0.35658264 -4.005615 -1.01828 -4.3622055 -3.070877z" fill-rule="evenodd"/><path fill="#000000" d="m51.091885 132.19002c0.79146194 -1.9308319 2.99831 -2.8544617 4.9291344 -2.0629883c0.92721176 0.38006592 1.6654663 1.112915 2.052353 2.0373077c0.3868866 0.92437744 0.39071274 1.9645996 0.010639191 2.8918152c-0.79146194 1.9308319 -2.99831 2.8544617 -4.9291344 2.0630035c-1.9308205 -0.7914734 -2.854454 -2.9983215 -2.062992 -4.929138z" fill-rule="evenodd"/><path stroke="#000000" stroke-width="1.0" stroke-linejoin="round" stroke-linecap="butt" d="m51.091885 132.19002c0.79146194 -1.9308319 2.99831 -2.8544617 4.9291344 -2.0629883c0.92721176 0.38006592 1.6654663 1.112915 2.052353 2.0373077c0.3868866 0.92437744 0.39071274 1.9645996 0.010639191 2.8918152c-0.79146194 1.9308319 -2.99831 2.8544617 -4.9291344 2.0630035c-1.9308205 -0.7914734 -2.854454 -2.9983215 -2.062992 -4.929138z" fill-rule="evenodd"/><path fill="#000000" fill-opacity="0.0" d="m10.807087 178.88986c0 -5.4895935 4.4501905 -9.939774 9.939779 -9.939774l17.915716 0c2.6361923 0 5.1644173 1.0472107 7.0284843 2.9112854c1.8640709 1.8640747 2.9112968 4.392288 2.9112968 7.028488l0 17.91571c0 5.4895935 -4.4501915 9.939789 -9.939781 9.939789l-17.915716 0c-5.4895887 0 -9.939779 -4.4501953 -9.939779 -9.939789z" fill-rule="evenodd"/><path stroke="#000000" stroke-width="2.0" stroke-linejoin="round" stroke-linecap="butt" d="m10.807087 178.88986c0 -5.4895935 4.4501905 -9.939774 9.939779 -9.939774l17.915716 0c2.6361923 0 5.1644173 1.0472107 7.0284843 2.9112854c1.8640709 1.8640747 2.9112968 4.392288 2.9112968 7.028488l0 17.91571c0 5.4895935 -4.4501915 9.939789 -9.939781 9.939789l-17.915716 0c-5.4895887 0 -9.939779 -4.4501953 -9.939779 -9.939789z" fill-rule="evenodd"/><path fill="#000000" d="m20.37773 193.74959l3.0 0l0 -10.328125l0.203125 -1.25l-0.84375 1.0l-2.359375 1.6875l-0.796875 -1.09375l4.6875 -3.625l0.765625 0l0 13.609375l2.921875 0l0 1.578125l-7.578125 0l0 -1.578125zm10.248871 -5.890625q0 -3.828125 1.234375 -5.765625q1.2499981 -1.953125 3.640623 -1.953125q2.578125 0 3.734375 1.90625q1.171875 1.90625 1.171875 5.8125q0 3.84375 -1.25 5.78125q-1.234375 1.9375 -3.65625 1.9375q-2.53125 0 -3.703123 -2.015625q-1.171875 -2.03125 -1.171875 -5.703125zm1.7656231 0q0 1.390625 0.171875 2.53125q0.1875 1.140625 0.5625 1.96875q0.390625 0.8125 0.96875 1.28125q0.59375 0.453125 1.40625 0.453125q1.625 0 2.375 -1.5q0.765625 -1.515625 0.765625 -4.734375q0 -1.359375 -0.171875 -2.515625q-0.15625 -1.15625 -0.53125 -1.984375q-0.359375 -0.828125 -0.96875 -1.265625q-0.59375 -0.453125 -1.46875 -0.453125q-1.59375 0 -2.359375 1.515625q-0.75 1.5 -0.75 4.703125z" fill-rule="nonzero"/><path fill="#000000" d="m41.04331 205.6254c0 -2.0873718 1.6921501 -3.7795258 3.7795258 -3.7795258c1.0023918 0 1.9637299 0.39820862 2.6725311 1.1070099c0.70879745 0.708786 1.1069984 1.6701355 1.1069984 2.6725159c0 2.087387 -1.6921539 3.779541 -3.7795296 3.779541c-2.0873756 0 -3.7795258 -1.6921539 -3.7795258 -3.779541z" fill-rule="evenodd"/><path stroke="#000000" stroke-width="1.0" stroke-linejoin="round" stroke-linecap="butt" d="m41.04331 205.6254c0 -2.0873718 1.6921501 -3.7795258 3.7795258 -3.7795258c1.0023918 0 1.9637299 0.39820862 2.6725311 1.1070099c0.70879745 0.708786 1.1069984 1.6701355 1.1069984 2.6725159c0 2.087387 -1.6921539 3.779541 -3.7795296 3.779541c-2.0873756 0 -3.7795258 -1.6921539 -3.7795258 -3.779541z" fill-rule="evenodd"/><path fill="#000000" d="m10.807087 205.6254c0 -2.0873718 1.692152 -3.7795258 3.7795277 -3.7795258c1.0023928 0 1.9637299 0.39820862 2.6725292 1.1070099c0.70879936 0.708786 1.1069984 1.6701355 1.1069984 2.6725159c0 2.087387 -1.692152 3.779541 -3.7795277 3.779541c-2.0873756 0 -3.7795277 -1.6921539 -3.7795277 -3.779541z" fill-rule="evenodd"/><path stroke="#000000" stroke-width="1.0" stroke-linejoin="round" stroke-linecap="butt" d="m10.807087 205.6254c0 -2.0873718 1.692152 -3.7795258 3.7795277 -3.7795258c1.0023928 0 1.9637299 0.39820862 2.6725292 1.1070099c0.70879936 0.708786 1.1069984 1.6701355 1.1069984 2.6725159c0 2.087387 -1.692152 3.779541 -3.7795277 3.779541c-2.0873756 0 -3.7795277 -1.6921539 -3.7795277 -3.779541z" fill-rule="evenodd"/><path fill="#000000" fill-opacity="0.0" d="m75.05905 178.88986c0 -5.4895935 4.4501953 -9.939774 9.939781 -9.939774l17.915718 0c2.6361923 0 5.1644135 1.0472107 7.028488 2.9112854c1.8640671 1.8640747 2.911293 4.392288 2.911293 7.028488l0 17.91571c0 5.4895935 -4.4501953 9.939789 -9.939781 9.939789l-17.915718 0c-5.489586 0 -9.939781 -4.4501953 -9.939781 -9.939789z" fill-rule="evenodd"/><path stroke="#000000" stroke-width="2.0" stroke-linejoin="round" stroke-linecap="butt" d="m75.05905 178.88986c0 -5.4895935 4.4501953 -9.939774 9.939781 -9.939774l17.915718 0c2.6361923 0 5.1644135 1.0472107 7.028488 2.9112854c1.8640671 1.8640747 2.911293 4.392288 2.911293 7.028488l0 17.91571c0 5.4895935 -4.4501953 9.939789 -9.939781 9.939789l-17.915718 0c-5.489586 0 -9.939781 -4.4501953 -9.939781 -9.939789z" fill-rule="evenodd"/><path fill="#000000" d="m84.6297 193.74959l3.0 0l0 -10.328125l0.203125 -1.25l-0.84375 1.0l-2.359375 1.6875l-0.796875 -1.09375l4.6875 -3.625l0.765625 0l0 13.609375l2.921875 0l0 1.578125l-7.578125 0l0 -1.578125zm13.873871 0.34375q1.46875 0 2.421875 -0.84375q0.96875 -0.859375 0.96875 -2.484375q0 -1.5625 -0.953125 -2.328125q-0.953125 -0.765625 -2.609375 -0.765625l-1.796875 0.109375l0 -7.390625l6.65625 0l0 1.59375l-5.046875 0l0 4.234375l0.90625 -0.046875q2.109375 0.03125 3.328125 1.1875q1.21875 1.140625 1.21875 3.296875q0 1.203125 -0.40625 2.125q-0.40625 0.921875 -1.109375 1.546875q-0.6875 0.609375 -1.625 0.9375q-0.9375 0.3125 -2.0 0.3125q-0.953125 0 -1.625 -0.109375q-0.65625 -0.09375 -1.234375 -0.3125l0.453125 -1.453125q0.484375 0.203125 1.046875 0.296875q0.578125 0.09375 1.40625 0.09375z" fill-rule="nonzero"/><path fill="#000000" d="m105.29527 205.6254c0 -2.0873718 1.6921539 -3.7795258 3.7795334 -3.7795258c1.002388 0 1.9637299 0.39820862 2.6725235 1.1070099c0.70880127 0.708786 1.1070023 1.6701355 1.1070023 2.6725159c0 2.087387 -1.6921539 3.779541 -3.7795258 3.779541c-2.0873795 0 -3.7795334 -1.6921539 -3.7795334 -3.779541z" fill-rule="evenodd"/><path stroke="#000000" stroke-width="1.0" stroke-linejoin="round" stroke-linecap="butt" d="m105.29527 205.6254c0 -2.0873718 1.6921539 -3.7795258 3.7795334 -3.7795258c1.002388 0 1.9637299 0.39820862 2.6725235 1.1070099c0.70880127 0.708786 1.1070023 1.6701355 1.1070023 2.6725159c0 2.087387 -1.6921539 3.779541 -3.7795258 3.779541c-2.0873795 0 -3.7795334 -1.6921539 -3.7795334 -3.779541z" fill-rule="evenodd"/><path fill="#000000" d="m75.05905 205.6254c0 -2.0873718 1.6921539 -3.7795258 3.7795334 -3.7795258c1.002388 0 1.9637299 0.39820862 2.6725311 1.1070099c0.70879364 0.708786 1.1069946 1.6701355 1.1069946 2.6725159c0 2.087387 -1.6921539 3.779541 -3.7795258 3.779541c-2.0873795 0 -3.7795334 -1.6921539 -3.7795334 -3.779541z" fill-rule="evenodd"/><path stroke="#000000" stroke-width="1.0" stroke-linejoin="round" stroke-linecap="butt" d="m75.05905 205.6254c0 -2.0873718 1.6921539 -3.7795258 3.7795334 -3.7795258c1.002388 0 1.9637299 0.39820862 2.6725311 1.1070099c0.70879364 0.708786 1.1069946 1.6701355 1.1069946 2.6725159c0 2.087387 -1.6921539 3.779541 -3.7795258 3.779541c-2.0873795 0 -3.7795334 -1.6921539 -3.7795334 -3.779541z" fill-rule="evenodd"/><path fill="#000000" fill-opacity="0.0" d="m241.35826 178.88986c0 -5.4895935 4.4501953 -9.939774 9.939789 -9.939774l17.915726 0c2.6361694 0 5.164398 1.0472107 7.028473 2.9112854c1.8640747 1.8640747 2.9112854 4.392288 2.9112854 7.028488l0 17.91571c0 5.4895935 -4.4501953 9.939789 -9.939758 9.939789l-17.915726 0c-5.4895935 0 -9.939789 -4.4501953 -9.939789 -9.939789z" fill-rule="evenodd"/><path stroke="#000000" stroke-width="2.0" stroke-linejoin="round" stroke-linecap="butt" d="m241.35826 178.88986c0 -5.4895935 4.4501953 -9.939774 9.939789 -9.939774l17.915726 0c2.6361694 0 5.164398 1.0472107 7.028473 2.9112854c1.8640747 1.8640747 2.9112854 4.392288 2.9112854 7.028488l0 17.91571c0 5.4895935 -4.4501953 9.939789 -9.939758 9.939789l-17.915726 0c-5.4895935 0 -9.939789 -4.4501953 -9.939789 -9.939789z" fill-rule="evenodd"/><path fill="#000000" d="m258.14767 183.79646q0 1.125 -0.421875 2.3125q-0.40625 1.171875 -1.078125 2.375q-0.67189026 1.1875 -1.5156403 2.328125q-0.828125 1.140625 -1.65625 2.171875l-1.046875 0.921875l0 0.078125l1.359375 -0.234375l4.6562653 0l0 1.578125l-8.48439 0l0 -0.625q0.46875 -0.484375 1.125 -1.203125q0.65625 -0.734375 1.375 -1.609375q0.71875 -0.890625 1.40625 -1.875q0.6875 -1.0 1.25 -2.015625q0.578125 -1.03125 0.90626526 -2.03125q0.34375 -1.0 0.34375 -1.90625q0 -1.046875 -0.59376526 -1.734375q-0.59375 -0.6875 -1.8125 -0.6875q-0.8125 0 -1.578125 0.328125q-0.765625 0.328125 -1.3125 0.75l-0.703125 -1.21875q0.734375 -0.625 1.75 -0.984375q1.03125 -0.375 2.203125 -0.375q0.921875 0 1.625 0.265625q0.70314026 0.265625 1.1875153 0.765625q0.5 0.484375 0.75 1.15625q0.265625 0.671875 0.265625 1.46875zm13.280121 6.953125l-2.515625 0l0 4.578125l-1.65625 0l0 -4.578125l-6.578125 0l0 -0.71875l7.078125 -9.875l1.15625 0l0 9.09375l2.515625 0l0 1.5zm-4.171875 -6.15625l0.203125 -1.75l-0.0625 0l-0.734375 1.453125l-3.015625 4.078125l-1.015625 1.046875l1.484375 -0.171875l3.140625 0l0 -4.65625z" fill-rule="nonzero"/><path fill="#000000" d="m271.59448 205.6254c0 -2.0873718 1.6921692 -3.7795258 3.779541 -3.7795258c1.0023804 0 1.9637146 0.39820862 2.6725159 1.1070099c0.70880127 0.708786 1.1069946 1.6701355 1.1069946 2.6725159c0 2.087387 -1.6921387 3.779541 -3.7795105 3.779541c-2.0873718 0 -3.779541 -1.6921539 -3.779541 -3.779541z" fill-rule="evenodd"/><path stroke="#000000" stroke-width="1.0" stroke-linejoin="round" stroke-linecap="butt" d="m271.59448 205.6254c0 -2.0873718 1.6921692 -3.7795258 3.779541 -3.7795258c1.0023804 0 1.9637146 0.39820862 2.6725159 1.1070099c0.70880127 0.708786 1.1069946 1.6701355 1.1069946 2.6725159c0 2.087387 -1.6921387 3.779541 -3.7795105 3.779541c-2.0873718 0 -3.779541 -1.6921539 -3.779541 -3.779541z" fill-rule="evenodd"/><path fill="#000000" d="m241.35826 205.6254c0 -2.0873718 1.6921539 -3.7795258 3.779541 -3.7795258c1.0023804 0 1.9637299 0.39820862 2.6725159 1.1070099c0.70880127 0.708786 1.1070099 1.6701355 1.1070099 2.6725159c0 2.087387 -1.6921539 3.779541 -3.7795258 3.779541c-2.087387 0 -3.779541 -1.6921539 -3.779541 -3.779541z" fill-rule="evenodd"/><path stroke="#000000" stroke-width="1.0" stroke-linejoin="round" stroke-linecap="butt" d="m241.35826 205.6254c0 -2.0873718 1.6921539 -3.7795258 3.779541 -3.7795258c1.0023804 0 1.9637299 0.39820862 2.6725159 1.1070099c0.70880127 0.708786 1.1070099 1.6701355 1.1070099 2.6725159c0 2.087387 -1.6921539 3.779541 -3.7795258 3.779541c-2.087387 0 -3.779541 -1.6921539 -3.779541 -3.779541z" fill-rule="evenodd"/><path fill="#000000" fill-opacity="0.0" d="m305.61023 178.88986c0 -5.4895935 4.4501953 -9.939774 9.939789 -9.939774l17.91571 0c2.6362 0 5.1644287 1.0472107 7.0285034 2.9112854c1.8640442 1.8640747 2.9112854 4.392288 2.9112854 7.028488l0 17.91571c0 5.4895935 -4.4501953 9.939789 -9.939789 9.939789l-17.91571 0c-5.4895935 0 -9.939789 -4.4501953 -9.939789 -9.939789z" fill-rule="evenodd"/><path stroke="#000000" stroke-width="2.0" stroke-linejoin="round" stroke-linecap="butt" d="m305.61023 178.88986c0 -5.4895935 4.4501953 -9.939774 9.939789 -9.939774l17.91571 0c2.6362 0 5.1644287 1.0472107 7.0285034 2.9112854c1.8640442 1.8640747 2.9112854 4.392288 2.9112854 7.028488l0 17.91571c0 5.4895935 -4.4501953 9.939789 -9.939789 9.939789l-17.91571 0c-5.4895935 0 -9.939789 -4.4501953 -9.939789 -9.939789z" fill-rule="evenodd"/><path fill="#000000" d="m317.86838 194.09334q0.734375 0 1.34375 -0.203125q0.625 -0.21875 1.0625 -0.640625q0.453125 -0.421875 0.703125 -0.984375q0.265625 -0.578125 0.265625 -1.265625q0 -1.5 -0.890625 -2.21875q-0.875 -0.71875 -2.4375 -0.71875l-1.578125 0l0 -0.625l3.078125 -4.734375l0.96875 -0.9375l-1.375 0.21875l-4.234375 0l0 -1.59375l7.625 0l0 0.625l-3.390625 5.09375l-0.75 0.625l0 0.046875l0.71875 -0.15625q0.859375 0.015625 1.578125 0.3125q0.734375 0.28125 1.265625 0.828125q0.53125 0.546875 0.828125 1.3125q0.296875 0.75 0.296875 1.703125q0 1.15625 -0.40625 2.0625q-0.40625 0.890625 -1.09375 1.5q-0.6875 0.59375 -1.625 0.921875q-0.9375 0.3125 -1.984375 0.3125q-0.96875 0 -1.734375 -0.15625q-0.765625 -0.140625 -1.34375 -0.375l0.453125 -1.515625q0.484375 0.234375 1.15625 0.40625q0.671875 0.15625 1.5 0.15625zm8.936371 -0.34375l3.0 0l0 -10.328125l0.203125 -1.25l-0.84375 1.0l-2.359375 1.6875l-0.796875 -1.09375l4.6875 -3.625l0.765625 0l0 13.609375l2.921875 0l0 1.578125l-7.578125 0l0 -1.578125z" fill-rule="nonzero"/><path fill="#000000" d="m335.84647 205.6254c0 -2.0873718 1.6921387 -3.7795258 3.7795105 -3.7795258c1.0024109 0 1.9637451 0.39820862 2.6725464 1.1070099c0.70880127 0.708786 1.1069946 1.6701355 1.1069946 2.6725159c0 2.087387 -1.6921692 3.779541 -3.779541 3.779541c-2.0873718 0 -3.7795105 -1.6921539 -3.7795105 -3.779541z" fill-rule="evenodd"/><path stroke="#000000" stroke-width="1.0" stroke-linejoin="round" stroke-linecap="butt" d="m335.84647 205.6254c0 -2.0873718 1.6921387 -3.7795258 3.7795105 -3.7795258c1.0024109 0 1.9637451 0.39820862 2.6725464 1.1070099c0.70880127 0.708786 1.1069946 1.6701355 1.1069946 2.6725159c0 2.087387 -1.6921692 3.779541 -3.779541 3.779541c-2.0873718 0 -3.7795105 -1.6921539 -3.7795105 -3.779541z" fill-rule="evenodd"/><path fill="#000000" d="m305.61023 205.6254c0 -2.0873718 1.6921692 -3.7795258 3.779541 -3.7795258c1.0023804 0 1.9637146 0.39820862 2.6725159 1.1070099c0.70880127 0.708786 1.1069946 1.6701355 1.1069946 2.6725159c0 2.087387 -1.6921387 3.779541 -3.7795105 3.779541c-2.0873718 0 -3.779541 -1.6921539 -3.779541 -3.779541z" fill-rule="evenodd"/><path stroke="#000000" stroke-width="1.0" stroke-linejoin="round" stroke-linecap="butt" d="m305.61023 205.6254c0 -2.0873718 1.6921692 -3.7795258 3.779541 -3.7795258c1.0023804 0 1.9637146 0.39820862 2.6725159 1.1070099c0.70880127 0.708786 1.1069946 1.6701355 1.1069946 2.6725159c0 2.087387 -1.6921387 3.779541 -3.7795105 3.779541c-2.0873718 0 -3.779541 -1.6921539 -3.779541 -3.779541z" fill-rule="evenodd"/><path fill="#000000" d="m403.87796 205.6254c0 -2.0873718 1.6921387 -3.7795258 3.7795105 -3.7795258c1.0024109 0 1.9637451 0.39820862 2.6725464 1.1070099c0.70880127 0.708786 1.1069946 1.6701355 1.1069946 2.6725159c0 2.087387 -1.6921692 3.779541 -3.779541 3.779541c-2.0873718 0 -3.7795105 -1.6921539 -3.7795105 -3.779541z" fill-rule="evenodd"/><path stroke="#000000" stroke-width="1.0" stroke-linejoin="round" stroke-linecap="butt" d="m403.87796 205.6254c0 -2.0873718 1.6921387 -3.7795258 3.7795105 -3.7795258c1.0024109 0 1.9637451 0.39820862 2.6725464 1.1070099c0.70880127 0.708786 1.1069946 1.6701355 1.1069946 2.6725159c0 2.087387 -1.6921692 3.779541 -3.779541 3.779541c-2.0873718 0 -3.7795105 -1.6921539 -3.7795105 -3.779541z" fill-rule="evenodd"/><path fill="#000000" d="m369.8622 205.6254c0 -2.0873718 1.6921387 -3.7795258 3.7795105 -3.7795258c1.0024109 0 1.9637451 0.39820862 2.6725464 1.1070099c0.70880127 0.708786 1.1069946 1.6701355 1.1069946 2.6725159c0 2.087387 -1.6921692 3.779541 -3.779541 3.779541c-2.0873718 0 -3.7795105 -1.6921539 -3.7795105 -3.779541z" fill-rule="evenodd"/><path stroke="#000000" stroke-width="1.0" stroke-linejoin="round" stroke-linecap="butt" d="m369.8622 205.6254c0 -2.0873718 1.6921387 -3.7795258 3.7795105 -3.7795258c1.0024109 0 1.9637451 0.39820862 2.6725464 1.1070099c0.70880127 0.708786 1.1069946 1.6701355 1.1069946 2.6725159c0 2.087387 -1.6921692 3.779541 -3.779541 3.779541c-2.0873718 0 -3.7795105 -1.6921539 -3.7795105 -3.779541z" fill-rule="evenodd"/><path fill="#000000" d="m437.8937 205.6254c0 -2.0873718 1.6921387 -3.7795258 3.7795105 -3.7795258c1.0024109 0 1.9637451 0.39820862 2.6725464 1.1070099c0.70880127 0.708786 1.1069946 1.6701355 1.1069946 2.6725159c0 2.087387 -1.6921692 3.779541 -3.779541 3.779541c-2.0873718 0 -3.7795105 -1.6921539 -3.7795105 -3.779541z" fill-rule="evenodd"/><path stroke="#000000" stroke-width="1.0" stroke-linejoin="round" stroke-linecap="butt" d="m437.8937 205.6254c0 -2.0873718 1.6921387 -3.7795258 3.7795105 -3.7795258c1.0024109 0 1.9637451 0.39820862 2.6725464 1.1070099c0.70880127 0.708786 1.1069946 1.6701355 1.1069946 2.6725159c0 2.087387 -1.6921692 3.779541 -3.779541 3.779541c-2.0873718 0 -3.7795105 -1.6921539 -3.7795105 -3.779541z" fill-rule="evenodd"/><path fill="#000000" fill-opacity="0.0" d="m369.8622 178.88986c0 -5.4895935 4.4501953 -9.939774 9.939758 -9.939774l55.711 0c2.6362 0 5.1644287 1.0472107 7.0285034 2.9112854c1.8640442 1.8640747 2.9112854 4.392288 2.9112854 7.028488l0 17.91571c0 5.4895935 -4.4501953 9.939789 -9.939789 9.939789l-55.711 0c-5.489563 0 -9.939758 -4.4501953 -9.939758 -9.939789z" fill-rule="evenodd"/><path stroke="#000000" stroke-width="2.0" stroke-linejoin="round" stroke-linecap="butt" d="m369.8622 178.88986c0 -5.4895935 4.4501953 -9.939774 9.939758 -9.939774l55.711 0c2.6362 0 5.1644287 1.0472107 7.0285034 2.9112854c1.8640442 1.8640747 2.9112854 4.392288 2.9112854 7.028488l0 17.91571c0 5.4895935 -4.4501953 9.939789 -9.939789 9.939789l-55.711 0c-5.489563 0 -9.939758 -4.4501953 -9.939758 -9.939789z" fill-rule="evenodd"/><path fill="#000000" d="m389.887 190.74959l-2.515625 0l0 4.578125l-1.65625 0l0 -4.578125l-6.578125 0l0 -0.71875l7.078125 -9.875l1.15625 0l0 9.09375l2.515625 0l0 1.5zm-4.171875 -6.15625l0.203125 -1.75l-0.0625 0l-0.734375 1.453125l-3.015625 4.078125l-1.015625 1.046875l1.484375 -0.171875l3.140625 0l0 -4.65625zm9.170746 9.5q1.46875 0 2.421875 -0.84375q0.96875 -0.859375 0.96875 -2.484375q0 -1.5625 -0.953125 -2.328125q-0.953125 -0.765625 -2.609375 -0.765625l-1.796875 0.109375l0 -7.390625l6.65625 0l0 1.59375l-5.046875 0l0 4.234375l0.90625 -0.046875q2.109375 0.03125 3.328125 1.1875q1.21875 1.140625 1.21875 3.296875q0 1.203125 -0.40625 2.125q-0.40625 0.921875 -1.109375 1.546875q-0.6875 0.609375 -1.625 0.9375q-0.9375 0.3125 -2.0 0.3125q-0.953125 0 -1.625 -0.109375q-0.65625 -0.09375 -1.234375 -0.3125l0.453125 -1.453125q0.484375 0.203125 1.046875 0.296875q0.578125 0.09375 1.40625 0.09375zm29.638123 -3.34375l-2.515625 0l0 4.578125l-1.65625 0l0 -4.578125l-6.578125 0l0 -0.71875l7.078125 -9.875l1.15625 0l0 9.09375l2.515625 0l0 1.5zm-4.171875 -6.15625l0.203125 -1.75l-0.0625 0l-0.734375 1.453125l-3.015625 4.078125l-1.015625 1.046875l1.484375 -0.171875l3.140625 0l0 -4.65625zm6.967621 10.734375l5.359375 -12.5l0.9375 -1.046875l-1.265625 0.203125l-6.078125 0l0 -1.59375l8.921875 0l0 0.578125l-6.140625 14.359375l-1.734375 0z" fill-rule="nonzero"/><path fill="#000000" fill-opacity="0.0" d="m407.65747 168.95009l0 37.795273" fill-rule="evenodd"/><path stroke="#000000" stroke-width="2.0" stroke-linejoin="round" stroke-linecap="butt" d="m407.65747 168.95009l0 37.795273" fill-rule="evenodd"/><path fill="#000000" d="m505.9252 205.6254c0 -2.0873718 1.6921387 -3.7795258 3.7795105 -3.7795258c1.0024109 0 1.9637451 0.39820862 2.6725464 1.1070099c0.70880127 0.708786 1.1069946 1.6701355 1.1069946 2.6725159c0 2.087387 -1.6921387 3.779541 -3.779541 3.779541c-2.0873718 0 -3.7795105 -1.6921539 -3.7795105 -3.779541z" fill-rule="evenodd"/><path stroke="#000000" stroke-width="1.0" stroke-linejoin="round" stroke-linecap="butt" d="m505.9252 205.6254c0 -2.0873718 1.6921387 -3.7795258 3.7795105 -3.7795258c1.0024109 0 1.9637451 0.39820862 2.6725464 1.1070099c0.70880127 0.708786 1.1069946 1.6701355 1.1069946 2.6725159c0 2.087387 -1.6921387 3.779541 -3.779541 3.779541c-2.0873718 0 -3.7795105 -1.6921539 -3.7795105 -3.779541z" fill-rule="evenodd"/><path fill="#000000" d="m471.90945 205.6254c0 -2.0873718 1.6921387 -3.7795258 3.7795105 -3.7795258c1.0024109 0 1.9637451 0.39820862 2.6725464 1.1070099c0.70880127 0.708786 1.1069946 1.6701355 1.1069946 2.6725159c0 2.087387 -1.6921692 3.779541 -3.779541 3.779541c-2.0873718 0 -3.7795105 -1.6921539 -3.7795105 -3.779541z" fill-rule="evenodd"/><path stroke="#000000" stroke-width="1.0" stroke-linejoin="round" stroke-linecap="butt" d="m471.90945 205.6254c0 -2.0873718 1.6921387 -3.7795258 3.7795105 -3.7795258c1.0024109 0 1.9637451 0.39820862 2.6725464 1.1070099c0.70880127 0.708786 1.1069946 1.6701355 1.1069946 2.6725159c0 2.087387 -1.6921692 3.779541 -3.779541 3.779541c-2.0873718 0 -3.7795105 -1.6921539 -3.7795105 -3.779541z" fill-rule="evenodd"/><path fill="#000000" d="m539.9409 205.6254c0 -2.0873718 1.6921997 -3.7795258 3.779541 -3.7795258c1.0023804 0 1.9637451 0.39820862 2.6725464 1.1070099c0.70880127 0.708786 1.1069946 1.6701355 1.1069946 2.6725159c0 2.087387 -1.6921387 3.779541 -3.779541 3.779541c-2.0873413 0 -3.779541 -1.6921539 -3.779541 -3.779541z" fill-rule="evenodd"/><path stroke="#000000" stroke-width="1.0" stroke-linejoin="round" stroke-linecap="butt" d="m539.9409 205.6254c0 -2.0873718 1.6921997 -3.7795258 3.779541 -3.7795258c1.0023804 0 1.9637451 0.39820862 2.6725464 1.1070099c0.70880127 0.708786 1.1069946 1.6701355 1.1069946 2.6725159c0 2.087387 -1.6921387 3.779541 -3.779541 3.779541c-2.0873413 0 -3.779541 -1.6921539 -3.779541 -3.779541z" fill-rule="evenodd"/><path fill="#000000" fill-opacity="0.0" d="m471.90945 178.88986c0 -5.4895935 4.4501953 -9.939774 9.939789 -9.939774l55.711 0c2.6361694 0 5.1643677 1.0472107 7.0284424 2.9112854c1.8640747 1.8640747 2.911316 4.392288 2.911316 7.028488l0 17.91571c0 5.4895935 -4.4501953 9.939789 -9.939758 9.939789l-55.711 0c-5.4895935 0 -9.939789 -4.4501953 -9.939789 -9.939789z" fill-rule="evenodd"/><path stroke="#000000" stroke-width="2.0" stroke-linejoin="round" stroke-linecap="butt" d="m471.90945 178.88986c0 -5.4895935 4.4501953 -9.939774 9.939789 -9.939774l55.711 0c2.6361694 0 5.1643677 1.0472107 7.0284424 2.9112854c1.8640747 1.8640747 2.911316 4.392288 2.911316 7.028488l0 17.91571c0 5.4895935 -4.4501953 9.939789 -9.939758 9.939789l-55.711 0c-5.4895935 0 -9.939789 -4.4501953 -9.939789 -9.939789z" fill-rule="evenodd"/><path fill="#000000" d="m485.30923 194.09334q1.46875 0 2.421875 -0.84375q0.96875 -0.859375 0.96875 -2.484375q0 -1.5625 -0.953125 -2.328125q-0.953125 -0.765625 -2.609375 -0.765625l-1.796875 0.109375l0 -7.390625l6.65625 0l0 1.59375l-5.046875 0l0 4.234375l0.90625 -0.046875q2.109375 0.03125 3.328125 1.1875q1.21875 1.140625 1.21875 3.296875q0 1.203125 -0.40625 2.125q-0.40625 0.921875 -1.109375 1.546875q-0.6875 0.609375 -1.625 0.9375q-0.9375 0.3125 -2.0 0.3125q-0.953125 0 -1.625 -0.109375q-0.65625 -0.09375 -1.234375 -0.3125l0.453125 -1.453125q0.484375 0.203125 1.046875 0.296875q0.578125 0.09375 1.40625 0.09375zm7.998871 -6.234375q0 -3.828125 1.234375 -5.765625q1.25 -1.953125 3.640625 -1.953125q2.578125 0 3.734375 1.90625q1.171875 1.90625 1.171875 5.8125q0 3.84375 -1.25 5.78125q-1.234375 1.9375 -3.65625 1.9375q-2.53125 0 -3.703125 -2.015625q-1.171875 -2.03125 -1.171875 -5.703125zm1.765625 0q0 1.390625 0.171875 2.53125q0.1875 1.140625 0.5625 1.96875q0.390625 0.8125 0.96875 1.28125q0.59375 0.453125 1.40625 0.453125q1.625 0 2.375 -1.5q0.765625 -1.515625 0.765625 -4.734375q0 -1.359375 -0.171875 -2.515625q-0.15625 -1.15625 -0.53125 -1.984375q-0.359375 -0.828125 -0.96875 -1.265625q-0.59375 -0.453125 -1.46875 -0.453125q-1.59375 0 -2.359375 1.515625q-0.75 1.5 -0.75 4.703125zm24.872498 6.234375q1.46875 0 2.421875 -0.84375q0.96875 -0.859375 0.96875 -2.484375q0 -1.5625 -0.953125 -2.328125q-0.953125 -0.765625 -2.609375 -0.765625l-1.796875 0.109375l0 -7.390625l6.65625 0l0 1.59375l-5.046875 0l0 4.234375l0.90625 -0.046875q2.109375 0.03125 3.328125 1.1875q1.21875 1.140625 1.21875 3.296875q0 1.203125 -0.40625 2.125q-0.40625 0.921875 -1.109375 1.546875q-0.6875 0.609375 -1.625 0.9375q-0.9375 0.3125 -2.0 0.3125q-0.953125 0 -1.625 -0.109375q-0.65625 -0.09375 -1.234375 -0.3125l0.453125 -1.453125q0.484375 0.203125 1.046875 0.296875q0.578125 0.09375 1.40625 0.09375zm16.59259 -10.296875q0 1.125 -0.421875 2.3125q-0.40625 1.171875 -1.078125 2.375q-0.671875 1.1875 -1.515625 2.328125q-0.828125 1.140625 -1.65625 2.171875l-1.046875 0.921875l0 0.078125l1.359375 -0.234375l4.65625 0l0 1.578125l-8.484375 0l0 -0.625q0.46875 -0.484375 1.125 -1.203125q0.65625 -0.734375 1.375 -1.609375q0.71875 -0.890625 1.40625 -1.875q0.6875 -1.0 1.25 -2.015625q0.578125 -1.03125 0.90625 -2.03125q0.34375 -1.0 0.34375 -1.90625q0 -1.046875 -0.59375 -1.734375q-0.59375 -0.6875 -1.8125 -0.6875q-0.8125 0 -1.578125 0.328125q-0.765625 0.328125 -1.3125 0.75l-0.703125 -1.21875q0.734375 -0.625 1.75 -0.984375q1.03125 -0.375 2.203125 -0.375q0.921875 0 1.625 0.265625q0.703125 0.265625 1.1875 0.765625q0.5 0.484375 0.75 1.15625q0.265625 0.671875 0.265625 1.46875z" fill-rule="nonzero"/><path fill="#000000" fill-opacity="0.0" d="m509.7047 168.95009l0 37.795273" fill-rule="evenodd"/><path stroke="#000000" stroke-width="2.0" stroke-linejoin="round" stroke-linecap="butt" d="m509.7047 168.95009l0 37.795273" fill-rule="evenodd"/><path fill="#000000" fill-opacity="0.0" d="m53.154877 137.11916l-23.464567 31.842514" fill-rule="evenodd"/><path stroke="#000000" stroke-width="1.9763779527559056" stroke-linejoin="round" stroke-linecap="butt" d="m53.154877 137.11914l-16.429932 22.296188" fill-rule="evenodd"/><path fill="#000000" stroke="#000000" stroke-width="1.9763779527559056" stroke-linecap="butt" d="m34.096947 157.47878l-2.692646 9.156921l7.948639 -5.283798z" fill-rule="evenodd"/><path fill="#000000" fill-opacity="0.0" d="m85.45797 137.34242l8.503937 31.62204" fill-rule="evenodd"/><path stroke="#000000" stroke-width="1.9763779527559056" stroke-linejoin="round" stroke-linecap="butt" d="m85.45797 137.34242l5.42437 20.170624" fill-rule="evenodd"/><path fill="#000000" stroke="#000000" stroke-width="1.9763779527559056" stroke-linecap="butt" d="m87.7299 158.36082l5.4816666 7.813492l0.8232193 -9.509033z" fill-rule="evenodd"/><path fill="#000000" fill-opacity="0.0" d="m217.05025 137.20764l-39.93701 31.748032" fill-rule="evenodd"/><path stroke="#000000" stroke-width="1.9763779527559056" stroke-linejoin="round" stroke-linecap="butt" d="m217.05023 137.20764l-30.654434 24.368835" fill-rule="evenodd"/><path fill="#000000" stroke="#000000" stroke-width="1.9763779527559056" stroke-linecap="butt" d="m184.36438 159.02109l-4.989456 8.136642l9.052277 -3.025879z" fill-rule="evenodd"/><path fill="#000000" fill-opacity="0.0" d="m252.30734 134.74536l7.9370117 34.204727" fill-rule="evenodd"/><path stroke="#000000" stroke-width="1.9763779527559056" stroke-linejoin="round" stroke-linecap="butt" d="m252.30733 134.74536l5.2565765 22.653366" fill-rule="evenodd"/><path fill="#000000" stroke="#000000" stroke-width="1.9763779527559056" stroke-linecap="butt" d="m254.38396 158.13661l5.2072906 7.9989777l1.1526184 -9.474762z" fill-rule="evenodd"/><path fill="#000000" fill-opacity="0.0" d="m288.015 137.00163l36.503937 31.937012" fill-rule="evenodd"/><path stroke="#000000" stroke-width="1.9763779527559056" stroke-linejoin="round" stroke-linecap="butt" d="m288.015 137.00165l27.579193 24.12883" fill-rule="evenodd"/><path fill="#000000" stroke="#000000" stroke-width="1.9763779527559056" stroke-linecap="butt" d="m313.4447 163.58734l8.899719 3.4488373l-4.600708 -8.362595z" fill-rule="evenodd"/><path fill="#000000" fill-opacity="0.0" d="m209.01645 48.297935l-139.3071 48.661415" fill-rule="evenodd"/><path stroke="#000000" stroke-width="1.9763779527559056" stroke-linejoin="round" stroke-linecap="butt" d="m209.01645 48.297935l-128.11215 44.750908" fill-rule="evenodd"/><path fill="#000000" stroke="#000000" stroke-width="1.9763779527559056" stroke-linecap="butt" d="m79.82777 89.967l-7.3907623 6.039551l9.5438 0.12413025z" fill-rule="evenodd"/><path fill="#000000" fill-opacity="0.0" d="m245.70473 49.40493l6.6141663 47.55906" fill-rule="evenodd"/><path stroke="#000000" stroke-width="1.9763779527559056" stroke-linejoin="round" stroke-linecap="butt" d="m245.70473 49.404934l4.980728 35.813824" fill-rule="evenodd"/><path fill="#000000" stroke="#000000" stroke-width="1.9763779527559056" stroke-linecap="butt" d="m247.45213 85.66843l4.4687805 8.43383l1.9978638 -9.333168z" fill-rule="evenodd"/><path fill="#000000" fill-opacity="0.0" d="m282.393 48.297935l163.3071 48.661415" fill-rule="evenodd"/><path stroke="#000000" stroke-width="1.9763779527559056" stroke-linejoin="round" stroke-linecap="butt" d="m282.393 48.297935l151.94263 45.275085" fill-rule="evenodd"/><path fill="#000000" stroke="#000000" stroke-width="1.9763779527559056" stroke-linecap="butt" d="m433.4034 96.70153l9.52771 -0.56726074l-7.6632996 -5.6897583z" fill-rule="evenodd"/><path fill="#000000" fill-opacity="0.0" d="m428.931 137.01581l-21.259857 31.937012" fill-rule="evenodd"/><path stroke="#000000" stroke-width="1.9763779527559056" stroke-linejoin="round" stroke-linecap="butt" d="m428.93097 137.01581l-14.688812 22.065842" fill-rule="evenodd"/><path fill="#000000" stroke="#000000" stroke-width="1.9763779527559056" stroke-linecap="butt" d="m411.52475 157.27272l-2.2525635 9.274979l7.6874084 -5.6571198z" fill-rule="evenodd"/><path fill="#000000" fill-opacity="0.0" d="m463.49536 136.29793l46.204742 32.661423" fill-rule="evenodd"/><path stroke="#000000" stroke-width="1.9763779527559056" stroke-linejoin="round" stroke-linecap="butt" d="m463.49536 136.29793l36.521484 25.816483" fill-rule="evenodd"/><path fill="#000000" stroke="#000000" stroke-width="1.9763779527559056" stroke-linecap="butt" d="m498.1325 164.78009l9.208252 2.5114899l-5.439575 -7.842865z" fill-rule="evenodd"/></g></svg>