<svg version="1.1" viewBox="0.0 0.0 1142.3254593175852 324.4251968503937" fill="none" stroke="none" stroke-linecap="square" stroke-miterlimit="10" xmlns:xlink="http://www.w3.org/1999/xlink" xmlns="http://www.w3.org/2000/svg"><clipPath id="p.0"><path d="m0 0l1142.3254 0l0 324.4252l-1142.3254 0l0 -324.4252z" clip-rule="nonzero"/></clipPath><g clip-path="url(#p.0)"><path fill="#000000" fill-opacity="0.0" d="m0 0l1142.3254 0l0 324.4252l-1142.3254 0z" fill-rule="evenodd"/><path fill="#000000" fill-opacity="0.0" d="m1.2012022 47.53321l230.3622 0l0 54.83465l-230.3622 0z" fill-rule="evenodd"/><path fill="#000000" d="m23.279327 68.83383q0 1.546875 -0.578125 3.171875q-0.5625 1.625 -1.484375 3.28125q-0.921875 1.640625 -2.078125 3.203125q-1.140625 1.5625 -2.28125 2.984375l-1.4375 1.25l0 0.125l1.875 -0.328125l6.390625 0l0 2.171875l-11.671875 0l0 -0.84375q0.65625 -0.6875 1.5625 -1.671875q0.90625 -1.0 1.890625 -2.21875q0.984375 -1.21875 1.9375 -2.578125q0.953125 -1.375 1.71875 -2.78125q0.78125 -1.40625 1.25 -2.78125q0.46875 -1.375 0.46875 -2.609375q0 -1.4375 -0.828125 -2.390625q-0.8125 -0.953125 -2.484375 -0.953125q-1.109375 0 -2.171875 0.453125q-1.046875 0.453125 -1.8125 1.046875l-0.96875 -1.671875q1.03125 -0.890625 2.4375 -1.375q1.40625 -0.4999962 3.015625 -0.4999962q1.265625 0 2.234375 0.3749962q0.96875 0.359375 1.640625 1.03125q0.671875 0.671875 1.015625 1.59375q0.359375 0.921875 0.359375 2.015625zm4.6400757 6.328125l7.09375 0l0 2.171875l-7.09375 0l0 -2.171875zm15.683121 7.828125q1.0 0 1.84375 -0.28125q0.859375 -0.296875 1.46875 -0.875q0.625 -0.578125 0.96875 -1.359375q0.359375 -0.796875 0.359375 -1.734375q0 -2.046875 -1.21875 -3.046875q-1.21875 -1.0 -3.359375 -1.0l-2.171875 0l0 -0.84375l4.21875 -6.515625l1.359375 -1.296875l-1.90625 0.296875l-5.8125 0l0 -2.171875l10.46875 0l0 0.859375l-4.65625 7.0l-1.03125 0.859375l0 0.046875l1.0 -0.203125q1.171875 0.03125 2.171875 0.4375q1.0 0.390625 1.71875 1.140625q0.734375 0.734375 1.140625 1.78125q0.421875 1.046875 0.421875 2.359375q0 1.59375 -0.5625 2.828125q-0.546875 1.21875 -1.5 2.0625q-0.953125 0.828125 -2.25 1.28125q-1.296875 0.4375 -2.734375 0.4375q-1.3125 0 -2.375 -0.21875q-1.046875 -0.203125 -1.84375 -0.515625l0.625 -2.09375q0.671875 0.328125 1.59375 0.546875q0.921875 0.21875 2.0625 0.21875zm10.858826 -7.828125l7.09375 0l0 2.171875l-7.09375 0l0 -2.171875zm24.198746 3.21875l-3.46875 0l0 6.3125l-2.28125 0l0 -6.3125l-9.03125 0l0 -0.953125l9.734375 -13.593746l1.578125 0l0 12.499996l3.46875 0l0 2.046875zm-5.75 -8.4375l0.28125 -2.40625l-0.078125 0l-1.03125 2.0l-4.140625 5.59375l-1.40625 1.4375l2.0625 -0.234375l4.3125 0l0 -6.390625zm14.517563 0.09375l2.28125 0l0 -2.90625l2.34375 -0.671875l0 3.578125l3.984375 0l0 2.046875l-3.984375 0l0 8.125q0 1.515625 0.375 2.15625q0.390625 0.625 1.296875 0.625q0.765625 0 1.296875 -0.15625q0.53125 -0.171875 1.171875 -0.421875l0.53125 1.78125q-0.796875 0.375 -1.734375 0.609375q-0.9375 0.25 -2.03125 0.25q-1.78125 0 -2.515625 -1.015625q-0.734375 -1.015625 -0.734375 -3.390625l0 -8.5625l-2.28125 0l0 -2.046875zm18.801605 2.25q-0.890625 -0.296875 -1.671875 -0.296875q-1.265625 0 -2.0 0.6875q-0.734375 0.6875 -0.90625 1.75l0 10.265625l-2.34375 0l0 -14.65625l1.640625 0l0.4375 1.78125l0.109375 0q0.5625 -1.0 1.328125 -1.53125q0.78125 -0.546875 1.984375 -0.546875q0.859375 0 1.90625 0.296875l-0.484375 2.25zm13.752808 11.234375q-0.890625 0.703125 -2.21875 1.125q-1.328125 0.40625 -2.828125 0.40625q-1.671875 0 -2.90625 -0.546875q-1.234375 -0.546875 -2.03125 -1.546875q-0.78125 -1.015625 -1.171875 -2.421875q-0.375 -1.421875 -0.375 -3.171875q0 -3.765625 1.671875 -5.71875q1.671875 -1.96875 4.78125 -1.96875q1.0 0 1.984375 0.21875q1.0 0.21875 1.796875 0.84375q0.796875 0.609375 1.296875 1.734375q0.5 1.125 0.5 2.984375q0 0.96875 -0.1875 2.140625l-9.40625 0q0 1.28125 0.265625 2.28125q0.265625 1.0 0.8125 1.6875q0.5625 0.6875 1.453125 1.0625q0.890625 0.359375 2.1875 0.359375q1.0 0 1.984375 -0.34375q1.0 -0.359375 1.5 -0.828125l0.890625 1.703125zm-5.046875 -11.796875q-1.734375 0 -2.78125 0.921875q-1.03125 0.90625 -1.234375 3.109375l7.265625 0q0 -2.234375 -0.859375 -3.125q-0.84375 -0.90625 -2.390625 -0.90625zm19.622894 11.796875q-0.890625 0.703125 -2.21875 1.125q-1.328125 0.40625 -2.828125 0.40625q-1.671875 0 -2.90625 -0.546875q-1.234375 -0.546875 -2.03125 -1.546875q-0.78125 -1.015625 -1.171875 -2.421875q-0.375 -1.421875 -0.375 -3.171875q0 -3.765625 1.671875 -5.71875q1.671875 -1.96875 4.78125 -1.96875q1.0 0 1.984375 0.21875q1.0 0.21875 1.796875 0.84375q0.796875 0.609375 1.296875 1.734375q0.5 1.125 0.5 2.984375q0 0.96875 -0.1875 2.140625l-9.40625 0q0 1.28125 0.265625 2.28125q0.265625 1.0 0.8125 1.6875q0.5625 0.6875 1.453125 1.0625q0.890625 0.359375 2.1875 0.359375q1.0 0 1.984375 -0.34375q1.0 -0.359375 1.5 -0.828125l0.890625 1.703125zm-5.046875 -11.796875q-1.734375 0 -2.78125 0.921875q-1.03125 0.90625 -1.234375 3.109375l7.265625 0q0 -2.234375 -0.859375 -3.125q-0.84375 -0.90625 -2.390625 -0.90625z" fill-rule="nonzero"/><path fill="#000000" fill-opacity="0.0" d="m1.2012016 196.00302l230.3622 0l0 54.834656l-230.3622 0z" fill-rule="evenodd"/><path fill="#000000" d="m12.701201 212.8349q1.109375 -0.203125 2.5625 -0.3125q1.453126 -0.125 2.656251 -0.125q1.34375 0 2.5625 0.296875q1.21875 0.296875 2.140625 0.96875q0.921875 0.671875 1.46875 1.765625q0.5625 1.078125 0.5625 2.625q0 2.40625 -1.328125 3.90625q-1.3125 1.5 -3.328125 2.0l1.40625 1.078125l5.109375 8.125l-2.84375 0l-5.671875 -8.859375l-2.875001 -0.4375l0 9.296875l-2.421875 0l0 -20.328125zm5.265626 1.671875q-0.375 0 -0.796875 0q-0.40625 0 -0.78125 0.03125q-0.375 0.03125 -0.71875095 0.0625q-0.34375 0.03125 -0.546875 0.078125l0 7.578125l2.296876 0q2.015625 0 3.328125 -1.0q1.328125 -1.0 1.328125 -3.109375q0 -1.578125 -1.09375 -2.609375q-1.078125 -1.03125 -3.015625 -1.03125zm21.245346 17.484375q-0.890625 0.703125 -2.21875 1.125q-1.328125 0.40625 -2.828125 0.40625q-1.671875 0 -2.90625 -0.546875q-1.234375 -0.546875 -2.03125 -1.546875q-0.78125 -1.015625 -1.171875 -2.421875q-0.375 -1.421875 -0.375 -3.171875q0 -3.765625 1.671875 -5.71875q1.671875 -1.96875 4.78125 -1.96875q1.0 0 1.984375 0.21875q1.0 0.21875 1.796875 0.84375q0.796875 0.609375 1.296875 1.734375q0.5 1.125 0.5 2.984375q0 0.96875 -0.1875 2.140625l-9.40625 0q0 1.28125 0.265625 2.28125q0.265625 1.0 0.8125 1.6875q0.5625 0.6875 1.453125 1.0625q0.890625 0.359375 2.1875 0.359375q1.0 0 1.984375 -0.34375q1.0 -0.359375 1.5 -0.828125l0.890625 1.703125zm-5.046875 -11.796875q-1.734375 0 -2.78125 0.921875q-1.03125 0.90625 -1.234375 3.109375l7.265625 0q0 -2.234375 -0.859375 -3.125q-0.84375 -0.90625 -2.390625 -0.90625zm20.492432 7.921875q0 1.5 0.03125 2.71875q0.03125 1.21875 0.265625 2.390625l-1.578125 0l-0.59375 -2.09375l-0.109375 0q-0.59375 1.03125 -1.71875 1.71875q-1.109375 0.671875 -2.59375 0.671875q-2.9375 0 -4.359375 -1.84375q-1.421875 -1.859375 -1.421875 -5.78125q0 -3.765625 1.765625 -5.703125q1.78125 -1.953125 4.890625 -1.953125q1.09375 0 1.71875 0.125q0.625 0.109375 1.359375 0.375l0 -6.109375l2.34375 0l0 15.484375zm-5.921875 3.34375q1.5 0 2.375 -0.765625q0.875 -0.78125 1.203125 -2.375l0 -7.265625q-0.53125 -0.40625 -1.203125 -0.578125q-0.671875 -0.1875 -1.78125 -0.1875q-2.03125 0 -3.171875 1.34375q-1.140625 1.328125 -1.140625 4.265625q0 1.1875 0.1875 2.21875q0.1875 1.03125 0.625 1.765625q0.4375 0.734375 1.15625 1.15625q0.71875 0.421875 1.75 0.421875zm9.919144 -7.828125l7.09375 0l0 2.171875l-7.09375 0l0 -2.171875zm11.089371 -11.0l2.34375 0l0 7.296875l0.109375 0q0.671875 -0.84375 1.71875 -1.3125q1.046875 -0.46875 2.265625 -0.46875q2.859375 0 4.28125 1.828125q1.421875 1.8125 1.421875 5.625q0 3.84375 -1.890625 5.84375q-1.875 1.984375 -5.265625 1.984375q-1.640625 0 -2.984375 -0.34375q-1.328125 -0.359375 -2.0 -0.765625l0 -19.6875zm6.03125 7.5625q-1.46875 0 -2.375 0.828125q-0.90625 0.8125 -1.3125 2.3125l0 7.390625q0.546875 0.328125 1.34375 0.5q0.796875 0.15625 1.640625 0.15625q2.0 0 3.1875 -1.40625q1.1875 -1.421875 1.1875 -4.40625q0 -1.140625 -0.203125 -2.140625q-0.203125 -1.0 -0.65625 -1.703125q-0.4375 -0.703125 -1.125 -1.109375q-0.6875 -0.421875 -1.6875 -0.421875zm12.415298 9.359375q0 1.03125 0.34375 1.46875q0.359375 0.4375 1.0 0.4375q0.375 0 0.8125 -0.046875q0.453125 -0.0625 1.0 -0.28125l0.265625 1.859375q-0.46875 0.234375 -1.3125 0.375q-0.828125 0.15625 -1.4375 0.15625q-1.328125 0 -2.1875 -0.75q-0.84375 -0.75 -0.84375 -2.546875l0 -17.59375l2.359375 0l0 16.921875zm5.7200623 -9.96875q1.109375 -0.671875 2.578125 -1.0q1.484375 -0.328125 3.109375 -0.328125q1.515625 0 2.4375 0.421875q0.9375 0.40625 1.40625 1.078125q0.484375 0.65625 0.640625 1.453125q0.171875 0.78125 0.171875 1.578125q0 1.75 -0.09375 3.421875q-0.078125 1.671875 -0.078125 3.171875q0 1.078125 0.078125 2.046875q0.09375 0.96875 0.328125 1.796875l-1.734375 0l-0.609375 -2.0625l-0.140625 0q-0.265625 0.421875 -0.671875 0.8125q-0.390625 0.390625 -0.953125 0.703125q-0.546875 0.3125 -1.28125 0.515625q-0.734375 0.203125 -1.671875 0.203125q-0.9375 0 -1.75 -0.296875q-0.8125 -0.296875 -1.40625 -0.828125q-0.578125 -0.546875 -0.921875 -1.3125q-0.328125 -0.765625 -0.328125 -1.734375q0 -1.28125 0.53125 -2.140625q0.53125 -0.875 1.484375 -1.390625q0.953125 -0.515625 2.28125 -0.734375q1.34375 -0.21875 2.953125 -0.21875q0.40625 0 0.796875 0q0.40625 0 0.8125 0.0625q0.09375 -0.875 0.09375 -1.578125q0 -1.625 -0.65625 -2.265625q-0.640625 -0.640625 -2.34375 -0.640625q-0.5 0 -1.078125 0.078125q-0.5625 0.0625 -1.171875 0.203125q-0.59375 0.125 -1.140625 0.328125q-0.53125 0.1875 -0.953125 0.421875l-0.71875 -1.765625zm4.15625 11.765625q0.828125 0 1.46875 -0.21875q0.640625 -0.234375 1.109375 -0.5625q0.46875 -0.34375 0.78125 -0.75q0.3125 -0.40625 0.453125 -0.796875l0 -2.421875q-0.40625 -0.03125 -0.84375 -0.046875q-0.421875 -0.015625 -0.828125 -0.015625q-0.90625 0 -1.78125 0.109375q-0.859375 0.09375 -1.515625 0.375q-0.65625 0.28125 -1.0625 0.765625q-0.390625 0.484375 -0.390625 1.203125q0 1.03125 0.734375 1.703125q0.734375 0.65625 1.875 0.65625zm20.624863 0.84375q-0.890625 0.640625 -2.09375 0.984375q-1.203125 0.34375 -2.515625 0.34375q-1.703125 0 -2.875 -0.546875q-1.171875 -0.546875 -1.921875 -1.546875q-0.75 -1.015625 -1.09375 -2.4375q-0.328125 -1.4375 -0.328125 -3.15625q0 -3.734375 1.640625 -5.703125q1.640625 -1.984375 4.71875 -1.984375q1.40625 0 2.390625 0.21875q0.984375 0.21875 1.78125 0.625l-0.671875 2.03125q-0.6875 -0.375 -1.515625 -0.59375q-0.8125 -0.234375 -1.75 -0.234375q-4.15625 0 -4.15625 5.640625q0 1.109375 0.21875 2.125q0.21875 1.015625 0.734375 1.796875q0.515625 0.765625 1.34375 1.234375q0.84375 0.46875 2.0625 0.46875q1.0625 0 1.890625 -0.3125q0.84375 -0.328125 1.375 -0.734375l0.765625 1.78125zm6.9144745 -5.625l-1.34375 0l0 6.59375l-2.34375 0l0 -20.53125l2.34375 0l0 12.5l1.203125 -0.421875l4.546875 -6.203125l2.71875 0l-4.484375 5.890625l-1.203125 0.96875l1.46875 1.171875l4.890625 6.625l-2.90625 0l-4.890625 -6.59375zm15.373764 -8.0625l2.28125 0l0 -2.90625l2.34375 -0.671875l0 3.578125l3.984375 0l0 2.046875l-3.984375 0l0 8.125q0 1.515625 0.375 2.15625q0.390625 0.625 1.296875 0.625q0.765625 0 1.296875 -0.15625q0.53125 -0.171875 1.171875 -0.421875l0.53125 1.78125q-0.796875 0.375 -1.734375 0.609375q-0.9375 0.25 -2.03125 0.25q-1.78125 0 -2.515625 -1.015625q-0.734375 -1.015625 -0.734375 -3.390625l0 -8.5625l-2.28125 0l0 -2.046875zm18.801605 2.25q-0.890625 -0.296875 -1.671875 -0.296875q-1.265625 0 -2.0 0.6875q-0.734375 0.6875 -0.90625 1.75l0 10.265625l-2.34375 0l0 -14.65625l1.640625 0l0.4375 1.78125l0.109375 0q0.5625 -1.0 1.328125 -1.53125q0.78125 -0.546875 1.984375 -0.546875q0.859375 0 1.90625 0.296875l-0.484375 2.25zm13.752808 11.234375q-0.890625 0.703125 -2.21875 1.125q-1.328125 0.40625 -2.828125 0.40625q-1.671875 0 -2.90625 -0.546875q-1.234375 -0.546875 -2.03125 -1.546875q-0.78125 -1.015625 -1.171875 -2.421875q-0.375 -1.421875 -0.375 -3.171875q0 -3.765625 1.671875 -5.71875q1.671875 -1.96875 4.78125 -1.96875q1.0 0 1.984375 0.21875q1.0 0.21875 1.796875 0.84375q0.796875 0.609375 1.296875 1.734375q0.5 1.125 0.5 2.984375q0 0.96875 -0.1875 2.140625l-9.40625 0q0 1.28125 0.265625 2.28125q0.265625 1.0 0.8125 1.6875q0.5625 0.6875 1.453125 1.0625q0.890625 0.359375 2.1875 0.359375q1.0 0 1.984375 -0.34375q1.0 -0.359375 1.5 -0.828125l0.890625 1.703125zm-5.046875 -11.796875q-1.734375 0 -2.78125 0.921875q-1.03125 0.90625 -1.234375 3.109375l7.265625 0q0 -2.234375 -0.859375 -3.125q-0.84375 -0.90625 -2.390625 -0.90625zm19.622894 11.796875q-0.890625 0.703125 -2.21875 1.125q-1.328125 0.40625 -2.828125 0.40625q-1.671875 0 -2.90625 -0.546875q-1.234375 -0.546875 -2.03125 -1.546875q-0.78125 -1.015625 -1.171875 -2.421875q-0.375 -1.421875 -0.375 -3.171875q0 -3.765625 1.671875 -5.71875q1.671875 -1.96875 4.78125 -1.96875q1.0 0 1.984375 0.21875q1.0 0.21875 1.796875 0.84375q0.796875 0.609375 1.296875 1.734375q0.5 1.125 0.5 2.984375q0 0.96875 -0.1875 2.140625l-9.40625 0q0 1.28125 0.265625 2.28125q0.265625 1.0 0.8125 1.6875q0.5625 0.6875 1.453125 1.0625q0.890625 0.359375 2.1875 0.359375q1.0 0 1.984375 -0.34375q1.0 -0.359375 1.5 -0.828125l0.890625 1.703125zm-5.046875 -11.796875q-1.734375 0 -2.78125 0.921875q-1.03125 0.90625 -1.234375 3.109375l7.265625 0q0 -2.234375 -0.859375 -3.125q-0.84375 -0.90625 -2.390625 -0.90625z" fill-rule="nonzero"/><path fill="#000000" fill-opacity="0.0" d="m312.1371 57.420498c0 -5.4895897 4.450165 -9.939781 9.939758 -9.939781l17.91571 0c2.6362 0 5.1644287 1.0472221 7.0285034 2.911293c1.8640747 1.8640709 2.9112854 4.392292 2.9112854 7.028488l0 17.915714c0 5.489586 -4.4501953 9.939781 -9.939789 9.939781l-17.91571 0c-5.4895935 0 -9.939758 -4.4501953 -9.939758 -9.939781z" fill-rule="evenodd"/><path stroke="#000000" stroke-width="2.0" stroke-linejoin="round" stroke-linecap="butt" d="m312.1371 57.420498c0 -5.4895897 4.450165 -9.939781 9.939758 -9.939781l17.91571 0c2.6362 0 5.1644287 1.0472221 7.0285034 2.911293c1.8640747 1.8640709 2.9112854 4.392292 2.9112854 7.028488l0 17.915714c0 5.489586 -4.4501953 9.939781 -9.939789 9.939781l-17.91571 0c-5.4895935 0 -9.939758 -4.4501953 -9.939758 -9.939781z" fill-rule="evenodd"/><path fill="#000000" d="m329.14597 73.715225q0.65625 0 1.296875 -0.609375q0.65625 -0.609375 1.21875 -1.46875q0.578125 -0.875 1.03125 -1.8125q0.46875 -0.9375 0.734375 -1.546875l0.765625 -4.109375q-0.34375 -0.23437119 -0.65625 -0.3281212q-0.3125 -0.109375 -0.859375 -0.109375q-1.109375 0 -2.015625 0.6874962q-0.890625 0.6875 -1.53125 1.765625q-0.625 1.078125 -0.984375 2.40625q-0.34375 1.3125 -0.34375 2.578125q0 1.234375 0.296875 1.890625q0.3125 0.65625 1.046875 0.65625zm3.796875 -3.5q-0.3125 0.859375 -0.78125 1.75q-0.46875 0.890625 -1.078125 1.609375q-0.609375 0.71875 -1.359375 1.171875q-0.734375 0.453125 -1.578125 0.453125q-2.5 0 -2.5 -3.625q0 -1.671875 0.46875 -3.265625q0.484375 -1.59375 1.390625 -2.84375q0.921875 -1.25 2.234375 -1.9999962q1.3125 -0.765625 2.96875 -0.765625q0.59375 0 0.953125 0.109375q0.359375 0.109375 0.859375 0.328125q0.96875 -0.5 2.015625 -0.5l-2.15625 10.968746l1.75 0l0 0.59375q-0.46875 0.375 -1.140625 0.625q-0.671875 0.234375 -1.328125 0.234375q-0.6875 0 -1.0 -0.296875q-0.296875 -0.296875 -0.296875 -0.640625q0 -0.421875 0.171875 -1.40625q0.171875 -0.984375 0.5 -2.5l-0.09375 0z" fill-rule="nonzero"/><path fill="#000000" d="m342.3733 84.15604c0 -2.0873718 1.6921387 -3.7795258 3.779541 -3.7795258c1.0023804 0 1.9637146 0.398201 2.6725159 1.1070023c0.70880127 0.70879364 1.1069946 1.6701355 1.1069946 2.6725235c0 2.0873795 -1.6921387 3.7795334 -3.7795105 3.7795334c-2.0874023 0 -3.779541 -1.6921539 -3.779541 -3.7795334z" fill-rule="evenodd"/><path stroke="#000000" stroke-width="1.0" stroke-linejoin="round" stroke-linecap="butt" d="m342.3733 84.15604c0 -2.0873718 1.6921387 -3.7795258 3.779541 -3.7795258c1.0023804 0 1.9637146 0.398201 2.6725159 1.1070023c0.70880127 0.70879364 1.1069946 1.6701355 1.1069946 2.6725235c0 2.0873795 -1.6921387 3.7795334 -3.7795105 3.7795334c-2.0874023 0 -3.779541 -1.6921539 -3.779541 -3.7795334z" fill-rule="evenodd"/><path fill="#000000" d="m312.1371 84.15604c0 -2.0873718 1.6921387 -3.7795258 3.7795105 -3.7795258c1.0024109 0 1.9637451 0.398201 2.6725464 1.1070023c0.70877075 0.70879364 1.1069946 1.6701355 1.1069946 2.6725235c0 2.0873795 -1.6921692 3.7795334 -3.779541 3.7795334c-2.0873718 0 -3.7795105 -1.6921539 -3.7795105 -3.7795334z" fill-rule="evenodd"/><path stroke="#000000" stroke-width="1.0" stroke-linejoin="round" stroke-linecap="butt" d="m312.1371 84.15604c0 -2.0873718 1.6921387 -3.7795258 3.7795105 -3.7795258c1.0024109 0 1.9637451 0.398201 2.6725464 1.1070023c0.70877075 0.70879364 1.1069946 1.6701355 1.1069946 2.6725235c0 2.0873795 -1.6921692 3.7795334 -3.779541 3.7795334c-2.0873718 0 -3.7795105 -1.6921539 -3.7795105 -3.7795334z" fill-rule="evenodd"/><path fill="#000000" fill-opacity="0.0" d="m313.24408 86.82857l-22.204742 36.598427" fill-rule="evenodd"/><path stroke="#000000" stroke-width="1.9763779527559056" stroke-linejoin="round" stroke-linecap="butt" d="m313.24408 86.82857l-16.053741 26.46019" fill-rule="evenodd"/><path fill="#000000" stroke="#000000" stroke-width="1.9763779527559056" stroke-linecap="butt" d="m294.3994 111.59546l-1.8613586 9.361351l7.4432373 -5.9747543z" fill-rule="evenodd"/><path fill="#000000" fill-opacity="0.0" d="m285.28668 123.42822l11.496063 0l0 11.181107l-11.496063 0z" fill-rule="evenodd"/><path fill="#000000" fill-opacity="0.0" d="m348.82535 86.82857l22.204712 36.598427" fill-rule="evenodd"/><path stroke="#000000" stroke-width="1.9763779527559056" stroke-linejoin="round" stroke-linecap="butt" d="m348.82535 86.82857l16.05371 26.46019" fill-rule="evenodd"/><path fill="#000000" stroke="#000000" stroke-width="1.9763779527559056" stroke-linecap="butt" d="m362.08813 114.982056l7.4432373 5.9747543l-1.8613586 -9.361351z" fill-rule="evenodd"/><path fill="#000000" fill-opacity="0.0" d="m365.28668 123.42822l11.496063 0l0 11.181107l-11.496063 0z" fill-rule="evenodd"/><path fill="#000000" fill-opacity="0.0" d="m331.0347 8.394103l0 39.086613" fill-rule="evenodd"/><path stroke="#000000" stroke-width="1.9763779527559056" stroke-linejoin="round" stroke-linecap="butt" d="m331.03473 8.394102l0 27.228346" fill-rule="evenodd"/><path fill="#000000" stroke="#000000" stroke-width="1.9763779527559056" stroke-linecap="butt" d="m327.77026 35.622448l3.2644653 8.968994l3.2644348 -8.968994z" fill-rule="evenodd"/><path fill="#000000" d="m639.3951 84.15604c0 -2.0873718 1.6921387 -3.7795258 3.779541 -3.7795258c1.0023804 0 1.9637451 0.398201 2.6725464 1.1070023c0.70880127 0.70879364 1.1069946 1.6701355 1.1069946 2.6725235c0 2.0873795 -1.6921997 3.7795334 -3.779541 3.7795334c-2.0874023 0 -3.779541 -1.6921539 -3.779541 -3.7795334z" fill-rule="evenodd"/><path stroke="#000000" stroke-width="1.0" stroke-linejoin="round" stroke-linecap="butt" d="m639.3951 84.15604c0 -2.0873718 1.6921387 -3.7795258 3.779541 -3.7795258c1.0023804 0 1.9637451 0.398201 2.6725464 1.1070023c0.70880127 0.70879364 1.1069946 1.6701355 1.1069946 2.6725235c0 2.0873795 -1.6921997 3.7795334 -3.779541 3.7795334c-2.0874023 0 -3.779541 -1.6921539 -3.779541 -3.7795334z" fill-rule="evenodd"/><path fill="#000000" d="m605.37933 84.15604c0 -2.0873718 1.6921387 -3.7795258 3.779541 -3.7795258c1.0023804 0 1.9637451 0.398201 2.6725464 1.1070023c0.70880127 0.70879364 1.1069946 1.6701355 1.1069946 2.6725235c0 2.0873795 -1.6921997 3.7795334 -3.779541 3.7795334c-2.0874023 0 -3.779541 -1.6921539 -3.779541 -3.7795334z" fill-rule="evenodd"/><path stroke="#000000" stroke-width="1.0" stroke-linejoin="round" stroke-linecap="butt" d="m605.37933 84.15604c0 -2.0873718 1.6921387 -3.7795258 3.779541 -3.7795258c1.0023804 0 1.9637451 0.398201 2.6725464 1.1070023c0.70880127 0.70879364 1.1069946 1.6701355 1.1069946 2.6725235c0 2.0873795 -1.6921997 3.7795334 -3.779541 3.7795334c-2.0874023 0 -3.779541 -1.6921539 -3.779541 -3.7795334z" fill-rule="evenodd"/><path fill="#000000" d="m673.4108 84.15604c0 -2.0873718 1.6921387 -3.7795258 3.779541 -3.7795258c1.0023804 0 1.9637451 0.398201 2.6725464 1.1070023c0.70880127 0.70879364 1.1069946 1.6701355 1.1069946 2.6725235c0 2.0873795 -1.6921387 3.7795334 -3.779541 3.7795334c-2.0874023 0 -3.779541 -1.6921539 -3.779541 -3.7795334z" fill-rule="evenodd"/><path stroke="#000000" stroke-width="1.0" stroke-linejoin="round" stroke-linecap="butt" d="m673.4108 84.15604c0 -2.0873718 1.6921387 -3.7795258 3.779541 -3.7795258c1.0023804 0 1.9637451 0.398201 2.6725464 1.1070023c0.70880127 0.70879364 1.1069946 1.6701355 1.1069946 2.6725235c0 2.0873795 -1.6921387 3.7795334 -3.779541 3.7795334c-2.0874023 0 -3.779541 -1.6921539 -3.779541 -3.7795334z" fill-rule="evenodd"/><path fill="#000000" fill-opacity="0.0" d="m605.37933 57.420498c0 -5.4895897 4.4501953 -9.939781 9.939758 -9.939781l55.711 0c2.6362305 0 5.1644287 1.0472221 7.0285034 2.911293c1.8640747 1.8640709 2.911316 4.392292 2.911316 7.028488l0 17.915714c0 5.489586 -4.4501953 9.939781 -9.939819 9.939781l-55.711 0c-5.489563 0 -9.939758 -4.4501953 -9.939758 -9.939781z" fill-rule="evenodd"/><path stroke="#000000" stroke-width="2.0" stroke-linejoin="round" stroke-linecap="butt" d="m605.37933 57.420498c0 -5.4895897 4.4501953 -9.939781 9.939758 -9.939781l55.711 0c2.6362305 0 5.1644287 1.0472221 7.0285034 2.911293c1.8640747 1.8640709 2.911316 4.392292 2.911316 7.028488l0 17.915714c0 5.489586 -4.4501953 9.939781 -9.939819 9.939781l-55.711 0c-5.489563 0 -9.939758 -4.4501953 -9.939758 -9.939781z" fill-rule="evenodd"/><path fill="#000000" d="m623.30994 73.715225q0.65625 0 1.296875 -0.609375q0.65625 -0.609375 1.21875 -1.46875q0.578125 -0.875 1.03125 -1.8125q0.46875 -0.9375 0.734375 -1.546875l0.765625 -4.109375q-0.34375 -0.23437119 -0.65625 -0.3281212q-0.3125 -0.109375 -0.859375 -0.109375q-1.109375 0 -2.015625 0.6874962q-0.890625 0.6875 -1.53125 1.765625q-0.625 1.078125 -0.984375 2.40625q-0.34375 1.3125 -0.34375 2.578125q0 1.234375 0.296875 1.890625q0.3125 0.65625 1.046875 0.65625zm3.796875 -3.5q-0.3125 0.859375 -0.78125 1.75q-0.46875 0.890625 -1.078125 1.609375q-0.609375 0.71875 -1.359375 1.171875q-0.734375 0.453125 -1.578125 0.453125q-2.5 0 -2.5 -3.625q0 -1.671875 0.46875 -3.265625q0.484375 -1.59375 1.390625 -2.84375q0.921875 -1.25 2.234375 -1.9999962q1.3125 -0.765625 2.96875 -0.765625q0.59375 0 0.953125 0.109375q0.359375 0.109375 0.859375 0.328125q0.96875 -0.5 2.015625 -0.5l-2.15625 10.968746l1.75 0l0 0.59375q-0.46875 0.375 -1.140625 0.625q-0.671875 0.234375 -1.328125 0.234375q-0.6875 0 -1.0 -0.296875q-0.296875 -0.296875 -0.296875 -0.640625q0 -0.421875 0.171875 -1.40625q0.171875 -0.984375 0.5 -2.5l-0.09375 0zm31.777283 -11.671871l-1.6875 -0.203125l0 -0.5625q0.390625 -0.140625 0.84375 -0.28125q0.453125 -0.140625 0.921875 -0.265625q0.46875 -0.140625 0.921875 -0.21875q0.46875 -0.09375 0.84375 -0.140625l0.5 0.265625l-2.109375 9.999996l0.125 0q0.4375 -0.859375 0.953125 -1.671875q0.515625 -0.8125 1.09375 -1.4375q0.59375 -0.6249962 1.234375 -0.9999962q0.65625 -0.390625 1.375 -0.390625q1.265625 0 2.015625 0.890625q0.75 0.8749962 0.75 2.7499962q0 1.84375 -0.515625 3.46875q-0.515625 1.625 -1.453125 2.84375q-0.9375 1.203125 -2.265625 1.90625q-1.3125 0.703125 -2.921875 0.703125q-1.171875 0 -2.203125 -0.296875q-1.015625 -0.296875 -1.5 -0.703125l3.078125 -15.656246zm4.0 5.578121q-0.625 0 -1.21875 0.546875q-0.59375 0.546875 -1.109375 1.328125q-0.515625 0.78125 -0.9375 1.640625q-0.421875 0.84375 -0.71875 1.421875l-0.90625 4.609375q0.359375 0.234375 0.890625 0.375q0.546875 0.125 1.078125 0.125q0.9375 0 1.765625 -0.640625q0.828125 -0.65625 1.453125 -1.703125q0.625 -1.0625 0.984375 -2.390625q0.359375 -1.328125 0.328125 -2.703125q0.03125 -1.15625 -0.359375 -1.875q-0.375 -0.734375 -1.25 -0.734375z" fill-rule="nonzero"/><path fill="#000000" fill-opacity="0.0" d="m643.1746 47.480717l0 37.795277" fill-rule="evenodd"/><path stroke="#000000" stroke-width="2.0" stroke-linejoin="round" stroke-linecap="butt" d="m643.1746 47.480717l0 37.795277" fill-rule="evenodd"/><path fill="#000000" fill-opacity="0.0" d="m606.4863 86.82857l-22.204712 36.598427" fill-rule="evenodd"/><path stroke="#000000" stroke-width="1.9763779527559056" stroke-linejoin="round" stroke-linecap="butt" d="m606.4863 86.82857l-16.05371 26.46019" fill-rule="evenodd"/><path fill="#000000" stroke="#000000" stroke-width="1.9763779527559056" stroke-linecap="butt" d="m587.64166 111.59546l-1.8613281 9.361351l7.4432373 -5.9747543z" fill-rule="evenodd"/><path fill="#000000" fill-opacity="0.0" d="m578.52893 123.42822l11.496094 0l0 11.181107l-11.496094 0z" fill-rule="evenodd"/><path fill="#000000" fill-opacity="0.0" d="m679.8629 86.82857l24.409424 36.598427" fill-rule="evenodd"/><path stroke="#000000" stroke-width="1.9763779527559056" stroke-linejoin="round" stroke-linecap="butt" d="m679.8629 86.82857l17.82965 26.733047" fill-rule="evenodd"/><path fill="#000000" stroke="#000000" stroke-width="1.9763779527559056" stroke-linecap="butt" d="m694.97675 115.37295l7.692383 5.650345l-2.2607422 -9.273003z" fill-rule="evenodd"/><path fill="#000000" fill-opacity="0.0" d="m698.52893 123.42822l11.496094 0l0 11.181107l-11.496094 0z" fill-rule="evenodd"/><path fill="#000000" fill-opacity="0.0" d="m643.1746 85.27599l0 38.14173" fill-rule="evenodd"/><path stroke="#000000" stroke-width="1.9763779527559056" stroke-linejoin="round" stroke-linecap="butt" d="m643.1746 85.27599l0 26.283463" fill-rule="evenodd"/><path fill="#000000" stroke="#000000" stroke-width="1.9763779527559056" stroke-linecap="butt" d="m639.91016 111.559456l3.2644653 8.968994l3.2644653 -8.968994z" fill-rule="evenodd"/><path fill="#000000" fill-opacity="0.0" d="m637.4266 123.42822l11.496094 0l0 11.181107l-11.496094 0z" fill-rule="evenodd"/><path fill="#000000" fill-opacity="0.0" d="m643.1746 8.394103l0 39.086613" fill-rule="evenodd"/><path stroke="#000000" stroke-width="1.9763779527559056" stroke-linejoin="round" stroke-linecap="butt" d="m643.1746 8.394102l0 27.228346" fill-rule="evenodd"/><path fill="#000000" stroke="#000000" stroke-width="1.9763779527559056" stroke-linecap="butt" d="m639.91016 35.622448l3.2644653 8.968994l3.2644653 -8.968994z" fill-rule="evenodd"/><path fill="#000000" d="m979.3951 84.15604c0 -2.0873718 1.6921387 -3.7795258 3.779541 -3.7795258c1.0023804 0 1.9637451 0.398201 2.6725464 1.1070023c0.70880127 0.70879364 1.1069946 1.6701355 1.1069946 2.6725235c0 2.0873795 -1.6921997 3.7795334 -3.779541 3.7795334c-2.0874023 0 -3.779541 -1.6921539 -3.779541 -3.7795334z" fill-rule="evenodd"/><path stroke="#000000" stroke-width="1.0" stroke-linejoin="round" stroke-linecap="butt" d="m979.3951 84.15604c0 -2.0873718 1.6921387 -3.7795258 3.779541 -3.7795258c1.0023804 0 1.9637451 0.398201 2.6725464 1.1070023c0.70880127 0.70879364 1.1069946 1.6701355 1.1069946 2.6725235c0 2.0873795 -1.6921997 3.7795334 -3.779541 3.7795334c-2.0874023 0 -3.779541 -1.6921539 -3.779541 -3.7795334z" fill-rule="evenodd"/><path fill="#000000" d="m945.37933 84.15604c0 -2.0873718 1.6921387 -3.7795258 3.779541 -3.7795258c1.0023804 0 1.9637451 0.398201 2.6725464 1.1070023c0.70880127 0.70879364 1.1069946 1.6701355 1.1069946 2.6725235c0 2.0873795 -1.6921997 3.7795334 -3.779541 3.7795334c-2.0874023 0 -3.779541 -1.6921539 -3.779541 -3.7795334z" fill-rule="evenodd"/><path stroke="#000000" stroke-width="1.0" stroke-linejoin="round" stroke-linecap="butt" d="m945.37933 84.15604c0 -2.0873718 1.6921387 -3.7795258 3.779541 -3.7795258c1.0023804 0 1.9637451 0.398201 2.6725464 1.1070023c0.70880127 0.70879364 1.1069946 1.6701355 1.1069946 2.6725235c0 2.0873795 -1.6921997 3.7795334 -3.779541 3.7795334c-2.0874023 0 -3.779541 -1.6921539 -3.779541 -3.7795334z" fill-rule="evenodd"/><path fill="#000000" d="m1017.19037 84.15604c0 -2.0873718 1.6921387 -3.7795258 3.779541 -3.7795258c1.0023804 0 1.9636841 0.398201 2.6724854 1.1070023c0.70880127 0.70879364 1.1069946 1.6701355 1.1069946 2.6725235c0 2.0873795 -1.6921387 3.7795334 -3.77948 3.7795334c-2.0874023 0 -3.779541 -1.6921539 -3.779541 -3.7795334z" fill-rule="evenodd"/><path stroke="#000000" stroke-width="1.0" stroke-linejoin="round" stroke-linecap="butt" d="m1017.19037 84.15604c0 -2.0873718 1.6921387 -3.7795258 3.779541 -3.7795258c1.0023804 0 1.9636841 0.398201 2.6724854 1.1070023c0.70880127 0.70879364 1.1069946 1.6701355 1.1069946 2.6725235c0 2.0873795 -1.6921387 3.7795334 -3.77948 3.7795334c-2.0874023 0 -3.779541 -1.6921539 -3.779541 -3.7795334z" fill-rule="evenodd"/><path fill="#000000" fill-opacity="0.0" d="m945.37933 57.420498c0 -5.4895897 4.4501953 -9.939781 9.939758 -9.939781l93.50635 0c2.6361084 0 5.1643066 1.0472221 7.0284424 2.911293c1.8640137 1.8640709 2.911255 4.392292 2.911255 7.028488l0 17.915714c0 5.489586 -4.4501953 9.939781 -9.939697 9.939781l-93.50635 0c-5.489563 0 -9.939758 -4.4501953 -9.939758 -9.939781z" fill-rule="evenodd"/><path stroke="#000000" stroke-width="2.0" stroke-linejoin="round" stroke-linecap="butt" d="m945.37933 57.420498c0 -5.4895897 4.4501953 -9.939781 9.939758 -9.939781l93.50635 0c2.6361084 0 5.1643066 1.0472221 7.0284424 2.911293c1.8640137 1.8640709 2.911255 4.392292 2.911255 7.028488l0 17.915714c0 5.489586 -4.4501953 9.939781 -9.939697 9.939781l-93.50635 0c-5.489563 0 -9.939758 -4.4501953 -9.939758 -9.939781z" fill-rule="evenodd"/><path fill="#000000" d="m965.4076 73.715225q0.65625 0 1.296875 -0.609375q0.65625 -0.609375 1.21875 -1.46875q0.578125 -0.875 1.03125 -1.8125q0.46875 -0.9375 0.734375 -1.546875l0.765625 -4.109375q-0.34375 -0.23437119 -0.65625 -0.3281212q-0.3125 -0.109375 -0.859375 -0.109375q-1.109375 0 -2.015625 0.6874962q-0.890625 0.6875 -1.53125 1.765625q-0.625 1.078125 -0.984375 2.40625q-0.34375 1.3125 -0.34375 2.578125q0 1.234375 0.296875 1.890625q0.3125 0.65625 1.046875 0.65625zm3.796875 -3.5q-0.3125 0.859375 -0.78125 1.75q-0.46875 0.890625 -1.078125 1.609375q-0.609375 0.71875 -1.359375 1.171875q-0.734375 0.453125 -1.578125 0.453125q-2.5 0 -2.5 -3.625q0 -1.671875 0.46875 -3.265625q0.484375 -1.59375 1.390625 -2.84375q0.921875 -1.25 2.234375 -1.9999962q1.3125 -0.765625 2.96875 -0.765625q0.59375 0 0.953125 0.109375q0.359375 0.109375 0.859375 0.328125q0.96875 -0.5 2.015625 -0.5l-2.15625 10.968746l1.75 0l0 0.59375q-0.46875 0.375 -1.140625 0.625q-0.671875 0.234375 -1.328125 0.234375q-0.6875 0 -1.0 -0.296875q-0.296875 -0.296875 -0.296875 -0.640625q0 -0.421875 0.171875 -1.40625q0.171875 -0.984375 0.5 -2.5l-0.09375 0zm31.777283 -11.671871l-1.6875 -0.203125l0 -0.5625q0.390625 -0.140625 0.84375 -0.28125q0.453125 -0.140625 0.921875 -0.265625q0.46875 -0.140625 0.921875 -0.21875q0.46875 -0.09375 0.84375 -0.140625l0.5 0.265625l-2.109375 9.999996l0.125 0q0.4375 -0.859375 0.953125 -1.671875q0.515625 -0.8125 1.09375 -1.4375q0.59375 -0.6249962 1.234375 -0.9999962q0.65625 -0.390625 1.375 -0.390625q1.265625 0 2.015625 0.890625q0.75 0.8749962 0.75 2.7499962q0 1.84375 -0.515625 3.46875q-0.515625 1.625 -1.453125 2.84375q-0.9375 1.203125 -2.265625 1.90625q-1.3125 0.703125 -2.921875 0.703125q-1.171875 0 -2.203125 -0.296875q-1.015625 -0.296875 -1.5 -0.703125l3.078125 -15.656246zm4.0 5.578121q-0.625 0 -1.21875 0.546875q-0.59375 0.546875 -1.109375 1.328125q-0.515625 0.78125 -0.9375 1.640625q-0.421875 0.84375 -0.71875 1.421875l-0.90625 4.609375q0.359375 0.234375 0.890625 0.375q0.546875 0.125 1.078125 0.125q0.9375 0 1.765625 -0.640625q0.828125 -0.65625 1.453125 -1.703125q0.625 -1.0625 0.984375 -2.390625q0.359375 -1.328125 0.328125 -2.703125q0.03125 -1.15625 -0.359375 -1.875q-0.375 -0.734375 -1.25 -0.734375zm37.18634 8.65625q-0.265625 0.453125 -0.671875 0.890625q-0.40625 0.4375 -0.96875 0.78125q-0.546875 0.34375 -1.234375 0.546875q-0.6875 0.203125 -1.5 0.203125q-1.765625 0 -2.8125 -1.125q-1.03125 -1.125 -1.03125 -3.0625q0 -1.734375 0.546875 -3.25q0.5625 -1.53125 1.5 -2.671875q0.953125 -1.1406212 2.234375 -1.7968712q1.296875 -0.65625 2.75 -0.65625q0.921875 0 1.5 0.140625q0.578125 0.140625 0.859375 0.40625q0.03125 0.265625 -0.03125 0.59375q-0.0625 0.3124962 -0.203125 0.6249962q-0.125 0.3125 -0.328125 0.578125q-0.203125 0.265625 -0.421875 0.359375l-1.625 -1.6718712q-0.828125 0.015625 -1.640625 0.4999962q-0.796875 0.484375 -1.4375 1.375q-0.625 0.875 -1.03125 2.140625q-0.390625 1.265625 -0.359375 2.84375q-0.03125 1.65625 0.65625 2.421875q0.6875 0.765625 1.859375 0.765625q0.5 0 0.9375 -0.140625q0.453125 -0.140625 0.828125 -0.359375q0.390625 -0.21875 0.703125 -0.453125q0.3125 -0.25 0.5625 -0.4375l0.359375 0.453125z" fill-rule="nonzero"/><path fill="#000000" fill-opacity="0.0" d="m983.1746 47.480717l0 37.795277" fill-rule="evenodd"/><path stroke="#000000" stroke-width="2.0" stroke-linejoin="round" stroke-linecap="butt" d="m983.1746 47.480717l0 37.795277" fill-rule="evenodd"/><path fill="#000000" fill-opacity="0.0" d="m1020.9699 47.480717l0 37.795277" fill-rule="evenodd"/><path stroke="#000000" stroke-width="2.0" stroke-linejoin="round" stroke-linecap="butt" d="m1020.9699 47.480717l0 37.795277" fill-rule="evenodd"/><path fill="#000000" d="m1051.206 84.15604c0 -2.0873718 1.6922607 -3.7795258 3.779541 -3.7795258c1.0024414 0 1.9637451 0.398201 2.6726074 1.1070023c0.70874023 0.70879364 1.1069336 1.6701355 1.1069336 2.6725235c0 2.0873795 -1.6921387 3.7795334 -3.779541 3.7795334c-2.0872803 0 -3.779541 -1.6921539 -3.779541 -3.7795334z" fill-rule="evenodd"/><path stroke="#000000" stroke-width="1.0" stroke-linejoin="round" stroke-linecap="butt" d="m1051.206 84.15604c0 -2.0873718 1.6922607 -3.7795258 3.779541 -3.7795258c1.0024414 0 1.9637451 0.398201 2.6726074 1.1070023c0.70874023 0.70879364 1.1069336 1.6701355 1.1069336 2.6725235c0 2.0873795 -1.6921387 3.7795334 -3.779541 3.7795334c-2.0872803 0 -3.779541 -1.6921539 -3.779541 -3.7795334z" fill-rule="evenodd"/><path fill="#000000" fill-opacity="0.0" d="m946.4863 86.82857l-22.204712 36.598427" fill-rule="evenodd"/><path stroke="#000000" stroke-width="1.9763779527559056" stroke-linejoin="round" stroke-linecap="butt" d="m946.4863 86.82857l-16.053772 26.46019" fill-rule="evenodd"/><path fill="#000000" stroke="#000000" stroke-width="1.9763779527559056" stroke-linecap="butt" d="m927.6416 111.59546l-1.8613281 9.361351l7.4432373 -5.9747543z" fill-rule="evenodd"/><path fill="#000000" fill-opacity="0.0" d="m918.52893 123.42822l11.496094 0l0 11.181107l-11.496094 0z" fill-rule="evenodd"/><path fill="#000000" fill-opacity="0.0" d="m1057.6582 86.82857l26.614136 36.598427" fill-rule="evenodd"/><path stroke="#000000" stroke-width="1.9763779527559056" stroke-linejoin="round" stroke-linecap="butt" d="m1057.6581 86.82857l19.640015 27.007866" fill-rule="evenodd"/><path fill="#000000" stroke="#000000" stroke-width="1.9763779527559056" stroke-linecap="butt" d="m1074.658 115.75635l7.915039 5.3339005l-2.6347656 -9.173744z" fill-rule="evenodd"/><path fill="#000000" fill-opacity="0.0" d="m1078.5289 123.42822l11.496094 0l0 11.181107l-11.496094 0z" fill-rule="evenodd"/><path fill="#000000" fill-opacity="0.0" d="m1020.9699 87.93557l15.307068 35.496063" fill-rule="evenodd"/><path stroke="#000000" stroke-width="1.9763779527559056" stroke-linejoin="round" stroke-linecap="butt" d="m1020.9699 87.93556l10.611389 24.607117" fill-rule="evenodd"/><path fill="#000000" stroke="#000000" stroke-width="1.9763779527559056" stroke-linecap="butt" d="m1028.5837 113.83535l6.5491943 6.9431763l-0.55407715 -9.528511z" fill-rule="evenodd"/><path fill="#000000" fill-opacity="0.0" d="m1030.5289 123.42822l11.496094 0l0 11.181107l-11.496094 0z" fill-rule="evenodd"/><path fill="#000000" fill-opacity="0.0" d="m1002.07227 8.394103l0 39.086613" fill-rule="evenodd"/><path stroke="#000000" stroke-width="1.9763779527559056" stroke-linejoin="round" stroke-linecap="butt" d="m1002.07227 8.394102l0 27.228346" fill-rule="evenodd"/><path fill="#000000" stroke="#000000" stroke-width="1.9763779527559056" stroke-linecap="butt" d="m998.8078 35.622448l3.2644653 8.968994l3.2644653 -8.968994z" fill-rule="evenodd"/><path fill="#000000" fill-opacity="0.0" d="m983.1746 87.93557l-10.897644 35.496063" fill-rule="evenodd"/><path stroke="#000000" stroke-width="1.9763779527559056" stroke-linejoin="round" stroke-linecap="butt" d="m983.1746 87.93556l-7.4172974 24.160004" fill-rule="evenodd"/><path fill="#000000" stroke="#000000" stroke-width="1.9763779527559056" stroke-linecap="butt" d="m972.6366 111.13749l0.4883423 9.5321045l5.7529907 -7.615944z" fill-rule="evenodd"/><path fill="#000000" fill-opacity="0.0" d="m966.52893 123.42822l11.496094 0l0 11.181107l-11.496094 0z" fill-rule="evenodd"/><path fill="#000000" d="m983.48956 214.87749c0 -11.48056 9.306824 -20.7874 20.787415 -20.7874c5.5131836 0 10.800537 2.190094 14.698914 6.0884857c3.8983765 3.8983917 6.08844 9.185745 6.08844 14.698914c0 11.48056 -9.306763 20.7874 -20.787354 20.7874c-11.480591 0 -20.787415 -9.306839 -20.787415 -20.7874z" fill-rule="evenodd"/><path stroke="#000000" stroke-width="2.0" stroke-linejoin="round" stroke-linecap="butt" d="m983.48956 214.87749c0 -11.48056 9.306824 -20.7874 20.787415 -20.7874c5.5131836 0 10.800537 2.190094 14.698914 6.0884857c3.8983765 3.8983917 6.08844 9.185745 6.08844 14.698914c0 11.48056 -9.306763 20.7874 -20.787354 20.7874c-11.480591 0 -20.787415 -9.306839 -20.787415 -20.7874z" fill-rule="evenodd"/><path fill="#ffffff" d="m1001.07806 207.40038l-1.59375 -0.3125l0 -0.765625q0.453125 -0.171875 1.125 -0.328125q0.6875 -0.15625 1.375 -0.265625q0.6875 -0.125 1.328125 -0.203125q0.640625 -0.09375 1.03125 -0.125l0.5 0.265625l-1.859375 9.15625l0.125 0q0.390625 -0.734375 0.859375 -1.375q0.484375 -0.65625 1.046875 -1.15625q0.578125 -0.515625 1.203125 -0.796875q0.625 -0.296875 1.359375 -0.296875q0.625 0 1.15625 0.234375q0.546875 0.21875 0.9375 0.703125q0.40625 0.46875 0.640625 1.203125q0.234375 0.734375 0.234375 1.75q0 1.78125 -0.484375 3.359375q-0.484375 1.578125 -1.4375 2.796875q-0.953125 1.203125 -2.375 1.90625q-1.40625 0.703125 -3.234375 0.703125q-0.78125 0 -1.515625 -0.109375q-0.734375 -0.09375 -1.375 -0.25q-0.640625 -0.171875 -1.15625 -0.40625q-0.5 -0.25 -0.8125 -0.515625l2.921875 -15.171875zm4.734375 5.734375q-0.515625 0 -0.984375 0.40625q-0.46875 0.40625 -0.875 0.984375q-0.390625 0.578125 -0.703125 1.21875q-0.3125 0.625 -0.5 1.046875l-1.046875 5.203125q0.265625 0.234375 0.671875 0.359375q0.421875 0.109375 0.828125 0.109375q0.828125 0 1.53125 -0.59375q0.71875 -0.609375 1.25 -1.59375q0.53125 -0.984375 0.828125 -2.28125q0.296875 -1.296875 0.296875 -2.671875q0 -1.015625 -0.3125 -1.59375q-0.3125 -0.59375 -0.984375 -0.59375z" fill-rule="nonzero"/><path fill="#f4cccc" d="m1033.8159 273.2039c0 -11.48056 9.306885 -20.7874 20.787476 -20.7874c5.5131836 0 10.800537 2.190094 14.698853 6.0884857c3.8984375 3.898407 6.088501 9.1857605 6.088501 14.698914c0 11.48056 -9.306763 20.787415 -20.787354 20.787415c-11.480591 0 -20.787476 -9.306854 -20.787476 -20.787415z" fill-rule="evenodd"/><path stroke="#000000" stroke-width="2.0" stroke-linejoin="round" stroke-linecap="butt" d="m1033.8159 273.2039c0 -11.48056 9.306885 -20.7874 20.787476 -20.7874c5.5131836 0 10.800537 2.190094 14.698853 6.0884857c3.8984375 3.898407 6.088501 9.1857605 6.088501 14.698914c0 11.48056 -9.306763 20.787415 -20.787354 20.787415c-11.480591 0 -20.787476 -9.306854 -20.787476 -20.787415z" fill-rule="evenodd"/><path fill="#000000" d="m1058.656 279.72678q-0.265625 0.46875 -0.671875 0.90625q-0.40625 0.421875 -0.96875 0.78125q-0.546875 0.34375 -1.234375 0.546875q-0.6875 0.21875 -1.515625 0.21875q-1.78125 0 -2.828125 -1.140625q-1.03125 -1.140625 -1.03125 -3.09375q0 -1.734375 0.546875 -3.265625q0.5625 -1.53125 1.515625 -2.671875q0.953125 -1.15625 2.234375 -1.8125q1.296875 -0.671875 2.765625 -0.671875q0.921875 0 1.5 0.15625q0.578125 0.140625 0.875 0.390625q0.015625 0.265625 -0.046875 0.59375q-0.046875 0.328125 -0.1875 0.640625q-0.125 0.3125 -0.34375 0.578125q-0.203125 0.265625 -0.40625 0.375l-1.65625 -1.703125q-0.8125 0.03125 -1.625 0.515625q-0.8125 0.484375 -1.453125 1.375q-0.625 0.890625 -1.03125 2.15625q-0.390625 1.265625 -0.375 2.859375q-0.015625 1.671875 0.671875 2.453125q0.6875 0.765625 1.859375 0.765625q0.515625 0 0.953125 -0.140625q0.453125 -0.15625 0.828125 -0.375q0.390625 -0.21875 0.703125 -0.453125q0.328125 -0.234375 0.5625 -0.4375l0.359375 0.453125z" fill-rule="nonzero"/><path fill="#f4cccc" d="m933.1632 273.2039c0 -11.48056 9.306824 -20.7874 20.787354 -20.7874c5.5131836 0 10.800537 2.190094 14.698914 6.0884857c3.8984375 3.898407 6.088501 9.1857605 6.088501 14.698914c0 11.48056 -9.306824 20.787415 -20.787415 20.787415c-11.48053 0 -20.787354 -9.306854 -20.787354 -20.787415z" fill-rule="evenodd"/><path stroke="#000000" stroke-width="2.0" stroke-linejoin="round" stroke-linecap="butt" d="m933.1632 273.2039c0 -11.48056 9.306824 -20.7874 20.787354 -20.7874c5.5131836 0 10.800537 2.190094 14.698914 6.0884857c3.8984375 3.898407 6.088501 9.1857605 6.088501 14.698914c0 11.48056 -9.306824 20.787415 -20.787415 20.787415c-11.48053 0 -20.787354 -9.306854 -20.787354 -20.787415z" fill-rule="evenodd"/><path fill="#000000" d="m952.0555 280.6799q0.65625 0 1.296875 -0.609375q0.65625 -0.625 1.234375 -1.484375q0.578125 -0.875 1.03125 -1.8125q0.46875 -0.953125 0.734375 -1.578125l0.765625 -4.125q-0.328125 -0.25 -0.640625 -0.34375q-0.3125 -0.09375 -0.875 -0.09375q-1.109375 0 -2.015625 0.6875q-0.90625 0.6875 -1.546875 1.78125q-0.640625 1.078125 -1.0 2.40625q-0.34375 1.328125 -0.34375 2.609375q0 1.234375 0.296875 1.90625q0.3125 0.65625 1.0625 0.65625zm3.8125 -3.53125q-0.3125 0.875 -0.78125 1.765625q-0.46875 0.890625 -1.09375 1.625q-0.609375 0.71875 -1.359375 1.1875q-0.75 0.453125 -1.59375 0.453125q-2.515625 0 -2.515625 -3.65625q0 -1.6875 0.484375 -3.28125q0.484375 -1.609375 1.40625 -2.859375q0.921875 -1.265625 2.234375 -2.015625q1.3125 -0.765625 2.984375 -0.765625q0.59375 0 0.953125 0.109375q0.375 0.109375 0.875 0.3125q0.96875 -0.5 2.03125 -0.5l-2.171875 11.03125l1.765625 0l0 0.609375q-0.484375 0.375 -1.171875 0.625q-0.671875 0.234375 -1.328125 0.234375q-0.6875 0 -1.0 -0.296875q-0.296875 -0.296875 -0.296875 -0.640625q0 -0.4375 0.171875 -1.421875q0.171875 -0.984375 0.5 -2.515625l-0.09375 0z" fill-rule="nonzero"/><path fill="#000000" fill-opacity="0.0" d="m989.57806 229.5764l-20.913391 28.913376" fill-rule="evenodd"/><path stroke="#000000" stroke-width="2.0" stroke-linejoin="round" stroke-linecap="butt" d="m989.57806 229.5764l-13.880554 19.190277" fill-rule="evenodd"/><path fill="#000000" stroke="#000000" stroke-width="2.0" stroke-linecap="butt" d="m973.0209 246.83061l-2.6426392 9.290146l7.9959717 -5.41803z" fill-rule="evenodd"/><path fill="#000000" fill-opacity="0.0" d="m1018.9759 229.5764l20.913391 28.913376" fill-rule="evenodd"/><path stroke="#000000" stroke-width="2.0" stroke-linejoin="round" stroke-linecap="butt" d="m1018.9759 229.5764l13.880554 19.190277" fill-rule="evenodd"/><path fill="#000000" stroke="#000000" stroke-width="2.0" stroke-linecap="butt" d="m1030.1798 250.70273l7.9958496 5.41803l-2.6425781 -9.290146z" fill-rule="evenodd"/><path fill="#000000" fill-opacity="0.0" d="m1039.9044 287.9028l-9.29126 26.330719" fill-rule="evenodd"/><path stroke="#000000" stroke-width="2.0" stroke-linejoin="round" stroke-linecap="butt" d="m1039.9044 287.9028l-5.298218 15.014587" fill-rule="evenodd"/><path fill="#000000" stroke="#000000" stroke-width="2.0" stroke-linecap="butt" d="m1031.4911 301.8181l0.0949707 9.658203l6.135376 -7.4596863z" fill-rule="evenodd"/><path fill="#000000" fill-opacity="0.0" d="m1069.3022 287.9028l9.291382 26.330719" fill-rule="evenodd"/><path stroke="#000000" stroke-width="2.0" stroke-linejoin="round" stroke-linecap="butt" d="m1069.3024 287.9028l5.298218 15.014587" fill-rule="evenodd"/><path fill="#000000" stroke="#000000" stroke-width="2.0" stroke-linecap="butt" d="m1071.4854 304.01663l6.135376 7.4596863l0.0949707 -9.658203z" fill-rule="evenodd"/><path fill="#000000" fill-opacity="0.0" d="m939.25165 287.9028l-9.291321 26.330719" fill-rule="evenodd"/><path stroke="#000000" stroke-width="2.0" stroke-linejoin="round" stroke-linecap="butt" d="m939.25165 287.9028l-5.298218 15.014587" fill-rule="evenodd"/><path fill="#000000" stroke="#000000" stroke-width="2.0" stroke-linecap="butt" d="m930.83826 301.8181l0.0949707 9.658203l6.135437 -7.4596863z" fill-rule="evenodd"/><path fill="#000000" fill-opacity="0.0" d="m968.6495 287.9028l9.291382 26.330719" fill-rule="evenodd"/><path stroke="#000000" stroke-width="2.0" stroke-linejoin="round" stroke-linecap="butt" d="m968.64954 287.9028l5.298218 15.014587" fill-rule="evenodd"/><path fill="#000000" stroke="#000000" stroke-width="2.0" stroke-linecap="butt" d="m970.8325 304.01663l6.135437 7.4596863l0.0949707 -9.658203z" fill-rule="evenodd"/><path fill="#000000" fill-opacity="0.0" d="m1004.277 161.52316l0 32.566925" fill-rule="evenodd"/><path stroke="#000000" stroke-width="2.0" stroke-linejoin="round" stroke-linecap="butt" d="m1004.277 161.52316l0 20.56691" fill-rule="evenodd"/><path fill="#000000" stroke="#000000" stroke-width="2.0" stroke-linecap="butt" d="m1000.9735 182.09007l3.3034668 9.076202l3.3034668 -9.076202z" fill-rule="evenodd"/><path fill="#000000" fill-opacity="0.0" d="m924.2026 314.2392l11.496033 0l0 11.181122l-11.496033 0z" fill-rule="evenodd"/><path fill="#000000" fill-opacity="0.0" d="m972.2026 314.2392l11.496033 0l0 11.181122l-11.496033 0z" fill-rule="evenodd"/><path fill="#000000" fill-opacity="0.0" d="m1024.8553 314.2392l11.496094 0l0 11.181122l-11.496094 0z" fill-rule="evenodd"/><path fill="#000000" fill-opacity="0.0" d="m1072.8553 314.2392l11.496094 0l0 11.181122l-11.496094 0z" fill-rule="evenodd"/><path fill="#000000" d="m310.2473 214.87749c0 -11.48056 9.306824 -20.7874 20.787384 -20.7874c5.5131836 0 10.800537 2.190094 14.698914 6.0884857c3.898407 3.8983917 6.088501 9.185745 6.088501 14.698914c0 11.48056 -9.306854 20.7874 -20.787415 20.7874c-11.48056 0 -20.787384 -9.306839 -20.787384 -20.7874z" fill-rule="evenodd"/><path stroke="#000000" stroke-width="2.0" stroke-linejoin="round" stroke-linecap="butt" d="m310.2473 214.87749c0 -11.48056 9.306824 -20.7874 20.787384 -20.7874c5.5131836 0 10.800537 2.190094 14.698914 6.0884857c3.898407 3.8983917 6.088501 9.185745 6.088501 14.698914c0 11.48056 -9.306854 20.7874 -20.787415 20.7874c-11.48056 0 -20.787384 -9.306839 -20.787384 -20.7874z" fill-rule="evenodd"/><path fill="#ffffff" d="m329.5233 221.916q0.46875 0 0.953125 -0.40625q0.5 -0.421875 0.9375 -1.03125q0.453125 -0.609375 0.828125 -1.34375q0.375 -0.75 0.640625 -1.375l0.890625 -4.78125q-0.28125 -0.1875 -0.546875 -0.265625q-0.25 -0.09375 -0.65625 -0.09375q-0.96875 0 -1.75 0.640625q-0.765625 0.640625 -1.296875 1.671875q-0.53125 1.015625 -0.8125 2.296875q-0.265625 1.28125 -0.265625 2.5625q0 1.109375 0.265625 1.625q0.265625 0.5 0.8125 0.5zm3.0 -2.203125q-0.3125 0.78125 -0.796875 1.515625q-0.46875 0.734375 -1.078125 1.3125q-0.59375 0.578125 -1.328125 0.953125q-0.71875 0.359375 -1.5625 0.359375q-1.25 0 -2.0 -0.921875q-0.75 -0.921875 -0.75 -2.734375q0 -1.875 0.515625 -3.5q0.53125 -1.640625 1.484375 -2.859375q0.953125 -1.21875 2.296875 -1.90625q1.359375 -0.6875 3.015625 -0.6875q0.640625 0 1.078125 0.15625q0.453125 0.140625 0.953125 0.34375q0.625 -0.234375 1.34375 -0.34375q0.734375 -0.125 1.75 -0.125l-2.03125 10.609375l1.6875 0l0 0.828125q-0.234375 0.1875 -0.640625 0.390625q-0.390625 0.1875 -0.859375 0.34375q-0.46875 0.140625 -0.96875 0.234375q-0.5 0.09375 -0.9375 0.09375q-0.84375 0 -1.203125 -0.359375q-0.359375 -0.359375 -0.359375 -0.75q0 -0.4375 0.109375 -1.140625q0.125 -0.71875 0.375 -1.8125l-0.09375 0z" fill-rule="nonzero"/><path fill="#000000" fill-opacity="0.0" d="m316.3358 229.5764l-25.29132 28.661423" fill-rule="evenodd"/><path stroke="#000000" stroke-width="2.0" stroke-linejoin="round" stroke-linecap="butt" d="m316.3358 229.5764l-17.351532 19.66365" fill-rule="evenodd"/><path fill="#000000" stroke="#000000" stroke-width="2.0" stroke-linecap="butt" d="m296.50726 247.05432l-3.5282898 8.99118l8.482239 -4.6197205z" fill-rule="evenodd"/><path fill="#000000" fill-opacity="0.0" d="m345.7336 229.5764l25.291351 28.661423" fill-rule="evenodd"/><path stroke="#000000" stroke-width="2.0" stroke-linejoin="round" stroke-linecap="butt" d="m345.73364 229.5764l17.351532 19.66365" fill-rule="evenodd"/><path fill="#000000" stroke="#000000" stroke-width="2.0" stroke-linecap="butt" d="m360.60822 251.42578l8.482239 4.6197205l-3.5282898 -8.99118z" fill-rule="evenodd"/><path fill="#000000" fill-opacity="0.0" d="m331.0347 161.52316l0 32.566925" fill-rule="evenodd"/><path stroke="#000000" stroke-width="2.0" stroke-linejoin="round" stroke-linecap="butt" d="m331.03473 161.52316l0 20.56691" fill-rule="evenodd"/><path fill="#000000" stroke="#000000" stroke-width="2.0" stroke-linecap="butt" d="m327.73126 182.09007l3.3034668 9.076202l3.3034363 -9.076202z" fill-rule="evenodd"/><path fill="#000000" fill-opacity="0.0" d="m285.28668 258.2392l11.496063 0l0 11.181122l-11.496063 0z" fill-rule="evenodd"/><path fill="#000000" fill-opacity="0.0" d="m365.28668 258.2392l11.496063 0l0 11.181122l-11.496063 0z" fill-rule="evenodd"/><path fill="#000000" d="m543.48956 214.87749c0 -11.48056 9.306824 -20.7874 20.787415 -20.7874c5.5131836 0 10.800537 2.190094 14.698914 6.0884857c3.8983765 3.8983917 6.088501 9.185745 6.088501 14.698914c0 11.48056 -9.306824 20.7874 -20.787415 20.7874c-11.480591 0 -20.787415 -9.306839 -20.787415 -20.7874z" fill-rule="evenodd"/><path stroke="#000000" stroke-width="2.0" stroke-linejoin="round" stroke-linecap="butt" d="m543.48956 214.87749c0 -11.48056 9.306824 -20.7874 20.787415 -20.7874c5.5131836 0 10.800537 2.190094 14.698914 6.0884857c3.8983765 3.8983917 6.088501 9.185745 6.088501 14.698914c0 11.48056 -9.306824 20.7874 -20.787415 20.7874c-11.480591 0 -20.787415 -9.306839 -20.787415 -20.7874z" fill-rule="evenodd"/><path fill="#ffffff" d="m561.07806 207.40038l-1.59375 -0.3125l0 -0.765625q0.453125 -0.171875 1.125 -0.328125q0.6875 -0.15625 1.375 -0.265625q0.6875 -0.125 1.328125 -0.203125q0.640625 -0.09375 1.03125 -0.125l0.5 0.265625l-1.859375 9.15625l0.125 0q0.390625 -0.734375 0.859375 -1.375q0.484375 -0.65625 1.046875 -1.15625q0.578125 -0.515625 1.203125 -0.796875q0.625 -0.296875 1.359375 -0.296875q0.625 0 1.15625 0.234375q0.546875 0.21875 0.9375 0.703125q0.40625 0.46875 0.640625 1.203125q0.234375 0.734375 0.234375 1.75q0 1.78125 -0.484375 3.359375q-0.484375 1.578125 -1.4375 2.796875q-0.953125 1.203125 -2.375 1.90625q-1.40625 0.703125 -3.234375 0.703125q-0.78125 0 -1.515625 -0.109375q-0.734375 -0.09375 -1.375 -0.25q-0.640625 -0.171875 -1.15625 -0.40625q-0.5 -0.25 -0.8125 -0.515625l2.921875 -15.171875zm4.734375 5.734375q-0.515625 0 -0.984375 0.40625q-0.46875 0.40625 -0.875 0.984375q-0.390625 0.578125 -0.703125 1.21875q-0.3125 0.625 -0.5 1.046875l-1.046875 5.203125q0.265625 0.234375 0.671875 0.359375q0.421875 0.109375 0.828125 0.109375q0.828125 0 1.53125 -0.59375q0.71875 -0.609375 1.25 -1.59375q0.53125 -0.984375 0.828125 -2.28125q0.296875 -1.296875 0.296875 -2.671875q0 -1.015625 -0.3125 -1.59375q-0.3125 -0.59375 -0.984375 -0.59375z" fill-rule="nonzero"/><path fill="#f4cccc" d="m493.16318 273.2039c0 -11.48056 9.306824 -20.7874 20.787384 -20.7874c5.5131836 0 10.800537 2.190094 14.698914 6.0884857c3.8984375 3.898407 6.088501 9.1857605 6.088501 14.698914c0 11.48056 -9.306824 20.787415 -20.787415 20.787415c-11.48056 0 -20.787384 -9.306854 -20.787384 -20.787415z" fill-rule="evenodd"/><path stroke="#000000" stroke-width="2.0" stroke-linejoin="round" stroke-linecap="butt" d="m493.16318 273.2039c0 -11.48056 9.306824 -20.7874 20.787384 -20.7874c5.5131836 0 10.800537 2.190094 14.698914 6.0884857c3.8984375 3.898407 6.088501 9.1857605 6.088501 14.698914c0 11.48056 -9.306824 20.787415 -20.787415 20.787415c-11.48056 0 -20.787384 -9.306854 -20.787384 -20.787415z" fill-rule="evenodd"/><path fill="#000000" d="m512.0555 280.6799q0.65625 0 1.296875 -0.609375q0.65625 -0.625 1.234375 -1.484375q0.578125 -0.875 1.03125 -1.8125q0.46875 -0.953125 0.734375 -1.578125l0.765625 -4.125q-0.328125 -0.25 -0.640625 -0.34375q-0.3125 -0.09375 -0.875 -0.09375q-1.109375 0 -2.015625 0.6875q-0.90625 0.6875 -1.546875 1.78125q-0.640625 1.078125 -1.0 2.40625q-0.34375 1.328125 -0.34375 2.609375q0 1.234375 0.296875 1.90625q0.3125 0.65625 1.0625 0.65625zm3.8125 -3.53125q-0.3125 0.875 -0.78125 1.765625q-0.46875 0.890625 -1.09375 1.625q-0.609375 0.71875 -1.359375 1.1875q-0.75 0.453125 -1.59375 0.453125q-2.515625 0 -2.515625 -3.65625q0 -1.6875 0.484375 -3.28125q0.484375 -1.609375 1.40625 -2.859375q0.921875 -1.265625 2.234375 -2.015625q1.3125 -0.765625 2.984375 -0.765625q0.59375 0 0.953125 0.109375q0.375 0.109375 0.875 0.3125q0.96875 -0.5 2.03125 -0.5l-2.171875 11.03125l1.765625 0l0 0.609375q-0.484375 0.375 -1.171875 0.625q-0.671875 0.234375 -1.328125 0.234375q-0.6875 0 -1.0 -0.296875q-0.296875 -0.296875 -0.296875 -0.640625q0 -0.4375 0.171875 -1.421875q0.171875 -0.984375 0.5 -2.515625l-0.09375 0z" fill-rule="nonzero"/><path fill="#000000" fill-opacity="0.0" d="m549.57806 229.5764l-20.913391 28.913376" fill-rule="evenodd"/><path stroke="#000000" stroke-width="2.0" stroke-linejoin="round" stroke-linecap="butt" d="m549.57806 229.5764l-13.880493 19.190277" fill-rule="evenodd"/><path fill="#000000" stroke="#000000" stroke-width="2.0" stroke-linecap="butt" d="m533.0209 246.83061l-2.6426392 9.290146l7.9959717 -5.41803z" fill-rule="evenodd"/><path fill="#000000" fill-opacity="0.0" d="m578.9759 229.5764l25.29132 28.661423" fill-rule="evenodd"/><path stroke="#000000" stroke-width="2.0" stroke-linejoin="round" stroke-linecap="butt" d="m578.9759 229.5764l17.351562 19.66365" fill-rule="evenodd"/><path fill="#000000" stroke="#000000" stroke-width="2.0" stroke-linecap="butt" d="m593.85046 251.42578l8.482239 4.6197205l-3.5282593 -8.99118z" fill-rule="evenodd"/><path fill="#000000" fill-opacity="0.0" d="m499.25168 287.9028l-9.291351 26.330719" fill-rule="evenodd"/><path stroke="#000000" stroke-width="2.0" stroke-linejoin="round" stroke-linecap="butt" d="m499.25168 287.9028l-5.2981873 15.014587" fill-rule="evenodd"/><path fill="#000000" stroke="#000000" stroke-width="2.0" stroke-linecap="butt" d="m490.83826 301.8181l0.09500122 9.658203l6.135437 -7.4596863z" fill-rule="evenodd"/><path fill="#000000" fill-opacity="0.0" d="m528.6495 287.9028l9.291382 26.330719" fill-rule="evenodd"/><path stroke="#000000" stroke-width="2.0" stroke-linejoin="round" stroke-linecap="butt" d="m528.6495 287.9028l5.298218 15.014587" fill-rule="evenodd"/><path fill="#000000" stroke="#000000" stroke-width="2.0" stroke-linecap="butt" d="m530.83246 304.01663l6.135437 7.4596863l0.0949707 -9.658203z" fill-rule="evenodd"/><path fill="#000000" fill-opacity="0.0" d="m564.277 161.52316l0 32.566925" fill-rule="evenodd"/><path stroke="#000000" stroke-width="2.0" stroke-linejoin="round" stroke-linecap="butt" d="m564.277 161.52316l0 20.56691" fill-rule="evenodd"/><path fill="#000000" stroke="#000000" stroke-width="2.0" stroke-linecap="butt" d="m560.9735 182.09007l3.3034668 9.076202l3.3034668 -9.076202z" fill-rule="evenodd"/><path fill="#000000" fill-opacity="0.0" d="m484.20255 314.2392l11.496063 0l0 11.181122l-11.496063 0z" fill-rule="evenodd"/><path fill="#000000" fill-opacity="0.0" d="m532.2026 314.2392l11.496033 0l0 11.181122l-11.496033 0z" fill-rule="evenodd"/><path fill="#000000" fill-opacity="0.0" d="m598.52893 258.2392l11.496094 0l0 11.181122l-11.496094 0z" fill-rule="evenodd"/><path fill="#000000" d="m703.48956 214.87749c0 -11.48056 9.306824 -20.7874 20.787415 -20.7874c5.5131836 0 10.800537 2.190094 14.698914 6.0884857c3.8983765 3.8983917 6.088501 9.185745 6.088501 14.698914c0 11.48056 -9.306824 20.7874 -20.787415 20.7874c-11.480591 0 -20.787415 -9.306839 -20.787415 -20.7874z" fill-rule="evenodd"/><path stroke="#000000" stroke-width="2.0" stroke-linejoin="round" stroke-linecap="butt" d="m703.48956 214.87749c0 -11.48056 9.306824 -20.7874 20.787415 -20.7874c5.5131836 0 10.800537 2.190094 14.698914 6.0884857c3.8983765 3.8983917 6.088501 9.185745 6.088501 14.698914c0 11.48056 -9.306824 20.7874 -20.787415 20.7874c-11.480591 0 -20.787415 -9.306839 -20.787415 -20.7874z" fill-rule="evenodd"/><path fill="#ffffff" d="m722.76556 221.916q0.46875 0 0.953125 -0.40625q0.5 -0.421875 0.9375 -1.03125q0.453125 -0.609375 0.828125 -1.34375q0.375 -0.75 0.640625 -1.375l0.890625 -4.78125q-0.28125 -0.1875 -0.546875 -0.265625q-0.25 -0.09375 -0.65625 -0.09375q-0.96875 0 -1.75 0.640625q-0.765625 0.640625 -1.296875 1.671875q-0.53125 1.015625 -0.8125 2.296875q-0.265625 1.28125 -0.265625 2.5625q0 1.109375 0.265625 1.625q0.265625 0.5 0.8125 0.5zm3.0 -2.203125q-0.3125 0.78125 -0.796875 1.515625q-0.46875 0.734375 -1.078125 1.3125q-0.59375 0.578125 -1.328125 0.953125q-0.71875 0.359375 -1.5625 0.359375q-1.25 0 -2.0 -0.921875q-0.75 -0.921875 -0.75 -2.734375q0 -1.875 0.515625 -3.5q0.53125 -1.640625 1.484375 -2.859375q0.953125 -1.21875 2.296875 -1.90625q1.359375 -0.6875 3.015625 -0.6875q0.640625 0 1.078125 0.15625q0.453125 0.140625 0.953125 0.34375q0.625 -0.234375 1.34375 -0.34375q0.734375 -0.125 1.75 -0.125l-2.03125 10.609375l1.6875 0l0 0.828125q-0.234375 0.1875 -0.640625 0.390625q-0.390625 0.1875 -0.859375 0.34375q-0.46875 0.140625 -0.96875 0.234375q-0.5 0.09375 -0.9375 0.09375q-0.84375 0 -1.203125 -0.359375q-0.359375 -0.359375 -0.359375 -0.75q0 -0.4375 0.109375 -1.140625q0.125 -0.71875 0.375 -1.8125l-0.09375 0z" fill-rule="nonzero"/><path fill="#f4cccc" d="m753.816 273.2039c0 -11.48056 9.306824 -20.7874 20.787415 -20.7874c5.5131226 0 10.800476 2.190094 14.698914 6.0884857c3.8983765 3.898407 6.088501 9.1857605 6.088501 14.698914c0 11.48056 -9.306885 20.787415 -20.787415 20.787415c-11.480591 0 -20.787415 -9.306854 -20.787415 -20.787415z" fill-rule="evenodd"/><path stroke="#000000" stroke-width="2.0" stroke-linejoin="round" stroke-linecap="butt" d="m753.816 273.2039c0 -11.48056 9.306824 -20.7874 20.787415 -20.7874c5.5131226 0 10.800476 2.190094 14.698914 6.0884857c3.8983765 3.898407 6.088501 9.1857605 6.088501 14.698914c0 11.48056 -9.306885 20.787415 -20.787415 20.787415c-11.480591 0 -20.787415 -9.306854 -20.787415 -20.787415z" fill-rule="evenodd"/><path fill="#000000" d="m772.2075 265.41428l-1.6875 -0.21875l0 -0.546875q0.390625 -0.140625 0.84375 -0.28125q0.46875 -0.15625 0.9375 -0.28125q0.46875 -0.140625 0.921875 -0.21875q0.46875 -0.09375 0.84375 -0.140625l0.515625 0.265625l-2.125 10.0625l0.125 0q0.421875 -0.859375 0.9375 -1.671875q0.53125 -0.828125 1.125 -1.453125q0.59375 -0.640625 1.234375 -1.015625q0.65625 -0.390625 1.375 -0.390625q1.28125 0 2.03125 0.890625q0.75 0.890625 0.75 2.78125q0 1.859375 -0.515625 3.484375q-0.515625 1.625 -1.46875 2.84375q-0.9375 1.21875 -2.265625 1.9375q-1.328125 0.71875 -2.9375 0.71875q-1.1875 0 -2.21875 -0.296875q-1.015625 -0.3125 -1.5 -0.71875l3.078125 -15.75zm4.03125 5.609375q-0.625 0 -1.234375 0.5625q-0.59375 0.546875 -1.109375 1.328125q-0.515625 0.78125 -0.953125 1.640625q-0.421875 0.859375 -0.703125 1.4375l-0.921875 4.640625q0.359375 0.234375 0.90625 0.375q0.546875 0.125 1.078125 0.125q0.9375 0 1.765625 -0.640625q0.84375 -0.65625 1.46875 -1.71875q0.625 -1.0625 0.984375 -2.40625q0.359375 -1.34375 0.34375 -2.71875q0.015625 -1.15625 -0.375 -1.890625q-0.375 -0.734375 -1.25 -0.734375z" fill-rule="nonzero"/><path fill="#000000" fill-opacity="0.0" d="m709.57806 229.5764l-25.29132 28.661423" fill-rule="evenodd"/><path stroke="#000000" stroke-width="2.0" stroke-linejoin="round" stroke-linecap="butt" d="m709.57806 229.5764l-17.351501 19.66365" fill-rule="evenodd"/><path fill="#000000" stroke="#000000" stroke-width="2.0" stroke-linecap="butt" d="m689.7496 247.05432l-3.5283203 8.99118l8.482239 -4.6197205z" fill-rule="evenodd"/><path fill="#000000" fill-opacity="0.0" d="m738.9759 229.5764l20.913391 28.913376" fill-rule="evenodd"/><path stroke="#000000" stroke-width="2.0" stroke-linejoin="round" stroke-linecap="butt" d="m738.9759 229.5764l13.880554 19.190277" fill-rule="evenodd"/><path fill="#000000" stroke="#000000" stroke-width="2.0" stroke-linecap="butt" d="m750.17975 250.70273l7.9959717 5.41803l-2.6426392 -9.290146z" fill-rule="evenodd"/><path fill="#000000" fill-opacity="0.0" d="m759.9045 287.9028l-9.291382 26.330719" fill-rule="evenodd"/><path stroke="#000000" stroke-width="2.0" stroke-linejoin="round" stroke-linecap="butt" d="m759.9044 287.9028l-5.298218 15.014587" fill-rule="evenodd"/><path fill="#000000" stroke="#000000" stroke-width="2.0" stroke-linecap="butt" d="m751.491 301.8181l0.09503174 9.658203l6.135376 -7.4596863z" fill-rule="evenodd"/><path fill="#000000" fill-opacity="0.0" d="m789.3023 287.9028l9.291321 26.330719" fill-rule="evenodd"/><path stroke="#000000" stroke-width="2.0" stroke-linejoin="round" stroke-linecap="butt" d="m789.3023 287.9028l5.298279 15.014587" fill-rule="evenodd"/><path fill="#000000" stroke="#000000" stroke-width="2.0" stroke-linecap="butt" d="m791.48535 304.01663l6.135376 7.4596863l0.09503174 -9.658203z" fill-rule="evenodd"/><path fill="#000000" fill-opacity="0.0" d="m724.277 161.52316l0 32.566925" fill-rule="evenodd"/><path stroke="#000000" stroke-width="2.0" stroke-linejoin="round" stroke-linecap="butt" d="m724.277 161.52316l0 20.56691" fill-rule="evenodd"/><path fill="#000000" stroke="#000000" stroke-width="2.0" stroke-linecap="butt" d="m720.9735 182.09007l3.3034668 9.076202l3.3034668 -9.076202z" fill-rule="evenodd"/><path fill="#000000" fill-opacity="0.0" d="m744.85535 314.2392l11.496094 0l0 11.181122l-11.496094 0z" fill-rule="evenodd"/><path fill="#000000" fill-opacity="0.0" d="m792.85535 314.2392l11.496094 0l0 11.181122l-11.496094 0z" fill-rule="evenodd"/><path fill="#000000" fill-opacity="0.0" d="m678.52893 258.2392l11.496094 0l0 11.181122l-11.496094 0z" fill-rule="evenodd"/><path fill="#000000" fill-opacity="0.0" d="m610.92267 192.01581l66.70862 0l0 42.015747l-66.70862 0z" fill-rule="evenodd"/><path fill="#000000" d="m633.91406 215.96744q0 -3.390625 1.5 -5.1875q1.5 -1.796875 4.328125 -1.796875q1.5 0 2.59375 0.5q1.109375 0.484375 1.828125 1.40625q0.71875 0.90625 1.0625 2.203125q0.359375 1.296875 0.359375 2.875q0 3.375 -1.515625 5.171875q-1.5 1.796875 -4.328125 1.796875q-1.484375 0 -2.59375 -0.484375q-1.109375 -0.5 -1.828125 -1.40625q-0.71875 -0.921875 -1.0625 -2.21875q-0.34375 -1.296875 -0.34375 -2.859375zm2.203125 0q0 1.0 0.203125 1.9375q0.203125 0.9375 0.625 1.625q0.421875 0.6875 1.109375 1.125q0.703125 0.421875 1.6875 0.421875q3.625 0.03125 3.625 -5.109375q0 -1.046875 -0.203125 -1.96875q-0.1875 -0.9375 -0.625 -1.625q-0.421875 -0.703125 -1.125 -1.109375q-0.6875 -0.421875 -1.671875 -0.421875q-3.625 -0.03125 -3.625 5.125zm19.115845 -4.625q-0.796875 -0.265625 -1.515625 -0.265625q-1.15625 0 -1.828125 0.625q-0.65625 0.625 -0.8125 1.59375l0 9.328125l-2.140625 0l0 -13.328125l1.5 0l0.390625 1.625l0.109375 0q0.515625 -0.90625 1.21875 -1.390625q0.703125 -0.5 1.796875 -0.5q0.78125 0 1.734375 0.265625l-0.453125 2.046875z" fill-rule="nonzero"/></g></svg>