<svg version="1.1" viewBox="0.0 0.0 896.8713910761155 230.24146981627297" fill="none" stroke="none" stroke-linecap="square" stroke-miterlimit="10" xmlns:xlink="http://www.w3.org/1999/xlink" xmlns="http://www.w3.org/2000/svg"><clipPath id="p.0"><path d="m0 0l896.8714 0l0 230.24147l-896.8714 0l0 -230.24147z" clip-rule="nonzero"/></clipPath><g clip-path="url(#p.0)"><path fill="#000000" fill-opacity="0.0" d="m0 0l896.8714 0l0 230.24147l-896.8714 0z" fill-rule="evenodd"/><path fill="#000000" fill-opacity="0.0" d="m94.94751 24.934383c0 -11.0283 8.940201 -19.968504 19.968498 -19.968504c5.2959824 0 10.375046 2.1038184 14.119865 5.8486395c3.7448273 3.7448206 5.848648 8.823888 5.848648 14.119864c0 11.028301 -8.940208 19.968502 -19.968513 19.968502c-11.028297 0 -19.968498 -8.940201 -19.968498 -19.968502z" fill-rule="evenodd"/><path stroke="#000000" stroke-width="2.0" stroke-linejoin="round" stroke-linecap="butt" d="m94.94751 24.934383c0 -11.0283 8.940201 -19.968504 19.968498 -19.968504c5.2959824 0 10.375046 2.1038184 14.119865 5.8486395c3.7448273 3.7448206 5.848648 8.823888 5.848648 14.119864c0 11.028301 -8.940208 19.968502 -19.968513 19.968502c-11.028297 0 -19.968498 -8.940201 -19.968498 -19.968502z" fill-rule="evenodd"/><path fill="#000000" d="m116.976555 18.021257q-1.25 0 -2.28125 0.46875q-1.015625 0.46875 -1.734375 1.359375q-0.71875 0.890625 -1.109375 2.171875q-0.390625 1.28125 -0.390625 2.890625q0 1.640625 0.34375 2.9375q0.34375 1.28125 1.03125 2.15625q0.6875 0.875 1.71875 1.34375q1.03125 0.453125 2.421875 0.453125q1.046875 0 1.984375 -0.203125q0.9375 -0.21875 1.84375 -0.484375l0 1.9062519q-0.453125 0.171875 -0.921875 0.3125q-0.453125 0.125 -0.953125 0.203125q-0.484375 0.09375 -1.0625 0.125q-0.5625 0.046875 -1.25 0.046875q-1.921875 0 -3.328125 -0.625q-1.40625 -0.640625 -2.328125 -1.7968769q-0.921875 -1.171875 -1.375 -2.796875q-0.4375 -1.625 -0.4375 -3.609375q0 -1.9375 0.5 -3.546875q0.515625 -1.625 1.5 -2.78125q1.0 -1.171875 2.453125 -1.8125q1.46875 -0.640625 3.375 -0.640625q1.265625 0 2.40625 0.265625q1.15625 0.25 2.078125 0.734375l-0.90625 1.828125q-0.75 -0.375 -1.625 -0.640625q-0.859375 -0.265625 -1.953125 -0.265625z" fill-rule="nonzero"/><path fill="#000000" fill-opacity="0.0" d="m38.947506 80.93438c0 -11.028297 8.940205 -19.968502 19.968506 -19.968502c5.2959785 0 10.375042 2.1038208 14.119862 5.8486443c3.7448196 3.7448196 5.8486404 8.823883 5.8486404 14.119858c0 11.028305 -8.940201 19.968506 -19.968502 19.968506c-11.028301 0 -19.968506 -8.940201 -19.968506 -19.968506z" fill-rule="evenodd"/><path stroke="#000000" stroke-width="2.0" stroke-linejoin="round" stroke-linecap="butt" d="m38.947506 80.93438c0 -11.028297 8.940205 -19.968502 19.968506 -19.968502c5.2959785 0 10.375042 2.1038208 14.119862 5.8486443c3.7448196 3.7448196 5.8486404 8.823883 5.8486404 14.119858c0 11.028305 -8.940201 19.968506 -19.968502 19.968506c-11.028301 0 -19.968506 -8.940201 -19.968506 -19.968506z" fill-rule="evenodd"/><path fill="#000000" d="m53.79101 72.333755l4.6875 0q1.5 0 2.640625 0.234375q1.140625 0.234375 1.90625 0.75q0.765625 0.5 1.1562462 1.328125q0.390625 0.828125 0.390625 2.03125q0 0.71875 -0.234375 1.359375q-0.234375 0.625 -0.6718712 1.109375q-0.421875 0.484375 -1.0625 0.8125q-0.640625 0.3125 -1.453125 0.421875l0 0.109375q0.8125 0.140625 1.515625 0.40625q0.71875 0.265625 1.234375 0.734375q0.5312462 0.453125 0.8281212 1.15625q0.3125 0.703125 0.3125 1.71875q0 1.171875 -0.375 2.09375q-0.375 0.921875 -1.1093712 1.5625q-0.71875 0.625 -1.75 0.96875q-1.03125 0.34375 -2.328125 0.34375l-5.6875 0l0 -17.140625zm2.1875 7.265625l2.859375 0q0.984375 0 1.640625 -0.171875q0.671875 -0.171875 1.078125 -0.515625q0.421875 -0.34375 0.59375 -0.859375q0.1875 -0.53125 0.1875 -1.21875q0 -1.40625 -0.90625 -2.015625q-0.890625 -0.609375 -2.84375 -0.609375l-2.609375 0l0 5.390625zm0 1.828125l0 6.1875l3.109375 0q1.03125 0 1.734375 -0.234375q0.703125 -0.234375 1.125 -0.65625q0.421875 -0.421875 0.609375 -1.0q0.1875 -0.59375 0.1875 -1.3125q0 -0.65625 -0.1875 -1.203125q-0.1875 -0.5625 -0.640625 -0.953125q-0.4375 -0.390625 -1.171875 -0.609375q-0.71875 -0.21875 -1.796875 -0.21875l-2.96875 0z" fill-rule="nonzero"/><path fill="#000000" fill-opacity="0.0" d="m86.94751 192.93439c0 -11.028305 8.940201 -19.968506 19.968498 -19.968506c5.2959824 0 10.375046 2.1038208 14.119865 5.848633c3.7448196 3.7448273 5.8486404 8.823898 5.8486404 14.119873c0 11.02829 -8.940201 19.968506 -19.968506 19.968506c-11.028297 0 -19.968498 -8.940216 -19.968498 -19.968506z" fill-rule="evenodd"/><path stroke="#000000" stroke-width="2.0" stroke-linejoin="round" stroke-linecap="butt" d="m86.94751 192.93439c0 -11.028305 8.940201 -19.968506 19.968498 -19.968506c5.2959824 0 10.375046 2.1038208 14.119865 5.848633c3.7448196 3.7448273 5.8486404 8.823898 5.8486404 14.119873c0 11.02829 -8.940201 19.968506 -19.968506 19.968506c-11.028297 0 -19.968498 -8.940216 -19.968498 -19.968506z" fill-rule="evenodd"/><path fill="#000000" d="m113.66015 192.74q0 2.171875 -0.5625 3.8125q-0.5625 1.625 -1.625 2.71875q-1.0625 1.09375 -2.625 1.65625q-1.546875 0.546875 -3.515625 0.546875l-4.296875 0l0 -17.140625l4.78125 0q1.78125 0 3.234375 0.546875q1.453125 0.53125 2.46875 1.59375q1.03125 1.0625 1.578125 2.640625q0.5625 1.5625 0.5625 3.625zm-2.3125 0.078125q0 -1.71875 -0.390625 -2.96875q-0.375 -1.25 -1.125 -2.046875q-0.734375 -0.8125 -1.8125 -1.203125q-1.078125 -0.390625 -2.4375 -0.390625l-2.359375 0l0 13.390625l1.890625 0q3.09375 0 4.65625 -1.703125q1.578125 -1.71875 1.578125 -5.078125z" fill-rule="nonzero"/><path fill="#000000" fill-opacity="0.0" d="m150.94751 80.93438c0 -11.028297 8.940201 -19.968502 19.968506 -19.968502c5.2959747 0 10.375046 2.1038208 14.119858 5.8486443c3.7448273 3.7448196 5.848648 8.823883 5.848648 14.119858c0 11.028305 -8.940216 19.968506 -19.968506 19.968506c-11.028305 0 -19.968506 -8.940201 -19.968506 -19.968506z" fill-rule="evenodd"/><path stroke="#000000" stroke-width="2.0" stroke-linejoin="round" stroke-linecap="butt" d="m150.94751 80.93438c0 -11.028297 8.940201 -19.968502 19.968506 -19.968502c5.2959747 0 10.375046 2.1038208 14.119858 5.8486443c3.7448273 3.7448196 5.848648 8.823883 5.848648 14.119858c0 11.028305 -8.940216 19.968506 -19.968506 19.968506c-11.028305 0 -19.968506 -8.940201 -19.968506 -19.968506z" fill-rule="evenodd"/><path fill="#000000" d="m169.53711 89.47438l-2.1875 0l0 -17.140625l8.90625 0l0 1.921875l-6.71875 0l0 6.046875l6.265625 0l0 1.921875l-6.265625 0l0 7.25z" fill-rule="nonzero"/><path fill="#000000" fill-opacity="0.0" d="m118.94751 136.93439c0 -11.028305 8.940201 -19.968506 19.968506 -19.968506c5.2959747 0 10.375046 2.1038132 14.119858 5.8486404c3.7448273 3.7448196 5.848648 8.823891 5.848648 14.119865c0 11.02829 -8.940216 19.968506 -19.968506 19.968506c-11.028305 0 -19.968506 -8.940216 -19.968506 -19.968506z" fill-rule="evenodd"/><path stroke="#000000" stroke-width="2.0" stroke-linejoin="round" stroke-linecap="butt" d="m118.94751 136.93439c0 -11.028305 8.940201 -19.968506 19.968506 -19.968506c5.2959747 0 10.375046 2.1038132 14.119858 5.8486404c3.7448273 3.7448196 5.848648 8.823891 5.848648 14.119865c0 11.02829 -8.940216 19.968506 -19.968506 19.968506c-11.028305 0 -19.968506 -8.940216 -19.968506 -19.968506z" fill-rule="evenodd"/><path fill="#000000" d="m143.8164 145.47438l-8.90625 0l0 -17.140625l8.90625 0l0 1.921875l-6.71875 0l0 5.296875l6.265625 0l0 1.90625l-6.265625 0l0 6.09375l6.71875 0l0 1.921875z" fill-rule="nonzero"/><path fill="#000000" fill-opacity="0.0" d="m182.94751 136.93439c0 -11.028305 8.940201 -19.968506 19.968506 -19.968506c5.2959747 0 10.375046 2.1038132 14.119858 5.8486404c3.7448273 3.7448196 5.848648 8.823891 5.848648 14.119865c0 11.02829 -8.940216 19.968506 -19.968506 19.968506c-11.028305 0 -19.968506 -8.940216 -19.968506 -19.968506z" fill-rule="evenodd"/><path stroke="#000000" stroke-width="2.0" stroke-linejoin="round" stroke-linecap="butt" d="m182.94751 136.93439c0 -11.028305 8.940201 -19.968506 19.968506 -19.968506c5.2959747 0 10.375046 2.1038132 14.119858 5.8486404c3.7448273 3.7448196 5.848648 8.823891 5.848648 14.119865c0 11.02829 -8.940216 19.968506 -19.968506 19.968506c-11.028305 0 -19.968506 -8.940216 -19.968506 -19.968506z" fill-rule="evenodd"/><path fill="#000000" d="m203.8086 136.4275l5.671875 0l0 8.40625q-0.65625 0.203125 -1.3125 0.375q-0.65625 0.15625 -1.34375 0.265625q-0.6875 0.125 -1.453125 0.171875q-0.765625 0.0625 -1.640625 0.0625q-1.84375 0 -3.265625 -0.609375q-1.40625 -0.625 -2.390625 -1.765625q-0.96875 -1.140625 -1.46875 -2.765625q-0.5 -1.640625 -0.5 -3.6875q0 -2.015625 0.546875 -3.640625q0.5625 -1.625 1.625 -2.765625q1.078125 -1.15625 2.640625 -1.765625q1.5625 -0.609375 3.5625 -0.609375q1.296875 0 2.484375 0.265625q1.203125 0.25 2.234375 0.734375l-0.84375 1.90625q-0.421875 -0.203125 -0.90625 -0.375q-0.484375 -0.1875 -1.0 -0.3125q-0.515625 -0.140625 -1.0625 -0.21875q-0.546875 -0.078125 -1.078125 -0.078125q-1.4375 0 -2.546875 0.46875q-1.09375 0.46875 -1.84375 1.359375q-0.734375 0.890625 -1.125 2.171875q-0.375 1.28125 -0.375 2.890625q0 1.515625 0.3125 2.78125q0.328125 1.265625 1.03125 2.1875q0.703125 0.90625 1.8125 1.421875q1.109375 0.5 2.6875 0.5q0.515625 0 0.9375 -0.03125q0.4375 -0.03125 0.796875 -0.078125q0.359375 -0.046875 0.671875 -0.109375q0.328125 -0.0625 0.640625 -0.125l0 -5.109375l-3.5 0l0 -1.921875z" fill-rule="nonzero"/><path fill="#000000" fill-opacity="0.0" d="m6.9475064 136.93439c0 -11.028305 8.940205 -19.968506 19.968504 -19.968506c5.2959766 0 10.375044 2.1038132 14.1198635 5.8486404c3.7448235 3.7448196 5.8486404 8.823891 5.8486404 14.119865c0 11.02829 -8.940205 19.968506 -19.968504 19.968506c-11.028299 0 -19.968504 -8.940216 -19.968504 -19.968506z" fill-rule="evenodd"/><path stroke="#000000" stroke-width="2.0" stroke-linejoin="round" stroke-linecap="butt" d="m6.9475064 136.93439c0 -11.028305 8.940205 -19.968506 19.968504 -19.968506c5.2959766 0 10.375044 2.1038132 14.1198635 5.8486404c3.7448235 3.7448196 5.8486404 8.823891 5.8486404 14.119865c0 11.02829 -8.940205 19.968506 -19.968504 19.968506c-11.028299 0 -19.968504 -8.940216 -19.968504 -19.968506z" fill-rule="evenodd"/><path fill="#000000" d="m31.980465 145.47438l-1.875 -5.3125l-6.375002 0l-1.90625 5.3125l-2.203125 0l6.296875 -17.203125l1.984375 0l6.312502 17.203125l-2.234375 0zm-2.5625 -7.25l-1.7343769 -4.96875q-0.0625 -0.203125 -0.171875 -0.5q-0.09375 -0.3125 -0.203125 -0.65625q-0.109375 -0.359375 -0.21875 -0.734375q-0.09375 -0.390625 -0.1875 -0.75q-0.078125 0.359375 -0.1875 0.75q-0.109375 0.390625 -0.21875 0.75q-0.09375 0.34375 -0.203125 0.65625q-0.09375 0.296875 -0.171875 0.484375l-1.6875 4.96875l4.984377 0z" fill-rule="nonzero"/><path fill="#000000" fill-opacity="0.0" d="m100.79614 39.05425l-27.748032 27.748028" fill-rule="evenodd"/><path stroke="#000000" stroke-width="2.0" stroke-linejoin="round" stroke-linecap="butt" d="m100.79615 39.054245l-19.262749 19.262753" fill-rule="evenodd"/><path fill="#000000" stroke="#000000" stroke-width="2.0" stroke-linecap="butt" d="m79.197495 55.981094l-4.0819397 8.753738l8.753746 -4.081932z" fill-rule="evenodd"/><path fill="#000000" fill-opacity="0.0" d="m124.79614 151.05424l-17.889763 21.921265" fill-rule="evenodd"/><path stroke="#000000" stroke-width="2.0" stroke-linejoin="round" stroke-linecap="butt" d="m124.79615 151.05424l-10.302559 12.624268" fill-rule="evenodd"/><path fill="#000000" stroke="#000000" stroke-width="2.0" stroke-linecap="butt" d="m111.93423 161.58984l-3.1792145 9.120453l8.2979355 -4.943115z" fill-rule="evenodd"/><path fill="#000000" fill-opacity="0.0" d="m129.03587 39.05425l27.748032 27.748028" fill-rule="evenodd"/><path stroke="#000000" stroke-width="2.0" stroke-linejoin="round" stroke-linecap="butt" d="m129.03587 39.054245l19.262756 19.262753" fill-rule="evenodd"/><path fill="#000000" stroke="#000000" stroke-width="2.0" stroke-linecap="butt" d="m145.96272 60.6529l8.753738 4.081932l-4.0819397 -8.753738z" fill-rule="evenodd"/><path fill="#000000" fill-opacity="0.0" d="m156.79614 95.054245l-17.889755 21.921265" fill-rule="evenodd"/><path stroke="#000000" stroke-width="2.0" stroke-linejoin="round" stroke-linecap="butt" d="m156.79614 95.054245l-10.302551 12.62426" fill-rule="evenodd"/><path fill="#000000" stroke="#000000" stroke-width="2.0" stroke-linecap="butt" d="m143.93423 105.58983l-3.1792297 9.1204605l8.297943 -4.943115z" fill-rule="evenodd"/><path fill="#000000" fill-opacity="0.0" d="m185.03587 95.054245l17.88977 21.921265" fill-rule="evenodd"/><path stroke="#000000" stroke-width="2.0" stroke-linejoin="round" stroke-linecap="butt" d="m185.03589 95.054245l10.302551 12.62426" fill-rule="evenodd"/><path fill="#000000" stroke="#000000" stroke-width="2.0" stroke-linecap="butt" d="m192.77908 109.76717l8.297943 4.943115l-3.1792297 -9.1204605z" fill-rule="evenodd"/><path fill="#000000" fill-opacity="0.0" d="m44.796146 95.054245l-17.889765 21.921265" fill-rule="evenodd"/><path stroke="#000000" stroke-width="2.0" stroke-linejoin="round" stroke-linecap="butt" d="m44.796146 95.054245l-10.302555 12.62426" fill-rule="evenodd"/><path fill="#000000" stroke="#000000" stroke-width="2.0" stroke-linecap="butt" d="m31.934233 105.58983l-3.179222 9.1204605l8.297941 -4.943115z" fill-rule="evenodd"/><path fill="#000000" fill-opacity="0.0" d="m477.85565 32.87139c0 -11.028301 8.940186 -19.968504 19.968506 -19.968504c5.2959595 0 10.3750305 2.103818 14.119843 5.8486385c3.7448425 3.7448215 5.8486633 8.823889 5.8486633 14.119865c0 11.028301 -8.940216 19.968502 -19.968506 19.968502c-11.02832 0 -19.968506 -8.940201 -19.968506 -19.968502z" fill-rule="evenodd"/><path stroke="#000000" stroke-width="2.0" stroke-linejoin="round" stroke-linecap="butt" d="m477.85565 32.87139c0 -11.028301 8.940186 -19.968504 19.968506 -19.968504c5.2959595 0 10.3750305 2.103818 14.119843 5.8486385c3.7448425 3.7448215 5.8486633 8.823889 5.8486633 14.119865c0 11.028301 -8.940216 19.968502 -19.968506 19.968502c-11.02832 0 -19.968506 -8.940201 -19.968506 -19.968502z" fill-rule="evenodd"/><path fill="#000000" d="m492.69916 24.270765l4.6875 0q1.5 0 2.640625 0.234375q1.140625 0.234375 1.90625 0.75q0.765625 0.5 1.15625 1.328125q0.390625 0.828125 0.390625 2.03125q0 0.71875 -0.234375 1.359375q-0.234375 0.625 -0.671875 1.109375q-0.421875 0.484375 -1.0625 0.8125q-0.640625 0.3125019 -1.453125 0.4218769l0 0.109375q0.8125 0.140625 1.515625 0.40625q0.71875 0.265625 1.234375 0.734375q0.53125 0.453125 0.828125 1.15625q0.3125 0.703125 0.3125 1.71875q0 1.171875 -0.375 2.09375q-0.375 0.921875 -1.109375 1.5625q-0.71875 0.625 -1.75 0.96875q-1.03125 0.34375 -2.328125 0.34375l-5.6875 0l0 -17.140627zm2.1875 7.265625l2.859375 0q0.984375 0 1.640625 -0.171875q0.671875 -0.171875 1.078125 -0.515625q0.421875 -0.34375 0.59375 -0.859375q0.1875 -0.53125 0.1875 -1.21875q0 -1.40625 -0.90625 -2.015625q-0.890625 -0.609375 -2.84375 -0.609375l-2.609375 0l0 5.390625zm0 1.8281269l0 6.1875l3.109375 0q1.03125 0 1.734375 -0.234375q0.703125 -0.234375 1.125 -0.65625q0.421875 -0.421875 0.609375 -1.0q0.1875 -0.59375 0.1875 -1.3125q0 -0.65625 -0.1875 -1.203125q-0.1875 -0.5625 -0.640625 -0.953125q-0.4375 -0.390625 -1.171875 -0.609375q-0.71875 -0.21875 -1.796875 -0.21875l-2.96875 0z" fill-rule="nonzero"/><path fill="#000000" fill-opacity="0.0" d="m421.85565 88.87139c0 -11.028297 8.940186 -19.968506 19.968506 -19.968506c5.2959595 0 10.3750305 2.1038208 14.119843 5.8486404c3.7448425 3.7448196 5.8486633 8.823891 5.8486633 14.119865c0 11.028297 -8.940216 19.968506 -19.968506 19.968506c-11.02832 0 -19.968506 -8.940208 -19.968506 -19.968506z" fill-rule="evenodd"/><path stroke="#000000" stroke-width="2.0" stroke-linejoin="round" stroke-linecap="butt" d="m421.85565 88.87139c0 -11.028297 8.940186 -19.968506 19.968506 -19.968506c5.2959595 0 10.3750305 2.1038208 14.119843 5.8486404c3.7448425 3.7448196 5.8486633 8.823891 5.8486633 14.119865c0 11.028297 -8.940216 19.968506 -19.968506 19.968506c-11.02832 0 -19.968506 -8.940208 -19.968506 -19.968506z" fill-rule="evenodd"/><path fill="#000000" d="m446.8886 97.41139l-1.875 -5.3125l-6.375 0l-1.90625 5.3125l-2.203125 0l6.296875 -17.203125l1.984375 0l6.3125 17.203125l-2.234375 0zm-2.5625 -7.25l-1.734375 -4.96875q-0.0625 -0.203125 -0.171875 -0.5q-0.09375 -0.3125 -0.203125 -0.65625q-0.109375 -0.359375 -0.21875 -0.734375q-0.09375 -0.390625 -0.1875 -0.75q-0.078125 0.359375 -0.1875 0.75q-0.109375 0.390625 -0.21875 0.75q-0.09375 0.34375 -0.203125 0.65625q-0.09375 0.296875 -0.171875 0.484375l-1.6875 4.96875l4.984375 0z" fill-rule="nonzero"/><path fill="#000000" fill-opacity="0.0" d="m469.85565 200.87138c0 -11.02829 8.940186 -19.96849 19.968506 -19.96849c5.2959595 0 10.3750305 2.1038055 14.119843 5.848633c3.7448425 3.7448273 5.8486633 8.823883 5.8486633 14.119858c0 11.028305 -8.940216 19.968506 -19.968506 19.968506c-11.02832 0 -19.968506 -8.940201 -19.968506 -19.968506z" fill-rule="evenodd"/><path stroke="#000000" stroke-width="2.0" stroke-linejoin="round" stroke-linecap="butt" d="m469.85565 200.87138c0 -11.02829 8.940186 -19.96849 19.968506 -19.96849c5.2959595 0 10.3750305 2.1038055 14.119843 5.848633c3.7448425 3.7448273 5.8486633 8.823883 5.8486633 14.119858c0 11.028305 -8.940216 19.968506 -19.968506 19.968506c-11.02832 0 -19.968506 -8.940201 -19.968506 -19.968506z" fill-rule="evenodd"/><path fill="#000000" d="m496.5683 200.67702q0 2.171875 -0.5625 3.8125q-0.5625 1.625 -1.625 2.71875q-1.0625 1.09375 -2.625 1.65625q-1.546875 0.546875 -3.515625 0.546875l-4.296875 0l0 -17.140625l4.78125 0q1.78125 0 3.234375 0.546875q1.453125 0.53125 2.46875 1.59375q1.03125 1.0625 1.578125 2.640625q0.5625 1.5625 0.5625 3.625zm-2.3125 0.078125q0 -1.71875 -0.390625 -2.96875q-0.375 -1.25 -1.125 -2.046875q-0.734375 -0.8125 -1.8125 -1.203125q-1.078125 -0.390625 -2.4375 -0.390625l-2.359375 0l0 13.390625l1.890625 0q3.09375 0 4.65625 -1.703125q1.578125 -1.71875 1.578125 -5.078125z" fill-rule="nonzero"/><path fill="#000000" fill-opacity="0.0" d="m533.85565 88.87139c0 -11.028297 8.940186 -19.968506 19.968506 -19.968506c5.2959595 0 10.375061 2.1038208 14.119873 5.8486404c3.744812 3.7448196 5.848633 8.823891 5.848633 14.119865c0 11.028297 -8.940247 19.968506 -19.968506 19.968506c-11.02832 0 -19.968506 -8.940208 -19.968506 -19.968506z" fill-rule="evenodd"/><path stroke="#000000" stroke-width="2.0" stroke-linejoin="round" stroke-linecap="butt" d="m533.85565 88.87139c0 -11.028297 8.940186 -19.968506 19.968506 -19.968506c5.2959595 0 10.375061 2.1038208 14.119873 5.8486404c3.744812 3.7448196 5.848633 8.823891 5.848633 14.119865c0 11.028297 -8.940247 19.968506 -19.968506 19.968506c-11.02832 0 -19.968506 -8.940208 -19.968506 -19.968506z" fill-rule="evenodd"/><path fill="#000000" d="m552.44525 97.41139l-2.1875 0l0 -17.140625l8.90625 0l0 1.921875l-6.71875 0l0 6.046875l6.265625 0l0 1.921875l-6.265625 0l0 7.25z" fill-rule="nonzero"/><path fill="#000000" fill-opacity="0.0" d="m501.85565 144.87138c0 -11.02829 8.940186 -19.968498 19.968506 -19.968498c5.2959595 0 10.375061 2.1038208 14.119873 5.8486404c3.744812 3.7448273 5.848633 8.823883 5.848633 14.119858c0 11.028305 -8.940247 19.968506 -19.968506 19.968506c-11.02832 0 -19.968506 -8.940201 -19.968506 -19.968506z" fill-rule="evenodd"/><path stroke="#000000" stroke-width="2.0" stroke-linejoin="round" stroke-linecap="butt" d="m501.85565 144.87138c0 -11.02829 8.940186 -19.968498 19.968506 -19.968498c5.2959595 0 10.375061 2.1038208 14.119873 5.8486404c3.744812 3.7448273 5.848633 8.823883 5.848633 14.119858c0 11.028305 -8.940247 19.968506 -19.968506 19.968506c-11.02832 0 -19.968506 -8.940201 -19.968506 -19.968506z" fill-rule="evenodd"/><path fill="#000000" d="m526.72455 153.41139l-8.90625 0l0 -17.140625l8.90625 0l0 1.921875l-6.71875 0l0 5.296875l6.265625 0l0 1.90625l-6.265625 0l0 6.09375l6.71875 0l0 1.921875z" fill-rule="nonzero"/><path fill="#000000" fill-opacity="0.0" d="m565.85565 144.87138c0 -11.02829 8.940186 -19.968498 19.968506 -19.968498c5.2959595 0 10.375061 2.1038208 14.119873 5.8486404c3.744812 3.7448273 5.848633 8.823883 5.848633 14.119858c0 11.028305 -8.940247 19.968506 -19.968506 19.968506c-11.02832 0 -19.968506 -8.940201 -19.968506 -19.968506z" fill-rule="evenodd"/><path stroke="#000000" stroke-width="2.0" stroke-linejoin="round" stroke-linecap="butt" d="m565.85565 144.87138c0 -11.02829 8.940186 -19.968498 19.968506 -19.968498c5.2959595 0 10.375061 2.1038208 14.119873 5.8486404c3.744812 3.7448273 5.848633 8.823883 5.848633 14.119858c0 11.028305 -8.940247 19.968506 -19.968506 19.968506c-11.02832 0 -19.968506 -8.940201 -19.968506 -19.968506z" fill-rule="evenodd"/><path fill="#000000" d="m586.71674 144.36452l5.671875 0l0 8.40625q-0.65625 0.203125 -1.3125 0.375q-0.65625 0.15625 -1.34375 0.265625q-0.6875 0.125 -1.453125 0.171875q-0.765625 0.0625 -1.640625 0.0625q-1.84375 0 -3.265625 -0.609375q-1.40625 -0.625 -2.390625 -1.765625q-0.96875 -1.140625 -1.46875 -2.765625q-0.5 -1.640625 -0.5 -3.6875q0 -2.015625 0.546875 -3.640625q0.5625 -1.625 1.625 -2.765625q1.078125 -1.15625 2.640625 -1.765625q1.5625 -0.609375 3.5625 -0.609375q1.296875 0 2.484375 0.265625q1.203125 0.25 2.234375 0.734375l-0.84375 1.90625q-0.421875 -0.203125 -0.90625 -0.375q-0.484375 -0.1875 -1.0 -0.3125q-0.515625 -0.140625 -1.0625 -0.21875q-0.546875 -0.078125 -1.078125 -0.078125q-1.4375 0 -2.546875 0.46875q-1.09375 0.46875 -1.84375 1.359375q-0.734375 0.890625 -1.125 2.171875q-0.375 1.28125 -0.375 2.890625q0 1.515625 0.3125 2.78125q0.328125 1.265625 1.03125 2.1875q0.703125 0.90625 1.8125 1.421875q1.109375 0.5 2.6875 0.5q0.515625 0 0.9375 -0.03125q0.4375 -0.03125 0.796875 -0.078125q0.359375 -0.046875 0.671875 -0.109375q0.328125 -0.0625 0.640625 -0.125l0 -5.109375l-3.5 0l0 -1.921875z" fill-rule="nonzero"/><path fill="#000000" fill-opacity="0.0" d="m483.70428 46.991257l-27.748047 27.748032" fill-rule="evenodd"/><path stroke="#000000" stroke-width="2.0" stroke-linejoin="round" stroke-linecap="butt" d="m483.70428 46.991253l-19.262756 19.262753" fill-rule="evenodd"/><path fill="#000000" stroke="#000000" stroke-width="2.0" stroke-linecap="butt" d="m462.10562 63.918102l-4.0819397 8.753742l8.753754 -4.0819397z" fill-rule="evenodd"/><path fill="#000000" fill-opacity="0.0" d="m507.70428 158.99126l-17.88977 21.921265" fill-rule="evenodd"/><path stroke="#000000" stroke-width="2.0" stroke-linejoin="round" stroke-linecap="butt" d="m507.70428 158.99126l-10.302582 12.624252" fill-rule="evenodd"/><path fill="#000000" stroke="#000000" stroke-width="2.0" stroke-linecap="butt" d="m494.84235 169.52686l-3.1791992 9.120453l8.297943 -4.943115z" fill-rule="evenodd"/><path fill="#000000" fill-opacity="0.0" d="m511.944 46.991257l27.748016 27.748032" fill-rule="evenodd"/><path stroke="#000000" stroke-width="2.0" stroke-linejoin="round" stroke-linecap="butt" d="m511.94403 46.991253l19.262756 19.262753" fill-rule="evenodd"/><path fill="#000000" stroke="#000000" stroke-width="2.0" stroke-linecap="butt" d="m528.87085 68.589905l8.753784 4.0819397l-4.08197 -8.753742z" fill-rule="evenodd"/><path fill="#000000" fill-opacity="0.0" d="m539.7043 102.99126l-17.88977 21.921257" fill-rule="evenodd"/><path stroke="#000000" stroke-width="2.0" stroke-linejoin="round" stroke-linecap="butt" d="m539.7043 102.99126l-10.302612 12.62426" fill-rule="evenodd"/><path fill="#000000" stroke="#000000" stroke-width="2.0" stroke-linecap="butt" d="m526.84235 113.52684l-3.1791992 9.120453l8.297913 -4.9431076z" fill-rule="evenodd"/><path fill="#000000" fill-opacity="0.0" d="m567.94403 102.99126l17.88977 21.921257" fill-rule="evenodd"/><path stroke="#000000" stroke-width="2.0" stroke-linejoin="round" stroke-linecap="butt" d="m567.94403 102.99126l10.302551 12.62426" fill-rule="evenodd"/><path fill="#000000" stroke="#000000" stroke-width="2.0" stroke-linecap="butt" d="m575.6872 117.704185l8.297974 4.9431076l-3.1792603 -9.120453z" fill-rule="evenodd"/><path fill="#000000" fill-opacity="0.0" d="m757.85565 32.87139c0 -11.028301 8.940186 -19.968504 19.968506 -19.968504c5.2959595 0 10.375061 2.103818 14.119873 5.8486385c3.744812 3.7448215 5.848633 8.823889 5.848633 14.119865c0 11.028301 -8.940247 19.968502 -19.968506 19.968502c-11.02832 0 -19.968506 -8.940201 -19.968506 -19.968502z" fill-rule="evenodd"/><path stroke="#000000" stroke-width="2.0" stroke-linejoin="round" stroke-linecap="butt" d="m757.85565 32.87139c0 -11.028301 8.940186 -19.968504 19.968506 -19.968504c5.2959595 0 10.375061 2.103818 14.119873 5.8486385c3.744812 3.7448215 5.848633 8.823889 5.848633 14.119865c0 11.028301 -8.940247 19.968502 -19.968506 19.968502c-11.02832 0 -19.968506 -8.940201 -19.968506 -19.968502z" fill-rule="evenodd"/><path fill="#000000" d="m784.5683 32.677017q0 2.171875 -0.5625 3.8125q-0.5625 1.625 -1.625 2.71875q-1.0625 1.09375 -2.625 1.65625q-1.546875 0.546875 -3.515625 0.546875l-4.296875 0l0 -17.140627l4.78125 0q1.78125 0 3.234375 0.546875q1.453125 0.53125 2.46875 1.59375q1.03125 1.0625 1.578125 2.640625q0.5625 1.5625 0.5625 3.625002zm-2.3125 0.078125q0 -1.7187519 -0.390625 -2.968752q-0.375 -1.25 -1.125 -2.046875q-0.734375 -0.8125 -1.8125 -1.203125q-1.078125 -0.390625 -2.4375 -0.390625l-2.359375 0l0 13.390627l1.890625 0q3.09375 0 4.65625 -1.703125q1.578125 -1.71875 1.578125 -5.078125z" fill-rule="nonzero"/><path fill="#000000" fill-opacity="0.0" d="m701.85565 88.87139c0 -11.028297 8.940186 -19.968506 19.968506 -19.968506c5.2959595 0 10.375061 2.1038208 14.119873 5.8486404c3.744812 3.7448196 5.848633 8.823891 5.848633 14.119865c0 11.028297 -8.940247 19.968506 -19.968506 19.968506c-11.02832 0 -19.968506 -8.940208 -19.968506 -19.968506z" fill-rule="evenodd"/><path stroke="#000000" stroke-width="2.0" stroke-linejoin="round" stroke-linecap="butt" d="m701.85565 88.87139c0 -11.028297 8.940186 -19.968506 19.968506 -19.968506c5.2959595 0 10.375061 2.1038208 14.119873 5.8486404c3.744812 3.7448196 5.848633 8.823891 5.848633 14.119865c0 11.028297 -8.940247 19.968506 -19.968506 19.968506c-11.02832 0 -19.968506 -8.940208 -19.968506 -19.968506z" fill-rule="evenodd"/><path fill="#000000" d="m716.69916 80.27077l4.6875 0q1.5 0 2.640625 0.234375q1.140625 0.234375 1.90625 0.75q0.765625 0.5 1.15625 1.328125q0.390625 0.828125 0.390625 2.03125q0 0.71875 -0.234375 1.359375q-0.234375 0.625 -0.671875 1.109375q-0.421875 0.484375 -1.0625 0.8125q-0.640625 0.3125 -1.453125 0.421875l0 0.109375q0.8125 0.140625 1.515625 0.40625q0.71875 0.265625 1.234375 0.734375q0.53125 0.453125 0.828125 1.15625q0.3125 0.703125 0.3125 1.71875q0 1.171875 -0.375 2.09375q-0.375 0.921875 -1.109375 1.5625q-0.71875 0.625 -1.75 0.96875q-1.03125 0.34375 -2.328125 0.34375l-5.6875 0l0 -17.140625zm2.1875 7.265625l2.859375 0q0.984375 0 1.640625 -0.171875q0.671875 -0.171875 1.078125 -0.515625q0.421875 -0.34375 0.59375 -0.859375q0.1875 -0.53125 0.1875 -1.21875q0 -1.40625 -0.90625 -2.015625q-0.890625 -0.609375 -2.84375 -0.609375l-2.609375 0l0 5.390625zm0 1.828125l0 6.1875l3.109375 0q1.03125 0 1.734375 -0.234375q0.703125 -0.234375 1.125 -0.65625q0.421875 -0.421875 0.609375 -1.0q0.1875 -0.59375 0.1875 -1.3125q0 -0.65625 -0.1875 -1.203125q-0.1875 -0.5625 -0.640625 -0.953125q-0.4375 -0.390625 -1.171875 -0.609375q-0.71875 -0.21875 -1.796875 -0.21875l-2.96875 0z" fill-rule="nonzero"/><path fill="#000000" fill-opacity="0.0" d="m813.85565 88.87139c0 -11.028297 8.940186 -19.968506 19.968506 -19.968506c5.2959595 0 10.375061 2.1038208 14.119873 5.8486404c3.744812 3.7448196 5.848633 8.823891 5.848633 14.119865c0 11.028297 -8.940247 19.968506 -19.968506 19.968506c-11.02832 0 -19.968506 -8.940208 -19.968506 -19.968506z" fill-rule="evenodd"/><path stroke="#000000" stroke-width="2.0" stroke-linejoin="round" stroke-linecap="butt" d="m813.85565 88.87139c0 -11.028297 8.940186 -19.968506 19.968506 -19.968506c5.2959595 0 10.375061 2.1038208 14.119873 5.8486404c3.744812 3.7448196 5.848633 8.823891 5.848633 14.119865c0 11.028297 -8.940247 19.968506 -19.968506 19.968506c-11.02832 0 -19.968506 -8.940208 -19.968506 -19.968506z" fill-rule="evenodd"/><path fill="#000000" d="m832.44525 97.41139l-2.1875 0l0 -17.140625l8.90625 0l0 1.921875l-6.71875 0l0 6.046875l6.265625 0l0 1.921875l-6.265625 0l0 7.25z" fill-rule="nonzero"/><path fill="#000000" fill-opacity="0.0" d="m781.85565 144.87138c0 -11.02829 8.940186 -19.968498 19.968506 -19.968498c5.2959595 0 10.375061 2.1038208 14.119873 5.8486404c3.744812 3.7448273 5.848633 8.823883 5.848633 14.119858c0 11.028305 -8.940247 19.968506 -19.968506 19.968506c-11.02832 0 -19.968506 -8.940201 -19.968506 -19.968506z" fill-rule="evenodd"/><path stroke="#000000" stroke-width="2.0" stroke-linejoin="round" stroke-linecap="butt" d="m781.85565 144.87138c0 -11.02829 8.940186 -19.968498 19.968506 -19.968498c5.2959595 0 10.375061 2.1038208 14.119873 5.8486404c3.744812 3.7448273 5.848633 8.823883 5.848633 14.119858c0 11.028305 -8.940247 19.968506 -19.968506 19.968506c-11.02832 0 -19.968506 -8.940201 -19.968506 -19.968506z" fill-rule="evenodd"/><path fill="#000000" d="m806.72455 153.41139l-8.90625 0l0 -17.140625l8.90625 0l0 1.921875l-6.71875 0l0 5.296875l6.265625 0l0 1.90625l-6.265625 0l0 6.09375l6.71875 0l0 1.921875z" fill-rule="nonzero"/><path fill="#000000" fill-opacity="0.0" d="m845.85565 144.87138c0 -11.02829 8.940186 -19.968498 19.968506 -19.968498c5.2959595 0 10.375061 2.1038208 14.119873 5.8486404c3.744812 3.7448273 5.848633 8.823883 5.848633 14.119858c0 11.028305 -8.940247 19.968506 -19.968506 19.968506c-11.02832 0 -19.968506 -8.940201 -19.968506 -19.968506z" fill-rule="evenodd"/><path stroke="#000000" stroke-width="2.0" stroke-linejoin="round" stroke-linecap="butt" d="m845.85565 144.87138c0 -11.02829 8.940186 -19.968498 19.968506 -19.968498c5.2959595 0 10.375061 2.1038208 14.119873 5.8486404c3.744812 3.7448273 5.848633 8.823883 5.848633 14.119858c0 11.028305 -8.940247 19.968506 -19.968506 19.968506c-11.02832 0 -19.968506 -8.940201 -19.968506 -19.968506z" fill-rule="evenodd"/><path fill="#000000" d="m866.71674 144.36452l5.671875 0l0 8.40625q-0.65625 0.203125 -1.3125 0.375q-0.65625 0.15625 -1.34375 0.265625q-0.6875 0.125 -1.453125 0.171875q-0.765625 0.0625 -1.640625 0.0625q-1.84375 0 -3.265625 -0.609375q-1.40625 -0.625 -2.390625 -1.765625q-0.96875 -1.140625 -1.46875 -2.765625q-0.5 -1.640625 -0.5 -3.6875q0 -2.015625 0.546875 -3.640625q0.5625 -1.625 1.625 -2.765625q1.078125 -1.15625 2.640625 -1.765625q1.5625 -0.609375 3.5625 -0.609375q1.296875 0 2.484375 0.265625q1.203125 0.25 2.234375 0.734375l-0.84375 1.90625q-0.421875 -0.203125 -0.90625 -0.375q-0.484375 -0.1875 -1.0 -0.3125q-0.515625 -0.140625 -1.0625 -0.21875q-0.546875 -0.078125 -1.078125 -0.078125q-1.4375 0 -2.546875 0.46875q-1.09375 0.46875 -1.84375 1.359375q-0.734375 0.890625 -1.125 2.171875q-0.375 1.28125 -0.375 2.890625q0 1.515625 0.3125 2.78125q0.328125 1.265625 1.03125 2.1875q0.703125 0.90625 1.8125 1.421875q1.109375 0.5 2.6875 0.5q0.515625 0 0.9375 -0.03125q0.4375 -0.03125 0.796875 -0.078125q0.359375 -0.046875 0.671875 -0.109375q0.328125 -0.0625 0.640625 -0.125l0 -5.109375l-3.5 0l0 -1.921875z" fill-rule="nonzero"/><path fill="#000000" fill-opacity="0.0" d="m669.85565 144.87138c0 -11.02829 8.940186 -19.968498 19.968506 -19.968498c5.2959595 0 10.375061 2.1038208 14.119873 5.8486404c3.744812 3.7448273 5.848633 8.823883 5.848633 14.119858c0 11.028305 -8.940247 19.968506 -19.968506 19.968506c-11.02832 0 -19.968506 -8.940201 -19.968506 -19.968506z" fill-rule="evenodd"/><path stroke="#000000" stroke-width="2.0" stroke-linejoin="round" stroke-linecap="butt" d="m669.85565 144.87138c0 -11.02829 8.940186 -19.968498 19.968506 -19.968498c5.2959595 0 10.375061 2.1038208 14.119873 5.8486404c3.744812 3.7448273 5.848633 8.823883 5.848633 14.119858c0 11.028305 -8.940247 19.968506 -19.968506 19.968506c-11.02832 0 -19.968506 -8.940201 -19.968506 -19.968506z" fill-rule="evenodd"/><path fill="#000000" d="m694.8886 153.41139l-1.875 -5.3125l-6.375 0l-1.90625 5.3125l-2.203125 0l6.296875 -17.203125l1.984375 0l6.3125 17.203125l-2.234375 0zm-2.5625 -7.25l-1.734375 -4.96875q-0.0625 -0.203125 -0.171875 -0.5q-0.09375 -0.3125 -0.203125 -0.65625q-0.109375 -0.359375 -0.21875 -0.734375q-0.09375 -0.390625 -0.1875 -0.75q-0.078125 0.359375 -0.1875 0.75q-0.109375 0.390625 -0.21875 0.75q-0.09375 0.34375 -0.203125 0.65625q-0.09375 0.296875 -0.171875 0.484375l-1.6875 4.96875l4.984375 0z" fill-rule="nonzero"/><path fill="#000000" fill-opacity="0.0" d="m763.7043 46.991257l-27.748047 27.748032" fill-rule="evenodd"/><path stroke="#000000" stroke-width="2.0" stroke-linejoin="round" stroke-linecap="butt" d="m763.7043 46.991253l-19.262695 19.262753" fill-rule="evenodd"/><path fill="#000000" stroke="#000000" stroke-width="2.0" stroke-linecap="butt" d="m742.10565 63.918102l-4.081909 8.753742l8.753723 -4.0819397z" fill-rule="evenodd"/><path fill="#000000" fill-opacity="0.0" d="m791.94403 46.991257l27.747986 27.748032" fill-rule="evenodd"/><path stroke="#000000" stroke-width="2.0" stroke-linejoin="round" stroke-linecap="butt" d="m791.944 46.991253l19.262695 19.262753" fill-rule="evenodd"/><path fill="#000000" stroke="#000000" stroke-width="2.0" stroke-linecap="butt" d="m808.87085 68.589905l8.753723 4.0819397l-4.08197 -8.753742z" fill-rule="evenodd"/><path fill="#000000" fill-opacity="0.0" d="m819.7043 102.99126l-17.88977 21.921257" fill-rule="evenodd"/><path stroke="#000000" stroke-width="2.0" stroke-linejoin="round" stroke-linecap="butt" d="m819.7043 102.99126l-10.302551 12.62426" fill-rule="evenodd"/><path fill="#000000" stroke="#000000" stroke-width="2.0" stroke-linecap="butt" d="m806.8424 113.52684l-3.1792603 9.120453l8.297974 -4.9431076z" fill-rule="evenodd"/><path fill="#000000" fill-opacity="0.0" d="m847.94403 102.99126l17.88977 21.921257" fill-rule="evenodd"/><path stroke="#000000" stroke-width="2.0" stroke-linejoin="round" stroke-linecap="butt" d="m847.944 102.99126l10.302612 12.62426" fill-rule="evenodd"/><path fill="#000000" stroke="#000000" stroke-width="2.0" stroke-linecap="butt" d="m855.6872 117.704185l8.297913 4.9431076l-3.1791992 -9.120453z" fill-rule="evenodd"/><path fill="#000000" fill-opacity="0.0" d="m707.7043 102.99126l-17.88977 21.921257" fill-rule="evenodd"/><path stroke="#000000" stroke-width="2.0" stroke-linejoin="round" stroke-linecap="butt" d="m707.7043 102.99126l-10.302551 12.62426" fill-rule="evenodd"/><path fill="#000000" stroke="#000000" stroke-width="2.0" stroke-linecap="butt" d="m694.8424 113.52684l-3.1792603 9.120453l8.297974 -4.9431076z" fill-rule="evenodd"/><path fill="#000000" fill-opacity="0.0" d="m322.3701 12.769506l0 199.52756" fill-rule="evenodd"/><path stroke="#000000" stroke-width="1.0" stroke-linejoin="round" stroke-linecap="butt" d="m322.3701 12.769506l0 199.52756" fill-rule="evenodd"/></g></svg>