<svg version="1.1" viewBox="0.0 0.0 894.1548556430446 213.63517060367454" fill="none" stroke="none" stroke-linecap="square" stroke-miterlimit="10" xmlns:xlink="http://www.w3.org/1999/xlink" xmlns="http://www.w3.org/2000/svg"><clipPath id="p.0"><path d="m0 0l894.15485 0l0 213.63518l-894.15485 0l0 -213.63518z" clip-rule="nonzero"/></clipPath><g clip-path="url(#p.0)"><path fill="#000000" fill-opacity="0.0" d="m0 0l894.15485 0l0 213.63518l-894.15485 0z" fill-rule="evenodd"/><path fill="#000000" fill-opacity="0.0" d="m110.71285 26.612606c0 -11.028301 8.940208 -19.968506 19.968498 -19.968506c5.29599 0 10.375046 2.103819 14.119873 5.8486395c3.7448273 3.7448215 5.848633 8.823889 5.848633 14.119865c0 11.028301 -8.940201 19.968502 -19.968506 19.968502c-11.02829 0 -19.968498 -8.940201 -19.968498 -19.968502z" fill-rule="evenodd"/><path stroke="#000000" stroke-width="2.0" stroke-linejoin="round" stroke-linecap="butt" d="m110.71285 26.612606c0 -11.028301 8.940208 -19.968506 19.968498 -19.968506c5.29599 0 10.375046 2.103819 14.119873 5.8486395c3.7448273 3.7448215 5.848633 8.823889 5.848633 14.119865c0 11.028301 -8.940201 19.968502 -19.968506 19.968502c-11.02829 0 -19.968498 -8.940201 -19.968498 -19.968502z" fill-rule="evenodd"/><path fill="#000000" d="m135.58176 35.152607l-8.906258 0l0 -17.140627l8.906258 0l0 1.921875l-6.7187653 0l0 5.296875l6.2656403 0l0 1.90625l-6.2656403 0l0 6.093752l6.7187653 0l0 1.921875z" fill-rule="nonzero"/><path fill="#000000" fill-opacity="0.0" d="m46.712852 82.6126c0 -11.028297 8.940205 -19.968502 19.968506 -19.968502c5.2959747 0 10.375046 2.103817 14.119865 5.8486443c3.7448196 3.7448196 5.8486404 8.823883 5.8486404 14.119858c0 11.028305 -8.940208 19.968506 -19.968506 19.968506c-11.028301 0 -19.968506 -8.940201 -19.968506 -19.968506z" fill-rule="evenodd"/><path stroke="#000000" stroke-width="2.0" stroke-linejoin="round" stroke-linecap="butt" d="m46.712852 82.6126c0 -11.028297 8.940205 -19.968502 19.968506 -19.968502c5.2959747 0 10.375046 2.103817 14.119865 5.8486443c3.7448196 3.7448196 5.8486404 8.823883 5.8486404 14.119858c0 11.028305 -8.940208 19.968506 -19.968506 19.968506c-11.028301 0 -19.968506 -8.940201 -19.968506 -19.968506z" fill-rule="evenodd"/><path fill="#000000" d="m68.741905 75.69948q-1.25 0 -2.28125 0.46875q-1.015625 0.46875 -1.734375 1.359375q-0.71875 0.890625 -1.109375 2.171875q-0.390625 1.28125 -0.390625 2.890625q0 1.640625 0.34375 2.9375q0.34375 1.28125 1.03125 2.15625q0.6875 0.875 1.71875 1.34375q1.03125 0.453125 2.421875 0.453125q1.046875 0 1.984375 -0.203125q0.9375 -0.21875 1.84375 -0.484375l0 1.90625q-0.453125 0.171875 -0.921875 0.3125q-0.453125 0.125 -0.953125 0.203125q-0.484375 0.09375 -1.0625 0.125q-0.5625 0.046875 -1.25 0.046875q-1.921875 0 -3.328125 -0.625q-1.40625 -0.640625 -2.328125 -1.796875q-0.921875 -1.171875 -1.375 -2.796875q-0.4375 -1.625 -0.4375 -3.609375q0 -1.9375 0.5 -3.546875q0.515625 -1.625 1.5 -2.78125q1.0 -1.171875 2.453125 -1.8125q1.46875 -0.640625 3.375 -0.640625q1.265625 0 2.40625 0.265625q1.15625 0.25 2.078125 0.734375l-0.90625 1.828125q-0.75 -0.375 -1.625 -0.640625q-0.859375 -0.265625 -1.953125 -0.265625z" fill-rule="nonzero"/><path fill="#000000" fill-opacity="0.0" d="m174.71286 82.6126c0 -11.028297 8.940201 -19.968502 19.96849 -19.968502c5.29599 0 10.375046 2.103817 14.119873 5.8486443c3.7448273 3.7448196 5.848633 8.823883 5.848633 14.119858c0 11.028305 -8.940201 19.968506 -19.968506 19.968506c-11.02829 0 -19.96849 -8.940201 -19.96849 -19.968506z" fill-rule="evenodd"/><path stroke="#000000" stroke-width="2.0" stroke-linejoin="round" stroke-linecap="butt" d="m174.71286 82.6126c0 -11.028297 8.940201 -19.968502 19.96849 -19.968502c5.29599 0 10.375046 2.103817 14.119873 5.8486443c3.7448273 3.7448196 5.848633 8.823883 5.848633 14.119858c0 11.028305 -8.940201 19.968506 -19.968506 19.968506c-11.02829 0 -19.96849 -8.940201 -19.96849 -19.968506z" fill-rule="evenodd"/><path fill="#000000" d="m195.57393 82.10573l5.6718903 0l0 8.40625q-0.65625 0.203125 -1.3125 0.375q-0.65625 0.15625 -1.34375 0.265625q-0.6875 0.125 -1.453125 0.171875q-0.76564026 0.0625 -1.6406403 0.0625q-1.84375 0 -3.265625 -0.609375q-1.40625 -0.625 -2.390625 -1.765625q-0.96875 -1.140625 -1.46875 -2.765625q-0.5 -1.640625 -0.5 -3.6875q0 -2.015625 0.546875 -3.640625q0.5625 -1.625 1.625 -2.765625q1.078125 -1.15625 2.640625 -1.765625q1.5625 -0.609375 3.5625 -0.609375q1.2968903 0 2.4843903 0.265625q1.203125 0.25 2.234375 0.734375l-0.84375 1.90625q-0.421875 -0.203125 -0.90625 -0.375q-0.484375 -0.1875 -1.0 -0.3125q-0.515625 -0.140625 -1.0625 -0.21875q-0.546875 -0.078125 -1.0781403 -0.078125q-1.4375 0 -2.546875 0.46875q-1.09375 0.46875 -1.84375 1.359375q-0.734375 0.890625 -1.125 2.171875q-0.375 1.28125 -0.375 2.890625q0 1.515625 0.3125 2.78125q0.328125 1.265625 1.03125 2.1875q0.703125 0.90625 1.8125 1.421875q1.109375 0.5 2.6875 0.5q0.515625 0 0.93751526 -0.03125q0.4375 -0.03125 0.796875 -0.078125q0.359375 -0.046875 0.671875 -0.109375q0.328125 -0.0625 0.640625 -0.125l0 -5.109375l-3.5000153 0l0 -1.921875z" fill-rule="nonzero"/><path fill="#000000" fill-opacity="0.0" d="m142.71286 138.61261c0 -11.028305 8.940201 -19.968506 19.96849 -19.968506c5.29599 0 10.375046 2.1038132 14.119873 5.8486404c3.7448273 3.7448196 5.848633 8.823891 5.848633 14.119865c0 11.02829 -8.940201 19.968506 -19.968506 19.968506c-11.02829 0 -19.96849 -8.940216 -19.96849 -19.968506z" fill-rule="evenodd"/><path stroke="#000000" stroke-width="2.0" stroke-linejoin="round" stroke-linecap="butt" d="m142.71286 138.61261c0 -11.028305 8.940201 -19.968506 19.96849 -19.968506c5.29599 0 10.375046 2.1038132 14.119873 5.8486404c3.7448273 3.7448196 5.848633 8.823891 5.848633 14.119865c0 11.02829 -8.940201 19.968506 -19.968506 19.968506c-11.02829 0 -19.96849 -8.940216 -19.96849 -19.968506z" fill-rule="evenodd"/><path fill="#000000" d="m161.30244 147.1526l-2.1875 0l0 -17.140625l8.906265 0l0 1.921875l-6.7187653 0l0 6.046875l6.2656403 0l0 1.921875l-6.2656403 0l0 7.25z" fill-rule="nonzero"/><path fill="#000000" fill-opacity="0.0" d="m14.712854 138.61261c0 -11.028305 8.940203 -19.968506 19.968504 -19.968506c5.2959747 0 10.375042 2.1038132 14.119865 5.8486404c3.7448196 3.7448196 5.8486366 8.823891 5.8486366 14.119865c0 11.02829 -8.940201 19.968506 -19.968502 19.968506c-11.028301 0 -19.968504 -8.940216 -19.968504 -19.968506z" fill-rule="evenodd"/><path stroke="#000000" stroke-width="2.0" stroke-linejoin="round" stroke-linecap="butt" d="m14.712854 138.61261c0 -11.028305 8.940203 -19.968506 19.968504 -19.968506c5.2959747 0 10.375042 2.1038132 14.119865 5.8486404c3.7448196 3.7448196 5.8486366 8.823891 5.8486366 14.119865c0 11.02829 -8.940201 19.968506 -19.968502 19.968506c-11.028301 0 -19.968504 -8.940216 -19.968504 -19.968506z" fill-rule="evenodd"/><path fill="#000000" d="m29.556358 130.01198l4.6875 0q1.5 0 2.640625 0.234375q1.140625 0.234375 1.90625 0.75q0.765625 0.5 1.15625 1.328125q0.390625 0.828125 0.390625 2.03125q0 0.71875 -0.234375 1.359375q-0.234375 0.625 -0.671875 1.109375q-0.421875 0.484375 -1.0625 0.8125q-0.640625 0.3125 -1.453125 0.421875l0 0.109375q0.8125 0.140625 1.515625 0.40625q0.71875 0.265625 1.234375 0.734375q0.53125 0.453125 0.828125 1.15625q0.3125 0.703125 0.3125 1.71875q0 1.171875 -0.375 2.09375q-0.375 0.921875 -1.109375 1.5625q-0.71875 0.625 -1.75 0.96875q-1.03125 0.34375 -2.328125 0.34375l-5.6875 0l0 -17.140625zm2.1875 7.265625l2.859375 0q0.984375 0 1.640625 -0.171875q0.671875 -0.171875 1.078125 -0.515625q0.421875 -0.34375 0.59375 -0.859375q0.1875 -0.53125 0.1875 -1.21875q0 -1.40625 -0.90625 -2.015625q-0.890625 -0.609375 -2.84375 -0.609375l-2.609375 0l0 5.390625zm0 1.828125l0 6.1875l3.109375 0q1.03125 0 1.734375 -0.234375q0.703125 -0.234375 1.125 -0.65625q0.421875 -0.421875 0.609375 -1.0q0.1875 -0.59375 0.1875 -1.3125q0 -0.65625 -0.1875 -1.203125q-0.1875 -0.5625 -0.640625 -0.953125q-0.4375 -0.390625 -1.171875 -0.609375q-0.71875 -0.21875 -1.796875 -0.21875l-2.96875 0z" fill-rule="nonzero"/><path fill="#000000" fill-opacity="0.0" d="m116.56149 40.73247l-35.74803 27.748028" fill-rule="evenodd"/><path stroke="#000000" stroke-width="2.0" stroke-linejoin="round" stroke-linecap="butt" d="m116.56149 40.73247l-26.268616 20.389996" fill-rule="evenodd"/><path fill="#000000" stroke="#000000" stroke-width="2.0" stroke-linecap="butt" d="m88.267296 58.51289l-5.144165 8.174824l9.195335 -2.9556694z" fill-rule="evenodd"/><path fill="#000000" fill-opacity="0.0" d="m80.80122 96.73247l17.889763 21.921265" fill-rule="evenodd"/><path stroke="#000000" stroke-width="2.0" stroke-linejoin="round" stroke-linecap="butt" d="m80.80122 96.73247l10.302551 12.62426" fill-rule="evenodd"/><path fill="#000000" stroke="#000000" stroke-width="2.0" stroke-linecap="butt" d="m88.54442 111.4454l8.297943 4.943115l-3.179222 -9.1204605z" fill-rule="evenodd"/><path fill="#000000" fill-opacity="0.0" d="m144.80122 40.73247l35.74803 27.748028" fill-rule="evenodd"/><path stroke="#000000" stroke-width="2.0" stroke-linejoin="round" stroke-linecap="butt" d="m144.80122 40.73247l26.268616 20.389996" fill-rule="evenodd"/><path fill="#000000" stroke="#000000" stroke-width="2.0" stroke-linecap="butt" d="m169.04425 63.732044l9.195343 2.9556694l-5.1441803 -8.174824z" fill-rule="evenodd"/><path fill="#000000" fill-opacity="0.0" d="m180.5615 96.73247l-17.88977 21.921265" fill-rule="evenodd"/><path stroke="#000000" stroke-width="2.0" stroke-linejoin="round" stroke-linecap="butt" d="m180.5615 96.73247l-10.302551 12.62426" fill-rule="evenodd"/><path fill="#000000" stroke="#000000" stroke-width="2.0" stroke-linecap="butt" d="m167.69958 107.26805l-3.1792297 9.1204605l8.297943 -4.943115z" fill-rule="evenodd"/><path fill="#000000" fill-opacity="0.0" d="m52.561493 96.73247l-17.889763 21.921265" fill-rule="evenodd"/><path stroke="#000000" stroke-width="2.0" stroke-linejoin="round" stroke-linecap="butt" d="m52.561497 96.73247l-10.302559 12.62426" fill-rule="evenodd"/><path fill="#000000" stroke="#000000" stroke-width="2.0" stroke-linecap="butt" d="m39.699577 107.26805l-3.179222 9.1204605l8.297943 -4.943115z" fill-rule="evenodd"/><path fill="#000000" fill-opacity="0.0" d="m78.71285 138.61261c0 -11.028305 8.940208 -19.968506 19.968506 -19.968506c5.2959747 0 10.375046 2.1038132 14.119865 5.8486404c3.7448196 3.7448196 5.8486404 8.823891 5.8486404 14.119865c0 11.02829 -8.940208 19.968506 -19.968506 19.968506c-11.028297 0 -19.968506 -8.940216 -19.968506 -19.968506z" fill-rule="evenodd"/><path stroke="#000000" stroke-width="2.0" stroke-linejoin="round" stroke-linecap="butt" d="m78.71285 138.61261c0 -11.028305 8.940208 -19.968506 19.968506 -19.968506c5.2959747 0 10.375046 2.1038132 14.119865 5.8486404c3.7448196 3.7448196 5.8486404 8.823891 5.8486404 14.119865c0 11.02829 -8.940208 19.968506 -19.968506 19.968506c-11.028297 0 -19.968506 -8.940216 -19.968506 -19.968506z" fill-rule="evenodd"/><path fill="#000000" d="m105.4255 138.41823q0 2.171875 -0.5625 3.8125q-0.5625 1.625 -1.625 2.71875q-1.0625 1.09375 -2.625 1.65625q-1.546875 0.546875 -3.515625 0.546875l-4.296875 0l0 -17.140625l4.78125 0q1.78125 0 3.234375 0.546875q1.453125 0.53125 2.46875 1.59375q1.03125 1.0625 1.578125 2.640625q0.5625 1.5625 0.5625 3.625zm-2.3125 0.078125q0 -1.71875 -0.390625 -2.96875q-0.375 -1.25 -1.125 -2.046875q-0.734375 -0.8125 -1.8125 -1.203125q-1.078125 -0.390625 -2.4375 -0.390625l-2.359375 0l0 13.390625l1.890625 0q3.09375 0 4.65625 -1.703125q1.578125 -1.71875 1.578125 -5.078125z" fill-rule="nonzero"/><path fill="#000000" fill-opacity="0.0" d="m742.7128 26.612606c0 -11.028301 8.940247 -19.968506 19.968506 -19.968506c5.2960205 0 10.375061 2.103819 14.119873 5.8486395c3.744812 3.7448215 5.848633 8.823889 5.848633 14.119865c0 11.028301 -8.940186 19.968502 -19.968506 19.968502c-11.028259 0 -19.968506 -8.940201 -19.968506 -19.968502z" fill-rule="evenodd"/><path stroke="#000000" stroke-width="2.0" stroke-linejoin="round" stroke-linecap="butt" d="m742.7128 26.612606c0 -11.028301 8.940247 -19.968506 19.968506 -19.968506c5.2960205 0 10.375061 2.103819 14.119873 5.8486395c3.744812 3.7448215 5.848633 8.823889 5.848633 14.119865c0 11.028301 -8.940186 19.968502 -19.968506 19.968502c-11.028259 0 -19.968506 -8.940201 -19.968506 -19.968502z" fill-rule="evenodd"/><path fill="#000000" d="m769.4255 26.41823q0 2.171875 -0.5625 3.8125q-0.5625 1.625 -1.625 2.718752q-1.0625 1.09375 -2.625 1.65625q-1.546875 0.546875 -3.515625 0.546875l-4.296875 0l0 -17.140627l4.78125 0q1.78125 0 3.234375 0.546875q1.453125 0.53125 2.46875 1.59375q1.03125 1.0625 1.578125 2.640625q0.5625 1.5625 0.5625 3.625zm-2.3125 0.078125q0 -1.71875 -0.390625 -2.96875q-0.375 -1.25 -1.125 -2.046875q-0.734375 -0.8125 -1.8125 -1.203125q-1.078125 -0.390625 -2.4375 -0.390625l-2.359375 0l0 13.390627l1.890625 0q3.09375 0 4.65625 -1.7031269q1.578125 -1.71875 1.578125 -5.078125z" fill-rule="nonzero"/><path fill="#000000" fill-opacity="0.0" d="m678.7128 82.6126c0 -11.028297 8.940247 -19.968502 19.968506 -19.968502c5.2960205 0 10.375061 2.103817 14.119873 5.8486443c3.744812 3.7448196 5.848633 8.823883 5.848633 14.119858c0 11.028305 -8.940186 19.968506 -19.968506 19.968506c-11.028259 0 -19.968506 -8.940201 -19.968506 -19.968506z" fill-rule="evenodd"/><path stroke="#000000" stroke-width="2.0" stroke-linejoin="round" stroke-linecap="butt" d="m678.7128 82.6126c0 -11.028297 8.940247 -19.968502 19.968506 -19.968502c5.2960205 0 10.375061 2.103817 14.119873 5.8486443c3.744812 3.7448196 5.848633 8.823883 5.848633 14.119858c0 11.028305 -8.940186 19.968506 -19.968506 19.968506c-11.028259 0 -19.968506 -8.940201 -19.968506 -19.968506z" fill-rule="evenodd"/><path fill="#000000" d="m693.55634 74.01198l4.6875 0q1.5 0 2.640625 0.234375q1.140625 0.234375 1.90625 0.75q0.765625 0.5 1.15625 1.328125q0.390625 0.828125 0.390625 2.03125q0 0.71875 -0.234375 1.359375q-0.234375 0.625 -0.671875 1.109375q-0.421875 0.484375 -1.0625 0.8125q-0.640625 0.3125 -1.453125 0.421875l0 0.109375q0.8125 0.140625 1.515625 0.40625q0.71875 0.265625 1.234375 0.734375q0.53125 0.453125 0.828125 1.15625q0.3125 0.703125 0.3125 1.71875q0 1.171875 -0.375 2.09375q-0.375 0.921875 -1.109375 1.5625q-0.71875 0.625 -1.75 0.96875q-1.03125 0.34375 -2.328125 0.34375l-5.6875 0l0 -17.140625zm2.1875 7.265625l2.859375 0q0.984375 0 1.640625 -0.171875q0.671875 -0.171875 1.078125 -0.515625q0.421875 -0.34375 0.59375 -0.859375q0.1875 -0.53125 0.1875 -1.21875q0 -1.40625 -0.90625 -2.015625q-0.890625 -0.609375 -2.84375 -0.609375l-2.609375 0l0 5.390625zm0 1.828125l0 6.1875l3.109375 0q1.03125 0 1.734375 -0.234375q0.703125 -0.234375 1.125 -0.65625q0.421875 -0.421875 0.609375 -1.0q0.1875 -0.59375 0.1875 -1.3125q0 -0.65625 -0.1875 -1.203125q-0.1875 -0.5625 -0.640625 -0.953125q-0.4375 -0.390625 -1.171875 -0.609375q-0.71875 -0.21875 -1.796875 -0.21875l-2.96875 0z" fill-rule="nonzero"/><path fill="#000000" fill-opacity="0.0" d="m806.7128 82.6126c0 -11.028297 8.940247 -19.968502 19.968506 -19.968502c5.2960205 0 10.375061 2.103817 14.119873 5.8486443c3.744812 3.7448196 5.848633 8.823883 5.848633 14.119858c0 11.028305 -8.940186 19.968506 -19.968506 19.968506c-11.028259 0 -19.968506 -8.940201 -19.968506 -19.968506z" fill-rule="evenodd"/><path stroke="#000000" stroke-width="2.0" stroke-linejoin="round" stroke-linecap="butt" d="m806.7128 82.6126c0 -11.028297 8.940247 -19.968502 19.968506 -19.968502c5.2960205 0 10.375061 2.103817 14.119873 5.8486443c3.744812 3.7448196 5.848633 8.823883 5.848633 14.119858c0 11.028305 -8.940186 19.968506 -19.968506 19.968506c-11.028259 0 -19.968506 -8.940201 -19.968506 -19.968506z" fill-rule="evenodd"/><path fill="#000000" d="m825.3024 91.1526l-2.1875 0l0 -17.140625l8.90625 0l0 1.921875l-6.71875 0l0 6.046875l6.265625 0l0 1.921875l-6.265625 0l0 7.25z" fill-rule="nonzero"/><path fill="#000000" fill-opacity="0.0" d="m774.7128 138.61261c0 -11.028305 8.940247 -19.968506 19.968506 -19.968506c5.2960205 0 10.375061 2.1038132 14.119873 5.8486404c3.744812 3.7448196 5.848633 8.823891 5.848633 14.119865c0 11.02829 -8.940186 19.968506 -19.968506 19.968506c-11.028259 0 -19.968506 -8.940216 -19.968506 -19.968506z" fill-rule="evenodd"/><path stroke="#000000" stroke-width="2.0" stroke-linejoin="round" stroke-linecap="butt" d="m774.7128 138.61261c0 -11.028305 8.940247 -19.968506 19.968506 -19.968506c5.2960205 0 10.375061 2.1038132 14.119873 5.8486404c3.744812 3.7448196 5.848633 8.823891 5.848633 14.119865c0 11.02829 -8.940186 19.968506 -19.968506 19.968506c-11.028259 0 -19.968506 -8.940216 -19.968506 -19.968506z" fill-rule="evenodd"/><path fill="#000000" d="m799.5817 147.1526l-8.90625 0l0 -17.140625l8.90625 0l0 1.921875l-6.71875 0l0 5.296875l6.265625 0l0 1.90625l-6.265625 0l0 6.09375l6.71875 0l0 1.921875z" fill-rule="nonzero"/><path fill="#000000" fill-opacity="0.0" d="m838.7128 138.61261c0 -11.028305 8.940247 -19.968506 19.968506 -19.968506c5.2960205 0 10.375061 2.1038132 14.119873 5.8486404c3.744812 3.7448196 5.848633 8.823891 5.848633 14.119865c0 11.02829 -8.940186 19.968506 -19.968506 19.968506c-11.028259 0 -19.968506 -8.940216 -19.968506 -19.968506z" fill-rule="evenodd"/><path stroke="#000000" stroke-width="2.0" stroke-linejoin="round" stroke-linecap="butt" d="m838.7128 138.61261c0 -11.028305 8.940247 -19.968506 19.968506 -19.968506c5.2960205 0 10.375061 2.1038132 14.119873 5.8486404c3.744812 3.7448196 5.848633 8.823891 5.848633 14.119865c0 11.02829 -8.940186 19.968506 -19.968506 19.968506c-11.028259 0 -19.968506 -8.940216 -19.968506 -19.968506z" fill-rule="evenodd"/><path fill="#000000" d="m859.5739 138.10573l5.671875 0l0 8.40625q-0.65625 0.203125 -1.3125 0.375q-0.65625 0.15625 -1.34375 0.265625q-0.6875 0.125 -1.453125 0.171875q-0.765625 0.0625 -1.640625 0.0625q-1.84375 0 -3.265625 -0.609375q-1.40625 -0.625 -2.390625 -1.765625q-0.96875 -1.140625 -1.46875 -2.765625q-0.5 -1.640625 -0.5 -3.6875q0 -2.015625 0.546875 -3.640625q0.5625 -1.625 1.625 -2.765625q1.078125 -1.15625 2.640625 -1.765625q1.5625 -0.609375 3.5625 -0.609375q1.296875 0 2.484375 0.265625q1.203125 0.25 2.234375 0.734375l-0.84375 1.90625q-0.421875 -0.203125 -0.90625 -0.375q-0.484375 -0.1875 -1.0 -0.3125q-0.515625 -0.140625 -1.0625 -0.21875q-0.546875 -0.078125 -1.078125 -0.078125q-1.4375 0 -2.546875 0.46875q-1.09375 0.46875 -1.84375 1.359375q-0.734375 0.890625 -1.125 2.171875q-0.375 1.28125 -0.375 2.890625q0 1.515625 0.3125 2.78125q0.328125 1.265625 1.03125 2.1875q0.703125 0.90625 1.8125 1.421875q1.109375 0.5 2.6875 0.5q0.515625 0 0.9375 -0.03125q0.4375 -0.03125 0.796875 -0.078125q0.359375 -0.046875 0.671875 -0.109375q0.328125 -0.0625 0.640625 -0.125l0 -5.109375l-3.5 0l0 -1.921875z" fill-rule="nonzero"/><path fill="#000000" fill-opacity="0.0" d="m646.7128 138.61261c0 -11.028305 8.940247 -19.968506 19.968506 -19.968506c5.2960205 0 10.375061 2.1038132 14.119873 5.8486404c3.744812 3.7448196 5.848633 8.823891 5.848633 14.119865c0 11.02829 -8.940186 19.968506 -19.968506 19.968506c-11.028259 0 -19.968506 -8.940216 -19.968506 -19.968506z" fill-rule="evenodd"/><path stroke="#000000" stroke-width="2.0" stroke-linejoin="round" stroke-linecap="butt" d="m646.7128 138.61261c0 -11.028305 8.940247 -19.968506 19.968506 -19.968506c5.2960205 0 10.375061 2.1038132 14.119873 5.8486404c3.744812 3.7448196 5.848633 8.823891 5.848633 14.119865c0 11.02829 -8.940186 19.968506 -19.968506 19.968506c-11.028259 0 -19.968506 -8.940216 -19.968506 -19.968506z" fill-rule="evenodd"/><path fill="#000000" d="m671.7458 147.1526l-1.875 -5.3125l-6.375 0l-1.90625 5.3125l-2.203125 0l6.296875 -17.203125l1.984375 0l6.3125 17.203125l-2.234375 0zm-2.5625 -7.25l-1.734375 -4.96875q-0.0625 -0.203125 -0.171875 -0.5q-0.09375 -0.3125 -0.203125 -0.65625q-0.109375 -0.359375 -0.21875 -0.734375q-0.09375 -0.390625 -0.1875 -0.75q-0.078125 0.359375 -0.1875 0.75q-0.109375 0.390625 -0.21875 0.75q-0.09375 0.34375 -0.203125 0.65625q-0.09375 0.296875 -0.171875 0.484375l-1.6875 4.96875l4.984375 0z" fill-rule="nonzero"/><path fill="#000000" fill-opacity="0.0" d="m748.5615 40.73247l-35.748047 27.748028" fill-rule="evenodd"/><path stroke="#000000" stroke-width="2.0" stroke-linejoin="round" stroke-linecap="butt" d="m748.5615 40.73247l-26.268616 20.389996" fill-rule="evenodd"/><path fill="#000000" stroke="#000000" stroke-width="2.0" stroke-linecap="butt" d="m720.26733 58.51289l-5.144165 8.174824l9.1953125 -2.9556694z" fill-rule="evenodd"/><path fill="#000000" fill-opacity="0.0" d="m712.8012 96.73247l17.88977 21.921265" fill-rule="evenodd"/><path stroke="#000000" stroke-width="2.0" stroke-linejoin="round" stroke-linecap="butt" d="m712.8013 96.73247l10.302551 12.62426" fill-rule="evenodd"/><path fill="#000000" stroke="#000000" stroke-width="2.0" stroke-linecap="butt" d="m720.54443 111.4454l8.297974 4.943115l-3.1791992 -9.1204605z" fill-rule="evenodd"/><path fill="#000000" fill-opacity="0.0" d="m776.8012 40.73247l35.748047 27.748028" fill-rule="evenodd"/><path stroke="#000000" stroke-width="2.0" stroke-linejoin="round" stroke-linecap="butt" d="m776.8013 40.73247l26.268616 20.389996" fill-rule="evenodd"/><path fill="#000000" stroke="#000000" stroke-width="2.0" stroke-linecap="butt" d="m801.0443 63.732044l9.1953125 2.9556694l-5.144165 -8.174824z" fill-rule="evenodd"/><path fill="#000000" fill-opacity="0.0" d="m812.5615 96.73247l-17.88977 21.921265" fill-rule="evenodd"/><path stroke="#000000" stroke-width="2.0" stroke-linejoin="round" stroke-linecap="butt" d="m812.5615 96.73247l-10.302612 12.62426" fill-rule="evenodd"/><path fill="#000000" stroke="#000000" stroke-width="2.0" stroke-linecap="butt" d="m799.6996 107.26805l-3.1791992 9.1204605l8.297913 -4.943115z" fill-rule="evenodd"/><path fill="#000000" fill-opacity="0.0" d="m840.8012 96.73247l17.88977 21.921265" fill-rule="evenodd"/><path stroke="#000000" stroke-width="2.0" stroke-linejoin="round" stroke-linecap="butt" d="m840.8013 96.73247l10.302551 12.62426" fill-rule="evenodd"/><path fill="#000000" stroke="#000000" stroke-width="2.0" stroke-linecap="butt" d="m848.54443 111.4454l8.297974 4.943115l-3.1791992 -9.1204605z" fill-rule="evenodd"/><path fill="#000000" fill-opacity="0.0" d="m684.5615 96.73247l-17.88977 21.921265" fill-rule="evenodd"/><path stroke="#000000" stroke-width="2.0" stroke-linejoin="round" stroke-linecap="butt" d="m684.56146 96.73247l-10.302551 12.62426" fill-rule="evenodd"/><path fill="#000000" stroke="#000000" stroke-width="2.0" stroke-linecap="butt" d="m671.6996 107.26805l-3.1792603 9.1204605l8.297974 -4.943115z" fill-rule="evenodd"/><path fill="#000000" fill-opacity="0.0" d="m710.7128 138.61261c0 -11.028305 8.940247 -19.968506 19.968506 -19.968506c5.2960205 0 10.375061 2.1038132 14.119873 5.8486404c3.744812 3.7448196 5.848633 8.823891 5.848633 14.119865c0 11.02829 -8.940186 19.968506 -19.968506 19.968506c-11.028259 0 -19.968506 -8.940216 -19.968506 -19.968506z" fill-rule="evenodd"/><path stroke="#000000" stroke-width="2.0" stroke-linejoin="round" stroke-linecap="butt" d="m710.7128 138.61261c0 -11.028305 8.940247 -19.968506 19.968506 -19.968506c5.2960205 0 10.375061 2.1038132 14.119873 5.8486404c3.744812 3.7448196 5.848633 8.823891 5.848633 14.119865c0 11.02829 -8.940186 19.968506 -19.968506 19.968506c-11.028259 0 -19.968506 -8.940216 -19.968506 -19.968506z" fill-rule="evenodd"/><path fill="#000000" d="m732.7419 131.69948q-1.25 0 -2.28125 0.46875q-1.015625 0.46875 -1.734375 1.359375q-0.71875 0.890625 -1.109375 2.171875q-0.390625 1.28125 -0.390625 2.890625q0 1.640625 0.34375 2.9375q0.34375 1.28125 1.03125 2.15625q0.6875 0.875 1.71875 1.34375q1.03125 0.453125 2.421875 0.453125q1.046875 0 1.984375 -0.203125q0.9375 -0.21875 1.84375 -0.484375l0 1.90625q-0.453125 0.171875 -0.921875 0.3125q-0.453125 0.125 -0.953125 0.203125q-0.484375 0.09375 -1.0625 0.125q-0.5625 0.046875 -1.25 0.046875q-1.921875 0 -3.328125 -0.625q-1.40625 -0.640625 -2.328125 -1.796875q-0.921875 -1.171875 -1.375 -2.796875q-0.4375 -1.625 -0.4375 -3.609375q0 -1.9375 0.5 -3.546875q0.515625 -1.625 1.5 -2.78125q1.0 -1.171875 2.453125 -1.8125q1.46875 -0.640625 3.375 -0.640625q1.265625 0 2.40625 0.265625q1.15625 0.25 2.078125 0.734375l-0.90625 1.828125q-0.75 -0.375 -1.625 -0.640625q-0.859375 -0.265625 -1.953125 -0.265625z" fill-rule="nonzero"/><path fill="#000000" fill-opacity="0.0" d="m264.5447 6.783464l0 182.92914" fill-rule="evenodd"/><path stroke="#000000" stroke-width="1.0" stroke-linejoin="round" stroke-linecap="butt" d="m264.5447 6.783464l0 182.92914" fill-rule="evenodd"/><path fill="#000000" fill-opacity="0.0" d="m438.71286 26.612606c0 -11.028301 8.940186 -19.968506 19.968506 -19.968506c5.2959595 0 10.3750305 2.103819 14.119843 5.8486395c3.7448425 3.7448215 5.8486633 8.823889 5.8486633 14.119865c0 11.028301 -8.940216 19.968502 -19.968506 19.968502c-11.02832 0 -19.968506 -8.940201 -19.968506 -19.968502z" fill-rule="evenodd"/><path stroke="#000000" stroke-width="2.0" stroke-linejoin="round" stroke-linecap="butt" d="m438.71286 26.612606c0 -11.028301 8.940186 -19.968506 19.968506 -19.968506c5.2959595 0 10.3750305 2.103819 14.119843 5.8486395c3.7448425 3.7448215 5.8486633 8.823889 5.8486633 14.119865c0 11.028301 -8.940216 19.968502 -19.968506 19.968502c-11.02832 0 -19.968506 -8.940201 -19.968506 -19.968502z" fill-rule="evenodd"/><path fill="#000000" d="m463.58176 35.152607l-8.90625 0l0 -17.140627l8.90625 0l0 1.921875l-6.71875 0l0 5.296875l6.265625 0l0 1.90625l-6.265625 0l0 6.093752l6.71875 0l0 1.921875z" fill-rule="nonzero"/><path fill="#000000" fill-opacity="0.0" d="m374.71286 82.6126c0 -11.028297 8.940186 -19.968502 19.968506 -19.968502c5.2959595 0 10.3750305 2.103817 14.119843 5.8486443c3.7448425 3.7448196 5.8486633 8.823883 5.8486633 14.119858c0 11.028305 -8.940216 19.968506 -19.968506 19.968506c-11.02832 0 -19.968506 -8.940201 -19.968506 -19.968506z" fill-rule="evenodd"/><path stroke="#000000" stroke-width="2.0" stroke-linejoin="round" stroke-linecap="butt" d="m374.71286 82.6126c0 -11.028297 8.940186 -19.968502 19.968506 -19.968502c5.2959595 0 10.3750305 2.103817 14.119843 5.8486443c3.7448425 3.7448196 5.8486633 8.823883 5.8486633 14.119858c0 11.028305 -8.940216 19.968506 -19.968506 19.968506c-11.02832 0 -19.968506 -8.940201 -19.968506 -19.968506z" fill-rule="evenodd"/><path fill="#000000" d="m396.7419 75.69948q-1.25 0 -2.28125 0.46875q-1.015625 0.46875 -1.734375 1.359375q-0.71875 0.890625 -1.109375 2.171875q-0.390625 1.28125 -0.390625 2.890625q0 1.640625 0.34375 2.9375q0.34375 1.28125 1.03125 2.15625q0.6875 0.875 1.71875 1.34375q1.03125 0.453125 2.421875 0.453125q1.046875 0 1.984375 -0.203125q0.9375 -0.21875 1.84375 -0.484375l0 1.90625q-0.453125 0.171875 -0.921875 0.3125q-0.453125 0.125 -0.953125 0.203125q-0.484375 0.09375 -1.0625 0.125q-0.5625 0.046875 -1.25 0.046875q-1.921875 0 -3.328125 -0.625q-1.40625 -0.640625 -2.328125 -1.796875q-0.921875 -1.171875 -1.375 -2.796875q-0.4375 -1.625 -0.4375 -3.609375q0 -1.9375 0.5 -3.546875q0.515625 -1.625 1.5 -2.78125q1.0 -1.171875 2.453125 -1.8125q1.46875 -0.640625 3.375 -0.640625q1.265625 0 2.40625 0.265625q1.15625 0.25 2.078125 0.734375l-0.90625 1.828125q-0.75 -0.375 -1.625 -0.640625q-0.859375 -0.265625 -1.953125 -0.265625z" fill-rule="nonzero"/><path fill="#000000" fill-opacity="0.0" d="m502.71286 82.6126c0 -11.028297 8.940186 -19.968502 19.968475 -19.968502c5.2960205 0 10.375061 2.103817 14.119873 5.8486443c3.744812 3.7448196 5.848633 8.823883 5.848633 14.119858c0 11.028305 -8.940186 19.968506 -19.968506 19.968506c-11.02829 0 -19.968475 -8.940201 -19.968475 -19.968506z" fill-rule="evenodd"/><path stroke="#000000" stroke-width="2.0" stroke-linejoin="round" stroke-linecap="butt" d="m502.71286 82.6126c0 -11.028297 8.940186 -19.968502 19.968475 -19.968502c5.2960205 0 10.375061 2.103817 14.119873 5.8486443c3.744812 3.7448196 5.848633 8.823883 5.848633 14.119858c0 11.028305 -8.940186 19.968506 -19.968506 19.968506c-11.02829 0 -19.968475 -8.940201 -19.968475 -19.968506z" fill-rule="evenodd"/><path fill="#000000" d="m523.5739 82.10573l5.671875 0l0 8.40625q-0.65625 0.203125 -1.3125 0.375q-0.65625 0.15625 -1.34375 0.265625q-0.6875 0.125 -1.453125 0.171875q-0.765625 0.0625 -1.640625 0.0625q-1.84375 0 -3.265625 -0.609375q-1.40625 -0.625 -2.390625 -1.765625q-0.96875 -1.140625 -1.46875 -2.765625q-0.5 -1.640625 -0.5 -3.6875q0 -2.015625 0.546875 -3.640625q0.5625 -1.625 1.625 -2.765625q1.078125 -1.15625 2.640625 -1.765625q1.5625 -0.609375 3.5625 -0.609375q1.296875 0 2.484375 0.265625q1.203125 0.25 2.234375 0.734375l-0.84375 1.90625q-0.421875 -0.203125 -0.90625 -0.375q-0.484375 -0.1875 -1.0 -0.3125q-0.515625 -0.140625 -1.0625 -0.21875q-0.546875 -0.078125 -1.078125 -0.078125q-1.4375 0 -2.546875 0.46875q-1.09375 0.46875 -1.84375 1.359375q-0.734375 0.890625 -1.125 2.171875q-0.375 1.28125 -0.375 2.890625q0 1.515625 0.3125 2.78125q0.328125 1.265625 1.03125 2.1875q0.703125 0.90625 1.8125 1.421875q1.109375 0.5 2.6875 0.5q0.515625 0 0.9375 -0.03125q0.4375 -0.03125 0.796875 -0.078125q0.359375 -0.046875 0.671875 -0.109375q0.328125 -0.0625 0.640625 -0.125l0 -5.109375l-3.5 0l0 -1.921875z" fill-rule="nonzero"/><path fill="#000000" fill-opacity="0.0" d="m470.71286 138.61261c0 -11.028305 8.940186 -19.968506 19.968506 -19.968506c5.2959595 0 10.3750305 2.1038132 14.119843 5.8486404c3.7448425 3.7448196 5.8486633 8.823891 5.8486633 14.119865c0 11.02829 -8.940216 19.968506 -19.968506 19.968506c-11.02832 0 -19.968506 -8.940216 -19.968506 -19.968506z" fill-rule="evenodd"/><path stroke="#000000" stroke-width="2.0" stroke-linejoin="round" stroke-linecap="butt" d="m470.71286 138.61261c0 -11.028305 8.940186 -19.968506 19.968506 -19.968506c5.2959595 0 10.3750305 2.1038132 14.119843 5.8486404c3.7448425 3.7448196 5.8486633 8.823891 5.8486633 14.119865c0 11.02829 -8.940216 19.968506 -19.968506 19.968506c-11.02832 0 -19.968506 -8.940216 -19.968506 -19.968506z" fill-rule="evenodd"/><path fill="#000000" d="m489.30246 147.1526l-2.1875 0l0 -17.140625l8.90625 0l0 1.921875l-6.71875 0l0 6.046875l6.265625 0l0 1.921875l-6.265625 0l0 7.25z" fill-rule="nonzero"/><path fill="#000000" fill-opacity="0.0" d="m342.71286 138.61261c0 -11.028305 8.940186 -19.968506 19.968506 -19.968506c5.2959595 0 10.3750305 2.1038132 14.119843 5.8486404c3.7448425 3.7448196 5.8486633 8.823891 5.8486633 14.119865c0 11.02829 -8.940216 19.968506 -19.968506 19.968506c-11.02832 0 -19.968506 -8.940216 -19.968506 -19.968506z" fill-rule="evenodd"/><path stroke="#000000" stroke-width="2.0" stroke-linejoin="round" stroke-linecap="butt" d="m342.71286 138.61261c0 -11.028305 8.940186 -19.968506 19.968506 -19.968506c5.2959595 0 10.3750305 2.1038132 14.119843 5.8486404c3.7448425 3.7448196 5.8486633 8.823891 5.8486633 14.119865c0 11.02829 -8.940216 19.968506 -19.968506 19.968506c-11.02832 0 -19.968506 -8.940216 -19.968506 -19.968506z" fill-rule="evenodd"/><path fill="#000000" d="m357.55637 130.01198l4.6875 0q1.5 0 2.640625 0.234375q1.140625 0.234375 1.90625 0.75q0.765625 0.5 1.15625 1.328125q0.390625 0.828125 0.390625 2.03125q0 0.71875 -0.234375 1.359375q-0.234375 0.625 -0.671875 1.109375q-0.421875 0.484375 -1.0625 0.8125q-0.640625 0.3125 -1.453125 0.421875l0 0.109375q0.8125 0.140625 1.515625 0.40625q0.71875 0.265625 1.234375 0.734375q0.53125 0.453125 0.828125 1.15625q0.3125 0.703125 0.3125 1.71875q0 1.171875 -0.375 2.09375q-0.375 0.921875 -1.109375 1.5625q-0.71875 0.625 -1.75 0.96875q-1.03125 0.34375 -2.328125 0.34375l-5.6875 0l0 -17.140625zm2.1875 7.265625l2.859375 0q0.984375 0 1.640625 -0.171875q0.671875 -0.171875 1.078125 -0.515625q0.421875 -0.34375 0.59375 -0.859375q0.1875 -0.53125 0.1875 -1.21875q0 -1.40625 -0.90625 -2.015625q-0.890625 -0.609375 -2.84375 -0.609375l-2.609375 0l0 5.390625zm0 1.828125l0 6.1875l3.109375 0q1.03125 0 1.734375 -0.234375q0.703125 -0.234375 1.125 -0.65625q0.421875 -0.421875 0.609375 -1.0q0.1875 -0.59375 0.1875 -1.3125q0 -0.65625 -0.1875 -1.203125q-0.1875 -0.5625 -0.640625 -0.953125q-0.4375 -0.390625 -1.171875 -0.609375q-0.71875 -0.21875 -1.796875 -0.21875l-2.96875 0z" fill-rule="nonzero"/><path fill="#000000" fill-opacity="0.0" d="m444.5615 40.73247l-35.748016 27.748028" fill-rule="evenodd"/><path stroke="#000000" stroke-width="2.0" stroke-linejoin="round" stroke-linecap="butt" d="m444.56146 40.73247l-26.268616 20.389996" fill-rule="evenodd"/><path fill="#000000" stroke="#000000" stroke-width="2.0" stroke-linecap="butt" d="m416.26727 58.51289l-5.144165 8.174824l9.195343 -2.9556694z" fill-rule="evenodd"/><path fill="#000000" fill-opacity="0.0" d="m408.8012 96.73247l17.88977 21.921265" fill-rule="evenodd"/><path stroke="#000000" stroke-width="2.0" stroke-linejoin="round" stroke-linecap="butt" d="m408.8012 96.73247l10.302582 12.62426" fill-rule="evenodd"/><path fill="#000000" stroke="#000000" stroke-width="2.0" stroke-linecap="butt" d="m416.5444 111.4454l8.297943 4.943115l-3.1791992 -9.1204605z" fill-rule="evenodd"/><path fill="#000000" fill-opacity="0.0" d="m472.8012 40.73247l35.748047 27.748028" fill-rule="evenodd"/><path stroke="#000000" stroke-width="2.0" stroke-linejoin="round" stroke-linecap="butt" d="m472.8012 40.73247l26.268646 20.389996" fill-rule="evenodd"/><path fill="#000000" stroke="#000000" stroke-width="2.0" stroke-linecap="butt" d="m497.04425 63.732044l9.195343 2.9556694l-5.144165 -8.174824z" fill-rule="evenodd"/><path fill="#000000" fill-opacity="0.0" d="m508.5615 96.73247l-17.88977 21.921265" fill-rule="evenodd"/><path stroke="#000000" stroke-width="2.0" stroke-linejoin="round" stroke-linecap="butt" d="m508.56146 96.73247l-10.302551 12.62426" fill-rule="evenodd"/><path fill="#000000" stroke="#000000" stroke-width="2.0" stroke-linecap="butt" d="m495.69955 107.26805l-3.1792297 9.1204605l8.297943 -4.943115z" fill-rule="evenodd"/><path fill="#000000" fill-opacity="0.0" d="m380.5615 96.73247l-17.88977 21.921265" fill-rule="evenodd"/><path stroke="#000000" stroke-width="2.0" stroke-linejoin="round" stroke-linecap="butt" d="m380.56146 96.73247l-10.302551 12.62426" fill-rule="evenodd"/><path fill="#000000" stroke="#000000" stroke-width="2.0" stroke-linecap="butt" d="m367.69955 107.26805l-3.1792297 9.1204605l8.297943 -4.943115z" fill-rule="evenodd"/><path fill="#000000" fill-opacity="0.0" d="m406.71286 138.61261c0 -11.028305 8.940186 -19.968506 19.968506 -19.968506c5.2959595 0 10.3750305 2.1038132 14.119843 5.8486404c3.7448425 3.7448196 5.8486633 8.823891 5.8486633 14.119865c0 11.02829 -8.940216 19.968506 -19.968506 19.968506c-11.02832 0 -19.968506 -8.940216 -19.968506 -19.968506z" fill-rule="evenodd"/><path stroke="#000000" stroke-width="2.0" stroke-linejoin="round" stroke-linecap="butt" d="m406.71286 138.61261c0 -11.028305 8.940186 -19.968506 19.968506 -19.968506c5.2959595 0 10.3750305 2.1038132 14.119843 5.8486404c3.7448425 3.7448196 5.8486633 8.823891 5.8486633 14.119865c0 11.02829 -8.940216 19.968506 -19.968506 19.968506c-11.02832 0 -19.968506 -8.940216 -19.968506 -19.968506z" fill-rule="evenodd"/><path fill="#000000" d="m433.4255 138.41823q0 2.171875 -0.5625 3.8125q-0.5625 1.625 -1.625 2.71875q-1.0625 1.09375 -2.625 1.65625q-1.546875 0.546875 -3.515625 0.546875l-4.296875 0l0 -17.140625l4.78125 0q1.78125 0 3.234375 0.546875q1.453125 0.53125 2.46875 1.59375q1.03125 1.0625 1.578125 2.640625q0.5625 1.5625 0.5625 3.625zm-2.3125 0.078125q0 -1.71875 -0.390625 -2.96875q-0.375 -1.25 -1.125 -2.046875q-0.734375 -0.8125 -1.8125 -1.203125q-1.078125 -0.390625 -2.4375 -0.390625l-2.359375 0l0 13.390625l1.890625 0q3.09375 0 4.65625 -1.703125q1.578125 -1.71875 1.578125 -5.078125z" fill-rule="nonzero"/><path fill="#000000" fill-opacity="0.0" d="m314.43958 190.8859c0 -11.028305 8.940186 -19.968506 19.968506 -19.968506c5.2959595 0 10.3750305 2.1038208 14.119843 5.848648c3.7448425 3.744812 5.848633 8.823883 5.848633 14.119858c0 11.028305 -8.940186 19.968506 -19.968475 19.968506c-11.02832 0 -19.968506 -8.940201 -19.968506 -19.968506z" fill-rule="evenodd"/><path stroke="#000000" stroke-width="2.0" stroke-linejoin="round" stroke-linecap="butt" d="m314.43958 190.8859c0 -11.028305 8.940186 -19.968506 19.968506 -19.968506c5.2959595 0 10.3750305 2.1038208 14.119843 5.848648c3.7448425 3.744812 5.848633 8.823883 5.848633 14.119858c0 11.028305 -8.940186 19.968506 -19.968475 19.968506c-11.02832 0 -19.968506 -8.940201 -19.968506 -19.968506z" fill-rule="evenodd"/><path fill="#000000" d="m339.47253 199.4259l-1.875 -5.3125l-6.375 0l-1.90625 5.3125l-2.203125 0l6.296875 -17.203125l1.984375 0l6.3125 17.203125l-2.234375 0zm-2.5625 -7.25l-1.734375 -4.96875q-0.0625 -0.203125 -0.171875 -0.5q-0.09375 -0.3125 -0.203125 -0.65625q-0.109375 -0.359375 -0.21875 -0.734375q-0.09375 -0.390625 -0.1875 -0.75q-0.078125 0.359375 -0.1875 0.75q-0.109375 0.390625 -0.21875 0.75q-0.09375 0.34375 -0.203125 0.65625q-0.09375 0.296875 -0.171875 0.484375l-1.6875 4.96875l4.984375 0z" fill-rule="nonzero"/><path fill="#000000" fill-opacity="0.0" d="m348.5615 152.73247l-14.141724 18.173233" fill-rule="evenodd"/><path stroke="#000000" stroke-width="2.0" stroke-linejoin="round" stroke-linecap="butt" d="m348.56146 152.73247l-6.772156 8.702774" fill-rule="evenodd"/><path fill="#000000" stroke="#000000" stroke-width="2.0" stroke-linecap="butt" d="m339.1822 159.40648l-2.9668274 9.191742l8.181061 -5.1342316z" fill-rule="evenodd"/><path fill="#000000" fill-opacity="0.0" d="m594.68134 6.783464l0 182.92914" fill-rule="evenodd"/><path stroke="#000000" stroke-width="1.0" stroke-linejoin="round" stroke-linecap="butt" d="m594.68134 6.783464l0 182.92914" fill-rule="evenodd"/></g></svg>