<svg version="1.1" viewBox="0.0 0.0 849.9265091863517 244.42257217847768" fill="none" stroke="none" stroke-linecap="square" stroke-miterlimit="10" xmlns:xlink="http://www.w3.org/1999/xlink" xmlns="http://www.w3.org/2000/svg"><clipPath id="p.0"><path d="m0 0l849.9265 0l0 244.42258l-849.9265 0l0 -244.42258z" clip-rule="nonzero"/></clipPath><g clip-path="url(#p.0)"><path fill="#000000" fill-opacity="0.0" d="m0 0l849.9265 0l0 244.42258l-849.9265 0z" fill-rule="evenodd"/><path fill="#000000" fill-opacity="0.0" d="m267.05087 25.37819c0 -8.175554 6.627594 -14.80315 14.803131 -14.80315c3.926056 0 7.691284 1.5596123 10.467407 4.335742c2.7761536 2.7761297 4.3357544 6.5413675 4.3357544 10.467408c0 8.175552 -6.627594 14.80315 -14.803162 14.80315c-8.175537 0 -14.803131 -6.627598 -14.803131 -14.80315z" fill-rule="evenodd"/><path stroke="#000000" stroke-width="1.0" stroke-linejoin="round" stroke-linecap="butt" d="m267.05087 25.37819c0 -8.175554 6.627594 -14.80315 14.803131 -14.80315c3.926056 0 7.691284 1.5596123 10.467407 4.335742c2.7761536 2.7761297 4.3357544 6.5413675 4.3357544 10.467408c0 8.175552 -6.627594 14.80315 -14.803162 14.80315c-8.175537 0 -14.803131 -6.627598 -14.803131 -14.80315z" fill-rule="evenodd"/><path fill="#000000" d="m283.4953 19.943268q-1.0 0 -1.8125 0.375q-0.8125 0.375 -1.390625 1.09375q-0.578125 0.703125 -0.890625 1.734375q-0.3125 1.015625 -0.3125 2.296875q0 1.328125 0.265625 2.359375q0.28125 1.015625 0.828125 1.71875q0.5625 0.703125 1.375 1.0625q0.828125 0.359375 1.9375 0.359375q0.828125 0 1.578125 -0.15625q0.75 -0.171875 1.484375 -0.375l0 1.515625q-0.359375 0.140625 -0.734375 0.25q-0.359375 0.09375 -0.765625 0.15625q-0.390625 0.078125 -0.84375 0.109375q-0.453125 0.03125 -1.0 0.03125q-1.546875 0 -2.671875 -0.5q-1.125 -0.515625 -1.859375 -1.4375q-0.734375 -0.921875 -1.09375 -2.21875q-0.34375 -1.3125 -0.34375 -2.890625q0 -1.5625 0.40625 -2.84375q0.40625 -1.296875 1.1875 -2.21875q0.796875 -0.9375 1.96875 -1.4375q1.171875 -0.515625 2.6875 -0.515625q1.015625 0 1.921875 0.203125q0.921875 0.203125 1.671875 0.59375l-0.734375 1.453125q-0.59375 -0.296875 -1.296875 -0.5q-0.6875 -0.21875 -1.5625 -0.21875z" fill-rule="nonzero"/><path fill="#000000" fill-opacity="0.0" d="m225.52127 66.90779c0 -8.175556 6.627594 -14.803154 14.803146 -14.803154c3.9260406 0 7.691284 1.5596161 10.467407 4.335743c2.776123 2.7761307 4.335739 6.5413704 4.335739 10.467411c0 8.175552 -6.627594 14.803146 -14.803146 14.803146c-8.175552 0 -14.803146 -6.627594 -14.803146 -14.803146z" fill-rule="evenodd"/><path stroke="#000000" stroke-width="1.0" stroke-linejoin="round" stroke-linecap="butt" d="m225.52127 66.90779c0 -8.175556 6.627594 -14.803154 14.803146 -14.803154c3.9260406 0 7.691284 1.5596161 10.467407 4.335743c2.776123 2.7761307 4.335739 6.5413704 4.335739 10.467411c0 8.175552 -6.627594 14.803146 -14.803146 14.803146c-8.175552 0 -14.803146 -6.627594 -14.803146 -14.803146z" fill-rule="evenodd"/><path fill="#000000" d="m236.23003 60.12912l3.734375 0q1.203125 0 2.109375 0.1875q0.921875 0.171875 1.53125 0.59375q0.609375 0.40625 0.921875 1.0625q0.3125 0.65625 0.3125 1.625q0 0.578125 -0.1875 1.09375q-0.1875 0.5 -0.53125 0.890625q-0.34375 0.375 -0.859375 0.640625q-0.5 0.25 -1.15625 0.328125l0 0.09375q0.65625 0.109375 1.21875 0.328125q0.5625 0.203125 0.984375 0.578125q0.421875 0.375 0.65625 0.9375q0.25 0.546875 0.25 1.359375q0 0.9375 -0.3125 1.671875q-0.296875 0.734375 -0.875 1.25q-0.5625 0.5 -1.390625 0.78125q-0.828125 0.265625 -1.859375 0.265625l-4.546875 0l0 -13.6875zm1.75 5.8125l2.28125 0q0.78125 0 1.3125 -0.140625q0.53125 -0.140625 0.859375 -0.421875q0.328125 -0.28125 0.46875 -0.6875q0.15625 -0.421875 0.15625 -0.96875q0 -1.125 -0.71875 -1.609375q-0.71875 -0.5 -2.28125 -0.5l-2.078125 0l0 4.328125zm0 1.453125l0 4.9375l2.484375 0q0.828125 0 1.375 -0.1875q0.5625 -0.1875 0.90625 -0.515625q0.34375 -0.34375 0.484375 -0.8125q0.15625 -0.46875 0.15625 -1.046875q0 -0.515625 -0.15625 -0.953125q-0.15625 -0.453125 -0.515625 -0.765625q-0.34375 -0.3125 -0.921875 -0.484375q-0.578125 -0.171875 -1.4375 -0.171875l-2.375 0z" fill-rule="nonzero"/><path fill="#000000" fill-opacity="0.0" d="m261.11807 149.967c0 -8.175568 6.627594 -14.803162 14.803131 -14.803162c3.926056 0 7.691284 1.5596161 10.467407 4.3357544c2.7761536 2.776123 4.3357544 6.5413666 4.3357544 10.467407c0 8.175552 -6.627594 14.803146 -14.803162 14.803146c-8.175537 0 -14.803131 -6.627594 -14.803131 -14.803146z" fill-rule="evenodd"/><path stroke="#000000" stroke-width="1.0" stroke-linejoin="round" stroke-linecap="butt" d="m261.11807 149.967c0 -8.175568 6.627594 -14.803162 14.803131 -14.803162c3.926056 0 7.691284 1.5596161 10.467407 4.3357544c2.7761536 2.776123 4.3357544 6.5413666 4.3357544 10.467407c0 8.175552 -6.627594 14.803146 -14.803162 14.803146c-8.175537 0 -14.803131 -6.627594 -14.803131 -14.803146z" fill-rule="evenodd"/><path fill="#000000" d="m281.30115 149.90707q0 1.71875 -0.453125 3.03125q-0.4375 1.3125 -1.296875 2.1875q-0.84375 0.875 -2.09375 1.3125q-1.234375 0.4375 -2.796875 0.4375l-3.4375 0l0 -13.6875l3.8125 0q1.4375 0 2.59375 0.4375q1.15625 0.421875 1.96875 1.28125q0.828125 0.84375 1.265625 2.09375q0.4375 1.25 0.4375 2.90625zm-1.84375 0.046875q0 -1.359375 -0.3125 -2.359375q-0.296875 -1.0 -0.890625 -1.640625q-0.59375 -0.65625 -1.453125 -0.96875q-0.859375 -0.3125 -1.953125 -0.3125l-1.875 0l0 10.703125l1.515625 0q2.46875 0 3.71875 -1.359375q1.25 -1.375 1.25 -4.0625z" fill-rule="nonzero"/><path fill="#000000" fill-opacity="0.0" d="m308.58047 66.90779c0 -8.175556 6.627594 -14.803154 14.803131 -14.803154c3.926056 0 7.691284 1.5596161 10.467407 4.335743c2.7761536 2.7761307 4.3357544 6.5413704 4.3357544 10.467411c0 8.175552 -6.627594 14.803146 -14.803162 14.803146c-8.175537 0 -14.803131 -6.627594 -14.803131 -14.803146z" fill-rule="evenodd"/><path stroke="#000000" stroke-width="1.0" stroke-linejoin="round" stroke-linecap="butt" d="m308.58047 66.90779c0 -8.175556 6.627594 -14.803154 14.803131 -14.803154c3.926056 0 7.691284 1.5596161 10.467407 4.335743c2.7761536 2.7761307 4.3357544 6.5413704 4.3357544 10.467411c0 8.175552 -6.627594 14.803146 -14.803162 14.803146c-8.175537 0 -14.803131 -6.627594 -14.803131 -14.803146z" fill-rule="evenodd"/><path fill="#000000" d="m322.28427 73.81662l-1.75 0l0 -13.6875l7.109375 0l0 1.53125l-5.359375 0l0 4.828125l5.0 0l0 1.546875l-5.0 0l0 5.78125z" fill-rule="nonzero"/><path fill="#000000" fill-opacity="0.0" d="m284.84927 108.437386c0 -8.175552 6.627594 -14.803146 14.803131 -14.803146c3.926056 0 7.691284 1.5596161 10.467407 4.335739c2.7761536 2.7761307 4.3357544 6.541374 4.3357544 10.467407c0 8.17556 -6.627594 14.803154 -14.803162 14.803154c-8.175537 0 -14.803131 -6.627594 -14.803131 -14.803154z" fill-rule="evenodd"/><path stroke="#000000" stroke-width="1.0" stroke-linejoin="round" stroke-linecap="butt" d="m284.84927 108.437386c0 -8.175552 6.627594 -14.803146 14.803131 -14.803146c3.926056 0 7.691284 1.5596161 10.467407 4.335739c2.7761536 2.7761307 4.3357544 6.541374 4.3357544 10.467407c0 8.17556 -6.627594 14.803154 -14.803162 14.803154c-8.175537 0 -14.803131 -6.627594 -14.803131 -14.803154z" fill-rule="evenodd"/><path fill="#000000" d="m303.5614 115.34622l-7.109375 0l0 -13.6875l7.109375 0l0 1.53125l-5.359375 0l0 4.234375l5.0 0l0 1.515625l-5.0 0l0 4.875l5.359375 0l0 1.53125z" fill-rule="nonzero"/><path fill="#000000" fill-opacity="0.0" d="m332.31168 108.437386c0 -8.175552 6.627594 -14.803146 14.803131 -14.803146c3.926056 0 7.691284 1.5596161 10.467407 4.335739c2.776123 2.7761307 4.3357544 6.541374 4.3357544 10.467407c0 8.17556 -6.627594 14.803154 -14.803162 14.803154c-8.175537 0 -14.803131 -6.627594 -14.803131 -14.803154z" fill-rule="evenodd"/><path stroke="#000000" stroke-width="1.0" stroke-linejoin="round" stroke-linecap="butt" d="m332.31168 108.437386c0 -8.175552 6.627594 -14.803146 14.803131 -14.803146c3.926056 0 7.691284 1.5596161 10.467407 4.335739c2.776123 2.7761307 4.3357544 6.541374 4.3357544 10.467407c0 8.17556 -6.627594 14.803154 -14.803162 14.803154c-8.175537 0 -14.803131 -6.627594 -14.803131 -14.803154z" fill-rule="evenodd"/><path fill="#000000" d="m347.8292 108.11185l4.515625 0l0 6.71875q-0.5 0.171875 -1.03125 0.3125q-0.53125 0.125 -1.078125 0.203125q-0.546875 0.09375 -1.15625 0.140625q-0.609375 0.046875 -1.3125 0.046875q-1.46875 0 -2.609375 -0.484375q-1.125 -0.5 -1.90625 -1.40625q-0.78125 -0.921875 -1.1875 -2.21875q-0.390625 -1.3125 -0.390625 -2.9375q0 -1.609375 0.4375 -2.90625q0.453125 -1.3125 1.296875 -2.21875q0.859375 -0.921875 2.109375 -1.40625q1.25 -0.484375 2.84375 -0.484375q1.046875 0 2.0 0.203125q0.953125 0.203125 1.78125 0.59375l-0.671875 1.515625q-0.34375 -0.15625 -0.734375 -0.296875q-0.390625 -0.140625 -0.796875 -0.25q-0.40625 -0.109375 -0.84375 -0.171875q-0.4375 -0.0625 -0.875 -0.0625q-1.140625 0 -2.015625 0.375q-0.875 0.375 -1.484375 1.09375q-0.59375 0.703125 -0.90625 1.734375q-0.296875 1.015625 -0.296875 2.296875q0 1.21875 0.25 2.234375q0.265625 1.0 0.828125 1.734375q0.5625 0.734375 1.453125 1.140625q0.890625 0.390625 2.140625 0.390625q0.40625 0 0.75 -0.015625q0.34375 -0.03125 0.625 -0.0625q0.296875 -0.03125 0.546875 -0.078125q0.265625 -0.0625 0.515625 -0.109375l0 -4.078125l-2.796875 0l0 -1.546875z" fill-rule="nonzero"/><path fill="#000000" fill-opacity="0.0" d="m201.79007 108.437386c0 -8.175552 6.627594 -14.803146 14.803146 -14.803146c3.9260406 0 7.691284 1.5596161 10.467407 4.335739c2.776123 2.7761307 4.335739 6.541374 4.335739 10.467407c0 8.17556 -6.627594 14.803154 -14.803146 14.803154c-8.175552 0 -14.803146 -6.627594 -14.803146 -14.803154z" fill-rule="evenodd"/><path stroke="#000000" stroke-width="1.0" stroke-linejoin="round" stroke-linecap="butt" d="m201.79007 108.437386c0 -8.175552 6.627594 -14.803146 14.803146 -14.803146c3.9260406 0 7.691284 1.5596161 10.467407 4.335739c2.776123 2.7761307 4.335739 6.541374 4.335739 10.467407c0 8.17556 -6.627594 14.803154 -14.803146 14.803154c-8.175552 0 -14.803146 -6.627594 -14.803146 -14.803154z" fill-rule="evenodd"/><path fill="#000000" d="m220.64082 115.34622l-1.5 -4.234375l-5.09375 0l-1.515625 4.234375l-1.765625 0l5.03125 -13.75l1.59375 0l5.03125 13.75l-1.78125 0zm-2.046875 -5.78125l-1.390625 -3.96875q-0.046875 -0.171875 -0.140625 -0.40625q-0.078125 -0.25 -0.15625 -0.53125q-0.078125 -0.28125 -0.171875 -0.578125q-0.078125 -0.3125 -0.15625 -0.609375q-0.0625 0.296875 -0.15625 0.609375q-0.078125 0.296875 -0.171875 0.59375q-0.078125 0.28125 -0.15625 0.53125q-0.078125 0.234375 -0.125 0.390625l-1.359375 3.96875l3.984375 0z" fill-rule="nonzero"/><path fill="#000000" fill-opacity="0.0" d="m271.3866 35.845596l-20.59842 20.598423" fill-rule="evenodd"/><path stroke="#000000" stroke-width="1.0" stroke-linejoin="round" stroke-linecap="butt" d="m271.3866 35.845596l-16.355774 16.355785" fill-rule="evenodd"/><path fill="#000000" stroke="#000000" stroke-width="1.0" stroke-linecap="butt" d="m253.86287 51.03343l-2.0409698 4.376873l4.3768616 -2.0409698z" fill-rule="evenodd"/><path fill="#000000" fill-opacity="0.0" d="m289.185 118.90479l-13.259827 16.251976" fill-rule="evenodd"/><path stroke="#000000" stroke-width="1.0" stroke-linejoin="round" stroke-linecap="butt" d="m289.185 118.90479l-9.466797 11.603004" fill-rule="evenodd"/><path fill="#000000" stroke="#000000" stroke-width="1.0" stroke-linecap="butt" d="m278.4384 129.46362l-1.5890503 4.560425l4.1486816 -2.4720612z" fill-rule="evenodd"/><path fill="#000000" fill-opacity="0.0" d="m292.3214 35.845596l20.59845 20.598423" fill-rule="evenodd"/><path stroke="#000000" stroke-width="1.0" stroke-linejoin="round" stroke-linecap="butt" d="m292.3214 35.845596l16.355804 16.355785" fill-rule="evenodd"/><path fill="#000000" stroke="#000000" stroke-width="1.0" stroke-linecap="butt" d="m307.50925 53.36933l4.376892 2.0409698l-2.040985 -4.376873z" fill-rule="evenodd"/><path fill="#000000" fill-opacity="0.0" d="m312.9162 77.3752l-13.259827 16.251968" fill-rule="evenodd"/><path stroke="#000000" stroke-width="1.0" stroke-linejoin="round" stroke-linecap="butt" d="m312.91623 77.3752l-9.466827 11.603004" fill-rule="evenodd"/><path fill="#000000" stroke="#000000" stroke-width="1.0" stroke-linecap="butt" d="m302.16962 87.93402l-1.5890808 4.560425l4.1486816 -2.4720612z" fill-rule="evenodd"/><path fill="#000000" fill-opacity="0.0" d="m333.851 77.3752l13.259857 16.251968" fill-rule="evenodd"/><path stroke="#000000" stroke-width="1.0" stroke-linejoin="round" stroke-linecap="butt" d="m333.85104 77.3752l9.466766 11.603004" fill-rule="evenodd"/><path fill="#000000" stroke="#000000" stroke-width="1.0" stroke-linecap="butt" d="m342.038 90.022385l4.1486816 2.4720612l-1.5890503 -4.560425z" fill-rule="evenodd"/><path fill="#000000" fill-opacity="0.0" d="m229.85701 77.3752l-13.259842 16.251968" fill-rule="evenodd"/><path stroke="#000000" stroke-width="1.0" stroke-linejoin="round" stroke-linecap="butt" d="m229.85701 77.3752l-9.466797 11.603004" fill-rule="evenodd"/><path fill="#000000" stroke="#000000" stroke-width="1.0" stroke-linecap="butt" d="m219.11041 87.93402l-1.5890656 4.560425l4.1486816 -2.4720612z" fill-rule="evenodd"/><path fill="#000000" fill-opacity="0.0" d="m491.69656 25.37819c0 -8.175554 6.627594 -14.80315 14.803131 -14.80315c3.926056 0 7.691284 1.5596123 10.467407 4.335742c2.776123 2.7761297 4.3357544 6.5413675 4.3357544 10.467408c0 8.175552 -6.6276245 14.80315 -14.803162 14.80315c-8.175537 0 -14.803131 -6.627598 -14.803131 -14.80315z" fill-rule="evenodd"/><path stroke="#000000" stroke-width="1.0" stroke-linejoin="round" stroke-linecap="butt" d="m491.69656 25.37819c0 -8.175554 6.627594 -14.80315 14.803131 -14.80315c3.926056 0 7.691284 1.5596123 10.467407 4.335742c2.776123 2.7761297 4.3357544 6.5413675 4.3357544 10.467408c0 8.175552 -6.6276245 14.80315 -14.803162 14.80315c-8.175537 0 -14.803131 -6.627598 -14.803131 -14.80315z" fill-rule="evenodd"/><path fill="#000000" d="m510.4087 32.287018l-7.109375 0l0 -13.6875l7.109375 0l0 1.53125l-5.359375 0l0 4.234375l5.0 0l0 1.515625l-5.0 0l0 4.875l5.359375 0l0 1.53125z" fill-rule="nonzero"/><path fill="#000000" fill-opacity="0.0" d="m457.52127 66.90779c0 -8.175556 6.627594 -14.803154 14.803131 -14.803154c3.926056 0 7.691284 1.5596161 10.467407 4.335743c2.7761536 2.7761307 4.3357544 6.5413704 4.3357544 10.467411c0 8.175552 -6.627594 14.803146 -14.803162 14.803146c-8.175537 0 -14.803131 -6.627594 -14.803131 -14.803146z" fill-rule="evenodd"/><path stroke="#000000" stroke-width="1.0" stroke-linejoin="round" stroke-linecap="butt" d="m457.52127 66.90779c0 -8.175556 6.627594 -14.803154 14.803131 -14.803154c3.926056 0 7.691284 1.5596161 10.467407 4.335743c2.7761536 2.7761307 4.3357544 6.5413704 4.3357544 10.467411c0 8.175552 -6.627594 14.803146 -14.803162 14.803146c-8.175537 0 -14.803131 -6.627594 -14.803131 -14.803146z" fill-rule="evenodd"/><path fill="#000000" d="m468.23 60.12912l3.734375 0q1.203125 0 2.109375 0.1875q0.921875 0.171875 1.53125 0.59375q0.609375 0.40625 0.921875 1.0625q0.3125 0.65625 0.3125 1.625q0 0.578125 -0.1875 1.09375q-0.1875 0.5 -0.53125 0.890625q-0.34375 0.375 -0.859375 0.640625q-0.5 0.25 -1.15625 0.328125l0 0.09375q0.65625 0.109375 1.21875 0.328125q0.5625 0.203125 0.984375 0.578125q0.421875 0.375 0.65625 0.9375q0.25 0.546875 0.25 1.359375q0 0.9375 -0.3125 1.671875q-0.296875 0.734375 -0.875 1.25q-0.5625 0.5 -1.390625 0.78125q-0.828125 0.265625 -1.859375 0.265625l-4.546875 0l0 -13.6875zm1.75 5.8125l2.28125 0q0.78125 0 1.3125 -0.140625q0.53125 -0.140625 0.859375 -0.421875q0.328125 -0.28125 0.46875 -0.6875q0.15625 -0.421875 0.15625 -0.96875q0 -1.125 -0.71875 -1.609375q-0.71875 -0.5 -2.28125 -0.5l-2.078125 0l0 4.328125zm0 1.453125l0 4.9375l2.484375 0q0.828125 0 1.375 -0.1875q0.5625 -0.1875 0.90625 -0.515625q0.34375 -0.34375 0.484375 -0.8125q0.15625 -0.46875 0.15625 -1.046875q0 -0.515625 -0.15625 -0.953125q-0.15625 -0.453125 -0.515625 -0.765625q-0.34375 -0.3125 -0.921875 -0.484375q-0.578125 -0.171875 -1.4375 -0.171875l-2.375 0z" fill-rule="nonzero"/><path fill="#000000" fill-opacity="0.0" d="m462.81436 149.967c0 -8.175568 6.627594 -14.803162 14.803162 -14.803162c3.9260254 0 7.691284 1.5596161 10.467407 4.3357544c2.776123 2.776123 4.3357544 6.5413666 4.3357544 10.467407c0 8.175552 -6.627594 14.803146 -14.803162 14.803146c-8.175568 0 -14.803162 -6.627594 -14.803162 -14.803146z" fill-rule="evenodd"/><path stroke="#000000" stroke-width="1.0" stroke-linejoin="round" stroke-linecap="butt" d="m462.81436 149.967c0 -8.175568 6.627594 -14.803162 14.803162 -14.803162c3.9260254 0 7.691284 1.5596161 10.467407 4.3357544c2.776123 2.776123 4.3357544 6.5413666 4.3357544 10.467407c0 8.175552 -6.627594 14.803146 -14.803162 14.803146c-8.175568 0 -14.803162 -6.627594 -14.803162 -14.803146z" fill-rule="evenodd"/><path fill="#000000" d="m479.25882 144.53207q-1.0 0 -1.8125 0.375q-0.8125 0.375 -1.390625 1.09375q-0.578125 0.703125 -0.890625 1.734375q-0.3125 1.015625 -0.3125 2.296875q0 1.328125 0.265625 2.359375q0.28125 1.015625 0.828125 1.71875q0.5625 0.703125 1.375 1.0625q0.828125 0.359375 1.9375 0.359375q0.828125 0 1.578125 -0.15625q0.75 -0.171875 1.484375 -0.375l0 1.515625q-0.359375 0.140625 -0.734375 0.25q-0.359375 0.09375 -0.765625 0.15625q-0.390625 0.078125 -0.84375 0.109375q-0.453125 0.03125 -1.0 0.03125q-1.546875 0 -2.671875 -0.5q-1.125 -0.515625 -1.859375 -1.4375q-0.734375 -0.921875 -1.09375 -2.21875q-0.34375 -1.3125 -0.34375 -2.890625q0 -1.5625 0.40625 -2.84375q0.40625 -1.296875 1.1875 -2.21875q0.796875 -0.9375 1.96875 -1.4375q1.171875 -0.515625 2.6875 -0.515625q1.015625 0 1.921875 0.203125q0.921875 0.203125 1.671875 0.59375l-0.734375 1.453125q-0.59375 -0.296875 -1.296875 -0.5q-0.6875 -0.21875 -1.5625 -0.21875z" fill-rule="nonzero"/><path fill="#000000" fill-opacity="0.0" d="m529.0237 66.90779c0 -8.175556 6.6276245 -14.803154 14.803162 -14.803154c3.9260254 0 7.691284 1.5596161 10.467407 4.335743c2.776123 2.7761307 4.3357544 6.5413704 4.3357544 10.467411c0 8.175552 -6.6276245 14.803146 -14.803162 14.803146c-8.175537 0 -14.803162 -6.627594 -14.803162 -14.803146z" fill-rule="evenodd"/><path stroke="#000000" stroke-width="1.0" stroke-linejoin="round" stroke-linecap="butt" d="m529.0237 66.90779c0 -8.175556 6.6276245 -14.803154 14.803162 -14.803154c3.9260254 0 7.691284 1.5596161 10.467407 4.335743c2.776123 2.7761307 4.3357544 6.5413704 4.3357544 10.467411c0 8.175552 -6.6276245 14.803146 -14.803162 14.803146c-8.175537 0 -14.803162 -6.627594 -14.803162 -14.803146z" fill-rule="evenodd"/><path fill="#000000" d="m542.7275 73.81662l-1.75 0l0 -13.6875l7.109375 0l0 1.53125l-5.359375 0l0 4.828125l5.0 0l0 1.546875l-5.0 0l0 5.78125z" fill-rule="nonzero"/><path fill="#000000" fill-opacity="0.0" d="m481.29248 108.437386c0 -8.175552 6.6276245 -14.803146 14.803162 -14.803146c3.926056 0 7.691284 1.5596161 10.467407 4.335739c2.776123 2.7761307 4.3357544 6.541374 4.3357544 10.467407c0 8.17556 -6.627594 14.803154 -14.803162 14.803154c-8.175537 0 -14.803162 -6.627594 -14.803162 -14.803154z" fill-rule="evenodd"/><path stroke="#000000" stroke-width="1.0" stroke-linejoin="round" stroke-linecap="butt" d="m481.29248 108.437386c0 -8.175552 6.6276245 -14.803146 14.803162 -14.803146c3.926056 0 7.691284 1.5596161 10.467407 4.335739c2.776123 2.7761307 4.3357544 6.541374 4.3357544 10.467407c0 8.17556 -6.627594 14.803154 -14.803162 14.803154c-8.175537 0 -14.803162 -6.627594 -14.803162 -14.803154z" fill-rule="evenodd"/><path fill="#000000" d="m501.4756 108.37747q0 1.71875 -0.453125 3.03125q-0.4375 1.3125 -1.296875 2.1875q-0.84375 0.875 -2.09375 1.3125q-1.234375 0.4375 -2.796875 0.4375l-3.4375 0l0 -13.6875l3.8125 0q1.4375 0 2.59375 0.4375q1.15625 0.421875 1.96875 1.28125q0.828125 0.84375 1.265625 2.09375q0.4375 1.25 0.4375 2.90625zm-1.84375 0.046875q0 -1.359375 -0.3125 -2.359375q-0.296875 -1.0 -0.890625 -1.640625q-0.59375 -0.65625 -1.453125 -0.96875q-0.859375 -0.3125 -1.953125 -0.3125l-1.875 0l0 10.703125l1.515625 0q2.46875 0 3.71875 -1.359375q1.25 -1.375 1.25 -4.0625z" fill-rule="nonzero"/><path fill="#000000" fill-opacity="0.0" d="m550.6537 108.437386c0 -8.175552 6.6275635 -14.803146 14.803101 -14.803146c3.9260864 0 7.691284 1.5596161 10.467407 4.335739c2.776184 2.7761307 4.3357544 6.541374 4.3357544 10.467407c0 8.17556 -6.6275635 14.803154 -14.803162 14.803154c-8.175537 0 -14.803101 -6.627594 -14.803101 -14.803154z" fill-rule="evenodd"/><path stroke="#000000" stroke-width="1.0" stroke-linejoin="round" stroke-linecap="butt" d="m550.6537 108.437386c0 -8.175552 6.6275635 -14.803146 14.803101 -14.803146c3.9260864 0 7.691284 1.5596161 10.467407 4.335739c2.776184 2.7761307 4.3357544 6.541374 4.3357544 10.467407c0 8.17556 -6.6275635 14.803154 -14.803162 14.803154c-8.175537 0 -14.803101 -6.627594 -14.803101 -14.803154z" fill-rule="evenodd"/><path fill="#000000" d="m566.1712 108.11185l4.515625 0l0 6.71875q-0.5 0.171875 -1.03125 0.3125q-0.53125 0.125 -1.078125 0.203125q-0.546875 0.09375 -1.15625 0.140625q-0.609375 0.046875 -1.3125 0.046875q-1.46875 0 -2.609375 -0.484375q-1.125 -0.5 -1.90625 -1.40625q-0.78125 -0.921875 -1.1875 -2.21875q-0.390625 -1.3125 -0.390625 -2.9375q0 -1.609375 0.4375 -2.90625q0.453125 -1.3125 1.296875 -2.21875q0.859375 -0.921875 2.109375 -1.40625q1.25 -0.484375 2.84375 -0.484375q1.046875 0 2.0 0.203125q0.953125 0.203125 1.78125 0.59375l-0.671875 1.515625q-0.34375 -0.15625 -0.734375 -0.296875q-0.390625 -0.140625 -0.796875 -0.25q-0.40625 -0.109375 -0.84375 -0.171875q-0.4375 -0.0625 -0.875 -0.0625q-1.140625 0 -2.015625 0.375q-0.875 0.375 -1.484375 1.09375q-0.59375 0.703125 -0.90625 1.734375q-0.296875 1.015625 -0.296875 2.296875q0 1.21875 0.25 2.234375q0.265625 1.0 0.828125 1.734375q0.5625 0.734375 1.453125 1.140625q0.890625 0.390625 2.140625 0.390625q0.40625 0 0.75 -0.015625q0.34375 -0.03125 0.625 -0.0625q0.296875 -0.03125 0.546875 -0.078125q0.265625 -0.0625 0.515625 -0.109375l0 -4.078125l-2.796875 0l0 -1.546875z" fill-rule="nonzero"/><path fill="#000000" fill-opacity="0.0" d="m433.79007 108.437386c0 -8.175552 6.627594 -14.803146 14.803131 -14.803146c3.926056 0 7.691284 1.5596161 10.467407 4.335739c2.7761536 2.7761307 4.3357544 6.541374 4.3357544 10.467407c0 8.17556 -6.627594 14.803154 -14.803162 14.803154c-8.175537 0 -14.803131 -6.627594 -14.803131 -14.803154z" fill-rule="evenodd"/><path stroke="#000000" stroke-width="1.0" stroke-linejoin="round" stroke-linecap="butt" d="m433.79007 108.437386c0 -8.175552 6.627594 -14.803146 14.803131 -14.803146c3.926056 0 7.691284 1.5596161 10.467407 4.335739c2.7761536 2.7761307 4.3357544 6.541374 4.3357544 10.467407c0 8.17556 -6.627594 14.803154 -14.803162 14.803154c-8.175537 0 -14.803131 -6.627594 -14.803131 -14.803154z" fill-rule="evenodd"/><path fill="#000000" d="m452.6408 115.34622l-1.5 -4.234375l-5.09375 0l-1.515625 4.234375l-1.765625 0l5.03125 -13.75l1.59375 0l5.03125 13.75l-1.78125 0zm-2.046875 -5.78125l-1.390625 -3.96875q-0.046875 -0.171875 -0.140625 -0.40625q-0.078125 -0.25 -0.15625 -0.53125q-0.078125 -0.28125 -0.171875 -0.578125q-0.078125 -0.3125 -0.15625 -0.609375q-0.0625 0.296875 -0.15625 0.609375q-0.078125 0.296875 -0.171875 0.59375q-0.078125 0.28125 -0.15625 0.53125q-0.078125 0.234375 -0.125 0.390625l-1.359375 3.96875l3.984375 0z" fill-rule="nonzero"/><path fill="#000000" fill-opacity="0.0" d="m496.0323 35.845596l-13.2283325 20.598423" fill-rule="evenodd"/><path stroke="#000000" stroke-width="1.0" stroke-linejoin="round" stroke-linecap="butt" d="m496.03232 35.845596l-9.986145 15.549847" fill-rule="evenodd"/><path fill="#000000" stroke="#000000" stroke-width="1.0" stroke-linecap="butt" d="m484.65637 50.502903l-1.062439 4.711029l3.8420715 -2.9259453z" fill-rule="evenodd"/><path fill="#000000" fill-opacity="0.0" d="m485.62823 118.90479l-8.0 16.251976" fill-rule="evenodd"/><path stroke="#000000" stroke-width="1.0" stroke-linejoin="round" stroke-linecap="butt" d="m485.62823 118.90479l-5.350128 10.868813" fill-rule="evenodd"/><path fill="#000000" stroke="#000000" stroke-width="1.0" stroke-linecap="butt" d="m478.79617 129.04414l-0.52230835 4.80101l3.486145 -3.3420715z" fill-rule="evenodd"/><path fill="#000000" fill-opacity="0.0" d="m516.9671 35.845596l16.37799 20.598423" fill-rule="evenodd"/><path stroke="#000000" stroke-width="1.0" stroke-linejoin="round" stroke-linecap="butt" d="m516.9671 35.845596l12.64386 15.902023" fill-rule="evenodd"/><path fill="#000000" stroke="#000000" stroke-width="1.0" stroke-linecap="butt" d="m528.31805 52.775585l4.1171875 2.5241547l-1.5314331 -4.5800858z" fill-rule="evenodd"/><path fill="#000000" fill-opacity="0.0" d="m482.7918 77.3752l13.291351 16.251968" fill-rule="evenodd"/><path stroke="#000000" stroke-width="1.0" stroke-linejoin="round" stroke-linecap="butt" d="m482.79184 77.3752l9.492889 11.607422" fill-rule="evenodd"/><path fill="#000000" stroke="#000000" stroke-width="1.0" stroke-linecap="butt" d="m491.00613 90.02829l4.1515503 2.4672318l-1.5943604 -4.558571z" fill-rule="evenodd"/><path fill="#000000" fill-opacity="0.0" d="m554.29425 77.3752l11.149597 16.251968" fill-rule="evenodd"/><path stroke="#000000" stroke-width="1.0" stroke-linejoin="round" stroke-linecap="butt" d="m554.29425 77.3752l7.75531 11.304359" fill-rule="evenodd"/><path fill="#000000" stroke="#000000" stroke-width="1.0" stroke-linecap="butt" d="m560.68756 89.61397l3.9292603 2.8077087l-1.2052612 -4.676529z" fill-rule="evenodd"/><path fill="#000000" fill-opacity="0.0" d="m461.857 77.3752l-13.259827 16.251968" fill-rule="evenodd"/><path stroke="#000000" stroke-width="1.0" stroke-linejoin="round" stroke-linecap="butt" d="m461.857 77.3752l-9.466766 11.603004" fill-rule="evenodd"/><path fill="#000000" stroke="#000000" stroke-width="1.0" stroke-linecap="butt" d="m451.11038 87.93402l-1.5890503 4.560425l4.1486816 -2.4720612z" fill-rule="evenodd"/><path fill="#000000" fill-opacity="0.0" d="m631.08026 27.668264c0 -8.175554 6.6275635 -14.803149 14.803162 -14.803149c3.9260254 0 7.691284 1.5596132 10.467407 4.335742c2.776123 2.7761288 4.3357544 6.5413685 4.3357544 10.467407c0 8.175554 -6.6276245 14.803148 -14.803162 14.803148c-8.175598 0 -14.803162 -6.627594 -14.803162 -14.803148z" fill-rule="evenodd"/><path stroke="#000000" stroke-width="1.0" stroke-linejoin="round" stroke-linecap="butt" d="m631.08026 27.668264c0 -8.175554 6.6275635 -14.803149 14.803162 -14.803149c3.9260254 0 7.691284 1.5596132 10.467407 4.335742c2.776123 2.7761288 4.3357544 6.5413685 4.3357544 10.467407c0 8.175554 -6.6276245 14.803148 -14.803162 14.803148c-8.175598 0 -14.803162 -6.627594 -14.803162 -14.803148z" fill-rule="evenodd"/><path fill="#000000" d="m649.931 34.577095l-1.5 -4.234375l-5.09375 0l-1.515625 4.234375l-1.765625 0l5.03125 -13.75l1.59375 0l5.03125 13.75l-1.78125 0zm-2.046875 -5.78125l-1.390625 -3.96875q-0.046875 -0.171875 -0.140625 -0.40625q-0.078125 -0.25 -0.15625 -0.53125q-0.078125 -0.28125 -0.171875 -0.578125q-0.078125 -0.3125 -0.15625 -0.609375q-0.0625 0.296875 -0.15625 0.609375q-0.078125 0.296875 -0.171875 0.59375q-0.078125 0.28125 -0.15625 0.53125q-0.078125 0.234375 -0.125 0.390625l-1.359375 3.96875l3.984375 0z" fill-rule="nonzero"/><path fill="#000000" fill-opacity="0.0" d="m813.0908 226.14465c0 -8.175552 6.6276245 -14.803162 14.803162 -14.803162c3.9260254 0 7.691284 1.5596161 10.467407 4.3357544c2.776123 2.776123 4.3357544 6.5413666 4.3357544 10.467407c0 8.175552 -6.6276245 14.803146 -14.803162 14.803146c-8.175537 0 -14.803162 -6.627594 -14.803162 -14.803146z" fill-rule="evenodd"/><path stroke="#000000" stroke-width="1.0" stroke-linejoin="round" stroke-linecap="butt" d="m813.0908 226.14465c0 -8.175552 6.6276245 -14.803162 14.803162 -14.803162c3.9260254 0 7.691284 1.5596161 10.467407 4.3357544c2.776123 2.776123 4.3357544 6.5413666 4.3357544 10.467407c0 8.175552 -6.6276245 14.803146 -14.803162 14.803146c-8.175537 0 -14.803162 -6.627594 -14.803162 -14.803146z" fill-rule="evenodd"/><path fill="#000000" d="m828.60834 225.8191l4.515625 0l0 6.71875q-0.5 0.171875 -1.03125 0.3125q-0.53125 0.125 -1.078125 0.203125q-0.546875 0.09375 -1.15625 0.140625q-0.609375 0.046875 -1.3125 0.046875q-1.46875 0 -2.609375 -0.484375q-1.125 -0.5 -1.90625 -1.40625q-0.78125 -0.921875 -1.1875 -2.21875q-0.390625 -1.3125 -0.390625 -2.9375q0 -1.609375 0.4375 -2.90625q0.453125 -1.3125 1.296875 -2.21875q0.859375 -0.921875 2.109375 -1.40625q1.25 -0.484375 2.84375 -0.484375q1.046875 0 2.0 0.203125q0.953125 0.203125 1.78125 0.59375l-0.671875 1.515625q-0.34375 -0.15625 -0.734375 -0.296875q-0.390625 -0.140625 -0.796875 -0.25q-0.40625 -0.109375 -0.84375 -0.171875q-0.4375 -0.0625 -0.875 -0.0625q-1.140625 0 -2.015625 0.375q-0.875 0.375 -1.484375 1.09375q-0.59375 0.703125 -0.90625 1.734375q-0.296875 1.015625 -0.296875 2.296875q0 1.21875 0.25 2.234375q0.265625 1.0 0.828125 1.734375q0.5625 0.734375 1.453125 1.140625q0.890625 0.390625 2.140625 0.390625q0.40625 0 0.75 -0.015625q0.34375 -0.03125 0.625 -0.0625q0.296875 -0.03125 0.546875 -0.078125q0.265625 -0.0625 0.515625 -0.109375l0 -4.078125l-2.796875 0l0 -1.546875z" fill-rule="nonzero"/><path fill="#000000" fill-opacity="0.0" d="m753.8582 159.52248c0 -8.175552 6.6276245 -14.803146 14.803162 -14.803146c3.9260254 0 7.691284 1.5596161 10.467407 4.335739c2.776123 2.776123 4.3357544 6.5413666 4.3357544 10.467407c0 8.175552 -6.6276245 14.803146 -14.803162 14.803146c-8.175537 0 -14.803162 -6.627594 -14.803162 -14.803146z" fill-rule="evenodd"/><path stroke="#000000" stroke-width="1.0" stroke-linejoin="round" stroke-linecap="butt" d="m753.8582 159.52248c0 -8.175552 6.6276245 -14.803146 14.803162 -14.803146c3.9260254 0 7.691284 1.5596161 10.467407 4.335739c2.776123 2.776123 4.3357544 6.5413666 4.3357544 10.467407c0 8.175552 -6.6276245 14.803146 -14.803162 14.803146c-8.175537 0 -14.803162 -6.627594 -14.803162 -14.803146z" fill-rule="evenodd"/><path fill="#000000" d="m772.5704 166.4313l-7.109375 0l0 -13.6875l7.109375 0l0 1.53125l-5.359375 0l0 4.234375l5.0 0l0 1.515625l-5.0 0l0 4.875l5.359375 0l0 1.53125z" fill-rule="nonzero"/><path fill="#000000" fill-opacity="0.0" d="m663.0831 61.961224c0 -8.175552 6.6276245 -14.80315 14.803162 -14.80315c3.9260254 0 7.691284 1.5596123 10.467407 4.335743c2.776123 2.7761307 4.3357544 6.5413666 4.3357544 10.467407c0 8.175556 -6.6276245 14.80315 -14.803162 14.80315c-8.175537 0 -14.803162 -6.627594 -14.803162 -14.80315z" fill-rule="evenodd"/><path stroke="#000000" stroke-width="1.0" stroke-linejoin="round" stroke-linecap="butt" d="m663.0831 61.961224c0 -8.175552 6.6276245 -14.80315 14.803162 -14.80315c3.9260254 0 7.691284 1.5596123 10.467407 4.335743c2.776123 2.7761307 4.3357544 6.5413666 4.3357544 10.467407c0 8.175556 -6.6276245 14.80315 -14.803162 14.80315c-8.175537 0 -14.803162 -6.627594 -14.803162 -14.80315z" fill-rule="evenodd"/><path fill="#000000" d="m673.7919 55.182552l3.734375 0q1.203125 0 2.109375 0.1875q0.921875 0.171875 1.53125 0.59375q0.609375 0.40625 0.921875 1.0625q0.3125 0.65625 0.3125 1.625q0 0.578125 -0.1875 1.09375q-0.1875 0.5 -0.53125 0.890625q-0.34375 0.375 -0.859375 0.640625q-0.5 0.25 -1.15625 0.328125l0 0.09375q0.65625 0.109375 1.21875 0.328125q0.5625 0.203125 0.984375 0.578125q0.421875 0.375 0.65625 0.9375q0.25 0.5468788 0.25 1.3593788q0 0.9375 -0.3125 1.671875q-0.296875 0.734375 -0.875 1.25q-0.5625 0.5 -1.390625 0.78125q-0.828125 0.265625 -1.859375 0.265625l-4.546875 0l0 -13.687504zm1.75 5.8125l2.28125 0q0.78125 0 1.3125 -0.140625q0.53125 -0.140625 0.859375 -0.421875q0.328125 -0.28125 0.46875 -0.6875q0.15625 -0.421875 0.15625 -0.96875q0 -1.125 -0.71875 -1.609375q-0.71875 -0.5 -2.28125 -0.5l-2.078125 0l0 4.328125zm0 1.453125l0 4.937504l2.484375 0q0.828125 0 1.375 -0.1875q0.5625 -0.1875 0.90625 -0.515625q0.34375 -0.34375 0.484375 -0.8125q0.15625 -0.46875 0.15625 -1.046875q0 -0.515625 -0.15625 -0.9531288q-0.15625 -0.453125 -0.515625 -0.765625q-0.34375 -0.3125 -0.921875 -0.484375q-0.578125 -0.171875 -1.4375 -0.171875l-2.375 0z" fill-rule="nonzero"/><path fill="#000000" fill-opacity="0.0" d="m724.24036 127.03581c0 -8.175552 6.6275635 -14.803146 14.803162 -14.803146c3.9260254 0 7.691223 1.5596085 10.467407 4.335739c2.776123 2.7761307 4.3356934 6.5413666 4.3356934 10.467407c0 8.175552 -6.6275635 14.803146 -14.803101 14.803146c-8.175598 0 -14.803162 -6.627594 -14.803162 -14.803146z" fill-rule="evenodd"/><path stroke="#000000" stroke-width="1.0" stroke-linejoin="round" stroke-linecap="butt" d="m724.24036 127.03581c0 -8.175552 6.6275635 -14.803146 14.803162 -14.803146c3.9260254 0 7.691223 1.5596085 10.467407 4.335739c2.776123 2.7761307 4.3356934 6.5413666 4.3356934 10.467407c0 8.175552 -6.6275635 14.803146 -14.803101 14.803146c-8.175598 0 -14.803162 -6.627594 -14.803162 -14.803146z" fill-rule="evenodd"/><path fill="#000000" d="m744.4234 126.97589q0 1.71875 -0.453125 3.03125q-0.4375 1.3125 -1.296875 2.1875q-0.84375 0.875 -2.09375 1.3125q-1.234375 0.4375 -2.796875 0.4375l-3.4375 0l0 -13.6875l3.8125 0q1.4375 0 2.59375 0.4375q1.15625 0.421875 1.96875 1.28125q0.828125 0.84375 1.265625 2.09375q0.4375 1.25 0.4375 2.90625zm-1.84375 0.046875q0 -1.359375 -0.3125 -2.359375q-0.296875 -1.0 -0.890625 -1.640625q-0.59375 -0.65625 -1.453125 -0.96875q-0.859375 -0.3125 -1.953125 -0.3125l-1.875 0l0 10.703125l1.515625 0q2.46875 0 3.71875 -1.359375q1.25 -1.375 1.25 -4.0625z" fill-rule="nonzero"/><path fill="#000000" fill-opacity="0.0" d="m694.6255 94.53862c0 -8.175552 6.6276245 -14.803154 14.803162 -14.803154c3.9260254 0 7.691284 1.5596161 10.467407 4.335747c2.776123 2.7761307 4.3357544 6.5413666 4.3357544 10.467407c0 8.175552 -6.6276245 14.803146 -14.803162 14.803146c-8.175537 0 -14.803162 -6.627594 -14.803162 -14.803146z" fill-rule="evenodd"/><path stroke="#000000" stroke-width="1.0" stroke-linejoin="round" stroke-linecap="butt" d="m694.6255 94.53862c0 -8.175552 6.6276245 -14.803154 14.803162 -14.803154c3.9260254 0 7.691284 1.5596161 10.467407 4.335747c2.776123 2.7761307 4.3357544 6.5413666 4.3357544 10.467407c0 8.175552 -6.6276245 14.803146 -14.803162 14.803146c-8.175537 0 -14.803162 -6.627594 -14.803162 -14.803146z" fill-rule="evenodd"/><path fill="#000000" d="m711.06995 89.1037q-1.0 0 -1.8125 0.375q-0.8125 0.375 -1.390625 1.09375q-0.578125 0.703125 -0.890625 1.734375q-0.3125 1.015625 -0.3125 2.296875q0 1.328125 0.265625 2.359375q0.28125 1.015625 0.828125 1.71875q0.5625 0.703125 1.375 1.0625q0.828125 0.359375 1.9375 0.359375q0.828125 0 1.578125 -0.15625q0.75 -0.171875 1.484375 -0.375l0 1.515625q-0.359375 0.140625 -0.734375 0.25q-0.359375 0.09375 -0.765625 0.15625q-0.390625 0.078125 -0.84375 0.109375q-0.453125 0.03125 -1.0 0.03125q-1.546875 0 -2.671875 -0.5q-1.125 -0.515625 -1.859375 -1.4375q-0.734375 -0.921875 -1.09375 -2.21875q-0.34375 -1.3125 -0.34375 -2.890625q0 -1.5625 0.40625 -2.84375q0.40625 -1.296875 1.1875 -2.21875q0.796875 -0.9375 1.96875 -1.4375q1.171875 -0.515625 2.6875 -0.515625q1.015625 0 1.921875 0.203125q0.921875 0.203125 1.671875 0.59375l-0.734375 1.453125q-0.59375 -0.296875 -1.296875 -0.5q-0.6875 -0.21875 -1.5625 -0.21875z" fill-rule="nonzero"/><path fill="#000000" fill-opacity="0.0" d="m783.4751 192.78102c0 -8.175552 6.6276245 -14.803146 14.803162 -14.803146c3.9260254 0 7.691284 1.5596008 10.467407 4.335739c2.776123 2.776123 4.3357544 6.5413666 4.3357544 10.467407c0 8.175552 -6.6276245 14.803146 -14.803162 14.803146c-8.175537 0 -14.803162 -6.627594 -14.803162 -14.803146z" fill-rule="evenodd"/><path stroke="#000000" stroke-width="1.0" stroke-linejoin="round" stroke-linecap="butt" d="m783.4751 192.78102c0 -8.175552 6.6276245 -14.803146 14.803162 -14.803146c3.9260254 0 7.691284 1.5596008 10.467407 4.335739c2.776123 2.776123 4.3357544 6.5413666 4.3357544 10.467407c0 8.175552 -6.6276245 14.803146 -14.803162 14.803146c-8.175537 0 -14.803162 -6.627594 -14.803162 -14.803146z" fill-rule="evenodd"/><path fill="#000000" d="m797.1789 199.68985l-1.75 0l0 -13.6875l7.109375 0l0 1.53125l-5.359375 0l0 4.828125l5.0 0l0 1.546875l-5.0 0l0 5.78125z" fill-rule="nonzero"/><path fill="#000000" fill-opacity="0.0" d="m808.74567 203.24843l8.692932 12.4409485" fill-rule="evenodd"/><path stroke="#000000" stroke-width="1.0" stroke-linejoin="round" stroke-linecap="butt" d="m808.74567 203.24843l5.2562866 7.522629" fill-rule="evenodd"/><path fill="#000000" stroke="#000000" stroke-width="1.0" stroke-linecap="butt" d="m812.648 211.7171l3.953247 2.7739105l-1.2453003 -4.6660156z" fill-rule="evenodd"/><path fill="#000000" fill-opacity="0.0" d="m749.5109 137.50322l8.692871 11.5590515" fill-rule="evenodd"/><path stroke="#000000" stroke-width="1.0" stroke-linejoin="round" stroke-linecap="butt" d="m749.5109 137.50322l5.086609 6.7637634" fill-rule="evenodd"/><path fill="#000000" stroke="#000000" stroke-width="1.0" stroke-linecap="butt" d="m753.27747 145.25975l4.0476685 2.6341553l-1.4074707 -4.61969z" fill-rule="evenodd"/><path fill="#000000" fill-opacity="0.0" d="m656.3508 38.135674l11.055115 13.354328" fill-rule="evenodd"/><path stroke="#000000" stroke-width="1.0" stroke-linejoin="round" stroke-linecap="butt" d="m656.3508 38.135674l7.229004 8.732517" fill-rule="evenodd"/><path fill="#000000" stroke="#000000" stroke-width="1.0" stroke-linecap="butt" d="m662.3075 47.921467l4.1661987 2.4424324l-1.621521 -4.5489845z" fill-rule="evenodd"/><path fill="#000000" fill-opacity="0.0" d="m719.89606 105.00603l8.692932 11.5590515" fill-rule="evenodd"/><path stroke="#000000" stroke-width="1.0" stroke-linejoin="round" stroke-linecap="butt" d="m719.89606 105.00603l5.086609 6.7637634" fill-rule="evenodd"/><path fill="#000000" stroke="#000000" stroke-width="1.0" stroke-linecap="butt" d="m723.66266 112.76256l4.0476685 2.6341476l-1.4075317 -4.6196823z" fill-rule="evenodd"/><path fill="#000000" fill-opacity="0.0" d="m688.3537 72.428635l10.614197 11.653542" fill-rule="evenodd"/><path stroke="#000000" stroke-width="1.0" stroke-linejoin="round" stroke-linecap="butt" d="m688.3537 72.428635l6.5739746 7.217705" fill-rule="evenodd"/><path fill="#000000" stroke="#000000" stroke-width="1.0" stroke-linecap="butt" d="m693.7065 80.75856l4.2769775 2.2428207l-1.8347168 -4.46727z" fill-rule="evenodd"/><path fill="#000000" fill-opacity="0.0" d="m779.1288 169.98988l8.692932 12.314957" fill-rule="evenodd"/><path stroke="#000000" stroke-width="1.0" stroke-linejoin="round" stroke-linecap="butt" d="m779.1288 169.98988l5.232788 7.413162" fill-rule="evenodd"/><path fill="#000000" stroke="#000000" stroke-width="1.0" stroke-linecap="butt" d="m783.0122 178.35558l3.9664307 2.7549438l-1.2676392 -4.6600037z" fill-rule="evenodd"/><path fill="#000000" fill-opacity="0.0" d="m113.75948 34.83373c0 -8.175554 6.627594 -14.80315 14.803154 -14.80315c3.9260406 0 7.691269 1.5596123 10.467407 4.335743c2.776123 2.7761288 4.335739 6.5413666 4.335739 10.467407c0 8.175552 -6.627594 14.80315 -14.803146 14.80315c-8.17556 0 -14.803154 -6.627598 -14.803154 -14.80315z" fill-rule="evenodd"/><path stroke="#000000" stroke-width="1.0" stroke-linejoin="round" stroke-linecap="butt" d="m113.75948 34.83373c0 -8.175554 6.627594 -14.80315 14.803154 -14.80315c3.9260406 0 7.691269 1.5596123 10.467407 4.335743c2.776123 2.7761288 4.335739 6.5413666 4.335739 10.467407c0 8.175552 -6.627594 14.80315 -14.803146 14.80315c-8.17556 0 -14.803154 -6.627598 -14.803154 -14.80315z" fill-rule="evenodd"/><path fill="#000000" d="m129.27702 34.508183l4.515625 0l0 6.71875q-0.5 0.171875 -1.03125 0.3125q-0.53125 0.125 -1.078125 0.203125q-0.546875 0.09375 -1.15625 0.140625q-0.609375 0.046875 -1.3125 0.046875q-1.4687576 0 -2.6093826 -0.484375q-1.125 -0.5 -1.90625 -1.40625q-0.78125 -0.921875 -1.1875 -2.21875q-0.390625 -1.3125 -0.390625 -2.9375q0 -1.609375 0.4375 -2.906248q0.453125 -1.3125 1.296875 -2.21875q0.859375 -0.921875 2.109375 -1.40625q1.2500076 -0.484375 2.8437576 -0.484375q1.046875 0 2.0 0.203125q0.953125 0.203125 1.78125 0.59375l-0.671875 1.515625q-0.34375 -0.15625 -0.734375 -0.296875q-0.390625 -0.140625 -0.796875 -0.25q-0.40625 -0.109375 -0.84375 -0.171875q-0.4375 -0.0625 -0.875 -0.0625q-1.140625 0 -2.0156326 0.375q-0.875 0.375 -1.484375 1.09375q-0.59375 0.703125 -0.90625 1.7343731q-0.296875 1.015625 -0.296875 2.296875q0 1.21875 0.25 2.234375q0.265625 1.0 0.828125 1.734375q0.5625 0.734375 1.453125 1.140625q0.8906326 0.390625 2.1406326 0.390625q0.40625 0 0.75 -0.015625q0.34375 -0.03125 0.625 -0.0625q0.296875 -0.03125 0.546875 -0.078125q0.265625 -0.0625 0.515625 -0.109375l0 -4.078125l-2.796875 0l0 -1.546875z" fill-rule="nonzero"/><path fill="#000000" fill-opacity="0.0" d="m82.331116 71.11025c0 -8.175556 6.627594 -14.80315 14.803146 -14.80315c3.9260406 0 7.691284 1.5596123 10.467407 4.335739c2.7761307 2.7761307 4.335747 6.5413704 4.335747 10.467411c0 8.175552 -6.627594 14.803146 -14.803154 14.803146c-8.175552 0 -14.803146 -6.627594 -14.803146 -14.803146z" fill-rule="evenodd"/><path stroke="#000000" stroke-width="1.0" stroke-linejoin="round" stroke-linecap="butt" d="m82.331116 71.11025c0 -8.175556 6.627594 -14.80315 14.803146 -14.80315c3.9260406 0 7.691284 1.5596123 10.467407 4.335739c2.7761307 2.7761307 4.335747 6.5413704 4.335747 10.467411c0 8.175552 -6.627594 14.803146 -14.803154 14.803146c-8.175552 0 -14.803146 -6.627594 -14.803146 -14.803146z" fill-rule="evenodd"/><path fill="#000000" d="m96.03492 78.01908l-1.75 0l0 -13.6875l7.109375 0l0 1.53125l-5.359375 0l0 4.828125l5.0 0l0 1.546875l-5.0 0l0 5.78125z" fill-rule="nonzero"/><path fill="#000000" fill-opacity="0.0" d="m45.118065 197.967c0 -8.175568 6.627594 -14.803162 14.80315 -14.803162c3.9260406 0 7.6912804 1.5596161 10.467403 4.3357544c2.7761307 2.776123 4.335747 6.5413666 4.335747 10.467407c0 8.175552 -6.627594 14.803146 -14.80315 14.803146c-8.175556 0 -14.80315 -6.627594 -14.80315 -14.803146z" fill-rule="evenodd"/><path stroke="#000000" stroke-width="1.0" stroke-linejoin="round" stroke-linecap="butt" d="m45.118065 197.967c0 -8.175568 6.627594 -14.803162 14.80315 -14.803162c3.9260406 0 7.6912804 1.5596161 10.467403 4.3357544c2.7761307 2.776123 4.335747 6.5413666 4.335747 10.467407c0 8.175552 -6.627594 14.803146 -14.80315 14.803146c-8.175556 0 -14.80315 -6.627594 -14.80315 -14.803146z" fill-rule="evenodd"/><path fill="#000000" d="m61.562504 192.53207q-1.0 0 -1.8125 0.375q-0.8125 0.375 -1.390625 1.09375q-0.578125 0.703125 -0.890625 1.734375q-0.3125 1.015625 -0.3125 2.296875q0 1.328125 0.265625 2.359375q0.28125 1.015625 0.828125 1.71875q0.5625 0.703125 1.375 1.0625q0.828125 0.359375 1.9375 0.359375q0.828125 0 1.578125 -0.15625q0.75 -0.171875 1.4843712 -0.375l0 1.515625q-0.359375 0.140625 -0.7343712 0.25q-0.359375 0.09375 -0.765625 0.15625q-0.390625 0.078125 -0.84375 0.109375q-0.453125 0.03125 -1.0 0.03125q-1.546875 0 -2.671875 -0.5q-1.125 -0.515625 -1.859375 -1.4375q-0.734375 -0.921875 -1.09375 -2.21875q-0.34375 -1.3125 -0.34375 -2.890625q0 -1.5625 0.40625 -2.84375q0.40625 -1.296875 1.1875 -2.21875q0.796875 -0.9375 1.96875 -1.4375q1.171875 -0.515625 2.6875 -0.515625q1.015625 0 1.921875 0.203125q0.9218712 0.203125 1.6718712 0.59375l-0.734375 1.453125q-0.5937462 -0.296875 -1.2968712 -0.5q-0.6875 -0.21875 -1.5625 -0.21875z" fill-rule="nonzero"/><path fill="#000000" fill-opacity="0.0" d="m27.407742 154.90779c0 -8.175552 6.627594 -14.803146 14.80315 -14.803146c3.9260368 0 7.6912766 1.5596008 10.467407 4.335739c2.7761269 2.776123 4.335743 6.5413666 4.335743 10.467407c0 8.175552 -6.627598 14.803146 -14.80315 14.803146c-8.175556 0 -14.80315 -6.627594 -14.80315 -14.803146z" fill-rule="evenodd"/><path stroke="#000000" stroke-width="1.0" stroke-linejoin="round" stroke-linecap="butt" d="m27.407742 154.90779c0 -8.175552 6.627594 -14.803146 14.80315 -14.803146c3.9260368 0 7.6912766 1.5596008 10.467407 4.335739c2.7761269 2.776123 4.335743 6.5413666 4.335743 10.467407c0 8.175552 -6.627598 14.803146 -14.80315 14.803146c-8.175556 0 -14.80315 -6.627594 -14.80315 -14.803146z" fill-rule="evenodd"/><path fill="#000000" d="m38.1165 148.12912l3.734375 0q1.203125 0 2.109375 0.1875q0.921875 0.171875 1.53125 0.59375q0.609375 0.40625 0.921875 1.0625q0.3125 0.65625 0.3125 1.625q0 0.578125 -0.1875 1.09375q-0.1875 0.5 -0.53125 0.890625q-0.34375 0.375 -0.859375 0.640625q-0.5 0.25 -1.15625 0.328125l0 0.09375q0.65625 0.109375 1.21875 0.328125q0.5625 0.203125 0.984375 0.578125q0.421875 0.375 0.65625 0.9375q0.25 0.546875 0.25 1.359375q0 0.9375 -0.3125 1.671875q-0.296875 0.734375 -0.875 1.25q-0.5625 0.5 -1.390625 0.78125q-0.828125 0.265625 -1.859375 0.265625l-4.546875 0l0 -13.6875zm1.75 5.8125l2.28125 0q0.78125 0 1.3125 -0.140625q0.53125 -0.140625 0.859375 -0.421875q0.328125 -0.28125 0.46875 -0.6875q0.15625 -0.421875 0.15625 -0.96875q0 -1.125 -0.71875 -1.609375q-0.71875 -0.5 -2.28125 -0.5l-2.078125 0l0 4.328125zm0 1.453125l0 4.9375l2.484375 0q0.828125 0 1.375 -0.1875q0.5625 -0.1875 0.90625 -0.515625q0.34375 -0.34375 0.484375 -0.8125q0.15625 -0.46875 0.15625 -1.046875q0 -0.515625 -0.15625 -0.953125q-0.15625 -0.453125 -0.515625 -0.765625q-0.34375 -0.3125 -0.921875 -0.484375q-0.578125 -0.171875 -1.4375 -0.171875l-2.375 0z" fill-rule="nonzero"/><path fill="#000000" fill-opacity="0.0" d="m9.697418 196.4374c0 -8.175552 6.627596 -14.803146 14.80315 -14.803146c3.9260387 0 7.6912766 1.5596008 10.467407 4.335739c2.7761269 2.776123 4.335743 6.5413666 4.335743 10.467407c0 8.175552 -6.627598 14.803146 -14.80315 14.803146c-8.175554 0 -14.80315 -6.627594 -14.80315 -14.803146z" fill-rule="evenodd"/><path stroke="#000000" stroke-width="1.0" stroke-linejoin="round" stroke-linecap="butt" d="m9.697418 196.4374c0 -8.175552 6.627596 -14.803146 14.80315 -14.803146c3.9260387 0 7.6912766 1.5596008 10.467407 4.335739c2.7761269 2.776123 4.335743 6.5413666 4.335743 10.467407c0 8.175552 -6.627598 14.803146 -14.80315 14.803146c-8.175554 0 -14.80315 -6.627594 -14.80315 -14.803146z" fill-rule="evenodd"/><path fill="#000000" d="m28.548176 203.34622l-1.5 -4.234375l-5.09375 0l-1.515625 4.234375l-1.765625 0l5.03125 -13.75l1.59375 0l5.03125 13.75l-1.78125 0zm-2.046875 -5.78125l-1.390625 -3.96875q-0.046875 -0.171875 -0.140625 -0.40625q-0.078125 -0.25 -0.15625 -0.53125q-0.078125 -0.28125 -0.171875 -0.578125q-0.078125 -0.3125 -0.15625 -0.609375q-0.0625 0.296875 -0.15625 0.609375q-0.078125 0.296875 -0.171875 0.59375q-0.078125 0.28125 -0.15625 0.53125q-0.078125 0.234375 -0.125 0.390625l-1.359375 3.96875l3.984375 0z" fill-rule="nonzero"/><path fill="#000000" fill-opacity="0.0" d="m73.15982 154.33615c0 -8.175552 6.627594 -14.803146 14.803146 -14.803146c3.9260406 0 7.6912766 1.5596161 10.467407 4.335739c2.7761307 2.7761383 4.335747 6.541382 4.335747 10.467407c0 8.175568 -6.6276016 14.803162 -14.803154 14.803162c-8.175552 0 -14.803146 -6.627594 -14.803146 -14.803162z" fill-rule="evenodd"/><path stroke="#000000" stroke-width="1.0" stroke-linejoin="round" stroke-linecap="butt" d="m73.15982 154.33615c0 -8.175552 6.627594 -14.803146 14.803146 -14.803146c3.9260406 0 7.6912766 1.5596161 10.467407 4.335739c2.7761307 2.7761383 4.335747 6.541382 4.335747 10.467407c0 8.175568 -6.6276016 14.803162 -14.803154 14.803162c-8.175552 0 -14.803146 -6.627594 -14.803146 -14.803162z" fill-rule="evenodd"/><path fill="#000000" d="m91.87195 161.245l-7.109375 0l0 -13.6875l7.109375 0l0 1.53125l-5.359375 0l0 4.234375l5.0 0l0 1.515625l-5.0 0l0 4.875l5.359375 0l0 1.53125z" fill-rule="nonzero"/><path fill="#000000" fill-opacity="0.0" d="m50.278286 108.437386c0 -8.175552 6.627598 -14.803146 14.80315 -14.803146c3.9260406 0 7.6912766 1.5596161 10.467407 4.335739c2.7761307 2.7761307 4.335739 6.541374 4.335739 10.467407c0 8.17556 -6.627594 14.803154 -14.803146 14.803154c-8.175552 0 -14.80315 -6.627594 -14.80315 -14.803154z" fill-rule="evenodd"/><path stroke="#000000" stroke-width="1.0" stroke-linejoin="round" stroke-linecap="butt" d="m50.278286 108.437386c0 -8.175552 6.627598 -14.803146 14.80315 -14.803146c3.9260406 0 7.6912766 1.5596161 10.467407 4.335739c2.7761307 2.7761307 4.335739 6.541374 4.335739 10.467407c0 8.17556 -6.627594 14.803154 -14.803146 14.803154c-8.175552 0 -14.80315 -6.627594 -14.80315 -14.803154z" fill-rule="evenodd"/><path fill="#000000" d="m70.461365 108.37747q0 1.71875 -0.453125 3.03125q-0.4375 1.3125 -1.296875 2.1875q-0.84375 0.875 -2.09375 1.3125q-1.234375 0.4375 -2.796875 0.4375l-3.4375 0l0 -13.6875l3.8125 0q1.4375 0 2.59375 0.4375q1.15625 0.421875 1.96875 1.28125q0.828125 0.84375 1.265625 2.09375q0.4375 1.25 0.4375 2.90625zm-1.84375 0.046875q0 -1.359375 -0.3125 -2.359375q-0.296875 -1.0 -0.890625 -1.640625q-0.59375 -0.65625 -1.453125 -0.96875q-0.859375 -0.3125 -1.953125 -0.3125l-1.875 0l0 10.703125l1.515625 0q2.46875 0 3.71875 -1.359375q1.25 -1.375 1.25 -4.0625z" fill-rule="nonzero"/><path fill="#000000" fill-opacity="0.0" d="m118.09522 45.301136l-10.488182 15.338581" fill-rule="evenodd"/><path stroke="#000000" stroke-width="1.0" stroke-linejoin="round" stroke-linecap="butt" d="m118.09523 45.301136l-7.1015472 10.385738" fill-rule="evenodd"/><path fill="#000000" stroke="#000000" stroke-width="1.0" stroke-linecap="butt" d="m109.63022 54.75457l-1.1980209 4.6783867l3.9249496 -2.813774z" fill-rule="evenodd"/><path fill="#000000" fill-opacity="0.0" d="m52.6783 165.3752l7.244095 17.795273" fill-rule="evenodd"/><path stroke="#000000" stroke-width="0.7427821522309711" stroke-linejoin="round" stroke-linecap="butt" d="m52.6783 165.3752l5.563759 13.667496" fill-rule="evenodd"/><path fill="#000000" stroke="#000000" stroke-width="0.7427821522309711" stroke-linecap="butt" d="m57.105724 179.50528l2.4072533 2.6594696l-0.13458633 -3.5846252z" fill-rule="evenodd"/><path fill="#000000" fill-opacity="0.0" d="m54.61403 118.90479l-12.409447 21.196846" fill-rule="evenodd"/><path stroke="#000000" stroke-width="1.0" stroke-linejoin="round" stroke-linecap="butt" d="m54.61403 118.90479l-9.378094 16.018929" fill-rule="evenodd"/><path fill="#000000" stroke="#000000" stroke-width="1.0" stroke-linecap="butt" d="m43.810513 134.08922l-0.8673401 4.750824l3.7181854 -3.0818176z" fill-rule="evenodd"/><path fill="#000000" fill-opacity="0.0" d="m31.743484 165.3752l-7.244095 16.251968" fill-rule="evenodd"/><path stroke="#000000" stroke-width="0.7427821522309711" stroke-linejoin="round" stroke-linecap="butt" d="m31.743484 165.3752l-5.4296703 12.181351" fill-rule="evenodd"/><path fill="#000000" stroke="#000000" stroke-width="0.7427821522309711" stroke-linecap="butt" d="m25.193216 177.05705l-0.2517414 3.578308l2.4929352 -2.5793152z" fill-rule="evenodd"/><path fill="#000000" fill-opacity="0.0" d="m75.54884 118.90479l12.409447 20.629921" fill-rule="evenodd"/><path stroke="#000000" stroke-width="1.0" stroke-linejoin="round" stroke-linecap="butt" d="m75.54884 118.90479l9.316704 15.488441" fill-rule="evenodd"/><path fill="#000000" stroke="#000000" stroke-width="1.0" stroke-linecap="butt" d="m83.45016 135.24463l3.7545853 3.0373535l-0.9237976 -4.740158z" fill-rule="evenodd"/><path fill="#000000" fill-opacity="0.0" d="m86.666855 81.57766l-11.118111 16.377953" fill-rule="evenodd"/><path stroke="#000000" stroke-width="1.0" stroke-linejoin="round" stroke-linecap="butt" d="m86.66686 81.57766l-7.748169 11.413727" fill-rule="evenodd"/><path fill="#000000" stroke="#000000" stroke-width="1.0" stroke-linecap="butt" d="m77.55209 92.06368l-1.1822586 4.6823883l3.915451 -2.826973z" fill-rule="evenodd"/></g></svg>