<svg version="1.1" viewBox="0.0 0.0 752.7454068241469 145.7742782152231" fill="none" stroke="none" stroke-linecap="square" stroke-miterlimit="10" xmlns:xlink="http://www.w3.org/1999/xlink" xmlns="http://www.w3.org/2000/svg"><clipPath id="p.0"><path d="m0 0l752.7454 0l0 145.77428l-752.7454 0l0 -145.77428z" clip-rule="nonzero"/></clipPath><g clip-path="url(#p.0)"><path fill="#000000" fill-opacity="0.0" d="m0 0l752.7454 0l0 145.77428l-752.7454 0z" fill-rule="evenodd"/><path fill="#000000" d="m298.2756 112.57423c0 -2.0873795 1.6921387 -3.7795334 3.7795105 -3.7795334c1.0024109 0 1.9637451 0.398201 2.6725464 1.1070023c0.70877075 0.70879364 1.1069946 1.6701355 1.1069946 2.6725311c0 2.0873718 -1.6921692 3.7795258 -3.779541 3.7795258c-2.0873718 0 -3.7795105 -1.6921539 -3.7795105 -3.7795258z" fill-rule="evenodd"/><path stroke="#000000" stroke-width="1.0" stroke-linejoin="round" stroke-linecap="butt" d="m298.2756 112.57423c0 -2.0873795 1.6921387 -3.7795334 3.7795105 -3.7795334c1.0024109 0 1.9637451 0.398201 2.6725464 1.1070023c0.70877075 0.70879364 1.1069946 1.6701355 1.1069946 2.6725311c0 2.0873718 -1.6921692 3.7795258 -3.779541 3.7795258c-2.0873718 0 -3.7795105 -1.6921539 -3.7795105 -3.7795258z" fill-rule="evenodd"/><path fill="#000000" d="m264.25986 112.57423c0 -2.0873795 1.6921387 -3.7795334 3.7795105 -3.7795334c1.0023804 0 1.9637451 0.398201 2.6725464 1.1070023c0.70877075 0.70879364 1.1069946 1.6701355 1.1069946 2.6725311c0 2.0873718 -1.6921692 3.7795258 -3.779541 3.7795258c-2.0873718 0 -3.7795105 -1.6921539 -3.7795105 -3.7795258z" fill-rule="evenodd"/><path stroke="#000000" stroke-width="1.0" stroke-linejoin="round" stroke-linecap="butt" d="m264.25986 112.57423c0 -2.0873795 1.6921387 -3.7795334 3.7795105 -3.7795334c1.0023804 0 1.9637451 0.398201 2.6725464 1.1070023c0.70877075 0.70879364 1.1069946 1.6701355 1.1069946 2.6725311c0 2.0873718 -1.6921692 3.7795258 -3.779541 3.7795258c-2.0873718 0 -3.7795105 -1.6921539 -3.7795105 -3.7795258z" fill-rule="evenodd"/><path fill="#000000" d="m335.87784 112.57423c0 -2.0873795 1.6921387 -3.7795334 3.7795105 -3.7795334c1.0024109 0 1.9637451 0.398201 2.6725464 1.1070023c0.70880127 0.70879364 1.1069946 1.6701355 1.1069946 2.6725311c0 2.0873718 -1.6921387 3.7795258 -3.779541 3.7795258c-2.0873718 0 -3.7795105 -1.6921539 -3.7795105 -3.7795258z" fill-rule="evenodd"/><path stroke="#000000" stroke-width="1.0" stroke-linejoin="round" stroke-linecap="butt" d="m335.87784 112.57423c0 -2.0873795 1.6921387 -3.7795334 3.7795105 -3.7795334c1.0024109 0 1.9637451 0.398201 2.6725464 1.1070023c0.70880127 0.70879364 1.1069946 1.6701355 1.1069946 2.6725311c0 2.0873718 -1.6921387 3.7795258 -3.779541 3.7795258c-2.0873718 0 -3.7795105 -1.6921539 -3.7795105 -3.7795258z" fill-rule="evenodd"/><path fill="#000000" fill-opacity="0.0" d="m264.25986 85.83868c0 -5.489586 4.450165 -9.939774 9.939758 -9.939774l93.50629 0c2.6361694 0 5.164398 1.0472183 7.028473 2.911293c1.8640747 1.8640671 2.9112854 4.392288 2.9112854 7.0284805l0 17.915718c0 5.4895935 -4.4501953 9.939781 -9.939758 9.939781l-93.50629 0c-5.4895935 0 -9.939758 -4.4501877 -9.939758 -9.939781z" fill-rule="evenodd"/><path stroke="#000000" stroke-width="2.0" stroke-linejoin="round" stroke-linecap="butt" d="m264.25986 85.83868c0 -5.489586 4.450165 -9.939774 9.939758 -9.939774l93.50629 0c2.6361694 0 5.164398 1.0472183 7.028473 2.911293c1.8640747 1.8640671 2.9112854 4.392288 2.9112854 7.0284805l0 17.915718c0 5.4895935 -4.4501953 9.939781 -9.939758 9.939781l-93.50629 0c-5.4895935 0 -9.939758 -4.4501877 -9.939758 -9.939781z" fill-rule="evenodd"/><path fill="#000000" d="m284.28812 102.133415q0.65625 0 1.296875 -0.609375q0.65625 -0.609375 1.21875 -1.46875q0.578125 -0.875 1.03125 -1.8125q0.46875 -0.9375 0.734375 -1.546875l0.765625 -4.109375q-0.34375 -0.234375 -0.65625 -0.328125q-0.3125 -0.109375 -0.859375 -0.109375q-1.109375 0 -2.015625 0.6875q-0.890625 0.6875 -1.53125 1.765625q-0.625 1.078125 -0.984375 2.40625q-0.34375 1.3125 -0.34375 2.578125q0 1.234375 0.296875 1.890625q0.3125 0.65625 1.046875 0.65625zm3.796875 -3.5q-0.3125 0.859375 -0.78125 1.75q-0.46875 0.890625 -1.078125 1.609375q-0.609375 0.71875 -1.359375 1.171875q-0.734375 0.453125 -1.578125 0.453125q-2.5 0 -2.5 -3.625q0 -1.671875 0.46875 -3.265625q0.484375 -1.59375 1.390625 -2.84375q0.921875 -1.25 2.234375 -2.0q1.3125 -0.765625 2.96875 -0.765625q0.59375 0 0.953125 0.109375q0.359375 0.109375 0.859375 0.328125q0.96875 -0.5 2.015625 -0.5l-2.15625 10.96875l1.75 0l0 0.59375q-0.46875 0.375 -1.140625 0.625q-0.671875 0.234375 -1.328125 0.234375q-0.6875 0 -1.0 -0.296875q-0.296875 -0.296875 -0.296875 -0.640625q0 -0.421875 0.171875 -1.40625q0.171875 -0.984375 0.5 -2.5l-0.09375 0zm31.777283 -11.671875l-1.6875 -0.203125l0 -0.5625q0.390625 -0.140625 0.84375 -0.28125q0.453125 -0.140625 0.921875 -0.265625q0.46875 -0.140625 0.921875 -0.21875q0.46875 -0.09375 0.84375 -0.140625l0.5 0.265625l-2.109375 10.0l0.125 0q0.4375 -0.859375 0.953125 -1.671875q0.515625 -0.8125 1.09375 -1.4375q0.59375 -0.625 1.234375 -1.0q0.65625 -0.390625 1.375 -0.390625q1.265625 0 2.015625 0.890625q0.75 0.875 0.75 2.75q0 1.84375 -0.515625 3.46875q-0.515625 1.625 -1.453125 2.84375q-0.9375 1.203125 -2.265625 1.90625q-1.3125 0.703125 -2.921875 0.703125q-1.171875 0 -2.203125 -0.296875q-1.015625 -0.296875 -1.5 -0.703125l3.078125 -15.65625zm4.0 5.578125q-0.625 0 -1.21875 0.546875q-0.59375 0.546875 -1.109375 1.328125q-0.515625 0.78125 -0.9375 1.640625q-0.421875 0.84375 -0.71875 1.421875l-0.90625 4.609375q0.359375 0.234375 0.890625 0.375q0.546875 0.125 1.078125 0.125q0.9375 0 1.765625 -0.640625q0.828125 -0.65625 1.453125 -1.703125q0.625 -1.0625 0.984375 -2.390625q0.359375 -1.328125 0.328125 -2.703125q0.03125 -1.15625 -0.359375 -1.875q-0.375 -0.734375 -1.25 -0.734375zm37.18628 8.65625q-0.265625 0.453125 -0.671875 0.890625q-0.40625 0.4375 -0.96875 0.78125q-0.546875 0.34375 -1.234375 0.546875q-0.6875 0.203125 -1.5 0.203125q-1.765625 0 -2.8125 -1.125q-1.03125 -1.125 -1.03125 -3.0625q0 -1.734375 0.546875 -3.25q0.5625 -1.53125 1.5 -2.671875q0.953125 -1.140625 2.234375 -1.796875q1.296875 -0.65625 2.75 -0.65625q0.921875 0 1.5 0.140625q0.578125 0.140625 0.859375 0.40625q0.03125 0.265625 -0.03125 0.59375q-0.0625 0.3125 -0.203125 0.625q-0.125 0.3125 -0.328125 0.578125q-0.203125 0.265625 -0.421875 0.359375l-1.625 -1.671875q-0.828125 0.015625 -1.640625 0.5q-0.796875 0.484375 -1.4375 1.375q-0.625 0.875 -1.03125 2.140625q-0.390625 1.265625 -0.359375 2.84375q-0.03125 1.65625 0.65625 2.421875q0.6875 0.765625 1.859375 0.765625q0.5 0 0.9375 -0.140625q0.453125 -0.140625 0.828125 -0.359375q0.390625 -0.21875 0.703125 -0.453125q0.3125 -0.25 0.5625 -0.4375l0.359375 0.453125z" fill-rule="nonzero"/><path fill="#000000" fill-opacity="0.0" d="m302.0551 75.8989l0 37.795273" fill-rule="evenodd"/><path stroke="#000000" stroke-width="2.0" stroke-linejoin="round" stroke-linecap="butt" d="m302.0551 75.8989l0 37.795273" fill-rule="evenodd"/><path fill="#000000" fill-opacity="0.0" d="m339.8504 75.8989l0 37.795273" fill-rule="evenodd"/><path stroke="#000000" stroke-width="2.0" stroke-linejoin="round" stroke-linecap="butt" d="m339.8504 75.8989l0 37.795273" fill-rule="evenodd"/><path fill="#000000" d="m370.0866 112.57423c0 -2.0873795 1.6921692 -3.7795334 3.779541 -3.7795334c1.0023804 0 1.9637146 0.398201 2.6725159 1.1070023c0.70880127 0.70879364 1.1069946 1.6701355 1.1069946 2.6725311c0 2.0873718 -1.6921387 3.7795258 -3.7795105 3.7795258c-2.0873718 0 -3.779541 -1.6921539 -3.779541 -3.7795258z" fill-rule="evenodd"/><path stroke="#000000" stroke-width="1.0" stroke-linejoin="round" stroke-linecap="butt" d="m370.0866 112.57423c0 -2.0873795 1.6921692 -3.7795334 3.779541 -3.7795334c1.0023804 0 1.9637146 0.398201 2.6725159 1.1070023c0.70880127 0.70879364 1.1069946 1.6701355 1.1069946 2.6725311c0 2.0873718 -1.6921387 3.7795258 -3.7795105 3.7795258c-2.0873718 0 -3.779541 -1.6921539 -3.779541 -3.7795258z" fill-rule="evenodd"/><path fill="#000000" d="m43.892387 112.57423c0 -2.0873795 1.6921539 -3.7795334 3.7795296 -3.7795334c1.0023918 0 1.9637299 0.398201 2.6725273 1.1070023c0.70880127 0.70879364 1.1069984 1.6701355 1.1069984 2.6725311c0 2.0873718 -1.6921501 3.7795258 -3.7795258 3.7795258c-2.0873756 0 -3.7795296 -1.6921539 -3.7795296 -3.7795258z" fill-rule="evenodd"/><path stroke="#000000" stroke-width="1.0" stroke-linejoin="round" stroke-linecap="butt" d="m43.892387 112.57423c0 -2.0873795 1.6921539 -3.7795334 3.7795296 -3.7795334c1.0023918 0 1.9637299 0.398201 2.6725273 1.1070023c0.70880127 0.70879364 1.1069984 1.6701355 1.1069984 2.6725311c0 2.0873718 -1.6921501 3.7795258 -3.7795258 3.7795258c-2.0873756 0 -3.7795296 -1.6921539 -3.7795296 -3.7795258z" fill-rule="evenodd"/><path fill="#000000" d="m9.87664 112.57423c0 -2.0873795 1.692152 -3.7795334 3.7795277 -3.7795334c1.0023928 0 1.9637308 0.398201 2.6725292 1.1070023c0.70879936 0.70879364 1.1069984 1.6701355 1.1069984 2.6725311c0 2.0873718 -1.692152 3.7795258 -3.7795277 3.7795258c-2.0873756 0 -3.7795277 -1.6921539 -3.7795277 -3.7795258z" fill-rule="evenodd"/><path stroke="#000000" stroke-width="1.0" stroke-linejoin="round" stroke-linecap="butt" d="m9.87664 112.57423c0 -2.0873795 1.692152 -3.7795334 3.7795277 -3.7795334c1.0023928 0 1.9637308 0.398201 2.6725292 1.1070023c0.70879936 0.70879364 1.1069984 1.6701355 1.1069984 2.6725311c0 2.0873718 -1.692152 3.7795258 -3.7795277 3.7795258c-2.0873756 0 -3.7795277 -1.6921539 -3.7795277 -3.7795258z" fill-rule="evenodd"/><path fill="#000000" d="m77.908134 112.57423c0 -2.0873795 1.6921539 -3.7795334 3.7795334 -3.7795334c1.002388 0 1.9637299 0.398201 2.6725235 1.1070023c0.70880127 0.70879364 1.1070023 1.6701355 1.1070023 2.6725311c0 2.0873718 -1.6921539 3.7795258 -3.7795258 3.7795258c-2.0873795 0 -3.7795334 -1.6921539 -3.7795334 -3.7795258z" fill-rule="evenodd"/><path stroke="#000000" stroke-width="1.0" stroke-linejoin="round" stroke-linecap="butt" d="m77.908134 112.57423c0 -2.0873795 1.6921539 -3.7795334 3.7795334 -3.7795334c1.002388 0 1.9637299 0.398201 2.6725235 1.1070023c0.70880127 0.70879364 1.1070023 1.6701355 1.1070023 2.6725311c0 2.0873718 -1.6921539 3.7795258 -3.7795258 3.7795258c-2.0873795 0 -3.7795334 -1.6921539 -3.7795334 -3.7795258z" fill-rule="evenodd"/><path fill="#000000" fill-opacity="0.0" d="m9.87664 85.83868c0 -5.489586 4.4501905 -9.939774 9.939779 -9.939774l55.71099 0c2.6361923 0 5.1644135 1.0472183 7.028488 2.911293c1.8640671 1.8640671 2.911293 4.392288 2.911293 7.0284805l0 17.915718c0 5.4895935 -4.4501953 9.939781 -9.939781 9.939781l-55.71099 0c-5.4895887 0 -9.939779 -4.4501877 -9.939779 -9.939781z" fill-rule="evenodd"/><path stroke="#000000" stroke-width="2.0" stroke-linejoin="round" stroke-linecap="butt" d="m9.87664 85.83868c0 -5.489586 4.4501905 -9.939774 9.939779 -9.939774l55.71099 0c2.6361923 0 5.1644135 1.0472183 7.028488 2.911293c1.8640671 1.8640671 2.911293 4.392288 2.911293 7.0284805l0 17.915718c0 5.4895935 -4.4501953 9.939781 -9.939781 9.939781l-55.71099 0c-5.4895887 0 -9.939779 -4.4501877 -9.939779 -9.939781z" fill-rule="evenodd"/><path fill="#000000" d="m27.807232 102.133415q0.65625 0 1.296875 -0.609375q0.65625 -0.609375 1.21875 -1.46875q0.578125 -0.875 1.03125 -1.8125q0.46875 -0.9375 0.734375 -1.546875l0.765625 -4.109375q-0.34375 -0.234375 -0.65625 -0.328125q-0.3125 -0.109375 -0.859375 -0.109375q-1.109375 0 -2.015625 0.6875q-0.890625 0.6875 -1.53125 1.765625q-0.625 1.078125 -0.984375 2.40625q-0.34375 1.3125 -0.34375 2.578125q0 1.234375 0.296875 1.890625q0.3125 0.65625 1.046875 0.65625zm3.796875 -3.5q-0.3125 0.859375 -0.78125 1.75q-0.46875 0.890625 -1.078125 1.609375q-0.609375 0.71875 -1.359375 1.171875q-0.734375 0.453125 -1.578125 0.453125q-2.5 0 -2.5 -3.625q0 -1.671875 0.46875 -3.265625q0.484375 -1.59375 1.390625 -2.84375q0.921875 -1.25 2.234375 -2.0q1.3125 -0.765625 2.96875 -0.765625q0.59375 0 0.953125 0.109375q0.359375 0.109375 0.859375 0.328125q0.96875 -0.5 2.015625 -0.5l-2.15625 10.96875l1.75 0l0 0.59375q-0.46875 0.375 -1.140625 0.625q-0.671875 0.234375 -1.328125 0.234375q-0.6875 0 -1.0 -0.296875q-0.296875 -0.296875 -0.296875 -0.640625q0 -0.421875 0.171875 -1.40625q0.171875 -0.984375 0.5 -2.5l-0.09375 0zm31.777283 -11.671875l-1.6875 -0.203125l0 -0.5625q0.390625 -0.140625 0.84375 -0.28125q0.453125 -0.140625 0.921875 -0.265625q0.46875 -0.140625 0.9218712 -0.21875q0.46875 -0.09375 0.84375 -0.140625l0.5 0.265625l-2.1093712 10.0l0.125 0q0.4374962 -0.859375 0.9531212 -1.671875q0.515625 -0.8125 1.09375 -1.4375q0.59375 -0.625 1.234375 -1.0q0.65625 -0.390625 1.375 -0.390625q1.265625 0 2.015625 0.890625q0.75 0.875 0.75 2.75q0 1.84375 -0.515625 3.46875q-0.515625 1.625 -1.453125 2.84375q-0.9375 1.203125 -2.265625 1.90625q-1.3125 0.703125 -2.921875 0.703125q-1.1718712 0 -2.2031212 -0.296875q-1.015625 -0.296875 -1.5 -0.703125l3.078125 -15.65625zm3.9999962 5.578125q-0.625 0 -1.21875 0.546875q-0.59375 0.546875 -1.109375 1.328125q-0.515625 0.78125 -0.9375 1.640625q-0.4218712 0.84375 -0.7187462 1.421875l-0.90625 4.609375q0.359375 0.234375 0.890625 0.375q0.546875 0.125 1.0781212 0.125q0.9375 0 1.765625 -0.640625q0.828125 -0.65625 1.453125 -1.703125q0.625 -1.0625 0.984375 -2.390625q0.359375 -1.328125 0.328125 -2.703125q0.03125 -1.15625 -0.359375 -1.875q-0.375 -0.734375 -1.25 -0.734375z" fill-rule="nonzero"/><path fill="#000000" fill-opacity="0.0" d="m47.671917 75.8989l0 37.795273" fill-rule="evenodd"/><path stroke="#000000" stroke-width="2.0" stroke-linejoin="round" stroke-linecap="butt" d="m47.671917 75.8989l0 37.795273" fill-rule="evenodd"/><path fill="#000000" fill-opacity="0.0" d="m552.2349 85.64708c0 -5.489586 4.4501953 -9.939781 9.939758 -9.939781l17.91571 0c2.6362305 0 5.1644287 1.047226 7.0285034 2.911293c1.8640747 1.8640747 2.911316 4.392296 2.911316 7.028488l0 17.915718c0 5.489586 -4.4501953 9.939774 -9.939819 9.939774l-17.91571 0c-5.489563 0 -9.939758 -4.4501877 -9.939758 -9.939774z" fill-rule="evenodd"/><path stroke="#000000" stroke-width="2.0" stroke-linejoin="round" stroke-linecap="butt" d="m552.2349 85.64708c0 -5.489586 4.4501953 -9.939781 9.939758 -9.939781l17.91571 0c2.6362305 0 5.1644287 1.047226 7.0285034 2.911293c1.8640747 1.8640747 2.911316 4.392296 2.911316 7.028488l0 17.915718c0 5.489586 -4.4501953 9.939774 -9.939819 9.939774l-17.91571 0c-5.489563 0 -9.939758 -4.4501877 -9.939758 -9.939774z" fill-rule="evenodd"/><path fill="#000000" d="m569.24384 101.94181q0.65625 0 1.296875 -0.609375q0.65625 -0.609375 1.21875 -1.46875q0.578125 -0.875 1.03125 -1.8125q0.46875 -0.9375 0.734375 -1.546875l0.765625 -4.109375q-0.34375 -0.234375 -0.65625 -0.328125q-0.3125 -0.109375 -0.859375 -0.109375q-1.109375 0 -2.015625 0.6875q-0.890625 0.6875 -1.53125 1.765625q-0.625 1.078125 -0.984375 2.40625q-0.34375 1.3125 -0.34375 2.578125q0 1.234375 0.296875 1.890625q0.3125 0.65625 1.046875 0.65625zm3.796875 -3.5q-0.3125 0.859375 -0.78125 1.75q-0.46875 0.890625 -1.078125 1.609375q-0.609375 0.71875 -1.359375 1.171875q-0.734375 0.453125 -1.578125 0.453125q-2.5 0 -2.5 -3.625q0 -1.671875 0.46875 -3.265625q0.484375 -1.59375 1.390625 -2.84375q0.921875 -1.25 2.234375 -2.0q1.3125 -0.765625 2.96875 -0.765625q0.59375 0 0.953125 0.109375q0.359375 0.109375 0.859375 0.328125q0.96875 -0.5 2.015625 -0.5l-2.15625 10.96875l1.75 0l0 0.59375q-0.46875 0.375 -1.140625 0.625q-0.671875 0.234375 -1.328125 0.234375q-0.6875 0 -1.0 -0.296875q-0.296875 -0.296875 -0.296875 -0.640625q0 -0.421875 0.171875 -1.40625q0.171875 -0.984375 0.5 -2.5l-0.09375 0z" fill-rule="nonzero"/><path fill="#000000" d="m582.4711 112.38262c0 -2.0873718 1.6921387 -3.7795258 3.779541 -3.7795258c1.0023804 0 1.9637451 0.398201 2.6724854 1.1069946c0.70880127 0.70880127 1.1070557 1.6701355 1.1070557 2.6725311c0 2.0873718 -1.6921997 3.7795258 -3.779541 3.7795258c-2.0874023 0 -3.779541 -1.6921539 -3.779541 -3.7795258z" fill-rule="evenodd"/><path stroke="#000000" stroke-width="1.0" stroke-linejoin="round" stroke-linecap="butt" d="m582.4711 112.38262c0 -2.0873718 1.6921387 -3.7795258 3.779541 -3.7795258c1.0023804 0 1.9637451 0.398201 2.6724854 1.1069946c0.70880127 0.70880127 1.1070557 1.6701355 1.1070557 2.6725311c0 2.0873718 -1.6921997 3.7795258 -3.779541 3.7795258c-2.0874023 0 -3.779541 -1.6921539 -3.779541 -3.7795258z" fill-rule="evenodd"/><path fill="#000000" d="m552.2349 112.38262c0 -2.0873718 1.6921387 -3.7795258 3.779541 -3.7795258c1.0023804 0 1.9636841 0.398201 2.6724854 1.1069946c0.70880127 0.70880127 1.1069946 1.6701355 1.1069946 2.6725311c0 2.0873718 -1.6921387 3.7795258 -3.77948 3.7795258c-2.0874023 0 -3.779541 -1.6921539 -3.779541 -3.7795258z" fill-rule="evenodd"/><path stroke="#000000" stroke-width="1.0" stroke-linejoin="round" stroke-linecap="butt" d="m552.2349 112.38262c0 -2.0873718 1.6921387 -3.7795258 3.779541 -3.7795258c1.0023804 0 1.9636841 0.398201 2.6724854 1.1069946c0.70880127 0.70880127 1.1069946 1.6701355 1.1069946 2.6725311c0 2.0873718 -1.6921387 3.7795258 -3.77948 3.7795258c-2.0874023 0 -3.779541 -1.6921539 -3.779541 -3.7795258z" fill-rule="evenodd"/><path fill="#000000" fill-opacity="0.0" d="m47.671917 21.824362l0 54.078735" fill-rule="evenodd"/><path stroke="#000000" stroke-width="1.9763779527559056" stroke-linejoin="round" stroke-linecap="butt" d="m47.671917 21.824362l0 42.220474" fill-rule="evenodd"/><path fill="#000000" stroke="#000000" stroke-width="1.9763779527559056" stroke-linecap="butt" d="m44.407467 64.04484l3.26445 8.968994l3.2644463 -8.968994z" fill-rule="evenodd"/><path fill="#000000" fill-opacity="0.0" d="m36.144356 7.588142l23.055119 0l0 14.236219l-23.055119 0z" fill-rule="evenodd"/><path fill="#000000" d="m52.45457 14.954987q0 -0.640625 0.375 -1.015625q0.375 -0.375 1.0 -0.375q0.640625 0 1.03125 0.375q0.390625 0.375 0.390625 1.015625q0 0.625 -0.390625 1.015625q-0.390625 0.375 -1.03125 0.375q-0.625 0 -1.0 -0.375q-0.375 -0.390625 -0.375 -1.015625zm-6.09375 0q0 -0.640625 0.375 -1.015625q0.375 -0.375 1.0 -0.375q0.640625 0 1.015625 0.375q0.390625 0.375 0.390625 1.015625q0 0.625 -0.390625 1.015625q-0.375 0.375 -1.015625 0.375q-0.625 0 -1.0 -0.375q-0.375 -0.390625 -0.375 -1.015625zm-6.09375 0q0 -0.640625 0.375 -1.015625q0.375 -0.375 1.0 -0.375q0.640625 0 1.015625 0.375q0.390625 0.375 0.390625 1.015625q0 0.625 -0.390625 1.015625q-0.375 0.375 -1.015625 0.375q-0.625 0 -1.0 -0.375q-0.375 -0.390625 -0.375 -1.015625z" fill-rule="nonzero"/><path fill="#efefef" d="m129.28871 83.81699l71.86388 0l0 -7.541832l23.978653 20.220467l-23.978653 20.220474l0 -7.541832l-71.86388 0z" fill-rule="evenodd"/><path stroke="#000000" stroke-width="1.0" stroke-linejoin="round" stroke-linecap="butt" d="m129.28871 83.81699l71.86388 0l0 -7.541832l23.978653 20.220467l-23.978653 20.220474l0 -7.541832l-71.86388 0z" fill-rule="evenodd"/><path fill="#000000" d="m142.30121 94.0875l1.5 0l0 9.328125l-1.5 0l0 -9.328125zm-0.3125 -2.828125q0 -0.4375 0.28125 -0.734375q0.296875 -0.3125 0.75 -0.3125q0.4375 0 0.75 0.3125q0.328125 0.296875 0.328125 0.734375q0 0.421875 -0.328125 0.703125q-0.3125 0.28125 -0.75 0.28125q-0.453125 0 -0.75 -0.28125q-0.28125 -0.28125 -0.28125 -0.703125zm10.984253 12.15625l0 -5.3125q0 -1.453125 -0.421875 -2.1875q-0.421875 -0.75 -1.53125 -0.75q-0.984375 0 -1.640625 0.53125q-0.640625 0.53125 -0.90625 1.34375l0 6.375l-1.484375 0l0 -9.328125l1.046875 0l0.28125 1.140625l0.0625 0q0.453125 -0.59375 1.203125 -0.96875q0.765625 -0.390625 1.8125 -0.390625q0.765625 0 1.34375 0.171875q0.578125 0.171875 0.953125 0.625q0.390625 0.453125 0.578125 1.203125q0.203125 0.75 0.203125 1.90625l0 5.640625l-1.5 0zm8.329971 -2.53125q0 -0.5625 -0.34375 -0.875q-0.328125 -0.328125 -0.828125 -0.53125q-0.5 -0.21875 -1.09375 -0.40625q-0.578125 -0.203125 -1.078125 -0.515625q-0.484375 -0.3125 -0.828125 -0.796875q-0.328125 -0.484375 -0.328125 -1.296875q0 -1.34375 0.765625 -1.96875q0.765625 -0.625 2.125 -0.625q1.0 0 1.6875 0.171875q0.6875 0.171875 1.1875 0.421875l-0.359375 1.234375q-0.421875 -0.203125 -1.03125 -0.359375q-0.609375 -0.171875 -1.296875 -0.171875q-0.828125 0 -1.21875 0.28125q-0.375 0.28125 -0.375 0.96875q0 0.484375 0.328125 0.765625q0.34375 0.265625 0.84375 0.484375q0.5 0.203125 1.078125 0.421875q0.59375 0.203125 1.078125 0.546875q0.5 0.328125 0.828125 0.84375q0.34375 0.5 0.34375 1.34375q0 0.59375 -0.203125 1.125q-0.1875 0.515625 -0.59375 0.890625q-0.40625 0.375 -1.015625 0.578125q-0.609375 0.21875 -1.4375 0.21875q-1.0625 0 -1.8125 -0.203125q-0.734375 -0.203125 -1.234375 -0.484375l0.4375 -1.265625q0.4375 0.234375 1.125 0.453125q0.6875 0.203125 1.390625 0.203125q0.8125 0 1.328125 -0.3125q0.53125 -0.328125 0.53125 -1.140625zm10.557404 1.78125q-0.5625 0.453125 -1.421875 0.71875q-0.84375 0.25 -1.796875 0.25q-1.0625 0 -1.84375 -0.34375q-0.78125 -0.34375 -1.28125 -0.984375q-0.5 -0.640625 -0.75 -1.53125q-0.234375 -0.90625 -0.234375 -2.03125q0 -2.375 1.0625 -3.625q1.0625 -1.25 3.03125 -1.25q0.640625 0 1.265625 0.140625q0.640625 0.140625 1.140625 0.53125q0.5 0.390625 0.8125 1.109375q0.328125 0.71875 0.328125 1.890625q0 0.609375 -0.109375 1.359375l-5.984375 0q0 0.828125 0.15625 1.46875q0.171875 0.625 0.515625 1.0625q0.359375 0.4375 0.921875 0.671875q0.578125 0.234375 1.40625 0.234375q0.625 0 1.265625 -0.21875q0.640625 -0.234375 0.953125 -0.53125l0.5625 1.078125zm-3.21875 -7.5q-1.09375 0 -1.765625 0.578125q-0.65625 0.578125 -0.78125 1.984375l4.625 0q0 -1.421875 -0.546875 -1.984375q-0.53125 -0.578125 -1.53125 -0.578125zm10.289871 0.359375q-0.5625 -0.1875 -1.0625 -0.1875q-0.8125 0 -1.28125 0.4375q-0.453125 0.4375 -0.578125 1.109375l0 6.53125l-1.484375 0l0 -9.328125l1.046875 0l0.28125 1.140625l0.0625 0q0.359375 -0.640625 0.84375 -0.984375q0.5 -0.34375 1.265625 -0.34375q0.546875 0 1.21875 0.1875l-0.3125 1.4375zm1.262497 -1.4375l1.453125 0l0 -1.84375l1.5 -0.4375l0 2.28125l2.53125 0l0 1.3125l-2.53125 0l0 5.15625q0 0.96875 0.234375 1.375q0.25 0.40625 0.828125 0.40625q0.484375 0 0.8125 -0.09375q0.34375 -0.109375 0.75 -0.28125l0.34375 1.140625q-0.515625 0.234375 -1.109375 0.375q-0.59375 0.15625 -1.28125 0.15625q-1.140625 0 -1.609375 -0.640625q-0.46875 -0.640625 -0.46875 -2.15625l0 -5.4375l-1.453125 0l0 -1.3125z" fill-rule="nonzero"/><path fill="#000000" d="m197.97375 101.75938q-0.203125 0.34375 -0.53125 0.6875q-0.3125 0.328125 -0.75 0.609375q-0.421875 0.265625 -0.953125 0.421875q-0.53125 0.15625 -1.15625 0.15625q-1.390625 0 -2.1875 -0.875q-0.796875 -0.875 -0.796875 -2.390625q0 -1.34375 0.421875 -2.515625q0.4375 -1.1875 1.171875 -2.078125q0.734375 -0.890625 1.734375 -1.390625q1.0 -0.515625 2.140625 -0.515625q0.703125 0 1.140625 0.109375q0.453125 0.109375 0.6875 0.3125q0.015625 0.203125 -0.03125 0.46875q-0.046875 0.25 -0.15625 0.5q-0.09375 0.234375 -0.265625 0.4375q-0.15625 0.203125 -0.3125 0.28125l-1.28125 -1.3125q-0.625 0.015625 -1.25 0.390625q-0.625 0.375 -1.125 1.0625q-0.484375 0.6875 -0.796875 1.671875q-0.3125 0.984375 -0.296875 2.203125q-0.015625 1.296875 0.515625 1.890625q0.53125 0.59375 1.453125 0.59375q0.390625 0 0.734375 -0.109375q0.34375 -0.109375 0.640625 -0.28125q0.296875 -0.171875 0.53125 -0.34375q0.25 -0.1875 0.4375 -0.34375l0.28125 0.359375z" fill-rule="nonzero"/><path fill="#000000" fill-opacity="0.0" d="m320.95276 21.824362l0 54.078735" fill-rule="evenodd"/><path stroke="#000000" stroke-width="1.9763779527559056" stroke-linejoin="round" stroke-linecap="butt" d="m320.95276 21.824362l0 42.220474" fill-rule="evenodd"/><path fill="#000000" stroke="#000000" stroke-width="1.9763779527559056" stroke-linecap="butt" d="m317.6883 64.04484l3.2644653 8.968994l3.2644348 -8.968994z" fill-rule="evenodd"/><path fill="#000000" fill-opacity="0.0" d="m309.4252 7.588142l23.055115 0l0 14.236219l-23.055115 0z" fill-rule="evenodd"/><path fill="#000000" d="m325.7354 14.954987q0 -0.640625 0.375 -1.015625q0.375 -0.375 1.0 -0.375q0.640625 0 1.03125 0.375q0.390625 0.375 0.390625 1.015625q0 0.625 -0.390625 1.015625q-0.390625 0.375 -1.03125 0.375q-0.625 0 -1.0 -0.375q-0.375 -0.390625 -0.375 -1.015625zm-6.09375 0q0 -0.640625 0.375 -1.015625q0.375 -0.375 1.0 -0.375q0.640625 0 1.015625 0.375q0.390625 0.375 0.390625 1.015625q0 0.625 -0.390625 1.015625q-0.375 0.375 -1.015625 0.375q-0.625 0 -1.0 -0.375q-0.375 -0.390625 -0.375 -1.015625zm-6.09375 0q0 -0.640625 0.375 -1.015625q0.375 -0.375 1.0 -0.375q0.640625 0 1.015625 0.375q0.390625 0.375 0.390625 1.015625q0 0.625 -0.390625 1.015625q-0.375 0.375 -1.015625 0.375q-0.625 0 -1.0 -0.375q-0.375 -0.390625 -0.375 -1.015625z" fill-rule="nonzero"/><path fill="#000000" fill-opacity="0.0" d="m704.2349 85.64708c0 -5.489586 4.4501953 -9.939781 9.939758 -9.939781l17.91571 0c2.6362305 0 5.1644287 1.047226 7.0285034 2.911293c1.8640747 1.8640747 2.911316 4.392296 2.911316 7.028488l0 17.915718c0 5.489586 -4.4501953 9.939774 -9.939819 9.939774l-17.91571 0c-5.489563 0 -9.939758 -4.4501877 -9.939758 -9.939774z" fill-rule="evenodd"/><path stroke="#000000" stroke-width="2.0" stroke-linejoin="round" stroke-linecap="butt" d="m704.2349 85.64708c0 -5.489586 4.4501953 -9.939781 9.939758 -9.939781l17.91571 0c2.6362305 0 5.1644287 1.047226 7.0285034 2.911293c1.8640747 1.8640747 2.911316 4.392296 2.911316 7.028488l0 17.915718c0 5.489586 -4.4501953 9.939774 -9.939819 9.939774l-17.91571 0c-5.489563 0 -9.939758 -4.4501877 -9.939758 -9.939774z" fill-rule="evenodd"/><path fill="#000000" d="m727.16846 101.00431q-0.265625 0.453125 -0.671875 0.890625q-0.40625 0.4375 -0.96875 0.78125q-0.546875 0.34375 -1.234375 0.546875q-0.6875 0.203125 -1.5 0.203125q-1.765625 0 -2.8125 -1.125q-1.03125 -1.125 -1.03125 -3.0625q0 -1.734375 0.546875 -3.25q0.5625 -1.53125 1.5 -2.671875q0.953125 -1.140625 2.234375 -1.796875q1.296875 -0.65625 2.75 -0.65625q0.921875 0 1.5 0.140625q0.578125 0.140625 0.859375 0.40625q0.03125 0.265625 -0.03125 0.59375q-0.0625 0.3125 -0.203125 0.625q-0.125 0.3125 -0.328125 0.578125q-0.203125 0.265625 -0.421875 0.359375l-1.625 -1.671875q-0.828125 0.015625 -1.640625 0.5q-0.796875 0.484375 -1.4375 1.375q-0.625 0.875 -1.03125 2.140625q-0.390625 1.265625 -0.359375 2.84375q-0.03125 1.65625 0.65625 2.421875q0.6875 0.765625 1.859375 0.765625q0.5 0 0.9375 -0.140625q0.453125 -0.140625 0.828125 -0.359375q0.390625 -0.21875 0.703125 -0.453125q0.3125 -0.25 0.5625 -0.4375l0.359375 0.453125z" fill-rule="nonzero"/><path fill="#000000" d="m734.4711 112.38262c0 -2.0873718 1.6921387 -3.7795258 3.779541 -3.7795258c1.0023804 0 1.9637451 0.398201 2.6724854 1.1069946c0.70880127 0.70880127 1.1070557 1.6701355 1.1070557 2.6725311c0 2.0873718 -1.6921997 3.7795258 -3.779541 3.7795258c-2.0874023 0 -3.779541 -1.6921539 -3.779541 -3.7795258z" fill-rule="evenodd"/><path stroke="#000000" stroke-width="1.0" stroke-linejoin="round" stroke-linecap="butt" d="m734.4711 112.38262c0 -2.0873718 1.6921387 -3.7795258 3.779541 -3.7795258c1.0023804 0 1.9637451 0.398201 2.6724854 1.1069946c0.70880127 0.70880127 1.1070557 1.6701355 1.1070557 2.6725311c0 2.0873718 -1.6921997 3.7795258 -3.779541 3.7795258c-2.0874023 0 -3.779541 -1.6921539 -3.779541 -3.7795258z" fill-rule="evenodd"/><path fill="#000000" d="m704.2349 112.38262c0 -2.0873718 1.6921387 -3.7795258 3.779541 -3.7795258c1.0023804 0 1.9636841 0.398201 2.6724854 1.1069946c0.70880127 0.70880127 1.1069946 1.6701355 1.1069946 2.6725311c0 2.0873718 -1.6921387 3.7795258 -3.77948 3.7795258c-2.0874023 0 -3.779541 -1.6921539 -3.779541 -3.7795258z" fill-rule="evenodd"/><path stroke="#000000" stroke-width="1.0" stroke-linejoin="round" stroke-linecap="butt" d="m704.2349 112.38262c0 -2.0873718 1.6921387 -3.7795258 3.779541 -3.7795258c1.0023804 0 1.9636841 0.398201 2.6724854 1.1069946c0.70880127 0.70880127 1.1069946 1.6701355 1.1069946 2.6725311c0 2.0873718 -1.6921387 3.7795258 -3.77948 3.7795258c-2.0874023 0 -3.779541 -1.6921539 -3.779541 -3.7795258z" fill-rule="evenodd"/><path fill="#000000" fill-opacity="0.0" d="m628.2349 43.756824c0 -5.7554207 4.6656494 -10.421116 10.421082 -10.421116l16.953064 0c2.763855 0 5.4144897 1.0979385 7.3688354 3.0522766c1.9543457 1.9543381 3.0523071 4.604988 3.0523071 7.3688393l0 14.433361c0 5.7554245 -4.6657104 10.421112 -10.421143 10.421112l-16.953064 0c-5.755432 0 -10.421082 -4.6656876 -10.421082 -10.421112z" fill-rule="evenodd"/><path fill="#000000" d="m644.75806 43.138504l-1.6875 -0.203125l0 -0.5625q0.390625 -0.140625 0.84375 -0.28125q0.453125 -0.140625 0.921875 -0.265625q0.46875 -0.140625 0.921875 -0.21875q0.46875 -0.09375 0.84375 -0.140625l0.5 0.265625l-2.109375 10.0l0.125 0q0.4375 -0.859375 0.953125 -1.671875q0.515625 -0.8125 1.09375 -1.4375q0.59375 -0.625 1.234375 -1.0q0.65625 -0.390625 1.375 -0.390625q1.265625 0 2.015625 0.890625q0.75 0.875 0.75 2.75q0 1.84375 -0.515625 3.46875q-0.515625 1.625 -1.453125 2.84375q-0.9375 1.203125 -2.265625 1.90625q-1.3125 0.703125 -2.921875 0.703125q-1.171875 0 -2.203125 -0.296875q-1.015625 -0.296875 -1.5 -0.703125l3.078125 -15.65625zm4.0 5.578125q-0.625 0 -1.21875 0.546875q-0.59375 0.546875 -1.109375 1.328125q-0.515625 0.78125 -0.9375 1.640625q-0.421875 0.84375 -0.71875 1.421875l-0.90625 4.609375q0.359375 0.234375 0.890625 0.375q0.546875 0.125 1.078125 0.125q0.9375 0 1.765625 -0.640625q0.828125 -0.65625 1.453125 -1.703125q0.625 -1.0625 0.984375 -2.390625q0.359375 -1.328125 0.328125 -2.703125q0.03125 -1.15625 -0.359375 -1.875q-0.375 -0.734375 -1.25 -0.734375z" fill-rule="nonzero"/><path fill="#000000" fill-opacity="0.0" d="m647.1365 111.178474l0 -42.582672" fill-rule="evenodd"/><path stroke="#000000" stroke-width="1.9763779527559056" stroke-linejoin="round" stroke-linecap="butt" stroke-dasharray="1.9763779527559056,5.929133858267717" d="m647.1365 111.178474l0 -30.724403" fill-rule="evenodd"/><path fill="#000000" stroke="#000000" stroke-width="1.9763779527559056" stroke-linecap="butt" d="m650.40094 80.45407l-3.2644653 -8.969002l-3.2644653 8.969002z" fill-rule="evenodd"/><path fill="#000000" fill-opacity="0.0" d="m604.69556 111.178474l84.8819 0l0 30.519691l-84.8819 0z" fill-rule="evenodd"/><path fill="#000000" d="m614.98346 123.83019l1.03125 0l0.28125 1.125l0.0625 0q0.4375 -0.65625 1.109375 -1.0q0.6875 -0.34375 1.5625 -0.34375q1.859375 0 2.765625 1.109375q0.921875 1.09375 0.921875 3.5937576q0 1.171875 -0.3125 2.109375q-0.296875 0.9375 -0.859375 1.59375q-0.5625 0.65625 -1.359375 1.015625q-0.78125 0.34375 -1.75 0.34375q-0.6875 0 -1.09375 -0.078125q-0.40625 -0.078125 -0.875 -0.296875l0 3.890625l-1.484375 0l0 -13.062508zm3.765625 1.078125q-0.953125 0 -1.5 0.5q-0.546875 0.5 -0.78125 1.5l0 4.6250076q0.34375 0.265625 0.765625 0.40625q0.4375 0.140625 1.140625 0.140625q1.296875 0 2.046875 -0.953125q0.75 -0.96875 0.75 -2.84375q0 -0.7656326 -0.125 -1.3906326q-0.125 -0.625 -0.421875 -1.0625q-0.28125 -0.4375 -0.75 -0.671875q-0.453125 -0.25 -1.125 -0.25zm10.733643 0.359375q-0.5625 -0.1875 -1.0625 -0.1875q-0.8125 0 -1.28125 0.4375q-0.453125 0.4375 -0.578125 1.109375l0 6.5312576l-1.484375 0l0 -9.328133l1.046875 0l0.28125 1.140625l0.0625 0q0.359375 -0.640625 0.84375 -0.984375q0.5 -0.34375 1.265625 -0.34375q0.546875 0 1.21875 0.1875l-0.3125 1.4375zm1.4212646 3.2187576q0 -2.3593826 1.046875 -3.6093826q1.046875 -1.265625 3.03125 -1.265625q1.046875 0 1.8125 0.34375q0.78125 0.34375 1.28125 0.984375q0.5 0.640625 0.734375 1.546875q0.25 0.90625 0.25 2.0000076q0 2.375 -1.046875 3.640625q-1.046875 1.25 -3.03125 1.25q-1.046875 0 -1.828125 -0.34375q-0.765625 -0.34375 -1.265625 -0.984375q-0.5 -0.640625 -0.75 -1.546875q-0.234375 -0.90625 -0.234375 -2.015625zm1.546875 0q0 0.71875 0.140625 1.375q0.140625 0.640625 0.4375 1.140625q0.296875 0.484375 0.78125 0.78125q0.484375 0.296875 1.171875 0.296875q2.53125 0.015625 2.53125 -3.59375q0 -0.7187576 -0.140625 -1.3750076q-0.140625 -0.65625 -0.4375 -1.140625q-0.296875 -0.484375 -0.78125 -0.765625q-0.484375 -0.296875 -1.171875 -0.296875q-2.53125 -0.015625 -2.53125 3.5781326zm14.437256 4.671875l0 -5.2812576q0 -0.75 -0.078125 -1.296875q-0.0625 -0.546875 -0.25 -0.921875q-0.171875 -0.375 -0.53125 -0.5625q-0.34375 -0.1875 -0.890625 -0.1875q-0.859375 0 -1.4375 0.53125q-0.5625 0.515625 -0.796875 1.296875l0 6.4218826l-1.484375 0l0 -9.328133l1.046875 0l0.28125 1.140625l0.0625 0q0.515625 -0.59375 1.171875 -0.96875q0.671875 -0.390625 1.734375 -0.390625q0.890625 0 1.453125 0.34375q0.578125 0.34375 0.890625 1.203125q0.421875 -0.734375 1.171875 -1.140625q0.765625 -0.40625 1.71875 -0.40625q0.78125 0 1.3125 0.171875q0.546875 0.171875 0.90625 0.625q0.359375 0.453125 0.515625 1.21875q0.15625 0.765625 0.15625 1.9375l0 5.5937576l-1.484375 0l0 -5.6093826q0 -0.671875 -0.078125 -1.171875q-0.0625 -0.5 -0.265625 -0.8125q-0.1875 -0.328125 -0.53125 -0.484375q-0.34375 -0.171875 -0.90625 -0.171875q-0.9375 0 -1.453125 0.53125q-0.515625 0.515625 -0.75 1.484375l0 6.2343826l-1.484375 0zm9.16449 -4.671875q0 -2.3593826 1.046875 -3.6093826q1.046875 -1.265625 3.03125 -1.265625q1.046875 0 1.8125 0.34375q0.78125 0.34375 1.28125 0.984375q0.5 0.640625 0.734375 1.546875q0.25 0.90625 0.25 2.0000076q0 2.375 -1.046875 3.640625q-1.046875 1.25 -3.03125 1.25q-1.046875 0 -1.828125 -0.34375q-0.765625 -0.34375 -1.265625 -0.984375q-0.5 -0.640625 -0.75 -1.546875q-0.234375 -0.90625 -0.234375 -2.015625zm1.546875 0q0 0.71875 0.140625 1.375q0.140625 0.640625 0.4375 1.140625q0.296875 0.484375 0.78125 0.78125q0.484375 0.296875 1.171875 0.296875q2.53125 0.015625 2.53125 -3.59375q0 -0.7187576 -0.140625 -1.3750076q-0.140625 -0.65625 -0.4375 -1.140625q-0.296875 -0.484375 -0.78125 -0.765625q-0.484375 -0.296875 -1.171875 -0.296875q-2.53125 -0.015625 -2.53125 3.5781326zm7.734131 -4.6562576l1.453125 0l0 -1.84375l1.5 -0.4375l0 2.28125l2.53125 0l0 1.3125l-2.53125 0l0 5.1562576q0 0.96875 0.234375 1.375q0.25 0.40625 0.828125 0.40625q0.484375 0 0.8125 -0.09375q0.34375 -0.109375 0.75 -0.28125l0.34375 1.140625q-0.515625 0.234375 -1.109375 0.375q-0.59375 0.15625 -1.28125 0.15625q-1.140625 0 -1.609375 -0.640625q-0.46875 -0.640625 -0.46875 -2.15625l0 -5.4375076l-1.453125 0l0 -1.3125zm14.166016 8.578133q-0.5625 0.453125 -1.421875 0.71875q-0.84375 0.25 -1.796875 0.25q-1.0625 0 -1.84375 -0.34375q-0.78125 -0.34375 -1.28125 -0.984375q-0.5 -0.640625 -0.75 -1.53125q-0.234375 -0.90625 -0.234375 -2.03125q0 -2.3750076 1.0625 -3.6250076q1.0625 -1.25 3.03125 -1.25q0.640625 0 1.265625 0.140625q0.640625 0.140625 1.140625 0.53125q0.5 0.390625 0.8125 1.109375q0.328125 0.71875 0.328125 1.890625q0 0.609375 -0.109375 1.3593826l-5.984375 0q0 0.828125 0.15625 1.46875q0.171875 0.625 0.515625 1.0625q0.359375 0.4375 0.921875 0.671875q0.578125 0.234375 1.40625 0.234375q0.625 0 1.265625 -0.21875q0.640625 -0.234375 0.953125 -0.53125l0.5625 1.078125zm-3.21875 -7.5000076q-1.09375 0 -1.765625 0.578125q-0.65625 0.578125 -0.78125 1.984375l4.625 0q0 -1.421875 -0.546875 -1.984375q-0.53125 -0.578125 -1.53125 -0.578125z" fill-rule="nonzero"/><path fill="#000000" fill-opacity="0.0" d="m629.8884 24.67979l-58.771606 51.023624" fill-rule="evenodd"/><path stroke="#000000" stroke-width="1.9763779527559056" stroke-linejoin="round" stroke-linecap="butt" d="m629.8884 24.67979l-49.81714 43.249607" fill-rule="evenodd"/><path fill="#000000" stroke="#000000" stroke-width="1.9763779527559056" stroke-linecap="butt" d="m577.9312 65.464325l-4.6326294 8.344948l8.912842 -3.414795z" fill-rule="evenodd"/><path fill="#000000" fill-opacity="0.0" d="m664.37665 24.67979l58.771667 51.023624" fill-rule="evenodd"/><path stroke="#000000" stroke-width="1.9763779527559056" stroke-linejoin="round" stroke-linecap="butt" d="m664.37665 24.67979l49.81714 43.249607" fill-rule="evenodd"/><path fill="#000000" stroke="#000000" stroke-width="1.9763779527559056" stroke-linecap="butt" d="m712.0537 70.39448l8.912842 3.414795l-4.6326904 -8.344948z" fill-rule="evenodd"/><path fill="#000000" fill-opacity="0.0" d="m635.605 7.588142l23.055115 0l0 14.236219l-23.055115 0z" fill-rule="evenodd"/><path fill="#000000" d="m651.9152 14.954987q0 -0.640625 0.375 -1.015625q0.375 -0.375 1.0 -0.375q0.640625 0 1.03125 0.375q0.390625 0.375 0.390625 1.015625q0 0.625 -0.390625 1.015625q-0.390625 0.375 -1.03125 0.375q-0.625 0 -1.0 -0.375q-0.375 -0.390625 -0.375 -1.015625zm-6.09375 0q0 -0.640625 0.375 -1.015625q0.375 -0.375 1.0 -0.375q0.640625 0 1.015625 0.375q0.390625 0.375 0.390625 1.015625q0 0.625 -0.390625 1.015625q-0.375 0.375 -1.015625 0.375q-0.625 0 -1.0 -0.375q-0.375 -0.390625 -0.375 -1.015625zm-6.09375 0q0 -0.640625 0.375 -1.015625q0.375 -0.375 1.0 -0.375q0.640625 0 1.015625 0.375q0.390625 0.375 0.390625 1.015625q0 0.625 -0.390625 1.015625q-0.375 0.375 -1.015625 0.375q-0.625 0 -1.0 -0.375q-0.375 -0.390625 -0.375 -1.015625z" fill-rule="nonzero"/><path fill="#000000" fill-opacity="0.0" d="m629.8884 17.56168l34.48822 0l0 14.236221l-34.48822 0z" fill-rule="evenodd"/><path fill="#efefef" d="m425.28873 83.81699l71.86386 0l0 -7.541832l23.978638 20.220467l-23.978638 20.220474l0 -7.541832l-71.86386 0z" fill-rule="evenodd"/><path stroke="#000000" stroke-width="1.0" stroke-linejoin="round" stroke-linecap="butt" d="m425.28873 83.81699l71.86386 0l0 -7.541832l23.978638 20.220467l-23.978638 20.220474l0 -7.541832l-71.86386 0z" fill-rule="evenodd"/><path fill="#000000" d="m453.87967 100.88438q0 -0.5625 -0.34375 -0.875q-0.328125 -0.328125 -0.828125 -0.53125q-0.5 -0.21875 -1.09375 -0.40625q-0.578125 -0.203125 -1.078125 -0.515625q-0.484375 -0.3125 -0.828125 -0.796875q-0.328125 -0.484375 -0.328125 -1.296875q0 -1.34375 0.765625 -1.96875q0.765625 -0.625 2.125 -0.625q1.0 0 1.6875 0.171875q0.6875 0.171875 1.1875 0.421875l-0.359375 1.234375q-0.421875 -0.203125 -1.03125 -0.359375q-0.609375 -0.171875 -1.296875 -0.171875q-0.828125 0 -1.21875 0.28125q-0.375 0.28125 -0.375 0.96875q0 0.484375 0.328125 0.765625q0.34375 0.265625 0.84375 0.484375q0.5 0.203125 1.078125 0.421875q0.59375 0.203125 1.078125 0.546875q0.5 0.328125 0.828125 0.84375q0.34375 0.5 0.34375 1.34375q0 0.59375 -0.203125 1.125q-0.1875 0.515625 -0.59375 0.890625q-0.40625 0.375 -1.015625 0.578125q-0.609375 0.21875 -1.4375 0.21875q-1.0625 0 -1.8125 -0.203125q-0.734375 -0.203125 -1.234375 -0.484375l0.4375 -1.265625q0.4375 0.234375 1.125 0.453125q0.6875 0.203125 1.390625 0.203125q0.8125 0 1.328125 -0.3125q0.53125 -0.328125 0.53125 -1.140625zm3.7449036 -6.796875l1.03125 0l0.28125 1.125l0.0625 0q0.4375 -0.65625 1.109375 -1.0q0.6875 -0.34375 1.5625 -0.34375q1.859375 0 2.765625 1.109375q0.921875 1.09375 0.921875 3.59375q0 1.171875 -0.3125 2.109375q-0.296875 0.9375 -0.859375 1.59375q-0.5625 0.65625 -1.359375 1.015625q-0.78125 0.34375 -1.75 0.34375q-0.6875 0 -1.09375 -0.078125q-0.40625 -0.078125 -0.875 -0.296875l0 3.890625l-1.484375 0l0 -13.0625zm3.765625 1.078125q-0.953125 0 -1.5 0.5q-0.546875 0.5 -0.78125 1.5l0 4.625q0.34375 0.265625 0.765625 0.40625q0.4375 0.140625 1.140625 0.140625q1.296875 0 2.046875 -0.953125q0.75 -0.96875 0.75 -2.84375q0 -0.765625 -0.125 -1.390625q-0.125 -0.625 -0.421875 -1.0625q-0.28125 -0.4375 -0.75 -0.671875q-0.453125 -0.25 -1.125 -0.25zm7.9836426 5.953125q0 0.65625 0.21875 0.9375q0.234375 0.28125 0.640625 0.28125q0.25 0 0.515625 -0.03125q0.28125 -0.046875 0.640625 -0.171875l0.171875 1.171875q-0.296875 0.140625 -0.828125 0.234375q-0.53125 0.09375 -0.921875 0.09375q-0.84375 0 -1.390625 -0.46875q-0.53125 -0.484375 -0.53125 -1.609375l0 -11.203125l1.484375 0l0 10.765625zm4.103882 -7.03125l1.5 0l0 9.328125l-1.5 0l0 -9.328125zm-0.3125 -2.828125q0 -0.4375 0.28125 -0.734375q0.296875 -0.3125 0.75 -0.3125q0.4375 0 0.75 0.3125q0.328125 0.296875 0.328125 0.734375q0 0.421875 -0.328125 0.703125q-0.3125 0.28125 -0.75 0.28125q-0.453125 0 -0.75 -0.28125q-0.28125 -0.28125 -0.28125 -0.703125zm3.765503 2.828125l1.453125 0l0 -1.84375l1.5 -0.4375l0 2.28125l2.53125 0l0 1.3125l-2.53125 0l0 5.15625q0 0.96875 0.234375 1.375q0.25 0.40625 0.828125 0.40625q0.484375 0 0.8125 -0.09375q0.34375 -0.109375 0.75 -0.28125l0.34375 1.140625q-0.515625 0.234375 -1.109375 0.375q-0.59375 0.15625 -1.28125 0.15625q-1.140625 0 -1.609375 -0.640625q-0.46875 -0.640625 -0.46875 -2.15625l0 -5.4375l-1.453125 0l0 -1.3125z" fill-rule="nonzero"/></g></svg>