<svg version="1.1" viewBox="0.0 0.0 999.4199475065617 250.25459317585302" fill="none" stroke="none" stroke-linecap="square" stroke-miterlimit="10" xmlns:xlink="http://www.w3.org/1999/xlink" xmlns="http://www.w3.org/2000/svg"><clipPath id="p.0"><path d="m0 0l999.4199 0l0 250.2546l-999.4199 0l0 -250.2546z" clip-rule="nonzero"/></clipPath><g clip-path="url(#p.0)"><path fill="#000000" fill-opacity="0.0" d="m0 0l999.4199 0l0 250.2546l-999.4199 0z" fill-rule="evenodd"/><path fill="#f3f3f3" d="m776.91986 197.28606l28.79657 -88.391075l28.79663 88.391075z" fill-rule="evenodd"/><path stroke="#000000" stroke-width="0.84251968503937" stroke-linejoin="round" stroke-linecap="butt" stroke-dasharray="3.37007874015748,2.52755905511811" d="m776.91986 197.28606l28.79657 -88.391075l28.79663 88.391075z" fill-rule="evenodd"/><path fill="#f3f3f3" d="m447.25958 197.28606l28.7966 -88.391075l28.7966 88.391075z" fill-rule="evenodd"/><path stroke="#000000" stroke-width="1.0" stroke-linejoin="round" stroke-linecap="butt" stroke-dasharray="4.0,3.0" d="m447.25958 197.28606l28.7966 -88.391075l28.7966 88.391075z" fill-rule="evenodd"/><path fill="#000000" fill-opacity="0.0" d="m147.81581 27.3352l29.448822 0l0 21.03937l-29.448822 0z" fill-rule="evenodd"/><path fill="#000000" d="m158.01794 37.73051l1.640625 0l0 -1.6875l0.671875 0l0 1.6875l1.640625 0l0 0.671875l-1.640625 0l0 1.671875l-0.671875 0l0 -1.671875l-1.640625 0l0 -0.671875zm8.491959 -1.5625q0 0.5 -0.1875 1.015625q-0.171875 0.515625 -0.46875 1.046875q-0.296875 0.515625 -0.65625 1.015625q-0.359375 0.5 -0.71875 0.9375l-0.46875 0.40625l0 0.03125l0.59375 -0.09375l2.046875 0l0 0.6875l-3.71875 0l0 -0.265625q0.203125 -0.21875 0.484375 -0.53125q0.296875 -0.328125 0.609375 -0.703125q0.3125 -0.390625 0.609375 -0.828125q0.3125 -0.4375 0.5625 -0.875q0.25 -0.453125 0.390625 -0.890625q0.15625 -0.4375 0.15625 -0.828125q0 -0.453125 -0.265625 -0.75q-0.265625 -0.3125 -0.796875 -0.3125q-0.34375 0 -0.6875 0.140625q-0.328125 0.140625 -0.578125 0.328125l-0.3125 -0.53125q0.328125 -0.28125 0.78125 -0.4375q0.453125 -0.15625 0.953125 -0.15625q0.40625 0 0.703125 0.125q0.3125 0.109375 0.53125 0.328125q0.21875 0.203125 0.328125 0.5q0.109375 0.296875 0.109375 0.640625z" fill-rule="nonzero"/><path fill="#000000" fill-opacity="0.0" d="m210.61281 60.987198l29.448822 0l0 21.039375l-29.448822 0z" fill-rule="evenodd"/><path fill="#000000" d="m220.81078 71.83563l3.96875 0l0 0.6875l-3.96875 0l0 -0.6875zm6.0628204 2.34375l1.3125 0l0 -4.515625l0.09375 -0.546875l-0.375 0.4375l-1.03125 0.734375l-0.34375 -0.484375l2.046875 -1.578125l0.34375 0l0 5.953125l1.265625 0l0 0.6875l-3.3125 0l0 -0.6875z" fill-rule="nonzero"/><path fill="#000000" fill-opacity="0.0" d="m4.568921 154.59135l37.54331 0l0 21.039368l-37.54331 0z" fill-rule="evenodd"/><path fill="#000000" d="m21.541119 161.59167l0 -0.25q0.15625 -0.0625 0.359375 -0.125q0.203125 -0.078125 0.40625 -0.125q0.21875 -0.0625 0.421875 -0.09375q0.203125 -0.046875 0.390625 -0.0625l0.21875 0.09375l-0.96875 4.484375l0.0625 0q0.203125 -0.4375 0.453125 -0.796875q0.265625 -0.375 0.546875 -0.640625q0.28125 -0.265625 0.578125 -0.421875q0.3125 -0.15625 0.640625 -0.15625q0.484375 0 0.703125 0.28125q0.21875 0.28125 0.21875 0.703125q0 0.28125 -0.0625 0.609375q-0.046875 0.328125 -0.125 0.640625l-0.59375 2.625l0.78125 0l0 0.28125q-0.21875 0.15625 -0.515625 0.265625q-0.296875 0.109375 -0.59375 0.109375q-0.3125 0 -0.4375 -0.125q-0.109375 -0.125 -0.109375 -0.28125q0 -0.1875 0.046875 -0.421875q0.0625 -0.25 0.125 -0.484375l0.375 -1.78125q0.078125 -0.34375 0.125 -0.625q0.0625 -0.28125 0.0625 -0.546875q0 -0.25 -0.109375 -0.421875q-0.09375 -0.171875 -0.28125 -0.171875q-0.328125 0 -0.640625 0.234375q-0.3125 0.234375 -0.578125 0.5625q-0.265625 0.328125 -0.46875 0.6875q-0.203125 0.359375 -0.296875 0.59375l-0.578125 2.71875l-0.890625 0l1.46875 -7.265625l-0.734375 -0.09375z" fill-rule="nonzero"/><path fill="#000000" fill-opacity="0.0" d="m2.9183598 186.64737l37.543304 0l0 21.039383l-37.543304 0z" fill-rule="evenodd"/><path fill="#000000" d="m14.210719 193.64769l0 -0.25q0.15625 -0.0625 0.359375 -0.125q0.203125 -0.078125 0.40625 -0.125q0.21875 -0.0625 0.421875 -0.09375q0.203125 -0.046875 0.390625 -0.0625l0.21875095 0.09375l-0.96875095 4.484375l0.0625 0q0.203125 -0.4375 0.453125 -0.796875q0.265625 -0.375 0.54687595 -0.640625q0.28125 -0.265625 0.578125 -0.421875q0.3125 -0.15625 0.640625 -0.15625q0.484375 0 0.703125 0.28125q0.21875 0.28125 0.21875 0.703125q0 0.28125 -0.0625 0.609375q-0.046875 0.328125 -0.125 0.640625l-0.59375 2.625l0.78125 0l0 0.28125q-0.21875 0.15625 -0.515625 0.265625q-0.296875 0.109375 -0.59375 0.109375q-0.3125 0 -0.4375 -0.125q-0.109375 -0.125 -0.109375 -0.28125q0 -0.1875 0.046875 -0.421875q0.0625 -0.25 0.125 -0.484375l0.375 -1.78125q0.078125 -0.34375 0.125 -0.625q0.0625 -0.28125 0.0625 -0.546875q0 -0.25 -0.109375 -0.421875q-0.09375 -0.171875 -0.28125 -0.171875q-0.328125 0 -0.640625 0.234375q-0.31250095 0.234375 -0.57812595 0.5625q-0.265625 0.328125 -0.46875 0.6875q-0.203125 0.359375 -0.296875 0.59375l-0.578125 2.71875l-0.890625 0l1.46875 -7.265625l-0.734375 -0.09375z" fill-rule="nonzero"/><path fill="#000000" d="m19.3565 197.06956l2.109375 0l0 -2.25l0.5625 0l0 2.25l2.109375 0l0 0.5625l-2.109375 0l0 2.28125l-0.5625 0l0 -2.28125l-2.109375 0l0 -0.5625zm9.757965 3.9375l-3.109375 0l0 -0.3125q0.265625 -0.109375 0.53125 -0.203125q0.28125 -0.09375 0.546875 -0.15625l0 -5.234375l0.046875 -0.625q-0.296875 0.109375 -0.625 0.171875q-0.3125 0.046875 -0.65625 0.03125l-0.046875 -0.25q0.484375 -0.171875 1.0 -0.40625q0.53125 -0.234375 0.984375 -0.609375l0.265625 0l0 6.921875q0.265625 0.0625 0.53125 0.15625q0.265625 0.09375 0.53125 0.203125l0 0.3125z" fill-rule="nonzero"/><path fill="#000000" fill-opacity="0.0" d="m2.9183598 219.76721l37.543304 0l0 21.039383l-37.543304 0z" fill-rule="evenodd"/><path fill="#000000" d="m14.210719 226.76753l0 -0.25q0.15625 -0.0625 0.359375 -0.125q0.203125 -0.078125 0.40625 -0.125q0.21875 -0.0625 0.421875 -0.09375q0.203125 -0.046875 0.390625 -0.0625l0.21875095 0.09375l-0.96875095 4.484375l0.0625 0q0.203125 -0.4375 0.453125 -0.796875q0.265625 -0.375 0.54687595 -0.640625q0.28125 -0.265625 0.578125 -0.421875q0.3125 -0.15625 0.640625 -0.15625q0.484375 0 0.703125 0.28125q0.21875 0.28125 0.21875 0.703125q0 0.28125 -0.0625 0.609375q-0.046875 0.328125 -0.125 0.640625l-0.59375 2.625l0.78125 0l0 0.28125q-0.21875 0.15625 -0.515625 0.265625q-0.296875 0.109375 -0.59375 0.109375q-0.3125 0 -0.4375 -0.125q-0.109375 -0.125 -0.109375 -0.28125q0 -0.1875 0.046875 -0.421875q0.0625 -0.25 0.125 -0.484375l0.375 -1.78125q0.078125 -0.34375 0.125 -0.625q0.0625 -0.28125 0.0625 -0.546875q0 -0.25 -0.109375 -0.421875q-0.09375 -0.171875 -0.28125 -0.171875q-0.328125 0 -0.640625 0.234375q-0.31250095 0.234375 -0.57812595 0.5625q-0.265625 0.328125 -0.46875 0.6875q-0.203125 0.359375 -0.296875 0.59375l-0.578125 2.71875l-0.890625 0l1.46875 -7.265625l-0.734375 -0.09375z" fill-rule="nonzero"/><path fill="#000000" d="m19.3565 230.1894l2.109375 0l0 -2.25l0.5625 0l0 2.25l2.109375 0l0 0.5625l-2.109375 0l0 2.28125l-0.5625 0l0 -2.28125l-2.109375 0l0 -0.5625zm6.64859 -1.4375l-0.265625 0q-0.125 -0.3125 -0.25 -0.71875q-0.125 -0.421875 -0.203125 -0.796875q0.375 -0.328125 0.890625 -0.515625q0.53125 -0.1875 1.140625 -0.1875q0.53125 0 0.90625 0.15625q0.390625 0.15625 0.640625 0.40625q0.25 0.25 0.359375 0.59375q0.125 0.328125 0.125 0.6875q0 0.609375 -0.28125 1.234375q-0.28125 0.625 -0.6875 1.21875q-0.40625 0.59375 -0.890625 1.125q-0.484375 0.515625 -0.875 0.90625l-0.453125 0.40625l0 0.046875l0.59375 -0.0625l1.828125 0l0.53125 -1.1875l0.265625 0q0.015625 0.234375 0.03125 0.515625q0.03125 0.265625 0.046875 0.546875q0.015625 0.28125 0.015625 0.546875q0.015625 0.265625 0.015625 0.453125l-4.390625 0l0 -0.34375q0.234375 -0.25 0.5625 -0.59375q0.34375 -0.359375 0.703125 -0.78125q0.359375 -0.421875 0.71875 -0.890625q0.359375 -0.484375 0.625 -0.984375q0.28125 -0.5 0.453125 -0.984375q0.1875 -0.5 0.1875 -0.9375q0 -0.3125 -0.078125 -0.59375q-0.078125 -0.28125 -0.25 -0.484375q-0.15625 -0.203125 -0.390625 -0.3125q-0.21875 -0.125 -0.515625 -0.125q-0.234375 0 -0.40625 0.03125q-0.171875 0.03125 -0.359375 0.09375l-0.34375 1.53125z" fill-rule="nonzero"/><path fill="#000000" fill-opacity="0.0" d="m132.94928 49.505684c0 -6.8796425 5.577057 -12.456692 12.456696 -12.456692c3.3037262 0 6.4721375 1.312397 8.808212 3.6484795c2.33609 2.3360825 3.6484833 5.50449 3.6484833 8.808212c0 6.8796425 -5.577057 12.456692 -12.456696 12.456692c-6.8796387 0 -12.456696 -5.5770493 -12.456696 -12.456692z" fill-rule="evenodd"/><path stroke="#000000" stroke-width="1.0" stroke-linejoin="round" stroke-linecap="butt" d="m132.94928 49.505684c0 -6.8796425 5.577057 -12.456692 12.456696 -12.456692c3.3037262 0 6.4721375 1.312397 8.808212 3.6484795c2.33609 2.3360825 3.6484833 5.50449 3.6484833 8.808212c0 6.8796425 -5.577057 12.456692 -12.456696 12.456692c-6.8796387 0 -12.456696 -5.5770493 -12.456696 -12.456692z" fill-rule="evenodd"/><path fill="#000000" d="m144.74072 49.555683l-2.84375 -4.578125l1.34375 0l1.890625 3.15625l0.328125 0.765625l0.3125 -0.765625l2.0 -3.15625l1.234375 0l-2.9375 4.484375l3.0625 4.84375l-1.28125 0l-2.109375 -3.34375l-0.359375 -0.796875l-0.34375 0.796875l-2.15625 3.34375l-1.25 0l3.109375 -4.75z" fill-rule="nonzero"/><path fill="#ffffff" d="m196.30962 84.444534c0 -6.8796387 5.577057 -12.456688 12.456696 -12.456688c3.303711 0 6.472122 1.3123932 8.808212 3.6484756c2.3360748 2.3360825 3.6484833 5.5044937 3.6484833 8.808212c0 6.8796463 -5.577057 12.456696 -12.456696 12.456696c-6.8796387 0 -12.456696 -5.5770493 -12.456696 -12.456696z" fill-rule="evenodd"/><path stroke="#000000" stroke-width="1.0" stroke-linejoin="round" stroke-linecap="butt" d="m196.30962 84.444534c0 -6.8796387 5.577057 -12.456688 12.456696 -12.456688c3.303711 0 6.472122 1.3123932 8.808212 3.6484756c2.3360748 2.3360825 3.6484833 5.5044937 3.6484833 8.808212c0 6.8796463 -5.577057 12.456696 -12.456696 12.456696c-6.8796387 0 -12.456696 -5.5770493 -12.456696 -12.456696z" fill-rule="evenodd"/><path fill="#000000" d="m208.23528 85.54141l-3.078125 -5.625l1.296875 0l2.171875 4.078125l0.234375 0.8125l0.015625 0l0.234375 -0.84375l2.09375 -4.046875l1.1875 0l-3.046875 5.609375l0 3.71875l-1.109375 0l0 -3.703125z" fill-rule="nonzero"/><path fill="#000000" fill-opacity="0.0" d="m136.59776 58.313896l-52.409447 18.362206" fill-rule="evenodd"/><path stroke="#000000" stroke-width="1.0" stroke-linejoin="round" stroke-linecap="butt" d="m136.59776 58.313896l-46.746925 16.37828" fill-rule="evenodd"/><path fill="#000000" stroke="#000000" stroke-width="1.0" stroke-linecap="butt" d="m89.30468 73.133354l-3.7366867 3.0593643l4.8289948 0.058288574z" fill-rule="evenodd"/><path fill="#000000" fill-opacity="0.0" d="m154.21419 58.313896l45.732285 17.32283" fill-rule="evenodd"/><path stroke="#000000" stroke-width="1.0" stroke-linejoin="round" stroke-linecap="butt" d="m154.21419 58.313896l40.121338 15.197472" fill-rule="evenodd"/><path fill="#000000" stroke="#000000" stroke-width="1.0" stroke-linecap="butt" d="m193.75044 75.056l4.8289337 0.06288147l-3.6587677 -3.1521454z" fill-rule="evenodd"/><path fill="#000000" fill-opacity="0.0" d="m217.57452 93.25275l37.66928 15.653542" fill-rule="evenodd"/><path stroke="#000000" stroke-width="1.0" stroke-linejoin="round" stroke-linecap="butt" d="m217.57451 93.25275l32.12863 13.351112" fill-rule="evenodd"/><path fill="#000000" stroke="#000000" stroke-width="1.0" stroke-linecap="butt" d="m249.06932 108.12914l4.8245087 0.21616364l-3.556839 -3.2667236z" fill-rule="evenodd"/><path fill="#000000" fill-opacity="0.0" d="m145.40598 20.113667l0 16.944881" fill-rule="evenodd"/><path stroke="#000000" stroke-width="1.0" stroke-linejoin="round" stroke-linecap="butt" d="m145.40599 20.113667l0 10.944883" fill-rule="evenodd"/><path fill="#000000" stroke="#000000" stroke-width="1.0" stroke-linecap="butt" d="m143.75426 31.05855l1.6517334 4.5380993l1.6517181 -4.5380993z" fill-rule="evenodd"/><path fill="#ffffff" d="m59.495815 165.08195l24.678478 -88.39108l24.678474 88.39108z" fill-rule="evenodd"/><path stroke="#000000" stroke-width="1.0" stroke-linejoin="round" stroke-linecap="butt" d="m59.495815 165.08195l24.678478 -88.39108l24.678474 88.39108z" fill-rule="evenodd"/><path fill="#000000" d="m79.6374 141.12793l1.046875 0l0 -1.328125l1.0625 -0.3125l0 1.640625l1.8125 0l0 0.921875l-1.8125 0l0 3.6875q0 0.703125 0.171875 1.0q0.171875 0.28125 0.59375 0.28125q0.34375 0 0.578125 -0.078125q0.25 -0.078125 0.53125 -0.203125l0.25 0.8125q-0.359375 0.1875 -0.796875 0.28125q-0.421875 0.109375 -0.90625 0.109375q-0.8125 0 -1.15625 -0.453125q-0.328125 -0.46875 -0.328125 -1.546875l0 -3.890625l-1.046875 0l0 -0.921875z" fill-rule="nonzero"/><path fill="#000000" d="m84.96812 152.12793l1.25 0l0 -4.296875l0.09375 -0.515625l-0.359375 0.40625l-0.984375 0.703125l-0.328125 -0.453125l1.953125 -1.5l0.3125 0l0 5.65625l1.21875 0l0 0.65625l-3.15625 0l0 -0.65625z" fill-rule="nonzero"/><path fill="#000000" fill-opacity="0.0" d="m199.9581 93.25275l-35.874023 14.58268" fill-rule="evenodd"/><path stroke="#000000" stroke-width="1.0" stroke-linejoin="round" stroke-linecap="butt" d="m199.95808 93.25275l-30.31569 12.323235" fill-rule="evenodd"/><path fill="#000000" stroke="#000000" stroke-width="1.0" stroke-linecap="butt" d="m169.0204 104.04584l-3.5820312 3.2390747l4.8260345 -0.17878723z" fill-rule="evenodd"/><path fill="#f3f3f3" d="m103.16749 230.36302l28.796593 -88.39108l28.796585 88.39108z" fill-rule="evenodd"/><path stroke="#000000" stroke-width="1.0" stroke-linejoin="round" stroke-linecap="butt" stroke-dasharray="4.0,3.0" d="m103.16749 230.36302l28.796593 -88.39108l28.796585 88.39108z" fill-rule="evenodd"/><path fill="#000000" fill-opacity="0.0" d="m42.11223 165.11104l944.5039 0" fill-rule="evenodd"/><path stroke="#000000" stroke-width="1.0" stroke-linejoin="round" stroke-linecap="butt" stroke-dasharray="1.0,3.0" d="m42.11223 165.11104l944.5039 0" fill-rule="evenodd"/><path fill="#000000" fill-opacity="0.0" d="m40.461666 197.16707l944.9764 0" fill-rule="evenodd"/><path stroke="#000000" stroke-width="1.0" stroke-linejoin="round" stroke-linecap="butt" stroke-dasharray="1.0,3.0" d="m40.461666 197.16707l944.9764 0" fill-rule="evenodd"/><path fill="#000000" fill-opacity="0.0" d="m40.461666 230.2869l942.86615 0" fill-rule="evenodd"/><path stroke="#000000" stroke-width="1.0" stroke-linejoin="round" stroke-linecap="butt" stroke-dasharray="1.0,3.0" d="m40.461666 230.2869l942.86615 0" fill-rule="evenodd"/><path fill="#efefef" d="m287.06537 88.91419l73.13385 0l0 -8.3937l16.787415 16.7874l-16.787415 16.7874l0 -8.3937l-73.13385 0z" fill-rule="evenodd"/><path stroke="#000000" stroke-width="1.0" stroke-linejoin="round" stroke-linecap="butt" d="m287.06537 88.91419l73.13385 0l0 -8.3937l16.787415 16.7874l-16.787415 16.7874l0 -8.3937l-73.13385 0z" fill-rule="evenodd"/><path fill="#000000" d="m297.00113 93.657265q0.40625 -0.0625 0.921875 -0.109375q0.53125 -0.046875 0.96875 -0.046875q0.5 0 0.9375 0.109375q0.4375 0.109375 0.765625 0.359375q0.34375 0.234375 0.546875 0.640625q0.203125 0.390625 0.203125 0.953125q0 0.875 -0.484375 1.421875q-0.46875 0.53125 -1.203125 0.71875l0.515625 0.390625l1.84375 2.953125l-1.03125 0l-2.0625 -3.21875l-1.03125 -0.15625l0 3.375l-0.890625 0l0 -7.390625zm1.921875 0.609375q-0.140625 0 -0.296875 0q-0.140625 0 -0.28125 0.015625q-0.140625 0.015625 -0.265625 0.03125q-0.125 0 -0.1875 0.015625l0 2.75l0.828125 0q0.734375 0 1.203125 -0.359375q0.484375 -0.359375 0.484375 -1.125q0 -0.578125 -0.390625 -0.953125q-0.390625 -0.375 -1.09375 -0.375zm4.5124207 1.453125l0.859375 0l0 5.328125l-0.859375 0l0 -5.328125zm-0.171875 -1.625q0 -0.234375 0.15625 -0.40625q0.171875 -0.1875 0.421875 -0.1875q0.25 0 0.4375 0.1875q0.1875 0.171875 0.1875 0.40625q0 0.25 -0.1875 0.40625q-0.1875 0.15625 -0.4375 0.15625q-0.25 0 -0.421875 -0.15625q-0.15625 -0.15625 -0.15625 -0.40625zm6.934021 7.203125q0 1.03125 -0.5625 1.515625q-0.546875 0.5 -1.609375 0.5q-0.640625 0 -1.03125 -0.09375q-0.390625 -0.078125 -0.671875 -0.203125l0.21875 -0.71875q0.25 0.09375 0.546875 0.171875q0.296875 0.09375 0.78125 0.09375q0.453125 0 0.734375 -0.078125q0.28125 -0.078125 0.453125 -0.265625q0.171875 -0.1875 0.234375 -0.484375q0.0625 -0.296875 0.0625 -0.703125l0 -0.5l-0.046875 0q-0.21875 0.296875 -0.546875 0.46875q-0.328125 0.171875 -0.859375 0.171875q-1.078125 0 -1.59375 -0.671875q-0.5 -0.671875 -0.5 -2.09375q0 -1.359375 0.65625 -2.0625q0.65625 -0.71875 1.921875 -0.71875q0.609375 0 1.03125 0.09375q0.4375 0.09375 0.78125 0.21875l0 5.359375zm-2.140625 -0.875q0.53125 0 0.84375 -0.265625q0.3125 -0.28125 0.4375 -0.859375l0 -2.71875q-0.421875 -0.203125 -1.078125 -0.203125q-0.734375 0 -1.15625 0.484375q-0.40625 0.484375 -0.40625 1.53125q0 0.453125 0.078125 0.828125q0.078125 0.375 0.234375 0.640625q0.15625 0.265625 0.40625 0.421875q0.265625 0.140625 0.640625 0.140625zm7.191223 0.625l0 -3.03125q0 -0.421875 -0.046875 -0.734375q-0.046875 -0.3125 -0.171875 -0.515625q-0.125 -0.21875 -0.34375 -0.3125q-0.21875 -0.109375 -0.578125 -0.109375q-0.5 0 -0.90625 0.328125q-0.390625 0.3125 -0.515625 0.828125l0 3.546875l-0.84375 0l0 -7.453125l0.84375 0l0 2.71875l0.046875 0q0.28125 -0.328125 0.65625 -0.515625q0.390625 -0.203125 0.96875 -0.203125q0.453125 0 0.78125 0.109375q0.328125 0.09375 0.546875 0.359375q0.21875 0.25 0.3125 0.6875q0.109375 0.421875 0.109375 1.078125l0 3.21875l-0.859375 0zm1.719635 -5.328125l0.828125 0l0 -1.0625l0.84375 -0.234375l0 1.296875l1.453125 0l0 0.75l-1.453125 0l0 2.953125q0 0.546875 0.140625 0.78125q0.140625 0.21875 0.46875 0.21875q0.28125 0 0.46875 -0.046875q0.1875 -0.0625 0.421875 -0.15625l0.203125 0.640625q-0.296875 0.140625 -0.640625 0.21875q-0.328125 0.09375 -0.734375 0.09375q-0.640625 0 -0.90625 -0.359375q-0.265625 -0.375 -0.265625 -1.234375l0 -3.109375l-0.828125 0l0 -0.75zm3.7711792 1.859375l2.578125 0l0 0.796875l-2.578125 0l0 -0.796875zm6.539398 -1.03125q-0.3125 -0.109375 -0.59375 -0.109375q-0.46875 0 -0.734375 0.25q-0.265625 0.25 -0.328125 0.625l0 3.734375l-0.84375 0l0 -5.328125l0.59375 0l0.15625 0.65625l0.046875 0q0.203125 -0.375 0.484375 -0.5625q0.28125 -0.203125 0.71875 -0.203125q0.3125 0 0.6875 0.109375l-0.1875 0.828125zm0.81066895 1.828125q0 -1.34375 0.59375 -2.0625q0.609375 -0.71875 1.75 -0.71875q0.59375 0 1.03125 0.203125q0.453125 0.1875 0.734375 0.5625q0.28125 0.359375 0.421875 0.875q0.140625 0.515625 0.140625 1.140625q0 1.359375 -0.609375 2.078125q-0.59375 0.71875 -1.71875 0.71875q-0.59375 0 -1.046875 -0.1875q-0.4375 -0.203125 -0.734375 -0.5625q-0.28125 -0.375 -0.421875 -0.890625q-0.140625 -0.515625 -0.140625 -1.15625zm0.890625 0q0 0.40625 0.078125 0.78125q0.078125 0.375 0.25 0.65625q0.171875 0.28125 0.453125 0.453125q0.28125 0.15625 0.671875 0.15625q1.453125 0.015625 1.453125 -2.046875q0 -0.40625 -0.09375 -0.78125q-0.078125 -0.375 -0.25 -0.640625q-0.171875 -0.28125 -0.453125 -0.4375q-0.265625 -0.171875 -0.65625 -0.171875q-1.453125 -0.015625 -1.453125 2.03125zm4.4305725 -2.65625l0.828125 0l0 -1.0625l0.84375 -0.234375l0 1.296875l1.453125 0l0 0.75l-1.453125 0l0 2.953125q0 0.546875 0.140625 0.78125q0.140625 0.21875 0.46875 0.21875q0.28125 0 0.46875 -0.046875q0.1875 -0.0625 0.421875 -0.15625l0.203125 0.640625q-0.296875 0.140625 -0.640625 0.21875q-0.328125 0.09375 -0.734375 0.09375q-0.640625 0 -0.90625 -0.359375q-0.265625 -0.375 -0.265625 -1.234375l0 -3.109375l-0.828125 0l0 -0.75zm4.221863 0.390625q0.40625 -0.234375 0.9375 -0.34375q0.546875 -0.125 1.125 -0.125q0.5625 0 0.890625 0.15625q0.34375 0.140625 0.515625 0.375q0.171875 0.234375 0.234375 0.53125q0.0625 0.28125 0.0625 0.578125q0 0.625 -0.03125 1.234375q-0.03125 0.609375 -0.03125 1.15625q0 0.390625 0.03125 0.75q0.03125 0.34375 0.109375 0.640625l-0.625 0l-0.21875 -0.734375l-0.0625 0q-0.09375 0.140625 -0.234375 0.296875q-0.140625 0.140625 -0.34375 0.25q-0.203125 0.109375 -0.46875 0.171875q-0.265625 0.078125 -0.609375 0.078125q-0.34375 0 -0.640625 -0.09375q-0.28125 -0.109375 -0.5 -0.296875q-0.21875 -0.203125 -0.34375 -0.484375q-0.109375 -0.28125 -0.109375 -0.625q0 -0.46875 0.1875 -0.78125q0.1875 -0.328125 0.53125 -0.515625q0.34375 -0.1875 0.828125 -0.265625q0.5 -0.078125 1.078125 -0.078125q0.15625 0 0.296875 0q0.140625 0 0.296875 0.03125q0.03125 -0.328125 0.03125 -0.578125q0 -0.59375 -0.234375 -0.828125q-0.234375 -0.234375 -0.859375 -0.234375q-0.1875 0 -0.390625 0.03125q-0.203125 0.03125 -0.421875 0.078125q-0.21875 0.046875 -0.421875 0.125q-0.1875 0.0625 -0.34375 0.140625l-0.265625 -0.640625zm1.515625 4.28125q0.296875 0 0.53125 -0.078125q0.234375 -0.09375 0.40625 -0.203125q0.171875 -0.125 0.28125 -0.265625q0.109375 -0.15625 0.171875 -0.296875l0 -0.890625q-0.15625 0 -0.3125 0q-0.15625 -0.015625 -0.296875 -0.015625q-0.328125 0 -0.65625 0.046875q-0.3125 0.03125 -0.546875 0.140625q-0.234375 0.09375 -0.390625 0.265625q-0.140625 0.171875 -0.140625 0.4375q0 0.375 0.265625 0.625q0.265625 0.234375 0.6875 0.234375zm3.160553 -4.671875l0.828125 0l0 -1.0625l0.84375 -0.234375l0 1.296875l1.453125 0l0 0.75l-1.453125 0l0 2.953125q0 0.546875 0.140625 0.78125q0.140625 0.21875 0.46875 0.21875q0.28125 0 0.46875 -0.046875q0.1875 -0.0625 0.421875 -0.15625l0.203125 0.640625q-0.296875 0.140625 -0.640625 0.21875q-0.328125 0.09375 -0.734375 0.09375q-0.640625 0 -0.90625 -0.359375q-0.265625 -0.375 -0.265625 -1.234375l0 -3.109375l-0.828125 0l0 -0.75zm8.073303 4.90625q-0.3125 0.25 -0.796875 0.40625q-0.484375 0.140625 -1.03125 0.140625q-0.609375 0 -1.0625 -0.1875q-0.4375 -0.203125 -0.734375 -0.5625q-0.28125 -0.375 -0.421875 -0.890625q-0.140625 -0.515625 -0.140625 -1.15625q0 -1.359375 0.609375 -2.0625q0.609375 -0.71875 1.734375 -0.71875q0.375 0 0.734375 0.078125q0.359375 0.078125 0.640625 0.3125q0.296875 0.21875 0.46875 0.625q0.1875 0.40625 0.1875 1.078125q0 0.359375 -0.0625 0.78125l-3.421875 0q0 0.46875 0.09375 0.828125q0.09375 0.359375 0.296875 0.609375q0.203125 0.25 0.53125 0.390625q0.328125 0.125 0.796875 0.125q0.359375 0 0.71875 -0.125q0.359375 -0.125 0.546875 -0.296875l0.3125 0.625zm-1.828125 -4.28125q-0.625 0 -1.015625 0.328125q-0.375 0.328125 -0.4375 1.125l2.640625 0q0 -0.8125 -0.3125 -1.125q-0.3125 -0.328125 -0.875 -0.328125zm7.610565 1.734375l-2.46875 -4.484375l1.046875 0l1.734375 3.25l0.1875 0.65625l0.015625 0l0.1875 -0.671875l1.671875 -3.234375l0.953125 0l-2.4375 4.484375l0 2.96875l-0.890625 0l0 -2.96875z" fill-rule="nonzero"/><path fill="#ffffff" d="m230.56406 197.28606l24.678482 -88.391075l24.678482 88.391075z" fill-rule="evenodd"/><path stroke="#000000" stroke-width="1.0" stroke-linejoin="round" stroke-linecap="butt" d="m230.56406 197.28606l24.678482 -88.391075l24.678482 88.391075z" fill-rule="evenodd"/><path fill="#000000" d="m250.70564 173.33203l1.046875 0l0 -1.328125l1.0625 -0.3125l0 1.640625l1.8125 0l0 0.921875l-1.8125 0l0 3.6875q0 0.703125 0.171875 1.0q0.171875 0.28125 0.59375 0.28125q0.34375 0 0.578125 -0.078125q0.25 -0.078125 0.53125 -0.203125l0.25 0.8125q-0.359375 0.1875 -0.796875 0.28125q-0.421875 0.109375 -0.90625 0.109375q-0.8125 0 -1.15625 -0.453125q-0.328125 -0.46875 -0.328125 -1.546875l0 -3.890625l-1.046875 0l0 -0.921875z" fill-rule="nonzero"/><path fill="#000000" d="m259.73947 183.08203l-1.046875 0l0 1.90625l-0.703125 0l0 -1.90625l-2.7343597 0l0 -0.296875l2.9531097 -4.109375l0.484375 0l0 3.78125l1.046875 0l0 0.625zm-1.75 -2.5625l0.09375 -0.71875l-0.03125 0l-0.3125 0.59375l-1.25 1.703125l-0.421875 0.4375l0.625 -0.078125l1.296875 0l0 -1.9375z" fill-rule="nonzero"/><path fill="#efefef" d="m623.861 88.91408l73.13385 0l0 -8.3937l16.787415 16.7874l-16.787415 16.7874l0 -8.3937l-73.13385 0z" fill-rule="evenodd"/><path stroke="#000000" stroke-width="0.84251968503937" stroke-linejoin="round" stroke-linecap="butt" d="m623.861 88.91408l73.13385 0l0 -8.3937l16.787415 16.7874l-16.787415 16.7874l0 -8.3937l-73.13385 0z" fill-rule="evenodd"/><path fill="#000000" d="m641.4962 101.047775l-4.40625 0l0 -7.453125l0.890625 0l0 6.671875l3.515625 0l0 0.78125zm4.27063 -0.421875q-0.3125 0.25 -0.796875 0.40625q-0.484375 0.140625 -1.03125 0.140625q-0.609375 0 -1.0625 -0.1875q-0.4375 -0.203125 -0.734375 -0.5625q-0.28125 -0.375 -0.421875 -0.890625q-0.140625 -0.515625 -0.140625 -1.15625q0 -1.359375 0.609375 -2.0625q0.609375 -0.71875 1.734375 -0.71875q0.375 0 0.734375 0.078125q0.359375 0.078125 0.640625 0.3125q0.296875 0.21875 0.46875 0.625q0.1875 0.40625 0.1875 1.078125q0 0.359375 -0.0625 0.78125l-3.421875 0q0 0.46875 0.09375 0.828125q0.09375 0.359375 0.296875 0.609375q0.203125 0.25 0.53125 0.390625q0.328125 0.125 0.796875 0.125q0.359375 0 0.71875 -0.125q0.359375 -0.125 0.546875 -0.296875l0.3125 0.625zm-1.828125 -4.28125q-0.625 0 -1.015625 0.328125q-0.375 0.328125 -0.4375 1.125l2.640625 0q0 -0.8125 -0.3125 -1.125q-0.3125 -0.328125 -0.875 -0.328125zm2.7728271 -0.625l0.828125 0l0 -0.296875q0 -0.484375 0.078125 -0.84375q0.078125 -0.375 0.265625 -0.59375q0.1875 -0.234375 0.46875 -0.34375q0.28125 -0.109375 0.71875 -0.109375q0.34375 0 0.59375 0.046875q0.265625 0.03125 0.546875 0.140625l-0.1875 0.71875q-0.25 -0.109375 -0.46875 -0.140625q-0.21875 -0.03125 -0.40625 -0.03125q-0.28125 0 -0.4375 0.09375q-0.140625 0.078125 -0.21875 0.25q-0.0625 0.15625 -0.078125 0.40625q-0.015625 0.234375 -0.015625 0.546875l0 0.15625l1.40625 0l0 0.75l-1.40625 0l0 4.578125l-0.859375 0l0 -4.578125l-0.828125 0l0 -0.75zm3.1193237 0l0.828125 0l0 -1.0625l0.84375 -0.234375l0 1.296875l1.453125 0l0 0.75l-1.453125 0l0 2.953125q0 0.546875 0.140625 0.78125q0.140625 0.21875 0.46875 0.21875q0.28125 0 0.46875 -0.046875q0.1875 -0.0625 0.421875 -0.15625l0.203125 0.640625q-0.296875 0.140625 -0.640625 0.21875q-0.328125 0.09375 -0.734375 0.09375q-0.640625 0 -0.90625 -0.359375q-0.265625 -0.375 -0.265625 -1.234375l0 -3.109375l-0.828125 0l0 -0.75zm3.7711792 1.859375l2.578125 0l0 0.796875l-2.578125 0l0 -0.796875zm6.5394287 -1.03125q-0.3125 -0.109375 -0.59375 -0.109375q-0.46875 0 -0.734375 0.25q-0.265625 0.25 -0.328125 0.625l0 3.734375l-0.84375 0l0 -5.328125l0.59375 0l0.15625 0.65625l0.046875 0q0.203125 -0.375 0.484375 -0.5625q0.28125 -0.203125 0.71875 -0.203125q0.3125 0 0.6875 0.109375l-0.1875 0.828125zm0.81066895 1.828125q0 -1.34375 0.59375 -2.0625q0.609375 -0.71875 1.75 -0.71875q0.59375 0 1.03125 0.203125q0.453125 0.1875 0.734375 0.5625q0.28125 0.359375 0.421875 0.875q0.140625 0.515625 0.140625 1.140625q0 1.359375 -0.609375 2.078125q-0.59375 0.71875 -1.71875 0.71875q-0.59375 0 -1.046875 -0.1875q-0.4375 -0.203125 -0.734375 -0.5625q-0.28125 -0.375 -0.421875 -0.890625q-0.140625 -0.515625 -0.140625 -1.15625zm0.890625 0q0 0.40625 0.078125 0.78125q0.078125 0.375 0.25 0.65625q0.171875 0.28125 0.453125 0.453125q0.28125 0.15625 0.671875 0.15625q1.453125 0.015625 1.453125 -2.046875q0 -0.40625 -0.09375 -0.78125q-0.078125 -0.375 -0.25 -0.640625q-0.171875 -0.28125 -0.453125 -0.4375q-0.265625 -0.171875 -0.65625 -0.171875q-1.453125 -0.015625 -1.453125 2.03125zm4.430542 -2.65625l0.828125 0l0 -1.0625l0.84375 -0.234375l0 1.296875l1.453125 0l0 0.75l-1.453125 0l0 2.953125q0 0.546875 0.140625 0.78125q0.140625 0.21875 0.46875 0.21875q0.28125 0 0.46875 -0.046875q0.1875 -0.0625 0.421875 -0.15625l0.203125 0.640625q-0.296875 0.140625 -0.640625 0.21875q-0.328125 0.09375 -0.734375 0.09375q-0.640625 0 -0.90625 -0.359375q-0.265625 -0.375 -0.265625 -1.234375l0 -3.109375l-0.828125 0l0 -0.75zm4.221863 0.390625q0.40625 -0.234375 0.9375 -0.34375q0.546875 -0.125 1.125 -0.125q0.5625 0 0.890625 0.15625q0.34375 0.140625 0.515625 0.375q0.171875 0.234375 0.234375 0.53125q0.0625 0.28125 0.0625 0.578125q0 0.625 -0.03125 1.234375q-0.03125 0.609375 -0.03125 1.15625q0 0.390625 0.03125 0.75q0.03125 0.34375 0.109375 0.640625l-0.625 0l-0.21875 -0.734375l-0.0625 0q-0.09375 0.140625 -0.234375 0.296875q-0.140625 0.140625 -0.34375 0.25q-0.203125 0.109375 -0.46875 0.171875q-0.265625 0.078125 -0.609375 0.078125q-0.34375 0 -0.640625 -0.09375q-0.28125 -0.109375 -0.5 -0.296875q-0.21875 -0.203125 -0.34375 -0.484375q-0.109375 -0.28125 -0.109375 -0.625q0 -0.46875 0.1875 -0.78125q0.1875 -0.328125 0.53125 -0.515625q0.34375 -0.1875 0.828125 -0.265625q0.5 -0.078125 1.078125 -0.078125q0.15625 0 0.296875 0q0.140625 0 0.296875 0.03125q0.03125 -0.328125 0.03125 -0.578125q0 -0.59375 -0.234375 -0.828125q-0.234375 -0.234375 -0.859375 -0.234375q-0.1875 0 -0.390625 0.03125q-0.203125 0.03125 -0.421875 0.078125q-0.21875 0.046875 -0.421875 0.125q-0.1875 0.0625 -0.34375 0.140625l-0.265625 -0.640625zm1.515625 4.28125q0.296875 0 0.53125 -0.078125q0.234375 -0.09375 0.40625 -0.203125q0.171875 -0.125 0.28125 -0.265625q0.109375 -0.15625 0.171875 -0.296875l0 -0.890625q-0.15625 0 -0.3125 0q-0.15625 -0.015625 -0.296875 -0.015625q-0.328125 0 -0.65625 0.046875q-0.3125 0.03125 -0.546875 0.140625q-0.234375 0.09375 -0.390625 0.265625q-0.140625 0.171875 -0.140625 0.4375q0 0.375 0.265625 0.625q0.265625 0.234375 0.6875 0.234375zm3.1605835 -4.671875l0.828125 0l0 -1.0625l0.84375 -0.234375l0 1.296875l1.453125 0l0 0.75l-1.453125 0l0 2.953125q0 0.546875 0.140625 0.78125q0.140625 0.21875 0.46875 0.21875q0.28125 0 0.46875 -0.046875q0.1875 -0.0625 0.421875 -0.15625l0.203125 0.640625q-0.296875 0.140625 -0.640625 0.21875q-0.328125 0.09375 -0.734375 0.09375q-0.640625 0 -0.90625 -0.359375q-0.265625 -0.375 -0.265625 -1.234375l0 -3.109375l-0.828125 0l0 -0.75zm8.073303 4.90625q-0.3125 0.25 -0.796875 0.40625q-0.484375 0.140625 -1.03125 0.140625q-0.609375 0 -1.0625 -0.1875q-0.4375 -0.203125 -0.734375 -0.5625q-0.28125 -0.375 -0.421875 -0.890625q-0.140625 -0.515625 -0.140625 -1.15625q0 -1.359375 0.609375 -2.0625q0.609375 -0.71875 1.734375 -0.71875q0.375 0 0.734375 0.078125q0.359375 0.078125 0.640625 0.3125q0.296875 0.21875 0.46875 0.625q0.1875 0.40625 0.1875 1.078125q0 0.359375 -0.0625 0.78125l-3.421875 0q0 0.46875 0.09375 0.828125q0.09375 0.359375 0.296875 0.609375q0.203125 0.25 0.53125 0.390625q0.328125 0.125 0.796875 0.125q0.359375 0 0.71875 -0.125q0.359375 -0.125 0.546875 -0.296875l0.3125 0.625zm-1.828125 -4.28125q-0.625 0 -1.015625 0.328125q-0.375 0.328125 -0.4375 1.125l2.640625 0q0 -0.8125 -0.3125 -1.125q-0.3125 -0.328125 -0.875 -0.328125zm7.8292847 0.90625l-2.28125 -3.65625l1.078125 0l1.5 2.515625l0.265625 0.609375l0.265625 -0.609375l1.59375 -2.515625l0.984375 0l-2.34375 3.578125l2.453125 3.875l-1.03125 0l-1.6875 -2.671875l-0.296875 -0.640625l-0.265625 0.640625l-1.734375 2.671875l-0.984375 0l2.484375 -3.796875z" fill-rule="nonzero"/><path fill="#000000" fill-opacity="0.0" d="m836.8817 25.91676l29.448853 0l0 21.039371l-29.448853 0z" fill-rule="evenodd"/><path fill="#000000" d="m849.47046 36.53082q0 -1.671875 0.546875 -2.515625q0.546875 -0.859375 1.578125 -0.859375q1.140625 0 1.640625 0.84375q0.515625 0.828125 0.515625 2.53125q0 1.6875 -0.546875 2.53125q-0.546875 0.84375 -1.609375 0.84375q-1.109375 0 -1.625 -0.875q-0.5 -0.890625 -0.5 -2.5zm0.765625 0q0 0.609375 0.078125 1.109375q0.078125 0.5 0.25 0.859375q0.171875 0.359375 0.421875 0.5625q0.265625 0.1875 0.609375 0.1875q0.71875 0 1.046875 -0.65625q0.328125 -0.65625 0.328125 -2.0625q0 -0.59375 -0.078125 -1.09375q-0.0625 -0.515625 -0.234375 -0.875q-0.15625 -0.359375 -0.421875 -0.546875q-0.25 -0.203125 -0.640625 -0.203125q-0.6875 0 -1.03125 0.65625q-0.328125 0.65625 -0.328125 2.0625z" fill-rule="nonzero"/><path fill="#000000" fill-opacity="0.0" d="m823.18567 49.505684c0 -6.8796425 5.5770874 -12.456692 12.456726 -12.456692c3.303711 0 6.472107 1.312397 8.8081665 3.6484795c2.3361206 2.3360825 3.6484985 5.50449 3.6484985 8.808212c0 6.8796425 -5.5770264 12.456692 -12.456665 12.456692c-6.8796387 0 -12.456726 -5.5770493 -12.456726 -12.456692z" fill-rule="evenodd"/><path stroke="#000000" stroke-width="1.0" stroke-linejoin="round" stroke-linecap="butt" d="m823.18567 49.505684c0 -6.8796425 5.5770874 -12.456692 12.456726 -12.456692c3.303711 0 6.472107 1.312397 8.8081665 3.6484795c2.3361206 2.3360825 3.6484985 5.50449 3.6484985 8.808212c0 6.8796425 -5.5770264 12.456692 -12.456665 12.456692c-6.8796387 0 -12.456726 -5.5770493 -12.456726 -12.456692z" fill-rule="evenodd"/><path fill="#000000" d="m832.5105 53.305683l4.71875 -6.8125l0.546875 -0.53125l-5.265625 0l0 -0.984375l6.265625 0l0 1.0l-4.71875 6.84375l-0.5625 0.5l5.28125 0l0 0.984375l-6.265625 0l0 -1.0z" fill-rule="nonzero"/><path fill="#ffffff" d="m763.19836 86.736336c0 -6.8796387 5.5770874 -12.456688 12.456726 -12.456688c3.303711 0 6.472107 1.3123932 8.808228 3.6484756c2.3360596 2.3360825 3.6484375 5.5044937 3.6484375 8.808212c0 6.8796463 -5.5770264 12.456696 -12.456665 12.456696c-6.8796387 0 -12.456726 -5.5770493 -12.456726 -12.456696z" fill-rule="evenodd"/><path stroke="#000000" stroke-width="1.0" stroke-linejoin="round" stroke-linecap="butt" d="m763.19836 86.736336c0 -6.8796387 5.5770874 -12.456688 12.456726 -12.456688c3.303711 0 6.472107 1.3123932 8.808228 3.6484756c2.3360596 2.3360825 3.6484375 5.5044937 3.6484375 8.808212c0 6.8796463 -5.5770264 12.456696 -12.456665 12.456696c-6.8796387 0 -12.456726 -5.5770493 -12.456726 -12.456696z" fill-rule="evenodd"/><path fill="#000000" d="m774.9898 86.78634l-2.84375 -4.578125l1.34375 0l1.890625 3.15625l0.328125 0.765625l0.3125 -0.765625l2.0 -3.15625l1.234375 0l-2.9375 4.484375l3.0625 4.84375l-1.28125 0l-2.109375 -3.34375l-0.359375 -0.796875l-0.34375 0.796875l-2.15625 3.34375l-1.25 0l3.109375 -4.75z" fill-rule="nonzero"/><path fill="#000000" fill-opacity="0.0" d="m826.83417 58.313896l-51.18109 15.968506" fill-rule="evenodd"/><path stroke="#000000" stroke-width="1.0" stroke-linejoin="round" stroke-linecap="butt" d="m826.83417 58.313896l-45.45343 14.1814575" fill-rule="evenodd"/><path fill="#000000" stroke="#000000" stroke-width="1.0" stroke-linecap="butt" d="m780.8888 70.91859l-3.84021 2.9283981l4.8240967 0.22514343z" fill-rule="evenodd"/><path fill="#000000" fill-opacity="0.0" d="m844.45056 58.313896l53.07086 15.968506" fill-rule="evenodd"/><path stroke="#000000" stroke-width="1.0" stroke-linejoin="round" stroke-linecap="butt" d="m844.45056 58.313896l47.325256 14.239723" fill-rule="evenodd"/><path fill="#000000" stroke="#000000" stroke-width="1.0" stroke-linecap="butt" d="m891.2999 74.13531l4.821594 -0.27412415l-3.869751 -2.8892517z" fill-rule="evenodd"/><path fill="#000000" fill-opacity="0.0" d="m784.4633 95.54455l21.259827 14.425201" fill-rule="evenodd"/><path stroke="#000000" stroke-width="1.0" stroke-linejoin="round" stroke-linecap="butt" d="m784.46326 95.54455l16.29486 11.056366" fill-rule="evenodd"/><path fill="#000000" stroke="#000000" stroke-width="1.0" stroke-linecap="butt" d="m799.83075 107.96772l4.682617 1.1812057l-2.8278198 -3.9148102z" fill-rule="evenodd"/><path fill="#000000" fill-opacity="0.0" d="m835.6424 20.113667l0 16.944881" fill-rule="evenodd"/><path stroke="#000000" stroke-width="1.0" stroke-linejoin="round" stroke-linecap="butt" d="m835.6424 20.113667l0 10.944883" fill-rule="evenodd"/><path fill="#000000" stroke="#000000" stroke-width="1.0" stroke-linecap="butt" d="m833.99066 31.05855l1.6517334 4.5380993l1.6517334 -4.5380993z" fill-rule="evenodd"/><path fill="#ffffff" d="m721.17694 197.28574l24.678467 -88.391075l24.678467 88.391075z" fill-rule="evenodd"/><path stroke="#000000" stroke-width="1.0" stroke-linejoin="round" stroke-linecap="butt" d="m721.17694 197.28574l24.678467 -88.391075l24.678467 88.391075z" fill-rule="evenodd"/><path fill="#000000" d="m741.3185 173.33171l1.046875 0l0 -1.328125l1.0625 -0.3125l0 1.640625l1.8125 0l0 0.921875l-1.8125 0l0 3.6875q0 0.703125 0.171875 1.0q0.171875 0.28125 0.59375 0.28125q0.34375 0 0.578125 -0.078125q0.25 -0.078125 0.53125 -0.203125l0.25 0.8125q-0.359375 0.1875 -0.796875 0.28125q-0.421875 0.109375 -0.90625 0.109375q-0.8125 0 -1.15625 -0.453125q-0.328125 -0.46875 -0.328125 -1.546875l0 -3.890625l-1.046875 0l0 -0.921875z" fill-rule="nonzero"/><path fill="#000000" d="m746.64923 184.33171l1.25 0l0 -4.296875l0.09375 -0.515625l-0.359375 0.40625l-0.984375 0.703125l-0.328125 -0.453125l1.953125 -1.5l0.3125 0l0 5.65625l1.21875 0l0 0.65625l-3.15625 0l0 -0.65625z" fill-rule="nonzero"/><path fill="#000000" fill-opacity="0.0" d="m766.84686 95.54455l-20.97638 13.354332" fill-rule="evenodd"/><path stroke="#000000" stroke-width="1.0" stroke-linejoin="round" stroke-linecap="butt" d="m766.84686 95.54455l-15.915039 10.132095" fill-rule="evenodd"/><path fill="#000000" stroke="#000000" stroke-width="1.0" stroke-linecap="butt" d="m750.0448 104.28331l-2.941101 3.8304672l4.715149 -1.043808z" fill-rule="evenodd"/><path fill="#ffffff" d="m781.0365 165.09529l24.677185 -55.136482l24.677124 55.136482z" fill-rule="evenodd"/><path stroke="#000000" stroke-width="1.0" stroke-linejoin="round" stroke-linecap="butt" d="m781.0365 165.09529l24.677185 -55.136482l24.677124 55.136482z" fill-rule="evenodd"/><path fill="#000000" d="m801.17676 149.45493l1.046875 0l0 -1.328125l1.0625 -0.3125l0 1.640625l1.8125 0l0 0.921875l-1.8125 0l0 3.6875q0 0.703125 0.171875 1.0q0.171875 0.28125 0.59375 0.28125q0.34375 0 0.578125 -0.078125q0.25 -0.078125 0.53125 -0.203125l0.25 0.8125q-0.359375 0.1875 -0.796875 0.28125q-0.421875 0.109375 -0.90625 0.109375q-0.8125 0 -1.15625 -0.453125q-0.328125 -0.46875 -0.328125 -1.546875l0 -3.890625l-1.046875 0l0 -0.921875z" fill-rule="nonzero"/><path fill="#000000" d="m809.5075 156.3143q0 0.46875 -0.171875 0.96875q-0.171875 0.484375 -0.453125 0.984375q-0.28125 0.484375 -0.625 0.96875q-0.34375 0.46875 -0.6875 0.90625l-0.4375 0.375l0 0.03125l0.5625 -0.09375l1.9375 0l0 0.65625l-3.53125 0l0 -0.25q0.203125 -0.21875 0.46875 -0.515625q0.28125 -0.296875 0.578125 -0.65625q0.296875 -0.375 0.578125 -0.78125q0.296875 -0.421875 0.53125 -0.84375q0.234375 -0.4375 0.375 -0.84375q0.140625 -0.421875 0.140625 -0.796875q0 -0.4375 -0.25 -0.71875q-0.25 -0.296875 -0.75 -0.296875q-0.34375 0 -0.65625 0.140625q-0.3125 0.140625 -0.546875 0.3125l-0.296875 -0.5q0.3125 -0.265625 0.734375 -0.40625q0.421875 -0.15625 0.921875 -0.15625q0.375 0 0.671875 0.109375q0.296875 0.109375 0.5 0.3125q0.203125 0.203125 0.296875 0.484375q0.109375 0.28125 0.109375 0.609375z" fill-rule="nonzero"/><path fill="#000000" fill-opacity="0.0" d="m471.37585 27.3352l29.448822 0l0 21.03937l-29.448822 0z" fill-rule="evenodd"/><path fill="#000000" d="m481.578 37.73051l1.640625 0l0 -1.6875l0.671875 0l0 1.6875l1.640625 0l0 0.671875l-1.640625 0l0 1.671875l-0.671875 0l0 -1.671875l-1.640625 0l0 -0.671875zm8.491943 -1.5625q0 0.5 -0.1875 1.015625q-0.171875 0.515625 -0.46875 1.046875q-0.296875 0.515625 -0.65625 1.015625q-0.359375 0.5 -0.71875 0.9375l-0.46875 0.40625l0 0.03125l0.59375 -0.09375l2.046875 0l0 0.6875l-3.71875 0l0 -0.265625q0.203125 -0.21875 0.484375 -0.53125q0.296875 -0.328125 0.609375 -0.703125q0.3125 -0.390625 0.609375 -0.828125q0.3125 -0.4375 0.5625 -0.875q0.25 -0.453125 0.390625 -0.890625q0.15625 -0.4375 0.15625 -0.828125q0 -0.453125 -0.265625 -0.75q-0.265625 -0.3125 -0.796875 -0.3125q-0.34375 0 -0.6875 0.140625q-0.328125 0.140625 -0.578125 0.328125l-0.3125 -0.53125q0.328125 -0.28125 0.78125 -0.4375q0.453125 -0.15625 0.953125 -0.15625q0.40625 0 0.703125 0.125q0.3125 0.109375 0.53125 0.328125q0.21875 0.203125 0.328125 0.5q0.109375 0.296875 0.109375 0.640625z" fill-rule="nonzero"/><path fill="#000000" fill-opacity="0.0" d="m525.62805 61.696342l57.606323 0l0 21.039375l-57.606323 0z" fill-rule="evenodd"/><path fill="#000000" d="m538.43536 72.09165l1.640625 0l0 -1.6875l0.671875 0l0 1.6875l1.640625 0l0 0.671875l-1.640625 0l0 1.671875l-0.671875 0l0 -1.671875l-1.640625 0l0 -0.671875zm5.3356934 2.796875l1.3125 0l0 -4.515625l0.09375 -0.546875l-0.375 0.4375l-1.03125 0.734375l-0.34375 -0.484375l2.046875 -1.578125l0.34375 0l0 5.953125l1.265625 0l0 0.6875l-3.3125 0l0 -0.6875zm7.027588 -1.640625q0 -1.1875 0.53125 -1.8125q0.53125 -0.640625 1.515625 -0.640625q0.515625 0 0.90625 0.171875q0.390625 0.171875 0.640625 0.5q0.25 0.328125 0.375 0.78125q0.125 0.453125 0.125 1.0q0 1.1875 -0.53125 1.8125q-0.53125 0.625 -1.515625 0.625q-0.515625 0 -0.90625 -0.171875q-0.390625 -0.171875 -0.640625 -0.484375q-0.25 -0.328125 -0.375 -0.78125q-0.125 -0.453125 -0.125 -1.0zm0.78125 0q0 0.34375 0.0625 0.671875q0.078125 0.328125 0.21875 0.578125q0.15625 0.234375 0.390625 0.390625q0.25 0.140625 0.59375 0.140625q1.265625 0.015625 1.265625 -1.78125q0 -0.375 -0.078125 -0.6875q-0.0625 -0.328125 -0.21875 -0.5625q-0.140625 -0.25 -0.390625 -0.390625q-0.234375 -0.15625 -0.578125 -0.15625q-1.265625 0 -1.265625 1.796875zm6.687378 -1.625q-0.28125 -0.09375 -0.53125 -0.09375q-0.40625 0 -0.640625 0.234375q-0.234375 0.21875 -0.28125 0.546875l0 3.265625l-0.75 0l0 -4.671875l0.515625 0l0.140625 0.578125l0.046875 0q0.171875 -0.3125 0.421875 -0.484375q0.25 -0.171875 0.625 -0.171875q0.28125 0 0.609375 0.078125l-0.15625 0.71875zm3.1152954 0.46875l1.640625 0l0 -1.6875l0.671875 0l0 1.6875l1.640625 0l0 0.671875l-1.640625 0l0 1.671875l-0.671875 0l0 -1.671875l-1.640625 0l0 -0.671875zm8.491943 -1.5625q0 0.5 -0.1875 1.015625q-0.171875 0.515625 -0.46875 1.046875q-0.296875 0.515625 -0.65625 1.015625q-0.359375 0.5 -0.71875 0.9375l-0.46875 0.40625l0 0.03125l0.59375 -0.09375l2.046875 0l0 0.6875l-3.71875 0l0 -0.265625q0.203125 -0.21875 0.484375 -0.53125q0.296875 -0.328125 0.609375 -0.703125q0.3125 -0.390625 0.609375 -0.828125q0.3125 -0.4375 0.5625 -0.875q0.25 -0.453125 0.390625 -0.890625q0.15625 -0.4375 0.15625 -0.828125q0 -0.453125 -0.265625 -0.75q-0.265625 -0.3125 -0.796875 -0.3125q-0.34375 0 -0.6875 0.140625q-0.328125 0.140625 -0.578125 0.328125l-0.3125 -0.53125q0.328125 -0.28125 0.78125 -0.4375q0.453125 -0.15625 0.953125 -0.15625q0.40625 0 0.703125 0.125q0.3125 0.109375 0.53125 0.328125q0.21875 0.203125 0.328125 0.5q0.109375 0.296875 0.109375 0.640625z" fill-rule="nonzero"/><path fill="#000000" fill-opacity="0.0" d="m456.50934 49.505684c0 -6.8796425 5.5770264 -12.456692 12.456665 -12.456692c3.3037415 0 6.4721375 1.312397 8.808228 3.6484795c2.33609 2.3360825 3.648468 5.50449 3.648468 8.808212c0 6.8796425 -5.5770264 12.456692 -12.456696 12.456692c-6.8796387 0 -12.456665 -5.5770493 -12.456665 -12.456692z" fill-rule="evenodd"/><path stroke="#000000" stroke-width="1.0" stroke-linejoin="round" stroke-linecap="butt" d="m456.50934 49.505684c0 -6.8796425 5.5770264 -12.456692 12.456665 -12.456692c3.3037415 0 6.4721375 1.312397 8.808228 3.6484795c2.33609 2.3360825 3.648468 5.50449 3.648468 8.808212c0 6.8796425 -5.5770264 12.456692 -12.456696 12.456692c-6.8796387 0 -12.456665 -5.5770493 -12.456665 -12.456692z" fill-rule="evenodd"/><path fill="#000000" d="m468.30075 49.555683l-2.84375 -4.578125l1.34375 0l1.890625 3.15625l0.328125 0.765625l0.3125 -0.765625l2.0 -3.15625l1.234375 0l-2.9375 4.484375l3.0625 4.84375l-1.28125 0l-2.109375 -3.34375l-0.359375 -0.796875l-0.34375 0.796875l-2.15625 3.34375l-1.25 0l3.109375 -4.75z" fill-rule="nonzero"/><path fill="#ffffff" d="m514.71387 84.444534c0 -6.8796387 5.5770264 -12.456688 12.456726 -12.456688c3.303711 0 6.472107 1.3123932 8.8081665 3.6484756c2.3361206 2.3360825 3.6484985 5.5044937 3.6484985 8.808212c0 6.8796463 -5.5770264 12.456696 -12.456665 12.456696c-6.8796997 0 -12.456726 -5.5770493 -12.456726 -12.456696z" fill-rule="evenodd"/><path stroke="#000000" stroke-width="1.0" stroke-linejoin="round" stroke-linecap="butt" d="m514.71387 84.444534c0 -6.8796387 5.5770264 -12.456688 12.456726 -12.456688c3.303711 0 6.472107 1.3123932 8.8081665 3.6484756c2.3361206 2.3360825 3.6484985 5.5044937 3.6484985 8.808212c0 6.8796463 -5.5770264 12.456696 -12.456665 12.456696c-6.8796997 0 -12.456726 -5.5770493 -12.456726 -12.456696z" fill-rule="evenodd"/><path fill="#000000" d="m524.0387 88.24454l4.71875 -6.8125l0.546875 -0.53125l-5.265625 0l0 -0.984375l6.265625 0l0 1.0l-4.71875 6.84375l-0.5625 0.5l5.28125 0l0 0.984375l-6.265625 0l0 -1.0z" fill-rule="nonzero"/><path fill="#000000" fill-opacity="0.0" d="m460.1578 58.313896l-43.716522 18.362206" fill-rule="evenodd"/><path stroke="#000000" stroke-width="1.0" stroke-linejoin="round" stroke-linecap="butt" d="m460.1578 58.313896l-38.184723 16.038673" fill-rule="evenodd"/><path fill="#000000" stroke="#000000" stroke-width="1.0" stroke-linecap="butt" d="m421.33347 72.82972l-3.5443726 3.2802505l4.8236694 -0.23455048z" fill-rule="evenodd"/><path fill="#000000" fill-opacity="0.0" d="m477.77423 58.313896l40.59845 17.32283" fill-rule="evenodd"/><path stroke="#000000" stroke-width="1.0" stroke-linejoin="round" stroke-linecap="butt" d="m477.77423 58.313896l35.079834 14.9681015" fill-rule="evenodd"/><path fill="#000000" stroke="#000000" stroke-width="1.0" stroke-linecap="butt" d="m512.2058 74.801216l4.8222656 0.2617798l-3.5258179 -3.300209z" fill-rule="evenodd"/><path fill="#000000" fill-opacity="0.0" d="m535.97876 93.25275l39.18109 14.58268" fill-rule="evenodd"/><path stroke="#000000" stroke-width="1.0" stroke-linejoin="round" stroke-linecap="butt" d="m535.97876 93.25275l33.557922 12.489807" fill-rule="evenodd"/><path fill="#000000" stroke="#000000" stroke-width="1.0" stroke-linecap="butt" d="m568.9606 107.29055l4.8292236 0.034950256l-3.676941 -3.1309357z" fill-rule="evenodd"/><path fill="#000000" fill-opacity="0.0" d="m468.966 20.113667l0 16.944881" fill-rule="evenodd"/><path stroke="#000000" stroke-width="1.0" stroke-linejoin="round" stroke-linecap="butt" d="m468.966 20.113667l0 10.944883" fill-rule="evenodd"/><path fill="#000000" stroke="#000000" stroke-width="1.0" stroke-linecap="butt" d="m467.31427 31.05855l1.6517334 4.5380993l1.6517334 -4.5380993z" fill-rule="evenodd"/><path fill="#ffffff" d="m391.7504 165.08195l24.678497 -88.391075l24.678467 88.391075z" fill-rule="evenodd"/><path stroke="#000000" stroke-width="1.0" stroke-linejoin="round" stroke-linecap="butt" d="m391.7504 165.08195l24.678497 -88.391075l24.678467 88.391075z" fill-rule="evenodd"/><path fill="#000000" d="m411.892 141.12793l1.046875 0l0 -1.328125l1.0625 -0.3125l0 1.640625l1.8125 0l0 0.921875l-1.8125 0l0 3.6875q0 0.703125 0.171875 1.0q0.171875 0.28125 0.59375 0.28125q0.34375 0 0.578125 -0.078125q0.25 -0.078125 0.53125 -0.203125l0.25 0.8125q-0.359375 0.1875 -0.796875 0.28125q-0.421875 0.109375 -0.90625 0.109375q-0.8125 0 -1.15625 -0.453125q-0.328125 -0.46875 -0.328125 -1.546875l0 -3.890625l-1.046875 0l0 -0.921875z" fill-rule="nonzero"/><path fill="#000000" d="m417.22272 152.12793l1.25 0l0 -4.296875l0.09375 -0.515625l-0.359375 0.40625l-0.984375 0.703125l-0.328125 -0.453125l1.953125 -1.5l0.3125 0l0 5.65625l1.21875 0l0 0.65625l-3.15625 0l0 -0.65625z" fill-rule="nonzero"/><path fill="#000000" fill-opacity="0.0" d="m518.36237 93.25275l-42.299225 16.692917" fill-rule="evenodd"/><path stroke="#000000" stroke-width="1.0" stroke-linejoin="round" stroke-linecap="butt" d="m518.36237 93.25275l-36.71808 14.490387" fill-rule="evenodd"/><path fill="#000000" stroke="#000000" stroke-width="1.0" stroke-linecap="butt" d="m481.03793 106.20672l-3.6149292 3.2022934l4.827606 -0.12945557z" fill-rule="evenodd"/><path fill="#ffffff" d="m451.37903 165.09529l24.677155 -55.136482l24.677155 55.136482z" fill-rule="evenodd"/><path stroke="#000000" stroke-width="1.0" stroke-linejoin="round" stroke-linecap="butt" d="m451.37903 165.09529l24.677155 -55.136482l24.677155 55.136482z" fill-rule="evenodd"/><path fill="#000000" d="m471.5193 149.45493l1.046875 0l0 -1.328125l1.0625 -0.3125l0 1.640625l1.8125 0l0 0.921875l-1.8125 0l0 3.6875q0 0.703125 0.171875 1.0q0.171875 0.28125 0.59375 0.28125q0.34375 0 0.578125 -0.078125q0.25 -0.078125 0.53125 -0.203125l0.25 0.8125q-0.359375 0.1875 -0.796875 0.28125q-0.421875 0.109375 -0.90625 0.109375q-0.8125 0 -1.15625 -0.453125q-0.328125 -0.46875 -0.328125 -1.546875l0 -3.890625l-1.046875 0l0 -0.921875z" fill-rule="nonzero"/><path fill="#000000" d="m479.85 156.3143q0 0.46875 -0.171875 0.96875q-0.171875 0.484375 -0.453125 0.984375q-0.28125 0.484375 -0.625 0.96875q-0.34375 0.46875 -0.6875 0.90625l-0.4375 0.375l0 0.03125l0.5625 -0.09375l1.9375 0l0 0.65625l-3.53125 0l0 -0.25q0.203125 -0.21875 0.46875 -0.515625q0.28125 -0.296875 0.578125 -0.65625q0.296875 -0.375 0.578125 -0.78125q0.296875 -0.421875 0.53125 -0.84375q0.234375 -0.4375 0.375 -0.84375q0.140625 -0.421875 0.140625 -0.796875q0 -0.4375 -0.25 -0.71875q-0.25 -0.296875 -0.75 -0.296875q-0.34375 0 -0.65625 0.140625q-0.3125 0.140625 -0.546875 0.3125l-0.296875 -0.5q0.3125 -0.265625 0.734375 -0.40625q0.421875 -0.15625 0.921875 -0.15625q0.375 0 0.671875 0.109375q0.296875 0.109375 0.5 0.3125q0.203125 0.203125 0.296875 0.484375q0.109375 0.28125 0.109375 0.609375z" fill-rule="nonzero"/><path fill="#000000" fill-opacity="0.0" d="m724.12036 65.40714l49.35431 0l0 21.039375l-49.35431 0z" fill-rule="evenodd"/><path fill="#000000" d="m735.15283 76.25558l3.96875 0l0 0.6875l-3.96875 0l0 -0.6875zm6.062805 2.34375l1.3125 0l0 -4.515625l0.09375 -0.546875l-0.375 0.4375l-1.03125 0.734375l-0.34375 -0.484375l2.046875 -1.578125l0.34375 0l0 5.953125l1.265625 0l0 0.6875l-3.3125 0l0 -0.6875zm7.027588 -1.640625q0 -1.1875 0.53125 -1.8125q0.53125 -0.640625 1.515625 -0.640625q0.515625 0 0.90625 0.171875q0.390625 0.171875 0.640625 0.5q0.25 0.328125 0.375 0.78125q0.125 0.453125 0.125 1.0q0 1.1875 -0.53125 1.8125q-0.53125 0.625 -1.515625 0.625q-0.515625 0 -0.90625 -0.171875q-0.390625 -0.171875 -0.640625 -0.484375q-0.25 -0.328125 -0.375 -0.78125q-0.125 -0.453125 -0.125 -1.0zm0.78125 0q0 0.34375 0.0625 0.671875q0.078125 0.328125 0.21875 0.578125q0.15625 0.234375 0.390625 0.390625q0.25 0.140625 0.59375 0.140625q1.265625 0.015625 1.265625 -1.78125q0 -0.375 -0.078125 -0.6875q-0.0625 -0.328125 -0.21875 -0.5625q-0.140625 -0.25 -0.390625 -0.390625q-0.234375 -0.15625 -0.578125 -0.15625q-1.265625 0 -1.265625 1.796875zm6.687378 -1.625q-0.28125 -0.09375 -0.53125 -0.09375q-0.40625 0 -0.640625 0.234375q-0.234375 0.21875 -0.28125 0.546875l0 3.265625l-0.75 0l0 -4.671875l0.515625 0l0.140625 0.578125l0.046875 0q0.171875 -0.3125 0.421875 -0.484375q0.25 -0.171875 0.625 -0.171875q0.28125 0 0.609375 0.078125l-0.15625 0.71875zm3.1465454 0.6875q0 -1.671875 0.546875 -2.515625q0.546875 -0.859375 1.578125 -0.859375q1.140625 0 1.640625 0.84375q0.515625 0.828125 0.515625 2.53125q0 1.6875 -0.546875 2.53125q-0.546875 0.84375 -1.609375 0.84375q-1.109375 0 -1.625 -0.875q-0.5 -0.890625 -0.5 -2.5zm0.765625 0q0 0.609375 0.078125 1.109375q0.078125 0.5 0.25 0.859375q0.171875 0.359375 0.421875 0.5625q0.265625 0.1875 0.609375 0.1875q0.71875 0 1.046875 -0.65625q0.328125 -0.65625 0.328125 -2.0625q0 -0.59375 -0.078125 -1.09375q-0.0625 -0.515625 -0.234375 -0.875q-0.15625 -0.359375 -0.421875 -0.546875q-0.25 -0.203125 -0.640625 -0.203125q-0.6875 0 -1.03125 0.65625q-0.328125 0.65625 -0.328125 2.0625z" fill-rule="nonzero"/><path fill="#ffffff" d="m151.6379 120.28419c0 -6.8796387 5.577057 -12.456688 12.456696 -12.456688c3.303711 0 6.472122 1.3123932 8.808212 3.6484756c2.3360748 2.3360825 3.6484833 5.5044937 3.6484833 8.808212c0 6.8796463 -5.577057 12.456688 -12.456696 12.456688c-6.8796387 0 -12.456696 -5.5770416 -12.456696 -12.456688z" fill-rule="evenodd"/><path stroke="#000000" stroke-width="1.0" stroke-linejoin="round" stroke-linecap="butt" d="m151.6379 120.28419c0 -6.8796387 5.577057 -12.456688 12.456696 -12.456688c3.303711 0 6.472122 1.3123932 8.808212 3.6484756c2.3360748 2.3360825 3.6484833 5.5044937 3.6484833 8.808212c0 6.8796463 -5.577057 12.456688 -12.456696 12.456688c-6.8796387 0 -12.456696 -5.5770416 -12.456696 -12.456688z" fill-rule="evenodd"/><path fill="#000000" d="m160.96269 124.08419l4.71875 -6.8125l0.546875 -0.53125l-5.265625 0l0 -0.984375l6.265625 0l0 1.0l-4.71875 6.84375l-0.5625 0.5l5.28125 0l0 0.984375l-6.265625 0l0 -1.0z" fill-rule="nonzero"/><path fill="#000000" fill-opacity="0.0" d="m172.9028 129.0924l23.055115 12.881882" fill-rule="evenodd"/><path stroke="#000000" stroke-width="1.0" stroke-linejoin="round" stroke-linecap="butt" d="m172.9028 129.09239l17.817276 9.9552765" fill-rule="evenodd"/><path fill="#000000" stroke="#000000" stroke-width="1.0" stroke-linecap="butt" d="m189.91443 140.4896l4.767288 0.7716217l-3.1559753 -3.6554565z" fill-rule="evenodd"/><path fill="#000000" fill-opacity="0.0" d="m155.28638 129.0924l-23.937012 12.881882" fill-rule="evenodd"/><path stroke="#000000" stroke-width="1.0" stroke-linejoin="round" stroke-linecap="butt" d="m155.28638 129.09239l-18.653519 10.038544" fill-rule="evenodd"/><path fill="#000000" stroke="#000000" stroke-width="1.0" stroke-linecap="butt" d="m135.85013 137.67644l-3.21344 3.605072l4.7789154 -0.6960907z" fill-rule="evenodd"/><path fill="#f3f3f3" d="m167.1675 230.36302l28.796585 -88.39108l28.796585 88.39108z" fill-rule="evenodd"/><path stroke="#000000" stroke-width="1.0" stroke-linejoin="round" stroke-linecap="butt" stroke-dasharray="4.0,3.0" d="m167.1675 230.36302l28.796585 -88.39108l28.796585 88.39108z" fill-rule="evenodd"/><path fill="#ffffff" d="m171.28716 197.10841l24.67717 -55.136475l24.677155 55.136475z" fill-rule="evenodd"/><path stroke="#000000" stroke-width="1.0" stroke-linejoin="round" stroke-linecap="butt" d="m171.28716 197.10841l24.67717 -55.136475l24.677155 55.136475z" fill-rule="evenodd"/><path fill="#000000" d="m191.42743 181.46805l1.046875 0l0 -1.328125l1.0625 -0.3125l0 1.640625l1.8125 0l0 0.921875l-1.8125 0l0 3.6875q0 0.703125 0.171875 1.0q0.171875 0.28125 0.59375 0.28125q0.34375 0 0.578125 -0.078125q0.25 -0.078125 0.53125 -0.203125l0.25 0.8125q-0.359375 0.1875 -0.796875 0.28125q-0.421875 0.109375 -0.90625 0.109375q-0.8125 0 -1.15625 -0.453125q-0.328125 -0.46875 -0.328125 -1.546875l0 -3.890625l-1.046875 0l0 -0.921875z" fill-rule="nonzero"/><path fill="#000000" d="m197.88315 192.60867q0.296875 0 0.546875 -0.078125q0.265625 -0.09375 0.453125 -0.265625q0.1875 -0.171875 0.296875 -0.40625q0.109375 -0.25 0.109375 -0.53125q0 -0.625 -0.375 -0.921875q-0.359375 -0.3125 -1.015625 -0.3125l-0.65625 0l0 -0.25l1.28125 -1.96875l0.40625 -0.390625l-0.578125 0.078125l-1.75 0l0 -0.65625l3.15625 0l0 0.265625l-1.40625 2.125l-0.3125 0.25l0 0.015625l0.296875 -0.0625q0.359375 0.015625 0.65625 0.140625q0.3125 0.109375 0.53125 0.34375q0.21875 0.21875 0.34375 0.53125q0.125 0.3125 0.125 0.71875q0 0.484375 -0.171875 0.859375q-0.15625 0.359375 -0.453125 0.625q-0.28125 0.25 -0.671875 0.390625q-0.390625 0.125 -0.828125 0.125q-0.40625 0 -0.734375 -0.0625q-0.3125 -0.0625 -0.546875 -0.15625l0.1875 -0.640625q0.203125 0.109375 0.484375 0.171875q0.28125 0.0625 0.625 0.0625z" fill-rule="nonzero"/><path fill="#ffffff" d="m106.687416 197.10841l24.677162 -55.136475l24.67717 55.136475z" fill-rule="evenodd"/><path stroke="#000000" stroke-width="1.0" stroke-linejoin="round" stroke-linecap="butt" d="m106.687416 197.10841l24.677162 -55.136475l24.67717 55.136475z" fill-rule="evenodd"/><path fill="#000000" d="m126.82769 181.46805l1.046875 0l0 -1.328125l1.0624924 -0.3125l0 1.640625l1.8125 0l0 0.921875l-1.8125 0l0 3.6875q0 0.703125 0.171875 1.0q0.171875 0.28125 0.59375 0.28125q0.34375 0 0.578125 -0.078125q0.25 -0.078125 0.53125 -0.203125l0.25 0.8125q-0.359375 0.1875 -0.796875 0.28125q-0.421875 0.109375 -0.90625 0.109375q-0.8125 0 -1.15625 -0.453125q-0.32811737 -0.46875 -0.32811737 -1.546875l0 -3.890625l-1.046875 0l0 -0.921875z" fill-rule="nonzero"/><path fill="#000000" d="m135.1584 188.32742q0 0.46875 -0.171875 0.96875q-0.171875 0.484375 -0.453125 0.984375q-0.28125 0.484375 -0.625 0.96875q-0.34375 0.46875 -0.6875 0.90625l-0.4375 0.375l0 0.03125l0.5625 -0.09375l1.9375 0l0 0.65625l-3.53125 0l0 -0.25q0.203125 -0.21875 0.46875 -0.515625q0.28125 -0.296875 0.578125 -0.65625q0.296875 -0.375 0.578125 -0.78125q0.296875 -0.421875 0.53125 -0.84375q0.234375 -0.4375 0.375 -0.84375q0.140625 -0.421875 0.140625 -0.796875q0 -0.4375 -0.25 -0.71875q-0.25 -0.296875 -0.75 -0.296875q-0.34375 0 -0.65625 0.140625q-0.3125 0.140625 -0.546875 0.3125l-0.296875 -0.5q0.3125 -0.265625 0.734375 -0.40625q0.421875 -0.15625 0.921875 -0.15625q0.375 0 0.671875 0.109375q0.296875 0.109375 0.5 0.3125q0.203125 0.203125 0.296875 0.484375q0.109375 0.28125 0.109375 0.609375z" fill-rule="nonzero"/><path fill="#ffffff" d="m562.71387 120.28419c0 -6.8796387 5.5770264 -12.456688 12.456726 -12.456688c3.303711 0 6.472107 1.3123932 8.8081665 3.6484756c2.3361206 2.3360825 3.6484985 5.5044937 3.6484985 8.808212c0 6.8796463 -5.5770264 12.456688 -12.456665 12.456688c-6.8796997 0 -12.456726 -5.5770416 -12.456726 -12.456688z" fill-rule="evenodd"/><path stroke="#000000" stroke-width="1.0" stroke-linejoin="round" stroke-linecap="butt" d="m562.71387 120.28419c0 -6.8796387 5.5770264 -12.456688 12.456726 -12.456688c3.303711 0 6.472107 1.3123932 8.8081665 3.6484756c2.3361206 2.3360825 3.6484985 5.5044937 3.6484985 8.808212c0 6.8796463 -5.5770264 12.456688 -12.456665 12.456688c-6.8796997 0 -12.456726 -5.5770416 -12.456726 -12.456688z" fill-rule="evenodd"/><path fill="#000000" d="m572.0387 124.08419l4.71875 -6.8125l0.546875 -0.53125l-5.265625 0l0 -0.984375l6.265625 0l0 1.0l-4.71875 6.84375l-0.5625 0.5l5.28125 0l0 0.984375l-6.265625 0l0 -1.0z" fill-rule="nonzero"/><path fill="#ffffff" d="m581.2701 230.36217l24.678467 -88.39107l24.678528 88.39107z" fill-rule="evenodd"/><path stroke="#000000" stroke-width="1.0" stroke-linejoin="round" stroke-linecap="butt" d="m581.2701 230.36217l24.678467 -88.39107l24.678528 88.39107z" fill-rule="evenodd"/><path fill="#000000" d="m601.4117 206.40814l1.046875 0l0 -1.328125l1.0625 -0.3125l0 1.640625l1.8125 0l0 0.921875l-1.8125 0l0 3.6875q0 0.703125 0.171875 1.0q0.171875 0.28125 0.59375 0.28125q0.34375 0 0.578125 -0.078125q0.25 -0.078125 0.53125 -0.203125l0.25 0.8125q-0.359375 0.1875 -0.796875 0.28125q-0.421875 0.109375 -0.90625 0.109375q-0.8125 0 -1.15625 -0.453125q-0.328125 -0.46875 -0.328125 -1.546875l0 -3.890625l-1.046875 0l0 -0.921875z" fill-rule="nonzero"/><path fill="#000000" d="m610.4455 216.15814l-1.046875 0l0 1.90625l-0.703125 0l0 -1.90625l-2.734375 0l0 -0.296875l2.953125 -4.109375l0.484375 0l0 3.78125l1.046875 0l0 0.625zm-1.75 -2.5625l0.09375 -0.71875l-0.03125 0l-0.3125 0.59375l-1.25 1.703125l-0.421875 0.4375l0.625 -0.078125l1.296875 0l0 -1.9375z" fill-rule="nonzero"/><path fill="#f3f3f3" d="m514.5713 230.36302l28.79657 -88.39108l28.79657 88.39108z" fill-rule="evenodd"/><path stroke="#000000" stroke-width="1.0" stroke-linejoin="round" stroke-linecap="butt" stroke-dasharray="4.0,3.0" d="m514.5713 230.36302l28.79657 -88.39108l28.79657 88.39108z" fill-rule="evenodd"/><path fill="#ffffff" d="m518.6913 197.10841l24.677185 -55.136475l24.677124 55.136475z" fill-rule="evenodd"/><path stroke="#000000" stroke-width="1.0" stroke-linejoin="round" stroke-linecap="butt" d="m518.6913 197.10841l24.677185 -55.136475l24.677124 55.136475z" fill-rule="evenodd"/><path fill="#000000" d="m538.83154 181.46805l1.046875 0l0 -1.328125l1.0625 -0.3125l0 1.640625l1.8125 0l0 0.921875l-1.8125 0l0 3.6875q0 0.703125 0.171875 1.0q0.171875 0.28125 0.59375 0.28125q0.34375 0 0.578125 -0.078125q0.25 -0.078125 0.53125 -0.203125l0.25 0.8125q-0.359375 0.1875 -0.796875 0.28125q-0.421875 0.109375 -0.90625 0.109375q-0.8125 0 -1.15625 -0.453125q-0.328125 -0.46875 -0.328125 -1.546875l0 -3.890625l-1.046875 0l0 -0.921875z" fill-rule="nonzero"/><path fill="#000000" d="m545.2873 192.60867q0.296875 0 0.546875 -0.078125q0.265625 -0.09375 0.453125 -0.265625q0.1875 -0.171875 0.296875 -0.40625q0.109375 -0.25 0.109375 -0.53125q0 -0.625 -0.375 -0.921875q-0.359375 -0.3125 -1.015625 -0.3125l-0.65625 0l0 -0.25l1.28125 -1.96875l0.40625 -0.390625l-0.578125 0.078125l-1.75 0l0 -0.65625l3.15625 0l0 0.265625l-1.40625 2.125l-0.3125 0.25l0 0.015625l0.296875 -0.0625q0.359375 0.015625 0.65625 0.140625q0.3125 0.109375 0.53125 0.34375q0.21875 0.21875 0.34375 0.53125q0.125 0.3125 0.125 0.71875q0 0.484375 -0.171875 0.859375q-0.15625 0.359375 -0.453125 0.625q-0.28125 0.25 -0.671875 0.390625q-0.390625 0.125 -0.828125 0.125q-0.40625 0 -0.734375 -0.0625q-0.3125 -0.0625 -0.546875 -0.15625l0.1875 -0.640625q0.203125 0.109375 0.484375 0.171875q0.28125 0.0625 0.625 0.0625z" fill-rule="nonzero"/><path fill="#000000" fill-opacity="0.0" d="m583.97876 129.0924l21.984253 12.881882" fill-rule="evenodd"/><path stroke="#000000" stroke-width="1.0" stroke-linejoin="round" stroke-linecap="butt" d="m583.97876 129.09239l16.807495 9.848526" fill-rule="evenodd"/><path fill="#000000" stroke="#000000" stroke-width="1.0" stroke-linecap="butt" d="m599.95123 140.36603l4.7504883 0.86917114l-3.0803833 -3.7193756z" fill-rule="evenodd"/><path fill="#000000" fill-opacity="0.0" d="m566.36237 129.0924l-22.992126 12.881882" fill-rule="evenodd"/><path stroke="#000000" stroke-width="1.0" stroke-linejoin="round" stroke-linecap="butt" d="m566.36237 129.09239l-17.75769 9.949188" fill-rule="evenodd"/><path fill="#000000" stroke="#000000" stroke-width="1.0" stroke-linecap="butt" d="m547.7973 137.6006l-3.1516724 3.659134l4.7663574 -0.7771759z" fill-rule="evenodd"/><path fill="#ffffff" d="m885.07904 86.736336c0 -6.8796387 5.5770874 -12.456688 12.456726 -12.456688c3.303711 0 6.472107 1.3123932 8.808228 3.6484756c2.3360596 2.3360825 3.6484375 5.5044937 3.6484375 8.808212c0 6.8796463 -5.5770264 12.456696 -12.456665 12.456696c-6.8796387 0 -12.456726 -5.5770493 -12.456726 -12.456696z" fill-rule="evenodd"/><path stroke="#000000" stroke-width="1.0" stroke-linejoin="round" stroke-linecap="butt" d="m885.07904 86.736336c0 -6.8796387 5.5770874 -12.456688 12.456726 -12.456688c3.303711 0 6.472107 1.3123932 8.808228 3.6484756c2.3360596 2.3360825 3.6484375 5.5044937 3.6484375 8.808212c0 6.8796463 -5.5770264 12.456696 -12.456665 12.456696c-6.8796387 0 -12.456726 -5.5770493 -12.456726 -12.456696z" fill-rule="evenodd"/><path fill="#000000" d="m894.4039 90.53634l4.71875 -6.8125l0.546875 -0.53125l-5.265625 0l0 -0.984375l6.265625 0l0 1.0l-4.71875 6.84375l-0.5625 0.5l5.28125 0l0 0.984375l-6.265625 0l0 -1.0z" fill-rule="nonzero"/><path fill="#ffffff" d="m901.5076 197.41718l24.678467 -88.391075l24.678467 88.391075z" fill-rule="evenodd"/><path stroke="#000000" stroke-width="1.0" stroke-linejoin="round" stroke-linecap="butt" d="m901.5076 197.41718l24.678467 -88.391075l24.678467 88.391075z" fill-rule="evenodd"/><path fill="#000000" d="m921.64923 173.46315l1.046875 0l0 -1.328125l1.0625 -0.3125l0 1.640625l1.8125 0l0 0.921875l-1.8125 0l0 3.6875q0 0.703125 0.171875 1.0q0.171875 0.28125 0.59375 0.28125q0.34375 0 0.578125 -0.078125q0.25 -0.078125 0.53125 -0.203125l0.25 0.8125q-0.359375 0.1875 -0.796875 0.28125q-0.421875 0.109375 -0.90625 0.109375q-0.8125 0 -1.15625 -0.453125q-0.328125 -0.46875 -0.328125 -1.546875l0 -3.890625l-1.046875 0l0 -0.921875z" fill-rule="nonzero"/><path fill="#000000" d="m930.68304 183.21315l-1.046875 0l0 1.90625l-0.703125 0l0 -1.90625l-2.734375 0l0 -0.296875l2.953125 -4.109375l0.484375 0l0 3.78125l1.046875 0l0 0.625zm-1.75 -2.5625l0.09375 -0.71875l-0.03125 0l-0.3125 0.59375l-1.25 1.703125l-0.421875 0.4375l0.625 -0.078125l1.296875 0l0 -1.9375z" fill-rule="nonzero"/><path fill="#f3f3f3" d="m838.5322 197.41803l28.79657 -88.39108l28.79657 88.39108z" fill-rule="evenodd"/><path stroke="#000000" stroke-width="0.84251968503937" stroke-linejoin="round" stroke-linecap="butt" stroke-dasharray="3.37007874015748,2.52755905511811" d="m838.5322 197.41803l28.79657 -88.39108l28.79657 88.39108z" fill-rule="evenodd"/><path fill="#ffffff" d="m842.652 164.16353l24.677185 -55.136475l24.677124 55.136475z" fill-rule="evenodd"/><path stroke="#000000" stroke-width="1.0" stroke-linejoin="round" stroke-linecap="butt" d="m842.652 164.16353l24.677185 -55.136475l24.677124 55.136475z" fill-rule="evenodd"/><path fill="#000000" d="m862.79224 148.52316l1.046875 0l0 -1.328125l1.0625 -0.3125l0 1.640625l1.8125 0l0 0.921875l-1.8125 0l0 3.6875q0 0.703125 0.171875 1.0q0.171875 0.28125 0.59375 0.28125q0.34375 0 0.578125 -0.078125q0.25 -0.078125 0.53125 -0.203125l0.25 0.8125q-0.359375 0.1875 -0.796875 0.28125q-0.421875 0.109375 -0.90625 0.109375q-0.8125 0 -1.15625 -0.453125q-0.328125 -0.46875 -0.328125 -1.546875l0 -3.890625l-1.046875 0l0 -0.921875z" fill-rule="nonzero"/><path fill="#000000" d="m869.248 159.66379q0.296875 0 0.546875 -0.078125q0.265625 -0.09375 0.453125 -0.265625q0.1875 -0.171875 0.296875 -0.40625q0.109375 -0.25 0.109375 -0.53125q0 -0.625 -0.375 -0.921875q-0.359375 -0.3125 -1.015625 -0.3125l-0.65625 0l0 -0.25l1.28125 -1.96875l0.40625 -0.390625l-0.578125 0.078125l-1.75 0l0 -0.65625l3.15625 0l0 0.265625l-1.40625 2.125l-0.3125 0.25l0 0.015625l0.296875 -0.0625q0.359375 0.015625 0.65625 0.140625q0.3125 0.109375 0.53125 0.34375q0.21875 0.21875 0.34375 0.53125q0.125 0.3125 0.125 0.71875q0 0.484375 -0.171875 0.859375q-0.15625 0.359375 -0.453125 0.625q-0.28125 0.25 -0.671875 0.390625q-0.390625 0.125 -0.828125 0.125q-0.40625 0 -0.734375 -0.0625q-0.3125 -0.0625 -0.546875 -0.15625l0.1875 -0.640625q0.203125 0.109375 0.484375 0.171875q0.28125 0.0625 0.625 0.0625z" fill-rule="nonzero"/><path fill="#000000" fill-opacity="0.0" d="m906.344 95.54455l19.842468 13.480316" fill-rule="evenodd"/><path stroke="#000000" stroke-width="1.0" stroke-linejoin="round" stroke-linecap="butt" d="m906.344 95.54455l14.879517 10.108604" fill-rule="evenodd"/><path fill="#000000" stroke="#000000" stroke-width="1.0" stroke-linecap="butt" d="m920.2953 107.019424l4.682007 1.1839218l-2.8256226 -3.9164505z" fill-rule="evenodd"/><path fill="#000000" fill-opacity="0.0" d="m888.72754 95.54455l-21.385803 13.480316" fill-rule="evenodd"/><path stroke="#000000" stroke-width="1.0" stroke-linejoin="round" stroke-linecap="butt" d="m888.72754 95.54455l-16.310059 10.280861" fill-rule="evenodd"/><path fill="#000000" stroke="#000000" stroke-width="1.0" stroke-linecap="butt" d="m871.5367 104.4281l-2.958252 3.817215l4.7197876 -1.0226059z" fill-rule="evenodd"/><path fill="#000000" fill-opacity="0.0" d="m900.42 65.40714l49.35431 0l0 21.039375l-49.35431 0z" fill-rule="evenodd"/><path fill="#000000" d="m911.48785 76.0212q0 -1.671875 0.546875 -2.515625q0.546875 -0.859375 1.578125 -0.859375q1.140625 0 1.640625 0.84375q0.515625 0.828125 0.515625 2.53125q0 1.6875 -0.546875 2.53125q-0.546875 0.84375 -1.609375 0.84375q-1.109375 0 -1.625 -0.875q-0.5 -0.890625 -0.5 -2.5zm0.765625 0q0 0.609375 0.078125 1.109375q0.078125 0.5 0.25 0.859375q0.171875 0.359375 0.421875 0.5625q0.265625 0.1875 0.609375 0.1875q0.71875 0 1.046875 -0.65625q0.328125 -0.65625 0.328125 -2.0625q0 -0.59375 -0.078125 -1.09375q-0.0625 -0.515625 -0.234375 -0.875q-0.15625 -0.359375 -0.421875 -0.546875q-0.25 -0.203125 -0.640625 -0.203125q-0.6875 0 -1.03125 0.65625q-0.328125 0.65625 -0.328125 2.0625zm6.855713 0.9375q0 -1.1875 0.53125 -1.8125q0.53125 -0.640625 1.515625 -0.640625q0.515625 0 0.90625 0.171875q0.390625 0.171875 0.640625 0.5q0.25 0.328125 0.375 0.78125q0.125 0.453125 0.125 1.0q0 1.1875 -0.53125 1.8125q-0.53125 0.625 -1.515625 0.625q-0.515625 0 -0.90625 -0.171875q-0.390625 -0.171875 -0.640625 -0.484375q-0.25 -0.328125 -0.375 -0.78125q-0.125 -0.453125 -0.125 -1.0zm0.78125 0q0 0.34375 0.0625 0.671875q0.078125 0.328125 0.21875 0.578125q0.15625 0.234375 0.390625 0.390625q0.25 0.140625 0.59375 0.140625q1.265625 0.015625 1.265625 -1.78125q0 -0.375 -0.078125 -0.6875q-0.0625 -0.328125 -0.21875 -0.5625q-0.140625 -0.25 -0.390625 -0.390625q-0.234375 -0.15625 -0.578125 -0.15625q-1.265625 0 -1.265625 1.796875zm6.687378 -1.625q-0.28125 -0.09375 -0.53125 -0.09375q-0.40625 0 -0.640625 0.234375q-0.234375 0.21875 -0.28125 0.546875l0 3.265625l-0.75 0l0 -4.671875l0.515625 0l0.140625 0.578125l0.046875 0q0.171875 -0.3125 0.421875 -0.484375q0.25 -0.171875 0.625 -0.171875q0.28125 0 0.609375 0.078125l-0.15625 0.71875zm3.1152954 0.46875l1.640625 0l0 -1.6875l0.671875 0l0 1.6875l1.640625 0l0 0.671875l-1.640625 0l0 1.671875l-0.671875 0l0 -1.671875l-1.640625 0l0 -0.671875zm5.3356934 2.796875l1.3125 0l0 -4.515625l0.09375 -0.546875l-0.375 0.4375l-1.03125 0.734375l-0.34375 -0.484375l2.046875 -1.578125l0.34375 0l0 5.953125l1.265625 0l0 0.6875l-3.3125 0l0 -0.6875z" fill-rule="nonzero"/><path fill="#efefef" d="m190.85367 113.53807l0.95118713 -1.4037704c6.359268 -9.384918 19.136078 -11.857887 28.537811 -5.523529l5.6360474 3.7972412l2.4949799 -3.6820755l1.7894135 9.245201l-9.26973 1.7941742l2.4949799 -3.6820755l-5.636032 -3.7972412c-7.368332 -4.964363 -17.381775 -3.026245 -22.365646 4.328903l-0.9512024 1.4037704z" fill-rule="evenodd"/><path stroke="#000000" stroke-width="1.0" stroke-linejoin="round" stroke-linecap="butt" d="m190.85367 113.53807l0.95118713 -1.4037704c6.359268 -9.384918 19.136078 -11.857887 28.537811 -5.523529l5.6360474 3.7972412l2.4949799 -3.6820755l1.7894135 9.245201l-9.26973 1.7941742l2.4949799 -3.6820755l-5.636032 -3.7972412c-7.368332 -4.964363 -17.381775 -3.026245 -22.365646 4.328903l-0.9512024 1.4037704z" fill-rule="evenodd"/><path fill="#000000" fill-opacity="0.0" d="m134.91779 5.8774467l20.97638 0l0 14.236219l-20.97638 0z" fill-rule="evenodd"/><path fill="#000000" d="m149.1228 14.774293q0 -0.5 0.28125 -0.78125q0.296875 -0.296875 0.78125 -0.296875q0.515625 0 0.8125 0.296875q0.296875 0.28125 0.296875 0.78125q0 0.484375 -0.296875 0.78125q-0.296875 0.296875 -0.8125 0.296875q-0.484375 0 -0.78125 -0.296875q-0.28125 -0.296875 -0.28125 -0.78125zm-4.734375 0q0 -0.5 0.28125 -0.78125q0.296875 -0.296875 0.78125 -0.296875q0.5 0 0.796875 0.296875q0.3125 0.28125 0.3125 0.78125q0 0.484375 -0.3125 0.78125q-0.296875 0.296875 -0.796875 0.296875q-0.484375 0 -0.78125 -0.296875q-0.28125 -0.296875 -0.28125 -0.78125zm-4.734375 0q0 -0.5 0.28125 -0.78125q0.296875 -0.296875 0.78125 -0.296875q0.5 0 0.796875 0.296875q0.296875 0.28125 0.296875 0.78125q0 0.484375 -0.296875 0.78125q-0.296875 0.296875 -0.796875 0.296875q-0.484375 0 -0.78125 -0.296875q-0.28125 -0.296875 -0.28125 -0.78125z" fill-rule="nonzero"/><path fill="#000000" fill-opacity="0.0" d="m458.4778 5.8774467l20.97638 0l0 14.236219l-20.97638 0z" fill-rule="evenodd"/><path fill="#000000" d="m472.68283 14.774293q0 -0.5 0.28125 -0.78125q0.296875 -0.296875 0.78125 -0.296875q0.515625 0 0.8125 0.296875q0.296875 0.28125 0.296875 0.78125q0 0.484375 -0.296875 0.78125q-0.296875 0.296875 -0.8125 0.296875q-0.484375 0 -0.78125 -0.296875q-0.28125 -0.296875 -0.28125 -0.78125zm-4.734375 0q0 -0.5 0.28125 -0.78125q0.296875 -0.296875 0.78125 -0.296875q0.5 0 0.796875 0.296875q0.3125 0.28125 0.3125 0.78125q0 0.484375 -0.3125 0.78125q-0.296875 0.296875 -0.796875 0.296875q-0.484375 0 -0.78125 -0.296875q-0.28125 -0.296875 -0.28125 -0.78125zm-4.734375 0q0 -0.5 0.28125 -0.78125q0.296875 -0.296875 0.78125 -0.296875q0.5 0 0.796875 0.296875q0.296875 0.28125 0.296875 0.78125q0 0.484375 -0.296875 0.78125q-0.296875 0.296875 -0.796875 0.296875q-0.484375 0 -0.78125 -0.296875q-0.28125 -0.296875 -0.28125 -0.78125z" fill-rule="nonzero"/><path fill="#000000" fill-opacity="0.0" d="m825.1542 5.8774467l20.97638 0l0 14.236219l-20.97638 0z" fill-rule="evenodd"/><path fill="#000000" d="m839.3592 14.774293q0 -0.5 0.28125 -0.78125q0.296875 -0.296875 0.78125 -0.296875q0.515625 0 0.8125 0.296875q0.296875 0.28125 0.296875 0.78125q0 0.484375 -0.296875 0.78125q-0.296875 0.296875 -0.8125 0.296875q-0.484375 0 -0.78125 -0.296875q-0.28125 -0.296875 -0.28125 -0.78125zm-4.734375 0q0 -0.5 0.28125 -0.78125q0.296875 -0.296875 0.78125 -0.296875q0.5 0 0.796875 0.296875q0.3125 0.28125 0.3125 0.78125q0 0.484375 -0.3125 0.78125q-0.296875 0.296875 -0.796875 0.296875q-0.484375 0 -0.78125 -0.296875q-0.28125 -0.296875 -0.28125 -0.78125zm-4.734375 0q0 -0.5 0.28125 -0.78125q0.296875 -0.296875 0.78125 -0.296875q0.5 0 0.796875 0.296875q0.296875 0.28125 0.296875 0.78125q0 0.484375 -0.296875 0.78125q-0.296875 0.296875 -0.796875 0.296875q-0.484375 0 -0.78125 -0.296875q-0.28125 -0.296875 -0.28125 -0.78125z" fill-rule="nonzero"/><path fill="#efefef" d="m489.09003 78.10428l-0.9512024 -1.4037628c-6.359253 -9.384926 -19.136047 -11.857895 -28.537811 -5.5235367l-5.636017 3.7972412l-2.494995 -3.6820679l-1.7894287 9.245201l9.269745 1.7941666l-2.494995 -3.6820679l5.6360474 -3.7972412c7.368347 -4.964363 17.381775 -3.0262527 22.365662 4.3288956l0.9511719 1.4037704z" fill-rule="evenodd"/><path stroke="#000000" stroke-width="1.0" stroke-linejoin="round" stroke-linecap="butt" d="m489.09003 78.10428l-0.9512024 -1.4037628c-6.359253 -9.384926 -19.136047 -11.857895 -28.537811 -5.5235367l-5.636017 3.7972412l-2.494995 -3.6820679l-1.7894287 9.245201l9.269745 1.7941666l-2.494995 -3.6820679l5.6360474 -3.7972412c7.368347 -4.964363 17.381775 -3.0262527 22.365662 4.3288956l0.9511719 1.4037704z" fill-rule="evenodd"/></g></svg>