<svg version="1.1" viewBox="0.0 0.0 461.1102362204724 179.76115485564304" fill="none" stroke="none" stroke-linecap="square" stroke-miterlimit="10" xmlns:xlink="http://www.w3.org/1999/xlink" xmlns="http://www.w3.org/2000/svg"><clipPath id="p.0"><path d="m0 0l461.11023 0l0 179.76115l-461.11023 0l0 -179.76115z" clip-rule="nonzero"/></clipPath><g clip-path="url(#p.0)"><path fill="#000000" fill-opacity="0.0" d="m0 0l461.11023 0l0 179.76115l-461.11023 0z" fill-rule="evenodd"/><path fill="#000000" fill-opacity="0.0" d="m93.74641 31.59991c0 -8.175554 6.627594 -14.80315 14.803146 -14.80315c3.9260406 0 7.6912766 1.5596123 10.467407 4.335741c2.7761307 2.7761307 4.335747 6.5413685 4.335747 10.467409c0 8.175552 -6.6276016 14.80315 -14.803154 14.80315c-8.175552 0 -14.803146 -6.627598 -14.803146 -14.80315z" fill-rule="evenodd"/><path stroke="#000000" stroke-width="1.0" stroke-linejoin="round" stroke-linecap="butt" d="m93.74641 31.59991c0 -8.175554 6.627594 -14.80315 14.803146 -14.80315c3.9260406 0 7.6912766 1.5596123 10.467407 4.335741c2.7761307 2.7761307 4.335747 6.5413685 4.335747 10.467409c0 8.175552 -6.6276016 14.80315 -14.803154 14.80315c-8.175552 0 -14.803146 -6.627598 -14.803146 -14.80315z" fill-rule="evenodd"/><path fill="#000000" d="m111.97665 35.98249q-0.421875 0.328125 -1.0625 0.453125q-0.625 0.125 -1.34375 0.125q-0.875 0 -1.640625 -0.296875q-0.75 -0.296875 -1.328125 -0.90625q-0.5625 -0.609375 -0.890625 -1.5625q-0.328125 -0.953125 -0.328125 -2.25q0 -1.34375 0.359375 -2.296875q0.359375 -0.953125 0.953125 -1.546875q0.609375 -0.609375 1.359375 -0.875q0.75 -0.28125 1.53125 -0.28125q0.828125 0 1.34375 0.09375q0.53125 0.078125 0.90625 0.234375l-0.28125 1.015625q-0.65625 -0.328125 -1.890625 -0.328125q-0.5625 0 -1.125 0.21875q-0.546875 0.203125 -0.984375 0.671875q-0.4375 0.46875 -0.703125 1.234375q-0.265625 0.75 -0.265625 1.859375q0 1.0 0.25 1.75q0.25 0.75 0.6875 1.25q0.4375 0.484375 1.015625 0.734375q0.59375 0.25 1.296875 0.25q0.609375 0 1.078125 -0.125q0.46875 -0.125 0.78125 -0.3125l0.28125 0.890625z" fill-rule="nonzero"/><path fill="#000000" fill-opacity="0.0" d="m52.216805 73.12951c0 -8.175552 6.627594 -14.80315 14.803146 -14.80315c3.9260406 0 7.691284 1.5596161 10.467407 4.335743c2.7761307 2.7761307 4.335747 6.5413666 4.335747 10.467407c0 8.175552 -6.627594 14.803154 -14.803154 14.803154c-8.175552 0 -14.803146 -6.6276016 -14.803146 -14.803154z" fill-rule="evenodd"/><path stroke="#000000" stroke-width="1.0" stroke-linejoin="round" stroke-linecap="butt" d="m52.216805 73.12951c0 -8.175552 6.627594 -14.80315 14.803146 -14.80315c3.9260406 0 7.691284 1.5596161 10.467407 4.335743c2.7761307 2.7761307 4.335747 6.5413666 4.335747 10.467407c0 8.175552 -6.627594 14.803154 -14.803154 14.803154c-8.175552 0 -14.803146 -6.6276016 -14.803146 -14.803154z" fill-rule="evenodd"/><path fill="#000000" d="m69.99779 70.44959q0 0.34375 -0.109375 0.703125q-0.109375 0.359375 -0.34375 0.671875q-0.21875 0.3125 -0.5625 0.546875q-0.34375 0.234375 -0.8125 0.359375l0 0.0625q0.40625 0.0625 0.78125 0.234375q0.390625 0.15625 0.671875 0.453125q0.296875 0.296875 0.46875 0.71875q0.1875 0.40625 0.1875 0.96875q0 0.75 -0.3125 1.296875q-0.3125 0.546875 -0.8125 0.890625q-0.5 0.34375 -1.15625 0.515625q-0.640625 0.15625 -1.328125 0.15625q-0.234375 0 -0.546875 0q-0.3125 0 -0.671875 -0.03125q-0.34375 -0.015625 -0.6875 -0.046875q-0.34375 -0.03125 -0.609375 -0.09375l0 -9.53125q0.515625 -0.078125 1.1875 -0.140625q0.6875 -0.0625 1.484375 -0.0625q0.546875 0 1.09375 0.09375q0.5625 0.09375 1.015625 0.359375q0.46875 0.25 0.765625 0.703125q0.296875 0.453125 0.296875 1.171875zm-3.21875 6.578125q0.453125 0 0.859375 -0.09375q0.421875 -0.109375 0.734375 -0.328125q0.328125 -0.234375 0.5 -0.5625q0.1875 -0.34375 0.1875 -0.796875q0 -0.5625 -0.234375 -0.90625q-0.21875 -0.34375 -0.59375 -0.53125q-0.359375 -0.203125 -0.8125 -0.265625q-0.453125 -0.078125 -0.90625 -0.078125l-1.203125 0l0 3.46875q0.09375 0.03125 0.265625 0.046875q0.1875 0.015625 0.390625 0.03125q0.203125 0 0.421875 0.015625q0.234375 0 0.390625 0zm-0.75 -4.53125q0.234375 0 0.5625 -0.015625q0.328125 -0.015625 0.546875 -0.03125q0.34375 -0.125 0.625 -0.28125q0.296875 -0.15625 0.515625 -0.359375q0.234375 -0.21875 0.359375 -0.5q0.140625 -0.296875 0.140625 -0.625q0 -0.453125 -0.171875 -0.75q-0.171875 -0.296875 -0.46875 -0.46875q-0.28125 -0.1875 -0.65625 -0.265625q-0.375 -0.078125 -0.765625 -0.078125q-0.453125 0 -0.84375 0.03125q-0.375 0.015625 -0.5625 0.046875l0 3.296875l0.71875 0z" fill-rule="nonzero"/><path fill="#000000" fill-opacity="0.0" d="m87.81361 156.1887c0 -8.175552 6.627594 -14.803146 14.803146 -14.803146c3.9260406 0 7.6912766 1.5596161 10.467407 4.335739c2.7761307 2.7761383 4.335747 6.5413666 4.335747 10.467407c0 8.175552 -6.6276016 14.803162 -14.803154 14.803162c-8.175552 0 -14.803146 -6.6276093 -14.803146 -14.803162z" fill-rule="evenodd"/><path stroke="#000000" stroke-width="1.0" stroke-linejoin="round" stroke-linecap="butt" d="m87.81361 156.1887c0 -8.175552 6.627594 -14.803146 14.803146 -14.803146c3.9260406 0 7.6912766 1.5596161 10.467407 4.335739c2.7761307 2.7761383 4.335747 6.5413666 4.335747 10.467407c0 8.175552 -6.6276016 14.803162 -14.803154 14.803162c-8.175552 0 -14.803146 -6.6276093 -14.803146 -14.803162z" fill-rule="evenodd"/><path fill="#000000" d="m99.26686 151.30566q0.265625 -0.046875 0.59375 -0.0625q0.328125 -0.03125 0.671875 -0.03125q0.359375 -0.015625 0.6875 -0.015625q0.34375 -0.015625 0.640625 -0.015625q1.15625 0 2.0 0.359375q0.859375 0.359375 1.40625 1.015625q0.5625 0.640625 0.828125 1.546875q0.265625 0.890625 0.265625 1.96875q0 0.984375 -0.265625 1.890625q-0.25 0.90625 -0.796875 1.609375q-0.546875 0.6875 -1.4375 1.109375q-0.890625 0.421875 -2.140625 0.421875q-0.21875 0 -0.578125 -0.015625q-0.34375 0 -0.71875 -0.03125q-0.375 -0.015625 -0.703125 -0.03125q-0.3125 0 -0.453125 -0.03125l0 -9.6875zm2.609375 0.90625q-0.171875 0 -0.390625 0q-0.203125 0 -0.421875 0.015625q-0.203125 0.015625 -0.375 0.03125q-0.171875 0 -0.265625 0.015625l0 7.75q0.0625 0.015625 0.25 0.03125q0.203125 0 0.40625 0.015625q0.203125 0 0.390625 0q0.203125 0 0.28125 0q0.96875 0 1.625 -0.328125q0.65625 -0.328125 1.046875 -0.890625q0.390625 -0.5625 0.546875 -1.28125q0.171875 -0.734375 0.171875 -1.5q0 -0.6875 -0.15625 -1.359375q-0.140625 -0.6875 -0.515625 -1.234375q-0.375 -0.5625 -1.0 -0.90625q-0.625 -0.359375 -1.59375 -0.359375z" fill-rule="nonzero"/><path fill="#000000" fill-opacity="0.0" d="m135.276 73.12951c0 -8.175552 6.627594 -14.80315 14.803146 -14.80315c3.9260406 0 7.691284 1.5596161 10.467407 4.335743c2.7761383 2.7761307 4.3357544 6.5413666 4.3357544 10.467407c0 8.175552 -6.6276093 14.803154 -14.803162 14.803154c-8.175552 0 -14.803146 -6.6276016 -14.803146 -14.803154z" fill-rule="evenodd"/><path stroke="#000000" stroke-width="1.0" stroke-linejoin="round" stroke-linecap="butt" d="m135.276 73.12951c0 -8.175552 6.627594 -14.80315 14.803146 -14.80315c3.9260406 0 7.691284 1.5596161 10.467407 4.335743c2.7761383 2.7761307 4.3357544 6.5413666 4.3357544 10.467407c0 8.175552 -6.6276093 14.803154 -14.803162 14.803154c-8.175552 0 -14.803146 -6.6276016 -14.803146 -14.803154z" fill-rule="evenodd"/><path fill="#000000" d="m147.67648 68.24647l5.265625 0l0 1.015625l-4.109375 0l0 3.3125l3.84375 0l0 1.015625l-3.84375 0l0 4.328125l-1.15625 0l0 -9.671875z" fill-rule="nonzero"/><path fill="#000000" fill-opacity="0.0" d="m111.54481 114.65911c0 -8.175552 6.627594 -14.803154 14.803146 -14.803154c3.926033 0 7.6912766 1.5596161 10.4674 4.335747c2.7761383 2.7761307 4.3357544 6.5413666 4.3357544 10.467407c0 8.175552 -6.627594 14.803154 -14.803154 14.803154c-8.175552 0 -14.803146 -6.6276016 -14.803146 -14.803154z" fill-rule="evenodd"/><path stroke="#000000" stroke-width="1.0" stroke-linejoin="round" stroke-linecap="butt" d="m111.54481 114.65911c0 -8.175552 6.627594 -14.803154 14.803146 -14.803154c3.926033 0 7.6912766 1.5596161 10.4674 4.335747c2.7761383 2.7761307 4.3357544 6.5413666 4.3357544 10.467407c0 8.175552 -6.627594 14.803154 -14.803154 14.803154c-8.175552 0 -14.803146 -6.6276016 -14.803146 -14.803154z" fill-rule="evenodd"/><path fill="#000000" d="m123.81391 109.77607l5.2656174 0l0 1.015625l-4.1093674 0l0 3.171875l3.7656174 0l0 1.015625l-3.7656174 0l0 3.453125l4.1874924 0l0 1.015625l-5.3437424 0l0 -9.671875z" fill-rule="nonzero"/><path fill="#000000" fill-opacity="0.0" d="m159.0072 114.65911c0 -8.175552 6.627594 -14.803154 14.803146 -14.803154c3.9260406 0 7.691284 1.5596161 10.467407 4.335747c2.7761383 2.7761307 4.3357544 6.5413666 4.3357544 10.467407c0 8.175552 -6.6276093 14.803154 -14.803162 14.803154c-8.175552 0 -14.803146 -6.6276016 -14.803146 -14.803154z" fill-rule="evenodd"/><path stroke="#000000" stroke-width="1.0" stroke-linejoin="round" stroke-linecap="butt" d="m159.0072 114.65911c0 -8.175552 6.627594 -14.803154 14.803146 -14.803154c3.9260406 0 7.691284 1.5596161 10.467407 4.335747c2.7761383 2.7761307 4.3357544 6.5413666 4.3357544 10.467407c0 8.175552 -6.6276093 14.803154 -14.803162 14.803154c-8.175552 0 -14.803146 -6.6276016 -14.803146 -14.803154z" fill-rule="evenodd"/><path fill="#000000" d="m174.01648 114.61982l3.25 0l0 4.265625q-0.21875 0.15625 -0.53125 0.296875q-0.3125 0.140625 -0.671875 0.234375q-0.34375 0.09375 -0.734375 0.140625q-0.375 0.0625 -0.734375 0.0625q-0.921875 0 -1.703125 -0.296875q-0.765625 -0.296875 -1.34375 -0.90625q-0.5625 -0.625 -0.875 -1.5625q-0.3125 -0.953125 -0.3125 -2.25q0 -1.34375 0.375 -2.296875q0.390625 -0.953125 1.015625 -1.546875q0.625 -0.609375 1.390625 -0.875q0.78125 -0.28125 1.546875 -0.28125q0.84375 0 1.375 0.09375q0.546875 0.078125 0.90625 0.234375l-0.28125 1.015625q-0.671875 -0.328125 -1.890625 -0.328125q-0.59375 0 -1.171875 0.203125q-0.5625 0.203125 -1.015625 0.671875q-0.453125 0.46875 -0.75 1.234375q-0.296875 0.765625 -0.296875 1.875q0 1.03125 0.234375 1.78125q0.25 0.734375 0.671875 1.234375q0.421875 0.484375 1.015625 0.734375q0.59375 0.234375 1.296875 0.234375q0.875 0 1.5 -0.34375l0 -2.703125l-2.265625 -0.265625l0 -0.65625z" fill-rule="nonzero"/><path fill="#000000" fill-opacity="0.0" d="m28.485603 114.65911c0 -8.175552 6.627598 -14.803154 14.80315 -14.803154c3.9260406 0 7.6912766 1.5596161 10.467407 4.335747c2.7761307 2.7761307 4.335743 6.5413666 4.335743 10.467407c0 8.175552 -6.627598 14.803154 -14.80315 14.803154c-8.175552 0 -14.80315 -6.6276016 -14.80315 -14.803154z" fill-rule="evenodd"/><path stroke="#000000" stroke-width="1.0" stroke-linejoin="round" stroke-linecap="butt" d="m28.485603 114.65911c0 -8.175552 6.627598 -14.803154 14.80315 -14.803154c3.9260406 0 7.6912766 1.5596161 10.467407 4.335747c2.7761307 2.7761307 4.335743 6.5413666 4.335743 10.467407c0 8.175552 -6.627598 14.803154 -14.80315 14.803154c-8.175552 0 -14.80315 -6.6276016 -14.80315 -14.803154z" fill-rule="evenodd"/><path fill="#000000" d="m45.025303 116.760445l-3.5625 0l-0.96875 2.6875l-1.140625 0l3.671875 -9.828125l0.515625 0l3.6875 9.828125l-1.203125 0l-1.0 -2.6875zm-3.203125 -0.984375l2.859375 0l-1.078125 -2.953125l-0.34375 -1.46875l-0.015625 0l-0.34375 1.5l-1.078125 2.921875z" fill-rule="nonzero"/><path fill="#000000" fill-opacity="0.0" d="m98.082146 42.067318l-20.598427 20.598423" fill-rule="evenodd"/><path stroke="#000000" stroke-width="1.0" stroke-linejoin="round" stroke-linecap="butt" d="m98.082146 42.067318l-16.35579 16.35579" fill-rule="evenodd"/><path fill="#000000" stroke="#000000" stroke-width="1.0" stroke-linecap="butt" d="m80.55841 57.255154l-2.0409698 4.376869l4.376869 -2.0409698z" fill-rule="evenodd"/><path fill="#000000" fill-opacity="0.0" d="m115.88055 125.12652l-13.259842 16.25196" fill-rule="evenodd"/><path stroke="#000000" stroke-width="1.0" stroke-linejoin="round" stroke-linecap="butt" d="m115.88055 125.12652l-9.4668045 11.603004" fill-rule="evenodd"/><path fill="#000000" stroke="#000000" stroke-width="1.0" stroke-linecap="butt" d="m105.13394 135.68535l-1.5890579 4.5604095l4.148674 -2.472046z" fill-rule="evenodd"/><path fill="#000000" fill-opacity="0.0" d="m119.01696 42.067318l20.598427 20.598423" fill-rule="evenodd"/><path stroke="#000000" stroke-width="1.0" stroke-linejoin="round" stroke-linecap="butt" d="m119.01696 42.067318l16.355782 16.35579" fill-rule="evenodd"/><path fill="#000000" stroke="#000000" stroke-width="1.0" stroke-linecap="butt" d="m134.20479 59.591053l4.376877 2.0409698l-2.0409698 -4.376869z" fill-rule="evenodd"/><path fill="#000000" fill-opacity="0.0" d="m139.61174 83.59692l-13.259834 16.251968" fill-rule="evenodd"/><path stroke="#000000" stroke-width="1.0" stroke-linejoin="round" stroke-linecap="butt" d="m139.61174 83.59692l-9.466797 11.603012" fill-rule="evenodd"/><path fill="#000000" stroke="#000000" stroke-width="1.0" stroke-linecap="butt" d="m128.86514 94.15575l-1.5890656 4.560417l4.1486816 -2.4720535z" fill-rule="evenodd"/><path fill="#000000" fill-opacity="0.0" d="m160.54655 83.59692l13.259842 16.251968" fill-rule="evenodd"/><path stroke="#000000" stroke-width="1.0" stroke-linejoin="round" stroke-linecap="butt" d="m160.54655 83.59692l9.466812 11.603012" fill-rule="evenodd"/><path fill="#000000" stroke="#000000" stroke-width="1.0" stroke-linecap="butt" d="m168.73355 96.24411l4.1486816 2.4720535l-1.5890656 -4.560417z" fill-rule="evenodd"/><path fill="#000000" fill-opacity="0.0" d="m56.552547 83.59692l-13.259842 16.251968" fill-rule="evenodd"/><path stroke="#000000" stroke-width="1.0" stroke-linejoin="round" stroke-linecap="butt" d="m56.552544 83.59692l-9.466797 11.603012" fill-rule="evenodd"/><path fill="#000000" stroke="#000000" stroke-width="1.0" stroke-linecap="butt" d="m45.805943 94.15575l-1.5890617 4.560417l4.14867 -2.4720535z" fill-rule="evenodd"/><path fill="#000000" fill-opacity="0.0" d="m350.3921 31.59991c0 -8.175554 6.627594 -14.80315 14.803162 -14.80315c3.9260254 0 7.691284 1.5596123 10.467407 4.335741c2.776123 2.7761307 4.335724 6.5413685 4.335724 10.467409c0 8.175552 -6.627594 14.80315 -14.803131 14.80315c-8.175568 0 -14.803162 -6.627598 -14.803162 -14.80315z" fill-rule="evenodd"/><path stroke="#000000" stroke-width="1.0" stroke-linejoin="round" stroke-linecap="butt" d="m350.3921 31.59991c0 -8.175554 6.627594 -14.80315 14.803162 -14.80315c3.9260254 0 7.691284 1.5596123 10.467407 4.335741c2.776123 2.7761307 4.335724 6.5413685 4.335724 10.467409c0 8.175552 -6.627594 14.80315 -14.803131 14.80315c-8.175568 0 -14.803162 -6.627598 -14.803162 -14.80315z" fill-rule="evenodd"/><path fill="#000000" d="m362.6612 26.716866l5.265625 0l0 1.015625l-4.109375 0l0 3.171875l3.765625 0l0 1.015625l-3.765625 0l0 3.453125l4.1875 0l0 1.015625l-5.34375 0l0 -9.671875z" fill-rule="nonzero"/><path fill="#000000" fill-opacity="0.0" d="m316.2168 73.12951c0 -8.175552 6.627594 -14.80315 14.803162 -14.80315c3.9260254 0 7.691284 1.5596161 10.467407 4.335743c2.776123 2.7761307 4.335724 6.5413666 4.335724 10.467407c0 8.175552 -6.627594 14.803154 -14.803131 14.803154c-8.175568 0 -14.803162 -6.6276016 -14.803162 -14.803154z" fill-rule="evenodd"/><path stroke="#000000" stroke-width="1.0" stroke-linejoin="round" stroke-linecap="butt" d="m316.2168 73.12951c0 -8.175552 6.627594 -14.80315 14.803162 -14.80315c3.9260254 0 7.691284 1.5596161 10.467407 4.335743c2.776123 2.7761307 4.335724 6.5413666 4.335724 10.467407c0 8.175552 -6.627594 14.803154 -14.803131 14.803154c-8.175568 0 -14.803162 -6.6276016 -14.803162 -14.803154z" fill-rule="evenodd"/><path fill="#000000" d="m333.9978 70.44959q0 0.34375 -0.109375 0.703125q-0.109375 0.359375 -0.34375 0.671875q-0.21875 0.3125 -0.5625 0.546875q-0.34375 0.234375 -0.8125 0.359375l0 0.0625q0.40625 0.0625 0.78125 0.234375q0.390625 0.15625 0.671875 0.453125q0.296875 0.296875 0.46875 0.71875q0.1875 0.40625 0.1875 0.96875q0 0.75 -0.3125 1.296875q-0.3125 0.546875 -0.8125 0.890625q-0.5 0.34375 -1.15625 0.515625q-0.640625 0.15625 -1.328125 0.15625q-0.234375 0 -0.546875 0q-0.3125 0 -0.671875 -0.03125q-0.34375 -0.015625 -0.6875 -0.046875q-0.34375 -0.03125 -0.609375 -0.09375l0 -9.53125q0.515625 -0.078125 1.1875 -0.140625q0.6875 -0.0625 1.484375 -0.0625q0.546875 0 1.09375 0.09375q0.5625 0.09375 1.015625 0.359375q0.46875 0.25 0.765625 0.703125q0.296875 0.453125 0.296875 1.171875zm-3.21875 6.578125q0.453125 0 0.859375 -0.09375q0.421875 -0.109375 0.734375 -0.328125q0.328125 -0.234375 0.5 -0.5625q0.1875 -0.34375 0.1875 -0.796875q0 -0.5625 -0.234375 -0.90625q-0.21875 -0.34375 -0.59375 -0.53125q-0.359375 -0.203125 -0.8125 -0.265625q-0.453125 -0.078125 -0.90625 -0.078125l-1.203125 0l0 3.46875q0.09375 0.03125 0.265625 0.046875q0.1875 0.015625 0.390625 0.03125q0.203125 0 0.421875 0.015625q0.234375 0 0.390625 0zm-0.75 -4.53125q0.234375 0 0.5625 -0.015625q0.328125 -0.015625 0.546875 -0.03125q0.34375 -0.125 0.625 -0.28125q0.296875 -0.15625 0.515625 -0.359375q0.234375 -0.21875 0.359375 -0.5q0.140625 -0.296875 0.140625 -0.625q0 -0.453125 -0.171875 -0.75q-0.171875 -0.296875 -0.46875 -0.46875q-0.28125 -0.1875 -0.65625 -0.265625q-0.375 -0.078125 -0.765625 -0.078125q-0.453125 0 -0.84375 0.03125q-0.375 0.015625 -0.5625 0.046875l0 3.296875l0.71875 0z" fill-rule="nonzero"/><path fill="#000000" fill-opacity="0.0" d="m321.50992 156.1887c0 -8.175552 6.627594 -14.803146 14.803131 -14.803146c3.926056 0 7.691284 1.5596161 10.467407 4.335739c2.7761536 2.7761383 4.3357544 6.5413666 4.3357544 10.467407c0 8.175552 -6.627594 14.803162 -14.803162 14.803162c-8.175537 0 -14.803131 -6.6276093 -14.803131 -14.803162z" fill-rule="evenodd"/><path stroke="#000000" stroke-width="1.0" stroke-linejoin="round" stroke-linecap="butt" d="m321.50992 156.1887c0 -8.175552 6.627594 -14.803146 14.803131 -14.803146c3.926056 0 7.691284 1.5596161 10.467407 4.335739c2.7761536 2.7761383 4.3357544 6.5413666 4.3357544 10.467407c0 8.175552 -6.627594 14.803162 -14.803162 14.803162c-8.175537 0 -14.803131 -6.6276093 -14.803131 -14.803162z" fill-rule="evenodd"/><path fill="#000000" d="m339.74014 160.57129q-0.421875 0.328125 -1.0625 0.453125q-0.625 0.125 -1.34375 0.125q-0.875 0 -1.640625 -0.296875q-0.75 -0.296875 -1.328125 -0.90625q-0.5625 -0.609375 -0.890625 -1.5625q-0.328125 -0.953125 -0.328125 -2.25q0 -1.34375 0.359375 -2.296875q0.359375 -0.953125 0.953125 -1.546875q0.609375 -0.609375 1.359375 -0.875q0.75 -0.28125 1.53125 -0.28125q0.828125 0 1.34375 0.09375q0.53125 0.078125 0.90625 0.234375l-0.28125 1.015625q-0.65625 -0.328125 -1.890625 -0.328125q-0.5625 0 -1.125 0.21875q-0.546875 0.203125 -0.984375 0.671875q-0.4375 0.46875 -0.703125 1.234375q-0.265625 0.75 -0.265625 1.859375q0 1.0 0.25 1.75q0.25 0.75 0.6875 1.25q0.4375 0.484375 1.015625 0.734375q0.59375 0.25 1.296875 0.25q0.609375 0 1.078125 -0.125q0.46875 -0.125 0.78125 -0.3125l0.28125 0.890625z" fill-rule="nonzero"/><path fill="#000000" fill-opacity="0.0" d="m387.71924 73.12951c0 -8.175552 6.627594 -14.80315 14.803131 -14.80315c3.926056 0 7.691284 1.5596161 10.467407 4.335743c2.7761536 2.7761307 4.3357544 6.5413666 4.3357544 10.467407c0 8.175552 -6.627594 14.803154 -14.803162 14.803154c-8.175537 0 -14.803131 -6.6276016 -14.803131 -14.803154z" fill-rule="evenodd"/><path stroke="#000000" stroke-width="1.0" stroke-linejoin="round" stroke-linecap="butt" d="m387.71924 73.12951c0 -8.175552 6.627594 -14.80315 14.803131 -14.80315c3.926056 0 7.691284 1.5596161 10.467407 4.335743c2.7761536 2.7761307 4.3357544 6.5413666 4.3357544 10.467407c0 8.175552 -6.627594 14.803154 -14.803162 14.803154c-8.175537 0 -14.803131 -6.6276016 -14.803131 -14.803154z" fill-rule="evenodd"/><path fill="#000000" d="m400.11972 68.24647l5.265625 0l0 1.015625l-4.109375 0l0 3.3125l3.84375 0l0 1.015625l-3.84375 0l0 4.328125l-1.15625 0l0 -9.671875z" fill-rule="nonzero"/><path fill="#000000" fill-opacity="0.0" d="m339.98804 114.65911c0 -8.175552 6.627594 -14.803154 14.803131 -14.803154c3.926056 0 7.691284 1.5596161 10.467407 4.335747c2.7761536 2.7761307 4.3357544 6.5413666 4.3357544 10.467407c0 8.175552 -6.627594 14.803154 -14.803162 14.803154c-8.175537 0 -14.803131 -6.6276016 -14.803131 -14.803154z" fill-rule="evenodd"/><path stroke="#000000" stroke-width="1.0" stroke-linejoin="round" stroke-linecap="butt" d="m339.98804 114.65911c0 -8.175552 6.627594 -14.803154 14.803131 -14.803154c3.926056 0 7.691284 1.5596161 10.467407 4.335747c2.7761536 2.7761307 4.3357544 6.5413666 4.3357544 10.467407c0 8.175552 -6.627594 14.803154 -14.803162 14.803154c-8.175537 0 -14.803131 -6.6276016 -14.803131 -14.803154z" fill-rule="evenodd"/><path fill="#000000" d="m351.44128 109.77607q0.265625 -0.046875 0.59375 -0.0625q0.328125 -0.03125 0.671875 -0.03125q0.359375 -0.015625 0.6875 -0.015625q0.34375 -0.015625 0.640625 -0.015625q1.15625 0 2.0 0.359375q0.859375 0.359375 1.40625 1.015625q0.5625 0.640625 0.828125 1.546875q0.265625 0.890625 0.265625 1.96875q0 0.984375 -0.265625 1.890625q-0.25 0.90625 -0.796875 1.609375q-0.546875 0.6875 -1.4375 1.109375q-0.890625 0.421875 -2.140625 0.421875q-0.21875 0 -0.578125 -0.015625q-0.34375 0 -0.71875 -0.03125q-0.375 -0.015625 -0.703125 -0.03125q-0.3125 0 -0.453125 -0.03125l0 -9.6875zm2.609375 0.90625q-0.171875 0 -0.390625 0q-0.203125 0 -0.421875 0.015625q-0.203125 0.015625 -0.375 0.03125q-0.171875 0 -0.265625 0.015625l0 7.75q0.0625 0.015625 0.25 0.03125q0.203125 0 0.40625 0.015625q0.203125 0 0.390625 0q0.203125 0 0.28125 0q0.96875 0 1.625 -0.328125q0.65625 -0.328125 1.046875 -0.890625q0.390625 -0.5625 0.546875 -1.28125q0.171875 -0.734375 0.171875 -1.5q0 -0.6875 -0.15625 -1.359375q-0.140625 -0.6875 -0.515625 -1.234375q-0.375 -0.5625 -1.0 -0.90625q-0.625 -0.359375 -1.59375 -0.359375z" fill-rule="nonzero"/><path fill="#000000" fill-opacity="0.0" d="m409.3492 114.65911c0 -8.175552 6.627594 -14.803154 14.803131 -14.803154c3.926056 0 7.691284 1.5596161 10.467407 4.335747c2.776123 2.7761307 4.3357544 6.5413666 4.3357544 10.467407c0 8.175552 -6.627594 14.803154 -14.803162 14.803154c-8.175537 0 -14.803131 -6.6276016 -14.803131 -14.803154z" fill-rule="evenodd"/><path stroke="#000000" stroke-width="1.0" stroke-linejoin="round" stroke-linecap="butt" d="m409.3492 114.65911c0 -8.175552 6.627594 -14.803154 14.803131 -14.803154c3.926056 0 7.691284 1.5596161 10.467407 4.335747c2.776123 2.7761307 4.3357544 6.5413666 4.3357544 10.467407c0 8.175552 -6.627594 14.803154 -14.803162 14.803154c-8.175537 0 -14.803131 -6.6276016 -14.803131 -14.803154z" fill-rule="evenodd"/><path fill="#000000" d="m424.35846 114.61982l3.25 0l0 4.265625q-0.21875 0.15625 -0.53125 0.296875q-0.3125 0.140625 -0.671875 0.234375q-0.34375 0.09375 -0.734375 0.140625q-0.375 0.0625 -0.734375 0.0625q-0.921875 0 -1.703125 -0.296875q-0.765625 -0.296875 -1.34375 -0.90625q-0.5625 -0.625 -0.875 -1.5625q-0.3125 -0.953125 -0.3125 -2.25q0 -1.34375 0.375 -2.296875q0.390625 -0.953125 1.015625 -1.546875q0.625 -0.609375 1.390625 -0.875q0.78125 -0.28125 1.546875 -0.28125q0.84375 0 1.375 0.09375q0.546875 0.078125 0.90625 0.234375l-0.28125 1.015625q-0.671875 -0.328125 -1.890625 -0.328125q-0.59375 0 -1.171875 0.203125q-0.5625 0.203125 -1.015625 0.671875q-0.453125 0.46875 -0.75 1.234375q-0.296875 0.765625 -0.296875 1.875q0 1.03125 0.234375 1.78125q0.25 0.734375 0.671875 1.234375q0.421875 0.484375 1.015625 0.734375q0.59375 0.234375 1.296875 0.234375q0.875 0 1.5 -0.34375l0 -2.703125l-2.265625 -0.265625l0 -0.65625z" fill-rule="nonzero"/><path fill="#000000" fill-opacity="0.0" d="m292.4856 114.65911c0 -8.175552 6.627594 -14.803154 14.803162 -14.803154c3.9260254 0 7.691284 1.5596161 10.467407 4.335747c2.776123 2.7761307 4.335724 6.5413666 4.335724 10.467407c0 8.175552 -6.627594 14.803154 -14.803131 14.803154c-8.175568 0 -14.803162 -6.6276016 -14.803162 -14.803154z" fill-rule="evenodd"/><path stroke="#000000" stroke-width="1.0" stroke-linejoin="round" stroke-linecap="butt" d="m292.4856 114.65911c0 -8.175552 6.627594 -14.803154 14.803162 -14.803154c3.9260254 0 7.691284 1.5596161 10.467407 4.335747c2.776123 2.7761307 4.335724 6.5413666 4.335724 10.467407c0 8.175552 -6.627594 14.803154 -14.803131 14.803154c-8.175568 0 -14.803162 -6.6276016 -14.803162 -14.803154z" fill-rule="evenodd"/><path fill="#000000" d="m309.0253 116.760445l-3.5625 0l-0.96875 2.6875l-1.140625 0l3.671875 -9.828125l0.515625 0l3.6875 9.828125l-1.203125 0l-1.0 -2.6875zm-3.203125 -0.984375l2.859375 0l-1.078125 -2.953125l-0.34375 -1.46875l-0.015625 0l-0.34375 1.5l-1.078125 2.921875z" fill-rule="nonzero"/><path fill="#000000" fill-opacity="0.0" d="m354.72784 42.067318l-13.228363 20.598423" fill-rule="evenodd"/><path stroke="#000000" stroke-width="1.0" stroke-linejoin="round" stroke-linecap="butt" d="m354.72784 42.067318l-9.986176 15.549854" fill-rule="evenodd"/><path fill="#000000" stroke="#000000" stroke-width="1.0" stroke-linecap="butt" d="m343.35187 56.72463l-1.0624084 4.711029l3.842041 -2.9259415z" fill-rule="evenodd"/><path fill="#000000" fill-opacity="0.0" d="m344.32376 125.12652l-8.0 16.25196" fill-rule="evenodd"/><path stroke="#000000" stroke-width="1.0" stroke-linejoin="round" stroke-linecap="butt" d="m344.3238 125.12652l-5.3501587 10.868813" fill-rule="evenodd"/><path fill="#000000" stroke="#000000" stroke-width="1.0" stroke-linecap="butt" d="m337.4917 135.26587l-0.52227783 4.80101l3.4861145 -3.3420715z" fill-rule="evenodd"/><path fill="#000000" fill-opacity="0.0" d="m375.66266 42.067318l16.37796 20.598423" fill-rule="evenodd"/><path stroke="#000000" stroke-width="1.0" stroke-linejoin="round" stroke-linecap="butt" d="m375.66266 42.067318l12.643799 15.902027" fill-rule="evenodd"/><path fill="#000000" stroke="#000000" stroke-width="1.0" stroke-linecap="butt" d="m387.01358 58.99731l4.1171875 2.5241547l-1.5314331 -4.5800896z" fill-rule="evenodd"/><path fill="#000000" fill-opacity="0.0" d="m341.48737 83.59692l13.291321 16.251968" fill-rule="evenodd"/><path stroke="#000000" stroke-width="1.0" stroke-linejoin="round" stroke-linecap="butt" d="m341.48737 83.59692l9.49292 11.6074295" fill-rule="evenodd"/><path fill="#000000" stroke="#000000" stroke-width="1.0" stroke-linecap="butt" d="m349.70166 96.25001l4.1515503 2.4672318l-1.5943604 -4.558571z" fill-rule="evenodd"/><path fill="#000000" fill-opacity="0.0" d="m412.98978 83.59692l11.149628 16.251968" fill-rule="evenodd"/><path stroke="#000000" stroke-width="1.0" stroke-linejoin="round" stroke-linecap="butt" d="m412.98978 83.59692l7.7553406 11.304359" fill-rule="evenodd"/><path fill="#000000" stroke="#000000" stroke-width="1.0" stroke-linecap="butt" d="m419.3831 95.83569l3.9292908 2.8077087l-1.2052612 -4.676529z" fill-rule="evenodd"/><path fill="#000000" fill-opacity="0.0" d="m320.55255 83.59692l-13.259857 16.251968" fill-rule="evenodd"/><path stroke="#000000" stroke-width="1.0" stroke-linejoin="round" stroke-linecap="butt" d="m320.55255 83.59692l-9.466797 11.603012" fill-rule="evenodd"/><path fill="#000000" stroke="#000000" stroke-width="1.0" stroke-linecap="butt" d="m309.80594 94.15575l-1.5890503 4.560417l4.1486816 -2.4720535z" fill-rule="evenodd"/><path fill="#000000" fill-opacity="0.0" d="m110.062996 5.250593l34.99212 0l0 25.007874l-34.99212 0z" fill-rule="evenodd"/><path fill="#000000" d="m123.03679 17.630156l1.640625 0l0 -1.6875l0.671875 0l0 1.6875l1.640625 0l0 0.671875l-1.640625 0l0 1.671875l-0.671875 0l0 -1.671875l-1.640625 0l0 -0.671875zm5.3357086 2.796875l1.3125 0l0 -4.515625l0.09375 -0.546875l-0.375 0.4375l-1.03125 0.734375l-0.34375 -0.484375l2.046875 -1.578125l0.34375 0l0 5.953125l1.265625 0l0 0.6875l-3.3125 0l0 -0.6875z" fill-rule="nonzero"/><path fill="#000000" fill-opacity="0.0" d="m151.06299 47.25059l34.992126 0l0 25.007877l-34.992126 0z" fill-rule="evenodd"/><path fill="#000000" d="m164.03261 60.08328l3.96875 0l0 0.6875l-3.96875 0l0 -0.6875zm6.0628204 2.34375l1.3125 0l0 -4.515625l0.09375 -0.546875l-0.375 0.4375l-1.03125 0.734375l-0.34375 -0.484375l2.046875 -1.578125l0.34375 0l0 5.953125l1.265625 0l0 0.6875l-3.3125 0l0 -0.6875z" fill-rule="nonzero"/><path fill="#000000" fill-opacity="0.0" d="m173.06299 87.250595l34.992126 0l0 25.007874l-34.992126 0z" fill-rule="evenodd"/><path fill="#000000" d="m188.42339 99.84891q0 -1.671875 0.546875 -2.515625q0.546875 -0.859375 1.578125 -0.859375q1.140625 0 1.640625 0.84375q0.515625 0.828125 0.515625 2.53125q0 1.6875 -0.546875 2.53125q-0.546875 0.84375 -1.609375 0.84375q-1.109375 0 -1.625 -0.875q-0.5 -0.890625 -0.5 -2.5zm0.765625 0q0 0.609375 0.078125 1.109375q0.078125 0.5 0.25 0.859375q0.171875 0.359375 0.421875 0.5625q0.265625 0.1875 0.609375 0.1875q0.71875 0 1.046875 -0.65625q0.328125 -0.65625 0.328125 -2.0625q0 -0.59375 -0.078125 -1.09375q-0.0625 -0.515625 -0.234375 -0.875q-0.15625 -0.359375 -0.421875 -0.546875q-0.25 -0.203125 -0.640625 -0.203125q-0.6875 0 -1.03125 0.65625q-0.328125 0.65625 -0.328125 2.0625z" fill-rule="nonzero"/><path fill="#000000" fill-opacity="0.0" d="m89.062996 88.250595l34.99212 0l0 25.007874l-34.99212 0z" fill-rule="evenodd"/><path fill="#000000" d="m102.03261 101.08328l3.96875 0l0 0.6875l-3.96875 0l0 -0.6875zm6.0628204 2.34375l1.3125 0l0 -4.515625l0.09375 -0.546875l-0.375 0.4375l-1.03125 0.734375l-0.34375 -0.484375l2.046875 -1.578125l0.34375 0l0 5.953125l1.265625 0l0 0.6875l-3.3125 0l0 -0.6875z" fill-rule="nonzero"/><path fill="#000000" fill-opacity="0.0" d="m7.062992 87.250595l34.992126 0l0 25.007874l-34.992126 0z" fill-rule="evenodd"/><path fill="#000000" d="m22.42339 99.84891q0 -1.671875 0.546875 -2.515625q0.546875 -0.859375 1.578125 -0.859375q1.140625 0 1.640625 0.84375q0.515625 0.828125 0.515625 2.53125q0 1.6875 -0.546875 2.53125q-0.546875 0.84375 -1.609375 0.84375q-1.109375 0 -1.625 -0.875q-0.5 -0.890625 -0.5 -2.5zm0.765625 0q0 0.609375 0.078125 1.109375q0.078125 0.5 0.25 0.859375q0.171875 0.359375 0.421875 0.5625q0.265625 0.1875 0.609375 0.1875q0.71875 0 1.046875 -0.65625q0.328125 -0.65625 0.328125 -2.0625q0 -0.59375 -0.078125 -1.09375q-0.0625 -0.515625 -0.234375 -0.875q-0.15625 -0.359375 -0.421875 -0.546875q-0.25 -0.203125 -0.640625 -0.203125q-0.6875 0 -1.03125 0.65625q-0.328125 0.65625 -0.328125 2.0625z" fill-rule="nonzero"/><path fill="#000000" fill-opacity="0.0" d="m30.062992 47.25059l34.992123 0l0 25.007877l-34.992123 0z" fill-rule="evenodd"/><path fill="#000000" d="m43.032604 60.08328l3.96875 0l0 0.6875l-3.96875 0l0 -0.6875zm6.0628204 2.34375l1.3125 0l0 -4.515625l0.09375 -0.546875l-0.375 0.4375l-1.03125 0.734375l-0.34375 -0.484375l2.046875 -1.578125l0.34375 0l0 5.953125l1.265625 0l0 0.6875l-3.3125 0l0 -0.6875z" fill-rule="nonzero"/><path fill="#000000" fill-opacity="0.0" d="m70.062996 127.250595l34.99212 0l0 25.007874l-34.99212 0z" fill-rule="evenodd"/><path fill="#000000" d="m85.42339 139.8489q0 -1.671875 0.546875 -2.515625q0.546875 -0.859375 1.578125 -0.859375q1.140625 0 1.640625 0.84375q0.515625 0.828125 0.515625 2.53125q0 1.6875 -0.546875 2.53125q-0.546875 0.84375 -1.609375 0.84375q-1.109375 0 -1.625 -0.875q-0.5 -0.890625 -0.5 -2.5zm0.765625 0q0 0.609375 0.078125 1.109375q0.078125 0.5 0.25 0.859375q0.171875 0.359375 0.421875 0.5625q0.265625 0.1875 0.609375 0.1875q0.71875 0 1.046875 -0.65625q0.328125 -0.65625 0.328125 -2.0625q0 -0.59375 -0.078125 -1.09375q-0.0625 -0.515625 -0.234375 -0.875q-0.15625 -0.359375 -0.421875 -0.546875q-0.25 -0.203125 -0.640625 -0.203125q-0.6875 0 -1.03125 0.65625q-0.328125 0.65625 -0.328125 2.0625z" fill-rule="nonzero"/><path fill="#000000" fill-opacity="0.0" d="m368.063 5.250593l34.992126 0l0 25.007874l-34.992126 0z" fill-rule="evenodd"/><path fill="#000000" d="m381.0326 18.08328l3.96875 0l0 0.6875l-3.96875 0l0 -0.6875zm6.0628357 2.34375l1.3125 0l0 -4.515625l0.09375 -0.546875l-0.375 0.4375l-1.03125 0.734375l-0.34375 -0.484375l2.046875 -1.578125l0.34375 0l0 5.953125l1.265625 0l0 0.6875l-3.3125 0l0 -0.6875z" fill-rule="nonzero"/><path fill="#000000" fill-opacity="0.0" d="m404.063 45.25059l34.992126 0l0 25.007877l-34.992126 0z" fill-rule="evenodd"/><path fill="#000000" d="m417.03677 57.630154l1.640625 0l0 -1.6875l0.671875 0l0 1.6875l1.640625 0l0 0.671875l-1.640625 0l0 1.671875l-0.671875 0l0 -1.671875l-1.640625 0l0 -0.671875zm5.335724 2.796875l1.3125 0l0 -4.515625l0.09375 -0.546875l-0.375 0.4375l-1.03125 0.734375l-0.34375 -0.484375l2.046875 -1.578125l0.34375 0l0 5.953125l1.265625 0l0 0.6875l-3.3125 0l0 -0.6875z" fill-rule="nonzero"/><path fill="#000000" fill-opacity="0.0" d="m422.063 85.250595l34.992126 0l0 25.007874l-34.992126 0z" fill-rule="evenodd"/><path fill="#000000" d="m437.4234 97.84891q0 -1.671875 0.546875 -2.515625q0.546875 -0.859375 1.578125 -0.859375q1.140625 0 1.640625 0.84375q0.515625 0.828125 0.515625 2.53125q0 1.6875 -0.546875 2.53125q-0.546875 0.84375 -1.609375 0.84375q-1.109375 0 -1.625 -0.875q-0.5 -0.890625 -0.5 -2.5zm0.765625 0q0 0.609375 0.078125 1.109375q0.078125 0.5 0.25 0.859375q0.171875 0.359375 0.421875 0.5625q0.265625 0.1875 0.609375 0.1875q0.71875 0 1.046875 -0.65625q0.328125 -0.65625 0.328125 -2.0625q0 -0.59375 -0.078125 -1.09375q-0.0625 -0.515625 -0.234375 -0.875q-0.15625 -0.359375 -0.421875 -0.546875q-0.25 -0.203125 -0.640625 -0.203125q-0.6875 0 -1.03125 0.65625q-0.328125 0.65625 -0.328125 2.0625z" fill-rule="nonzero"/><path fill="#000000" fill-opacity="0.0" d="m353.063 85.250595l34.992126 0l0 25.007874l-34.992126 0z" fill-rule="evenodd"/><path fill="#000000" d="m366.0326 98.08328l3.96875 0l0 0.6875l-3.96875 0l0 -0.6875zm6.0628357 2.34375l1.3125 0l0 -4.515625l0.09375 -0.546875l-0.375 0.4375l-1.03125 0.734375l-0.34375 -0.484375l2.046875 -1.578125l0.34375 0l0 5.953125l1.265625 0l0 0.6875l-3.3125 0l0 -0.6875z" fill-rule="nonzero"/><path fill="#000000" fill-opacity="0.0" d="m298.063 133.2506l34.992126 0l0 25.007874l-34.992126 0z" fill-rule="evenodd"/><path fill="#000000" d="m313.4234 145.8489q0 -1.671875 0.546875 -2.515625q0.546875 -0.859375 1.578125 -0.859375q1.140625 0 1.640625 0.84375q0.515625 0.828125 0.515625 2.53125q0 1.6875 -0.546875 2.53125q-0.546875 0.84375 -1.609375 0.84375q-1.109375 0 -1.625 -0.875q-0.5 -0.890625 -0.5 -2.5zm0.765625 0q0 0.609375 0.078125 1.109375q0.078125 0.5 0.25 0.859375q0.171875 0.359375 0.421875 0.5625q0.265625 0.1875 0.609375 0.1875q0.71875 0 1.046875 -0.65625q0.328125 -0.65625 0.328125 -2.0625q0 -0.59375 -0.078125 -1.09375q-0.0625 -0.515625 -0.234375 -0.875q-0.15625 -0.359375 -0.421875 -0.546875q-0.25 -0.203125 -0.640625 -0.203125q-0.6875 0 -1.03125 0.65625q-0.328125 0.65625 -0.328125 2.0625z" fill-rule="nonzero"/><path fill="#000000" fill-opacity="0.0" d="m272.063 85.250595l34.992126 0l0 25.007874l-34.992126 0z" fill-rule="evenodd"/><path fill="#000000" d="m287.4234 97.84891q0 -1.671875 0.546875 -2.515625q0.546875 -0.859375 1.578125 -0.859375q1.140625 0 1.640625 0.84375q0.515625 0.828125 0.515625 2.53125q0 1.6875 -0.546875 2.53125q-0.546875 0.84375 -1.609375 0.84375q-1.109375 0 -1.625 -0.875q-0.5 -0.890625 -0.5 -2.5zm0.765625 0q0 0.609375 0.078125 1.109375q0.078125 0.5 0.25 0.859375q0.171875 0.359375 0.421875 0.5625q0.265625 0.1875 0.609375 0.1875q0.71875 0 1.046875 -0.65625q0.328125 -0.65625 0.328125 -2.0625q0 -0.59375 -0.078125 -1.09375q-0.0625 -0.515625 -0.234375 -0.875q-0.15625 -0.359375 -0.421875 -0.546875q-0.25 -0.203125 -0.640625 -0.203125q-0.6875 0 -1.03125 0.65625q-0.328125 0.65625 -0.328125 2.0625z" fill-rule="nonzero"/><path fill="#000000" fill-opacity="0.0" d="m295.063 45.25059l34.992126 0l0 25.007877l-34.992126 0z" fill-rule="evenodd"/><path fill="#000000" d="m308.03677 57.630154l1.640625 0l0 -1.6875l0.671875 0l0 1.6875l1.640625 0l0 0.671875l-1.640625 0l0 1.671875l-0.671875 0l0 -1.671875l-1.640625 0l0 -0.671875zm5.335724 2.796875l1.3125 0l0 -4.515625l0.09375 -0.546875l-0.375 0.4375l-1.03125 0.734375l-0.34375 -0.484375l2.046875 -1.578125l0.34375 0l0 5.953125l1.265625 0l0 0.6875l-3.3125 0l0 -0.6875z" fill-rule="nonzero"/></g></svg>