<svg version="1.1" viewBox="0.0 0.0 1237.5433070866143 209.23097112860893" fill="none" stroke="none" stroke-linecap="square" stroke-miterlimit="10" xmlns:xlink="http://www.w3.org/1999/xlink" xmlns="http://www.w3.org/2000/svg"><clipPath id="p.0"><path d="m0 0l1237.5433 0l0 209.23097l-1237.5433 0l0 -209.23097z" clip-rule="nonzero"/></clipPath><g clip-path="url(#p.0)"><path fill="#000000" fill-opacity="0.0" d="m0 0l1237.5433 0l0 209.23097l-1237.5433 0z" fill-rule="evenodd"/><path fill="#000000" fill-opacity="0.0" d="m19.953934 142.0133c0 -3.5138245 2.8485126 -6.362335 6.3623314 -6.362335l73.82652 0c1.6873932 0 3.3056793 0.6703186 4.498848 1.8634796c1.1931686 1.1931763 1.8634796 2.8114624 1.8634796 4.4988556l0 25.448563c0 3.5138245 -2.8485107 6.362335 -6.3623276 6.362335l-73.82652 0c-3.5138187 0 -6.3623314 -2.8485107 -6.3623314 -6.362335z" fill-rule="evenodd"/><path stroke="#000000" stroke-width="2.0" stroke-linejoin="round" stroke-linecap="butt" d="m19.953934 142.0133c0 -3.5138245 2.8485126 -6.362335 6.3623314 -6.362335l73.82652 0c1.6873932 0 3.3056793 0.6703186 4.498848 1.8634796c1.1931686 1.1931763 1.8634796 2.8114624 1.8634796 4.4988556l0 25.448563c0 3.5138245 -2.8485107 6.362335 -6.3623276 6.362335l-73.82652 0c-3.5138187 0 -6.3623314 -2.8485107 -6.3623314 -6.362335z" fill-rule="evenodd"/><path fill="#000000" d="m48.287853 159.1038q-0.1875 0.390625 -0.5625 0.78125q-0.359375 0.390625 -0.84375 0.703125q-0.484375 0.296875 -1.109375 0.46875q-0.625 0.1875 -1.328125 0.1875q-1.765625 0 -2.71875 -1.0q-0.9375 -1.015625 -0.9375 -2.8125q0 -1.515625 0.421875 -2.859375q0.421875 -1.34375 1.1875 -2.34375q0.765625 -1.0 1.859375 -1.578125q1.109375 -0.578125 2.453125 -0.578125q1.03125 0 1.765625 0.53125q0.734375 0.515625 0.734375 1.546875q0 1.5 -1.515625 2.375q-1.5 0.875 -4.84375 1.140625q-0.078125 0.359375 -0.125 0.703125q-0.03125 0.34375 -0.03125 0.65625q0 1.28125 0.65625 2.09375q0.65625 0.8125 1.90625 0.8125q0.40625 0 0.796875 -0.125q0.40625 -0.140625 0.75 -0.328125q0.359375 -0.1875 0.640625 -0.40625q0.296875 -0.21875 0.5 -0.375l0.34375 0.40625zm-2.234375 -8.109375q-0.921875 0.015625 -1.71875 0.859375q-0.78125 0.84375 -1.328125 2.890625q2.0625 -0.0625 3.203125 -0.703125q1.15625 -0.65625 1.15625 -1.8125q0 -0.453125 -0.265625 -0.828125q-0.265625 -0.390625 -1.046875 -0.40625zm8.891846 6.78125q0.765625 -1.28125 1.359375 -2.484375q0.59375 -1.203125 1.03125 -2.421875q0 -0.234375 -0.0625 -0.609375q-0.046875 -0.375 -0.109375 -0.75q-0.046875 -0.390625 -0.109375 -0.71875q-0.0625 -0.328125 -0.109375 -0.46875q0.625 -0.25 1.265625 -0.25q0.65625 -0.015625 1.140625 0.25q-0.3125 1.328125 -0.875 2.703125q-0.546875 1.375 -1.265625 2.75q-0.703125 1.359375 -1.546875 2.6875q-0.84375 1.3125 -1.765625 2.53125l-1.0 0.25l-1.578125 -9.671875l-1.375 -0.171875l0 -0.53125q0.140625 -0.09375 0.390625 -0.234375q0.25 -0.140625 0.5625 -0.265625q0.3125 -0.125 0.640625 -0.203125q0.328125 -0.09375 0.625 -0.09375q0.46875 0 0.671875 0.234375q0.203125 0.234375 0.265625 0.578125l0.984375 6.9375l0.109375 1.34375l0.046875 0l0.703125 -1.390625zm12.345913 1.328125q-0.1875 0.390625 -0.5625 0.78125q-0.359375 0.390625 -0.84375 0.703125q-0.484375 0.296875 -1.109375 0.46875q-0.625 0.1875 -1.3281212 0.1875q-1.765625 0 -2.71875 -1.0q-0.9375 -1.015625 -0.9375 -2.8125q0 -1.515625 0.421875 -2.859375q0.421875 -1.34375 1.1875 -2.34375q0.765625 -1.0 1.859375 -1.578125q1.1093712 -0.578125 2.4531212 -0.578125q1.03125 0 1.765625 0.53125q0.734375 0.515625 0.734375 1.546875q0 1.5 -1.515625 2.375q-1.5 0.875 -4.843746 1.140625q-0.078125 0.359375 -0.125 0.703125q-0.03125 0.34375 -0.03125 0.65625q0 1.28125 0.65625 2.09375q0.65625 0.8125 1.9062462 0.8125q0.40625 0 0.796875 -0.125q0.40625 -0.140625 0.75 -0.328125q0.359375 -0.1875 0.640625 -0.40625q0.296875 -0.21875 0.5 -0.375l0.34375 0.40625zm-2.234375 -8.109375q-0.921875 0.015625 -1.7187462 0.859375q-0.78125 0.84375 -1.328125 2.890625q2.0624962 -0.0625 3.2031212 -0.703125q1.15625 -0.65625 1.15625 -1.8125q0 -0.453125 -0.265625 -0.828125q-0.265625 -0.390625 -1.046875 -0.40625zm10.058014 0.640625q-0.546875 0.203125 -1.25 1.078125q-0.6875 0.859375 -1.21875 2.328125l-1.28125 5.953125l-1.828125 0l1.984375 -9.421875l-1.3125 -0.203125l0 -0.53125q0.734375 -0.34375 1.515625 -0.515625q0.796875 -0.1875 1.4375 -0.25l0.421875 0.25l-0.59375 2.84375l0.078125 0q0.625 -1.40625 1.515625 -2.25q0.90625 -0.84375 1.921875 -0.84375q0.28125 0 0.546875 0.0625q0.28125 0.046875 0.546875 0.1875q0 0.203125 -0.078125 0.515625q-0.0625 0.296875 -0.1875 0.625q-0.109375 0.3125 -0.25 0.609375q-0.125 0.28125 -0.28125 0.4375l-1.6875 -0.875zm3.5863647 -0.0625l-1.359375 -0.171875l0 -0.53125q0.109375 -0.09375 0.34375 -0.21875q0.25 -0.125 0.5625 -0.25q0.328125 -0.140625 0.671875 -0.234375q0.34375 -0.09375 0.640625 -0.09375q0.4375 0 0.640625 0.234375q0.203125 0.21875 0.3125 0.578125l1.765625 7.46875l0.078125 1.28125l0.03125 0l0.5 -1.265625q0.265625 -0.59375 0.546875 -1.3125q0.296875 -0.71875 0.578125 -1.4375q0.28125 -0.71875 0.515625 -1.421875q0.234375 -0.703125 0.40625 -1.3125q0 -0.234375 -0.0625 -0.609375q-0.046875 -0.390625 -0.109375 -0.765625q-0.0625 -0.390625 -0.140625 -0.71875q-0.0625 -0.328125 -0.09375 -0.46875q0.296875 -0.125 0.640625 -0.1875q0.34375 -0.0625 0.6562576 -0.0625q0.640625 0 1.125 0.25q-0.65625 2.65625 -1.7968826 5.296875q-1.140625 2.640625 -2.53125 5.375q-1.140625 2.234375 -2.296875 3.34375q-1.15625 1.109375 -2.609375 1.109375q-0.3125 0 -0.609375 -0.09375q-0.28125 -0.078125 -0.59375 -0.25q-0.03125 -0.234375 0.03125 -0.53125q0.0625 -0.296875 0.203125 -0.59375q0.140625 -0.296875 0.359375 -0.5625q0.234375 -0.25 0.515625 -0.390625l1.71875 0.890625q0.15625 -0.109375 0.390625 -0.3125q0.234375 -0.203125 0.484375 -0.5625q0.25 -0.34375 0.5 -0.84375q0.265625 -0.5 0.5 -1.203125l-2.515625 -9.421875z" fill-rule="nonzero"/><path fill="#000000" fill-opacity="0.0" d="m91.9898 57.82927c0 19.455528 -7.18898 29.182701 -14.377953 38.91105c-7.18898 9.728348 -14.377956 19.457863 -14.377956 38.915718" fill-rule="evenodd"/><path stroke="#000000" stroke-width="2.0" stroke-linejoin="round" stroke-linecap="butt" d="m91.59251 65.39885l-0.009216309 0.088127136c-0.02935791 0.2642517 -0.0602417 0.52645874 -0.09259796 0.78665924c-0.06472778 0.520401 -0.13536835 1.0327911 -0.2117157 1.537468c-0.1526947 1.0093384 -0.32820892 1.9878006 -0.5247803 2.937767c-0.78630066 3.7998657 -1.9095764 7.14373 -3.2575073 10.183617c-2.6958694 6.079773 -6.290352 10.943665 -9.884842 15.807831c-3.59449 4.864174 -7.18898 9.728638 -9.884842 15.809296c-1.3479309 3.040329 -2.4712143 6.3847046 -3.2575073 10.185112c-0.04914093 0.23753357 -0.096969604 0.47683716 -0.1434555 0.71795654l-0.04624939 0.24903107" fill-rule="evenodd"/><path fill="#000000" stroke="#000000" stroke-width="2.0" stroke-linecap="butt" d="m91.937386 58.827892c1.8145218 0.09523392 3.2082748 1.6433945 3.1130447 3.4579163c-0.09523773 1.814518 -1.6433945 3.208271 -3.4579163 3.113041c-1.8145218 -0.09523773 -3.2082748 -1.6433945 -3.1130447 -3.4579124c0.09523773 -1.8145218 1.6433945 -3.2082787 3.4579163 -3.1130447z" fill-rule="nonzero"/><path fill="#000000" stroke="#000000" stroke-width="2.0" stroke-linecap="butt" d="m60.98889 123.41379l2.4998322 9.329575l4.081955 -8.753731z" fill-rule="evenodd"/><path fill="#000000" fill-opacity="0.0" d="m260.8366 46.446507c23.427063 0 35.14154 18.543308 46.854156 37.086613c11.712585 18.543312 23.42331 37.086617 46.84662 37.086617" fill-rule="evenodd"/><path stroke="#000000" stroke-width="2.0" stroke-linejoin="round" stroke-linecap="butt" d="m268.38498 47.138195l0.22399902 0.042430878c0.16287231 0.03196335 0.32504272 0.06492996 0.4866333 0.09888077c2.5852356 0.5432625 5.0103455 1.3400459 7.2981567 2.3541298c4.5756836 2.0281754 8.602295 4.9255676 12.262848 8.402439c7.3210754 6.953739 13.177856 16.225391 19.03415 25.497044c5.8562927 9.27166 11.712128 18.543312 19.0318 25.497055c3.6598206 3.4768677 7.685608 6.37426 12.2604065 8.402435c1.1437073 0.50704193 2.3217163 0.95975494 3.5368958 1.3536224l0.15112305 0.04788208" fill-rule="evenodd"/><path fill="#000000" stroke="#000000" stroke-width="2.0" stroke-linecap="butt" d="m261.83243 46.537758c0.16583252 -1.809433 1.7670593 -3.141861 3.5765076 -2.9760551c1.8094482 0.16580963 3.1418457 1.7670593 2.9760437 3.5764923c-0.165802 1.8094368 -1.7670593 3.141861 -3.576477 2.9760551c-1.8094482 -0.16580582 -3.1418762 -1.7670555 -2.9760742 -3.5764923z" fill-rule="nonzero"/><path fill="#000000" stroke="#000000" stroke-width="2.0" stroke-linecap="butt" d="m342.17944 122.1008l9.466705 -1.9161301l-8.483582 -4.617241z" fill-rule="evenodd"/><path fill="#000000" fill-opacity="0.0" d="m430.3366 107.17774c23.855896 0 35.782623 -8.480316 47.71176 -16.960625c11.929138 -8.480316 23.860657 -16.960632 47.721283 -16.960632" fill-rule="evenodd"/><path stroke="#000000" stroke-width="2.0" stroke-linejoin="round" stroke-linecap="butt" d="m437.9104 106.87051l0.8362732 -0.07371521c2.6325073 -0.24845123 5.101959 -0.61283875 7.431549 -1.0766068c4.6593018 -0.927536 8.759399 -2.2525864 12.486816 -3.8426437c7.4548035 -3.1801147 13.418793 -7.420273 19.383362 -11.660431c5.964569 -4.240158 11.9296875 -8.480309 19.386322 -11.660431c3.728302 -1.5900574 7.829468 -2.9151077 12.489807 -3.842636c1.1651306 -0.23188782 2.3651428 -0.4389267 3.6030579 -0.6190491l0.26885986 -0.037361145" fill-rule="evenodd"/><path fill="#000000" stroke="#000000" stroke-width="2.0" stroke-linecap="butt" d="m431.3358 107.13721c-0.073638916 -1.8155212 1.33844 -3.3470001 3.1539612 -3.4206467c1.8155212 -0.073646545 3.3469849 1.3384247 3.4206238 3.1539536c0.07366943 1.8155212 -1.3384094 3.3469925 -3.1539307 3.420639c-1.8155212 0.073646545 -3.3470154 -1.3384247 -3.4206543 -3.153946z" fill-rule="nonzero"/><path fill="#000000" stroke="#000000" stroke-width="2.0" stroke-linecap="butt" d="m514.017 77.35372l8.835388 -3.9020386l-9.276489 -2.6901474z" fill-rule="evenodd"/><path fill="#000000" fill-opacity="0.0" d="m180.48936 166.69048c0 -3.5138245 2.8485107 -6.362335 6.362335 -6.362335l73.82652 0c1.6873779 0 3.305664 0.6703186 4.4988403 1.8634796c1.1931763 1.1931763 1.8634949 2.8114624 1.8634949 4.4988556l0 25.448563c0 3.5138092 -2.8485107 6.362335 -6.362335 6.362335l-73.82652 0c-3.5138245 0 -6.362335 -2.848526 -6.362335 -6.362335z" fill-rule="evenodd"/><path stroke="#000000" stroke-width="2.0" stroke-linejoin="round" stroke-linecap="butt" d="m180.48936 166.69048c0 -3.5138245 2.8485107 -6.362335 6.362335 -6.362335l73.82652 0c1.6873779 0 3.305664 0.6703186 4.4988403 1.8634796c1.1931763 1.1931763 1.8634949 2.8114624 1.8634949 4.4988556l0 25.448563c0 3.5138092 -2.8485107 6.362335 -6.362335 6.362335l-73.82652 0c-3.5138245 0 -6.362335 -2.848526 -6.362335 -6.362335z" fill-rule="evenodd"/><path fill="#000000" d="m218.0529 183.78098q-0.234375 0.390625 -0.59375 0.78125q-0.359375 0.390625 -0.859375 0.703125q-0.484375 0.296875 -1.09375 0.46875q-0.609375 0.1875 -1.328125 0.1875q-1.578125 0 -2.5 -1.0q-0.90625 -1.0 -0.90625 -2.71875q0 -1.546875 0.484375 -2.890625q0.484375 -1.359375 1.328125 -2.375q0.84375 -1.015625 1.984375 -1.59375q1.140625 -0.59375 2.453125 -0.59375q0.796875 0 1.3125 0.125q0.515625 0.125 0.765625 0.375q0.03125 0.234375 -0.03125 0.515625q-0.046875 0.28125 -0.171875 0.5625q-0.109375 0.28125 -0.296875 0.515625q-0.171875 0.234375 -0.375 0.3125l-1.4375 -1.484375q-0.734375 0.015625 -1.453125 0.453125q-0.703125 0.421875 -1.28125 1.21875q-0.5625 0.78125 -0.921875 1.90625q-0.34375 1.109375 -0.3125 2.515625q-0.03125 1.46875 0.578125 2.15625q0.609375 0.6875 1.65625 0.6875q0.453125 0 0.84375 -0.125q0.390625 -0.140625 0.734375 -0.328125q0.34375 -0.1875 0.609375 -0.40625q0.28125 -0.21875 0.5 -0.375l0.3125 0.40625zm4.997772 0.828125q0.578125 0 1.15625 -0.546875q0.578125 -0.546875 1.078125 -1.3125q0.515625 -0.765625 0.921875 -1.59375q0.40625 -0.84375 0.640625 -1.390625l0.6875 -3.65625q-0.296875 -0.203125 -0.578125 -0.28125q-0.28125 -0.09375 -0.765625 -0.09375q-0.984375 0 -1.796875 0.609375q-0.796875 0.609375 -1.359375 1.578125q-0.5625 0.953125 -0.875 2.125q-0.296875 1.171875 -0.296875 2.296875q0 1.09375 0.265625 1.6875q0.265625 0.578125 0.921875 0.578125zm3.375 -3.125q-0.28125 0.78125 -0.703125 1.578125q-0.40625 0.78125 -0.953125 1.421875q-0.546875 0.640625 -1.21875 1.046875q-0.65625 0.390625 -1.390625 0.390625q-2.21875 0 -2.21875 -3.21875q0 -1.484375 0.421875 -2.90625q0.421875 -1.421875 1.234375 -2.53125q0.8125 -1.109375 1.96875 -1.78125q1.171875 -0.671875 2.640625 -0.671875q0.53125 0 0.84375 0.09375q0.328125 0.09375 0.78125 0.296875q0.84375 -0.453125 1.78125 -0.453125l-1.90625 9.75l1.546875 0l0 0.53125q-0.421875 0.34375 -1.03125 0.5625q-0.59375 0.203125 -1.15625 0.203125q-0.625 0 -0.890625 -0.265625q-0.265625 -0.265625 -0.265625 -0.5625q0 -0.390625 0.140625 -1.265625q0.15625 -0.875 0.453125 -2.21875l-0.078125 0zm5.1605988 -5.96875q0.421875 -0.234375 0.890625 -0.421875q0.484375 -0.1875 0.953125 -0.296875l0.34375 -1.625q0.296875 -0.234375 0.6875 -0.40625q0.40625 -0.1875 0.828125 -0.359375l0.453125 0.25l-0.515625 2.34375l2.640625 0q0.046875 0.265625 0 0.546875q-0.03125 0.265625 -0.203125 0.53125l-2.65625 0l-1.34375 6.1875q-0.078125 0.40625 -0.125 0.71875q-0.03125 0.296875 -0.03125 0.546875q0 0.5625 0.3125 0.828125q0.328125 0.25 0.703125 0.25q0.53125 0 1.140625 -0.203125q0.609375 -0.203125 1.125 -0.46875l0.234375 0.390625q-0.1875 0.28125 -0.578125 0.5625q-0.390625 0.265625 -0.875 0.5q-0.46875 0.234375 -1.0 0.375q-0.515625 0.15625 -0.984375 0.15625q-0.9375 0 -1.46875 -0.421875q-0.53125 -0.421875 -0.53125 -1.328125q0 -0.296875 0.046875 -0.65625q0.0625 -0.359375 0.140625 -0.75l1.40625 -6.6875l-1.625 0l0.03125 -0.5625z" fill-rule="nonzero"/><path fill="#000000" fill-opacity="0.0" d="m354.06155 18.449c0 -3.5138178 2.8485107 -6.3623314 6.362335 -6.3623314l73.82651 0c1.6873779 0 3.305664 0.67031574 4.4988403 1.8634844c1.1931763 1.1931686 1.8634949 2.811452 1.8634949 4.498847l0 25.448565c0 3.5138206 -2.8485107 6.3623314 -6.362335 6.3623314l-73.82651 0c-3.5138245 0 -6.362335 -2.8485107 -6.362335 -6.3623314z" fill-rule="evenodd"/><path stroke="#000000" stroke-width="2.0" stroke-linejoin="round" stroke-linecap="butt" d="m354.06155 18.449c0 -3.5138178 2.8485107 -6.3623314 6.362335 -6.3623314l73.82651 0c1.6873779 0 3.305664 0.67031574 4.4988403 1.8634844c1.1931763 1.1931686 1.8634949 2.811452 1.8634949 4.498847l0 25.448565c0 3.5138206 -2.8485107 6.3623314 -6.362335 6.3623314l-73.82651 0c-3.5138245 0 -6.362335 -2.8485107 -6.362335 -6.3623314z" fill-rule="evenodd"/><path fill="#000000" d="m378.72528 22.883257l-1.515625 -0.1875l0 -0.53125q0.296875 -0.140625 0.6875 -0.265625q0.390625 -0.125 0.828125 -0.234375q0.4375 -0.125 0.859375 -0.1875q0.4375 -0.078125 0.78125 -0.078125l0.421875 0.234375l-2.9375 14.609373l1.546875 0l0 0.546875q-0.421875 0.34375 -1.03125 0.5625q-0.609375 0.203125 -1.1875 0.203125q-0.609375 0 -0.90625 -0.265625q-0.28125 -0.28125 -0.28125 -0.65625q0 -0.421875 0.0625 -0.828125q0.0625 -0.40625 0.171875 -0.890625l2.5 -12.031248zm3.064148 10.578123q0 -1.125 0.34375 -2.343748q0.359375 -1.234375 1.078125 -2.25q0.734375 -1.03125 1.8125 -1.6875q1.09375 -0.671875 2.546875 -0.671875q1.65625 0 2.5 1.03125q0.84375 1.015625 0.84375 3.015625q0 1.421875 -0.40625 2.718748q-0.40625 1.28125 -1.140625 2.265625q-0.71875 0.96875 -1.75 1.5625q-1.015625 0.578125 -2.25 0.578125q-1.640625 0 -2.609375 -1.046875q-0.96875 -1.0625 -0.96875 -3.171875zm5.359375 -6.031248q-1.046875 0.015625 -1.71875 0.6875q-0.65625 0.65625 -1.046875 1.640625q-0.375 0.96875 -0.53125 2.109375q-0.140625 1.1249981 -0.140625 2.062498q0 1.265625 0.546875 2.0625q0.5625 0.78125 1.5 0.78125q0.75 0 1.328125 -0.5625q0.59375 -0.578125 1.0 -1.5q0.421875 -0.921875 0.640625 -2.09375q0.234375 -1.1874981 0.234375 -2.374998q0 -1.265625 -0.4375 -2.03125q-0.4375 -0.765625 -1.375 -0.78125zm9.934204 6.781248q0.765625 -1.28125 1.359375 -2.484373q0.59375 -1.203125 1.03125 -2.421875q0 -0.234375 -0.0625 -0.609375q-0.046875 -0.375 -0.109375 -0.75q-0.046875 -0.390625 -0.109375 -0.71875q-0.0625 -0.328125 -0.109375 -0.46875q0.625 -0.25 1.265625 -0.25q0.65625 -0.015625 1.140625 0.25q-0.3125 1.328125 -0.875 2.703125q-0.546875 1.375 -1.265625 2.749998q-0.703125 1.359375 -1.546875 2.6875q-0.84375 1.3125 -1.765625 2.53125l-1.0 0.25l-1.578125 -9.671873l-1.375 -0.171875l0 -0.53125q0.140625 -0.09375 0.390625 -0.234375q0.25 -0.140625 0.5625 -0.265625q0.3125 -0.125 0.640625 -0.203125q0.328125 -0.09375 0.625 -0.09375q0.46875 0 0.671875 0.234375q0.203125 0.234375 0.265625 0.578125l0.984375 6.937498l0.109375 1.34375l0.046875 0l0.703125 -1.390625zm12.345917 1.328125q-0.1875 0.390625 -0.5625 0.78125q-0.359375 0.390625 -0.84375 0.703125q-0.484375 0.296875 -1.109375 0.46875q-0.625 0.1875 -1.328125 0.1875q-1.765625 0 -2.71875 -1.0q-0.9375 -1.015625 -0.9375 -2.8125q0 -1.515625 0.421875 -2.859373q0.421875 -1.34375 1.1875 -2.34375q0.765625 -1.0 1.859375 -1.578125q1.109375 -0.578125 2.453125 -0.578125q1.03125 0 1.765625 0.53125q0.734375 0.515625 0.734375 1.546875q0 1.5 -1.515625 2.375q-1.5 0.875 -4.84375 1.1406231q-0.078125 0.359375 -0.125 0.703125q-0.03125 0.34375 -0.03125 0.65625q0 1.28125 0.65625 2.09375q0.65625 0.8125 1.90625 0.8125q0.40625 0 0.796875 -0.125q0.40625 -0.140625 0.75 -0.328125q0.359375 -0.1875 0.640625 -0.40625q0.296875 -0.21875 0.5 -0.375l0.34375 0.40625zm-2.234375 -8.109373q-0.921875 0.015625 -1.71875 0.859375q-0.78125 0.84375 -1.328125 2.890625q2.0625 -0.0625 3.203125 -0.703125q1.15625 -0.65625 1.15625 -1.8125q0 -0.453125 -0.265625 -0.828125q-0.265625 -0.390625 -1.046875 -0.40625zm8.995514 7.484373q-0.015625 -0.515625 -0.28125 -0.890625q-0.265625 -0.375 -0.6875 -0.703125q-0.421875 -0.34375 -0.890625 -0.6875q-0.46875 -0.34375 -0.890625 -0.7499981q-0.40625 -0.421875 -0.671875 -0.96875q-0.265625 -0.546875 -0.265625 -1.3125q0 -0.765625 0.296875 -1.34375q0.296875 -0.578125 0.8125 -0.953125q0.53125 -0.390625 1.265625 -0.59375q0.734375 -0.203125 1.609375 -0.203125q0.5625 0 1.25 0.09375q0.6875 0.09375 1.3125 0.46875q0 0.234375 -0.09375 0.546875q-0.078125 0.296875 -0.21875 0.59375q-0.140625 0.28125 -0.3125 0.53125q-0.171875 0.234375 -0.359375 0.328125l-1.578125 -1.640625q-0.4375 0.015625 -0.828125 0.109375q-0.390625 0.078125 -0.671875 0.28125q-0.28125 0.1875 -0.453125 0.5q-0.15625 0.296875 -0.15625 0.765625q0 0.5625 0.28125 0.953125q0.28125 0.390625 0.6875 0.75q0.421875 0.34375 0.890625 0.6875q0.484375 0.328125 0.890625 0.7499981q0.421875 0.40625 0.703125 0.953125q0.28125 0.53125 0.28125 1.28125q0 0.765625 -0.359375 1.375q-0.34375 0.59375 -0.953125 1.015625q-0.609375 0.40625 -1.40625 0.609375q-0.796875 0.21875 -1.703125 0.21875q-0.890625 0 -1.625 -0.1875q-0.734375 -0.171875 -1.15625 -0.453125q0.09375 -0.546875 0.234375 -1.0625q0.15625 -0.53125 0.640625 -0.984375l1.90625 1.78125q0.453125 0 0.890625 -0.109375q0.4375 -0.109375 0.78125 -0.34375q0.359375 -0.234375 0.578125 -0.578125q0.234375 -0.34375 0.25 -0.828125z" fill-rule="nonzero"/><path fill="#000000" fill-opacity="0.0" d="m538.4264 153.18129c0 -3.5138245 2.8485107 -6.362335 6.3623047 -6.362335l73.82654 0c1.6873779 0 3.305664 0.6703186 4.4988403 1.8634796c1.1931763 1.1931763 1.8634644 2.8114471 1.8634644 4.4988556l0 25.448563c0 3.5138092 -2.8485107 6.362335 -6.3623047 6.362335l-73.82654 0c-3.513794 0 -6.3623047 -2.848526 -6.3623047 -6.362335z" fill-rule="evenodd"/><path stroke="#000000" stroke-width="2.0" stroke-linejoin="round" stroke-linecap="butt" d="m538.4264 153.18129c0 -3.5138245 2.8485107 -6.362335 6.3623047 -6.362335l73.82654 0c1.6873779 0 3.305664 0.6703186 4.4988403 1.8634796c1.1931763 1.1931763 1.8634644 2.8114471 1.8634644 4.4988556l0 25.448563c0 3.5138092 -2.8485107 6.362335 -6.3623047 6.362335l-73.82654 0c-3.513794 0 -6.3623047 -2.848526 -6.3623047 -6.362335z" fill-rule="evenodd"/><path fill="#000000" d="m564.9744 171.09991q0.578125 0 1.140625 -0.546875q0.578125 -0.546875 1.09375 -1.3125q0.515625 -0.765625 0.921875 -1.59375q0.40625 -0.84375 0.640625 -1.390625l0.671875 -3.65625q-0.3125 -0.203125 -0.578125 -0.28125q-0.265625 -0.078125 -0.765625 -0.09375q-1.015625 0.015625 -1.828125 0.625q-0.8125 0.609375 -1.375 1.5625q-0.546875 0.953125 -0.84375 2.125q-0.28125 1.171875 -0.28125 2.296875q0 1.09375 0.265625 1.6875q0.265625 0.578125 0.9375 0.578125zm3.359375 -3.125q-0.265625 0.78125 -0.703125 1.578125q-0.421875 0.78125 -0.96875 1.421875q-0.546875 0.640625 -1.203125 1.046875q-0.640625 0.390625 -1.390625 0.390625q-2.21875 0 -2.21875 -3.234375q0 -1.515625 0.421875 -2.9375q0.4375 -1.421875 1.25 -2.515625q0.8125 -1.09375 1.953125 -1.75q1.15625 -0.671875 2.625 -0.671875q0.5625 0 0.828125 0.078125q0.28125 0.078125 0.71875 0.265625l0.8125 -4.03125l-1.5 -0.1875l0 -0.53125q0.3125 -0.140625 0.703125 -0.25q0.390625 -0.125 0.796875 -0.21875q0.421875 -0.09375 0.84375 -0.171875q0.421875 -0.09375 0.796875 -0.125l0.4375 0.15625l-2.921875 14.703125l1.5625 0l0 0.53125q-0.421875 0.34375 -1.03125 0.5625q-0.59375 0.203125 -1.171875 0.203125q-0.609375 0 -0.875 -0.265625q-0.265625 -0.265625 -0.265625 -0.5625q0 -0.390625 0.140625 -1.265625q0.15625 -0.875 0.453125 -2.21875l-0.09375 0zm4.8480835 0.21875q0 -1.125 0.34375 -2.34375q0.359375 -1.234375 1.078125 -2.25q0.734375 -1.03125 1.8125 -1.6875q1.09375 -0.671875 2.546875 -0.671875q1.65625 0 2.5 1.03125q0.84375 1.015625 0.84375 3.015625q0 1.421875 -0.40625 2.71875q-0.40625 1.28125 -1.140625 2.265625q-0.71875 0.96875 -1.75 1.5625q-1.015625 0.578125 -2.25 0.578125q-1.640625 0 -2.609375 -1.046875q-0.96875 -1.0625 -0.96875 -3.171875zm5.359375 -6.03125q-1.046875 0.015625 -1.71875 0.6875q-0.65625 0.65625 -1.046875 1.640625q-0.375 0.96875 -0.53125 2.109375q-0.140625 1.125 -0.140625 2.0625q0 1.265625 0.546875 2.0625q0.5625 0.78125 1.5 0.78125q0.75 0 1.328125 -0.5625q0.59375 -0.578125 1.0 -1.5q0.421875 -0.921875 0.640625 -2.09375q0.234375 -1.1875 0.234375 -2.375q0 -1.265625 -0.4375 -2.03125q-0.4375 -0.765625 -1.375 -0.78125zm10.590454 -0.921875q1.03125 0 1.671875 0.265625q0.65625 0.25 1.015625 0.546875q0.1875 -0.171875 0.5 -0.34375q0.328125 -0.171875 0.6875 -0.3125q0.375 -0.15625 0.75 -0.28125q0.390625 -0.125 0.734375 -0.234375q0.0625 0.109375 0.09375 0.328125q0.046875 0.203125 0.03125 0.46875q0 0.25 -0.078125 0.515625q-0.078125 0.265625 -0.21875 0.484375l-2.203125 -0.15625q0.0625 0.1875 0.125 0.4375q0.078125 0.25 0.078125 0.546875q0 0.84375 -0.359375 1.578125q-0.34375 0.71875 -0.96875 1.25q-0.625 0.515625 -1.453125 0.8125q-0.8125 0.296875 -1.71875 0.296875q-0.375 0 -0.59375 0q-0.21875 -0.015625 -0.5 -0.078125q-0.1875 0.21875 -0.53125 0.5q-0.328125 0.28125 -0.328125 0.625q0 0.359375 0.46875 0.5625q0.46875 0.1875 1.1875 0.34375q0.71875 0.15625 1.546875 0.34375q0.828125 0.1875 1.546875 0.5q0.71875 0.296875 1.1875 0.796875q0.46875 0.484375 0.46875 1.296875q0 1.0 -0.5625 1.796875q-0.5625 0.796875 -1.5 1.359375q-0.921875 0.578125 -2.109375 0.875q-1.1875 0.3125 -2.40625 0.3125q-0.96875 0 -1.671875 -0.203125q-0.703125 -0.203125 -1.15625 -0.5625q-0.453125 -0.34375 -0.65625 -0.796875q-0.21875 -0.4375 -0.21875 -0.921875q0 -0.609375 0.265625 -1.125q0.265625 -0.5 0.71875 -0.953125q0.4375 -0.46875 1.015625 -0.84375q0.578125 -0.390625 1.203125 -0.734375q-0.328125 -0.171875 -0.53125 -0.453125q-0.203125 -0.296875 -0.203125 -0.65625q0 -0.3125 0.21875 -0.65625q0.21875 -0.359375 0.5 -0.671875q0.28125 -0.328125 0.5625 -0.5625q0.296875 -0.234375 0.453125 -0.34375q-0.265625 -0.0625 -0.53125 -0.234375q-0.265625 -0.171875 -0.5 -0.4375q-0.234375 -0.28125 -0.390625 -0.640625q-0.140625 -0.375 -0.140625 -0.828125q0 -0.828125 0.34375 -1.53125q0.359375 -0.703125 0.96875 -1.203125q0.625 -0.5 1.4375 -0.78125q0.8125 -0.296875 1.75 -0.296875zm-2.453125 14.53125q0.671875 0 1.3125 -0.203125q0.65625 -0.1875 1.171875 -0.546875q0.53125 -0.34375 0.859375 -0.875q0.328125 -0.515625 0.328125 -1.171875q0 -0.640625 -0.53125 -0.984375q-0.515625 -0.359375 -1.265625 -0.5625q-0.734375 -0.21875 -1.546875 -0.359375q-0.796875 -0.140625 -1.375 -0.328125q-1.0 0.71875 -1.375 1.5q-0.375 0.796875 -0.34375 1.484375q-0.03125 0.953125 0.71875 1.5q0.765625 0.546875 2.046875 0.546875zm2.28125 -13.671875q-0.609375 0 -1.09375 0.234375q-0.484375 0.234375 -0.828125 0.625q-0.328125 0.390625 -0.5 0.9375q-0.171875 0.53125 -0.171875 1.125q0 0.8125 0.515625 1.203125q0.53125 0.375 1.125 0.375q0.640625 0 1.09375 -0.21875q0.46875 -0.234375 0.765625 -0.609375q0.3125 -0.390625 0.453125 -0.875q0.15625 -0.5 0.15625 -1.03125q0 -0.78125 -0.375 -1.265625q-0.375 -0.5 -1.140625 -0.5zm10.070129 7.546875q-0.015625 -0.515625 -0.28125 -0.890625q-0.265625 -0.375 -0.6875 -0.703125q-0.421875 -0.34375 -0.890625 -0.6875q-0.46875 -0.34375 -0.890625 -0.75q-0.40625 -0.421875 -0.671875 -0.96875q-0.265625 -0.546875 -0.265625 -1.3125q0 -0.765625 0.296875 -1.34375q0.296875 -0.578125 0.8125 -0.953125q0.53125 -0.390625 1.265625 -0.59375q0.734375 -0.203125 1.609375 -0.203125q0.5625 0 1.25 0.09375q0.6875 0.09375 1.3125 0.46875q0 0.234375 -0.09375 0.546875q-0.078125 0.296875 -0.21875 0.59375q-0.140625 0.28125 -0.3125 0.53125q-0.171875 0.234375 -0.359375 0.328125l-1.578125 -1.640625q-0.4375 0.015625 -0.828125 0.109375q-0.390625 0.078125 -0.671875 0.28125q-0.28125 0.1875 -0.453125 0.5q-0.15625 0.296875 -0.15625 0.765625q0 0.5625 0.28125 0.953125q0.28125 0.390625 0.6875 0.75q0.421875 0.34375 0.890625 0.6875q0.484375 0.328125 0.890625 0.75q0.421875 0.40625 0.703125 0.953125q0.28125 0.53125 0.28125 1.28125q0 0.765625 -0.359375 1.375q-0.34375 0.59375 -0.953125 1.015625q-0.609375 0.40625 -1.40625 0.609375q-0.796875 0.21875 -1.703125 0.21875q-0.890625 0 -1.625 -0.1875q-0.734375 -0.171875 -1.15625 -0.453125q0.09375 -0.546875 0.234375 -1.0625q0.15625 -0.53125 0.640625 -0.984375l1.90625 1.78125q0.453125 0 0.890625 -0.109375q0.4375 -0.109375 0.78125 -0.34375q0.359375 -0.234375 0.578125 -0.578125q0.234375 -0.34375 0.25 -0.828125z" fill-rule="nonzero"/><path fill="#000000" fill-opacity="0.0" d="m607.5898 84.662605c0 15.539162 -6.472412 23.310608 -12.944885 31.078323c-6.472412 7.7677155 -12.944885 15.5317 -12.944885 31.063408" fill-rule="evenodd"/><path stroke="#000000" stroke-width="2.0" stroke-linejoin="round" stroke-linecap="butt" d="m607.01733 92.220955l-0.06750488 0.41435242c-0.13745117 0.8061981 -0.2954712 1.5877457 -0.47247314 2.3465347c-0.7079468 3.0351334 -1.7192383 5.7061005 -2.9328003 8.134216c-2.427185 4.8562164 -5.663391 8.741013 -8.899597 12.62487c-3.236267 3.8838577 -6.472473 7.7667847 -8.899658 12.620216c-0.6067505 1.2133484 -1.1629639 2.4873657 -1.6560059 3.837204c-0.246521 0.67492676 -0.4772339 1.3688049 -0.69055176 2.0835419c-0.05328369 0.17868042 -0.105529785 0.3586731 -0.15667725 0.5399933l-0.021728516 0.07914734" fill-rule="evenodd"/><path fill="#000000" stroke="#000000" stroke-width="2.0" stroke-linecap="butt" d="m607.5143 85.659744c1.8118286 0.13723755 3.1693726 1.7172623 3.0321045 3.529091c-0.13720703 1.811821 -1.7172241 3.1693497 -3.5290527 3.0321121c-1.8118286 -0.13722992 -3.1693726 -1.7172546 -3.0321045 -3.5290833c0.13720703 -1.8118286 1.7172241 -3.1693497 3.5290527 -3.0321198z" fill-rule="nonzero"/><path fill="#000000" stroke="#000000" stroke-width="2.0" stroke-linecap="butt" d="m579.94354 134.48251l2.1269531 9.421585l4.426697 -8.584534z" fill-rule="evenodd"/><path fill="#000000" fill-opacity="0.0" d="m435.45645 142.91536c0 -23.163963 -9.527557 -34.745255 -19.055115 -46.327927c-9.527557 -11.58268 -19.055115 -23.166748 -19.055115 -46.333492" fill-rule="evenodd"/><path stroke="#000000" stroke-width="2.0" stroke-linejoin="round" stroke-linecap="butt" d="m435.08914 135.34427l-0.060668945 -0.5950928c-0.2791443 -2.5561676 -0.6885376 -4.953964 -1.2095642 -7.2160416c-1.0420837 -4.5241547 -2.5307617 -8.505394 -4.3171997 -12.124718c-3.572815 -7.238655 -8.336609 -13.02964 -13.100372 -18.820984c-4.763794 -5.791336 -9.527557 -11.583023 -13.100403 -18.822723c-1.7864075 -3.6198425 -3.2750854 -7.601692 -4.317169 -12.126503c-0.13024902 -0.56560516 -0.25354004 -1.1396866 -0.36953735 -1.7226105c-0.058044434 -0.29145813 -0.114227295 -0.5851288 -0.1685791 -0.8810539l-0.14401245 -0.81869507" fill-rule="evenodd"/><path fill="#000000" stroke="#000000" stroke-width="2.0" stroke-linecap="butt" d="m435.408 141.91653c-1.8148804 0.08804321 -3.3575134 -1.3118286 -3.4455566 -3.1267242c-0.08804321 -1.8148804 1.3118286 -3.3574982 3.126709 -3.4455566c1.8148804 -0.08804321 3.3575134 1.3118286 3.4455566 3.1267242c0.08804321 1.8148804 -1.3118286 3.3574982 -3.126709 3.4455566z" fill-rule="nonzero"/><path fill="#000000" stroke="#000000" stroke-width="2.0" stroke-linecap="butt" d="m401.5946 61.952835l-4.0155945 -8.78437l-2.5703735 9.310394z" fill-rule="evenodd"/><path fill="#000000" fill-opacity="0.0" d="m265.8898 72.22927c0 22.024498 -10.527557 33.037193 -21.055115 44.049004c-10.527573 11.01181 -21.05513 22.022736 -21.05513 44.045486" fill-rule="evenodd"/><path stroke="#000000" stroke-width="2.0" stroke-linejoin="round" stroke-linecap="butt" d="m265.44034 79.79593l-0.0234375 0.19786072c-0.30844116 2.4304428 -0.7608032 4.7103424 -1.3365173 6.861183c-1.1514587 4.301697 -2.7963867 8.087204 -4.770294 11.528557c-3.9478455 6.8827133 -9.211624 12.38884 -14.475403 17.894745c-5.2637787 5.505905 -10.527557 11.011589 -14.475388 17.893646c-1.9739227 3.4410248 -3.6188507 7.2261353 -4.7703094 11.52742c-0.1439209 0.5376587 -0.2801361 1.0833893 -0.40834045 1.6375122c-0.06410217 0.2770691 -0.12619019 0.55622864 -0.18623352 0.8375397l-0.042282104 0.20678711" fill-rule="evenodd"/><path fill="#000000" stroke="#000000" stroke-width="2.0" stroke-linecap="butt" d="m265.8305 73.22751c1.8138123 0.10774231 3.196869 1.6654739 3.0891418 3.4792938c-0.10775757 1.8138199 -1.6654968 3.196869 -3.479309 3.0891266c-1.8138123 -0.10774231 -3.196869 -1.6654739 -3.0891113 -3.4792938c0.10772705 -1.8138199 1.6654663 -3.196869 3.4792786 -3.0891266z" fill-rule="nonzero"/><path fill="#000000" stroke="#000000" stroke-width="2.0" stroke-linecap="butt" d="m221.66447 148.0584l2.4007874 9.355545l4.17453 -8.709961z" fill-rule="evenodd"/><path fill="#000000" fill-opacity="0.0" d="m87.73661 31.277744c24.418297 0 36.627937 7.338581 48.8366 14.677166c12.208664 7.338581 24.416351 14.677166 48.832687 14.677166" fill-rule="evenodd"/><path stroke="#000000" stroke-width="2.0" stroke-linejoin="round" stroke-linecap="butt" d="m95.312386 31.530596l0.014297485 9.174347E-4c0.3420868 0.023712158 0.6815262 0.04901886 1.0183487 0.0758934c2.6946182 0.21499825 5.2223053 0.53032684 7.606926 0.9316559c4.7692337 0.8026581 8.966179 1.9493103 12.781563 3.3252945c7.630783 2.7519684 13.735367 6.421261 19.839691 10.090553c6.1043396 3.6692886 12.20842 7.338581 19.838455 10.090549c3.815033 1.3759842 8.011536 2.5226364 12.780319 3.3252945c1.1921997 0.20066452 2.4201508 0.3798294 3.6868744 0.53570175l0.5452881 0.064086914" fill-rule="evenodd"/><path fill="#000000" stroke="#000000" stroke-width="2.0" stroke-linecap="butt" d="m88.73605 31.311102c0.06061554 -1.8160057 1.5819092 -3.2390327 3.3979187 -3.178421c1.8160019 0.060611725 3.239029 1.5819111 3.178421 3.3979168c-0.06061554 1.8160057 -1.5819092 3.2390327 -3.3979187 3.178421c-1.8160019 -0.060611725 -3.2390366 -1.581913 -3.178421 -3.3979168z" fill-rule="nonzero"/><path fill="#000000" stroke="#000000" stroke-width="2.0" stroke-linecap="butt" d="m173.24203 63.268982l9.244507 -2.798092l-8.88028 -3.79879z" fill-rule="evenodd"/><path fill="#000000" fill-opacity="0.0" d="m12.274143 22.451733c0 -6.502884 5.2716293 -11.774513 11.774513 -11.774513l83.56908 0c3.122795 0 6.117691 1.2405252 8.325844 3.4486752c2.2081451 2.208149 3.4486694 5.203043 3.4486694 8.325838l0 47.096645c0 6.502884 -5.2716293 11.774513 -11.774513 11.774513l-83.56908 0c-6.502884 0 -11.774513 -5.2716293 -11.774513 -11.774513z" fill-rule="evenodd"/><path stroke="#000000" stroke-width="2.0" stroke-linejoin="round" stroke-linecap="butt" d="m12.274143 22.451733c0 -6.502884 5.2716293 -11.774513 11.774513 -11.774513l83.56908 0c3.122795 0 6.117691 1.2405252 8.325844 3.4486752c2.2081451 2.208149 3.4486694 5.203043 3.4486694 8.325838l0 47.096645c0 6.502884 -5.2716293 11.774513 -11.774513 11.774513l-83.56908 0c-6.502884 0 -11.774513 -5.2716293 -11.774513 -11.774513z" fill-rule="evenodd"/><path fill="#000000" d="m32.457157 37.605858l0 -6.062502q0 -1.296875 -0.375 -1.875q-0.3593769 -0.578125 -1.2656269 -0.578125q-0.78125 0 -1.328125 0.46875q-0.546875 0.453125 -0.78125 1.140625l0 6.906252l-2.765625 0l0 -10.671877l2.1875 0l0.328125 1.421875l0.078125 0q0.5 -0.6875 1.296875 -1.203125q0.8125 -0.515625 2.09375 -0.515625q0.7968769 0 1.4062519 0.21875q0.625 0.21875 1.046875 0.703125q0.4375 0.484375 0.640625 1.328125q0.21875 0.84375 0.21875 2.078125l0 6.640627l-2.78125 0zm13.639496 -0.921875q-0.640625 0.515625 -1.75 0.875q-1.09375 0.34375 -2.328125 0.34375q-2.578125 0 -3.78125 -1.5q-1.1875 -1.5 -1.1875 -4.125q0 -2.812502 1.34375 -4.218752q1.34375 -1.421875 3.78125 -1.421875q0.8125 0 1.578125 0.21875q0.765625 0.21875 1.359375 0.703125q0.59375 0.484375 0.953125 1.328125q0.375 0.828125 0.375 2.0625q0 0.453125 -0.0625 0.96875q-0.046875 0.5000019 -0.15625 1.0625019l-6.40625 0q0.078125 1.34375 0.703125 2.03125q0.625 0.671875 2.03125 0.671875q0.875 0 1.5625 -0.265625q0.703125 -0.265625 1.0625 -0.546875l0.921875 1.8125zm-3.96875 -7.828127q-1.09375 0 -1.625 0.65625q-0.515625 0.65625 -0.609375 1.734375l3.953125 0q0.09375 -1.140625 -0.34375 -1.765625q-0.4375 -0.625 -1.375 -0.625zm8.230484 3.296877l-3.203125 -5.218752l3.3125 0l1.390625 2.296875l0.59375 1.484375l0.640625 -1.484375l1.453125 -2.296875l3.0 0l-3.21875 5.125002l3.4375 5.546875l-3.21875 0l-1.65625 -2.5625l-0.625 -1.578125l-0.6875 1.578125l-1.640625 2.5625l-3.03125 0l3.453125 -5.453125zm7.6816864 -5.218752l1.46875 0l0 -2.0l2.765625 -0.78125l0 2.78125l2.6093712 0l0 2.359375l-2.6093712 0l0 4.093752q0 1.109375 0.21875 1.59375q0.234375 0.46875 0.859375 0.46875q0.421875 0 0.7343712 -0.078125q0.3125 -0.09375 0.6875 -0.265625l0.5 2.140625q-0.578125 0.28125 -1.3593712 0.46875q-0.765625 0.1875 -1.546875 0.1875q-1.46875 0 -2.171875 -0.75q-0.6875 -0.765625 -0.6875 -2.484375l0 -5.375002l-1.46875 0l0 -2.359375z" fill-rule="nonzero"/><path fill="#000000" d="m29.62903 61.527733l0.359375 1.640625l0.109375 0l0.296875 -1.6875l1.8125019 -5.546875l2.984375 0l-4.453127 10.78125l-1.6875 0l-4.625 -10.78125l3.21875 0l1.984375 5.59375zm6.4235554 -4.96875q0.84375 -0.375 2.015625 -0.59375q1.171875 -0.234375 2.453125 -0.234375q1.109375 0 1.859375 0.265625q0.75 0.265625 1.1875 0.765625q0.4375 0.484375 0.609375 1.171875q0.1875 0.671875 0.1875 1.53125q0 0.9375 -0.0625 1.890625q-0.0625 0.9375 -0.078125 1.859375q0 0.921875 0.0625 1.78125q0.0625 0.859375 0.3125 1.625l-2.265625 0l-0.4375 -1.46875l-0.109375 0q-0.421875 0.65625 -1.1875 1.140625q-0.75 0.484375 -1.953125 0.484375q-0.75 0 -1.34375 -0.21875q-0.59375 -0.234375 -1.03125 -0.640625q-0.421875 -0.421875 -0.65625 -0.984375q-0.234375 -0.5625 -0.234375 -1.265625q0 -0.984375 0.4375 -1.65625q0.4375 -0.671875 1.25 -1.078125q0.828125 -0.421875 1.96875 -0.578125q1.15625 -0.171875 2.5625 -0.109375q0.140625 -1.1875 -0.1875 -1.703125q-0.3125 -0.53125 -1.421875 -0.53125q-0.828125 0 -1.765625 0.171875q-0.921875 0.171875 -1.515625 0.4375l-0.65625 -2.0625zm3.515625 7.9375q0.828125 0 1.3125 -0.375q0.5 -0.375 0.734375 -0.796875l0 -1.390625q-0.65625 -0.0625 -1.265625 -0.015625q-0.609375 0.03125 -1.078125 0.1875q-0.46875 0.15625 -0.75 0.4375q-0.28125 0.265625 -0.28125 0.6875q0 0.609375 0.34375 0.9375q0.359375 0.328125 0.984375 0.328125zm9.985046 -1.46875q0 0.734375 0.1875 1.078125q0.1875 0.34375 0.625 0.34375q0.25 0 0.484375 -0.03125q0.25 -0.046875 0.625 -0.203125l0.296875 2.171875q-0.34375 0.171875 -1.046875 0.34375q-0.703125 0.171875 -1.453125 0.171875q-1.21875 0 -1.859375 -0.5625q-0.640625 -0.5625 -0.640625 -1.875l0 -12.796875l2.78125 0l0 11.359375zm6.0673676 -7.09375l0 6.0625q0 1.296875 0.3125 1.875q0.3125 0.578125 1.203125 0.578125q0.796875 0 1.3125 -0.46875q0.53125 -0.46875 0.78125 -1.15625l0 -6.890625l2.78125 0l0 7.4375q0 0.859375 0.078125 1.703125q0.078125 0.84375 0.25 1.53125l-2.078125 0l-0.5 -1.578125l-0.078125 0q-0.5 0.8125 -1.375 1.34375q-0.875 0.53125 -2.0625 0.53125q-0.8125 0 -1.453125 -0.21875q-0.640625 -0.203125 -1.0625 -0.6875q-0.421875 -0.5 -0.65625 -1.328125q-0.21875 -0.828125 -0.21875 -2.09375l0 -6.640625l2.765625 0zm17.349575 9.75q-0.640625 0.515625 -1.75 0.875q-1.09375 0.34375 -2.328125 0.34375q-2.578125 0 -3.78125 -1.5q-1.1874962 -1.5 -1.1874962 -4.125q0 -2.8125 1.3437462 -4.21875q1.34375 -1.421875 3.78125 -1.421875q0.8125 0 1.578125 0.21875q0.765625 0.21875 1.359375 0.703125q0.59375 0.484375 0.953125 1.328125q0.375 0.828125 0.375 2.0625q0 0.453125 -0.0625 0.96875q-0.046875 0.5 -0.15625 1.0625l-6.40625 0q0.078125 1.34375 0.703125 2.03125q0.625 0.671875 2.03125 0.671875q0.875 0 1.5625 -0.265625q0.703125 -0.265625 1.0625 -0.546875l0.921875 1.8125zm-3.96875 -7.828125q-1.09375 0 -1.625 0.65625q-0.515625 0.65625 -0.609375 1.734375l3.953125 0q0.09375 -1.140625 -0.34375 -1.765625q-0.4375 -0.625 -1.375 -0.625z" fill-rule="nonzero"/><path fill="#000000" fill-opacity="0.0" d="m73.68937 17.214752l14.047241 0l0 28.125984l-14.047241 0z" fill-rule="evenodd"/><path fill="#000000" fill-opacity="0.0" d="m74.22602 43.782024l35.527557 0l0 14.047245l-35.527557 0z" fill-rule="evenodd"/><path fill="#000000" fill-opacity="0.0" d="m185.41063 37.086903c0 -6.502884 5.2716217 -11.774513 11.774506 -11.774513l83.56908 0c3.1228027 0 6.1177063 1.2405262 8.325836 3.4486752c2.2081604 2.2081509 3.4487 5.203043 3.4487 8.325838l0 47.096645c0 6.502884 -5.271637 11.774513 -11.774536 11.774513l-83.56908 0c-6.502884 0 -11.774506 -5.2716293 -11.774506 -11.774513z" fill-rule="evenodd"/><path stroke="#000000" stroke-width="2.0" stroke-linejoin="round" stroke-linecap="butt" d="m185.41063 37.086903c0 -6.502884 5.2716217 -11.774513 11.774506 -11.774513l83.56908 0c3.1228027 0 6.1177063 1.2405262 8.325836 3.4486752c2.2081604 2.2081509 3.4487 5.203043 3.4487 8.325838l0 47.096645c0 6.502884 -5.271637 11.774513 -11.774536 11.774513l-83.56908 0c-6.502884 0 -11.774506 -5.2716293 -11.774506 -11.774513z" fill-rule="evenodd"/><path fill="#000000" d="m205.59364 52.241028l0 -6.0625q0 -1.296875 -0.375 -1.875q-0.359375 -0.578125 -1.265625 -0.578125q-0.78125 0 -1.328125 0.46875q-0.546875 0.453125 -0.78125 1.140625l0 6.90625l-2.765625 0l0 -10.671875l2.1875 0l0.328125 1.421875l0.078125 0q0.5 -0.6875 1.296875 -1.203125q0.8125 -0.515625 2.09375 -0.515625q0.796875 0 1.40625 0.21875q0.625 0.21875 1.046875 0.703125q0.4375 0.484375 0.640625 1.328125q0.21875 0.84375 0.21875 2.078125l0 6.640625l-2.78125 0zm13.639496 -0.921875q-0.640625 0.515625 -1.75 0.875q-1.09375 0.34375 -2.328125 0.34375q-2.578125 0 -3.78125 -1.5q-1.1875 -1.5 -1.1875 -4.125q0 -2.8125 1.34375 -4.21875q1.34375 -1.421875 3.78125 -1.421875q0.8125 0 1.578125 0.21875q0.765625 0.21875 1.359375 0.703125q0.59375 0.484375 0.953125 1.328125q0.375 0.828125 0.375 2.0625q0 0.453125 -0.0625 0.96875q-0.046875 0.5 -0.15625 1.0625l-6.40625 0q0.078125 1.34375 0.703125 2.03125q0.625 0.671875 2.03125 0.671875q0.875 0 1.5625 -0.265625q0.703125 -0.265625 1.0625 -0.546875l0.921875 1.8125zm-3.96875 -7.828125q-1.09375 0 -1.625 0.65625q-0.515625 0.65625 -0.609375 1.734375l3.953125 0q0.09375 -1.140625 -0.34375 -1.765625q-0.4375 -0.625 -1.375 -0.625zm8.230484 3.296875l-3.203125 -5.21875l3.3125 0l1.390625 2.296875l0.59375 1.484375l0.640625 -1.484375l1.453125 -2.296875l3.0 0l-3.21875 5.125l3.4375 5.546875l-3.21875 0l-1.65625 -2.5625l-0.625 -1.578125l-0.6875 1.578125l-1.640625 2.5625l-3.03125 0l3.453125 -5.453125zm7.6816864 -5.21875l1.46875 0l0 -2.0l2.765625 -0.78125l0 2.78125l2.609375 0l0 2.359375l-2.609375 0l0 4.09375q0 1.109375 0.21875 1.59375q0.234375 0.46875 0.859375 0.46875q0.421875 0 0.734375 -0.078125q0.3125 -0.09375 0.6875 -0.265625l0.5 2.140625q-0.578125 0.28125 -1.359375 0.46875q-0.765625 0.1875 -1.546875 0.1875q-1.46875 0 -2.171875 -0.75q-0.6875 -0.765625 -0.6875 -2.484375l0 -5.375l-1.46875 0l0 -2.359375z" fill-rule="nonzero"/><path fill="#000000" d="m202.76552 76.1629l0.359375 1.640625l0.109375 0l0.296875 -1.6875l1.8125 -5.546875l2.984375 0l-4.453125 10.78125l-1.6875 0l-4.625 -10.78125l3.21875 0l1.984375 5.59375zm6.4235535 -4.96875q0.84375 -0.375 2.015625 -0.59375q1.171875 -0.234375 2.453125 -0.234375q1.109375 0 1.859375 0.265625q0.75 0.265625 1.1875 0.765625q0.4375 0.484375 0.609375 1.171875q0.1875 0.671875 0.1875 1.53125q0 0.9375 -0.0625 1.890625q-0.0625 0.9375 -0.078125 1.859375q0 0.921875 0.0625 1.78125q0.0625 0.859375 0.3125 1.625l-2.265625 0l-0.4375 -1.46875l-0.109375 0q-0.421875 0.65625 -1.1875 1.140625q-0.75 0.484375 -1.953125 0.484375q-0.75 0 -1.34375 -0.21875q-0.59375 -0.234375 -1.03125 -0.640625q-0.421875 -0.421875 -0.65625 -0.984375q-0.234375 -0.5625 -0.234375 -1.265625q0 -0.984375 0.4375 -1.65625q0.4375 -0.671875 1.25 -1.078125q0.828125 -0.421875 1.96875 -0.578125q1.15625 -0.171875 2.5625 -0.109375q0.140625 -1.1875 -0.1875 -1.703125q-0.3125 -0.53125 -1.421875 -0.53125q-0.828125 0 -1.765625 0.171875q-0.921875 0.171875 -1.515625 0.4375l-0.65625 -2.0625zm3.515625 7.9375q0.828125 0 1.3125 -0.375q0.5 -0.375 0.734375 -0.796875l0 -1.390625q-0.65625 -0.0625 -1.265625 -0.015625q-0.609375 0.03125 -1.078125 0.1875q-0.46875 0.15625 -0.75 0.4375q-0.28125 0.265625 -0.28125 0.6875q0 0.609375 0.34375 0.9375q0.359375 0.328125 0.984375 0.328125zm9.985046 -1.46875q0 0.734375 0.1875 1.078125q0.1875 0.34375 0.625 0.34375q0.25 0 0.484375 -0.03125q0.25 -0.046875 0.625 -0.203125l0.296875 2.171875q-0.34375 0.171875 -1.046875 0.34375q-0.703125 0.171875 -1.453125 0.171875q-1.21875 0 -1.859375 -0.5625q-0.640625 -0.5625 -0.640625 -1.875l0 -12.796875l2.78125 0l0 11.359375zm6.0673676 -7.09375l0 6.0625q0 1.296875 0.3125 1.875q0.3125 0.578125 1.203125 0.578125q0.796875 0 1.3125 -0.46875q0.53125 -0.46875 0.78125 -1.15625l0 -6.890625l2.78125 0l0 7.4375q0 0.859375 0.078125 1.703125q0.078125 0.84375 0.25 1.53125l-2.078125 0l-0.5 -1.578125l-0.078125 0q-0.5 0.8125 -1.375 1.34375q-0.875 0.53125 -2.0625 0.53125q-0.8125 0 -1.453125 -0.21875q-0.640625 -0.203125 -1.0625 -0.6875q-0.421875 -0.5 -0.65625 -1.328125q-0.21875 -0.828125 -0.21875 -2.09375l0 -6.640625l2.765625 0zm17.349579 9.75q-0.640625 0.515625 -1.75 0.875q-1.09375 0.34375 -2.328125 0.34375q-2.578125 0 -3.78125 -1.5q-1.1875 -1.5 -1.1875 -4.125q0 -2.8125 1.34375 -4.21875q1.34375 -1.421875 3.78125 -1.421875q0.8125 0 1.578125 0.21875q0.765625 0.21875 1.359375 0.703125q0.59375 0.484375 0.953125 1.328125q0.375 0.828125 0.375 2.0625q0 0.453125 -0.0625 0.96875q-0.046875 0.5 -0.15625 1.0625l-6.40625 0q0.078125 1.34375 0.703125 2.03125q0.625 0.671875 2.03125 0.671875q0.875 0 1.5625 -0.265625q0.703125 -0.265625 1.0625 -0.546875l0.921875 1.8125zm-3.96875 -7.828125q-1.09375 0 -1.625 0.65625q-0.515625 0.65625 -0.609375 1.734375l3.953125 0q0.09375 -1.140625 -0.34375 -1.765625q-0.4375 -0.625 -1.375 -0.625z" fill-rule="nonzero"/><path fill="#000000" fill-opacity="0.0" d="m246.78937 32.383514l14.047241 0l0 28.125984l-14.047241 0z" fill-rule="evenodd"/><path fill="#000000" fill-opacity="0.0" d="m248.12602 58.182026l35.527542 0l0 14.047245l-35.527542 0z" fill-rule="evenodd"/><path fill="#000000" fill-opacity="0.0" d="m354.5445 97.0659c0 -6.502884 5.2716064 -11.774513 11.774506 -11.774513l83.56909 0c3.1227722 0 6.117676 1.2405319 8.325836 3.448677c2.20813 2.2081528 3.4486694 5.203041 3.4486694 8.325836l0 47.09665c0 6.502884 -5.271637 11.774506 -11.774506 11.774506l-83.56909 0c-6.502899 0 -11.774506 -5.2716217 -11.774506 -11.774506z" fill-rule="evenodd"/><path stroke="#000000" stroke-width="2.0" stroke-linejoin="round" stroke-linecap="butt" d="m354.5445 97.0659c0 -6.502884 5.2716064 -11.774513 11.774506 -11.774513l83.56909 0c3.1227722 0 6.117676 1.2405319 8.325836 3.448677c2.20813 2.2081528 3.4486694 5.203041 3.4486694 8.325836l0 47.09665c0 6.502884 -5.271637 11.774506 -11.774506 11.774506l-83.56909 0c-6.502899 0 -11.774506 -5.2716217 -11.774506 -11.774506z" fill-rule="evenodd"/><path fill="#000000" d="m374.7275 112.22003l0 -6.0625q0 -1.296875 -0.375 -1.875q-0.359375 -0.578125 -1.265625 -0.578125q-0.78125 0 -1.328125 0.46875q-0.546875 0.453125 -0.78125 1.140625l0 6.90625l-2.765625 0l0 -10.671875l2.1875 0l0.328125 1.421875l0.078125 0q0.5 -0.6875 1.296875 -1.203125q0.8125 -0.515625 2.09375 -0.515625q0.796875 0 1.40625 0.21875q0.625 0.21875 1.046875 0.703125q0.4375 0.484375 0.640625 1.328125q0.21875 0.84375 0.21875 2.078125l0 6.640625l-2.78125 0zm13.639496 -0.921875q-0.640625 0.515625 -1.75 0.875q-1.09375 0.34375 -2.328125 0.34375q-2.578125 0 -3.78125 -1.5q-1.1875 -1.5 -1.1875 -4.125q0 -2.8125 1.34375 -4.21875q1.34375 -1.421875 3.78125 -1.421875q0.8125 0 1.578125 0.21875q0.765625 0.21875 1.359375 0.703125q0.59375 0.484375 0.953125 1.328125q0.375 0.828125 0.375 2.0625q0 0.453125 -0.0625 0.96875q-0.046875 0.5 -0.15625 1.0625l-6.40625 0q0.078125 1.34375 0.703125 2.03125q0.625 0.671875 2.03125 0.671875q0.875 0 1.5625 -0.265625q0.703125 -0.265625 1.0625 -0.546875l0.921875 1.8125zm-3.96875 -7.828125q-1.09375 0 -1.625 0.65625q-0.515625 0.65625 -0.609375 1.734375l3.953125 0q0.09375 -1.140625 -0.34375 -1.765625q-0.4375 -0.625 -1.375 -0.625zm8.230469 3.296875l-3.203125 -5.21875l3.3125 0l1.390625 2.296875l0.59375 1.484375l0.640625 -1.484375l1.453125 -2.296875l3.0 0l-3.21875 5.125l3.4375 5.546875l-3.21875 0l-1.65625 -2.5625l-0.625 -1.578125l-0.6875 1.578125l-1.640625 2.5625l-3.03125 0l3.453125 -5.453125zm7.6817017 -5.21875l1.46875 0l0 -2.0l2.765625 -0.78125l0 2.78125l2.609375 0l0 2.359375l-2.609375 0l0 4.09375q0 1.109375 0.21875 1.59375q0.234375 0.46875 0.859375 0.46875q0.421875 0 0.734375 -0.078125q0.3125 -0.09375 0.6875 -0.265625l0.5 2.140625q-0.578125 0.28125 -1.359375 0.46875q-0.765625 0.1875 -1.546875 0.1875q-1.46875 0 -2.171875 -0.75q-0.6875 -0.765625 -0.6875 -2.484375l0 -5.375l-1.46875 0l0 -2.359375z" fill-rule="nonzero"/><path fill="#000000" d="m371.89938 136.1419l0.359375 1.640625l0.109375 0l0.296875 -1.6875l1.8125 -5.546875l2.984375 0l-4.453125 10.78125l-1.6875 0l-4.625 -10.78125l3.21875 0l1.984375 5.59375zm6.4235535 -4.96875q0.84375 -0.375 2.015625 -0.59375q1.171875 -0.234375 2.453125 -0.234375q1.109375 0 1.859375 0.265625q0.75 0.265625 1.1875 0.765625q0.4375 0.484375 0.609375 1.171875q0.1875 0.671875 0.1875 1.53125q0 0.9375 -0.0625 1.890625q-0.0625 0.9375 -0.078125 1.859375q0 0.921875 0.0625 1.78125q0.0625 0.859375 0.3125 1.625l-2.265625 0l-0.4375 -1.46875l-0.109375 0q-0.421875 0.65625 -1.1875 1.140625q-0.75 0.484375 -1.953125 0.484375q-0.75 0 -1.34375 -0.21875q-0.59375 -0.234375 -1.03125 -0.640625q-0.421875 -0.421875 -0.65625 -0.984375q-0.234375 -0.5625 -0.234375 -1.265625q0 -0.984375 0.4375 -1.65625q0.4375 -0.671875 1.25 -1.078125q0.828125 -0.421875 1.96875 -0.578125q1.15625 -0.171875 2.5625 -0.109375q0.140625 -1.1875 -0.1875 -1.703125q-0.3125 -0.53125 -1.421875 -0.53125q-0.828125 0 -1.765625 0.171875q-0.921875 0.171875 -1.515625 0.4375l-0.65625 -2.0625zm3.515625 7.9375q0.828125 0 1.3125 -0.375q0.5 -0.375 0.734375 -0.796875l0 -1.390625q-0.65625 -0.0625 -1.265625 -0.015625q-0.609375 0.03125 -1.078125 0.1875q-0.46875 0.15625 -0.75 0.4375q-0.28125 0.265625 -0.28125 0.6875q0 0.609375 0.34375 0.9375q0.359375 0.328125 0.984375 0.328125zm9.985046 -1.46875q0 0.734375 0.1875 1.078125q0.1875 0.34375 0.625 0.34375q0.25 0 0.484375 -0.03125q0.25 -0.046875 0.625 -0.203125l0.296875 2.171875q-0.34375 0.171875 -1.046875 0.34375q-0.703125 0.171875 -1.453125 0.171875q-1.21875 0 -1.859375 -0.5625q-0.640625 -0.5625 -0.640625 -1.875l0 -12.796875l2.78125 0l0 11.359375zm6.0673523 -7.09375l0 6.0625q0 1.296875 0.3125 1.875q0.3125 0.578125 1.203125 0.578125q0.796875 0 1.3125 -0.46875q0.53125 -0.46875 0.78125 -1.15625l0 -6.890625l2.78125 0l0 7.4375q0 0.859375 0.078125 1.703125q0.078125 0.84375 0.25 1.53125l-2.078125 0l-0.5 -1.578125l-0.078125 0q-0.5 0.8125 -1.375 1.34375q-0.875 0.53125 -2.0625 0.53125q-0.8125 0 -1.453125 -0.21875q-0.640625 -0.203125 -1.0625 -0.6875q-0.421875 -0.5 -0.65625 -1.328125q-0.21875 -0.828125 -0.21875 -2.09375l0 -6.640625l2.765625 0zm17.349579 9.75q-0.640625 0.515625 -1.75 0.875q-1.09375 0.34375 -2.328125 0.34375q-2.578125 0 -3.78125 -1.5q-1.1875 -1.5 -1.1875 -4.125q0 -2.8125 1.34375 -4.21875q1.34375 -1.421875 3.78125 -1.421875q0.8125 0 1.578125 0.21875q0.765625 0.21875 1.359375 0.703125q0.59375 0.484375 0.953125 1.328125q0.375 0.828125 0.375 2.0625q0 0.453125 -0.0625 0.96875q-0.046875 0.5 -0.15625 1.0625l-6.40625 0q0.078125 1.34375 0.703125 2.03125q0.625 0.671875 2.03125 0.671875q0.875 0 1.5625 -0.265625q0.703125 -0.265625 1.0625 -0.546875l0.921875 1.8125zm-3.96875 -7.828125q-1.09375 0 -1.625 0.65625q-0.515625 0.65625 -0.609375 1.734375l3.953125 0q0.09375 -1.140625 -0.34375 -1.765625q-0.4375 -0.625 -1.375 -0.625z" fill-rule="nonzero"/><path fill="#000000" fill-opacity="0.0" d="m416.28937 93.11475l14.047241 0l0 28.125984l-14.047241 0z" fill-rule="evenodd"/><path fill="#000000" fill-opacity="0.0" d="m417.6927 142.91536l35.527557 0l0 14.047241l-35.527557 0z" fill-rule="evenodd"/><path fill="#000000" fill-opacity="0.0" d="m525.7597 49.722073c0 -6.502884 5.2716064 -11.774513 11.774536 -11.774513l88.198975 0c3.1228027 0 6.117676 1.2405281 8.325867 3.448677c2.20813 2.208149 3.4486694 5.203041 3.4486694 8.325836l0 47.096645c0 6.502884 -5.2716675 11.774513 -11.774536 11.774513l-88.198975 0c-6.5029297 0 -11.774536 -5.2716293 -11.774536 -11.774513z" fill-rule="evenodd"/><path stroke="#000000" stroke-width="2.0" stroke-linejoin="round" stroke-linecap="butt" d="m525.7597 49.722073c0 -6.502884 5.2716064 -11.774513 11.774536 -11.774513l88.198975 0c3.1228027 0 6.117676 1.2405281 8.325867 3.448677c2.20813 2.208149 3.4486694 5.203041 3.4486694 8.325836l0 47.096645c0 6.502884 -5.2716675 11.774513 -11.774536 11.774513l-88.198975 0c-6.5029297 0 -11.774536 -5.2716293 -11.774536 -11.774513z" fill-rule="evenodd"/><path fill="#000000" d="m545.94275 64.8762l0 -6.0625q0 -1.296875 -0.375 -1.875q-0.359375 -0.578125 -1.265625 -0.578125q-0.78125 0 -1.328125 0.46875q-0.546875 0.453125 -0.78125 1.140625l0 6.90625l-2.765625 0l0 -10.671875l2.1875 0l0.328125 1.421875l0.078125 0q0.5 -0.6875 1.296875 -1.203125q0.8125 -0.515625 2.09375 -0.515625q0.796875 0 1.40625 0.21875q0.625 0.21875 1.046875 0.703125q0.4375 0.484375 0.640625 1.328125q0.21875 0.84375 0.21875 2.078125l0 6.640625l-2.78125 0zm13.639465 -0.921875q-0.640625 0.515625 -1.75 0.875q-1.09375 0.34375 -2.328125 0.34375q-2.578125 0 -3.78125 -1.5q-1.1875 -1.5 -1.1875 -4.125q0 -2.8125 1.34375 -4.21875q1.34375 -1.421875 3.78125 -1.421875q0.8125 0 1.578125 0.21875q0.765625 0.21875 1.359375 0.703125q0.59375 0.484375 0.953125 1.328125q0.375 0.828125 0.375 2.0625q0 0.453125 -0.0625 0.96875q-0.046875 0.5 -0.15625 1.0625l-6.40625 0q0.078125 1.34375 0.703125 2.03125q0.625 0.671875 2.03125 0.671875q0.875 0 1.5625 -0.265625q0.703125 -0.265625 1.0625 -0.546875l0.921875 1.8125zm-3.96875 -7.828125q-1.09375 0 -1.625 0.65625q-0.515625 0.65625 -0.609375 1.734375l3.953125 0q0.09375 -1.140625 -0.34375 -1.765625q-0.4375 -0.625 -1.375 -0.625zm8.230469 3.296875l-3.203125 -5.21875l3.3125 0l1.390625 2.296875l0.59375 1.484375l0.640625 -1.484375l1.453125 -2.296875l3.0 0l-3.21875 5.125l3.4375 5.546875l-3.21875 0l-1.65625 -2.5625l-0.625 -1.578125l-0.6875 1.578125l-1.640625 2.5625l-3.03125 0l3.453125 -5.453125zm7.6817017 -5.21875l1.46875 0l0 -2.0l2.765625 -0.78125l0 2.78125l2.609375 0l0 2.359375l-2.609375 0l0 4.09375q0 1.109375 0.21875 1.59375q0.234375 0.46875 0.859375 0.46875q0.421875 0 0.734375 -0.078125q0.3125 -0.09375 0.6875 -0.265625l0.5 2.140625q-0.578125 0.28125 -1.359375 0.46875q-0.765625 0.1875 -1.546875 0.1875q-1.46875 0 -2.171875 -0.75q-0.6875 -0.765625 -0.6875 -2.484375l0 -5.375l-1.46875 0l0 -2.359375z" fill-rule="nonzero"/><path fill="#000000" d="m598.1363 64.8762l0 -6.078125q0 -1.65625 -0.484375 -2.5q-0.46875 -0.84375 -1.75 -0.84375q-1.125 0 -1.875 0.609375q-0.734375 0.59375 -1.03125 1.515625l0 7.296875l-1.703125 0l0 -10.671875l1.203125 0l0.3125 1.3125l0.078125 0q0.515625 -0.6875 1.375 -1.125q0.875 -0.4375 2.0625 -0.4375q0.875 0 1.53125 0.203125q0.671875 0.203125 1.109375 0.71875q0.4375 0.515625 0.65625 1.375q0.21875 0.859375 0.21875 2.1875l0 6.4375l-1.703125 0zm6.354004 -10.671875l0 6.09375q0 0.828125 0.09375 1.453125q0.109375 0.625 0.34375 1.046875q0.234375 0.421875 0.640625 0.640625q0.40625 0.203125 1.015625 0.203125q0.578125 0 1.015625 -0.171875q0.453125 -0.1875 0.796875 -0.5q0.359375 -0.328125 0.625 -0.75q0.28125 -0.421875 0.4375 -0.890625l0 -7.125l1.71875 0l0 7.640625q0 0.765625 0.046875 1.59375q0.046875 0.8125 0.1875 1.4375l-1.171875 0l-0.4375 -1.6875l-0.109375 0q-0.484375 0.828125 -1.3125 1.390625q-0.828125 0.546875 -2.109375 0.546875q-0.859375 0 -1.515625 -0.203125q-0.640625 -0.203125 -1.078125 -0.703125q-0.4375 -0.515625 -0.671875 -1.375q-0.21875 -0.875 -0.21875 -2.1875l0 -6.453125l1.703125 0zm11.870911 8.046875q0 0.75 0.25 1.078125q0.25 0.3125 0.71875 0.3125q0.28125 0 0.59375 -0.046875q0.328125 -0.046875 0.734375 -0.1875l0.1875 1.34375q-0.34375 0.171875 -0.953125 0.265625q-0.59375 0.109375 -1.046875 0.109375q-0.953125 0 -1.578125 -0.53125q-0.625 -0.546875 -0.625 -1.859375l0 -12.796875l1.71875 0l0 12.3125zm6.227844 0q0 0.75 0.25 1.078125q0.25 0.3125 0.71875 0.3125q0.28125 0 0.59375 -0.046875q0.328125 -0.046875 0.734375 -0.1875l0.1875 1.34375q-0.34375 0.171875 -0.953125 0.265625q-0.59375 0.109375 -1.046875 0.109375q-0.953125 0 -1.578125 -0.53125q-0.625 -0.546875 -0.625 -1.859375l0 -12.796875l1.71875 0l0 12.3125z" fill-rule="nonzero"/><path fill="#000000" d="m543.1146 88.79807l0.359375 1.640625l0.109375 0l0.296875 -1.6875l1.8125 -5.546875l2.984375 0l-4.453125 10.78125l-1.6875 0l-4.625 -10.78125l3.21875 0l1.984375 5.59375zm6.423523 -4.96875q0.84375 -0.375 2.015625 -0.59375q1.171875 -0.234375 2.453125 -0.234375q1.109375 0 1.859375 0.265625q0.75 0.265625 1.1875 0.765625q0.4375 0.484375 0.609375 1.171875q0.1875 0.671875 0.1875 1.53125q0 0.9375 -0.0625 1.890625q-0.0625 0.9375 -0.078125 1.859375q0 0.921875 0.0625 1.78125q0.0625 0.859375 0.3125 1.625l-2.265625 0l-0.4375 -1.46875l-0.109375 0q-0.421875 0.65625 -1.1875 1.140625q-0.75 0.484375 -1.953125 0.484375q-0.75 0 -1.34375 -0.21875q-0.59375 -0.234375 -1.03125 -0.640625q-0.421875 -0.421875 -0.65625 -0.984375q-0.234375 -0.5625 -0.234375 -1.265625q0 -0.984375 0.4375 -1.65625q0.4375 -0.671875 1.25 -1.078125q0.828125 -0.421875 1.96875 -0.578125q1.15625 -0.171875 2.5625 -0.109375q0.140625 -1.1875 -0.1875 -1.703125q-0.3125 -0.53125 -1.421875 -0.53125q-0.828125 0 -1.765625 0.171875q-0.921875 0.171875 -1.515625 0.4375l-0.65625 -2.0625zm3.515625 7.9375q0.828125 0 1.3125 -0.375q0.5 -0.375 0.734375 -0.796875l0 -1.390625q-0.65625 -0.0625 -1.265625 -0.015625q-0.609375 0.03125 -1.078125 0.1875q-0.46875 0.15625 -0.75 0.4375q-0.28125 0.265625 -0.28125 0.6875q0 0.609375 0.34375 0.9375q0.359375 0.328125 0.984375 0.328125zm9.985046 -1.46875q0 0.734375 0.1875 1.078125q0.1875 0.34375 0.625 0.34375q0.25 0 0.484375 -0.03125q0.25 -0.046875 0.625 -0.203125l0.296875 2.171875q-0.34375 0.171875 -1.046875 0.34375q-0.703125 0.171875 -1.453125 0.171875q-1.21875 0 -1.859375 -0.5625q-0.640625 -0.5625 -0.640625 -1.875l0 -12.796875l2.78125 0l0 11.359375zm6.067383 -7.09375l0 6.0625q0 1.296875 0.3125 1.875q0.3125 0.578125 1.203125 0.578125q0.796875 0 1.3125 -0.46875q0.53125 -0.46875 0.78125 -1.15625l0 -6.890625l2.78125 0l0 7.4375q0 0.859375 0.078125 1.703125q0.078125 0.84375 0.25 1.53125l-2.078125 0l-0.5 -1.578125l-0.078125 0q-0.5 0.8125 -1.375 1.34375q-0.875 0.53125 -2.0625 0.53125q-0.8125 0 -1.453125 -0.21875q-0.640625 -0.203125 -1.0625 -0.6875q-0.421875 -0.5 -0.65625 -1.328125q-0.21875 -0.828125 -0.21875 -2.09375l0 -6.640625l2.765625 0zm17.349548 9.75q-0.640625 0.515625 -1.75 0.875q-1.09375 0.34375 -2.328125 0.34375q-2.578125 0 -3.78125 -1.5q-1.1875 -1.5 -1.1875 -4.125q0 -2.8125 1.34375 -4.21875q1.34375 -1.421875 3.78125 -1.421875q0.8125 0 1.578125 0.21875q0.765625 0.21875 1.359375 0.703125q0.59375 0.484375 0.953125 1.328125q0.375 0.828125 0.375 2.0625q0 0.453125 -0.0625 0.96875q-0.046875 0.5 -0.15625 1.0625l-6.40625 0q0.078125 1.34375 0.703125 2.03125q0.625 0.671875 2.03125 0.671875q0.875 0 1.5625 -0.265625q0.703125 -0.265625 1.0625 -0.546875l0.921875 1.8125zm-3.96875 -7.828125q-1.09375 0 -1.625 0.65625q-0.515625 0.65625 -0.609375 1.734375l3.953125 0q0.09375 -1.140625 -0.34375 -1.765625q-0.4375 -0.625 -1.375 -0.625z" fill-rule="nonzero"/><path fill="#000000" fill-opacity="0.0" d="m589.826 70.61536l35.527588 0l0 14.047249l-35.527588 0z" fill-rule="evenodd"/><path fill="#000000" fill-opacity="0.0" d="m915.9521 32.59021c29.086609 0 58.173218 14.456692 58.173218 28.913383" fill-rule="evenodd"/><path stroke="#000000" stroke-width="2.0" stroke-linejoin="round" stroke-linecap="butt" d="m923.5253 32.909317l0.58343506 0.05016327c0.90093994 0.08073425 1.7993164 0.17426682 2.6939697 0.28014755c3.5791016 0.4235382 7.1013184 1.0447235 10.509827 1.8353233c6.8171997 1.5811996 13.179871 3.8400612 18.633606 6.5506897c2.7268677 1.3553162 5.2265625 2.823574 7.4421387 4.3765373c1.107727 0.7764816 2.1445312 1.5741425 3.1032715 2.38945c0.47930908 0.40765 0.9390259 0.8197212 1.378418 1.2357559c0.21972656 0.20801544 0.43432617 0.41702652 0.64367676 0.6269722c0.10467529 0.104976654 0.20812988 0.210186 0.31011963 0.3156166l0.10961914 0.114933014" fill-rule="evenodd"/><path fill="#000000" stroke="#000000" stroke-width="2.0" stroke-linecap="butt" d="m916.95123 32.632305c0.07647705 -1.8154049 1.6101685 -3.225071 3.4255981 -3.1485767c1.8153687 0.07649231 3.2250366 1.6101818 3.1485596 3.4255886c-0.07647705 1.815403 -1.6101685 3.225071 -3.4255981 3.1485786c-1.8154297 -0.076496124 -3.2250977 -1.6101837 -3.1485596 -3.4255905z" fill-rule="nonzero"/><path fill="#000000" stroke="#000000" stroke-width="2.0" stroke-linecap="butt" d="m965.95514 52.11418l6.9051514 6.753433l-0.9486084 -9.611984z" fill-rule="evenodd"/><path fill="#000000" fill-opacity="0.0" d="m819.44476 19.865667c0 -3.5138187 2.8485107 -6.3623323 6.3623047 -6.3623323l104.661194 0c1.6873779 0 3.305664 0.6703148 4.4988403 1.8634834c1.1931763 1.1931696 1.8634644 2.8114538 1.8634644 4.498849l0 25.448565c0 3.5138168 -2.8485107 6.3623314 -6.3623047 6.3623314l-104.661194 0c-3.513794 0 -6.3623047 -2.8485146 -6.3623047 -6.3623314z" fill-rule="evenodd"/><path stroke="#000000" stroke-width="2.0" stroke-linejoin="round" stroke-linecap="butt" d="m819.44476 19.865667c0 -3.5138187 2.8485107 -6.3623323 6.3623047 -6.3623323l104.661194 0c1.6873779 0 3.305664 0.6703148 4.4988403 1.8634834c1.1931763 1.1931696 1.8634644 2.8114538 1.8634644 4.498849l0 25.448565c0 3.5138168 -2.8485107 6.3623314 -6.3623047 6.3623314l-104.661194 0c-3.513794 0 -6.3623047 -2.8485146 -6.3623047 -6.3623314z" fill-rule="evenodd"/><path fill="#000000" d="m844.696 36.956173q-0.1875 0.390625 -0.5625 0.78125q-0.359375 0.390625 -0.84375 0.703125q-0.484375 0.296875 -1.109375 0.46875q-0.625 0.1875 -1.328125 0.1875q-1.765625 0 -2.71875 -1.0q-0.9375 -1.015625 -0.9375 -2.8125q0 -1.515625 0.421875 -2.859375q0.421875 -1.34375 1.1875 -2.34375q0.765625 -1.0 1.859375 -1.578125q1.109375 -0.578125 2.453125 -0.578125q1.03125 0 1.765625 0.53125q0.734375 0.515625 0.734375 1.546875q0 1.5 -1.515625 2.375q-1.5 0.875 -4.84375 1.140625q-0.078125 0.359375 -0.125 0.703125q-0.03125 0.34375 -0.03125 0.65625q0 1.28125 0.65625 2.09375q0.65625 0.8125 1.90625 0.8125q0.40625 0 0.796875 -0.125q0.40625 -0.140625 0.75 -0.328125q0.359375 -0.1875 0.640625 -0.40625q0.296875 -0.21875 0.5 -0.375l0.34375 0.40625zm-2.234375 -8.109375q-0.921875 0.015625 -1.71875 0.859375q-0.78125 0.84375 -1.328125 2.890625q2.0625 -0.0625 3.203125 -0.703125q1.15625 -0.65625 1.15625 -1.8125q0 -0.453125 -0.265625 -0.828125q-0.265625 -0.390625 -1.046875 -0.40625zm8.891846 6.78125q0.765625 -1.28125 1.359375 -2.484375q0.59375 -1.203125 1.03125 -2.421875q0 -0.234375 -0.0625 -0.609375q-0.046875 -0.375 -0.109375 -0.75q-0.046875 -0.390625 -0.109375 -0.71875q-0.0625 -0.328125 -0.109375 -0.46875q0.625 -0.25 1.265625 -0.25q0.65625 -0.015625 1.140625 0.25q-0.3125 1.328125 -0.875 2.703125q-0.546875 1.375 -1.265625 2.75q-0.703125 1.359375 -1.546875 2.6875q-0.84375 1.3125 -1.765625 2.53125l-1.0 0.25l-1.578125 -9.671875l-1.375 -0.171875l0 -0.53125q0.140625 -0.09375 0.390625 -0.234375q0.25 -0.140625 0.5625 -0.265625q0.3125 -0.125 0.640625 -0.203125q0.328125 -0.09375 0.625 -0.09375q0.46875 0 0.671875 0.234375q0.203125 0.234375 0.265625 0.578125l0.984375 6.9375l0.109375 1.34375l0.046875 0l0.703125 -1.390625zm12.345947 1.328125q-0.1875 0.390625 -0.5625 0.78125q-0.359375 0.390625 -0.84375 0.703125q-0.484375 0.296875 -1.109375 0.46875q-0.625 0.1875 -1.328125 0.1875q-1.765625 0 -2.71875 -1.0q-0.9375 -1.015625 -0.9375 -2.8125q0 -1.515625 0.421875 -2.859375q0.421875 -1.34375 1.1875 -2.34375q0.765625 -1.0 1.859375 -1.578125q1.109375 -0.578125 2.453125 -0.578125q1.03125 0 1.765625 0.53125q0.734375 0.515625 0.734375 1.546875q0 1.5 -1.515625 2.375q-1.5 0.875 -4.84375 1.140625q-0.078125 0.359375 -0.125 0.703125q-0.03125 0.34375 -0.03125 0.65625q0 1.28125 0.65625 2.09375q0.65625 0.8125 1.90625 0.8125q0.40625 0 0.796875 -0.125q0.40625 -0.140625 0.75 -0.328125q0.359375 -0.1875 0.640625 -0.40625q0.296875 -0.21875 0.5 -0.375l0.34375 0.40625zm-2.234375 -8.109375q-0.921875 0.015625 -1.71875 0.859375q-0.78125 0.84375 -1.328125 2.890625q2.0625 -0.0625 3.203125 -0.703125q1.15625 -0.65625 1.15625 -1.8125q0 -0.453125 -0.265625 -0.828125q-0.265625 -0.390625 -1.046875 -0.40625zm10.057983 0.640625q-0.546875 0.203125 -1.25 1.078125q-0.6875 0.859375 -1.21875 2.328125l-1.28125 5.953125l-1.828125 0l1.984375 -9.421875l-1.3125 -0.203125l0 -0.53125q0.734375 -0.34375 1.515625 -0.515625q0.796875 -0.1875 1.4375 -0.25l0.421875 0.25l-0.59375 2.84375l0.078125 0q0.625 -1.40625 1.515625 -2.25q0.90625 -0.84375 1.921875 -0.84375q0.28125 0 0.546875 0.0625q0.28125 0.046875 0.546875 0.1875q0 0.203125 -0.078125 0.515625q-0.0625 0.296875 -0.1875 0.625q-0.109375 0.3125 -0.25 0.609375q-0.125 0.28125 -0.28125 0.4375l-1.6875 -0.875zm3.5863647 -0.0625l-1.359375 -0.171875l0 -0.53125q0.109375 -0.09375 0.34375 -0.21875q0.25 -0.125 0.5625 -0.25q0.328125 -0.140625 0.671875 -0.234375q0.34375 -0.09375 0.640625 -0.09375q0.4375 0 0.640625 0.234375q0.203125 0.21875 0.3125 0.578125l1.765625 7.46875l0.078125 1.28125l0.03125 0l0.5 -1.265625q0.265625 -0.59375 0.546875 -1.3125q0.296875 -0.71875 0.578125 -1.4375q0.28125 -0.71875 0.515625 -1.421875q0.234375 -0.703125 0.40625 -1.3125q0 -0.234375 -0.0625 -0.609375q-0.046875 -0.390625 -0.109375 -0.765625q-0.0625 -0.390625 -0.140625 -0.71875q-0.0625 -0.328125 -0.09375 -0.46875q0.296875 -0.125 0.640625 -0.1875q0.34375 -0.0625 0.65625 -0.0625q0.640625 0 1.125 0.25q-0.65625 2.65625 -1.796875 5.296875q-1.140625 2.640625 -2.53125 5.375q-1.140625 2.234375 -2.296875 3.34375q-1.15625 1.109375 -2.609375 1.109375q-0.3125 0 -0.609375 -0.09375q-0.28125 -0.078125 -0.59375 -0.25q-0.03125 -0.234375 0.03125 -0.53125q0.0625 -0.296875 0.203125 -0.59375q0.140625 -0.296875 0.359375 -0.5625q0.234375 -0.25 0.515625 -0.390625l1.71875 0.890625q0.15625 -0.109375 0.390625 -0.3125q0.234375 -0.203125 0.484375 -0.5625q0.25 -0.34375 0.5 -0.84375q0.265625 -0.5 0.5 -1.203125l-2.515625 -9.421875z" fill-rule="nonzero"/><path fill="#000000" fill-opacity="0.0" d="m901.90485 18.527216l14.047241 0l0 28.125986l-14.047241 0z" fill-rule="evenodd"/><path fill="#000000" fill-opacity="0.0" d="m903.9894 13.503335l0 38.17323" fill-rule="evenodd"/><path stroke="#000000" stroke-width="2.0" stroke-linejoin="round" stroke-linecap="butt" d="m903.9894 13.503335l0 38.17323" fill-rule="evenodd"/><path fill="#000000" fill-opacity="0.0" d="m1011.93896 80.59021c29.102417 0 58.204712 14.456688 58.204712 28.913383" fill-rule="evenodd"/><path stroke="#000000" stroke-width="2.0" stroke-linejoin="round" stroke-linecap="butt" d="m1019.5123 80.90896l0.5877075 0.05052185c0.9014282 0.08073425 1.8002319 0.174263 2.6954956 0.28015137c3.5809326 0.42353058 7.1051025 1.0447235 10.515503 1.8353195c6.820801 1.5811996 13.187012 3.840065 18.643677 6.5506973c2.7283936 1.3553162 5.22937 2.8235703 7.446167 4.3765335c1.1082764 0.7764816 2.145752 1.5741348 3.1048584 2.38945c0.47961426 0.4076538 0.93969727 0.8197174 1.3792725 1.2357559c0.21984863 0.20801544 0.4345703 0.4170227 0.64404297 0.6269684c0.10473633 0.10498047 0.20812988 0.21018982 0.31030273 0.31562805l0.11047363 0.115852356" fill-rule="evenodd"/><path fill="#000000" stroke="#000000" stroke-width="2.0" stroke-linecap="butt" d="m1012.9381 80.63226c0.076416016 -1.8154144 1.6099854 -3.225151 3.425415 -3.1487427c1.8154297 0.076408386 3.2251587 1.6100311 3.1487427 3.4254456c-0.076416016 1.8154068 -1.6100464 3.2251434 -3.425415 3.148735c-1.8154297 -0.076408386 -3.2251587 -1.6100311 -3.1487427 -3.425438z" fill-rule="nonzero"/><path fill="#000000" stroke="#000000" stroke-width="2.0" stroke-linecap="butt" d="m1061.9718 100.11564l6.906372 6.752205l-0.9503174 -9.611816z" fill-rule="evenodd"/><path fill="#000000" fill-opacity="0.0" d="m915.44476 67.86567c0 -3.5138245 2.8485107 -6.362335 6.3623047 -6.362335l104.661194 0c1.6873779 0 3.305664 0.6703148 4.4987793 1.8634834c1.1932373 1.1931725 1.8635254 2.811451 1.8635254 4.498852l0 25.448563c0 3.5138168 -2.8485107 6.3623276 -6.3623047 6.3623276l-104.661194 0c-3.513794 0 -6.3623047 -2.8485107 -6.3623047 -6.3623276z" fill-rule="evenodd"/><path stroke="#000000" stroke-width="2.0" stroke-linejoin="round" stroke-linecap="butt" d="m915.44476 67.86567c0 -3.5138245 2.8485107 -6.362335 6.3623047 -6.362335l104.661194 0c1.6873779 0 3.305664 0.6703148 4.4987793 1.8634834c1.1932373 1.1931725 1.8635254 2.811451 1.8635254 4.498852l0 25.448563c0 3.5138168 -2.8485107 6.3623276 -6.3623047 6.3623276l-104.661194 0c-3.513794 0 -6.3623047 -2.8485107 -6.3623047 -6.3623276z" fill-rule="evenodd"/><path fill="#000000" d="m949.9256 84.95617q-0.234375 0.390625 -0.59375 0.78125q-0.359375 0.390625 -0.859375 0.703125q-0.484375 0.296875 -1.09375 0.46875q-0.609375 0.1875 -1.328125 0.1875q-1.578125 0 -2.5 -1.0q-0.90625 -1.0 -0.90625 -2.71875q0 -1.546875 0.484375 -2.890625q0.484375 -1.359375 1.328125 -2.375q0.84375 -1.015625 1.984375 -1.59375q1.140625 -0.59375 2.453125 -0.59375q0.796875 0 1.3125 0.125q0.515625 0.125 0.765625 0.375q0.03125 0.234375 -0.03125 0.515625q-0.046875 0.28125 -0.171875 0.5625q-0.109375 0.28125 -0.296875 0.515625q-0.171875 0.234375 -0.375 0.3125l-1.4375 -1.484375q-0.734375 0.015625 -1.453125 0.453125q-0.703125 0.421875 -1.28125 1.21875q-0.5625 0.78125 -0.921875 1.90625q-0.34375 1.109375 -0.3125 2.515625q-0.03125 1.46875 0.578125 2.15625q0.609375 0.6875 1.65625 0.6875q0.453125 0 0.84375 -0.125q0.390625 -0.140625 0.734375 -0.328125q0.34375 -0.1875 0.609375 -0.40625q0.28125 -0.21875 0.5 -0.375l0.3125 0.40625zm4.9978027 0.828125q0.578125 0 1.15625 -0.546875q0.578125 -0.546875 1.078125 -1.3125q0.515625 -0.765625 0.921875 -1.59375q0.40625 -0.84375 0.640625 -1.390625l0.6875 -3.65625q-0.296875 -0.203125 -0.578125 -0.28125q-0.28125 -0.09375 -0.765625 -0.09375q-0.984375 0 -1.796875 0.609375q-0.796875 0.609375 -1.359375 1.578125q-0.5625 0.953125 -0.875 2.125q-0.296875 1.171875 -0.296875 2.296875q0 1.09375 0.265625 1.6875q0.265625 0.578125 0.921875 0.578125zm3.375 -3.125q-0.28125 0.78125 -0.703125 1.578125q-0.40625 0.78125 -0.953125 1.421875q-0.546875 0.640625 -1.21875 1.046875q-0.65625 0.390625 -1.390625 0.390625q-2.21875 0 -2.21875 -3.21875q0 -1.484375 0.421875 -2.90625q0.421875 -1.421875 1.234375 -2.53125q0.8125 -1.109375 1.96875 -1.78125q1.171875 -0.671875 2.640625 -0.671875q0.53125 0 0.84375 0.09375q0.328125 0.09375 0.78125 0.296875q0.84375 -0.453125 1.78125 -0.453125l-1.90625 9.75l1.546875 0l0 0.53125q-0.421875 0.34375 -1.03125 0.5625q-0.59375 0.203125 -1.15625 0.203125q-0.625 0 -0.890625 -0.265625q-0.265625 -0.265625 -0.265625 -0.5625q0 -0.390625 0.140625 -1.265625q0.15625 -0.875 0.453125 -2.21875l-0.078125 0zm5.1605835 -5.96875q0.421875 -0.234375 0.890625 -0.421875q0.484375 -0.1875 0.953125 -0.296875l0.34375 -1.625q0.296875 -0.234375 0.6875 -0.40625q0.40625 -0.1875 0.828125 -0.359375l0.453125 0.25l-0.515625 2.34375l2.640625 0q0.046875 0.265625 0 0.546875q-0.03125 0.265625 -0.203125 0.53125l-2.65625 0l-1.34375 6.1875q-0.078125 0.40625 -0.125 0.71875q-0.03125 0.296875 -0.03125 0.546875q0 0.5625 0.3125 0.828125q0.328125 0.25 0.703125 0.25q0.53125 0 1.140625 -0.203125q0.609375 -0.203125 1.125 -0.46875l0.234375 0.390625q-0.1875 0.28125 -0.578125 0.5625q-0.390625 0.265625 -0.875 0.5q-0.46875 0.234375 -1.0 0.375q-0.515625 0.15625 -0.984375 0.15625q-0.9375 0 -1.46875 -0.421875q-0.53125 -0.421875 -0.53125 -1.328125q0 -0.296875 0.046875 -0.65625q0.0625 -0.359375 0.140625 -0.75l1.40625 -6.6875l-1.625 0l0.03125 -0.5625z" fill-rule="nonzero"/><path fill="#000000" fill-opacity="0.0" d="m997.8917 66.527214l14.047241 0l0 28.125984l-14.047241 0z" fill-rule="evenodd"/><path fill="#000000" fill-opacity="0.0" d="m999.97626 61.503334l0 38.173225" fill-rule="evenodd"/><path stroke="#000000" stroke-width="2.0" stroke-linejoin="round" stroke-linecap="butt" d="m999.97626 61.503334l0 38.173225" fill-rule="evenodd"/><path fill="#000000" fill-opacity="0.0" d="m1011.44476 115.86567c0 -3.5138245 2.8485107 -6.362335 6.3623047 -6.362335l104.661194 0c1.6873779 0 3.305664 0.6703186 4.4987793 1.8634872c1.1932373 1.1931686 1.8635254 2.8114471 1.8635254 4.498848l0 25.448555c0 3.5138245 -2.8485107 6.362335 -6.3623047 6.362335l-104.661194 0c-3.513794 0 -6.3623047 -2.8485107 -6.3623047 -6.362335z" fill-rule="evenodd"/><path stroke="#000000" stroke-width="2.0" stroke-linejoin="round" stroke-linecap="butt" d="m1011.44476 115.86567c0 -3.5138245 2.8485107 -6.362335 6.3623047 -6.362335l104.661194 0c1.6873779 0 3.305664 0.6703186 4.4987793 1.8634872c1.1932373 1.1931686 1.8635254 2.8114471 1.8635254 4.498848l0 25.448555c0 3.5138245 -2.8485107 6.362335 -6.3623047 6.362335l-104.661194 0c-3.513794 0 -6.3623047 -2.8485107 -6.3623047 -6.362335z" fill-rule="evenodd"/><path fill="#000000" d="m1033.0258 120.29992l-1.515625 -0.1875l0 -0.53125q0.296875 -0.140625 0.6875 -0.265625q0.390625 -0.125 0.828125 -0.234375q0.4375 -0.125 0.859375 -0.1875q0.4375 -0.078125 0.78125 -0.078125l0.421875 0.234375l-2.9375 14.609383l1.546875 0l0 0.546875q-0.421875 0.34375 -1.03125 0.5625q-0.609375 0.203125 -1.1875 0.203125q-0.609375 0 -0.90625 -0.265625q-0.28125 -0.28125 -0.28125 -0.65625q0 -0.421875 0.0625 -0.828125q0.0625 -0.40625 0.171875 -0.890625l2.5 -12.031258zm3.064209 10.578133q0 -1.125 0.34375 -2.34375q0.359375 -1.2343826 1.078125 -2.2500076q0.734375 -1.03125 1.8125 -1.6875q1.09375 -0.671875 2.546875 -0.671875q1.65625 0 2.5 1.03125q0.84375 1.015625 0.84375 3.015625q0 1.4218826 -0.40625 2.7187576q-0.40625 1.28125 -1.140625 2.265625q-0.71875 0.96875 -1.75 1.5625q-1.015625 0.578125 -2.25 0.578125q-1.640625 0 -2.609375 -1.046875q-0.96875 -1.0625 -0.96875 -3.171875zm5.359375 -6.0312576q-1.046875 0.015625 -1.71875 0.6875q-0.65625 0.65625 -1.046875 1.640625q-0.375 0.9687576 -0.53125 2.1093826q-0.140625 1.125 -0.140625 2.0625q0 1.265625 0.546875 2.0625q0.5625 0.78125 1.5 0.78125q0.75 0 1.328125 -0.5625q0.59375 -0.578125 1.0 -1.5q0.421875 -0.921875 0.640625 -2.09375q0.234375 -1.1875 0.234375 -2.3750076q0 -1.265625 -0.4375 -2.03125q-0.4375 -0.765625 -1.375 -0.78125zm9.934204 6.7812576q0.765625 -1.28125 1.359375 -2.484375q0.59375 -1.2031326 1.03125 -2.4218826q0 -0.234375 -0.0625 -0.609375q-0.046875 -0.375 -0.109375 -0.75q-0.046875 -0.390625 -0.109375 -0.71875q-0.0625 -0.328125 -0.109375 -0.46875q0.625 -0.25 1.265625 -0.25q0.65625 -0.015625 1.140625 0.25q-0.3125 1.328125 -0.875 2.703125q-0.546875 1.3750076 -1.265625 2.7500076q-0.703125 1.359375 -1.546875 2.6875q-0.84375 1.3125 -1.765625 2.53125l-1.0 0.25l-1.578125 -9.671883l-1.375 -0.171875l0 -0.53125q0.140625 -0.09375 0.390625 -0.234375q0.25 -0.140625 0.5625 -0.265625q0.3125 -0.125 0.640625 -0.203125q0.328125 -0.09375 0.625 -0.09375q0.46875 0 0.671875 0.234375q0.203125 0.234375 0.265625 0.578125l0.984375 6.9375076l0.109375 1.34375l0.046875 0l0.703125 -1.390625zm12.345947 1.328125q-0.1875 0.390625 -0.5625 0.78125q-0.359375 0.390625 -0.84375 0.703125q-0.484375 0.296875 -1.109375 0.46875q-0.625 0.1875 -1.328125 0.1875q-1.765625 0 -2.71875 -1.0q-0.9375 -1.015625 -0.9375 -2.8125q0 -1.515625 0.421875 -2.859375q0.421875 -1.3437576 1.1875 -2.3437576q0.765625 -1.0 1.859375 -1.578125q1.109375 -0.578125 2.453125 -0.578125q1.03125 0 1.765625 0.53125q0.734375 0.515625 0.734375 1.546875q0 1.5 -1.515625 2.3750076q-1.5 0.875 -4.84375 1.140625q-0.078125 0.359375 -0.125 0.703125q-0.03125 0.34375 -0.03125 0.65625q0 1.28125 0.65625 2.09375q0.65625 0.8125 1.90625 0.8125q0.40625 0 0.796875 -0.125q0.40625 -0.140625 0.75 -0.328125q0.359375 -0.1875 0.640625 -0.40625q0.296875 -0.21875 0.5 -0.375l0.34375 0.40625zm-2.234375 -8.109383q-0.921875 0.015625 -1.71875 0.859375q-0.78125 0.84375 -1.328125 2.8906326q2.0625 -0.0625 3.203125 -0.7031326q1.15625 -0.65625 1.15625 -1.8125q0 -0.453125 -0.265625 -0.828125q-0.265625 -0.390625 -1.046875 -0.40625zm8.995483 7.4843826q-0.015625 -0.515625 -0.28125 -0.890625q-0.265625 -0.375 -0.6875 -0.703125q-0.421875 -0.34375 -0.890625 -0.6875q-0.46875 -0.34375 -0.890625 -0.75q-0.40625 -0.421875 -0.671875 -0.96875q-0.265625 -0.5468826 -0.265625 -1.3125076q0 -0.765625 0.296875 -1.34375q0.296875 -0.578125 0.8125 -0.953125q0.53125 -0.390625 1.265625 -0.59375q0.734375 -0.203125 1.609375 -0.203125q0.5625 0 1.25 0.09375q0.6875 0.09375 1.3125 0.46875q0 0.234375 -0.09375 0.546875q-0.078125 0.296875 -0.21875 0.59375q-0.140625 0.28125 -0.3125 0.53125q-0.171875 0.234375 -0.359375 0.328125l-1.578125 -1.640625q-0.4375 0.015625 -0.828125 0.109375q-0.390625 0.078125 -0.671875 0.28125q-0.28125 0.1875 -0.453125 0.5q-0.15625 0.296875 -0.15625 0.765625q0 0.5625 0.28125 0.953125q0.28125 0.390625 0.6875 0.7500076q0.421875 0.34375 0.890625 0.6875q0.484375 0.328125 0.890625 0.75q0.421875 0.40625 0.703125 0.953125q0.28125 0.53125 0.28125 1.28125q0 0.765625 -0.359375 1.375q-0.34375 0.59375 -0.953125 1.015625q-0.609375 0.40625 -1.40625 0.609375q-0.796875 0.21875 -1.703125 0.21875q-0.890625 0 -1.625 -0.1875q-0.734375 -0.171875 -1.15625 -0.453125q0.09375 -0.546875 0.234375 -1.0625q0.15625 -0.53125 0.640625 -0.984375l1.90625 1.78125q0.453125 0 0.890625 -0.109375q0.4375 -0.109375 0.78125 -0.34375q0.359375 -0.234375 0.578125 -0.578125q0.234375 -0.34375 0.25 -0.828125z" fill-rule="nonzero"/><path fill="#000000" fill-opacity="0.0" d="m1093.8917 114.527214l14.047241 0l0 28.125984l-14.047241 0z" fill-rule="evenodd"/><path fill="#000000" fill-opacity="0.0" d="m1095.9762 109.503334l0 38.173225" fill-rule="evenodd"/><path stroke="#000000" stroke-width="2.0" stroke-linejoin="round" stroke-linecap="butt" d="m1095.9762 109.503334l0 38.173225" fill-rule="evenodd"/><path fill="#000000" fill-opacity="0.0" d="m1107.939 128.59021c29.102417 0 58.204712 14.456696 58.204712 28.913391" fill-rule="evenodd"/><path stroke="#000000" stroke-width="2.0" stroke-linejoin="round" stroke-linecap="butt" d="m1115.5123 128.90897l0.58776855 0.05052185c0.9013672 0.08073425 1.8001709 0.17427063 2.6954346 0.28015137c3.5809326 0.4235382 7.1051025 1.0447235 10.515503 1.8353119c6.820801 1.5812073 13.187012 3.8400574 18.643677 6.5506897c2.7283936 1.3553162 5.22937 2.823578 7.446167 4.376541c1.1082764 0.77648926 2.145752 1.5741425 3.1048584 2.38945c0.47961426 0.4076538 0.93969727 0.8197174 1.3792725 1.2357635c0.21984863 0.20800781 0.4345703 0.4170227 0.64404297 0.6269684c0.10473633 0.10496521 0.20812988 0.21018982 0.31030273 0.3156128l0.11047363 0.115859985" fill-rule="evenodd"/><path fill="#000000" stroke="#000000" stroke-width="2.0" stroke-linecap="butt" d="m1108.9381 128.63226c0.076416016 -1.8154068 1.6099854 -3.2251434 3.425415 -3.148735c1.8154297 0.076408386 3.2250977 1.6100311 3.1488037 3.425438c-0.076416016 1.8154144 -1.6101074 3.2251434 -3.425537 3.1487427c-1.8154297 -0.076416016 -3.2250977 -1.6100311 -3.1486816 -3.4254456z" fill-rule="nonzero"/><path fill="#000000" stroke="#000000" stroke-width="2.0" stroke-linecap="butt" d="m1157.9718 148.11565l6.906372 6.7521973l-0.9503174 -9.611816z" fill-rule="evenodd"/><path fill="#000000" fill-opacity="0.0" d="m1107.4447 163.86566c0 -3.5138092 2.8485107 -6.36232 6.3624268 -6.36232l104.66113 0c1.6873779 0 3.305664 0.67030334 4.4987793 1.8634796c1.1932373 1.193161 1.8635254 2.8114471 1.8635254 4.4988403l0 25.448563c0 3.5138245 -2.8485107 6.362335 -6.3623047 6.362335l-104.66113 0c-3.513916 0 -6.3624268 -2.8485107 -6.3624268 -6.362335z" fill-rule="evenodd"/><path stroke="#000000" stroke-width="2.0" stroke-linejoin="round" stroke-linecap="butt" d="m1107.4447 163.86566c0 -3.5138092 2.8485107 -6.36232 6.3624268 -6.36232l104.66113 0c1.6873779 0 3.305664 0.67030334 4.4987793 1.8634796c1.1932373 1.193161 1.8635254 2.8114471 1.8635254 4.4988403l0 25.448563c0 3.5138245 -2.8485107 6.362335 -6.3623047 6.362335l-104.66113 0c-3.513916 0 -6.3624268 -2.8485107 -6.3624268 -6.362335z" fill-rule="evenodd"/><path fill="#000000" d="m1130.9102 181.7843q0.578125 0 1.140625 -0.546875q0.578125 -0.546875 1.09375 -1.3125q0.515625 -0.765625 0.921875 -1.59375q0.40625 -0.84375 0.640625 -1.390625l0.671875 -3.65625q-0.3125 -0.203125 -0.578125 -0.28125q-0.265625 -0.078125 -0.765625 -0.09375q-1.015625 0.015625 -1.828125 0.625q-0.8125 0.609375 -1.375 1.5625q-0.546875 0.953125 -0.84375 2.125q-0.28125 1.171875 -0.28125 2.296875q0 1.09375 0.265625 1.6875q0.265625 0.578125 0.9375 0.578125zm3.359375 -3.125q-0.265625 0.78125 -0.703125 1.578125q-0.421875 0.78125 -0.96875 1.421875q-0.546875 0.640625 -1.203125 1.046875q-0.640625 0.390625 -1.390625 0.390625q-2.21875 0 -2.21875 -3.234375q0 -1.515625 0.421875 -2.9375q0.4375 -1.421875 1.25 -2.515625q0.8125 -1.09375 1.953125 -1.75q1.15625 -0.671875 2.625 -0.671875q0.5625 0 0.828125 0.078125q0.28125 0.078125 0.71875 0.265625l0.8125 -4.03125l-1.5 -0.1875l0 -0.53125q0.3125 -0.140625 0.703125 -0.25q0.390625 -0.125 0.796875 -0.21875q0.421875 -0.09375 0.84375 -0.171875q0.421875 -0.09375 0.796875 -0.125l0.4375 0.15625l-2.921875 14.703125l1.5625 0l0 0.53125q-0.421875 0.34375 -1.03125 0.5625q-0.59375 0.203125 -1.171875 0.203125q-0.609375 0 -0.875 -0.265625q-0.265625 -0.265625 -0.265625 -0.5625q0 -0.390625 0.140625 -1.265625q0.15625 -0.875 0.453125 -2.21875l-0.09375 0zm4.8480225 0.21875q0 -1.125 0.34375 -2.34375q0.359375 -1.234375 1.078125 -2.25q0.734375 -1.03125 1.8125 -1.6875q1.09375 -0.671875 2.546875 -0.671875q1.65625 0 2.5 1.03125q0.84375 1.015625 0.84375 3.015625q0 1.421875 -0.40625 2.71875q-0.40625 1.28125 -1.140625 2.265625q-0.71875 0.96875 -1.75 1.5625q-1.015625 0.578125 -2.25 0.578125q-1.640625 0 -2.609375 -1.046875q-0.96875 -1.0625 -0.96875 -3.171875zm5.359375 -6.03125q-1.046875 0.015625 -1.71875 0.6875q-0.65625 0.65625 -1.046875 1.640625q-0.375 0.96875 -0.53125 2.109375q-0.140625 1.125 -0.140625 2.0625q0 1.265625 0.546875 2.0625q0.5625 0.78125 1.5 0.78125q0.75 0 1.328125 -0.5625q0.59375 -0.578125 1.0 -1.5q0.421875 -0.921875 0.640625 -2.09375q0.234375 -1.1875 0.234375 -2.375q0 -1.265625 -0.4375 -2.03125q-0.4375 -0.765625 -1.375 -0.78125zm10.590454 -0.921875q1.03125 0 1.671875 0.265625q0.65625 0.25 1.015625 0.546875q0.1875 -0.171875 0.5 -0.34375q0.328125 -0.171875 0.6875 -0.3125q0.375 -0.15625 0.75 -0.28125q0.390625 -0.125 0.734375 -0.234375q0.0625 0.109375 0.09375 0.328125q0.046875 0.203125 0.03125 0.46875q0 0.25 -0.078125 0.515625q-0.078125 0.265625 -0.21875 0.484375l-2.203125 -0.15625q0.0625 0.1875 0.125 0.4375q0.078125 0.25 0.078125 0.546875q0 0.84375 -0.359375 1.578125q-0.34375 0.71875 -0.96875 1.25q-0.625 0.515625 -1.453125 0.8125q-0.8125 0.296875 -1.71875 0.296875q-0.375 0 -0.59375 0q-0.21875 -0.015625 -0.5 -0.078125q-0.1875 0.21875 -0.53125 0.5q-0.328125 0.28125 -0.328125 0.625q0 0.359375 0.46875 0.5625q0.46875 0.1875 1.1875 0.34375q0.71875 0.15625 1.546875 0.34375q0.828125 0.1875 1.546875 0.5q0.71875 0.296875 1.1875 0.796875q0.46875 0.484375 0.46875 1.296875q0 1.0 -0.5625 1.796875q-0.5625 0.796875 -1.5 1.359375q-0.921875 0.578125 -2.109375 0.875q-1.1875 0.3125 -2.40625 0.3125q-0.96875 0 -1.671875 -0.203125q-0.703125 -0.203125 -1.15625 -0.5625q-0.453125 -0.34375 -0.65625 -0.796875q-0.21875 -0.4375 -0.21875 -0.921875q0 -0.609375 0.265625 -1.125q0.265625 -0.5 0.71875 -0.953125q0.4375 -0.46875 1.015625 -0.84375q0.578125 -0.390625 1.203125 -0.734375q-0.328125 -0.171875 -0.53125 -0.453125q-0.203125 -0.296875 -0.203125 -0.65625q0 -0.3125 0.21875 -0.65625q0.21875 -0.359375 0.5 -0.671875q0.28125 -0.328125 0.5625 -0.5625q0.296875 -0.234375 0.453125 -0.34375q-0.265625 -0.0625 -0.53125 -0.234375q-0.265625 -0.171875 -0.5 -0.4375q-0.234375 -0.28125 -0.390625 -0.640625q-0.140625 -0.375 -0.140625 -0.828125q0 -0.828125 0.34375 -1.53125q0.359375 -0.703125 0.96875 -1.203125q0.625 -0.5 1.4375 -0.78125q0.8125 -0.296875 1.75 -0.296875zm-2.453125 14.53125q0.671875 0 1.3125 -0.203125q0.65625 -0.1875 1.171875 -0.546875q0.53125 -0.34375 0.859375 -0.875q0.328125 -0.515625 0.328125 -1.171875q0 -0.640625 -0.53125 -0.984375q-0.515625 -0.359375 -1.265625 -0.5625q-0.734375 -0.21875 -1.546875 -0.359375q-0.796875 -0.140625 -1.375 -0.328125q-1.0 0.71875 -1.375 1.5q-0.375 0.796875 -0.34375 1.484375q-0.03125 0.953125 0.71875 1.5q0.765625 0.546875 2.046875 0.546875zm2.28125 -13.671875q-0.609375 0 -1.09375 0.234375q-0.484375 0.234375 -0.828125 0.625q-0.328125 0.390625 -0.5 0.9375q-0.171875 0.53125 -0.171875 1.125q0 0.8125 0.515625 1.203125q0.53125 0.375 1.125 0.375q0.640625 0 1.09375 -0.21875q0.46875 -0.234375 0.765625 -0.609375q0.3125 -0.390625 0.453125 -0.875q0.15625 -0.5 0.15625 -1.03125q0 -0.78125 -0.375 -1.265625q-0.375 -0.5 -1.140625 -0.5zm10.07019 7.546875q-0.015625 -0.515625 -0.28125 -0.890625q-0.265625 -0.375 -0.6875 -0.703125q-0.421875 -0.34375 -0.890625 -0.6875q-0.46875 -0.34375 -0.890625 -0.75q-0.40625 -0.421875 -0.671875 -0.96875q-0.265625 -0.546875 -0.265625 -1.3125q0 -0.765625 0.296875 -1.34375q0.296875 -0.578125 0.8125 -0.953125q0.53125 -0.390625 1.265625 -0.59375q0.734375 -0.203125 1.609375 -0.203125q0.5625 0 1.25 0.09375q0.6875 0.09375 1.3125 0.46875q0 0.234375 -0.09375 0.546875q-0.078125 0.296875 -0.21875 0.59375q-0.140625 0.28125 -0.3125 0.53125q-0.171875 0.234375 -0.359375 0.328125l-1.578125 -1.640625q-0.4375 0.015625 -0.828125 0.109375q-0.390625 0.078125 -0.671875 0.28125q-0.28125 0.1875 -0.453125 0.5q-0.15625 0.296875 -0.15625 0.765625q0 0.5625 0.28125 0.953125q0.28125 0.390625 0.6875 0.75q0.421875 0.34375 0.890625 0.6875q0.484375 0.328125 0.890625 0.75q0.421875 0.40625 0.703125 0.953125q0.28125 0.53125 0.28125 1.28125q0 0.765625 -0.359375 1.375q-0.34375 0.59375 -0.953125 1.015625q-0.609375 0.40625 -1.40625 0.609375q-0.796875 0.21875 -1.703125 0.21875q-0.890625 0 -1.625 -0.1875q-0.734375 -0.171875 -1.15625 -0.453125q0.09375 -0.546875 0.234375 -1.0625q0.15625 -0.53125 0.640625 -0.984375l1.90625 1.78125q0.453125 0 0.890625 -0.109375q0.4375 -0.109375 0.78125 -0.34375q0.359375 -0.234375 0.578125 -0.578125q0.234375 -0.34375 0.25 -0.828125z" fill-rule="nonzero"/><path fill="#000000" fill-opacity="0.0" d="m1189.8917 162.52722l14.047241 0l0 28.125977l-14.047241 0z" fill-rule="evenodd"/><path fill="#000000" fill-opacity="0.0" d="m1191.9762 157.50334l0 38.173218" fill-rule="evenodd"/><path stroke="#000000" stroke-width="2.0" stroke-linejoin="round" stroke-linecap="butt" d="m1191.9762 157.50334l0 38.173218" fill-rule="evenodd"/><path fill="#000000" d="m1201.9768 177.35574c0 -3.357193 2.7214355 -6.0787354 6.0787354 -6.0787354c1.6121826 0 3.1583252 0.6404419 4.298218 1.780426c1.1400146 1.1399841 1.7805176 2.6861267 1.7805176 4.2983093c0 3.357193 -2.7215576 6.0787506 -6.0787354 6.0787506c-3.3572998 0 -6.0787354 -2.7215576 -6.0787354 -6.0787506z" fill-rule="evenodd"/><path fill="#000000" fill-opacity="0.0" d="m728.47626 6.400973l0 196.37796" fill-rule="evenodd"/><path stroke="#000000" stroke-width="2.0" stroke-linejoin="round" stroke-linecap="butt" d="m728.47626 6.400973l0 196.37796" fill-rule="evenodd"/></g></svg>