<svg version="1.1" viewBox="0.0 0.0 1307.6719160104988 212.14435695538057" fill="none" stroke="none" stroke-linecap="square" stroke-miterlimit="10" xmlns:xlink="http://www.w3.org/1999/xlink" xmlns="http://www.w3.org/2000/svg"><clipPath id="p.0"><path d="m0 0l1307.6719 0l0 212.14436l-1307.6719 0l0 -212.14436z" clip-rule="nonzero"/></clipPath><g clip-path="url(#p.0)"><path fill="#000000" fill-opacity="0.0" d="m0 0l1307.6719 0l0 212.14436l-1307.6719 0z" fill-rule="evenodd"/><path shape-rendering="crispEdges" fill="#d9d9d9" d="m424.1706 43.562695l53.73755 0l0 36.110233l-53.73755 0l0 -36.110233z" fill-rule="nonzero"/><path shape-rendering="crispEdges" fill="#d9d9d9" d="m477.90814 43.562695l53.73755 0l0 36.110233l-53.73755 0l0 -36.110233z" fill-rule="nonzero"/><path shape-rendering="crispEdges" fill="#d9d9d9" d="m531.6457 43.562695l53.737488 0l0 36.110233l-53.737488 0l0 -36.110233z" fill-rule="nonzero"/><path shape-rendering="crispEdges" fill="#d9d9d9" d="m585.3832 43.562695l53.73755 0l0 36.110233l-53.73755 0l0 -36.110233z" fill-rule="nonzero"/><path stroke="#000000" stroke-width="2.0" stroke-linecap="butt" d="m209.22047 42.562695l0 38.110233" fill-rule="nonzero"/><path stroke="#000000" stroke-width="2.0" stroke-linecap="butt" d="m262.958 42.562695l0 38.110233" fill-rule="nonzero"/><path stroke="#000000" stroke-width="2.0" stroke-linecap="butt" d="m316.69553 42.562695l0 38.110233" fill-rule="nonzero"/><path stroke="#000000" stroke-width="2.0" stroke-linecap="butt" d="m370.43307 42.562695l0 38.110233" fill-rule="nonzero"/><path stroke="#000000" stroke-width="2.0" stroke-linecap="butt" d="m424.1706 42.562695l0 38.110233" fill-rule="nonzero"/><path stroke="#000000" stroke-width="2.0" stroke-linecap="butt" d="m477.90814 42.562695l0 38.110233" fill-rule="nonzero"/><path stroke="#000000" stroke-width="2.0" stroke-linecap="butt" d="m531.6457 42.562695l0 38.110233" fill-rule="nonzero"/><path stroke="#000000" stroke-width="2.0" stroke-linecap="butt" d="m585.3832 42.562695l0 38.110233" fill-rule="nonzero"/><path stroke="#000000" stroke-width="2.0" stroke-linecap="butt" d="m639.1207 42.562695l0 38.110233" fill-rule="nonzero"/><path stroke="#000000" stroke-width="2.0" stroke-linecap="butt" d="m208.22047 43.562695l431.90027 0" fill-rule="nonzero"/><path stroke="#000000" stroke-width="2.0" stroke-linecap="butt" d="m208.22047 79.67293l431.90027 0" fill-rule="nonzero"/><path fill="#000000" d="m233.03546 35.69082q0 -2.390625 0.765625 -3.59375q0.78125 -1.21875 2.28125 -1.21875q1.609375 0 2.328125 1.1875q0.734375 1.1875 0.734375 3.625q0 2.40625 -0.78125 3.625q-0.78125 1.203125 -2.28125 1.203125q-1.578125 0 -2.3125 -1.265625q-0.734375 -1.265625 -0.734375 -3.5625zm1.09375 0q0 0.875 0.109375 1.59375q0.125 0.703125 0.359375 1.21875q0.25 0.515625 0.609375 0.8125q0.375 0.28125 0.875 0.28125q1.015625 0 1.484375 -0.9375q0.46875 -0.953125 0.46875 -2.96875q0 -0.84375 -0.09375 -1.5625q-0.09375 -0.71875 -0.328125 -1.234375q-0.234375 -0.53125 -0.609375 -0.8125q-0.375 -0.28125 -0.921875 -0.28125q-1.0 0 -1.484375 0.953125q-0.46875 0.953125 -0.46875 2.9375z" fill-rule="nonzero"/><path fill="#000000" d="m287.6324 39.37832l1.875 0l0 -6.453125l0.125 -0.78125l-0.53125 0.625l-1.46875 1.046875l-0.5 -0.671875l2.921875 -2.265625l0.484375 0l0 8.5l1.828125 0l0 0.984375l-4.734375 0l0 -0.984375z" fill-rule="nonzero"/><path fill="#000000" d="m345.8699 33.15957q0 0.703125 -0.265625 1.4375q-0.25 0.734375 -0.671875 1.484375q-0.421875 0.75 -0.9375 1.46875q-0.515625 0.703125 -1.03125 1.34375l-0.65625 0.578125l0 0.046875l0.84375 -0.140625l2.90625 0l0 0.984375l-5.296875 0l0 -0.390625q0.296875 -0.296875 0.703125 -0.75q0.421875 -0.453125 0.859375 -1.0q0.453125 -0.5625 0.875 -1.171875q0.4375 -0.625 0.78125 -1.265625q0.359375 -0.640625 0.578125 -1.265625q0.21875 -0.640625 0.21875 -1.1875q0 -0.65625 -0.375 -1.09375q-0.375 -0.4375 -1.140625 -0.4375q-0.5 0 -0.984375 0.21875q-0.484375 0.203125 -0.828125 0.46875l-0.4375 -0.765625q0.46875 -0.390625 1.109375 -0.609375q0.640625 -0.234375 1.375 -0.234375q0.5625 0 1.0 0.171875q0.453125 0.15625 0.75 0.46875q0.3125 0.296875 0.46875 0.71875q0.15625 0.421875 0.15625 0.921875z" fill-rule="nonzero"/><path fill="#000000" d="m396.79495 39.59707q0.453125 0 0.828125 -0.140625q0.390625 -0.140625 0.671875 -0.390625q0.28125 -0.265625 0.4375 -0.625q0.15625 -0.359375 0.15625 -0.78125q0 -0.9375 -0.546875 -1.390625q-0.546875 -0.453125 -1.53125 -0.453125l-0.984375 0l0 -0.390625l1.921875 -2.953125l0.609375 -0.59375l-0.859375 0.140625l-2.640625 0l0 -0.984375l4.75 0l0 0.390625l-2.109375 3.1875l-0.46875 0.375l0 0.03125l0.453125 -0.09375q0.53125 0.015625 0.984375 0.203125q0.453125 0.171875 0.78125 0.515625q0.34375 0.328125 0.53125 0.8125q0.1875 0.46875 0.1875 1.0625q0 0.71875 -0.265625 1.28125q-0.25 0.5625 -0.6875 0.953125q-0.421875 0.375 -1.015625 0.578125q-0.578125 0.1875 -1.234375 0.1875q-0.59375 0 -1.078125 -0.09375q-0.484375 -0.09375 -0.84375 -0.234375l0.28125 -0.953125q0.3125 0.15625 0.71875 0.265625q0.421875 0.09375 0.953125 0.09375z" fill-rule="nonzero"/><path fill="#000000" d="m454.39185 37.50332l-1.578125 0l0 2.859375l-1.03125 0l0 -2.859375l-4.109375 0l0 -0.453125l4.421875 -6.15625l0.71875 0l0 5.671875l1.578125 0l0 0.9375zm-2.609375 -3.84375l0.125 -1.09375l-0.03125 0l-0.46875 0.90625l-1.875 2.546875l-0.640625 0.65625l0.921875 -0.109375l1.96875 0l0 -2.90625z" fill-rule="nonzero"/><path fill="#000000" d="m503.98877 39.59707q0.921875 0 1.515625 -0.53125q0.59375 -0.546875 0.59375 -1.5625q0 -0.96875 -0.59375 -1.4375q-0.59375 -0.484375 -1.625 -0.484375l-1.125 0.0625l0 -4.609375l4.15625 0l0 0.984375l-3.15625 0l0 2.65625l0.578125 -0.03125q1.3125 0.015625 2.078125 0.734375q0.765625 0.71875 0.765625 2.0625q0 0.75 -0.265625 1.328125q-0.25 0.578125 -0.6875 0.96875q-0.421875 0.390625 -1.015625 0.59375q-0.578125 0.1875 -1.25 0.1875q-0.59375 0 -1.015625 -0.0625q-0.40625 -0.0625 -0.765625 -0.203125l0.28125 -0.90625q0.296875 0.125 0.640625 0.1875q0.359375 0.0625 0.890625 0.0625z" fill-rule="nonzero"/><path fill="#000000" d="m561.44507 37.550194q0 0.609375 -0.1875 1.15625q-0.1875 0.53125 -0.546875 0.9375q-0.359375 0.40625 -0.90625 0.640625q-0.53125 0.234375 -1.203125 0.234375q-0.671875 0 -1.203125 -0.203125q-0.53125 -0.21875 -0.921875 -0.640625q-0.375 -0.421875 -0.59375 -1.03125q-0.203125 -0.609375 -0.203125 -1.40625q0 -1.328125 0.34375 -2.4375q0.34375 -1.109375 0.9375 -1.9375q0.59375 -0.828125 1.40625 -1.34375q0.828125 -0.515625 1.796875 -0.640625l0.21875 0.84375q-0.734375 0.140625 -1.359375 0.515625q-0.609375 0.375 -1.078125 0.921875q-0.453125 0.546875 -0.75 1.234375q-0.28125 0.671875 -0.390625 1.390625q0.203125 -0.359375 0.703125 -0.65625q0.515625 -0.3125 1.25 -0.3125q1.25 0 1.96875 0.71875q0.71875 0.71875 0.71875 2.015625zm-1.109375 0.109375q0 -0.953125 -0.4375 -1.421875q-0.4375 -0.484375 -1.359375 -0.484375q-0.65625 0 -1.140625 0.328125q-0.46875 0.3125 -0.65625 0.703125q-0.015625 0.1875 -0.015625 0.3125q0 0.125 0 0.265625q0 0.421875 0.109375 0.828125q0.109375 0.390625 0.34375 0.703125q0.25 0.3125 0.59375 0.515625q0.359375 0.1875 0.84375 0.1875q0.390625 0 0.703125 -0.140625q0.3125 -0.15625 0.53125 -0.40625q0.234375 -0.265625 0.359375 -0.625q0.125 -0.359375 0.125 -0.765625z" fill-rule="nonzero"/><path fill="#000000" d="m610.0888 40.362694l3.34375 -7.8125l0.578125 -0.65625l-0.78125 0.125l-3.796875 0l0 -0.984375l5.578125 0l0 0.359375l-3.84375 8.96875l-1.078125 0z" fill-rule="nonzero"/><path shape-rendering="crispEdges" fill="#d9d9d9" d="m1041.1155 43.29485l64.165405 0l0 39.322834l-64.165405 0l0 -39.322834z" fill-rule="nonzero"/><path shape-rendering="crispEdges" fill="#d9d9d9" d="m1105.2809 43.29485l64.16528 0l0 39.322834l-64.16528 0l0 -39.322834z" fill-rule="nonzero"/><path shape-rendering="crispEdges" fill="#d9d9d9" d="m1169.4462 43.29485l64.165405 0l0 39.322834l-64.165405 0l0 -39.322834z" fill-rule="nonzero"/><path shape-rendering="crispEdges" fill="#d9d9d9" d="m1233.6116 43.29485l64.16528 0l0 39.322834l-64.16528 0l0 -39.322834z" fill-rule="nonzero"/><path stroke="#000000" stroke-width="2.0" stroke-linecap="butt" d="m784.45404 42.29485l0 41.322834" fill-rule="nonzero"/><path stroke="#000000" stroke-width="2.0" stroke-linecap="butt" d="m848.61945 42.29485l0 41.322834" fill-rule="nonzero"/><path stroke="#000000" stroke-width="2.0" stroke-linecap="butt" d="m912.7848 42.29485l0 41.322834" fill-rule="nonzero"/><path stroke="#000000" stroke-width="2.0" stroke-linecap="butt" d="m976.95013 42.29485l0 41.322834" fill-rule="nonzero"/><path stroke="#000000" stroke-width="2.0" stroke-linecap="butt" d="m1041.1155 42.29485l0 41.322834" fill-rule="nonzero"/><path stroke="#000000" stroke-width="2.0" stroke-linecap="butt" d="m1105.2809 42.29485l0 41.322834" fill-rule="nonzero"/><path stroke="#000000" stroke-width="2.0" stroke-linecap="butt" d="m1169.4462 42.29485l0 41.322834" fill-rule="nonzero"/><path stroke="#000000" stroke-width="2.0" stroke-linecap="butt" d="m1233.6116 42.29485l0 41.322834" fill-rule="nonzero"/><path stroke="#000000" stroke-width="2.0" stroke-linecap="butt" d="m1297.7769 42.29485l0 41.322834" fill-rule="nonzero"/><path stroke="#000000" stroke-width="2.0" stroke-linecap="butt" d="m783.45404 43.29485l515.3228 0" fill-rule="nonzero"/><path stroke="#000000" stroke-width="2.0" stroke-linecap="butt" d="m783.45404 82.61768l515.3228 0" fill-rule="nonzero"/><path fill="#000000" d="m813.483 35.422974q0 -2.390625 0.765625 -3.59375q0.78125 -1.21875 2.28125 -1.21875q1.609375 0 2.328125 1.1875q0.734375 1.1875 0.734375 3.625q0 2.40625 -0.78125 3.625q-0.78125 1.203125 -2.28125 1.203125q-1.578125 0 -2.3125 -1.265625q-0.734375 -1.265625 -0.734375 -3.5625zm1.09375 0q0 0.875 0.109375 1.59375q0.125 0.703125 0.359375 1.21875q0.25 0.515625 0.609375 0.8125q0.375 0.28125 0.875 0.28125q1.015625 0 1.484375 -0.9375q0.46875 -0.953125 0.46875 -2.96875q0 -0.84375 -0.09375 -1.5625q-0.09375 -0.71875 -0.328125 -1.234375q-0.234375 -0.53125 -0.609375 -0.8125q-0.375 -0.28125 -0.921875 -0.28125q-1.0 0 -1.484375 0.953125q-0.46875 0.953125 -0.46875 2.9375z" fill-rule="nonzero"/><path fill="#000000" d="m878.5077 39.110474l1.875 0l0 -6.453125l0.125 -0.78125l-0.53125 0.625l-1.46875 1.046875l-0.5 -0.671875l2.921875 -2.265625l0.484375 0l0 8.5l1.828125 0l0 0.984375l-4.734375 0l0 -0.984375z" fill-rule="nonzero"/><path fill="#000000" d="m947.17303 32.891724q0 0.703125 -0.265625 1.4375q-0.25 0.734375 -0.671875 1.484375q-0.421875 0.75 -0.9375 1.46875q-0.515625 0.703125 -1.03125 1.34375l-0.65625 0.578125l0 0.046875l0.84375 -0.140625l2.90625 0l0 0.984375l-5.296875 0l0 -0.390625q0.296875 -0.296875 0.703125 -0.75q0.421875 -0.453125 0.859375 -1.0q0.453125 -0.5625 0.875 -1.171875q0.4375 -0.625 0.78125 -1.265625q0.359375 -0.640625 0.578125 -1.265625q0.21875 -0.640625 0.21875 -1.1875q0 -0.65625 -0.375 -1.09375q-0.375 -0.4375 -1.140625 -0.4375q-0.5 0 -0.984375 0.21875q-0.484375 0.203125 -0.828125 0.46875l-0.4375 -0.765625q0.46875 -0.390625 1.109375 -0.609375q0.640625 -0.234375 1.375 -0.234375q0.5625 0 1.0 0.171875q0.453125 0.15625 0.75 0.46875q0.3125 0.296875 0.46875 0.71875q0.15625 0.421875 0.15625 0.921875z" fill-rule="nonzero"/><path fill="#000000" d="m1008.52594 39.329224q0.453125 0 0.828125 -0.140625q0.390625 -0.140625 0.671875 -0.390625q0.28125 -0.265625 0.4375 -0.625q0.15625 -0.359375 0.15625 -0.78125q0 -0.9375 -0.546875 -1.390625q-0.546875 -0.453125 -1.53125 -0.453125l-0.984375 0l0 -0.390625l1.921875 -2.953125l0.609375 -0.59375l-0.859375 0.140625l-2.640625 0l0 -0.984375l4.75 0l0 0.390625l-2.109375 3.1875l-0.46875 0.375l0 0.03125l0.453125 -0.09375q0.53125 0.015625 0.984375 0.203125q0.453125 0.171875 0.78125 0.515625q0.34375 0.328125 0.53125 0.8125q0.1875 0.46875 0.1875 1.0625q0 0.71875 -0.265625 1.28125q-0.25 0.5625 -0.6875 0.953125q-0.421875 0.375 -1.015625 0.578125q-0.578125 0.1875 -1.234375 0.1875q-0.59375 0 -1.078125 -0.09375q-0.484375 -0.09375 -0.84375 -0.234375l0.28125 -0.953125q0.3125 0.15625 0.71875 0.265625q0.421875 0.09375 0.953125 0.09375z" fill-rule="nonzero"/><path fill="#000000" d="m1076.5507 37.235474l-1.578125 0l0 2.859375l-1.03125 0l0 -2.859375l-4.109375 0l0 -0.453125l4.421875 -6.15625l0.71875 0l0 5.671875l1.578125 0l0 0.9375zm-2.609375 -3.84375l0.125 -1.09375l-0.03125 0l-0.46875 0.90625l-1.875 2.546875l-0.640625 0.65625l0.921875 -0.109375l1.96875 0l0 -2.90625z" fill-rule="nonzero"/><path fill="#000000" d="m1136.5753 39.329224q0.921875 0 1.515625 -0.53125q0.59375 -0.546875 0.59375 -1.5625q0 -0.96875 -0.59375 -1.4375q-0.59375 -0.484375 -1.625 -0.484375l-1.125 0.0625l0 -4.609375l4.15625 0l0 0.984375l-3.15625 0l0 2.65625l0.578125 -0.03125q1.3125 0.015625 2.078125 0.734375q0.765625 0.71875 0.765625 2.0625q0 0.75 -0.265625 1.328125q-0.25 0.578125 -0.6875 0.96875q-0.421875 0.390625 -1.015625 0.59375q-0.578125 0.1875 -1.25 0.1875q-0.59375 0 -1.015625 -0.0625q-0.40625 -0.0625 -0.765625 -0.203125l0.28125 -0.90625q0.296875 0.125 0.640625 0.1875q0.359375 0.0625 0.890625 0.0625z" fill-rule="nonzero"/><path fill="#000000" d="m1204.4595 37.28235q0 0.609375 -0.1875 1.15625q-0.1875 0.53125 -0.546875 0.9375q-0.359375 0.40625 -0.90625 0.640625q-0.53125 0.234375 -1.203125 0.234375q-0.671875 0 -1.203125 -0.203125q-0.53125 -0.21875 -0.921875 -0.640625q-0.375 -0.421875 -0.59375 -1.03125q-0.203125 -0.609375 -0.203125 -1.40625q0 -1.328125 0.34375 -2.4375q0.34375 -1.109375 0.9375 -1.9375q0.59375 -0.828125 1.40625 -1.34375q0.828125 -0.515625 1.796875 -0.640625l0.21875 0.84375q-0.734375 0.140625 -1.359375 0.515625q-0.609375 0.375 -1.078125 0.921875q-0.453125 0.546875 -0.75 1.234375q-0.28125 0.671875 -0.390625 1.390625q0.203125 -0.359375 0.703125 -0.65625q0.515625 -0.3125 1.25 -0.3125q1.25 0 1.96875 0.71875q0.71875 0.71875 0.71875 2.015625zm-1.109375 0.109375q0 -0.953125 -0.4375 -1.421875q-0.4375 -0.484375 -1.359375 -0.484375q-0.65625 0 -1.140625 0.328125q-0.46875 0.3125 -0.65625 0.703125q-0.015625 0.1875 -0.015625 0.3125q0 0.125 0 0.265625q0 0.421875 0.109375 0.828125q0.109375 0.390625 0.34375 0.703125q0.25 0.3125 0.59375 0.515625q0.359375 0.1875 0.84375 0.1875q0.390625 0 0.703125 -0.140625q0.3125 -0.15625 0.53125 -0.40625q0.234375 -0.265625 0.359375 -0.625q0.125 -0.359375 0.125 -0.765625z" fill-rule="nonzero"/><path fill="#000000" d="m1263.5311 40.09485l3.34375 -7.8125l0.578125 -0.65625l-0.78125 0.125l-3.796875 0l0 -0.984375l5.578125 0l0 0.359375l-3.84375 8.96875l-1.078125 0z" fill-rule="nonzero"/><path fill="#000000" d="m801.9001 68.73876q0.5 0 1.0 -0.46875q0.515625 -0.484375 0.953125 -1.15625q0.453125 -0.671875 0.796875 -1.390625q0.359375 -0.734375 0.578125 -1.21875l0.59375 -3.1874962q-0.28125 -0.1875 -0.515625 -0.25q-0.234375 -0.0625 -0.65625 -0.078125q-0.90625 0.015625 -1.609375 0.546875q-0.703125 0.53125 -1.203125 1.359375q-0.484375 0.828125 -0.734375 1.8593712q-0.25 1.015625 -0.25 2.015625q0 0.953125 0.234375 1.46875q0.234375 0.5 0.8125 0.5zm2.953125 -2.71875q-0.25 0.671875 -0.625 1.359375q-0.375 0.6875 -0.84375 1.25q-0.46875 0.5625 -1.046875 0.921875q-0.5625 0.34375 -1.21875 0.34375q-1.9375 0 -1.9375 -2.828125q0 -1.328125 0.359375 -2.5625q0.375 -1.2499962 1.078125 -2.2031212q0.71875 -0.96875 1.71875 -1.546875q1.015625 -0.578125 2.3125 -0.578125q0.484375 0 0.71875 0.078125q0.25 0.0625 0.625 0.21875l0.703125 -3.515625l-1.3125 -0.171875l0 -0.46875q0.28125 -0.109375 0.609375 -0.203125q0.34375 -0.109375 0.703125 -0.1875q0.375 -0.09375 0.75 -0.171875q0.375 -0.078125 0.6875 -0.109375l0.390625 0.15625l-2.5625 12.843746l1.375 0l0 0.46875q-0.375 0.296875 -0.90625 0.484375q-0.515625 0.1875 -1.015625 0.1875q-0.546875 0 -0.78125 -0.234375q-0.234375 -0.234375 -0.234375 -0.484375q0 -0.34375 0.125 -1.109375q0.140625 -0.765625 0.390625 -1.9375l-0.0625 0zm4.231079 0.1875q0 -0.984375 0.296875 -2.0625q0.3125 -1.0781212 0.953125 -1.9687462q0.640625 -0.890625 1.578125 -1.46875q0.953125 -0.578125 2.234375 -0.578125q1.453125 0 2.1875 0.890625q0.734375 0.890625 0.734375 2.65625q0 1.2187462 -0.359375 2.3593712q-0.34375 1.125 -0.984375 1.984375q-0.640625 0.859375 -1.53125 1.375q-0.890625 0.5 -1.96875 0.5q-1.4375 0 -2.296875 -0.921875q-0.84375 -0.921875 -0.84375 -2.765625zm4.6875 -5.281246q-0.921875 0.015625 -1.5 0.59375q-0.578125 0.578125 -0.921875 1.4375q-0.328125 0.859375 -0.46875 1.8593712q-0.125 0.984375 -0.125 1.796875q0 1.109375 0.484375 1.796875q0.5 0.6875 1.3125 0.6875q0.65625 0 1.15625 -0.484375q0.515625 -0.5 0.875 -1.3125q0.375 -0.8125 0.5625 -1.84375q0.203125 -1.03125 0.203125 -2.0624962q0 -1.109375 -0.390625 -1.78125q-0.375 -0.671875 -1.1875 -0.6875zm9.261658 -0.796875q0.90625 0 1.46875 0.21875q0.5625 0.21875 0.890625 0.484375q0.171875 -0.15625 0.4375 -0.296875q0.28125 -0.15625 0.59375 -0.28125q0.328125 -0.125 0.65625 -0.234375q0.34375 -0.125 0.640625 -0.21875q0.0625 0.09375 0.09375 0.28125q0.03125 0.1875 0.015625 0.421875q0 0.21875 -0.0625 0.453125q-0.0625 0.234375 -0.203125 0.421875l-1.921875 -0.140625q0.0625 0.171875 0.109375 0.390625q0.0625 0.21875 0.0625 0.46875q0 0.75 -0.3125 1.390625q-0.296875 0.6249962 -0.84375 1.0937462q-0.53125 0.453125 -1.25 0.71875q-0.71875 0.25 -1.53125 0.25q-0.3125 0 -0.515625 0q-0.1875 -0.015625 -0.4375 -0.078125q-0.15625 0.1875 -0.453125 0.453125q-0.28125 0.25 -0.28125 0.546875q0 0.3125 0.40625 0.484375q0.40625 0.15625 1.03125 0.296875q0.625 0.140625 1.34375 0.3125q0.734375 0.15625 1.359375 0.421875q0.625 0.265625 1.03125 0.703125q0.421875 0.421875 0.421875 1.140625q0 0.875 -0.5 1.5625q-0.484375 0.703125 -1.296875 1.203125q-0.8125 0.5 -1.859375 0.765625q-1.03125 0.265625 -2.09375 0.265625q-0.859375 0 -1.484375 -0.1875q-0.609375 -0.171875 -1.0 -0.484375q-0.390625 -0.296875 -0.578125 -0.6875q-0.1875 -0.390625 -0.1875 -0.828125q0 -0.515625 0.234375 -0.96875q0.234375 -0.4375 0.625 -0.84375q0.390625 -0.40625 0.890625 -0.734375q0.515625 -0.34375 1.046875 -0.640625q-0.265625 -0.140625 -0.453125 -0.390625q-0.171875 -0.265625 -0.171875 -0.578125q0 -0.28125 0.1875 -0.578125q0.1875 -0.3125 0.4375 -0.59375q0.25 -0.28125 0.5 -0.484375q0.25 -0.203125 0.390625 -0.296875q-0.234375 -0.0625 -0.46875 -0.203125q-0.234375 -0.15625 -0.4375 -0.390625q-0.203125 -0.25 -0.34375 -0.5625q-0.125 -0.3281212 -0.125 -0.7187462q0 -0.71875 0.3125 -1.328125q0.3125 -0.625 0.84375 -1.0625q0.546875 -0.4375 1.25 -0.6875q0.71875 -0.25 1.53125 -0.25zm-2.140625 12.703121q0.578125 0 1.140625 -0.171875q0.578125 -0.171875 1.03125 -0.484375q0.453125 -0.296875 0.734375 -0.765625q0.296875 -0.453125 0.296875 -1.03125q0 -0.546875 -0.453125 -0.859375q-0.453125 -0.3125 -1.109375 -0.5q-0.65625 -0.1875 -1.359375 -0.296875q-0.6875 -0.125 -1.1875 -0.296875q-0.890625 0.640625 -1.21875 1.328125q-0.3125 0.6875 -0.296875 1.28125q-0.015625 0.84375 0.640625 1.3125q0.65625 0.484375 1.78125 0.484375zm2.0 -11.968746q-0.546875 0 -0.96875 0.21875q-0.421875 0.203125 -0.71875 0.546875q-0.296875 0.34375 -0.453125 0.8125q-0.140625 0.46875 -0.140625 0.984375q0 0.7031212 0.453125 1.0468712q0.46875 0.328125 0.984375 0.328125q0.5625 0 0.953125 -0.1875q0.40625 -0.203125 0.671875 -0.53125q0.28125 -0.3437462 0.40625 -0.7656212q0.140625 -0.4375 0.140625 -0.890625q0 -0.703125 -0.328125 -1.125q-0.328125 -0.4375 -1.0 -0.4375zm8.7948 6.609371q-0.015625 -0.453125 -0.25 -0.765625q-0.234375 -0.328125 -0.59375 -0.625q-0.359375 -0.3125 -0.78125 -0.609375q-0.40625 -0.296875 -0.765625 -0.65625q-0.359375 -0.359375 -0.59375 -0.8281212q-0.234375 -0.484375 -0.234375 -1.15625q0 -0.671875 0.25 -1.171875q0.265625 -0.515625 0.71875 -0.84375q0.46875 -0.34375 1.109375 -0.515625q0.640625 -0.171875 1.40625 -0.171875q0.484375 0 1.09375 0.078125q0.609375 0.078125 1.140625 0.40625q0 0.203125 -0.078125 0.46875q-0.0625 0.265625 -0.1875 0.53125q-0.125 0.25 -0.28125 0.46875q-0.140625 0.203125 -0.296875 0.28125l-1.390625 -1.4375q-0.390625 0.015625 -0.734375 0.09375q-0.328125 0.078125 -0.578125 0.25q-0.25 0.15625 -0.390625 0.4375q-0.140625 0.265625 -0.140625 0.671875q0 0.484375 0.234375 0.828125q0.25 0.34375 0.609375 0.65625q0.375 0.3124962 0.78125 0.6093712q0.421875 0.28125 0.78125 0.640625q0.375 0.359375 0.609375 0.84375q0.25 0.46875 0.25 1.125q0 0.671875 -0.3125 1.203125q-0.296875 0.515625 -0.84375 0.875q-0.53125 0.359375 -1.234375 0.546875q-0.6875 0.1875 -1.46875 0.1875q-0.78125 0 -1.4375 -0.15625q-0.640625 -0.15625 -1.015625 -0.390625q0.09375 -0.5 0.21875 -0.953125q0.140625 -0.453125 0.546875 -0.84375l1.6875 1.546875q0.390625 0 0.765625 -0.09375q0.390625 -0.09375 0.6875 -0.296875q0.3125 -0.203125 0.5 -0.5q0.203125 -0.296875 0.21875 -0.734375z" fill-rule="nonzero"/><path fill="#000000" d="m864.41907 56.957516l-1.328125 -0.171875l0 -0.46875q0.265625 -0.109375 0.609375 -0.21875q0.34375 -0.109375 0.71875 -0.21875q0.390625 -0.109375 0.765625 -0.171875q0.375 -0.0625 0.671875 -0.0625l0.375 0.203125l-2.578125 12.781246l1.359375 0l0 0.484375q-0.375 0.296875 -0.90625 0.484375q-0.53125 0.1875 -1.03125 0.1875q-0.546875 0 -0.796875 -0.234375q-0.25 -0.25 -0.25 -0.5625q0 -0.375 0.046875 -0.71875q0.0625 -0.359375 0.15625 -0.796875l2.1875 -10.515621zm2.6834106 9.249996q0 -0.984375 0.296875 -2.0625q0.3125 -1.0781212 0.953125 -1.9687462q0.640625 -0.890625 1.578125 -1.46875q0.953125 -0.578125 2.234375 -0.578125q1.453125 0 2.1875 0.890625q0.734375 0.890625 0.734375 2.65625q0 1.2187462 -0.359375 2.3593712q-0.34375 1.125 -0.984375 1.984375q-0.640625 0.859375 -1.53125 1.375q-0.890625 0.5 -1.96875 0.5q-1.4375 0 -2.296875 -0.921875q-0.84375 -0.921875 -0.84375 -2.765625zm4.6875 -5.281246q-0.921875 0.015625 -1.5 0.59375q-0.578125 0.578125 -0.921875 1.4375q-0.328125 0.859375 -0.46875 1.8593712q-0.125 0.984375 -0.125 1.796875q0 1.109375 0.484375 1.796875q0.5 0.6875 1.3125 0.6875q0.65625 0 1.15625 -0.484375q0.515625 -0.5 0.875 -1.3125q0.375 -0.8125 0.5625 -1.84375q0.203125 -1.03125 0.203125 -2.0624962q0 -1.109375 -0.390625 -1.78125q-0.375 -0.671875 -1.1875 -0.6875zm8.683533 5.937496q0.671875 -1.125 1.1875 -2.171875q0.53125 -1.0624962 0.90625 -2.1249962q0 -0.203125 -0.046875 -0.53125q-0.046875 -0.328125 -0.09375 -0.65625q-0.046875 -0.34375 -0.109375 -0.625q-0.046875 -0.296875 -0.078125 -0.40625q0.53125 -0.21875 1.09375 -0.234375q0.578125 -0.015625 1.0 0.234375q-0.265625 1.15625 -0.765625 2.359375q-0.484375 1.203125 -1.109375 2.4062462q-0.625 1.1875 -1.359375 2.34375q-0.734375 1.15625 -1.53125 2.21875l-0.875 0.21875l-1.390625 -8.468746l-1.1875 -0.140625l0 -0.46875q0.109375 -0.078125 0.328125 -0.1875q0.234375 -0.125 0.5 -0.234375q0.265625 -0.125 0.546875 -0.1875q0.296875 -0.078125 0.5625 -0.078125q0.40625 0 0.578125 0.203125q0.1875 0.203125 0.25 0.5l0.859375 6.062496l0.09375 1.171875l0.03125 0l0.609375 -1.203125zm10.805847 1.15625q-0.171875 0.34375 -0.484375 0.6875q-0.3125 0.328125 -0.75 0.609375q-0.421875 0.265625 -0.96875 0.421875q-0.53125 0.15625 -1.15625 0.15625q-1.546875 0 -2.375 -0.875q-0.828125 -0.890625 -0.828125 -2.453125q0 -1.328125 0.375 -2.5q0.375 -1.1874962 1.03125 -2.0624962q0.671875 -0.875 1.625 -1.375q0.96875 -0.5 2.15625 -0.5q0.890625 0 1.53125 0.453125q0.640625 0.453125 0.640625 1.34375q0 1.328125 -1.3125 2.0937462q-1.3125 0.765625 -4.234375 0.984375q-0.078125 0.328125 -0.109375 0.625q-0.03125 0.296875 -0.03125 0.578125q0 1.125 0.5625 1.828125q0.578125 0.703125 1.6875 0.703125q0.34375 0 0.6875 -0.109375q0.34375 -0.109375 0.65625 -0.28125q0.3125 -0.171875 0.5625 -0.34375q0.25 -0.1875 0.4375 -0.34375l0.296875 0.359375zm-1.953125 -7.093746q-0.8125 0.015625 -1.5 0.765625q-0.6875 0.734375 -1.171875 2.5156212q1.8125 -0.046875 2.8125 -0.6093712q1.015625 -0.578125 1.015625 -1.59375q0 -0.390625 -0.234375 -0.71875q-0.234375 -0.34375 -0.921875 -0.359375zm7.8605957 6.546871q-0.015625 -0.453125 -0.25 -0.765625q-0.234375 -0.328125 -0.59375 -0.625q-0.359375 -0.3125 -0.78125 -0.609375q-0.40625 -0.296875 -0.765625 -0.65625q-0.359375 -0.359375 -0.59375 -0.8281212q-0.234375 -0.484375 -0.234375 -1.15625q0 -0.671875 0.25 -1.171875q0.265625 -0.515625 0.71875 -0.84375q0.46875 -0.34375 1.109375 -0.515625q0.640625 -0.171875 1.40625 -0.171875q0.484375 0 1.09375 0.078125q0.609375 0.078125 1.140625 0.40625q0 0.203125 -0.078125 0.46875q-0.0625 0.265625 -0.1875 0.53125q-0.125 0.25 -0.28125 0.46875q-0.140625 0.203125 -0.296875 0.28125l-1.390625 -1.4375q-0.390625 0.015625 -0.734375 0.09375q-0.328125 0.078125 -0.578125 0.25q-0.25 0.15625 -0.390625 0.4375q-0.140625 0.265625 -0.140625 0.671875q0 0.484375 0.234375 0.828125q0.25 0.34375 0.609375 0.65625q0.375 0.3124962 0.78125 0.6093712q0.421875 0.28125 0.78125 0.640625q0.375 0.359375 0.609375 0.84375q0.25 0.46875 0.25 1.125q0 0.671875 -0.3125 1.203125q-0.296875 0.515625 -0.84375 0.875q-0.53125 0.359375 -1.234375 0.546875q-0.6875 0.1875 -1.46875 0.1875q-0.78125 0 -1.4375 -0.15625q-0.640625 -0.15625 -1.015625 -0.390625q0.09375 -0.5 0.21875 -0.953125q0.140625 -0.453125 0.546875 -0.84375l1.6875 1.546875q0.390625 0 0.765625 -0.09375q0.390625 -0.09375 0.6875 -0.296875q0.3125 -0.203125 0.5 -0.5q0.203125 -0.296875 0.21875 -0.734375z" fill-rule="nonzero"/><path fill="#000000" d="m939.87524 68.02001q-0.203125 0.34375 -0.53125 0.6875q-0.3125 0.328125 -0.75 0.609375q-0.421875 0.265625 -0.953125 0.421875q-0.53125 0.15625 -1.15625 0.15625q-1.390625 0 -2.1875 -0.875q-0.796875 -0.875 -0.796875 -2.390625q0 -1.34375 0.421875 -2.515625q0.4375 -1.1874962 1.171875 -2.0781212q0.734375 -0.890625 1.734375 -1.390625q1.0 -0.515625 2.140625 -0.515625q0.703125 0 1.140625 0.109375q0.453125 0.109375 0.6875 0.3125q0.015625 0.203125 -0.03125 0.46875q-0.046875 0.25 -0.15625 0.5q-0.09375 0.234375 -0.265625 0.4375q-0.15625 0.203125 -0.3125 0.28125l-1.28125 -1.3125q-0.625 0.015625 -1.25 0.390625q-0.625 0.375 -1.125 1.0625q-0.484375 0.6875 -0.796875 1.6718712q-0.3125 0.984375 -0.296875 2.203125q-0.015625 1.296875 0.515625 1.890625q0.53125 0.59375 1.453125 0.59375q0.390625 0 0.734375 -0.109375q0.34375 -0.109375 0.640625 -0.28125q0.296875 -0.171875 0.53125 -0.34375q0.25 -0.1875 0.4375 -0.34375l0.28125 0.359375zm4.3724365 0.71875q0.5 0 1.0 -0.46875q0.5 -0.484375 0.953125 -1.15625q0.453125 -0.671875 0.796875 -1.390625q0.359375 -0.734375 0.5625 -1.21875l0.59375 -3.1874962q-0.25 -0.1875 -0.5 -0.25q-0.234375 -0.078125 -0.671875 -0.078125q-0.859375 0 -1.5625 0.53125q-0.6875 0.53125 -1.1875 1.375q-0.5 0.828125 -0.765625 1.8593712q-0.265625 1.015625 -0.265625 2.015625q0 0.953125 0.234375 1.46875q0.234375 0.5 0.8125 0.5zm2.9375 -2.71875q-0.234375 0.671875 -0.609375 1.359375q-0.359375 0.6875 -0.84375 1.25q-0.46875 0.5625 -1.046875 0.921875q-0.578125 0.34375 -1.21875 0.34375q-1.953125 0 -1.953125 -2.8125q0 -1.3125 0.375 -2.546875q0.375 -1.2343712 1.078125 -2.2031212q0.71875 -0.984375 1.734375 -1.5625q1.015625 -0.59375 2.296875 -0.59375q0.46875 0 0.75 0.09375q0.28125 0.078125 0.671875 0.25q0.75 -0.390625 1.5625 -0.390625l-1.671875 8.515621l1.359375 0l0 0.46875q-0.375 0.296875 -0.90625 0.484375q-0.515625 0.1875 -1.015625 0.1875q-0.53125 0 -0.765625 -0.234375q-0.234375 -0.234375 -0.234375 -0.484375q0 -0.34375 0.125 -1.109375q0.125 -0.765625 0.390625 -1.9375l-0.078125 0zm4.512329 -5.218746q0.375 -0.203125 0.796875 -0.375q0.421875 -0.171875 0.828125 -0.265625l0.296875 -1.421875q0.265625 -0.203125 0.609375 -0.359375q0.34375 -0.15625 0.71875 -0.3125l0.390625 0.234375l-0.4375 2.046875l2.3125 0q0.03125 0.21875 -0.015625 0.46875q-0.03125 0.234375 -0.171875 0.46875l-2.3125 0l-1.1875 5.406246q-0.0625 0.359375 -0.109375 0.625q-0.03125 0.265625 -0.03125 0.5q0 0.484375 0.28125 0.703125q0.28125 0.21875 0.609375 0.21875q0.46875 0 1.0 -0.171875q0.53125 -0.171875 0.984375 -0.40625l0.203125 0.34375q-0.171875 0.234375 -0.515625 0.484375q-0.328125 0.234375 -0.75 0.453125q-0.421875 0.203125 -0.875 0.328125q-0.453125 0.125 -0.859375 0.125q-0.828125 0 -1.296875 -0.359375q-0.46875 -0.375 -0.46875 -1.171875q0 -0.25 0.046875 -0.5625q0.046875 -0.328125 0.125 -0.65625l1.234375 -5.859371l-1.421875 0l0.015625 -0.484375z" fill-rule="nonzero"/><path fill="#000000" d="m995.9634 68.02001q-0.171875 0.34375 -0.484375 0.6875q-0.3125 0.328125 -0.75 0.609375q-0.421875 0.265625 -0.96875 0.421875q-0.53125 0.15625 -1.15625 0.15625q-1.546875 0 -2.375 -0.875q-0.828125 -0.890625 -0.828125 -2.453125q0 -1.328125 0.375 -2.5q0.375 -1.1874962 1.03125 -2.0624962q0.671875 -0.875 1.625 -1.375q0.96875 -0.5 2.15625 -0.5q0.890625 0 1.53125 0.453125q0.640625 0.453125 0.640625 1.34375q0 1.328125 -1.3125 2.0937462q-1.3125 0.765625 -4.234375 0.984375q-0.078125 0.328125 -0.109375 0.625q-0.03125 0.296875 -0.03125 0.578125q0 1.125 0.5625 1.828125q0.578125 0.703125 1.6875 0.703125q0.34375 0 0.6875 -0.109375q0.34375 -0.109375 0.65625 -0.28125q0.3125 -0.171875 0.5625 -0.34375q0.25 -0.1875 0.4375 -0.34375l0.296875 0.359375zm-1.953125 -7.093746q-0.8125 0.015625 -1.5 0.765625q-0.6875 0.734375 -1.171875 2.5156212q1.8125 -0.046875 2.8125 -0.6093712q1.015625 -0.578125 1.015625 -1.59375q0 -0.390625 -0.234375 -0.71875q-0.234375 -0.34375 -0.921875 -0.359375zm7.7698975 5.937496q0.671875 -1.125 1.1875 -2.171875q0.53125 -1.0624962 0.90625 -2.1249962q0 -0.203125 -0.046875 -0.53125q-0.046875 -0.328125 -0.09375 -0.65625q-0.046875 -0.34375 -0.109375 -0.625q-0.046875 -0.296875 -0.078125 -0.40625q0.53125 -0.21875 1.09375 -0.234375q0.578125 -0.015625 1.0 0.234375q-0.265625 1.15625 -0.765625 2.359375q-0.484375 1.203125 -1.109375 2.4062462q-0.625 1.1875 -1.359375 2.34375q-0.734375 1.15625 -1.53125 2.21875l-0.875 0.21875l-1.390625 -8.468746l-1.1875 -0.140625l0 -0.46875q0.109375 -0.078125 0.328125 -0.1875q0.234375 -0.125 0.5 -0.234375q0.265625 -0.125 0.546875 -0.1875q0.296875 -0.078125 0.5625 -0.078125q0.40625 0 0.578125 0.203125q0.1875 0.203125 0.25 0.5l0.859375 6.062496l0.09375 1.171875l0.03125 0l0.609375 -1.203125zm10.805847 1.15625q-0.171875 0.34375 -0.484375 0.6875q-0.3125 0.328125 -0.75 0.609375q-0.421875 0.265625 -0.96875 0.421875q-0.53125 0.15625 -1.15625 0.15625q-1.546875 0 -2.375 -0.875q-0.828125 -0.890625 -0.828125 -2.453125q0 -1.328125 0.375 -2.5q0.375 -1.1874962 1.03125 -2.0624962q0.671875 -0.875 1.625 -1.375q0.96875 -0.5 2.15625 -0.5q0.890625 0 1.53125 0.453125q0.640625 0.453125 0.640625 1.34375q0 1.328125 -1.3125 2.0937462q-1.3125 0.765625 -4.234375 0.984375q-0.078125 0.328125 -0.109375 0.625q-0.03125 0.296875 -0.03125 0.578125q0 1.125 0.5625 1.828125q0.578125 0.703125 1.6875 0.703125q0.34375 0 0.6875 -0.109375q0.34375 -0.109375 0.65625 -0.28125q0.3125 -0.171875 0.5625 -0.34375q0.25 -0.1875 0.4375 -0.34375l0.296875 0.359375zm-1.953125 -7.093746q-0.8125 0.015625 -1.5 0.765625q-0.6875 0.734375 -1.171875 2.5156212q1.8125 -0.046875 2.8125 -0.6093712q1.015625 -0.578125 1.015625 -1.59375q0 -0.390625 -0.234375 -0.71875q-0.234375 -0.34375 -0.921875 -0.359375zm8.798096 0.5625q-0.484375 0.1875 -1.09375 0.9375q-0.59375 0.75 -1.0625 2.0468712l-1.125 5.203125l-1.609375 0l1.734375 -8.249996l-1.125 -0.15625l0 -0.46875q0.625 -0.296875 1.3125 -0.453125q0.703125 -0.171875 1.25 -0.21875l0.375 0.21875l-0.515625 2.484375l0.078125 0q0.53125 -1.234375 1.3125 -1.96875q0.78125 -0.734375 1.6875 -0.734375q0.234375 0 0.46875 0.046875q0.25 0.046875 0.484375 0.171875q0 0.171875 -0.0625 0.4375q-0.046875 0.265625 -0.15625 0.546875q-0.109375 0.28125 -0.234375 0.53125q-0.109375 0.25 -0.25 0.390625l-1.46875 -0.765625zm3.1357422 -0.0625l-1.1875 -0.140625l0 -0.46875q0.09375 -0.078125 0.296875 -0.1875q0.21875 -0.109375 0.5 -0.21875q0.28125 -0.125 0.578125 -0.203125q0.296875 -0.078125 0.5625 -0.078125q0.390625 0 0.5625 0.203125q0.18756104 0.1875 0.28131104 0.5l1.546875 6.531246l0.046875 1.125l0.046875 0l0.421875 -1.109375q0.25 -0.515625 0.5 -1.140625q0.25 -0.625 0.484375 -1.25q0.25 -0.640625 0.453125 -1.2499962q0.203125 -0.625 0.359375 -1.15625q0 -0.203125 -0.046875 -0.53125q-0.046875 -0.34375 -0.109375 -0.671875q-0.046875 -0.34375 -0.109375 -0.625q-0.0625 -0.296875 -0.09375 -0.40625q0.265625 -0.109375 0.5625 -0.15625q0.296875 -0.0625 0.578125 -0.0625q0.5625 0 0.984375 0.21875q-0.578125 2.3125 -1.578125 4.624996q-1.0 2.3125 -2.203125 4.703125q-1.015625 1.953125 -2.031311 2.921875q-1.0 0.984375 -2.265625 0.984375q-0.28125 0 -0.53125 -0.078125q-0.25 -0.078125 -0.53125 -0.234375q-0.015625 -0.203125 0.046875 -0.46875q0.046875 -0.25 0.171875 -0.515625q0.125 -0.265625 0.3125 -0.484375q0.203125 -0.21875 0.4375 -0.359375l1.515625 0.796875q0.125 -0.09375 0.328125 -0.28125q0.21875 -0.171875 0.4375 -0.484375q0.21881104 -0.296875 0.43756104 -0.75q0.234375 -0.4375 0.4375 -1.046875l-2.203186 -8.249996z" fill-rule="nonzero"/><path fill="#000000" fill-opacity="0.0" d="m168.13742 120.06008c0 -3.5138168 2.8485107 -6.3623276 6.36232 -6.3623276l73.82652 0c1.6873932 0 3.3056793 0.670311 4.4988403 1.8634796c1.1931763 1.1931686 1.8634949 2.8114548 1.8634949 4.498848l0 25.44857c0 3.5138092 -2.8485107 6.362335 -6.362335 6.362335l-73.82652 0c-3.5138092 0 -6.36232 -2.848526 -6.36232 -6.362335z" fill-rule="evenodd"/><path stroke="#000000" stroke-width="2.0" stroke-linejoin="round" stroke-linecap="butt" d="m168.13742 120.06008c0 -3.5138168 2.8485107 -6.3623276 6.36232 -6.3623276l73.82652 0c1.6873932 0 3.3056793 0.670311 4.4988403 1.8634796c1.1931763 1.1931686 1.8634949 2.8114548 1.8634949 4.498848l0 25.44857c0 3.5138092 -2.8485107 6.362335 -6.362335 6.362335l-73.82652 0c-3.5138092 0 -6.36232 -2.848526 -6.36232 -6.362335z" fill-rule="evenodd"/><path fill="#000000" d="m194.68546 137.97871q0.578125 0 1.140625 -0.546875q0.578125 -0.546875 1.09375 -1.3125q0.515625 -0.765625 0.921875 -1.59375q0.40625 -0.84375 0.640625 -1.390625l0.671875 -3.65625q-0.3125 -0.203125 -0.578125 -0.28125q-0.265625 -0.078125 -0.765625 -0.09375q-1.015625 0.015625 -1.828125 0.625q-0.8125 0.609375 -1.375 1.5625q-0.546875 0.953125 -0.84375 2.125q-0.28125 1.171875 -0.28125 2.296875q0 1.09375 0.265625 1.6875q0.265625 0.578125 0.9375 0.578125zm3.359375 -3.125q-0.265625 0.78125 -0.703125 1.578125q-0.421875 0.78125 -0.96875 1.421875q-0.546875 0.640625 -1.203125 1.046875q-0.640625 0.390625 -1.390625 0.390625q-2.21875 0 -2.21875 -3.234375q0 -1.515625 0.421875 -2.9375q0.4375 -1.421875 1.25 -2.515625q0.8125 -1.09375 1.953125 -1.75q1.15625 -0.671875 2.625 -0.671875q0.5625 0 0.828125 0.078125q0.28125 0.078125 0.71875 0.265625l0.8125 -4.03125l-1.5 -0.1875l0 -0.53125q0.3125 -0.140625 0.703125 -0.25q0.390625 -0.125 0.796875 -0.21875q0.421875 -0.09375 0.84375 -0.171875q0.421875 -0.09375 0.796875 -0.125l0.4375 0.15625l-2.921875 14.703125l1.5625 0l0 0.53125q-0.421875 0.34375 -1.03125 0.5625q-0.59375 0.203125 -1.171875 0.203125q-0.609375 0 -0.875 -0.265625q-0.265625 -0.265625 -0.265625 -0.5625q0 -0.390625 0.140625 -1.265625q0.15625 -0.875 0.453125 -2.21875l-0.09375 0zm4.8480988 0.21875q0 -1.125 0.34375 -2.34375q0.359375 -1.234375 1.078125 -2.25q0.734375 -1.03125 1.8125 -1.6875q1.09375 -0.671875 2.546875 -0.671875q1.65625 0 2.5 1.03125q0.84375 1.015625 0.84375 3.015625q0 1.421875 -0.40625 2.71875q-0.40625 1.28125 -1.140625 2.265625q-0.71875 0.96875 -1.75 1.5625q-1.015625 0.578125 -2.25 0.578125q-1.640625 0 -2.609375 -1.046875q-0.96875 -1.0625 -0.96875 -3.171875zm5.359375 -6.03125q-1.046875 0.015625 -1.71875 0.6875q-0.65625 0.65625 -1.046875 1.640625q-0.375 0.96875 -0.53125 2.109375q-0.140625 1.125 -0.140625 2.0625q0 1.265625 0.546875 2.0625q0.5625 0.78125 1.5 0.78125q0.75 0 1.328125 -0.5625q0.59375 -0.578125 1.0 -1.5q0.421875 -0.921875 0.640625 -2.09375q0.234375 -1.1875 0.234375 -2.375q0 -1.265625 -0.4375 -2.03125q-0.4375 -0.765625 -1.375 -0.78125zm10.590439 -0.921875q1.03125 0 1.671875 0.265625q0.65625 0.25 1.015625 0.546875q0.1875 -0.171875 0.5 -0.34375q0.328125 -0.171875 0.6875 -0.3125q0.375 -0.15625 0.75 -0.28125q0.390625 -0.125 0.734375 -0.234375q0.0625 0.109375 0.09375 0.328125q0.046875 0.203125 0.03125 0.46875q0 0.25 -0.078125 0.515625q-0.078125 0.265625 -0.21875 0.484375l-2.203125 -0.15625q0.0625 0.1875 0.125 0.4375q0.078125 0.25 0.078125 0.546875q0 0.84375 -0.359375 1.578125q-0.34375 0.71875 -0.96875 1.25q-0.625 0.515625 -1.453125 0.8125q-0.8125 0.296875 -1.71875 0.296875q-0.375 0 -0.59375 0q-0.21875 -0.015625 -0.5 -0.078125q-0.1875 0.21875 -0.53125 0.5q-0.328125 0.28125 -0.328125 0.625q0 0.359375 0.46875 0.5625q0.46875 0.1875 1.1875 0.34375q0.71875 0.15625 1.546875 0.34375q0.828125 0.1875 1.546875 0.5q0.71875 0.296875 1.1875 0.796875q0.46875 0.484375 0.46875 1.296875q0 1.0 -0.5625 1.796875q-0.5625 0.796875 -1.5 1.359375q-0.921875 0.578125 -2.109375 0.875q-1.1875 0.3125 -2.40625 0.3125q-0.96875 0 -1.671875 -0.203125q-0.703125 -0.203125 -1.15625 -0.5625q-0.453125 -0.34375 -0.65625 -0.796875q-0.21875 -0.4375 -0.21875 -0.921875q0 -0.609375 0.265625 -1.125q0.265625 -0.5 0.71875 -0.953125q0.4375 -0.46875 1.015625 -0.84375q0.578125 -0.390625 1.203125 -0.734375q-0.328125 -0.171875 -0.53125 -0.453125q-0.203125 -0.296875 -0.203125 -0.65625q0 -0.3125 0.21875 -0.65625q0.21875 -0.359375 0.5 -0.671875q0.28125 -0.328125 0.5625 -0.5625q0.296875 -0.234375 0.453125 -0.34375q-0.265625 -0.0625 -0.53125 -0.234375q-0.265625 -0.171875 -0.5 -0.4375q-0.234375 -0.28125 -0.390625 -0.640625q-0.140625 -0.375 -0.140625 -0.828125q0 -0.828125 0.34375 -1.53125q0.359375 -0.703125 0.96875 -1.203125q0.625 -0.5 1.4375 -0.78125q0.8125 -0.296875 1.75 -0.296875zm-2.453125 14.53125q0.671875 0 1.3125 -0.203125q0.65625 -0.1875 1.171875 -0.546875q0.53125 -0.34375 0.859375 -0.875q0.328125 -0.515625 0.328125 -1.171875q0 -0.640625 -0.53125 -0.984375q-0.515625 -0.359375 -1.265625 -0.5625q-0.734375 -0.21875 -1.546875 -0.359375q-0.796875 -0.140625 -1.375 -0.328125q-1.0 0.71875 -1.375 1.5q-0.375 0.796875 -0.34375 1.484375q-0.03125 0.953125 0.71875 1.5q0.765625 0.546875 2.046875 0.546875zm2.28125 -13.671875q-0.609375 0 -1.09375 0.234375q-0.484375 0.234375 -0.828125 0.625q-0.328125 0.390625 -0.5 0.9375q-0.171875 0.53125 -0.171875 1.125q0 0.8125 0.515625 1.203125q0.53125 0.375 1.125 0.375q0.640625 0 1.09375 -0.21875q0.46875 -0.234375 0.765625 -0.609375q0.3125 -0.390625 0.453125 -0.875q0.15625 -0.5 0.15625 -1.03125q0 -0.78125 -0.375 -1.265625q-0.375 -0.5 -1.140625 -0.5zm10.070114 7.546875q-0.015625 -0.515625 -0.28125 -0.890625q-0.265625 -0.375 -0.6875 -0.703125q-0.421875 -0.34375 -0.890625 -0.6875q-0.46875 -0.34375 -0.890625 -0.75q-0.40625 -0.421875 -0.671875 -0.96875q-0.265625 -0.546875 -0.265625 -1.3125q0 -0.765625 0.296875 -1.34375q0.296875 -0.578125 0.8125 -0.953125q0.53125 -0.390625 1.265625 -0.59375q0.734375 -0.203125 1.609375 -0.203125q0.5625 0 1.25 0.09375q0.6875 0.09375 1.3125 0.46875q0 0.234375 -0.09375 0.546875q-0.078125 0.296875 -0.21875 0.59375q-0.140625 0.28125 -0.3125 0.53125q-0.171875 0.234375 -0.359375 0.328125l-1.578125 -1.640625q-0.4375 0.015625 -0.828125 0.109375q-0.390625 0.078125 -0.671875 0.28125q-0.28125 0.1875 -0.453125 0.5q-0.15625 0.296875 -0.15625 0.765625q0 0.5625 0.28125 0.953125q0.28125 0.390625 0.6875 0.75q0.421875 0.34375 0.890625 0.6875q0.484375 0.328125 0.890625 0.75q0.421875 0.40625 0.703125 0.953125q0.28125 0.53125 0.28125 1.28125q0 0.765625 -0.359375 1.375q-0.34375 0.59375 -0.953125 1.015625q-0.609375 0.40625 -1.40625 0.609375q-0.796875 0.21875 -1.703125 0.21875q-0.890625 0 -1.625 -0.1875q-0.734375 -0.171875 -1.15625 -0.453125q0.09375 -0.546875 0.234375 -1.0625q0.15625 -0.53125 0.640625 -0.984375l1.90625 1.78125q0.453125 0 0.890625 -0.109375q0.4375 -0.109375 0.78125 -0.34375q0.359375 -0.234375 0.578125 -0.578125q0.234375 -0.34375 0.25 -0.828125z" fill-rule="nonzero"/><path fill="#000000" fill-opacity="0.0" d="m235.63509 57.707005c0 13.997761 -6.05513 20.995518 -12.110245 27.995518c-6.0551147 7.0 -12.1102295 14.002243 -12.1102295 28.004478" fill-rule="evenodd"/><path stroke="#000000" stroke-width="2.0" stroke-linejoin="round" stroke-linecap="butt" d="m234.96808 65.2576l-0.03175354 0.17151642c-0.03453064 0.17880249 -0.07022095 0.35623932 -0.10708618 0.5323334c-0.07374573 0.35220337 -0.15209961 0.69905853 -0.23487854 1.0407867c-0.6622772 2.7338486 -1.6083832 5.1396103 -2.7437134 7.3266907c-2.2706757 4.374161 -5.298233 7.873596 -8.32579 11.373596c-3.0275574 3.5 -6.0551147 7.0005646 -8.32579 11.376404c-0.5676727 1.093956 -1.088028 2.2426147 -1.5492554 3.4596558c-0.11532593 0.30426788 -0.22692871 0.6128006 -0.3346405 0.92581177l-0.12568665 0.374588" fill-rule="evenodd"/><path fill="#000000" stroke="#000000" stroke-width="2.0" stroke-linecap="butt" d="m235.54709 58.703125c1.809967 0.15988922 3.1476288 1.7567749 2.987732 3.5667458c-0.15988159 1.8099632 -1.7567749 3.1476173 -3.566742 2.987728c-1.809967 -0.15988922 -3.1476135 -1.7567711 -2.987732 -3.5667381c0.15989685 -1.8099709 1.7567749 -3.147625 3.566742 -2.9877357z" fill-rule="nonzero"/><path fill="#000000" stroke="#000000" stroke-width="2.0" stroke-linecap="butt" d="m209.92235 101.35038l1.9247131 9.464973l4.609558 -8.48777z" fill-rule="evenodd"/><path fill="#000000" fill-opacity="0.0" d="m222.21776 47.65976l26.83464 0l0 10.047245l-26.83464 0z" fill-rule="evenodd"/><path fill="#000000" fill-opacity="0.0" d="m246.18936 170.63751c0 -3.5138245 2.8485107 -6.362335 6.362335 -6.362335l73.82651 0c1.6874084 0 3.3056946 0.6703186 4.498871 1.8634796c1.1931458 1.1931763 1.8634644 2.8114624 1.8634644 4.4988556l0 25.448563c0 3.5138245 -2.8485107 6.362335 -6.362335 6.362335l-73.82651 0c-3.5138245 0 -6.362335 -2.8485107 -6.362335 -6.362335z" fill-rule="evenodd"/><path stroke="#000000" stroke-width="2.0" stroke-linejoin="round" stroke-linecap="butt" d="m246.18936 170.63751c0 -3.5138245 2.8485107 -6.362335 6.362335 -6.362335l73.82651 0c1.6874084 0 3.3056946 0.6703186 4.498871 1.8634796c1.1931458 1.1931763 1.8634644 2.8114624 1.8634644 4.4988556l0 25.448563c0 3.5138245 -2.8485107 6.362335 -6.362335 6.362335l-73.82651 0c-3.5138245 0 -6.362335 -2.8485107 -6.362335 -6.362335z" fill-rule="evenodd"/><path fill="#000000" d="m270.8531 175.07176l-1.515625 -0.1875l0 -0.53125q0.296875 -0.140625 0.6875 -0.265625q0.390625 -0.125 0.828125 -0.234375q0.4375 -0.125 0.859375 -0.1875q0.4375 -0.078125 0.78125 -0.078125l0.421875 0.234375l-2.9375 14.609375l1.546875 0l0 0.546875q-0.421875 0.34375 -1.03125 0.5625q-0.609375 0.203125 -1.1875 0.203125q-0.609375 0 -0.90625 -0.265625q-0.28125 -0.28125 -0.28125 -0.65625q0 -0.421875 0.0625 -0.828125q0.0625 -0.40625 0.171875 -0.890625l2.5 -12.03125zm3.0641785 10.578125q0 -1.125 0.34375 -2.34375q0.359375 -1.234375 1.078125 -2.25q0.734375 -1.03125 1.8125 -1.6875q1.09375 -0.671875 2.546875 -0.671875q1.65625 0 2.5 1.03125q0.84375 1.015625 0.84375 3.015625q0 1.421875 -0.40625 2.71875q-0.40625 1.28125 -1.140625 2.265625q-0.71875 0.96875 -1.75 1.5625q-1.015625 0.578125 -2.25 0.578125q-1.640625 0 -2.609375 -1.046875q-0.96875 -1.0625 -0.96875 -3.171875zm5.359375 -6.03125q-1.046875 0.015625 -1.71875 0.6875q-0.65625 0.65625 -1.046875 1.640625q-0.375 0.96875 -0.53125 2.109375q-0.140625 1.125 -0.140625 2.0625q0 1.265625 0.546875 2.0625q0.5625 0.78125 1.5 0.78125q0.75 0 1.328125 -0.5625q0.59375 -0.578125 1.0 -1.5q0.421875 -0.921875 0.640625 -2.09375q0.234375 -1.1875 0.234375 -2.375q0 -1.265625 -0.4375 -2.03125q-0.4375 -0.765625 -1.375 -0.78125zm9.934174 6.78125q0.765625 -1.28125 1.359375 -2.484375q0.59375 -1.203125 1.03125 -2.421875q0 -0.234375 -0.0625 -0.609375q-0.046875 -0.375 -0.109375 -0.75q-0.046875 -0.390625 -0.109375 -0.71875q-0.0625 -0.328125 -0.109375 -0.46875q0.625 -0.25 1.265625 -0.25q0.65625 -0.015625 1.140625 0.25q-0.3125 1.328125 -0.875 2.703125q-0.546875 1.375 -1.265625 2.75q-0.703125 1.359375 -1.546875 2.6875q-0.84375 1.3125 -1.765625 2.53125l-1.0 0.25l-1.578125 -9.671875l-1.375 -0.171875l0 -0.53125q0.140625 -0.09375 0.390625 -0.234375q0.25 -0.140625 0.5625 -0.265625q0.3125 -0.125 0.640625 -0.203125q0.328125 -0.09375 0.625 -0.09375q0.46875 0 0.671875 0.234375q0.203125 0.234375 0.265625 0.578125l0.984375 6.9375l0.109375 1.34375l0.046875 0l0.703125 -1.390625zm12.345917 1.328125q-0.1875 0.390625 -0.5625 0.78125q-0.359375 0.390625 -0.84375 0.703125q-0.484375 0.296875 -1.109375 0.46875q-0.625 0.1875 -1.328125 0.1875q-1.765625 0 -2.71875 -1.0q-0.9375 -1.015625 -0.9375 -2.8125q0 -1.515625 0.421875 -2.859375q0.421875 -1.34375 1.1875 -2.34375q0.765625 -1.0 1.859375 -1.578125q1.109375 -0.578125 2.453125 -0.578125q1.03125 0 1.765625 0.53125q0.734375 0.515625 0.734375 1.546875q0 1.5 -1.515625 2.375q-1.5 0.875 -4.84375 1.140625q-0.078125 0.359375 -0.125 0.703125q-0.03125 0.34375 -0.03125 0.65625q0 1.28125 0.65625 2.09375q0.65625 0.8125 1.90625 0.8125q0.40625 0 0.796875 -0.125q0.40625 -0.140625 0.75 -0.328125q0.359375 -0.1875 0.640625 -0.40625q0.296875 -0.21875 0.5 -0.375l0.34375 0.40625zm-2.234375 -8.109375q-0.921875 0.015625 -1.71875 0.859375q-0.78125 0.84375 -1.328125 2.890625q2.0625 -0.0625 3.203125 -0.703125q1.15625 -0.65625 1.15625 -1.8125q0 -0.453125 -0.265625 -0.828125q-0.265625 -0.390625 -1.046875 -0.40625zm8.995514 7.484375q-0.015625 -0.515625 -0.28125 -0.890625q-0.265625 -0.375 -0.6875 -0.703125q-0.421875 -0.34375 -0.890625 -0.6875q-0.46875 -0.34375 -0.890625 -0.75q-0.40625 -0.421875 -0.671875 -0.96875q-0.265625 -0.546875 -0.265625 -1.3125q0 -0.765625 0.296875 -1.34375q0.296875 -0.578125 0.8125 -0.953125q0.53125 -0.390625 1.265625 -0.59375q0.734375 -0.203125 1.609375 -0.203125q0.5625 0 1.25 0.09375q0.6875 0.09375 1.3125 0.46875q0 0.234375 -0.09375 0.546875q-0.078125 0.296875 -0.21875 0.59375q-0.140625 0.28125 -0.3125 0.53125q-0.171875 0.234375 -0.359375 0.328125l-1.578125 -1.640625q-0.4375 0.015625 -0.828125 0.109375q-0.390625 0.078125 -0.671875 0.28125q-0.28125 0.1875 -0.453125 0.5q-0.15625 0.296875 -0.15625 0.765625q0 0.5625 0.28125 0.953125q0.28125 0.390625 0.6875 0.75q0.421875 0.34375 0.890625 0.6875q0.484375 0.328125 0.890625 0.75q0.421875 0.40625 0.703125 0.953125q0.28125 0.53125 0.28125 1.28125q0 0.765625 -0.359375 1.375q-0.34375 0.59375 -0.953125 1.015625q-0.609375 0.40625 -1.40625 0.609375q-0.796875 0.21875 -1.703125 0.21875q-0.890625 0 -1.625 -0.1875q-0.734375 -0.171875 -1.15625 -0.453125q0.09375 -0.546875 0.234375 -1.0625q0.15625 -0.53125 0.640625 -0.984375l1.90625 1.78125q0.453125 0 0.890625 -0.109375q0.4375 -0.109375 0.78125 -0.34375q0.359375 -0.234375 0.578125 -0.578125q0.234375 -0.34375 0.25 -0.828125z" fill-rule="nonzero"/><path fill="#000000" fill-opacity="0.0" d="m289.40872 57.707005c0 26.641941 0.01574707 39.96104 0.03149414 53.28388c0.01574707 13.322838 0.03149414 26.649406 0.03149414 53.298805" fill-rule="evenodd"/><path stroke="#000000" stroke-width="2.0" stroke-linejoin="round" stroke-linecap="butt" d="m289.4099 65.28701l0.0015258789 10.111649c0.0017089844 5.203354 0.004180908 9.782265 0.0071411133 13.944946c0.0058898926 8.325378 0.013763428 14.985863 0.021636963 21.647278c0.007873535 6.6614227 0.01574707 13.323769 0.02166748 21.65194c0.002960205 4.164093 0.0054016113 8.744629 0.0071411133 13.949722l8.544922E-4 5.6971283" fill-rule="evenodd"/><path fill="#000000" stroke="#000000" stroke-width="2.0" stroke-linecap="butt" d="m289.40887 58.707005c1.8170166 -2.784729E-4 3.2902222 1.4724808 3.2905273 3.2894974c2.746582E-4 1.8170166 -1.4725037 3.290226 -3.2895203 3.2905006c-1.8170166 2.822876E-4 -3.2902222 -1.472477 -3.2904968 -3.2894936c-2.746582E-4 -1.8170166 1.4724731 -3.290226 3.2894897 -3.2905045z" fill-rule="nonzero"/><path fill="#000000" stroke="#000000" stroke-width="2.0" stroke-linecap="butt" d="m286.1664 152.29018l3.3048706 9.075699l3.302063 -9.076706z" fill-rule="evenodd"/><path fill="#000000" fill-opacity="0.0" d="m275.9914 47.65976l26.834656 0l0 10.047245l-26.834656 0z" fill-rule="evenodd"/><path fill="#000000" fill-opacity="0.0" d="m315.14252 113.69467c0 -3.5138168 2.8485107 -6.3623276 6.362335 -6.3623276l73.82651 0c1.6874084 0 3.3056946 0.670311 4.4988403 1.8634796c1.1931763 1.1931686 1.8634949 2.8114548 1.8634949 4.498848l0 25.448563c0 3.5138245 -2.8485107 6.362335 -6.362335 6.362335l-73.82651 0c-3.5138245 0 -6.362335 -2.8485107 -6.362335 -6.362335z" fill-rule="evenodd"/><path stroke="#000000" stroke-width="2.0" stroke-linejoin="round" stroke-linecap="butt" d="m315.14252 113.69467c0 -3.5138168 2.8485107 -6.3623276 6.362335 -6.3623276l73.82651 0c1.6874084 0 3.3056946 0.670311 4.4988403 1.8634796c1.1931763 1.1931686 1.8634949 2.8114548 1.8634949 4.498848l0 25.448563c0 3.5138245 -2.8485107 6.362335 -6.362335 6.362335l-73.82651 0c-3.5138245 0 -6.362335 -2.8485107 -6.362335 -6.362335z" fill-rule="evenodd"/><path fill="#000000" d="m352.70605 130.78519q-0.234375 0.390625 -0.59375 0.78125q-0.359375 0.390625 -0.859375 0.703125q-0.484375 0.296875 -1.09375 0.46875q-0.609375 0.1875 -1.328125 0.1875q-1.578125 0 -2.5 -1.0q-0.90625 -1.0 -0.90625 -2.71875q0 -1.5468826 0.484375 -2.8906326q0.484375 -1.359375 1.328125 -2.375q0.84375 -1.015625 1.984375 -1.59375q1.140625 -0.59375 2.453125 -0.59375q0.796875 0 1.3125 0.125q0.515625 0.125 0.765625 0.375q0.03125 0.234375 -0.03125 0.515625q-0.046875 0.28125 -0.171875 0.5625q-0.109375 0.28125 -0.296875 0.515625q-0.171875 0.234375 -0.375 0.3125l-1.4375 -1.484375q-0.734375 0.015625 -1.453125 0.453125q-0.703125 0.421875 -1.28125 1.21875q-0.5625 0.78125 -0.921875 1.90625q-0.34375 1.109375 -0.3125 2.5156326q-0.03125 1.46875 0.578125 2.15625q0.609375 0.6875 1.65625 0.6875q0.453125 0 0.84375 -0.125q0.390625 -0.140625 0.734375 -0.328125q0.34375 -0.1875 0.609375 -0.40625q0.28125 -0.21875 0.5 -0.375l0.3125 0.40625zm4.997772 0.828125q0.578125 0 1.15625 -0.546875q0.578125 -0.546875 1.078125 -1.3125q0.515625 -0.765625 0.921875 -1.59375q0.40625 -0.8437576 0.640625 -1.3906326l0.6875 -3.65625q-0.296875 -0.203125 -0.578125 -0.28125q-0.28125 -0.09375 -0.765625 -0.09375q-0.984375 0 -1.796875 0.609375q-0.796875 0.609375 -1.359375 1.578125q-0.5625 0.953125 -0.875 2.125q-0.296875 1.1718826 -0.296875 2.2968826q0 1.09375 0.265625 1.6875q0.265625 0.578125 0.921875 0.578125zm3.375 -3.125q-0.28125 0.78125 -0.703125 1.578125q-0.40625 0.78125 -0.953125 1.421875q-0.546875 0.640625 -1.21875 1.046875q-0.65625 0.390625 -1.390625 0.390625q-2.21875 0 -2.21875 -3.21875q0 -1.484375 0.421875 -2.9062576q0.421875 -1.421875 1.234375 -2.53125q0.8125 -1.109375 1.96875 -1.78125q1.171875 -0.671875 2.640625 -0.671875q0.53125 0 0.84375 0.09375q0.328125 0.09375 0.78125 0.296875q0.84375 -0.453125 1.78125 -0.453125l-1.90625 9.750008l1.546875 0l0 0.53125q-0.421875 0.34375 -1.03125 0.5625q-0.59375 0.203125 -1.15625 0.203125q-0.625 0 -0.890625 -0.265625q-0.265625 -0.265625 -0.265625 -0.5625q0 -0.390625 0.140625 -1.265625q0.15625 -0.875 0.453125 -2.21875l-0.078125 0zm5.1605835 -5.9687576q0.421875 -0.234375 0.890625 -0.421875q0.484375 -0.1875 0.953125 -0.296875l0.34375 -1.625q0.296875 -0.234375 0.6875 -0.40625q0.40625 -0.1875 0.828125 -0.359375l0.453125 0.25l-0.515625 2.34375l2.640625 0q0.046875 0.265625 0 0.546875q-0.03125 0.265625 -0.203125 0.53125l-2.65625 0l-1.34375 6.1875076q-0.078125 0.40625 -0.125 0.71875q-0.03125 0.296875 -0.03125 0.546875q0 0.5625 0.3125 0.828125q0.328125 0.25 0.703125 0.25q0.53125 0 1.140625 -0.203125q0.609375 -0.203125 1.125 -0.46875l0.234375 0.390625q-0.1875 0.28125 -0.578125 0.5625q-0.390625 0.265625 -0.875 0.5q-0.46875 0.234375 -1.0 0.375q-0.515625 0.15625 -0.984375 0.15625q-0.9375 0 -1.46875 -0.421875q-0.53125 -0.421875 -0.53125 -1.328125q0 -0.296875 0.046875 -0.65625q0.0625 -0.359375 0.140625 -0.75l1.40625 -6.6875076l-1.625 0l0.03125 -0.5625z" fill-rule="nonzero"/><path fill="#000000" fill-opacity="0.0" d="m343.18237 57.707005c0 12.406223 3.8110352 18.607723 7.62204 24.812443c3.8110352 6.204727 7.62204 12.412674 7.62204 24.825356" fill-rule="evenodd"/><path stroke="#000000" stroke-width="2.0" stroke-linejoin="round" stroke-linecap="butt" d="m343.72736 65.26739l0.033996582 0.22016144c0.024627686 0.15372467 0.049987793 0.30630493 0.076049805 0.45773315c0.41680908 2.422966 1.0122986 4.55513 1.7268677 6.4935074c1.4291382 3.8767395 3.3346252 6.9782944 5.240143 10.080658c1.9055176 3.1023636 3.8110352 6.205536 5.2401733 10.084702c0.17861938 0.48488617 0.34985352 0.9819107 0.5126648 1.4925766c0.08139038 0.2553177 0.16070557 0.514061 0.23782349 0.7763977c0.0385437 0.13117218 0.0765686 0.263237 0.11401367 0.3962326l0.045684814 0.16603088" fill-rule="evenodd"/><path fill="#000000" stroke="#000000" stroke-width="2.0" stroke-linecap="butt" d="m343.25427 58.70442c1.8123169 -0.13063431 3.3873901 1.2326355 3.5180054 3.0449486c0.13064575 1.8123169 -1.2326355 3.3873901 -3.0449219 3.5180206c-1.8123169 0.13063812 -3.3873901 -1.2326355 -3.518036 -3.0449486c-0.13064575 -1.8123131 1.2326355 -3.3873863 3.0449524 -3.5180206z" fill-rule="nonzero"/><path fill="#000000" stroke="#000000" stroke-width="2.0" stroke-linecap="butt" d="m353.67624 95.84052l4.3916626 8.602539l2.1654053 -9.412819z" fill-rule="evenodd"/><path fill="#000000" fill-opacity="0.0" d="m329.76505 47.65976l26.834656 0l0 10.047245l-26.834656 0z" fill-rule="evenodd"/><path fill="#000000" fill-opacity="0.0" d="m406.31345 161.62314c0 -3.5138092 2.8485107 -6.362335 6.362335 -6.362335l73.82651 0c1.6874084 0 3.3056946 0.6703186 4.4988403 1.8634949c1.1931763 1.193161 1.8634949 2.8114471 1.8634949 4.4988403l0 25.448563c0 3.5138245 -2.8485107 6.362335 -6.362335 6.362335l-73.82651 0c-3.5138245 0 -6.362335 -2.8485107 -6.362335 -6.362335z" fill-rule="evenodd"/><path stroke="#000000" stroke-width="2.0" stroke-linejoin="round" stroke-linecap="butt" d="m406.31345 161.62314c0 -3.5138092 2.8485107 -6.362335 6.362335 -6.362335l73.82651 0c1.6874084 0 3.3056946 0.6703186 4.4988403 1.8634949c1.1931763 1.193161 1.8634949 2.8114471 1.8634949 4.4988403l0 25.448563c0 3.5138245 -2.8485107 6.362335 -6.362335 6.362335l-73.82651 0c-3.5138245 0 -6.362335 -2.8485107 -6.362335 -6.362335z" fill-rule="evenodd"/><path fill="#000000" d="m434.64737 178.71365q-0.1875 0.390625 -0.5625 0.78125q-0.359375 0.390625 -0.84375 0.703125q-0.484375 0.296875 -1.109375 0.46875q-0.625 0.1875 -1.328125 0.1875q-1.765625 0 -2.71875 -1.0q-0.9375 -1.015625 -0.9375 -2.8125q0 -1.515625 0.421875 -2.859375q0.421875 -1.34375 1.1875 -2.34375q0.765625 -1.0 1.859375 -1.578125q1.109375 -0.578125 2.453125 -0.578125q1.03125 0 1.765625 0.53125q0.734375 0.515625 0.734375 1.546875q0 1.5 -1.515625 2.375q-1.5 0.875 -4.84375 1.140625q-0.078125 0.359375 -0.125 0.703125q-0.03125 0.34375 -0.03125 0.65625q0 1.28125 0.65625 2.09375q0.65625 0.8125 1.90625 0.8125q0.40625 0 0.796875 -0.125q0.40625 -0.140625 0.75 -0.328125q0.359375 -0.1875 0.640625 -0.40625q0.296875 -0.21875 0.5 -0.375l0.34375 0.40625zm-2.234375 -8.109375q-0.921875 0.015625 -1.71875 0.859375q-0.78125 0.84375 -1.328125 2.890625q2.0625 -0.0625 3.203125 -0.703125q1.15625 -0.65625 1.15625 -1.8125q0 -0.453125 -0.265625 -0.828125q-0.265625 -0.390625 -1.046875 -0.40625zm8.891846 6.78125q0.765625 -1.28125 1.359375 -2.484375q0.59375 -1.203125 1.03125 -2.421875q0 -0.234375 -0.0625 -0.609375q-0.046875 -0.375 -0.109375 -0.75q-0.046875 -0.390625 -0.109375 -0.71875q-0.0625 -0.328125 -0.109375 -0.46875q0.625 -0.25 1.265625 -0.25q0.65625 -0.015625 1.140625 0.25q-0.3125 1.328125 -0.875 2.703125q-0.546875 1.375 -1.265625 2.75q-0.703125 1.359375 -1.546875 2.6875q-0.84375 1.3125 -1.765625 2.53125l-1.0 0.25l-1.578125 -9.671875l-1.375 -0.171875l0 -0.53125q0.140625 -0.09375 0.390625 -0.234375q0.25 -0.140625 0.5625 -0.265625q0.3125 -0.125 0.640625 -0.203125q0.328125 -0.09375 0.625 -0.09375q0.46875 0 0.671875 0.234375q0.203125 0.234375 0.265625 0.578125l0.984375 6.9375l0.109375 1.34375l0.046875 0l0.703125 -1.390625zm12.345917 1.328125q-0.1875 0.390625 -0.5625 0.78125q-0.359375 0.390625 -0.84375 0.703125q-0.484375 0.296875 -1.109375 0.46875q-0.625 0.1875 -1.328125 0.1875q-1.765625 0 -2.71875 -1.0q-0.9375 -1.015625 -0.9375 -2.8125q0 -1.515625 0.421875 -2.859375q0.421875 -1.34375 1.1875 -2.34375q0.765625 -1.0 1.859375 -1.578125q1.109375 -0.578125 2.453125 -0.578125q1.03125 0 1.765625 0.53125q0.734375 0.515625 0.734375 1.546875q0 1.5 -1.515625 2.375q-1.5 0.875 -4.84375 1.140625q-0.078125 0.359375 -0.125 0.703125q-0.03125 0.34375 -0.03125 0.65625q0 1.28125 0.65625 2.09375q0.65625 0.8125 1.90625 0.8125q0.40625 0 0.796875 -0.125q0.40625 -0.140625 0.75 -0.328125q0.359375 -0.1875 0.640625 -0.40625q0.296875 -0.21875 0.5 -0.375l0.34375 0.40625zm-2.234375 -8.109375q-0.921875 0.015625 -1.71875 0.859375q-0.78125 0.84375 -1.328125 2.890625q2.0625 -0.0625 3.203125 -0.703125q1.15625 -0.65625 1.15625 -1.8125q0 -0.453125 -0.265625 -0.828125q-0.265625 -0.390625 -1.046875 -0.40625zm10.058014 0.640625q-0.546875 0.203125 -1.25 1.078125q-0.6875 0.859375 -1.21875 2.328125l-1.28125 5.953125l-1.828125 0l1.984375 -9.421875l-1.3125 -0.203125l0 -0.53125q0.734375 -0.34375 1.515625 -0.515625q0.796875 -0.1875 1.4375 -0.25l0.421875 0.25l-0.59375 2.84375l0.078125 0q0.625 -1.40625 1.515625 -2.25q0.90625 -0.84375 1.921875 -0.84375q0.28125 0 0.546875 0.0625q0.28125 0.046875 0.546875 0.1875q0 0.203125 -0.078125 0.515625q-0.0625 0.296875 -0.1875 0.625q-0.109375 0.3125 -0.25 0.609375q-0.125 0.28125 -0.28125 0.4375l-1.6875 -0.875zm3.5863647 -0.0625l-1.359375 -0.171875l0 -0.53125q0.109375 -0.09375 0.34375 -0.21875q0.25 -0.125 0.5625 -0.25q0.328125 -0.140625 0.671875 -0.234375q0.34375 -0.09375 0.640625 -0.09375q0.4375 0 0.640625 0.234375q0.203125 0.21875 0.3125 0.578125l1.765625 7.46875l0.078125 1.28125l0.03125 0l0.5 -1.265625q0.265625 -0.59375 0.546875 -1.3125q0.296875 -0.71875 0.578125 -1.4375q0.28125 -0.71875 0.515625 -1.421875q0.234375 -0.703125 0.40625 -1.3125q0 -0.234375 -0.0625 -0.609375q-0.046875 -0.390625 -0.109375 -0.765625q-0.0625 -0.390625 -0.140625 -0.71875q-0.0625 -0.328125 -0.09375 -0.46875q0.296875 -0.125 0.640625 -0.1875q0.34375 -0.0625 0.65625 -0.0625q0.640625 0 1.125 0.25q-0.65625 2.65625 -1.796875 5.296875q-1.140625 2.640625 -2.53125 5.375q-1.140625 2.234375 -2.296875 3.34375q-1.15625 1.109375 -2.609375 1.109375q-0.3125 0 -0.609375 -0.09375q-0.28125 -0.078125 -0.59375 -0.25q-0.03125 -0.234375 0.03125 -0.53125q0.0625 -0.296875 0.203125 -0.59375q0.140625 -0.296875 0.359375 -0.5625q0.234375 -0.25 0.515625 -0.390625l1.71875 0.890625q0.15625 -0.109375 0.390625 -0.3125q0.234375 -0.203125 0.484375 -0.5625q0.25 -0.34375 0.5 -0.84375q0.265625 -0.5 0.5 -1.203125l-2.515625 -9.421875z" fill-rule="nonzero"/><path fill="#000000" fill-opacity="0.0" d="m396.79535 57.707005c0 24.388264 13.196869 36.583614 26.393707 48.77653c13.196869 12.192909 26.393707 24.383392 26.393707 48.76677" fill-rule="evenodd"/><path stroke="#000000" stroke-width="2.0" stroke-linejoin="round" stroke-linecap="butt" d="m397.24997 65.27336l0.001739502 0.014404297c0.042633057 0.3416748 0.088134766 0.6806946 0.13650513 1.0171051c0.38659668 2.6913147 0.9536438 5.2159195 1.675354 7.597641c1.4433899 4.76342 3.5054016 8.955269 5.979828 12.766014c4.948822 7.621483 11.547241 13.718552 18.14566 19.81501c6.598419 6.0964584 13.196838 12.192299 18.14566 19.811958c2.4744263 3.8098373 4.536438 8.000618 5.979828 12.762901c0.36087036 1.1905518 0.68304443 2.4168549 0.9633484 3.681839c0.035064697 0.15812683 0.06942749 0.31684875 0.103149414 0.47618103l0.019042969 0.092315674" fill-rule="evenodd"/><path fill="#000000" stroke="#000000" stroke-width="2.0" stroke-linecap="butt" d="m396.85535 58.705204c1.8137207 -0.10897446 3.372406 1.2730103 3.4813843 3.0867577c0.10897827 1.8137436 -1.2730103 3.3724213 -3.0867615 3.4813995c-1.8137512 0.10897827 -3.372406 -1.2730103 -3.4813843 -3.0867577c-0.10897827 -1.8137436 1.2730103 -3.3724213 3.0867615 -3.4813995z" fill-rule="nonzero"/><path fill="#000000" stroke="#000000" stroke-width="2.0" stroke-linecap="butt" d="m445.11273 143.6343l4.181885 8.706451l2.3928833 -9.35759z" fill-rule="evenodd"/><path fill="#000000" fill-opacity="0.0" d="m383.37805 47.65976l26.834625 0l0 10.047245l-26.834625 0z" fill-rule="evenodd"/><path fill="#000000" fill-opacity="0.0" d="m13.268809 71.58875c0 -6.502884 5.2716284 -11.774513 11.774514 -11.774513l74.12027 0c3.122795 0 6.1176834 1.2405243 8.325836 3.4486732c2.2081528 2.208149 3.448677 5.203045 3.448677 8.32584l0 47.09664c0 6.502884 -5.2716293 11.774521 -11.774513 11.774521l-74.12027 0c-6.502886 0 -11.774514 -5.271637 -11.774514 -11.774521z" fill-rule="evenodd"/><path stroke="#000000" stroke-width="2.0" stroke-linejoin="round" stroke-linecap="butt" d="m13.268809 71.58875c0 -6.502884 5.2716284 -11.774513 11.774514 -11.774513l74.12027 0c3.122795 0 6.1176834 1.2405243 8.325836 3.4486732c2.2081528 2.208149 3.448677 5.203045 3.448677 8.32584l0 47.09664c0 6.502884 -5.2716293 11.774521 -11.774513 11.774521l-74.12027 0c-6.502886 0 -11.774514 -5.271637 -11.774514 -11.774521z" fill-rule="evenodd"/><path fill="#000000" d="m26.873695 76.696q0.84375 -0.375 2.015625 -0.59375q1.171875 -0.234375 2.453125 -0.234375q1.109375 0 1.859375 0.265625q0.75 0.265625 1.1875 0.765625q0.4375 0.484375 0.609375 1.171875q0.1875 0.671875 0.1875 1.53125q0 0.9375 -0.0625 1.890625q-0.0625 0.9375 -0.078125 1.859375q0 0.921875 0.0625 1.78125q0.0625 0.859375 0.3125 1.625l-2.265625 0l-0.4375 -1.46875l-0.109375 0q-0.421875 0.65625 -1.1875 1.140625q-0.75 0.484375 -1.953125 0.484375q-0.75 0 -1.34375 -0.21875q-0.59375 -0.234375 -1.03125 -0.640625q-0.421875 -0.421875 -0.65625 -0.984375q-0.234375 -0.5625 -0.234375 -1.265625q0 -0.984375 0.4375 -1.65625q0.4375 -0.671875 1.25 -1.078125q0.828125 -0.421875 1.96875 -0.578125q1.15625 -0.171875 2.5625 -0.109375q0.140625 -1.1875 -0.1875 -1.703125q-0.3125 -0.53125 -1.421875 -0.53125q-0.828125 0 -1.765625 0.171875q-0.921875 0.171875 -1.515625 0.4375l-0.65625 -2.0625zm3.515625 7.9375q0.828125 0 1.3125 -0.375q0.5 -0.375 0.734375 -0.796875l0 -1.390625q-0.65625 -0.0625 -1.265625 -0.015625q-0.609375 0.03125 -1.078125 0.1875q-0.46875 0.15625 -0.75 0.4375q-0.28125 0.265625 -0.28125 0.6875q0 0.609375 0.34375 0.9375q0.359375 0.328125 0.984375 0.328125zm13.016296 -5.953125q-0.671875 -0.234375 -1.203125 -0.234375q-0.75 0 -1.25 0.40625q-0.5 0.390625 -0.671875 1.0l0 6.890625l-2.765625 0l0 -10.671875l2.15625 0l0.3125 1.421875l0.09375 0q0.359375 -0.796875 0.96875 -1.21875q0.625 -0.4375 1.453125 -0.4375q0.5625 0 1.265625 0.234375l-0.359375 2.609375zm7.486206 0q-0.671875 -0.234375 -1.203125 -0.234375q-0.75 0 -1.25 0.40625q-0.5 0.390625 -0.671875 1.0l0 6.890625l-2.765625 0l0 -10.671875l2.15625 0l0.3125 1.421875l0.09375 0q0.359375 -0.796875 0.96875 -1.21875q0.625 -0.4375 1.453125 -0.4375q0.5625 0 1.265625 0.234375l-0.359375 2.609375z" fill-rule="nonzero"/><path fill="#000000" d="m31.342445 112.805374q0 -0.4375 -0.359375 -0.6875q-0.359375 -0.25 -0.890625 -0.46875q-0.53125 -0.21875 -1.171875 -0.4375q-0.640625 -0.21875 -1.171875 -0.609375q-0.53125 -0.40625 -0.90625 -1.015625q-0.359375 -0.609375 -0.359375 -1.5625q0 -1.578125 0.9375 -2.40625q0.9375 -0.84375 2.71875 -0.84375q1.203125 0 2.1875 0.265625q0.984375 0.25 1.53125 0.578125l-0.609375 2.0q-0.5 -0.1875 -1.25 -0.40625q-0.734375 -0.21875 -1.5 -0.21875q-1.234375 0 -1.234375 0.96875q0 0.375 0.359375 0.609375q0.359375 0.234375 0.890625 0.4375q0.53125 0.203125 1.171875 0.4375q0.640625 0.234375 1.171875 0.609375q0.53125 0.375 0.890625 0.984375q0.375 0.59375 0.375 1.53125q0 1.609375 -1.046875 2.546875q-1.03125 0.921875 -3.09375 0.921875q-1.125 0 -2.125 -0.296875q-0.984375 -0.28125 -1.609375 -0.65625l0.765625 -2.078125q0.5 0.28125 1.296875 0.546875q0.8125 0.265625 1.671875 0.265625q0.625 0 0.984375 -0.234375q0.375 -0.234375 0.375 -0.78125zm4.8286285 -7.734375l2.765625 0l0 10.671875l-2.765625 0l0 -10.671875zm-0.40625 -3.0q0 -0.625 0.453125 -1.0625q0.46875 -0.4375 1.265625 -0.4375q0.8125 0 1.3125 0.4375q0.5 0.4375 0.5 1.0625q0 0.625 -0.5 1.046875q-0.5 0.40625 -1.3125 0.40625q-0.796875 0 -1.265625 -0.40625q-0.453125 -0.421875 -0.453125 -1.046875zm5.3466644 11.328125l4.203125 -5.0625l1.09375 -0.90625l-5.296875 0l0 -2.359375l8.359375 0l0 2.359375l-4.15625 5.140625l-1.0625 0.828125l5.21875 0l0 2.34375l-8.359375 0l0 -2.34375zm18.691406 1.421875q-0.640625 0.515625 -1.75 0.875q-1.09375 0.34375 -2.328125 0.34375q-2.578125 0 -3.78125 -1.5q-1.1875 -1.5 -1.1875 -4.125q0 -2.8125 1.34375 -4.21875q1.34375 -1.421875 3.78125 -1.421875q0.8125 0 1.578125 0.21875q0.765625 0.21875 1.359375 0.703125q0.59375 0.484375 0.953125 1.328125q0.375 0.828125 0.375 2.0625q0 0.453125 -0.0625 0.96875q-0.046875 0.5 -0.15625 1.0625l-6.40625 0q0.078125 1.34375 0.703125 2.03125q0.625 0.671875 2.03125 0.671875q0.875 0 1.5625 -0.265625q0.703125 -0.265625 1.0625 -0.546875l0.921875 1.8125zm-3.96875 -7.828125q-1.09375 0 -1.625 0.65625q-0.515625 0.65625 -0.609375 1.734375l3.953125 0q0.09375 -1.140625 -0.34375 -1.765625q-0.4375 -0.625 -1.375 -0.625z" fill-rule="nonzero"/><path fill="#000000" d="m89.14338 111.16475l-2.515625 0l0 4.578125l-1.65625 0l0 -4.578125l-6.578125 0l0 -0.71875l7.078125 -9.875l1.15625 0l0 9.09375l2.515625 0l0 1.5zm-4.171875 -6.15625l0.203125 -1.75l-0.0625 0l-0.734375 1.453125l-3.015625 4.078125l-1.015625 1.046875l1.484375 -0.171875l3.140625 0l0 -4.65625z" fill-rule="nonzero"/><path fill="#000000" fill-opacity="0.0" d="m68.43403 66.35177l14.047249 0l0 28.125984l-14.047249 0z" fill-rule="evenodd"/><path fill="#000000" fill-opacity="0.0" d="m82.48128 80.414764c31.887848 0 47.83081 -4.7480316 63.775696 -9.496063c15.944885 -4.7480316 31.891678 -9.496063 63.783356 -9.496063" fill-rule="evenodd"/><path stroke="#000000" stroke-width="2.0" stroke-linejoin="round" stroke-linecap="butt" d="m90.06068 80.31968l0.98176575 -0.026191711c0.90745544 -0.026519775 1.8007965 -0.057235718 2.6805038 -0.0920105c3.5188522 -0.13910675 6.819702 -0.3431244 9.933716 -0.6027832c6.2280273 -0.51931 11.708656 -1.2611923 16.691078 -2.151451c9.964836 -1.78051 17.93679 -4.1545258 25.909233 -6.5285416c7.9724426 -2.3740158 15.945358 -4.7480316 25.911636 -6.5285416c4.983124 -0.8902588 10.464615 -1.6321373 16.693527 -2.151451c1.5572357 -0.1298294 3.1611786 -0.24575043 4.8157196 -0.34659576c0.82728577 -0.050430298 1.6672058 -0.097084045 2.520279 -0.13983154c0.42652893 -0.021369934 0.85635376 -0.041763306 1.2895203 -0.06116104l0.5551758 -0.023399353" fill-rule="evenodd"/><path fill="#000000" stroke="#000000" stroke-width="2.0" stroke-linecap="butt" d="m83.48119 80.40222c-0.022789001 -1.8168716 1.4316025 -3.30822 3.2484741 -3.331009c1.8168716 -0.02279663 3.30822 1.4315948 3.331009 3.2484665c0.022789001 1.8168793 -1.4315948 3.30822 -3.2484741 3.3310165c-1.8168716 0.022789001 -3.3082123 -1.4316025 -3.331009 -3.2484741z" fill-rule="nonzero"/><path fill="#000000" stroke="#000000" stroke-width="2.0" stroke-linecap="butt" d="m198.1103 64.9705l9.006836 -3.488144l-9.141769 -3.1174088z" fill-rule="evenodd"/><path fill="#000000" fill-opacity="0.0" d="m210.03372 48.409683l8.881882 0l0 26.047241l-8.881882 0z" fill-rule="evenodd"/><path fill="#000000" fill-opacity="0.0" d="m1047.706 116.07985l52.787354 0l0 22.614166l-52.787354 0z" fill-rule="evenodd"/><path fill="#000000" d="m1064.4604 131.4686q0 -0.5625 -0.34375 -0.875q-0.328125 -0.328125 -0.828125 -0.53125q-0.5 -0.21875 -1.09375 -0.40625q-0.578125 -0.203125 -1.078125 -0.515625q-0.484375 -0.3125 -0.828125 -0.796875q-0.328125 -0.484375 -0.328125 -1.296875q0 -1.34375 0.765625 -1.96875q0.765625 -0.625 2.125 -0.625q1.0 0 1.6875 0.171875q0.6875 0.171875 1.1875 0.421875l-0.359375 1.234375q-0.421875 -0.203125 -1.03125 -0.359375q-0.609375 -0.171875 -1.296875 -0.171875q-0.828125 0 -1.21875 0.28125q-0.375 0.28125 -0.375 0.96875q0 0.484375 0.328125 0.765625q0.34375 0.265625 0.84375 0.484375q0.5 0.203125 1.078125 0.421875q0.59375 0.203125 1.078125 0.546875q0.5 0.328125 0.828125 0.84375q0.34375 0.5 0.34375 1.34375q0 0.59375 -0.203125 1.125q-0.1875 0.515625 -0.59375 0.890625q-0.40625 0.375 -1.015625 0.578125q-0.609375 0.21875 -1.4375 0.21875q-1.0625 0 -1.8125 -0.203125q-0.734375 -0.203125 -1.234375 -0.484375l0.4375 -1.265625q0.4375 0.234375 1.125 0.453125q0.6875 0.203125 1.390625 0.203125q0.8125 0 1.328125 -0.3125q0.53125 -0.328125 0.53125 -1.140625zm4.057495 -6.796875l1.5 0l0 9.328125l-1.5 0l0 -9.328125zm-0.3125 -2.828125q0 -0.4375 0.28125 -0.734375q0.296875 -0.3125 0.75 -0.3125q0.4375 0 0.75 0.3125q0.328125 0.296875 0.328125 0.734375q0 0.421875 -0.328125 0.703125q-0.3125 0.28125 -0.75 0.28125q-0.453125 0 -0.75 -0.28125q-0.28125 -0.28125 -0.28125 -0.703125zm4.343628 10.84375l4.3125 -5.921875l0.78125 -0.78125l-5.09375 0l0 -1.3125l6.640625 0l0 1.3125l-4.34375 5.984375l-0.765625 0.71875l5.109375 0l0 1.3125l-6.640625 0l0 -1.3125zm15.509399 0.5625q-0.5625 0.453125 -1.421875 0.71875q-0.84375 0.25 -1.796875 0.25q-1.0625 0 -1.84375 -0.34375q-0.78125 -0.34375 -1.28125 -0.984375q-0.5 -0.640625 -0.75 -1.53125q-0.234375 -0.90625 -0.234375 -2.03125q0 -2.375 1.0625 -3.625q1.0625 -1.25 3.03125 -1.25q0.640625 0 1.265625 0.140625q0.640625 0.140625 1.140625 0.53125q0.5 0.390625 0.8125 1.109375q0.328125 0.71875 0.328125 1.890625q0 0.609375 -0.109375 1.359375l-5.984375 0q0 0.828125 0.15625 1.46875q0.171875 0.625 0.515625 1.0625q0.359375 0.4375 0.921875 0.671875q0.578125 0.234375 1.40625 0.234375q0.625 0 1.265625 -0.21875q0.640625 -0.234375 0.953125 -0.53125l0.5625 1.078125zm-3.21875 -7.5q-1.09375 0 -1.765625 0.578125q-0.65625 0.578125 -0.78125 1.984375l4.625 0q0 -1.421875 -0.546875 -1.984375q-0.53125 -0.578125 -1.53125 -0.578125z" fill-rule="nonzero"/><path fill="#000000" fill-opacity="0.0" d="m1074.0997 116.07985c0 -8.403259 0.01574707 -12.6057205 0.03149414 -16.80651c0.01574707 -4.2007904 0.03149414 -8.399895 0.03149414 -16.79979" fill-rule="evenodd"/><path stroke="#000000" stroke-width="2.0" stroke-linejoin="round" stroke-linecap="butt" d="m1074.0997 116.07985c0 -8.403259 0.01574707 -12.605728 0.03149414 -16.80651l0.015258789 -4.799797" fill-rule="evenodd"/><path fill="#000000" stroke="#000000" stroke-width="2.0" stroke-linecap="butt" d="m1077.45 94.47801l-3.2911377 -9.080666l-3.315796 9.071709z" fill-rule="evenodd"/><path fill="#000000" fill-opacity="0.0" d="m1060.7213 72.41972l26.834595 0l0 10.047241l-26.834595 0z" fill-rule="evenodd"/><path fill="#000000" fill-opacity="0.0" d="m707.7874 4.858626l0 196.37794" fill-rule="evenodd"/><path stroke="#000000" stroke-width="2.0" stroke-linejoin="round" stroke-linecap="butt" d="m707.7874 4.858626l0 196.37794" fill-rule="evenodd"/></g></svg>