<svg version="1.1" viewBox="0.0 0.0 828.4671916010499 151.50393700787401" fill="none" stroke="none" stroke-linecap="square" stroke-miterlimit="10" xmlns:xlink="http://www.w3.org/1999/xlink" xmlns="http://www.w3.org/2000/svg"><clipPath id="p.0"><path d="m0 0l828.46716 0l0 151.50394l-828.46716 0l0 -151.50394z" clip-rule="nonzero"/></clipPath><g clip-path="url(#p.0)"><path fill="#000000" fill-opacity="0.0" d="m0 0l828.46716 0l0 151.50394l-828.46716 0z" fill-rule="evenodd"/><path shape-rendering="crispEdges" fill="#d9d9d9" d="m416.6719 42.879265l49.910767 0l0 39.322838l-49.910767 0l0 -39.322838z" fill-rule="nonzero"/><path shape-rendering="crispEdges" fill="#d9d9d9" d="m466.58267 42.879265l49.910736 0l0 39.322838l-49.910736 0l0 -39.322838z" fill-rule="nonzero"/><path shape-rendering="crispEdges" fill="#d9d9d9" d="m516.4934 42.879265l49.910767 0l0 39.322838l-49.910767 0l0 -39.322838z" fill-rule="nonzero"/><path shape-rendering="crispEdges" fill="#d9d9d9" d="m566.4042 42.879265l49.910767 0l0 39.322838l-49.910767 0l0 -39.322838z" fill-rule="nonzero"/><path shape-rendering="crispEdges" fill="#d9d9d9" d="m616.31494 42.879265l49.910767 0l0 39.322838l-49.910767 0l0 -39.322838z" fill-rule="nonzero"/><path shape-rendering="crispEdges" fill="#d9d9d9" d="m666.2257 42.879265l49.910767 0l0 39.322838l-49.910767 0l0 -39.322838z" fill-rule="nonzero"/><path shape-rendering="crispEdges" fill="#d9d9d9" d="m716.1365 42.879265l49.910767 0l0 39.322838l-49.910767 0l0 -39.322838z" fill-rule="nonzero"/><path shape-rendering="crispEdges" fill="#d9d9d9" d="m766.04724 42.879265l49.910767 0l0 39.322838l-49.910767 0l0 -39.322838z" fill-rule="nonzero"/><path stroke="#000000" stroke-width="2.0" stroke-linecap="butt" d="m17.385826 41.879265l0 41.322838" fill-rule="nonzero"/><path stroke="#000000" stroke-width="2.0" stroke-linecap="butt" d="m67.296585 41.879265l0 41.322838" fill-rule="nonzero"/><path stroke="#000000" stroke-width="2.0" stroke-linecap="butt" d="m117.20735 41.879265l0 41.322838" fill-rule="nonzero"/><path stroke="#000000" stroke-width="2.0" stroke-linecap="butt" d="m167.1181 41.879265l0 41.322838" fill-rule="nonzero"/><path stroke="#000000" stroke-width="2.0" stroke-linecap="butt" d="m217.02887 41.879265l0 41.322838" fill-rule="nonzero"/><path stroke="#000000" stroke-width="2.0" stroke-linecap="butt" d="m266.93964 41.879265l0 41.322838" fill-rule="nonzero"/><path stroke="#000000" stroke-width="2.0" stroke-linecap="butt" d="m316.8504 41.879265l0 41.322838" fill-rule="nonzero"/><path stroke="#000000" stroke-width="2.0" stroke-linecap="butt" d="m366.76117 41.879265l0 41.322838" fill-rule="nonzero"/><path stroke="#000000" stroke-width="2.0" stroke-linecap="butt" d="m416.6719 41.879265l0 41.322838" fill-rule="nonzero"/><path stroke="#000000" stroke-width="2.0" stroke-linecap="butt" d="m466.58267 41.879265l0 41.322838" fill-rule="nonzero"/><path stroke="#000000" stroke-width="2.0" stroke-linecap="butt" d="m516.4934 41.879265l0 41.322838" fill-rule="nonzero"/><path stroke="#000000" stroke-width="2.0" stroke-linecap="butt" d="m566.4042 41.879265l0 41.322838" fill-rule="nonzero"/><path stroke="#000000" stroke-width="2.0" stroke-linecap="butt" d="m616.31494 41.879265l0 41.322838" fill-rule="nonzero"/><path stroke="#000000" stroke-width="2.0" stroke-linecap="butt" d="m666.2257 41.879265l0 41.322838" fill-rule="nonzero"/><path stroke="#000000" stroke-width="2.0" stroke-linecap="butt" d="m716.1365 41.879265l0 41.322838" fill-rule="nonzero"/><path stroke="#000000" stroke-width="2.0" stroke-linecap="butt" d="m766.04724 41.879265l0 41.322838" fill-rule="nonzero"/><path stroke="#000000" stroke-width="2.0" stroke-linecap="butt" d="m815.958 41.879265l0 41.322838" fill-rule="nonzero"/><path stroke="#000000" stroke-width="2.0" stroke-linecap="butt" d="m16.385826 42.879265l800.5722 0" fill-rule="nonzero"/><path stroke="#000000" stroke-width="2.0" stroke-linecap="butt" d="m16.385826 82.2021l800.5722 0" fill-rule="nonzero"/><path fill="#000000" d="m39.287437 35.00739q0 -2.390625 0.765625 -3.593748q0.78125 -1.21875 2.28125 -1.21875q1.609375 0 2.328125 1.1875q0.734375 1.1874981 0.734375 3.624998q0 2.40625 -0.78125 3.625q-0.78125 1.203125 -2.28125 1.203125q-1.578125 0 -2.3125 -1.265625q-0.734375 -1.265625 -0.734375 -3.5625zm1.09375 0q0 0.875 0.109375 1.59375q0.125 0.703125 0.359375 1.21875q0.25 0.515625 0.609375 0.8125q0.375 0.28125 0.875 0.28125q1.015625 0 1.484375 -0.9375q0.46875 -0.953125 0.46875 -2.96875q0 -0.84375 -0.09375 -1.5625q-0.09375 -0.71875 -0.328125 -1.234375q-0.234375 -0.5312481 -0.609375 -0.8124981q-0.375 -0.28125 -0.921875 -0.28125q-1.0 0 -1.484375 0.9531231q-0.46875 0.953125 -0.46875 2.9375z" fill-rule="nonzero"/><path fill="#000000" d="m90.05757 38.69489l1.875 0l0 -6.453125l0.125 -0.7812481l-0.53125 0.6249981l-1.46875 1.046875l-0.5 -0.671875l2.921875 -2.265623l0.484375 0l0 8.499998l1.828125 0l0 0.984375l-4.734375 0l0 -0.984375z" fill-rule="nonzero"/><path fill="#000000" d="m144.46834 32.47614q0 0.703125 -0.265625 1.4375q-0.25 0.734375 -0.671875 1.484375q-0.421875 0.75 -0.9375 1.46875q-0.515625 0.703125 -1.03125 1.34375l-0.65625 0.578125l0 0.046875l0.84375 -0.140625l2.90625 0l0 0.984375l-5.296875 0l0 -0.390625q0.296875 -0.296875 0.703125 -0.75q0.421875 -0.453125 0.859375 -1.0q0.453125 -0.5625 0.875 -1.171875q0.4375 -0.625 0.78125 -1.265625q0.359375 -0.640625 0.578125 -1.265625q0.21875 -0.640625 0.21875 -1.1875q0 -0.6562481 -0.375 -1.0937481q-0.375 -0.4375 -1.140625 -0.4375q-0.5 0 -0.984375 0.21875q-0.484375 0.203125 -0.828125 0.46875l-0.4375 -0.765625q0.46875 -0.390625 1.109375 -0.609375q0.640625 -0.234375 1.375 -0.234375q0.5625 0 1.0 0.171875q0.453125 0.15625 0.75 0.46875q0.3125 0.296875 0.46875 0.71875q0.15625 0.421875 0.15625 0.9218731z" fill-rule="nonzero"/><path fill="#000000" d="m191.56659 38.91364q0.453125 0 0.828125 -0.140625q0.390625 -0.140625 0.671875 -0.390625q0.28125 -0.265625 0.4375 -0.625q0.15625 -0.359375 0.15625 -0.78125q0 -0.9375 -0.546875 -1.390625q-0.546875 -0.453125 -1.53125 -0.453125l-0.984375 0l0 -0.390625l1.921875 -2.953123l0.609375 -0.59375l-0.859375 0.140625l-2.640625 0l0 -0.984375l4.75 0l0 0.390625l-2.109375 3.187498l-0.46875 0.375l0 0.03125l0.453125 -0.09375q0.53125 0.015625 0.984375 0.203125q0.453125 0.171875 0.78125 0.515625q0.34375 0.328125 0.53125 0.8125q0.1875 0.46875 0.1875 1.0625q0 0.71875 -0.265625 1.28125q-0.25 0.5625 -0.6875 0.953125q-0.421875 0.375 -1.015625 0.578125q-0.578125 0.1875 -1.234375 0.1875q-0.59375 0 -1.078125 -0.09375q-0.484375 -0.09375 -0.84375 -0.234375l0.28125 -0.953125q0.3125 0.15625 0.71875 0.265625q0.421875 0.09375 0.953125 0.09375z" fill-rule="nonzero"/><path fill="#000000" d="m245.33673 36.81989l-1.578125 0l0 2.859375l-1.03125 0l0 -2.859375l-4.109375 0l0 -0.453125l4.421875 -6.156248l0.71875 0l0 5.671873l1.578125 0l0 0.9375zm-2.609375 -3.84375l0.125 -1.0937481l-0.03125 0l-0.46875 0.9062481l-1.875 2.546875l-0.640625 0.65625l0.921875 -0.109375l1.96875 0l0 -2.90625z" fill-rule="nonzero"/><path fill="#000000" d="m291.10687 38.91364q0.921875 0 1.515625 -0.53125q0.59375 -0.546875 0.59375 -1.5625q0 -0.96875 -0.59375 -1.4375q-0.59375 -0.484375 -1.625 -0.484375l-1.125 0.0625l0 -4.609373l4.15625 0l0 0.984375l-3.15625 0l0 2.656248l0.578125 -0.03125q1.3125 0.015625 2.078125 0.734375q0.765625 0.71875 0.765625 2.0625q0 0.75 -0.265625 1.328125q-0.25 0.578125 -0.6875 0.96875q-0.421875 0.390625 -1.015625 0.59375q-0.578125 0.1875 -1.25 0.1875q-0.59375 0 -1.015625 -0.0625q-0.40625 -0.0625 -0.765625 -0.203125l0.28125 -0.90625q0.296875 0.125 0.640625 0.1875q0.359375 0.0625 0.890625 0.0625z" fill-rule="nonzero"/><path fill="#000000" d="m344.7364 36.866764q0 0.609375 -0.1875 1.15625q-0.1875 0.53125 -0.546875 0.9375q-0.359375 0.40625 -0.90625 0.640625q-0.53125 0.234375 -1.203125 0.234375q-0.671875 0 -1.203125 -0.203125q-0.53125 -0.21875 -0.921875 -0.640625q-0.375 -0.421875 -0.59375 -1.03125q-0.203125 -0.609375 -0.203125 -1.40625q0 -1.328125 0.34375 -2.4375q0.34375 -1.109375 0.9375 -1.9375q0.59375 -0.8281231 1.40625 -1.3437481q0.828125 -0.515625 1.796875 -0.640625l0.21875 0.84375q-0.734375 0.140625 -1.359375 0.515625q-0.609375 0.375 -1.078125 0.9218731q-0.453125 0.546875 -0.75 1.234375q-0.28125 0.671875 -0.390625 1.390625q0.203125 -0.359375 0.703125 -0.65625q0.515625 -0.3125 1.25 -0.3125q1.25 0 1.96875 0.71875q0.71875 0.71875 0.71875 2.015625zm-1.109375 0.109375q0 -0.953125 -0.4375 -1.421875q-0.4375 -0.484375 -1.359375 -0.484375q-0.65625 0 -1.140625 0.328125q-0.46875 0.3125 -0.65625 0.703125q-0.015625 0.1875 -0.015625 0.3125q0 0.125 0 0.265625q0 0.421875 0.109375 0.828125q0.109375 0.390625 0.34375 0.703125q0.25 0.3125 0.59375 0.515625q0.359375 0.1875 0.84375 0.1875q0.390625 0 0.703125 -0.140625q0.3125 -0.15625 0.53125 -0.40625q0.234375 -0.265625 0.359375 -0.625q0.125 -0.359375 0.125 -0.765625z" fill-rule="nonzero"/><path fill="#000000" d="m389.55338 39.679264l3.34375 -7.812498l0.578125 -0.65625l-0.78125 0.125l-3.796875 0l0 -0.984375l5.578125 0l0 0.359375l-3.84375 8.968748l-1.078125 0z" fill-rule="nonzero"/><path fill="#000000" d="m438.90164 37.460514q0 -0.84375 0.4375 -1.46875q0.4375 -0.625 1.375 -1.125q-0.328125 -0.203125 -0.625 -0.421875q-0.28125 -0.21875 -0.5 -0.5q-0.21875 -0.28125 -0.34375 -0.625q-0.125 -0.34375 -0.125 -0.796875q0 -0.515625 0.171875 -0.9374981q0.1875 -0.4375 0.515625 -0.734375q0.34375 -0.3125 0.8125 -0.484375q0.484375 -0.171875 1.078125 -0.171875q0.5625 0 1.015625 0.15625q0.453125 0.15625 0.765625 0.4375q0.3125 0.28125 0.484375 0.671875q0.171875 0.375 0.171875 0.8437481q0 0.765625 -0.34375 1.34375q-0.34375 0.578125 -1.140625 1.140625q0.34375 0.203125 0.65625 0.4375q0.3125 0.234375 0.546875 0.53125q0.234375 0.296875 0.359375 0.671875q0.140625 0.359375 0.140625 0.828125q0 0.5625 -0.1875 1.046875q-0.1875 0.46875 -0.546875 0.8125q-0.359375 0.328125 -0.890625 0.53125q-0.515625 0.1875 -1.171875 0.1875q-0.640625 0 -1.140625 -0.1875q-0.484375 -0.1875 -0.828125 -0.5q-0.34375 -0.328125 -0.515625 -0.75q-0.171875 -0.4375 -0.171875 -0.9375zm4.40625 -0.140625q0 -0.40625 -0.15625 -0.703125q-0.15625 -0.296875 -0.421875 -0.546875q-0.25 -0.25 -0.59375 -0.4375q-0.328125 -0.203125 -0.6875 -0.390625q-0.8125 0.453125 -1.15625 1.015625q-0.34375 0.5625 -0.34375 1.0625q0 0.3125 0.09375 0.609375q0.109375 0.296875 0.3125 0.515625q0.21875 0.203125 0.53125 0.34375q0.328125 0.125 0.734375 0.125q0.328125 0 0.640625 -0.09375q0.3125 -0.109375 0.53125 -0.296875q0.234375 -0.203125 0.375 -0.5q0.140625 -0.296875 0.140625 -0.703125zm-3.15625 -4.828125q0 0.375 0.140625 0.671875q0.15625 0.28125 0.40625 0.515625q0.25 0.21875 0.5625 0.421875q0.3125 0.1875 0.671875 0.359375q0.59375 -0.46875 0.875 -0.921875q0.296875 -0.453125 0.296875 -1.0q0 -0.6874981 -0.421875 -1.0468731q-0.421875 -0.375 -1.015625 -0.375q-0.359375 0 -0.640625 0.125q-0.265625 0.125 -0.46875 0.3125q-0.203125 0.1875 -0.3125 0.4375q-0.09375 0.2343731 -0.09375 0.4999981z" fill-rule="nonzero"/><path fill="#000000" d="m488.59366 33.179264q0 -0.640625 0.1875 -1.1874981q0.1875 -0.546875 0.546875 -0.9375q0.359375 -0.40625 0.890625 -0.625q0.546875 -0.234375 1.265625 -0.234375q1.359375 0 2.125 0.875q0.765625 0.875 0.765625 2.484373q0 1.5 -0.34375 2.625q-0.34375 1.125 -0.953125 1.90625q-0.59375 0.765625 -1.40625 1.203125q-0.8125 0.4375 -1.78125 0.546875l-0.234375 -0.84375q0.765625 -0.125 1.390625 -0.453125q0.625 -0.34375 1.0625 -0.84375q0.453125 -0.515625 0.734375 -1.15625q0.28125 -0.640625 0.375 -1.40625q-0.359375 0.421875 -0.796875 0.59375q-0.421875 0.171875 -1.125 0.171875q-0.546875 0 -1.046875 -0.171875q-0.484375 -0.1875 -0.859375 -0.53125q-0.359375 -0.359375 -0.578125 -0.859375q-0.21875 -0.5 -0.21875 -1.15625zm1.109375 -0.109375q0 0.9375 0.5 1.421875q0.5 0.46875 1.3125 0.46875q0.65625 0 1.125 -0.203125q0.46875 -0.21875 0.65625 -0.5625q0.03125 -0.1875 0.03125 -0.3125q0 -0.140625 0 -0.28125q0 -0.484375 -0.109375 -0.921875q-0.109375 -0.453125 -0.34375 -0.7968731q-0.21875 -0.359375 -0.59375 -0.5625q-0.359375 -0.203125 -0.859375 -0.203125q-0.8125 0 -1.265625 0.515625q-0.453125 0.5156231 -0.453125 1.4374981z" fill-rule="nonzero"/><path fill="#000000" d="m535.6225 38.69489l1.875 0l0 -6.453125l0.125 -0.7812481l-0.53125 0.6249981l-1.46875 1.046875l-0.5 -0.671875l2.921875 -2.265623l0.484375 0l0 8.499998l1.828125 0l0 0.984375l-4.734375 0l0 -0.984375zm6.404419 -3.6875q0 -2.390625 0.765625 -3.593748q0.78125 -1.21875 2.28125 -1.21875q1.609375 0 2.328125 1.1875q0.734375 1.1874981 0.734375 3.624998q0 2.40625 -0.78125 3.625q-0.78125 1.203125 -2.28125 1.203125q-1.578125 0 -2.3125 -1.265625q-0.734375 -1.265625 -0.734375 -3.5625zm1.09375 0q0 0.875 0.109375 1.59375q0.125 0.703125 0.359375 1.21875q0.25 0.515625 0.609375 0.8125q0.375 0.28125 0.875 0.28125q1.015625 0 1.484375 -0.9375q0.46875 -0.953125 0.46875 -2.96875q0 -0.84375 -0.09375 -1.5625q-0.09375 -0.71875 -0.328125 -1.234375q-0.234375 -0.5312481 -0.609375 -0.8124981q-0.375 -0.28125 -0.921875 -0.28125q-1.0 0 -1.484375 0.9531231q-0.46875 0.953125 -0.46875 2.9375z" fill-rule="nonzero"/><path fill="#000000" d="m585.53326 38.69489l1.875 0l0 -6.453125l0.125 -0.7812481l-0.53125 0.6249981l-1.46875 1.046875l-0.5 -0.671875l2.921875 -2.265623l0.484375 0l0 8.499998l1.828125 0l0 0.984375l-4.734375 0l0 -0.984375zm7.263794 0l1.875 0l0 -6.453125l0.125 -0.7812481l-0.53125 0.6249981l-1.46875 1.046875l-0.5 -0.671875l2.921875 -2.265623l0.484375 0l0 8.499998l1.828125 0l0 0.984375l-4.734375 0l0 -0.984375z" fill-rule="nonzero"/><path fill="#000000" d="m635.44403 38.69489l1.875 0l0 -6.453125l0.125 -0.7812481l-0.53125 0.6249981l-1.46875 1.046875l-0.5 -0.671875l2.921875 -2.265623l0.484375 0l0 8.499998l1.828125 0l0 0.984375l-4.734375 0l0 -0.984375zm11.763794 -6.21875q0 0.703125 -0.265625 1.4375q-0.25 0.734375 -0.671875 1.484375q-0.421875 0.75 -0.9375 1.46875q-0.515625 0.703125 -1.03125 1.34375l-0.65625 0.578125l0 0.046875l0.84375 -0.140625l2.90625 0l0 0.984375l-5.296875 0l0 -0.390625q0.296875 -0.296875 0.703125 -0.75q0.421875 -0.453125 0.859375 -1.0q0.453125 -0.5625 0.875 -1.171875q0.4375 -0.625 0.78125 -1.265625q0.359375 -0.640625 0.578125 -1.265625q0.21875 -0.640625 0.21875 -1.1875q0 -0.6562481 -0.375 -1.0937481q-0.375 -0.4375 -1.140625 -0.4375q-0.5 0 -0.984375 0.21875q-0.484375 0.203125 -0.828125 0.46875l-0.4375 -0.765625q0.46875 -0.390625 1.109375 -0.609375q0.640625 -0.234375 1.375 -0.234375q0.5625 0 1.0 0.171875q0.453125 0.15625 0.75 0.46875q0.3125 0.296875 0.46875 0.71875q0.15625 0.421875 0.15625 0.9218731z" fill-rule="nonzero"/><path fill="#000000" d="m685.3548 38.69489l1.875 0l0 -6.453125l0.125 -0.7812481l-0.53125 0.6249981l-1.46875 1.046875l-0.5 -0.671875l2.921875 -2.265623l0.484375 0l0 8.499998l1.828125 0l0 0.984375l-4.734375 0l0 -0.984375zm8.951294 0.21875q0.453125 0 0.828125 -0.140625q0.390625 -0.140625 0.671875 -0.390625q0.28125 -0.265625 0.4375 -0.625q0.15625 -0.359375 0.15625 -0.78125q0 -0.9375 -0.546875 -1.390625q-0.546875 -0.453125 -1.53125 -0.453125l-0.984375 0l0 -0.390625l1.921875 -2.953123l0.609375 -0.59375l-0.859375 0.140625l-2.640625 0l0 -0.984375l4.75 0l0 0.390625l-2.109375 3.187498l-0.46875 0.375l0 0.03125l0.453125 -0.09375q0.53125 0.015625 0.984375 0.203125q0.453125 0.171875 0.78125 0.515625q0.34375 0.328125 0.53125 0.8125q0.1875 0.46875 0.1875 1.0625q0 0.71875 -0.265625 1.28125q-0.25 0.5625 -0.6875 0.953125q-0.421875 0.375 -1.015625 0.578125q-0.578125 0.1875 -1.234375 0.1875q-0.59375 0 -1.078125 -0.09375q-0.484375 -0.09375 -0.84375 -0.234375l0.28125 -0.953125q0.3125 0.15625 0.71875 0.265625q0.421875 0.09375 0.953125 0.09375z" fill-rule="nonzero"/><path fill="#000000" d="m735.26556 38.69489l1.875 0l0 -6.453125l0.125 -0.7812481l-0.53125 0.6249981l-1.46875 1.046875l-0.5 -0.671875l2.921875 -2.265623l0.484375 0l0 8.499998l1.828125 0l0 0.984375l-4.734375 0l0 -0.984375zm12.810669 -1.875l-1.578125 0l0 2.859375l-1.03125 0l0 -2.859375l-4.109375 0l0 -0.453125l4.421875 -6.156248l0.71875 0l0 5.671873l1.578125 0l0 0.9375zm-2.609375 -3.84375l0.125 -1.0937481l-0.03125 0l-0.46875 0.9062481l-1.875 2.546875l-0.640625 0.65625l0.921875 -0.109375l1.96875 0l0 -2.90625z" fill-rule="nonzero"/><path fill="#000000" d="m785.17633 38.69489l1.875 0l0 -6.453125l0.125 -0.7812481l-0.53125 0.6249981l-1.46875 1.046875l-0.5 -0.671875l2.921875 -2.265623l0.484375 0l0 8.499998l1.828125 0l0 0.984375l-4.734375 0l0 -0.984375zm8.670044 0.21875q0.921875 0 1.515625 -0.53125q0.59375 -0.546875 0.59375 -1.5625q0 -0.96875 -0.59375 -1.4375q-0.59375 -0.484375 -1.625 -0.484375l-1.125 0.0625l0 -4.609373l4.15625 0l0 0.984375l-3.15625 0l0 2.656248l0.578125 -0.03125q1.3125 0.015625 2.078125 0.734375q0.765625 0.71875 0.765625 2.0625q0 0.75 -0.265625 1.328125q-0.25 0.578125 -0.6875 0.96875q-0.421875 0.390625 -1.015625 0.59375q-0.578125 0.1875 -1.25 0.1875q-0.59375 0 -1.015625 -0.0625q-0.40625 -0.0625 -0.765625 -0.203125l0.28125 -0.90625q0.296875 0.125 0.640625 0.1875q0.359375 0.0625 0.890625 0.0625z" fill-rule="nonzero"/><path fill="#000000" d="m26.058172 56.54193l-1.328125 -0.171875l0 -0.46875q0.265625 -0.109375 0.609375 -0.21875q0.34375 -0.109375 0.71875 -0.21875q0.390625 -0.109375 0.765625 -0.171875q0.375 -0.0625 0.671875 -0.0625l0.375 0.203125l-2.578125 12.78125l1.359375 0l0 0.484375q-0.375 0.296875 -0.90625 0.484375q-0.53125 0.1875 -1.03125 0.1875q-0.546875 0 -0.796875 -0.234375q-0.25 -0.25 -0.25 -0.5625q0 -0.375 0.046875 -0.71875q0.0625 -0.359375 0.15625 -0.796875l2.1875 -10.515625zm2.6834106 9.25q0 -0.984375 0.296875 -2.0625q0.3125 -1.078125 0.953125 -1.96875q0.640625 -0.890625 1.578125 -1.46875q0.9531269 -0.578125 2.234377 -0.578125q1.453125 0 2.1875 0.890625q0.734375 0.890625 0.734375 2.65625q0 1.21875 -0.359375 2.359375q-0.34375 1.125 -0.984375 1.984375q-0.640625 0.859375 -1.53125 1.375q-0.890625 0.5 -1.9687519 0.5q-1.4375 0 -2.296875 -0.921875q-0.84375 -0.921875 -0.84375 -2.765625zm4.687502 -5.28125q-0.921875 0.015625 -1.5000019 0.59375q-0.578125 0.578125 -0.921875 1.4375q-0.328125 0.859375 -0.46875 1.859375q-0.125 0.984375 -0.125 1.796875q0 1.109375 0.484375 1.796875q0.5 0.6875 1.3125019 0.6875q0.65625 0 1.15625 -0.484375q0.515625 -0.5 0.875 -1.3125q0.375 -0.8125 0.5625 -1.84375q0.203125 -1.03125 0.203125 -2.0625q0 -1.109375 -0.390625 -1.78125q-0.375 -0.671875 -1.1875 -0.6875zm8.683533 5.9375q0.671875 -1.125 1.1875 -2.171875q0.53125 -1.0625 0.90625 -2.125q0 -0.203125 -0.046875 -0.53125q-0.046875 -0.328125 -0.09375 -0.65625q-0.046875 -0.34375 -0.109375 -0.625q-0.046875 -0.296875 -0.078125 -0.40625q0.53125 -0.21875 1.09375 -0.234375q0.578125 -0.015625 1.0 0.234375q-0.265625 1.15625 -0.765625 2.359375q-0.484375 1.203125 -1.109375 2.40625q-0.625 1.1875 -1.359375 2.34375q-0.734375 1.15625 -1.53125 2.21875l-0.875 0.21875l-1.390625 -8.46875l-1.1875 -0.140625l0 -0.46875q0.109375 -0.078125 0.328125 -0.1875q0.234375 -0.125 0.5 -0.234375q0.265625 -0.125 0.546875 -0.1875q0.296875 -0.078125 0.5625 -0.078125q0.40625 0 0.578125 0.203125q0.1875 0.203125 0.25 0.5l0.859375 6.0625l0.09375 1.171875l0.03125 0l0.609375 -1.203125zm10.805878 1.15625q-0.171875 0.34375 -0.484375 0.6875q-0.3125 0.328125 -0.75 0.609375q-0.421875 0.265625 -0.96875 0.421875q-0.53125 0.15625 -1.15625 0.15625q-1.546875 0 -2.375 -0.875q-0.828125 -0.890625 -0.828125 -2.453125q0 -1.328125 0.375 -2.5q0.375 -1.1875 1.03125 -2.0625q0.671875 -0.875 1.625 -1.375q0.96875 -0.5 2.15625 -0.5q0.890625 0 1.53125 0.453125q0.640625 0.453125 0.640625 1.34375q0 1.328125 -1.3125 2.09375q-1.3125 0.765625 -4.234375 0.984375q-0.078125 0.328125 -0.109375 0.625q-0.03125 0.296875 -0.03125 0.578125q0 1.125 0.5625 1.828125q0.578125 0.703125 1.6875 0.703125q0.34375 0 0.6875 -0.109375q0.34375 -0.109375 0.65625 -0.28125q0.3125 -0.171875 0.5625 -0.34375q0.25 -0.1875 0.4375 -0.34375l0.296875 0.359375zm-1.953125 -7.09375q-0.8125 0.015625 -1.5 0.765625q-0.6875 0.734375 -1.171875 2.515625q1.8125 -0.046875 2.8125 -0.609375q1.015625 -0.578125 1.015625 -1.59375q0 -0.390625 -0.234375 -0.71875q-0.234375 -0.34375 -0.921875 -0.359375zm7.860565 6.546875q-0.015625 -0.453125 -0.25 -0.765625q-0.234375 -0.328125 -0.59375 -0.625q-0.359375 -0.3125 -0.78125 -0.609375q-0.40625 -0.296875 -0.765625 -0.65625q-0.359375 -0.359375 -0.59375 -0.828125q-0.234375 -0.484375 -0.234375 -1.15625q0 -0.671875 0.25 -1.171875q0.265625 -0.515625 0.71875 -0.84375q0.46875 -0.34375 1.109375 -0.515625q0.640625 -0.171875 1.40625 -0.171875q0.484375 0 1.09375 0.078125q0.609375 0.078125 1.140625 0.40625q0 0.203125 -0.078125 0.46875q-0.0625 0.265625 -0.1875 0.53125q-0.125 0.25 -0.28125 0.46875q-0.140625 0.203125 -0.296875 0.28125l-1.390625 -1.4375q-0.390625 0.015625 -0.734375 0.09375q-0.328125 0.078125 -0.578125 0.25q-0.25 0.15625 -0.390625 0.4375q-0.140625 0.265625 -0.140625 0.671875q0 0.484375 0.234375 0.828125q0.25 0.34375 0.609375 0.65625q0.375 0.3125 0.78125 0.609375q0.421875 0.28125 0.78125 0.640625q0.375 0.359375 0.609375 0.84375q0.25 0.46875 0.25 1.125q0 0.671875 -0.3125 1.203125q-0.296875 0.515625 -0.84375 0.875q-0.53125 0.359375 -1.234375 0.546875q-0.6875 0.1875 -1.46875 0.1875q-0.78125 0 -1.4375 -0.15625q-0.640625 -0.15625 -1.015625 -0.390625q0.09375 -0.5 0.21875 -0.953125q0.140625 -0.453125 0.546875 -0.84375l1.6875 1.546875q0.390625 0 0.765625 -0.09375q0.390625 -0.09375 0.6875 -0.296875q0.3125 -0.203125 0.5 -0.5q0.203125 -0.296875 0.21875 -0.734375z" fill-rule="nonzero"/><path fill="#000000" d="m77.615295 68.32318q0.5 0 1.0 -0.46875q0.515625 -0.484375 0.953125 -1.15625q0.453125 -0.671875 0.796875 -1.390625q0.359375 -0.734375 0.578125 -1.21875l0.59375 -3.1875q-0.28125 -0.1875 -0.515625 -0.25q-0.234375 -0.0625 -0.65625 -0.078125q-0.90625 0.015625 -1.609375 0.546875q-0.703125 0.53125 -1.203125 1.359375q-0.484375 0.828125 -0.734375 1.859375q-0.25 1.015625 -0.25 2.015625q0 0.953125 0.234375 1.46875q0.234375 0.5 0.8125 0.5zm2.953125 -2.71875q-0.25 0.671875 -0.625 1.359375q-0.375 0.6875 -0.84375 1.25q-0.46875 0.5625 -1.046875 0.921875q-0.5625 0.34375 -1.21875 0.34375q-1.9375 0 -1.9375 -2.828125q0 -1.328125 0.359375 -2.5625q0.375 -1.25 1.078125 -2.203125q0.71875 -0.96875 1.71875 -1.546875q1.015625 -0.578125 2.3125 -0.578125q0.484375 0 0.71875 0.078125q0.25 0.0625 0.625 0.21875l0.703125 -3.515625l-1.3125 -0.171875l0 -0.46875q0.28125 -0.109375 0.609375 -0.203125q0.34375 -0.109375 0.703125 -0.1875q0.375 -0.09375 0.75 -0.171875q0.375 -0.078125 0.6875 -0.109375l0.390625 0.15625l-2.5625 12.84375l1.375 0l0 0.46875q-0.375 0.296875 -0.90625 0.484375q-0.515625 0.1875 -1.015625 0.1875q-0.546875 0 -0.78125 -0.234375q-0.234375 -0.234375 -0.234375 -0.484375q0 -0.34375 0.125 -1.109375q0.140625 -0.765625 0.390625 -1.9375l-0.0625 0zm4.2310944 0.1875q0 -0.984375 0.296875 -2.0625q0.3125 -1.078125 0.953125 -1.96875q0.640625 -0.890625 1.578125 -1.46875q0.953125 -0.578125 2.234375 -0.578125q1.453125 0 2.1875 0.890625q0.734375 0.890625 0.734375 2.65625q0 1.21875 -0.359375 2.359375q-0.34375 1.125 -0.984375 1.984375q-0.640625 0.859375 -1.53125 1.375q-0.890625 0.5 -1.96875 0.5q-1.4375 0 -2.296875 -0.921875q-0.84375 -0.921875 -0.84375 -2.765625zm4.6875 -5.28125q-0.921875 0.015625 -1.5 0.59375q-0.578125 0.578125 -0.921875 1.4375q-0.328125 0.859375 -0.46875 1.859375q-0.125 0.984375 -0.125 1.796875q0 1.109375 0.484375 1.796875q0.5 0.6875 1.3125 0.6875q0.65625 0 1.15625 -0.484375q0.515625 -0.5 0.875 -1.3125q0.375 -0.8125 0.5625 -1.84375q0.203125 -1.03125 0.203125 -2.0625q0 -1.109375 -0.390625 -1.78125q-0.375 -0.671875 -1.1875 -0.6875zm9.261658 -0.796875q0.90625 0 1.46875 0.21875q0.5625 0.21875 0.890625 0.484375q0.171875 -0.15625 0.4375 -0.296875q0.28125 -0.15625 0.59375 -0.28125q0.328125 -0.125 0.65625 -0.234375q0.34375 -0.125 0.640625 -0.21875q0.0625 0.09375 0.09375 0.28125q0.03125 0.1875 0.015625 0.421875q0 0.21875 -0.0625 0.453125q-0.0625 0.234375 -0.203125 0.421875l-1.921875 -0.140625q0.0625 0.171875 0.109375 0.390625q0.0625 0.21875 0.0625 0.46875q0 0.75 -0.3125 1.390625q-0.296875 0.625 -0.84375 1.09375q-0.53125 0.453125 -1.25 0.71875q-0.71875 0.25 -1.53125 0.25q-0.3125 0 -0.515625 0q-0.1875 -0.015625 -0.4375 -0.078125q-0.15625 0.1875 -0.453125 0.453125q-0.28125 0.25 -0.28125 0.546875q0 0.3125 0.40625 0.484375q0.40625 0.15625 1.03125 0.296875q0.625 0.140625 1.34375 0.3125q0.734375 0.15625 1.359375 0.421875q0.625 0.265625 1.03125 0.703125q0.421875 0.421875 0.421875 1.140625q0 0.875 -0.5 1.5625q-0.484375 0.703125 -1.296875 1.203125q-0.8125 0.5 -1.859375 0.765625q-1.03125 0.265625 -2.09375 0.265625q-0.859375 0 -1.484375 -0.1875q-0.609375 -0.171875 -1.0 -0.484375q-0.390625 -0.296875 -0.578125 -0.6875q-0.1875 -0.390625 -0.1875 -0.828125q0 -0.515625 0.234375 -0.96875q0.234375 -0.4375 0.625 -0.84375q0.390625 -0.40625 0.890625 -0.734375q0.515625 -0.34375 1.046875 -0.640625q-0.265625 -0.140625 -0.453125 -0.390625q-0.171875 -0.265625 -0.171875 -0.578125q0 -0.28125 0.1875 -0.578125q0.1875 -0.3125 0.4375 -0.59375q0.25 -0.28125 0.5 -0.484375q0.25 -0.203125 0.390625 -0.296875q-0.234375 -0.0625 -0.46875 -0.203125q-0.234375 -0.15625 -0.4375 -0.390625q-0.203125 -0.25 -0.34375 -0.5625q-0.125 -0.328125 -0.125 -0.71875q0 -0.71875 0.3125 -1.328125q0.3125 -0.625 0.84375 -1.0625q0.546875 -0.4375 1.25 -0.6875q0.71875 -0.25 1.53125 -0.25zm-2.140625 12.703125q0.578125 0 1.140625 -0.171875q0.578125 -0.171875 1.03125 -0.484375q0.453125 -0.296875 0.734375 -0.765625q0.296875 -0.453125 0.296875 -1.03125q0 -0.546875 -0.453125 -0.859375q-0.453125 -0.3125 -1.109375 -0.5q-0.65625 -0.1875 -1.359375 -0.296875q-0.6875 -0.125 -1.1875 -0.296875q-0.890625 0.640625 -1.21875 1.328125q-0.3125 0.6875 -0.296875 1.28125q-0.015625 0.84375 0.640625 1.3125q0.65625 0.484375 1.78125 0.484375zm2.0 -11.96875q-0.546875 0 -0.96875 0.21875q-0.421875 0.203125 -0.71875 0.546875q-0.296875 0.34375 -0.453125 0.8125q-0.140625 0.46875 -0.140625 0.984375q0 0.703125 0.453125 1.046875q0.46875 0.328125 0.984375 0.328125q0.5625 0 0.953125 -0.1875q0.40625 -0.203125 0.671875 -0.53125q0.28125 -0.34375 0.40625 -0.765625q0.140625 -0.4375 0.140625 -0.890625q0 -0.703125 -0.328125 -1.125q-0.328125 -0.4375 -1.0 -0.4375zm8.794785 6.609375q-0.015625 -0.453125 -0.25 -0.765625q-0.234375 -0.328125 -0.59375 -0.625q-0.359375 -0.3125 -0.78125 -0.609375q-0.40625 -0.296875 -0.765625 -0.65625q-0.359375 -0.359375 -0.59375 -0.828125q-0.234375 -0.484375 -0.234375 -1.15625q0 -0.671875 0.25 -1.171875q0.265625 -0.515625 0.71875 -0.84375q0.46875 -0.34375 1.109375 -0.515625q0.640625 -0.171875 1.40625 -0.171875q0.484375 0 1.09375 0.078125q0.609375 0.078125 1.140625 0.40625q0 0.203125 -0.078125 0.46875q-0.0625 0.265625 -0.1875 0.53125q-0.125 0.25 -0.28125 0.46875q-0.140625 0.203125 -0.296875 0.28125l-1.390625 -1.4375q-0.390625 0.015625 -0.734375 0.09375q-0.328125 0.078125 -0.578125 0.25q-0.25 0.15625 -0.390625 0.4375q-0.140625 0.265625 -0.140625 0.671875q0 0.484375 0.234375 0.828125q0.25 0.34375 0.609375 0.65625q0.375 0.3125 0.78125 0.609375q0.421875 0.28125 0.78125 0.640625q0.375 0.359375 0.609375 0.84375q0.25 0.46875 0.25 1.125q0 0.671875 -0.3125 1.203125q-0.296875 0.515625 -0.84375 0.875q-0.53125 0.359375 -1.234375 0.546875q-0.6875 0.1875 -1.46875 0.1875q-0.78125 0 -1.4375 -0.15625q-0.640625 -0.15625 -1.015625 -0.390625q0.09375 -0.5 0.21875 -0.953125q0.140625 -0.453125 0.546875 -0.84375l1.6875 1.546875q0.390625 0 0.765625 -0.09375q0.390625 -0.09375 0.6875 -0.296875q0.3125 -0.203125 0.5 -0.5q0.203125 -0.296875 0.21875 -0.734375z" fill-rule="nonzero"/><path fill="#000000" d="m132.11922 56.54193l-1.3125 -0.171875l0 -0.4375q0.296875 -0.109375 0.65625 -0.21875q0.359375 -0.109375 0.71875 -0.203125q0.359375 -0.109375 0.71875 -0.171875q0.359375 -0.078125 0.65625 -0.109375l0.390625 0.203125l-1.640625 7.78125l0.09375 0q0.328125 -0.671875 0.734375 -1.296875q0.40625 -0.640625 0.859375 -1.125q0.453125 -0.484375 0.953125 -0.78125q0.515625 -0.296875 1.0625 -0.296875q1.0 0 1.578125 0.6875q0.578125 0.6875 0.578125 2.140625q0 1.4375 -0.40625 2.703125q-0.40625 1.25 -1.140625 2.203125q-0.71875 0.9375 -1.75 1.484375q-1.015625 0.546875 -2.265625 0.546875q-0.921875 0 -1.71875 -0.234375q-0.78125 -0.234375 -1.15625 -0.546875l2.390625 -12.15625zm3.109375 4.328125q-0.484375 0 -0.953125 0.4375q-0.46875 0.421875 -0.875 1.03125q-0.390625 0.59375 -0.71875 1.265625q-0.328125 0.65625 -0.546875 1.109375l-0.703125 3.578125q0.28125 0.1875 0.6875 0.296875q0.421875 0.09375 0.84375 0.09375q0.71875 0 1.359375 -0.5q0.640625 -0.5 1.125 -1.328125q0.5 -0.828125 0.765625 -1.859375q0.28125 -1.03125 0.265625 -2.09375q0.015625 -0.890625 -0.28125 -1.453125q-0.296875 -0.578125 -0.96875 -0.578125zm12.750687 7.359375l0 0.46875q-0.375 0.296875 -0.90625 0.484375q-0.53125 0.1875 -1.046875 0.1875q-0.53125 0 -0.765625 -0.21875q-0.234375 -0.21875 -0.234375 -0.484375q0 -0.34375 0.09375 -1.125q0.09375 -0.796875 0.40625 -1.9375l-0.078125 0q-0.234375 0.515625 -0.609375 1.1875q-0.359375 0.671875 -0.859375 1.28125q-0.5 0.59375 -1.140625 1.0q-0.640625 0.40625 -1.4375 0.40625q-0.640625 0 -1.09375 -0.453125q-0.453125 -0.453125 -0.453125 -1.296875q0 -0.40625 0.125 -1.203125q0.140625 -0.8125 0.328125 -1.765625q0.1875 -0.953125 0.390625 -1.9375q0.21875 -1.0 0.390625 -1.8125l-1.140625 -0.15625l0 -0.46875q0.296875 -0.125 0.640625 -0.234375q0.359375 -0.109375 0.703125 -0.203125q0.34375 -0.09375 0.65625 -0.15625q0.3125 -0.0625 0.578125 -0.078125l0.40625 0.21875q-0.296875 1.40625 -0.609375 2.671875q-0.296875 1.25 -0.5625 2.640625q-0.09375 0.453125 -0.203125 1.0q-0.09375 0.546875 -0.09375 1.203125q0 0.390625 0.203125 0.640625q0.21875 0.234375 0.5 0.234375q0.421875 0 0.828125 -0.234375q0.40625 -0.25 0.765625 -0.640625q0.375 -0.390625 0.6875 -0.859375q0.328125 -0.484375 0.59375 -0.9375q0.265625 -0.46875 0.4375 -0.875q0.1875 -0.40625 0.28125 -0.640625l0.8125 -4.203125l1.546875 0l-1.53125 8.296875l1.390625 0zm2.0023193 -7.84375q0.375 -0.203125 0.796875 -0.375q0.421875 -0.171875 0.828125 -0.265625l0.296875 -1.421875q0.265625 -0.203125 0.609375 -0.359375q0.34375 -0.15625 0.71875 -0.3125l0.390625 0.234375l-0.4375 2.046875l2.3125 0q0.03125 0.21875 -0.015625 0.46875q-0.03125 0.234375 -0.171875 0.46875l-2.3125 0l-1.1875 5.40625q-0.0625 0.359375 -0.109375 0.625q-0.03125 0.265625 -0.03125 0.5q0 0.484375 0.28125 0.703125q0.28125 0.21875 0.609375 0.21875q0.46875 0 1.0 -0.171875q0.53125 -0.171875 0.984375 -0.40625l0.203125 0.34375q-0.171875 0.234375 -0.515625 0.484375q-0.328125 0.234375 -0.75 0.453125q-0.421875 0.203125 -0.875 0.328125q-0.453125 0.125 -0.859375 0.125q-0.828125 0 -1.296875 -0.359375q-0.46875 -0.375 -0.46875 -1.171875q0 -0.25 0.046875 -0.5625q0.046875 -0.328125 0.125 -0.65625l1.234375 -5.859375l-1.421875 0l0.015625 -0.484375z" fill-rule="nonzero"/><path fill="#000000" d="m186.2359 63.94818q0.125 -0.578125 0.21875 -1.078125q0.109375 -0.5 0.109375 -0.984375q0 -0.421875 -0.203125 -0.71875q-0.1875 -0.296875 -0.609375 -0.296875q-0.5 0 -1.03125 0.40625q-0.515625 0.40625 -0.96875 0.984375q-0.453125 0.578125 -0.8125 1.203125q-0.359375 0.625 -0.546875 1.046875l-0.984375 4.75l-1.578125 0l1.640625 -8.25l-1.125 -0.15625l0.03125 -0.46875q0.265625 -0.140625 0.578125 -0.25q0.328125 -0.125 0.671875 -0.21875q0.359375 -0.09375 0.671875 -0.140625q0.328125 -0.0625 0.609375 -0.0625l0.375 0.21875l-0.703125 3.296875l0.09375 0q0.359375 -0.734375 0.8125 -1.375q0.453125 -0.65625 0.96875 -1.125q0.515625 -0.484375 1.0625 -0.75q0.5625 -0.265625 1.140625 -0.265625q0.78125 0 1.140625 0.5q0.375 0.484375 0.375 1.234375q0 0.40625 -0.09375 1.03125q-0.09375 0.609375 -0.21875 1.140625l-1.0625 4.59375l1.375 0l0 0.484375q-0.375 0.296875 -0.90625 0.484375q-0.53125 0.1875 -1.03125 0.1875q-0.546875 0 -0.75 -0.21875q-0.203125 -0.21875 -0.203125 -0.484375q0 -0.359375 0.09375 -0.78125q0.09375 -0.421875 0.1875 -0.84375l0.671875 -3.09375zm3.8607483 1.84375q0 -0.984375 0.296875 -2.0625q0.3125 -1.078125 0.953125 -1.96875q0.640625 -0.890625 1.578125 -1.46875q0.953125 -0.578125 2.234375 -0.578125q1.453125 0 2.1875 0.890625q0.734375 0.890625 0.734375 2.65625q0 1.21875 -0.359375 2.359375q-0.34375 1.125 -0.984375 1.984375q-0.640625 0.859375 -1.53125 1.375q-0.890625 0.5 -1.96875 0.5q-1.4375 0 -2.296875 -0.921875q-0.84375 -0.921875 -0.84375 -2.765625zm4.6875 -5.28125q-0.921875 0.015625 -1.5 0.59375q-0.578125 0.578125 -0.921875 1.4375q-0.328125 0.859375 -0.46875 1.859375q-0.125 0.984375 -0.125 1.796875q0 1.109375 0.484375 1.796875q0.5 0.6875 1.3125 0.6875q0.65625 0 1.15625 -0.484375q0.515625 -0.5 0.875 -1.3125q0.375 -0.8125 0.5625 -1.84375q0.203125 -1.03125 0.203125 -2.0625q0 -1.109375 -0.390625 -1.78125q-0.375 -0.671875 -1.1875 -0.6875zm5.0429077 -0.125q0.375 -0.203125 0.796875 -0.375q0.421875 -0.171875 0.828125 -0.265625l0.296875 -1.421875q0.265625 -0.203125 0.609375 -0.359375q0.34375 -0.15625 0.71875 -0.3125l0.390625 0.234375l-0.4375 2.046875l2.3125 0q0.03125 0.21875 -0.015625 0.46875q-0.03125 0.234375 -0.171875 0.46875l-2.3125 0l-1.1875 5.40625q-0.0625 0.359375 -0.109375 0.625q-0.03125 0.265625 -0.03125 0.5q0 0.484375 0.28125 0.703125q0.28125 0.21875 0.609375 0.21875q0.46875 0 1.0 -0.171875q0.53125 -0.171875 0.984375 -0.40625l0.203125 0.34375q-0.171875 0.234375 -0.515625 0.484375q-0.328125 0.234375 -0.75 0.453125q-0.421875 0.203125 -0.875 0.328125q-0.453125 0.125 -0.859375 0.125q-0.828125 0 -1.296875 -0.359375q-0.46875 -0.375 -0.46875 -1.171875q0 -0.25 0.046875 -0.5625q0.046875 -0.328125 0.125 -0.65625l1.234375 -5.859375l-1.421875 0l0.015625 -0.484375z" fill-rule="nonzero"/><path fill="#000000" d="m237.95802 60.85443l0 -0.46875q0.265625 -0.125 0.625 -0.234375q0.359375 -0.125 0.734375 -0.21875q0.375 -0.09375 0.703125 -0.15625q0.34375 -0.0625 0.59375 -0.0625l0.34375 0.21875l-1.75 8.28125l1.375 0l0 0.484375q-0.390625 0.296875 -0.921875 0.484375q-0.515625 0.1875 -1.015625 0.1875q-0.546875 0 -0.78125 -0.234375q-0.234375 -0.25 -0.234375 -0.5625q0 -0.375 0.046875 -0.71875q0.0625 -0.359375 0.15625 -0.796875l1.3125 -6.03125l-1.1875 -0.171875zm1.5 -4.15625q0 -0.484375 0.296875 -0.75q0.296875 -0.28125 0.78125 -0.28125q0.515625 0 0.8125 0.28125q0.296875 0.265625 0.296875 0.75q0 0.46875 -0.296875 0.734375q-0.296875 0.265625 -0.8125 0.265625q-0.484375 0 -0.78125 -0.265625q-0.296875 -0.265625 -0.296875 -0.734375zm4.7459106 4.171875l-1.359375 0l0 -0.484375q0.375 -0.203125 0.78125 -0.359375q0.421875 -0.171875 0.796875 -0.265625l0.140625 -0.65625q0.234375 -1.15625 0.65625 -1.90625q0.421875 -0.75 0.984375 -1.1875q0.5625 -0.4375 1.234375 -0.609375q0.671875 -0.171875 1.4375 -0.171875q0.31251526 0 0.75001526 0.078125q0.4375 0.078125 0.734375 0.21875q-0.03125 0.40625 -0.203125 0.859375q-0.15625 0.4375 -0.53125 0.75l-1.4062653 -1.15625q-0.34375 0.09375 -0.625 0.203125q-0.28125 0.109375 -0.53125 0.421875q-0.25 0.3125 -0.46875 0.875q-0.21875 0.546875 -0.4375 1.515625l-0.1875 0.9375l2.078125 0q0.09375 0.46875 -0.1875 0.9375l-2.0625 0l-1.203125 7.59375q-0.203125 1.3125 -0.6875 2.1875q-0.484375 0.890625 -1.046875 1.421875q-0.546875 0.546875 -1.0625 0.796875q-0.515625 0.265625 -0.796875 0.34375l-0.171875 -0.40625q0.21875 -0.109375 0.546875 -0.40625q0.3125 -0.28125 0.609375 -0.765625q0.3125 -0.484375 0.578125 -1.1875q0.28125 -0.703125 0.421875 -1.640625l1.21875 -7.9375z" fill-rule="nonzero"/><path fill="#000000" d="m276.19766 60.38568q0.375 -0.203125 0.796875 -0.375q0.421875 -0.171875 0.828125 -0.265625l0.296875 -1.421875q0.265625 -0.203125 0.609375 -0.359375q0.34375 -0.15625 0.71875 -0.3125l0.390625 0.234375l-0.4375 2.046875l2.3125 0q0.03125 0.21875 -0.015625 0.46875q-0.03125 0.234375 -0.171875 0.46875l-2.3125 0l-1.1875 5.40625q-0.0625 0.359375 -0.109375 0.625q-0.03125 0.265625 -0.03125 0.5q0 0.484375 0.28125 0.703125q0.28125 0.21875 0.609375 0.21875q0.46875 0 1.0 -0.171875q0.53125 -0.171875 0.984375 -0.40625l0.203125 0.34375q-0.171875 0.234375 -0.515625 0.484375q-0.328125 0.234375 -0.75 0.453125q-0.421875 0.203125 -0.875 0.328125q-0.453125 0.125 -0.859375 0.125q-0.828125 0 -1.296875 -0.359375q-0.46875 -0.375 -0.46875 -1.171875q0 -0.25 0.046875 -0.5625q0.046875 -0.328125 0.125 -0.65625l1.234375 -5.859375l-1.421875 0l0.015625 -0.484375zm7.2090454 -4.015625l0 -0.4375q0.28125 -0.109375 0.625 -0.21875q0.34375 -0.125 0.71875 -0.21875q0.375 -0.109375 0.71875 -0.171875q0.359375 -0.078125 0.6875 -0.09375l0.390625 0.171875l-1.6875 7.828125l0.09375 0q0.359375 -0.734375 0.796875 -1.375q0.453125 -0.65625 0.9375 -1.125q0.5 -0.484375 1.046875 -0.75q0.546875 -0.265625 1.09375 -0.265625q0.859375 0 1.234375 0.5q0.390625 0.484375 0.390625 1.21875q0 0.5 -0.09375 1.078125q-0.09375 0.578125 -0.21875 1.109375l-1.0625 4.59375l1.375 0l0 0.484375q-0.375 0.296875 -0.890625 0.484375q-0.515625 0.1875 -1.046875 0.1875q-0.53125 0 -0.75 -0.21875q-0.203125 -0.21875 -0.203125 -0.484375q0 -0.34375 0.09375 -0.75q0.09375 -0.421875 0.1875 -0.859375l0.671875 -3.109375q0.125 -0.578125 0.234375 -1.078125q0.109375 -0.515625 0.109375 -0.984375q0 -0.421875 -0.1875 -0.71875q-0.1875 -0.296875 -0.515625 -0.296875q-0.578125 0 -1.125 0.40625q-0.53125 0.40625 -1.0 0.984375q-0.46875 0.578125 -0.828125 1.203125q-0.34375 0.625 -0.53125 1.046875l-0.984375 4.75l-1.5625 0l2.546875 -12.71875l-1.265625 -0.171875zm15.520966 11.234375q-0.171875 0.34375 -0.484375 0.6875q-0.3125 0.328125 -0.75 0.609375q-0.421875 0.265625 -0.96875 0.421875q-0.53125 0.15625 -1.15625 0.15625q-1.546875 0 -2.375 -0.875q-0.828125 -0.890625 -0.828125 -2.453125q0 -1.328125 0.375 -2.5q0.375 -1.1875 1.03125 -2.0625q0.671875 -0.875 1.625 -1.375q0.96875 -0.5 2.15625 -0.5q0.890625 0 1.53125 0.453125q0.640625 0.453125 0.640625 1.34375q0 1.328125 -1.3125 2.09375q-1.3125 0.765625 -4.234375 0.984375q-0.078125 0.328125 -0.109375 0.625q-0.03125 0.296875 -0.03125 0.578125q0 1.125 0.5625 1.828125q0.578125 0.703125 1.6875 0.703125q0.34375 0 0.6875 -0.109375q0.34375 -0.109375 0.65625 -0.28125q0.3125 -0.171875 0.5625 -0.34375q0.25 -0.1875 0.4375 -0.34375l0.296875 0.359375zm-1.953125 -7.09375q-0.8125 0.015625 -1.5 0.765625q-0.6875 0.734375 -1.171875 2.515625q1.8125 -0.046875 2.8125 -0.609375q1.015625 -0.578125 1.015625 -1.59375q0 -0.390625 -0.234375 -0.71875q-0.234375 -0.34375 -0.921875 -0.359375zm4.7698364 0.5l-1.1875 -0.140625l0 -0.46875q0.09375 -0.078125 0.296875 -0.1875q0.21875 -0.109375 0.5 -0.21875q0.28125 -0.125 0.578125 -0.203125q0.296875 -0.078125 0.5625 -0.078125q0.390625 0 0.5625 0.203125q0.1875 0.1875 0.28125 0.5l1.546875 6.53125l0.046875 1.125l0.046875 0l0.421875 -1.109375q0.25 -0.515625 0.5 -1.140625q0.25 -0.625 0.484375 -1.25q0.25 -0.640625 0.453125 -1.25q0.203125 -0.625 0.359375 -1.15625q0 -0.203125 -0.046875 -0.53125q-0.046875 -0.34375 -0.109375 -0.671875q-0.046875 -0.34375 -0.109375 -0.625q-0.0625 -0.296875 -0.09375 -0.40625q0.265625 -0.109375 0.5625 -0.15625q0.296875 -0.0625 0.578125 -0.0625q0.5625 0 0.984375 0.21875q-0.578125 2.3125 -1.578125 4.625q-1.0 2.3125 -2.203125 4.703125q-1.015625 1.953125 -2.03125 2.921875q-1.0 0.984375 -2.265625 0.984375q-0.28125 0 -0.53125 -0.078125q-0.25 -0.078125 -0.53125 -0.234375q-0.015625 -0.203125 0.046875 -0.46875q0.046875 -0.25 0.171875 -0.515625q0.125 -0.265625 0.3125 -0.484375q0.203125 -0.21875 0.4375 -0.359375l1.515625 0.796875q0.125 -0.09375 0.328125 -0.28125q0.21875 -0.171875 0.4375 -0.484375q0.21875 -0.296875 0.4375 -0.75q0.234375 -0.4375 0.4375 -1.046875l-2.203125 -8.25z" fill-rule="nonzero"/><path fill="#000000" d="m328.73636 67.60443q-0.171875 0.34375 -0.484375 0.6875q-0.3125 0.328125 -0.75 0.609375q-0.421875 0.265625 -0.96875 0.421875q-0.53125 0.15625 -1.15625 0.15625q-1.546875 0 -2.375 -0.875q-0.828125 -0.890625 -0.828125 -2.453125q0 -1.328125 0.375 -2.5q0.375 -1.1875 1.03125 -2.0625q0.671875 -0.875 1.625 -1.375q0.96875 -0.5 2.15625 -0.5q0.890625 0 1.53125 0.453125q0.640625 0.453125 0.640625 1.34375q0 1.328125 -1.3125 2.09375q-1.3125 0.765625 -4.234375 0.984375q-0.078125 0.328125 -0.109375 0.625q-0.03125 0.296875 -0.03125 0.578125q0 1.125 0.5625 1.828125q0.578125 0.703125 1.6875 0.703125q0.34375 0 0.6875 -0.109375q0.34375 -0.109375 0.65625 -0.28125q0.3125 -0.171875 0.5625 -0.34375q0.25 -0.1875 0.4375 -0.34375l0.296875 0.359375zm-1.953125 -7.09375q-0.8125 0.015625 -1.5 0.765625q-0.6875 0.734375 -1.171875 2.515625q1.8125 -0.046875 2.8125 -0.609375q1.015625 -0.578125 1.015625 -1.59375q0 -0.390625 -0.234375 -0.71875q-0.234375 -0.34375 -0.921875 -0.359375zm7.769867 5.9375q0.671875 -1.125 1.1875 -2.171875q0.53125 -1.0625 0.90625 -2.125q0 -0.203125 -0.046875 -0.53125q-0.046875 -0.328125 -0.09375 -0.65625q-0.046875 -0.34375 -0.109375 -0.625q-0.046875 -0.296875 -0.078125 -0.40625q0.53125 -0.21875 1.09375 -0.234375q0.578125 -0.015625 1.0 0.234375q-0.265625 1.15625 -0.765625 2.359375q-0.484375 1.203125 -1.109375 2.40625q-0.625 1.1875 -1.359375 2.34375q-0.734375 1.15625 -1.53125 2.21875l-0.875 0.21875l-1.390625 -8.46875l-1.1875 -0.140625l0 -0.46875q0.109375 -0.078125 0.328125 -0.1875q0.234375 -0.125 0.5 -0.234375q0.265625 -0.125 0.546875 -0.1875q0.296875 -0.078125 0.5625 -0.078125q0.40625 0 0.578125 0.203125q0.1875 0.203125 0.25 0.5l0.859375 6.0625l0.09375 1.171875l0.03125 0l0.609375 -1.203125zm10.805878 1.15625q-0.171875 0.34375 -0.484375 0.6875q-0.3125 0.328125 -0.75 0.609375q-0.421875 0.265625 -0.96875 0.421875q-0.53125 0.15625 -1.15625 0.15625q-1.546875 0 -2.375 -0.875q-0.828125 -0.890625 -0.828125 -2.453125q0 -1.328125 0.375 -2.5q0.375 -1.1875 1.03125 -2.0625q0.671875 -0.875 1.625 -1.375q0.96875 -0.5 2.15625 -0.5q0.890625 0 1.53125 0.453125q0.640625 0.453125 0.640625 1.34375q0 1.328125 -1.3125 2.09375q-1.3125 0.765625 -4.234375 0.984375q-0.078125 0.328125 -0.109375 0.625q-0.03125 0.296875 -0.03125 0.578125q0 1.125 0.5625 1.828125q0.578125 0.703125 1.6875 0.703125q0.34375 0 0.6875 -0.109375q0.34375 -0.109375 0.65625 -0.28125q0.3125 -0.171875 0.5625 -0.34375q0.25 -0.1875 0.4375 -0.34375l0.296875 0.359375zm-1.953125 -7.09375q-0.8125 0.015625 -1.5 0.765625q-0.6875 0.734375 -1.171875 2.515625q1.8125 -0.046875 2.8125 -0.609375q1.015625 -0.578125 1.015625 -1.59375q0 -0.390625 -0.234375 -0.71875q-0.234375 -0.34375 -0.921875 -0.359375zm8.798065 0.5625q-0.484375 0.1875 -1.09375 0.9375q-0.59375 0.75 -1.0625 2.046875l-1.125 5.203125l-1.609375 0l1.734375 -8.25l-1.125 -0.15625l0 -0.46875q0.625 -0.296875 1.3125 -0.453125q0.703125 -0.171875 1.25 -0.21875l0.375 0.21875l-0.515625 2.484375l0.078125 0q0.53125 -1.234375 1.3125 -1.96875q0.78125 -0.734375 1.6875 -0.734375q0.234375 0 0.46875 0.046875q0.25 0.046875 0.484375 0.171875q0 0.171875 -0.0625 0.4375q-0.046875 0.265625 -0.15625 0.546875q-0.109375 0.28125 -0.234375 0.53125q-0.109375 0.25 -0.25 0.390625l-1.46875 -0.765625zm3.1357727 -0.0625l-1.1875 -0.140625l0 -0.46875q0.09375 -0.078125 0.296875 -0.1875q0.21875 -0.109375 0.5 -0.21875q0.28125 -0.125 0.578125 -0.203125q0.296875 -0.078125 0.5625 -0.078125q0.390625 0 0.5625 0.203125q0.1875 0.1875 0.28125 0.5l1.546875 6.53125l0.046875 1.125l0.046875 0l0.421875 -1.109375q0.25 -0.515625 0.5 -1.140625q0.25 -0.625 0.484375 -1.25q0.25 -0.640625 0.453125 -1.25q0.203125 -0.625 0.359375 -1.15625q0 -0.203125 -0.046875 -0.53125q-0.046875 -0.34375 -0.109375 -0.671875q-0.046875 -0.34375 -0.109375 -0.625q-0.0625 -0.296875 -0.09375 -0.40625q0.265625 -0.109375 0.5625 -0.15625q0.296875 -0.0625 0.578125 -0.0625q0.5625 0 0.984375 0.21875q-0.578125 2.3125 -1.578125 4.625q-1.0 2.3125 -2.203125 4.703125q-1.015625 1.953125 -2.03125 2.921875q-1.0 0.984375 -2.265625 0.984375q-0.28125 0 -0.53125 -0.078125q-0.25 -0.078125 -0.53125 -0.234375q-0.015625 -0.203125 0.046875 -0.46875q0.046875 -0.25 0.171875 -0.515625q0.125 -0.265625 0.3125 -0.484375q0.203125 -0.21875 0.4375 -0.359375l1.515625 0.796875q0.125 -0.09375 0.328125 -0.28125q0.21875 -0.171875 0.4375 -0.484375q0.21875 -0.296875 0.4375 -0.75q0.234375 -0.4375 0.4375 -1.046875l-2.203125 -8.25z" fill-rule="nonzero"/><path fill="#000000" d="m386.7243 67.60443q-0.203125 0.34375 -0.53125 0.6875q-0.3125 0.328125 -0.75 0.609375q-0.421875 0.265625 -0.953125 0.421875q-0.53125 0.15625 -1.15625 0.15625q-1.390625 0 -2.1875 -0.875q-0.796875 -0.875 -0.796875 -2.390625q0 -1.34375 0.421875 -2.515625q0.4375 -1.1875 1.171875 -2.078125q0.734375 -0.890625 1.734375 -1.390625q1.0 -0.515625 2.140625 -0.515625q0.703125 0 1.140625 0.109375q0.453125 0.109375 0.6875 0.3125q0.015625 0.203125 -0.03125 0.46875q-0.046875 0.25 -0.15625 0.5q-0.09375 0.234375 -0.265625 0.4375q-0.15625 0.203125 -0.3125 0.28125l-1.28125 -1.3125q-0.625 0.015625 -1.25 0.390625q-0.625 0.375 -1.125 1.0625q-0.484375 0.6875 -0.796875 1.671875q-0.3125 0.984375 -0.296875 2.203125q-0.015625 1.296875 0.515625 1.890625q0.53125 0.59375 1.453125 0.59375q0.390625 0 0.734375 -0.109375q0.34375 -0.109375 0.640625 -0.28125q0.296875 -0.171875 0.53125 -0.34375q0.25 -0.1875 0.4375 -0.34375l0.28125 0.359375zm4.372467 0.71875q0.5 0 1.0 -0.46875q0.5 -0.484375 0.953125 -1.15625q0.453125 -0.671875 0.796875 -1.390625q0.359375 -0.734375 0.5625 -1.21875l0.59375 -3.1875q-0.25 -0.1875 -0.5 -0.25q-0.234375 -0.078125 -0.671875 -0.078125q-0.859375 0 -1.5625 0.53125q-0.6875 0.53125 -1.1875 1.375q-0.5 0.828125 -0.765625 1.859375q-0.265625 1.015625 -0.265625 2.015625q0 0.953125 0.234375 1.46875q0.234375 0.5 0.8125 0.5zm2.9375 -2.71875q-0.234375 0.671875 -0.609375 1.359375q-0.359375 0.6875 -0.84375 1.25q-0.46875 0.5625 -1.046875 0.921875q-0.578125 0.34375 -1.21875 0.34375q-1.953125 0 -1.953125 -2.8125q0 -1.3125 0.375 -2.546875q0.375 -1.234375 1.078125 -2.203125q0.71875 -0.984375 1.734375 -1.5625q1.015625 -0.59375 2.296875 -0.59375q0.46875 0 0.75 0.09375q0.28125 0.078125 0.671875 0.25q0.75 -0.390625 1.5625 -0.390625l-1.671875 8.515625l1.359375 0l0 0.46875q-0.375 0.296875 -0.90625 0.484375q-0.515625 0.1875 -1.015625 0.1875q-0.53125 0 -0.765625 -0.234375q-0.234375 -0.234375 -0.234375 -0.484375q0 -0.34375 0.125 -1.109375q0.125 -0.765625 0.390625 -1.9375l-0.078125 0zm4.512329 -5.21875q0.37503052 -0.203125 0.7969055 -0.375q0.421875 -0.171875 0.828125 -0.265625l0.296875 -1.421875q0.265625 -0.203125 0.609375 -0.359375q0.34375 -0.15625 0.71875 -0.3125l0.390625 0.234375l-0.4375 2.046875l2.3125 0q0.03125 0.21875 -0.015625 0.46875q-0.03125 0.234375 -0.171875 0.46875l-2.3125 0l-1.1875 5.40625q-0.0625 0.359375 -0.109375 0.625q-0.03125 0.265625 -0.03125 0.5q0 0.484375 0.28125 0.703125q0.28125 0.21875 0.609375 0.21875q0.46875 0 1.0 -0.171875q0.53125 -0.171875 0.984375 -0.40625l0.203125 0.34375q-0.171875 0.234375 -0.515625 0.484375q-0.328125 0.234375 -0.75 0.453125q-0.421875 0.203125 -0.875 0.328125q-0.453125 0.125 -0.859375 0.125q-0.828125 0 -1.296875 -0.359375q-0.46878052 -0.375 -0.46878052 -1.171875q0 -0.25 0.046875 -0.5625q0.046875 -0.328125 0.125 -0.65625l1.2344055 -5.859375l-1.4219055 0l0.015625 -0.484375z" fill-rule="nonzero"/><path fill="#000000" fill-opacity="0.0" d="m315.32236 115.66426l52.787415 0l0 22.614182l-52.787415 0z" fill-rule="evenodd"/><path fill="#000000" d="m322.71048 124.256134l1.453125 0l0 -0.515625q0 -0.859375 0.140625 -1.5q0.140625 -0.640625 0.453125 -1.03125q0.328125 -0.40625 0.828125 -0.59375q0.5 -0.203125 1.25 -0.203125q0.59375 0 1.046875 0.078125q0.46875 0.078125 0.96875 0.28125l-0.328125 1.25q-0.4375 -0.1875 -0.828125 -0.234375q-0.375 -0.0625 -0.703125 -0.0625q-0.484375 0 -0.765625 0.15625q-0.265625 0.140625 -0.390625 0.4375q-0.109375 0.28125 -0.140625 0.703125q-0.03125 0.40625 -0.03125 0.96875l0 0.265625l2.484375 0l0 1.3125l-2.484375 0l0 8.015625l-1.5 0l0 -8.015625l-1.453125 0l0 -1.3125zm11.388855 1.4375q-0.5625 -0.1875 -1.0625 -0.1875q-0.8125 0 -1.28125 0.4375q-0.453125 0.4375 -0.578125 1.109375l0 6.53125l-1.484375 0l0 -9.328125l1.046875 0l0.28125 1.140625l0.0625 0q0.359375 -0.640625 0.84375 -0.984375q0.5 -0.34375 1.265625 -0.34375q0.546875 0 1.21875 0.1875l-0.3125 1.4375zm1.4212341 3.21875q0 -2.359375 1.046875 -3.609375q1.046875 -1.265625 3.03125 -1.265625q1.046875 0 1.8125 0.34375q0.78125 0.34375 1.28125 0.984375q0.5 0.640625 0.734375 1.546875q0.25 0.90625 0.25 2.0q0 2.375 -1.046875 3.640625q-1.046875 1.25 -3.03125 1.25q-1.046875 0 -1.828125 -0.34375q-0.765625 -0.34375 -1.265625 -0.984375q-0.5 -0.640625 -0.75 -1.546875q-0.234375 -0.90625 -0.234375 -2.015625zm1.546875 0q0 0.71875 0.140625 1.375q0.140625 0.640625 0.4375 1.140625q0.296875 0.484375 0.78125 0.78125q0.484375 0.296875 1.171875 0.296875q2.53125 0.015625 2.53125 -3.59375q0 -0.71875 -0.140625 -1.375q-0.140625 -0.65625 -0.4375 -1.140625q-0.296875 -0.484375 -0.78125 -0.765625q-0.484375 -0.296875 -1.171875 -0.296875q-2.53125 -0.015625 -2.53125 3.578125zm14.952881 4.671875l0 -5.3125q0 -1.453125 -0.421875 -2.1875q-0.421875 -0.75 -1.53125 -0.75q-0.984375 0 -1.640625 0.53125q-0.640625 0.53125 -0.90625 1.34375l0 6.375l-1.484375 0l0 -9.328125l1.046875 0l0.28125 1.140625l0.0625 0q0.453125 -0.59375 1.203125 -0.96875q0.765625 -0.390625 1.8125 -0.390625q0.765625 0 1.34375 0.171875q0.578125 0.171875 0.953125 0.625q0.390625 0.453125 0.578125 1.203125q0.203125 0.75 0.203125 1.90625l0 5.640625l-1.5 0zm2.9862366 -9.328125l1.453125 0l0 -1.84375l1.5 -0.4375l0 2.28125l2.53125 0l0 1.3125l-2.53125 0l0 5.15625q0 0.96875 0.234375 1.375q0.25 0.40625 0.828125 0.40625q0.484375 0 0.8125 -0.09375q0.34375 -0.109375 0.75 -0.28125l0.34375 1.140625q-0.515625 0.234375 -1.109375 0.375q-0.59375 0.15625 -1.28125 0.15625q-1.140625 0 -1.609375 -0.640625q-0.46875 -0.640625 -0.46875 -2.15625l0 -5.4375l-1.453125 0l0 -1.3125z" fill-rule="nonzero"/><path fill="#000000" fill-opacity="0.0" d="m341.71606 115.66426c0 -8.403252 0.01574707 -12.6057205 0.03149414 -16.806503c0.01574707 -4.2007904 0.03149414 -8.399895 0.03149414 -16.79979" fill-rule="evenodd"/><path stroke="#000000" stroke-width="2.0" stroke-linejoin="round" stroke-linecap="butt" d="m341.71606 115.66427c0 -8.403259 0.01574707 -12.605728 0.03149414 -16.80651l0.0152282715 -4.7998123" fill-rule="evenodd"/><path fill="#000000" stroke="#000000" stroke-width="2.0" stroke-linecap="butt" d="m345.06625 94.06243l-3.2911682 -9.080666l-3.3157654 9.071709z" fill-rule="evenodd"/><path fill="#000000" fill-opacity="0.0" d="m328.33762 72.004135l26.834656 0l0 10.047249l-26.834656 0z" fill-rule="evenodd"/><path fill="#000000" fill-opacity="0.0" d="m265.20157 115.66426l52.787384 0l0 22.614182l-52.787384 0z" fill-rule="evenodd"/><path fill="#000000" d="m281.73044 125.693634q-0.5625 -0.1875 -1.0625 -0.1875q-0.8125 0 -1.28125 0.4375q-0.453125 0.4375 -0.578125 1.109375l0 6.53125l-1.484375 0l0 -9.328125l1.046875 0l0.28125 1.140625l0.0625 0q0.359375 -0.640625 0.84375 -0.984375q0.5 -0.34375 1.265625 -0.34375q0.546875 0 1.21875 0.1875l-0.3125 1.4375zm8.74939 7.140625q-0.5625 0.453125 -1.421875 0.71875q-0.84375 0.25 -1.796875 0.25q-1.0625 0 -1.84375 -0.34375q-0.78125 -0.34375 -1.28125 -0.984375q-0.5 -0.640625 -0.75 -1.53125q-0.234375 -0.90625 -0.234375 -2.03125q0 -2.375 1.0625 -3.625q1.0625 -1.25 3.03125 -1.25q0.640625 0 1.265625 0.140625q0.640625 0.140625 1.140625 0.53125q0.5 0.390625 0.8125 1.109375q0.328125 0.71875 0.328125 1.890625q0 0.609375 -0.109375 1.359375l-5.984375 0q0 0.828125 0.15625 1.46875q0.171875 0.625 0.515625 1.0625q0.359375 0.4375 0.921875 0.671875q0.578125 0.234375 1.40625 0.234375q0.625 0 1.265625 -0.21875q0.640625 -0.234375 0.953125 -0.53125l0.5625 1.078125zm-3.21875 -7.5q-1.09375 0 -1.765625 0.578125q-0.65625 0.578125 -0.78125 1.984375l4.625 0q0 -1.421875 -0.546875 -1.984375q-0.53125 -0.578125 -1.53125 -0.578125zm5.727356 -0.390625q0.71875 -0.421875 1.65625 -0.625q0.9375 -0.21875 1.96875 -0.21875q0.96875 0 1.546875 0.265625q0.59375 0.265625 0.90625 0.6875q0.3125 0.421875 0.40625 0.921875q0.109375 0.5 0.109375 1.0q0 1.125 -0.0625 2.1875q-0.046875 1.0625 -0.046875 2.015625q0 0.6875 0.046875 1.3125q0.0625 0.609375 0.203125 1.125l-1.09375 0l-0.390625 -1.296875l-0.09375 0q-0.171875 0.265625 -0.421875 0.515625q-0.25 0.25 -0.609375 0.453125q-0.34375 0.1875 -0.8125 0.3125q-0.46875 0.140625 -1.0625 0.140625q-0.609375 0 -1.125 -0.1875q-0.5 -0.1875 -0.875 -0.53125q-0.375 -0.359375 -0.59375 -0.84375q-0.203125 -0.484375 -0.203125 -1.09375q0 -0.828125 0.328125 -1.375q0.34375 -0.546875 0.9375 -0.875q0.609375 -0.328125 1.453125 -0.46875q0.859375 -0.140625 1.875 -0.140625q0.265625 0 0.515625 0q0.25 0 0.515625 0.046875q0.0625 -0.5625 0.0625 -1.015625q0 -1.015625 -0.421875 -1.421875q-0.40625 -0.421875 -1.484375 -0.421875q-0.3125 0 -0.6875 0.046875q-0.359375 0.046875 -0.75 0.140625q-0.375 0.078125 -0.71875 0.203125q-0.34375 0.109375 -0.609375 0.265625l-0.46875 -1.125zm2.65625 7.484375q0.515625 0 0.921875 -0.140625q0.421875 -0.140625 0.71875 -0.34375q0.296875 -0.21875 0.484375 -0.484375q0.203125 -0.265625 0.296875 -0.5l0 -1.546875q-0.265625 -0.03125 -0.53125 -0.03125q-0.265625 -0.015625 -0.53125 -0.015625q-0.578125 0 -1.125 0.078125q-0.546875 0.0625 -0.96875 0.234375q-0.421875 0.171875 -0.671875 0.484375q-0.25 0.3125 -0.25 0.765625q0 0.65625 0.453125 1.078125q0.46875 0.421875 1.203125 0.421875zm11.1597595 -6.734375q-0.5625 -0.1875 -1.0625 -0.1875q-0.8125 0 -1.28125 0.4375q-0.453125 0.4375 -0.578125 1.109375l0 6.53125l-1.484375 0l0 -9.328125l1.046875 0l0.28125 1.140625l0.0625 0q0.359375 -0.640625 0.84375 -0.984375q0.5 -0.34375 1.265625 -0.34375q0.546875 0 1.21875 0.1875l-0.3125 1.4375z" fill-rule="nonzero"/><path fill="#000000" fill-opacity="0.0" d="m291.59525 115.66426c0 -8.403252 0.01574707 -12.6057205 0.03149414 -16.806503c0.01574707 -4.2007904 0.03149414 -8.399895 0.03149414 -16.79979" fill-rule="evenodd"/><path stroke="#000000" stroke-width="2.0" stroke-linejoin="round" stroke-linecap="butt" d="m291.59525 115.66427c0 -8.403259 0.01574707 -12.605728 0.03149414 -16.80651l0.0152282715 -4.7998123" fill-rule="evenodd"/><path fill="#000000" stroke="#000000" stroke-width="2.0" stroke-linecap="butt" d="m294.94543 94.06243l-3.2911682 -9.080666l-3.3157654 9.071709z" fill-rule="evenodd"/><path fill="#000000" fill-opacity="0.0" d="m278.2168 72.004135l26.834656 0l0 10.047249l-26.834656 0z" fill-rule="evenodd"/><path fill="#000000" fill-opacity="0.0" d="m770.5562 12.982661l-738.9237 125.308556" fill-rule="evenodd"/><path stroke="#999999" stroke-width="4.0" stroke-linejoin="round" stroke-linecap="butt" d="m770.5562 12.982661l-738.9237 125.308556" fill-rule="evenodd"/><path fill="#000000" fill-opacity="0.0" d="m31.632494 12.982661l738.9237 125.308556" fill-rule="evenodd"/><path stroke="#999999" stroke-width="4.0" stroke-linejoin="round" stroke-linecap="butt" d="m31.632494 12.982661l738.9237 125.308556" fill-rule="evenodd"/></g></svg>