<svg version="1.1" viewBox="0.0 0.0 1474.9580052493438 250.498687664042" fill="none" stroke="none" stroke-linecap="square" stroke-miterlimit="10" xmlns:xlink="http://www.w3.org/1999/xlink" xmlns="http://www.w3.org/2000/svg"><clipPath id="p.0"><path d="m0 0l1474.958 0l0 250.49869l-1474.958 0l0 -250.49869z" clip-rule="nonzero"/></clipPath><g clip-path="url(#p.0)"><path fill="#000000" fill-opacity="0.0" d="m0 0l1474.958 0l0 250.49869l-1474.958 0z" fill-rule="evenodd"/><path fill="#000000" fill-opacity="0.0" d="m290.34436 53.725994c29.086609 0 58.173218 14.456692 58.173218 28.913387" fill-rule="evenodd"/><path stroke="#999999" stroke-width="2.0" stroke-linejoin="round" stroke-linecap="butt" d="m297.91766 54.0451l0.5833435 0.050159454c0.90097046 0.08074188 1.7992859 0.17427063 2.6940308 0.28015518c3.57901 0.4235344 7.101227 1.0447197 10.509796 1.8353233c6.8171997 1.5811996 13.179871 3.8400574 18.633636 6.550686c2.7268677 1.35532 5.2265015 2.823574 7.4420776 4.3765373c1.1077881 0.7764816 2.1445618 1.5741425 3.103241 2.38945c0.47930908 0.4076538 0.93911743 0.8197174 1.3785095 1.2357559c0.21969604 0.20801544 0.43429565 0.41703033 0.64367676 0.626976c0.10467529 0.10497284 0.20806885 0.21018219 0.31011963 0.3156128l0.10958862 0.11493683" fill-rule="evenodd"/><path fill="#999999" stroke="#999999" stroke-width="2.0" stroke-linecap="butt" d="m291.34348 53.768093c0.07650757 -1.8154068 1.610199 -3.2250748 3.4255981 -3.1485786c1.8153992 0.07649231 3.2250671 1.6101799 3.1485596 3.4255867c-0.07647705 1.8154068 -1.6101685 3.225071 -3.4255676 3.1485786c-1.8153992 -0.07649231 -3.2250671 -1.6101837 -3.14859 -3.4255867z" fill-rule="nonzero"/><path fill="#999999" stroke="#999999" stroke-width="2.0" stroke-linecap="butt" d="m340.3474 73.24997l6.905182 6.753433l-0.9486389 -9.611984z" fill-rule="evenodd"/><path fill="#000000" fill-opacity="0.0" d="m193.837 41.001453c0 -3.5138206 2.848526 -6.3623314 6.362335 -6.3623314l104.66116 0c1.6874084 0 3.3056946 0.6703148 4.4988403 1.8634834c1.1931763 1.1931686 1.8634949 2.811451 1.8634949 4.498848l0 25.448566c0 3.5138168 -2.8485107 6.3623276 -6.362335 6.3623276l-104.66116 0c-3.5138092 0 -6.362335 -2.8485107 -6.362335 -6.3623276z" fill-rule="evenodd"/><path stroke="#999999" stroke-width="2.0" stroke-linejoin="round" stroke-linecap="butt" d="m193.837 41.001453c0 -3.5138206 2.848526 -6.3623314 6.362335 -6.3623314l104.66116 0c1.6874084 0 3.3056946 0.6703148 4.4988403 1.8634834c1.1931763 1.1931686 1.8634949 2.811451 1.8634949 4.498848l0 25.448566c0 3.5138168 -2.8485107 6.3623276 -6.362335 6.3623276l-104.66116 0c-3.5138092 0 -6.362335 -2.8485107 -6.362335 -6.3623276z" fill-rule="evenodd"/><path fill="#999999" d="m219.08826 58.091957q-0.1875 0.390625 -0.5625 0.78125q-0.359375 0.390625 -0.84375 0.703125q-0.484375 0.296875 -1.109375 0.46875q-0.625 0.1875 -1.328125 0.1875q-1.765625 0 -2.71875 -1.0q-0.9375 -1.015625 -0.9375 -2.8125q0 -1.515625 0.421875 -2.859375q0.421875 -1.34375 1.1875 -2.34375q0.765625 -1.0 1.859375 -1.578125q1.109375 -0.578125 2.453125 -0.578125q1.03125 0 1.765625 0.53125q0.734375 0.515625 0.734375 1.546875q0 1.5 -1.515625 2.375q-1.5 0.875 -4.84375 1.140625q-0.078125 0.359375 -0.125 0.703125q-0.03125 0.34375 -0.03125 0.65625q0 1.28125 0.65625 2.09375q0.65625 0.8125 1.90625 0.8125q0.40625 0 0.796875 -0.125q0.40625 -0.140625 0.75 -0.328125q0.359375 -0.1875 0.640625 -0.40625q0.296875 -0.21875 0.5 -0.375l0.34375 0.40625zm-2.234375 -8.109375q-0.921875 0.015625 -1.71875 0.859375q-0.78125 0.84375 -1.328125 2.890625q2.0625 -0.0625 3.203125 -0.703125q1.15625 -0.65625 1.15625 -1.8125q0 -0.453125 -0.265625 -0.828125q-0.265625 -0.390625 -1.046875 -0.40625zm8.891846 6.78125q0.765625 -1.28125 1.359375 -2.484375q0.59375 -1.203125 1.03125 -2.421875q0 -0.234375 -0.0625 -0.609375q-0.046875 -0.375 -0.109375 -0.75q-0.046875 -0.390625 -0.109375 -0.71875q-0.0625 -0.328125 -0.109375 -0.46875q0.625 -0.25 1.265625 -0.25q0.65625 -0.015625 1.140625 0.25q-0.3125 1.328125 -0.875 2.703125q-0.546875 1.375 -1.265625 2.75q-0.703125 1.359375 -1.546875 2.6875q-0.84375 1.3125 -1.765625 2.53125l-1.0 0.25l-1.578125 -9.671875l-1.375 -0.171875l0 -0.53125q0.140625 -0.09375 0.390625 -0.234375q0.25 -0.140625 0.5625 -0.265625q0.3125 -0.125 0.640625 -0.203125q0.328125 -0.09375 0.625 -0.09375q0.46875 0 0.671875 0.234375q0.203125 0.234375 0.265625 0.578125l0.984375 6.9375l0.109375 1.34375l0.046875 0l0.703125 -1.390625zm12.345917 1.328125q-0.1875 0.390625 -0.5625 0.78125q-0.359375 0.390625 -0.84375 0.703125q-0.484375 0.296875 -1.109375 0.46875q-0.625 0.1875 -1.328125 0.1875q-1.765625 0 -2.71875 -1.0q-0.9375 -1.015625 -0.9375 -2.8125q0 -1.515625 0.421875 -2.859375q0.421875 -1.34375 1.1875 -2.34375q0.765625 -1.0 1.859375 -1.578125q1.109375 -0.578125 2.453125 -0.578125q1.03125 0 1.765625 0.53125q0.734375 0.515625 0.734375 1.546875q0 1.5 -1.515625 2.375q-1.5 0.875 -4.84375 1.140625q-0.078125 0.359375 -0.125 0.703125q-0.03125 0.34375 -0.03125 0.65625q0 1.28125 0.65625 2.09375q0.65625 0.8125 1.90625 0.8125q0.40625 0 0.796875 -0.125q0.40625 -0.140625 0.75 -0.328125q0.359375 -0.1875 0.640625 -0.40625q0.296875 -0.21875 0.5 -0.375l0.34375 0.40625zm-2.234375 -8.109375q-0.921875 0.015625 -1.71875 0.859375q-0.78125 0.84375 -1.328125 2.890625q2.0625 -0.0625 3.203125 -0.703125q1.15625 -0.65625 1.15625 -1.8125q0 -0.453125 -0.265625 -0.828125q-0.265625 -0.390625 -1.046875 -0.40625zm10.058014 0.640625q-0.546875 0.203125 -1.25 1.078125q-0.6875 0.859375 -1.21875 2.328125l-1.28125 5.953125l-1.828125 0l1.984375 -9.421875l-1.3125 -0.203125l0 -0.53125q0.734375 -0.34375 1.515625 -0.515625q0.796875 -0.1875 1.4375 -0.25l0.421875 0.25l-0.59375 2.84375l0.078125 0q0.625 -1.40625 1.515625 -2.25q0.90625 -0.84375 1.921875 -0.84375q0.28125 0 0.546875 0.0625q0.28125 0.046875 0.546875 0.1875q0 0.203125 -0.078125 0.515625q-0.0625 0.296875 -0.1875 0.625q-0.109375 0.3125 -0.25 0.609375q-0.125 0.28125 -0.28125 0.4375l-1.6875 -0.875zm3.5863647 -0.0625l-1.359375 -0.171875l0 -0.53125q0.109375 -0.09375 0.34375 -0.21875q0.25 -0.125 0.5625 -0.25q0.328125 -0.140625 0.671875 -0.234375q0.34375 -0.09375 0.640625 -0.09375q0.4375 0 0.640625 0.234375q0.203125 0.21875 0.3125 0.578125l1.765625 7.46875l0.078125 1.28125l0.03125 0l0.5 -1.265625q0.265625 -0.59375 0.546875 -1.3125q0.296875 -0.71875 0.578125 -1.4375q0.28125 -0.71875 0.515625 -1.421875q0.234375 -0.703125 0.40625 -1.3125q0 -0.234375 -0.0625 -0.609375q-0.046875 -0.390625 -0.109375 -0.765625q-0.0625 -0.390625 -0.140625 -0.71875q-0.0625 -0.328125 -0.09375 -0.46875q0.296875 -0.125 0.640625 -0.1875q0.34375 -0.0625 0.65625 -0.0625q0.640625 0 1.125 0.25q-0.65625 2.65625 -1.796875 5.296875q-1.140625 2.640625 -2.53125 5.375q-1.140625 2.234375 -2.296875 3.34375q-1.15625 1.109375 -2.609375 1.109375q-0.3125 0 -0.609375 -0.09375q-0.28125 -0.078125 -0.59375 -0.25q-0.03125 -0.234375 0.03125 -0.53125q0.0625 -0.296875 0.203125 -0.59375q0.140625 -0.296875 0.359375 -0.5625q0.234375 -0.25 0.515625 -0.390625l1.71875 0.890625q0.15625 -0.109375 0.390625 -0.3125q0.234375 -0.203125 0.484375 -0.5625q0.25 -0.34375 0.5 -0.84375q0.265625 -0.5 0.5 -1.203125l-2.515625 -9.421875z" fill-rule="nonzero"/><path fill="#000000" fill-opacity="0.0" d="m276.29712 39.663002l14.047241 0l0 28.125984l-14.047241 0z" fill-rule="evenodd"/><path fill="#000000" fill-opacity="0.0" d="m278.38162 34.639122l0 38.173225" fill-rule="evenodd"/><path stroke="#999999" stroke-width="2.0" stroke-linejoin="round" stroke-linecap="butt" d="m278.38162 34.639122l0 38.173225" fill-rule="evenodd"/><path fill="#000000" fill-opacity="0.0" d="m386.33124 101.72599c29.102356 0 58.204712 14.456696 58.204712 28.913383" fill-rule="evenodd"/><path stroke="#000000" stroke-width="2.0" stroke-linejoin="round" stroke-linecap="butt" d="m393.90454 102.044754l0.58773804 0.05051422c0.90145874 0.08074188 1.800293 0.17427063 2.6954956 0.28015137c3.5809631 0.4235382 7.105072 1.0447235 10.515503 1.8353195c6.8208923 1.5812073 13.187012 3.840065 18.643707 6.5506897c2.728363 1.3553162 5.2293396 2.823578 7.446106 4.376541c1.1083984 0.7764816 2.1457214 1.5741348 3.1049194 2.3894424c0.47961426 0.40766144 0.93966675 0.8197174 1.3792725 1.2357635c0.21981812 0.20801544 0.4345398 0.4170227 0.64401245 0.626976c0.10473633 0.10496521 0.2081604 0.21018219 0.31030273 0.31562042l0.11050415 0.115852356" fill-rule="evenodd"/><path fill="#000000" stroke="#000000" stroke-width="2.0" stroke-linecap="butt" d="m387.33035 101.76805c0.076416016 -1.8154068 1.6100464 -3.225151 3.4254456 -3.148735c1.8153992 0.076408386 3.2251587 1.6100311 3.1487427 3.425438c-0.076416016 1.8154068 -1.6100464 3.225151 -3.4254456 3.148735c-1.8153992 -0.076408386 -3.2251587 -1.6100311 -3.1487427 -3.425438z" fill-rule="nonzero"/><path fill="#000000" stroke="#000000" stroke-width="2.0" stroke-linecap="butt" d="m436.3641 121.25143l6.906372 6.752205l-0.9503479 -9.611816z" fill-rule="evenodd"/><path fill="#000000" fill-opacity="0.0" d="m289.837 89.00145c0 -3.5138168 2.8485107 -6.3623276 6.362335 -6.3623276l104.66116 0c1.6874084 0 3.3056946 0.670311 4.4988403 1.8634796c1.1931763 1.1931686 1.8634949 2.8114548 1.8634949 4.498848l0 25.44857c0 3.5138168 -2.8485107 6.3623276 -6.362335 6.3623276l-104.66116 0c-3.5138245 0 -6.362335 -2.8485107 -6.362335 -6.3623276z" fill-rule="evenodd"/><path stroke="#000000" stroke-width="2.0" stroke-linejoin="round" stroke-linecap="butt" d="m289.837 89.00145c0 -3.5138168 2.8485107 -6.3623276 6.362335 -6.3623276l104.66116 0c1.6874084 0 3.3056946 0.670311 4.4988403 1.8634796c1.1931763 1.1931686 1.8634949 2.8114548 1.8634949 4.498848l0 25.44857c0 3.5138168 -2.8485107 6.3623276 -6.362335 6.3623276l-104.66116 0c-3.5138245 0 -6.362335 -2.8485107 -6.362335 -6.3623276z" fill-rule="evenodd"/><path fill="#000000" d="m324.31787 106.09196q-0.234375 0.390625 -0.59375 0.78125q-0.359375 0.390625 -0.859375 0.703125q-0.484375 0.296875 -1.09375 0.46875q-0.609375 0.1875 -1.328125 0.1875q-1.578125 0 -2.5 -1.0q-0.90625 -1.0 -0.90625 -2.71875q0 -1.546875 0.484375 -2.890625q0.484375 -1.359375 1.328125 -2.375q0.84375 -1.015625 1.984375 -1.59375q1.140625 -0.59375 2.453125 -0.59375q0.796875 0 1.3125 0.125q0.515625 0.125 0.765625 0.375q0.03125 0.234375 -0.03125 0.515625q-0.046875 0.28125 -0.171875 0.5625q-0.109375 0.28125 -0.296875 0.515625q-0.171875 0.234375 -0.375 0.3125l-1.4375 -1.484375q-0.734375 0.015625 -1.453125 0.453125q-0.703125 0.421875 -1.28125 1.21875q-0.5625 0.78125 -0.921875 1.90625q-0.34375 1.109375 -0.3125 2.515625q-0.03125 1.46875 0.578125 2.15625q0.609375 0.6875 1.65625 0.6875q0.453125 0 0.84375 -0.125q0.390625 -0.140625 0.734375 -0.328125q0.34375 -0.1875 0.609375 -0.40625q0.28125 -0.21875 0.5 -0.375l0.3125 0.40625zm4.997772 0.828125q0.578125 0 1.15625 -0.546875q0.578125 -0.546875 1.078125 -1.3125q0.515625 -0.765625 0.921875 -1.59375q0.40625 -0.84375 0.640625 -1.390625l0.6875 -3.65625q-0.296875 -0.203125 -0.578125 -0.28125q-0.28125 -0.09375 -0.765625 -0.09375q-0.984375 0 -1.796875 0.609375q-0.796875 0.609375 -1.359375 1.578125q-0.5625 0.953125 -0.875 2.125q-0.296875 1.171875 -0.296875 2.296875q0 1.09375 0.265625 1.6875q0.265625 0.578125 0.921875 0.578125zm3.375 -3.125q-0.28125 0.78125 -0.703125 1.578125q-0.40625 0.78125 -0.953125 1.421875q-0.546875 0.640625 -1.21875 1.046875q-0.65625 0.390625 -1.390625 0.390625q-2.21875 0 -2.21875 -3.21875q0 -1.484375 0.421875 -2.90625q0.421875 -1.421875 1.234375 -2.53125q0.8125 -1.109375 1.96875 -1.78125q1.171875 -0.671875 2.640625 -0.671875q0.53125 0 0.84375 0.09375q0.328125 0.09375 0.78125 0.296875q0.84375 -0.453125 1.78125 -0.453125l-1.90625 9.75l1.546875 0l0 0.53125q-0.421875 0.34375 -1.03125 0.5625q-0.59375 0.203125 -1.15625 0.203125q-0.625 0 -0.890625 -0.265625q-0.265625 -0.265625 -0.265625 -0.5625q0 -0.390625 0.140625 -1.265625q0.15625 -0.875 0.453125 -2.21875l-0.078125 0zm5.160614 -5.96875q0.421875 -0.234375 0.890625 -0.421875q0.484375 -0.1875 0.953125 -0.296875l0.34375 -1.625q0.296875 -0.234375 0.6875 -0.40625q0.40625 -0.1875 0.828125 -0.359375l0.453125 0.25l-0.515625 2.34375l2.640625 0q0.046875 0.265625 0 0.546875q-0.03125 0.265625 -0.203125 0.53125l-2.65625 0l-1.34375 6.1875q-0.078125 0.40625 -0.125 0.71875q-0.03125 0.296875 -0.03125 0.546875q0 0.5625 0.3125 0.828125q0.328125 0.25 0.703125 0.25q0.53125 0 1.140625 -0.203125q0.609375 -0.203125 1.125 -0.46875l0.234375 0.390625q-0.1875 0.28125 -0.578125 0.5625q-0.390625 0.265625 -0.875 0.5q-0.46875 0.234375 -1.0 0.375q-0.515625 0.15625 -0.984375 0.15625q-0.9375 0 -1.46875 -0.421875q-0.53125 -0.421875 -0.53125 -1.328125q0 -0.296875 0.046875 -0.65625q0.0625 -0.359375 0.140625 -0.75l1.40625 -6.6875l-1.625 0l0.03125 -0.5625z" fill-rule="nonzero"/><path fill="#000000" fill-opacity="0.0" d="m372.284 87.663l14.047241 0l0 28.125984l-14.047241 0z" fill-rule="evenodd"/><path fill="#000000" fill-opacity="0.0" d="m374.3685 82.63912l0 38.173225" fill-rule="evenodd"/><path stroke="#000000" stroke-width="2.0" stroke-linejoin="round" stroke-linecap="butt" d="m374.3685 82.63912l0 38.173225" fill-rule="evenodd"/><path fill="#000000" fill-opacity="0.0" d="m385.837 137.00145c0 -3.5138092 2.8485107 -6.362335 6.362335 -6.362335l104.66116 0c1.6874084 0 3.3056946 0.6703186 4.4988403 1.8634949c1.1931763 1.193161 1.8634949 2.8114471 1.8634949 4.4988403l0 25.448563c0 3.5138245 -2.8485107 6.362335 -6.362335 6.362335l-104.66116 0c-3.5138245 0 -6.362335 -2.8485107 -6.362335 -6.362335z" fill-rule="evenodd"/><path stroke="#000000" stroke-width="2.0" stroke-linejoin="round" stroke-linecap="butt" d="m385.837 137.00145c0 -3.5138092 2.8485107 -6.362335 6.362335 -6.362335l104.66116 0c1.6874084 0 3.3056946 0.6703186 4.4988403 1.8634949c1.1931763 1.193161 1.8634949 2.8114471 1.8634949 4.4988403l0 25.448563c0 3.5138245 -2.8485107 6.362335 -6.362335 6.362335l-104.66116 0c-3.5138245 0 -6.362335 -2.8485107 -6.362335 -6.362335z" fill-rule="evenodd"/><path fill="#000000" d="m407.41806 141.43571l-1.515625 -0.1875l0 -0.53125q0.296875 -0.140625 0.6875 -0.265625q0.390625 -0.125 0.828125 -0.234375q0.4375 -0.125 0.859375 -0.1875q0.4375 -0.078125 0.78125 -0.078125l0.421875 0.234375l-2.9375 14.609375l1.546875 0l0 0.546875q-0.421875 0.34375 -1.03125 0.5625q-0.609375 0.203125 -1.1875 0.203125q-0.609375 0 -0.90625 -0.265625q-0.28125 -0.28125 -0.28125 -0.65625q0 -0.421875 0.0625 -0.828125q0.0625 -0.40625 0.171875 -0.890625l2.5 -12.03125zm3.0641785 10.578125q0 -1.125 0.34375 -2.34375q0.359375 -1.234375 1.078125 -2.25q0.734375 -1.03125 1.8125 -1.6875q1.09375 -0.671875 2.546875 -0.671875q1.65625 0 2.5 1.03125q0.84375 1.015625 0.84375 3.015625q0 1.421875 -0.40625 2.71875q-0.40625 1.28125 -1.140625 2.265625q-0.71875 0.96875 -1.75 1.5625q-1.015625 0.578125 -2.25 0.578125q-1.640625 0 -2.609375 -1.046875q-0.96875 -1.0625 -0.96875 -3.171875zm5.359375 -6.03125q-1.046875 0.015625 -1.71875 0.6875q-0.65625 0.65625 -1.046875 1.640625q-0.375 0.96875 -0.53125 2.109375q-0.140625 1.125 -0.140625 2.0625q0 1.265625 0.546875 2.0625q0.5625 0.78125 1.5 0.78125q0.75 0 1.328125 -0.5625q0.59375 -0.578125 1.0 -1.5q0.421875 -0.921875 0.640625 -2.09375q0.234375 -1.1875 0.234375 -2.375q0 -1.265625 -0.4375 -2.03125q-0.4375 -0.765625 -1.375 -0.78125zm9.934174 6.78125q0.765625 -1.28125 1.359375 -2.484375q0.59375 -1.203125 1.03125 -2.421875q0 -0.234375 -0.0625 -0.609375q-0.046875 -0.375 -0.109375 -0.75q-0.046875 -0.390625 -0.109375 -0.71875q-0.0625 -0.328125 -0.109375 -0.46875q0.625 -0.25 1.265625 -0.25q0.65625 -0.015625 1.140625 0.25q-0.3125 1.328125 -0.875 2.703125q-0.546875 1.375 -1.265625 2.75q-0.703125 1.359375 -1.546875 2.6875q-0.84375 1.3125 -1.765625 2.53125l-1.0 0.25l-1.578125 -9.671875l-1.375 -0.171875l0 -0.53125q0.140625 -0.09375 0.390625 -0.234375q0.25 -0.140625 0.5625 -0.265625q0.3125 -0.125 0.640625 -0.203125q0.328125 -0.09375 0.625 -0.09375q0.46875 0 0.671875 0.234375q0.203125 0.234375 0.265625 0.578125l0.984375 6.9375l0.109375 1.34375l0.046875 0l0.703125 -1.390625zm12.345917 1.328125q-0.1875 0.390625 -0.5625 0.78125q-0.359375 0.390625 -0.84375 0.703125q-0.484375 0.296875 -1.109375 0.46875q-0.625 0.1875 -1.328125 0.1875q-1.765625 0 -2.71875 -1.0q-0.9375 -1.015625 -0.9375 -2.8125q0 -1.515625 0.421875 -2.859375q0.421875 -1.34375 1.1875 -2.34375q0.765625 -1.0 1.859375 -1.578125q1.109375 -0.578125 2.453125 -0.578125q1.03125 0 1.765625 0.53125q0.734375 0.515625 0.734375 1.546875q0 1.5 -1.515625 2.375q-1.5 0.875 -4.84375 1.140625q-0.078125 0.359375 -0.125 0.703125q-0.03125 0.34375 -0.03125 0.65625q0 1.28125 0.65625 2.09375q0.65625 0.8125 1.90625 0.8125q0.40625 0 0.796875 -0.125q0.40625 -0.140625 0.75 -0.328125q0.359375 -0.1875 0.640625 -0.40625q0.296875 -0.21875 0.5 -0.375l0.34375 0.40625zm-2.234375 -8.109375q-0.921875 0.015625 -1.71875 0.859375q-0.78125 0.84375 -1.328125 2.890625q2.0625 -0.0625 3.203125 -0.703125q1.15625 -0.65625 1.15625 -1.8125q0 -0.453125 -0.265625 -0.828125q-0.265625 -0.390625 -1.046875 -0.40625zm8.995514 7.484375q-0.015625 -0.515625 -0.28125 -0.890625q-0.265625 -0.375 -0.6875 -0.703125q-0.421875 -0.34375 -0.890625 -0.6875q-0.46875 -0.34375 -0.890625 -0.75q-0.40625 -0.421875 -0.671875 -0.96875q-0.265625 -0.546875 -0.265625 -1.3125q0 -0.765625 0.296875 -1.34375q0.296875 -0.578125 0.8125 -0.953125q0.53125 -0.390625 1.265625 -0.59375q0.734375 -0.203125 1.609375 -0.203125q0.5625 0 1.25 0.09375q0.6875 0.09375 1.3125 0.46875q0 0.234375 -0.09375 0.546875q-0.078125 0.296875 -0.21875 0.59375q-0.140625 0.28125 -0.3125 0.53125q-0.171875 0.234375 -0.359375 0.328125l-1.578125 -1.640625q-0.4375 0.015625 -0.828125 0.109375q-0.390625 0.078125 -0.671875 0.28125q-0.28125 0.1875 -0.453125 0.5q-0.15625 0.296875 -0.15625 0.765625q0 0.5625 0.28125 0.953125q0.28125 0.390625 0.6875 0.75q0.421875 0.34375 0.890625 0.6875q0.484375 0.328125 0.890625 0.75q0.421875 0.40625 0.703125 0.953125q0.28125 0.53125 0.28125 1.28125q0 0.765625 -0.359375 1.375q-0.34375 0.59375 -0.953125 1.015625q-0.609375 0.40625 -1.40625 0.609375q-0.796875 0.21875 -1.703125 0.21875q-0.890625 0 -1.625 -0.1875q-0.734375 -0.171875 -1.15625 -0.453125q0.09375 -0.546875 0.234375 -1.0625q0.15625 -0.53125 0.640625 -0.984375l1.90625 1.78125q0.453125 0 0.890625 -0.109375q0.4375 -0.109375 0.78125 -0.34375q0.359375 -0.234375 0.578125 -0.578125q0.234375 -0.34375 0.25 -0.828125z" fill-rule="nonzero"/><path fill="#000000" fill-opacity="0.0" d="m468.284 135.663l14.047241 0l0 28.125992l-14.047241 0z" fill-rule="evenodd"/><path fill="#000000" fill-opacity="0.0" d="m470.3685 130.63911l0 38.173233" fill-rule="evenodd"/><path stroke="#000000" stroke-width="2.0" stroke-linejoin="round" stroke-linecap="butt" d="m470.3685 130.63911l0 38.173233" fill-rule="evenodd"/><path fill="#000000" fill-opacity="0.0" d="m482.33124 149.726c29.102356 0 58.204712 14.456696 58.204712 28.913376" fill-rule="evenodd"/><path stroke="#000000" stroke-width="2.0" stroke-linejoin="round" stroke-linecap="butt" d="m489.90454 150.04475l0.58773804 0.05050659c0.90145874 0.08074951 1.800293 0.17427063 2.6954956 0.28016663c3.5809631 0.42352295 7.105072 1.0447083 10.515503 1.8353119c6.8208923 1.5812073 13.187042 3.8400574 18.643707 6.5506897c2.7283325 1.3553162 5.229309 2.823578 7.446106 4.376541c1.1083984 0.77648926 2.145752 1.5741425 3.1049194 2.38945c0.47961426 0.4076538 0.93969727 0.8197174 1.3792725 1.2357483c0.2197876 0.20802307 0.43450928 0.41703796 0.64404297 0.6269684c0.10473633 0.10498047 0.20812988 0.21018982 0.3102417 0.31562805l0.11053467 0.11584473" fill-rule="evenodd"/><path fill="#000000" stroke="#000000" stroke-width="2.0" stroke-linecap="butt" d="m483.33035 149.76805c0.076416016 -1.8154144 1.6100464 -3.2251434 3.4254456 -3.1487427c1.8153992 0.076416016 3.2251587 1.6100311 3.1487427 3.4254456c-0.076416016 1.8154144 -1.6100464 3.2251434 -3.4254456 3.1487427c-1.8153992 -0.076416016 -3.2251587 -1.6100311 -3.1487427 -3.4254456z" fill-rule="nonzero"/><path fill="#000000" stroke="#000000" stroke-width="2.0" stroke-linecap="butt" d="m532.36414 169.25142l6.906372 6.7521973l-0.9503784 -9.611816z" fill-rule="evenodd"/><path fill="#000000" fill-opacity="0.0" d="m481.837 185.00145c0 -3.5138092 2.8485107 -6.362335 6.362335 -6.362335l104.661194 0c1.6873779 0 3.305664 0.6703186 4.4988403 1.8634949c1.1931763 1.193161 1.8634644 2.8114471 1.8634644 4.4988403l0 25.448563c0 3.5138245 -2.8485107 6.362335 -6.3623047 6.362335l-104.661194 0c-3.5138245 0 -6.362335 -2.8485107 -6.362335 -6.362335z" fill-rule="evenodd"/><path stroke="#000000" stroke-width="2.0" stroke-linejoin="round" stroke-linecap="butt" d="m481.837 185.00145c0 -3.5138092 2.8485107 -6.362335 6.362335 -6.362335l104.661194 0c1.6873779 0 3.305664 0.6703186 4.4988403 1.8634949c1.1931763 1.193161 1.8634644 2.8114471 1.8634644 4.4988403l0 25.448563c0 3.5138245 -2.8485107 6.362335 -6.3623047 6.362335l-104.661194 0c-3.5138245 0 -6.362335 -2.8485107 -6.362335 -6.362335z" fill-rule="evenodd"/><path fill="#000000" d="m505.30237 202.92009q0.578125 0 1.140625 -0.546875q0.578125 -0.546875 1.09375 -1.3125q0.515625 -0.765625 0.921875 -1.59375q0.40625 -0.84375 0.640625 -1.390625l0.671875 -3.65625q-0.3125 -0.203125 -0.578125 -0.28125q-0.265625 -0.078125 -0.765625 -0.09375q-1.015625 0.015625 -1.828125 0.625q-0.8125 0.609375 -1.375 1.5625q-0.546875 0.953125 -0.84375 2.125q-0.28125 1.171875 -0.28125 2.296875q0 1.09375 0.265625 1.6875q0.265625 0.578125 0.9375 0.578125zm3.359375 -3.125q-0.265625 0.78125 -0.703125 1.578125q-0.421875 0.78125 -0.96875 1.421875q-0.546875 0.640625 -1.203125 1.046875q-0.640625 0.390625 -1.390625 0.390625q-2.21875 0 -2.21875 -3.234375q0 -1.515625 0.421875 -2.9375q0.4375 -1.421875 1.25 -2.515625q0.8125 -1.09375 1.953125 -1.75q1.15625 -0.671875 2.625 -0.671875q0.5625 0 0.828125 0.078125q0.28125 0.078125 0.71875 0.265625l0.8125 -4.03125l-1.5 -0.1875l0 -0.53125q0.3125 -0.140625 0.703125 -0.25q0.390625 -0.125 0.796875 -0.21875q0.421875 -0.09375 0.84375 -0.171875q0.421875 -0.09375 0.796875 -0.125l0.4375 0.15625l-2.921875 14.703125l1.5625 0l0 0.53125q-0.421875 0.34375 -1.03125 0.5625q-0.59375 0.203125 -1.171875 0.203125q-0.609375 0 -0.875 -0.265625q-0.265625 -0.265625 -0.265625 -0.5625q0 -0.390625 0.140625 -1.265625q0.15625 -0.875 0.453125 -2.21875l-0.09375 0zm4.8480835 0.21875q0 -1.125 0.34375 -2.34375q0.359375 -1.234375 1.078125 -2.25q0.734375 -1.03125 1.8125 -1.6875q1.09375 -0.671875 2.546875 -0.671875q1.65625 0 2.5 1.03125q0.84375 1.015625 0.84375 3.015625q0 1.421875 -0.40625 2.71875q-0.40625 1.28125 -1.140625 2.265625q-0.71875 0.96875 -1.75 1.5625q-1.015625 0.578125 -2.25 0.578125q-1.640625 0 -2.609375 -1.046875q-0.96875 -1.0625 -0.96875 -3.171875zm5.359375 -6.03125q-1.046875 0.015625 -1.71875 0.6875q-0.65625 0.65625 -1.046875 1.640625q-0.375 0.96875 -0.53125 2.109375q-0.140625 1.125 -0.140625 2.0625q0 1.265625 0.546875 2.0625q0.5625 0.78125 1.5 0.78125q0.75 0 1.328125 -0.5625q0.59375 -0.578125 1.0 -1.5q0.421875 -0.921875 0.640625 -2.09375q0.234375 -1.1875 0.234375 -2.375q0 -1.265625 -0.4375 -2.03125q-0.4375 -0.765625 -1.375 -0.78125zm10.590454 -0.921875q1.03125 0 1.671875 0.265625q0.65625 0.25 1.015625 0.546875q0.1875 -0.171875 0.5 -0.34375q0.328125 -0.171875 0.6875 -0.3125q0.375 -0.15625 0.75 -0.28125q0.390625 -0.125 0.734375 -0.234375q0.0625 0.109375 0.09375 0.328125q0.046875 0.203125 0.03125 0.46875q0 0.25 -0.078125 0.515625q-0.078125 0.265625 -0.21875 0.484375l-2.203125 -0.15625q0.0625 0.1875 0.125 0.4375q0.078125 0.25 0.078125 0.546875q0 0.84375 -0.359375 1.578125q-0.34375 0.71875 -0.96875 1.25q-0.625 0.515625 -1.453125 0.8125q-0.8125 0.296875 -1.71875 0.296875q-0.375 0 -0.59375 0q-0.21875 -0.015625 -0.5 -0.078125q-0.1875 0.21875 -0.53125 0.5q-0.328125 0.28125 -0.328125 0.625q0 0.359375 0.46875 0.5625q0.46875 0.1875 1.1875 0.34375q0.71875 0.15625 1.546875 0.34375q0.828125 0.1875 1.546875 0.5q0.71875 0.296875 1.1875 0.796875q0.46875 0.484375 0.46875 1.296875q0 1.0 -0.5625 1.796875q-0.5625 0.796875 -1.5 1.359375q-0.921875 0.578125 -2.109375 0.875q-1.1875 0.3125 -2.40625 0.3125q-0.96875 0 -1.671875 -0.203125q-0.703125 -0.203125 -1.15625 -0.5625q-0.453125 -0.34375 -0.65625 -0.796875q-0.21875 -0.4375 -0.21875 -0.921875q0 -0.609375 0.265625 -1.125q0.265625 -0.5 0.71875 -0.953125q0.4375 -0.46875 1.015625 -0.84375q0.578125 -0.390625 1.203125 -0.734375q-0.328125 -0.171875 -0.53125 -0.453125q-0.203125 -0.296875 -0.203125 -0.65625q0 -0.3125 0.21875 -0.65625q0.21875 -0.359375 0.5 -0.671875q0.28125 -0.328125 0.5625 -0.5625q0.296875 -0.234375 0.453125 -0.34375q-0.265625 -0.0625 -0.53125 -0.234375q-0.265625 -0.171875 -0.5 -0.4375q-0.234375 -0.28125 -0.390625 -0.640625q-0.140625 -0.375 -0.140625 -0.828125q0 -0.828125 0.34375 -1.53125q0.359375 -0.703125 0.96875 -1.203125q0.625 -0.5 1.4375 -0.78125q0.8125 -0.296875 1.75 -0.296875zm-2.453125 14.53125q0.671875 0 1.3125 -0.203125q0.65625 -0.1875 1.171875 -0.546875q0.53125 -0.34375 0.859375 -0.875q0.328125 -0.515625 0.328125 -1.171875q0 -0.640625 -0.53125 -0.984375q-0.515625 -0.359375 -1.265625 -0.5625q-0.734375 -0.21875 -1.546875 -0.359375q-0.796875 -0.140625 -1.375 -0.328125q-1.0 0.71875 -1.375 1.5q-0.375 0.796875 -0.34375 1.484375q-0.03125 0.953125 0.71875 1.5q0.765625 0.546875 2.046875 0.546875zm2.28125 -13.671875q-0.609375 0 -1.09375 0.234375q-0.484375 0.234375 -0.828125 0.625q-0.328125 0.390625 -0.5 0.9375q-0.171875 0.53125 -0.171875 1.125q0 0.8125 0.515625 1.203125q0.53125 0.375 1.125 0.375q0.640625 0 1.09375 -0.21875q0.46875 -0.234375 0.765625 -0.609375q0.3125 -0.390625 0.453125 -0.875q0.15625 -0.5 0.15625 -1.03125q0 -0.78125 -0.375 -1.265625q-0.375 -0.5 -1.140625 -0.5zm10.070129 7.546875q-0.015625 -0.515625 -0.28125 -0.890625q-0.265625 -0.375 -0.6875 -0.703125q-0.421875 -0.34375 -0.890625 -0.6875q-0.46875 -0.34375 -0.890625 -0.75q-0.40625 -0.421875 -0.671875 -0.96875q-0.265625 -0.546875 -0.265625 -1.3125q0 -0.765625 0.296875 -1.34375q0.296875 -0.578125 0.8125 -0.953125q0.53125 -0.390625 1.265625 -0.59375q0.734375 -0.203125 1.609375 -0.203125q0.5625 0 1.25 0.09375q0.6875 0.09375 1.3125 0.46875q0 0.234375 -0.09375 0.546875q-0.078125 0.296875 -0.21875 0.59375q-0.140625 0.28125 -0.3125 0.53125q-0.171875 0.234375 -0.359375 0.328125l-1.578125 -1.640625q-0.4375 0.015625 -0.828125 0.109375q-0.390625 0.078125 -0.671875 0.28125q-0.28125 0.1875 -0.453125 0.5q-0.15625 0.296875 -0.15625 0.765625q0 0.5625 0.28125 0.953125q0.28125 0.390625 0.6875 0.75q0.421875 0.34375 0.890625 0.6875q0.484375 0.328125 0.890625 0.75q0.421875 0.40625 0.703125 0.953125q0.28125 0.53125 0.28125 1.28125q0 0.765625 -0.359375 1.375q-0.34375 0.59375 -0.953125 1.015625q-0.609375 0.40625 -1.40625 0.609375q-0.796875 0.21875 -1.703125 0.21875q-0.890625 0 -1.625 -0.1875q-0.734375 -0.171875 -1.15625 -0.453125q0.09375 -0.546875 0.234375 -1.0625q0.15625 -0.53125 0.640625 -0.984375l1.90625 1.78125q0.453125 0 0.890625 -0.109375q0.4375 -0.109375 0.78125 -0.34375q0.359375 -0.234375 0.578125 -0.578125q0.234375 -0.34375 0.25 -0.828125z" fill-rule="nonzero"/><path fill="#000000" fill-opacity="0.0" d="m564.284 183.663l14.047241 0l0 28.125992l-14.047241 0z" fill-rule="evenodd"/><path fill="#000000" fill-opacity="0.0" d="m566.3685 178.63911l0 38.173233" fill-rule="evenodd"/><path stroke="#000000" stroke-width="2.0" stroke-linejoin="round" stroke-linecap="butt" d="m566.3685 178.63911l0 38.173233" fill-rule="evenodd"/><path fill="#000000" d="m576.369 198.49153c0 -3.357193 2.7215576 -6.0787354 6.0787354 -6.0787354c1.6121826 0 3.1583252 0.64042664 4.29834 1.780426c1.1399536 1.1399841 1.7803955 2.6861267 1.7803955 4.2983093c0 3.357193 -2.7215576 6.0787354 -6.0787354 6.0787354c-3.3571777 0 -6.0787354 -2.7215424 -6.0787354 -6.0787354z" fill-rule="evenodd"/><path fill="#000000" fill-opacity="0.0" d="m14.356698 72.37099c0 -6.5028915 5.2716303 -11.774517 11.774514 -11.774517l74.12026 0c3.122795 0 6.117691 1.2405243 8.325844 3.4486732c2.2081451 2.2081528 3.4486694 5.2030487 3.4486694 8.325844l0 47.09664c0 6.502884 -5.2716293 11.774513 -11.774513 11.774513l-74.12026 0c-6.502884 0 -11.774514 -5.2716293 -11.774514 -11.774513z" fill-rule="evenodd"/><path stroke="#000000" stroke-width="2.0" stroke-linejoin="round" stroke-linecap="butt" d="m14.356698 72.37099c0 -6.5028915 5.2716303 -11.774517 11.774514 -11.774517l74.12026 0c3.122795 0 6.117691 1.2405243 8.325844 3.4486732c2.2081451 2.2081528 3.4486694 5.2030487 3.4486694 8.325844l0 47.09664c0 6.502884 -5.2716293 11.774513 -11.774513 11.774513l-74.12026 0c-6.502884 0 -11.774514 -5.2716293 -11.774514 -11.774513z" fill-rule="evenodd"/><path fill="#000000" d="m26.914711 76.85323l1.46875 0l0 -2.0l2.765625 -0.78125l0 2.78125l2.609375 0l0 2.359375l-2.609375 0l0 4.09375q0 1.109375 0.21875 1.59375q0.234375 0.46875 0.859375 0.46875q0.421875 0 0.734375 -0.078125q0.3125 -0.09375 0.6875 -0.265625l0.5 2.140625q-0.578125 0.28125 -1.359375 0.46875q-0.765625 0.1875 -1.546875 0.1875q-1.46875 0 -2.171875 -0.75q-0.6875 -0.765625 -0.6875 -2.484375l0 -5.375l-1.46875 0l0 -2.359375zm7.9306183 5.34375q0 -2.71875 1.3125 -4.171875q1.328125 -1.46875 3.71875 -1.46875q1.28125 0 2.21875 0.40625q0.9375 0.40625 1.546875 1.140625q0.625 0.734375 0.9375 1.78125q0.3125 1.046875 0.3125 2.3125q0 2.703125 -1.3125 4.171875q-1.3125 1.453125 -3.703125 1.453125q-1.28125 0 -2.21875 -0.40625q-0.9375 -0.40625 -1.5625 -1.140625q-0.625 -0.734375 -0.9375 -1.78125q-0.3125 -1.046875 -0.3125 -2.296875zm2.859375 0q0 0.703125 0.125 1.296875q0.125 0.59375 0.375 1.046875q0.265625 0.453125 0.671875 0.703125q0.421875 0.234375 1.0 0.234375q1.09375 0 1.625 -0.78125q0.53125 -0.796875 0.53125 -2.5q0 -1.46875 -0.5 -2.375q-0.484375 -0.90625 -1.65625 -0.90625q-1.015625 0 -1.59375 0.765625q-0.578125 0.765625 -0.578125 2.515625zm9.109497 -5.34375l2.015625 0l0.328125 1.28125l0.078125 0q0.5625 -0.796875 1.3125 -1.1875q0.765625 -0.390625 1.84375 -0.390625q2.015625 0 3.015625 1.28125q1.0 1.265625 1.0 4.078125q0 1.359375 -0.328125 2.46875q-0.3125 1.09375 -0.9375 1.859375q-0.625 0.765625 -1.53125 1.171875q-0.90625 0.40625 -2.09375 0.40625q-0.65625 0 -1.078125 -0.09375q-0.421875 -0.09375 -0.859375 -0.3125l0 4.375l-2.765625 0l0 -14.9375zm4.75 2.0625q-0.8125 0 -1.265625 0.40625q-0.453125 0.390625 -0.71875 1.203125l0 4.4375q0.296875 0.234375 0.640625 0.375q0.359375 0.140625 0.9375 0.140625q1.203125 0 1.796875 -0.84375q0.59375 -0.84375 0.59375 -2.78125q0 -1.40625 -0.46875 -2.171875q-0.46875 -0.765625 -1.515625 -0.765625z" fill-rule="nonzero"/><path fill="#000000" d="m32.430336 113.58761q0 -0.4375 -0.359375 -0.6875q-0.359375 -0.25 -0.890625 -0.46875q-0.53125 -0.21875 -1.171875 -0.4375q-0.640625 -0.21875 -1.171875 -0.609375q-0.53125 -0.40625 -0.90625 -1.015625q-0.359375 -0.609375 -0.359375 -1.5625q0 -1.578125 0.9375 -2.40625q0.9375 -0.84375 2.71875 -0.84375q1.203125 0 2.1875 0.265625q0.984375 0.25 1.53125 0.578125l-0.609375 2.0q-0.5 -0.1875 -1.25 -0.40625q-0.734375 -0.21875 -1.5 -0.21875q-1.234375 0 -1.234375 0.96875q0 0.375 0.359375 0.609375q0.359375 0.234375 0.890625 0.4375q0.53125 0.203125 1.171875 0.4375q0.640625 0.234375 1.171875 0.609375q0.53125 0.375 0.890625 0.984375q0.375 0.59375 0.375 1.53125q0 1.609375 -1.046875 2.546875q-1.03125 0.921875 -3.09375 0.921875q-1.125 0 -2.125 -0.296875q-0.984375 -0.28125 -1.609375 -0.65625l0.765625 -2.078125q0.5 0.28125 1.296875 0.546875q0.8125 0.265625 1.671875 0.265625q0.625 0 0.984375 -0.234375q0.375 -0.234375 0.375 -0.78125zm4.8286285 -7.734375l2.765625 0l0 10.671875l-2.765625 0l0 -10.671875zm-0.40625 -3.0q0 -0.625 0.453125 -1.0625q0.46875 -0.4375 1.265625 -0.4375q0.8125 0 1.3125 0.4375q0.5 0.4375 0.5 1.0625q0 0.625 -0.5 1.046875q-0.5 0.40625 -1.3125 0.40625q-0.796875 0 -1.265625 -0.40625q-0.453125 -0.421875 -0.453125 -1.046875zm5.3466644 11.328125l4.203125 -5.0625l1.09375 -0.90625l-5.296875 0l0 -2.359375l8.359375 0l0 2.359375l-4.15625 5.140625l-1.0625 0.828125l5.21875 0l0 2.34375l-8.359375 0l0 -2.34375zm18.691406 1.421875q-0.640625 0.515625 -1.75 0.875q-1.09375 0.34375 -2.328125 0.34375q-2.578125 0 -3.78125 -1.5q-1.1875 -1.5 -1.1875 -4.125q0 -2.8125 1.34375 -4.21875q1.34375 -1.421875 3.78125 -1.421875q0.8125 0 1.578125 0.21875q0.765625 0.21875 1.359375 0.703125q0.59375 0.484375 0.953125 1.328125q0.375 0.828125 0.375 2.0625q0 0.453125 -0.0625 0.96875q-0.046875 0.5 -0.15625 1.0625l-6.40625 0q0.078125 1.34375 0.703125 2.03125q0.625 0.671875 2.03125 0.671875q0.875 0 1.5625 -0.265625q0.703125 -0.265625 1.0625 -0.546875l0.921875 1.8125zm-3.96875 -7.828125q-1.09375 0 -1.625 0.65625q-0.515625 0.65625 -0.609375 1.734375l3.953125 0q0.09375 -1.140625 -0.34375 -1.765625q-0.4375 -0.625 -1.375 -0.625z" fill-rule="nonzero"/><path fill="#000000" d="m90.23127 111.94698l-2.515625 0l0 4.578125l-1.65625 0l0 -4.578125l-6.578125 0l0 -0.71875l7.078125 -9.875l1.15625 0l0 9.09375l2.515625 0l0 1.5zm-4.171875 -6.15625l0.203125 -1.75l-0.0625 0l-0.734375 1.453125l-3.015625 4.078125l-1.015625 1.046875l1.484375 -0.171875l3.140625 0l0 -4.65625z" fill-rule="nonzero"/><path fill="#000000" fill-opacity="0.0" d="m69.52192 67.134l14.047249 0l0 28.125984l-14.047249 0z" fill-rule="evenodd"/><path fill="#000000" fill-opacity="0.0" d="m83.56917 81.19699c27.566925 0 41.350388 -6.8661346 55.13385 -13.732277c13.783463 -6.866146 27.56694 -13.732285 55.133865 -13.732285" fill-rule="evenodd"/><path stroke="#999999" stroke-width="2.0" stroke-linejoin="round" stroke-linecap="butt" d="m91.14691 81.01223l0.9910202 -0.05266571c0.38619232 -0.02218628 0.7693939 -0.04586792 1.1496506 -0.071006775c3.0420609 -0.20115662 5.8956604 -0.49619293 8.587746 -0.8716812c5.384163 -0.7509842 10.122231 -1.823822 14.429565 -3.1112213c8.614662 -2.5748062 15.506401 -6.0078735 22.398125 -9.440941c6.891739 -3.433075 13.783463 -6.866146 22.398132 -9.4409485c4.3073273 -1.2874031 9.045395 -2.3602371 14.429565 -3.1112213c1.3460541 -0.18774414 2.7324677 -0.3553772 4.162628 -0.5012131c0.35754395 -0.036460876 0.7178345 -0.071559906 1.0808868 -0.105270386l1.0722046 -0.09469223" fill-rule="evenodd"/><path fill="#999999" stroke="#999999" stroke-width="2.0" stroke-linecap="butt" d="m84.56887 81.172615c-0.044296265 -1.8164749 1.3923416 -3.3249283 3.2088242 -3.369217c1.8164749 -0.044288635 3.3249283 1.3923492 3.369217 3.2088242c0.044288635 1.8164825 -1.3923492 3.3249283 -3.2088242 3.3692245c-1.8164749 0.044288635 -3.3249283 -1.3923492 -3.369217 -3.2088318z" fill-rule="nonzero"/><path fill="#999999" stroke="#999999" stroke-width="2.0" stroke-linecap="butt" d="m181.97829 57.5122l8.937119 -3.6630783l-9.200806 -2.9385872z" fill-rule="evenodd"/><path fill="#000000" fill-opacity="0.0" d="m83.56917 81.19699c51.566925 0 77.35039 5.1338654 103.13385 10.267723c25.783463 5.1338577 51.56694 10.267715 103.133865 10.267715" fill-rule="evenodd"/><path stroke="#000000" stroke-width="2.0" stroke-linejoin="round" stroke-linecap="butt" stroke-dasharray="8.0,6.0" d="m91.14906 81.235855l1.7930374 0.020050049c3.0278015 0.038848877 5.961174 0.09651184 8.806419 0.17171478c5.6904984 0.15040588 11.028473 0.37099457 16.064308 0.6517563c10.071663 0.5615158 18.93473 1.363678 26.992058 2.3262787c16.11467 1.9251938 29.006409 4.4921265 41.898132 7.059059c12.891739 2.566925 25.783463 5.1338577 41.898132 7.0590515c8.057327 0.9626007 16.920395 1.7647629 26.992065 2.3262787c5.035843 0.28076172 10.373825 0.5013504 16.064316 0.6517639c1.4226379 0.037605286 2.867279 0.07080841 4.3347473 0.099487305l1.8450012 0.032913208" fill-rule="evenodd"/><path fill="#000000" stroke="#000000" stroke-width="2.0" stroke-linecap="butt" d="m84.56915 81.20212c0.009315491 -1.8169937 1.48983 -3.282402 3.306816 -3.2730865c1.8169937 0.009307861 3.2824097 1.4898224 3.2730942 3.306816c-0.009315491 1.8169937 -1.48983 3.2824097 -3.3068237 3.2730942c-1.8169861 -0.009315491 -3.282402 -1.48983 -3.2730865 -3.3068237z" fill-rule="nonzero"/><path fill="#000000" stroke="#000000" stroke-width="2.0" stroke-linecap="butt" d="m277.81024 104.93756l9.102936 -3.229065l-9.048859 -3.3776398z" fill-rule="evenodd"/><path fill="#000000" fill-opacity="0.0" d="m690.19135 7.6227164l0 226.20473" fill-rule="evenodd"/><path stroke="#000000" stroke-width="2.0" stroke-linejoin="round" stroke-linecap="butt" d="m690.19135 7.6227164l0 226.20473" fill-rule="evenodd"/><path fill="#000000" fill-opacity="0.0" d="m1057.1475 29.725994c29.08667 0 58.17334 14.456692 58.17334 28.913387" fill-rule="evenodd"/><path stroke="#000000" stroke-width="2.0" stroke-linejoin="round" stroke-linecap="butt" d="m1064.7207 30.045101l0.583374 0.05016327c0.901001 0.08073807 1.7993164 0.17426682 2.6940918 0.28015137c3.5789795 0.4235363 7.1011963 1.0447216 10.509766 1.8353233c6.8171387 1.5811996 13.179932 3.8400574 18.633667 6.550686c2.7268066 1.3553162 5.2265625 2.823574 7.4420166 4.376541c1.1077881 0.7764816 2.1445312 1.5741386 3.1032715 2.38945c0.47937012 0.40765 0.9390869 0.8197174 1.37854 1.2357521c0.21972656 0.20801544 0.4342041 0.41702652 0.64367676 0.626976c0.10461426 0.104976654 0.20800781 0.21018219 0.3100586 0.3156166l0.10961914 0.1149292" fill-rule="evenodd"/><path fill="#000000" stroke="#000000" stroke-width="2.0" stroke-linecap="butt" d="m1058.1466 29.768091c0.076416016 -1.8154049 1.6101074 -3.225071 3.425537 -3.1485786c1.8154297 0.07649422 3.2250977 1.6101818 3.1485596 3.4255886c-0.076416016 1.8154049 -1.6101074 3.225071 -3.425537 3.1485786c-1.8154297 -0.07649231 -3.2250977 -1.6101818 -3.1485596 -3.4255886z" fill-rule="nonzero"/><path fill="#000000" stroke="#000000" stroke-width="2.0" stroke-linecap="butt" d="m1107.1505 49.249966l6.9051514 6.753437l-0.9486084 -9.611988z" fill-rule="evenodd"/><path fill="#000000" fill-opacity="0.0" d="m960.64014 17.001453c0 -3.5138197 2.8485107 -6.3623323 6.3623657 -6.3623323l104.661194 0c1.6873779 0 3.305664 0.6703148 4.4987793 1.8634834c1.1932373 1.1931686 1.8635254 2.8114529 1.8635254 4.498849l0 25.448563c0 3.5138206 -2.8485107 6.3623314 -6.3623047 6.3623314l-104.661194 0c-3.513855 0 -6.3623657 -2.8485107 -6.3623657 -6.3623314z" fill-rule="evenodd"/><path stroke="#000000" stroke-width="2.0" stroke-linejoin="round" stroke-linecap="butt" d="m960.64014 17.001453c0 -3.5138197 2.8485107 -6.3623323 6.3623657 -6.3623323l104.661194 0c1.6873779 0 3.305664 0.6703148 4.4987793 1.8634834c1.1932373 1.1931686 1.8635254 2.8114529 1.8635254 4.498849l0 25.448563c0 3.5138206 -2.8485107 6.3623314 -6.3623047 6.3623314l-104.661194 0c-3.513855 0 -6.3623657 -2.8485107 -6.3623657 -6.3623314z" fill-rule="evenodd"/><path fill="#000000" d="m985.8914 34.091957q-0.1875 0.390625 -0.5625 0.78125q-0.359375 0.390625 -0.84375 0.703125q-0.484375 0.296875 -1.109375 0.46875q-0.625 0.1875 -1.328125 0.1875q-1.765625 0 -2.71875 -1.0q-0.9375 -1.015625 -0.9375 -2.8125q0 -1.5156231 0.421875 -2.859373q0.421875 -1.34375 1.1875 -2.34375q0.765625 -1.0 1.859375 -1.578125q1.109375 -0.578125 2.453125 -0.578125q1.03125 0 1.765625 0.53125q0.734375 0.515625 0.734375 1.546875q0 1.5 -1.515625 2.375q-1.5 0.875 -4.84375 1.140625q-0.078125 0.359375 -0.125 0.703125q-0.03125 0.34375 -0.03125 0.6562481q0 1.28125 0.65625 2.09375q0.65625 0.8125 1.90625 0.8125q0.40625 0 0.796875 -0.125q0.40625 -0.140625 0.75 -0.328125q0.359375 -0.1875 0.640625 -0.40625q0.296875 -0.21875 0.5 -0.375l0.34375 0.40625zm-2.234375 -8.109373q-0.921875 0.015625 -1.71875 0.859375q-0.78125 0.84375 -1.328125 2.890625q2.0625 -0.0625 3.203125 -0.703125q1.15625 -0.65625 1.15625 -1.8125q0 -0.453125 -0.265625 -0.828125q-0.265625 -0.390625 -1.046875 -0.40625zm8.891846 6.781248q0.765625 -1.2812481 1.359375 -2.484373q0.59375 -1.203125 1.03125 -2.421875q0 -0.234375 -0.0625 -0.609375q-0.046875 -0.375 -0.109375 -0.75q-0.046875 -0.390625 -0.109375 -0.71875q-0.0625 -0.328125 -0.109375 -0.46875q0.625 -0.25 1.265625 -0.25q0.65625 -0.015625 1.140625 0.25q-0.3125 1.328125 -0.875 2.703125q-0.546875 1.375 -1.265625 2.75q-0.703125 1.3593731 -1.546875 2.687498q-0.84375 1.3125 -1.765625 2.53125l-1.0 0.25l-1.578125 -9.671873l-1.375 -0.171875l0 -0.53125q0.140625 -0.09375 0.390625 -0.234375q0.25 -0.140625 0.5625 -0.265625q0.3125 -0.125 0.640625 -0.203125q0.328125 -0.09375 0.625 -0.09375q0.46875 0 0.671875 0.234375q0.203125 0.234375 0.265625 0.578125l0.984375 6.937498l0.109375 1.34375l0.046875 0l0.703125 -1.390625zm12.345886 1.328125q-0.1875 0.390625 -0.5625 0.78125q-0.359375 0.390625 -0.84375 0.703125q-0.484375 0.296875 -1.109375 0.46875q-0.625 0.1875 -1.328125 0.1875q-1.765625 0 -2.71875 -1.0q-0.9375 -1.015625 -0.9375 -2.8125q0 -1.5156231 0.421875 -2.859373q0.421875 -1.34375 1.1875 -2.34375q0.765625 -1.0 1.859375 -1.578125q1.109375 -0.578125 2.453125 -0.578125q1.03125 0 1.765625 0.53125q0.734375 0.515625 0.734375 1.546875q0 1.5 -1.515625 2.375q-1.5 0.875 -4.84375 1.140625q-0.078125 0.359375 -0.125 0.703125q-0.03125 0.34375 -0.03125 0.6562481q0 1.28125 0.65625 2.09375q0.65625 0.8125 1.90625 0.8125q0.40625 0 0.796875 -0.125q0.40625 -0.140625 0.75 -0.328125q0.359375 -0.1875 0.640625 -0.40625q0.296875 -0.21875 0.5 -0.375l0.34375 0.40625zm-2.234375 -8.109373q-0.921875 0.015625 -1.71875 0.859375q-0.78125 0.84375 -1.328125 2.890625q2.0625 -0.0625 3.203125 -0.703125q1.15625 -0.65625 1.15625 -1.8125q0 -0.453125 -0.265625 -0.828125q-0.265625 -0.390625 -1.046875 -0.40625zm10.058044 0.640625q-0.546875 0.203125 -1.25 1.078125q-0.6875 0.859375 -1.21875 2.328125l-1.28125 5.953123l-1.828125 0l1.984375 -9.421873l-1.3125 -0.203125l0 -0.53125q0.734375 -0.34375 1.515625 -0.515625q0.796875 -0.1875 1.4375 -0.25l0.421875 0.25l-0.59375 2.84375l0.078125 0q0.625 -1.40625 1.515625 -2.25q0.90625 -0.84375 1.921875 -0.84375q0.28125 0 0.546875 0.0625q0.28125 0.046875 0.546875 0.1875q0 0.203125 -0.078125 0.515625q-0.0625 0.296875 -0.1875 0.625q-0.109375 0.3125 -0.25 0.609375q-0.125 0.28125 -0.28125 0.4375l-1.6875 -0.875zm3.5863647 -0.0625l-1.359375 -0.171875l0 -0.53125q0.109375 -0.09375 0.34375 -0.21875q0.25 -0.125 0.5625 -0.25q0.328125 -0.140625 0.671875 -0.234375q0.34375 -0.09375 0.640625 -0.09375q0.4375 0 0.640625 0.234375q0.203125 0.21875 0.3125 0.578125l1.765625 7.468748l0.078125 1.28125l0.03125 0l0.5 -1.265625q0.265625 -0.59375 0.546875 -1.3125q0.296875 -0.7187481 0.578125 -1.4374981q0.28125 -0.71875 0.515625 -1.421875q0.234375 -0.703125 0.40625 -1.3125q0 -0.234375 -0.0625 -0.609375q-0.046875 -0.390625 -0.109375 -0.765625q-0.0625 -0.390625 -0.140625 -0.71875q-0.0625 -0.328125 -0.09375 -0.46875q0.296875 -0.125 0.640625 -0.1875q0.34375 -0.0625 0.65625 -0.0625q0.640625 0 1.125 0.25q-0.65625 2.65625 -1.796875 5.296875q-1.140625 2.640623 -2.53125 5.374998q-1.140625 2.234375 -2.296875 3.34375q-1.15625 1.109375 -2.609375 1.109375q-0.3125 0 -0.609375 -0.09375q-0.28125 -0.078125 -0.59375 -0.25q-0.03125 -0.234375 0.03125 -0.53125q0.0625 -0.296875 0.203125 -0.59375q0.140625 -0.296875 0.359375 -0.5625q0.234375 -0.25 0.515625 -0.390625l1.71875 0.890625q0.15625 -0.109375 0.390625 -0.3125q0.234375 -0.203125 0.484375 -0.5625q0.25 -0.34375 0.5 -0.84375q0.265625 -0.5 0.5 -1.203125l-2.515625 -9.421873z" fill-rule="nonzero"/><path fill="#000000" fill-opacity="0.0" d="m1043.1002 15.663002l14.047241 0l0 28.125984l-14.047241 0z" fill-rule="evenodd"/><path fill="#000000" fill-opacity="0.0" d="m1045.1848 10.639121l0 38.173225" fill-rule="evenodd"/><path stroke="#000000" stroke-width="2.0" stroke-linejoin="round" stroke-linecap="butt" d="m1045.1848 10.639121l0 38.173225" fill-rule="evenodd"/><path fill="#000000" fill-opacity="0.0" d="m1153.1344 77.72599c29.102295 0 58.204712 14.456696 58.204712 28.913391" fill-rule="evenodd"/><path stroke="#000000" stroke-width="2.0" stroke-linejoin="round" stroke-linecap="butt" d="m1160.7076 78.04475l0.58776855 0.05051422c0.90148926 0.08074188 1.8001709 0.17427063 2.6954346 0.28015137c3.5810547 0.4235382 7.1051025 1.0447235 10.515503 1.8353271c6.820923 1.5811996 13.187012 3.8400574 18.643799 6.5506897c2.7282715 1.3553162 5.229248 2.823578 7.446045 4.376541c1.1083984 0.7764816 2.145752 1.5741348 3.1049805 2.3894424c0.4794922 0.40766144 0.9395752 0.8197174 1.3791504 1.2357635c0.21984863 0.20801544 0.4345703 0.4170227 0.64404297 0.6269684c0.10473633 0.10497284 0.20825195 0.21018982 0.31030273 0.31562805l0.1105957 0.115852356" fill-rule="evenodd"/><path fill="#000000" stroke="#000000" stroke-width="2.0" stroke-linecap="butt" d="m1154.1334 77.76804c0.076416016 -1.8154068 1.6101074 -3.2251434 3.425537 -3.148735c1.8153076 0.076408386 3.2250977 1.6100311 3.1486816 3.425438c-0.076416016 1.8154144 -1.6099854 3.225151 -3.425415 3.1487427c-1.8154297 -0.076408386 -3.2252197 -1.6100311 -3.1488037 -3.4254456z" fill-rule="nonzero"/><path fill="#000000" stroke="#000000" stroke-width="2.0" stroke-linecap="butt" d="m1203.1672 97.25143l6.906372 6.752205l-0.9503174 -9.611816z" fill-rule="evenodd"/><path fill="#000000" fill-opacity="0.0" d="m1056.6401 65.00145c0 -3.5138168 2.8485107 -6.3623276 6.3623047 -6.3623276l104.661255 0c1.6873779 0 3.305664 0.6703148 4.4987793 1.8634834c1.1932373 1.1931686 1.8635254 2.811451 1.8635254 4.498844l0 25.44857c0 3.5138168 -2.8485107 6.3623276 -6.3623047 6.3623276l-104.661255 0c-3.513794 0 -6.3623047 -2.8485107 -6.3623047 -6.3623276z" fill-rule="evenodd"/><path stroke="#000000" stroke-width="2.0" stroke-linejoin="round" stroke-linecap="butt" d="m1056.6401 65.00145c0 -3.5138168 2.8485107 -6.3623276 6.3623047 -6.3623276l104.661255 0c1.6873779 0 3.305664 0.6703148 4.4987793 1.8634834c1.1932373 1.1931686 1.8635254 2.811451 1.8635254 4.498844l0 25.44857c0 3.5138168 -2.8485107 6.3623276 -6.3623047 6.3623276l-104.661255 0c-3.513794 0 -6.3623047 -2.8485107 -6.3623047 -6.3623276z" fill-rule="evenodd"/><path fill="#000000" d="m1091.121 82.09196q-0.234375 0.390625 -0.59375 0.78125q-0.359375 0.390625 -0.859375 0.703125q-0.484375 0.296875 -1.09375 0.46875q-0.609375 0.1875 -1.328125 0.1875q-1.578125 0 -2.5 -1.0q-0.90625 -1.0 -0.90625 -2.71875q0 -1.546875 0.484375 -2.890625q0.484375 -1.359375 1.328125 -2.375q0.84375 -1.015625 1.984375 -1.59375q1.140625 -0.59375 2.453125 -0.59375q0.796875 0 1.3125 0.125q0.515625 0.125 0.765625 0.375q0.03125 0.234375 -0.03125 0.515625q-0.046875 0.28125 -0.171875 0.5625q-0.109375 0.28125 -0.296875 0.515625q-0.171875 0.234375 -0.375 0.3125l-1.4375 -1.484375q-0.734375 0.015625 -1.453125 0.453125q-0.703125 0.421875 -1.28125 1.21875q-0.5625 0.78125 -0.921875 1.90625q-0.34375 1.109375 -0.3125 2.515625q-0.03125 1.46875 0.578125 2.15625q0.609375 0.6875 1.65625 0.6875q0.453125 0 0.84375 -0.125q0.390625 -0.140625 0.734375 -0.328125q0.34375 -0.1875 0.609375 -0.40625q0.28125 -0.21875 0.5 -0.375l0.3125 0.40625zm4.9978027 0.828125q0.578125 0 1.15625 -0.546875q0.578125 -0.546875 1.078125 -1.3125q0.515625 -0.765625 0.921875 -1.59375q0.40625 -0.84375 0.640625 -1.390625l0.6875 -3.65625q-0.296875 -0.203125 -0.578125 -0.28125q-0.28125 -0.09375 -0.765625 -0.09375q-0.984375 0 -1.796875 0.609375q-0.796875 0.609375 -1.359375 1.578125q-0.5625 0.953125 -0.875 2.125q-0.296875 1.171875 -0.296875 2.296875q0 1.09375 0.265625 1.6875q0.265625 0.578125 0.921875 0.578125zm3.375 -3.125q-0.28125 0.78125 -0.703125 1.578125q-0.40625 0.78125 -0.953125 1.421875q-0.546875 0.640625 -1.21875 1.046875q-0.65625 0.390625 -1.390625 0.390625q-2.21875 0 -2.21875 -3.21875q0 -1.484375 0.421875 -2.90625q0.421875 -1.421875 1.234375 -2.53125q0.8125 -1.109375 1.96875 -1.78125q1.171875 -0.671875 2.640625 -0.671875q0.53125 0 0.84375 0.09375q0.328125 0.09375 0.78125 0.296875q0.84375 -0.453125 1.78125 -0.453125l-1.90625 9.75l1.546875 0l0 0.53125q-0.421875 0.34375 -1.03125 0.5625q-0.59375 0.203125 -1.15625 0.203125q-0.625 0 -0.890625 -0.265625q-0.265625 -0.265625 -0.265625 -0.5625q0 -0.390625 0.140625 -1.265625q0.15625 -0.875 0.453125 -2.21875l-0.078125 0zm5.1606445 -5.96875q0.421875 -0.234375 0.890625 -0.421875q0.484375 -0.1875 0.953125 -0.296875l0.34375 -1.625q0.296875 -0.234375 0.6875 -0.40625q0.40625 -0.1875 0.828125 -0.359375l0.453125 0.25l-0.515625 2.34375l2.640625 0q0.046875 0.265625 0 0.546875q-0.03125 0.265625 -0.203125 0.53125l-2.65625 0l-1.34375 6.1875q-0.078125 0.40625 -0.125 0.71875q-0.03125 0.296875 -0.03125 0.546875q0 0.5625 0.3125 0.828125q0.328125 0.25 0.703125 0.25q0.53125 0 1.140625 -0.203125q0.609375 -0.203125 1.125 -0.46875l0.234375 0.390625q-0.1875 0.28125 -0.578125 0.5625q-0.390625 0.265625 -0.875 0.5q-0.46875 0.234375 -1.0 0.375q-0.515625 0.15625 -0.984375 0.15625q-0.9375 0 -1.46875 -0.421875q-0.53125 -0.421875 -0.53125 -1.328125q0 -0.296875 0.046875 -0.65625q0.0625 -0.359375 0.140625 -0.75l1.40625 -6.6875l-1.625 0l0.03125 -0.5625z" fill-rule="nonzero"/><path fill="#000000" fill-opacity="0.0" d="m1139.0872 63.663002l14.047241 0l0 28.125984l-14.047241 0z" fill-rule="evenodd"/><path fill="#000000" fill-opacity="0.0" d="m1141.1716 58.639122l0 38.173225" fill-rule="evenodd"/><path stroke="#000000" stroke-width="2.0" stroke-linejoin="round" stroke-linecap="butt" d="m1141.1716 58.639122l0 38.173225" fill-rule="evenodd"/><path fill="#000000" fill-opacity="0.0" d="m1152.6401 113.00145c0 -3.5138168 2.8485107 -6.3623276 6.3623047 -6.3623276l104.661255 0c1.6873779 0 3.305664 0.670311 4.4987793 1.8634796c1.1932373 1.1931686 1.8635254 2.8114548 1.8635254 4.498848l0 25.448563c0 3.5138245 -2.8485107 6.362335 -6.3623047 6.362335l-104.661255 0c-3.513794 0 -6.3623047 -2.8485107 -6.3623047 -6.362335z" fill-rule="evenodd"/><path stroke="#000000" stroke-width="2.0" stroke-linejoin="round" stroke-linecap="butt" d="m1152.6401 113.00145c0 -3.5138168 2.8485107 -6.3623276 6.3623047 -6.3623276l104.661255 0c1.6873779 0 3.305664 0.670311 4.4987793 1.8634796c1.1932373 1.1931686 1.8635254 2.8114548 1.8635254 4.498848l0 25.448563c0 3.5138245 -2.8485107 6.362335 -6.3623047 6.362335l-104.661255 0c-3.513794 0 -6.3623047 -2.8485107 -6.3623047 -6.362335z" fill-rule="evenodd"/><path fill="#000000" d="m1174.2212 117.43571l-1.515625 -0.1875l0 -0.53125q0.296875 -0.140625 0.6875 -0.265625q0.390625 -0.125 0.828125 -0.234375q0.4375 -0.125 0.859375 -0.1875q0.4375 -0.078125 0.78125 -0.078125l0.421875 0.234375l-2.9375 14.609383l1.546875 0l0 0.546875q-0.421875 0.34375 -1.03125 0.5625q-0.609375 0.203125 -1.1875 0.203125q-0.609375 0 -0.90625 -0.265625q-0.28125 -0.28125 -0.28125 -0.65625q0 -0.421875 0.0625 -0.828125q0.0625 -0.40625 0.171875 -0.890625l2.5 -12.031258zm3.064209 10.578133q0 -1.1250076 0.34375 -2.3437576q0.359375 -1.234375 1.078125 -2.25q0.734375 -1.03125 1.8125 -1.6875q1.09375 -0.671875 2.546875 -0.671875q1.65625 0 2.5 1.03125q0.84375 1.015625 0.84375 3.015625q0 1.421875 -0.40625 2.71875q-0.40625 1.2812576 -1.140625 2.2656326q-0.71875 0.96875 -1.75 1.5625q-1.015625 0.578125 -2.25 0.578125q-1.640625 0 -2.609375 -1.046875q-0.96875 -1.0625 -0.96875 -3.171875zm5.359375 -6.0312576q-1.046875 0.015625 -1.71875 0.6875q-0.65625 0.65625 -1.046875 1.640625q-0.375 0.96875 -0.53125 2.109375q-0.140625 1.125 -0.140625 2.0625076q0 1.265625 0.546875 2.0625q0.5625 0.78125 1.5 0.78125q0.75 0 1.328125 -0.5625q0.59375 -0.578125 1.0 -1.5q0.421875 -0.921875 0.640625 -2.0937576q0.234375 -1.1875 0.234375 -2.375q0 -1.265625 -0.4375 -2.03125q-0.4375 -0.765625 -1.375 -0.78125zm9.934204 6.7812576q0.765625 -1.2812576 1.359375 -2.4843826q0.59375 -1.203125 1.03125 -2.421875q0 -0.234375 -0.0625 -0.609375q-0.046875 -0.375 -0.109375 -0.75q-0.046875 -0.390625 -0.109375 -0.71875q-0.0625 -0.328125 -0.109375 -0.46875q0.625 -0.25 1.265625 -0.25q0.65625 -0.015625 1.140625 0.25q-0.3125 1.328125 -0.875 2.703125q-0.546875 1.375 -1.265625 2.75q-0.703125 1.3593826 -1.546875 2.6875076q-0.84375 1.3125 -1.765625 2.53125l-1.0 0.25l-1.578125 -9.671883l-1.375 -0.171875l0 -0.53125q0.140625 -0.09375 0.390625 -0.234375q0.25 -0.140625 0.5625 -0.265625q0.3125 -0.125 0.640625 -0.203125q0.328125 -0.09375 0.625 -0.09375q0.46875 0 0.671875 0.234375q0.203125 0.234375 0.265625 0.578125l0.984375 6.9375076l0.109375 1.34375l0.046875 0l0.703125 -1.390625zm12.345825 1.328125q-0.1875 0.390625 -0.5625 0.78125q-0.359375 0.390625 -0.84375 0.703125q-0.484375 0.296875 -1.109375 0.46875q-0.625 0.1875 -1.328125 0.1875q-1.765625 0 -2.71875 -1.0q-0.9375 -1.015625 -0.9375 -2.8125q0 -1.5156326 0.421875 -2.8593826q0.421875 -1.34375 1.1875 -2.34375q0.765625 -1.0 1.859375 -1.578125q1.109375 -0.578125 2.453125 -0.578125q1.03125 0 1.765625 0.53125q0.734375 0.515625 0.734375 1.546875q0 1.5 -1.515625 2.375q-1.5 0.875 -4.84375 1.140625q-0.078125 0.359375 -0.125 0.703125q-0.03125 0.34375 -0.03125 0.6562576q0 1.28125 0.65625 2.09375q0.65625 0.8125 1.90625 0.8125q0.40625 0 0.796875 -0.125q0.40625 -0.140625 0.75 -0.328125q0.359375 -0.1875 0.640625 -0.40625q0.296875 -0.21875 0.5 -0.375l0.34375 0.40625zm-2.234375 -8.109383q-0.921875 0.015625 -1.71875 0.859375q-0.78125 0.84375 -1.328125 2.890625q2.0625 -0.0625 3.203125 -0.703125q1.15625 -0.65625 1.15625 -1.8125q0 -0.453125 -0.265625 -0.828125q-0.265625 -0.390625 -1.046875 -0.40625zm8.995605 7.4843826q-0.015625 -0.515625 -0.28125 -0.890625q-0.265625 -0.375 -0.6875 -0.7031326q-0.421875 -0.34375 -0.890625 -0.6875q-0.46875 -0.34375 -0.890625 -0.75q-0.40625 -0.421875 -0.671875 -0.96875q-0.265625 -0.546875 -0.265625 -1.3125q0 -0.765625 0.296875 -1.34375q0.296875 -0.578125 0.8125 -0.953125q0.53125 -0.390625 1.265625 -0.59375q0.734375 -0.203125 1.609375 -0.203125q0.5625 0 1.25 0.09375q0.6875 0.09375 1.3125 0.46875q0 0.234375 -0.09375 0.546875q-0.078125 0.296875 -0.21875 0.59375q-0.140625 0.28125 -0.3125 0.53125q-0.171875 0.234375 -0.359375 0.328125l-1.578125 -1.640625q-0.4375 0.015625 -0.828125 0.109375q-0.390625 0.078125 -0.671875 0.28125q-0.28125 0.1875 -0.453125 0.5q-0.15625 0.296875 -0.15625 0.765625q0 0.5625 0.28125 0.953125q0.28125 0.390625 0.6875 0.75q0.421875 0.34375 0.890625 0.6875q0.484375 0.328125 0.890625 0.75q0.421875 0.40625 0.703125 0.953125q0.28125 0.5312576 0.28125 1.2812576q0 0.765625 -0.359375 1.375q-0.34375 0.59375 -0.953125 1.015625q-0.609375 0.40625 -1.40625 0.609375q-0.796875 0.21875 -1.703125 0.21875q-0.890625 0 -1.625 -0.1875q-0.734375 -0.171875 -1.15625 -0.453125q0.09375 -0.546875 0.234375 -1.0625q0.15625 -0.53125 0.640625 -0.984375l1.90625 1.78125q0.453125 0 0.890625 -0.109375q0.4375 -0.109375 0.78125 -0.34375q0.359375 -0.234375 0.578125 -0.578125q0.234375 -0.34375 0.25 -0.828125z" fill-rule="nonzero"/><path fill="#000000" fill-opacity="0.0" d="m1235.0872 111.663l14.047241 0l0 28.125984l-14.047241 0z" fill-rule="evenodd"/><path fill="#000000" fill-opacity="0.0" d="m1237.1716 106.63912l0 38.173225" fill-rule="evenodd"/><path stroke="#000000" stroke-width="2.0" stroke-linejoin="round" stroke-linecap="butt" d="m1237.1716 106.63912l0 38.173225" fill-rule="evenodd"/><path fill="#000000" fill-opacity="0.0" d="m1249.1344 125.72599c29.102295 0 58.204712 14.456703 58.204712 28.913383" fill-rule="evenodd"/><path stroke="#000000" stroke-width="2.0" stroke-linejoin="round" stroke-linecap="butt" d="m1256.7076 126.044754l0.58776855 0.05051422c0.90148926 0.08074188 1.8001709 0.17427063 2.6954346 0.28015137c3.5810547 0.4235382 7.1051025 1.0447235 10.515503 1.8353195c6.820923 1.5812073 13.187012 3.8400574 18.643799 6.5506897c2.7282715 1.3553162 5.229248 2.823578 7.446045 4.376541c1.1083984 0.77648926 2.145752 1.5741425 3.1049805 2.38945c0.4794922 0.4076538 0.9395752 0.8197174 1.3791504 1.2357483c0.21984863 0.20802307 0.4345703 0.41703796 0.64404297 0.62698364c0.10473633 0.10496521 0.20825195 0.21017456 0.31030273 0.3156128l0.1105957 0.115859985" fill-rule="evenodd"/><path fill="#000000" stroke="#000000" stroke-width="2.0" stroke-linecap="butt" d="m1250.1334 125.76805c0.076416016 -1.8154068 1.6101074 -3.225151 3.425537 -3.148735c1.8153076 0.076408386 3.2250977 1.6100311 3.1486816 3.425438c-0.076416016 1.8154068 -1.6099854 3.2251434 -3.425415 3.1487427c-1.8154297 -0.076416016 -3.2252197 -1.6100388 -3.1488037 -3.4254456z" fill-rule="nonzero"/><path fill="#000000" stroke="#000000" stroke-width="2.0" stroke-linecap="butt" d="m1299.1672 145.25143l6.906372 6.7521973l-0.9503174 -9.611816z" fill-rule="evenodd"/><path fill="#000000" fill-opacity="0.0" d="m1344.6401 209.00145c0 -3.5138092 2.8485107 -6.362335 6.3623047 -6.362335l104.661255 0c1.6873779 0 3.305664 0.6703186 4.4987793 1.8634949c1.1932373 1.193161 1.8635254 2.8114471 1.8635254 4.4988403l0 25.448563c0 3.5138245 -2.8485107 6.362335 -6.3623047 6.362335l-104.661255 0c-3.513794 0 -6.3623047 -2.8485107 -6.3623047 -6.362335z" fill-rule="evenodd"/><path stroke="#000000" stroke-width="2.0" stroke-linejoin="round" stroke-linecap="butt" stroke-dasharray="8.0,6.0" d="m1344.6401 209.00145c0 -3.5138092 2.8485107 -6.362335 6.3623047 -6.362335l104.661255 0c1.6873779 0 3.305664 0.6703186 4.4987793 1.8634949c1.1932373 1.193161 1.8635254 2.8114471 1.8635254 4.4988403l0 25.448563c0 3.5138245 -2.8485107 6.362335 -6.3623047 6.362335l-104.661255 0c-3.513794 0 -6.3623047 -2.8485107 -6.3623047 -6.362335z" fill-rule="evenodd"/><path fill="#000000" d="m1366.2601 226.09196q-0.234375 0.390625 -0.59375 0.78125q-0.359375 0.390625 -0.859375 0.703125q-0.484375 0.296875 -1.09375 0.46875q-0.609375 0.1875 -1.328125 0.1875q-1.578125 0 -2.5 -1.0q-0.90625 -1.0 -0.90625 -2.71875q0 -1.546875 0.484375 -2.890625q0.484375 -1.359375 1.328125 -2.375q0.84375 -1.015625 1.984375 -1.59375q1.140625 -0.59375 2.453125 -0.59375q0.796875 0 1.3125 0.125q0.515625 0.125 0.765625 0.375q0.03125 0.234375 -0.03125 0.515625q-0.046875 0.28125 -0.171875 0.5625q-0.109375 0.28125 -0.296875 0.515625q-0.171875 0.234375 -0.375 0.3125l-1.4375 -1.484375q-0.734375 0.015625 -1.453125 0.453125q-0.703125 0.421875 -1.28125 1.21875q-0.5625 0.78125 -0.921875 1.90625q-0.34375 1.109375 -0.3125 2.515625q-0.03125 1.46875 0.578125 2.15625q0.609375 0.6875 1.65625 0.6875q0.453125 0 0.84375 -0.125q0.390625 -0.140625 0.734375 -0.328125q0.34375 -0.1875 0.609375 -0.40625q0.28125 -0.21875 0.5 -0.375l0.3125 0.40625zm7.487793 -7.46875q-0.546875 0.203125 -1.25 1.078125q-0.6875 0.859375 -1.21875 2.328125l-1.28125 5.953125l-1.828125 0l1.984375 -9.421875l-1.3125 -0.203125l0 -0.53125q0.734375 -0.34375 1.515625 -0.515625q0.796875 -0.1875 1.4375 -0.25l0.421875 0.25l-0.59375 2.84375l0.078125 0q0.625 -1.40625 1.515625 -2.25q0.90625 -0.84375 1.921875 -0.84375q0.28125 0 0.546875 0.0625q0.28125 0.046875 0.546875 0.1875q0 0.203125 -0.078125 0.515625q-0.0625 0.296875 -0.1875 0.625q-0.109375 0.3125 -0.25 0.609375q-0.125 0.28125 -0.28125 0.4375l-1.6875 -0.875zm3.2270508 -0.265625l0 -0.53125q0.3125 -0.125 0.71875 -0.265625q0.40625 -0.140625 0.828125 -0.234375q0.421875 -0.109375 0.8125 -0.1875q0.390625 -0.078125 0.6875 -0.078125l0.375 0.25l-2.0 9.484375l1.578125 0l0 0.546875q-0.453125 0.34375 -1.046875 0.5625q-0.59375 0.203125 -1.171875 0.203125q-0.625 0 -0.890625 -0.265625q-0.265625 -0.28125 -0.265625 -0.65625q0 -0.421875 0.0625 -0.828125q0.078125 -0.40625 0.171875 -0.890625l1.5 -6.890625l-1.359375 -0.21875zm1.703125 -4.734375q0 -0.546875 0.34375 -0.859375q0.34375 -0.328125 0.890625 -0.328125q0.609375 0 0.9375 0.328125q0.34375 0.3125 0.34375 0.859375q0 0.53125 -0.34375 0.84375q-0.328125 0.296875 -0.9375 0.296875q-0.546875 0 -0.890625 -0.296875q-0.34375 -0.3125 -0.34375 -0.84375zm8.126587 11.84375q-0.015625 -0.515625 -0.28125 -0.890625q-0.265625 -0.375 -0.6875 -0.703125q-0.421875 -0.34375 -0.890625 -0.6875q-0.46875 -0.34375 -0.890625 -0.75q-0.40625 -0.421875 -0.671875 -0.96875q-0.265625 -0.546875 -0.265625 -1.3125q0 -0.765625 0.296875 -1.34375q0.296875 -0.578125 0.8125 -0.953125q0.53125 -0.390625 1.265625 -0.59375q0.734375 -0.203125 1.609375 -0.203125q0.5625 0 1.25 0.09375q0.6875 0.09375 1.3125 0.46875q0 0.234375 -0.09375 0.546875q-0.078125 0.296875 -0.21875 0.59375q-0.140625 0.28125 -0.3125 0.53125q-0.171875 0.234375 -0.359375 0.328125l-1.578125 -1.640625q-0.4375 0.015625 -0.828125 0.109375q-0.390625 0.078125 -0.671875 0.28125q-0.28125 0.1875 -0.453125 0.5q-0.15625 0.296875 -0.15625 0.765625q0 0.5625 0.28125 0.953125q0.28125 0.390625 0.6875 0.75q0.421875 0.34375 0.890625 0.6875q0.484375 0.328125 0.890625 0.75q0.421875 0.40625 0.703125 0.953125q0.28125 0.53125 0.28125 1.28125q0 0.765625 -0.359375 1.375q-0.34375 0.59375 -0.953125 1.015625q-0.609375 0.40625 -1.40625 0.609375q-0.796875 0.21875 -1.703125 0.21875q-0.890625 0 -1.625 -0.1875q-0.734375 -0.171875 -1.15625 -0.453125q0.09375 -0.546875 0.234375 -1.0625q0.15625 -0.53125 0.640625 -0.984375l1.90625 1.78125q0.453125 0 0.890625 -0.109375q0.4375 -0.109375 0.78125 -0.34375q0.359375 -0.234375 0.578125 -0.578125q0.234375 -0.34375 0.25 -0.828125zm5.540283 5.625q0.75 0.125 1.5 0.53125l0 0.625l-3.34375 0l-0.203125 -0.1875l0.921875 -4.25l1.984375 -9.25l-1.296875 -0.203125l0 -0.53125q0.703125 -0.296875 1.46875 -0.53125q0.78125 -0.234375 1.46875 -0.234375l0.421875 0.25l-0.875 3.765625l0.09375 0q0.375 -0.859375 0.828125 -1.578125q0.46875 -0.734375 1.0 -1.265625q0.53125 -0.546875 1.15625 -0.859375q0.625 -0.3125 1.328125 -0.3125q0.46875 0 0.890625 0.1875q0.421875 0.171875 0.734375 0.546875q0.328125 0.375 0.5 0.9375q0.1875 0.546875 0.1875 1.265625q0 1.65625 -0.484375 3.15625q-0.484375 1.484375 -1.328125 2.609375q-0.84375 1.125 -1.984375 1.796875q-1.125 0.671875 -2.421875 0.671875q-0.359375 0 -0.625 -0.015625q-0.25 -0.015625 -0.453125 -0.078125q-0.1875 -0.046875 -0.375 -0.140625q-0.171875 -0.078125 -0.390625 -0.1875l-0.703125 3.28125zm5.4375 -12.703125q-0.609375 0 -1.171875 0.484375q-0.546875 0.46875 -1.03125 1.15625q-0.484375 0.6875 -0.875 1.4375q-0.375 0.75 -0.609375 1.328125l-0.828125 4.03125q0.296875 0.265625 0.625 0.390625q0.34375 0.109375 1.0625 0.109375q0.859375 0 1.609375 -0.625q0.75 -0.640625 1.3125 -1.609375q0.578125 -0.984375 0.90625 -2.1875q0.328125 -1.21875 0.328125 -2.390625q0 -1.015625 -0.359375 -1.5625q-0.34375 -0.5625 -0.96875 -0.5625zm5.9348145 0.171875l-1.359375 -0.171875l0 -0.53125q0.109375 -0.09375 0.34375 -0.21875q0.25 -0.125 0.5625 -0.25q0.328125 -0.140625 0.671875 -0.234375q0.34375 -0.09375 0.640625 -0.09375q0.4375 0 0.640625 0.234375q0.203125 0.21875 0.3125 0.578125l1.765625 7.46875l0.078125 1.28125l0.03125 0l0.5 -1.265625q0.265625 -0.59375 0.546875 -1.3125q0.296875 -0.71875 0.578125 -1.4375q0.28125 -0.71875 0.515625 -1.421875q0.234375 -0.703125 0.40625 -1.3125q0 -0.234375 -0.0625 -0.609375q-0.046875 -0.390625 -0.109375 -0.765625q-0.0625 -0.390625 -0.140625 -0.71875q-0.0625 -0.328125 -0.09375 -0.46875q0.296875 -0.125 0.640625 -0.1875q0.34375 -0.0625 0.65625 -0.0625q0.640625 0 1.125 0.25q-0.65625 2.65625 -1.796875 5.296875q-1.140625 2.640625 -2.53125 5.375q-1.140625 2.234375 -2.296875 3.34375q-1.15625 1.109375 -2.609375 1.109375q-0.3125 0 -0.609375 -0.09375q-0.28125 -0.078125 -0.59375 -0.25q-0.03125 -0.234375 0.03125 -0.53125q0.0625 -0.296875 0.203125 -0.59375q0.140625 -0.296875 0.359375 -0.5625q0.234375 -0.25 0.515625 -0.390625l1.71875 0.890625q0.15625 -0.109375 0.390625 -0.3125q0.234375 -0.203125 0.484375 -0.5625q0.25 -0.34375 0.5 -0.84375q0.265625 -0.5 0.5 -1.203125l-2.515625 -9.421875z" fill-rule="nonzero"/><path fill="#000000" fill-opacity="0.0" d="m1427.0872 207.663l14.047241 0l0 28.125992l-14.047241 0z" fill-rule="evenodd"/><path fill="#000000" fill-opacity="0.0" d="m1429.1716 202.63911l0 38.173233" fill-rule="evenodd"/><path stroke="#000000" stroke-width="2.0" stroke-linejoin="round" stroke-linecap="butt" stroke-dasharray="8.0,6.0" d="m1429.1716 202.63911l0 38.173233" fill-rule="evenodd"/><path fill="#000000" d="m1439.1721 222.49153c0 -3.357193 2.7215576 -6.0787354 6.0787354 -6.0787354c1.6121826 0 3.1583252 0.64042664 4.29834 1.780426c1.1400146 1.1399841 1.7803955 2.6861267 1.7803955 4.2983093c0 3.357193 -2.7214355 6.0787354 -6.0787354 6.0787354c-3.3571777 0 -6.0787354 -2.7215424 -6.0787354 -6.0787354z" fill-rule="evenodd"/><path fill="#000000" fill-opacity="0.0" d="m850.3723 60.004696c27.566956 0 41.350403 -7.566929 55.13385 -15.133858c13.783447 -7.566929 27.566956 -15.13386 55.13385 -15.13386" fill-rule="evenodd"/><path stroke="#000000" stroke-width="2.0" stroke-linejoin="round" stroke-linecap="butt" d="m857.9496 59.801094l0.9914551 -0.05806732c0.38623047 -0.02444458 0.7694092 -0.05053711 1.1496582 -0.078250885c3.0421143 -0.22168732 5.895691 -0.5468292 8.587769 -0.9606476c5.3842163 -0.8276329 10.122192 -2.009964 14.429565 -3.4287643c8.614685 -2.837597 15.506409 -6.621063 22.398132 -10.404526c6.8917236 -3.7834663 13.783447 -7.566929 22.398132 -10.40453c4.307312 -1.4187965 9.045349 -2.6011314 14.429504 -3.4287643c1.3460693 -0.20690727 2.732483 -0.39164734 4.1626587 -0.5523701c0.35754395 -0.040182114 0.7178345 -0.07885933 1.0808716 -0.116010666l1.0742188 -0.104558945" fill-rule="evenodd"/><path fill="#000000" stroke="#000000" stroke-width="2.0" stroke-linecap="butt" d="m851.37195 59.977837c-0.048828125 -1.8163605 1.3840942 -3.3283768 3.2004395 -3.377182c1.8163452 -0.048805237 3.3283691 1.384079 3.3771973 3.2004433c0.04876709 1.8163605 -1.3840942 3.3283768 -3.2005005 3.377182c-1.8163452 0.048805237 -3.3283691 -1.3840828 -3.3771362 -3.2004433z" fill-rule="nonzero"/><path fill="#000000" stroke="#000000" stroke-width="2.0" stroke-linecap="butt" d="m948.7969 33.564873l8.92218 -3.699337l-9.2127075 -2.9012012z" fill-rule="evenodd"/><path fill="#000000" fill-opacity="0.0" d="m781.15985 52.87634c0 -8.990391 7.288147 -16.278542 16.278564 -16.278542l65.11218 0c4.317322 0 8.457825 1.7150536 11.510681 4.767872c3.0527954 3.0528183 4.7678833 7.193329 4.7678833 11.51067l0 71.24544c0 8.990387 -7.288147 16.278534 -16.278564 16.278534l-65.11218 0c-8.9904175 0 -16.278564 -7.288147 -16.278564 -16.278534z" fill-rule="evenodd"/><path stroke="#000000" stroke-width="2.0" stroke-linejoin="round" stroke-linecap="butt" d="m781.15985 52.87634c0 -8.990391 7.288147 -16.278542 16.278564 -16.278542l65.11218 0c4.317322 0 8.457825 1.7150536 11.510681 4.767872c3.0527954 3.0528183 4.7678833 7.193329 4.7678833 11.51067l0 71.24544c0 8.990387 -7.288147 16.278534 -16.278564 16.278534l-65.11218 0c-8.9904175 0 -16.278564 -7.288147 -16.278564 -16.278534z" fill-rule="evenodd"/><path fill="#000000" d="m795.16205 54.173744l1.46875 0l0 -0.59375q0 -2.015625 0.84375 -2.921875q0.859375 -0.90625 2.484375 -0.90625q1.703125 0 2.84375 0.40625l-0.53125 2.203125q-0.5 -0.15625 -0.875 -0.203125q-0.375 -0.0625 -0.78125 -0.0625q-0.421875 0 -0.671875 0.125q-0.234375 0.125 -0.359375 0.390625q-0.109375 0.265625 -0.140625 0.671875q-0.03125 0.390625 -0.03125 0.890625l2.34375 0l0 2.359375l-2.34375 0l0 8.3125l-2.78125 0l0 -8.3125l-1.46875 0l0 -2.359375zm13.7213745 2.609375q-0.671875 -0.234375 -1.203125 -0.234375q-0.75 0 -1.25 0.40625q-0.5 0.390625 -0.671875 1.0l0 6.890625l-2.765625 0l0 -10.671875l2.15625 0l0.3125 1.421875l0.09375 0q0.359375 -0.796875 0.96875 -1.21875q0.625 -0.4375 1.453125 -0.4375q0.5625 0 1.265625 0.234375l-0.359375 2.609375zm1.079956 2.734375q0 -2.71875 1.3125 -4.171875q1.328125 -1.46875 3.71875 -1.46875q1.28125 0 2.21875 0.40625q0.9375 0.40625 1.546875 1.140625q0.625 0.734375 0.9375 1.78125q0.3125 1.046875 0.3125 2.3125q0 2.703125 -1.3125 4.171875q-1.3125 1.453125 -3.703125 1.453125q-1.28125 0 -2.21875 -0.40625q-0.9375 -0.40625 -1.5625 -1.140625q-0.625 -0.734375 -0.9375 -1.78125q-0.3125 -1.046875 -0.3125 -2.296875zm2.859375 0q0 0.703125 0.125 1.296875q0.125 0.59375 0.375 1.046875q0.265625 0.453125 0.671875 0.703125q0.421875 0.234375 1.0 0.234375q1.09375 0 1.625 -0.78125q0.53125 -0.796875 0.53125 -2.5q0 -1.46875 -0.5 -2.375q-0.484375 -0.90625 -1.65625 -0.90625q-1.015625 0 -1.59375 0.765625q-0.578125 0.765625 -0.578125 2.515625zm15.625122 5.328125l0 -6.0625q0 -1.296875 -0.375 -1.875q-0.359375 -0.578125 -1.265625 -0.578125q-0.78125 0 -1.328125 0.46875q-0.546875 0.453125 -0.78125 1.140625l0 6.90625l-2.765625 0l0 -10.671875l2.1875 0l0.328125 1.421875l0.078125 0q0.5 -0.6875 1.296875 -1.203125q0.8125 -0.515625 2.09375 -0.515625q0.796875 0 1.40625 0.21875q0.625 0.21875 1.046875 0.703125q0.4375 0.484375 0.640625 1.328125q0.21875 0.84375 0.21875 2.078125l0 6.640625l-2.78125 0zm3.9988403 -10.671875l1.46875 0l0 -2.0l2.765625 -0.78125l0 2.78125l2.609375 0l0 2.359375l-2.609375 0l0 4.09375q0 1.109375 0.21875 1.59375q0.234375 0.46875 0.859375 0.46875q0.421875 0 0.734375 -0.078125q0.3125 -0.09375 0.6875 -0.265625l0.5 2.140625q-0.578125 0.28125 -1.359375 0.46875q-0.765625 0.1875 -1.546875 0.1875q-1.46875 0 -2.171875 -0.75q-0.6875 -0.765625 -0.6875 -2.484375l0 -5.375l-1.46875 0l0 -2.359375z" fill-rule="nonzero"/><path fill="#000000" d="m802.03705 85.78312q-0.671875 -0.234375 -1.203125 -0.234375q-0.75 0 -1.25 0.40625q-0.5 0.390625 -0.671875 1.0l0 6.890625l-2.765625 0l0 -10.671875l2.15625 0l0.3125 1.421875l0.09375 0q0.359375 -0.796875 0.96875 -1.21875q0.625 -0.4375 1.453125 -0.4375q0.5625 0 1.265625 0.234375l-0.359375 2.609375zm10.126831 7.140625q-0.640625 0.515625 -1.75 0.875q-1.09375 0.34375 -2.328125 0.34375q-2.578125 0 -3.78125 -1.5q-1.1875 -1.5 -1.1875 -4.125q0 -2.8125 1.34375 -4.21875q1.34375 -1.421875 3.78125 -1.421875q0.8125 0 1.578125 0.21875q0.765625 0.21875 1.359375 0.703125q0.59375 0.484375 0.953125 1.328125q0.375 0.828125 0.375 2.0625q0 0.453125 -0.0625 0.96875q-0.046875 0.5 -0.15625 1.0625l-6.40625 0q0.078125 1.34375 0.703125 2.03125q0.625 0.671875 2.03125 0.671875q0.875 0 1.5625 -0.265625q0.703125 -0.265625 1.0625 -0.546875l0.921875 1.8125zm-3.96875 -7.828125q-1.09375 0 -1.625 0.65625q-0.515625 0.65625 -0.609375 1.734375l3.953125 0q0.09375 -1.140625 -0.34375 -1.765625q-0.4375 -0.625 -1.375 -0.625zm6.209717 -1.296875q0.84375 -0.375 2.015625 -0.59375q1.171875 -0.234375 2.453125 -0.234375q1.109375 0 1.859375 0.265625q0.75 0.265625 1.1875 0.765625q0.4375 0.484375 0.609375 1.171875q0.1875 0.671875 0.1875 1.53125q0 0.9375 -0.0625 1.890625q-0.0625 0.9375 -0.078125 1.859375q0 0.921875 0.0625 1.78125q0.0625 0.859375 0.3125 1.625l-2.265625 0l-0.4375 -1.46875l-0.109375 0q-0.421875 0.65625 -1.1875 1.140625q-0.75 0.484375 -1.953125 0.484375q-0.75 0 -1.34375 -0.21875q-0.59375 -0.234375 -1.03125 -0.640625q-0.421875 -0.421875 -0.65625 -0.984375q-0.234375 -0.5625 -0.234375 -1.265625q0 -0.984375 0.4375 -1.65625q0.4375 -0.671875 1.25 -1.078125q0.828125 -0.421875 1.96875 -0.578125q1.15625 -0.171875 2.5625 -0.109375q0.140625 -1.1875 -0.1875 -1.703125q-0.3125 -0.53125 -1.421875 -0.53125q-0.828125 0 -1.765625 0.171875q-0.921875 0.171875 -1.515625 0.4375l-0.65625 -2.0625zm3.515625 7.9375q0.828125 0 1.3125 -0.375q0.5 -0.375 0.734375 -0.796875l0 -1.390625q-0.65625 -0.0625 -1.265625 -0.015625q-0.609375 0.03125 -1.078125 0.1875q-0.46875 0.15625 -0.75 0.4375q-0.28125 0.265625 -0.28125 0.6875q0 0.609375 0.34375 0.9375q0.359375 0.328125 0.984375 0.328125zm13.016296 -5.953125q-0.671875 -0.234375 -1.203125 -0.234375q-0.75 0 -1.25 0.40625q-0.5 0.390625 -0.671875 1.0l0 6.890625l-2.765625 0l0 -10.671875l2.15625 0l0.3125 1.421875l0.09375 0q0.359375 -0.796875 0.96875 -1.21875q0.625 -0.4375 1.453125 -0.4375q0.5625 0 1.265625 0.234375l-0.359375 2.609375z" fill-rule="nonzero"/><path fill="#000000" d="m800.5527 119.90811q0 -0.4375 -0.359375 -0.6875q-0.359375 -0.25 -0.890625 -0.46875q-0.53125 -0.21875 -1.171875 -0.4375q-0.640625 -0.21875 -1.171875 -0.609375q-0.53125 -0.40625 -0.90625 -1.015625q-0.359375 -0.609375 -0.359375 -1.5625q0 -1.578125 0.9375 -2.40625q0.9375 -0.84375 2.71875 -0.84375q1.203125 0 2.1875 0.265625q0.984375 0.25 1.53125 0.578125l-0.609375 2.0q-0.5 -0.1875 -1.25 -0.40625q-0.734375 -0.21875 -1.5 -0.21875q-1.234375 0 -1.234375 0.96875q0 0.375 0.359375 0.609375q0.359375 0.234375 0.890625 0.4375q0.53125 0.203125 1.171875 0.4375q0.640625 0.234375 1.171875 0.609375q0.53125 0.375 0.890625 0.984375q0.375 0.59375 0.375 1.53125q0 1.609375 -1.046875 2.546875q-1.03125 0.921875 -3.09375 0.921875q-1.125 0 -2.125 -0.296875q-0.984375 -0.28125 -1.609375 -0.65625l0.765625 -2.078125q0.5 0.28125 1.296875 0.546875q0.8125 0.265625 1.671875 0.265625q0.625 0 0.984375 -0.234375q0.375 -0.234375 0.375 -0.78125zm4.8286133 -7.734375l2.765625 0l0 10.671875l-2.765625 0l0 -10.671875zm-0.40625 -3.0q0 -0.625 0.453125 -1.0625q0.46875 -0.4375 1.265625 -0.4375q0.8125 0 1.3125 0.4375q0.5 0.4375 0.5 1.0625q0 0.625 -0.5 1.046875q-0.5 0.40625 -1.3125 0.40625q-0.796875 0 -1.265625 -0.40625q-0.453125 -0.421875 -0.453125 -1.046875zm5.3466797 11.328125l4.203125 -5.0625l1.09375 -0.90625l-5.296875 0l0 -2.359375l8.359375 0l0 2.359375l-4.15625 5.140625l-1.0625 0.828125l5.21875 0l0 2.34375l-8.359375 0l0 -2.34375zm18.691406 1.421875q-0.640625 0.515625 -1.75 0.875q-1.09375 0.34375 -2.328125 0.34375q-2.578125 0 -3.78125 -1.5q-1.1875 -1.5 -1.1875 -4.125q0 -2.8125 1.34375 -4.21875q1.34375 -1.421875 3.78125 -1.421875q0.8125 0 1.578125 0.21875q0.765625 0.21875 1.359375 0.703125q0.59375 0.484375 0.953125 1.328125q0.375 0.828125 0.375 2.0625q0 0.453125 -0.0625 0.96875q-0.046875 0.5 -0.15625 1.0625l-6.40625 0q0.078125 1.34375 0.703125 2.03125q0.625 0.671875 2.03125 0.671875q0.875 0 1.5625 -0.265625q0.703125 -0.265625 1.0625 -0.546875l0.921875 1.8125zm-3.96875 -7.828125q-1.09375 0 -1.625 0.65625q-0.515625 0.65625 -0.609375 1.734375l3.953125 0q0.09375 -1.140625 -0.34375 -1.765625q-0.4375 -0.625 -1.375 -0.625z" fill-rule="nonzero"/><path fill="#000000" d="m858.3536 118.26749l-2.515625 0l0 4.578125l-1.65625 0l0 -4.578125l-6.578125 0l0 -0.71875l7.078125 -9.875l1.15625 0l0 9.09375l2.515625 0l0 1.5zm-4.171875 -6.15625l0.203125 -1.75l-0.0625 0l-0.734375 1.453125l-3.015625 4.078125l-1.015625 1.046875l1.484375 -0.171875l3.140625 0l0 -4.65625z" fill-rule="nonzero"/><path fill="#000000" fill-opacity="0.0" d="m836.3251 40.08728l14.047241 0l0 39.83483l-14.047241 0z" fill-rule="evenodd"/><path fill="#000000" fill-opacity="0.0" d="m836.3251 68.88215l14.047241 0l0 39.84252l-14.047241 0z" fill-rule="evenodd"/><path fill="#000000" fill-opacity="0.0" d="m1248.6401 161.00145c0 -3.5138092 2.8485107 -6.362335 6.3623047 -6.362335l104.661255 0c1.6873779 0 3.305664 0.6703186 4.4987793 1.8634949c1.1932373 1.193161 1.8635254 2.8114471 1.8635254 4.4988403l0 25.448563c0 3.5138245 -2.8485107 6.362335 -6.3623047 6.362335l-104.661255 0c-3.513794 0 -6.3623047 -2.8485107 -6.3623047 -6.362335z" fill-rule="evenodd"/><path stroke="#000000" stroke-width="2.0" stroke-linejoin="round" stroke-linecap="butt" d="m1248.6401 161.00145c0 -3.5138092 2.8485107 -6.362335 6.3623047 -6.362335l104.661255 0c1.6873779 0 3.305664 0.6703186 4.4987793 1.8634949c1.1932373 1.193161 1.8635254 2.8114471 1.8635254 4.4988403l0 25.448563c0 3.5138245 -2.8485107 6.362335 -6.3623047 6.362335l-104.661255 0c-3.513794 0 -6.3623047 -2.8485107 -6.3623047 -6.362335z" fill-rule="evenodd"/><path fill="#000000" d="m1272.1055 178.92009q0.578125 0 1.140625 -0.546875q0.578125 -0.546875 1.09375 -1.3125q0.515625 -0.765625 0.921875 -1.59375q0.40625 -0.84375 0.640625 -1.390625l0.671875 -3.65625q-0.3125 -0.203125 -0.578125 -0.28125q-0.265625 -0.078125 -0.765625 -0.09375q-1.015625 0.015625 -1.828125 0.625q-0.8125 0.609375 -1.375 1.5625q-0.546875 0.953125 -0.84375 2.125q-0.28125 1.171875 -0.28125 2.296875q0 1.09375 0.265625 1.6875q0.265625 0.578125 0.9375 0.578125zm3.359375 -3.125q-0.265625 0.78125 -0.703125 1.578125q-0.421875 0.78125 -0.96875 1.421875q-0.546875 0.640625 -1.203125 1.046875q-0.640625 0.390625 -1.390625 0.390625q-2.21875 0 -2.21875 -3.234375q0 -1.515625 0.421875 -2.9375q0.4375 -1.421875 1.25 -2.515625q0.8125 -1.09375 1.953125 -1.75q1.15625 -0.671875 2.625 -0.671875q0.5625 0 0.828125 0.078125q0.28125 0.078125 0.71875 0.265625l0.8125 -4.03125l-1.5 -0.1875l0 -0.53125q0.3125 -0.140625 0.703125 -0.25q0.390625 -0.125 0.796875 -0.21875q0.421875 -0.09375 0.84375 -0.171875q0.421875 -0.09375 0.796875 -0.125l0.4375 0.15625l-2.921875 14.703125l1.5625 0l0 0.53125q-0.421875 0.34375 -1.03125 0.5625q-0.59375 0.203125 -1.171875 0.203125q-0.609375 0 -0.875 -0.265625q-0.265625 -0.265625 -0.265625 -0.5625q0 -0.390625 0.140625 -1.265625q0.15625 -0.875 0.453125 -2.21875l-0.09375 0zm4.8481445 0.21875q0 -1.125 0.34375 -2.34375q0.359375 -1.234375 1.078125 -2.25q0.734375 -1.03125 1.8125 -1.6875q1.09375 -0.671875 2.546875 -0.671875q1.65625 0 2.5 1.03125q0.84375 1.015625 0.84375 3.015625q0 1.421875 -0.40625 2.71875q-0.40625 1.28125 -1.140625 2.265625q-0.71875 0.96875 -1.75 1.5625q-1.015625 0.578125 -2.25 0.578125q-1.640625 0 -2.609375 -1.046875q-0.96875 -1.0625 -0.96875 -3.171875zm5.359375 -6.03125q-1.046875 0.015625 -1.71875 0.6875q-0.65625 0.65625 -1.046875 1.640625q-0.375 0.96875 -0.53125 2.109375q-0.140625 1.125 -0.140625 2.0625q0 1.265625 0.546875 2.0625q0.5625 0.78125 1.5 0.78125q0.75 0 1.328125 -0.5625q0.59375 -0.578125 1.0 -1.5q0.421875 -0.921875 0.640625 -2.09375q0.234375 -1.1875 0.234375 -2.375q0 -1.265625 -0.4375 -2.03125q-0.4375 -0.765625 -1.375 -0.78125zm10.590454 -0.921875q1.03125 0 1.671875 0.265625q0.65625 0.25 1.015625 0.546875q0.1875 -0.171875 0.5 -0.34375q0.328125 -0.171875 0.6875 -0.3125q0.375 -0.15625 0.75 -0.28125q0.390625 -0.125 0.734375 -0.234375q0.0625 0.109375 0.09375 0.328125q0.046875 0.203125 0.03125 0.46875q0 0.25 -0.078125 0.515625q-0.078125 0.265625 -0.21875 0.484375l-2.203125 -0.15625q0.0625 0.1875 0.125 0.4375q0.078125 0.25 0.078125 0.546875q0 0.84375 -0.359375 1.578125q-0.34375 0.71875 -0.96875 1.25q-0.625 0.515625 -1.453125 0.8125q-0.8125 0.296875 -1.71875 0.296875q-0.375 0 -0.59375 0q-0.21875 -0.015625 -0.5 -0.078125q-0.1875 0.21875 -0.53125 0.5q-0.328125 0.28125 -0.328125 0.625q0 0.359375 0.46875 0.5625q0.46875 0.1875 1.1875 0.34375q0.71875 0.15625 1.546875 0.34375q0.828125 0.1875 1.546875 0.5q0.71875 0.296875 1.1875 0.796875q0.46875 0.484375 0.46875 1.296875q0 1.0 -0.5625 1.796875q-0.5625 0.796875 -1.5 1.359375q-0.921875 0.578125 -2.109375 0.875q-1.1875 0.3125 -2.40625 0.3125q-0.96875 0 -1.671875 -0.203125q-0.703125 -0.203125 -1.15625 -0.5625q-0.453125 -0.34375 -0.65625 -0.796875q-0.21875 -0.4375 -0.21875 -0.921875q0 -0.609375 0.265625 -1.125q0.265625 -0.5 0.71875 -0.953125q0.4375 -0.46875 1.015625 -0.84375q0.578125 -0.390625 1.203125 -0.734375q-0.328125 -0.171875 -0.53125 -0.453125q-0.203125 -0.296875 -0.203125 -0.65625q0 -0.3125 0.21875 -0.65625q0.21875 -0.359375 0.5 -0.671875q0.28125 -0.328125 0.5625 -0.5625q0.296875 -0.234375 0.453125 -0.34375q-0.265625 -0.0625 -0.53125 -0.234375q-0.265625 -0.171875 -0.5 -0.4375q-0.234375 -0.28125 -0.390625 -0.640625q-0.140625 -0.375 -0.140625 -0.828125q0 -0.828125 0.34375 -1.53125q0.359375 -0.703125 0.96875 -1.203125q0.625 -0.5 1.4375 -0.78125q0.8125 -0.296875 1.75 -0.296875zm-2.453125 14.53125q0.671875 0 1.3125 -0.203125q0.65625 -0.1875 1.171875 -0.546875q0.53125 -0.34375 0.859375 -0.875q0.328125 -0.515625 0.328125 -1.171875q0 -0.640625 -0.53125 -0.984375q-0.515625 -0.359375 -1.265625 -0.5625q-0.734375 -0.21875 -1.546875 -0.359375q-0.796875 -0.140625 -1.375 -0.328125q-1.0 0.71875 -1.375 1.5q-0.375 0.796875 -0.34375 1.484375q-0.03125 0.953125 0.71875 1.5q0.765625 0.546875 2.046875 0.546875zm2.28125 -13.671875q-0.609375 0 -1.09375 0.234375q-0.484375 0.234375 -0.828125 0.625q-0.328125 0.390625 -0.5 0.9375q-0.171875 0.53125 -0.171875 1.125q0 0.8125 0.515625 1.203125q0.53125 0.375 1.125 0.375q0.640625 0 1.09375 -0.21875q0.46875 -0.234375 0.765625 -0.609375q0.3125 -0.390625 0.453125 -0.875q0.15625 -0.5 0.15625 -1.03125q0 -0.78125 -0.375 -1.265625q-0.375 -0.5 -1.140625 -0.5zm10.070068 7.546875q-0.015625 -0.515625 -0.28125 -0.890625q-0.265625 -0.375 -0.6875 -0.703125q-0.421875 -0.34375 -0.890625 -0.6875q-0.46875 -0.34375 -0.890625 -0.75q-0.40625 -0.421875 -0.671875 -0.96875q-0.265625 -0.546875 -0.265625 -1.3125q0 -0.765625 0.296875 -1.34375q0.296875 -0.578125 0.8125 -0.953125q0.53125 -0.390625 1.265625 -0.59375q0.734375 -0.203125 1.609375 -0.203125q0.5625 0 1.25 0.09375q0.6875 0.09375 1.3125 0.46875q0 0.234375 -0.09375 0.546875q-0.078125 0.296875 -0.21875 0.59375q-0.140625 0.28125 -0.3125 0.53125q-0.171875 0.234375 -0.359375 0.328125l-1.578125 -1.640625q-0.4375 0.015625 -0.828125 0.109375q-0.390625 0.078125 -0.671875 0.28125q-0.28125 0.1875 -0.453125 0.5q-0.15625 0.296875 -0.15625 0.765625q0 0.5625 0.28125 0.953125q0.28125 0.390625 0.6875 0.75q0.421875 0.34375 0.890625 0.6875q0.484375 0.328125 0.890625 0.75q0.421875 0.40625 0.703125 0.953125q0.28125 0.53125 0.28125 1.28125q0 0.765625 -0.359375 1.375q-0.34375 0.59375 -0.953125 1.015625q-0.609375 0.40625 -1.40625 0.609375q-0.796875 0.21875 -1.703125 0.21875q-0.890625 0 -1.625 -0.1875q-0.734375 -0.171875 -1.15625 -0.453125q0.09375 -0.546875 0.234375 -1.0625q0.15625 -0.53125 0.640625 -0.984375l1.90625 1.78125q0.453125 0 0.890625 -0.109375q0.4375 -0.109375 0.78125 -0.34375q0.359375 -0.234375 0.578125 -0.578125q0.234375 -0.34375 0.25 -0.828125z" fill-rule="nonzero"/><path fill="#000000" fill-opacity="0.0" d="m1331.0872 159.663l14.047241 0l0 28.125992l-14.047241 0z" fill-rule="evenodd"/><path fill="#000000" fill-opacity="0.0" d="m1333.1716 154.63911l0 38.173233" fill-rule="evenodd"/><path stroke="#000000" stroke-width="2.0" stroke-linejoin="round" stroke-linecap="butt" d="m1333.1716 154.63911l0 38.173233" fill-rule="evenodd"/><path fill="#000000" fill-opacity="0.0" d="m1345.1344 173.726c29.102295 0 58.204712 14.456696 58.204712 28.913376" fill-rule="evenodd"/><path stroke="#000000" stroke-width="2.0" stroke-linejoin="round" stroke-linecap="butt" stroke-dasharray="8.0,6.0" d="m1352.7076 174.04474l0.58776855 0.05052185c0.90148926 0.08073425 1.8001709 0.17425537 2.6954346 0.28015137c3.5810547 0.4235382 7.1051025 1.0447235 10.515503 1.8353271c6.820923 1.581192 13.187012 3.8400574 18.643799 6.5506897c2.7282715 1.3553009 5.229248 2.8235626 7.445923 4.376526c1.1085205 0.7765045 2.145874 1.5741577 3.1051025 2.3894653c0.47961426 0.40763855 0.9395752 0.8197174 1.3791504 1.2357483c0.21984863 0.20802307 0.4345703 0.41703796 0.64404297 0.6269684c0.10473633 0.10498047 0.20825195 0.21017456 0.3104248 0.3156128l0.11035156 0.115859985" fill-rule="evenodd"/><path fill="#000000" stroke="#000000" stroke-width="2.0" stroke-linecap="butt" d="m1346.1334 173.76804c0.076416016 -1.8153992 1.6101074 -3.2251434 3.425537 -3.1487274c1.8153076 0.07640076 3.2250977 1.6100311 3.1486816 3.4254303c-0.076416016 1.8154144 -1.6099854 3.2251587 -3.425415 3.1487427c-1.8154297 -0.076416016 -3.2252197 -1.6100311 -3.1488037 -3.4254456z" fill-rule="nonzero"/><path fill="#000000" stroke="#000000" stroke-width="2.0" stroke-linecap="butt" d="m1395.1672 193.25142l6.906372 6.7521973l-0.9503174 -9.611816z" fill-rule="evenodd"/><path fill="#000000" fill-opacity="0.0" d="m850.3723 88.80341c99.566956 0 149.3504 21.228348 199.13391 42.456688c49.783447 21.228348 99.566895 42.456696 199.13379 42.456696" fill-rule="evenodd"/><path stroke="#999999" stroke-width="2.0" stroke-linejoin="round" stroke-linecap="butt" d="m857.9522 88.84593l1.6101074 0.01902771c3.015747 0.04081726 5.984436 0.10170746 8.907471 0.18203735c5.8462524 0.16066742 11.51001 0.39907074 17.003723 0.71003723c10.987366 0.62192535 21.294128 1.5340805 31.017456 2.6950073c19.446716 2.321846 36.559692 5.6387787 52.117065 9.619095c31.114685 7.9606247 56.006348 18.574799 80.89807 29.18898c24.891724 10.614166 49.78357 21.228333 80.89819 29.188965c15.557373 3.9803162 32.670288 7.297241 52.117065 9.619095c9.723267 1.1609344 20.03003 2.0730896 31.017456 2.6950073c5.4936523 0.31095886 11.157471 0.5493622 17.003662 0.71003723c1.4615479 0.04017639 2.9344482 0.07545471 4.4189453 0.1058197l1.6790771 0.031448364" fill-rule="evenodd"/><path fill="#999999" stroke="#999999" stroke-width="2.0" stroke-linecap="butt" d="m851.37225 88.80903c0.010192871 -1.8169937 1.4914551 -3.2816925 3.3084106 -3.2714996c1.8170166 0.010192871 3.2816772 1.4914169 3.2714844 3.308403c-0.010192871 1.8169861 -1.491394 3.2816849 -3.3083496 3.271492c-1.8170166 -0.010185242 -3.2817383 -1.4914093 -3.2715454 -3.3083954z" fill-rule="nonzero"/><path fill="#999999" stroke="#999999" stroke-width="2.0" stroke-linecap="butt" d="m1236.6112 176.91382l9.105103 -3.2229156l-9.046509 -3.3837585z" fill-rule="evenodd"/><path fill="#000000" fill-opacity="0.0" d="m850.3723 88.80341c115.171814 0 168.56012 33.228348 230.34363 66.45669c61.783447 33.228348 131.96204 66.456696 263.92407 66.456696" fill-rule="evenodd"/><path stroke="#000000" stroke-width="2.0" stroke-linejoin="round" stroke-linecap="butt" stroke-dasharray="8.0,6.0" d="m857.9521 88.85299l0.4173584 0.004753113c0.8774414 0.012031555 1.7512207 0.026031494 2.621338 0.042007446c3.4805908 0.06388092 6.903015 0.15920258 10.269287 0.28495026c6.732727 0.25148773 13.241272 0.62464905 19.542603 1.1113968c12.602844 0.97348785 24.37738 2.401268 35.460632 4.218445c22.166565 3.634346 41.568115 8.826279 59.30139 15.056595c35.46649 12.460625 64.2594 29.074799 95.15112 45.68898c30.891846 16.614166 63.882324 33.228333 105.64514 45.688965c20.88147 6.230316 43.955933 11.422241 70.05774 15.056595c13.050903 1.8171844 26.858643 3.2449646 41.527466 4.218445c7.3343506 0.48675537 14.883911 0.85990906 22.661987 1.1114044c3.888916 0.12574768 7.834961 0.22105408 11.839722 0.28494263l0.19250488 0.0026855469" fill-rule="evenodd"/><path fill="#000000" stroke="#000000" stroke-width="2.0" stroke-linecap="butt" d="m851.37225 88.80996c0.0119018555 -1.8169785 1.4945068 -3.2802963 3.3114624 -3.2684174c1.8169556 0.011886597 3.2802734 1.4944687 3.2684326 3.3114471c-0.0119018555 1.8169785 -1.4945068 3.2802963 -3.3114624 3.2684174c-1.8169556 -0.011886597 -3.2802734 -1.4944687 -3.2684326 -3.3114471z" fill-rule="nonzero"/><path fill="#000000" stroke="#000000" stroke-width="2.0" stroke-linecap="butt" d="m1332.6146 224.92651l9.101685 -3.2325287l-9.050171 -3.3742065z" fill-rule="evenodd"/></g></svg>