<svg version="1.1" viewBox="0.0 0.0 654.002624671916 123.79527559055119" fill="none" stroke="none" stroke-linecap="square" stroke-miterlimit="10" xmlns:xlink="http://www.w3.org/1999/xlink" xmlns="http://www.w3.org/2000/svg"><clipPath id="p.0"><path d="m0 0l654.0026 0l0 123.79527l-654.0026 0l0 -123.79527z" clip-rule="nonzero"/></clipPath><g clip-path="url(#p.0)"><path fill="#000000" fill-opacity="0.0" d="m0 0l654.0026 0l0 123.79527l-654.0026 0z" fill-rule="evenodd"/><path stroke="#000000" stroke-width="2.0" stroke-linecap="butt" d="m17.006367 23.517315l0 41.322834" fill-rule="nonzero"/><path stroke="#000000" stroke-width="2.0" stroke-linecap="butt" d="m58.35282 23.517315l0 41.322834" fill-rule="nonzero"/><path stroke="#000000" stroke-width="2.0" stroke-linecap="butt" d="m99.69928 23.517315l0 41.322834" fill-rule="nonzero"/><path stroke="#000000" stroke-width="2.0" stroke-linecap="butt" d="m141.04573 23.517315l0 41.322834" fill-rule="nonzero"/><path stroke="#000000" stroke-width="2.0" stroke-linecap="butt" d="m182.3922 23.517315l0 41.322834" fill-rule="nonzero"/><path stroke="#000000" stroke-width="2.0" stroke-linecap="butt" d="m223.73865 23.517315l0 41.322834" fill-rule="nonzero"/><path stroke="#000000" stroke-width="2.0" stroke-linecap="butt" d="m513.1638 23.517315l0 41.322834" fill-rule="nonzero"/><path stroke="#000000" stroke-width="2.0" stroke-linecap="butt" d="m554.5103 23.517315l0 41.322834" fill-rule="nonzero"/><path stroke="#000000" stroke-width="2.0" stroke-linecap="butt" d="m595.85675 23.517315l0 41.322834" fill-rule="nonzero"/><path stroke="#000000" stroke-width="2.0" stroke-linecap="butt" d="m637.2032 23.517315l0 41.322834" fill-rule="nonzero"/><path stroke="#000000" stroke-width="2.0" stroke-linecap="butt" d="m16.006367 24.517315l289.42517 0" fill-rule="nonzero"/><path stroke="#000000" stroke-width="2.0" stroke-linecap="butt" stroke-dasharray="2.0,6.0" d="m305.43155 24.517315l124.0394 0" fill-rule="nonzero"/><path stroke="#000000" stroke-width="2.0" stroke-linecap="butt" d="m429.47095 24.517315l208.73224 0" fill-rule="nonzero"/><path stroke="#000000" stroke-width="2.0" stroke-linecap="butt" d="m16.006367 63.84015l289.42517 0" fill-rule="nonzero"/><path stroke="#000000" stroke-width="2.0" stroke-linecap="butt" stroke-dasharray="2.0,6.0" d="m305.43155 63.84015l124.0394 0" fill-rule="nonzero"/><path stroke="#000000" stroke-width="2.0" stroke-linecap="butt" d="m429.47095 63.84015l208.73224 0" fill-rule="nonzero"/><path fill="#000000" d="m34.625824 16.645441q0 -2.390626 0.765625 -3.593751q0.78125 -1.21875 2.28125 -1.21875q1.609375 0 2.328125 1.1875q0.734375 1.1875 0.734375 3.625001q0 2.40625 -0.78125 3.625q-0.78125 1.203125 -2.28125 1.203125q-1.578125 0 -2.3125 -1.265625q-0.734375 -1.265625 -0.734375 -3.5625zm1.09375 0q0 0.875 0.109375 1.59375q0.125 0.703125 0.359375 1.21875q0.25 0.515625 0.609375 0.8125q0.375 0.28125 0.875 0.28125q1.015625 0 1.484375 -0.9375q0.46875 -0.953125 0.46875 -2.96875q0 -0.84375095 -0.09375 -1.562501q-0.09375 -0.71875 -0.328125 -1.234375q-0.234375 -0.53125 -0.609375 -0.8125q-0.375 -0.28125 -0.921875 -0.28125q-1.0 0 -1.484375 0.953125q-0.46875 0.953125 -0.46875 2.937501z" fill-rule="nonzero"/><path fill="#000000" d="m76.83166 20.332941l1.875 0l0 -6.453126l0.125 -0.78125l-0.53125 0.625l-1.46875 1.046875l-0.5 -0.671875l2.921875 -2.265625l0.484375 0l0 8.500001l1.828125 0l0 0.984375l-4.734375 0l0 -0.984375z" fill-rule="nonzero"/><path fill="#000000" d="m122.67811 14.11419q0 0.703125 -0.265625 1.4375q-0.25 0.73437595 -0.671875 1.484376q-0.421875 0.75 -0.9375 1.46875q-0.515625 0.703125 -1.03125 1.34375l-0.65625 0.578125l0 0.046875l0.84375 -0.140625l2.90625 0l0 0.984375l-5.296875 0l0 -0.390625q0.296875 -0.296875 0.703125 -0.75q0.421875 -0.453125 0.859375 -1.0q0.453125 -0.5625 0.875 -1.171875q0.4375 -0.625 0.78125 -1.265625q0.359375 -0.640625 0.578125 -1.265626q0.21875 -0.640625 0.21875 -1.1875q0 -0.65625 -0.375 -1.09375q-0.375 -0.4375 -1.140625 -0.4375q-0.5 0 -0.984375 0.21875q-0.484375 0.203125 -0.828125 0.46875l-0.4375 -0.765625q0.46875 -0.390625 1.109375 -0.609375q0.640625 -0.234375 1.375 -0.234375q0.5625 0 1.0 0.171875q0.453125 0.15625 0.75 0.46875q0.3125 0.296875 0.46875 0.71875q0.15625 0.421875 0.15625 0.921875z" fill-rule="nonzero"/><path fill="#000000" d="m161.21207 20.551691q0.453125 0 0.828125 -0.140625q0.390625 -0.140625 0.671875 -0.390625q0.28125 -0.265625 0.4375 -0.625q0.15625 -0.359375 0.15625 -0.78125q0 -0.9375 -0.546875 -1.390625q-0.546875 -0.453125 -1.53125 -0.453125l-0.984375 0l0 -0.390625l1.921875 -2.953126l0.609375 -0.59375l-0.859375 0.140625l-2.640625 0l0 -0.984375l4.75 0l0 0.390625l-2.109375 3.1875l-0.46875 0.375l0 0.03125l0.453125 -0.09375q0.53125 0.015625 0.984375 0.20312595q0.453125 0.171875 0.78125 0.515625q0.34375 0.328125 0.53125 0.8125q0.1875 0.46875 0.1875 1.0625q0 0.71875 -0.265625 1.28125q-0.25 0.5625 -0.6875 0.953125q-0.421875 0.375 -1.015625 0.578125q-0.578125 0.1875 -1.234375 0.1875q-0.59375 0 -1.078125 -0.09375q-0.484375 -0.09375 -0.84375 -0.234375l0.28125 -0.953125q0.3125 0.15625 0.71875 0.265625q0.421875 0.09375 0.953125 0.09375z" fill-rule="nonzero"/><path fill="#000000" d="m206.4179 18.457941l-1.578125 0l0 2.859375l-1.03125 0l0 -2.859375l-4.109375 0l0 -0.453125l4.421875 -6.156251l0.71875 0l0 5.671876l1.578125 0l0 0.9375zm-2.609375 -3.843751l0.125 -1.09375l-0.03125 0l-0.46875 0.90625l-1.875 2.546876l-0.640625 0.65625l0.921875 -0.109375l1.96875 0l0 -2.906251z" fill-rule="nonzero"/><path fill="#000000" d="m243.62373 20.551691q0.921875 0 1.515625 -0.53125q0.59375 -0.546875 0.59375 -1.5625q0 -0.96875 -0.59375 -1.4375q-0.59375 -0.484375 -1.625 -0.484375l-1.125 0.0625l0 -4.609376l4.15625 0l0 0.984375l-3.15625 0l0 2.65625l0.578125 -0.03125q1.3125 0.015625 2.078125 0.73437595q0.765625 0.71875 0.765625 2.0625q0 0.75 -0.265625 1.328125q-0.25 0.578125 -0.6875 0.96875q-0.421875 0.390625 -1.015625 0.59375q-0.578125 0.1875 -1.25 0.1875q-0.59375 0 -1.015625 -0.0625q-0.40625 -0.0625 -0.765625 -0.203125l0.28125 -0.90625q0.296875 0.125 0.640625 0.1875q0.359375 0.0625 0.890625 0.0625z" fill-rule="nonzero"/><path fill="#000000" d="m485.92255 17.520441q0.09375 -0.421875 0.171875 -0.765625q0.078125 -0.359375 0.078125 -0.703125q0 -0.31250095 -0.140625 -0.51562595q-0.140625 -0.21875 -0.453125 -0.21875q-0.359375 0 -0.734375 0.296875q-0.375 0.296875 -0.703125 0.71875095q-0.3125 0.40625 -0.578125 0.859375q-0.25 0.4375 -0.375 0.71875l-0.71875 3.40625l-1.109375 0l1.171875 -5.890626l-0.8125 -0.125l0.015625 -0.328125q0.1875 -0.09375 0.421875 -0.171875q0.234375 -0.09375 0.484375 -0.15625q0.25 -0.078125 0.484375 -0.109375q0.234375 -0.046875 0.421875 -0.046875l0.265625 0.171875l-0.5 2.343751l0.0625 0q0.265625 -0.53125 0.578125 -0.984375q0.328125 -0.45312595 0.6875 -0.79687595q0.375 -0.34375 0.765625 -0.53125q0.40625 -0.203125 0.828125 -0.203125q0.5625 0 0.8125 0.359375q0.265625 0.34375 0.265625 0.890625q0 0.28125095 -0.078125 0.73437595q-0.0625 0.4375 -0.15625 0.8125l-0.75 3.28125l0.984375 0l0 0.34375q-0.265625 0.21875 -0.65625 0.359375q-0.375 0.125 -0.734375 0.125q-0.375 0 -0.53125 -0.15625q-0.140625 -0.15625 -0.140625 -0.34375q0 -0.265625 0.0625 -0.5625q0.0625 -0.296875 0.140625 -0.609375l0.46875 -2.203125z" fill-rule="nonzero"/><path fill="#000000" d="m489.71713 16.989191l5.640625 0l0 0.984375l-5.640625 0l0 -0.984375zm14.202789 1.46875l-1.578125 0l0 2.859375l-1.03125 0l0 -2.859375l-4.109375 0l0 -0.453125l4.421875 -6.156251l0.71875 0l0 5.671876l1.578125 0l0 0.9375zm-2.609375 -3.843751l0.125 -1.09375l-0.03125 0l-0.46875 0.90625l-1.875 2.546876l-0.640625 0.65625l0.921875 -0.109375l1.96875 0l0 -2.906251z" fill-rule="nonzero"/><path fill="#000000" d="m527.269 17.520441q0.09375 -0.421875 0.171875 -0.765625q0.078125 -0.359375 0.078125 -0.703125q0 -0.31250095 -0.140625 -0.51562595q-0.140625 -0.21875 -0.453125 -0.21875q-0.359375 0 -0.734375 0.296875q-0.375 0.296875 -0.703125 0.71875095q-0.3125 0.40625 -0.578125 0.859375q-0.25 0.4375 -0.375 0.71875l-0.71875 3.40625l-1.109375 0l1.171875 -5.890626l-0.8125 -0.125l0.015625 -0.328125q0.1875 -0.09375 0.421875 -0.171875q0.234375 -0.09375 0.484375 -0.15625q0.25 -0.078125 0.484375 -0.109375q0.234375 -0.046875 0.421875 -0.046875l0.265625 0.171875l-0.5 2.343751l0.0625 0q0.265625 -0.53125 0.578125 -0.984375q0.328125 -0.45312595 0.6875 -0.79687595q0.375 -0.34375 0.765625 -0.53125q0.40625 -0.203125 0.828125 -0.203125q0.5625 0 0.8125 0.359375q0.265625 0.34375 0.265625 0.890625q0 0.28125095 -0.078125 0.73437595q-0.0625 0.4375 -0.15625 0.8125l-0.75 3.28125l0.984375 0l0 0.34375q-0.265625 0.21875 -0.65625 0.359375q-0.375 0.125 -0.734375 0.125q-0.375 0 -0.53125 -0.15625q-0.140625 -0.15625 -0.140625 -0.34375q0 -0.265625 0.0625 -0.5625q0.0625 -0.296875 0.140625 -0.609375l0.46875 -2.203125z" fill-rule="nonzero"/><path fill="#000000" d="m531.0636 16.989191l5.640625 0l0 0.984375l-5.640625 0l0 -0.984375zm10.343384 3.5625q0.453125 0 0.828125 -0.140625q0.390625 -0.140625 0.671875 -0.390625q0.28125 -0.265625 0.4375 -0.625q0.15625 -0.359375 0.15625 -0.78125q0 -0.9375 -0.546875 -1.390625q-0.546875 -0.453125 -1.53125 -0.453125l-0.984375 0l0 -0.390625l1.921875 -2.953126l0.609375 -0.59375l-0.859375 0.140625l-2.640625 0l0 -0.984375l4.75 0l0 0.390625l-2.109375 3.1875l-0.46875 0.375l0 0.03125l0.453125 -0.09375q0.53125 0.015625 0.984375 0.20312595q0.453125 0.171875 0.78125 0.515625q0.34375 0.328125 0.53125 0.8125q0.1875 0.46875 0.1875 1.0625q0 0.71875 -0.265625 1.28125q-0.25 0.5625 -0.6875 0.953125q-0.421875 0.375 -1.015625 0.578125q-0.578125 0.1875 -1.234375 0.1875q-0.59375 0 -1.078125 -0.09375q-0.484375 -0.09375 -0.84375 -0.234375l0.28125 -0.953125q0.3125 0.15625 0.71875 0.265625q0.421875 0.09375 0.953125 0.09375z" fill-rule="nonzero"/><path fill="#000000" d="m568.6154 17.520441q0.09375 -0.421875 0.171875 -0.765625q0.078125 -0.359375 0.078125 -0.703125q0 -0.31250095 -0.140625 -0.51562595q-0.140625 -0.21875 -0.453125 -0.21875q-0.359375 0 -0.734375 0.296875q-0.375 0.296875 -0.703125 0.71875095q-0.3125 0.40625 -0.578125 0.859375q-0.25 0.4375 -0.375 0.71875l-0.71875 3.40625l-1.109375 0l1.171875 -5.890626l-0.8125 -0.125l0.015625 -0.328125q0.1875 -0.09375 0.421875 -0.171875q0.234375 -0.09375 0.484375 -0.15625q0.25 -0.078125 0.484375 -0.109375q0.234375 -0.046875 0.421875 -0.046875l0.265625 0.171875l-0.5 2.343751l0.0625 0q0.265625 -0.53125 0.578125 -0.984375q0.328125 -0.45312595 0.6875 -0.79687595q0.375 -0.34375 0.765625 -0.53125q0.40625 -0.203125 0.828125 -0.203125q0.5625 0 0.8125 0.359375q0.265625 0.34375 0.265625 0.890625q0 0.28125095 -0.078125 0.73437595q-0.0625 0.4375 -0.15625 0.8125l-0.75 3.28125l0.984375 0l0 0.34375q-0.265625 0.21875 -0.65625 0.359375q-0.375 0.125 -0.734375 0.125q-0.375 0 -0.53125 -0.15625q-0.140625 -0.15625 -0.140625 -0.34375q0 -0.265625 0.0625 -0.5625q0.0625 -0.296875 0.140625 -0.609375l0.46875 -2.203125z" fill-rule="nonzero"/><path fill="#000000" d="m572.41003 16.989191l5.640625 0l0 0.984375l-5.640625 0l0 -0.984375zm13.155884 -2.875001q0 0.703125 -0.265625 1.4375q-0.25 0.73437595 -0.671875 1.484376q-0.421875 0.75 -0.9375 1.46875q-0.515625 0.703125 -1.03125 1.34375l-0.65625 0.578125l0 0.046875l0.84375 -0.140625l2.90625 0l0 0.984375l-5.296875 0l0 -0.390625q0.296875 -0.296875 0.703125 -0.75q0.421875 -0.453125 0.859375 -1.0q0.453125 -0.5625 0.875 -1.171875q0.4375 -0.625 0.78125 -1.265625q0.359375 -0.640625 0.578125 -1.265626q0.21875 -0.640625 0.21875 -1.1875q0 -0.65625 -0.375 -1.09375q-0.375 -0.4375 -1.140625 -0.4375q-0.5 0 -0.984375 0.21875q-0.484375 0.203125 -0.828125 0.46875l-0.4375 -0.765625q0.46875 -0.390625 1.109375 -0.609375q0.640625 -0.234375 1.375 -0.234375q0.5625 0 1.0 0.171875q0.453125 0.15625 0.75 0.46875q0.3125 0.296875 0.46875 0.71875q0.15625 0.421875 0.15625 0.921875z" fill-rule="nonzero"/><path fill="#000000" d="m609.9619 17.520441q0.09375 -0.421875 0.171875 -0.765625q0.078125 -0.359375 0.078125 -0.703125q0 -0.31250095 -0.140625 -0.51562595q-0.140625 -0.21875 -0.453125 -0.21875q-0.359375 0 -0.734375 0.296875q-0.375 0.296875 -0.703125 0.71875095q-0.3125 0.40625 -0.578125 0.859375q-0.25 0.4375 -0.375 0.71875l-0.71875 3.40625l-1.109375 0l1.171875 -5.890626l-0.8125 -0.125l0.015625 -0.328125q0.1875 -0.09375 0.421875 -0.171875q0.234375 -0.09375 0.484375 -0.15625q0.25 -0.078125 0.484375 -0.109375q0.234375 -0.046875 0.421875 -0.046875l0.265625 0.171875l-0.5 2.343751l0.0625 0q0.265625 -0.53125 0.578125 -0.984375q0.328125 -0.45312595 0.6875 -0.79687595q0.375 -0.34375 0.765625 -0.53125q0.40625 -0.203125 0.828125 -0.203125q0.5625 0 0.8125 0.359375q0.265625 0.34375 0.265625 0.890625q0 0.28125095 -0.078125 0.73437595q-0.0625 0.4375 -0.15625 0.8125l-0.75 3.28125l0.984375 0l0 0.34375q-0.265625 0.21875 -0.65625 0.359375q-0.375 0.125 -0.734375 0.125q-0.375 0 -0.53125 -0.15625q-0.140625 -0.15625 -0.140625 -0.34375q0 -0.265625 0.0625 -0.5625q0.0625 -0.296875 0.140625 -0.609375l0.46875 -2.203125z" fill-rule="nonzero"/><path fill="#000000" d="m613.75653 16.989191l5.640625 0l0 0.984375l-5.640625 0l0 -0.984375zm8.655884 3.34375l1.875 0l0 -6.453126l0.125 -0.78125l-0.53125 0.625l-1.46875 1.046875l-0.5 -0.671875l2.921875 -2.265625l0.484375 0l0 8.500001l1.828125 0l0 0.984375l-4.734375 0l0 -0.984375z" fill-rule="nonzero"/><path fill="#000000" d="m40.019516 47.27373l-4.8125 0l-1.3125 3.625l-1.515625 0l4.9375 -13.265625l0.703125 0l4.96875 13.265625l-1.625 0l-1.34375 -3.625zm-4.3125 -1.34375l3.84375 0l-1.453125 -3.96875l-0.46875 -1.96875l-0.015625 0l-0.46875 2.0l-1.4375 3.9375z" fill-rule="nonzero"/><path fill="#000000" d="m83.031555 40.820606q0 0.46875 -0.15625 0.953125q-0.140625 0.484375 -0.4375 0.90625q-0.296875 0.421875 -0.765625 0.75q-0.46875 0.3125 -1.09375 0.46875l0 0.078125q0.5625 0.09375 1.0625 0.328125q0.515625 0.21875 0.90625 0.609375q0.390625 0.390625 0.625 0.953125q0.25 0.546875 0.25 1.3125q0 1.015625 -0.421875 1.75q-0.40625 0.734375 -1.09375 1.203125q-0.671875 0.46875 -1.5625 0.703125q-0.875 0.21875 -1.78125 0.21875q-0.3125 0 -0.75 0q-0.421875 0 -0.890625 -0.03125q-0.46875 -0.03125 -0.9375 -0.078125q-0.46875 -0.046875 -0.828125 -0.140625l0 -12.859375q0.703125 -0.109375 1.609375 -0.171875q0.921875 -0.078125 2.0 -0.078125q0.71875 0 1.46875 0.125q0.765625 0.109375 1.375 0.453125q0.625 0.34375 1.015625 0.96875q0.40625 0.609375 0.40625 1.578125zm-4.328125 8.890625q0.609375 0 1.15625 -0.140625q0.5625 -0.140625 0.984375 -0.453125q0.4375 -0.3125 0.6875 -0.75q0.25 -0.453125 0.25 -1.0625q0 -0.765625 -0.3125 -1.234375q-0.296875 -0.46875 -0.796875 -0.734375q-0.484375 -0.265625 -1.109375 -0.34375q-0.609375 -0.09375 -1.234375 -0.09375l-1.609375 0l0 4.671875q0.125 0.046875 0.359375 0.0625q0.25 0.015625 0.53125 0.03125q0.28125 0.015625 0.578125 0.03125q0.296875 0.015625 0.515625 0.015625zm-1.015625 -6.125q0.3125 0 0.75 -0.015625q0.453125 -0.015625 0.75 -0.0625q0.453125 -0.140625 0.84375 -0.359375q0.390625 -0.21875 0.703125 -0.5q0.3125 -0.296875 0.484375 -0.671875q0.171875 -0.390625 0.171875 -0.828125q0 -0.625 -0.234375 -1.015625q-0.234375 -0.40625 -0.625 -0.640625q-0.390625 -0.25 -0.890625 -0.34375q-0.5 -0.109375 -1.03125 -0.109375q-0.609375 0 -1.125 0.03125q-0.515625 0.015625 -0.765625 0.078125l0 4.4375l0.96875 0z" fill-rule="nonzero"/><path fill="#000000" d="m124.98364 50.351856q-0.546875 0.4375 -1.40625 0.59375q-0.859375 0.171875 -1.828125 0.171875q-1.1875 0 -2.21875 -0.390625q-1.015625 -0.40625 -1.78125 -1.21875q-0.765625 -0.828125 -1.21875 -2.109375q-0.4375 -1.28125 -0.4375 -3.03125q0 -1.828125 0.484375 -3.09375q0.5 -1.28125 1.3125 -2.09375q0.8125 -0.8125 1.8125 -1.1875q1.015625 -0.375 2.0625 -0.375q1.109375 0 1.8125 0.125q0.71875 0.109375 1.21875 0.328125l-0.359375 1.359375q-0.90625 -0.4375 -2.5625 -0.4375q-0.765625 0 -1.515625 0.28125q-0.734375 0.28125 -1.328125 0.921875q-0.59375 0.625 -0.953125 1.65625q-0.34375 1.03125 -0.34375 2.515625q0 1.34375 0.328125 2.359375q0.34375 1.0 0.921875 1.671875q0.59375 0.671875 1.390625 1.015625q0.796875 0.328125 1.71875 0.328125q0.84375 0 1.46875 -0.171875q0.625 -0.171875 1.0625 -0.421875l0.359375 1.203125z" fill-rule="nonzero"/><path fill="#000000" d="m157.1965 37.83623q0.359375 -0.046875 0.796875 -0.078125q0.4375 -0.03125 0.90625 -0.03125q0.484375 -0.015625 0.9375 -0.015625q0.46875 -0.015625 0.859375 -0.015625q1.5625 0 2.703125 0.484375q1.15625 0.484375 1.890625 1.359375q0.75 0.859375 1.109375 2.078125q0.375 1.203125 0.375 2.65625q0 1.328125 -0.34375 2.546875q-0.34375 1.21875 -1.09375 2.171875q-0.75 0.9375 -1.953125 1.515625q-1.1875 0.5625 -2.875 0.5625q-0.296875 0 -0.78125 -0.015625q-0.46875 0 -0.984375 -0.03125q-0.5 -0.03125 -0.9375 -0.046875q-0.421875 -0.015625 -0.609375 -0.0625l0 -13.078125zm3.53125 1.234375q-0.234375 0 -0.53125 0q-0.28125 0 -0.5625 0.015625q-0.28125 0.015625 -0.515625 0.046875q-0.234375 0.015625 -0.359375 0.03125l0 10.453125q0.09375 0.015625 0.34375 0.03125q0.265625 0 0.546875 0.015625q0.28125 0 0.53125 0.015625q0.265625 0 0.359375 0q1.3125 0 2.1875 -0.4375q0.890625 -0.453125 1.421875 -1.203125q0.53125 -0.765625 0.75 -1.734375q0.234375 -0.984375 0.234375 -2.03125q0 -0.90625 -0.203125 -1.828125q-0.203125 -0.9375 -0.71875 -1.671875q-0.5 -0.75 -1.34375 -1.21875q-0.84375 -0.484375 -2.140625 -0.484375z" fill-rule="nonzero"/><path fill="#000000" d="m199.64366 37.83623l7.109375 0l0 1.390625l-5.546875 0l0 4.265625l5.09375 0l0 1.375l-5.09375 0l0 4.65625l5.640625 0l0 1.375l-7.203125 0l0 -13.0625z" fill-rule="nonzero"/><path fill="#000000" d="m538.6756 39.226856l-4.0625 0l0 11.671875l-1.546875 0l0 -11.671875l-4.078125 0l0 -1.390625l9.6875 0l0 1.390625z" fill-rule="nonzero"/><path fill="#000000" d="m577.71466 47.570606q0 -0.78125 -0.46875 -1.265625q-0.46875 -0.5 -1.171875 -0.875q-0.6875 -0.390625 -1.515625 -0.71875q-0.828125 -0.34375 -1.53125 -0.8125q-0.6875 -0.484375 -1.15625 -1.171875q-0.46875 -0.703125 -0.46875 -1.796875q0 -1.53125 1.0625 -2.421875q1.0625 -0.890625 3.03125 -0.890625q1.140625 0 2.0625 0.171875q0.9375 0.15625 1.453125 0.421875l-0.453125 1.359375q-0.4375 -0.203125 -1.265625 -0.390625q-0.828125 -0.1875 -1.875 -0.1875q-1.234375 0 -1.859375 0.5625q-0.609375 0.546875 -0.609375 1.28125q0 0.734375 0.46875 1.21875q0.46875 0.484375 1.171875 0.875q0.703125 0.375 1.515625 0.75q0.828125 0.375 1.515625 0.875q0.703125 0.484375 1.171875 1.171875q0.46875 0.6875 0.46875 1.71875q0 0.84375 -0.296875 1.515625q-0.296875 0.671875 -0.875 1.15625q-0.578125 0.484375 -1.40625 0.75q-0.8125 0.25 -1.859375 0.25q-1.40625 0 -2.328125 -0.21875q-0.90625 -0.203125 -1.40625 -0.46875l0.515625 -1.390625q0.4375 0.234375 1.265625 0.46875q0.84375 0.234375 1.890625 0.234375q0.625 0 1.15625 -0.125q0.546875 -0.125 0.9375 -0.390625q0.390625 -0.265625 0.625 -0.671875q0.234375 -0.421875 0.234375 -0.984375z" fill-rule="nonzero"/><path fill="#000000" d="m612.55786 37.976856q0.71875 -0.140625 1.640625 -0.203125q0.921875 -0.078125 1.6875 -0.078125q0.859375 0 1.625 0.1875q0.78125 0.1875 1.359375 0.609375q0.59375 0.421875 0.953125 1.125q0.359375 0.6875 0.359375 1.671875q0 1.53125 -0.84375 2.484375q-0.84375 0.953125 -2.125 1.265625l0.890625 0.6875l3.25 5.171875l-1.8125 0l-3.59375 -5.640625l-1.828125 -0.265625l0 5.90625l-1.5625 0l0 -12.921875zm3.359375 1.0625q-0.234375 0 -0.5 0q-0.265625 0 -0.515625 0.015625q-0.234375 0.015625 -0.453125 0.03125q-0.203125 0.015625 -0.328125 0.0625l0 4.8125l1.453125 0q1.28125 0 2.125 -0.625q0.84375 -0.640625 0.84375 -1.984375q0 -1.015625 -0.703125 -1.65625q-0.6875 -0.65625 -1.921875 -0.65625z" fill-rule="nonzero"/><path fill="#000000" fill-opacity="0.0" d="m218.45415 97.302315l52.7874 0l0 22.614174l-52.7874 0z" fill-rule="evenodd"/><path fill="#000000" d="m235.20862 112.69106q0 -0.5625 -0.34375 -0.875q-0.328125 -0.328125 -0.828125 -0.53125q-0.5 -0.21875 -1.09375 -0.40625q-0.578125 -0.203125 -1.078125 -0.515625q-0.484375 -0.3125 -0.828125 -0.796875q-0.328125 -0.484375 -0.328125 -1.296875q0 -1.34375 0.765625 -1.96875q0.765625 -0.625 2.125 -0.625q1.0 0 1.6875 0.171875q0.6875 0.171875 1.1875 0.421875l-0.359375 1.234375q-0.421875 -0.203125 -1.03125 -0.359375q-0.609375 -0.171875 -1.296875 -0.171875q-0.828125 0 -1.21875 0.28125q-0.375 0.28125 -0.375 0.96875q0 0.484375 0.328125 0.765625q0.34375 0.265625 0.84375 0.484375q0.5 0.203125 1.078125 0.421875q0.59375 0.203125 1.078125 0.546875q0.5 0.328125 0.828125 0.84375q0.34375 0.5 0.34375 1.34375q0 0.59375 -0.203125 1.125q-0.1875 0.515625 -0.59375 0.890625q-0.40625 0.375 -1.015625 0.578125q-0.609375 0.21875 -1.4375 0.21875q-1.0625 0 -1.8125 -0.203125q-0.734375 -0.203125 -1.234375 -0.484375l0.4375 -1.265625q0.4375 0.234375 1.125 0.453125q0.6875 0.203125 1.390625 0.203125q0.8125 0 1.328125 -0.3125q0.53125 -0.328125 0.53125 -1.140625zm4.0574036 -6.796875l1.5 0l0 9.328125l-1.5 0l0 -9.328125zm-0.3125 -2.828125q0 -0.4375 0.28125 -0.734375q0.296875 -0.3125 0.75 -0.3125q0.4375 0 0.75 0.3125q0.328125 0.296875 0.328125 0.734375q0 0.421875 -0.328125 0.703125q-0.3125 0.28125 -0.75 0.28125q-0.453125 0 -0.75 -0.28125q-0.28125 -0.28125 -0.28125 -0.703125zm4.343628 10.84375l4.3125 -5.921875l0.78125 -0.78125l-5.09375 0l0 -1.3125l6.640625 0l0 1.3125l-4.34375 5.984375l-0.765625 0.71875l5.109375 0l0 1.3125l-6.640625 0l0 -1.3125zm15.50943 0.5625q-0.5625 0.453125 -1.421875 0.71875q-0.84375 0.25 -1.796875 0.25q-1.0625 0 -1.84375 -0.34375q-0.78125 -0.34375 -1.28125 -0.984375q-0.5 -0.640625 -0.75 -1.53125q-0.234375 -0.90625 -0.234375 -2.03125q0 -2.375 1.0625 -3.625q1.0625 -1.25 3.03125 -1.25q0.640625 0 1.265625 0.140625q0.640625 0.140625 1.140625 0.53125q0.5 0.390625 0.8125 1.109375q0.328125 0.71875 0.328125 1.890625q0 0.609375 -0.109375 1.359375l-5.984375 0q0 0.828125 0.15625 1.46875q0.171875 0.625 0.515625 1.0625q0.359375 0.4375 0.921875 0.671875q0.578125 0.234375 1.40625 0.234375q0.625 0 1.265625 -0.21875q0.640625 -0.234375 0.953125 -0.53125l0.5625 1.078125zm-3.21875 -7.5q-1.09375 0 -1.765625 0.578125q-0.65625 0.578125 -0.78125 1.984375l4.625 0q0 -1.421875 -0.546875 -1.984375q-0.53125 -0.578125 -1.53125 -0.578125z" fill-rule="nonzero"/><path fill="#000000" fill-opacity="0.0" d="m244.84785 97.302315c0 -8.403259 0.01574707 -12.6057205 0.03149414 -16.80651c0.01574707 -4.2007904 0.03149414 -8.399895 0.03149414 -16.79979" fill-rule="evenodd"/><path stroke="#000000" stroke-width="2.0" stroke-linejoin="round" stroke-linecap="butt" d="m244.84785 97.30232c0 -8.403259 0.01574707 -12.605736 0.03149414 -16.806519l0.0152282715 -4.799797" fill-rule="evenodd"/><path fill="#000000" stroke="#000000" stroke-width="2.0" stroke-linecap="butt" d="m248.19804 75.700485l-3.2911682 -9.080666l-3.3157654 9.071709z" fill-rule="evenodd"/><path fill="#000000" fill-opacity="0.0" d="m231.4694 53.64219l26.83464 0l0 10.047241l-26.83464 0z" fill-rule="evenodd"/><path fill="#000000" fill-opacity="0.0" d="m251.52956 106.85048l26.83464 0l0 16.157478l-26.83464 0z" fill-rule="evenodd"/><path fill="#000000" d="m262.51212 118.18173l1.859375 0l0 -5.265625l0.203125 -0.90625l-0.640625 0.796875l-1.1875 0.8125l-0.734375 -1.0l3.03125 -2.453125l0.96875 0l0 8.015625l1.8125 0l0 1.46875l-5.3125 0l0 -1.46875z" fill-rule="nonzero"/><path fill="#000000" fill-opacity="0.0" d="m492.291 97.302315c0 -8.403259 0.01574707 -12.6057205 0.03149414 -16.80651c0.01574707 -4.2007904 0.03149414 -8.399895 0.03149414 -16.79979" fill-rule="evenodd"/><path stroke="#000000" stroke-width="2.0" stroke-linejoin="round" stroke-linecap="butt" d="m492.29095 97.30232c0 -8.403259 0.015777588 -12.605736 0.03152466 -16.806519l0.015197754 -4.799797" fill-rule="evenodd"/><path fill="#000000" stroke="#000000" stroke-width="2.0" stroke-linecap="butt" d="m495.64114 75.700485l-3.2911377 -9.080666l-3.3157654 9.071709z" fill-rule="evenodd"/><path fill="#000000" fill-opacity="0.0" d="m478.91254 53.64219l26.834625 0l0 10.047241l-26.834625 0z" fill-rule="evenodd"/><path fill="#000000" fill-opacity="0.0" d="m465.89728 97.302315l52.787415 0l0 22.614174l-52.787415 0z" fill-rule="evenodd"/><path fill="#000000" d="m482.65173 112.69106q0 -0.5625 -0.34375 -0.875q-0.328125 -0.328125 -0.828125 -0.53125q-0.5 -0.21875 -1.09375 -0.40625q-0.578125 -0.203125 -1.078125 -0.515625q-0.484375 -0.3125 -0.828125 -0.796875q-0.328125 -0.484375 -0.328125 -1.296875q0 -1.34375 0.765625 -1.96875q0.765625 -0.625 2.125 -0.625q1.0 0 1.6875 0.171875q0.6875 0.171875 1.1875 0.421875l-0.359375 1.234375q-0.421875 -0.203125 -1.03125 -0.359375q-0.609375 -0.171875 -1.296875 -0.171875q-0.828125 0 -1.21875 0.28125q-0.375 0.28125 -0.375 0.96875q0 0.484375 0.328125 0.765625q0.34375 0.265625 0.84375 0.484375q0.5 0.203125 1.078125 0.421875q0.59375 0.203125 1.078125 0.546875q0.5 0.328125 0.828125 0.84375q0.34375 0.5 0.34375 1.34375q0 0.59375 -0.203125 1.125q-0.1875 0.515625 -0.59375 0.890625q-0.40625 0.375 -1.015625 0.578125q-0.609375 0.21875 -1.4375 0.21875q-1.0625 0 -1.8125 -0.203125q-0.734375 -0.203125 -1.234375 -0.484375l0.4375 -1.265625q0.4375 0.234375 1.125 0.453125q0.6875 0.203125 1.390625 0.203125q0.8125 0 1.328125 -0.3125q0.53125 -0.328125 0.53125 -1.140625zm4.0574036 -6.796875l1.5 0l0 9.328125l-1.5 0l0 -9.328125zm-0.3125 -2.828125q0 -0.4375 0.28125 -0.734375q0.296875 -0.3125 0.75 -0.3125q0.4375 0 0.75 0.3125q0.328125 0.296875 0.328125 0.734375q0 0.421875 -0.328125 0.703125q-0.3125 0.28125 -0.75 0.28125q-0.453125 0 -0.75 -0.28125q-0.28125 -0.28125 -0.28125 -0.703125zm4.343628 10.84375l4.3125 -5.921875l0.78125 -0.78125l-5.09375 0l0 -1.3125l6.640625 0l0 1.3125l-4.34375 5.984375l-0.765625 0.71875l5.109375 0l0 1.3125l-6.640625 0l0 -1.3125zm15.50943 0.5625q-0.5625 0.453125 -1.421875 0.71875q-0.84375 0.25 -1.796875 0.25q-1.0625 0 -1.84375 -0.34375q-0.78125 -0.34375 -1.28125 -0.984375q-0.5 -0.640625 -0.75 -1.53125q-0.234375 -0.90625 -0.234375 -2.03125q0 -2.375 1.0625 -3.625q1.0625 -1.25 3.03125 -1.25q0.640625 0 1.265625 0.140625q0.640625 0.140625 1.140625 0.53125q0.5 0.390625 0.8125 1.109375q0.328125 0.71875 0.328125 1.890625q0 0.609375 -0.109375 1.359375l-5.984375 0q0 0.828125 0.15625 1.46875q0.171875 0.625 0.515625 1.0625q0.359375 0.4375 0.921875 0.671875q0.578125 0.234375 1.40625 0.234375q0.625 0 1.265625 -0.21875q0.640625 -0.234375 0.953125 -0.53125l0.5625 1.078125zm-3.21875 -7.5q-1.09375 0 -1.765625 0.578125q-0.65625 0.578125 -0.78125 1.984375l4.625 0q0 -1.421875 -0.546875 -1.984375q-0.53125 -0.578125 -1.53125 -0.578125z" fill-rule="nonzero"/><path fill="#000000" fill-opacity="0.0" d="m498.45428 106.85048l26.834656 0l0 16.157478l-26.834656 0z" fill-rule="evenodd"/><path fill="#000000" d="m514.4212 112.60361q0 0.671875 -0.25 1.375q-0.234375 0.6875 -0.625 1.359375q-0.375 0.65625 -0.84375 1.28125q-0.453125 0.625 -0.8905945 1.140625l-0.703125 0.546875l0 0.0625l0.9530945 -0.1875l2.5625 0l0 1.46875l-5.6093445 0l0 -0.890625q0.3125 -0.328125 0.71875 -0.78125q0.40625 -0.453125 0.8125 -0.953125q0.40625 -0.5 0.78125 -1.03125q0.390625 -0.53125 0.6874695 -1.0625q0.3125 -0.546875 0.484375 -1.046875q0.1875 -0.515625 0.1875 -0.96875q0 -0.546875 -0.3125 -0.890625q-0.3125 -0.359375 -0.9843445 -0.359375q-0.4375 0 -0.890625 0.1875q-0.4375 0.171875 -0.734375 0.453125l-0.703125 -1.21875q0.53125 -0.4375 1.1875 -0.6875q0.65625 -0.265625 1.546875 -0.265625q0.5780945 0 1.0468445 0.15625q0.484375 0.15625 0.828125 0.46875q0.359375 0.3125 0.546875 0.78125q0.203125 0.453125 0.203125 1.0625z" fill-rule="nonzero"/><path fill="#000000" fill-opacity="0.0" d="m223.58655 40.44645l85.29404 0l0 -4.1653557l12.375275 8.330711l-12.375275 8.330708l0 -4.1653557l-85.29404 0z" fill-rule="evenodd"/><path stroke="#000000" stroke-width="2.0" stroke-linejoin="round" stroke-linecap="butt" d="m223.58655 40.44645l85.29404 0l0 -4.1653557l12.375275 8.330711l-12.375275 8.330708l0 -4.1653557l-85.29404 0z" fill-rule="evenodd"/><path fill="#000000" fill-opacity="0.0" d="m513.4001 48.777157l-85.29404 0l0 4.1653557l-12.375275 -8.330708l12.375275 -8.330711l0 4.1653557l85.29404 0z" fill-rule="evenodd"/><path stroke="#000000" stroke-width="2.0" stroke-linejoin="round" stroke-linecap="butt" d="m513.4001 48.777157l-85.29404 0l0 4.1653557l-12.375275 -8.330708l12.375275 -8.330711l0 4.1653557l85.29404 0z" fill-rule="evenodd"/></g></svg>