<svg version="1.1" viewBox="0.0 0.0 1373.9055118110236 205.3989501312336" fill="none" stroke="none" stroke-linecap="square" stroke-miterlimit="10" xmlns:xlink="http://www.w3.org/1999/xlink" xmlns="http://www.w3.org/2000/svg"><clipPath id="p.0"><path d="m0 0l1373.9055 0l0 205.39896l-1373.9055 0l0 -205.39896z" clip-rule="nonzero"/></clipPath><g clip-path="url(#p.0)"><path fill="#000000" fill-opacity="0.0" d="m0 0l1373.9055 0l0 205.39896l-1373.9055 0z" fill-rule="evenodd"/><path fill="#000000" fill-opacity="0.0" d="m285.77032 31.074976c29.086609 0 58.17325 14.456694 58.17325 28.913385" fill-rule="evenodd"/><path stroke="#000000" stroke-width="2.0" stroke-linejoin="round" stroke-linecap="butt" d="m293.3436 31.394083l0.583374 0.05016327c0.90097046 0.08073616 1.7992554 0.17426682 2.6940002 0.28014946c3.5790405 0.4235382 7.1012573 1.0447235 10.509827 1.8353233c6.817169 1.5811996 13.179871 3.8400574 18.633606 6.5506897c2.7268677 1.3553162 5.2265015 2.823574 7.4420776 4.376541c1.1077881 0.7764816 2.1445923 1.5741386 3.103241 2.3894463c0.4793396 0.4076538 0.93914795 0.8197212 1.37854 1.2357521c0.21969604 0.20801926 0.43426514 0.41703033 0.64364624 0.6269798c0.10467529 0.104976654 0.20806885 0.21018219 0.31015015 0.3156166l0.10958862 0.1149292" fill-rule="evenodd"/><path fill="#000000" stroke="#000000" stroke-width="2.0" stroke-linecap="butt" d="m286.76944 31.117073c0.07647705 -1.8154049 1.6101685 -3.2250729 3.4255676 -3.1485786c1.8154297 0.07649422 3.2250977 1.6101818 3.14859 3.4255886c-0.07647705 1.8154049 -1.6101685 3.2250729 -3.4255981 3.1485767c-1.8153992 -0.07649231 -3.2250671 -1.6101799 -3.1485596 -3.4255867z" fill-rule="nonzero"/><path fill="#000000" stroke="#000000" stroke-width="2.0" stroke-linecap="butt" d="m335.77338 50.59895l6.9051514 6.753437l-0.9486389 -9.611988z" fill-rule="evenodd"/><path fill="#000000" fill-opacity="0.0" d="m189.26299 18.350433c0 -3.5138187 2.8485107 -6.3623314 6.362335 -6.3623314l104.66115 0c1.6874084 0 3.3056946 0.6703148 4.4988403 1.8634834c1.1931763 1.1931686 1.8634949 2.8114529 1.8634949 4.498848l0 25.448566c0 3.5138168 -2.8485107 6.3623314 -6.362335 6.3623314l-104.66115 0c-3.5138245 0 -6.362335 -2.8485146 -6.362335 -6.3623314z" fill-rule="evenodd"/><path stroke="#000000" stroke-width="2.0" stroke-linejoin="round" stroke-linecap="butt" d="m189.26299 18.350433c0 -3.5138187 2.8485107 -6.3623314 6.362335 -6.3623314l104.66115 0c1.6874084 0 3.3056946 0.6703148 4.4988403 1.8634834c1.1931763 1.1931686 1.8634949 2.8114529 1.8634949 4.498848l0 25.448566c0 3.5138168 -2.8485107 6.3623314 -6.362335 6.3623314l-104.66115 0c-3.5138245 0 -6.362335 -2.8485146 -6.362335 -6.3623314z" fill-rule="evenodd"/><path fill="#000000" d="m214.51422 35.44094q-0.1875 0.390625 -0.5625 0.78125q-0.359375 0.390625 -0.84375 0.703125q-0.484375 0.296875 -1.109375 0.46875q-0.625 0.1875 -1.328125 0.1875q-1.765625 0 -2.71875 -1.0q-0.9375 -1.015625 -0.9375 -2.8125q0 -1.515625 0.421875 -2.859377q0.421875 -1.34375 1.1875 -2.34375q0.765625 -1.0 1.859375 -1.578125q1.109375 -0.578125 2.453125 -0.578125q1.03125 0 1.765625 0.53125q0.734375 0.515625 0.734375 1.546875q0 1.5 -1.515625 2.375q-1.5 0.875 -4.84375 1.1406269q-0.078125 0.359375 -0.125 0.703125q-0.03125 0.34375 -0.03125 0.65625q0 1.28125 0.65625 2.09375q0.65625 0.8125 1.90625 0.8125q0.40625 0 0.796875 -0.125q0.40625 -0.140625 0.75 -0.328125q0.359375 -0.1875 0.640625 -0.40625q0.296875 -0.21875 0.5 -0.375l0.34375 0.40625zm-2.234375 -8.109377q-0.921875 0.015625 -1.71875 0.859375q-0.78125 0.84375 -1.328125 2.890625q2.0625 -0.0625 3.203125 -0.703125q1.15625 -0.65625 1.15625 -1.8125q0 -0.453125 -0.265625 -0.828125q-0.265625 -0.390625 -1.046875 -0.40625zm8.891846 6.781252q0.765625 -1.28125 1.359375 -2.484377q0.59375 -1.203125 1.03125 -2.421875q0 -0.234375 -0.0625 -0.609375q-0.046875 -0.375 -0.109375 -0.75q-0.046875 -0.390625 -0.109375 -0.71875q-0.0625 -0.328125 -0.109375 -0.46875q0.625 -0.25 1.265625 -0.25q0.65625 -0.015625 1.140625 0.25q-0.3125 1.328125 -0.875 2.703125q-0.546875 1.375 -1.265625 2.750002q-0.703125 1.359375 -1.546875 2.6875q-0.84375 1.3125 -1.765625 2.53125l-1.0 0.25l-1.578125 -9.671877l-1.375 -0.171875l0 -0.53125q0.140625 -0.09375 0.390625 -0.234375q0.25 -0.140625 0.5625 -0.265625q0.3125 -0.125 0.640625 -0.203125q0.328125 -0.09375 0.625 -0.09375q0.46875 0 0.671875 0.234375q0.203125 0.234375 0.265625 0.578125l0.984375 6.937502l0.109375 1.34375l0.046875 0l0.703125 -1.390625zm12.345917 1.328125q-0.1875 0.390625 -0.5625 0.78125q-0.359375 0.390625 -0.84375 0.703125q-0.484375 0.296875 -1.109375 0.46875q-0.625 0.1875 -1.328125 0.1875q-1.765625 0 -2.71875 -1.0q-0.9375 -1.015625 -0.9375 -2.8125q0 -1.515625 0.421875 -2.859377q0.421875 -1.34375 1.1875 -2.34375q0.765625 -1.0 1.859375 -1.578125q1.109375 -0.578125 2.453125 -0.578125q1.03125 0 1.765625 0.53125q0.734375 0.515625 0.734375 1.546875q0 1.5 -1.515625 2.375q-1.5 0.875 -4.84375 1.1406269q-0.078125 0.359375 -0.125 0.703125q-0.03125 0.34375 -0.03125 0.65625q0 1.28125 0.65625 2.09375q0.65625 0.8125 1.90625 0.8125q0.40625 0 0.796875 -0.125q0.40625 -0.140625 0.75 -0.328125q0.359375 -0.1875 0.640625 -0.40625q0.296875 -0.21875 0.5 -0.375l0.34375 0.40625zm-2.234375 -8.109377q-0.921875 0.015625 -1.71875 0.859375q-0.78125 0.84375 -1.328125 2.890625q2.0625 -0.0625 3.203125 -0.703125q1.15625 -0.65625 1.15625 -1.8125q0 -0.453125 -0.265625 -0.828125q-0.265625 -0.390625 -1.046875 -0.40625zm10.058014 0.640625q-0.546875 0.203125 -1.25 1.078125q-0.6875 0.859375 -1.21875 2.328125l-1.28125 5.953127l-1.828125 0l1.984375 -9.421877l-1.3125 -0.203125l0 -0.53125q0.734375 -0.34375 1.515625 -0.515625q0.796875 -0.1875 1.4375 -0.25l0.421875 0.25l-0.59375 2.84375l0.078125 0q0.625 -1.40625 1.515625 -2.25q0.90625 -0.84375 1.921875 -0.84375q0.28125 0 0.546875 0.0625q0.28125 0.046875 0.546875 0.1875q0 0.203125 -0.078125 0.515625q-0.0625 0.296875 -0.1875 0.625q-0.109375 0.3125 -0.25 0.609375q-0.125 0.28125 -0.28125 0.4375l-1.6875 -0.875zm3.5863647 -0.0625l-1.359375 -0.171875l0 -0.53125q0.109375 -0.09375 0.34375 -0.21875q0.25 -0.125 0.5625 -0.25q0.328125 -0.140625 0.671875 -0.234375q0.34375 -0.09375 0.640625 -0.09375q0.4375 0 0.640625 0.234375q0.203125 0.21875 0.3125 0.578125l1.765625 7.468752l0.078125 1.28125l0.03125 0l0.5 -1.265625q0.265625 -0.59375 0.546875 -1.3125q0.296875 -0.71875 0.578125 -1.4375019q0.28125 -0.71875 0.515625 -1.421875q0.234375 -0.703125 0.40625 -1.3125q0 -0.234375 -0.0625 -0.609375q-0.046875 -0.390625 -0.109375 -0.765625q-0.0625 -0.390625 -0.140625 -0.71875q-0.0625 -0.328125 -0.09375 -0.46875q0.296875 -0.125 0.640625 -0.1875q0.34375 -0.0625 0.65625 -0.0625q0.640625 0 1.125 0.25q-0.65625 2.65625 -1.796875 5.296875q-1.140625 2.640627 -2.53125 5.375002q-1.140625 2.234375 -2.296875 3.34375q-1.15625 1.109375 -2.609375 1.109375q-0.3125 0 -0.609375 -0.09375q-0.28125 -0.078125 -0.59375 -0.25q-0.03125 -0.234375 0.03125 -0.53125q0.0625 -0.296875 0.203125 -0.59375q0.140625 -0.296875 0.359375 -0.5625q0.234375 -0.25 0.515625 -0.390625l1.71875 0.890625q0.15625 -0.109375 0.390625 -0.3125q0.234375 -0.203125 0.484375 -0.5625q0.25 -0.34375 0.5 -0.84375q0.265625 -0.5 0.5 -1.203125l-2.515625 -9.421877z" fill-rule="nonzero"/><path fill="#000000" fill-opacity="0.0" d="m271.72308 17.011984l14.047241 0l0 28.125982l-14.047241 0z" fill-rule="evenodd"/><path fill="#000000" fill-opacity="0.0" d="m273.8076 11.988102l0 38.17323" fill-rule="evenodd"/><path stroke="#000000" stroke-width="2.0" stroke-linejoin="round" stroke-linecap="butt" d="m273.8076 11.988102l0 38.17323" fill-rule="evenodd"/><path fill="#000000" fill-opacity="0.0" d="m381.7572 79.074974c29.102356 0 58.204742 14.456696 58.204742 28.913383" fill-rule="evenodd"/><path stroke="#000000" stroke-width="2.0" stroke-linejoin="round" stroke-linecap="butt" d="m389.3305 79.39373l0.58776855 0.05051422c0.90145874 0.08074188 1.8002319 0.17427063 2.6954956 0.28015137c3.5809631 0.4235382 7.105072 1.0447235 10.515503 1.8353271c6.820862 1.5811996 13.187012 3.8400574 18.643707 6.5506897c2.7283325 1.3553162 5.229309 2.8235703 7.446106 4.3765335c1.1083679 0.7764816 2.145752 1.5741425 3.104889 2.38945c0.47961426 0.4076538 0.93966675 0.8197174 1.3792725 1.2357559c0.21981812 0.20801544 0.4345398 0.41703033 0.64404297 0.62698364c0.10473633 0.10496521 0.2081604 0.21017456 0.31027222 0.3156128l0.11053467 0.115852356" fill-rule="evenodd"/><path fill="#000000" stroke="#000000" stroke-width="2.0" stroke-linecap="butt" d="m382.75635 79.11703c0.0763855 -1.8154068 1.6100159 -3.2251434 3.425415 -3.148735c1.8154297 0.076408386 3.2251587 1.6100311 3.1487427 3.425438c-0.076416016 1.8154144 -1.6100159 3.225151 -3.4254456 3.1487427c-1.8153992 -0.076408386 -3.2251282 -1.6100311 -3.1487122 -3.4254456z" fill-rule="nonzero"/><path fill="#000000" stroke="#000000" stroke-width="2.0" stroke-linecap="butt" d="m431.7901 98.6004l6.906372 6.752205l-0.9503479 -9.611816z" fill-rule="evenodd"/><path fill="#000000" fill-opacity="0.0" d="m285.26297 66.35043c0 -3.5138168 2.8485107 -6.3623314 6.362335 -6.3623314l104.66116 0c1.6874084 0 3.3056946 0.6703148 4.4988403 1.8634834c1.1931763 1.1931686 1.8634949 2.8114548 1.8634949 4.498848l0 25.448563c0 3.5138245 -2.8485107 6.362335 -6.362335 6.362335l-104.66116 0c-3.5138245 0 -6.362335 -2.8485107 -6.362335 -6.362335z" fill-rule="evenodd"/><path stroke="#000000" stroke-width="2.0" stroke-linejoin="round" stroke-linecap="butt" d="m285.26297 66.35043c0 -3.5138168 2.8485107 -6.3623314 6.362335 -6.3623314l104.66116 0c1.6874084 0 3.3056946 0.6703148 4.4988403 1.8634834c1.1931763 1.1931686 1.8634949 2.8114548 1.8634949 4.498848l0 25.448563c0 3.5138245 -2.8485107 6.362335 -6.362335 6.362335l-104.66116 0c-3.5138245 0 -6.362335 -2.8485107 -6.362335 -6.362335z" fill-rule="evenodd"/><path fill="#000000" d="m319.74384 83.44094q-0.234375 0.390625 -0.59375 0.78125q-0.359375 0.390625 -0.859375 0.703125q-0.484375 0.296875 -1.09375 0.46875q-0.609375 0.1875 -1.328125 0.1875q-1.578125 0 -2.5 -1.0q-0.90625 -1.0 -0.90625 -2.71875q0 -1.546875 0.484375 -2.890625q0.484375 -1.359375 1.328125 -2.375q0.84375 -1.015625 1.984375 -1.59375q1.140625 -0.59375 2.453125 -0.59375q0.796875 0 1.3125 0.125q0.515625 0.125 0.765625 0.375q0.03125 0.234375 -0.03125 0.515625q-0.046875 0.28125 -0.171875 0.5625q-0.109375 0.28125 -0.296875 0.515625q-0.171875 0.234375 -0.375 0.3125l-1.4375 -1.484375q-0.734375 0.015625 -1.453125 0.453125q-0.703125 0.421875 -1.28125 1.21875q-0.5625 0.78125 -0.921875 1.90625q-0.34375 1.109375 -0.3125 2.515625q-0.03125 1.46875 0.578125 2.15625q0.609375 0.6875 1.65625 0.6875q0.453125 0 0.84375 -0.125q0.390625 -0.140625 0.734375 -0.328125q0.34375 -0.1875 0.609375 -0.40625q0.28125 -0.21875 0.5 -0.375l0.3125 0.40625zm4.997772 0.828125q0.578125 0 1.15625 -0.546875q0.578125 -0.546875 1.078125 -1.3125q0.515625 -0.765625 0.921875 -1.59375q0.40625 -0.84375 0.640625 -1.390625l0.6875 -3.65625q-0.296875 -0.203125 -0.578125 -0.28125q-0.28125 -0.09375 -0.765625 -0.09375q-0.984375 0 -1.796875 0.609375q-0.796875 0.609375 -1.359375 1.578125q-0.5625 0.953125 -0.875 2.125q-0.296875 1.171875 -0.296875 2.296875q0 1.09375 0.265625 1.6875q0.265625 0.578125 0.921875 0.578125zm3.375 -3.125q-0.28125 0.78125 -0.703125 1.578125q-0.40625 0.78125 -0.953125 1.421875q-0.546875 0.640625 -1.21875 1.046875q-0.65625 0.390625 -1.390625 0.390625q-2.21875 0 -2.21875 -3.21875q0 -1.484375 0.421875 -2.90625q0.421875 -1.421875 1.234375 -2.53125q0.8125 -1.109375 1.96875 -1.78125q1.171875 -0.671875 2.640625 -0.671875q0.53125 0 0.84375 0.09375q0.328125 0.09375 0.78125 0.296875q0.84375 -0.453125 1.78125 -0.453125l-1.90625 9.75l1.546875 0l0 0.53125q-0.421875 0.34375 -1.03125 0.5625q-0.59375 0.203125 -1.15625 0.203125q-0.625 0 -0.890625 -0.265625q-0.265625 -0.265625 -0.265625 -0.5625q0 -0.390625 0.140625 -1.265625q0.15625 -0.875 0.453125 -2.21875l-0.078125 0zm5.160614 -5.96875q0.421875 -0.234375 0.890625 -0.421875q0.484375 -0.1875 0.953125 -0.296875l0.34375 -1.625q0.296875 -0.234375 0.6875 -0.40625q0.40625 -0.1875 0.828125 -0.359375l0.453125 0.25l-0.515625 2.34375l2.640625 0q0.046875 0.265625 0 0.546875q-0.03125 0.265625 -0.203125 0.53125l-2.65625 0l-1.34375 6.1875q-0.078125 0.40625 -0.125 0.71875q-0.03125 0.296875 -0.03125 0.546875q0 0.5625 0.3125 0.828125q0.328125 0.25 0.703125 0.25q0.53125 0 1.140625 -0.203125q0.609375 -0.203125 1.125 -0.46875l0.234375 0.390625q-0.1875 0.28125 -0.578125 0.5625q-0.390625 0.265625 -0.875 0.5q-0.46875 0.234375 -1.0 0.375q-0.515625 0.15625 -0.984375 0.15625q-0.9375 0 -1.46875 -0.421875q-0.53125 -0.421875 -0.53125 -1.328125q0 -0.296875 0.046875 -0.65625q0.0625 -0.359375 0.140625 -0.75l1.40625 -6.6875l-1.625 0l0.03125 -0.5625z" fill-rule="nonzero"/><path fill="#000000" fill-opacity="0.0" d="m367.70996 65.011986l14.047241 0l0 28.125984l-14.047241 0z" fill-rule="evenodd"/><path fill="#000000" fill-opacity="0.0" d="m369.79446 59.988102l0 38.17323" fill-rule="evenodd"/><path stroke="#000000" stroke-width="2.0" stroke-linejoin="round" stroke-linecap="butt" d="m369.79446 59.988102l0 38.17323" fill-rule="evenodd"/><path fill="#000000" fill-opacity="0.0" d="m381.26297 114.35043c0 -3.5138168 2.8485107 -6.362335 6.362335 -6.362335l104.66116 0c1.6874084 0 3.3056946 0.6703186 4.4988403 1.8634872c1.1931763 1.1931686 1.8634949 2.8114548 1.8634949 4.498848l0 25.448563c0 3.5138245 -2.8485107 6.362335 -6.362335 6.362335l-104.66116 0c-3.5138245 0 -6.362335 -2.8485107 -6.362335 -6.362335z" fill-rule="evenodd"/><path stroke="#000000" stroke-width="2.0" stroke-linejoin="round" stroke-linecap="butt" d="m381.26297 114.35043c0 -3.5138168 2.8485107 -6.362335 6.362335 -6.362335l104.66116 0c1.6874084 0 3.3056946 0.6703186 4.4988403 1.8634872c1.1931763 1.1931686 1.8634949 2.8114548 1.8634949 4.498848l0 25.448563c0 3.5138245 -2.8485107 6.362335 -6.362335 6.362335l-104.66116 0c-3.5138245 0 -6.362335 -2.8485107 -6.362335 -6.362335z" fill-rule="evenodd"/><path fill="#000000" d="m402.84402 118.78469l-1.515625 -0.1875l0 -0.53125q0.296875 -0.140625 0.6875 -0.265625q0.390625 -0.125 0.828125 -0.234375q0.4375 -0.125 0.859375 -0.1875q0.4375 -0.078125 0.78125 -0.078125l0.421875 0.234375l-2.9375 14.609367l1.546875 0l0 0.546875q-0.421875 0.34375 -1.03125 0.5625q-0.609375 0.203125 -1.1875 0.203125q-0.609375 0 -0.90625 -0.265625q-0.28125 -0.28125 -0.28125 -0.65625q0 -0.421875 0.0625 -0.828125q0.0625 -0.40625 0.171875 -0.890625l2.5 -12.031242zm3.0641785 10.578117q0 -1.125 0.34375 -2.3437424q0.359375 -1.234375 1.078125 -2.25q0.734375 -1.03125 1.8125 -1.6875q1.09375 -0.671875 2.546875 -0.671875q1.65625 0 2.5 1.03125q0.84375 1.015625 0.84375 3.015625q0 1.421875 -0.40625 2.7187424q-0.40625 1.28125 -1.140625 2.265625q-0.71875 0.96875 -1.75 1.5625q-1.015625 0.578125 -2.25 0.578125q-1.640625 0 -2.609375 -1.046875q-0.96875 -1.0625 -0.96875 -3.171875zm5.359375 -6.0312424q-1.046875 0.015625 -1.71875 0.6875q-0.65625 0.65625 -1.046875 1.640625q-0.375 0.96875 -0.53125 2.109375q-0.140625 1.1249924 -0.140625 2.0624924q0 1.265625 0.546875 2.0625q0.5625 0.78125 1.5 0.78125q0.75 0 1.328125 -0.5625q0.59375 -0.578125 1.0 -1.5q0.421875 -0.921875 0.640625 -2.09375q0.234375 -1.1874924 0.234375 -2.3749924q0 -1.265625 -0.4375 -2.03125q-0.4375 -0.765625 -1.375 -0.78125zm9.934174 6.7812424q0.765625 -1.28125 1.359375 -2.4843674q0.59375 -1.203125 1.03125 -2.421875q0 -0.234375 -0.0625 -0.609375q-0.046875 -0.375 -0.109375 -0.75q-0.046875 -0.390625 -0.109375 -0.71875q-0.0625 -0.328125 -0.109375 -0.46875q0.625 -0.25 1.265625 -0.25q0.65625 -0.015625 1.140625 0.25q-0.3125 1.328125 -0.875 2.703125q-0.546875 1.375 -1.265625 2.7499924q-0.703125 1.359375 -1.546875 2.6875q-0.84375 1.3125 -1.765625 2.53125l-1.0 0.25l-1.578125 -9.671867l-1.375 -0.171875l0 -0.53125q0.140625 -0.09375 0.390625 -0.234375q0.25 -0.140625 0.5625 -0.265625q0.3125 -0.125 0.640625 -0.203125q0.328125 -0.09375 0.625 -0.09375q0.46875 0 0.671875 0.234375q0.203125 0.234375 0.265625 0.578125l0.984375 6.9374924l0.109375 1.34375l0.046875 0l0.703125 -1.390625zm12.345917 1.328125q-0.1875 0.390625 -0.5625 0.78125q-0.359375 0.390625 -0.84375 0.703125q-0.484375 0.296875 -1.109375 0.46875q-0.625 0.1875 -1.328125 0.1875q-1.765625 0 -2.71875 -1.0q-0.9375 -1.015625 -0.9375 -2.8125q0 -1.515625 0.421875 -2.8593674q0.421875 -1.34375 1.1875 -2.34375q0.765625 -1.0 1.859375 -1.578125q1.109375 -0.578125 2.453125 -0.578125q1.03125 0 1.765625 0.53125q0.734375 0.515625 0.734375 1.546875q0 1.5 -1.515625 2.375q-1.5 0.875 -4.84375 1.1406174q-0.078125 0.359375 -0.125 0.703125q-0.03125 0.34375 -0.03125 0.65625q0 1.28125 0.65625 2.09375q0.65625 0.8125 1.90625 0.8125q0.40625 0 0.796875 -0.125q0.40625 -0.140625 0.75 -0.328125q0.359375 -0.1875 0.640625 -0.40625q0.296875 -0.21875 0.5 -0.375l0.34375 0.40625zm-2.234375 -8.109367q-0.921875 0.015625 -1.71875 0.859375q-0.78125 0.84375 -1.328125 2.890625q2.0625 -0.0625 3.203125 -0.703125q1.15625 -0.65625 1.15625 -1.8125q0 -0.453125 -0.265625 -0.828125q-0.265625 -0.390625 -1.046875 -0.40625zm8.995514 7.4843674q-0.015625 -0.515625 -0.28125 -0.890625q-0.265625 -0.375 -0.6875 -0.703125q-0.421875 -0.34375 -0.890625 -0.6875q-0.46875 -0.34375 -0.890625 -0.7499924q-0.40625 -0.421875 -0.671875 -0.96875q-0.265625 -0.546875 -0.265625 -1.3125q0 -0.765625 0.296875 -1.34375q0.296875 -0.578125 0.8125 -0.953125q0.53125 -0.390625 1.265625 -0.59375q0.734375 -0.203125 1.609375 -0.203125q0.5625 0 1.25 0.09375q0.6875 0.09375 1.3125 0.46875q0 0.234375 -0.09375 0.546875q-0.078125 0.296875 -0.21875 0.59375q-0.140625 0.28125 -0.3125 0.53125q-0.171875 0.234375 -0.359375 0.328125l-1.578125 -1.640625q-0.4375 0.015625 -0.828125 0.109375q-0.390625 0.078125 -0.671875 0.28125q-0.28125 0.1875 -0.453125 0.5q-0.15625 0.296875 -0.15625 0.765625q0 0.5625 0.28125 0.953125q0.28125 0.390625 0.6875 0.75q0.421875 0.34375 0.890625 0.6875q0.484375 0.328125 0.890625 0.7499924q0.421875 0.40625 0.703125 0.953125q0.28125 0.53125 0.28125 1.28125q0 0.765625 -0.359375 1.375q-0.34375 0.59375 -0.953125 1.015625q-0.609375 0.40625 -1.40625 0.609375q-0.796875 0.21875 -1.703125 0.21875q-0.890625 0 -1.625 -0.1875q-0.734375 -0.171875 -1.15625 -0.453125q0.09375 -0.546875 0.234375 -1.0625q0.15625 -0.53125 0.640625 -0.984375l1.90625 1.78125q0.453125 0 0.890625 -0.109375q0.4375 -0.109375 0.78125 -0.34375q0.359375 -0.234375 0.578125 -0.578125q0.234375 -0.34375 0.25 -0.828125z" fill-rule="nonzero"/><path fill="#000000" fill-opacity="0.0" d="m463.70996 113.011986l14.047241 0l0 28.125984l-14.047241 0z" fill-rule="evenodd"/><path fill="#000000" fill-opacity="0.0" d="m465.79446 107.9881l0 38.173233" fill-rule="evenodd"/><path stroke="#000000" stroke-width="2.0" stroke-linejoin="round" stroke-linecap="butt" d="m465.79446 107.9881l0 38.173233" fill-rule="evenodd"/><path fill="#000000" fill-opacity="0.0" d="m477.7572 127.074974c29.102356 0 58.204712 14.456688 58.204712 28.913383" fill-rule="evenodd"/><path stroke="#000000" stroke-width="2.0" stroke-linejoin="round" stroke-linecap="butt" d="m485.3305 127.39373l0.58776855 0.05051422c0.90145874 0.08074188 1.8002319 0.17427826 2.6954956 0.28015137c3.5809631 0.4235382 7.105072 1.0447235 10.515503 1.8353271c6.820862 1.581192 13.187012 3.8400574 18.643677 6.5506897c2.7283936 1.3553162 5.22937 2.823578 7.446106 4.376541c1.1083984 0.776474 2.145752 1.5741272 3.1049194 2.3894348c0.47961426 0.4076538 0.93969727 0.8197174 1.3792725 1.2357635c0.2197876 0.20802307 0.4345703 0.4170227 0.64404297 0.62698364c0.10473633 0.10496521 0.20812988 0.21017456 0.31030273 0.3156128l0.11047363 0.115859985" fill-rule="evenodd"/><path fill="#000000" stroke="#000000" stroke-width="2.0" stroke-linecap="butt" d="m478.75635 127.11703c0.0763855 -1.8154068 1.6100159 -3.2251434 3.425415 -3.148735c1.8154297 0.076408386 3.2251587 1.6100311 3.1487427 3.425438c-0.076416016 1.8154068 -1.6100159 3.225151 -3.4254456 3.148735c-1.8153992 -0.07640076 -3.2251282 -1.6100311 -3.1487122 -3.425438z" fill-rule="nonzero"/><path fill="#000000" stroke="#000000" stroke-width="2.0" stroke-linecap="butt" d="m527.7901 146.6004l6.906372 6.7522125l-0.9503784 -9.611816z" fill-rule="evenodd"/><path fill="#000000" fill-opacity="0.0" d="m477.26297 162.35043c0 -3.5138245 2.8485107 -6.362335 6.362335 -6.362335l104.661194 0c1.6873779 0 3.305664 0.6703186 4.4988403 1.8634949c1.1931763 1.193161 1.8634644 2.8114471 1.8634644 4.4988403l0 25.448563c0 3.5138245 -2.8485107 6.362335 -6.3623047 6.362335l-104.661194 0c-3.5138245 0 -6.362335 -2.8485107 -6.362335 -6.362335z" fill-rule="evenodd"/><path stroke="#000000" stroke-width="2.0" stroke-linejoin="round" stroke-linecap="butt" d="m477.26297 162.35043c0 -3.5138245 2.8485107 -6.362335 6.362335 -6.362335l104.661194 0c1.6873779 0 3.305664 0.6703186 4.4988403 1.8634949c1.1931763 1.193161 1.8634644 2.8114471 1.8634644 4.4988403l0 25.448563c0 3.5138245 -2.8485107 6.362335 -6.3623047 6.362335l-104.661194 0c-3.5138245 0 -6.362335 -2.8485107 -6.362335 -6.362335z" fill-rule="evenodd"/><path fill="#000000" d="m500.72833 180.26906q0.578125 0 1.140625 -0.546875q0.578125 -0.546875 1.09375 -1.3125q0.515625 -0.765625 0.921875 -1.59375q0.40625 -0.84375 0.640625 -1.390625l0.671875 -3.65625q-0.3125 -0.203125 -0.578125 -0.28125q-0.265625 -0.078125 -0.765625 -0.09375q-1.015625 0.015625 -1.828125 0.625q-0.8125 0.609375 -1.375 1.5625q-0.546875 0.953125 -0.84375 2.125q-0.28125 1.171875 -0.28125 2.296875q0 1.09375 0.265625 1.6875q0.265625 0.578125 0.9375 0.578125zm3.359375 -3.125q-0.265625 0.78125 -0.703125 1.578125q-0.421875 0.78125 -0.96875 1.421875q-0.546875 0.640625 -1.203125 1.046875q-0.640625 0.390625 -1.390625 0.390625q-2.21875 0 -2.21875 -3.234375q0 -1.515625 0.421875 -2.9375q0.4375 -1.421875 1.25 -2.515625q0.8125 -1.09375 1.953125 -1.75q1.15625 -0.671875 2.625 -0.671875q0.5625 0 0.828125 0.078125q0.28125 0.078125 0.71875 0.265625l0.8125 -4.03125l-1.5 -0.1875l0 -0.53125q0.3125 -0.140625 0.703125 -0.25q0.390625 -0.125 0.796875 -0.21875q0.421875 -0.09375 0.84375 -0.171875q0.421875 -0.09375 0.796875 -0.125l0.4375 0.15625l-2.921875 14.703125l1.5625 0l0 0.53125q-0.421875 0.34375 -1.03125 0.5625q-0.59375 0.203125 -1.171875 0.203125q-0.609375 0 -0.875 -0.265625q-0.265625 -0.265625 -0.265625 -0.5625q0 -0.390625 0.140625 -1.265625q0.15625 -0.875 0.453125 -2.21875l-0.09375 0zm4.848114 0.21875q0 -1.125 0.34375 -2.34375q0.359375 -1.234375 1.078125 -2.25q0.734375 -1.03125 1.8124695 -1.6875q1.09375 -0.671875 2.546875 -0.671875q1.65625 0 2.5 1.03125q0.84375 1.015625 0.84375 3.015625q0 1.421875 -0.40625 2.71875q-0.40625 1.28125 -1.140625 2.265625q-0.71875 0.96875 -1.75 1.5625q-1.015625 0.578125 -2.25 0.578125q-1.6405945 0 -2.6093445 -1.046875q-0.96875 -1.0625 -0.96875 -3.171875zm5.3593445 -6.03125q-1.046875 0.015625 -1.71875 0.6875q-0.6562195 0.65625 -1.0468445 1.640625q-0.375 0.96875 -0.53125 2.109375q-0.140625 1.125 -0.140625 2.0625q0 1.265625 0.546875 2.0625q0.5625 0.78125 1.4999695 0.78125q0.75 0 1.328125 -0.5625q0.59375 -0.578125 1.0 -1.5q0.421875 -0.921875 0.640625 -2.09375q0.234375 -1.1875 0.234375 -2.375q0 -1.265625 -0.4375 -2.03125q-0.4375 -0.765625 -1.375 -0.78125zm10.590454 -0.921875q1.03125 0 1.671875 0.265625q0.65625 0.25 1.015625 0.546875q0.1875 -0.171875 0.5 -0.34375q0.328125 -0.171875 0.6875 -0.3125q0.375 -0.15625 0.75 -0.28125q0.390625 -0.125 0.734375 -0.234375q0.0625 0.109375 0.09375 0.328125q0.046875 0.203125 0.03125 0.46875q0 0.25 -0.078125 0.515625q-0.078125 0.265625 -0.21875 0.484375l-2.203125 -0.15625q0.0625 0.1875 0.125 0.4375q0.078125 0.25 0.078125 0.546875q0 0.84375 -0.359375 1.578125q-0.34375 0.71875 -0.96875 1.25q-0.625 0.515625 -1.453125 0.8125q-0.8125 0.296875 -1.71875 0.296875q-0.375 0 -0.59375 0q-0.21875 -0.015625 -0.5 -0.078125q-0.1875 0.21875 -0.53125 0.5q-0.328125 0.28125 -0.328125 0.625q0 0.359375 0.46875 0.5625q0.46875 0.1875 1.1875 0.34375q0.71875 0.15625 1.546875 0.34375q0.828125 0.1875 1.546875 0.5q0.71875 0.296875 1.1875 0.796875q0.46875 0.484375 0.46875 1.296875q0 1.0 -0.5625 1.796875q-0.5625 0.796875 -1.5 1.359375q-0.921875 0.578125 -2.109375 0.875q-1.1875 0.3125 -2.40625 0.3125q-0.96875 0 -1.671875 -0.203125q-0.703125 -0.203125 -1.15625 -0.5625q-0.453125 -0.34375 -0.65625 -0.796875q-0.21875 -0.4375 -0.21875 -0.921875q0 -0.609375 0.265625 -1.125q0.265625 -0.5 0.71875 -0.953125q0.4375 -0.46875 1.015625 -0.84375q0.578125 -0.390625 1.203125 -0.734375q-0.328125 -0.171875 -0.53125 -0.453125q-0.203125 -0.296875 -0.203125 -0.65625q0 -0.3125 0.21875 -0.65625q0.21875 -0.359375 0.5 -0.671875q0.28125 -0.328125 0.5625 -0.5625q0.296875 -0.234375 0.453125 -0.34375q-0.265625 -0.0625 -0.53125 -0.234375q-0.265625 -0.171875 -0.5 -0.4375q-0.234375 -0.28125 -0.390625 -0.640625q-0.140625 -0.375 -0.140625 -0.828125q0 -0.828125 0.34375 -1.53125q0.359375 -0.703125 0.96875 -1.203125q0.625 -0.5 1.4375 -0.78125q0.8125 -0.296875 1.75 -0.296875zm-2.453125 14.53125q0.671875 0 1.3125 -0.203125q0.65625 -0.1875 1.171875 -0.546875q0.53125 -0.34375 0.859375 -0.875q0.328125 -0.515625 0.328125 -1.171875q0 -0.640625 -0.53125 -0.984375q-0.515625 -0.359375 -1.265625 -0.5625q-0.734375 -0.21875 -1.546875 -0.359375q-0.796875 -0.140625 -1.375 -0.328125q-1.0 0.71875 -1.375 1.5q-0.375 0.796875 -0.34375 1.484375q-0.03125 0.953125 0.71875 1.5q0.765625 0.546875 2.046875 0.546875zm2.28125 -13.671875q-0.609375 0 -1.09375 0.234375q-0.484375 0.234375 -0.828125 0.625q-0.328125 0.390625 -0.5 0.9375q-0.171875 0.53125 -0.171875 1.125q0 0.8125 0.515625 1.203125q0.53125 0.375 1.125 0.375q0.640625 0 1.09375 -0.21875q0.46875 -0.234375 0.765625 -0.609375q0.3125 -0.390625 0.453125 -0.875q0.15625 -0.5 0.15625 -1.03125q0 -0.78125 -0.375 -1.265625q-0.375 -0.5 -1.140625 -0.5zm10.070129 7.546875q-0.015625 -0.515625 -0.28125 -0.890625q-0.265625 -0.375 -0.6875 -0.703125q-0.421875 -0.34375 -0.890625 -0.6875q-0.46875 -0.34375 -0.890625 -0.75q-0.40625 -0.421875 -0.671875 -0.96875q-0.265625 -0.546875 -0.265625 -1.3125q0 -0.765625 0.296875 -1.34375q0.296875 -0.578125 0.8125 -0.953125q0.53125 -0.390625 1.265625 -0.59375q0.734375 -0.203125 1.609375 -0.203125q0.5625 0 1.25 0.09375q0.6875 0.09375 1.3125 0.46875q0 0.234375 -0.09375 0.546875q-0.078125 0.296875 -0.21875 0.59375q-0.140625 0.28125 -0.3125 0.53125q-0.171875 0.234375 -0.359375 0.328125l-1.578125 -1.640625q-0.4375 0.015625 -0.828125 0.109375q-0.390625 0.078125 -0.671875 0.28125q-0.28125 0.1875 -0.453125 0.5q-0.15625 0.296875 -0.15625 0.765625q0 0.5625 0.28125 0.953125q0.28125 0.390625 0.6875 0.75q0.421875 0.34375 0.890625 0.6875q0.484375 0.328125 0.890625 0.75q0.421875 0.40625 0.703125 0.953125q0.28125 0.53125 0.28125 1.28125q0 0.765625 -0.359375 1.375q-0.34375 0.59375 -0.953125 1.015625q-0.609375 0.40625 -1.40625 0.609375q-0.796875 0.21875 -1.703125 0.21875q-0.890625 0 -1.625 -0.1875q-0.734375 -0.171875 -1.15625 -0.453125q0.09375 -0.546875 0.234375 -1.0625q0.15625 -0.53125 0.640625 -0.984375l1.90625 1.78125q0.453125 0 0.890625 -0.109375q0.4375 -0.109375 0.78125 -0.34375q0.359375 -0.234375 0.578125 -0.578125q0.234375 -0.34375 0.25 -0.828125z" fill-rule="nonzero"/><path fill="#000000" fill-opacity="0.0" d="m559.70996 161.01198l14.047241 0l0 28.125992l-14.047241 0z" fill-rule="evenodd"/><path fill="#000000" fill-opacity="0.0" d="m561.7945 155.9881l0 38.173233" fill-rule="evenodd"/><path stroke="#000000" stroke-width="2.0" stroke-linejoin="round" stroke-linecap="butt" d="m561.7945 155.9881l0 38.173233" fill-rule="evenodd"/><path fill="#000000" d="m571.795 175.84052c0 -3.357193 2.7215576 -6.0787354 6.0787354 -6.0787354c1.6121826 0 3.1583252 0.64042664 4.29834 1.7804108c1.1399536 1.1399841 1.7803955 2.686142 1.7803955 4.2983246c0 3.357193 -2.7215576 6.0787354 -6.0787354 6.0787354c-3.3571777 0 -6.0787354 -2.7215424 -6.0787354 -6.0787354z" fill-rule="evenodd"/><path fill="#000000" fill-opacity="0.0" d="m9.782666 45.95881c0 -6.502884 5.2716293 -11.774513 11.774514 -11.774513l74.12026 0c3.122795 0 6.117691 1.2405243 8.325836 3.448677c2.2081528 2.208149 3.448677 5.203041 3.448677 8.325836l0 47.09664c0 6.502884 -5.2716293 11.774513 -11.774513 11.774513l-74.12026 0c-6.502885 0 -11.774514 -5.2716293 -11.774514 -11.774513z" fill-rule="evenodd"/><path stroke="#000000" stroke-width="2.0" stroke-linejoin="round" stroke-linecap="butt" d="m9.782666 45.95881c0 -6.502884 5.2716293 -11.774513 11.774514 -11.774513l74.12026 0c3.122795 0 6.117691 1.2405243 8.325836 3.448677c2.2081528 2.208149 3.448677 5.203041 3.448677 8.325836l0 47.09664c0 6.502884 -5.2716293 11.774513 -11.774513 11.774513l-74.12026 0c-6.502885 0 -11.774514 -5.2716293 -11.774514 -11.774513z" fill-rule="evenodd"/><path fill="#000000" d="m22.34068 50.44106l1.46875 0l0 -2.0l2.765625 -0.78125l0 2.78125l2.609375 0l0 2.359375l-2.609375 0l0 4.09375q0 1.109375 0.21875 1.59375q0.234375 0.46875 0.859375 0.46875q0.421875 0 0.734375 -0.078125q0.3125 -0.09375 0.6875 -0.265625l0.5 2.140625q-0.578125 0.28125 -1.359375 0.46875q-0.765625 0.1875 -1.546875 0.1875q-1.46875 0 -2.171875 -0.75q-0.6875 -0.765625 -0.6875 -2.484375l0 -5.375l-1.46875 0l0 -2.359375zm7.9306183 5.34375q0 -2.71875 1.3125 -4.171875q1.328125 -1.46875 3.71875 -1.46875q1.28125 0 2.21875 0.40625q0.9375 0.40625 1.546875 1.140625q0.625 0.734375 0.9375 1.78125q0.3125 1.046875 0.3125 2.3125q0 2.703125 -1.3125 4.171875q-1.3125 1.453125 -3.703125 1.453125q-1.28125 0 -2.21875 -0.40625q-0.9375 -0.40625 -1.5625 -1.140625q-0.625 -0.734375 -0.9375 -1.78125q-0.3125 -1.046875 -0.3125 -2.296875zm2.859375 0q0 0.703125 0.125 1.296875q0.125 0.59375 0.375 1.046875q0.265625 0.453125 0.671875 0.703125q0.421875 0.234375 1.0 0.234375q1.09375 0 1.625 -0.78125q0.53125 -0.796875 0.53125 -2.5q0 -1.46875 -0.5 -2.375q-0.484375 -0.90625 -1.65625 -0.90625q-1.015625 0 -1.59375 0.765625q-0.578125 0.765625 -0.578125 2.515625zm9.109497 -5.34375l2.015625 0l0.328125 1.28125l0.078125 0q0.5625 -0.796875 1.3125 -1.1875q0.765625 -0.390625 1.84375 -0.390625q2.015625 0 3.015625 1.28125q1.0 1.265625 1.0 4.078125q0 1.359375 -0.328125 2.46875q-0.3125 1.09375 -0.9375 1.859375q-0.625 0.765625 -1.53125 1.171875q-0.90625 0.40625 -2.09375 0.40625q-0.65625 0 -1.078125 -0.09375q-0.421875 -0.09375 -0.859375 -0.3125l0 4.374996l-2.765625 0l0 -14.937496zm4.75 2.0625q-0.8125 0 -1.265625 0.40625q-0.453125 0.390625 -0.71875 1.203125l0 4.4375q0.296875 0.234375 0.640625 0.375q0.359375 0.140625 0.9375 0.140625q1.203125 0 1.796875 -0.84375q0.59375 -0.84375 0.59375 -2.78125q0 -1.40625 -0.46875 -2.171875q-0.46875 -0.765625 -1.515625 -0.765625z" fill-rule="nonzero"/><path fill="#000000" d="m27.856304 87.17543q0 -0.4375 -0.359375 -0.6875q-0.359375 -0.25 -0.890625 -0.46875q-0.53125 -0.21875 -1.171875 -0.4375q-0.640625 -0.21875 -1.171875 -0.609375q-0.53125 -0.40625 -0.90625 -1.015625q-0.359375 -0.609375 -0.359375 -1.5625q0 -1.578125 0.9375 -2.40625q0.9375 -0.84375 2.71875 -0.84375q1.203125 0 2.1875 0.265625q0.984375 0.25 1.53125 0.578125l-0.609375 2.0q-0.5 -0.1875 -1.25 -0.40625q-0.734375 -0.21875 -1.5 -0.21875q-1.234375 0 -1.234375 0.96875q0 0.375 0.359375 0.609375q0.359375 0.234375 0.890625 0.4375q0.53125 0.203125 1.171875 0.4375q0.640625 0.234375 1.171875 0.609375q0.53125 0.375 0.890625 0.984375q0.375 0.59375 0.375 1.53125q0 1.609375 -1.046875 2.546875q-1.03125 0.921875 -3.09375 0.921875q-1.125 0 -2.125 -0.296875q-0.984375 -0.28125 -1.609375 -0.65625l0.765625 -2.078125q0.5 0.28125 1.296875 0.546875q0.8125 0.265625 1.671875 0.265625q0.625 0 0.984375 -0.234375q0.375 -0.234375 0.375 -0.78125zm4.8286285 -7.734375l2.765625 0l0 10.671875l-2.765625 0l0 -10.671875zm-0.40625 -3.0q0 -0.625 0.453125 -1.0625q0.46875 -0.4375 1.265625 -0.4375q0.8125 0 1.3125 0.4375q0.5 0.4375 0.5 1.0625q0 0.625 -0.5 1.046875q-0.5 0.40625 -1.3125 0.40625q-0.796875 0 -1.265625 -0.40625q-0.453125 -0.421875 -0.453125 -1.046875zm5.3466644 11.328125l4.203125 -5.0625l1.09375 -0.90625l-5.296875 0l0 -2.359375l8.359375 0l0 2.359375l-4.15625 5.140625l-1.0625 0.828125l5.21875 0l0 2.34375l-8.359375 0l0 -2.34375zm18.691406 1.421875q-0.640625 0.515625 -1.75 0.875q-1.09375 0.34375 -2.328125 0.34375q-2.578125 0 -3.78125 -1.5q-1.1875 -1.5 -1.1875 -4.125q0 -2.8125 1.34375 -4.21875q1.34375 -1.421875 3.78125 -1.421875q0.8125 0 1.578125 0.21875q0.765625 0.21875 1.359375 0.703125q0.59375 0.484375 0.953125 1.328125q0.375 0.828125 0.375 2.0625q0 0.453125 -0.0625 0.96875q-0.046875 0.5 -0.15625 1.0625l-6.40625 0q0.078125 1.34375 0.703125 2.03125q0.625 0.671875 2.03125 0.671875q0.875 0 1.5625 -0.265625q0.703125 -0.265625 1.0625 -0.546875l0.921875 1.8125zm-3.96875 -7.828125q-1.09375 0 -1.625 0.65625q-0.515625 0.65625 -0.609375 1.734375l3.953125 0q0.09375 -1.140625 -0.34375 -1.765625q-0.4375 -0.625 -1.375 -0.625z" fill-rule="nonzero"/><path fill="#000000" d="m85.657234 85.534805l-2.515625 0l0 4.578125l-1.65625 0l0 -4.578125l-6.578125 0l0 -0.71875l7.078125 -9.875l1.15625 0l0 9.09375l2.515625 0l0 1.5zm-4.171875 -6.15625l0.203125 -1.75l-0.0625 0l-0.734375 1.453125l-3.015625 4.078125l-1.015625 1.046875l1.484375 -0.171875l3.140625 0l0 -4.65625z" fill-rule="nonzero"/><path fill="#000000" fill-opacity="0.0" d="m64.94789 40.72183l14.047241 0l0 28.125988l-14.047241 0z" fill-rule="evenodd"/><path fill="#000000" fill-opacity="0.0" d="m78.99513 54.78482c27.566933 0 41.350395 -5.9291344 55.133865 -11.858269c13.783463 -5.9291306 27.566925 -11.858267 55.13385 -11.858267" fill-rule="evenodd"/><path stroke="#000000" stroke-width="2.0" stroke-linejoin="round" stroke-linecap="butt" d="m86.57345 54.62524l0.990448 -0.045448303c0.38619232 -0.01915741 0.7693939 -0.039600372 1.1496582 -0.061317444c3.0420532 -0.17370605 5.895653 -0.4284706 8.587738 -0.7527199c5.3841705 -0.64850235 10.122231 -1.5749283 14.429565 -2.6866417c8.614662 -2.223423 15.506401 -5.187992 22.398125 -8.152561c6.891739 -2.9645653 13.783478 -5.9291344 22.398132 -8.152557c4.3073425 -1.1117134 9.045395 -2.0381393 14.429565 -2.6866379c1.3460388 -0.16212654 2.732483 -0.30688095 4.1626434 -0.43281555c0.35754395 -0.03148651 0.7178192 -0.061792374 1.0808868 -0.09090233l1.0697784 -0.081588745" fill-rule="evenodd"/><path fill="#000000" stroke="#000000" stroke-width="2.0" stroke-linecap="butt" d="m79.99491 54.76377c-0.038253784 -1.816616 1.4033966 -3.320282 3.2200089 -3.3585358c1.8166122 -0.038253784 3.320282 1.4033928 3.3585358 3.2200089c0.038253784 1.8166122 -1.4033966 3.3202782 -3.2200089 3.358532c-1.8166122 0.038253784 -3.320282 -1.4033928 -3.3585358 -3.220005z" fill-rule="nonzero"/><path fill="#000000" stroke="#000000" stroke-width="2.0" stroke-linecap="butt" d="m177.3839 34.78355l8.956894 -3.6144505l-9.184708 -2.9885502z" fill-rule="evenodd"/><path fill="#000000" fill-opacity="0.0" d="m1052.5735 31.074976c29.086548 0 58.173218 14.456694 58.173218 28.913385" fill-rule="evenodd"/><path stroke="#000000" stroke-width="2.0" stroke-linejoin="round" stroke-linecap="butt" d="m1060.1467 31.394083l0.583374 0.05016327c0.901001 0.08073616 1.7993164 0.17426682 2.6939697 0.28014946c3.5791016 0.4235382 7.1013184 1.0447235 10.509888 1.8353233c6.8171387 1.5811996 13.179932 3.8400574 18.633667 6.5506897c2.7268066 1.3553162 5.2264404 2.823574 7.4420166 4.376541c1.1077881 0.7764816 2.1445312 1.5741386 3.1032715 2.3894463c0.47937012 0.4076538 0.9390869 0.8197212 1.378418 1.2357521c0.21984863 0.20801926 0.43432617 0.41703033 0.6437988 0.6269798c0.10461426 0.104976654 0.20800781 0.21018219 0.3100586 0.3156166l0.10961914 0.1149292" fill-rule="evenodd"/><path fill="#000000" stroke="#000000" stroke-width="2.0" stroke-linecap="butt" d="m1053.5726 31.117073c0.076416016 -1.8154049 1.6101074 -3.2250729 3.425537 -3.1485786c1.8154297 0.07649422 3.2250977 1.6101818 3.1485596 3.4255886c-0.076416016 1.8154049 -1.6101074 3.2250729 -3.425537 3.1485767c-1.8154297 -0.07649231 -3.2250977 -1.6101799 -3.1485596 -3.4255867z" fill-rule="nonzero"/><path fill="#000000" stroke="#000000" stroke-width="2.0" stroke-linecap="butt" d="m1102.5765 50.59895l6.9051514 6.753437l-0.9486084 -9.611988z" fill-rule="evenodd"/><path fill="#000000" fill-opacity="0.0" d="m956.0661 18.350433c0 -3.5138187 2.8485718 -6.3623314 6.3623657 -6.3623314l104.66113 0c1.6873779 0 3.305664 0.6703148 4.4989014 1.8634834c1.1931152 1.1931686 1.8634033 2.8114529 1.8634033 4.498848l0 25.448566c0 3.5138168 -2.8485107 6.3623314 -6.3623047 6.3623314l-104.66113 0c-3.513794 0 -6.3623657 -2.8485146 -6.3623657 -6.3623314z" fill-rule="evenodd"/><path stroke="#000000" stroke-width="2.0" stroke-linejoin="round" stroke-linecap="butt" d="m956.0661 18.350433c0 -3.5138187 2.8485718 -6.3623314 6.3623657 -6.3623314l104.66113 0c1.6873779 0 3.305664 0.6703148 4.4989014 1.8634834c1.1931152 1.1931686 1.8634033 2.8114529 1.8634033 4.498848l0 25.448566c0 3.5138168 -2.8485107 6.3623314 -6.3623047 6.3623314l-104.66113 0c-3.513794 0 -6.3623657 -2.8485146 -6.3623657 -6.3623314z" fill-rule="evenodd"/><path fill="#000000" d="m981.3174 35.44094q-0.1875 0.390625 -0.5625 0.78125q-0.359375 0.390625 -0.84375 0.703125q-0.484375 0.296875 -1.109375 0.46875q-0.625 0.1875 -1.328125 0.1875q-1.765625 0 -2.71875 -1.0q-0.9375 -1.015625 -0.9375 -2.8125q0 -1.515625 0.421875 -2.859377q0.421875 -1.34375 1.1875 -2.34375q0.765625 -1.0 1.859375 -1.578125q1.109375 -0.578125 2.453125 -0.578125q1.03125 0 1.765625 0.53125q0.734375 0.515625 0.734375 1.546875q0 1.5 -1.515625 2.375q-1.5 0.875 -4.84375 1.1406269q-0.078125 0.359375 -0.125 0.703125q-0.03125 0.34375 -0.03125 0.65625q0 1.28125 0.65625 2.09375q0.65625 0.8125 1.90625 0.8125q0.40625 0 0.796875 -0.125q0.40625 -0.140625 0.75 -0.328125q0.359375 -0.1875 0.640625 -0.40625q0.296875 -0.21875 0.5 -0.375l0.34375 0.40625zm-2.234375 -8.109377q-0.921875 0.015625 -1.71875 0.859375q-0.78125 0.84375 -1.328125 2.890625q2.0625 -0.0625 3.203125 -0.703125q1.15625 -0.65625 1.15625 -1.8125q0 -0.453125 -0.265625 -0.828125q-0.265625 -0.390625 -1.046875 -0.40625zm8.891846 6.781252q0.765625 -1.28125 1.359375 -2.484377q0.59375 -1.203125 1.03125 -2.421875q0 -0.234375 -0.0625 -0.609375q-0.046875 -0.375 -0.109375 -0.75q-0.046875 -0.390625 -0.109375 -0.71875q-0.0625 -0.328125 -0.109375 -0.46875q0.625 -0.25 1.265625 -0.25q0.65625 -0.015625 1.140625 0.25q-0.3125 1.328125 -0.875 2.703125q-0.546875 1.375 -1.265625 2.750002q-0.703125 1.359375 -1.546875 2.6875q-0.84375 1.3125 -1.765625 2.53125l-1.0 0.25l-1.578125 -9.671877l-1.375 -0.171875l0 -0.53125q0.140625 -0.09375 0.390625 -0.234375q0.25 -0.140625 0.5625 -0.265625q0.3125 -0.125 0.640625 -0.203125q0.328125 -0.09375 0.625 -0.09375q0.46875 0 0.671875 0.234375q0.203125 0.234375 0.265625 0.578125l0.984375 6.937502l0.109375 1.34375l0.046875 0l0.703125 -1.390625zm12.345886 1.328125q-0.1875 0.390625 -0.5625 0.78125q-0.359375 0.390625 -0.84375 0.703125q-0.484375 0.296875 -1.109375 0.46875q-0.625 0.1875 -1.328125 0.1875q-1.765625 0 -2.71875 -1.0q-0.9375 -1.015625 -0.9375 -2.8125q0 -1.515625 0.421875 -2.859377q0.421875 -1.34375 1.1875 -2.34375q0.765625 -1.0 1.859375 -1.578125q1.109375 -0.578125 2.453125 -0.578125q1.03125 0 1.765625 0.53125q0.734375 0.515625 0.734375 1.546875q0 1.5 -1.515625 2.375q-1.5 0.875 -4.84375 1.1406269q-0.078125 0.359375 -0.125 0.703125q-0.03125 0.34375 -0.03125 0.65625q0 1.28125 0.65625 2.09375q0.65625 0.8125 1.90625 0.8125q0.40625 0 0.796875 -0.125q0.40625 -0.140625 0.75 -0.328125q0.359375 -0.1875 0.640625 -0.40625q0.296875 -0.21875 0.5 -0.375l0.34375 0.40625zm-2.234375 -8.109377q-0.921875 0.015625 -1.71875 0.859375q-0.78125 0.84375 -1.328125 2.890625q2.0625 -0.0625 3.203125 -0.703125q1.15625 -0.65625 1.15625 -1.8125q0 -0.453125 -0.265625 -0.828125q-0.265625 -0.390625 -1.046875 -0.40625zm10.058044 0.640625q-0.546875 0.203125 -1.25 1.078125q-0.6875 0.859375 -1.21875 2.328125l-1.28125 5.953127l-1.828125 0l1.984375 -9.421877l-1.3125 -0.203125l0 -0.53125q0.734375 -0.34375 1.515625 -0.515625q0.796875 -0.1875 1.4375 -0.25l0.421875 0.25l-0.59375 2.84375l0.078125 0q0.625 -1.40625 1.515625 -2.25q0.90625 -0.84375 1.921875 -0.84375q0.28125 0 0.546875 0.0625q0.28125 0.046875 0.546875 0.1875q0 0.203125 -0.078125 0.515625q-0.0625 0.296875 -0.1875 0.625q-0.109375 0.3125 -0.25 0.609375q-0.125 0.28125 -0.28125 0.4375l-1.6875 -0.875zm3.5863647 -0.0625l-1.359375 -0.171875l0 -0.53125q0.109375 -0.09375 0.34375 -0.21875q0.25 -0.125 0.5625 -0.25q0.328125 -0.140625 0.671875 -0.234375q0.34375 -0.09375 0.640625 -0.09375q0.4375 0 0.640625 0.234375q0.203125 0.21875 0.3125 0.578125l1.765625 7.468752l0.078125 1.28125l0.03125 0l0.5 -1.265625q0.265625 -0.59375 0.546875 -1.3125q0.296875 -0.71875 0.578125 -1.4375019q0.28125 -0.71875 0.515625 -1.421875q0.234375 -0.703125 0.40625 -1.3125q0 -0.234375 -0.0625 -0.609375q-0.046875 -0.390625 -0.109375 -0.765625q-0.0625 -0.390625 -0.140625 -0.71875q-0.0625 -0.328125 -0.09375 -0.46875q0.296875 -0.125 0.640625 -0.1875q0.34375 -0.0625 0.65625 -0.0625q0.640625 0 1.125 0.25q-0.65625 2.65625 -1.796875 5.296875q-1.140625 2.640627 -2.53125 5.375002q-1.140625 2.234375 -2.296875 3.34375q-1.15625 1.109375 -2.609375 1.109375q-0.3125 0 -0.609375 -0.09375q-0.28125 -0.078125 -0.59375 -0.25q-0.03125 -0.234375 0.03125 -0.53125q0.0625 -0.296875 0.203125 -0.59375q0.140625 -0.296875 0.359375 -0.5625q0.234375 -0.25 0.515625 -0.390625l1.71875 0.890625q0.15625 -0.109375 0.390625 -0.3125q0.234375 -0.203125 0.484375 -0.5625q0.25 -0.34375 0.5 -0.84375q0.265625 -0.5 0.5 -1.203125l-2.515625 -9.421877z" fill-rule="nonzero"/><path fill="#000000" fill-opacity="0.0" d="m1038.5262 17.011984l14.047241 0l0 28.125982l-14.047241 0z" fill-rule="evenodd"/><path fill="#000000" fill-opacity="0.0" d="m1040.6107 11.988102l0 38.17323" fill-rule="evenodd"/><path stroke="#000000" stroke-width="2.0" stroke-linejoin="round" stroke-linecap="butt" d="m1040.6107 11.988102l0 38.17323" fill-rule="evenodd"/><path fill="#000000" fill-opacity="0.0" d="m1148.5603 79.074974c29.102417 0 58.204834 14.456696 58.204834 28.913383" fill-rule="evenodd"/><path stroke="#000000" stroke-width="2.0" stroke-linejoin="round" stroke-linecap="butt" d="m1156.1337 79.39373l0.58776855 0.05051422c0.90148926 0.08074188 1.8001709 0.17427063 2.6954346 0.28015137c3.5810547 0.4235382 7.1051025 1.0447235 10.515503 1.8353271c6.820923 1.5811996 13.187012 3.8400574 18.643799 6.5506897c2.7282715 1.3553162 5.229248 2.8235703 7.446045 4.3765335c1.1083984 0.7764816 2.145752 1.5741425 3.1048584 2.38945c0.47961426 0.4076538 0.93969727 0.8197174 1.3792725 1.2357559c0.21984863 0.20801544 0.4345703 0.41703033 0.64404297 0.62698364c0.10473633 0.10496521 0.20825195 0.21017456 0.31030273 0.3156128l0.1105957 0.115852356" fill-rule="evenodd"/><path fill="#000000" stroke="#000000" stroke-width="2.0" stroke-linecap="butt" d="m1149.5594 79.11703c0.076416016 -1.8154068 1.6101074 -3.2251434 3.425537 -3.148735c1.8153076 0.076408386 3.2250977 1.6100311 3.1486816 3.425438c-0.076416016 1.8154144 -1.6099854 3.225151 -3.425415 3.1487427c-1.8154297 -0.076408386 -3.2252197 -1.6100311 -3.1488037 -3.4254456z" fill-rule="nonzero"/><path fill="#000000" stroke="#000000" stroke-width="2.0" stroke-linecap="butt" d="m1198.5933 98.6004l6.906372 6.752205l-0.9503174 -9.611816z" fill-rule="evenodd"/><path fill="#000000" fill-opacity="0.0" d="m1052.0662 66.35043c0 -3.5138168 2.8485107 -6.3623314 6.3623047 -6.3623314l104.66113 0c1.6873779 0 3.305664 0.6703148 4.4989014 1.8634834c1.1931152 1.1931686 1.8634033 2.8114548 1.8634033 4.498848l0 25.448563c0 3.5138245 -2.8485107 6.362335 -6.3623047 6.362335l-104.66113 0c-3.513794 0 -6.3623047 -2.8485107 -6.3623047 -6.362335z" fill-rule="evenodd"/><path stroke="#000000" stroke-width="2.0" stroke-linejoin="round" stroke-linecap="butt" d="m1052.0662 66.35043c0 -3.5138168 2.8485107 -6.3623314 6.3623047 -6.3623314l104.66113 0c1.6873779 0 3.305664 0.6703148 4.4989014 1.8634834c1.1931152 1.1931686 1.8634033 2.8114548 1.8634033 4.498848l0 25.448563c0 3.5138245 -2.8485107 6.362335 -6.3623047 6.362335l-104.66113 0c-3.513794 0 -6.3623047 -2.8485107 -6.3623047 -6.362335z" fill-rule="evenodd"/><path fill="#000000" d="m1086.547 83.44094q-0.234375 0.390625 -0.59375 0.78125q-0.359375 0.390625 -0.859375 0.703125q-0.484375 0.296875 -1.09375 0.46875q-0.609375 0.1875 -1.328125 0.1875q-1.578125 0 -2.5 -1.0q-0.90625 -1.0 -0.90625 -2.71875q0 -1.546875 0.484375 -2.890625q0.484375 -1.359375 1.328125 -2.375q0.84375 -1.015625 1.984375 -1.59375q1.140625 -0.59375 2.453125 -0.59375q0.796875 0 1.3125 0.125q0.515625 0.125 0.765625 0.375q0.03125 0.234375 -0.03125 0.515625q-0.046875 0.28125 -0.171875 0.5625q-0.109375 0.28125 -0.296875 0.515625q-0.171875 0.234375 -0.375 0.3125l-1.4375 -1.484375q-0.734375 0.015625 -1.453125 0.453125q-0.703125 0.421875 -1.28125 1.21875q-0.5625 0.78125 -0.921875 1.90625q-0.34375 1.109375 -0.3125 2.515625q-0.03125 1.46875 0.578125 2.15625q0.609375 0.6875 1.65625 0.6875q0.453125 0 0.84375 -0.125q0.390625 -0.140625 0.734375 -0.328125q0.34375 -0.1875 0.609375 -0.40625q0.28125 -0.21875 0.5 -0.375l0.3125 0.40625zm4.9978027 0.828125q0.578125 0 1.15625 -0.546875q0.578125 -0.546875 1.078125 -1.3125q0.515625 -0.765625 0.921875 -1.59375q0.40625 -0.84375 0.640625 -1.390625l0.6875 -3.65625q-0.296875 -0.203125 -0.578125 -0.28125q-0.28125 -0.09375 -0.765625 -0.09375q-0.984375 0 -1.796875 0.609375q-0.796875 0.609375 -1.359375 1.578125q-0.5625 0.953125 -0.875 2.125q-0.296875 1.171875 -0.296875 2.296875q0 1.09375 0.265625 1.6875q0.265625 0.578125 0.921875 0.578125zm3.375 -3.125q-0.28125 0.78125 -0.703125 1.578125q-0.40625 0.78125 -0.953125 1.421875q-0.546875 0.640625 -1.21875 1.046875q-0.65625 0.390625 -1.390625 0.390625q-2.21875 0 -2.21875 -3.21875q0 -1.484375 0.421875 -2.90625q0.421875 -1.421875 1.234375 -2.53125q0.8125 -1.109375 1.96875 -1.78125q1.171875 -0.671875 2.640625 -0.671875q0.53125 0 0.84375 0.09375q0.328125 0.09375 0.78125 0.296875q0.84375 -0.453125 1.78125 -0.453125l-1.90625 9.75l1.546875 0l0 0.53125q-0.421875 0.34375 -1.03125 0.5625q-0.59375 0.203125 -1.15625 0.203125q-0.625 0 -0.890625 -0.265625q-0.265625 -0.265625 -0.265625 -0.5625q0 -0.390625 0.140625 -1.265625q0.15625 -0.875 0.453125 -2.21875l-0.078125 0zm5.1605225 -5.96875q0.421875 -0.234375 0.890625 -0.421875q0.484375 -0.1875 0.953125 -0.296875l0.34375 -1.625q0.296875 -0.234375 0.6875 -0.40625q0.40625 -0.1875 0.828125 -0.359375l0.453125 0.25l-0.515625 2.34375l2.640625 0q0.046875 0.265625 0 0.546875q-0.03125 0.265625 -0.203125 0.53125l-2.65625 0l-1.34375 6.1875q-0.078125 0.40625 -0.125 0.71875q-0.03125 0.296875 -0.03125 0.546875q0 0.5625 0.3125 0.828125q0.328125 0.25 0.703125 0.25q0.53125 0 1.140625 -0.203125q0.609375 -0.203125 1.125 -0.46875l0.234375 0.390625q-0.1875 0.28125 -0.578125 0.5625q-0.390625 0.265625 -0.875 0.5q-0.46875 0.234375 -1.0 0.375q-0.515625 0.15625 -0.984375 0.15625q-0.9375 0 -1.46875 -0.421875q-0.53125 -0.421875 -0.53125 -1.328125q0 -0.296875 0.046875 -0.65625q0.0625 -0.359375 0.140625 -0.75l1.40625 -6.6875l-1.625 0l0.03125 -0.5625z" fill-rule="nonzero"/><path fill="#000000" fill-opacity="0.0" d="m1134.5131 65.011986l14.047241 0l0 28.125984l-14.047241 0z" fill-rule="evenodd"/><path fill="#000000" fill-opacity="0.0" d="m1136.5977 59.988102l0 38.17323" fill-rule="evenodd"/><path stroke="#000000" stroke-width="2.0" stroke-linejoin="round" stroke-linecap="butt" d="m1136.5977 59.988102l0 38.17323" fill-rule="evenodd"/><path fill="#000000" fill-opacity="0.0" d="m1148.0662 114.35043c0 -3.5138168 2.8485107 -6.362335 6.3623047 -6.362335l104.66113 0c1.6873779 0 3.305664 0.6703186 4.4989014 1.8634872c1.1931152 1.1931686 1.8634033 2.8114548 1.8634033 4.498848l0 25.448563c0 3.5138245 -2.8485107 6.362335 -6.3623047 6.362335l-104.66113 0c-3.513794 0 -6.3623047 -2.8485107 -6.3623047 -6.362335z" fill-rule="evenodd"/><path stroke="#000000" stroke-width="2.0" stroke-linejoin="round" stroke-linecap="butt" d="m1148.0662 114.35043c0 -3.5138168 2.8485107 -6.362335 6.3623047 -6.362335l104.66113 0c1.6873779 0 3.305664 0.6703186 4.4989014 1.8634872c1.1931152 1.1931686 1.8634033 2.8114548 1.8634033 4.498848l0 25.448563c0 3.5138245 -2.8485107 6.362335 -6.3623047 6.362335l-104.66113 0c-3.513794 0 -6.3623047 -2.8485107 -6.3623047 -6.362335z" fill-rule="evenodd"/><path fill="#000000" d="m1169.6472 118.78469l-1.515625 -0.1875l0 -0.53125q0.296875 -0.140625 0.6875 -0.265625q0.390625 -0.125 0.828125 -0.234375q0.4375 -0.125 0.859375 -0.1875q0.4375 -0.078125 0.78125 -0.078125l0.421875 0.234375l-2.9375 14.609367l1.546875 0l0 0.546875q-0.421875 0.34375 -1.03125 0.5625q-0.609375 0.203125 -1.1875 0.203125q-0.609375 0 -0.90625 -0.265625q-0.28125 -0.28125 -0.28125 -0.65625q0 -0.421875 0.0625 -0.828125q0.0625 -0.40625 0.171875 -0.890625l2.5 -12.031242zm3.064087 10.578117q0 -1.125 0.34375 -2.3437424q0.359375 -1.234375 1.078125 -2.25q0.734375 -1.03125 1.8125 -1.6875q1.09375 -0.671875 2.546875 -0.671875q1.65625 0 2.5 1.03125q0.84375 1.015625 0.84375 3.015625q0 1.421875 -0.40625 2.7187424q-0.40625 1.28125 -1.140625 2.265625q-0.71875 0.96875 -1.75 1.5625q-1.015625 0.578125 -2.25 0.578125q-1.640625 0 -2.609375 -1.046875q-0.96875 -1.0625 -0.96875 -3.171875zm5.359375 -6.0312424q-1.046875 0.015625 -1.71875 0.6875q-0.65625 0.65625 -1.046875 1.640625q-0.375 0.96875 -0.53125 2.109375q-0.140625 1.1249924 -0.140625 2.0624924q0 1.265625 0.546875 2.0625q0.5625 0.78125 1.5 0.78125q0.75 0 1.328125 -0.5625q0.59375 -0.578125 1.0 -1.5q0.421875 -0.921875 0.640625 -2.09375q0.234375 -1.1874924 0.234375 -2.3749924q0 -1.265625 -0.4375 -2.03125q-0.4375 -0.765625 -1.375 -0.78125zm9.934204 6.7812424q0.765625 -1.28125 1.359375 -2.4843674q0.59375 -1.203125 1.03125 -2.421875q0 -0.234375 -0.0625 -0.609375q-0.046875 -0.375 -0.109375 -0.75q-0.046875 -0.390625 -0.109375 -0.71875q-0.0625 -0.328125 -0.109375 -0.46875q0.625 -0.25 1.265625 -0.25q0.65625 -0.015625 1.140625 0.25q-0.3125 1.328125 -0.875 2.703125q-0.546875 1.375 -1.265625 2.7499924q-0.703125 1.359375 -1.546875 2.6875q-0.84375 1.3125 -1.765625 2.53125l-1.0 0.25l-1.578125 -9.671867l-1.375 -0.171875l0 -0.53125q0.140625 -0.09375 0.390625 -0.234375q0.25 -0.140625 0.5625 -0.265625q0.3125 -0.125 0.640625 -0.203125q0.328125 -0.09375 0.625 -0.09375q0.46875 0 0.671875 0.234375q0.203125 0.234375 0.265625 0.578125l0.984375 6.9374924l0.109375 1.34375l0.046875 0l0.703125 -1.390625zm12.345947 1.328125q-0.1875 0.390625 -0.5625 0.78125q-0.359375 0.390625 -0.84375 0.703125q-0.484375 0.296875 -1.109375 0.46875q-0.625 0.1875 -1.328125 0.1875q-1.765625 0 -2.71875 -1.0q-0.9375 -1.015625 -0.9375 -2.8125q0 -1.515625 0.421875 -2.8593674q0.421875 -1.34375 1.1875 -2.34375q0.765625 -1.0 1.859375 -1.578125q1.109375 -0.578125 2.453125 -0.578125q1.03125 0 1.765625 0.53125q0.734375 0.515625 0.734375 1.546875q0 1.5 -1.515625 2.375q-1.5 0.875 -4.84375 1.1406174q-0.078125 0.359375 -0.125 0.703125q-0.03125 0.34375 -0.03125 0.65625q0 1.28125 0.65625 2.09375q0.65625 0.8125 1.90625 0.8125q0.40625 0 0.796875 -0.125q0.40625 -0.140625 0.75 -0.328125q0.359375 -0.1875 0.640625 -0.40625q0.296875 -0.21875 0.5 -0.375l0.34375 0.40625zm-2.234375 -8.109367q-0.921875 0.015625 -1.71875 0.859375q-0.78125 0.84375 -1.328125 2.890625q2.0625 -0.0625 3.203125 -0.703125q1.15625 -0.65625 1.15625 -1.8125q0 -0.453125 -0.265625 -0.828125q-0.265625 -0.390625 -1.046875 -0.40625zm8.995483 7.4843674q-0.015625 -0.515625 -0.28125 -0.890625q-0.265625 -0.375 -0.6875 -0.703125q-0.421875 -0.34375 -0.890625 -0.6875q-0.46875 -0.34375 -0.890625 -0.7499924q-0.40625 -0.421875 -0.671875 -0.96875q-0.265625 -0.546875 -0.265625 -1.3125q0 -0.765625 0.296875 -1.34375q0.296875 -0.578125 0.8125 -0.953125q0.53125 -0.390625 1.265625 -0.59375q0.734375 -0.203125 1.609375 -0.203125q0.5625 0 1.25 0.09375q0.6875 0.09375 1.3125 0.46875q0 0.234375 -0.09375 0.546875q-0.078125 0.296875 -0.21875 0.59375q-0.140625 0.28125 -0.3125 0.53125q-0.171875 0.234375 -0.359375 0.328125l-1.578125 -1.640625q-0.4375 0.015625 -0.828125 0.109375q-0.390625 0.078125 -0.671875 0.28125q-0.28125 0.1875 -0.453125 0.5q-0.15625 0.296875 -0.15625 0.765625q0 0.5625 0.28125 0.953125q0.28125 0.390625 0.6875 0.75q0.421875 0.34375 0.890625 0.6875q0.484375 0.328125 0.890625 0.7499924q0.421875 0.40625 0.703125 0.953125q0.28125 0.53125 0.28125 1.28125q0 0.765625 -0.359375 1.375q-0.34375 0.59375 -0.953125 1.015625q-0.609375 0.40625 -1.40625 0.609375q-0.796875 0.21875 -1.703125 0.21875q-0.890625 0 -1.625 -0.1875q-0.734375 -0.171875 -1.15625 -0.453125q0.09375 -0.546875 0.234375 -1.0625q0.15625 -0.53125 0.640625 -0.984375l1.90625 1.78125q0.453125 0 0.890625 -0.109375q0.4375 -0.109375 0.78125 -0.34375q0.359375 -0.234375 0.578125 -0.578125q0.234375 -0.34375 0.25 -0.828125z" fill-rule="nonzero"/><path fill="#000000" fill-opacity="0.0" d="m1230.5131 113.011986l14.047241 0l0 28.125984l-14.047241 0z" fill-rule="evenodd"/><path fill="#000000" fill-opacity="0.0" d="m1232.5977 107.9881l0 38.173233" fill-rule="evenodd"/><path stroke="#000000" stroke-width="2.0" stroke-linejoin="round" stroke-linecap="butt" d="m1232.5977 107.9881l0 38.173233" fill-rule="evenodd"/><path fill="#000000" fill-opacity="0.0" d="m1244.5603 127.074974c29.102417 0 58.204834 14.456688 58.204834 28.913383" fill-rule="evenodd"/><path stroke="#000000" stroke-width="2.0" stroke-linejoin="round" stroke-linecap="butt" d="m1252.1337 127.39373l0.58776855 0.05051422c0.90148926 0.08074188 1.8001709 0.17427826 2.6954346 0.28015137c3.5810547 0.4235382 7.1051025 1.0447235 10.515503 1.8353271c6.820923 1.581192 13.187012 3.8400574 18.643799 6.5506897c2.7282715 1.3553162 5.229248 2.823578 7.446045 4.376541c1.1083984 0.776474 2.145752 1.5741272 3.1048584 2.3894348c0.47961426 0.4076538 0.93969727 0.8197174 1.3792725 1.2357635c0.21984863 0.20802307 0.4345703 0.4170227 0.64404297 0.62698364c0.10473633 0.10496521 0.20825195 0.21017456 0.31030273 0.3156128l0.1105957 0.115859985" fill-rule="evenodd"/><path fill="#000000" stroke="#000000" stroke-width="2.0" stroke-linecap="butt" d="m1245.5594 127.11703c0.076416016 -1.8154068 1.6101074 -3.2251434 3.425537 -3.148735c1.8153076 0.076408386 3.2250977 1.6100311 3.1486816 3.425438c-0.076416016 1.8154068 -1.6099854 3.225151 -3.425415 3.148735c-1.8154297 -0.07640076 -3.2252197 -1.6100311 -3.1488037 -3.425438z" fill-rule="nonzero"/><path fill="#000000" stroke="#000000" stroke-width="2.0" stroke-linecap="butt" d="m1294.5933 146.6004l6.906372 6.7522125l-0.9503174 -9.611816z" fill-rule="evenodd"/><path fill="#000000" fill-opacity="0.0" d="m1244.0662 162.35043c0 -3.5138245 2.8485107 -6.362335 6.3623047 -6.362335l104.66113 0c1.6873779 0 3.305664 0.6703186 4.4989014 1.8634949c1.1931152 1.193161 1.8634033 2.8114471 1.8634033 4.4988403l0 25.448563c0 3.5138245 -2.8485107 6.362335 -6.3623047 6.362335l-104.66113 0c-3.513794 0 -6.3623047 -2.8485107 -6.3623047 -6.362335z" fill-rule="evenodd"/><path stroke="#000000" stroke-width="2.0" stroke-linejoin="round" stroke-linecap="butt" d="m1244.0662 162.35043c0 -3.5138245 2.8485107 -6.362335 6.3623047 -6.362335l104.66113 0c1.6873779 0 3.305664 0.6703186 4.4989014 1.8634949c1.1931152 1.193161 1.8634033 2.8114471 1.8634033 4.4988403l0 25.448563c0 3.5138245 -2.8485107 6.362335 -6.3623047 6.362335l-104.66113 0c-3.513794 0 -6.3623047 -2.8485107 -6.3623047 -6.362335z" fill-rule="evenodd"/><path fill="#000000" d="m1267.5315 180.26906q0.578125 0 1.140625 -0.546875q0.578125 -0.546875 1.09375 -1.3125q0.515625 -0.765625 0.921875 -1.59375q0.40625 -0.84375 0.640625 -1.390625l0.671875 -3.65625q-0.3125 -0.203125 -0.578125 -0.28125q-0.265625 -0.078125 -0.765625 -0.09375q-1.015625 0.015625 -1.828125 0.625q-0.8125 0.609375 -1.375 1.5625q-0.546875 0.953125 -0.84375 2.125q-0.28125 1.171875 -0.28125 2.296875q0 1.09375 0.265625 1.6875q0.265625 0.578125 0.9375 0.578125zm3.359375 -3.125q-0.265625 0.78125 -0.703125 1.578125q-0.421875 0.78125 -0.96875 1.421875q-0.546875 0.640625 -1.203125 1.046875q-0.640625 0.390625 -1.390625 0.390625q-2.21875 0 -2.21875 -3.234375q0 -1.515625 0.421875 -2.9375q0.4375 -1.421875 1.25 -2.515625q0.8125 -1.09375 1.953125 -1.75q1.15625 -0.671875 2.625 -0.671875q0.5625 0 0.828125 0.078125q0.28125 0.078125 0.71875 0.265625l0.8125 -4.03125l-1.5 -0.1875l0 -0.53125q0.3125 -0.140625 0.703125 -0.25q0.390625 -0.125 0.796875 -0.21875q0.421875 -0.09375 0.84375 -0.171875q0.421875 -0.09375 0.796875 -0.125l0.4375 0.15625l-2.921875 14.703125l1.5625 0l0 0.53125q-0.421875 0.34375 -1.03125 0.5625q-0.59375 0.203125 -1.171875 0.203125q-0.609375 0 -0.875 -0.265625q-0.265625 -0.265625 -0.265625 -0.5625q0 -0.390625 0.140625 -1.265625q0.15625 -0.875 0.453125 -2.21875l-0.09375 0zm4.8481445 0.21875q0 -1.125 0.34375 -2.34375q0.359375 -1.234375 1.078125 -2.25q0.734375 -1.03125 1.8125 -1.6875q1.09375 -0.671875 2.546875 -0.671875q1.65625 0 2.5 1.03125q0.84375 1.015625 0.84375 3.015625q0 1.421875 -0.40625 2.71875q-0.40625 1.28125 -1.140625 2.265625q-0.71875 0.96875 -1.75 1.5625q-1.015625 0.578125 -2.25 0.578125q-1.640625 0 -2.609375 -1.046875q-0.96875 -1.0625 -0.96875 -3.171875zm5.359375 -6.03125q-1.046875 0.015625 -1.71875 0.6875q-0.65625 0.65625 -1.046875 1.640625q-0.375 0.96875 -0.53125 2.109375q-0.140625 1.125 -0.140625 2.0625q0 1.265625 0.546875 2.0625q0.5625 0.78125 1.5 0.78125q0.75 0 1.328125 -0.5625q0.59375 -0.578125 1.0 -1.5q0.421875 -0.921875 0.640625 -2.09375q0.234375 -1.1875 0.234375 -2.375q0 -1.265625 -0.4375 -2.03125q-0.4375 -0.765625 -1.375 -0.78125zm10.590454 -0.921875q1.03125 0 1.671875 0.265625q0.65625 0.25 1.015625 0.546875q0.1875 -0.171875 0.5 -0.34375q0.328125 -0.171875 0.6875 -0.3125q0.375 -0.15625 0.75 -0.28125q0.390625 -0.125 0.734375 -0.234375q0.0625 0.109375 0.09375 0.328125q0.046875 0.203125 0.03125 0.46875q0 0.25 -0.078125 0.515625q-0.078125 0.265625 -0.21875 0.484375l-2.203125 -0.15625q0.0625 0.1875 0.125 0.4375q0.078125 0.25 0.078125 0.546875q0 0.84375 -0.359375 1.578125q-0.34375 0.71875 -0.96875 1.25q-0.625 0.515625 -1.453125 0.8125q-0.8125 0.296875 -1.71875 0.296875q-0.375 0 -0.59375 0q-0.21875 -0.015625 -0.5 -0.078125q-0.1875 0.21875 -0.53125 0.5q-0.328125 0.28125 -0.328125 0.625q0 0.359375 0.46875 0.5625q0.46875 0.1875 1.1875 0.34375q0.71875 0.15625 1.546875 0.34375q0.828125 0.1875 1.546875 0.5q0.71875 0.296875 1.1875 0.796875q0.46875 0.484375 0.46875 1.296875q0 1.0 -0.5625 1.796875q-0.5625 0.796875 -1.5 1.359375q-0.921875 0.578125 -2.109375 0.875q-1.1875 0.3125 -2.40625 0.3125q-0.96875 0 -1.671875 -0.203125q-0.703125 -0.203125 -1.15625 -0.5625q-0.453125 -0.34375 -0.65625 -0.796875q-0.21875 -0.4375 -0.21875 -0.921875q0 -0.609375 0.265625 -1.125q0.265625 -0.5 0.71875 -0.953125q0.4375 -0.46875 1.015625 -0.84375q0.578125 -0.390625 1.203125 -0.734375q-0.328125 -0.171875 -0.53125 -0.453125q-0.203125 -0.296875 -0.203125 -0.65625q0 -0.3125 0.21875 -0.65625q0.21875 -0.359375 0.5 -0.671875q0.28125 -0.328125 0.5625 -0.5625q0.296875 -0.234375 0.453125 -0.34375q-0.265625 -0.0625 -0.53125 -0.234375q-0.265625 -0.171875 -0.5 -0.4375q-0.234375 -0.28125 -0.390625 -0.640625q-0.140625 -0.375 -0.140625 -0.828125q0 -0.828125 0.34375 -1.53125q0.359375 -0.703125 0.96875 -1.203125q0.625 -0.5 1.4375 -0.78125q0.8125 -0.296875 1.75 -0.296875zm-2.453125 14.53125q0.671875 0 1.3125 -0.203125q0.65625 -0.1875 1.171875 -0.546875q0.53125 -0.34375 0.859375 -0.875q0.328125 -0.515625 0.328125 -1.171875q0 -0.640625 -0.53125 -0.984375q-0.515625 -0.359375 -1.265625 -0.5625q-0.734375 -0.21875 -1.546875 -0.359375q-0.796875 -0.140625 -1.375 -0.328125q-1.0 0.71875 -1.375 1.5q-0.375 0.796875 -0.34375 1.484375q-0.03125 0.953125 0.71875 1.5q0.765625 0.546875 2.046875 0.546875zm2.28125 -13.671875q-0.609375 0 -1.09375 0.234375q-0.484375 0.234375 -0.828125 0.625q-0.328125 0.390625 -0.5 0.9375q-0.171875 0.53125 -0.171875 1.125q0 0.8125 0.515625 1.203125q0.53125 0.375 1.125 0.375q0.640625 0 1.09375 -0.21875q0.46875 -0.234375 0.765625 -0.609375q0.3125 -0.390625 0.453125 -0.875q0.15625 -0.5 0.15625 -1.03125q0 -0.78125 -0.375 -1.265625q-0.375 -0.5 -1.140625 -0.5zm10.070068 7.546875q-0.015625 -0.515625 -0.28125 -0.890625q-0.265625 -0.375 -0.6875 -0.703125q-0.421875 -0.34375 -0.890625 -0.6875q-0.46875 -0.34375 -0.890625 -0.75q-0.40625 -0.421875 -0.671875 -0.96875q-0.265625 -0.546875 -0.265625 -1.3125q0 -0.765625 0.296875 -1.34375q0.296875 -0.578125 0.8125 -0.953125q0.53125 -0.390625 1.265625 -0.59375q0.734375 -0.203125 1.609375 -0.203125q0.5625 0 1.25 0.09375q0.6875 0.09375 1.3125 0.46875q0 0.234375 -0.09375 0.546875q-0.078125 0.296875 -0.21875 0.59375q-0.140625 0.28125 -0.3125 0.53125q-0.171875 0.234375 -0.359375 0.328125l-1.578125 -1.640625q-0.4375 0.015625 -0.828125 0.109375q-0.390625 0.078125 -0.671875 0.28125q-0.28125 0.1875 -0.453125 0.5q-0.15625 0.296875 -0.15625 0.765625q0 0.5625 0.28125 0.953125q0.28125 0.390625 0.6875 0.75q0.421875 0.34375 0.890625 0.6875q0.484375 0.328125 0.890625 0.75q0.421875 0.40625 0.703125 0.953125q0.28125 0.53125 0.28125 1.28125q0 0.765625 -0.359375 1.375q-0.34375 0.59375 -0.953125 1.015625q-0.609375 0.40625 -1.40625 0.609375q-0.796875 0.21875 -1.703125 0.21875q-0.890625 0 -1.625 -0.1875q-0.734375 -0.171875 -1.15625 -0.453125q0.09375 -0.546875 0.234375 -1.0625q0.15625 -0.53125 0.640625 -0.984375l1.90625 1.78125q0.453125 0 0.890625 -0.109375q0.4375 -0.109375 0.78125 -0.34375q0.359375 -0.234375 0.578125 -0.578125q0.234375 -0.34375 0.25 -0.828125z" fill-rule="nonzero"/><path fill="#000000" fill-opacity="0.0" d="m1326.5131 161.01198l14.047241 0l0 28.125992l-14.047241 0z" fill-rule="evenodd"/><path fill="#000000" fill-opacity="0.0" d="m1328.5977 155.9881l0 38.173233" fill-rule="evenodd"/><path stroke="#000000" stroke-width="2.0" stroke-linejoin="round" stroke-linecap="butt" d="m1328.5977 155.9881l0 38.173233" fill-rule="evenodd"/><path fill="#000000" d="m1338.5981 175.84052c0 -3.357193 2.7215576 -6.0787354 6.0787354 -6.0787354c1.6121826 0 3.1583252 0.64042664 4.29834 1.7804108c1.1400146 1.1399841 1.7803955 2.686142 1.7803955 4.2983246c0 3.357193 -2.7215576 6.0787354 -6.0787354 6.0787354c-3.3571777 0 -6.0787354 -2.7215424 -6.0787354 -6.0787354z" fill-rule="evenodd"/><path fill="#000000" fill-opacity="0.0" d="m845.7983 61.353676c27.566956 0 41.350403 -7.566929 55.13385 -15.133858c13.783447 -7.566929 27.566956 -15.133858 55.13385 -15.133858" fill-rule="evenodd"/><path stroke="#000000" stroke-width="2.0" stroke-linejoin="round" stroke-linecap="butt" d="m853.37555 61.150074l0.9915161 -0.05806732c0.38623047 -0.024448395 0.7694092 -0.050540924 1.1496582 -0.078250885c3.0421143 -0.22169113 5.895691 -0.5468292 8.587769 -0.9606476c5.3842163 -0.8276329 10.122192 -2.009964 14.429565 -3.4287643c8.614624 -2.837597 15.506409 -6.621063 22.398132 -10.404526c6.8917236 -3.7834663 13.783447 -7.566929 22.398132 -10.404526c4.307312 -1.4188004 9.045349 -2.6011314 14.429504 -3.4287643c1.3460693 -0.20690918 2.732483 -0.39164925 4.1626587 -0.552372c0.35754395 -0.040182114 0.7178345 -0.07886124 1.0808716 -0.116010666l1.0742188 -0.104558945" fill-rule="evenodd"/><path fill="#000000" stroke="#000000" stroke-width="2.0" stroke-linecap="butt" d="m846.798 61.326813c-0.048828125 -1.8163605 1.3840332 -3.3283768 3.2004395 -3.377182c1.8163452 -0.048805237 3.3283691 1.3840828 3.3771362 3.2004433c0.048828125 1.8163643 -1.3840332 3.3283806 -3.2004395 3.3771858c-1.8163452 0.048805237 -3.3283691 -1.3840828 -3.3771362 -3.200447z" fill-rule="nonzero"/><path fill="#000000" stroke="#000000" stroke-width="2.0" stroke-linecap="butt" d="m944.2229 34.913857l8.922119 -3.699339l-9.2126465 -2.9012012z" fill-rule="evenodd"/><path fill="#000000" fill-opacity="0.0" d="m776.5858 54.22532c0 -8.990391 7.288147 -16.278542 16.278564 -16.278542l65.11218 0c4.317322 0 8.457825 1.7150574 11.510681 4.7678757c3.0527954 3.0528183 4.7678833 7.193329 4.7678833 11.510666l0 71.24544c0 8.990395 -7.288147 16.278542 -16.278564 16.278542l-65.11218 0c-8.9904175 0 -16.278564 -7.288147 -16.278564 -16.278542z" fill-rule="evenodd"/><path stroke="#000000" stroke-width="2.0" stroke-linejoin="round" stroke-linecap="butt" d="m776.5858 54.22532c0 -8.990391 7.288147 -16.278542 16.278564 -16.278542l65.11218 0c4.317322 0 8.457825 1.7150574 11.510681 4.7678757c3.0527954 3.0528183 4.7678833 7.193329 4.7678833 11.510666l0 71.24544c0 8.990395 -7.288147 16.278542 -16.278564 16.278542l-65.11218 0c-8.9904175 0 -16.278564 -7.288147 -16.278564 -16.278542z" fill-rule="evenodd"/><path fill="#000000" d="m790.588 55.522724l1.46875 0l0 -0.59375q0 -2.015625 0.84375 -2.921875q0.859375 -0.90625 2.484375 -0.90625q1.703125 0 2.84375 0.40625l-0.53125 2.203125q-0.5 -0.15625 -0.875 -0.203125q-0.375 -0.0625 -0.78125 -0.0625q-0.421875 0 -0.671875 0.125q-0.234375 0.125 -0.359375 0.390625q-0.109375 0.265625 -0.140625 0.671875q-0.03125 0.390625 -0.03125 0.890625l2.34375 0l0 2.359375l-2.34375 0l0 8.312496l-2.78125 0l0 -8.312496l-1.46875 0l0 -2.359375zm13.7213745 2.609375q-0.671875 -0.234375 -1.203125 -0.234375q-0.75 0 -1.25 0.40625q-0.5 0.390625 -0.671875 1.0l0 6.890621l-2.765625 0l0 -10.671871l2.15625 0l0.3125 1.421875l0.09375 0q0.359375 -0.796875 0.96875 -1.21875q0.625 -0.4375 1.453125 -0.4375q0.5625 0 1.265625 0.234375l-0.359375 2.609375zm1.079956 2.734375q0 -2.71875 1.3125 -4.171875q1.328125 -1.46875 3.71875 -1.46875q1.28125 0 2.21875 0.40625q0.9375 0.40625 1.546875 1.140625q0.625 0.734375 0.9375 1.78125q0.3125 1.046875 0.3125 2.3125q0 2.703125 -1.3125 4.171871q-1.3125 1.453125 -3.703125 1.453125q-1.28125 0 -2.21875 -0.40625q-0.9375 -0.40625 -1.5625 -1.140625q-0.625 -0.734375 -0.9375 -1.7812462q-0.3125 -1.046875 -0.3125 -2.296875zm2.859375 0q0 0.703125 0.125 1.296875q0.125 0.59375 0.375 1.046875q0.265625 0.453125 0.671875 0.703125q0.421875 0.23437119 1.0 0.23437119q1.09375 0 1.625 -0.7812462q0.53125 -0.796875 0.53125 -2.5q0 -1.46875 -0.5 -2.375q-0.484375 -0.90625 -1.65625 -0.90625q-1.015625 0 -1.59375 0.765625q-0.578125 0.765625 -0.578125 2.515625zm15.625122 5.328121l0 -6.062496q0 -1.296875 -0.375 -1.875q-0.359375 -0.578125 -1.265625 -0.578125q-0.78125 0 -1.328125 0.46875q-0.546875 0.453125 -0.78125 1.140625l0 6.906246l-2.765625 0l0 -10.671871l2.1875 0l0.328125 1.421875l0.078125 0q0.5 -0.6875 1.296875 -1.203125q0.8125 -0.515625 2.09375 -0.515625q0.796875 0 1.40625 0.21875q0.625 0.21875 1.046875 0.703125q0.4375 0.484375 0.640625 1.328125q0.21875 0.84375 0.21875 2.078125l0 6.640621l-2.78125 0zm3.9988403 -10.671871l1.46875 0l0 -2.0l2.765625 -0.78125l0 2.78125l2.609375 0l0 2.359375l-2.609375 0l0 4.09375q0 1.109375 0.21875 1.59375q0.234375 0.4687462 0.859375 0.4687462q0.421875 0 0.734375 -0.078121185q0.3125 -0.09375 0.6875 -0.265625l0.5 2.1406212q-0.578125 0.28125 -1.359375 0.46875q-0.765625 0.1875 -1.546875 0.1875q-1.46875 0 -2.171875 -0.75q-0.6875 -0.765625 -0.6875 -2.4843712l0 -5.375l-1.46875 0l0 -2.359375z" fill-rule="nonzero"/><path fill="#000000" d="m797.463 87.132095q-0.671875 -0.234375 -1.203125 -0.234375q-0.75 0 -1.25 0.40625q-0.5 0.390625 -0.671875 1.0l0 6.890625l-2.765625 0l0 -10.671875l2.15625 0l0.3125 1.421875l0.09375 0q0.359375 -0.796875 0.96875 -1.21875q0.625 -0.4375 1.453125 -0.4375q0.5625 0 1.265625 0.234375l-0.359375 2.609375zm10.126831 7.140625q-0.640625 0.515625 -1.75 0.875q-1.09375 0.34375 -2.328125 0.34375q-2.578125 0 -3.78125 -1.5q-1.1875 -1.5 -1.1875 -4.125q0 -2.8125 1.34375 -4.21875q1.34375 -1.421875 3.78125 -1.421875q0.8125 0 1.578125 0.21875q0.765625 0.21875 1.359375 0.703125q0.59375 0.484375 0.953125 1.328125q0.375 0.828125 0.375 2.0625q0 0.453125 -0.0625 0.96875q-0.046875 0.5 -0.15625 1.0625l-6.40625 0q0.078125 1.34375 0.703125 2.03125q0.625 0.671875 2.03125 0.671875q0.875 0 1.5625 -0.265625q0.703125 -0.265625 1.0625 -0.546875l0.921875 1.8125zm-3.96875 -7.828125q-1.09375 0 -1.625 0.65625q-0.515625 0.65625 -0.609375 1.734375l3.953125 0q0.09375 -1.140625 -0.34375 -1.765625q-0.4375 -0.625 -1.375 -0.625zm6.209717 -1.296875q0.84375 -0.375 2.015625 -0.59375q1.171875 -0.234375 2.453125 -0.234375q1.109375 0 1.859375 0.265625q0.75 0.265625 1.1875 0.765625q0.4375 0.484375 0.609375 1.171875q0.1875 0.671875 0.1875 1.53125q0 0.9375 -0.0625 1.890625q-0.0625 0.9375 -0.078125 1.859375q0 0.921875 0.0625 1.78125q0.0625 0.859375 0.3125 1.625l-2.265625 0l-0.4375 -1.46875l-0.109375 0q-0.421875 0.65625 -1.1875 1.140625q-0.75 0.484375 -1.953125 0.484375q-0.75 0 -1.34375 -0.21875q-0.59375 -0.234375 -1.03125 -0.640625q-0.421875 -0.421875 -0.65625 -0.984375q-0.234375 -0.5625 -0.234375 -1.265625q0 -0.984375 0.4375 -1.65625q0.4375 -0.671875 1.25 -1.078125q0.828125 -0.421875 1.96875 -0.578125q1.15625 -0.171875 2.5625 -0.109375q0.140625 -1.1875 -0.1875 -1.703125q-0.3125 -0.53125 -1.421875 -0.53125q-0.828125 0 -1.765625 0.171875q-0.921875 0.171875 -1.515625 0.4375l-0.65625 -2.0625zm3.515625 7.9375q0.828125 0 1.3125 -0.375q0.5 -0.375 0.734375 -0.796875l0 -1.390625q-0.65625 -0.0625 -1.265625 -0.015625q-0.609375 0.03125 -1.078125 0.1875q-0.46875 0.15625 -0.75 0.4375q-0.28125 0.265625 -0.28125 0.6875q0 0.609375 0.34375 0.9375q0.359375 0.328125 0.984375 0.328125zm13.016296 -5.953125q-0.671875 -0.234375 -1.203125 -0.234375q-0.75 0 -1.25 0.40625q-0.5 0.390625 -0.671875 1.0l0 6.890625l-2.765625 0l0 -10.671875l2.15625 0l0.3125 1.421875l0.09375 0q0.359375 -0.796875 0.96875 -1.21875q0.625 -0.4375 1.453125 -0.4375q0.5625 0 1.265625 0.234375l-0.359375 2.609375z" fill-rule="nonzero"/><path fill="#000000" d="m795.97864 121.257095q0 -0.4375 -0.359375 -0.6875q-0.359375 -0.25 -0.890625 -0.46875q-0.53125 -0.21875 -1.171875 -0.4375q-0.640625 -0.21875 -1.171875 -0.609375q-0.53125 -0.40625 -0.90625 -1.015625q-0.359375 -0.609375 -0.359375 -1.5625q0 -1.578125 0.9375 -2.40625q0.9375 -0.84375 2.71875 -0.84375q1.203125 0 2.1875 0.265625q0.984375 0.25 1.53125 0.578125l-0.609375 2.0q-0.5 -0.1875 -1.25 -0.40625q-0.734375 -0.21875 -1.5 -0.21875q-1.234375 0 -1.234375 0.96875q0 0.375 0.359375 0.609375q0.359375 0.234375 0.890625 0.4375q0.53125 0.203125 1.171875 0.4375q0.640625 0.234375 1.171875 0.609375q0.53125 0.375 0.890625 0.984375q0.375 0.59375 0.375 1.53125q0 1.609375 -1.046875 2.546875q-1.03125 0.921875 -3.09375 0.921875q-1.125 0 -2.125 -0.296875q-0.984375 -0.28125 -1.609375 -0.65625l0.765625 -2.078125q0.5 0.28125 1.296875 0.546875q0.8125 0.265625 1.671875 0.265625q0.625 0 0.984375 -0.234375q0.375 -0.234375 0.375 -0.78125zm4.8286133 -7.734375l2.765625 0l0 10.671875l-2.765625 0l0 -10.671875zm-0.40625 -3.0q0 -0.625 0.453125 -1.0625q0.46875 -0.4375 1.265625 -0.4375q0.8125 0 1.3125 0.4375q0.5 0.4375 0.5 1.0625q0 0.625 -0.5 1.046875q-0.5 0.40625 -1.3125 0.40625q-0.796875 0 -1.265625 -0.40625q-0.453125 -0.421875 -0.453125 -1.046875zm5.3466797 11.328125l4.203125 -5.0625l1.09375 -0.90625l-5.296875 0l0 -2.359375l8.359375 0l0 2.359375l-4.15625 5.140625l-1.0625 0.828125l5.21875 0l0 2.34375l-8.359375 0l0 -2.34375zm18.691406 1.421875q-0.640625 0.515625 -1.75 0.875q-1.09375 0.34375 -2.328125 0.34375q-2.578125 0 -3.78125 -1.5q-1.1875 -1.5 -1.1875 -4.125q0 -2.8125 1.34375 -4.21875q1.34375 -1.421875 3.78125 -1.421875q0.8125 0 1.578125 0.21875q0.765625 0.21875 1.359375 0.703125q0.59375 0.484375 0.953125 1.328125q0.375 0.828125 0.375 2.0625q0 0.453125 -0.0625 0.96875q-0.046875 0.5 -0.15625 1.0625l-6.40625 0q0.078125 1.34375 0.703125 2.03125q0.625 0.671875 2.03125 0.671875q0.875 0 1.5625 -0.265625q0.703125 -0.265625 1.0625 -0.546875l0.921875 1.8125zm-3.96875 -7.828125q-1.09375 0 -1.625 0.65625q-0.515625 0.65625 -0.609375 1.734375l3.953125 0q0.09375 -1.140625 -0.34375 -1.765625q-0.4375 -0.625 -1.375 -0.625z" fill-rule="nonzero"/><path fill="#000000" d="m853.77954 119.61647l-2.515625 0l0 4.578125l-1.65625 0l0 -4.578125l-6.578125 0l0 -0.71875l7.078125 -9.875l1.15625 0l0 9.09375l2.515625 0l0 1.5zm-4.171875 -6.15625l0.203125 -1.75l-0.0625 0l-0.734375 1.453125l-3.015625 4.078125l-1.015625 1.046875l1.484375 -0.171875l3.140625 0l0 -4.65625z" fill-rule="nonzero"/><path fill="#000000" fill-opacity="0.0" d="m831.75104 41.43626l14.047241 0l0 39.834835l-14.047241 0z" fill-rule="evenodd"/><path fill="#000000" fill-opacity="0.0" d="m831.75104 70.23113l14.047241 0l0 39.84252l-14.047241 0z" fill-rule="evenodd"/><path fill="#000000" fill-opacity="0.0" d="m845.7983 90.15239c99.566956 0 149.3504 21.228348 199.13385 42.456696c49.783447 21.228348 99.566895 42.456696 199.13391 42.456696" fill-rule="evenodd"/><path stroke="#000000" stroke-width="2.0" stroke-linejoin="round" stroke-linecap="butt" d="m853.3782 90.194916l1.6101685 0.01902771c3.015747 0.04081726 5.984436 0.10170746 8.907471 0.18202972c5.8462524 0.16067505 11.51001 0.39907837 17.003723 0.71003723c10.987366 0.62192535 21.294128 1.5340805 31.017456 2.6950073c19.446716 2.321846 36.559692 5.6387787 52.117065 9.619095c31.114624 7.9606323 56.00641 18.574799 80.89807 29.188972c24.891724 10.6141815 49.783447 21.228348 80.89819 29.18898c15.557251 3.9803162 32.670288 7.297241 52.117065 9.619095c9.723267 1.1609192 20.03003 2.0730743 31.017456 2.6950073c5.4936523 0.31095886 11.157471 0.54937744 17.003662 0.71003723c1.4615479 0.040161133 2.9344482 0.07545471 4.4189453 0.1058197l1.6790771 0.031433105" fill-rule="evenodd"/><path fill="#000000" stroke="#000000" stroke-width="2.0" stroke-linecap="butt" d="m846.7983 90.158005c0.010192871 -1.8169861 1.4914551 -3.2816849 3.3084106 -3.271492c1.8170166 0.010185242 3.2816772 1.4914093 3.2714844 3.3083954c-0.010192871 1.8169937 -1.491394 3.2816849 -3.3084106 3.2714996c-1.8169556 -0.010192871 -3.2816772 -1.4914169 -3.2714844 -3.308403z" fill-rule="nonzero"/><path fill="#000000" stroke="#000000" stroke-width="2.0" stroke-linecap="butt" d="m1232.0372 178.26279l9.105103 -3.2229156l-9.046509 -3.3837433z" fill-rule="evenodd"/><path fill="#000000" fill-opacity="0.0" d="m685.6173 4.884427l0 196.37794" fill-rule="evenodd"/><path stroke="#000000" stroke-width="2.0" stroke-linejoin="round" stroke-linecap="butt" d="m685.6173 4.884427l0 196.37794" fill-rule="evenodd"/></g></svg>