<svg version="1.1" viewBox="0.0 0.0 835.9107611548557 245.3044619422572" fill="none" stroke="none" stroke-linecap="square" stroke-miterlimit="10" xmlns:xlink="http://www.w3.org/1999/xlink" xmlns="http://www.w3.org/2000/svg"><clipPath id="p.0"><path d="m0 0l835.91077 0l0 245.30446l-835.91077 0l0 -245.30446z" clip-rule="nonzero"/></clipPath><g clip-path="url(#p.0)"><path fill="#000000" fill-opacity="0.0" d="m0 0l835.91077 0l0 245.30446l-835.91077 0z" fill-rule="evenodd"/><path shape-rendering="crispEdges" fill="#d9d9d9" d="m417.83072 146.75726l49.910736 0l0 39.322845l-49.910736 0l0 -39.322845z" fill-rule="nonzero"/><path shape-rendering="crispEdges" fill="#d9d9d9" d="m467.74146 146.75726l49.910767 0l0 39.322845l-49.910767 0l0 -39.322845z" fill-rule="nonzero"/><path shape-rendering="crispEdges" fill="#d9d9d9" d="m517.6522 146.75726l49.910767 0l0 39.322845l-49.910767 0l0 -39.322845z" fill-rule="nonzero"/><path shape-rendering="crispEdges" fill="#d9d9d9" d="m567.563 146.75726l49.910767 0l0 39.322845l-49.910767 0l0 -39.322845z" fill-rule="nonzero"/><path shape-rendering="crispEdges" fill="#d9d9d9" d="m617.47375 146.75726l49.910767 0l0 39.322845l-49.910767 0l0 -39.322845z" fill-rule="nonzero"/><path shape-rendering="crispEdges" fill="#d9d9d9" d="m667.3845 146.75726l49.910767 0l0 39.322845l-49.910767 0l0 -39.322845z" fill-rule="nonzero"/><path shape-rendering="crispEdges" fill="#d9d9d9" d="m717.2953 146.75726l49.910767 0l0 39.322845l-49.910767 0l0 -39.322845z" fill-rule="nonzero"/><path shape-rendering="crispEdges" fill="#d9d9d9" d="m767.20605 146.75726l49.910767 0l0 39.322845l-49.910767 0l0 -39.322845z" fill-rule="nonzero"/><path stroke="#000000" stroke-width="2.0" stroke-linecap="butt" d="m18.544619 145.75726l0 41.322845" fill-rule="nonzero"/><path stroke="#000000" stroke-width="2.0" stroke-linecap="butt" d="m68.45538 145.75726l0 41.322845" fill-rule="nonzero"/><path stroke="#000000" stroke-width="2.0" stroke-linecap="butt" d="m118.36614 145.75726l0 41.322845" fill-rule="nonzero"/><path stroke="#000000" stroke-width="2.0" stroke-linecap="butt" d="m168.2769 145.75726l0 41.322845" fill-rule="nonzero"/><path stroke="#000000" stroke-width="2.0" stroke-linecap="butt" d="m218.18767 145.75726l0 41.322845" fill-rule="nonzero"/><path stroke="#000000" stroke-width="2.0" stroke-linecap="butt" d="m268.09842 145.75726l0 41.322845" fill-rule="nonzero"/><path stroke="#000000" stroke-width="2.0" stroke-linecap="butt" d="m318.0092 145.75726l0 41.322845" fill-rule="nonzero"/><path stroke="#000000" stroke-width="2.0" stroke-linecap="butt" d="m367.91995 145.75726l0 41.322845" fill-rule="nonzero"/><path stroke="#000000" stroke-width="2.0" stroke-linecap="butt" d="m417.83072 145.75726l0 41.322845" fill-rule="nonzero"/><path stroke="#000000" stroke-width="2.0" stroke-linecap="butt" d="m467.74146 145.75726l0 41.322845" fill-rule="nonzero"/><path stroke="#000000" stroke-width="2.0" stroke-linecap="butt" d="m517.6522 145.75726l0 41.322845" fill-rule="nonzero"/><path stroke="#000000" stroke-width="2.0" stroke-linecap="butt" d="m567.563 145.75726l0 41.322845" fill-rule="nonzero"/><path stroke="#000000" stroke-width="2.0" stroke-linecap="butt" d="m617.47375 145.75726l0 41.322845" fill-rule="nonzero"/><path stroke="#000000" stroke-width="2.0" stroke-linecap="butt" d="m667.3845 145.75726l0 41.322845" fill-rule="nonzero"/><path stroke="#000000" stroke-width="2.0" stroke-linecap="butt" d="m717.2953 145.75726l0 41.322845" fill-rule="nonzero"/><path stroke="#000000" stroke-width="2.0" stroke-linecap="butt" d="m767.20605 145.75726l0 41.322845" fill-rule="nonzero"/><path stroke="#000000" stroke-width="2.0" stroke-linecap="butt" d="m817.1168 145.75726l0 41.322845" fill-rule="nonzero"/><path stroke="#000000" stroke-width="2.0" stroke-linecap="butt" d="m17.544619 146.75726l800.5722 0" fill-rule="nonzero"/><path stroke="#000000" stroke-width="2.0" stroke-linecap="butt" d="m17.544619 186.08011l800.5722 0" fill-rule="nonzero"/><path fill="#000000" d="m40.446228 138.88539q0 -2.390625 0.765625 -3.59375q0.78125 -1.21875 2.28125 -1.21875q1.609375 0 2.328125 1.1875q0.734375 1.1875 0.734375 3.625q0 2.40625 -0.78125 3.625q-0.78125 1.203125 -2.28125 1.203125q-1.578125 0 -2.3125 -1.265625q-0.734375 -1.265625 -0.734375 -3.5625zm1.09375 0q0 0.875 0.109375 1.59375q0.125 0.703125 0.359375 1.21875q0.25 0.515625 0.609375 0.8125q0.375 0.28125 0.875 0.28125q1.015625 0 1.484375 -0.9375q0.46875 -0.953125 0.46875 -2.96875q0 -0.84375 -0.09375 -1.5625q-0.09375 -0.71875 -0.328125 -1.234375q-0.234375 -0.53125 -0.609375 -0.8125q-0.375 -0.28125 -0.921875 -0.28125q-1.0 0 -1.484375 0.953125q-0.46875 0.953125 -0.46875 2.9375z" fill-rule="nonzero"/><path fill="#000000" d="m91.21636 142.57289l1.875 0l0 -6.453125l0.125 -0.78125l-0.53125 0.625l-1.46875 1.046875l-0.5 -0.671875l2.921875 -2.265625l0.484375 0l0 8.5l1.828125 0l0 0.984375l-4.734375 0l0 -0.984375z" fill-rule="nonzero"/><path fill="#000000" d="m145.62712 136.35414q0 0.703125 -0.265625 1.4375q-0.25 0.734375 -0.671875 1.484375q-0.421875 0.75 -0.9375 1.46875q-0.515625 0.703125 -1.03125 1.34375l-0.65625 0.578125l0 0.046875l0.84375 -0.140625l2.90625 0l0 0.984375l-5.296875 0l0 -0.390625q0.296875 -0.296875 0.703125 -0.75q0.421875 -0.453125 0.859375 -1.0q0.453125 -0.5625 0.875 -1.171875q0.4375 -0.625 0.78125 -1.265625q0.359375 -0.640625 0.578125 -1.265625q0.21875 -0.640625 0.21875 -1.1875q0 -0.65625 -0.375 -1.09375q-0.375 -0.4375 -1.140625 -0.4375q-0.5 0 -0.984375 0.21875q-0.484375 0.203125 -0.828125 0.46875l-0.4375 -0.765625q0.46875 -0.390625 1.109375 -0.609375q0.640625 -0.234375 1.375 -0.234375q0.5625 0 1.0 0.171875q0.453125 0.15625 0.75 0.46875q0.3125 0.296875 0.46875 0.71875q0.15625 0.421875 0.15625 0.921875z" fill-rule="nonzero"/><path fill="#000000" d="m192.72539 142.79164q0.453125 0 0.828125 -0.140625q0.390625 -0.140625 0.671875 -0.390625q0.28125 -0.265625 0.4375 -0.625q0.15625 -0.359375 0.15625 -0.78125q0 -0.9375 -0.546875 -1.390625q-0.546875 -0.453125 -1.53125 -0.453125l-0.984375 0l0 -0.390625l1.921875 -2.953125l0.609375 -0.59375l-0.859375 0.140625l-2.640625 0l0 -0.984375l4.75 0l0 0.390625l-2.109375 3.1875l-0.46875 0.375l0 0.03125l0.453125 -0.09375q0.53125 0.015625 0.984375 0.203125q0.453125 0.171875 0.78125 0.515625q0.34375 0.328125 0.53125 0.8125q0.1875 0.46875 0.1875 1.0625q0 0.71875 -0.265625 1.28125q-0.25 0.5625 -0.6875 0.953125q-0.421875 0.375 -1.015625 0.578125q-0.578125 0.1875 -1.234375 0.1875q-0.59375 0 -1.078125 -0.09375q-0.484375 -0.09375 -0.84375 -0.234375l0.28125 -0.953125q0.3125 0.15625 0.71875 0.265625q0.421875 0.09375 0.953125 0.09375z" fill-rule="nonzero"/><path fill="#000000" d="m246.49553 140.69789l-1.578125 0l0 2.859375l-1.03125 0l0 -2.859375l-4.109375 0l0 -0.453125l4.421875 -6.15625l0.71875 0l0 5.671875l1.578125 0l0 0.9375zm-2.609375 -3.84375l0.125 -1.09375l-0.03125 0l-0.46875 0.90625l-1.875 2.546875l-0.640625 0.65625l0.921875 -0.109375l1.96875 0l0 -2.90625z" fill-rule="nonzero"/><path fill="#000000" d="m292.26566 142.79164q0.921875 0 1.515625 -0.53125q0.59375 -0.546875 0.59375 -1.5625q0 -0.96875 -0.59375 -1.4375q-0.59375 -0.484375 -1.625 -0.484375l-1.125 0.0625l0 -4.609375l4.15625 0l0 0.984375l-3.15625 0l0 2.65625l0.578125 -0.03125q1.3125 0.015625 2.078125 0.734375q0.765625 0.71875 0.765625 2.0625q0 0.75 -0.265625 1.328125q-0.25 0.578125 -0.6875 0.96875q-0.421875 0.390625 -1.015625 0.59375q-0.578125 0.1875 -1.25 0.1875q-0.59375 0 -1.015625 -0.0625q-0.40625 -0.0625 -0.765625 -0.203125l0.28125 -0.90625q0.296875 0.125 0.640625 0.1875q0.359375 0.0625 0.890625 0.0625z" fill-rule="nonzero"/><path fill="#000000" d="m345.89517 140.74477q0 0.609375 -0.1875 1.15625q-0.1875 0.53125 -0.546875 0.9375q-0.359375 0.40625 -0.90625 0.640625q-0.53125 0.234375 -1.203125 0.234375q-0.671875 0 -1.203125 -0.203125q-0.53125 -0.21875 -0.921875 -0.640625q-0.375 -0.421875 -0.59375 -1.03125q-0.203125 -0.609375 -0.203125 -1.40625q0 -1.328125 0.34375 -2.4375q0.34375 -1.109375 0.9375 -1.9375q0.59375 -0.828125 1.40625 -1.34375q0.828125 -0.515625 1.796875 -0.640625l0.21875 0.84375q-0.734375 0.140625 -1.359375 0.515625q-0.609375 0.375 -1.078125 0.921875q-0.453125 0.546875 -0.75 1.234375q-0.28125 0.671875 -0.390625 1.390625q0.203125 -0.359375 0.703125 -0.65625q0.515625 -0.3125 1.25 -0.3125q1.25 0 1.96875 0.71875q0.71875 0.71875 0.71875 2.015625zm-1.109375 0.109375q0 -0.953125 -0.4375 -1.421875q-0.4375 -0.484375 -1.359375 -0.484375q-0.65625 0 -1.140625 0.328125q-0.46875 0.3125 -0.65625 0.703125q-0.015625 0.1875 -0.015625 0.3125q0 0.125 0 0.265625q0 0.421875 0.109375 0.828125q0.109375 0.390625 0.34375 0.703125q0.25 0.3125 0.59375 0.515625q0.359375 0.1875 0.84375 0.1875q0.390625 0 0.703125 -0.140625q0.3125 -0.15625 0.53125 -0.40625q0.234375 -0.265625 0.359375 -0.625q0.125 -0.359375 0.125 -0.765625z" fill-rule="nonzero"/><path fill="#000000" d="m390.7122 143.55727l3.34375 -7.8125l0.578125 -0.65625l-0.78125 0.125l-3.796875 0l0 -0.984375l5.578125 0l0 0.359375l-3.84375 8.96875l-1.078125 0z" fill-rule="nonzero"/><path fill="#000000" d="m440.06046 141.33852q0 -0.84375 0.4375 -1.46875q0.4375 -0.625 1.375 -1.125q-0.328125 -0.203125 -0.625 -0.421875q-0.28125 -0.21875 -0.5 -0.5q-0.21875 -0.28125 -0.34375 -0.625q-0.125 -0.34375 -0.125 -0.796875q0 -0.515625 0.171875 -0.9375q0.1875 -0.4375 0.515625 -0.734375q0.34375 -0.3125 0.8125 -0.484375q0.484375 -0.171875 1.078125 -0.171875q0.5625 0 1.015625 0.15625q0.453125 0.15625 0.765625 0.4375q0.3125 0.28125 0.484375 0.671875q0.171875 0.375 0.171875 0.84375q0 0.765625 -0.34375 1.34375q-0.34375 0.578125 -1.140625 1.140625q0.34375 0.203125 0.65625 0.4375q0.3125 0.234375 0.546875 0.53125q0.234375 0.296875 0.359375 0.671875q0.140625 0.359375 0.140625 0.828125q0 0.5625 -0.1875 1.046875q-0.1875 0.46875 -0.546875 0.8125q-0.359375 0.328125 -0.890625 0.53125q-0.515625 0.1875 -1.171875 0.1875q-0.640625 0 -1.140625 -0.1875q-0.484375 -0.1875 -0.828125 -0.5q-0.34375 -0.328125 -0.515625 -0.75q-0.171875 -0.4375 -0.171875 -0.9375zm4.40625 -0.140625q0 -0.40625 -0.15625 -0.703125q-0.15625 -0.296875 -0.421875 -0.546875q-0.25 -0.25 -0.59375 -0.4375q-0.328125 -0.203125 -0.6875 -0.390625q-0.8125 0.453125 -1.15625 1.015625q-0.34375 0.5625 -0.34375 1.0625q0 0.3125 0.09375 0.609375q0.109375 0.296875 0.3125 0.515625q0.21875 0.203125 0.53125 0.34375q0.328125 0.125 0.734375 0.125q0.328125 0 0.640625 -0.09375q0.3125 -0.109375 0.53125 -0.296875q0.234375 -0.203125 0.375 -0.5q0.140625 -0.296875 0.140625 -0.703125zm-3.15625 -4.828125q0 0.375 0.140625 0.671875q0.15625 0.28125 0.40625 0.515625q0.25 0.21875 0.5625 0.421875q0.3125 0.1875 0.671875 0.359375q0.59375 -0.46875 0.875 -0.921875q0.296875 -0.453125 0.296875 -1.0q0 -0.6875 -0.421875 -1.046875q-0.421875 -0.375 -1.015625 -0.375q-0.359375 0 -0.640625 0.125q-0.265625 0.125 -0.46875 0.3125q-0.203125 0.1875 -0.3125 0.4375q-0.09375 0.234375 -0.09375 0.5z" fill-rule="nonzero"/><path fill="#000000" d="m489.75244 137.05727q0 -0.640625 0.1875 -1.1875q0.1875 -0.546875 0.546875 -0.9375q0.359375 -0.40625 0.890625 -0.625q0.546875 -0.234375 1.265625 -0.234375q1.359375 0 2.125 0.875q0.765625 0.875 0.765625 2.484375q0 1.5 -0.34375 2.625q-0.34375 1.125 -0.953125 1.90625q-0.59375 0.765625 -1.40625 1.203125q-0.8125 0.4375 -1.78125 0.546875l-0.234375 -0.84375q0.765625 -0.125 1.390625 -0.453125q0.625 -0.34375 1.0625 -0.84375q0.453125 -0.515625 0.734375 -1.15625q0.28125 -0.640625 0.375 -1.40625q-0.359375 0.421875 -0.796875 0.59375q-0.421875 0.171875 -1.125 0.171875q-0.546875 0 -1.046875 -0.171875q-0.484375 -0.1875 -0.859375 -0.53125q-0.359375 -0.359375 -0.578125 -0.859375q-0.21875 -0.5 -0.21875 -1.15625zm1.109375 -0.109375q0 0.9375 0.5 1.421875q0.5 0.46875 1.3125 0.46875q0.65625 0 1.125 -0.203125q0.46875 -0.21875 0.65625 -0.5625q0.03125 -0.1875 0.03125 -0.3125q0 -0.140625 0 -0.28125q0 -0.484375 -0.109375 -0.921875q-0.109375 -0.453125 -0.34375 -0.796875q-0.21875 -0.359375 -0.59375 -0.5625q-0.359375 -0.203125 -0.859375 -0.203125q-0.8125 0 -1.265625 0.515625q-0.453125 0.515625 -0.453125 1.4375z" fill-rule="nonzero"/><path fill="#000000" d="m536.7813 142.57289l1.875 0l0 -6.453125l0.125 -0.78125l-0.53125 0.625l-1.46875 1.046875l-0.5 -0.671875l2.921875 -2.265625l0.484375 0l0 8.5l1.828125 0l0 0.984375l-4.734375 0l0 -0.984375zm6.404419 -3.6875q0 -2.390625 0.765625 -3.59375q0.78125 -1.21875 2.28125 -1.21875q1.609375 0 2.328125 1.1875q0.734375 1.1875 0.734375 3.625q0 2.40625 -0.78125 3.625q-0.78125 1.203125 -2.28125 1.203125q-1.578125 0 -2.3125 -1.265625q-0.734375 -1.265625 -0.734375 -3.5625zm1.09375 0q0 0.875 0.109375 1.59375q0.125 0.703125 0.359375 1.21875q0.25 0.515625 0.609375 0.8125q0.375 0.28125 0.875 0.28125q1.015625 0 1.484375 -0.9375q0.46875 -0.953125 0.46875 -2.96875q0 -0.84375 -0.09375 -1.5625q-0.09375 -0.71875 -0.328125 -1.234375q-0.234375 -0.53125 -0.609375 -0.8125q-0.375 -0.28125 -0.921875 -0.28125q-1.0 0 -1.484375 0.953125q-0.46875 0.953125 -0.46875 2.9375z" fill-rule="nonzero"/><path fill="#000000" d="m586.6921 142.57289l1.875 0l0 -6.453125l0.125 -0.78125l-0.53125 0.625l-1.46875 1.046875l-0.5 -0.671875l2.921875 -2.265625l0.484375 0l0 8.5l1.828125 0l0 0.984375l-4.734375 0l0 -0.984375zm7.263794 0l1.875 0l0 -6.453125l0.125 -0.78125l-0.53125 0.625l-1.46875 1.046875l-0.5 -0.671875l2.921875 -2.265625l0.484375 0l0 8.5l1.828125 0l0 0.984375l-4.734375 0l0 -0.984375z" fill-rule="nonzero"/><path fill="#000000" d="m636.60284 142.57289l1.875 0l0 -6.453125l0.125 -0.78125l-0.53125 0.625l-1.46875 1.046875l-0.5 -0.671875l2.921875 -2.265625l0.484375 0l0 8.5l1.828125 0l0 0.984375l-4.734375 0l0 -0.984375zm11.763794 -6.21875q0 0.703125 -0.265625 1.4375q-0.25 0.734375 -0.671875 1.484375q-0.421875 0.75 -0.9375 1.46875q-0.515625 0.703125 -1.03125 1.34375l-0.65625 0.578125l0 0.046875l0.84375 -0.140625l2.90625 0l0 0.984375l-5.296875 0l0 -0.390625q0.296875 -0.296875 0.703125 -0.75q0.421875 -0.453125 0.859375 -1.0q0.453125 -0.5625 0.875 -1.171875q0.4375 -0.625 0.78125 -1.265625q0.359375 -0.640625 0.578125 -1.265625q0.21875 -0.640625 0.21875 -1.1875q0 -0.65625 -0.375 -1.09375q-0.375 -0.4375 -1.140625 -0.4375q-0.5 0 -0.984375 0.21875q-0.484375 0.203125 -0.828125 0.46875l-0.4375 -0.765625q0.46875 -0.390625 1.109375 -0.609375q0.640625 -0.234375 1.375 -0.234375q0.5625 0 1.0 0.171875q0.453125 0.15625 0.75 0.46875q0.3125 0.296875 0.46875 0.71875q0.15625 0.421875 0.15625 0.921875z" fill-rule="nonzero"/><path fill="#000000" d="m686.5136 142.57289l1.875 0l0 -6.453125l0.125 -0.78125l-0.53125 0.625l-1.46875 1.046875l-0.5 -0.671875l2.921875 -2.265625l0.484375 0l0 8.5l1.828125 0l0 0.984375l-4.734375 0l0 -0.984375zm8.951294 0.21875q0.453125 0 0.828125 -0.140625q0.390625 -0.140625 0.671875 -0.390625q0.28125 -0.265625 0.4375 -0.625q0.15625 -0.359375 0.15625 -0.78125q0 -0.9375 -0.546875 -1.390625q-0.546875 -0.453125 -1.53125 -0.453125l-0.984375 0l0 -0.390625l1.921875 -2.953125l0.609375 -0.59375l-0.859375 0.140625l-2.640625 0l0 -0.984375l4.75 0l0 0.390625l-2.109375 3.1875l-0.46875 0.375l0 0.03125l0.453125 -0.09375q0.53125 0.015625 0.984375 0.203125q0.453125 0.171875 0.78125 0.515625q0.34375 0.328125 0.53125 0.8125q0.1875 0.46875 0.1875 1.0625q0 0.71875 -0.265625 1.28125q-0.25 0.5625 -0.6875 0.953125q-0.421875 0.375 -1.015625 0.578125q-0.578125 0.1875 -1.234375 0.1875q-0.59375 0 -1.078125 -0.09375q-0.484375 -0.09375 -0.84375 -0.234375l0.28125 -0.953125q0.3125 0.15625 0.71875 0.265625q0.421875 0.09375 0.953125 0.09375z" fill-rule="nonzero"/><path fill="#000000" d="m736.4244 142.57289l1.875 0l0 -6.453125l0.125 -0.78125l-0.53125 0.625l-1.46875 1.046875l-0.5 -0.671875l2.921875 -2.265625l0.484375 0l0 8.5l1.828125 0l0 0.984375l-4.734375 0l0 -0.984375zm12.810669 -1.875l-1.578125 0l0 2.859375l-1.03125 0l0 -2.859375l-4.109375 0l0 -0.453125l4.421875 -6.15625l0.71875 0l0 5.671875l1.578125 0l0 0.9375zm-2.609375 -3.84375l0.125 -1.09375l-0.03125 0l-0.46875 0.90625l-1.875 2.546875l-0.640625 0.65625l0.921875 -0.109375l1.96875 0l0 -2.90625z" fill-rule="nonzero"/><path fill="#000000" d="m786.33514 142.57289l1.875 0l0 -6.453125l0.125 -0.78125l-0.53125 0.625l-1.46875 1.046875l-0.5 -0.671875l2.921875 -2.265625l0.484375 0l0 8.5l1.828125 0l0 0.984375l-4.734375 0l0 -0.984375zm8.670044 0.21875q0.921875 0 1.515625 -0.53125q0.59375 -0.546875 0.59375 -1.5625q0 -0.96875 -0.59375 -1.4375q-0.59375 -0.484375 -1.625 -0.484375l-1.125 0.0625l0 -4.609375l4.15625 0l0 0.984375l-3.15625 0l0 2.65625l0.578125 -0.03125q1.3125 0.015625 2.078125 0.734375q0.765625 0.71875 0.765625 2.0625q0 0.75 -0.265625 1.328125q-0.25 0.578125 -0.6875 0.96875q-0.421875 0.390625 -1.015625 0.59375q-0.578125 0.1875 -1.25 0.1875q-0.59375 0 -1.015625 -0.0625q-0.40625 -0.0625 -0.765625 -0.203125l0.28125 -0.90625q0.296875 0.125 0.640625 0.1875q0.359375 0.0625 0.890625 0.0625z" fill-rule="nonzero"/><path fill="#000000" d="m28.863327 172.20119q0.5 0 1.0 -0.46875q0.515625 -0.484375 0.953125 -1.15625q0.453125 -0.671875 0.796875 -1.390625q0.359375 -0.734375 0.578125 -1.21875l0.59375 -3.1875q-0.28125 -0.1875 -0.515625 -0.25q-0.234375 -0.0625 -0.65625 -0.078125q-0.90625 0.015625 -1.609375 0.546875q-0.703125 0.53125 -1.203125 1.359375q-0.484375 0.828125 -0.734375 1.859375q-0.25 1.015625 -0.25 2.015625q0 0.953125 0.234375 1.46875q0.234375 0.5 0.8125 0.5zm2.953125 -2.71875q-0.25 0.671875 -0.625 1.359375q-0.375 0.6875 -0.84375 1.25q-0.46875 0.5625 -1.046875 0.921875q-0.5625 0.34375 -1.21875 0.34375q-1.9375 0 -1.9375 -2.828125q0 -1.328125 0.359375 -2.5625q0.375 -1.25 1.078125 -2.203125q0.71875 -0.96875 1.71875 -1.546875q1.015625 -0.578125 2.3125 -0.578125q0.484375 0 0.71875 0.078125q0.25 0.0625 0.625 0.21875l0.703125 -3.515625l-1.3125 -0.171875l0 -0.46875q0.28125 -0.109375 0.609375 -0.203125q0.34375 -0.109375 0.703125 -0.1875q0.375 -0.09375 0.75 -0.171875q0.375 -0.078125 0.6875 -0.109375l0.390625 0.15625l-2.5625 12.84375l1.375 0l0 0.46875q-0.375 0.296875 -0.90625 0.484375q-0.515625 0.1875 -1.015625 0.1875q-0.546875 0 -0.78125 -0.234375q-0.234375 -0.234375 -0.234375 -0.484375q0 -0.34375 0.125 -1.109375q0.140625 -0.765625 0.390625 -1.9375l-0.0625 0zm4.2310944 0.1875q0 -0.984375 0.296875 -2.0625q0.3125 -1.078125 0.953125 -1.96875q0.640625 -0.890625 1.578125 -1.46875q0.953125 -0.578125 2.234375 -0.578125q1.453125 0 2.1875 0.890625q0.734375 0.890625 0.734375 2.65625q0 1.21875 -0.359375 2.359375q-0.34375 1.125 -0.984375 1.984375q-0.640625 0.859375 -1.53125 1.375q-0.890625 0.5 -1.96875 0.5q-1.4375 0 -2.296875 -0.921875q-0.84375 -0.921875 -0.84375 -2.765625zm4.6875 -5.28125q-0.921875 0.015625 -1.5 0.59375q-0.578125 0.578125 -0.921875 1.4375q-0.328125 0.859375 -0.46875 1.859375q-0.125 0.984375 -0.125 1.796875q0 1.109375 0.484375 1.796875q0.5 0.6875 1.3125 0.6875q0.65625 0 1.15625 -0.484375q0.515625 -0.5 0.875 -1.3125q0.375 -0.8125 0.5625 -1.84375q0.203125 -1.03125 0.203125 -2.0625q0 -1.109375 -0.390625 -1.78125q-0.375 -0.671875 -1.1875 -0.6875zm9.261658 -0.796875q0.9062538 0 1.4687538 0.21875q0.5625 0.21875 0.890625 0.484375q0.171875 -0.15625 0.4375 -0.296875q0.28125 -0.15625 0.59375 -0.28125q0.328125 -0.125 0.65625 -0.234375q0.34375 -0.125 0.640625 -0.21875q0.0625 0.09375 0.09375 0.28125q0.03125 0.1875 0.015625 0.421875q0 0.21875 -0.0625 0.453125q-0.0625 0.234375 -0.203125 0.421875l-1.921875 -0.140625q0.0625 0.171875 0.109375 0.390625q0.0625 0.21875 0.0625 0.46875q0 0.75 -0.3125 1.390625q-0.296875 0.625 -0.84375 1.09375q-0.53125 0.453125 -1.2500038 0.71875q-0.71875 0.25 -1.53125 0.25q-0.3125 0 -0.515625 0q-0.1875 -0.015625 -0.4375 -0.078125q-0.15625 0.1875 -0.453125 0.453125q-0.28125 0.25 -0.28125 0.546875q0 0.3125 0.40625 0.484375q0.40625 0.15625 1.03125 0.296875q0.625 0.140625 1.34375 0.3125q0.7343788 0.15625 1.3593788 0.421875q0.625 0.265625 1.03125 0.703125q0.421875 0.421875 0.421875 1.140625q0 0.875 -0.5 1.5625q-0.484375 0.703125 -1.296875 1.203125q-0.8125038 0.5 -1.8593788 0.765625q-1.03125 0.265625 -2.09375 0.265625q-0.859375 0 -1.484375 -0.1875q-0.609375 -0.171875 -1.0 -0.484375q-0.390625 -0.296875 -0.578125 -0.6875q-0.1875 -0.390625 -0.1875 -0.828125q0 -0.515625 0.234375 -0.96875q0.234375 -0.4375 0.625 -0.84375q0.390625 -0.40625 0.890625 -0.734375q0.515625 -0.34375 1.046875 -0.640625q-0.265625 -0.140625 -0.453125 -0.390625q-0.171875 -0.265625 -0.171875 -0.578125q0 -0.28125 0.1875 -0.578125q0.1875 -0.3125 0.4375 -0.59375q0.25 -0.28125 0.5 -0.484375q0.25 -0.203125 0.390625 -0.296875q-0.234375 -0.0625 -0.46875 -0.203125q-0.234375 -0.15625 -0.4375 -0.390625q-0.203125 -0.25 -0.34375 -0.5625q-0.125 -0.328125 -0.125 -0.71875q0 -0.71875 0.3125 -1.328125q0.3125 -0.625 0.84375 -1.0625q0.546875 -0.4375 1.25 -0.6875q0.71875 -0.25 1.53125 -0.25zm-2.140625 12.703125q0.578125 0 1.140625 -0.171875q0.578125 -0.171875 1.03125 -0.484375q0.453125 -0.296875 0.7343788 -0.765625q0.296875 -0.453125 0.296875 -1.03125q0 -0.546875 -0.453125 -0.859375q-0.4531288 -0.3125 -1.1093788 -0.5q-0.65625 -0.1875 -1.359375 -0.296875q-0.6875 -0.125 -1.1875 -0.296875q-0.890625 0.640625 -1.21875 1.328125q-0.3125 0.6875 -0.296875 1.28125q-0.015625 0.84375 0.640625 1.3125q0.65625 0.484375 1.78125 0.484375zm2.0 -11.96875q-0.546875 0 -0.96875 0.21875q-0.421875 0.203125 -0.71875 0.546875q-0.296875 0.34375 -0.453125 0.8125q-0.140625 0.46875 -0.140625 0.984375q0 0.703125 0.453125 1.046875q0.46875 0.328125 0.984375 0.328125q0.5625 0 0.953125 -0.1875q0.40625 -0.203125 0.6718788 -0.53125q0.28125 -0.34375 0.40625 -0.765625q0.140625 -0.4375 0.140625 -0.890625q0 -0.703125 -0.328125 -1.125q-0.3281288 -0.4375 -1.0000038 -0.4375zm8.794788 6.609375q-0.015625 -0.453125 -0.25 -0.765625q-0.234375 -0.328125 -0.59375 -0.625q-0.359375 -0.3125 -0.78125 -0.609375q-0.40625 -0.296875 -0.765625 -0.65625q-0.359375 -0.359375 -0.59375 -0.828125q-0.234375 -0.484375 -0.234375 -1.15625q0 -0.671875 0.25 -1.171875q0.265625 -0.515625 0.71875 -0.84375q0.46875 -0.34375 1.109375 -0.515625q0.640625 -0.171875 1.40625 -0.171875q0.484375 0 1.09375 0.078125q0.609375 0.078125 1.140625 0.40625q0 0.203125 -0.078125 0.46875q-0.0625 0.265625 -0.1875 0.53125q-0.125 0.25 -0.28125 0.46875q-0.140625 0.203125 -0.296875 0.28125l-1.390625 -1.4375q-0.390625 0.015625 -0.734375 0.09375q-0.328125 0.078125 -0.578125 0.25q-0.25 0.15625 -0.390625 0.4375q-0.140625 0.265625 -0.140625 0.671875q0 0.484375 0.234375 0.828125q0.25 0.34375 0.609375 0.65625q0.375 0.3125 0.78125 0.609375q0.421875 0.28125 0.78125 0.640625q0.375 0.359375 0.609375 0.84375q0.25 0.46875 0.25 1.125q0 0.671875 -0.3125 1.203125q-0.296875 0.515625 -0.84375 0.875q-0.53125 0.359375 -1.234375 0.546875q-0.6875 0.1875 -1.46875 0.1875q-0.78125 0 -1.4375 -0.15625q-0.640625 -0.15625 -1.015625 -0.390625q0.09375 -0.5 0.21875 -0.953125q0.140625 -0.453125 0.546875 -0.84375l1.6875 1.546875q0.390625 0 0.765625 -0.09375q0.390625 -0.09375 0.6875 -0.296875q0.3125 -0.203125 0.5 -0.5q0.203125 -0.296875 0.21875 -0.734375z" fill-rule="nonzero"/><path fill="#000000" d="m77.12772 160.41994l-1.328125 -0.171875l0 -0.46875q0.265625 -0.109375 0.609375 -0.21875q0.34375 -0.109375 0.71875 -0.21875q0.390625 -0.109375 0.765625 -0.171875q0.375 -0.0625 0.671875 -0.0625l0.375 0.203125l-2.578125 12.78125l1.359375 0l0 0.484375q-0.375 0.296875 -0.90625 0.484375q-0.53125 0.1875 -1.03125 0.1875q-0.546875 0 -0.796875 -0.234375q-0.25 -0.25 -0.25 -0.5625q0 -0.375 0.046875 -0.71875q0.0625 -0.359375 0.15625 -0.796875l2.1875 -10.515625zm2.6834106 9.25q0 -0.984375 0.296875 -2.0625q0.3125 -1.078125 0.953125 -1.96875q0.640625 -0.890625 1.578125 -1.46875q0.953125 -0.578125 2.234375 -0.578125q1.453125 0 2.1875 0.890625q0.734375 0.890625 0.734375 2.65625q0 1.21875 -0.359375 2.359375q-0.34375 1.125 -0.984375 1.984375q-0.640625 0.859375 -1.53125 1.375q-0.890625 0.5 -1.96875 0.5q-1.4375 0 -2.296875 -0.921875q-0.84375 -0.921875 -0.84375 -2.765625zm4.6875 -5.28125q-0.921875 0.015625 -1.5 0.59375q-0.578125 0.578125 -0.921875 1.4375q-0.328125 0.859375 -0.46875 1.859375q-0.125 0.984375 -0.125 1.796875q0 1.109375 0.484375 1.796875q0.5 0.6875 1.3125 0.6875q0.65625 0 1.15625 -0.484375q0.515625 -0.5 0.875 -1.3125q0.375 -0.8125 0.5625 -1.84375q0.203125 -1.03125 0.203125 -2.0625q0 -1.109375 -0.390625 -1.78125q-0.375 -0.671875 -1.1875 -0.6875zm8.683533 5.9375q0.671875 -1.125 1.1875 -2.171875q0.53125 -1.0625 0.90625 -2.125q0 -0.203125 -0.046875 -0.53125q-0.046875 -0.328125 -0.09375 -0.65625q-0.046875 -0.34375 -0.109375 -0.625q-0.046875 -0.296875 -0.078125 -0.40625q0.53125 -0.21875 1.09375 -0.234375q0.578125 -0.015625 1.0 0.234375q-0.265625 1.15625 -0.765625 2.359375q-0.484375 1.203125 -1.109375 2.40625q-0.625 1.1875 -1.359375 2.34375q-0.734375 1.15625 -1.53125 2.21875l-0.875 0.21875l-1.390625 -8.46875l-1.1875 -0.140625l0 -0.46875q0.109375 -0.078125 0.328125 -0.1875q0.234375 -0.125 0.5 -0.234375q0.265625 -0.125 0.546875 -0.1875q0.296875 -0.078125 0.5625 -0.078125q0.40625 0 0.578125 0.203125q0.1875 0.203125 0.25 0.5l0.859375 6.0625l0.09375 1.171875l0.03125 0l0.609375 -1.203125zm10.805885 1.15625q-0.171875 0.34375 -0.484375 0.6875q-0.3125 0.328125 -0.75 0.609375q-0.421875 0.265625 -0.96875 0.421875q-0.53125 0.15625 -1.15625 0.15625q-1.5468826 0 -2.3750076 -0.875q-0.828125 -0.890625 -0.828125 -2.453125q0 -1.328125 0.375 -2.5q0.375 -1.1875 1.03125 -2.0625q0.671875 -0.875 1.6250076 -1.375q0.96875 -0.5 2.15625 -0.5q0.890625 0 1.53125 0.453125q0.640625 0.453125 0.640625 1.34375q0 1.328125 -1.3125 2.09375q-1.3125 0.765625 -4.2343826 0.984375q-0.078125 0.328125 -0.109375 0.625q-0.03125 0.296875 -0.03125 0.578125q0 1.125 0.5625 1.828125q0.578125 0.703125 1.6875076 0.703125q0.34375 0 0.6875 -0.109375q0.34375 -0.109375 0.65625 -0.28125q0.3125 -0.171875 0.5625 -0.34375q0.25 -0.1875 0.4375 -0.34375l0.296875 0.359375zm-1.953125 -7.09375q-0.8125 0.015625 -1.5 0.765625q-0.6875076 0.734375 -1.1718826 2.515625q1.8125076 -0.046875 2.8125076 -0.609375q1.015625 -0.578125 1.015625 -1.59375q0 -0.390625 -0.234375 -0.71875q-0.234375 -0.34375 -0.921875 -0.359375zm7.860565 6.546875q-0.015625 -0.453125 -0.25 -0.765625q-0.234375 -0.328125 -0.59375 -0.625q-0.359375 -0.3125 -0.78125 -0.609375q-0.40625 -0.296875 -0.765625 -0.65625q-0.359375 -0.359375 -0.59375 -0.828125q-0.234375 -0.484375 -0.234375 -1.15625q0 -0.671875 0.25 -1.171875q0.265625 -0.515625 0.71875 -0.84375q0.46875 -0.34375 1.109375 -0.515625q0.640625 -0.171875 1.40625 -0.171875q0.484375 0 1.09375 0.078125q0.609375 0.078125 1.140625 0.40625q0 0.203125 -0.078125 0.46875q-0.0625 0.265625 -0.1875 0.53125q-0.125 0.25 -0.28125 0.46875q-0.140625 0.203125 -0.296875 0.28125l-1.390625 -1.4375q-0.390625 0.015625 -0.734375 0.09375q-0.328125 0.078125 -0.578125 0.25q-0.25 0.15625 -0.390625 0.4375q-0.140625 0.265625 -0.140625 0.671875q0 0.484375 0.234375 0.828125q0.25 0.34375 0.609375 0.65625q0.375 0.3125 0.78125 0.609375q0.421875 0.28125 0.78125 0.640625q0.375 0.359375 0.609375 0.84375q0.25 0.46875 0.25 1.125q0 0.671875 -0.3125 1.203125q-0.296875 0.515625 -0.84375 0.875q-0.53125 0.359375 -1.234375 0.546875q-0.6875 0.1875 -1.46875 0.1875q-0.78125 0 -1.4375 -0.15625q-0.640625 -0.15625 -1.015625 -0.390625q0.09375 -0.5 0.21875 -0.953125q0.140625 -0.453125 0.546875 -0.84375l1.6875 1.546875q0.390625 0 0.765625 -0.09375q0.390625 -0.09375 0.6875 -0.296875q0.3125 -0.203125 0.5 -0.5q0.203125 -0.296875 0.21875 -0.734375z" fill-rule="nonzero"/><path fill="#000000" d="m138.32928 171.48244q-0.203125 0.34375 -0.53125 0.6875q-0.3125 0.328125 -0.75 0.609375q-0.421875 0.265625 -0.953125 0.421875q-0.53125 0.15625 -1.15625 0.15625q-1.390625 0 -2.1875 -0.875q-0.796875 -0.875 -0.796875 -2.390625q0 -1.34375 0.421875 -2.515625q0.4375 -1.1875 1.171875 -2.078125q0.734375 -0.890625 1.734375 -1.390625q1.0 -0.515625 2.140625 -0.515625q0.703125 0 1.140625 0.109375q0.453125 0.109375 0.6875 0.3125q0.015625 0.203125 -0.03125 0.46875q-0.046875 0.25 -0.15625 0.5q-0.09375 0.234375 -0.265625 0.4375q-0.15625 0.203125 -0.3125 0.28125l-1.28125 -1.3125q-0.625 0.015625 -1.25 0.390625q-0.625 0.375 -1.125 1.0625q-0.484375 0.6875 -0.796875 1.671875q-0.3125 0.984375 -0.296875 2.203125q-0.015625 1.296875 0.515625 1.890625q0.53125 0.59375 1.453125 0.59375q0.390625 0 0.734375 -0.109375q0.34375 -0.109375 0.640625 -0.28125q0.296875 -0.171875 0.53125 -0.34375q0.25 -0.1875 0.4375 -0.34375l0.28125 0.359375zm4.372467 0.71875q0.5 0 1.0 -0.46875q0.5 -0.484375 0.953125 -1.15625q0.453125 -0.671875 0.796875 -1.390625q0.359375 -0.734375 0.5625 -1.21875l0.59375 -3.1875q-0.25 -0.1875 -0.5 -0.25q-0.234375 -0.078125 -0.671875 -0.078125q-0.859375 0 -1.5625 0.53125q-0.6875 0.53125 -1.1875 1.375q-0.5 0.828125 -0.765625 1.859375q-0.265625 1.015625 -0.265625 2.015625q0 0.953125 0.234375 1.46875q0.234375 0.5 0.8125 0.5zm2.9375 -2.71875q-0.234375 0.671875 -0.609375 1.359375q-0.359375 0.6875 -0.84375 1.25q-0.46875 0.5625 -1.046875 0.921875q-0.578125 0.34375 -1.21875 0.34375q-1.953125 0 -1.953125 -2.8125q0 -1.3125 0.375 -2.546875q0.375 -1.234375 1.078125 -2.203125q0.71875 -0.984375 1.734375 -1.5625q1.015625 -0.59375 2.296875 -0.59375q0.46875 0 0.75 0.09375q0.28125 0.078125 0.671875 0.25q0.75 -0.390625 1.5625 -0.390625l-1.671875 8.515625l1.359375 0l0 0.46875q-0.375 0.296875 -0.90625 0.484375q-0.515625 0.1875 -1.015625 0.1875q-0.53125 0 -0.765625 -0.234375q-0.234375 -0.234375 -0.234375 -0.484375q0 -0.34375 0.125 -1.109375q0.125 -0.765625 0.390625 -1.9375l-0.078125 0zm4.5123444 -5.21875q0.375 -0.203125 0.796875 -0.375q0.421875 -0.171875 0.828125 -0.265625l0.296875 -1.421875q0.265625 -0.203125 0.609375 -0.359375q0.34375 -0.15625 0.71875 -0.3125l0.390625 0.234375l-0.4375 2.046875l2.3125 0q0.03125 0.21875 -0.015625 0.46875q-0.03125 0.234375 -0.171875 0.46875l-2.3125 0l-1.1875 5.40625q-0.0625 0.359375 -0.109375 0.625q-0.03125 0.265625 -0.03125 0.5q0 0.484375 0.28125 0.703125q0.28125 0.21875 0.609375 0.21875q0.46875 0 1.0 -0.171875q0.53125 -0.171875 0.984375 -0.40625l0.203125 0.34375q-0.171875 0.234375 -0.515625 0.484375q-0.328125 0.234375 -0.75 0.453125q-0.421875 0.203125 -0.875 0.328125q-0.453125 0.125 -0.859375 0.125q-0.828125 0 -1.296875 -0.359375q-0.46875 -0.375 -0.46875 -1.171875q0 -0.25 0.046875 -0.5625q0.046875 -0.328125 0.125 -0.65625l1.234375 -5.859375l-1.421875 0l0.015625 -0.484375z" fill-rule="nonzero"/><path fill="#000000" d="m180.16287 171.48244q-0.171875 0.34375 -0.484375 0.6875q-0.3125 0.328125 -0.75 0.609375q-0.421875 0.265625 -0.96875 0.421875q-0.53125 0.15625 -1.15625 0.15625q-1.546875 0 -2.375 -0.875q-0.828125 -0.890625 -0.828125 -2.453125q0 -1.328125 0.375 -2.5q0.375 -1.1875 1.03125 -2.0625q0.671875 -0.875 1.625 -1.375q0.96875 -0.5 2.15625 -0.5q0.890625 0 1.53125 0.453125q0.640625 0.453125 0.640625 1.34375q0 1.328125 -1.3125 2.09375q-1.3125 0.765625 -4.234375 0.984375q-0.078125 0.328125 -0.109375 0.625q-0.03125 0.296875 -0.03125 0.578125q0 1.125 0.5625 1.828125q0.578125 0.703125 1.6875 0.703125q0.34375 0 0.6875 -0.109375q0.34375 -0.109375 0.65625 -0.28125q0.3125 -0.171875 0.5625 -0.34375q0.25 -0.1875 0.4375 -0.34375l0.296875 0.359375zm-1.953125 -7.09375q-0.8125 0.015625 -1.5 0.765625q-0.6875 0.734375 -1.171875 2.515625q1.8125 -0.046875 2.8125 -0.609375q1.015625 -0.578125 1.015625 -1.59375q0 -0.390625 -0.234375 -0.71875q-0.234375 -0.34375 -0.921875 -0.359375zm7.7698517 5.9375q0.671875 -1.125 1.1875 -2.171875q0.53125 -1.0625 0.90625 -2.125q0 -0.203125 -0.046875 -0.53125q-0.046875 -0.328125 -0.09375 -0.65625q-0.046875 -0.34375 -0.109375 -0.625q-0.046875 -0.296875 -0.078125 -0.40625q0.53125 -0.21875 1.09375 -0.234375q0.578125 -0.015625 1.0 0.234375q-0.265625 1.15625 -0.765625 2.359375q-0.484375 1.203125 -1.109375 2.40625q-0.625 1.1875 -1.359375 2.34375q-0.734375 1.15625 -1.53125 2.21875l-0.875 0.21875l-1.390625 -8.46875l-1.1875 -0.140625l0 -0.46875q0.109375 -0.078125 0.328125 -0.1875q0.234375 -0.125 0.5 -0.234375q0.265625 -0.125 0.546875 -0.1875q0.296875 -0.078125 0.5625 -0.078125q0.40625 0 0.578125 0.203125q0.1875 0.203125 0.25 0.5l0.859375 6.0625l0.09375 1.171875l0.03125 0l0.609375 -1.203125zm10.805878 1.15625q-0.171875 0.34375 -0.484375 0.6875q-0.3125 0.328125 -0.75 0.609375q-0.421875 0.265625 -0.96875 0.421875q-0.53125 0.15625 -1.15625 0.15625q-1.546875 0 -2.375 -0.875q-0.828125 -0.890625 -0.828125 -2.453125q0 -1.328125 0.375 -2.5q0.375 -1.1875 1.03125 -2.0625q0.671875 -0.875 1.625 -1.375q0.96875 -0.5 2.15625 -0.5q0.890625 0 1.53125 0.453125q0.640625 0.453125 0.640625 1.34375q0 1.328125 -1.3125 2.09375q-1.3125 0.765625 -4.234375 0.984375q-0.078125 0.328125 -0.109375 0.625q-0.03125 0.296875 -0.03125 0.578125q0 1.125 0.5625 1.828125q0.578125 0.703125 1.6875 0.703125q0.34375 0 0.6875 -0.109375q0.34375 -0.109375 0.65625 -0.28125q0.3125 -0.171875 0.5625 -0.34375q0.25 -0.1875 0.4375 -0.34375l0.296875 0.359375zm-1.953125 -7.09375q-0.8125 0.015625 -1.5 0.765625q-0.6875 0.734375 -1.171875 2.515625q1.8125 -0.046875 2.8125 -0.609375q1.015625 -0.578125 1.015625 -1.59375q0 -0.390625 -0.234375 -0.71875q-0.234375 -0.34375 -0.921875 -0.359375zm8.79808 0.5625q-0.484375 0.1875 -1.09375 0.9375q-0.59375 0.75 -1.0625 2.046875l-1.125 5.203125l-1.6093903 0l1.7343903 -8.25l-1.1250153 -0.15625l0 -0.46875q0.625 -0.296875 1.3125153 -0.453125q0.703125 -0.171875 1.25 -0.21875l0.375 0.21875l-0.515625 2.484375l0.078125 0q0.53125 -1.234375 1.3125 -1.96875q0.78125 -0.734375 1.6875 -0.734375q0.234375 0 0.46875 0.046875q0.25 0.046875 0.484375 0.171875q0 0.171875 -0.0625 0.4375q-0.046875 0.265625 -0.15625 0.546875q-0.109375 0.28125 -0.234375 0.53125q-0.109375 0.25 -0.25 0.390625l-1.46875 -0.765625zm3.135788 -0.0625l-1.1875 -0.140625l0 -0.46875q0.09375 -0.078125 0.296875 -0.1875q0.21875 -0.109375 0.5 -0.21875q0.28125 -0.125 0.578125 -0.203125q0.296875 -0.078125 0.5625 -0.078125q0.390625 0 0.5625 0.203125q0.1875 0.1875 0.28125 0.5l1.546875 6.53125l0.046875 1.125l0.046875 0l0.421875 -1.109375q0.25 -0.515625 0.5 -1.140625q0.25 -0.625 0.484375 -1.25q0.25 -0.640625 0.453125 -1.25q0.203125 -0.625 0.359375 -1.15625q0 -0.203125 -0.046875 -0.53125q-0.046875 -0.34375 -0.109375 -0.671875q-0.046875 -0.34375 -0.109375 -0.625q-0.0625 -0.296875 -0.09375 -0.40625q0.265625 -0.109375 0.5625 -0.15625q0.296875 -0.0625 0.578125 -0.0625q0.5625 0 0.984375 0.21875q-0.578125 2.3125 -1.578125 4.625q-1.0 2.3125 -2.203125 4.703125q-1.015625 1.953125 -2.03125 2.921875q-1.0 0.984375 -2.265625 0.984375q-0.28125 0 -0.53125 -0.078125q-0.25 -0.078125 -0.53125 -0.234375q-0.015625 -0.203125 0.046875 -0.46875q0.046875 -0.25 0.171875 -0.515625q0.125 -0.265625 0.3125 -0.484375q0.203125 -0.21875 0.4375 -0.359375l1.515625 0.796875q0.125 -0.09375 0.328125 -0.28125q0.21875 -0.171875 0.4375 -0.484375q0.21875 -0.296875 0.4375 -0.75q0.234375 -0.4375 0.4375 -1.046875l-2.203125 -8.25z" fill-rule="nonzero"/><path fill="#000000" d="m239.11682 164.73244l0 -0.46875q0.265625 -0.125 0.625 -0.234375q0.359375 -0.125 0.734375 -0.21875q0.375 -0.09375 0.703125 -0.15625q0.34375 -0.0625 0.59375 -0.0625l0.34375 0.21875l-1.75 8.28125l1.375 0l0 0.484375q-0.390625 0.296875 -0.921875 0.484375q-0.515625 0.1875 -1.015625 0.1875q-0.546875 0 -0.78125 -0.234375q-0.234375 -0.25 -0.234375 -0.5625q0 -0.375 0.046875 -0.71875q0.0625 -0.359375 0.15625 -0.796875l1.3125 -6.03125l-1.1875 -0.171875zm1.5 -4.15625q0 -0.484375 0.296875 -0.75q0.296875 -0.28125 0.78125 -0.28125q0.515625 0 0.8125 0.28125q0.296875 0.265625 0.296875 0.75q0 0.46875 -0.296875 0.734375q-0.296875 0.265625 -0.8125 0.265625q-0.484375 0 -0.78125 -0.265625q-0.296875 -0.265625 -0.296875 -0.734375zm4.7459106 4.171875l-1.359375 0l0 -0.484375q0.375 -0.203125 0.78125 -0.359375q0.421875 -0.171875 0.796875 -0.265625l0.140625 -0.65625q0.234375 -1.15625 0.65625 -1.90625q0.421875 -0.75 0.984375 -1.1875q0.5625 -0.4375 1.234375 -0.609375q0.671875 -0.171875 1.4375 -0.171875q0.3125 0 0.75 0.078125q0.4375 0.078125 0.734375 0.21875q-0.03125 0.40625 -0.203125 0.859375q-0.15625 0.4375 -0.53125 0.75l-1.40625 -1.15625q-0.34375 0.09375 -0.625 0.203125q-0.28125 0.109375 -0.53125 0.421875q-0.25 0.3125 -0.46875 0.875q-0.21875 0.546875 -0.4375 1.515625l-0.1875 0.9375l2.078125 0q0.09375 0.46875 -0.1875 0.9375l-2.0625 0l-1.203125 7.59375q-0.203125 1.3125 -0.6875 2.1875q-0.484375 0.890625 -1.046875 1.421875q-0.546875 0.546875 -1.0625 0.796875q-0.515625 0.265625 -0.796875 0.34375l-0.171875 -0.40625q0.21875 -0.109375 0.546875 -0.40625q0.3125 -0.28125 0.609375 -0.765625q0.3125 -0.484375 0.578125 -1.1875q0.28125 -0.703125 0.421875 -1.640625l1.21875 -7.9375z" fill-rule="nonzero"/><path fill="#000000" d="m277.35645 164.26369q0.375 -0.203125 0.796875 -0.375q0.421875 -0.171875 0.828125 -0.265625l0.296875 -1.421875q0.265625 -0.203125 0.609375 -0.359375q0.34375 -0.15625 0.71875 -0.3125l0.390625 0.234375l-0.4375 2.046875l2.3125 0q0.03125 0.21875 -0.015625 0.46875q-0.03125 0.234375 -0.171875 0.46875l-2.3125 0l-1.1875 5.40625q-0.0625 0.359375 -0.109375 0.625q-0.03125 0.265625 -0.03125 0.5q0 0.484375 0.28125 0.703125q0.28125 0.21875 0.609375 0.21875q0.46875 0 1.0 -0.171875q0.53125 -0.171875 0.984375 -0.40625l0.203125 0.34375q-0.171875 0.234375 -0.515625 0.484375q-0.328125 0.234375 -0.75 0.453125q-0.421875 0.203125 -0.875 0.328125q-0.453125 0.125 -0.859375 0.125q-0.828125 0 -1.296875 -0.359375q-0.46875 -0.375 -0.46875 -1.171875q0 -0.25 0.046875 -0.5625q0.046875 -0.328125 0.125 -0.65625l1.234375 -5.859375l-1.421875 0l0.015625 -0.484375zm7.2090454 -4.015625l0 -0.4375q0.28125 -0.109375 0.625 -0.21875q0.34375 -0.125 0.71875 -0.21875q0.375 -0.109375 0.71875 -0.171875q0.359375 -0.078125 0.6875 -0.09375l0.390625 0.171875l-1.6875 7.828125l0.09375 0q0.359375 -0.734375 0.796875 -1.375q0.453125 -0.65625 0.9375 -1.125q0.5 -0.484375 1.046875 -0.75q0.546875 -0.265625 1.09375 -0.265625q0.859375 0 1.234375 0.5q0.390625 0.484375 0.390625 1.21875q0 0.5 -0.09375 1.078125q-0.09375 0.578125 -0.21875 1.109375l-1.0625 4.59375l1.375 0l0 0.484375q-0.375 0.296875 -0.890625 0.484375q-0.515625 0.1875 -1.046875 0.1875q-0.53125 0 -0.75 -0.21875q-0.203125 -0.21875 -0.203125 -0.484375q0 -0.34375 0.09375 -0.75q0.09375 -0.421875 0.1875 -0.859375l0.671875 -3.109375q0.125 -0.578125 0.234375 -1.078125q0.109375 -0.515625 0.109375 -0.984375q0 -0.421875 -0.1875 -0.71875q-0.1875 -0.296875 -0.515625 -0.296875q-0.578125 0 -1.125 0.40625q-0.53125 0.40625 -1.0 0.984375q-0.46875 0.578125 -0.828125 1.203125q-0.34375 0.625 -0.53125 1.046875l-0.984375 4.75l-1.5625 0l2.546875 -12.71875l-1.265625 -0.171875zm15.520966 11.234375q-0.171875 0.34375 -0.484375 0.6875q-0.3125 0.328125 -0.75 0.609375q-0.421875 0.265625 -0.96875 0.421875q-0.53125 0.15625 -1.15625 0.15625q-1.546875 0 -2.375 -0.875q-0.828125 -0.890625 -0.828125 -2.453125q0 -1.328125 0.375 -2.5q0.375 -1.1875 1.03125 -2.0625q0.671875 -0.875 1.625 -1.375q0.96875 -0.5 2.15625 -0.5q0.890625 0 1.53125 0.453125q0.640625 0.453125 0.640625 1.34375q0 1.328125 -1.3125 2.09375q-1.3125 0.765625 -4.234375 0.984375q-0.078125 0.328125 -0.109375 0.625q-0.03125 0.296875 -0.03125 0.578125q0 1.125 0.5625 1.828125q0.578125 0.703125 1.6875 0.703125q0.34375 0 0.6875 -0.109375q0.34375 -0.109375 0.65625 -0.28125q0.3125 -0.171875 0.5625 -0.34375q0.25 -0.1875 0.4375 -0.34375l0.296875 0.359375zm-1.953125 -7.09375q-0.8125 0.015625 -1.5 0.765625q-0.6875 0.734375 -1.171875 2.515625q1.8125 -0.046875 2.8125 -0.609375q1.015625 -0.578125 1.015625 -1.59375q0 -0.390625 -0.234375 -0.71875q-0.234375 -0.34375 -0.921875 -0.359375zm4.7698364 0.5l-1.1875 -0.140625l0 -0.46875q0.09375 -0.078125 0.296875 -0.1875q0.21875 -0.109375 0.5 -0.21875q0.28125 -0.125 0.578125 -0.203125q0.296875 -0.078125 0.5625 -0.078125q0.390625 0 0.5625 0.203125q0.1875 0.1875 0.28125 0.5l1.546875 6.53125l0.046875 1.125l0.046875 0l0.421875 -1.109375q0.25 -0.515625 0.5 -1.140625q0.25 -0.625 0.484375 -1.25q0.25 -0.640625 0.453125 -1.25q0.203125 -0.625 0.359375 -1.15625q0 -0.203125 -0.046875 -0.53125q-0.046875 -0.34375 -0.109375 -0.671875q-0.046875 -0.34375 -0.109375 -0.625q-0.0625 -0.296875 -0.09375 -0.40625q0.265625 -0.109375 0.5625 -0.15625q0.296875 -0.0625 0.578125 -0.0625q0.5625 0 0.984375 0.21875q-0.578125 2.3125 -1.578125 4.625q-1.0 2.3125 -2.203125 4.703125q-1.015625 1.953125 -2.03125 2.921875q-1.0 0.984375 -2.265625 0.984375q-0.28125 0 -0.53125 -0.078125q-0.25 -0.078125 -0.53125 -0.234375q-0.015625 -0.203125 0.046875 -0.46875q0.046875 -0.25 0.171875 -0.515625q0.125 -0.265625 0.3125 -0.484375q0.203125 -0.21875 0.4375 -0.359375l1.515625 0.796875q0.125 -0.09375 0.328125 -0.28125q0.21875 -0.171875 0.4375 -0.484375q0.21875 -0.296875 0.4375 -0.75q0.234375 -0.4375 0.4375 -1.046875l-2.203125 -8.25z" fill-rule="nonzero"/><path fill="#000000" d="m332.92105 160.41994l-1.3125 -0.171875l0 -0.4375q0.296875 -0.109375 0.65625 -0.21875q0.359375 -0.109375 0.71875 -0.203125q0.359375 -0.109375 0.71875 -0.171875q0.359375 -0.078125 0.65625 -0.109375l0.390625 0.203125l-1.640625 7.78125l0.09375 0q0.328125 -0.671875 0.734375 -1.296875q0.40625 -0.640625 0.859375 -1.125q0.453125 -0.484375 0.953125 -0.78125q0.515625 -0.296875 1.0625 -0.296875q1.0 0 1.578125 0.6875q0.578125 0.6875 0.578125 2.140625q0 1.4375 -0.40625 2.703125q-0.40625 1.25 -1.140625 2.203125q-0.71875 0.9375 -1.75 1.484375q-1.015625 0.546875 -2.265625 0.546875q-0.921875 0 -1.71875 -0.234375q-0.78125 -0.234375 -1.15625 -0.546875l2.390625 -12.15625zm3.109375 4.328125q-0.484375 0 -0.953125 0.4375q-0.46875 0.421875 -0.875 1.03125q-0.390625 0.59375 -0.71875 1.265625q-0.328125 0.65625 -0.546875 1.109375l-0.703125 3.578125q0.28125 0.1875 0.6875 0.296875q0.421875 0.09375 0.84375 0.09375q0.71875 0 1.359375 -0.5q0.640625 -0.5 1.125 -1.328125q0.5 -0.828125 0.765625 -1.859375q0.28125 -1.03125 0.265625 -2.09375q0.015625 -0.890625 -0.28125 -1.453125q-0.296875 -0.578125 -0.96875 -0.578125zm12.750671 7.359375l0 0.46875q-0.375 0.296875 -0.90625 0.484375q-0.53125 0.1875 -1.046875 0.1875q-0.53125 0 -0.765625 -0.21875q-0.234375 -0.21875 -0.234375 -0.484375q0 -0.34375 0.09375 -1.125q0.09375 -0.796875 0.40625 -1.9375l-0.078125 0q-0.234375 0.515625 -0.609375 1.1875q-0.359375 0.671875 -0.859375 1.28125q-0.5 0.59375 -1.140625 1.0q-0.640625 0.40625 -1.4375 0.40625q-0.640625 0 -1.09375 -0.453125q-0.453125 -0.453125 -0.453125 -1.296875q0 -0.40625 0.125 -1.203125q0.140625 -0.8125 0.328125 -1.765625q0.1875 -0.953125 0.390625 -1.9375q0.21875 -1.0 0.390625 -1.8125l-1.140625 -0.15625l0 -0.46875q0.296875 -0.125 0.640625 -0.234375q0.359375 -0.109375 0.703125 -0.203125q0.34375 -0.09375 0.65625 -0.15625q0.3125 -0.0625 0.578125 -0.078125l0.40625 0.21875q-0.296875 1.40625 -0.609375 2.671875q-0.296875 1.25 -0.5625 2.640625q-0.09375 0.453125 -0.203125 1.0q-0.09375 0.546875 -0.09375 1.203125q0 0.390625 0.203125 0.640625q0.21875 0.234375 0.5 0.234375q0.421875 0 0.828125 -0.234375q0.40625 -0.25 0.765625 -0.640625q0.375 -0.390625 0.6875 -0.859375q0.328125 -0.484375 0.59375 -0.9375q0.265625 -0.46875 0.4375 -0.875q0.1875 -0.40625 0.28125 -0.640625l0.8125 -4.203125l1.546875 0l-1.53125 8.296875l1.390625 0zm2.0023499 -7.84375q0.375 -0.203125 0.796875 -0.375q0.421875 -0.171875 0.828125 -0.265625l0.296875 -1.421875q0.265625 -0.203125 0.609375 -0.359375q0.34375 -0.15625 0.71875 -0.3125l0.390625 0.234375l-0.4375 2.046875l2.3125 0q0.03125 0.21875 -0.015625 0.46875q-0.03125 0.234375 -0.171875 0.46875l-2.3125 0l-1.1875 5.40625q-0.0625 0.359375 -0.109375 0.625q-0.03125 0.265625 -0.03125 0.5q0 0.484375 0.28125 0.703125q0.28125 0.21875 0.609375 0.21875q0.46875 0 1.0 -0.171875q0.53125 -0.171875 0.984375 -0.40625l0.203125 0.34375q-0.171875 0.234375 -0.515625 0.484375q-0.328125 0.234375 -0.75 0.453125q-0.421875 0.203125 -0.875 0.328125q-0.453125 0.125 -0.859375 0.125q-0.828125 0 -1.296875 -0.359375q-0.46875 -0.375 -0.46875 -1.171875q0 -0.25 0.046875 -0.5625q0.046875 -0.328125 0.125 -0.65625l1.234375 -5.859375l-1.421875 0l0.015625 -0.484375z" fill-rule="nonzero"/><path fill="#000000" d="m387.03775 167.82619q0.125 -0.578125 0.21875 -1.078125q0.109375 -0.5 0.109375 -0.984375q0 -0.421875 -0.203125 -0.71875q-0.1875 -0.296875 -0.609375 -0.296875q-0.5 0 -1.03125 0.40625q-0.515625 0.40625 -0.96875 0.984375q-0.453125 0.578125 -0.8125 1.203125q-0.359375 0.625 -0.546875 1.046875l-0.984375 4.75l-1.578125 0l1.640625 -8.25l-1.125 -0.15625l0.03125 -0.46875q0.265625 -0.140625 0.578125 -0.25q0.328125 -0.125 0.671875 -0.21875q0.359375 -0.09375 0.671875 -0.140625q0.328125 -0.0625 0.609375 -0.0625l0.375 0.21875l-0.703125 3.296875l0.09375 0q0.359375 -0.734375 0.8125 -1.375q0.453125 -0.65625 0.96875 -1.125q0.515625 -0.484375 1.0625 -0.75q0.5625 -0.265625 1.140625 -0.265625q0.78125 0 1.140625 0.5q0.375 0.484375 0.375 1.234375q0 0.40625 -0.09375 1.03125q-0.09375 0.609375 -0.21875 1.140625l-1.0625 4.59375l1.375 0l0 0.484375q-0.375 0.296875 -0.90625 0.484375q-0.53125 0.1875 -1.03125 0.1875q-0.546875 0 -0.75 -0.21875q-0.203125 -0.21875 -0.203125 -0.484375q0 -0.359375 0.09375 -0.78125q0.09375 -0.421875 0.1875 -0.84375l0.671875 -3.09375zm3.8607483 1.84375q0 -0.984375 0.296875 -2.0625q0.3125 -1.078125 0.953125 -1.96875q0.640625 -0.890625 1.578125 -1.46875q0.953125 -0.578125 2.234375 -0.578125q1.453125 0 2.1875 0.890625q0.734375 0.890625 0.734375 2.65625q0 1.21875 -0.359375 2.359375q-0.34375 1.125 -0.984375 1.984375q-0.640625 0.859375 -1.53125 1.375q-0.890625 0.5 -1.96875 0.5q-1.4375 0 -2.296875 -0.921875q-0.84375 -0.921875 -0.84375 -2.765625zm4.6875 -5.28125q-0.921875 0.015625 -1.5 0.59375q-0.578125 0.578125 -0.921875 1.4375q-0.328125 0.859375 -0.46875 1.859375q-0.125 0.984375 -0.125 1.796875q0 1.109375 0.484375 1.796875q0.5 0.6875 1.3125 0.6875q0.65625 0 1.15625 -0.484375q0.515625 -0.5 0.875 -1.3125q0.375 -0.8125 0.5625 -1.84375q0.203125 -1.03125 0.203125 -2.0625q0 -1.109375 -0.390625 -1.78125q-0.375 -0.671875 -1.1875 -0.6875zm5.0429077 -0.125q0.375 -0.203125 0.796875 -0.375q0.421875 -0.171875 0.828125 -0.265625l0.296875 -1.421875q0.265625 -0.203125 0.609375 -0.359375q0.34375 -0.15625 0.71875 -0.3125l0.390625 0.234375l-0.4375 2.046875l2.3125 0q0.03125 0.21875 -0.015625 0.46875q-0.03125 0.234375 -0.171875 0.46875l-2.3125 0l-1.1875 5.40625q-0.0625 0.359375 -0.109375 0.625q-0.03125 0.265625 -0.03125 0.5q0 0.484375 0.28125 0.703125q0.28125 0.21875 0.609375 0.21875q0.46875 0 1.0 -0.171875q0.53125 -0.171875 0.984375 -0.40625l0.203125 0.34375q-0.171875 0.234375 -0.515625 0.484375q-0.328125 0.234375 -0.75 0.453125q-0.421875 0.203125 -0.875 0.328125q-0.453125 0.125 -0.859375 0.125q-0.828125 0 -1.296875 -0.359375q-0.46875 -0.375 -0.46875 -1.171875q0 -0.25 0.046875 -0.5625q0.046875 -0.328125 0.125 -0.65625l1.234375 -5.859375l-1.421875 0l0.015625 -0.484375z" fill-rule="nonzero"/><path fill="#000000" fill-opacity="0.0" d="m416.40738 219.54227l52.787415 0l0 22.614182l-52.787415 0z" fill-rule="evenodd"/><path fill="#000000" d="m433.16187 234.93102q0 -0.5625 -0.34375 -0.875q-0.328125 -0.328125 -0.828125 -0.53125q-0.5 -0.21875 -1.09375 -0.40625q-0.578125 -0.203125 -1.078125 -0.515625q-0.484375 -0.3125 -0.828125 -0.796875q-0.328125 -0.484375 -0.328125 -1.296875q0 -1.34375 0.765625 -1.96875q0.765625 -0.625 2.125 -0.625q1.0 0 1.6875 0.171875q0.6875 0.171875 1.1875 0.421875l-0.359375 1.234375q-0.421875 -0.203125 -1.03125 -0.359375q-0.609375 -0.171875 -1.296875 -0.171875q-0.828125 0 -1.21875 0.28125q-0.375 0.28125 -0.375 0.96875q0 0.484375 0.328125 0.765625q0.34375 0.265625 0.84375 0.484375q0.5 0.203125 1.078125 0.421875q0.59375 0.203125 1.078125 0.546875q0.5 0.328125 0.828125 0.84375q0.34375 0.5 0.34375 1.34375q0 0.59375 -0.203125 1.125q-0.1875 0.515625 -0.59375 0.890625q-0.40625 0.375 -1.015625 0.578125q-0.609375 0.21875 -1.4375 0.21875q-1.0625 0 -1.8125 -0.203125q-0.734375 -0.203125 -1.234375 -0.484375l0.4375 -1.265625q0.4375 0.234375 1.125 0.453125q0.6875 0.203125 1.390625 0.203125q0.8125 0 1.328125 -0.3125q0.53125 -0.328125 0.53125 -1.140625zm4.0574036 -6.796875l1.5 0l0 9.328125l-1.5 0l0 -9.328125zm-0.3125 -2.828125q0 -0.4375 0.28125 -0.734375q0.296875 -0.3125 0.75 -0.3125q0.4375 0 0.75 0.3125q0.328125 0.296875 0.328125 0.734375q0 0.421875 -0.328125 0.703125q-0.3125 0.28125 -0.75 0.28125q-0.453125 0 -0.75 -0.28125q-0.28125 -0.28125 -0.28125 -0.703125zm4.343628 10.84375l4.3125 -5.921875l0.78125 -0.78125l-5.09375 0l0 -1.3125l6.640625 0l0 1.3125l-4.34375 5.984375l-0.765625 0.71875l5.109375 0l0 1.3125l-6.640625 0l0 -1.3125zm15.50943 0.5625q-0.5625 0.453125 -1.421875 0.71875q-0.84375 0.25 -1.796875 0.25q-1.0625 0 -1.84375 -0.34375q-0.78125 -0.34375 -1.28125 -0.984375q-0.5 -0.640625 -0.75 -1.53125q-0.234375 -0.90625 -0.234375 -2.03125q0 -2.375 1.0625 -3.625q1.0625 -1.25 3.03125 -1.25q0.640625 0 1.265625 0.140625q0.640625 0.140625 1.140625 0.53125q0.5 0.390625 0.8125 1.109375q0.328125 0.71875 0.328125 1.890625q0 0.609375 -0.109375 1.359375l-5.984375 0q0 0.828125 0.15625 1.46875q0.171875 0.625 0.515625 1.0625q0.359375 0.4375 0.921875 0.671875q0.578125 0.234375 1.40625 0.234375q0.625 0 1.265625 -0.21875q0.640625 -0.234375 0.953125 -0.53125l0.5625 1.078125zm-3.21875 -7.5q-1.09375 0 -1.765625 0.578125q-0.65625 0.578125 -0.78125 1.984375l4.625 0q0 -1.421875 -0.546875 -1.984375q-0.53125 -0.578125 -1.53125 -0.578125z" fill-rule="nonzero"/><path fill="#000000" fill-opacity="0.0" d="m442.8011 219.54227c0 -8.403259 0.01574707 -12.605728 0.03149414 -16.806503c0.01574707 -4.2007904 0.03149414 -8.399902 0.03149414 -16.79979" fill-rule="evenodd"/><path stroke="#000000" stroke-width="2.0" stroke-linejoin="round" stroke-linecap="butt" d="m442.8011 219.54227c0 -8.403259 0.01574707 -12.605728 0.03149414 -16.806519l0.0152282715 -4.7998047" fill-rule="evenodd"/><path fill="#000000" stroke="#000000" stroke-width="2.0" stroke-linecap="butt" d="m446.15128 197.94043l-3.2911377 -9.080673l-3.3157654 9.071716z" fill-rule="evenodd"/><path fill="#000000" fill-opacity="0.0" d="m429.42264 175.88214l26.834656 0l0 10.047241l-26.834656 0z" fill-rule="evenodd"/><path stroke="#000000" stroke-width="2.0" stroke-linecap="butt" d="m19.059372 20.122099l0 41.322838" fill-rule="nonzero"/><path stroke="#000000" stroke-width="2.0" stroke-linecap="butt" d="m83.224724 20.122099l0 41.322838" fill-rule="nonzero"/><path stroke="#000000" stroke-width="2.0" stroke-linecap="butt" d="m147.39008 20.122099l0 41.322838" fill-rule="nonzero"/><path stroke="#000000" stroke-width="2.0" stroke-linecap="butt" d="m211.55544 20.122099l0 41.322838" fill-rule="nonzero"/><path stroke="#000000" stroke-width="2.0" stroke-linecap="butt" d="m275.7208 20.122099l0 41.322838" fill-rule="nonzero"/><path stroke="#000000" stroke-width="2.0" stroke-linecap="butt" d="m339.88614 20.122099l0 41.322838" fill-rule="nonzero"/><path stroke="#000000" stroke-width="2.0" stroke-linecap="butt" d="m404.0515 20.122099l0 41.322838" fill-rule="nonzero"/><path stroke="#000000" stroke-width="2.0" stroke-linecap="butt" d="m468.21686 20.122099l0 41.322838" fill-rule="nonzero"/><path stroke="#000000" stroke-width="2.0" stroke-linecap="butt" d="m532.3822 20.122099l0 41.322838" fill-rule="nonzero"/><path stroke="#000000" stroke-width="2.0" stroke-linecap="butt" d="m18.059372 21.122099l515.3228 0" fill-rule="nonzero"/><path stroke="#000000" stroke-width="2.0" stroke-linecap="butt" d="m18.059372 60.444935l515.3228 0" fill-rule="nonzero"/><path fill="#000000" d="m48.088276 13.250224q0 -2.390625 0.765625 -3.59375q0.78125 -1.21875 2.28125 -1.21875q1.609375 0 2.328125 1.1875q0.734375 1.1875 0.734375 3.625q0 2.40625 -0.78125 3.624999q-0.78125 1.203125 -2.28125 1.203125q-1.578125 0 -2.3125 -1.265625q-0.734375 -1.265624 -0.734375 -3.562499zm1.09375 0q0 0.875 0.109375 1.59375q0.125 0.703125 0.359375 1.218749q0.25 0.515625 0.609375 0.8125q0.375 0.28125 0.875 0.28125q1.015625 0 1.484375 -0.9375q0.46875 -0.95312405 0.46875 -2.968749q0 -0.84375 -0.09375 -1.5625q-0.09375 -0.71875 -0.328125 -1.234375q-0.234375 -0.53125 -0.609375 -0.8125q-0.375 -0.28125 -0.921875 -0.28125q-1.0 0 -1.484375 0.953125q-0.46875 0.953125 -0.46875 2.9375z" fill-rule="nonzero"/><path fill="#000000" d="m113.11301 16.937723l1.875 0l0 -6.453124l0.125 -0.78125l-0.53125 0.625l-1.46875 1.046875l-0.5 -0.671875l2.921875 -2.265625l0.484375 0l0 8.499999l1.828125 0l0 0.984375l-4.734375 0l0 -0.984375z" fill-rule="nonzero"/><path fill="#000000" d="m181.77837 10.718974q0 0.703125 -0.265625 1.4375q-0.25 0.734375 -0.671875 1.484375q-0.421875 0.75 -0.9375 1.46875q-0.515625 0.703125 -1.03125 1.343749l-0.65625 0.578125l0 0.046875l0.84375 -0.140625l2.90625 0l0 0.984375l-5.296875 0l0 -0.390625q0.296875 -0.296875 0.703125 -0.75q0.421875 -0.453125 0.859375 -0.99999905q0.453125 -0.5625 0.875 -1.171875q0.4375 -0.625 0.78125 -1.265625q0.359375 -0.640625 0.578125 -1.265625q0.21875 -0.640625 0.21875 -1.1875q0 -0.65625 -0.375 -1.09375q-0.375 -0.4375 -1.140625 -0.4375q-0.5 0 -0.984375 0.21875q-0.484375 0.203125 -0.828125 0.46875l-0.4375 -0.765625q0.46875 -0.390625 1.109375 -0.609375q0.640625 -0.234375 1.375 -0.234375q0.5625 0 1.0 0.171875q0.453125 0.15625 0.75 0.46875q0.3125 0.296875 0.46875 0.71875q0.15625 0.421875 0.15625 0.921875z" fill-rule="nonzero"/><path fill="#000000" d="m243.13121 17.156473q0.453125 0 0.828125 -0.140625q0.390625 -0.140625 0.671875 -0.390625q0.28125 -0.265625 0.4375 -0.625q0.15625 -0.35937405 0.15625 -0.78124905q0 -0.9375 -0.546875 -1.390625q-0.546875 -0.453125 -1.53125 -0.453125l-0.984375 0l0 -0.390625l1.921875 -2.953125l0.609375 -0.59375l-0.859375 0.140625l-2.640625 0l0 -0.984375l4.75 0l0 0.390625l-2.109375 3.1875l-0.46875 0.375l0 0.03125l0.453125 -0.09375q0.53125 0.015625 0.984375 0.203125q0.453125 0.171875 0.78125 0.515625q0.34375 0.328125 0.53125 0.8125q0.1875 0.46875 0.1875 1.0625q0 0.71875 -0.265625 1.281249q-0.25 0.5625 -0.6875 0.953125q-0.421875 0.375 -1.015625 0.578125q-0.578125 0.1875 -1.234375 0.1875q-0.59375 0 -1.078125 -0.09375q-0.484375 -0.09375 -0.84375 -0.234375l0.28125 -0.953125q0.3125 0.15625 0.71875 0.265625q0.421875 0.09375 0.953125 0.09375z" fill-rule="nonzero"/><path fill="#000000" d="m311.15594 15.062724l-1.578125 0l0 2.859374l-1.03125 0l0 -2.859374l-4.109375 0l0 -0.453125l4.421875 -6.15625l0.71875 0l0 5.671875l1.578125 0l0 0.9375zm-2.609375 -3.84375l0.125 -1.09375l-0.03125 0l-0.46875 0.90625l-1.875 2.546875l-0.640625 0.65625l0.921875 -0.109375l1.96875 0l0 -2.90625z" fill-rule="nonzero"/><path fill="#000000" d="m371.18066 17.156473q0.921875 0 1.515625 -0.53125q0.59375 -0.546875 0.59375 -1.562499q0 -0.96875 -0.59375 -1.4375q-0.59375 -0.484375 -1.625 -0.484375l-1.125 0.0625l0 -4.609375l4.15625 0l0 0.984375l-3.15625 0l0 2.65625l0.578125 -0.03125q1.3125 0.015625 2.078125 0.734375q0.765625 0.71875 0.765625 2.0625q0 0.75 -0.265625 1.328124q-0.25 0.578125 -0.6875 0.96875q-0.421875 0.390625 -1.015625 0.59375q-0.578125 0.1875 -1.25 0.1875q-0.59375 0 -1.015625 -0.0625q-0.40625 -0.0625 -0.765625 -0.203125l0.28125 -0.90625q0.296875 0.125 0.640625 0.1875q0.359375 0.0625 0.890625 0.0625z" fill-rule="nonzero"/><path fill="#000000" d="m439.0648 15.109599q0 0.609375 -0.1875 1.156249q-0.1875 0.53125 -0.546875 0.9375q-0.359375 0.40625 -0.90625 0.640625q-0.53125 0.234375 -1.203125 0.234375q-0.671875 0 -1.203125 -0.203125q-0.53125 -0.21875 -0.921875 -0.640625q-0.375 -0.421875 -0.59375 -1.03125q-0.203125 -0.60937405 -0.203125 -1.406249q0 -1.328125 0.34375 -2.4375q0.34375 -1.109375 0.9375 -1.9375q0.59375 -0.828125 1.40625 -1.34375q0.828125 -0.515625 1.796875 -0.640625l0.21875 0.84375q-0.734375 0.140625 -1.359375 0.515625q-0.609375 0.375 -1.078125 0.921875q-0.453125 0.546875 -0.75 1.234375q-0.28125 0.671875 -0.390625 1.390625q0.203125 -0.359375 0.703125 -0.65625q0.515625 -0.3125 1.25 -0.3125q1.25 0 1.96875 0.71875q0.71875 0.71875 0.71875 2.015625zm-1.109375 0.109375q0 -0.953125 -0.4375 -1.421875q-0.4375 -0.484375 -1.359375 -0.484375q-0.65625 0 -1.140625 0.328125q-0.46875 0.3125 -0.65625 0.703125q-0.015625 0.1875 -0.015625 0.3125q0 0.125 0 0.265625q0 0.421875 0.109375 0.828125q0.109375 0.39062405 0.34375 0.70312405q0.25 0.3125 0.59375 0.515625q0.359375 0.1875 0.84375 0.1875q0.390625 0 0.703125 -0.140625q0.3125 -0.15625 0.53125 -0.40625q0.234375 -0.265625 0.359375 -0.62499905q0.125 -0.359375 0.125 -0.765625z" fill-rule="nonzero"/><path fill="#000000" d="m498.13638 17.922098l3.34375 -7.812499l0.578125 -0.65625l-0.78125 0.125l-3.796875 0l0 -0.984375l5.578125 0l0 0.359375l-3.84375 8.968749l-1.078125 0z" fill-rule="nonzero"/><path fill="#000000" d="m36.505375 46.566013q0.5 0 1.0 -0.46875q0.515625 -0.484375 0.953125 -1.15625q0.453125 -0.671875 0.796875 -1.390625q0.359375 -0.734375 0.578125 -1.21875l0.59375 -3.1875q-0.28125 -0.1875 -0.515625 -0.25q-0.234375 -0.0625 -0.65625 -0.078125q-0.90625 0.015625 -1.609375 0.546875q-0.703125 0.53125 -1.203125 1.359375q-0.484375 0.828125 -0.734375 1.859375q-0.25 1.015625 -0.25 2.015625q0 0.953125 0.234375 1.46875q0.234375 0.5 0.8125 0.5zm2.953125 -2.71875q-0.25 0.671875 -0.625 1.359375q-0.375 0.6875 -0.84375 1.25q-0.46875 0.5625 -1.046875 0.921875q-0.5625 0.34375 -1.21875 0.34375q-1.9375 0 -1.9375 -2.828125q0 -1.328125 0.359375 -2.5625q0.375 -1.25 1.078125 -2.203125q0.71875 -0.96875 1.71875 -1.546875q1.015625 -0.578125 2.3125 -0.578125q0.484375 0 0.71875 0.078125q0.25 0.0625 0.625 0.21875l0.703125 -3.515625l-1.3125 -0.171875l0 -0.46875q0.28125 -0.109375 0.609375 -0.203125q0.34375 -0.109375 0.703125 -0.1875q0.375 -0.09375 0.75 -0.171875q0.375 -0.078125 0.6875 -0.109375l0.390625 0.15625l-2.5625 12.84375l1.375 0l0 0.46875q-0.375 0.296875 -0.90625 0.484375q-0.515625 0.1875 -1.015625 0.1875q-0.546875 0 -0.78125 -0.234375q-0.234375 -0.234375 -0.234375 -0.484375q0 -0.34375 0.125 -1.109375q0.140625 -0.765625 0.390625 -1.9375l-0.0625 0zm4.2310944 0.1875q0 -0.984375 0.296875 -2.0625q0.3125 -1.078125 0.953125 -1.96875q0.640625 -0.890625 1.578125 -1.46875q0.953125 -0.578125 2.234375 -0.578125q1.453125 0 2.1875 0.890625q0.734375 0.890625 0.734375 2.65625q0 1.21875 -0.359375 2.359375q-0.34375 1.125 -0.984375 1.984375q-0.640625 0.859375 -1.53125 1.375q-0.890625 0.5 -1.96875 0.5q-1.4375 0 -2.296875 -0.921875q-0.84375 -0.921875 -0.84375 -2.765625zm4.6875 -5.28125q-0.921875 0.015625 -1.5 0.59375q-0.578125 0.578125 -0.921875 1.4375q-0.328125 0.859375 -0.46875 1.859375q-0.125 0.984375 -0.125 1.796875q0 1.109375 0.484375 1.796875q0.5 0.6875 1.3125 0.6875q0.65625 0 1.15625 -0.484375q0.515625 -0.5 0.875 -1.3125q0.375 -0.8125 0.5625 -1.84375q0.203125 -1.03125 0.203125 -2.0625q0 -1.109375 -0.390625 -1.78125q-0.375 -0.671875 -1.1875 -0.6875zm9.261658 -0.796875q0.90625 0 1.46875 0.21875q0.5625 0.21875 0.890625 0.484375q0.171875 -0.15625 0.4375 -0.296875q0.28125 -0.15625 0.59375 -0.28125q0.328125 -0.125 0.65625 -0.234375q0.34375 -0.125 0.640625 -0.21875q0.0625 0.09375 0.09375 0.28125q0.03125 0.1875 0.015625 0.421875q0 0.21875 -0.0625 0.453125q-0.0625 0.234375 -0.203125 0.421875l-1.921875 -0.140625q0.0625 0.171875 0.109375 0.390625q0.0625 0.21875 0.0625 0.46875q0 0.75 -0.3125 1.390625q-0.296875 0.625 -0.84375 1.09375q-0.53125 0.453125 -1.25 0.71875q-0.71875 0.25 -1.53125 0.25q-0.3125 0 -0.515625 0q-0.1875 -0.015625 -0.4375 -0.078125q-0.15625 0.1875 -0.453125 0.453125q-0.28125 0.25 -0.28125 0.546875q0 0.3125 0.40625 0.484375q0.40625 0.15625 1.03125 0.296875q0.625 0.140625 1.34375 0.3125q0.734375 0.15625 1.359375 0.421875q0.625 0.265625 1.03125 0.703125q0.421875 0.421875 0.421875 1.140625q0 0.875 -0.5 1.5625q-0.484375 0.703125 -1.296875 1.203125q-0.8125 0.5 -1.859375 0.765625q-1.03125 0.265625 -2.09375 0.265625q-0.859375 0 -1.484375 -0.1875q-0.609375 -0.171875 -1.0 -0.484375q-0.390625 -0.296875 -0.578125 -0.6875q-0.1875 -0.390625 -0.1875 -0.828125q0 -0.515625 0.234375 -0.96875q0.234375 -0.4375 0.625 -0.84375q0.390625 -0.40625 0.890625 -0.734375q0.515625 -0.34375 1.046875 -0.640625q-0.265625 -0.140625 -0.453125 -0.390625q-0.171875 -0.265625 -0.171875 -0.578125q0 -0.28125 0.1875 -0.578125q0.1875 -0.3125 0.4375 -0.59375q0.25 -0.28125 0.5 -0.484375q0.25 -0.203125 0.390625 -0.296875q-0.234375 -0.0625 -0.46875 -0.203125q-0.234375 -0.15625 -0.4375 -0.390625q-0.203125 -0.25 -0.34375 -0.5625q-0.125 -0.328125 -0.125 -0.71875q0 -0.71875 0.3125 -1.328125q0.3125 -0.625 0.84375 -1.0625q0.546875 -0.4375 1.25 -0.6875q0.71875 -0.25 1.53125 -0.25zm-2.140625 12.703125q0.578125 0 1.140625 -0.171875q0.578125 -0.171875 1.03125 -0.484375q0.453125 -0.296875 0.734375 -0.765625q0.296875 -0.453125 0.296875 -1.03125q0 -0.546875 -0.453125 -0.859375q-0.453125 -0.3125 -1.109375 -0.5q-0.65625 -0.1875 -1.359375 -0.296875q-0.6875 -0.125 -1.1875 -0.296875q-0.890625 0.640625 -1.21875 1.328125q-0.3125 0.6875 -0.296875 1.28125q-0.015625 0.84375 0.640625 1.3125q0.65625 0.484375 1.78125 0.484375zm2.0 -11.96875q-0.546875 0 -0.96875 0.21875q-0.421875 0.203125 -0.71875 0.546875q-0.296875 0.34375 -0.453125 0.8125q-0.140625 0.46875 -0.140625 0.984375q0 0.703125 0.453125 1.046875q0.46875 0.328125 0.984375 0.328125q0.5625 0 0.953125 -0.1875q0.40625 -0.203125 0.671875 -0.53125q0.28125 -0.34375 0.40625 -0.765625q0.140625 -0.4375 0.140625 -0.890625q0 -0.703125 -0.328125 -1.125q-0.328125 -0.4375 -1.0 -0.4375zm8.794788 6.609375q-0.015625 -0.453125 -0.25 -0.765625q-0.234375 -0.328125 -0.59375 -0.625q-0.359375 -0.3125 -0.78125 -0.609375q-0.40625 -0.296875 -0.7656288 -0.65625q-0.359375 -0.359375 -0.59375 -0.828125q-0.234375 -0.484375 -0.234375 -1.15625q0 -0.671875 0.25 -1.171875q0.265625 -0.515625 0.7187538 -0.84375q0.46875 -0.34375 1.109375 -0.515625q0.640625 -0.171875 1.40625 -0.171875q0.484375 0 1.09375 0.078125q0.609375 0.078125 1.140625 0.40625q0 0.203125 -0.078125 0.46875q-0.0625 0.265625 -0.1875 0.53125q-0.125 0.25 -0.28125 0.46875q-0.140625 0.203125 -0.296875 0.28125l-1.390625 -1.4375q-0.390625 0.015625 -0.734375 0.09375q-0.328125 0.078125 -0.578125 0.25q-0.25 0.15625 -0.390625 0.4375q-0.140625 0.265625 -0.140625 0.671875q0 0.484375 0.234375 0.828125q0.25 0.34375 0.609375 0.65625q0.375 0.3125 0.78125 0.609375q0.421875 0.28125 0.78125 0.640625q0.375 0.359375 0.609375 0.84375q0.25 0.46875 0.25 1.125q0 0.671875 -0.3125 1.203125q-0.296875 0.515625 -0.84375 0.875q-0.53125 0.359375 -1.234375 0.546875q-0.6875 0.1875 -1.46875 0.1875q-0.7812538 0 -1.4375038 -0.15625q-0.640625 -0.15625 -1.015625 -0.390625q0.09375 -0.5 0.21875 -0.953125q0.140625 -0.453125 0.546875 -0.84375l1.6875038 1.546875q0.390625 0 0.765625 -0.09375q0.390625 -0.09375 0.6875 -0.296875q0.3125 -0.203125 0.5 -0.5q0.203125 -0.296875 0.21875 -0.734375z" fill-rule="nonzero"/><path fill="#000000" d="m99.02437 34.784763l-1.328125 -0.171875l0 -0.46875q0.265625 -0.109375 0.609375 -0.21875q0.34375 -0.109375 0.71875 -0.21875q0.390625 -0.109375 0.765625 -0.171875q0.375 -0.0625 0.671875 -0.0625l0.375 0.203125l-2.578125 12.78125l1.359375 0l0 0.484375q-0.375 0.296875 -0.90625 0.484375q-0.53125 0.1875 -1.03125 0.1875q-0.546875 0 -0.796875 -0.234375q-0.25 -0.25 -0.25 -0.5625q0 -0.375 0.046875 -0.71875q0.0625 -0.359375 0.15625 -0.796875l2.1875 -10.515625zm2.6834106 9.25q0 -0.984375 0.296875 -2.0625q0.3125 -1.078125 0.953125 -1.96875q0.640625 -0.890625 1.578125 -1.46875q0.953125 -0.578125 2.234375 -0.578125q1.453125 0 2.1875 0.890625q0.734375 0.890625 0.734375 2.65625q0 1.21875 -0.359375 2.359375q-0.34375 1.125 -0.984375 1.984375q-0.640625 0.859375 -1.53125 1.375q-0.890625 0.5 -1.96875 0.5q-1.4375 0 -2.296875 -0.921875q-0.84375 -0.921875 -0.84375 -2.765625zm4.6875 -5.28125q-0.921875 0.015625 -1.5 0.59375q-0.578125 0.578125 -0.921875 1.4375q-0.328125 0.859375 -0.46875 1.859375q-0.125 0.984375 -0.125 1.796875q0 1.109375 0.484375 1.796875q0.5 0.6875 1.3125 0.6875q0.65625 0 1.15625 -0.484375q0.515625 -0.5 0.875 -1.3125q0.375 -0.8125 0.5625 -1.84375q0.203125 -1.03125 0.203125 -2.0625q0 -1.109375 -0.390625 -1.78125q-0.375 -0.671875 -1.1875 -0.6875zm8.683533 5.9375q0.671875 -1.125 1.1875 -2.171875q0.53125 -1.0625 0.90625 -2.125q0 -0.203125 -0.046875 -0.53125q-0.046875 -0.328125 -0.09375 -0.65625q-0.046875 -0.34375 -0.109375 -0.625q-0.046875 -0.296875 -0.078125 -0.40625q0.53125 -0.21875 1.09375 -0.234375q0.578125 -0.015625 1.0 0.234375q-0.265625 1.15625 -0.765625 2.359375q-0.484375 1.203125 -1.109375 2.40625q-0.625 1.1875 -1.359375 2.34375q-0.734375 1.15625 -1.53125 2.21875l-0.875 0.21875l-1.390625 -8.46875l-1.1875 -0.140625l0 -0.46875q0.109375 -0.078125 0.328125 -0.1875q0.234375 -0.125 0.5 -0.234375q0.265625 -0.125 0.546875 -0.1875q0.296875 -0.078125 0.5625 -0.078125q0.40625 0 0.578125 0.203125q0.1875 0.203125 0.25 0.5l0.859375 6.0625l0.09375 1.171875l0.03125 0l0.609375 -1.203125zm10.805878 1.15625q-0.171875 0.34375 -0.484375 0.6875q-0.3125 0.328125 -0.75 0.609375q-0.421875 0.265625 -0.96875 0.421875q-0.53125 0.15625 -1.15625 0.15625q-1.546875 0 -2.375 -0.875q-0.828125 -0.890625 -0.828125 -2.453125q0 -1.328125 0.375 -2.5q0.375 -1.1875 1.03125 -2.0625q0.671875 -0.875 1.625 -1.375q0.96875 -0.5 2.15625 -0.5q0.890625 0 1.53125 0.453125q0.640625 0.453125 0.640625 1.34375q0 1.328125 -1.3125 2.09375q-1.3125 0.765625 -4.234375 0.984375q-0.078125 0.328125 -0.109375 0.625q-0.03125 0.296875 -0.03125 0.578125q0 1.125 0.5625 1.828125q0.578125 0.703125 1.6875 0.703125q0.34375 0 0.6875 -0.109375q0.34375 -0.109375 0.65625 -0.28125q0.3125 -0.171875 0.5625 -0.34375q0.25 -0.1875 0.4375 -0.34375l0.296875 0.359375zm-1.953125 -7.09375q-0.8125 0.015625 -1.5 0.765625q-0.6875 0.734375 -1.171875 2.515625q1.8125 -0.046875 2.8125 -0.609375q1.015625 -0.578125 1.015625 -1.59375q0 -0.390625 -0.234375 -0.71875q-0.234375 -0.34375 -0.921875 -0.359375zm7.860565 6.546875q-0.015625 -0.453125 -0.25 -0.765625q-0.234375 -0.328125 -0.59375 -0.625q-0.359375 -0.3125 -0.78125 -0.609375q-0.40625 -0.296875 -0.765625 -0.65625q-0.359375 -0.359375 -0.59375 -0.828125q-0.234375 -0.484375 -0.234375 -1.15625q0 -0.671875 0.25 -1.171875q0.265625 -0.515625 0.71875 -0.84375q0.46875 -0.34375 1.109375 -0.515625q0.640625 -0.171875 1.40625 -0.171875q0.484375 0 1.09375 0.078125q0.609375 0.078125 1.140625 0.40625q0 0.203125 -0.078125 0.46875q-0.0625 0.265625 -0.1875 0.53125q-0.125 0.25 -0.28125 0.46875q-0.140625 0.203125 -0.296875 0.28125l-1.390625 -1.4375q-0.390625 0.015625 -0.734375 0.09375q-0.328125 0.078125 -0.578125 0.25q-0.25 0.15625 -0.390625 0.4375q-0.140625 0.265625 -0.140625 0.671875q0 0.484375 0.234375 0.828125q0.25 0.34375 0.609375 0.65625q0.375 0.3125 0.78125 0.609375q0.421875 0.28125 0.78125 0.640625q0.375 0.359375 0.609375 0.84375q0.25 0.46875 0.25 1.125q0 0.671875 -0.3125 1.203125q-0.296875 0.515625 -0.84375 0.875q-0.53125 0.359375 -1.234375 0.546875q-0.6875 0.1875 -1.46875 0.1875q-0.78125 0 -1.4375 -0.15625q-0.640625 -0.15625 -1.015625 -0.390625q0.09375 -0.5 0.21875 -0.953125q0.140625 -0.453125 0.546875 -0.84375l1.6875 1.546875q0.390625 0 0.765625 -0.09375q0.390625 -0.09375 0.6875 -0.296875q0.3125 -0.203125 0.5 -0.5q0.203125 -0.296875 0.21875 -0.734375z" fill-rule="nonzero"/><path fill="#000000" d="m174.48053 45.847263q-0.203125 0.34375 -0.53125 0.6875q-0.3125 0.328125 -0.75 0.609375q-0.421875 0.265625 -0.953125 0.421875q-0.53125 0.15625 -1.15625 0.15625q-1.390625 0 -2.1875 -0.875q-0.796875 -0.875 -0.796875 -2.390625q0 -1.34375 0.421875 -2.515625q0.4375 -1.1875 1.171875 -2.078125q0.734375 -0.890625 1.734375 -1.390625q1.0 -0.515625 2.140625 -0.515625q0.703125 0 1.140625 0.109375q0.453125 0.109375 0.6875 0.3125q0.015625 0.203125 -0.03125 0.46875q-0.046875 0.25 -0.15625 0.5q-0.09375 0.234375 -0.265625 0.4375q-0.15625 0.203125 -0.3125 0.28125l-1.28125 -1.3125q-0.625 0.015625 -1.25 0.390625q-0.625 0.375 -1.125 1.0625q-0.484375 0.6875 -0.796875 1.671875q-0.3125 0.984375 -0.296875 2.203125q-0.015625 1.296875 0.515625 1.890625q0.53125 0.59375 1.453125 0.59375q0.390625 0 0.734375 -0.109375q0.34375 -0.109375 0.640625 -0.28125q0.296875 -0.171875 0.53125 -0.34375q0.25 -0.1875 0.4375 -0.34375l0.28125 0.359375zm4.372467 0.71875q0.5 0 1.0 -0.46875q0.5 -0.484375 0.953125 -1.15625q0.453125 -0.671875 0.796875 -1.390625q0.359375 -0.734375 0.5625 -1.21875l0.59375 -3.1875q-0.25 -0.1875 -0.5 -0.25q-0.234375 -0.078125 -0.671875 -0.078125q-0.859375 0 -1.5625 0.53125q-0.6875 0.53125 -1.1875 1.375q-0.5 0.828125 -0.765625 1.859375q-0.265625 1.015625 -0.265625 2.015625q0 0.953125 0.234375 1.46875q0.234375 0.5 0.8125 0.5zm2.9375 -2.71875q-0.234375 0.671875 -0.609375 1.359375q-0.359375 0.6875 -0.84375 1.25q-0.46875 0.5625 -1.046875 0.921875q-0.578125 0.34375 -1.21875 0.34375q-1.953125 0 -1.953125 -2.8125q0 -1.3125 0.375 -2.546875q0.375 -1.234375 1.078125 -2.203125q0.71875 -0.984375 1.734375 -1.5625q1.015625 -0.59375 2.296875 -0.59375q0.46875 0 0.75 0.09375q0.28125 0.078125 0.671875 0.25q0.75 -0.390625 1.5625 -0.390625l-1.671875 8.515625l1.359375 0l0 0.46875q-0.375 0.296875 -0.90625 0.484375q-0.515625 0.1875 -1.015625 0.1875q-0.53125 0 -0.765625 -0.234375q-0.234375 -0.234375 -0.234375 -0.484375q0 -0.34375 0.125 -1.109375q0.125 -0.765625 0.390625 -1.9375l-0.078125 0zm4.5123444 -5.21875q0.375 -0.203125 0.796875 -0.375q0.421875 -0.171875 0.828125 -0.265625l0.296875 -1.421875q0.265625 -0.203125 0.609375 -0.359375q0.34375 -0.15625 0.71875 -0.3125l0.390625 0.234375l-0.4375 2.046875l2.3125 0q0.03125 0.21875 -0.015625 0.46875q-0.03125 0.234375 -0.171875 0.46875l-2.3125 0l-1.1875 5.40625q-0.0625 0.359375 -0.109375 0.625q-0.03125 0.265625 -0.03125 0.5q0 0.484375 0.28125 0.703125q0.28125 0.21875 0.609375 0.21875q0.46875 0 1.0 -0.171875q0.53125 -0.171875 0.984375 -0.40625l0.203125 0.34375q-0.171875 0.234375 -0.515625 0.484375q-0.328125 0.234375 -0.75 0.453125q-0.421875 0.203125 -0.875 0.328125q-0.453125 0.125 -0.859375 0.125q-0.828125 0 -1.296875 -0.359375q-0.46875 -0.375 -0.46875 -1.171875q0 -0.25 0.046875 -0.5625q0.046875 -0.328125 0.125 -0.65625l1.234375 -5.859375l-1.421875 0l0.015625 -0.484375z" fill-rule="nonzero"/><path fill="#000000" d="m230.56871 45.847263q-0.171875 0.34375 -0.484375 0.6875q-0.3125 0.328125 -0.75 0.609375q-0.421875 0.265625 -0.96875 0.421875q-0.53125 0.15625 -1.15625 0.15625q-1.546875 0 -2.375 -0.875q-0.828125 -0.890625 -0.828125 -2.453125q0 -1.328125 0.375 -2.5q0.375 -1.1875 1.03125 -2.0625q0.671875 -0.875 1.625 -1.375q0.96875 -0.5 2.15625 -0.5q0.890625 0 1.53125 0.453125q0.640625 0.453125 0.640625 1.34375q0 1.328125 -1.3125 2.09375q-1.3125 0.765625 -4.234375 0.984375q-0.078125 0.328125 -0.109375 0.625q-0.03125 0.296875 -0.03125 0.578125q0 1.125 0.5625 1.828125q0.578125 0.703125 1.6875 0.703125q0.34375 0 0.6875 -0.109375q0.34375 -0.109375 0.65625 -0.28125q0.3125 -0.171875 0.5625 -0.34375q0.25 -0.1875 0.4375 -0.34375l0.296875 0.359375zm-1.953125 -7.09375q-0.8125 0.015625 -1.5 0.765625q-0.6875 0.734375 -1.171875 2.515625q1.8125 -0.046875 2.8125 -0.609375q1.015625 -0.578125 1.015625 -1.59375q0 -0.390625 -0.234375 -0.71875q-0.234375 -0.34375 -0.921875 -0.359375zm7.7698517 5.9375q0.671875 -1.125 1.1875 -2.171875q0.53125 -1.0625 0.90625 -2.125q0 -0.203125 -0.046875 -0.53125q-0.046875 -0.328125 -0.09375 -0.65625q-0.046875 -0.34375 -0.109375 -0.625q-0.046875 -0.296875 -0.078125 -0.40625q0.53125 -0.21875 1.09375 -0.234375q0.578125 -0.015625 1.0 0.234375q-0.265625 1.15625 -0.765625 2.359375q-0.484375 1.203125 -1.109375 2.40625q-0.625 1.1875 -1.359375 2.34375q-0.734375 1.15625 -1.53125 2.21875l-0.875 0.21875l-1.390625 -8.46875l-1.1875 -0.140625l0 -0.46875q0.109375 -0.078125 0.328125 -0.1875q0.234375 -0.125 0.5 -0.234375q0.265625 -0.125 0.546875 -0.1875q0.296875 -0.078125 0.5625 -0.078125q0.40625 0 0.578125 0.203125q0.1875 0.203125 0.25 0.5l0.859375 6.0625l0.09375 1.171875l0.03125 0l0.609375 -1.203125zm10.805878 1.15625q-0.171875 0.34375 -0.484375 0.6875q-0.3125 0.328125 -0.75 0.609375q-0.421875 0.265625 -0.96875 0.421875q-0.53125 0.15625 -1.15625 0.15625q-1.546875 0 -2.375 -0.875q-0.828125 -0.890625 -0.828125 -2.453125q0 -1.328125 0.375 -2.5q0.375 -1.1875 1.03125 -2.0625q0.671875 -0.875 1.625 -1.375q0.96875 -0.5 2.15625 -0.5q0.890625 0 1.53125 0.453125q0.640625 0.453125 0.640625 1.34375q0 1.328125 -1.3125 2.09375q-1.3125 0.765625 -4.234375 0.984375q-0.078125 0.328125 -0.109375 0.625q-0.03125 0.296875 -0.03125 0.578125q0 1.125 0.5625 1.828125q0.578125 0.703125 1.6875 0.703125q0.34375 0 0.6875 -0.109375q0.34375 -0.109375 0.65625 -0.28125q0.3125 -0.171875 0.5625 -0.34375q0.25 -0.1875 0.4375 -0.34375l0.296875 0.359375zm-1.953125 -7.09375q-0.8125 0.015625 -1.5 0.765625q-0.6875 0.734375 -1.171875 2.515625q1.8125 -0.046875 2.8125 -0.609375q1.015625 -0.578125 1.015625 -1.59375q0 -0.390625 -0.234375 -0.71875q-0.234375 -0.34375 -0.921875 -0.359375zm8.798065 0.5625q-0.484375 0.1875 -1.09375 0.9375q-0.59375 0.75 -1.0625 2.046875l-1.125 5.203125l-1.609375 0l1.734375 -8.25l-1.125 -0.15625l0 -0.46875q0.625 -0.296875 1.3125 -0.453125q0.703125 -0.171875 1.25 -0.21875l0.375 0.21875l-0.515625 2.484375l0.078125 0q0.53125 -1.234375 1.3125 -1.96875q0.78125 -0.734375 1.6875 -0.734375q0.234375 0 0.46875 0.046875q0.25 0.046875 0.484375 0.171875q0 0.171875 -0.0625 0.4375q-0.046875 0.265625 -0.15625 0.546875q-0.109375 0.28125 -0.234375 0.53125q-0.109375 0.25 -0.25 0.390625l-1.46875 -0.765625zm3.1357727 -0.0625l-1.1874847 -0.140625l0 -0.46875q0.09373474 -0.078125 0.29685974 -0.1875q0.21875 -0.109375 0.5 -0.21875q0.28125 -0.125 0.578125 -0.203125q0.296875 -0.078125 0.5625 -0.078125q0.390625 0 0.5625 0.203125q0.1875 0.1875 0.28125 0.5l1.546875 6.53125l0.046875 1.125l0.046875 0l0.421875 -1.109375q0.25 -0.515625 0.5 -1.140625q0.25 -0.625 0.484375 -1.25q0.25 -0.640625 0.453125 -1.25q0.203125 -0.625 0.359375 -1.15625q0 -0.203125 -0.046875 -0.53125q-0.046875 -0.34375 -0.109375 -0.671875q-0.046875 -0.34375 -0.109375 -0.625q-0.0625 -0.296875 -0.09375 -0.40625q0.265625 -0.109375 0.5625 -0.15625q0.296875 -0.0625 0.578125 -0.0625q0.5625 0 0.984375 0.21875q-0.578125 2.3125 -1.578125 4.625q-1.0 2.3125 -2.203125 4.703125q-1.015625 1.953125 -2.03125 2.921875q-1.0 0.984375 -2.265625 0.984375q-0.28125 0 -0.53123474 -0.078125q-0.25 -0.078125 -0.53125 -0.234375q-0.015625 -0.203125 0.046875 -0.46875q0.046875 -0.25 0.171875 -0.515625q0.125 -0.265625 0.3125 -0.484375q0.203125 -0.21875 0.43748474 -0.359375l1.515625 0.796875q0.125 -0.09375 0.328125 -0.28125q0.21875 -0.171875 0.4375 -0.484375q0.21875 -0.296875 0.4375 -0.75q0.234375 -0.4375 0.4375 -1.046875l-2.203125 -8.25z" fill-rule="nonzero"/><path fill="#000000" d="m303.77725 39.097263l0 -0.46875q0.265625 -0.125 0.625 -0.234375q0.359375 -0.125 0.734375 -0.21875q0.375 -0.09375 0.703125 -0.15625q0.34375 -0.0625 0.59375 -0.0625l0.34375 0.21875l-1.75 8.28125l1.375 0l0 0.484375q-0.390625 0.296875 -0.921875 0.484375q-0.515625 0.1875 -1.015625 0.1875q-0.546875 0 -0.78125 -0.234375q-0.234375 -0.25 -0.234375 -0.5625q0 -0.375 0.046875 -0.71875q0.0625 -0.359375 0.15625 -0.796875l1.3125 -6.03125l-1.1875 -0.171875zm1.5 -4.15625q0 -0.484375 0.296875 -0.75q0.296875 -0.28125 0.78125 -0.28125q0.515625 0 0.8125 0.28125q0.296875 0.265625 0.296875 0.75q0 0.46875 -0.296875 0.734375q-0.296875 0.265625 -0.8125 0.265625q-0.484375 0 -0.78125 -0.265625q-0.296875 -0.265625 -0.296875 -0.734375zm4.7459106 4.171875l-1.359375 0l0 -0.484375q0.375 -0.203125 0.78125 -0.359375q0.421875 -0.171875 0.796875 -0.265625l0.140625 -0.65625q0.234375 -1.15625 0.65625 -1.90625q0.421875 -0.75 0.984375 -1.1875q0.5625 -0.4375 1.234375 -0.609375q0.671875 -0.171875 1.4375 -0.171875q0.3125 0 0.75 0.078125q0.4375 0.078125 0.734375 0.21875q-0.03125 0.40625 -0.203125 0.859375q-0.15625 0.4375 -0.53125 0.75l-1.40625 -1.15625q-0.34375 0.09375 -0.625 0.203125q-0.28125 0.109375 -0.53125 0.421875q-0.25 0.3125 -0.46875 0.875q-0.21875 0.546875 -0.4375 1.515625l-0.1875 0.9375l2.078125 0q0.09375 0.46875 -0.1875 0.9375l-2.0625 0l-1.203125 7.59375q-0.203125 1.3125 -0.6875 2.1875q-0.484375 0.890625 -1.046875 1.421875q-0.546875 0.546875 -1.0625 0.796875q-0.515625 0.265625 -0.796875 0.34375l-0.171875 -0.40625q0.21875 -0.109375 0.546875 -0.40625q0.3125 -0.28125 0.609375 -0.765625q0.3125 -0.484375 0.578125 -1.1875q0.28125 -0.703125 0.421875 -1.640625l1.21875 -7.9375z" fill-rule="nonzero"/><path fill="#000000" d="m356.27148 38.628513q0.375 -0.203125 0.796875 -0.375q0.421875 -0.171875 0.828125 -0.265625l0.296875 -1.421875q0.265625 -0.203125 0.609375 -0.359375q0.34375 -0.15625 0.71875 -0.3125l0.390625 0.234375l-0.4375 2.046875l2.3125 0q0.03125 0.21875 -0.015625 0.46875q-0.03125 0.234375 -0.171875 0.46875l-2.3125 0l-1.1875 5.40625q-0.0625 0.359375 -0.109375 0.625q-0.03125 0.265625 -0.03125 0.5q0 0.484375 0.28125 0.703125q0.28125 0.21875 0.609375 0.21875q0.46875 0 1.0 -0.171875q0.53125 -0.171875 0.984375 -0.40625l0.203125 0.34375q-0.171875 0.234375 -0.515625 0.484375q-0.328125 0.234375 -0.75 0.453125q-0.421875 0.203125 -0.875 0.328125q-0.453125 0.125 -0.859375 0.125q-0.828125 0 -1.296875 -0.359375q-0.46875 -0.375 -0.46875 -1.171875q0 -0.25 0.046875 -0.5625q0.046875 -0.328125 0.125 -0.65625l1.234375 -5.859375l-1.421875 0l0.015625 -0.484375zm7.209015 -4.015625l0 -0.4375q0.28125 -0.109375 0.625 -0.21875q0.34375 -0.125 0.71875 -0.21875q0.375 -0.109375 0.71875 -0.171875q0.359375 -0.078125 0.6875 -0.09375l0.390625 0.171875l-1.6875 7.828125l0.09375 0q0.359375 -0.734375 0.796875 -1.375q0.453125 -0.65625 0.9375 -1.125q0.5 -0.484375 1.046875 -0.75q0.546875 -0.265625 1.09375 -0.265625q0.859375 0 1.234375 0.5q0.390625 0.484375 0.390625 1.21875q0 0.5 -0.09375 1.078125q-0.09375 0.578125 -0.21875 1.109375l-1.0625 4.59375l1.375 0l0 0.484375q-0.375 0.296875 -0.890625 0.484375q-0.515625 0.1875 -1.046875 0.1875q-0.53125 0 -0.75 -0.21875q-0.203125 -0.21875 -0.203125 -0.484375q0 -0.34375 0.09375 -0.75q0.09375 -0.421875 0.1875 -0.859375l0.671875 -3.109375q0.125 -0.578125 0.234375 -1.078125q0.109375 -0.515625 0.109375 -0.984375q0 -0.421875 -0.1875 -0.71875q-0.1875 -0.296875 -0.515625 -0.296875q-0.578125 0 -1.125 0.40625q-0.53125 0.40625 -1.0 0.984375q-0.46875 0.578125 -0.828125 1.203125q-0.34375 0.625 -0.53125 1.046875l-0.984375 4.75l-1.5625 0l2.546875 -12.71875l-1.265625 -0.171875zm15.520966 11.234375q-0.171875 0.34375 -0.484375 0.6875q-0.3125 0.328125 -0.75 0.609375q-0.421875 0.265625 -0.96875 0.421875q-0.53125 0.15625 -1.15625 0.15625q-1.546875 0 -2.375 -0.875q-0.828125 -0.890625 -0.828125 -2.453125q0 -1.328125 0.375 -2.5q0.375 -1.1875 1.03125 -2.0625q0.671875 -0.875 1.625 -1.375q0.96875 -0.5 2.15625 -0.5q0.890625 0 1.53125 0.453125q0.640625 0.453125 0.640625 1.34375q0 1.328125 -1.3125 2.09375q-1.3125 0.765625 -4.234375 0.984375q-0.078125 0.328125 -0.109375 0.625q-0.03125 0.296875 -0.03125 0.578125q0 1.125 0.5625 1.828125q0.578125 0.703125 1.6875 0.703125q0.34375 0 0.6875 -0.109375q0.34375 -0.109375 0.65625 -0.28125q0.3125 -0.171875 0.5625 -0.34375q0.25 -0.1875 0.4375 -0.34375l0.296875 0.359375zm-1.953125 -7.09375q-0.8125 0.015625 -1.5 0.765625q-0.6875 0.734375 -1.171875 2.515625q1.8125 -0.046875 2.8125 -0.609375q1.015625 -0.578125 1.015625 -1.59375q0 -0.390625 -0.234375 -0.71875q-0.234375 -0.34375 -0.921875 -0.359375zm4.769867 0.5l-1.1875 -0.140625l0 -0.46875q0.09375 -0.078125 0.296875 -0.1875q0.21875 -0.109375 0.5 -0.21875q0.28125 -0.125 0.578125 -0.203125q0.296875 -0.078125 0.5625 -0.078125q0.390625 0 0.5625 0.203125q0.1875 0.1875 0.28125 0.5l1.546875 6.53125l0.046875 1.125l0.046875 0l0.421875 -1.109375q0.25 -0.515625 0.5 -1.140625q0.25 -0.625 0.484375 -1.25q0.25 -0.640625 0.453125 -1.25q0.203125 -0.625 0.359375 -1.15625q0 -0.203125 -0.046875 -0.53125q-0.046875 -0.34375 -0.109375 -0.671875q-0.046875 -0.34375 -0.109375 -0.625q-0.0625 -0.296875 -0.09375 -0.40625q0.265625 -0.109375 0.5625 -0.15625q0.296875 -0.0625 0.578125 -0.0625q0.5625 0 0.984375 0.21875q-0.578125 2.3125 -1.578125 4.625q-1.0 2.3125 -2.203125 4.703125q-1.015625 1.953125 -2.03125 2.921875q-1.0 0.984375 -2.265625 0.984375q-0.28125 0 -0.53125 -0.078125q-0.25 -0.078125 -0.53125 -0.234375q-0.015625 -0.203125 0.046875 -0.46875q0.046875 -0.25 0.171875 -0.515625q0.125 -0.265625 0.3125 -0.484375q0.203125 -0.21875 0.4375 -0.359375l1.515625 0.796875q0.125 -0.09375 0.328125 -0.28125q0.21875 -0.171875 0.4375 -0.484375q0.21875 -0.296875 0.4375 -0.75q0.234375 -0.4375 0.4375 -1.046875l-2.203125 -8.25z" fill-rule="nonzero"/><path fill="#000000" d="m426.09067 34.784763l-1.3125 -0.171875l0 -0.4375q0.296875 -0.109375 0.65625 -0.21875q0.359375 -0.109375 0.71875 -0.203125q0.359375 -0.109375 0.71875 -0.171875q0.359375 -0.078125 0.65625 -0.109375l0.390625 0.203125l-1.640625 7.78125l0.09375 0q0.328125 -0.671875 0.734375 -1.296875q0.40625 -0.640625 0.859375 -1.125q0.453125 -0.484375 0.953125 -0.78125q0.515625 -0.296875 1.0625 -0.296875q1.0 0 1.578125 0.6875q0.578125 0.6875 0.578125 2.140625q0 1.4375 -0.40625 2.703125q-0.40625 1.25 -1.140625 2.203125q-0.71875 0.9375 -1.75 1.484375q-1.015625 0.546875 -2.265625 0.546875q-0.921875 0 -1.71875 -0.234375q-0.78125 -0.234375 -1.15625 -0.546875l2.390625 -12.15625zm3.109375 4.328125q-0.484375 0 -0.953125 0.4375q-0.46875 0.421875 -0.875 1.03125q-0.390625 0.59375 -0.71875 1.265625q-0.328125 0.65625 -0.546875 1.109375l-0.703125 3.578125q0.28125 0.1875 0.6875 0.296875q0.421875 0.09375 0.84375 0.09375q0.71875 0 1.359375 -0.5q0.640625 -0.5 1.125 -1.328125q0.5 -0.828125 0.765625 -1.859375q0.28125 -1.03125 0.265625 -2.09375q0.015625 -0.890625 -0.28125 -1.453125q-0.296875 -0.578125 -0.96875 -0.578125zm12.750671 7.359375l0 0.46875q-0.375 0.296875 -0.90625 0.484375q-0.53125 0.1875 -1.046875 0.1875q-0.53125 0 -0.765625 -0.21875q-0.234375 -0.21875 -0.234375 -0.484375q0 -0.34375 0.09375 -1.125q0.09375 -0.796875 0.40625 -1.9375l-0.078125 0q-0.234375 0.515625 -0.609375 1.1875q-0.359375 0.671875 -0.859375 1.28125q-0.5 0.59375 -1.140625 1.0q-0.640625 0.40625 -1.4375 0.40625q-0.640625 0 -1.09375 -0.453125q-0.453125 -0.453125 -0.453125 -1.296875q0 -0.40625 0.125 -1.203125q0.140625 -0.8125 0.328125 -1.765625q0.1875 -0.953125 0.390625 -1.9375q0.21875 -1.0 0.390625 -1.8125l-1.140625 -0.15625l0 -0.46875q0.296875 -0.125 0.640625 -0.234375q0.359375 -0.109375 0.703125 -0.203125q0.34375 -0.09375 0.65625 -0.15625q0.3125 -0.0625 0.578125 -0.078125l0.40625 0.21875q-0.296875 1.40625 -0.609375 2.671875q-0.296875 1.25 -0.5625 2.640625q-0.09375 0.453125 -0.203125 1.0q-0.09375 0.546875 -0.09375 1.203125q0 0.390625 0.203125 0.640625q0.21875 0.234375 0.5 0.234375q0.421875 0 0.828125 -0.234375q0.40625 -0.25 0.765625 -0.640625q0.375 -0.390625 0.6875 -0.859375q0.328125 -0.484375 0.59375 -0.9375q0.265625 -0.46875 0.4375 -0.875q0.1875 -0.40625 0.28125 -0.640625l0.8125 -4.203125l1.546875 0l-1.53125 8.296875l1.390625 0zm2.0023193 -7.84375q0.375 -0.203125 0.796875 -0.375q0.421875 -0.171875 0.828125 -0.265625l0.296875 -1.421875q0.265625 -0.203125 0.609375 -0.359375q0.34375 -0.15625 0.71875 -0.3125l0.390625 0.234375l-0.4375 2.046875l2.3125 0q0.03125 0.21875 -0.015625 0.46875q-0.03125 0.234375 -0.171875 0.46875l-2.3125 0l-1.1875 5.40625q-0.0625 0.359375 -0.109375 0.625q-0.03125 0.265625 -0.03125 0.5q0 0.484375 0.28125 0.703125q0.28125 0.21875 0.609375 0.21875q0.46875 0 1.0 -0.171875q0.53125 -0.171875 0.984375 -0.40625l0.203125 0.34375q-0.171875 0.234375 -0.515625 0.484375q-0.328125 0.234375 -0.75 0.453125q-0.421875 0.203125 -0.875 0.328125q-0.453125 0.125 -0.859375 0.125q-0.828125 0 -1.296875 -0.359375q-0.46875 -0.375 -0.46875 -1.171875q0 -0.25 0.046875 -0.5625q0.046875 -0.328125 0.125 -0.65625l1.234375 -5.859375l-1.421875 0l0.015625 -0.484375z" fill-rule="nonzero"/><path fill="#000000" d="m494.46194 42.191013q0.125 -0.578125 0.21875 -1.078125q0.109375 -0.5 0.109375 -0.984375q0 -0.421875 -0.203125 -0.71875q-0.1875 -0.296875 -0.609375 -0.296875q-0.5 0 -1.03125 0.40625q-0.515625 0.40625 -0.96875 0.984375q-0.453125 0.578125 -0.8125 1.203125q-0.359375 0.625 -0.546875 1.046875l-0.984375 4.75l-1.578125 0l1.640625 -8.25l-1.125 -0.15625l0.03125 -0.46875q0.265625 -0.140625 0.578125 -0.25q0.328125 -0.125 0.671875 -0.21875q0.359375 -0.09375 0.671875 -0.140625q0.328125 -0.0625 0.609375 -0.0625l0.375 0.21875l-0.703125 3.296875l0.09375 0q0.359375 -0.734375 0.8125 -1.375q0.453125 -0.65625 0.96875 -1.125q0.515625 -0.484375 1.0625 -0.75q0.5625 -0.265625 1.140625 -0.265625q0.78125 0 1.140625 0.5q0.375 0.484375 0.375 1.234375q0 0.40625 -0.09375 1.03125q-0.09375 0.609375 -0.21875 1.140625l-1.0625 4.59375l1.375 0l0 0.484375q-0.375 0.296875 -0.90625 0.484375q-0.53125 0.1875 -1.03125 0.1875q-0.546875 0 -0.75 -0.21875q-0.203125 -0.21875 -0.203125 -0.484375q0 -0.359375 0.09375 -0.78125q0.09375 -0.421875 0.1875 -0.84375l0.671875 -3.09375zm3.8607483 1.84375q0 -0.984375 0.296875 -2.0625q0.3125 -1.078125 0.953125 -1.96875q0.640625 -0.890625 1.578125 -1.46875q0.953125 -0.578125 2.234375 -0.578125q1.453125 0 2.1875 0.890625q0.734375 0.890625 0.734375 2.65625q0 1.21875 -0.359375 2.359375q-0.34375 1.125 -0.984375 1.984375q-0.640625 0.859375 -1.53125 1.375q-0.890625 0.5 -1.96875 0.5q-1.4375 0 -2.296875 -0.921875q-0.84375 -0.921875 -0.84375 -2.765625zm4.6875 -5.28125q-0.921875 0.015625 -1.5 0.59375q-0.578125 0.578125 -0.921875 1.4375q-0.328125 0.859375 -0.46875 1.859375q-0.125 0.984375 -0.125 1.796875q0 1.109375 0.484375 1.796875q0.5 0.6875 1.3125 0.6875q0.65625 0 1.15625 -0.484375q0.515625 -0.5 0.875 -1.3125q0.375 -0.8125 0.5625 -1.84375q0.203125 -1.03125 0.203125 -2.0625q0 -1.109375 -0.390625 -1.78125q-0.375 -0.671875 -1.1875 -0.6875zm5.0429077 -0.125q0.375 -0.203125 0.796875 -0.375q0.421875 -0.171875 0.828125 -0.265625l0.296875 -1.421875q0.265625 -0.203125 0.609375 -0.359375q0.34375 -0.15625 0.71875 -0.3125l0.390625 0.234375l-0.4375 2.046875l2.3125 0q0.03125 0.21875 -0.015625 0.46875q-0.03125 0.234375 -0.171875 0.46875l-2.3125 0l-1.1875 5.40625q-0.0625 0.359375 -0.109375 0.625q-0.03125 0.265625 -0.03125 0.5q0 0.484375 0.28125 0.703125q0.28125 0.21875 0.609375 0.21875q0.46875 0 1.0 -0.171875q0.53125 -0.171875 0.984375 -0.40625l0.203125 0.34375q-0.171875 0.234375 -0.515625 0.484375q-0.328125 0.234375 -0.75 0.453125q-0.421875 0.203125 -0.875 0.328125q-0.453125 0.125 -0.859375 0.125q-0.828125 0 -1.296875 -0.359375q-0.46875 -0.375 -0.46875 -1.171875q0 -0.25 0.046875 -0.5625q0.046875 -0.328125 0.125 -0.65625l1.234375 -5.859375l-1.421875 0l0.015625 -0.484375z" fill-rule="nonzero"/><path fill="#000000" fill-opacity="0.0" d="m525.48694 66.92787c0 4.3487015 -3.5253296 7.874016 -7.8740234 7.874016l-235.16537 0c-4.348694 0 -7.8740234 3.5253143 -7.8740234 7.874016c0 -4.3487015 -3.525299 -7.874016 -7.873993 -7.874016l-235.16537 0c-4.3486996 0 -7.874016 -3.5253143 -7.874016 -7.874016z" fill-rule="evenodd"/><path fill="#000000" fill-opacity="0.0" d="m525.48694 66.92787c0 4.3487015 -3.5253296 7.874016 -7.8740234 7.874016l-235.16537 0c-4.348694 0 -7.8740234 3.5253143 -7.8740234 7.874016c0 -4.3487015 -3.525299 -7.874016 -7.873993 -7.874016l-235.16537 0c-4.3486996 0 -7.874016 -3.5253143 -7.874016 -7.874016" fill-rule="evenodd"/><path stroke="#000000" stroke-width="2.0" stroke-linejoin="round" stroke-linecap="butt" d="m525.48694 66.92787c0 4.3487015 -3.5253296 7.874016 -7.8740234 7.874016l-235.16537 0c-4.348694 0 -7.8740234 3.5253143 -7.8740234 7.874016c0 -4.3487015 -3.525299 -7.874016 -7.873993 -7.874016l-235.16537 0c-4.3486996 0 -7.874016 -3.5253143 -7.874016 -7.874016" fill-rule="evenodd"/><path fill="#000000" fill-opacity="0.0" d="m274.57352 82.6759c0 8.876678 -14.456696 13.316353 -28.913376 17.753357c-14.456696 4.4370117 -28.913391 8.871353 -28.913391 17.742706" fill-rule="evenodd"/><path stroke="#000000" stroke-width="2.0" stroke-linejoin="round" stroke-linecap="butt" d="m274.57352 82.6759c0 8.876686 -14.456665 13.316345 -28.913376 17.753357c-7.228348 2.2184982 -14.45668 4.4363403 -19.877945 7.208473c-0.33883667 0.17325592 -0.6706085 0.3486786 -0.99487305 0.52641296c-0.1621399 0.08885956 -0.3223877 0.17829132 -0.48072815 0.26831818l-0.30807495 0.17854309" fill-rule="evenodd"/><path fill="#000000" stroke="#000000" stroke-width="2.0" stroke-linecap="butt" d="m221.3665 106.61468l-2.8528442 9.22776l8.116898 -5.2351z" fill-rule="evenodd"/><path fill="#000000" fill-opacity="0.0" d="m23.959026 133.9305c0 -4.348694 3.5253181 -7.874016 7.874016 -7.874016l177.03937 0c4.348709 0 7.8740234 -3.5253143 7.8740234 -7.874016c0 4.3487015 3.5253143 7.874016 7.874008 7.874016l177.03938 0c4.348694 0 7.8740234 3.525322 7.8740234 7.874016z" fill-rule="evenodd"/><path fill="#000000" fill-opacity="0.0" d="m23.959026 133.9305c0 -4.348694 3.5253181 -7.874016 7.874016 -7.874016l177.03937 0c4.348709 0 7.8740234 -3.5253143 7.8740234 -7.874016c0 4.3487015 3.5253143 7.874016 7.874008 7.874016l177.03938 0c4.348694 0 7.8740234 3.525322 7.8740234 7.874016" fill-rule="evenodd"/><path stroke="#000000" stroke-width="2.0" stroke-linejoin="round" stroke-linecap="butt" d="m23.959026 133.9305c0 -4.348694 3.5253181 -7.874016 7.874016 -7.874016l177.03937 0c4.348709 0 7.8740234 -3.5253143 7.8740234 -7.874016c0 4.3487015 3.5253143 7.874016 7.874008 7.874016l177.03938 0c4.348694 0 7.8740234 3.525322 7.8740234 7.874016" fill-rule="evenodd"/><path fill="#000000" fill-opacity="0.0" d="m524.8469 83.54227l52.787415 0l0 22.614174l-52.787415 0z" fill-rule="evenodd"/><path fill="#000000" d="m541.60144 98.931015q0 -0.5625 -0.34375 -0.875q-0.328125 -0.328125 -0.828125 -0.53125q-0.5 -0.21875 -1.09375 -0.40625q-0.578125 -0.203125 -1.078125 -0.515625q-0.484375 -0.3125 -0.828125 -0.796875q-0.328125 -0.484375 -0.328125 -1.296875q0 -1.34375 0.765625 -1.96875q0.765625 -0.625 2.125 -0.625q1.0 0 1.6875 0.171875q0.6875 0.171875 1.1875 0.421875l-0.359375 1.234375q-0.421875 -0.203125 -1.03125 -0.359375q-0.609375 -0.171875 -1.296875 -0.171875q-0.828125 0 -1.21875 0.28125q-0.375 0.28125 -0.375 0.96875q0 0.484375 0.328125 0.765625q0.34375 0.265625 0.84375 0.484375q0.5 0.203125 1.078125 0.421875q0.59375 0.203125 1.078125 0.546875q0.5 0.328125 0.828125 0.84375q0.34375 0.5 0.34375 1.34375q0 0.59375 -0.203125 1.125q-0.1875 0.515625 -0.59375 0.890625q-0.40625 0.375 -1.015625 0.578125q-0.609375 0.21875 -1.4375 0.21875q-1.0625 0 -1.8125 -0.203125q-0.734375 -0.203125 -1.234375 -0.484375l0.4375 -1.265625q0.4375 0.234375 1.125 0.453125q0.6875 0.203125 1.390625 0.203125q0.8125 0 1.328125 -0.3125q0.53125 -0.328125 0.53125 -1.140625zm4.057373 -6.796875l1.5 0l0 9.328125l-1.5 0l0 -9.328125zm-0.3125 -2.828125q0 -0.4375 0.28125 -0.734375q0.296875 -0.3125 0.75 -0.3125q0.4375 0 0.75 0.3125q0.328125 0.296875 0.328125 0.734375q0 0.421875 -0.328125 0.703125q-0.3125 0.28125 -0.75 0.28125q-0.453125 0 -0.75 -0.28125q-0.28125 -0.28125 -0.28125 -0.703125zm4.343628 10.84375l4.3125 -5.921875l0.78125 -0.78125l-5.09375 0l0 -1.3125l6.640625 0l0 1.3125l-4.34375 5.984375l-0.765625 0.71875l5.109375 0l0 1.3125l-6.640625 0l0 -1.3125zm15.50946 0.5625q-0.5625 0.453125 -1.421875 0.71875q-0.84375 0.25 -1.796875 0.25q-1.0625 0 -1.84375 -0.34375q-0.78125 -0.34375 -1.28125 -0.984375q-0.5 -0.640625 -0.75 -1.53125q-0.234375 -0.90625 -0.234375 -2.03125q0 -2.375 1.0625 -3.625q1.0625 -1.25 3.03125 -1.25q0.640625 0 1.265625 0.140625q0.640625 0.140625 1.140625 0.53125q0.5 0.390625 0.8125 1.109375q0.328125 0.71875 0.328125 1.890625q0 0.609375 -0.109375 1.359375l-5.984375 0q0 0.828125 0.15625 1.46875q0.171875 0.625 0.515625 1.0625q0.359375 0.4375 0.921875 0.671875q0.578125 0.234375 1.40625 0.234375q0.625 0 1.265625 -0.21875q0.640625 -0.234375 0.953125 -0.53125l0.5625 1.078125zm-3.21875 -7.5q-1.09375 0 -1.765625 0.578125q-0.65625 0.578125 -0.78125 1.984375l4.625 0q0 -1.421875 -0.546875 -1.984375q-0.53125 -0.578125 -1.53125 -0.578125z" fill-rule="nonzero"/><path fill="#000000" fill-opacity="0.0" d="m551.24066 83.54227c0 -8.403252 0.01574707 -12.6057205 0.03149414 -16.80651c0.01574707 -4.2007866 0.03149414 -8.399891 0.03149414 -16.799786" fill-rule="evenodd"/><path stroke="#000000" stroke-width="2.0" stroke-linejoin="round" stroke-linecap="butt" d="m551.24066 83.54227c0 -8.403252 0.01574707 -12.6057205 0.03149414 -16.80651l0.015197754 -4.799797" fill-rule="evenodd"/><path fill="#000000" stroke="#000000" stroke-width="2.0" stroke-linecap="butt" d="m554.5908 61.940434l-3.2911377 -9.080666l-3.315796 9.071709z" fill-rule="evenodd"/><path fill="#000000" fill-opacity="0.0" d="m537.8622 39.88214l26.834656 0l0 10.047245l-26.834656 0z" fill-rule="evenodd"/></g></svg>