<svg version="1.1" viewBox="0.0 0.0 663.1391076115485 142.04461942257217" fill="none" stroke="none" stroke-linecap="square" stroke-miterlimit="10" xmlns:xlink="http://www.w3.org/1999/xlink" xmlns="http://www.w3.org/2000/svg"><clipPath id="p.0"><path d="m0 0l663.1391 0l0 142.04462l-663.1391 0l0 -142.04462z" clip-rule="nonzero"/></clipPath><g clip-path="url(#p.0)"><path fill="#000000" fill-opacity="0.0" d="m0 0l663.1391 0l0 142.04462l-663.1391 0z" fill-rule="evenodd"/><path fill="#000000" fill-opacity="0.0" d="m156.28346 59.013123l39.433075 0l0 39.433075l-39.433075 0z" fill-rule="evenodd"/><path stroke="#000000" stroke-width="2.0" stroke-linejoin="round" stroke-linecap="butt" d="m156.28346 59.013123l39.433075 0l0 39.433075l-39.433075 0z" fill-rule="evenodd"/><path fill="#000000" fill-opacity="0.0" d="m196.28346 59.013123l39.433075 0l0 39.433075l-39.433075 0z" fill-rule="evenodd"/><path stroke="#000000" stroke-width="2.0" stroke-linejoin="round" stroke-linecap="butt" d="m196.28346 59.013123l39.433075 0l0 39.433075l-39.433075 0z" fill-rule="evenodd"/><path fill="#000000" d="m215.27554 84.57153q0.640625 0 1.171875 -0.1875q0.546875 -0.1875 0.9375 -0.546875q0.390625 -0.375 0.609375 -0.875q0.234375 -0.5 0.234375 -1.09375q0 -1.3125 -0.78125 -1.9375q-0.765625 -0.640625 -2.125 -0.640625l-1.390625 0l0 -0.546875l2.6875 -4.140625l0.859375 -0.8125l-1.203125 0.1875l-3.703125 0l0 -1.390625l6.671875 0l0 0.546875l-2.96875 4.453125l-0.65625 0.546875l0 0.03125l0.625 -0.125q0.75 0.015625 1.375 0.265625q0.640625 0.25 1.109375 0.734375q0.46875 0.46875 0.734375 1.140625q0.265625 0.65625 0.265625 1.5q0 1.0 -0.359375 1.78125q-0.359375 0.78125 -0.96875 1.328125q-0.59375 0.53125 -1.421875 0.8125q-0.8125 0.265625 -1.734375 0.265625q-0.84375 0 -1.515625 -0.125q-0.671875 -0.125 -1.171875 -0.34375l0.390625 -1.3125q0.4375 0.203125 1.015625 0.34375q0.59375 0.140625 1.3125 0.140625z" fill-rule="nonzero"/><path fill="#000000" fill-opacity="0.0" d="m236.28346 59.013123l39.43306 0l0 39.433075l-39.43306 0z" fill-rule="evenodd"/><path stroke="#000000" stroke-width="2.0" stroke-linejoin="round" stroke-linecap="butt" d="m236.28346 59.013123l39.43306 0l0 39.433075l-39.43306 0z" fill-rule="evenodd"/><path fill="#000000" d="m251.88492 76.54028q0 -0.890625 0.265625 -1.65625q0.265625 -0.765625 0.765625 -1.328125q0.5 -0.5625 1.25 -0.875q0.765625 -0.3125 1.765625 -0.3125q1.90625 0 2.96875 1.234375q1.0625 1.21875 1.0625 3.46875q0 2.109375 -0.484375 3.6875q-0.46875 1.5625 -1.3125 2.65625q-0.828125 1.078125 -1.984375 1.6875q-1.140625 0.609375 -2.484375 0.765625l-0.34375 -1.1875q1.09375 -0.171875 1.953125 -0.640625q0.875 -0.46875 1.5 -1.171875q0.625 -0.703125 1.015625 -1.609375q0.390625 -0.90625 0.53125 -1.96875q-0.5 0.59375 -1.109375 0.828125q-0.59375 0.234375 -1.59375 0.234375q-0.765625 0 -1.453125 -0.25q-0.671875 -0.25 -1.203125 -0.734375q-0.515625 -0.484375 -0.8125 -1.1875q-0.296875 -0.71875 -0.296875 -1.640625zm1.546875 -0.140625q0 1.328125 0.703125 1.984375q0.703125 0.65625 1.84375 0.65625q0.90625 0 1.5625 -0.296875q0.65625 -0.296875 0.9375 -0.78125q0.03125 -0.234375 0.03125 -0.421875q0 -0.1875 0 -0.390625q0 -0.671875 -0.15625 -1.296875q-0.15625 -0.625 -0.484375 -1.125q-0.3125 -0.5 -0.828125 -0.78125q-0.515625 -0.28125 -1.203125 -0.28125q-1.140625 0 -1.78125 0.71875q-0.625 0.71875 -0.625 2.015625z" fill-rule="nonzero"/><path fill="#000000" fill-opacity="0.0" d="m276.28348 59.013123l39.433044 0l0 39.433075l-39.433044 0z" fill-rule="evenodd"/><path stroke="#000000" stroke-width="2.0" stroke-linejoin="round" stroke-linecap="butt" d="m276.28348 59.013123l39.433044 0l0 39.433075l-39.433044 0z" fill-rule="evenodd"/><path fill="#000000" d="m292.9318 84.27466l2.609375 0l0 -9.03125l0.1875 -1.109375l-0.75 0.875l-2.046875 1.484375l-0.703125 -0.953125l4.09375 -3.171875l0.671875 0l0 11.90625l2.5625 0l0 1.375l-6.625 0l0 -1.375z" fill-rule="nonzero"/><path fill="#000000" fill-opacity="0.0" d="m316.28348 59.013123l39.433044 0l0 39.433075l-39.433044 0z" fill-rule="evenodd"/><path stroke="#000000" stroke-width="2.0" stroke-linejoin="round" stroke-linecap="butt" d="m316.28348 59.013123l39.433044 0l0 39.433075l-39.433044 0z" fill-rule="evenodd"/><path fill="#000000" d="m340.08804 81.71216q0 0.859375 -0.265625 1.625q-0.25 0.75 -0.75 1.328125q-0.5 0.5625 -1.25 0.890625q-0.75 0.3125 -1.703125 0.3125q-0.9375 0 -1.6875 -0.296875q-0.734375 -0.296875 -1.28125 -0.875q-0.53125 -0.59375 -0.828125 -1.453125q-0.28125 -0.859375 -0.28125 -1.984375q0 -1.84375 0.46875 -3.390625q0.484375 -1.5625 1.3125 -2.71875q0.84375 -1.15625 1.984375 -1.875q1.15625 -0.71875 2.5 -0.90625l0.3125 1.1875q-1.046875 0.1875 -1.90625 0.71875q-0.859375 0.515625 -1.5 1.28125q-0.640625 0.765625 -1.0625 1.71875q-0.40625 0.953125 -0.546875 1.953125q0.296875 -0.5 1.0 -0.921875q0.71875 -0.421875 1.734375 -0.421875q1.765625 0 2.75 1.015625q1.0 1.0 1.0 2.8125zm-1.546875 0.15625q0 -1.328125 -0.609375 -2.0q-0.609375 -0.671875 -1.90625 -0.671875q-0.90625 0 -1.578125 0.453125q-0.65625 0.4375 -0.921875 1.0q-0.03125 0.265625 -0.03125 0.4375q0 0.15625 0 0.359375q0 0.578125 0.15625 1.140625q0.15625 0.5625 0.484375 1.0q0.34375 0.4375 0.828125 0.71875q0.5 0.265625 1.171875 0.265625q0.546875 0 0.984375 -0.203125q0.4375 -0.21875 0.75 -0.5625q0.328125 -0.359375 0.5 -0.859375q0.171875 -0.5 0.171875 -1.078125z" fill-rule="nonzero"/><path fill="#000000" fill-opacity="0.0" d="m356.28348 59.013123l39.433044 0l0 39.433075l-39.433044 0z" fill-rule="evenodd"/><path stroke="#000000" stroke-width="2.0" stroke-linejoin="round" stroke-linecap="butt" d="m356.28348 59.013123l39.433044 0l0 39.433075l-39.433044 0z" fill-rule="evenodd"/><path fill="#000000" fill-opacity="0.0" d="m396.28348 59.013123l39.433044 0l0 39.433075l-39.433044 0z" fill-rule="evenodd"/><path stroke="#000000" stroke-width="2.0" stroke-linejoin="round" stroke-linecap="butt" d="m396.28348 59.013123l39.433044 0l0 39.433075l-39.433044 0z" fill-rule="evenodd"/><path fill="#000000" d="m412.1818 82.54028q0 -1.1875 0.609375 -2.046875q0.625 -0.875 1.9375 -1.578125q-0.46875 -0.28125 -0.875 -0.578125q-0.40625 -0.3125 -0.71875 -0.703125q-0.296875 -0.390625 -0.484375 -0.875q-0.171875 -0.5 -0.171875 -1.125q0 -0.734375 0.25 -1.328125q0.265625 -0.59375 0.734375 -1.015625q0.46875 -0.4375 1.125 -0.671875q0.671875 -0.25 1.515625 -0.25q0.78125 0 1.40625 0.234375q0.640625 0.21875 1.078125 0.609375q0.4375 0.390625 0.671875 0.9375q0.25 0.53125 0.25 1.1875q0 1.0625 -0.484375 1.875q-0.484375 0.8125 -1.59375 1.59375q0.484375 0.28125 0.921875 0.625q0.4375 0.328125 0.765625 0.734375q0.328125 0.40625 0.515625 0.921875q0.1875 0.515625 0.1875 1.171875q0 0.796875 -0.265625 1.46875q-0.265625 0.65625 -0.765625 1.140625q-0.5 0.46875 -1.234375 0.734375q-0.734375 0.265625 -1.65625 0.265625q-0.90625 0 -1.59375 -0.25q-0.6875 -0.265625 -1.171875 -0.703125q-0.46875 -0.453125 -0.71875 -1.0625q-0.234375 -0.609375 -0.234375 -1.3125zm6.171875 -0.1875q0 -0.5625 -0.21875 -0.984375q-0.21875 -0.421875 -0.59375 -0.765625q-0.359375 -0.34375 -0.828125 -0.625q-0.46875 -0.28125 -0.96875 -0.546875q-1.140625 0.640625 -1.625 1.421875q-0.484375 0.78125 -0.484375 1.5q0 0.4375 0.140625 0.859375q0.15625 0.40625 0.453125 0.703125q0.3125 0.296875 0.75 0.484375q0.4375 0.171875 1.015625 0.171875q0.46875 0 0.890625 -0.140625q0.4375 -0.140625 0.75 -0.40625q0.328125 -0.28125 0.515625 -0.703125q0.203125 -0.421875 0.203125 -0.96875zm-4.421875 -6.765625q0 0.53125 0.203125 0.9375q0.21875 0.390625 0.5625 0.71875q0.34375 0.3125 0.78125 0.578125q0.453125 0.265625 0.9375 0.515625q0.84375 -0.65625 1.234375 -1.28125q0.40625 -0.640625 0.40625 -1.40625q0 -0.953125 -0.59375 -1.46875q-0.578125 -0.515625 -1.390625 -0.515625q-0.515625 0 -0.90625 0.171875q-0.390625 0.171875 -0.671875 0.4375q-0.28125 0.25 -0.421875 0.609375q-0.140625 0.34375 -0.140625 0.703125z" fill-rule="nonzero"/><path fill="#000000" fill-opacity="0.0" d="m436.28348 59.013123l39.433044 0l0 39.433075l-39.433044 0z" fill-rule="evenodd"/><path stroke="#000000" stroke-width="2.0" stroke-linejoin="round" stroke-linecap="butt" d="m436.28348 59.013123l39.433044 0l0 39.433075l-39.433044 0z" fill-rule="evenodd"/><path fill="#000000" d="m459.2443 75.55591q0 0.984375 -0.375 2.03125q-0.359375 1.03125 -0.953125 2.078125q-0.578125 1.046875 -1.3125 2.046875q-0.71875 0.984375 -1.453125 1.890625l-0.90625 0.796875l0 0.078125l1.1875 -0.203125l4.0625 0l0 1.375l-7.421875 0l0 -0.546875q0.40625 -0.421875 0.984375 -1.046875q0.578125 -0.640625 1.203125 -1.40625q0.625 -0.78125 1.234375 -1.640625q0.609375 -0.875 1.09375 -1.765625q0.5 -0.90625 0.796875 -1.78125q0.296875 -0.875 0.296875 -1.65625q0 -0.921875 -0.515625 -1.53125q-0.515625 -0.609375 -1.578125 -0.609375q-0.71875 0 -1.390625 0.296875q-0.671875 0.28125 -1.15625 0.65625l-0.609375 -1.0625q0.65625 -0.5625 1.546875 -0.875q0.890625 -0.3125 1.921875 -0.3125q0.796875 0 1.40625 0.234375q0.625 0.234375 1.046875 0.671875q0.4375 0.421875 0.65625 1.015625q0.234375 0.578125 0.234375 1.265625z" fill-rule="nonzero"/><path fill="#000000" fill-opacity="0.0" d="m476.28348 59.013123l39.433075 0l0 39.433075l-39.433075 0z" fill-rule="evenodd"/><path stroke="#000000" stroke-width="2.0" stroke-linejoin="round" stroke-linecap="butt" d="m476.28348 59.013123l39.433075 0l0 39.433075l-39.433075 0z" fill-rule="evenodd"/><path fill="#000000" d="m494.88492 84.57153q1.296875 0 2.125 -0.75q0.84375 -0.75 0.84375 -2.171875q0 -1.359375 -0.828125 -2.03125q-0.828125 -0.671875 -2.28125 -0.671875l-1.578125 0.09375l0 -6.453125l5.828125 0l0 1.390625l-4.421875 0l0 3.703125l0.796875 -0.03125q1.859375 0.015625 2.921875 1.03125q1.0625 1.0 1.0625 2.890625q0 1.03125 -0.359375 1.84375q-0.359375 0.8125 -0.96875 1.359375q-0.59375 0.546875 -1.421875 0.828125q-0.8125 0.265625 -1.75 0.265625q-0.84375 0 -1.421875 -0.09375q-0.578125 -0.09375 -1.078125 -0.28125l0.390625 -1.265625q0.421875 0.171875 0.921875 0.265625q0.5 0.078125 1.21875 0.078125z" fill-rule="nonzero"/><path fill="#000000" fill-opacity="0.0" d="m36.283466 59.013123l39.43307 0l0 39.433075l-39.43307 0z" fill-rule="evenodd"/><path fill="#000000" fill-opacity="0.0" d="m596.28345 59.013123l39.433105 0l0 39.433075l-39.433105 0z" fill-rule="evenodd"/><path fill="#000000" fill-opacity="0.0" d="m167.06361 31.306002l8.94487 27.716536" fill-rule="evenodd"/><path stroke="#000000" stroke-width="2.0" stroke-linejoin="round" stroke-linecap="butt" d="m167.06361 31.306002l5.259323 16.296518" fill-rule="evenodd"/><path fill="#000000" stroke="#000000" stroke-width="2.0" stroke-linecap="butt" d="m169.17914 48.61711l5.931366 7.6229324l0.3562317 -9.652111z" fill-rule="evenodd"/><path fill="#000000" fill-opacity="0.0" d="m137.22108 4.660332l59.685043 0l0 26.64567l-59.685043 0z" fill-rule="evenodd"/><path fill="#000000" d="m151.05794 15.743166l0.875 0l0.25 0.953125l0.0625 0q0.359375 -0.546875 0.9375 -0.84375q0.59375 -0.296875 1.34375 -0.296875q1.59375 0 2.375 0.953125q0.796875 0.9375 0.796875 3.078125q0 1.0 -0.265625 1.8125q-0.265625 0.8125 -0.75 1.375q-0.46875 0.546875 -1.15625 0.859375q-0.671875 0.296875 -1.515625 0.296875q-0.59375 0 -0.9375 -0.078125q-0.34375 -0.0625 -0.734375 -0.234375l0 3.328125l-1.28125 0l0 -11.203125zm3.234375 0.921875q-0.828125 0 -1.296875 0.4375q-0.46875 0.421875 -0.65625 1.28125l0 3.96875q0.28125 0.21875 0.640625 0.34375q0.375 0.125 0.984375 0.125q1.109375 0 1.75 -0.828125q0.65625 -0.828125 0.65625 -2.421875q0 -0.65625 -0.125 -1.1875q-0.109375 -0.546875 -0.359375 -0.921875q-0.234375 -0.375 -0.625 -0.578125q-0.390625 -0.21875 -0.96875 -0.21875zm5.687271 -0.921875l1.28125 0l0 8.0l-1.28125 0l0 -8.0zm-0.265625 -2.4375q0 -0.359375 0.25 -0.625q0.25 -0.265625 0.625 -0.265625q0.390625 0 0.65625 0.265625q0.28125 0.265625 0.28125 0.625q0 0.375 -0.28125 0.625q-0.265625 0.234375 -0.65625 0.234375q-0.375 0 -0.625 -0.234375q-0.25 -0.25 -0.25 -0.625zm6.5848846 7.125l0.453125 1.515625l0.015625 0l0.40625 -1.546875l1.78125 -4.65625l1.375 0l-3.40625 8.171875l-0.546875 0l-3.46875 -8.171875l1.46875 0l1.921875 4.6875zm4.786026 -0.6875q0 -2.03125 0.90625 -3.109375q0.90625 -1.078125 2.59375 -1.078125q0.90625 0 1.5625 0.296875q0.671875 0.296875 1.09375 0.84375q0.4375 0.546875 0.640625 1.328125q0.21875 0.78125 0.21875 1.71875q0 2.03125 -0.90625 3.109375q-0.90625 1.078125 -2.609375 1.078125q-0.890625 0 -1.5625 -0.296875q-0.65625 -0.296875 -1.09375 -0.84375q-0.421875 -0.546875 -0.640625 -1.328125q-0.203125 -0.78125 -0.203125 -1.71875zm1.328125 0q0 0.609375 0.125 1.171875q0.125 0.5625 0.375 0.984375q0.25 0.40625 0.671875 0.671875q0.421875 0.25 1.0 0.25q2.1875 0.015625 2.1875 -3.078125q0 -0.625 -0.125 -1.1875q-0.125 -0.5625 -0.375 -0.96875q-0.25 -0.421875 -0.671875 -0.671875q-0.421875 -0.25 -1.015625 -0.25q-2.171875 -0.015625 -2.171875 3.078125zm6.6385193 -4.0l1.25 0l0 -1.578125l1.28125 -0.375l0 1.953125l2.171875 0l0 1.125l-2.171875 0l0 4.421875q0 0.84375 0.203125 1.1875q0.21875 0.34375 0.703125 0.34375q0.421875 0 0.703125 -0.09375q0.296875 -0.09375 0.640625 -0.234375l0.296875 0.984375q-0.4375 0.203125 -0.953125 0.328125q-0.5 0.125 -1.09375 0.125q-0.984375 0 -1.390625 -0.546875q-0.390625 -0.546875 -0.390625 -1.84375l0 -4.671875l-1.25 0l0 -1.125z" fill-rule="nonzero"/><path fill="#000000" fill-opacity="0.0" d="m506.80072 31.306002l-10.803131 27.716536" fill-rule="evenodd"/><path stroke="#000000" stroke-width="2.0" stroke-linejoin="round" stroke-linecap="butt" d="m506.80072 31.306002l-6.4451904 16.535822" fill-rule="evenodd"/><path fill="#000000" stroke="#000000" stroke-width="2.0" stroke-linecap="butt" d="m497.2776 46.64213l-0.21820068 9.6562195l6.374054 -7.2568398z" fill-rule="evenodd"/><path fill="#000000" fill-opacity="0.0" d="m476.95822 4.660332l59.685028 0l0 26.64567l-59.685028 0z" fill-rule="evenodd"/><path fill="#000000" d="m497.9837 23.743166l0 -4.5625q0 -0.625 -0.078125 -1.09375q-0.078125 -0.46875 -0.265625 -0.78125q-0.1875 -0.3125 -0.515625 -0.46875q-0.328125 -0.171875 -0.859375 -0.171875q-0.75 0 -1.359375 0.5q-0.609375 0.484375 -0.78125 1.25l0 5.328125l-1.28125 0l0 -11.203125l1.28125 0l0 4.09375l0.0625 0q0.40625 -0.484375 0.984375 -0.78125q0.59375 -0.296875 1.46875 -0.296875q0.671875 0 1.15625 0.15625q0.5 0.140625 0.828125 0.53125q0.328125 0.375 0.46875 1.03125q0.15625 0.640625 0.15625 1.640625l0 4.828125l-1.265625 0zm3.8770142 -8.0l1.28125 0l0 8.0l-1.28125 0l0 -8.0zm-0.265625 -2.4375q0 -0.359375 0.25 -0.625q0.25 -0.265625 0.625 -0.265625q0.390625 0 0.65625 0.265625q0.28125 0.265625 0.28125 0.625q0 0.375 -0.28125 0.625q-0.265625 0.234375 -0.65625 0.234375q-0.375 0 -0.625 -0.234375q-0.25 -0.25 -0.25 -0.625zm10.413025 10.8125q0 1.546875 -0.828125 2.28125q-0.8125 0.734375 -2.4375 0.734375q-0.953125 0 -1.546875 -0.125q-0.578125 -0.109375 -1.0 -0.3125l0.34375 -1.078125q0.359375 0.140625 0.8125 0.265625q0.453125 0.125 1.171875 0.125q0.671875 0 1.09375 -0.125q0.421875 -0.109375 0.671875 -0.390625q0.265625 -0.28125 0.359375 -0.71875q0.09375 -0.4375 0.09375 -1.046875l0 -0.765625l-0.0625 0q-0.3125 0.46875 -0.8125 0.71875q-0.5 0.234375 -1.296875 0.234375q-1.625 0 -2.390625 -1.0q-0.75 -1.015625 -0.75 -3.140625q0 -2.046875 0.96875 -3.109375q0.984375 -1.0625 2.890625 -1.0625q0.90625 0 1.546875 0.140625q0.65625 0.140625 1.171875 0.34375l0 8.03125zm-3.21875 -1.3125q0.8125 0 1.28125 -0.40625q0.46875 -0.421875 0.65625 -1.28125l0 -4.09375q-0.640625 -0.3125 -1.625 -0.3125q-1.09375 0 -1.71875 0.75q-0.625 0.734375 -0.625 2.296875q0 0.671875 0.109375 1.234375q0.125 0.5625 0.359375 0.96875q0.234375 0.390625 0.609375 0.625q0.390625 0.21875 0.953125 0.21875zm10.826355 0.9375l0 -4.5625q0 -0.625 -0.078125 -1.09375q-0.078125 -0.46875 -0.265625 -0.78125q-0.1875 -0.3125 -0.515625 -0.46875q-0.328125 -0.171875 -0.859375 -0.171875q-0.75 0 -1.359375 0.5q-0.609375 0.484375 -0.78125 1.25l0 5.328125l-1.28125 0l0 -11.203125l1.28125 0l0 4.09375l0.0625 0q0.40625 -0.484375 0.984375 -0.78125q0.59375 -0.296875 1.46875 -0.296875q0.671875 0 1.15625 0.15625q0.5 0.140625 0.828125 0.53125q0.328125 0.375 0.46875 1.03125q0.15625 0.640625 0.15625 1.640625l0 4.828125l-1.265625 0z" fill-rule="nonzero"/><path fill="#000000" fill-opacity="0.0" d="m224.11511 31.306002l-8.125977 27.716536" fill-rule="evenodd"/><path stroke="#000000" stroke-width="2.0" stroke-linejoin="round" stroke-linecap="butt" d="m224.11511 31.306002l-4.7499084 16.201235" fill-rule="evenodd"/><path fill="#000000" stroke="#000000" stroke-width="2.0" stroke-linecap="butt" d="m216.19518 46.577843l0.61654663 9.638985l5.723526 -7.7801933z" fill-rule="evenodd"/><path fill="#000000" fill-opacity="0.0" d="m194.2726 4.660332l59.685043 0l0 26.64567l-59.685043 0z" fill-rule="evenodd"/><path fill="#000000" d="m214.35533 21.774416q0 0.5625 0.1875 0.8125q0.203125 0.234375 0.546875 0.234375q0.203125 0 0.4375 -0.03125q0.25 -0.03125 0.5625 -0.15625l0.140625 1.015625q-0.265625 0.125 -0.71875 0.203125q-0.453125 0.078125 -0.78125 0.078125q-0.734375 0 -1.203125 -0.40625q-0.453125 -0.40625 -0.453125 -1.375l0 -9.609375l1.28125 0l0 9.234375zm2.7970123 -2.03125q0 -2.03125 0.90625 -3.109375q0.90625 -1.078125 2.59375 -1.078125q0.90625 0 1.5625 0.296875q0.671875 0.296875 1.09375 0.84375q0.4375 0.546875 0.640625 1.328125q0.21875 0.78125 0.21875 1.71875q0 2.03125 -0.90625 3.109375q-0.90625 1.078125 -2.609375 1.078125q-0.890625 0 -1.5625 -0.296875q-0.65625 -0.296875 -1.09375 -0.84375q-0.421875 -0.546875 -0.640625 -1.328125q-0.203125 -0.78125 -0.203125 -1.71875zm1.328125 0q0 0.609375 0.125 1.171875q0.125 0.5625 0.375 0.984375q0.25 0.40625 0.671875 0.671875q0.421875 0.25 1.0 0.25q2.1875 0.015625 2.1875 -3.078125q0 -0.625 -0.125 -1.1875q-0.125 -0.5625 -0.375 -0.96875q-0.25 -0.421875 -0.671875 -0.671875q-0.421875 -0.25 -1.015625 -0.25q-2.171875 -0.015625 -2.171875 3.078125zm12.71254 -4.0l1.828125 4.671875l0.40625 1.53125l0.03125 0l0.296875 -1.5625l1.4375 -4.640625l1.203125 0l-2.6875 8.171875l-0.625 0l-2.09375 -5.28125l-0.296875 -1.3125l-0.046875 0l-0.328125 1.328125l-2.015625 5.265625l-0.625 0l-2.7812653 -8.171875l1.3906403 0l1.59375 4.65625l0.265625 1.546875l0.015625 0l0.390625 -1.578125l1.703125 -4.625l0.9375 0z" fill-rule="nonzero"/><path fill="#000000" fill-opacity="0.0" d="m176.0 59.013123l-120.0 0" fill-rule="evenodd"/><path stroke="#000000" stroke-width="2.0" stroke-linejoin="round" stroke-linecap="butt" stroke-dasharray="8.0,6.0" d="m176.0 59.013123l-120.0 0" fill-rule="evenodd"/><path fill="#000000" fill-opacity="0.0" d="m176.0 98.4462l-120.0 0" fill-rule="evenodd"/><path stroke="#000000" stroke-width="2.0" stroke-linejoin="round" stroke-linecap="butt" stroke-dasharray="8.0,6.0" d="m176.0 98.4462l-120.0 0" fill-rule="evenodd"/><path fill="#000000" fill-opacity="0.0" d="m116.666664 98.4462l0 -39.433075" fill-rule="evenodd"/><path stroke="#000000" stroke-width="2.0" stroke-linejoin="round" stroke-linecap="butt" stroke-dasharray="8.0,6.0" d="m116.666664 98.4462l0 -39.433075" fill-rule="evenodd"/><path fill="#000000" fill-opacity="0.0" d="m616.0 59.013123l-120.0 0" fill-rule="evenodd"/><path stroke="#000000" stroke-width="2.0" stroke-linejoin="round" stroke-linecap="butt" stroke-dasharray="8.0,6.0" d="m616.0 59.013123l-120.0 0" fill-rule="evenodd"/><path fill="#000000" fill-opacity="0.0" d="m616.0 98.4462l-120.0 0" fill-rule="evenodd"/><path stroke="#000000" stroke-width="2.0" stroke-linejoin="round" stroke-linecap="butt" stroke-dasharray="8.0,6.0" d="m616.0 98.4462l-120.0 0" fill-rule="evenodd"/><path fill="#000000" fill-opacity="0.0" d="m556.6667 98.4462l0 -39.433075" fill-rule="evenodd"/><path stroke="#000000" stroke-width="2.0" stroke-linejoin="round" stroke-linecap="butt" stroke-dasharray="8.0,6.0" d="m556.6667 98.4462l0 -39.433075" fill-rule="evenodd"/><path fill="#000000" fill-opacity="0.0" d="m251.28609 107.04462l21.826767 0l0 22.614182l-21.826767 0z" fill-rule="evenodd"/><path fill="#000000" d="m259.1625 124.964615l4.6875 -10.9375l0.828125 -0.90625l-1.109375 0.171875l-5.3125 0l0 -1.390625l7.796875 0l0 0.5l-5.375 12.5625l-1.515625 0z" fill-rule="nonzero"/><path fill="#000000" fill-opacity="0.0" d="m176.13493 83.63493c0 17.354332 37.5748 34.708664 75.14961 34.708664" fill-rule="evenodd"/><path stroke="#000000" stroke-width="1.0" stroke-linejoin="round" stroke-linecap="butt" d="m176.13493 83.63493c0 17.354332 37.5748 34.708664 75.14961 34.708664" fill-rule="evenodd"/><path fill="#000000" fill-opacity="0.0" d="m273.11285 118.35171c50.850403 0 101.700806 -18.866142 101.700806 -37.732285" fill-rule="evenodd"/><path stroke="#000000" stroke-width="1.0" stroke-linejoin="round" stroke-linecap="butt" d="m273.11285 118.35171c25.425201 0 50.850403 -4.7165375 69.91931 -11.791344c9.534424 -3.5373993 17.479797 -7.6643677 23.041565 -12.086121c2.7808838 -2.2108765 4.9658813 -4.4954453 6.4556274 -6.816864c0.74487305 -1.1607132 1.3159485 -2.330635 1.7008057 -3.5051575l0.04699707 -0.14796448" fill-rule="evenodd"/><path fill="#000000" stroke="#000000" stroke-width="1.0" stroke-linecap="butt" d="m374.27716 84.00426l0.93466187 1.286766l-0.62701416 -3.2277222l-1.5944214 2.8756256z" fill-rule="evenodd"/><path fill="#000000" fill-opacity="0.0" d="m287.95276 26.377953l21.826782 0l0 22.614174l-21.826782 0z" fill-rule="evenodd"/><path fill="#000000" d="m303.56357 40.282326l-2.203125 0l0 4.015625l-1.453125 0l0 -4.015625l-5.75 0l0 -0.609375l6.1875 -8.640625l1.015625 0l0 7.953125l2.203125 0l0 1.296875zm-3.65625 -5.375l0.1875 -1.515625l-0.0625 0l-0.65625 1.265625l-2.625 3.5625l-0.890625 0.90625l1.296875 -0.140625l2.75 0l0 -4.078125z" fill-rule="nonzero"/><path fill="#000000" fill-opacity="0.0" d="m287.95276 37.68504c-55.905518 0 -111.81102 19.811024 -111.81102 39.622044" fill-rule="evenodd"/><path stroke="#000000" stroke-width="1.0" stroke-linejoin="round" stroke-linecap="butt" d="m287.95276 37.68504c-27.952759 0 -55.905518 4.952755 -76.87009 12.381889c-10.482285 3.714569 -19.217514 8.048229 -25.332184 12.691437c-3.0573273 2.3216057 -5.4595184 4.7205925 -7.0973816 7.158283c-0.8189087 1.2188416 -1.4467621 2.4473572 -1.8698883 3.6807098c-0.026428223 0.0770874 -0.052078247 0.15418243 -0.076919556 0.23130798l-0.02911377 0.093421936" fill-rule="evenodd"/><path fill="#000000" stroke="#000000" stroke-width="1.0" stroke-linecap="butt" d="m176.67719 73.92209l-0.93507385 -1.2864761l0.6280365 3.2275238l1.5935211 -2.876114z" fill-rule="evenodd"/><path fill="#000000" fill-opacity="0.0" d="m309.77954 37.68504c32.519684 0 65.03937 18.31496 65.03937 36.629925" fill-rule="evenodd"/><path stroke="#000000" stroke-width="1.0" stroke-linejoin="round" stroke-linecap="butt" d="m309.77954 37.68504c32.519684 0 65.03937 18.31496 65.03937 36.629925" fill-rule="evenodd"/><path fill="#000000" fill-opacity="0.0" d="m168.5 80.47244c0 -2.4700623 2.0023804 -4.4724426 4.4724426 -4.4724426c1.1861572 0 2.3237457 0.47119904 3.1624908 1.3099442c0.8387451 0.8387451 1.3099518 1.9763336 1.3099518 3.1624985c0 2.4700623 -2.0023804 4.4724426 -4.4724426 4.4724426c-2.4700623 0 -4.4724426 -2.0023804 -4.4724426 -4.4724426z" fill-rule="evenodd"/><path fill="#000000" fill-opacity="0.0" d="m373.5 77.47244c0 -2.4700623 2.0023804 -4.4724426 4.4724426 -4.4724426c1.1861572 0 2.323761 0.47119904 3.162506 1.3099442c0.8387451 0.8387451 1.3099365 1.9763336 1.3099365 3.1624985c0 2.4700623 -2.0023804 4.4724426 -4.4724426 4.4724426c-2.4700623 0 -4.4724426 -2.0023804 -4.4724426 -4.4724426z" fill-rule="evenodd"/></g></svg>