<svg version="1.1" viewBox="0.0 0.0 412.1732283464567 296.0866141732283" fill="none" stroke="none" stroke-linecap="square" stroke-miterlimit="10" xmlns:xlink="http://www.w3.org/1999/xlink" xmlns="http://www.w3.org/2000/svg"><clipPath id="p.0"><path d="m0 0l412.17322 0l0 296.0866l-412.17322 0l0 -296.0866z" clip-rule="nonzero"/></clipPath><g clip-path="url(#p.0)"><path fill="#000000" fill-opacity="0.0" d="m0 0l412.17322 0l0 296.0866l-412.17322 0z" fill-rule="evenodd"/><path fill="#000000" fill-opacity="0.0" d="m141.33978 30.047245c0 -14.50726 11.760452 -26.267717 26.267715 -26.267717c6.966629 0 13.647919 2.7674837 18.574081 7.693636c4.9261475 4.926153 7.693634 11.607449 7.693634 18.574081c0 14.507259 -11.760452 26.267715 -26.267715 26.267715c-14.507263 0 -26.267715 -11.760456 -26.267715 -26.267715z" fill-rule="evenodd"/><path stroke="#000000" stroke-width="3.0" stroke-linejoin="round" stroke-linecap="butt" d="m141.33978 30.047245c0 -14.50726 11.760452 -26.267717 26.267715 -26.267717c6.966629 0 13.647919 2.7674837 18.574081 7.693636c4.9261475 4.926153 7.693634 11.607449 7.693634 18.574081c0 14.507259 -11.760452 26.267715 -26.267715 26.267715c-14.507263 0 -26.267715 -11.760456 -26.267715 -26.267715z" fill-rule="evenodd"/><path fill="#000000" d="m170.78656 36.152866l-9.640625 0l-2.609375 7.234375l-3.0625 0l9.890625 -26.546875l1.421875 0l9.921875 26.546875l-3.234375 0l-2.6875 -7.234375zm-8.625 -2.6875l7.6875 0l-2.90625 -7.953125l-0.9375 -3.96875l-0.046875 0l-0.921875 4.03125l-2.875 7.890625z" fill-rule="nonzero"/><path fill="#000000" fill-opacity="0.0" d="m259.003 105.637794c0 -14.507256 11.760468 -26.267715 26.2677 -26.267715c6.9666443 0 13.647949 2.7674866 18.574097 7.693634c4.9261475 4.926155 7.693634 11.607452 7.693634 18.574081c0 14.507263 -11.760468 26.267723 -26.26773 26.267723c-14.507233 0 -26.2677 -11.76046 -26.2677 -26.267723z" fill-rule="evenodd"/><path stroke="#000000" stroke-width="3.0" stroke-linejoin="round" stroke-linecap="butt" d="m259.003 105.637794c0 -14.507256 11.760468 -26.267715 26.2677 -26.267715c6.9666443 0 13.647949 2.7674866 18.574097 7.693634c4.9261475 4.926155 7.693634 11.607452 7.693634 18.574081c0 14.507263 -11.760468 26.267723 -26.26773 26.267723c-14.507233 0 -26.2677 -11.76046 -26.2677 -26.267723z" fill-rule="evenodd"/><path fill="#000000" d="m292.9923 117.899666q-1.109375 0.859375 -2.828125 1.1875q-1.71875 0.34375 -3.65625 0.34375q-2.359375 0 -4.421875 -0.796875q-2.046875 -0.8125 -3.578125 -2.453125q-1.53125 -1.640625 -2.421875 -4.203125q-0.890625 -2.5625 -0.890625 -6.0625q0 -3.65625 0.984375 -6.21875q0.984375 -2.5625 2.609375 -4.171875q1.625 -1.625 3.640625 -2.375q2.015625 -0.75 4.109375 -0.75q2.234375 0 3.65625 0.25q1.421875 0.234375 2.421875 0.640625l-0.734375 2.734375q-1.796875 -0.859375 -5.125 -0.859375q-1.53125 0 -3.03125 0.5625q-1.484375 0.546875 -2.65625 1.828125q-1.171875 1.265625 -1.890625 3.328125q-0.703125 2.046875 -0.703125 5.03125q0 2.6875 0.671875 4.703125q0.671875 2.015625 1.84375 3.359375q1.1875 1.34375 2.765625 2.015625q1.59375 0.671875 3.453125 0.671875q1.6875 0 2.9375 -0.328125q1.25 -0.34375 2.109375 -0.875l0.734375 2.4375z" fill-rule="nonzero"/><path fill="#000000" fill-opacity="0.0" d="m14.346372 105.637794c0 -14.507256 11.760457 -26.267715 26.26772 -26.267715c6.966629 0 13.647926 2.7674866 18.574078 7.693634c4.9261513 4.926155 7.693638 11.607452 7.693638 18.574081c0 14.507263 -11.760456 26.267723 -26.267715 26.267723c-14.507261 0 -26.26772 -11.76046 -26.26772 -26.267723z" fill-rule="evenodd"/><path stroke="#000000" stroke-width="3.0" stroke-linejoin="round" stroke-linecap="butt" d="m14.346372 105.637794c0 -14.507256 11.760457 -26.267715 26.26772 -26.267715c6.966629 0 13.647926 2.7674866 18.574078 7.693634c4.9261513 4.926155 7.693638 11.607452 7.693638 18.574081c0 14.507263 -11.760456 26.267723 -26.267715 26.267723c-14.507261 0 -26.26772 -11.76046 -26.26772 -26.267723z" fill-rule="evenodd"/><path fill="#000000" d="m47.124313 98.82154q0 0.9375 -0.296875 1.90625q-0.296875 0.96875 -0.890625 1.8125q-0.59375 0.828125 -1.53125 1.46875q-0.9375 0.640625 -2.203125 0.96875l0 0.15625q1.125 0.1875 2.140625 0.640625q1.03125 0.4375 1.8125 1.21875q0.78125 0.78125 1.265625 1.90625q0.484375 1.125 0.484375 2.65625q0 2.015625 -0.84375 3.484375q-0.828125 1.46875 -2.203125 2.40625q-1.359375 0.9375 -3.109375 1.390625q-1.75 0.4375 -3.578125 0.4375q-0.640625 0 -1.5 0q-0.859375 0 -1.796875 -0.0625q-0.921875 -0.046875 -1.859375 -0.140625q-0.9375 -0.09375 -1.6406231 -0.28125l0 -25.71875q1.3749981 -0.21875 3.203123 -0.359375q1.84375 -0.15625 4.0 -0.15625q1.453125 0 2.96875 0.25q1.515625 0.234375 2.734375 0.921875q1.234375 0.6875 2.03125 1.921875q0.8125 1.234375 0.8125 3.171875zm-8.65625 17.765625q1.1875 0 2.3125 -0.28125q1.125 -0.28125 1.984375 -0.890625q0.859375 -0.625 1.359375 -1.515625q0.5 -0.890625 0.5 -2.125q0 -1.53125 -0.625 -2.453125q-0.609375 -0.9375 -1.59375 -1.453125q-0.984375 -0.53125 -2.21875 -0.71875q-1.234375 -0.1875 -2.46875 -0.1875l-3.25 0l0 9.359375q0.265625 0.078125 0.75 0.125q0.484375 0.03125 1.046875 0.078125q0.5625 0.03125 1.15625 0.046875q0.59375 0.015625 1.046875 0.015625zm-2.046875 -12.234375q0.625 0 1.515625 -0.03125q0.90625 -0.046875 1.5 -0.125q0.890625 -0.296875 1.671875 -0.71875q0.796875 -0.4375 1.40625 -1.015625q0.625 -0.578125 0.96875 -1.34375q0.359375 -0.765625 0.359375 -1.65625q0 -1.234375 -0.46875 -2.03125q-0.46875 -0.8125 -1.25 -1.296875q-0.78125 -0.484375 -1.796875 -0.6875q-1.0 -0.203125 -2.046875 -0.203125q-1.234375 0 -2.265625 0.0625q-1.015625 0.046875 -1.546875 0.15625l0 8.890625l1.953125 0z" fill-rule="nonzero"/><path fill="#000000" fill-opacity="0.0" d="m186.18158 48.621326l99.08661 30.740154" fill-rule="evenodd"/><path stroke="#000000" stroke-width="2.0" stroke-linejoin="round" stroke-linecap="butt" d="m186.18158 48.621323l92.54022 28.709244" fill-rule="evenodd"/><path fill="#000000" stroke="#000000" stroke-width="2.0" stroke-linecap="butt" d="m278.7218 77.33057l-2.8146057 1.4817276l6.5684814 -0.3171463l-5.2355957 -3.979187z" fill-rule="evenodd"/><path fill="#000000" fill-opacity="0.0" d="m149.03342 48.621326l-108.409454 30.740154" fill-rule="evenodd"/><path stroke="#000000" stroke-width="2.0" stroke-linejoin="round" stroke-linecap="butt" d="m149.03342 48.621323l-101.81525 28.870338" fill-rule="evenodd"/><path fill="#000000" stroke="#000000" stroke-width="2.0" stroke-linecap="butt" d="m47.218166 77.49165l1.5502815 -2.7774277l-5.3315735 3.84964l6.5587234 0.47807312z" fill-rule="evenodd"/><path fill="#000000" fill-opacity="0.0" d="m54.274876 181.37022c0 -14.507248 11.760456 -26.267715 26.267712 -26.267715c6.9666367 0 13.647934 2.7674866 18.574081 7.6936493c4.926155 4.9261475 7.6936417 11.607437 7.6936417 18.574066c0 14.507263 -11.76046 26.26773 -26.267723 26.26773c-14.507256 0 -26.267712 -11.760468 -26.267712 -26.26773z" fill-rule="evenodd"/><path stroke="#000000" stroke-width="3.0" stroke-linejoin="round" stroke-linecap="butt" d="m54.274876 181.37022c0 -14.507248 11.760456 -26.267715 26.267712 -26.267715c6.9666367 0 13.647934 2.7674866 18.574081 7.6936493c4.926155 4.9261475 7.6936417 11.607437 7.6936417 18.574066c0 14.507263 -11.76046 26.26773 -26.267723 26.26773c-14.507256 0 -26.267712 -11.760468 -26.267712 -26.26773z" fill-rule="evenodd"/><path fill="#000000" d="m71.11678 168.58524q0.703125 -0.109375 1.578125 -0.171875q0.890625 -0.0625 1.84375 -0.078125q0.953125 -0.015625 1.859375 -0.03125q0.921875 -0.015625 1.703125 -0.015625q3.125 0 5.421875 0.96875q2.296875 0.96875 3.78125 2.703125q1.5 1.734375 2.234375 4.171875q0.734375 2.421875 0.734375 5.328125q0 2.65625 -0.703125 5.09375q-0.6875 2.4375 -2.1875 4.328125q-1.484375 1.890625 -3.875 3.03125q-2.390625 1.140625 -5.78125 1.140625q-0.59375 0 -1.546875 -0.03125q-0.953125 -0.015625 -1.96875 -0.078125q-1.0 -0.046875 -1.859375 -0.09375q-0.859375 -0.03125 -1.234375 -0.109375l0 -26.15625zm7.0625 2.453125q-0.484375 0 -1.078125 0q-0.578125 0 -1.140625 0.046875q-0.546875 0.03125 -1.015625 0.078125q-0.46875 0.03125 -0.734375 0.0625l0 20.90625q0.1875 0.046875 0.703125 0.0625q0.53125 0.015625 1.09375 0.03125q0.5625 0.015625 1.078125 0.046875q0.53125 0.015625 0.71875 0.015625q2.609375 0 4.375 -0.890625q1.78125 -0.90625 2.84375 -2.40625q1.0625 -1.515625 1.5 -3.46875q0.453125 -1.96875 0.453125 -4.0625q0 -1.828125 -0.40625 -3.671875q-0.40625 -1.859375 -1.421875 -3.34375q-1.0 -1.5 -2.703125 -2.453125q-1.703125 -0.953125 -4.265625 -0.953125z" fill-rule="nonzero"/><path fill="#000000" fill-opacity="0.0" d="m59.188168 124.211876l21.354328 30.897636" fill-rule="evenodd"/><path stroke="#000000" stroke-width="2.0" stroke-linejoin="round" stroke-linecap="butt" d="m59.188168 124.21188l17.457348 25.259079" fill-rule="evenodd"/><path fill="#000000" stroke="#000000" stroke-width="2.0" stroke-linecap="butt" d="m76.645515 149.47096l-3.1290436 -0.5714874l5.363678 3.8047943l-1.663147 -6.3623505z" fill-rule="evenodd"/><path fill="#000000" fill-opacity="0.0" d="m266.69662 124.211876l-34.362198 30.897636" fill-rule="evenodd"/><path stroke="#000000" stroke-width="2.0" stroke-linejoin="round" stroke-linecap="butt" d="m266.69662 124.21188l-29.265442 26.314758" fill-rule="evenodd"/><path fill="#000000" stroke="#000000" stroke-width="2.0" stroke-linecap="butt" d="m237.43118 150.52664l0.16862488 -3.1763306l-3.0912476 5.8042755l6.0989532 -2.45932z" fill-rule="evenodd"/><path fill="#000000" fill-opacity="0.0" d="m206.06728 181.36235c0 -14.507248 11.760452 -26.267715 26.267715 -26.267715c6.966629 0 13.647919 2.7674866 18.574081 7.693634c4.9261475 4.9261627 7.693619 11.607452 7.693619 18.574081c0 14.507263 -11.760437 26.267715 -26.2677 26.267715c-14.507263 0 -26.267715 -11.760452 -26.267715 -26.267715z" fill-rule="evenodd"/><path stroke="#000000" stroke-width="3.0" stroke-linejoin="round" stroke-linecap="butt" d="m206.06728 181.36235c0 -14.507248 11.760452 -26.267715 26.267715 -26.267715c6.966629 0 13.647919 2.7674866 18.574081 7.693634c4.9261475 4.9261627 7.693619 11.607452 7.693619 18.574081c0 14.507263 -11.760437 26.267715 -26.2677 26.267715c-14.507263 0 -26.267715 -11.760452 -26.267715 -26.267715z" fill-rule="evenodd"/><path fill="#000000" d="m223.9911 168.57735l14.21875 0l0 2.75l-11.125 0l0 8.5625l10.203125 0l0 2.75l-10.203125 0l0 9.296875l11.3125 0l0 2.765625l-14.40625 0l0 -26.125z" fill-rule="nonzero"/><path fill="#000000" fill-opacity="0.0" d="m213.76091 199.93643l-26.267715 30.614182" fill-rule="evenodd"/><path stroke="#000000" stroke-width="2.0" stroke-linejoin="round" stroke-linecap="butt" d="m213.76091 199.93643l-21.804443 25.412369" fill-rule="evenodd"/><path fill="#000000" stroke="#000000" stroke-width="2.0" stroke-linecap="butt" d="m191.95647 225.3488l-0.24234009 -3.1715546l-2.3170166 6.1544037l5.7309265 -3.2251892z" fill-rule="evenodd"/><path fill="#000000" fill-opacity="0.0" d="m161.22475 256.8189c0 -14.507263 11.760468 -26.26773 26.267715 -26.26773c6.9666443 0 13.647934 2.7674866 18.574081 7.693634c4.9261627 4.9261627 7.6936493 11.607452 7.6936493 18.574097c0 14.507263 -11.760468 26.2677 -26.26773 26.2677c-14.507248 0 -26.267715 -11.760437 -26.267715 -26.2677z" fill-rule="evenodd"/><path stroke="#000000" stroke-width="3.0" stroke-linejoin="round" stroke-linecap="butt" d="m161.22475 256.8189c0 -14.507263 11.760468 -26.26773 26.267715 -26.26773c6.9666443 0 13.647934 2.7674866 18.574081 7.693634c4.9261627 4.9261627 7.6936493 11.607452 7.6936493 18.574097c0 14.507263 -11.760468 26.2677 -26.26773 26.2677c-14.507248 0 -26.267715 -11.760437 -26.267715 -26.2677z" fill-rule="evenodd"/><path fill="#000000" d="m186.87917 257.12766l8.765625 0l0 11.5q-0.59375 0.453125 -1.4375 0.828125q-0.828125 0.359375 -1.78125 0.625q-0.953125 0.265625 -1.984375 0.390625q-1.03125 0.140625 -2.0 0.140625q-2.5 0 -4.59375 -0.796875q-2.078125 -0.8125 -3.609375 -2.46875q-1.53125 -1.671875 -2.390625 -4.21875q-0.859375 -2.5625 -0.859375 -6.03125q0 -3.6250153 1.046875 -6.2031403q1.046875 -2.578125 2.71875 -4.1875q1.6875 -1.625 3.765625 -2.375q2.09375 -0.75 4.1875 -0.75q2.234375 0 3.6875 0.25q1.46875 0.234375 2.46875 0.640625l-0.78125 2.734375q-1.796875 -0.859375 -5.109375 -0.859375q-1.578125 0 -3.125 0.546875q-1.546875 0.53125 -2.78125 1.8125q-1.234375 1.265625 -2.015625 3.3125q-0.78125 2.046875 -0.78125 5.0781403q0 2.765625 0.625 4.78125q0.640625 2.015625 1.78125 3.34375q1.140625 1.3125 2.734375 1.96875q1.609375 0.65625 3.515625 0.65625q2.390625 0 4.078125 -0.9375l0 -7.28125l-6.125 -0.734375l0 -1.765625z" fill-rule="nonzero"/><path fill="#000000" fill-opacity="0.0" d="m303.8448 124.211876l36.6929 30.74015" fill-rule="evenodd"/><path stroke="#000000" stroke-width="2.0" stroke-linejoin="round" stroke-linecap="butt" d="m303.8448 124.21188l31.438873 26.338486" fill-rule="evenodd"/><path fill="#000000" stroke="#000000" stroke-width="2.0" stroke-linecap="butt" d="m335.28363 150.55037l-3.168457 0.2796936l6.1812744 2.244339l-3.292511 -5.69252z" fill-rule="evenodd"/><path fill="#000000" fill-opacity="0.0" d="m314.28467 181.22835c0 -14.507263 11.760468 -26.267715 26.2677 -26.267715c6.9666443 0 13.647949 2.7674866 18.574097 7.693634c4.9261475 4.9261475 7.693634 11.607452 7.693634 18.574081c0 14.507263 -11.760468 26.267715 -26.26773 26.267715c-14.507233 0 -26.2677 -11.760452 -26.2677 -26.267715z" fill-rule="evenodd"/><path stroke="#000000" stroke-width="3.0" stroke-linejoin="round" stroke-linecap="butt" d="m314.28467 181.22835c0 -14.507263 11.760468 -26.267715 26.2677 -26.267715c6.9666443 0 13.647949 2.7674866 18.574097 7.693634c4.9261475 4.9261475 7.693634 11.607452 7.693634 18.574081c0 14.507263 -11.760468 26.267715 -26.26773 26.267715c-14.507233 0 -26.2677 -11.760452 -26.2677 -26.267715z" fill-rule="evenodd"/><path fill="#000000" d="m332.5631 168.44334l14.21875 0l0 2.75l-11.125 0l0 8.921875l10.375 0l0 2.765625l-10.375 0l0 11.6875l-3.09375 0l0 -26.125z" fill-rule="nonzero"/><path fill="#000000" fill-opacity="0.0" d="m321.9783 199.80243l-19.748047 30.803146" fill-rule="evenodd"/><path stroke="#000000" stroke-width="2.0" stroke-linejoin="round" stroke-linecap="butt" d="m321.9783 199.80243l-16.048737 25.032974" fill-rule="evenodd"/><path fill="#000000" stroke="#000000" stroke-width="2.0" stroke-linecap="butt" d="m305.92957 224.8354l-0.6795654 -3.1073608l-1.4417114 6.4161377l5.2286377 -3.988327z" fill-rule="evenodd"/><path fill="#000000" fill-opacity="0.0" d="m275.9639 256.87387c0 -14.507263 11.760437 -26.26773 26.2677 -26.26773c6.9666443 0 13.647919 2.7674866 18.574097 7.6936493c4.9261475 4.9261475 7.693634 11.607437 7.693634 18.574081c0 14.507263 -11.760468 26.2677 -26.26773 26.2677c-14.507263 0 -26.2677 -11.760437 -26.2677 -26.2677z" fill-rule="evenodd"/><path stroke="#000000" stroke-width="3.0" stroke-linejoin="round" stroke-linecap="butt" d="m275.9639 256.87387c0 -14.507263 11.760437 -26.26773 26.2677 -26.26773c6.9666443 0 13.647919 2.7674866 18.574097 7.6936493c4.9261475 4.9261475 7.693634 11.607437 7.693634 18.574081c0 14.507263 -11.760468 26.2677 -26.26773 26.2677c-14.507263 0 -26.2677 -11.760437 -26.2677 -26.2677z" fill-rule="evenodd"/><path fill="#000000" d="m308.4464 258.2295l-12.546875 0l0 11.984375l-3.09375 0l0 -26.125l3.09375 0l0 11.375l12.546875 0l0 -11.375l3.09375 0l0 26.125l-3.09375 0l0 -11.984375z" fill-rule="nonzero"/><path fill="#000000" fill-opacity="0.0" d="m351.7983 256.87387c0 -14.507263 11.760468 -26.26773 26.26773 -26.26773c6.9666443 0 13.647919 2.7674866 18.574066 7.6936493c4.926178 4.9261475 7.6936646 11.607437 7.6936646 18.574081c0 14.507263 -11.760468 26.2677 -26.26773 26.2677c-14.507263 0 -26.26773 -11.760437 -26.26773 -26.2677z" fill-rule="evenodd"/><path stroke="#000000" stroke-width="3.0" stroke-linejoin="round" stroke-linecap="butt" d="m351.7983 256.87387c0 -14.507263 11.760468 -26.26773 26.26773 -26.26773c6.9666443 0 13.647919 2.7674866 18.574066 7.6936493c4.926178 4.9261475 7.6936646 11.607437 7.6936646 18.574081c0 14.507263 -11.760468 26.2677 -26.26773 26.2677c-14.507263 0 -26.26773 -11.760437 -26.26773 -26.2677z" fill-rule="evenodd"/><path fill="#000000" d="m374.998 244.08887l3.109375 0l0 26.125l-3.109375 0l0 -26.125z" fill-rule="nonzero"/><path fill="#000000" fill-opacity="0.0" d="m359.12646 199.80243l18.929138 30.803146" fill-rule="evenodd"/><path stroke="#000000" stroke-width="2.0" stroke-linejoin="round" stroke-linecap="butt" d="m359.12646 199.80243l15.340576 24.963486" fill-rule="evenodd"/><path fill="#000000" stroke="#000000" stroke-width="2.0" stroke-linecap="butt" d="m374.467 224.76591l-3.0938416 -0.738678l5.151642 4.0872955l-1.3191223 -6.442459z" fill-rule="evenodd"/></g></svg>