<svg version="1.1" viewBox="0.0 0.0 895.0813648293963 331.1469816272966" fill="none" stroke="none" stroke-linecap="square" stroke-miterlimit="10" xmlns:xlink="http://www.w3.org/1999/xlink" xmlns="http://www.w3.org/2000/svg"><clipPath id="p.0"><path d="m0 0l895.08136 0l0 331.14697l-895.08136 0l0 -331.14697z" clip-rule="nonzero"/></clipPath><g clip-path="url(#p.0)"><path fill="#000000" fill-opacity="0.0" d="m0 0l895.08136 0l0 331.14697l-895.08136 0z" fill-rule="evenodd"/><path fill="#000000" fill-opacity="0.0" d="m153.461 30.047245c0 -14.50726 11.760452 -26.267717 26.267715 -26.267717c6.966629 0 13.647919 2.7674837 18.574081 7.693636c4.9261475 4.926153 7.693634 11.607449 7.693634 18.574081c0 14.507259 -11.760468 26.267715 -26.267715 26.267715c-14.507263 0 -26.267715 -11.760456 -26.267715 -26.267715z" fill-rule="evenodd"/><path stroke="#000000" stroke-width="3.0" stroke-linejoin="round" stroke-linecap="butt" d="m153.461 30.047245c0 -14.50726 11.760452 -26.267717 26.267715 -26.267717c6.966629 0 13.647919 2.7674837 18.574081 7.693636c4.9261475 4.926153 7.693634 11.607449 7.693634 18.574081c0 14.507259 -11.760468 26.267715 -26.267715 26.267715c-14.507263 0 -26.267715 -11.760456 -26.267715 -26.267715z" fill-rule="evenodd"/><path fill="#000000" d="m182.90778 36.152866l-9.640625 0l-2.609375 7.234375l-3.0625 0l9.890625 -26.546875l1.421875 0l9.921875 26.546875l-3.234375 0l-2.6875 -7.234375zm-8.625 -2.6875l7.6875 0l-2.90625 -7.953125l-0.9375 -3.96875l-0.046875 0l-0.921875 4.03125l-2.875 7.890625z" fill-rule="nonzero"/><path fill="#000000" fill-opacity="0.0" d="m271.1242 105.637794c0 -14.507256 11.760437 -26.267715 26.2677 -26.267715c6.9666443 0 13.647949 2.7674866 18.574097 7.693634c4.9261475 4.926155 7.693634 11.607452 7.693634 18.574081c0 14.507263 -11.760468 26.267723 -26.26773 26.267723c-14.507263 0 -26.2677 -11.76046 -26.2677 -26.267723z" fill-rule="evenodd"/><path stroke="#000000" stroke-width="3.0" stroke-linejoin="round" stroke-linecap="butt" d="m271.1242 105.637794c0 -14.507256 11.760437 -26.267715 26.2677 -26.267715c6.9666443 0 13.647949 2.7674866 18.574097 7.693634c4.9261475 4.926155 7.693634 11.607452 7.693634 18.574081c0 14.507263 -11.760468 26.267723 -26.26773 26.267723c-14.507263 0 -26.2677 -11.76046 -26.2677 -26.267723z" fill-rule="evenodd"/><path fill="#000000" d="m305.11353 117.899666q-1.109375 0.859375 -2.828125 1.1875q-1.71875 0.34375 -3.65625 0.34375q-2.359375 0 -4.421875 -0.796875q-2.046875 -0.8125 -3.578125 -2.453125q-1.53125 -1.640625 -2.421875 -4.203125q-0.890625 -2.5625 -0.890625 -6.0625q0 -3.65625 0.984375 -6.21875q0.984375 -2.5625 2.609375 -4.171875q1.625 -1.625 3.640625 -2.375q2.015625 -0.75 4.109375 -0.75q2.234375 0 3.65625 0.25q1.421875 0.234375 2.421875 0.640625l-0.734375 2.734375q-1.796875 -0.859375 -5.125 -0.859375q-1.53125 0 -3.03125 0.5625q-1.484375 0.546875 -2.65625 1.828125q-1.171875 1.265625 -1.890625 3.328125q-0.703125 2.046875 -0.703125 5.03125q0 2.6875 0.671875 4.703125q0.671875 2.015625 1.84375 3.359375q1.1875 1.34375 2.765625 2.015625q1.59375 0.671875 3.453125 0.671875q1.6875 0 2.9375 -0.328125q1.25 -0.34375 2.109375 -0.875l0.734375 2.4375z" fill-rule="nonzero"/><path fill="#000000" fill-opacity="0.0" d="m26.467585 105.637794c0 -14.507256 11.760458 -26.267715 26.267717 -26.267715c6.966629 0 13.64793 2.7674866 18.574078 7.693634c4.926155 4.926155 7.693634 11.607452 7.693634 18.574081c0 14.507263 -11.760452 26.267723 -26.267712 26.267723c-14.507259 0 -26.267717 -11.76046 -26.267717 -26.267723z" fill-rule="evenodd"/><path stroke="#000000" stroke-width="3.0" stroke-linejoin="round" stroke-linecap="butt" d="m26.467585 105.637794c0 -14.507256 11.760458 -26.267715 26.267717 -26.267715c6.966629 0 13.64793 2.7674866 18.574078 7.693634c4.926155 4.926155 7.693634 11.607452 7.693634 18.574081c0 14.507263 -11.760452 26.267723 -26.267712 26.267723c-14.507259 0 -26.267717 -11.76046 -26.267717 -26.267723z" fill-rule="evenodd"/><path fill="#000000" d="m59.245525 98.82154q0 0.9375 -0.296875 1.90625q-0.296875 0.96875 -0.890625 1.8125q-0.59375 0.828125 -1.53125 1.46875q-0.9375 0.640625 -2.203125 0.96875l0 0.15625q1.125 0.1875 2.140625 0.640625q1.03125 0.4375 1.8125 1.21875q0.78125 0.78125 1.265625 1.90625q0.484375 1.125 0.484375 2.65625q0 2.015625 -0.84375 3.484375q-0.828125 1.46875 -2.203125 2.40625q-1.359375 0.9375 -3.109375 1.390625q-1.75 0.4375 -3.578125 0.4375q-0.640625 0 -1.5 0q-0.859375 0 -1.796875 -0.0625q-0.921875 -0.046875 -1.859375 -0.140625q-0.9375 -0.09375 -1.640625 -0.28125l0 -25.71875q1.375 -0.21875 3.203125 -0.359375q1.84375 -0.15625 4.0 -0.15625q1.453125 0 2.96875 0.25q1.515625 0.234375 2.734375 0.921875q1.234375 0.6875 2.03125 1.921875q0.8125 1.234375 0.8125 3.171875zm-8.65625 17.765625q1.1875 0 2.3125 -0.28125q1.125 -0.28125 1.984375 -0.890625q0.859375 -0.625 1.359375 -1.515625q0.5 -0.890625 0.5 -2.125q0 -1.53125 -0.625 -2.453125q-0.609375 -0.9375 -1.59375 -1.453125q-0.984375 -0.53125 -2.21875 -0.71875q-1.234375 -0.1875 -2.46875 -0.1875l-3.25 0l0 9.359375q0.265625 0.078125 0.75 0.125q0.484375 0.03125 1.046875 0.078125q0.5625 0.03125 1.15625 0.046875q0.59375 0.015625 1.046875 0.015625zm-2.046875 -12.234375q0.625 0 1.515625 -0.03125q0.90625 -0.046875 1.5 -0.125q0.890625 -0.296875 1.671875 -0.71875q0.796875 -0.4375 1.40625 -1.015625q0.625 -0.578125 0.96875 -1.34375q0.359375 -0.765625 0.359375 -1.65625q0 -1.234375 -0.46875 -2.03125q-0.46875 -0.8125 -1.25 -1.296875q-0.78125 -0.484375 -1.796875 -0.6875q-1.0 -0.203125 -2.046875 -0.203125q-1.234375 0 -2.265625 0.0625q-1.015625 0.046875 -1.546875 0.15625l0 8.890625l1.953125 0z" fill-rule="nonzero"/><path fill="#000000" fill-opacity="0.0" d="m198.3028 48.621326l99.08661 30.740154" fill-rule="evenodd"/><path stroke="#000000" stroke-width="2.0" stroke-linejoin="round" stroke-linecap="butt" d="m198.30278 48.621323l92.54024 28.709244" fill-rule="evenodd"/><path fill="#000000" stroke="#000000" stroke-width="2.0" stroke-linecap="butt" d="m290.84302 77.33057l-2.8146057 1.4817276l6.5684814 -0.3171463l-5.2355957 -3.979187z" fill-rule="evenodd"/><path fill="#000000" fill-opacity="0.0" d="m161.15463 48.621326l-108.409454 30.740154" fill-rule="evenodd"/><path stroke="#000000" stroke-width="2.0" stroke-linejoin="round" stroke-linecap="butt" d="m161.15463 48.621323l-101.815254 28.870338" fill-rule="evenodd"/><path fill="#000000" stroke="#000000" stroke-width="2.0" stroke-linecap="butt" d="m59.33938 77.49165l1.5502815 -2.7774277l-5.3315735 3.84964l6.5587234 0.47807312z" fill-rule="evenodd"/><path fill="#000000" fill-opacity="0.0" d="m66.39609 181.37022c0 -14.507248 11.760452 -26.267715 26.267715 -26.267715c6.966629 0 13.647926 2.7674866 18.574081 7.6936493c4.926155 4.9261475 7.693634 11.607437 7.693634 18.574066c0 14.507263 -11.76046 26.26773 -26.267715 26.26773c-14.507263 0 -26.267715 -11.760468 -26.267715 -26.26773z" fill-rule="evenodd"/><path stroke="#000000" stroke-width="3.0" stroke-linejoin="round" stroke-linecap="butt" d="m66.39609 181.37022c0 -14.507248 11.760452 -26.267715 26.267715 -26.267715c6.966629 0 13.647926 2.7674866 18.574081 7.6936493c4.926155 4.9261475 7.693634 11.607437 7.693634 18.574066c0 14.507263 -11.76046 26.26773 -26.267715 26.26773c-14.507263 0 -26.267715 -11.760468 -26.267715 -26.26773z" fill-rule="evenodd"/><path fill="#000000" d="m83.238 168.58524q0.703125 -0.109375 1.578125 -0.171875q0.890625 -0.0625 1.84375 -0.078125q0.953125 -0.015625 1.859375 -0.03125q0.921875 -0.015625 1.703125 -0.015625q3.125 0 5.421875 0.96875q2.296875 0.96875 3.78125 2.703125q1.5 1.734375 2.234375 4.171875q0.734375 2.421875 0.734375 5.328125q0 2.65625 -0.703125 5.09375q-0.6875 2.4375 -2.1875 4.328125q-1.484375 1.890625 -3.875 3.03125q-2.390625 1.140625 -5.78125 1.140625q-0.59375 0 -1.546875 -0.03125q-0.953125 -0.015625 -1.96875 -0.078125q-1.0 -0.046875 -1.859375 -0.09375q-0.859375 -0.03125 -1.234375 -0.109375l0 -26.15625zm7.0625 2.453125q-0.484375 0 -1.078125 0q-0.578125 0 -1.140625 0.046875q-0.546875 0.03125 -1.015625 0.078125q-0.46875 0.03125 -0.734375 0.0625l0 20.90625q0.1875 0.046875 0.703125 0.0625q0.53125 0.015625 1.09375 0.03125q0.5625 0.015625 1.078125 0.046875q0.53125 0.015625 0.71875 0.015625q2.609375 0 4.375 -0.890625q1.78125 -0.90625 2.84375 -2.40625q1.0625 -1.515625 1.5 -3.46875q0.453125 -1.96875 0.453125 -4.0625q0 -1.828125 -0.40625 -3.671875q-0.40625 -1.859375 -1.421875 -3.34375q-1.0 -1.5 -2.703125 -2.453125q-1.703125 -0.953125 -4.265625 -0.953125z" fill-rule="nonzero"/><path fill="#000000" fill-opacity="0.0" d="m71.30938 124.211876l21.354332 30.897636" fill-rule="evenodd"/><path stroke="#000000" stroke-width="2.0" stroke-linejoin="round" stroke-linecap="butt" d="m71.30938 124.21188l17.457352 25.259079" fill-rule="evenodd"/><path fill="#000000" stroke="#000000" stroke-width="2.0" stroke-linecap="butt" d="m88.76673 149.47096l-3.129036 -0.5714874l5.3636703 3.8047943l-1.6631393 -6.3623505z" fill-rule="evenodd"/><path fill="#000000" fill-opacity="0.0" d="m278.81784 124.211876l-34.362213 30.897636" fill-rule="evenodd"/><path stroke="#000000" stroke-width="2.0" stroke-linejoin="round" stroke-linecap="butt" d="m278.81784 124.21188l-29.265457 26.314758" fill-rule="evenodd"/><path fill="#000000" stroke="#000000" stroke-width="2.0" stroke-linecap="butt" d="m249.55238 150.52664l0.16862488 -3.1763306l-3.0912476 5.8042755l6.0989532 -2.45932z" fill-rule="evenodd"/><path fill="#000000" fill-opacity="0.0" d="m218.18849 181.36235c0 -14.507248 11.760452 -26.267715 26.267715 -26.267715c6.966629 0 13.647919 2.7674866 18.574066 7.693634c4.9261475 4.9261627 7.693634 11.607452 7.693634 18.574081c0 14.507263 -11.760437 26.267715 -26.2677 26.267715c-14.507263 0 -26.267715 -11.760452 -26.267715 -26.267715z" fill-rule="evenodd"/><path stroke="#000000" stroke-width="3.0" stroke-linejoin="round" stroke-linecap="butt" d="m218.18849 181.36235c0 -14.507248 11.760452 -26.267715 26.267715 -26.267715c6.966629 0 13.647919 2.7674866 18.574066 7.693634c4.9261475 4.9261627 7.693634 11.607452 7.693634 18.574081c0 14.507263 -11.760437 26.267715 -26.2677 26.267715c-14.507263 0 -26.267715 -11.760452 -26.267715 -26.267715z" fill-rule="evenodd"/><path fill="#000000" d="m236.1123 168.57735l14.21875 0l0 2.75l-11.125 0l0 8.5625l10.203125 0l0 2.75l-10.203125 0l0 9.296875l11.3125 0l0 2.765625l-14.40625 0l0 -26.125z" fill-rule="nonzero"/><path fill="#000000" fill-opacity="0.0" d="m225.88213 199.93643l-26.267715 30.614182" fill-rule="evenodd"/><path stroke="#000000" stroke-width="2.0" stroke-linejoin="round" stroke-linecap="butt" d="m225.88211 199.93643l-21.804443 25.412369" fill-rule="evenodd"/><path fill="#000000" stroke="#000000" stroke-width="2.0" stroke-linecap="butt" d="m204.07768 225.3488l-0.24235535 -3.1715546l-2.3170166 6.1544037l5.7309265 -3.2251892z" fill-rule="evenodd"/><path fill="#000000" fill-opacity="0.0" d="m173.34596 256.8189c0 -14.507263 11.760452 -26.26773 26.267715 -26.26773c6.966629 0 13.647934 2.7674866 18.574081 7.693634c4.9261627 4.9261627 7.693634 11.607452 7.693634 18.574097c0 14.507263 -11.760452 26.2677 -26.267715 26.2677c-14.507263 0 -26.267715 -11.760437 -26.267715 -26.2677z" fill-rule="evenodd"/><path stroke="#000000" stroke-width="3.0" stroke-linejoin="round" stroke-linecap="butt" d="m173.34596 256.8189c0 -14.507263 11.760452 -26.26773 26.267715 -26.26773c6.966629 0 13.647934 2.7674866 18.574081 7.693634c4.9261627 4.9261627 7.693634 11.607452 7.693634 18.574097c0 14.507263 -11.760452 26.2677 -26.267715 26.2677c-14.507263 0 -26.267715 -11.760437 -26.267715 -26.2677z" fill-rule="evenodd"/><path fill="#000000" d="m199.00038 257.12766l8.765625 0l0 11.5q-0.59375 0.453125 -1.4375 0.828125q-0.828125 0.359375 -1.78125 0.625q-0.953125 0.265625 -1.984375 0.390625q-1.03125 0.140625 -2.0 0.140625q-2.5 0 -4.59375 -0.796875q-2.078125 -0.8125 -3.609375 -2.46875q-1.53125 -1.671875 -2.390625 -4.21875q-0.859375 -2.5625 -0.859375 -6.03125q0 -3.6250153 1.046875 -6.2031403q1.046875 -2.578125 2.71875 -4.1875q1.6875 -1.625 3.765625 -2.375q2.09375 -0.75 4.1875 -0.75q2.234375 0 3.6875 0.25q1.46875 0.234375 2.46875 0.640625l-0.78125 2.734375q-1.796875 -0.859375 -5.109375 -0.859375q-1.578125 0 -3.125 0.546875q-1.546875 0.53125 -2.78125 1.8125q-1.234375 1.265625 -2.015625 3.3125q-0.78125 2.046875 -0.78125 5.0781403q0 2.765625 0.625 4.78125q0.640625 2.015625 1.78125 3.34375q1.140625 1.3125 2.734375 1.96875q1.609375 0.65625 3.515625 0.65625q2.390625 0 4.078125 -0.9375l0 -7.28125l-6.125 -0.734375l0 -1.765625z" fill-rule="nonzero"/><path fill="#000000" fill-opacity="0.0" d="m315.966 124.211876l36.6929 30.74015" fill-rule="evenodd"/><path stroke="#000000" stroke-width="2.0" stroke-linejoin="round" stroke-linecap="butt" d="m315.966 124.21188l31.438843 26.338486" fill-rule="evenodd"/><path fill="#000000" stroke="#000000" stroke-width="2.0" stroke-linecap="butt" d="m347.40488 150.55037l-3.1684875 0.2796936l6.181305 2.244339l-3.292511 -5.69252z" fill-rule="evenodd"/><path fill="#000000" fill-opacity="0.0" d="m326.40588 181.22835c0 -14.507263 11.760437 -26.267715 26.2677 -26.267715c6.9666443 0 13.647949 2.7674866 18.574097 7.693634c4.9261475 4.9261475 7.693634 11.607452 7.693634 18.574081c0 14.507263 -11.760468 26.267715 -26.26773 26.267715c-14.507263 0 -26.2677 -11.760452 -26.2677 -26.267715z" fill-rule="evenodd"/><path stroke="#000000" stroke-width="3.0" stroke-linejoin="round" stroke-linecap="butt" d="m326.40588 181.22835c0 -14.507263 11.760437 -26.267715 26.2677 -26.267715c6.9666443 0 13.647949 2.7674866 18.574097 7.693634c4.9261475 4.9261475 7.693634 11.607452 7.693634 18.574081c0 14.507263 -11.760468 26.267715 -26.26773 26.267715c-14.507263 0 -26.2677 -11.760452 -26.2677 -26.267715z" fill-rule="evenodd"/><path fill="#000000" d="m344.68433 168.44334l14.21875 0l0 2.75l-11.125 0l0 8.921875l10.375 0l0 2.765625l-10.375 0l0 11.6875l-3.09375 0l0 -26.125z" fill-rule="nonzero"/><path fill="#000000" fill-opacity="0.0" d="m334.09952 199.80243l-19.748047 30.803146" fill-rule="evenodd"/><path stroke="#000000" stroke-width="2.0" stroke-linejoin="round" stroke-linecap="butt" d="m334.09952 199.80243l-16.048737 25.032974" fill-rule="evenodd"/><path fill="#000000" stroke="#000000" stroke-width="2.0" stroke-linecap="butt" d="m318.05078 224.8354l-0.6795654 -3.1073608l-1.4417114 6.4161377l5.2286377 -3.988327z" fill-rule="evenodd"/><path fill="#000000" fill-opacity="0.0" d="m288.08508 256.87387c0 -14.507263 11.760468 -26.26773 26.26773 -26.26773c6.9666443 0 13.647919 2.7674866 18.574066 7.6936493c4.926178 4.9261475 7.693634 11.607437 7.693634 18.574081c0 14.507263 -11.760437 26.2677 -26.2677 26.2677c-14.507263 0 -26.26773 -11.760437 -26.26773 -26.2677z" fill-rule="evenodd"/><path stroke="#000000" stroke-width="3.0" stroke-linejoin="round" stroke-linecap="butt" d="m288.08508 256.87387c0 -14.507263 11.760468 -26.26773 26.26773 -26.26773c6.9666443 0 13.647919 2.7674866 18.574066 7.6936493c4.926178 4.9261475 7.693634 11.607437 7.693634 18.574081c0 14.507263 -11.760437 26.2677 -26.2677 26.2677c-14.507263 0 -26.26773 -11.760437 -26.26773 -26.2677z" fill-rule="evenodd"/><path fill="#000000" d="m320.56763 258.2295l-12.546875 0l0 11.984375l-3.09375 0l0 -26.125l3.09375 0l0 11.375l12.546875 0l0 -11.375l3.09375 0l0 26.125l-3.09375 0l0 -11.984375z" fill-rule="nonzero"/><path fill="#000000" fill-opacity="0.0" d="m363.91953 256.87387c0 -14.507263 11.760468 -26.26773 26.26773 -26.26773c6.966614 0 13.647919 2.7674866 18.574066 7.6936493c4.926178 4.9261475 7.693634 11.607437 7.693634 18.574081c0 14.507263 -11.760437 26.2677 -26.2677 26.2677c-14.507263 0 -26.26773 -11.760437 -26.26773 -26.2677z" fill-rule="evenodd"/><path stroke="#000000" stroke-width="3.0" stroke-linejoin="round" stroke-linecap="butt" d="m363.91953 256.87387c0 -14.507263 11.760468 -26.26773 26.26773 -26.26773c6.966614 0 13.647919 2.7674866 18.574066 7.6936493c4.926178 4.9261475 7.693634 11.607437 7.693634 18.574081c0 14.507263 -11.760437 26.2677 -26.2677 26.2677c-14.507263 0 -26.26773 -11.760437 -26.26773 -26.2677z" fill-rule="evenodd"/><path fill="#000000" d="m387.1192 244.08887l3.109375 0l0 26.125l-3.109375 0l0 -26.125z" fill-rule="nonzero"/><path fill="#000000" fill-opacity="0.0" d="m371.24768 199.80243l18.929138 30.803146" fill-rule="evenodd"/><path stroke="#000000" stroke-width="2.0" stroke-linejoin="round" stroke-linecap="butt" d="m371.24765 199.80243l15.340576 24.963486" fill-rule="evenodd"/><path fill="#000000" stroke="#000000" stroke-width="2.0" stroke-linecap="butt" d="m386.5882 224.76591l-3.0938416 -0.738678l5.151642 4.0872955l-1.3191223 -6.442459z" fill-rule="evenodd"/><path fill="#000000" fill-opacity="0.0" d="m622.0747 32.217846c0 -14.507257 11.760437 -26.267715 26.2677 -26.267715c6.966614 0 13.647949 2.7674837 18.574097 7.693636c4.9261475 4.926152 7.6936035 11.60745 7.6936035 18.574078c0 14.507259 -11.760437 26.26772 -26.2677 26.26772c-14.507263 0 -26.2677 -11.76046 -26.2677 -26.26772z" fill-rule="evenodd"/><path stroke="#000000" stroke-width="3.0" stroke-linejoin="round" stroke-linecap="butt" d="m622.0747 32.217846c0 -14.507257 11.760437 -26.267715 26.2677 -26.267715c6.966614 0 13.647949 2.7674837 18.574097 7.693636c4.9261475 4.926152 7.6936035 11.60745 7.6936035 18.574078c0 14.507259 -11.760437 26.26772 -26.2677 26.26772c-14.507263 0 -26.2677 -11.76046 -26.2677 -26.26772z" fill-rule="evenodd"/><path fill="#000000" d="m651.5215 38.32347l-9.640625 0l-2.609375 7.234375l-3.0625 0l9.890625 -26.546877l1.421875 0l9.921875 26.546877l-3.234375 0l-2.6875 -7.234375zm-8.625 -2.6875l7.6875 0l-2.90625 -7.953127l-0.9375 -3.96875l-0.046875 0l-0.921875 4.03125l-2.875 7.890627z" fill-rule="nonzero"/><path fill="#000000" fill-opacity="0.0" d="m739.7379 107.808395c0 -14.507256 11.760437 -26.267715 26.2677 -26.267715c6.966614 0 13.647949 2.7674866 18.574097 7.6936417c4.9261475 4.9261475 7.6936035 11.607445 7.6936035 18.574074c0 14.507263 -11.760437 26.267715 -26.2677 26.267715c-14.507263 0 -26.2677 -11.760452 -26.2677 -26.267715z" fill-rule="evenodd"/><path stroke="#000000" stroke-width="3.0" stroke-linejoin="round" stroke-linecap="butt" d="m739.7379 107.808395c0 -14.507256 11.760437 -26.267715 26.2677 -26.267715c6.966614 0 13.647949 2.7674866 18.574097 7.6936417c4.9261475 4.9261475 7.6936035 11.607445 7.6936035 18.574074c0 14.507263 -11.760437 26.267715 -26.2677 26.267715c-14.507263 0 -26.2677 -11.760452 -26.2677 -26.267715z" fill-rule="evenodd"/><path fill="#000000" d="m773.72723 120.070274q-1.109375 0.859375 -2.828125 1.1875q-1.71875 0.34375 -3.65625 0.34375q-2.359375 0 -4.421875 -0.796875q-2.046875 -0.8125 -3.578125 -2.453125q-1.53125 -1.640625 -2.421875 -4.203125q-0.890625 -2.5625 -0.890625 -6.0625q0 -3.65625 0.984375 -6.21875q0.984375 -2.5625 2.609375 -4.171875q1.625 -1.625 3.640625 -2.375q2.015625 -0.75 4.109375 -0.75q2.234375 0 3.65625 0.25q1.421875 0.234375 2.421875 0.640625l-0.734375 2.734375q-1.796875 -0.859375 -5.125 -0.859375q-1.53125 0 -3.03125 0.5625q-1.484375 0.546875 -2.65625 1.828125q-1.171875 1.265625 -1.890625 3.328125q-0.703125 2.046875 -0.703125 5.03125q0 2.6875 0.671875 4.703125q0.671875 2.015625 1.84375 3.359375q1.1875 1.34375 2.765625 2.015625q1.59375 0.671875 3.453125 0.671875q1.6875 0 2.9375 -0.328125q1.25 -0.34375 2.109375 -0.875l0.734375 2.4375z" fill-rule="nonzero"/><path fill="#000000" fill-opacity="0.0" d="m495.08127 107.808395c0 -14.507256 11.760468 -26.267715 26.26773 -26.267715c6.966614 0 13.647949 2.7674866 18.574097 7.6936417c4.9261475 4.9261475 7.6936035 11.607445 7.6936035 18.574074c0 14.507263 -11.760437 26.267715 -26.2677 26.267715c-14.507263 0 -26.26773 -11.760452 -26.26773 -26.267715z" fill-rule="evenodd"/><path stroke="#000000" stroke-width="3.0" stroke-linejoin="round" stroke-linecap="butt" d="m495.08127 107.808395c0 -14.507256 11.760468 -26.267715 26.26773 -26.267715c6.966614 0 13.647949 2.7674866 18.574097 7.6936417c4.9261475 4.9261475 7.6936035 11.607445 7.6936035 18.574074c0 14.507263 -11.760437 26.267715 -26.2677 26.267715c-14.507263 0 -26.26773 -11.760452 -26.26773 -26.267715z" fill-rule="evenodd"/><path fill="#000000" d="m527.85925 100.99215q0 0.9375 -0.296875 1.90625q-0.296875 0.96875 -0.890625 1.8125q-0.59375 0.828125 -1.53125 1.46875q-0.9375 0.640625 -2.203125 0.96875l0 0.15625q1.125 0.1875 2.140625 0.640625q1.03125 0.4375 1.8125 1.21875q0.78125 0.78125 1.265625 1.90625q0.484375 1.125 0.484375 2.65625q0 2.015625 -0.84375 3.484375q-0.828125 1.46875 -2.203125 2.40625q-1.359375 0.9375 -3.109375 1.390625q-1.75 0.4375 -3.578125 0.4375q-0.640625 0 -1.5 0q-0.859375 0 -1.796875 -0.0625q-0.921875 -0.046875 -1.859375 -0.140625q-0.9375 -0.09375 -1.640625 -0.28125l0 -25.71875q1.375 -0.21875 3.203125 -0.359375q1.84375 -0.15625 4.0 -0.15625q1.453125 0 2.96875 0.25q1.515625 0.234375 2.734375 0.921875q1.234375 0.6875 2.03125 1.921875q0.8125 1.234375 0.8125 3.171875zm-8.65625 17.765625q1.1875 0 2.3125 -0.28125q1.125 -0.28125 1.984375 -0.890625q0.859375 -0.625 1.359375 -1.515625q0.5 -0.890625 0.5 -2.125q0 -1.53125 -0.625 -2.453125q-0.609375 -0.9375 -1.59375 -1.453125q-0.984375 -0.53125 -2.21875 -0.71875q-1.234375 -0.1875 -2.46875 -0.1875l-3.25 0l0 9.359375q0.265625 0.078125 0.75 0.125q0.484375 0.03125 1.046875 0.078125q0.5625 0.03125 1.15625 0.046875q0.59375 0.015625 1.046875 0.015625zm-2.046875 -12.234375q0.625 0 1.515625 -0.03125q0.90625 -0.046875 1.5 -0.125q0.890625 -0.296875 1.671875 -0.71875q0.796875 -0.4375 1.40625 -1.015625q0.625 -0.578125 0.96875 -1.34375q0.359375 -0.765625 0.359375 -1.65625q0 -1.234375 -0.46875 -2.03125q-0.46875 -0.8125 -1.25 -1.296875q-0.78125 -0.484375 -1.796875 -0.6875q-1.0 -0.203125 -2.046875 -0.203125q-1.234375 0 -2.265625 0.0625q-1.015625 0.046875 -1.546875 0.15625l0 8.890625l1.953125 0z" fill-rule="nonzero"/><path fill="#000000" fill-opacity="0.0" d="m666.9165 50.791927l99.08661 30.740162" fill-rule="evenodd"/><path stroke="#000000" stroke-width="2.0" stroke-linejoin="round" stroke-linecap="butt" d="m666.9165 50.791927l92.54028 28.70924" fill-rule="evenodd"/><path fill="#000000" stroke="#000000" stroke-width="2.0" stroke-linecap="butt" d="m759.4567 79.50117l-2.8145752 1.4817276l6.5684814 -0.3171463l-5.2355957 -3.9791794z" fill-rule="evenodd"/><path fill="#000000" fill-opacity="0.0" d="m629.7683 50.791927l-108.409424 30.740162" fill-rule="evenodd"/><path stroke="#000000" stroke-width="2.0" stroke-linejoin="round" stroke-linecap="butt" d="m629.7683 50.791927l-101.81525 28.870335" fill-rule="evenodd"/><path fill="#000000" stroke="#000000" stroke-width="2.0" stroke-linecap="butt" d="m527.95306 79.66226l1.550293 -2.7774353l-5.331543 3.84964l6.558716 0.47807312z" fill-rule="evenodd"/><path fill="#000000" fill-opacity="0.0" d="m535.00977 183.54083c0 -14.507263 11.760498 -26.267715 26.267761 -26.267715c6.966614 0 13.647888 2.7674866 18.574036 7.693634c4.9261475 4.9261627 7.6936646 11.607452 7.6936646 18.574081c0 14.507263 -11.760498 26.267715 -26.2677 26.267715c-14.507263 0 -26.267761 -11.760452 -26.267761 -26.267715z" fill-rule="evenodd"/><path stroke="#000000" stroke-width="3.0" stroke-linejoin="round" stroke-linecap="butt" d="m535.00977 183.54083c0 -14.507263 11.760498 -26.267715 26.267761 -26.267715c6.966614 0 13.647888 2.7674866 18.574036 7.693634c4.9261475 4.9261627 7.6936646 11.607452 7.6936646 18.574081c0 14.507263 -11.760498 26.267715 -26.2677 26.267715c-14.507263 0 -26.267761 -11.760452 -26.267761 -26.267715z" fill-rule="evenodd"/><path fill="#000000" d="m551.8517 170.75583q0.703125 -0.109375 1.578125 -0.171875q0.890625 -0.0625 1.84375 -0.078125q0.953125 -0.015625 1.859375 -0.03125q0.921875 -0.015625 1.703125 -0.015625q3.125 0 5.421875 0.96875q2.296875 0.96875 3.78125 2.703125q1.5 1.734375 2.234375 4.171875q0.734375 2.421875 0.734375 5.328125q0 2.65625 -0.703125 5.09375q-0.6875 2.4375 -2.1875 4.328125q-1.484375 1.890625 -3.875 3.03125q-2.390625 1.140625 -5.78125 1.140625q-0.59375 0 -1.546875 -0.03125q-0.953125 -0.015625 -1.96875 -0.078125q-1.0 -0.046875 -1.859375 -0.09375q-0.859375 -0.03125 -1.234375 -0.109375l0 -26.15625zm7.0625 2.453125q-0.484375 0 -1.078125 0q-0.578125 0 -1.140625 0.046875q-0.546875 0.03125 -1.015625 0.078125q-0.46875 0.03125 -0.734375 0.0625l0 20.90625q0.1875 0.046875 0.703125 0.0625q0.53125 0.015625 1.09375 0.03125q0.5625 0.015625 1.078125 0.046875q0.53125 0.015625 0.71875 0.015625q2.609375 0 4.375 -0.890625q1.78125 -0.90625 2.84375 -2.40625q1.0625 -1.515625 1.5 -3.46875q0.453125 -1.96875 0.453125 -4.0625q0 -1.828125 -0.40625 -3.671875q-0.40625 -1.859375 -1.421875 -3.34375q-1.0 -1.5 -2.703125 -2.453125q-1.703125 -0.953125 -4.265625 -0.953125z" fill-rule="nonzero"/><path fill="#000000" fill-opacity="0.0" d="m539.9231 126.38248l21.35431 30.897644" fill-rule="evenodd"/><path stroke="#000000" stroke-width="2.0" stroke-linejoin="round" stroke-linecap="butt" d="m539.92303 126.382484l17.457397 25.259087" fill-rule="evenodd"/><path fill="#000000" stroke="#000000" stroke-width="2.0" stroke-linecap="butt" d="m557.38043 151.64157l-3.1290283 -0.5714874l5.3636475 3.804779l-1.663147 -6.362335z" fill-rule="evenodd"/><path fill="#000000" fill-opacity="0.0" d="m747.4315 126.38248l-34.362183 30.897644" fill-rule="evenodd"/><path stroke="#000000" stroke-width="2.0" stroke-linejoin="round" stroke-linecap="butt" d="m747.4315 126.382484l-29.265442 26.314766" fill-rule="evenodd"/><path fill="#000000" stroke="#000000" stroke-width="2.0" stroke-linecap="butt" d="m718.1661 152.69725l0.16864014 -3.1763306l-3.0912476 5.8042755l6.098938 -2.45932z" fill-rule="evenodd"/><path fill="#000000" fill-opacity="0.0" d="m686.8022 183.53296c0 -14.507263 11.760437 -26.267715 26.2677 -26.267715c6.966614 0 13.647949 2.7674866 18.574097 7.693634c4.9261475 4.9261475 7.6936035 11.607452 7.6936035 18.574081c0 14.507263 -11.760437 26.267715 -26.2677 26.267715c-14.507263 0 -26.2677 -11.760452 -26.2677 -26.267715z" fill-rule="evenodd"/><path stroke="#000000" stroke-width="3.0" stroke-linejoin="round" stroke-linecap="butt" d="m686.8022 183.53296c0 -14.507263 11.760437 -26.267715 26.2677 -26.267715c6.966614 0 13.647949 2.7674866 18.574097 7.693634c4.9261475 4.9261475 7.6936035 11.607452 7.6936035 18.574081c0 14.507263 -11.760437 26.267715 -26.2677 26.267715c-14.507263 0 -26.2677 -11.760452 -26.2677 -26.267715z" fill-rule="evenodd"/><path fill="#000000" d="m704.726 170.74796l14.21875 0l0 2.75l-11.125 0l0 8.5625l10.203125 0l0 2.75l-10.203125 0l0 9.296875l11.3125 0l0 2.765625l-14.40625 0l0 -26.125z" fill-rule="nonzero"/><path fill="#000000" fill-opacity="0.0" d="m694.4958 202.10704l-26.2677 30.614182" fill-rule="evenodd"/><path stroke="#000000" stroke-width="2.0" stroke-linejoin="round" stroke-linecap="butt" d="m694.4958 202.10704l-21.804382 25.412354" fill-rule="evenodd"/><path fill="#000000" stroke="#000000" stroke-width="2.0" stroke-linecap="butt" d="m672.6914 227.51941l-0.2423706 -3.1715698l-2.3170166 6.154419l5.730896 -3.2252045z" fill-rule="evenodd"/><path fill="#000000" fill-opacity="0.0" d="m641.95966 258.9895c0 -14.507263 11.760437 -26.267715 26.2677 -26.267715c6.966675 0 13.647949 2.7674866 18.574097 7.693634c4.9261475 4.9261475 7.6936646 11.607452 7.6936646 18.574081c0 14.507263 -11.760498 26.26773 -26.267761 26.26773c-14.507263 0 -26.2677 -11.760468 -26.2677 -26.26773z" fill-rule="evenodd"/><path stroke="#000000" stroke-width="3.0" stroke-linejoin="round" stroke-linecap="butt" d="m641.95966 258.9895c0 -14.507263 11.760437 -26.267715 26.2677 -26.267715c6.966675 0 13.647949 2.7674866 18.574097 7.693634c4.9261475 4.9261475 7.6936646 11.607452 7.6936646 18.574081c0 14.507263 -11.760498 26.26773 -26.267761 26.26773c-14.507263 0 -26.2677 -11.760468 -26.2677 -26.26773z" fill-rule="evenodd"/><path fill="#000000" d="m667.6141 259.29825l8.765625 0l0 11.5q-0.59375 0.453125 -1.4375 0.828125q-0.828125 0.359375 -1.78125 0.625q-0.953125 0.265625 -1.984375 0.390625q-1.03125 0.140625 -2.0 0.140625q-2.5 0 -4.59375 -0.796875q-2.078125 -0.8125 -3.609375 -2.46875q-1.53125 -1.671875 -2.390625 -4.21875q-0.859375 -2.5625 -0.859375 -6.03125q0 -3.625 1.046875 -6.203125q1.046875 -2.578125 2.71875 -4.1875q1.6875 -1.625 3.765625 -2.375q2.09375 -0.75 4.1875 -0.75q2.234375 0 3.6875 0.25q1.46875 0.234375 2.46875 0.640625l-0.78125 2.734375q-1.796875 -0.859375 -5.109375 -0.859375q-1.578125 0 -3.125 0.546875q-1.546875 0.53125 -2.78125 1.8125q-1.234375 1.265625 -2.015625 3.3125q-0.78125 2.046875 -0.78125 5.078125q0 2.765625 0.625 4.78125q0.640625 2.015625 1.78125 3.34375q1.140625 1.3125 2.734375 1.96875q1.609375 0.65625 3.515625 0.65625q2.390625 0 4.078125 -0.9375l0 -7.28125l-6.125 -0.734375l0 -1.765625z" fill-rule="nonzero"/><path fill="#000000" fill-opacity="0.0" d="m784.5797 126.38248l36.69287 30.740158" fill-rule="evenodd"/><path stroke="#000000" stroke-width="2.0" stroke-linejoin="round" stroke-linecap="butt" d="m784.5797 126.382484l31.438904 26.338493" fill-rule="evenodd"/><path fill="#000000" stroke="#000000" stroke-width="2.0" stroke-linecap="butt" d="m816.0186 152.72098l-3.168518 0.2796936l6.1813354 2.244339l-3.2925415 -5.69252z" fill-rule="evenodd"/><path fill="#000000" fill-opacity="0.0" d="m795.0196 183.39896c0 -14.507263 11.760437 -26.267715 26.2677 -26.267715c6.966614 0 13.647949 2.7674713 18.574097 7.693634c4.9261475 4.9261475 7.6936035 11.607437 7.6936035 18.574081c0 14.507248 -11.760437 26.267715 -26.2677 26.267715c-14.507263 0 -26.2677 -11.760468 -26.2677 -26.267715z" fill-rule="evenodd"/><path stroke="#000000" stroke-width="3.0" stroke-linejoin="round" stroke-linecap="butt" d="m795.0196 183.39896c0 -14.507263 11.760437 -26.267715 26.2677 -26.267715c6.966614 0 13.647949 2.7674713 18.574097 7.693634c4.9261475 4.9261475 7.6936035 11.607437 7.6936035 18.574081c0 14.507248 -11.760437 26.267715 -26.2677 26.267715c-14.507263 0 -26.2677 -11.760468 -26.2677 -26.267715z" fill-rule="evenodd"/><path fill="#000000" d="m813.29803 170.61395l14.21875 0l0 2.75l-11.125 0l0 8.921875l10.375 0l0 2.765625l-10.375 0l0 11.6875l-3.09375 0l0 -26.125z" fill-rule="nonzero"/><path fill="#000000" fill-opacity="0.0" d="m802.7132 201.97304l-19.748047 30.803146" fill-rule="evenodd"/><path stroke="#000000" stroke-width="2.0" stroke-linejoin="round" stroke-linecap="butt" d="m802.7132 201.97304l-16.048767 25.032974" fill-rule="evenodd"/><path fill="#000000" stroke="#000000" stroke-width="2.0" stroke-linecap="butt" d="m786.6644 227.00601l-0.6795654 -3.107376l-1.4417114 6.416153l5.2286377 -3.9883423z" fill-rule="evenodd"/><path fill="#000000" fill-opacity="0.0" d="m756.6988 259.04446c0 -14.507263 11.760437 -26.267715 26.2677 -26.267715c6.966675 0 13.647949 2.7674866 18.574097 7.693634c4.9261475 4.9261627 7.6936646 11.607452 7.6936646 18.574081c0 14.507263 -11.760498 26.26773 -26.267761 26.26773c-14.507263 0 -26.2677 -11.760468 -26.2677 -26.26773z" fill-rule="evenodd"/><path stroke="#000000" stroke-width="3.0" stroke-linejoin="round" stroke-linecap="butt" d="m756.6988 259.04446c0 -14.507263 11.760437 -26.267715 26.2677 -26.267715c6.966675 0 13.647949 2.7674866 18.574097 7.693634c4.9261475 4.9261627 7.6936646 11.607452 7.6936646 18.574081c0 14.507263 -11.760498 26.26773 -26.267761 26.26773c-14.507263 0 -26.2677 -11.760468 -26.2677 -26.26773z" fill-rule="evenodd"/><path fill="#000000" d="m789.18134 260.4001l-12.546875 0l0 11.984375l-3.09375 0l0 -26.125l3.09375 0l0 11.375l12.546875 0l0 -11.375l3.09375 0l0 26.125l-3.09375 0l0 -11.984375z" fill-rule="nonzero"/><path fill="#000000" fill-opacity="0.0" d="m832.5332 259.04446c0 -14.507263 11.760498 -26.267715 26.267761 -26.267715c6.966614 0 13.647888 2.7674866 18.574036 7.693634c4.9262085 4.9261627 7.6936646 11.607452 7.6936646 18.574081c0 14.507263 -11.760437 26.26773 -26.2677 26.26773c-14.507263 0 -26.267761 -11.760468 -26.267761 -26.26773z" fill-rule="evenodd"/><path stroke="#000000" stroke-width="3.0" stroke-linejoin="round" stroke-linecap="butt" d="m832.5332 259.04446c0 -14.507263 11.760498 -26.267715 26.267761 -26.267715c6.966614 0 13.647888 2.7674866 18.574036 7.693634c4.9262085 4.9261627 7.6936646 11.607452 7.6936646 18.574081c0 14.507263 -11.760437 26.26773 -26.2677 26.26773c-14.507263 0 -26.267761 -11.760468 -26.267761 -26.26773z" fill-rule="evenodd"/><path fill="#000000" d="m855.7329 246.25946l3.109375 0l0 26.125l-3.109375 0l0 -26.125z" fill-rule="nonzero"/><path fill="#000000" fill-opacity="0.0" d="m839.8614 201.97304l18.929138 30.803146" fill-rule="evenodd"/><path stroke="#000000" stroke-width="2.0" stroke-linejoin="round" stroke-linecap="butt" d="m839.8614 201.97304l15.340576 24.96347" fill-rule="evenodd"/><path fill="#000000" stroke="#000000" stroke-width="2.0" stroke-linecap="butt" d="m855.2019 226.93652l-3.093811 -0.73869324l5.1516113 4.087311l-1.3190918 -6.442459z" fill-rule="evenodd"/><path fill="#000000" fill-opacity="0.0" d="m454.56168 16.139107l1.1653442 284.62994" fill-rule="evenodd"/><path stroke="#000000" stroke-width="1.0" stroke-linejoin="round" stroke-linecap="butt" d="m454.56168 16.139107l1.1653442 284.62994" fill-rule="evenodd"/><path fill="#000000" fill-opacity="0.0" d="m34.16122 124.211876l-20.377953 30.897636" fill-rule="evenodd"/><path stroke="#000000" stroke-width="2.0" stroke-linejoin="round" stroke-linecap="butt" d="m34.16122 124.21188l-16.604254 25.175842" fill-rule="evenodd"/><path fill="#000000" stroke="#000000" stroke-width="2.0" stroke-linecap="butt" d="m17.556967 149.38773l-0.63925934 -3.1159058l-1.524683 6.396942l5.2798443 -3.920288z" fill-rule="evenodd"/><path fill="#000000" d="m7.616842 161.26772c0 -3.4006805 2.7567983 -6.157486 6.1574807 -6.157486c1.6330652 0 3.1992435 0.6487427 4.3539963 1.8034973c1.1547508 1.1547394 1.803484 2.720932 1.803484 4.3539886c0 3.4006805 -2.7567978 6.157486 -6.1574802 6.157486c-3.4006824 0 -6.1574807 -2.7568054 -6.1574807 -6.157486z" fill-rule="evenodd"/><path stroke="#000000" stroke-width="1.0" stroke-linejoin="round" stroke-linecap="butt" d="m7.616842 161.26772c0 -3.4006805 2.7567983 -6.157486 6.1574807 -6.157486c1.6330652 0 3.1992435 0.6487427 4.3539963 1.8034973c1.1547508 1.1547394 1.803484 2.720932 1.803484 4.3539886c0 3.4006805 -2.7567978 6.157486 -6.1574802 6.157486c-3.4006824 0 -6.1574807 -2.7568054 -6.1574807 -6.157486z" fill-rule="evenodd"/><path fill="#000000" fill-opacity="0.0" d="m74.08972 199.9443l-21.354332 30.614182" fill-rule="evenodd"/><path stroke="#000000" stroke-width="2.0" stroke-linejoin="round" stroke-linecap="butt" d="m74.08972 199.9443l-17.43304 24.992493" fill-rule="evenodd"/><path fill="#000000" stroke="#000000" stroke-width="2.0" stroke-linecap="butt" d="m56.656677 224.93681l-0.55797195 -3.131485l-1.6906013 6.3551025l5.3800545 -3.781601z" fill-rule="evenodd"/><path fill="#000000" d="m46.577473 236.70866c0 -3.4006805 2.7567978 -6.157486 6.1574783 -6.157486c1.6330681 0 3.1992455 0.6487427 4.3539963 1.803482c1.1547508 1.1547546 1.8034859 2.720932 1.8034859 4.354004c0 3.4006805 -2.7567978 6.1574707 -6.157482 6.1574707c-3.4006805 0 -6.1574783 -2.7567902 -6.1574783 -6.1574707z" fill-rule="evenodd"/><path stroke="#000000" stroke-width="1.0" stroke-linejoin="round" stroke-linecap="butt" d="m46.577473 236.70866c0 -3.4006805 2.7567978 -6.157486 6.1574783 -6.157486c1.6330681 0 3.1992455 0.6487427 4.3539963 1.803482c1.1547508 1.1547546 1.8034859 2.720932 1.8034859 4.354004c0 3.4006805 -2.7567978 6.1574707 -6.157482 6.1574707c-3.4006805 0 -6.1574783 -2.7567902 -6.1574783 -6.1574707z" fill-rule="evenodd"/><path fill="#000000" fill-opacity="0.0" d="m111.237885 199.9443l16.850388 32.81891" fill-rule="evenodd"/><path stroke="#000000" stroke-width="2.0" stroke-linejoin="round" stroke-linecap="butt" d="m111.237885 199.9443l13.719749 26.721466" fill-rule="evenodd"/><path fill="#000000" stroke="#000000" stroke-width="2.0" stroke-linecap="butt" d="m124.957634 226.66577l-3.02816 -0.97354126l4.8233566 4.4699707l-0.8216553 -6.524597z" fill-rule="evenodd"/><path fill="#000000" d="m121.94361 238.93439c0 -3.4006805 2.7567978 -6.157486 6.1574783 -6.157486c1.6330719 0 3.1992493 0.6487274 4.354004 1.803482c1.1547546 1.1547546 1.803482 2.720932 1.803482 4.354004c0 3.4006805 -2.7568054 6.1574707 -6.157486 6.1574707c-3.4006805 0 -6.1574783 -2.7567902 -6.1574783 -6.1574707z" fill-rule="evenodd"/><path stroke="#000000" stroke-width="1.0" stroke-linejoin="round" stroke-linecap="butt" d="m121.94361 238.93439c0 -3.4006805 2.7567978 -6.157486 6.1574783 -6.157486c1.6330719 0 3.1992493 0.6487274 4.354004 1.803482c1.1547546 1.1547546 1.803482 2.720932 1.803482 4.354004c0 3.4006805 -2.7568054 6.1574707 -6.157486 6.1574707c-3.4006805 0 -6.1574783 -2.7567902 -6.1574783 -6.1574707z" fill-rule="evenodd"/><path fill="#000000" fill-opacity="0.0" d="m181.0396 275.39297l-10.708664 28.22049" fill-rule="evenodd"/><path stroke="#000000" stroke-width="2.0" stroke-linejoin="round" stroke-linecap="butt" d="m181.0396 275.39297l-8.276932 21.812195" fill-rule="evenodd"/><path fill="#000000" stroke="#000000" stroke-width="2.0" stroke-linecap="butt" d="m172.76266 297.20514l-1.3049011 -2.9008179l-0.08950806 6.575531l4.295227 -4.9796143z" fill-rule="evenodd"/><path fill="#000000" d="m164.17328 309.76904c0 -3.4006958 2.7567902 -6.157501 6.1574707 -6.157501c1.6330719 0 3.1992493 0.6487427 4.354004 1.8034973c1.1547394 1.1547546 1.803482 2.7209167 1.803482 4.354004c0 3.4006653 -2.7568054 6.1574707 -6.157486 6.1574707c-3.4006805 0 -6.1574707 -2.7568054 -6.1574707 -6.1574707z" fill-rule="evenodd"/><path stroke="#000000" stroke-width="1.0" stroke-linejoin="round" stroke-linecap="butt" d="m164.17328 309.76904c0 -3.4006958 2.7567902 -6.157501 6.1574707 -6.157501c1.6330719 0 3.1992493 0.6487427 4.354004 1.8034973c1.1547394 1.1547546 1.803482 2.7209167 1.803482 4.354004c0 3.4006653 -2.7568054 6.1574707 -6.157486 6.1574707c-3.4006805 0 -6.1574707 -2.7568054 -6.1574707 -6.1574707z" fill-rule="evenodd"/><path fill="#000000" fill-opacity="0.0" d="m218.18776 275.39297l14.29921 28.22049" fill-rule="evenodd"/><path stroke="#000000" stroke-width="2.0" stroke-linejoin="round" stroke-linecap="butt" d="m218.18776 275.39297l11.201218 22.106384" fill-rule="evenodd"/><path fill="#000000" stroke="#000000" stroke-width="2.0" stroke-linecap="butt" d="m229.38899 297.49936l-3.0229034 -0.9897156l4.7993774 4.495697l-0.7867584 -6.5288696z" fill-rule="evenodd"/><path fill="#000000" d="m226.34518 309.76904c0 -3.4006958 2.7568054 -6.157501 6.157486 -6.157501c1.6330566 0 3.1992493 0.6487427 4.3539886 1.8034973c1.1547546 1.1547546 1.8034973 2.7209167 1.8034973 4.354004c0 3.4006653 -2.7568054 6.1574707 -6.157486 6.1574707c-3.4006805 0 -6.157486 -2.7568054 -6.157486 -6.1574707z" fill-rule="evenodd"/><path stroke="#000000" stroke-width="1.0" stroke-linejoin="round" stroke-linecap="butt" d="m226.34518 309.76904c0 -3.4006958 2.7568054 -6.157501 6.157486 -6.157501c1.6330566 0 3.1992493 0.6487427 4.3539886 1.8034973c1.1547546 1.1547546 1.8034973 2.7209167 1.8034973 4.354004c0 3.4006653 -2.7568054 6.1574707 -6.157486 6.1574707c-3.4006805 0 -6.157486 -2.7568054 -6.157486 -6.1574707z" fill-rule="evenodd"/><path fill="#000000" fill-opacity="0.0" d="m295.77872 275.44794l-11.811005 28.157501" fill-rule="evenodd"/><path stroke="#000000" stroke-width="2.0" stroke-linejoin="round" stroke-linecap="butt" d="m295.77872 275.44794l-9.1597595 21.836853" fill-rule="evenodd"/><path fill="#000000" stroke="#000000" stroke-width="2.0" stroke-linecap="butt" d="m286.619 297.2848l-1.2041016 -2.9440918l-0.31622314 6.568512l4.4644165 -4.8285217z" fill-rule="evenodd"/><path fill="#000000" d="m277.79794 309.76904c0 -3.4006958 2.7568054 -6.157501 6.1574707 -6.157501c1.6330872 0 3.1992493 0.6487427 4.354004 1.8034973c1.1547546 1.1547546 1.8034973 2.7209167 1.8034973 4.354004c0 3.4006653 -2.7568054 6.1574707 -6.157501 6.1574707c-3.4006653 0 -6.1574707 -2.7568054 -6.1574707 -6.1574707z" fill-rule="evenodd"/><path stroke="#000000" stroke-width="1.0" stroke-linejoin="round" stroke-linecap="butt" d="m277.79794 309.76904c0 -3.4006958 2.7568054 -6.157501 6.1574707 -6.157501c1.6330872 0 3.1992493 0.6487427 4.354004 1.8034973c1.1547546 1.1547546 1.8034973 2.7209167 1.8034973 4.354004c0 3.4006653 -2.7568054 6.1574707 -6.157501 6.1574707c-3.4006653 0 -6.1574707 -2.7568054 -6.1574707 -6.1574707z" fill-rule="evenodd"/><path fill="#000000" fill-opacity="0.0" d="m332.92688 275.44794l12.566956 28.157501" fill-rule="evenodd"/><path stroke="#000000" stroke-width="2.0" stroke-linejoin="round" stroke-linecap="butt" d="m332.9269 275.44794l9.7734375 21.898407" fill-rule="evenodd"/><path fill="#000000" stroke="#000000" stroke-width="2.0" stroke-linecap="butt" d="m342.70032 297.34634l-2.9705505 -1.1372375l4.572418 4.726349l-0.46463013 -6.5596924z" fill-rule="evenodd"/><path fill="#000000" d="m339.34256 309.76904c0 -3.4006958 2.7568054 -6.157501 6.1574707 -6.157501c1.6330872 0 3.1992493 0.6487427 4.354004 1.8034973c1.1547546 1.1547546 1.8034973 2.7209167 1.8034973 4.354004c0 3.4006653 -2.7568054 6.1574707 -6.157501 6.1574707c-3.4006653 0 -6.1574707 -2.7568054 -6.1574707 -6.1574707z" fill-rule="evenodd"/><path stroke="#000000" stroke-width="1.0" stroke-linejoin="round" stroke-linecap="butt" d="m339.34256 309.76904c0 -3.4006958 2.7568054 -6.157501 6.1574707 -6.157501c1.6330872 0 3.1992493 0.6487427 4.354004 1.8034973c1.1547546 1.1547546 1.8034973 2.7209167 1.8034973 4.354004c0 3.4006653 -2.7568054 6.1574707 -6.157501 6.1574707c-3.4006653 0 -6.1574707 -2.7568054 -6.1574707 -6.1574707z" fill-rule="evenodd"/><path fill="#000000" fill-opacity="0.0" d="m371.61316 275.44794l-10.803131 28.157501" fill-rule="evenodd"/><path stroke="#000000" stroke-width="2.0" stroke-linejoin="round" stroke-linecap="butt" d="m371.6132 275.44794l-8.347931 21.758148" fill-rule="evenodd"/><path fill="#000000" stroke="#000000" stroke-width="2.0" stroke-linecap="butt" d="m363.26526 297.2061l-1.29422 -2.9056091l-0.11367798 6.575165l4.313507 -4.963806z" fill-rule="evenodd"/><path fill="#000000" d="m354.65088 309.76904c0 -3.4006958 2.756775 -6.157501 6.1574707 -6.157501c1.6330566 0 3.1992493 0.6487427 4.354004 1.8034973c1.1547546 1.1547546 1.8034668 2.7209167 1.8034668 4.354004c0 3.4006653 -2.756775 6.1574707 -6.1574707 6.1574707c-3.4006958 0 -6.1574707 -2.7568054 -6.1574707 -6.1574707z" fill-rule="evenodd"/><path stroke="#000000" stroke-width="1.0" stroke-linejoin="round" stroke-linecap="butt" d="m354.65088 309.76904c0 -3.4006958 2.756775 -6.157501 6.1574707 -6.157501c1.6330566 0 3.1992493 0.6487427 4.354004 1.8034973c1.1547546 1.1547546 1.8034668 2.7209167 1.8034668 4.354004c0 3.4006653 -2.756775 6.1574707 -6.1574707 6.1574707c-3.4006958 0 -6.1574707 -2.7568054 -6.1574707 -6.1574707z" fill-rule="evenodd"/><path fill="#000000" fill-opacity="0.0" d="m408.76132 275.44794l16.126007 28.157501" fill-rule="evenodd"/><path stroke="#000000" stroke-width="2.0" stroke-linejoin="round" stroke-linecap="butt" d="m408.76132 275.44794l12.719635 22.209656" fill-rule="evenodd"/><path fill="#000000" stroke="#000000" stroke-width="2.0" stroke-linecap="butt" d="m421.48096 297.6576l-3.0695496 -0.83395386l5.022827 4.2445984l-1.1193237 -6.4801636z" fill-rule="evenodd"/><path fill="#000000" d="m418.73364 309.76904c0 -3.4006958 2.7568054 -6.157501 6.1574707 -6.157501c1.6330872 0 3.1992493 0.6487427 4.354004 1.8034973c1.1547546 1.1547546 1.8034973 2.7209167 1.8034973 4.354004c0 3.4006653 -2.7568054 6.1574707 -6.157501 6.1574707c-3.4006653 0 -6.1574707 -2.7568054 -6.1574707 -6.1574707z" fill-rule="evenodd"/><path stroke="#000000" stroke-width="1.0" stroke-linejoin="round" stroke-linecap="butt" d="m418.73364 309.76904c0 -3.4006958 2.7568054 -6.157501 6.1574707 -6.157501c1.6330872 0 3.1992493 0.6487427 4.354004 1.8034973c1.1547546 1.1547546 1.8034973 2.7209167 1.8034973 4.354004c0 3.4006653 -2.7568054 6.1574707 -6.157501 6.1574707c-3.4006653 0 -6.1574707 -2.7568054 -6.1574707 -6.1574707z" fill-rule="evenodd"/><path fill="#000000" fill-opacity="0.0" d="m263.03027 199.93643l15.464569 31.307098" fill-rule="evenodd"/><path stroke="#000000" stroke-width="1.7716535433070866" stroke-linejoin="round" stroke-linecap="butt" d="m263.03027 199.93643l12.775574 25.863403" fill-rule="evenodd"/><path fill="#000000" stroke="#000000" stroke-width="1.7716535433070866" stroke-linecap="butt" d="m275.80588 225.79982l-2.6687012 -0.90393066l4.2106323 4.0254974l-0.6380005 -5.790268z" fill-rule="evenodd"/><path fill="#000000" d="m273.0404 236.7097c0 -3.0180054 2.4465637 -5.464569 5.464569 -5.464569c1.4492798 0 2.8392334 0.57572937 3.8640442 1.6005249c1.0247803 1.0248108 1.6005249 2.4147491 1.6005249 3.8640442c0 3.01799 -2.4465637 5.464569 -5.464569 5.464569c-3.0180054 0 -5.464569 -2.446579 -5.464569 -5.464569z" fill-rule="evenodd"/><path stroke="#000000" stroke-width="0.884514435695538" stroke-linejoin="round" stroke-linecap="butt" d="m273.0404 236.7097c0 -3.0180054 2.4465637 -5.464569 5.464569 -5.464569c1.4492798 0 2.8392334 0.57572937 3.8640442 1.6005249c1.0247803 1.0248108 1.6005249 2.4147491 1.6005249 3.8640442c0 3.01799 -2.4465637 5.464569 -5.464569 5.464569c-3.0180054 0 -5.464569 -2.446579 -5.464569 -5.464569z" fill-rule="evenodd"/></g></svg>