<svg xmlns="http://www.w3.org/2000/svg" width="680" height="332" viewBox="180 10 680 332" fill="none">
  <defs>
    <marker id="arrowhead" markerWidth="8" markerHeight="6" refX="7" refY="3" orient="auto" markerUnits="strokeWidth">
      <path d="M0 0L8 3L0 6Z" fill="#000"/>
    </marker>
  </defs>

  <style>
    .node-box { fill: #fff; stroke: #000; stroke-width: 2.5; }
    .cell-divider { stroke: #000; stroke-width: 2; }
    .value { fill: #000; font-family: Arial, Helvetica, sans-serif; font-size: 22px; font-weight: 600; text-anchor: middle; dominant-baseline: middle; }
    .arrow { stroke: #000; stroke-width: 2.5; stroke-linecap: round; fill: none; marker-end: url(#arrowhead); }
    .null { fill: #000; }
  </style>

  <!-- A -->
  <rect x="370" y="20" width="120" height="42" rx="12" class="node-box"/>
  <line x1="410" y1="20" x2="410" y2="62" class="cell-divider"/>
  <line x1="450" y1="20" x2="450" y2="62" class="cell-divider"/>
  <text x="430" y="43" class="value">A</text>

  <!-- B -->
  <rect x="190" y="110" width="120" height="42" rx="12" class="node-box"/>
  <line x1="230" y1="110" x2="230" y2="152" class="cell-divider"/>
  <line x1="270" y1="110" x2="270" y2="152" class="cell-divider"/>
  <text x="250" y="133" class="value">B</text>
  <circle cx="210" cy="131" r="5" class="null"/>

  <!-- C -->
  <rect x="550" y="110" width="120" height="42" rx="12" class="node-box"/>
  <line x1="590" y1="110" x2="590" y2="152" class="cell-divider"/>
  <line x1="630" y1="110" x2="630" y2="152" class="cell-divider"/>
  <text x="610" y="133" class="value">C</text>

  <!-- D -->
  <rect x="300" y="200" width="120" height="42" rx="12" class="node-box"/>
  <line x1="340" y1="200" x2="340" y2="242" class="cell-divider"/>
  <line x1="380" y1="200" x2="380" y2="242" class="cell-divider"/>
  <text x="360" y="223" class="value">D</text>
  <circle cx="320" cy="221" r="5" class="null"/>
  <circle cx="400" cy="221" r="5" class="null"/>

  <!-- E -->
  <rect x="460" y="200" width="120" height="42" rx="12" class="node-box"/>
  <line x1="500" y1="200" x2="500" y2="242" class="cell-divider"/>
  <line x1="540" y1="200" x2="540" y2="242" class="cell-divider"/>
  <text x="520" y="223" class="value">E</text>
  <circle cx="560" cy="221" r="5" class="null"/>

  <!-- F -->
  <rect x="640" y="200" width="120" height="42" rx="12" class="node-box"/>
  <line x1="680" y1="200" x2="680" y2="242" class="cell-divider"/>
  <line x1="720" y1="200" x2="720" y2="242" class="cell-divider"/>
  <text x="700" y="223" class="value">F</text>

  <!-- G -->
  <rect x="400" y="290" width="120" height="42" rx="12" class="node-box"/>
  <line x1="440" y1="290" x2="440" y2="332" class="cell-divider"/>
  <line x1="480" y1="290" x2="480" y2="332" class="cell-divider"/>
  <text x="460" y="313" class="value">G</text>
  <circle cx="420" cy="311" r="5" class="null"/>
  <circle cx="500" cy="311" r="5" class="null"/>

  <!-- H -->
  <rect x="560" y="290" width="120" height="42" rx="12" class="node-box"/>
  <line x1="600" y1="290" x2="600" y2="332" class="cell-divider"/>
  <line x1="640" y1="290" x2="640" y2="332" class="cell-divider"/>
  <text x="620" y="313" class="value">H</text>
  <circle cx="580" cy="311" r="5" class="null"/>
  <circle cx="660" cy="311" r="5" class="null"/>

  <!-- I -->
  <rect x="730" y="290" width="120" height="42" rx="12" class="node-box"/>
  <line x1="770" y1="290" x2="770" y2="332" class="cell-divider"/>
  <line x1="810" y1="290" x2="810" y2="332" class="cell-divider"/>
  <text x="790" y="313" class="value">I</text>
  <circle cx="750" cy="311" r="5" class="null"/>
  <circle cx="830" cy="311" r="5" class="null"/>

  <!-- Pointers -->
  <line x1="390" y1="62" x2="250" y2="110" class="arrow"/>
  <line x1="470" y1="62" x2="610" y2="110" class="arrow"/>

  <line x1="290" y1="152" x2="360" y2="200" class="arrow"/>

  <line x1="570" y1="152" x2="520" y2="200" class="arrow"/>
  <line x1="650" y1="152" x2="700" y2="200" class="arrow"/>

  <line x1="480" y1="242" x2="460" y2="290" class="arrow"/>

  <line x1="660" y1="242" x2="620" y2="290" class="arrow"/>
  <line x1="740" y1="242" x2="790" y2="290" class="arrow"/>
</svg>
