<svg version="1.1" viewBox="0.0 0.0 630.501312335958 248.498687664042" fill="none" stroke="none" stroke-linecap="square" stroke-miterlimit="10" xmlns:xlink="http://www.w3.org/1999/xlink" xmlns="http://www.w3.org/2000/svg"><clipPath id="p.0"><path d="m0 0l630.50134 0l0 248.49869l-630.50134 0l0 -248.49869z" clip-rule="nonzero"/></clipPath><g clip-path="url(#p.0)"><path fill="#000000" fill-opacity="0.0" d="m0 0l630.50134 0l0 248.49869l-630.50134 0z" fill-rule="evenodd"/><path fill="#000000" fill-opacity="0.0" d="m108.73109 49.464718c0 -14.507259 11.76046 -26.267715 26.267723 -26.267715c6.966629 0 13.647919 2.7674847 18.574066 7.693636c4.9261627 4.926153 7.6936493 11.6074505 7.6936493 18.57408c0 14.507259 -11.760468 26.26772 -26.267715 26.26772c-14.507263 0 -26.267723 -11.76046 -26.267723 -26.26772z" fill-rule="evenodd"/><path stroke="#000000" stroke-width="3.0" stroke-linejoin="round" stroke-linecap="butt" d="m108.73109 49.464718c0 -14.507259 11.76046 -26.267715 26.267723 -26.267715c6.966629 0 13.647919 2.7674847 18.574066 7.693636c4.9261627 4.926153 7.6936493 11.6074505 7.6936493 18.57408c0 14.507259 -11.760468 26.26772 -26.267715 26.26772c-14.507263 0 -26.267723 -11.76046 -26.267723 -26.26772z" fill-rule="evenodd"/><path fill="#000000" d="m127.42443 62.804718l9.359383 -21.875l1.65625 -1.828125l-2.203125 0.328125l-10.640633 0l0 -2.75l15.593758 0l0 1.0l-10.75 25.125l-3.0156326 0z" fill-rule="nonzero"/><path fill="#000000" fill-opacity="0.0" d="m206.82909 125.05527c0 -14.507256 11.760452 -26.267715 26.267715 -26.267715c6.966629 0 13.647919 2.7674866 18.574081 7.6936417c4.926132 4.9261475 7.693619 11.607445 7.693619 18.574074c0 14.507263 -11.760452 26.267715 -26.2677 26.267715c-14.507263 0 -26.267715 -11.760452 -26.267715 -26.267715z" fill-rule="evenodd"/><path stroke="#000000" stroke-width="3.0" stroke-linejoin="round" stroke-linecap="butt" d="m206.82909 125.05527c0 -14.507256 11.760452 -26.267715 26.267715 -26.267715c6.966629 0 13.647919 2.7674866 18.574081 7.6936417c4.926132 4.9261475 7.693619 11.607445 7.693619 18.574074c0 14.507263 -11.760452 26.267715 -26.2677 26.267715c-14.507263 0 -26.267715 -11.760452 -26.267715 -26.267715z" fill-rule="evenodd"/><path fill="#000000" d="m240.97556 130.36401l-4.40625 0l0 8.03125l-2.90625 0l0 -8.03125l-11.5 0l0 -1.21875l12.390625 -17.296867l2.015625 0l0 15.90625l4.40625 0l0 2.6093674zm-7.3125 -10.749992l0.359375 -3.0625l-0.109375 0l-1.296875 2.546875l-5.265625 7.125l-1.796875 1.8281174l2.609375 -0.29686737l5.5 0l0 -8.140625z" fill-rule="nonzero"/><path fill="#000000" fill-opacity="0.0" d="m14.346372 125.05527c0 -14.507256 11.760457 -26.267715 26.26772 -26.267715c6.966629 0 13.647926 2.7674866 18.574078 7.6936417c4.9261513 4.9261475 7.693638 11.607445 7.693638 18.574074c0 14.507263 -11.760456 26.267715 -26.267715 26.267715c-14.507261 0 -26.26772 -11.760452 -26.26772 -26.267715z" fill-rule="evenodd"/><path stroke="#000000" stroke-width="3.0" stroke-linejoin="round" stroke-linecap="butt" d="m14.346372 125.05527c0 -14.507256 11.760457 -26.267715 26.26772 -26.267715c6.966629 0 13.647926 2.7674866 18.574078 7.6936417c4.9261513 4.9261475 7.693638 11.607445 7.693638 18.574074c0 14.507263 -11.760456 26.267715 -26.267715 26.267715c-14.507261 0 -26.26772 -11.760452 -26.26772 -26.267715z" fill-rule="evenodd"/><path fill="#000000" d="m37.66472 136.22339q1.265625 0 2.34375 -0.359375q1.09375 -0.375 1.875 -1.109375q0.78125 -0.734375 1.21875 -1.734375q0.453125 -1.015625 0.453125 -2.203125q0 -2.609375 -1.546875 -3.8749924q-1.546875 -1.28125 -4.265625 -1.28125l-2.765625 0l0 -1.078125l5.375 -8.28125l1.71875 -1.640625l-2.421875 0.359375l-7.390625 0l0 -2.75l13.3125 0l0 1.078125l-5.921875 8.921875l-1.3125 1.078125l0 0.078125l1.265625 -0.265625q1.5 0.046875 2.765625 0.546875q1.265625 0.5 2.203125 1.453125q0.9375 0.953125 1.453125 2.28125q0.53125 1.3281174 0.53125 2.9999924q0 2.015625 -0.71875 3.59375q-0.703125 1.5625 -1.921875 2.625q-1.203125 1.0625 -2.859375 1.625q-1.640625 0.5625 -3.46875 0.5625q-1.671875 0 -3.015625 -0.265625q-1.34375 -0.265625 -2.359375 -0.671875l0.78125 -2.65625q0.859375 0.421875 2.03125 0.703125q1.1875 0.265625 2.640625 0.265625z" fill-rule="nonzero"/><path fill="#000000" fill-opacity="0.0" d="m153.57288 68.0388l79.52757 30.74015" fill-rule="evenodd"/><path stroke="#000000" stroke-width="2.0" stroke-linejoin="round" stroke-linecap="butt" d="m153.57289 68.0388l73.13435 28.268959" fill-rule="evenodd"/><path fill="#000000" stroke="#000000" stroke-width="2.0" stroke-linecap="butt" d="m226.70724 96.30776l-2.9088135 1.2869873l6.5748444 0.13005829l-4.953018 -4.3258514z" fill-rule="evenodd"/><path fill="#000000" fill-opacity="0.0" d="m116.42472 68.0388l-75.81102 30.74015" fill-rule="evenodd"/><path stroke="#000000" stroke-width="2.0" stroke-linejoin="round" stroke-linecap="butt" d="m116.42473 68.0388l-69.45917 28.164581" fill-rule="evenodd"/><path fill="#000000" stroke="#000000" stroke-width="2.0" stroke-linecap="butt" d="m46.965557 96.20338l1.2391701 -2.9294968l-4.8814964 4.4064026l6.571823 -0.23773193z" fill-rule="evenodd"/><path fill="#000000" fill-opacity="0.0" d="m54.274876 200.64583c0 -14.507263 11.760456 -26.26773 26.267712 -26.26773c6.9666367 0 13.647934 2.7674866 18.574081 7.6936493c4.926155 4.9261475 7.6936417 11.607437 7.6936417 18.574081c0 14.507248 -11.76046 26.267715 -26.267723 26.267715c-14.507256 0 -26.267712 -11.760468 -26.267712 -26.267715z" fill-rule="evenodd"/><path stroke="#000000" stroke-width="3.0" stroke-linejoin="round" stroke-linecap="butt" d="m54.274876 200.64583c0 -14.507263 11.760456 -26.26773 26.267712 -26.26773c6.9666367 0 13.647934 2.7674866 18.574081 7.6936493c4.926155 4.9261475 7.6936417 11.607437 7.6936417 18.574081c0 14.507248 -11.76046 26.267715 -26.267723 26.267715c-14.507256 0 -26.267712 -11.760468 -26.267712 -26.267715z" fill-rule="evenodd"/><path fill="#000000" d="m76.81197 211.81395q2.578125 0 4.25 -1.484375q1.6875 -1.5 1.6875 -4.328125q0 -2.734375 -1.671875 -4.078125q-1.65625 -1.34375 -4.5625 -1.34375l-3.140625 0.1875l0 -12.90625l11.640625 0l0 2.75l-8.84375 0l0 7.4375l1.609375 -0.078125q3.6875 0.046875 5.8125 2.0625q2.140625 2.015625 2.140625 5.78125q0 2.09375 -0.71875 3.71875q-0.703125 1.609375 -1.921875 2.703125q-1.203125 1.078125 -2.84375 1.640625q-1.640625 0.5625 -3.515625 0.5625q-1.671875 0 -2.84375 -0.1875q-1.15625 -0.1875 -2.15625 -0.5625l0.78125 -2.546875q0.859375 0.34375 1.84375 0.515625q1.0 0.15625 2.453125 0.15625z" fill-rule="nonzero"/><path fill="#000000" fill-opacity="0.0" d="m59.188168 143.62935l21.354328 30.740158" fill-rule="evenodd"/><path stroke="#000000" stroke-width="2.0" stroke-linejoin="round" stroke-linecap="butt" d="m59.188168 143.62935l17.443874 25.110947" fill-rule="evenodd"/><path fill="#000000" stroke="#000000" stroke-width="2.0" stroke-linecap="butt" d="m76.63204 168.7403l-3.1304016 -0.5640106l5.3727646 3.7919464l-1.67836 -6.3583374z" fill-rule="evenodd"/><path fill="#000000" fill-opacity="0.0" d="m214.52272 143.62935l-24.56694 30.740158" fill-rule="evenodd"/><path stroke="#000000" stroke-width="2.0" stroke-linejoin="round" stroke-linecap="butt" d="m214.52272 143.62935l-20.287827 25.385803" fill-rule="evenodd"/><path fill="#000000" stroke="#000000" stroke-width="2.0" stroke-linecap="butt" d="m194.23488 169.01515l-0.35284424 -3.1611633l-2.1009064 6.231491l5.614929 -3.423172z" fill-rule="evenodd"/><path fill="#000000" fill-opacity="0.0" d="m163.67596 200.63795c0 -14.507263 11.760468 -26.26773 26.26773 -26.26773c6.966629 0 13.647919 2.7674866 18.574066 7.6936493c4.9261627 4.9261475 7.6936493 11.607437 7.6936493 18.574081c0 14.507248 -11.760468 26.267715 -26.267715 26.267715c-14.507263 0 -26.26773 -11.760468 -26.26773 -26.267715z" fill-rule="evenodd"/><path stroke="#000000" stroke-width="3.0" stroke-linejoin="round" stroke-linecap="butt" d="m163.67596 200.63795c0 -14.507263 11.760468 -26.26773 26.26773 -26.26773c6.966629 0 13.647919 2.7674866 18.574066 7.6936493c4.9261627 4.9261475 7.6936493 11.607437 7.6936493 18.574081c0 14.507248 -11.760468 26.267715 -26.267715 26.267715c-14.507263 0 -26.26773 -11.760468 -26.26773 -26.267715z" fill-rule="evenodd"/><path fill="#000000" d="m196.61932 206.10295q0 1.71875 -0.53125 3.234375q-0.515625 1.5 -1.53125 2.640625q-1.0 1.140625 -2.5 1.796875q-1.484375 0.65625 -3.375 0.65625q-1.875 0 -3.375 -0.59375q-1.484375 -0.609375 -2.578125 -1.78125q-1.078125 -1.171875 -1.65625 -2.890625q-0.578125 -1.71875 -0.578125 -3.953125q0 -3.703125 0.953125 -6.8125q0.953125 -3.125 2.625 -5.4375q1.6875 -2.3125 3.984375 -3.75q2.296875 -1.4375 4.984375 -1.8125l0.640625 2.390625q-2.09375 0.375 -3.8125 1.421875q-1.71875 1.046875 -3.015625 2.578125q-1.28125 1.515625 -2.109375 3.421875q-0.8125 1.90625 -1.109375 3.921875q0.59375 -1.0 2.015625 -1.84375q1.421875 -0.84375 3.46875 -0.84375q3.515625 0 5.5 2.015625q2.0 2.015625 2.0 5.640625zm-3.09375 0.296875q0 -2.65625 -1.234375 -4.0q-1.234375 -1.34375 -3.796875 -1.34375q-1.828125 0 -3.15625 0.90625q-1.328125 0.890625 -1.859375 2.015625q-0.0625 0.515625 -0.0625 0.859375q0 0.328125 0 0.734375q0 1.171875 0.3125 2.296875q0.3125 1.109375 0.984375 1.984375q0.671875 0.875 1.65625 1.421875q1.0 0.53125 2.34375 0.53125q1.078125 0 1.953125 -0.40625q0.875 -0.40625 1.515625 -1.109375q0.640625 -0.71875 0.984375 -1.71875q0.359375 -1.015625 0.359375 -2.171875z" fill-rule="nonzero"/><path fill="#000000" fill-opacity="0.0" d="m449.0025 30.047245c0 -14.50726 11.760437 -26.267717 26.2677 -26.267717c6.9666443 0 13.647949 2.7674837 18.574097 7.693636c4.9261475 4.926153 7.693634 11.607449 7.693634 18.574081c0 14.507259 -11.760468 26.267715 -26.26773 26.267715c-14.507263 0 -26.2677 -11.760456 -26.2677 -26.267715z" fill-rule="evenodd"/><path stroke="#000000" stroke-width="3.0" stroke-linejoin="round" stroke-linecap="butt" d="m449.0025 30.047245c0 -14.50726 11.760437 -26.267717 26.2677 -26.267717c6.9666443 0 13.647949 2.7674837 18.574097 7.693636c4.9261475 4.926153 7.693634 11.607449 7.693634 18.574081c0 14.507259 -11.760468 26.267715 -26.26773 26.267715c-14.507263 0 -26.2677 -11.760456 -26.2677 -26.267715z" fill-rule="evenodd"/><path fill="#000000" d="m467.69583 43.38724l9.359375 -21.875l1.65625 -1.828125l-2.203125 0.328125l-10.640625 0l0 -2.75l15.59375 0l0 1.0l-10.75 25.125l-3.015625 0z" fill-rule="nonzero"/><path fill="#000000" fill-opacity="0.0" d="m547.10046 105.637794c0 -14.507256 11.760498 -26.267715 26.267761 -26.267715c6.966614 0 13.647888 2.7674866 18.574036 7.693634c4.9262085 4.926155 7.6936646 11.607452 7.6936646 18.574081c0 14.507263 -11.760437 26.267723 -26.2677 26.267723c-14.507263 0 -26.267761 -11.76046 -26.267761 -26.267723z" fill-rule="evenodd"/><path stroke="#000000" stroke-width="3.0" stroke-linejoin="round" stroke-linecap="butt" d="m547.10046 105.637794c0 -14.507256 11.760498 -26.267715 26.267761 -26.267715c6.966614 0 13.647888 2.7674866 18.574036 7.693634c4.9262085 4.926155 7.6936646 11.607452 7.6936646 18.574081c0 14.507263 -11.760437 26.267723 -26.2677 26.267723c-14.507263 0 -26.267761 -11.76046 -26.267761 -26.267723z" fill-rule="evenodd"/><path fill="#000000" d="m581.24695 110.94654l-4.40625 0l0 8.03125l-2.90625 0l0 -8.03125l-11.5 0l0 -1.21875l12.390625 -17.296875l2.015625 0l0 15.90625l4.40625 0l0 2.609375zm-7.3125 -10.75l0.359375 -3.0625l-0.109375 0l-1.296875 2.546875l-5.265625 7.125l-1.796875 1.828125l2.609375 -0.296875l5.5 0l0 -8.140625z" fill-rule="nonzero"/><path fill="#000000" fill-opacity="0.0" d="m354.61777 105.637794c0 -14.507256 11.760468 -26.267715 26.26773 -26.267715c6.9666443 0 13.647919 2.7674866 18.574066 7.693634c4.926178 4.926155 7.6936646 11.607452 7.6936646 18.574081c0 14.507263 -11.760468 26.267723 -26.26773 26.267723c-14.507263 0 -26.26773 -11.76046 -26.26773 -26.267723z" fill-rule="evenodd"/><path stroke="#000000" stroke-width="3.0" stroke-linejoin="round" stroke-linecap="butt" d="m354.61777 105.637794c0 -14.507256 11.760468 -26.267715 26.26773 -26.267715c6.9666443 0 13.647919 2.7674866 18.574066 7.693634c4.926178 4.926155 7.6936646 11.607452 7.6936646 18.574081c0 14.507263 -11.760468 26.267723 -26.26773 26.267723c-14.507263 0 -26.26773 -11.76046 -26.26773 -26.267723z" fill-rule="evenodd"/><path fill="#000000" d="m377.93613 116.805916q1.265625 0 2.34375 -0.359375q1.09375 -0.375 1.875 -1.109375q0.78125 -0.734375 1.21875 -1.734375q0.453125 -1.015625 0.453125 -2.203125q0 -2.609375 -1.546875 -3.875q-1.546875 -1.28125 -4.265625 -1.28125l-2.765625 0l0 -1.078125l5.375 -8.28125l1.71875 -1.640625l-2.421875 0.359375l-7.390625 0l0 -2.75l13.3125 0l0 1.078125l-5.921875 8.921875l-1.3125 1.078125l0 0.078125l1.265625 -0.265625q1.5 0.046875 2.765625 0.546875q1.265625 0.5 2.203125 1.453125q0.9375 0.953125 1.453125 2.28125q0.53125 1.328125 0.53125 3.0q0 2.015625 -0.71875 3.59375q-0.703125 1.5625 -1.921875 2.625q-1.203125 1.0625 -2.859375 1.625q-1.640625 0.5625 -3.46875 0.5625q-1.671875 0 -3.015625 -0.265625q-1.34375 -0.265625 -2.359375 -0.671875l0.78125 -2.65625q0.859375 0.421875 2.03125 0.703125q1.1875 0.265625 2.640625 0.265625z" fill-rule="nonzero"/><path fill="#000000" fill-opacity="0.0" d="m493.8443 48.621326l79.52753 30.740154" fill-rule="evenodd"/><path stroke="#000000" stroke-width="2.0" stroke-linejoin="round" stroke-linecap="butt" d="m493.84427 48.621323l73.13437 28.268967" fill-rule="evenodd"/><path fill="#000000" stroke="#000000" stroke-width="2.0" stroke-linecap="butt" d="m566.97864 76.89029l-2.9088135 1.2869873l6.574829 0.13006592l-4.953003 -4.325859z" fill-rule="evenodd"/><path fill="#000000" fill-opacity="0.0" d="m456.69614 48.621326l-75.811035 30.740154" fill-rule="evenodd"/><path stroke="#000000" stroke-width="2.0" stroke-linejoin="round" stroke-linecap="butt" d="m456.6961 48.621323l-69.45914 28.164581" fill-rule="evenodd"/><path fill="#000000" stroke="#000000" stroke-width="2.0" stroke-linecap="butt" d="m387.23694 76.785904l1.2391663 -2.9294968l-4.8815002 4.4064026l6.5718384 -0.23773193z" fill-rule="evenodd"/><path fill="#000000" fill-opacity="0.0" d="m394.5463 181.22835c0 -14.507263 11.760437 -26.267715 26.2677 -26.267715c6.9666443 0 13.647919 2.7674866 18.574097 7.693634c4.9261475 4.9261475 7.693634 11.607452 7.693634 18.574081c0 14.507263 -11.760468 26.267715 -26.26773 26.267715c-14.507263 0 -26.2677 -11.760452 -26.2677 -26.267715z" fill-rule="evenodd"/><path stroke="#000000" stroke-width="3.0" stroke-linejoin="round" stroke-linecap="butt" d="m394.5463 181.22835c0 -14.507263 11.760437 -26.267715 26.2677 -26.267715c6.9666443 0 13.647919 2.7674866 18.574097 7.693634c4.9261475 4.9261475 7.693634 11.607452 7.693634 18.574081c0 14.507263 -11.760468 26.267715 -26.26773 26.267715c-14.507263 0 -26.2677 -11.760452 -26.2677 -26.267715z" fill-rule="evenodd"/><path fill="#000000" d="m417.08337 192.39647q2.578125 0 4.25 -1.484375q1.6875 -1.5 1.6875 -4.328125q0 -2.734375 -1.671875 -4.078125q-1.65625 -1.34375 -4.5625 -1.34375l-3.140625 0.1875l0 -12.90625l11.640625 0l0 2.75l-8.84375 0l0 7.4375l1.609375 -0.078125q3.6875 0.046875 5.8125 2.0625q2.140625 2.015625 2.140625 5.78125q0 2.09375 -0.71875 3.71875q-0.703125 1.609375 -1.921875 2.703125q-1.203125 1.078125 -2.84375 1.640625q-1.640625 0.5625 -3.515625 0.5625q-1.671875 0 -2.84375 -0.1875q-1.15625 -0.1875 -2.15625 -0.5625l0.78125 -2.546875q0.859375 0.34375 1.84375 0.515625q1.0 0.15625 2.453125 0.15625z" fill-rule="nonzero"/><path fill="#000000" fill-opacity="0.0" d="m399.45956 124.211876l21.35434 30.74015" fill-rule="evenodd"/><path stroke="#000000" stroke-width="2.0" stroke-linejoin="round" stroke-linecap="butt" d="m399.45956 124.21188l17.443848 25.110947" fill-rule="evenodd"/><path fill="#000000" stroke="#000000" stroke-width="2.0" stroke-linecap="butt" d="m416.90344 149.32283l-3.1304016 -0.5640106l5.372772 3.7919464l-1.6783752 -6.3583374z" fill-rule="evenodd"/><path fill="#000000" fill-opacity="0.0" d="m362.31143 124.211876l-20.59845 25.763786" fill-rule="evenodd"/><path stroke="#000000" stroke-width="2.0" stroke-linejoin="round" stroke-linecap="butt" d="m362.31143 124.21188l-16.318268 20.410294" fill-rule="evenodd"/><path fill="#000000" stroke="#000000" stroke-width="2.0" stroke-linecap="butt" d="m345.99316 144.62218l-0.35220337 -3.1612396l-2.1021729 6.231064l5.615631 -3.4220276z" fill-rule="evenodd"/><path fill="#000000" d="m331.19116 154.31496c0 -3.4006805 2.7568054 -6.1574707 6.1574707 -6.1574707c1.6330872 0 3.1992493 0.6487274 4.354004 1.803482c1.1547546 1.1547546 1.8034973 2.720932 1.8034973 4.3539886c0 3.4006805 -2.7568054 6.157486 -6.157501 6.157486c-3.4006653 0 -6.1574707 -2.7568054 -6.1574707 -6.157486z" fill-rule="evenodd"/><path stroke="#000000" stroke-width="1.0" stroke-linejoin="round" stroke-linecap="butt" d="m331.19116 154.31496c0 -3.4006805 2.7568054 -6.1574707 6.1574707 -6.1574707c1.6330872 0 3.1992493 0.6487274 4.354004 1.803482c1.1547546 1.1547546 1.8034973 2.720932 1.8034973 4.3539886c0 3.4006805 -2.7568054 6.157486 -6.157501 6.157486c-3.4006653 0 -6.1574707 -2.7568054 -6.1574707 -6.157486z" fill-rule="evenodd"/><path fill="#000000" fill-opacity="0.0" d="m402.23993 199.80243l-17.952759 24.377945" fill-rule="evenodd"/><path stroke="#000000" stroke-width="2.1233595800524934" stroke-linejoin="round" stroke-linecap="butt" d="m402.2399 199.80243l-13.637604 18.518478" fill-rule="evenodd"/><path fill="#000000" stroke="#000000" stroke-width="2.1233595800524934" stroke-linecap="butt" d="m388.60226 218.3209l-0.5067749 -3.3387604l-1.9676208 6.6987457l5.8131714 -3.8667603z" fill-rule="evenodd"/><path fill="#000000" d="m373.13696 228.80153c0 3.6094208 2.9260254 6.535431 6.535431 6.535431c1.7333069 0 3.39563 -0.68855286 4.6212463 -1.9141846c1.225647 -1.2256317 1.9141846 -2.8879395 1.9141846 -4.6212463c0 -3.6094208 -2.9260254 -6.535431 -6.535431 -6.535431c-3.6094055 0 -6.535431 2.9260101 -6.535431 6.535431z" fill-rule="evenodd"/><path stroke="#000000" stroke-width="1.0629921259842519" stroke-linejoin="round" stroke-linecap="butt" d="m373.13696 228.80153c0 3.6094208 2.9260254 6.535431 6.535431 6.535431c1.7333069 0 3.39563 -0.68855286 4.6212463 -1.9141846c1.225647 -1.2256317 1.9141846 -2.8879395 1.9141846 -4.6212463c0 -3.6094208 -2.9260254 -6.535431 -6.535431 -6.535431c-3.6094055 0 -6.535431 2.9260101 -6.535431 6.535431z" fill-rule="evenodd"/><path fill="#000000" d="m455.303 228.98671c0 3.6094208 2.9259949 6.535446 6.535431 6.535446c1.7333069 0 3.3955994 -0.68855286 4.6212463 -1.9141846c1.2256165 -1.2256317 1.9141846 -2.8879547 1.9141846 -4.6212616c0 -3.6094208 -2.9260254 -6.535431 -6.535431 -6.535431c-3.609436 0 -6.535431 2.9260101 -6.535431 6.535431z" fill-rule="evenodd"/><path stroke="#000000" stroke-width="1.0629921259842519" stroke-linejoin="round" stroke-linecap="butt" d="m455.303 228.98671c0 3.6094208 2.9259949 6.535446 6.535431 6.535446c1.7333069 0 3.3955994 -0.68855286 4.6212463 -1.9141846c1.2256165 -1.2256317 1.9141846 -2.8879547 1.9141846 -4.6212616c0 -3.6094208 -2.9260254 -6.535431 -6.535431 -6.535431c-3.609436 0 -6.535431 2.9260101 -6.535431 6.535431z" fill-rule="evenodd"/><path fill="#000000" fill-opacity="0.0" d="m438.91797 199.79854l18.299225 24.566925" fill-rule="evenodd"/><path stroke="#000000" stroke-width="2.1233595800524934" stroke-linejoin="round" stroke-linecap="butt" d="m438.91797 199.79854l13.95224 18.731049" fill-rule="evenodd"/><path fill="#000000" stroke="#000000" stroke-width="2.1233595800524934" stroke-linecap="butt" d="m452.8702 218.52959l-3.3414612 -0.48858643l5.834137 3.8350372l-2.0040894 -6.6879272z" fill-rule="evenodd"/><path fill="#000000" fill-opacity="0.0" d="m554.7941 124.211876l-24.566956 30.74015" fill-rule="evenodd"/><path stroke="#000000" stroke-width="2.0" stroke-linejoin="round" stroke-linecap="butt" d="m554.7941 124.21188l-20.287842 25.385803" fill-rule="evenodd"/><path fill="#000000" stroke="#000000" stroke-width="2.0" stroke-linecap="butt" d="m534.5063 149.59769l-0.35284424 -3.1611633l-2.100891 6.231491l5.614929 -3.423172z" fill-rule="evenodd"/><path fill="#000000" fill-opacity="0.0" d="m503.9474 181.22047c0 -14.507263 11.760437 -26.267715 26.2677 -26.267715c6.966614 0 13.647949 2.7674866 18.574097 7.693634c4.9261475 4.9261475 7.6936035 11.607452 7.6936035 18.574081c0 14.507263 -11.760437 26.267715 -26.2677 26.267715c-14.507263 0 -26.2677 -11.760452 -26.2677 -26.267715z" fill-rule="evenodd"/><path stroke="#000000" stroke-width="3.0" stroke-linejoin="round" stroke-linecap="butt" d="m503.9474 181.22047c0 -14.507263 11.760437 -26.267715 26.2677 -26.267715c6.966614 0 13.647949 2.7674866 18.574097 7.693634c4.9261475 4.9261475 7.6936035 11.607452 7.6936035 18.574081c0 14.507263 -11.760437 26.267715 -26.2677 26.267715c-14.507263 0 -26.2677 -11.760452 -26.2677 -26.267715z" fill-rule="evenodd"/><path fill="#000000" d="m536.89075 186.68547q0 1.71875 -0.53125 3.234375q-0.515625 1.5 -1.53125 2.640625q-1.0 1.140625 -2.5 1.796875q-1.484375 0.65625 -3.375 0.65625q-1.875 0 -3.375 -0.59375q-1.484375 -0.609375 -2.578125 -1.78125q-1.078125 -1.171875 -1.65625 -2.890625q-0.578125 -1.71875 -0.578125 -3.953125q0 -3.703125 0.953125 -6.8125q0.953125 -3.125 2.625 -5.4375q1.6875 -2.3125 3.984375 -3.75q2.296875 -1.4375 4.984375 -1.8125l0.640625 2.390625q-2.09375 0.375 -3.8125 1.421875q-1.71875 1.046875 -3.015625 2.578125q-1.28125 1.515625 -2.109375 3.421875q-0.8125 1.90625 -1.109375 3.921875q0.59375 -1.0 2.015625 -1.84375q1.421875 -0.84375 3.46875 -0.84375q3.515625 0 5.5 2.015625q2.0 2.015625 2.0 5.640625zm-3.09375 0.296875q0 -2.65625 -1.234375 -4.0q-1.234375 -1.34375 -3.796875 -1.34375q-1.828125 0 -3.15625 0.90625q-1.328125 0.890625 -1.859375 2.015625q-0.0625 0.515625 -0.0625 0.859375q0 0.328125 0 0.734375q0 1.171875 0.3125 2.296875q0.3125 1.109375 0.984375 1.984375q0.671875 0.875 1.65625 1.421875q1.0 0.53125 2.34375 0.53125q1.078125 0 1.953125 -0.40625q0.875 -0.40625 1.515625 -1.109375q0.640625 -0.71875 0.984375 -1.71875q0.359375 -1.015625 0.359375 -2.171875z" fill-rule="nonzero"/><path fill="#000000" fill-opacity="0.0" d="m511.64102 199.79456l-17.952759 24.377945" fill-rule="evenodd"/><path stroke="#000000" stroke-width="2.1233595800524934" stroke-linejoin="round" stroke-linecap="butt" d="m511.64102 199.79456l-13.637604 18.518478" fill-rule="evenodd"/><path fill="#000000" stroke="#000000" stroke-width="2.1233595800524934" stroke-linecap="butt" d="m498.0034 218.31303l-0.5067749 -3.3387604l-1.9676208 6.6987457l5.8131714 -3.8667603z" fill-rule="evenodd"/><path fill="#000000" d="m482.53806 228.79366c0 3.6094208 2.9260254 6.535431 6.535431 6.535431c1.7333069 0 3.39563 -0.68855286 4.6212463 -1.9141846c1.225647 -1.2256317 1.9141846 -2.8879395 1.9141846 -4.6212463c0 -3.6094208 -2.9259949 -6.535431 -6.535431 -6.535431c-3.6094055 0 -6.535431 2.9260101 -6.535431 6.535431z" fill-rule="evenodd"/><path stroke="#000000" stroke-width="1.0629921259842519" stroke-linejoin="round" stroke-linecap="butt" d="m482.53806 228.79366c0 3.6094208 2.9260254 6.535431 6.535431 6.535431c1.7333069 0 3.39563 -0.68855286 4.6212463 -1.9141846c1.225647 -1.2256317 1.9141846 -2.8879395 1.9141846 -4.6212463c0 -3.6094208 -2.9259949 -6.535431 -6.535431 -6.535431c-3.6094055 0 -6.535431 2.9260101 -6.535431 6.535431z" fill-rule="evenodd"/><path fill="#000000" d="m564.7041 228.97884c0 3.6094208 2.9260254 6.535431 6.5354004 6.535431c1.7333374 0 3.39563 -0.68855286 4.621277 -1.9141693c1.225647 -1.2256317 1.9141846 -2.8879547 1.9141846 -4.6212616c0 -3.6094208 -2.9260254 -6.535431 -6.5354614 -6.535431c-3.609375 0 -6.5354004 2.9260101 -6.5354004 6.535431z" fill-rule="evenodd"/><path stroke="#000000" stroke-width="1.0629921259842519" stroke-linejoin="round" stroke-linecap="butt" d="m564.7041 228.97884c0 3.6094208 2.9260254 6.535431 6.5354004 6.535431c1.7333374 0 3.39563 -0.68855286 4.621277 -1.9141693c1.225647 -1.2256317 1.9141846 -2.8879547 1.9141846 -4.6212616c0 -3.6094208 -2.9260254 -6.535431 -6.5354614 -6.535431c-3.609375 0 -6.5354004 2.9260101 -6.5354004 6.535431z" fill-rule="evenodd"/><path fill="#000000" fill-opacity="0.0" d="m548.3191 199.79066l18.299194 24.566925" fill-rule="evenodd"/><path stroke="#000000" stroke-width="2.1233595800524934" stroke-linejoin="round" stroke-linecap="butt" d="m548.3191 199.79066l13.952209 18.731049" fill-rule="evenodd"/><path fill="#000000" stroke="#000000" stroke-width="2.1233595800524934" stroke-linecap="butt" d="m562.2713 218.52171l-3.3414917 -0.48858643l5.8341675 3.8350372l-2.0040894 -6.6879272z" fill-rule="evenodd"/><path fill="#000000" d="m606.55365 154.69995c0 3.6094208 2.9260254 6.535431 6.5354004 6.535431c1.7333374 0 3.39563 -0.68855286 4.621277 -1.9141846c1.225647 -1.2256317 1.9141846 -2.8879395 1.9141846 -4.6212463c0 -3.6094208 -2.9260254 -6.535431 -6.5354614 -6.535431c-3.609375 0 -6.5354004 2.9260101 -6.5354004 6.535431z" fill-rule="evenodd"/><path stroke="#000000" stroke-width="1.0629921259842519" stroke-linejoin="round" stroke-linecap="butt" d="m606.55365 154.69995c0 3.6094208 2.9260254 6.535431 6.5354004 6.535431c1.7333374 0 3.39563 -0.68855286 4.621277 -1.9141846c1.225647 -1.2256317 1.9141846 -2.8879395 1.9141846 -4.6212463c0 -3.6094208 -2.9260254 -6.535431 -6.5354614 -6.535431c-3.609375 0 -6.5354004 2.9260101 -6.5354004 6.535431z" fill-rule="evenodd"/><path fill="#000000" fill-opacity="0.0" d="m591.94226 124.211876l16.535461 25.858269" fill-rule="evenodd"/><path stroke="#000000" stroke-width="2.1233595800524934" stroke-linejoin="round" stroke-linecap="butt" d="m591.9423 124.21188l12.615112 19.727615" fill-rule="evenodd"/><path fill="#000000" stroke="#000000" stroke-width="2.1233595800524934" stroke-linecap="butt" d="m604.5574 143.9395l-3.2981567 -0.7253113l5.5462036 4.240799l-1.5227051 -6.813675z" fill-rule="evenodd"/><path fill="#000000" fill-opacity="0.0" d="m304.70865 11.068241l0 231.05511" fill-rule="evenodd"/><path stroke="#000000" stroke-width="1.0" stroke-linejoin="round" stroke-linecap="butt" d="m304.70865 11.068241l0 231.05511" fill-rule="evenodd"/></g></svg>